<?xml version="1.0" encoding="utf-8" standalone="no"?>
<!DOCTYPE svg PUBLIC "-//W3C//DTD SVG 1.1//EN"
  "http://www.w3.org/Graphics/SVG/1.1/DTD/svg11.dtd">
<svg xmlns:xlink="http://www.w3.org/1999/xlink" width="720pt" height="576pt" viewBox="0 0 720 576" xmlns="http://www.w3.org/2000/svg" version="1.1">
 <metadata>
  <rdf:RDF xmlns:dc="http://purl.org/dc/elements/1.1/" xmlns:cc="http://creativecommons.org/ns#" xmlns:rdf="http://www.w3.org/1999/02/22-rdf-syntax-ns#">
   <cc:Work>
    <dc:type rdf:resource="http://purl.org/dc/dcmitype/StillImage"/>
    <dc:date>2023-05-31T19:25:17.579223</dc:date>
    <dc:format>image/svg+xml</dc:format>
    <dc:creator>
     <cc:Agent>
      <dc:title>Matplotlib v3.7.1, https://matplotlib.org/</dc:title>
     </cc:Agent>
    </dc:creator>
   </cc:Work>
  </rdf:RDF>
 </metadata>
 <defs>
  <style type="text/css">*{stroke-linejoin: round; stroke-linecap: butt}</style>
 </defs>
 <g id="figure_1">
  <g id="patch_1">
   <path d="M 0 576 
L 720 576 
L 720 0 
L 0 0 
z
" style="fill: #ffffff"/>
  </g>
  <g id="axes_1">
   <g id="patch_2">
    <path d="M 90 512.64 
L 254.117647 512.64 
L 254.117647 69.12 
L 90 69.12 
z
" style="fill: #ffffff"/>
   </g>
   <g id="matplotlib.axis_1">
    <g id="xtick_1">
     <g id="line2d_1">
      <defs>
       <path id="m7c272b6fbf" d="M 0 0 
L 0 3.5 
" style="stroke: #000000; stroke-width: 0.8"/>
      </defs>
      <g>
       <use xlink:href="#m7c272b6fbf" x="97.199966" y="512.64" style="stroke: #000000; stroke-width: 0.8"/>
      </g>
     </g>
     <g id="text_1">
      <!-- 0 -->
      <g transform="translate(94.018716 527.238438) scale(0.1 -0.1)">
       <defs>
        <path id="DejaVuSans-30" d="M 2034 4250 
Q 1547 4250 1301 3770 
Q 1056 3291 1056 2328 
Q 1056 1369 1301 889 
Q 1547 409 2034 409 
Q 2525 409 2770 889 
Q 3016 1369 3016 2328 
Q 3016 3291 2770 3770 
Q 2525 4250 2034 4250 
z
M 2034 4750 
Q 2819 4750 3233 4129 
Q 3647 3509 3647 2328 
Q 3647 1150 3233 529 
Q 2819 -91 2034 -91 
Q 1250 -91 836 529 
Q 422 1150 422 2328 
Q 422 3509 836 4129 
Q 1250 4750 2034 4750 
z
" transform="scale(0.015625)"/>
       </defs>
       <use xlink:href="#DejaVuSans-30"/>
      </g>
     </g>
    </g>
    <g id="xtick_2">
     <g id="line2d_2">
      <g>
       <use xlink:href="#m7c272b6fbf" x="149.185284" y="512.64" style="stroke: #000000; stroke-width: 0.8"/>
      </g>
     </g>
     <g id="text_2">
      <!-- 200 -->
      <g transform="translate(139.641534 527.238438) scale(0.1 -0.1)">
       <defs>
        <path id="DejaVuSans-32" d="M 1228 531 
L 3431 531 
L 3431 0 
L 469 0 
L 469 531 
Q 828 903 1448 1529 
Q 2069 2156 2228 2338 
Q 2531 2678 2651 2914 
Q 2772 3150 2772 3378 
Q 2772 3750 2511 3984 
Q 2250 4219 1831 4219 
Q 1534 4219 1204 4116 
Q 875 4013 500 3803 
L 500 4441 
Q 881 4594 1212 4672 
Q 1544 4750 1819 4750 
Q 2544 4750 2975 4387 
Q 3406 4025 3406 3419 
Q 3406 3131 3298 2873 
Q 3191 2616 2906 2266 
Q 2828 2175 2409 1742 
Q 1991 1309 1228 531 
z
" transform="scale(0.015625)"/>
       </defs>
       <use xlink:href="#DejaVuSans-32"/>
       <use xlink:href="#DejaVuSans-30" x="63.623047"/>
       <use xlink:href="#DejaVuSans-30" x="127.246094"/>
      </g>
     </g>
    </g>
    <g id="xtick_3">
     <g id="line2d_3">
      <g>
       <use xlink:href="#m7c272b6fbf" x="201.170601" y="512.64" style="stroke: #000000; stroke-width: 0.8"/>
      </g>
     </g>
     <g id="text_3">
      <!-- 400 -->
      <g transform="translate(191.626851 527.238438) scale(0.1 -0.1)">
       <defs>
        <path id="DejaVuSans-34" d="M 2419 4116 
L 825 1625 
L 2419 1625 
L 2419 4116 
z
M 2253 4666 
L 3047 4666 
L 3047 1625 
L 3713 1625 
L 3713 1100 
L 3047 1100 
L 3047 0 
L 2419 0 
L 2419 1100 
L 313 1100 
L 313 1709 
L 2253 4666 
z
" transform="scale(0.015625)"/>
       </defs>
       <use xlink:href="#DejaVuSans-34"/>
       <use xlink:href="#DejaVuSans-30" x="63.623047"/>
       <use xlink:href="#DejaVuSans-30" x="127.246094"/>
      </g>
     </g>
    </g>
    <g id="xtick_4">
     <g id="line2d_4">
      <g>
       <use xlink:href="#m7c272b6fbf" x="253.155919" y="512.64" style="stroke: #000000; stroke-width: 0.8"/>
      </g>
     </g>
     <g id="text_4">
      <!-- 600 -->
      <g transform="translate(243.612169 527.238438) scale(0.1 -0.1)">
       <defs>
        <path id="DejaVuSans-36" d="M 2113 2584 
Q 1688 2584 1439 2293 
Q 1191 2003 1191 1497 
Q 1191 994 1439 701 
Q 1688 409 2113 409 
Q 2538 409 2786 701 
Q 3034 994 3034 1497 
Q 3034 2003 2786 2293 
Q 2538 2584 2113 2584 
z
M 3366 4563 
L 3366 3988 
Q 3128 4100 2886 4159 
Q 2644 4219 2406 4219 
Q 1781 4219 1451 3797 
Q 1122 3375 1075 2522 
Q 1259 2794 1537 2939 
Q 1816 3084 2150 3084 
Q 2853 3084 3261 2657 
Q 3669 2231 3669 1497 
Q 3669 778 3244 343 
Q 2819 -91 2113 -91 
Q 1303 -91 875 529 
Q 447 1150 447 2328 
Q 447 3434 972 4092 
Q 1497 4750 2381 4750 
Q 2619 4750 2861 4703 
Q 3103 4656 3366 4563 
z
" transform="scale(0.015625)"/>
       </defs>
       <use xlink:href="#DejaVuSans-36"/>
       <use xlink:href="#DejaVuSans-30" x="63.623047"/>
       <use xlink:href="#DejaVuSans-30" x="127.246094"/>
      </g>
     </g>
    </g>
   </g>
   <g id="matplotlib.axis_2">
    <g id="ytick_1">
     <g id="line2d_5">
      <defs>
       <path id="m2174fb0aba" d="M 0 0 
L -3.5 0 
" style="stroke: #000000; stroke-width: 0.8"/>
      </defs>
      <g>
       <use xlink:href="#m2174fb0aba" x="90" y="492.48" style="stroke: #000000; stroke-width: 0.8"/>
      </g>
     </g>
     <g id="text_5">
      <!-- 0.0 -->
      <g transform="translate(67.096875 496.279219) scale(0.1 -0.1)">
       <defs>
        <path id="DejaVuSans-2e" d="M 684 794 
L 1344 794 
L 1344 0 
L 684 0 
L 684 794 
z
" transform="scale(0.015625)"/>
       </defs>
       <use xlink:href="#DejaVuSans-30"/>
       <use xlink:href="#DejaVuSans-2e" x="63.623047"/>
       <use xlink:href="#DejaVuSans-30" x="95.410156"/>
      </g>
     </g>
    </g>
    <g id="ytick_2">
     <g id="line2d_6">
      <g>
       <use xlink:href="#m2174fb0aba" x="90" y="405.705578" style="stroke: #000000; stroke-width: 0.8"/>
      </g>
     </g>
     <g id="text_6">
      <!-- 0.1 -->
      <g transform="translate(67.096875 409.504796) scale(0.1 -0.1)">
       <defs>
        <path id="DejaVuSans-31" d="M 794 531 
L 1825 531 
L 1825 4091 
L 703 3866 
L 703 4441 
L 1819 4666 
L 2450 4666 
L 2450 531 
L 3481 531 
L 3481 0 
L 794 0 
L 794 531 
z
" transform="scale(0.015625)"/>
       </defs>
       <use xlink:href="#DejaVuSans-30"/>
       <use xlink:href="#DejaVuSans-2e" x="63.623047"/>
       <use xlink:href="#DejaVuSans-31" x="95.410156"/>
      </g>
     </g>
    </g>
    <g id="ytick_3">
     <g id="line2d_7">
      <g>
       <use xlink:href="#m2174fb0aba" x="90" y="318.931155" style="stroke: #000000; stroke-width: 0.8"/>
      </g>
     </g>
     <g id="text_7">
      <!-- 0.2 -->
      <g transform="translate(67.096875 322.730374) scale(0.1 -0.1)">
       <use xlink:href="#DejaVuSans-30"/>
       <use xlink:href="#DejaVuSans-2e" x="63.623047"/>
       <use xlink:href="#DejaVuSans-32" x="95.410156"/>
      </g>
     </g>
    </g>
    <g id="ytick_4">
     <g id="line2d_8">
      <g>
       <use xlink:href="#m2174fb0aba" x="90" y="232.156733" style="stroke: #000000; stroke-width: 0.8"/>
      </g>
     </g>
     <g id="text_8">
      <!-- 0.3 -->
      <g transform="translate(67.096875 235.955951) scale(0.1 -0.1)">
       <defs>
        <path id="DejaVuSans-33" d="M 2597 2516 
Q 3050 2419 3304 2112 
Q 3559 1806 3559 1356 
Q 3559 666 3084 287 
Q 2609 -91 1734 -91 
Q 1441 -91 1130 -33 
Q 819 25 488 141 
L 488 750 
Q 750 597 1062 519 
Q 1375 441 1716 441 
Q 2309 441 2620 675 
Q 2931 909 2931 1356 
Q 2931 1769 2642 2001 
Q 2353 2234 1838 2234 
L 1294 2234 
L 1294 2753 
L 1863 2753 
Q 2328 2753 2575 2939 
Q 2822 3125 2822 3475 
Q 2822 3834 2567 4026 
Q 2313 4219 1838 4219 
Q 1578 4219 1281 4162 
Q 984 4106 628 3988 
L 628 4550 
Q 988 4650 1302 4700 
Q 1616 4750 1894 4750 
Q 2613 4750 3031 4423 
Q 3450 4097 3450 3541 
Q 3450 3153 3228 2886 
Q 3006 2619 2597 2516 
z
" transform="scale(0.015625)"/>
       </defs>
       <use xlink:href="#DejaVuSans-30"/>
       <use xlink:href="#DejaVuSans-2e" x="63.623047"/>
       <use xlink:href="#DejaVuSans-33" x="95.410156"/>
      </g>
     </g>
    </g>
    <g id="ytick_5">
     <g id="line2d_9">
      <g>
       <use xlink:href="#m2174fb0aba" x="90" y="145.38231" style="stroke: #000000; stroke-width: 0.8"/>
      </g>
     </g>
     <g id="text_9">
      <!-- 0.4 -->
      <g transform="translate(67.096875 149.181529) scale(0.1 -0.1)">
       <use xlink:href="#DejaVuSans-30"/>
       <use xlink:href="#DejaVuSans-2e" x="63.623047"/>
       <use xlink:href="#DejaVuSans-34" x="95.410156"/>
      </g>
     </g>
    </g>
   </g>
   <g id="line2d_10">
    <path d="M 97.459893 492.48 
L 110.456222 492.48 
L 110.716149 434.630385 
L 112.535635 434.630385 
L 112.795562 423.060462 
L 113.575341 423.060462 
L 113.835268 423.505459 
L 114.615048 423.505459 
L 114.874974 440.03392 
L 115.654754 440.03392 
L 115.914681 445.611099 
L 116.69446 445.611099 
L 116.954387 450.011037 
L 117.734167 450.011037 
L 117.994093 450.367253 
L 118.773873 450.367253 
L 119.0338 451.302323 
L 119.81358 451.302323 
L 120.073506 451.576232 
L 121.892992 451.576232 
L 122.152919 451.834029 
L 123.972405 451.834029 
L 124.232332 452.306656 
L 126.051818 452.306656 
L 126.311744 452.523809 
L 128.13123 452.523809 
L 128.391157 452.729534 
L 129.170937 452.729534 
L 129.430863 452.924708 
L 131.250349 452.924708 
L 131.510276 453.286494 
L 132.290056 453.286494 
L 132.549982 453.614626 
L 133.329762 453.614626 
L 133.589689 456.828493 
L 134.369468 456.828493 
L 134.629395 459.610901 
L 135.409175 459.610901 
L 135.669101 459.756985 
L 136.448881 459.756985 
L 136.708808 462.087992 
L 137.488587 462.087992 
L 137.748514 464.075934 
L 138.528294 464.075934 
L 138.78822 464.204147 
L 139.568 464.204147 
L 139.827927 464.445187 
L 140.607706 464.445187 
L 141.12756 464.558617 
L 141.647413 464.558617 
L 141.907339 464.873702 
L 142.687119 464.873702 
L 142.947046 468.031651 
L 144.766532 468.122267 
L 145.026458 468.294285 
L 146.845945 468.375994 
L 147.105871 468.531503 
L 147.885651 468.531503 
L 148.145578 468.677294 
L 148.925357 468.677294 
L 149.185284 470.019449 
L 149.965064 470.019449 
L 150.22499 470.209994 
L 151.00477 470.209994 
L 151.524623 470.328079 
L 152.044476 470.328079 
L 152.304403 472.336746 
L 153.084183 472.336746 
L 153.344109 473.239083 
L 157.243008 473.239083 
L 157.502935 474.000262 
L 160.362127 474.108838 
L 160.88198 474.211701 
L 161.401833 474.211701 
L 161.66176 474.949814 
L 163.481246 474.949814 
L 163.741173 476.195688 
L 164.520953 476.195688 
L 164.780879 476.766629 
L 166.600365 476.766629 
L 166.860292 477.294476 
L 170.759191 477.382661 
L 171.019117 478.239693 
L 171.798897 478.239693 
L 172.058824 478.622296 
L 172.838603 478.622296 
L 173.09853 479.310982 
L 175.957722 479.394968 
L 176.217649 480.038079 
L 176.997429 480.038079 
L 177.257355 480.351557 
L 178.037135 480.351557 
L 178.297062 481.001902 
L 179.076841 481.001902 
L 179.336768 481.266781 
L 180.116548 481.266781 
L 180.376474 481.689658 
L 182.19596 481.791101 
L 182.455887 482.081444 
L 184.275373 482.081444 
L 184.5353 482.266859 
L 188.434199 482.3271 
L 188.694125 482.561327 
L 189.473905 482.561327 
L 189.733831 482.945067 
L 191.553318 482.972069 
L 191.813244 483.488745 
L 192.593024 483.488745 
L 192.85295 483.647563 
L 193.63273 483.647563 
L 193.892657 483.871426 
L 195.712143 483.871426 
L 195.97207 484.112466 
L 198.831262 484.157775 
L 199.091189 484.293268 
L 199.870968 484.293268 
L 200.130895 484.424019 
L 200.910675 484.424019 
L 201.170601 484.651348 
L 201.950381 484.651348 
L 202.210308 484.84265 
L 205.0695 484.904455 
L 205.589353 484.963245 
L 207.148913 484.98221 
L 207.668766 485.091488 
L 208.188619 485.091488 
L 208.448546 485.263506 
L 211.307738 485.363579 
L 212.347445 485.399448 
L 218.065829 485.687884 
L 219.625389 485.761937 
L 220.145242 485.849199 
L 220.665095 485.849199 
L 220.925022 486.016532 
L 222.744508 486.046049 
L 223.004435 486.203638 
L 223.784214 486.203638 
L 224.044141 486.411269 
L 224.823921 486.411269 
L 225.083847 486.590091 
L 225.863627 486.590091 
L 226.123554 486.804017 
L 228.982746 486.868743 
L 229.762526 486.915684 
L 231.062159 486.986165 
L 231.582012 487.086468 
L 233.141571 487.182416 
L 233.921351 487.222927 
L 234.181278 487.222927 
L 234.441204 487.350746 
L 236.260691 487.399338 
L 236.520617 487.606321 
L 237.300397 487.606321 
L 237.560323 487.753961 
L 238.340103 487.753961 
L 238.60003 487.918748 
L 240.419516 488.008786 
L 241.199296 488.059319 
L 242.498929 488.165404 
L 243.018782 488.231209 
L 244.578341 488.296267 
L 245.098194 488.358072 
L 246.657754 488.445895 
L 246.657754 488.445895 
" clip-path="url(#p24a51ea38a)" style="fill: none; stroke: #0000ff; stroke-width: 1.5; stroke-linecap: square"/>
   </g>
   <g id="line2d_11">
    <path d="M 97.459893 492.48 
L 108.37681 492.48 
L 108.636736 481.355074 
L 109.416516 481.355074 
L 109.676443 440.828558 
L 110.456222 440.828558 
L 110.716149 441.897209 
L 111.495929 441.897209 
L 111.755855 428.5286 
L 112.535635 428.5286 
L 112.795562 429.526007 
L 113.575341 429.526007 
L 113.835268 355.406188 
L 114.615048 355.406188 
L 114.874974 300.109271 
L 115.654754 300.109271 
L 115.914681 277.320029 
L 116.69446 277.320029 
L 116.954387 247.634042 
L 117.734167 247.634042 
L 117.994093 232.039152 
L 118.773873 232.039152 
L 119.0338 234.22279 
L 119.81358 234.22279 
L 120.073506 239.748293 
L 120.853286 239.748293 
L 121.113212 244.866118 
L 121.892992 244.866118 
L 122.152919 254.059938 
L 122.932699 254.059938 
L 123.192625 239.226704 
L 126.051818 239.226704 
L 126.311744 228.251737 
L 129.170937 228.251737 
L 129.430863 214.73298 
L 130.210643 214.73298 
L 130.47057 214.542267 
L 131.250349 214.542267 
L 131.510276 206.713615 
L 132.290056 206.713615 
L 132.549982 213.944817 
L 133.329762 213.944817 
L 133.589689 197.829303 
L 134.369468 197.829303 
L 134.629395 177.155773 
L 135.409175 177.155773 
L 135.669101 177.315857 
L 136.448881 177.315857 
L 136.708808 165.210281 
L 137.488587 165.210281 
L 137.748514 143.262459 
L 138.528294 143.262459 
L 138.78822 130.843948 
L 139.568 130.843948 
L 139.827927 139.958909 
L 140.607706 139.958909 
L 140.867633 154.943733 
L 141.647413 154.943733 
L 141.907339 156.966447 
L 142.687119 156.966447 
L 142.947046 162.97992 
L 143.726826 162.97992 
L 143.986752 170.926296 
L 144.766532 170.926296 
L 145.026458 178.925364 
L 145.806238 178.925364 
L 146.066165 182.571348 
L 146.845945 182.571348 
L 147.105871 184.317313 
L 147.885651 184.317313 
L 148.145578 192.173639 
L 148.925357 192.173639 
L 149.185284 198.860756 
L 149.965064 198.860756 
L 150.22499 196.567618 
L 151.00477 196.567618 
L 151.264697 198.860811 
L 152.044476 198.860811 
L 152.304403 203.148085 
L 153.084183 203.148085 
L 153.344109 206.066103 
L 154.123889 206.066103 
L 154.383816 207.659192 
L 155.163595 207.659192 
L 155.423522 207.311065 
L 156.203302 207.311065 
L 156.463228 210.203545 
L 157.243008 210.203545 
L 157.502935 208.138158 
L 159.322421 208.138158 
L 159.582347 210.808141 
L 161.401833 210.808141 
L 161.66176 208.794388 
L 162.44154 208.794388 
L 162.701466 196.673545 
L 163.481246 196.673545 
L 163.741173 183.181453 
L 164.520953 183.181453 
L 164.780879 169.00717 
L 165.560659 169.00717 
L 165.820585 156.640256 
L 166.600365 156.640256 
L 166.860292 140.233211 
L 167.640072 140.233211 
L 167.899998 118.906164 
L 168.679778 118.906164 
L 168.939704 99.161821 
L 169.719484 99.161821 
L 169.979411 92.086759 
L 170.759191 92.086759 
L 171.019117 89.28 
L 171.798897 89.28 
L 172.058824 92.357107 
L 172.838603 92.357107 
L 173.09853 96.734847 
L 173.87831 96.734847 
L 174.138236 94.426224 
L 174.918016 94.426224 
L 175.177943 90.171803 
L 175.957722 90.171803 
L 176.217649 93.699218 
L 176.997429 93.699218 
L 177.257355 97.058661 
L 178.037135 97.058661 
L 178.297062 100.261852 
L 179.076841 100.261852 
L 179.336768 103.594318 
L 180.116548 103.594318 
L 180.376474 105.519676 
L 181.156254 105.519676 
L 181.416181 109.894634 
L 183.235667 109.894634 
L 183.495593 111.186171 
L 184.275373 111.186171 
L 184.5353 112.452629 
L 185.315079 112.452629 
L 185.575006 116.61643 
L 186.354786 116.61643 
L 186.614712 124.500742 
L 187.394492 124.500742 
L 187.654419 136.7319 
L 188.434199 136.7319 
L 188.694125 148.026933 
L 189.473905 148.026933 
L 189.733831 155.745744 
L 190.513611 155.745744 
L 190.773538 163.995113 
L 191.553318 163.995113 
L 191.813244 167.557281 
L 192.593024 167.557281 
L 192.85295 175.473211 
L 193.63273 175.473211 
L 193.892657 176.50608 
L 194.672437 176.50608 
L 194.932363 180.462491 
L 195.712143 180.462491 
L 195.97207 185.672635 
L 196.751849 185.672635 
L 197.011776 194.017439 
L 197.791556 194.017439 
L 198.051482 201.384579 
L 198.831262 201.384579 
L 199.091189 205.01384 
L 199.870968 205.01384 
L 200.130895 207.770452 
L 200.910675 207.770452 
L 201.170601 211.799592 
L 201.950381 211.799592 
L 202.210308 212.513708 
L 202.990087 212.513708 
L 203.250014 216.985388 
L 204.029794 216.985388 
L 204.28972 221.20479 
L 205.0695 221.20479 
L 205.329427 223.760269 
L 206.109206 223.760269 
L 206.369133 225.588784 
L 207.148913 225.588784 
L 207.408839 229.559311 
L 208.188619 229.559311 
L 208.448546 231.713235 
L 209.228325 231.713235 
L 209.488252 233.812917 
L 210.268032 233.812917 
L 210.527958 235.464201 
L 211.307738 235.464201 
L 211.567665 237.772272 
L 213.387151 237.772272 
L 213.647077 240.202484 
L 214.426857 240.202484 
L 214.686784 245.315591 
L 215.466564 245.315591 
L 215.72649 249.272744 
L 216.50627 249.272744 
L 216.766197 251.667254 
L 217.545976 251.667254 
L 217.805903 257.150248 
L 218.585683 257.150248 
L 218.845609 261.242456 
L 219.625389 261.242456 
L 219.885316 263.325241 
L 220.665095 263.325241 
L 220.925022 265.5151 
L 221.704802 265.5151 
L 221.964728 270.65361 
L 222.744508 270.65361 
L 223.004435 272.612192 
L 223.784214 272.612192 
L 224.044141 274.069627 
L 224.823921 274.069627 
L 225.083847 275.980215 
L 225.863627 275.980215 
L 226.123554 277.139837 
L 226.903333 277.139837 
L 227.16326 279.656653 
L 227.94304 279.656653 
L 228.202966 280.816414 
L 228.982746 280.816414 
L 229.242673 281.95748 
L 230.022452 281.95748 
L 230.282379 282.404631 
L 231.062159 282.404631 
L 231.322085 283.728135 
L 232.101865 283.728135 
L 232.361792 285.425699 
L 233.141571 285.425699 
L 233.401498 287.214862 
L 235.220984 287.214862 
L 235.480911 290.308801 
L 236.260691 290.308801 
L 236.520617 293.218359 
L 237.300397 293.218359 
L 237.560323 296.940556 
L 238.340103 296.940556 
L 238.60003 298.548501 
L 239.37981 298.548501 
L 239.639736 301.612706 
L 240.419516 301.612706 
L 240.679443 305.367778 
L 241.459222 305.367778 
L 241.719149 307.736163 
L 242.498929 307.736163 
L 242.758855 311.116306 
L 243.538635 311.116306 
L 243.798562 314.81534 
L 244.578341 314.81534 
L 244.838268 317.447442 
L 245.618048 317.447442 
L 245.877974 319.88871 
L 246.657754 319.88871 
L 246.657754 319.88871 
" clip-path="url(#p24a51ea38a)" style="fill: none; stroke: #ff0000; stroke-width: 1.5; stroke-linecap: square"/>
   </g>
   <g id="line2d_12">
    <path d="M 97.459893 492.48 
L 108.37681 492.48 
L 108.636736 394.61411 
L 109.416516 394.61411 
L 109.676443 380.912885 
L 110.456222 380.912885 
L 110.716149 368.516539 
L 111.495929 368.516539 
L 111.755855 378.846828 
L 112.535635 378.846828 
L 112.795562 377.898637 
L 113.575341 377.898637 
L 113.835268 379.994638 
L 114.615048 379.994638 
L 114.874974 381.922958 
L 115.654754 381.922958 
L 115.914681 388.350693 
L 116.69446 388.350693 
L 116.954387 390.130681 
L 117.734167 390.130681 
L 117.994093 391.778818 
L 118.773873 391.778818 
L 119.0338 399.993155 
L 120.853286 399.993155 
L 121.113212 402.567109 
L 122.932699 402.567109 
L 123.192625 408.115978 
L 123.972405 408.115978 
L 124.232332 411.824287 
L 125.012111 411.824287 
L 125.272038 416.098474 
L 127.091524 416.098474 
L 127.351451 418.101924 
L 128.13123 418.101924 
L 128.391157 419.020171 
L 130.210643 419.020171 
L 130.47057 419.888784 
L 131.250349 419.888784 
L 131.510276 424.247121 
L 132.290056 424.247121 
L 132.549982 425.694266 
L 133.329762 425.694266 
L 133.589689 426.366154 
L 134.369468 426.366154 
L 134.629395 427.006792 
L 135.409175 427.006792 
L 135.669101 429.296733 
L 136.448881 429.296733 
L 136.708808 430.301502 
L 137.488587 430.301502 
L 137.748514 430.773744 
L 138.528294 430.773744 
L 138.78822 432.083547 
L 139.568 432.083547 
L 139.827927 435.287767 
L 140.607706 435.287767 
L 140.867633 437.790238 
L 142.687119 437.790238 
L 142.947046 439.680748 
L 143.726826 439.680748 
L 143.986752 442.894616 
L 144.766532 442.894616 
L 145.026458 443.257082 
L 145.806238 443.257082 
L 146.066165 445.322525 
L 146.845945 445.322525 
L 147.105871 445.649359 
L 148.925357 445.649359 
L 149.185284 445.965477 
L 149.965064 445.965477 
L 150.22499 446.271398 
L 151.00477 446.271398 
L 151.264697 446.567607 
L 154.123889 446.567607 
L 154.383816 447.819763 
L 155.163595 447.819763 
L 155.423522 448.106716 
L 156.203302 448.106716 
L 156.463228 449.797807 
L 157.243008 449.797807 
L 157.502935 450.313401 
L 158.282714 450.313401 
L 158.542641 450.559989 
L 161.401833 450.559989 
L 161.66176 451.032327 
L 162.44154 451.032327 
L 162.701466 452.94943 
L 163.481246 452.94943 
L 163.741173 453.152411 
L 164.520953 453.152411 
L 164.780879 453.35012 
L 165.560659 453.35012 
L 165.820585 454.31428 
L 166.600365 454.31428 
L 166.860292 455.396913 
L 167.640072 455.396913 
L 167.899998 456.986189 
L 168.679778 456.986189 
L 168.939704 457.886385 
L 169.719484 457.886385 
L 169.979411 458.912939 
L 170.759191 458.912939 
L 171.019117 459.087133 
L 171.798897 459.087133 
L 172.058824 459.879168 
L 173.87831 459.879168 
L 174.138236 460.462329 
L 174.918016 460.462329 
L 175.177943 461.525741 
L 175.957722 461.525741 
L 176.217649 462.636945 
L 176.997429 462.636945 
L 177.257355 463.482699 
L 179.076841 463.482699 
L 179.336768 464.243878 
L 180.116548 464.243878 
L 180.376474 464.405922 
L 181.156254 464.405922 
L 181.416181 464.564197 
L 182.19596 464.564197 
L 182.455887 465.071576 
L 184.275373 465.071576 
L 184.5353 465.40752 
L 185.315079 465.40752 
L 185.575006 465.878961 
L 186.354786 465.878961 
L 186.614712 466.18472 
L 187.394492 466.18472 
L 187.654419 467.674043 
L 188.434199 467.674043 
L 188.694125 467.910164 
L 189.473905 467.910164 
L 189.733831 468.640873 
L 190.513611 468.640873 
L 190.773538 468.850777 
L 191.553318 468.850777 
L 191.813244 469.191105 
L 192.593024 469.191105 
L 192.85295 469.708934 
L 193.63273 469.708934 
L 193.892657 470.453925 
L 194.672437 470.453925 
L 194.932363 471.343373 
L 195.712143 471.343373 
L 195.97207 471.754207 
L 196.751849 471.754207 
L 197.271702 471.871075 
L 197.791556 471.871075 
L 198.311409 471.985628 
L 198.831262 471.985628 
L 199.091189 472.236997 
L 199.870968 472.236997 
L 200.130895 472.561085 
L 200.910675 472.561085 
L 201.170601 472.695933 
L 201.950381 472.695933 
L 202.210308 472.901895 
L 204.029794 472.901895 
L 204.28972 473.032717 
L 206.109206 473.132837 
L 206.369133 473.327617 
L 209.228325 473.327617 
L 209.488252 473.454592 
L 210.268032 473.454592 
L 210.527958 473.672644 
L 212.347445 473.672644 
L 212.607371 473.857128 
L 213.387151 473.857128 
L 213.647077 474.035195 
L 214.426857 474.035195 
L 214.686784 474.722707 
L 215.466564 474.722707 
L 215.72649 475.020882 
L 216.50627 475.020882 
L 216.766197 475.51078 
L 217.545976 475.51078 
L 217.805903 475.797785 
L 218.585683 475.797785 
L 218.845609 476.09445 
L 219.625389 476.09445 
L 219.885316 476.416796 
L 220.665095 476.416796 
L 220.925022 476.678485 
L 221.704802 476.678485 
L 221.964728 476.892873 
L 222.744508 476.892873 
L 223.004435 477.064968 
L 224.823921 477.126165 
L 225.083847 477.387522 
L 226.903333 477.445308 
L 227.16326 477.694906 
L 227.94304 477.694906 
L 228.202966 477.906014 
L 228.982746 477.906014 
L 229.242673 478.234749 
L 230.022452 478.234749 
L 230.282379 478.390064 
L 231.062159 478.390064 
L 231.322085 478.580207 
L 233.141571 478.64782 
L 233.401498 478.795145 
L 235.220984 478.861319 
L 235.480911 479.037381 
L 236.260691 479.037381 
L 236.520617 479.313868 
L 237.300397 479.313868 
L 237.560323 479.540796 
L 238.340103 479.540796 
L 238.60003 480.037121 
L 239.37981 480.037121 
L 239.639736 480.218637 
L 240.419516 480.218637 
L 240.679443 480.48089 
L 242.498929 480.523131 
L 242.758855 480.731101 
L 243.538635 480.731101 
L 244.058488 480.848682 
L 244.578341 480.848682 
L 244.838268 481.210594 
L 245.618048 481.210594 
L 245.877974 481.348735 
L 246.657754 481.348735 
L 246.657754 481.348735 
" clip-path="url(#p24a51ea38a)" style="fill: none; stroke: #008000; stroke-width: 1.5; stroke-linecap: square"/>
   </g>
   <g id="patch_3">
    <path d="M 90 512.64 
L 90 69.12 
" style="fill: none; stroke: #000000; stroke-width: 0.8; stroke-linejoin: miter; stroke-linecap: square"/>
   </g>
   <g id="patch_4">
    <path d="M 254.117647 512.64 
L 254.117647 69.12 
" style="fill: none; stroke: #000000; stroke-width: 0.8; stroke-linejoin: miter; stroke-linecap: square"/>
   </g>
   <g id="patch_5">
    <path d="M 90 512.64 
L 254.117647 512.64 
" style="fill: none; stroke: #000000; stroke-width: 0.8; stroke-linejoin: miter; stroke-linecap: square"/>
   </g>
   <g id="patch_6">
    <path d="M 90 69.12 
L 254.117647 69.12 
" style="fill: none; stroke: #000000; stroke-width: 0.8; stroke-linejoin: miter; stroke-linecap: square"/>
   </g>
   <g id="legend_1">
    <g id="patch_7">
     <path d="M 133.136949 314.397188 
L 210.980699 314.397188 
Q 212.980699 314.397188 212.980699 312.397188 
L 212.980699 269.362813 
Q 212.980699 267.362813 210.980699 267.362813 
L 133.136949 267.362813 
Q 131.136949 267.362813 131.136949 269.362813 
L 131.136949 312.397188 
Q 131.136949 314.397188 133.136949 314.397188 
z
" style="fill: #ffffff; opacity: 0.8; stroke: #cccccc; stroke-linejoin: miter"/>
    </g>
    <g id="line2d_13">
     <path d="M 135.136949 275.46125 
L 145.136949 275.46125 
L 155.136949 275.46125 
" style="fill: none; stroke: #0000ff; stroke-width: 1.5; stroke-linecap: square"/>
    </g>
    <g id="text_10">
     <!-- O1 utility -->
     <g transform="translate(163.136949 278.96125) scale(0.1 -0.1)">
      <defs>
       <path id="DejaVuSans-4f" d="M 2522 4238 
Q 1834 4238 1429 3725 
Q 1025 3213 1025 2328 
Q 1025 1447 1429 934 
Q 1834 422 2522 422 
Q 3209 422 3611 934 
Q 4013 1447 4013 2328 
Q 4013 3213 3611 3725 
Q 3209 4238 2522 4238 
z
M 2522 4750 
Q 3503 4750 4090 4092 
Q 4678 3434 4678 2328 
Q 4678 1225 4090 567 
Q 3503 -91 2522 -91 
Q 1538 -91 948 565 
Q 359 1222 359 2328 
Q 359 3434 948 4092 
Q 1538 4750 2522 4750 
z
" transform="scale(0.015625)"/>
       <path id="DejaVuSans-20" transform="scale(0.015625)"/>
       <path id="DejaVuSans-75" d="M 544 1381 
L 544 3500 
L 1119 3500 
L 1119 1403 
Q 1119 906 1312 657 
Q 1506 409 1894 409 
Q 2359 409 2629 706 
Q 2900 1003 2900 1516 
L 2900 3500 
L 3475 3500 
L 3475 0 
L 2900 0 
L 2900 538 
Q 2691 219 2414 64 
Q 2138 -91 1772 -91 
Q 1169 -91 856 284 
Q 544 659 544 1381 
z
M 1991 3584 
L 1991 3584 
z
" transform="scale(0.015625)"/>
       <path id="DejaVuSans-74" d="M 1172 4494 
L 1172 3500 
L 2356 3500 
L 2356 3053 
L 1172 3053 
L 1172 1153 
Q 1172 725 1289 603 
Q 1406 481 1766 481 
L 2356 481 
L 2356 0 
L 1766 0 
Q 1100 0 847 248 
Q 594 497 594 1153 
L 594 3053 
L 172 3053 
L 172 3500 
L 594 3500 
L 594 4494 
L 1172 4494 
z
" transform="scale(0.015625)"/>
       <path id="DejaVuSans-69" d="M 603 3500 
L 1178 3500 
L 1178 0 
L 603 0 
L 603 3500 
z
M 603 4863 
L 1178 4863 
L 1178 4134 
L 603 4134 
L 603 4863 
z
" transform="scale(0.015625)"/>
       <path id="DejaVuSans-6c" d="M 603 4863 
L 1178 4863 
L 1178 0 
L 603 0 
L 603 4863 
z
" transform="scale(0.015625)"/>
       <path id="DejaVuSans-79" d="M 2059 -325 
Q 1816 -950 1584 -1140 
Q 1353 -1331 966 -1331 
L 506 -1331 
L 506 -850 
L 844 -850 
Q 1081 -850 1212 -737 
Q 1344 -625 1503 -206 
L 1606 56 
L 191 3500 
L 800 3500 
L 1894 763 
L 2988 3500 
L 3597 3500 
L 2059 -325 
z
" transform="scale(0.015625)"/>
      </defs>
      <use xlink:href="#DejaVuSans-4f"/>
      <use xlink:href="#DejaVuSans-31" x="78.710938"/>
      <use xlink:href="#DejaVuSans-20" x="142.333984"/>
      <use xlink:href="#DejaVuSans-75" x="174.121094"/>
      <use xlink:href="#DejaVuSans-74" x="237.5"/>
      <use xlink:href="#DejaVuSans-69" x="276.708984"/>
      <use xlink:href="#DejaVuSans-6c" x="304.492188"/>
      <use xlink:href="#DejaVuSans-69" x="332.275391"/>
      <use xlink:href="#DejaVuSans-74" x="360.058594"/>
      <use xlink:href="#DejaVuSans-79" x="399.267578"/>
     </g>
    </g>
    <g id="line2d_14">
     <path d="M 135.136949 290.139375 
L 145.136949 290.139375 
L 155.136949 290.139375 
" style="fill: none; stroke: #ff0000; stroke-width: 1.5; stroke-linecap: square"/>
    </g>
    <g id="text_11">
     <!-- O2 utility -->
     <g transform="translate(163.136949 293.639375) scale(0.1 -0.1)">
      <use xlink:href="#DejaVuSans-4f"/>
      <use xlink:href="#DejaVuSans-32" x="78.710938"/>
      <use xlink:href="#DejaVuSans-20" x="142.333984"/>
      <use xlink:href="#DejaVuSans-75" x="174.121094"/>
      <use xlink:href="#DejaVuSans-74" x="237.5"/>
      <use xlink:href="#DejaVuSans-69" x="276.708984"/>
      <use xlink:href="#DejaVuSans-6c" x="304.492188"/>
      <use xlink:href="#DejaVuSans-69" x="332.275391"/>
      <use xlink:href="#DejaVuSans-74" x="360.058594"/>
      <use xlink:href="#DejaVuSans-79" x="399.267578"/>
     </g>
    </g>
    <g id="line2d_15">
     <path d="M 135.136949 304.8175 
L 145.136949 304.8175 
L 155.136949 304.8175 
" style="fill: none; stroke: #008000; stroke-width: 1.5; stroke-linecap: square"/>
    </g>
    <g id="text_12">
     <!-- O3 utility -->
     <g transform="translate(163.136949 308.3175) scale(0.1 -0.1)">
      <use xlink:href="#DejaVuSans-4f"/>
      <use xlink:href="#DejaVuSans-33" x="78.710938"/>
      <use xlink:href="#DejaVuSans-20" x="142.333984"/>
      <use xlink:href="#DejaVuSans-75" x="174.121094"/>
      <use xlink:href="#DejaVuSans-74" x="237.5"/>
      <use xlink:href="#DejaVuSans-69" x="276.708984"/>
      <use xlink:href="#DejaVuSans-6c" x="304.492188"/>
      <use xlink:href="#DejaVuSans-69" x="332.275391"/>
      <use xlink:href="#DejaVuSans-74" x="360.058594"/>
      <use xlink:href="#DejaVuSans-79" x="399.267578"/>
     </g>
    </g>
   </g>
  </g>
  <g id="axes_2">
   <g id="patch_8">
    <path d="M 286.941176 512.64 
L 451.058824 512.64 
L 451.058824 69.12 
L 286.941176 69.12 
z
" style="fill: #ffffff"/>
   </g>
   <g id="matplotlib.axis_3">
    <g id="xtick_5">
     <g id="line2d_16">
      <g>
       <use xlink:href="#m7c272b6fbf" x="294.141143" y="512.64" style="stroke: #000000; stroke-width: 0.8"/>
      </g>
     </g>
     <g id="text_13">
      <!-- 0 -->
      <g transform="translate(290.959893 527.238438) scale(0.1 -0.1)">
       <use xlink:href="#DejaVuSans-30"/>
      </g>
     </g>
    </g>
    <g id="xtick_6">
     <g id="line2d_17">
      <g>
       <use xlink:href="#m7c272b6fbf" x="346.12646" y="512.64" style="stroke: #000000; stroke-width: 0.8"/>
      </g>
     </g>
     <g id="text_14">
      <!-- 200 -->
      <g transform="translate(336.58271 527.238438) scale(0.1 -0.1)">
       <use xlink:href="#DejaVuSans-32"/>
       <use xlink:href="#DejaVuSans-30" x="63.623047"/>
       <use xlink:href="#DejaVuSans-30" x="127.246094"/>
      </g>
     </g>
    </g>
    <g id="xtick_7">
     <g id="line2d_18">
      <g>
       <use xlink:href="#m7c272b6fbf" x="398.111778" y="512.64" style="stroke: #000000; stroke-width: 0.8"/>
      </g>
     </g>
     <g id="text_15">
      <!-- 400 -->
      <g transform="translate(388.568028 527.238438) scale(0.1 -0.1)">
       <use xlink:href="#DejaVuSans-34"/>
       <use xlink:href="#DejaVuSans-30" x="63.623047"/>
       <use xlink:href="#DejaVuSans-30" x="127.246094"/>
      </g>
     </g>
    </g>
    <g id="xtick_8">
     <g id="line2d_19">
      <g>
       <use xlink:href="#m7c272b6fbf" x="450.097095" y="512.64" style="stroke: #000000; stroke-width: 0.8"/>
      </g>
     </g>
     <g id="text_16">
      <!-- 600 -->
      <g transform="translate(440.553345 527.238438) scale(0.1 -0.1)">
       <use xlink:href="#DejaVuSans-36"/>
       <use xlink:href="#DejaVuSans-30" x="63.623047"/>
       <use xlink:href="#DejaVuSans-30" x="127.246094"/>
      </g>
     </g>
    </g>
   </g>
   <g id="matplotlib.axis_4">
    <g id="ytick_6">
     <g id="line2d_20">
      <g>
       <use xlink:href="#m2174fb0aba" x="286.941176" y="492.48" style="stroke: #000000; stroke-width: 0.8"/>
      </g>
     </g>
     <g id="text_17">
      <!-- 0 -->
      <g transform="translate(273.578676 496.279219) scale(0.1 -0.1)">
       <use xlink:href="#DejaVuSans-30"/>
      </g>
     </g>
    </g>
    <g id="ytick_7">
     <g id="line2d_21">
      <g>
       <use xlink:href="#m2174fb0aba" x="286.941176" y="403.864615" style="stroke: #000000; stroke-width: 0.8"/>
      </g>
     </g>
     <g id="text_18">
      <!-- 100 -->
      <g transform="translate(260.853676 407.663834) scale(0.1 -0.1)">
       <use xlink:href="#DejaVuSans-31"/>
       <use xlink:href="#DejaVuSans-30" x="63.623047"/>
       <use xlink:href="#DejaVuSans-30" x="127.246094"/>
      </g>
     </g>
    </g>
    <g id="ytick_8">
     <g id="line2d_22">
      <g>
       <use xlink:href="#m2174fb0aba" x="286.941176" y="315.249231" style="stroke: #000000; stroke-width: 0.8"/>
      </g>
     </g>
     <g id="text_19">
      <!-- 200 -->
      <g transform="translate(260.853676 319.04845) scale(0.1 -0.1)">
       <use xlink:href="#DejaVuSans-32"/>
       <use xlink:href="#DejaVuSans-30" x="63.623047"/>
       <use xlink:href="#DejaVuSans-30" x="127.246094"/>
      </g>
     </g>
    </g>
    <g id="ytick_9">
     <g id="line2d_23">
      <g>
       <use xlink:href="#m2174fb0aba" x="286.941176" y="226.633846" style="stroke: #000000; stroke-width: 0.8"/>
      </g>
     </g>
     <g id="text_20">
      <!-- 300 -->
      <g transform="translate(260.853676 230.433065) scale(0.1 -0.1)">
       <use xlink:href="#DejaVuSans-33"/>
       <use xlink:href="#DejaVuSans-30" x="63.623047"/>
       <use xlink:href="#DejaVuSans-30" x="127.246094"/>
      </g>
     </g>
    </g>
    <g id="ytick_10">
     <g id="line2d_24">
      <g>
       <use xlink:href="#m2174fb0aba" x="286.941176" y="138.018462" style="stroke: #000000; stroke-width: 0.8"/>
      </g>
     </g>
     <g id="text_21">
      <!-- 400 -->
      <g transform="translate(260.853676 141.81768) scale(0.1 -0.1)">
       <use xlink:href="#DejaVuSans-34"/>
       <use xlink:href="#DejaVuSans-30" x="63.623047"/>
       <use xlink:href="#DejaVuSans-30" x="127.246094"/>
      </g>
     </g>
    </g>
   </g>
   <g id="line2d_25">
    <path d="M 294.40107 492.48 
L 294.920923 492.48 
L 295.180849 491.593846 
L 295.960629 491.593846 
L 296.220556 490.707692 
L 297.000335 490.707692 
L 297.260262 488.049231 
L 298.040042 488.049231 
L 298.299968 485.390769 
L 299.079748 485.390769 
L 299.339675 482.732308 
L 300.119454 482.732308 
L 300.379381 478.301538 
L 301.159161 478.301538 
L 301.419087 476.529231 
L 302.198867 476.529231 
L 302.458794 473.870769 
L 303.238573 473.870769 
L 303.4985 469.44 
L 304.27828 469.44 
L 304.538206 468.553846 
L 306.357693 468.553846 
L 306.617619 466.781538 
L 307.397399 466.781538 
L 307.657325 462.350769 
L 308.437105 462.350769 
L 308.697032 459.692308 
L 309.476812 459.692308 
L 309.736738 457.033846 
L 310.516518 457.033846 
L 310.776445 456.147692 
L 311.556224 456.147692 
L 311.816151 453.489231 
L 312.595931 453.489231 
L 312.855857 450.830769 
L 313.635637 450.830769 
L 313.895564 449.058462 
L 314.675343 449.058462 
L 314.93527 448.172308 
L 315.71505 448.172308 
L 315.974976 445.513846 
L 316.754756 445.513846 
L 317.014683 444.627692 
L 318.834169 444.627692 
L 319.094095 442.855385 
L 319.873875 442.855385 
L 320.133802 441.969231 
L 320.913581 441.969231 
L 321.173508 440.196923 
L 321.953288 440.196923 
L 322.213214 439.310769 
L 322.992994 439.310769 
L 323.252921 437.538462 
L 325.072407 437.538462 
L 325.332333 436.652308 
L 326.112113 436.652308 
L 326.37204 435.766154 
L 328.191526 435.766154 
L 328.451452 433.993846 
L 329.231232 433.993846 
L 329.491159 431.335385 
L 330.270939 431.335385 
L 330.530865 429.563077 
L 331.310645 429.563077 
L 331.570571 426.904615 
L 332.350351 426.904615 
L 332.610278 426.018462 
L 333.390058 426.018462 
L 333.649984 423.36 
L 334.429764 423.36 
L 334.689691 421.587692 
L 335.46947 421.587692 
L 335.729397 419.815385 
L 336.509177 419.815385 
L 336.769103 417.156923 
L 337.548883 417.156923 
L 337.80881 414.498462 
L 338.588589 414.498462 
L 338.848516 410.953846 
L 339.628296 410.953846 
L 339.888222 406.523077 
L 340.668002 406.523077 
L 340.927929 404.750769 
L 341.707708 404.750769 
L 341.967635 402.092308 
L 342.747415 402.092308 
L 343.007341 399.433846 
L 343.787121 399.433846 
L 344.047048 395.003077 
L 344.826827 395.003077 
L 345.086754 392.344615 
L 345.866534 392.344615 
L 346.12646 389.686154 
L 346.90624 389.686154 
L 347.166167 387.027692 
L 347.945946 387.027692 
L 348.205873 383.483077 
L 348.985653 383.483077 
L 349.245579 380.824615 
L 350.025359 380.824615 
L 350.285286 379.052308 
L 351.065065 379.052308 
L 351.324992 378.166154 
L 354.184185 378.166154 
L 354.444111 377.28 
L 355.223891 377.28 
L 355.483817 375.507692 
L 356.263597 375.507692 
L 356.523524 373.735385 
L 357.303304 373.735385 
L 357.56323 371.963077 
L 358.34301 371.963077 
L 358.602937 370.190769 
L 359.382716 370.190769 
L 359.642643 369.304615 
L 360.422423 369.304615 
L 360.682349 366.646154 
L 361.462129 366.646154 
L 361.722056 364.873846 
L 362.501835 364.873846 
L 362.761762 362.215385 
L 363.541542 362.215385 
L 363.801468 359.556923 
L 364.581248 359.556923 
L 364.841175 357.784615 
L 365.620954 357.784615 
L 365.880881 356.898462 
L 366.660661 356.898462 
L 366.920587 355.126154 
L 367.700367 355.126154 
L 367.960294 353.353846 
L 368.740073 353.353846 
L 369 350.695385 
L 369.77978 350.695385 
L 370.039706 347.150769 
L 370.819486 347.150769 
L 371.079413 344.492308 
L 371.859192 344.492308 
L 372.119119 342.72 
L 372.898899 342.72 
L 373.158825 340.061538 
L 373.938605 340.061538 
L 374.198532 337.403077 
L 374.978312 337.403077 
L 375.238238 332.086154 
L 376.018018 332.086154 
L 376.277944 329.427692 
L 377.057724 329.427692 
L 377.317651 325.883077 
L 378.097431 325.883077 
L 378.357357 323.224615 
L 379.137137 323.224615 
L 379.397063 319.68 
L 380.176843 319.68 
L 380.43677 317.907692 
L 381.21655 317.907692 
L 381.476476 316.135385 
L 383.295962 316.135385 
L 383.555889 314.363077 
L 384.335669 314.363077 
L 384.595595 313.476923 
L 385.375375 313.476923 
L 385.635302 309.932308 
L 386.415081 309.932308 
L 386.675008 306.387692 
L 387.454788 306.387692 
L 387.714714 304.615385 
L 388.494494 304.615385 
L 388.754421 299.298462 
L 389.5342 299.298462 
L 389.794127 296.64 
L 390.573907 296.64 
L 390.833833 292.209231 
L 392.653319 292.209231 
L 392.913246 290.436923 
L 393.693026 290.436923 
L 393.952952 288.664615 
L 394.732732 288.664615 
L 394.992659 286.892308 
L 395.772438 286.892308 
L 396.032365 285.12 
L 396.812145 285.12 
L 397.072071 283.347692 
L 397.851851 283.347692 
L 398.111778 279.803077 
L 398.891558 279.803077 
L 399.151484 278.030769 
L 399.931264 278.030769 
L 400.19119 275.372308 
L 400.97097 275.372308 
L 401.230897 273.6 
L 402.010677 273.6 
L 402.270603 270.941538 
L 403.050383 270.941538 
L 403.310309 268.283077 
L 404.090089 268.283077 
L 404.350016 265.624615 
L 405.129796 265.624615 
L 405.389722 262.08 
L 406.169502 262.08 
L 406.429429 259.421538 
L 407.209208 259.421538 
L 407.469135 258.535385 
L 408.248915 258.535385 
L 408.508841 255.876923 
L 409.288621 255.876923 
L 409.548548 254.104615 
L 410.328327 254.104615 
L 410.588254 250.56 
L 412.40774 250.56 
L 412.667667 247.901538 
L 413.447446 247.901538 
L 413.707373 244.356923 
L 414.487153 244.356923 
L 414.747079 243.470769 
L 415.526859 243.470769 
L 415.786786 242.584615 
L 416.566565 242.584615 
L 416.826492 239.04 
L 417.606272 239.04 
L 417.866198 235.495385 
L 418.645978 235.495385 
L 418.905905 233.723077 
L 419.685684 233.723077 
L 419.945611 230.178462 
L 420.725391 230.178462 
L 420.985317 223.975385 
L 421.765097 223.975385 
L 422.025024 220.430769 
L 422.804804 220.430769 
L 423.06473 216 
L 423.84451 216 
L 424.104436 215.113846 
L 424.884216 215.113846 
L 425.144143 210.683077 
L 425.923923 210.683077 
L 426.183849 208.024615 
L 426.963629 208.024615 
L 427.223555 204.48 
L 428.003335 204.48 
L 428.263262 200.935385 
L 429.043042 200.935385 
L 429.302968 197.390769 
L 430.082748 197.390769 
L 430.342675 196.504615 
L 431.122454 196.504615 
L 431.382381 192.073846 
L 432.162161 192.073846 
L 432.422087 188.529231 
L 433.201867 188.529231 
L 433.461794 181.44 
L 434.241573 181.44 
L 434.5015 175.236923 
L 435.28128 175.236923 
L 435.541206 169.033846 
L 436.320986 169.033846 
L 436.580913 164.603077 
L 437.360692 164.603077 
L 437.620619 162.830769 
L 438.400399 162.830769 
L 438.660325 157.513846 
L 439.440105 157.513846 
L 439.700032 153.969231 
L 440.479811 153.969231 
L 440.739738 150.424615 
L 441.519518 150.424615 
L 441.779444 147.766154 
L 442.559224 147.766154 
L 442.819151 143.335385 
L 443.59893 143.335385 
L 443.59893 143.335385 
" clip-path="url(#pd782118799)" style="fill: none; stroke: #0000ff; stroke-width: 1.5; stroke-linecap: square"/>
   </g>
   <g id="line2d_26">
    <path d="M 294.40107 492.48 
L 294.920923 492.48 
L 295.180849 491.593846 
L 295.960629 491.593846 
L 296.220556 486.276923 
L 297.000335 486.276923 
L 297.260262 483.618462 
L 298.040042 483.618462 
L 298.299968 480.073846 
L 299.079748 480.073846 
L 299.339675 476.529231 
L 300.119454 476.529231 
L 300.379381 472.984615 
L 301.159161 472.984615 
L 301.419087 467.667692 
L 302.198867 467.667692 
L 302.458794 465.895385 
L 303.238573 465.895385 
L 303.4985 463.236923 
L 304.27828 463.236923 
L 304.538206 459.692308 
L 305.317986 459.692308 
L 305.577913 455.261538 
L 306.357693 455.261538 
L 306.617619 450.830769 
L 307.397399 450.830769 
L 307.657325 448.172308 
L 308.437105 448.172308 
L 308.697032 445.513846 
L 309.476812 445.513846 
L 309.736738 443.741538 
L 310.516518 443.741538 
L 310.776445 440.196923 
L 311.556224 440.196923 
L 311.816151 436.652308 
L 312.595931 436.652308 
L 312.855857 433.993846 
L 313.635637 433.993846 
L 313.895564 430.449231 
L 314.675343 430.449231 
L 314.93527 427.790769 
L 315.71505 427.790769 
L 315.974976 426.904615 
L 316.754756 426.904615 
L 317.014683 425.132308 
L 317.794462 425.132308 
L 318.054389 423.36 
L 318.834169 423.36 
L 319.094095 419.815385 
L 319.873875 419.815385 
L 320.133802 418.929231 
L 322.992994 418.929231 
L 323.252921 417.156923 
L 326.112113 417.156923 
L 326.37204 415.384615 
L 327.151819 415.384615 
L 327.411746 413.612308 
L 328.191526 413.612308 
L 328.451452 412.726154 
L 329.231232 412.726154 
L 329.491159 411.84 
L 330.270939 411.84 
L 330.530865 407.409231 
L 331.310645 407.409231 
L 331.570571 402.978462 
L 332.350351 402.978462 
L 332.610278 401.206154 
L 333.390058 401.206154 
L 333.649984 398.547692 
L 334.429764 398.547692 
L 334.689691 393.230769 
L 335.46947 393.230769 
L 335.729397 389.686154 
L 336.509177 389.686154 
L 336.769103 387.913846 
L 337.548883 387.913846 
L 337.80881 384.369231 
L 338.588589 384.369231 
L 338.848516 383.483077 
L 339.628296 383.483077 
L 339.888222 381.710769 
L 340.668002 381.710769 
L 340.927929 379.052308 
L 341.707708 379.052308 
L 341.967635 376.393846 
L 342.747415 376.393846 
L 343.007341 374.621538 
L 343.787121 374.621538 
L 344.047048 373.735385 
L 344.826827 373.735385 
L 345.086754 371.076923 
L 345.866534 371.076923 
L 346.12646 368.418462 
L 346.90624 368.418462 
L 347.166167 367.532308 
L 347.945946 367.532308 
L 348.205873 366.646154 
L 348.985653 366.646154 
L 349.245579 364.873846 
L 350.025359 364.873846 
L 350.285286 362.215385 
L 351.065065 362.215385 
L 351.324992 359.556923 
L 352.104772 359.556923 
L 352.364698 357.784615 
L 353.144478 357.784615 
L 353.404405 356.898462 
L 354.184185 356.898462 
L 354.444111 356.012308 
L 356.263597 356.012308 
L 356.523524 355.126154 
L 358.34301 355.126154 
L 358.602937 354.24 
L 359.382716 354.24 
L 359.642643 351.581538 
L 360.422423 351.581538 
L 360.682349 348.923077 
L 361.462129 348.923077 
L 361.722056 344.492308 
L 362.501835 344.492308 
L 362.761762 340.061538 
L 363.541542 340.061538 
L 363.801468 337.403077 
L 364.581248 337.403077 
L 364.841175 333.858462 
L 365.620954 333.858462 
L 365.880881 329.427692 
L 366.660661 329.427692 
L 366.920587 327.655385 
L 367.700367 327.655385 
L 367.960294 324.110769 
L 368.740073 324.110769 
L 369 322.338462 
L 369.77978 322.338462 
L 370.039706 319.68 
L 370.819486 319.68 
L 371.079413 317.907692 
L 371.859192 317.907692 
L 372.119119 315.249231 
L 372.898899 315.249231 
L 373.158825 314.363077 
L 373.938605 314.363077 
L 374.198532 313.476923 
L 374.978312 313.476923 
L 375.238238 312.590769 
L 376.018018 312.590769 
L 376.277944 310.818462 
L 377.057724 310.818462 
L 377.317651 309.932308 
L 378.097431 309.932308 
L 378.357357 308.16 
L 380.176843 308.16 
L 380.43677 307.273846 
L 381.21655 307.273846 
L 381.476476 306.387692 
L 382.256256 306.387692 
L 382.516183 304.615385 
L 383.295962 304.615385 
L 383.555889 301.070769 
L 384.335669 301.070769 
L 384.595595 295.753846 
L 385.375375 295.753846 
L 385.635302 289.550769 
L 386.415081 289.550769 
L 386.675008 286.006154 
L 387.454788 286.006154 
L 387.714714 280.689231 
L 388.494494 280.689231 
L 388.754421 278.916923 
L 389.5342 278.916923 
L 389.794127 274.486154 
L 390.573907 274.486154 
L 390.833833 273.6 
L 391.613613 273.6 
L 391.87354 270.055385 
L 392.653319 270.055385 
L 392.913246 265.624615 
L 393.693026 265.624615 
L 393.952952 259.421538 
L 394.732732 259.421538 
L 394.992659 253.218462 
L 395.772438 253.218462 
L 396.032365 249.673846 
L 396.812145 249.673846 
L 397.072071 247.015385 
L 397.851851 247.015385 
L 398.111778 243.470769 
L 398.891558 243.470769 
L 399.151484 242.584615 
L 399.931264 242.584615 
L 400.19119 239.04 
L 400.97097 239.04 
L 401.230897 235.495385 
L 402.010677 235.495385 
L 402.270603 232.836923 
L 403.050383 232.836923 
L 403.310309 231.064615 
L 404.090089 231.064615 
L 404.350016 227.52 
L 405.129796 227.52 
L 405.389722 225.747692 
L 406.169502 225.747692 
L 406.429429 223.975385 
L 407.209208 223.975385 
L 407.469135 222.203077 
L 408.248915 222.203077 
L 408.508841 219.544615 
L 410.328327 219.544615 
L 410.588254 216 
L 411.368034 216 
L 411.62796 210.683077 
L 412.40774 210.683077 
L 412.667667 206.252308 
L 413.447446 206.252308 
L 413.707373 203.593846 
L 414.487153 203.593846 
L 414.747079 197.390769 
L 415.526859 197.390769 
L 415.786786 192.073846 
L 416.566565 192.073846 
L 416.826492 189.415385 
L 417.606272 189.415385 
L 417.866198 186.756923 
L 418.645978 186.756923 
L 418.905905 180.553846 
L 419.685684 180.553846 
L 419.945611 177.895385 
L 420.725391 177.895385 
L 420.985317 175.236923 
L 421.765097 175.236923 
L 422.025024 172.578462 
L 422.804804 172.578462 
L 423.06473 170.806154 
L 423.84451 170.806154 
L 424.104436 167.261538 
L 424.884216 167.261538 
L 425.144143 165.489231 
L 425.923923 165.489231 
L 426.183849 163.716923 
L 426.963629 163.716923 
L 427.223555 162.830769 
L 428.003335 162.830769 
L 428.263262 161.058462 
L 429.043042 161.058462 
L 429.302968 158.4 
L 430.082748 158.4 
L 430.342675 155.741538 
L 432.162161 155.741538 
L 432.422087 150.424615 
L 433.201867 150.424615 
L 433.461794 145.993846 
L 434.241573 145.993846 
L 434.5015 138.904615 
L 435.28128 138.904615 
L 435.541206 136.246154 
L 436.320986 136.246154 
L 436.580913 130.043077 
L 437.360692 130.043077 
L 437.620619 122.953846 
L 438.400399 122.953846 
L 438.660325 117.636923 
L 439.440105 117.636923 
L 439.700032 110.547692 
L 440.479811 110.547692 
L 440.739738 101.686154 
L 441.519518 101.686154 
L 441.779444 96.369231 
L 442.559224 96.369231 
L 442.819151 89.28 
L 443.59893 89.28 
L 443.59893 89.28 
" clip-path="url(#pd782118799)" style="fill: none; stroke: #ff0000; stroke-width: 1.5; stroke-linecap: square"/>
   </g>
   <g id="line2d_27">
    <path d="M 294.40107 492.48 
L 294.920923 492.48 
L 295.180849 490.707692 
L 295.960629 490.707692 
L 296.220556 489.821538 
L 297.000335 489.821538 
L 297.260262 486.276923 
L 298.040042 486.276923 
L 298.299968 483.618462 
L 299.079748 483.618462 
L 299.339675 480.96 
L 300.119454 480.96 
L 300.379381 480.073846 
L 301.159161 480.073846 
L 301.419087 478.301538 
L 302.198867 478.301538 
L 302.458794 473.870769 
L 303.238573 473.870769 
L 303.4985 472.098462 
L 304.27828 472.098462 
L 304.538206 468.553846 
L 305.317986 468.553846 
L 305.577913 465.009231 
L 306.357693 465.009231 
L 306.617619 463.236923 
L 307.397399 463.236923 
L 307.657325 462.350769 
L 308.437105 462.350769 
L 308.697032 459.692308 
L 309.476812 459.692308 
L 309.736738 456.147692 
L 310.516518 456.147692 
L 310.776445 452.603077 
L 311.556224 452.603077 
L 311.816151 451.716923 
L 312.595931 451.716923 
L 312.855857 449.944615 
L 313.635637 449.944615 
L 313.895564 448.172308 
L 314.675343 448.172308 
L 314.93527 445.513846 
L 315.71505 445.513846 
L 315.974976 442.855385 
L 316.754756 442.855385 
L 317.014683 440.196923 
L 317.794462 440.196923 
L 318.054389 436.652308 
L 319.873875 436.652308 
L 320.133802 433.993846 
L 320.913581 433.993846 
L 321.173508 432.221538 
L 321.953288 432.221538 
L 322.213214 429.563077 
L 324.0327 429.563077 
L 324.292627 426.904615 
L 325.072407 426.904615 
L 325.332333 425.132308 
L 327.151819 425.132308 
L 327.411746 424.246154 
L 328.191526 424.246154 
L 328.451452 421.587692 
L 329.231232 421.587692 
L 329.491159 418.043077 
L 330.270939 418.043077 
L 330.530865 415.384615 
L 331.310645 415.384615 
L 331.570571 413.612308 
L 332.350351 413.612308 
L 332.610278 408.295385 
L 333.390058 408.295385 
L 333.649984 405.636923 
L 334.429764 405.636923 
L 334.689691 404.750769 
L 335.46947 404.750769 
L 335.729397 402.092308 
L 336.509177 402.092308 
L 336.769103 398.547692 
L 337.548883 398.547692 
L 337.80881 396.775385 
L 338.588589 396.775385 
L 338.848516 394.116923 
L 339.628296 394.116923 
L 339.888222 393.230769 
L 340.668002 393.230769 
L 340.927929 390.572308 
L 341.707708 390.572308 
L 341.967635 388.8 
L 342.747415 388.8 
L 343.007341 386.141538 
L 343.787121 386.141538 
L 344.047048 385.255385 
L 344.826827 385.255385 
L 345.086754 384.369231 
L 345.866534 384.369231 
L 346.12646 383.483077 
L 346.90624 383.483077 
L 347.166167 381.710769 
L 347.945946 381.710769 
L 348.205873 380.824615 
L 348.985653 380.824615 
L 349.245579 379.938462 
L 351.065065 379.938462 
L 351.324992 379.052308 
L 352.104772 379.052308 
L 352.364698 376.393846 
L 353.144478 376.393846 
L 353.404405 373.735385 
L 354.184185 373.735385 
L 354.444111 371.963077 
L 355.223891 371.963077 
L 355.483817 371.076923 
L 358.34301 371.076923 
L 358.602937 368.418462 
L 359.382716 368.418462 
L 359.642643 363.101538 
L 360.422423 363.101538 
L 360.682349 360.443077 
L 361.462129 360.443077 
L 361.722056 358.670769 
L 362.501835 358.670769 
L 362.761762 357.784615 
L 363.541542 357.784615 
L 363.801468 355.126154 
L 364.581248 355.126154 
L 364.841175 353.353846 
L 365.620954 353.353846 
L 365.880881 351.581538 
L 366.660661 351.581538 
L 366.920587 348.036923 
L 367.700367 348.036923 
L 367.960294 346.264615 
L 368.740073 346.264615 
L 369 343.606154 
L 369.77978 343.606154 
L 370.039706 342.72 
L 370.819486 342.72 
L 371.079413 340.061538 
L 371.859192 340.061538 
L 372.119119 337.403077 
L 372.898899 337.403077 
L 373.158825 334.744615 
L 373.938605 334.744615 
L 374.198532 332.086154 
L 376.018018 332.086154 
L 376.277944 330.313846 
L 377.057724 330.313846 
L 377.317651 328.541538 
L 378.097431 328.541538 
L 378.357357 327.655385 
L 379.137137 327.655385 
L 379.397063 325.883077 
L 380.176843 325.883077 
L 380.43677 323.224615 
L 381.21655 323.224615 
L 381.476476 321.452308 
L 382.256256 321.452308 
L 382.516183 318.793846 
L 383.295962 318.793846 
L 383.555889 316.135385 
L 384.335669 316.135385 
L 384.595595 309.932308 
L 385.375375 309.932308 
L 385.635302 309.046154 
L 386.415081 309.046154 
L 386.675008 304.615385 
L 387.454788 304.615385 
L 387.714714 301.070769 
L 388.494494 301.070769 
L 388.754421 297.526154 
L 389.5342 297.526154 
L 389.794127 294.867692 
L 390.573907 294.867692 
L 390.833833 290.436923 
L 391.613613 290.436923 
L 391.87354 284.233846 
L 392.653319 284.233846 
L 392.913246 281.575385 
L 393.693026 281.575385 
L 393.952952 280.689231 
L 394.732732 280.689231 
L 394.992659 279.803077 
L 395.772438 279.803077 
L 396.032365 277.144615 
L 396.812145 277.144615 
L 397.072071 273.6 
L 397.851851 273.6 
L 398.111778 272.713846 
L 398.891558 272.713846 
L 399.151484 268.283077 
L 399.931264 268.283077 
L 400.19119 267.396923 
L 400.97097 267.396923 
L 401.230897 265.624615 
L 402.010677 265.624615 
L 402.270603 263.852308 
L 403.050383 263.852308 
L 403.310309 261.193846 
L 405.129796 261.193846 
L 405.389722 260.307692 
L 406.169502 260.307692 
L 406.429429 259.421538 
L 407.209208 259.421538 
L 407.469135 256.763077 
L 409.288621 256.763077 
L 409.548548 254.104615 
L 410.328327 254.104615 
L 410.588254 249.673846 
L 411.368034 249.673846 
L 411.62796 242.584615 
L 412.40774 242.584615 
L 412.667667 238.153846 
L 413.447446 238.153846 
L 413.707373 232.836923 
L 414.487153 232.836923 
L 414.747079 228.406154 
L 415.526859 228.406154 
L 415.786786 223.975385 
L 416.566565 223.975385 
L 416.826492 219.544615 
L 417.606272 219.544615 
L 417.866198 215.113846 
L 418.645978 215.113846 
L 418.905905 212.455385 
L 419.685684 212.455385 
L 419.945611 208.910769 
L 420.725391 208.910769 
L 420.985317 208.024615 
L 421.765097 208.024615 
L 422.025024 204.48 
L 422.804804 204.48 
L 423.06473 201.821538 
L 423.84451 201.821538 
L 424.104436 197.390769 
L 424.884216 197.390769 
L 425.144143 194.732308 
L 425.923923 194.732308 
L 426.183849 190.301538 
L 426.963629 190.301538 
L 427.223555 186.756923 
L 428.003335 186.756923 
L 428.263262 184.098462 
L 429.043042 184.098462 
L 429.302968 183.212308 
L 430.082748 183.212308 
L 430.342675 179.667692 
L 431.122454 179.667692 
L 431.382381 176.123077 
L 432.162161 176.123077 
L 432.422087 172.578462 
L 433.201867 172.578462 
L 433.461794 168.147692 
L 434.241573 168.147692 
L 434.5015 163.716923 
L 435.28128 163.716923 
L 435.541206 153.969231 
L 436.320986 153.969231 
L 436.580913 146.88 
L 437.360692 146.88 
L 437.620619 140.676923 
L 438.400399 140.676923 
L 438.660325 137.132308 
L 439.440105 137.132308 
L 439.700032 131.815385 
L 440.479811 131.815385 
L 440.739738 128.270769 
L 441.519518 128.270769 
L 441.779444 119.409231 
L 442.559224 119.409231 
L 442.819151 114.978462 
L 443.59893 114.978462 
L 443.59893 114.978462 
" clip-path="url(#pd782118799)" style="fill: none; stroke: #008000; stroke-width: 1.5; stroke-linecap: square"/>
   </g>
   <g id="patch_9">
    <path d="M 286.941176 512.64 
L 286.941176 69.12 
" style="fill: none; stroke: #000000; stroke-width: 0.8; stroke-linejoin: miter; stroke-linecap: square"/>
   </g>
   <g id="patch_10">
    <path d="M 451.058824 512.64 
L 451.058824 69.12 
" style="fill: none; stroke: #000000; stroke-width: 0.8; stroke-linejoin: miter; stroke-linecap: square"/>
   </g>
   <g id="patch_11">
    <path d="M 286.941176 512.64 
L 451.058824 512.64 
" style="fill: none; stroke: #000000; stroke-width: 0.8; stroke-linejoin: miter; stroke-linecap: square"/>
   </g>
   <g id="patch_12">
    <path d="M 286.941176 69.12 
L 451.058824 69.12 
" style="fill: none; stroke: #000000; stroke-width: 0.8; stroke-linejoin: miter; stroke-linecap: square"/>
   </g>
   <g id="legend_2">
    <g id="patch_13">
     <path d="M 293.941176 121.154375 
L 393.863051 121.154375 
Q 395.863051 121.154375 395.863051 119.154375 
L 395.863051 76.12 
Q 395.863051 74.12 393.863051 74.12 
L 293.941176 74.12 
Q 291.941176 74.12 291.941176 76.12 
L 291.941176 119.154375 
Q 291.941176 121.154375 293.941176 121.154375 
z
" style="fill: #ffffff; opacity: 0.8; stroke: #cccccc; stroke-linejoin: miter"/>
    </g>
    <g id="line2d_28">
     <path d="M 295.941176 82.218438 
L 305.941176 82.218438 
L 315.941176 82.218438 
" style="fill: none; stroke: #0000ff; stroke-width: 1.5; stroke-linecap: square"/>
    </g>
    <g id="text_22">
     <!-- O1 requested -->
     <g transform="translate(323.941176 85.718438) scale(0.1 -0.1)">
      <defs>
       <path id="DejaVuSans-72" d="M 2631 2963 
Q 2534 3019 2420 3045 
Q 2306 3072 2169 3072 
Q 1681 3072 1420 2755 
Q 1159 2438 1159 1844 
L 1159 0 
L 581 0 
L 581 3500 
L 1159 3500 
L 1159 2956 
Q 1341 3275 1631 3429 
Q 1922 3584 2338 3584 
Q 2397 3584 2469 3576 
Q 2541 3569 2628 3553 
L 2631 2963 
z
" transform="scale(0.015625)"/>
       <path id="DejaVuSans-65" d="M 3597 1894 
L 3597 1613 
L 953 1613 
Q 991 1019 1311 708 
Q 1631 397 2203 397 
Q 2534 397 2845 478 
Q 3156 559 3463 722 
L 3463 178 
Q 3153 47 2828 -22 
Q 2503 -91 2169 -91 
Q 1331 -91 842 396 
Q 353 884 353 1716 
Q 353 2575 817 3079 
Q 1281 3584 2069 3584 
Q 2775 3584 3186 3129 
Q 3597 2675 3597 1894 
z
M 3022 2063 
Q 3016 2534 2758 2815 
Q 2500 3097 2075 3097 
Q 1594 3097 1305 2825 
Q 1016 2553 972 2059 
L 3022 2063 
z
" transform="scale(0.015625)"/>
       <path id="DejaVuSans-71" d="M 947 1747 
Q 947 1113 1208 752 
Q 1469 391 1925 391 
Q 2381 391 2643 752 
Q 2906 1113 2906 1747 
Q 2906 2381 2643 2742 
Q 2381 3103 1925 3103 
Q 1469 3103 1208 2742 
Q 947 2381 947 1747 
z
M 2906 525 
Q 2725 213 2448 61 
Q 2172 -91 1784 -91 
Q 1150 -91 751 415 
Q 353 922 353 1747 
Q 353 2572 751 3078 
Q 1150 3584 1784 3584 
Q 2172 3584 2448 3432 
Q 2725 3281 2906 2969 
L 2906 3500 
L 3481 3500 
L 3481 -1331 
L 2906 -1331 
L 2906 525 
z
" transform="scale(0.015625)"/>
       <path id="DejaVuSans-73" d="M 2834 3397 
L 2834 2853 
Q 2591 2978 2328 3040 
Q 2066 3103 1784 3103 
Q 1356 3103 1142 2972 
Q 928 2841 928 2578 
Q 928 2378 1081 2264 
Q 1234 2150 1697 2047 
L 1894 2003 
Q 2506 1872 2764 1633 
Q 3022 1394 3022 966 
Q 3022 478 2636 193 
Q 2250 -91 1575 -91 
Q 1294 -91 989 -36 
Q 684 19 347 128 
L 347 722 
Q 666 556 975 473 
Q 1284 391 1588 391 
Q 1994 391 2212 530 
Q 2431 669 2431 922 
Q 2431 1156 2273 1281 
Q 2116 1406 1581 1522 
L 1381 1569 
Q 847 1681 609 1914 
Q 372 2147 372 2553 
Q 372 3047 722 3315 
Q 1072 3584 1716 3584 
Q 2034 3584 2315 3537 
Q 2597 3491 2834 3397 
z
" transform="scale(0.015625)"/>
       <path id="DejaVuSans-64" d="M 2906 2969 
L 2906 4863 
L 3481 4863 
L 3481 0 
L 2906 0 
L 2906 525 
Q 2725 213 2448 61 
Q 2172 -91 1784 -91 
Q 1150 -91 751 415 
Q 353 922 353 1747 
Q 353 2572 751 3078 
Q 1150 3584 1784 3584 
Q 2172 3584 2448 3432 
Q 2725 3281 2906 2969 
z
M 947 1747 
Q 947 1113 1208 752 
Q 1469 391 1925 391 
Q 2381 391 2643 752 
Q 2906 1113 2906 1747 
Q 2906 2381 2643 2742 
Q 2381 3103 1925 3103 
Q 1469 3103 1208 2742 
Q 947 2381 947 1747 
z
" transform="scale(0.015625)"/>
      </defs>
      <use xlink:href="#DejaVuSans-4f"/>
      <use xlink:href="#DejaVuSans-31" x="78.710938"/>
      <use xlink:href="#DejaVuSans-20" x="142.333984"/>
      <use xlink:href="#DejaVuSans-72" x="174.121094"/>
      <use xlink:href="#DejaVuSans-65" x="212.984375"/>
      <use xlink:href="#DejaVuSans-71" x="274.507812"/>
      <use xlink:href="#DejaVuSans-75" x="337.984375"/>
      <use xlink:href="#DejaVuSans-65" x="401.363281"/>
      <use xlink:href="#DejaVuSans-73" x="462.886719"/>
      <use xlink:href="#DejaVuSans-74" x="514.986328"/>
      <use xlink:href="#DejaVuSans-65" x="554.195312"/>
      <use xlink:href="#DejaVuSans-64" x="615.71875"/>
     </g>
    </g>
    <g id="line2d_29">
     <path d="M 295.941176 96.896563 
L 305.941176 96.896563 
L 315.941176 96.896563 
" style="fill: none; stroke: #ff0000; stroke-width: 1.5; stroke-linecap: square"/>
    </g>
    <g id="text_23">
     <!-- O2 requested -->
     <g transform="translate(323.941176 100.396563) scale(0.1 -0.1)">
      <use xlink:href="#DejaVuSans-4f"/>
      <use xlink:href="#DejaVuSans-32" x="78.710938"/>
      <use xlink:href="#DejaVuSans-20" x="142.333984"/>
      <use xlink:href="#DejaVuSans-72" x="174.121094"/>
      <use xlink:href="#DejaVuSans-65" x="212.984375"/>
      <use xlink:href="#DejaVuSans-71" x="274.507812"/>
      <use xlink:href="#DejaVuSans-75" x="337.984375"/>
      <use xlink:href="#DejaVuSans-65" x="401.363281"/>
      <use xlink:href="#DejaVuSans-73" x="462.886719"/>
      <use xlink:href="#DejaVuSans-74" x="514.986328"/>
      <use xlink:href="#DejaVuSans-65" x="554.195312"/>
      <use xlink:href="#DejaVuSans-64" x="615.71875"/>
     </g>
    </g>
    <g id="line2d_30">
     <path d="M 295.941176 111.574688 
L 305.941176 111.574688 
L 315.941176 111.574688 
" style="fill: none; stroke: #008000; stroke-width: 1.5; stroke-linecap: square"/>
    </g>
    <g id="text_24">
     <!-- O3 requested -->
     <g transform="translate(323.941176 115.074688) scale(0.1 -0.1)">
      <use xlink:href="#DejaVuSans-4f"/>
      <use xlink:href="#DejaVuSans-33" x="78.710938"/>
      <use xlink:href="#DejaVuSans-20" x="142.333984"/>
      <use xlink:href="#DejaVuSans-72" x="174.121094"/>
      <use xlink:href="#DejaVuSans-65" x="212.984375"/>
      <use xlink:href="#DejaVuSans-71" x="274.507812"/>
      <use xlink:href="#DejaVuSans-75" x="337.984375"/>
      <use xlink:href="#DejaVuSans-65" x="401.363281"/>
      <use xlink:href="#DejaVuSans-73" x="462.886719"/>
      <use xlink:href="#DejaVuSans-74" x="514.986328"/>
      <use xlink:href="#DejaVuSans-65" x="554.195312"/>
      <use xlink:href="#DejaVuSans-64" x="615.71875"/>
     </g>
    </g>
   </g>
  </g>
  <g id="axes_3">
   <g id="patch_14">
    <path d="M 483.882353 512.64 
L 648 512.64 
L 648 69.12 
L 483.882353 69.12 
z
" style="fill: #ffffff"/>
   </g>
   <g id="matplotlib.axis_5">
    <g id="xtick_9">
     <g id="line2d_31">
      <g>
       <use xlink:href="#m7c272b6fbf" x="491.082319" y="512.64" style="stroke: #000000; stroke-width: 0.8"/>
      </g>
     </g>
     <g id="text_25">
      <!-- 0 -->
      <g transform="translate(487.901069 527.238438) scale(0.1 -0.1)">
       <use xlink:href="#DejaVuSans-30"/>
      </g>
     </g>
    </g>
    <g id="xtick_10">
     <g id="line2d_32">
      <g>
       <use xlink:href="#m7c272b6fbf" x="543.067637" y="512.64" style="stroke: #000000; stroke-width: 0.8"/>
      </g>
     </g>
     <g id="text_26">
      <!-- 200 -->
      <g transform="translate(533.523887 527.238438) scale(0.1 -0.1)">
       <use xlink:href="#DejaVuSans-32"/>
       <use xlink:href="#DejaVuSans-30" x="63.623047"/>
       <use xlink:href="#DejaVuSans-30" x="127.246094"/>
      </g>
     </g>
    </g>
    <g id="xtick_11">
     <g id="line2d_33">
      <g>
       <use xlink:href="#m7c272b6fbf" x="595.052954" y="512.64" style="stroke: #000000; stroke-width: 0.8"/>
      </g>
     </g>
     <g id="text_27">
      <!-- 400 -->
      <g transform="translate(585.509204 527.238438) scale(0.1 -0.1)">
       <use xlink:href="#DejaVuSans-34"/>
       <use xlink:href="#DejaVuSans-30" x="63.623047"/>
       <use xlink:href="#DejaVuSans-30" x="127.246094"/>
      </g>
     </g>
    </g>
    <g id="xtick_12">
     <g id="line2d_34">
      <g>
       <use xlink:href="#m7c272b6fbf" x="647.038272" y="512.64" style="stroke: #000000; stroke-width: 0.8"/>
      </g>
     </g>
     <g id="text_28">
      <!-- 600 -->
      <g transform="translate(637.494522 527.238438) scale(0.1 -0.1)">
       <use xlink:href="#DejaVuSans-36"/>
       <use xlink:href="#DejaVuSans-30" x="63.623047"/>
       <use xlink:href="#DejaVuSans-30" x="127.246094"/>
      </g>
     </g>
    </g>
   </g>
   <g id="matplotlib.axis_6">
    <g id="ytick_11">
     <g id="line2d_35">
      <g>
       <use xlink:href="#m2174fb0aba" x="483.882353" y="492.48" style="stroke: #000000; stroke-width: 0.8"/>
      </g>
     </g>
     <g id="text_29">
      <!-- 0 -->
      <g transform="translate(470.519853 496.279219) scale(0.1 -0.1)">
       <use xlink:href="#DejaVuSans-30"/>
      </g>
     </g>
    </g>
    <g id="ytick_12">
     <g id="line2d_36">
      <g>
       <use xlink:href="#m2174fb0aba" x="483.882353" y="404.827826" style="stroke: #000000; stroke-width: 0.8"/>
      </g>
     </g>
     <g id="text_30">
      <!-- 20 -->
      <g transform="translate(464.157353 408.627045) scale(0.1 -0.1)">
       <use xlink:href="#DejaVuSans-32"/>
       <use xlink:href="#DejaVuSans-30" x="63.623047"/>
      </g>
     </g>
    </g>
    <g id="ytick_13">
     <g id="line2d_37">
      <g>
       <use xlink:href="#m2174fb0aba" x="483.882353" y="317.175652" style="stroke: #000000; stroke-width: 0.8"/>
      </g>
     </g>
     <g id="text_31">
      <!-- 40 -->
      <g transform="translate(464.157353 320.974871) scale(0.1 -0.1)">
       <use xlink:href="#DejaVuSans-34"/>
       <use xlink:href="#DejaVuSans-30" x="63.623047"/>
      </g>
     </g>
    </g>
    <g id="ytick_14">
     <g id="line2d_38">
      <g>
       <use xlink:href="#m2174fb0aba" x="483.882353" y="229.523478" style="stroke: #000000; stroke-width: 0.8"/>
      </g>
     </g>
     <g id="text_32">
      <!-- 60 -->
      <g transform="translate(464.157353 233.322697) scale(0.1 -0.1)">
       <use xlink:href="#DejaVuSans-36"/>
       <use xlink:href="#DejaVuSans-30" x="63.623047"/>
      </g>
     </g>
    </g>
    <g id="ytick_15">
     <g id="line2d_39">
      <g>
       <use xlink:href="#m2174fb0aba" x="483.882353" y="141.871304" style="stroke: #000000; stroke-width: 0.8"/>
      </g>
     </g>
     <g id="text_33">
      <!-- 80 -->
      <g transform="translate(464.157353 145.670523) scale(0.1 -0.1)">
       <defs>
        <path id="DejaVuSans-38" d="M 2034 2216 
Q 1584 2216 1326 1975 
Q 1069 1734 1069 1313 
Q 1069 891 1326 650 
Q 1584 409 2034 409 
Q 2484 409 2743 651 
Q 3003 894 3003 1313 
Q 3003 1734 2745 1975 
Q 2488 2216 2034 2216 
z
M 1403 2484 
Q 997 2584 770 2862 
Q 544 3141 544 3541 
Q 544 4100 942 4425 
Q 1341 4750 2034 4750 
Q 2731 4750 3128 4425 
Q 3525 4100 3525 3541 
Q 3525 3141 3298 2862 
Q 3072 2584 2669 2484 
Q 3125 2378 3379 2068 
Q 3634 1759 3634 1313 
Q 3634 634 3220 271 
Q 2806 -91 2034 -91 
Q 1263 -91 848 271 
Q 434 634 434 1313 
Q 434 1759 690 2068 
Q 947 2378 1403 2484 
z
M 1172 3481 
Q 1172 3119 1398 2916 
Q 1625 2713 2034 2713 
Q 2441 2713 2670 2916 
Q 2900 3119 2900 3481 
Q 2900 3844 2670 4047 
Q 2441 4250 2034 4250 
Q 1625 4250 1398 4047 
Q 1172 3844 1172 3481 
z
" transform="scale(0.015625)"/>
       </defs>
       <use xlink:href="#DejaVuSans-38"/>
       <use xlink:href="#DejaVuSans-30" x="63.623047"/>
      </g>
     </g>
    </g>
   </g>
   <g id="line2d_40">
    <path d="M 491.342246 492.48 
L 504.338575 492.48 
L 504.598502 488.097391 
L 506.417988 488.097391 
L 506.677915 483.714783 
L 640.540107 483.714783 
L 640.540107 483.714783 
" clip-path="url(#p174cbe21cd)" style="fill: none; stroke: #0000ff; stroke-width: 1.5; stroke-linecap: square"/>
   </g>
   <g id="line2d_41">
    <path d="M 491.342246 492.48 
L 502.259163 492.48 
L 502.519089 488.097391 
L 503.298869 488.097391 
L 503.558796 474.949565 
L 505.378282 474.949565 
L 505.638208 470.566957 
L 507.457694 470.566957 
L 507.717621 453.036522 
L 508.497401 453.036522 
L 508.757327 435.506087 
L 509.537107 435.506087 
L 509.797034 426.74087 
L 510.576813 426.74087 
L 510.83674 409.210435 
L 511.61652 409.210435 
L 511.876446 396.062609 
L 516.815052 396.062609 
L 517.074978 391.68 
L 519.934171 391.68 
L 520.194097 387.297391 
L 523.05329 387.297391 
L 523.313216 378.532174 
L 524.092996 378.532174 
L 524.352923 374.149565 
L 525.132702 374.149565 
L 525.392629 369.766957 
L 527.212115 369.766957 
L 527.472042 352.236522 
L 528.251821 352.236522 
L 528.511748 330.323478 
L 529.291528 330.323478 
L 529.551454 325.94087 
L 530.331234 325.94087 
L 530.591161 312.793043 
L 531.37094 312.793043 
L 531.630867 286.497391 
L 532.410647 286.497391 
L 532.670573 268.966957 
L 543.847417 268.966957 
L 544.107343 264.584348 
L 546.966536 264.584348 
L 547.226462 260.201739 
L 548.006242 260.201739 
L 548.266169 255.81913 
L 549.045948 255.81913 
L 549.305875 251.436522 
L 551.125361 251.436522 
L 551.385288 247.053913 
L 555.284186 247.053913 
L 555.544113 242.671304 
L 556.323893 242.671304 
L 556.583819 229.523478 
L 557.363599 229.523478 
L 557.623526 216.375652 
L 558.403305 216.375652 
L 558.663232 194.462609 
L 559.443012 194.462609 
L 559.702938 172.549565 
L 560.482718 172.549565 
L 560.742645 159.401739 
L 561.522424 159.401739 
L 561.782351 141.871304 
L 562.562131 141.871304 
L 562.822057 119.958261 
L 563.601837 119.958261 
L 563.861764 111.193043 
L 564.641544 111.193043 
L 564.90147 102.427826 
L 567.760663 102.427826 
L 568.020589 98.045217 
L 568.800369 98.045217 
L 569.060296 89.28 
L 640.540107 89.28 
L 640.540107 89.28 
" clip-path="url(#p174cbe21cd)" style="fill: none; stroke: #ff0000; stroke-width: 1.5; stroke-linecap: square"/>
   </g>
   <g id="line2d_42">
    <path d="M 491.342246 492.48 
L 502.259163 492.48 
L 502.519089 479.332174 
L 503.298869 479.332174 
L 503.558796 474.949565 
L 504.338575 474.949565 
L 504.598502 470.566957 
L 506.417988 470.566957 
L 506.677915 466.184348 
L 640.540107 466.184348 
L 640.540107 466.184348 
" clip-path="url(#p174cbe21cd)" style="fill: none; stroke: #008000; stroke-width: 1.5; stroke-linecap: square"/>
   </g>
   <g id="patch_15">
    <path d="M 483.882353 512.64 
L 483.882353 69.12 
" style="fill: none; stroke: #000000; stroke-width: 0.8; stroke-linejoin: miter; stroke-linecap: square"/>
   </g>
   <g id="patch_16">
    <path d="M 648 512.64 
L 648 69.12 
" style="fill: none; stroke: #000000; stroke-width: 0.8; stroke-linejoin: miter; stroke-linecap: square"/>
   </g>
   <g id="patch_17">
    <path d="M 483.882353 512.64 
L 648 512.64 
" style="fill: none; stroke: #000000; stroke-width: 0.8; stroke-linejoin: miter; stroke-linecap: square"/>
   </g>
   <g id="patch_18">
    <path d="M 483.882353 69.12 
L 648 69.12 
" style="fill: none; stroke: #000000; stroke-width: 0.8; stroke-linejoin: miter; stroke-linecap: square"/>
   </g>
   <g id="legend_3">
    <g id="patch_19">
     <path d="M 551.1625 314.397188 
L 641 314.397188 
Q 643 314.397188 643 312.397188 
L 643 269.362813 
Q 643 267.362813 641 267.362813 
L 551.1625 267.362813 
Q 549.1625 267.362813 549.1625 269.362813 
L 549.1625 312.397188 
Q 549.1625 314.397188 551.1625 314.397188 
z
" style="fill: #ffffff; opacity: 0.8; stroke: #cccccc; stroke-linejoin: miter"/>
    </g>
    <g id="line2d_43">
     <path d="M 553.1625 275.46125 
L 563.1625 275.46125 
L 573.1625 275.46125 
" style="fill: none; stroke: #0000ff; stroke-width: 1.5; stroke-linecap: square"/>
    </g>
    <g id="text_34">
     <!-- O1 ensured -->
     <g transform="translate(581.1625 278.96125) scale(0.1 -0.1)">
      <defs>
       <path id="DejaVuSans-6e" d="M 3513 2113 
L 3513 0 
L 2938 0 
L 2938 2094 
Q 2938 2591 2744 2837 
Q 2550 3084 2163 3084 
Q 1697 3084 1428 2787 
Q 1159 2491 1159 1978 
L 1159 0 
L 581 0 
L 581 3500 
L 1159 3500 
L 1159 2956 
Q 1366 3272 1645 3428 
Q 1925 3584 2291 3584 
Q 2894 3584 3203 3211 
Q 3513 2838 3513 2113 
z
" transform="scale(0.015625)"/>
      </defs>
      <use xlink:href="#DejaVuSans-4f"/>
      <use xlink:href="#DejaVuSans-31" x="78.710938"/>
      <use xlink:href="#DejaVuSans-20" x="142.333984"/>
      <use xlink:href="#DejaVuSans-65" x="174.121094"/>
      <use xlink:href="#DejaVuSans-6e" x="235.644531"/>
      <use xlink:href="#DejaVuSans-73" x="299.023438"/>
      <use xlink:href="#DejaVuSans-75" x="351.123047"/>
      <use xlink:href="#DejaVuSans-72" x="414.501953"/>
      <use xlink:href="#DejaVuSans-65" x="453.365234"/>
      <use xlink:href="#DejaVuSans-64" x="514.888672"/>
     </g>
    </g>
    <g id="line2d_44">
     <path d="M 553.1625 290.139375 
L 563.1625 290.139375 
L 573.1625 290.139375 
" style="fill: none; stroke: #ff0000; stroke-width: 1.5; stroke-linecap: square"/>
    </g>
    <g id="text_35">
     <!-- O2 ensured -->
     <g transform="translate(581.1625 293.639375) scale(0.1 -0.1)">
      <use xlink:href="#DejaVuSans-4f"/>
      <use xlink:href="#DejaVuSans-32" x="78.710938"/>
      <use xlink:href="#DejaVuSans-20" x="142.333984"/>
      <use xlink:href="#DejaVuSans-65" x="174.121094"/>
      <use xlink:href="#DejaVuSans-6e" x="235.644531"/>
      <use xlink:href="#DejaVuSans-73" x="299.023438"/>
      <use xlink:href="#DejaVuSans-75" x="351.123047"/>
      <use xlink:href="#DejaVuSans-72" x="414.501953"/>
      <use xlink:href="#DejaVuSans-65" x="453.365234"/>
      <use xlink:href="#DejaVuSans-64" x="514.888672"/>
     </g>
    </g>
    <g id="line2d_45">
     <path d="M 553.1625 304.8175 
L 563.1625 304.8175 
L 573.1625 304.8175 
" style="fill: none; stroke: #008000; stroke-width: 1.5; stroke-linecap: square"/>
    </g>
    <g id="text_36">
     <!-- O3 ensured -->
     <g transform="translate(581.1625 308.3175) scale(0.1 -0.1)">
      <use xlink:href="#DejaVuSans-4f"/>
      <use xlink:href="#DejaVuSans-33" x="78.710938"/>
      <use xlink:href="#DejaVuSans-20" x="142.333984"/>
      <use xlink:href="#DejaVuSans-65" x="174.121094"/>
      <use xlink:href="#DejaVuSans-6e" x="235.644531"/>
      <use xlink:href="#DejaVuSans-73" x="299.023438"/>
      <use xlink:href="#DejaVuSans-75" x="351.123047"/>
      <use xlink:href="#DejaVuSans-72" x="414.501953"/>
      <use xlink:href="#DejaVuSans-65" x="453.365234"/>
      <use xlink:href="#DejaVuSans-64" x="514.888672"/>
     </g>
    </g>
   </g>
  </g>
 </g>
 <defs>
  <clipPath id="p24a51ea38a">
   <rect x="90" y="69.12" width="164.117647" height="443.52"/>
  </clipPath>
  <clipPath id="pd782118799">
   <rect x="286.941176" y="69.12" width="164.117647" height="443.52"/>
  </clipPath>
  <clipPath id="p174cbe21cd">
   <rect x="483.882353" y="69.12" width="164.117647" height="443.52"/>
  </clipPath>
 </defs>
</svg>
