<?xml version="1.0" encoding="utf-8" standalone="no"?>
<!DOCTYPE svg PUBLIC "-//W3C//DTD SVG 1.1//EN"
  "http://www.w3.org/Graphics/SVG/1.1/DTD/svg11.dtd">
<svg xmlns:xlink="http://www.w3.org/1999/xlink" width="720pt" height="576pt" viewBox="0 0 720 576" xmlns="http://www.w3.org/2000/svg" version="1.1">
 <metadata>
  <rdf:RDF xmlns:dc="http://purl.org/dc/elements/1.1/" xmlns:cc="http://creativecommons.org/ns#" xmlns:rdf="http://www.w3.org/1999/02/22-rdf-syntax-ns#">
   <cc:Work>
    <dc:type rdf:resource="http://purl.org/dc/dcmitype/StillImage"/>
    <dc:date>2023-05-31T19:21:41.968971</dc:date>
    <dc:format>image/svg+xml</dc:format>
    <dc:creator>
     <cc:Agent>
      <dc:title>Matplotlib v3.7.1, https://matplotlib.org/</dc:title>
     </cc:Agent>
    </dc:creator>
   </cc:Work>
  </rdf:RDF>
 </metadata>
 <defs>
  <style type="text/css">*{stroke-linejoin: round; stroke-linecap: butt}</style>
 </defs>
 <g id="figure_1">
  <g id="patch_1">
   <path d="M 0 576 
L 720 576 
L 720 0 
L 0 0 
z
" style="fill: #ffffff"/>
  </g>
  <g id="axes_1">
   <g id="patch_2">
    <path d="M 90 512.64 
L 254.117647 512.64 
L 254.117647 69.12 
L 90 69.12 
z
" style="fill: #ffffff"/>
   </g>
   <g id="matplotlib.axis_1">
    <g id="xtick_1">
     <g id="line2d_1">
      <defs>
       <path id="m1d6eedcc3a" d="M 0 0 
L 0 3.5 
" style="stroke: #000000; stroke-width: 0.8"/>
      </defs>
      <g>
       <use xlink:href="#m1d6eedcc3a" x="97.127604" y="512.64" style="stroke: #000000; stroke-width: 0.8"/>
      </g>
     </g>
     <g id="text_1">
      <!-- 0 -->
      <g transform="translate(93.946354 527.238438) scale(0.1 -0.1)">
       <defs>
        <path id="DejaVuSans-30" d="M 2034 4250 
Q 1547 4250 1301 3770 
Q 1056 3291 1056 2328 
Q 1056 1369 1301 889 
Q 1547 409 2034 409 
Q 2525 409 2770 889 
Q 3016 1369 3016 2328 
Q 3016 3291 2770 3770 
Q 2525 4250 2034 4250 
z
M 2034 4750 
Q 2819 4750 3233 4129 
Q 3647 3509 3647 2328 
Q 3647 1150 3233 529 
Q 2819 -91 2034 -91 
Q 1250 -91 836 529 
Q 422 1150 422 2328 
Q 422 3509 836 4129 
Q 1250 4750 2034 4750 
z
" transform="scale(0.015625)"/>
       </defs>
       <use xlink:href="#DejaVuSans-30"/>
      </g>
     </g>
    </g>
    <g id="xtick_2">
     <g id="line2d_2">
      <g>
       <use xlink:href="#m1d6eedcc3a" x="130.356526" y="512.64" style="stroke: #000000; stroke-width: 0.8"/>
      </g>
     </g>
     <g id="text_2">
      <!-- 100 -->
      <g transform="translate(120.812776 527.238438) scale(0.1 -0.1)">
       <defs>
        <path id="DejaVuSans-31" d="M 794 531 
L 1825 531 
L 1825 4091 
L 703 3866 
L 703 4441 
L 1819 4666 
L 2450 4666 
L 2450 531 
L 3481 531 
L 3481 0 
L 794 0 
L 794 531 
z
" transform="scale(0.015625)"/>
       </defs>
       <use xlink:href="#DejaVuSans-31"/>
       <use xlink:href="#DejaVuSans-30" x="63.623047"/>
       <use xlink:href="#DejaVuSans-30" x="127.246094"/>
      </g>
     </g>
    </g>
    <g id="xtick_3">
     <g id="line2d_3">
      <g>
       <use xlink:href="#m1d6eedcc3a" x="163.585448" y="512.64" style="stroke: #000000; stroke-width: 0.8"/>
      </g>
     </g>
     <g id="text_3">
      <!-- 200 -->
      <g transform="translate(154.041698 527.238438) scale(0.1 -0.1)">
       <defs>
        <path id="DejaVuSans-32" d="M 1228 531 
L 3431 531 
L 3431 0 
L 469 0 
L 469 531 
Q 828 903 1448 1529 
Q 2069 2156 2228 2338 
Q 2531 2678 2651 2914 
Q 2772 3150 2772 3378 
Q 2772 3750 2511 3984 
Q 2250 4219 1831 4219 
Q 1534 4219 1204 4116 
Q 875 4013 500 3803 
L 500 4441 
Q 881 4594 1212 4672 
Q 1544 4750 1819 4750 
Q 2544 4750 2975 4387 
Q 3406 4025 3406 3419 
Q 3406 3131 3298 2873 
Q 3191 2616 2906 2266 
Q 2828 2175 2409 1742 
Q 1991 1309 1228 531 
z
" transform="scale(0.015625)"/>
       </defs>
       <use xlink:href="#DejaVuSans-32"/>
       <use xlink:href="#DejaVuSans-30" x="63.623047"/>
       <use xlink:href="#DejaVuSans-30" x="127.246094"/>
      </g>
     </g>
    </g>
    <g id="xtick_4">
     <g id="line2d_4">
      <g>
       <use xlink:href="#m1d6eedcc3a" x="196.814371" y="512.64" style="stroke: #000000; stroke-width: 0.8"/>
      </g>
     </g>
     <g id="text_4">
      <!-- 300 -->
      <g transform="translate(187.270621 527.238438) scale(0.1 -0.1)">
       <defs>
        <path id="DejaVuSans-33" d="M 2597 2516 
Q 3050 2419 3304 2112 
Q 3559 1806 3559 1356 
Q 3559 666 3084 287 
Q 2609 -91 1734 -91 
Q 1441 -91 1130 -33 
Q 819 25 488 141 
L 488 750 
Q 750 597 1062 519 
Q 1375 441 1716 441 
Q 2309 441 2620 675 
Q 2931 909 2931 1356 
Q 2931 1769 2642 2001 
Q 2353 2234 1838 2234 
L 1294 2234 
L 1294 2753 
L 1863 2753 
Q 2328 2753 2575 2939 
Q 2822 3125 2822 3475 
Q 2822 3834 2567 4026 
Q 2313 4219 1838 4219 
Q 1578 4219 1281 4162 
Q 984 4106 628 3988 
L 628 4550 
Q 988 4650 1302 4700 
Q 1616 4750 1894 4750 
Q 2613 4750 3031 4423 
Q 3450 4097 3450 3541 
Q 3450 3153 3228 2886 
Q 3006 2619 2597 2516 
z
" transform="scale(0.015625)"/>
       </defs>
       <use xlink:href="#DejaVuSans-33"/>
       <use xlink:href="#DejaVuSans-30" x="63.623047"/>
       <use xlink:href="#DejaVuSans-30" x="127.246094"/>
      </g>
     </g>
    </g>
    <g id="xtick_5">
     <g id="line2d_5">
      <g>
       <use xlink:href="#m1d6eedcc3a" x="230.043293" y="512.64" style="stroke: #000000; stroke-width: 0.8"/>
      </g>
     </g>
     <g id="text_5">
      <!-- 400 -->
      <g transform="translate(220.499543 527.238438) scale(0.1 -0.1)">
       <defs>
        <path id="DejaVuSans-34" d="M 2419 4116 
L 825 1625 
L 2419 1625 
L 2419 4116 
z
M 2253 4666 
L 3047 4666 
L 3047 1625 
L 3713 1625 
L 3713 1100 
L 3047 1100 
L 3047 0 
L 2419 0 
L 2419 1100 
L 313 1100 
L 313 1709 
L 2253 4666 
z
" transform="scale(0.015625)"/>
       </defs>
       <use xlink:href="#DejaVuSans-34"/>
       <use xlink:href="#DejaVuSans-30" x="63.623047"/>
       <use xlink:href="#DejaVuSans-30" x="127.246094"/>
      </g>
     </g>
    </g>
   </g>
   <g id="matplotlib.axis_2">
    <g id="ytick_1">
     <g id="line2d_6">
      <defs>
       <path id="m2d3a94f42e" d="M 0 0 
L -3.5 0 
" style="stroke: #000000; stroke-width: 0.8"/>
      </defs>
      <g>
       <use xlink:href="#m2d3a94f42e" x="90" y="492.48" style="stroke: #000000; stroke-width: 0.8"/>
      </g>
     </g>
     <g id="text_6">
      <!-- 0.0 -->
      <g transform="translate(67.096875 496.279219) scale(0.1 -0.1)">
       <defs>
        <path id="DejaVuSans-2e" d="M 684 794 
L 1344 794 
L 1344 0 
L 684 0 
L 684 794 
z
" transform="scale(0.015625)"/>
       </defs>
       <use xlink:href="#DejaVuSans-30"/>
       <use xlink:href="#DejaVuSans-2e" x="63.623047"/>
       <use xlink:href="#DejaVuSans-30" x="95.410156"/>
      </g>
     </g>
    </g>
    <g id="ytick_2">
     <g id="line2d_7">
      <g>
       <use xlink:href="#m2d3a94f42e" x="90" y="405.705578" style="stroke: #000000; stroke-width: 0.8"/>
      </g>
     </g>
     <g id="text_7">
      <!-- 0.1 -->
      <g transform="translate(67.096875 409.504796) scale(0.1 -0.1)">
       <use xlink:href="#DejaVuSans-30"/>
       <use xlink:href="#DejaVuSans-2e" x="63.623047"/>
       <use xlink:href="#DejaVuSans-31" x="95.410156"/>
      </g>
     </g>
    </g>
    <g id="ytick_3">
     <g id="line2d_8">
      <g>
       <use xlink:href="#m2d3a94f42e" x="90" y="318.931155" style="stroke: #000000; stroke-width: 0.8"/>
      </g>
     </g>
     <g id="text_8">
      <!-- 0.2 -->
      <g transform="translate(67.096875 322.730374) scale(0.1 -0.1)">
       <use xlink:href="#DejaVuSans-30"/>
       <use xlink:href="#DejaVuSans-2e" x="63.623047"/>
       <use xlink:href="#DejaVuSans-32" x="95.410156"/>
      </g>
     </g>
    </g>
    <g id="ytick_4">
     <g id="line2d_9">
      <g>
       <use xlink:href="#m2d3a94f42e" x="90" y="232.156733" style="stroke: #000000; stroke-width: 0.8"/>
      </g>
     </g>
     <g id="text_9">
      <!-- 0.3 -->
      <g transform="translate(67.096875 235.955951) scale(0.1 -0.1)">
       <use xlink:href="#DejaVuSans-30"/>
       <use xlink:href="#DejaVuSans-2e" x="63.623047"/>
       <use xlink:href="#DejaVuSans-33" x="95.410156"/>
      </g>
     </g>
    </g>
    <g id="ytick_5">
     <g id="line2d_10">
      <g>
       <use xlink:href="#m2d3a94f42e" x="90" y="145.38231" style="stroke: #000000; stroke-width: 0.8"/>
      </g>
     </g>
     <g id="text_10">
      <!-- 0.4 -->
      <g transform="translate(67.096875 149.181529) scale(0.1 -0.1)">
       <use xlink:href="#DejaVuSans-30"/>
       <use xlink:href="#DejaVuSans-2e" x="63.623047"/>
       <use xlink:href="#DejaVuSans-34" x="95.410156"/>
      </g>
     </g>
    </g>
   </g>
   <g id="line2d_11">
    <path d="M 97.459893 492.48 
L 114.074354 492.48 
L 114.406643 434.630385 
L 116.732668 434.630385 
L 117.064957 423.060462 
L 118.061825 423.060462 
L 118.394114 423.505459 
L 119.390982 423.505459 
L 119.723271 440.03392 
L 120.720139 440.03392 
L 121.052428 445.611099 
L 122.049296 445.611099 
L 122.381585 450.011037 
L 123.378452 450.011037 
L 123.710742 450.367253 
L 124.707609 450.367253 
L 125.039899 451.302323 
L 126.036766 451.302323 
L 126.369055 451.576232 
L 128.69508 451.576232 
L 129.027369 451.834029 
L 131.353394 451.834029 
L 131.685683 452.306656 
L 134.011708 452.306656 
L 134.343997 452.523809 
L 136.670021 452.523809 
L 137.002311 452.729534 
L 137.999178 452.729534 
L 138.331467 452.924708 
L 140.657492 452.924708 
L 140.989781 453.286494 
L 141.986649 453.286494 
L 142.318938 453.614626 
L 143.315806 453.614626 
L 143.648095 456.828493 
L 144.644963 456.828493 
L 144.977252 459.610901 
L 145.97412 459.610901 
L 146.306409 459.756985 
L 147.303276 459.756985 
L 147.635566 462.087992 
L 148.632433 462.087992 
L 148.964723 464.075934 
L 149.96159 464.075934 
L 150.293879 464.204147 
L 151.290747 464.204147 
L 151.623036 464.445187 
L 152.619904 464.445187 
L 153.284482 464.558617 
L 153.949061 464.558617 
L 154.28135 464.873702 
L 155.278218 464.873702 
L 155.610507 468.031651 
L 157.936532 468.122267 
L 158.268821 468.294285 
L 160.594845 468.375994 
L 160.927135 468.531503 
L 161.924002 468.531503 
L 162.256291 468.677294 
L 163.253159 468.677294 
L 163.585448 470.019449 
L 164.582316 470.019449 
L 164.914605 470.209994 
L 165.911473 470.209994 
L 166.243762 470.328079 
L 167.24063 470.328079 
L 167.572919 472.336746 
L 168.569787 472.336746 
L 168.902076 473.239083 
L 173.886414 473.239083 
L 174.218703 474.000262 
L 177.873885 474.108838 
L 178.538463 474.211701 
L 179.203042 474.211701 
L 179.535331 474.949814 
L 181.861356 474.949814 
L 182.193645 476.195688 
L 183.190512 476.195688 
L 183.522802 476.766629 
L 185.848826 476.766629 
L 186.181115 477.294476 
L 191.165454 477.382661 
L 191.497743 478.239693 
L 192.494611 478.239693 
L 192.8269 478.622296 
L 193.823768 478.622296 
L 194.156057 479.310982 
L 197.811238 479.394968 
L 198.143528 480.038079 
L 199.140395 480.038079 
L 199.472684 480.351557 
L 200.469552 480.351557 
L 200.801841 481.001902 
L 201.798709 481.001902 
L 202.130998 481.266781 
L 203.127866 481.266781 
L 203.460155 481.689658 
L 205.78618 481.791101 
L 206.118469 482.081444 
L 208.444493 482.081444 
L 208.776783 482.266859 
L 213.761121 482.3271 
L 214.09341 482.561327 
L 215.090278 482.561327 
L 215.422567 482.945067 
L 217.748592 482.972069 
L 218.080881 483.488745 
L 219.077749 483.488745 
L 219.410038 483.647563 
L 220.406905 483.647563 
L 220.739195 483.871426 
L 223.065219 483.871426 
L 223.397508 484.112466 
L 227.05269 484.157775 
L 227.384979 484.293268 
L 228.381847 484.293268 
L 228.714136 484.424019 
L 229.711004 484.424019 
L 230.043293 484.651348 
L 231.040161 484.651348 
L 231.37245 484.84265 
L 235.027631 484.904455 
L 235.69221 484.963245 
L 237.685945 484.98221 
L 238.350523 485.091488 
L 239.015102 485.091488 
L 239.347391 485.263506 
L 243.002573 485.363579 
L 244.331729 485.399448 
L 246.657754 485.546955 
L 246.657754 485.546955 
" clip-path="url(#pae972a1eb4)" style="fill: none; stroke: #0000ff; stroke-width: 1.5; stroke-linecap: square"/>
   </g>
   <g id="line2d_12">
    <path d="M 97.459893 492.48 
L 111.41604 492.48 
L 111.74833 481.355074 
L 112.745197 481.355074 
L 113.077487 440.828558 
L 114.074354 440.828558 
L 114.406643 441.897209 
L 115.403511 441.897209 
L 115.7358 428.5286 
L 116.732668 428.5286 
L 117.064957 429.526007 
L 118.061825 429.526007 
L 118.394114 355.406188 
L 119.390982 355.406188 
L 119.723271 300.109271 
L 120.720139 300.109271 
L 121.052428 277.320029 
L 122.049296 277.320029 
L 122.381585 247.634042 
L 123.378452 247.634042 
L 123.710742 232.039152 
L 124.707609 232.039152 
L 125.039899 234.22279 
L 126.036766 234.22279 
L 126.369055 239.748293 
L 127.365923 239.748293 
L 127.698212 244.866118 
L 128.69508 244.866118 
L 129.027369 254.059938 
L 130.024237 254.059938 
L 130.356526 239.226704 
L 134.011708 239.226704 
L 134.343997 228.251737 
L 137.999178 228.251737 
L 138.331467 214.73298 
L 139.328335 214.73298 
L 139.660624 214.542267 
L 140.657492 214.542267 
L 140.989781 206.713615 
L 141.986649 206.713615 
L 142.318938 213.944817 
L 143.315806 213.944817 
L 143.648095 197.829303 
L 144.644963 197.829303 
L 144.977252 177.155773 
L 145.97412 177.155773 
L 146.306409 177.315857 
L 147.303276 177.315857 
L 147.635566 165.210281 
L 148.632433 165.210281 
L 148.964723 143.262459 
L 149.96159 143.262459 
L 150.293879 130.843948 
L 151.290747 130.843948 
L 151.623036 139.958909 
L 152.619904 139.958909 
L 152.952193 154.943733 
L 153.949061 154.943733 
L 154.28135 156.966447 
L 155.278218 156.966447 
L 155.610507 162.97992 
L 156.607375 162.97992 
L 156.939664 170.926296 
L 157.936532 170.926296 
L 158.268821 178.925364 
L 159.265688 178.925364 
L 159.597978 182.571348 
L 160.594845 182.571348 
L 160.927135 184.317313 
L 161.924002 184.317313 
L 162.256291 192.173639 
L 163.253159 192.173639 
L 163.585448 198.860756 
L 164.582316 198.860756 
L 164.914605 196.567618 
L 165.911473 196.567618 
L 166.243762 198.860811 
L 167.24063 198.860811 
L 167.572919 203.148085 
L 168.569787 203.148085 
L 168.902076 206.066103 
L 169.898944 206.066103 
L 170.231233 207.659192 
L 171.2281 207.659192 
L 171.56039 207.311065 
L 172.557257 207.311065 
L 172.889547 210.203545 
L 173.886414 210.203545 
L 174.218703 208.138158 
L 176.544728 208.138158 
L 176.877017 210.808141 
L 179.203042 210.808141 
L 179.535331 208.794388 
L 180.532199 208.794388 
L 180.864488 196.673545 
L 181.861356 196.673545 
L 182.193645 183.181453 
L 183.190512 183.181453 
L 183.522802 169.00717 
L 184.519669 169.00717 
L 184.851959 156.640256 
L 185.848826 156.640256 
L 186.181115 140.233211 
L 187.177983 140.233211 
L 187.510272 118.906164 
L 188.50714 118.906164 
L 188.839429 99.161821 
L 189.836297 99.161821 
L 190.168586 92.086759 
L 191.165454 92.086759 
L 191.497743 89.28 
L 192.494611 89.28 
L 192.8269 92.357107 
L 193.823768 92.357107 
L 194.156057 96.734847 
L 195.152925 96.734847 
L 195.485214 94.426224 
L 196.482081 94.426224 
L 196.814371 90.171803 
L 197.811238 90.171803 
L 198.143528 93.699218 
L 199.140395 93.699218 
L 199.472684 97.058661 
L 200.469552 97.058661 
L 200.801841 100.261852 
L 201.798709 100.261852 
L 202.130998 103.594318 
L 203.127866 103.594318 
L 203.460155 105.519676 
L 204.457023 105.519676 
L 204.789312 109.894634 
L 207.115337 109.894634 
L 207.447626 111.186171 
L 208.444493 111.186171 
L 208.776783 112.452629 
L 209.77365 112.452629 
L 210.10594 116.61643 
L 211.102807 116.61643 
L 211.435096 124.500742 
L 212.431964 124.500742 
L 212.764253 136.7319 
L 213.761121 136.7319 
L 214.09341 148.026933 
L 215.090278 148.026933 
L 215.422567 155.745744 
L 216.419435 155.745744 
L 216.751724 163.995113 
L 217.748592 163.995113 
L 218.080881 167.557281 
L 219.077749 167.557281 
L 219.410038 175.473211 
L 220.406905 175.473211 
L 220.739195 176.50608 
L 221.736062 176.50608 
L 222.068352 180.462491 
L 223.065219 180.462491 
L 223.397508 185.672635 
L 224.394376 185.672635 
L 224.726665 194.017439 
L 225.723533 194.017439 
L 226.055822 201.384579 
L 227.05269 201.384579 
L 227.384979 205.01384 
L 228.381847 205.01384 
L 228.714136 207.770452 
L 229.711004 207.770452 
L 230.043293 211.799592 
L 231.040161 211.799592 
L 231.37245 212.513708 
L 232.369317 212.513708 
L 232.701607 216.985388 
L 233.698474 216.985388 
L 234.030764 221.20479 
L 235.027631 221.20479 
L 235.35992 223.760269 
L 236.356788 223.760269 
L 236.689077 225.588784 
L 237.685945 225.588784 
L 238.018234 229.559311 
L 239.015102 229.559311 
L 239.347391 231.713235 
L 240.344259 231.713235 
L 240.676548 233.812917 
L 241.673416 233.812917 
L 242.005705 235.464201 
L 243.002573 235.464201 
L 243.334862 237.772272 
L 245.660886 237.772272 
L 245.993176 240.202484 
L 246.657754 240.202484 
L 246.657754 240.202484 
" clip-path="url(#pae972a1eb4)" style="fill: none; stroke: #ff0000; stroke-width: 1.5; stroke-linecap: square"/>
   </g>
   <g id="line2d_13">
    <path d="M 97.459893 492.48 
L 111.41604 492.48 
L 111.74833 394.61411 
L 112.745197 394.61411 
L 113.077487 380.912885 
L 114.074354 380.912885 
L 114.406643 368.516539 
L 115.403511 368.516539 
L 115.7358 378.846828 
L 116.732668 378.846828 
L 117.064957 377.898637 
L 118.061825 377.898637 
L 118.394114 379.994638 
L 119.390982 379.994638 
L 119.723271 381.922958 
L 120.720139 381.922958 
L 121.052428 388.350693 
L 122.049296 388.350693 
L 122.381585 390.130681 
L 123.378452 390.130681 
L 123.710742 391.778818 
L 124.707609 391.778818 
L 125.039899 399.993155 
L 127.365923 399.993155 
L 127.698212 402.567109 
L 130.024237 402.567109 
L 130.356526 408.115978 
L 131.353394 408.115978 
L 131.685683 411.824287 
L 132.682551 411.824287 
L 133.01484 416.098474 
L 135.340864 416.098474 
L 135.673154 418.101924 
L 136.670021 418.101924 
L 137.002311 419.020171 
L 139.328335 419.020171 
L 139.660624 419.888784 
L 140.657492 419.888784 
L 140.989781 424.247121 
L 141.986649 424.247121 
L 142.318938 425.694266 
L 143.315806 425.694266 
L 143.648095 426.366154 
L 144.644963 426.366154 
L 144.977252 427.006792 
L 145.97412 427.006792 
L 146.306409 429.296733 
L 147.303276 429.296733 
L 147.635566 430.301502 
L 148.632433 430.301502 
L 148.964723 430.773744 
L 149.96159 430.773744 
L 150.293879 432.083547 
L 151.290747 432.083547 
L 151.623036 435.287767 
L 152.619904 435.287767 
L 152.952193 437.790238 
L 155.278218 437.790238 
L 155.610507 439.680748 
L 156.607375 439.680748 
L 156.939664 442.894616 
L 157.936532 442.894616 
L 158.268821 443.257082 
L 159.265688 443.257082 
L 159.597978 445.322525 
L 160.594845 445.322525 
L 160.927135 445.649359 
L 163.253159 445.649359 
L 163.585448 445.965477 
L 164.582316 445.965477 
L 164.914605 446.271398 
L 165.911473 446.271398 
L 166.243762 446.567607 
L 169.898944 446.567607 
L 170.231233 447.819763 
L 171.2281 447.819763 
L 171.56039 448.106716 
L 172.557257 448.106716 
L 172.889547 449.797807 
L 173.886414 449.797807 
L 174.218703 450.313401 
L 175.215571 450.313401 
L 175.54786 450.559989 
L 179.203042 450.559989 
L 179.535331 451.032327 
L 180.532199 451.032327 
L 180.864488 452.94943 
L 181.861356 452.94943 
L 182.193645 453.152411 
L 183.190512 453.152411 
L 183.522802 453.35012 
L 184.519669 453.35012 
L 184.851959 454.31428 
L 185.848826 454.31428 
L 186.181115 455.396913 
L 187.177983 455.396913 
L 187.510272 456.986189 
L 188.50714 456.986189 
L 188.839429 457.886385 
L 189.836297 457.886385 
L 190.168586 458.912939 
L 191.165454 458.912939 
L 191.497743 459.087133 
L 192.494611 459.087133 
L 192.8269 459.879168 
L 195.152925 459.879168 
L 195.485214 460.462329 
L 196.482081 460.462329 
L 196.814371 461.525741 
L 197.811238 461.525741 
L 198.143528 462.636945 
L 199.140395 462.636945 
L 199.472684 463.482699 
L 201.798709 463.482699 
L 202.130998 464.243878 
L 203.127866 464.243878 
L 203.460155 464.405922 
L 204.457023 464.405922 
L 204.789312 464.564197 
L 205.78618 464.564197 
L 206.118469 465.071576 
L 208.444493 465.071576 
L 208.776783 465.40752 
L 209.77365 465.40752 
L 210.10594 465.878961 
L 211.102807 465.878961 
L 211.435096 466.18472 
L 212.431964 466.18472 
L 212.764253 467.674043 
L 213.761121 467.674043 
L 214.09341 467.910164 
L 215.090278 467.910164 
L 215.422567 468.640873 
L 216.419435 468.640873 
L 216.751724 468.850777 
L 217.748592 468.850777 
L 218.080881 469.191105 
L 219.077749 469.191105 
L 219.410038 469.708934 
L 220.406905 469.708934 
L 220.739195 470.453925 
L 221.736062 470.453925 
L 222.068352 471.343373 
L 223.065219 471.343373 
L 223.397508 471.754207 
L 224.394376 471.754207 
L 225.058955 471.871075 
L 225.723533 471.871075 
L 226.388111 471.985628 
L 227.05269 471.985628 
L 227.384979 472.236997 
L 228.381847 472.236997 
L 228.714136 472.561085 
L 229.711004 472.561085 
L 230.043293 472.695933 
L 231.040161 472.695933 
L 231.37245 472.901895 
L 233.698474 472.901895 
L 234.030764 473.032717 
L 236.356788 473.132837 
L 236.689077 473.327617 
L 240.344259 473.327617 
L 240.676548 473.454592 
L 241.673416 473.454592 
L 242.005705 473.672644 
L 244.331729 473.672644 
L 244.664019 473.857128 
L 245.660886 473.857128 
L 245.993176 474.035195 
L 246.657754 474.035195 
L 246.657754 474.035195 
" clip-path="url(#pae972a1eb4)" style="fill: none; stroke: #008000; stroke-width: 1.5; stroke-linecap: square"/>
   </g>
   <g id="patch_3">
    <path d="M 90 512.64 
L 90 69.12 
" style="fill: none; stroke: #000000; stroke-width: 0.8; stroke-linejoin: miter; stroke-linecap: square"/>
   </g>
   <g id="patch_4">
    <path d="M 254.117647 512.64 
L 254.117647 69.12 
" style="fill: none; stroke: #000000; stroke-width: 0.8; stroke-linejoin: miter; stroke-linecap: square"/>
   </g>
   <g id="patch_5">
    <path d="M 90 512.64 
L 254.117647 512.64 
" style="fill: none; stroke: #000000; stroke-width: 0.8; stroke-linejoin: miter; stroke-linecap: square"/>
   </g>
   <g id="patch_6">
    <path d="M 90 69.12 
L 254.117647 69.12 
" style="fill: none; stroke: #000000; stroke-width: 0.8; stroke-linejoin: miter; stroke-linecap: square"/>
   </g>
   <g id="legend_1">
    <g id="patch_7">
     <path d="M 97 121.154375 
L 174.84375 121.154375 
Q 176.84375 121.154375 176.84375 119.154375 
L 176.84375 76.12 
Q 176.84375 74.12 174.84375 74.12 
L 97 74.12 
Q 95 74.12 95 76.12 
L 95 119.154375 
Q 95 121.154375 97 121.154375 
z
" style="fill: #ffffff; opacity: 0.8; stroke: #cccccc; stroke-linejoin: miter"/>
    </g>
    <g id="line2d_14">
     <path d="M 99 82.218438 
L 109 82.218438 
L 119 82.218438 
" style="fill: none; stroke: #0000ff; stroke-width: 1.5; stroke-linecap: square"/>
    </g>
    <g id="text_11">
     <!-- O1 utility -->
     <g transform="translate(127 85.718438) scale(0.1 -0.1)">
      <defs>
       <path id="DejaVuSans-4f" d="M 2522 4238 
Q 1834 4238 1429 3725 
Q 1025 3213 1025 2328 
Q 1025 1447 1429 934 
Q 1834 422 2522 422 
Q 3209 422 3611 934 
Q 4013 1447 4013 2328 
Q 4013 3213 3611 3725 
Q 3209 4238 2522 4238 
z
M 2522 4750 
Q 3503 4750 4090 4092 
Q 4678 3434 4678 2328 
Q 4678 1225 4090 567 
Q 3503 -91 2522 -91 
Q 1538 -91 948 565 
Q 359 1222 359 2328 
Q 359 3434 948 4092 
Q 1538 4750 2522 4750 
z
" transform="scale(0.015625)"/>
       <path id="DejaVuSans-20" transform="scale(0.015625)"/>
       <path id="DejaVuSans-75" d="M 544 1381 
L 544 3500 
L 1119 3500 
L 1119 1403 
Q 1119 906 1312 657 
Q 1506 409 1894 409 
Q 2359 409 2629 706 
Q 2900 1003 2900 1516 
L 2900 3500 
L 3475 3500 
L 3475 0 
L 2900 0 
L 2900 538 
Q 2691 219 2414 64 
Q 2138 -91 1772 -91 
Q 1169 -91 856 284 
Q 544 659 544 1381 
z
M 1991 3584 
L 1991 3584 
z
" transform="scale(0.015625)"/>
       <path id="DejaVuSans-74" d="M 1172 4494 
L 1172 3500 
L 2356 3500 
L 2356 3053 
L 1172 3053 
L 1172 1153 
Q 1172 725 1289 603 
Q 1406 481 1766 481 
L 2356 481 
L 2356 0 
L 1766 0 
Q 1100 0 847 248 
Q 594 497 594 1153 
L 594 3053 
L 172 3053 
L 172 3500 
L 594 3500 
L 594 4494 
L 1172 4494 
z
" transform="scale(0.015625)"/>
       <path id="DejaVuSans-69" d="M 603 3500 
L 1178 3500 
L 1178 0 
L 603 0 
L 603 3500 
z
M 603 4863 
L 1178 4863 
L 1178 4134 
L 603 4134 
L 603 4863 
z
" transform="scale(0.015625)"/>
       <path id="DejaVuSans-6c" d="M 603 4863 
L 1178 4863 
L 1178 0 
L 603 0 
L 603 4863 
z
" transform="scale(0.015625)"/>
       <path id="DejaVuSans-79" d="M 2059 -325 
Q 1816 -950 1584 -1140 
Q 1353 -1331 966 -1331 
L 506 -1331 
L 506 -850 
L 844 -850 
Q 1081 -850 1212 -737 
Q 1344 -625 1503 -206 
L 1606 56 
L 191 3500 
L 800 3500 
L 1894 763 
L 2988 3500 
L 3597 3500 
L 2059 -325 
z
" transform="scale(0.015625)"/>
      </defs>
      <use xlink:href="#DejaVuSans-4f"/>
      <use xlink:href="#DejaVuSans-31" x="78.710938"/>
      <use xlink:href="#DejaVuSans-20" x="142.333984"/>
      <use xlink:href="#DejaVuSans-75" x="174.121094"/>
      <use xlink:href="#DejaVuSans-74" x="237.5"/>
      <use xlink:href="#DejaVuSans-69" x="276.708984"/>
      <use xlink:href="#DejaVuSans-6c" x="304.492188"/>
      <use xlink:href="#DejaVuSans-69" x="332.275391"/>
      <use xlink:href="#DejaVuSans-74" x="360.058594"/>
      <use xlink:href="#DejaVuSans-79" x="399.267578"/>
     </g>
    </g>
    <g id="line2d_15">
     <path d="M 99 96.896563 
L 109 96.896563 
L 119 96.896563 
" style="fill: none; stroke: #ff0000; stroke-width: 1.5; stroke-linecap: square"/>
    </g>
    <g id="text_12">
     <!-- O2 utility -->
     <g transform="translate(127 100.396563) scale(0.1 -0.1)">
      <use xlink:href="#DejaVuSans-4f"/>
      <use xlink:href="#DejaVuSans-32" x="78.710938"/>
      <use xlink:href="#DejaVuSans-20" x="142.333984"/>
      <use xlink:href="#DejaVuSans-75" x="174.121094"/>
      <use xlink:href="#DejaVuSans-74" x="237.5"/>
      <use xlink:href="#DejaVuSans-69" x="276.708984"/>
      <use xlink:href="#DejaVuSans-6c" x="304.492188"/>
      <use xlink:href="#DejaVuSans-69" x="332.275391"/>
      <use xlink:href="#DejaVuSans-74" x="360.058594"/>
      <use xlink:href="#DejaVuSans-79" x="399.267578"/>
     </g>
    </g>
    <g id="line2d_16">
     <path d="M 99 111.574688 
L 109 111.574688 
L 119 111.574688 
" style="fill: none; stroke: #008000; stroke-width: 1.5; stroke-linecap: square"/>
    </g>
    <g id="text_13">
     <!-- O3 utility -->
     <g transform="translate(127 115.074688) scale(0.1 -0.1)">
      <use xlink:href="#DejaVuSans-4f"/>
      <use xlink:href="#DejaVuSans-33" x="78.710938"/>
      <use xlink:href="#DejaVuSans-20" x="142.333984"/>
      <use xlink:href="#DejaVuSans-75" x="174.121094"/>
      <use xlink:href="#DejaVuSans-74" x="237.5"/>
      <use xlink:href="#DejaVuSans-69" x="276.708984"/>
      <use xlink:href="#DejaVuSans-6c" x="304.492188"/>
      <use xlink:href="#DejaVuSans-69" x="332.275391"/>
      <use xlink:href="#DejaVuSans-74" x="360.058594"/>
      <use xlink:href="#DejaVuSans-79" x="399.267578"/>
     </g>
    </g>
   </g>
  </g>
  <g id="axes_2">
   <g id="patch_8">
    <path d="M 286.941176 512.64 
L 451.058824 512.64 
L 451.058824 69.12 
L 286.941176 69.12 
z
" style="fill: #ffffff"/>
   </g>
   <g id="matplotlib.axis_3">
    <g id="xtick_6">
     <g id="line2d_17">
      <g>
       <use xlink:href="#m1d6eedcc3a" x="294.06878" y="512.64" style="stroke: #000000; stroke-width: 0.8"/>
      </g>
     </g>
     <g id="text_14">
      <!-- 0 -->
      <g transform="translate(290.88753 527.238438) scale(0.1 -0.1)">
       <use xlink:href="#DejaVuSans-30"/>
      </g>
     </g>
    </g>
    <g id="xtick_7">
     <g id="line2d_18">
      <g>
       <use xlink:href="#m1d6eedcc3a" x="327.297703" y="512.64" style="stroke: #000000; stroke-width: 0.8"/>
      </g>
     </g>
     <g id="text_15">
      <!-- 100 -->
      <g transform="translate(317.753953 527.238438) scale(0.1 -0.1)">
       <use xlink:href="#DejaVuSans-31"/>
       <use xlink:href="#DejaVuSans-30" x="63.623047"/>
       <use xlink:href="#DejaVuSans-30" x="127.246094"/>
      </g>
     </g>
    </g>
    <g id="xtick_8">
     <g id="line2d_19">
      <g>
       <use xlink:href="#m1d6eedcc3a" x="360.526625" y="512.64" style="stroke: #000000; stroke-width: 0.8"/>
      </g>
     </g>
     <g id="text_16">
      <!-- 200 -->
      <g transform="translate(350.982875 527.238438) scale(0.1 -0.1)">
       <use xlink:href="#DejaVuSans-32"/>
       <use xlink:href="#DejaVuSans-30" x="63.623047"/>
       <use xlink:href="#DejaVuSans-30" x="127.246094"/>
      </g>
     </g>
    </g>
    <g id="xtick_9">
     <g id="line2d_20">
      <g>
       <use xlink:href="#m1d6eedcc3a" x="393.755547" y="512.64" style="stroke: #000000; stroke-width: 0.8"/>
      </g>
     </g>
     <g id="text_17">
      <!-- 300 -->
      <g transform="translate(384.211797 527.238438) scale(0.1 -0.1)">
       <use xlink:href="#DejaVuSans-33"/>
       <use xlink:href="#DejaVuSans-30" x="63.623047"/>
       <use xlink:href="#DejaVuSans-30" x="127.246094"/>
      </g>
     </g>
    </g>
    <g id="xtick_10">
     <g id="line2d_21">
      <g>
       <use xlink:href="#m1d6eedcc3a" x="426.984469" y="512.64" style="stroke: #000000; stroke-width: 0.8"/>
      </g>
     </g>
     <g id="text_18">
      <!-- 400 -->
      <g transform="translate(417.440719 527.238438) scale(0.1 -0.1)">
       <use xlink:href="#DejaVuSans-34"/>
       <use xlink:href="#DejaVuSans-30" x="63.623047"/>
       <use xlink:href="#DejaVuSans-30" x="127.246094"/>
      </g>
     </g>
    </g>
   </g>
   <g id="matplotlib.axis_4">
    <g id="ytick_6">
     <g id="line2d_22">
      <g>
       <use xlink:href="#m2d3a94f42e" x="286.941176" y="492.48" style="stroke: #000000; stroke-width: 0.8"/>
      </g>
     </g>
     <g id="text_19">
      <!-- 0 -->
      <g transform="translate(273.578676 496.279219) scale(0.1 -0.1)">
       <use xlink:href="#DejaVuSans-30"/>
      </g>
     </g>
    </g>
    <g id="ytick_7">
     <g id="line2d_23">
      <g>
       <use xlink:href="#m2d3a94f42e" x="286.941176" y="427.864615" style="stroke: #000000; stroke-width: 0.8"/>
      </g>
     </g>
     <g id="text_20">
      <!-- 50 -->
      <g transform="translate(267.216176 431.663834) scale(0.1 -0.1)">
       <defs>
        <path id="DejaVuSans-35" d="M 691 4666 
L 3169 4666 
L 3169 4134 
L 1269 4134 
L 1269 2991 
Q 1406 3038 1543 3061 
Q 1681 3084 1819 3084 
Q 2600 3084 3056 2656 
Q 3513 2228 3513 1497 
Q 3513 744 3044 326 
Q 2575 -91 1722 -91 
Q 1428 -91 1123 -41 
Q 819 9 494 109 
L 494 744 
Q 775 591 1075 516 
Q 1375 441 1709 441 
Q 2250 441 2565 725 
Q 2881 1009 2881 1497 
Q 2881 1984 2565 2268 
Q 2250 2553 1709 2553 
Q 1456 2553 1204 2497 
Q 953 2441 691 2322 
L 691 4666 
z
" transform="scale(0.015625)"/>
       </defs>
       <use xlink:href="#DejaVuSans-35"/>
       <use xlink:href="#DejaVuSans-30" x="63.623047"/>
      </g>
     </g>
    </g>
    <g id="ytick_8">
     <g id="line2d_24">
      <g>
       <use xlink:href="#m2d3a94f42e" x="286.941176" y="363.249231" style="stroke: #000000; stroke-width: 0.8"/>
      </g>
     </g>
     <g id="text_21">
      <!-- 100 -->
      <g transform="translate(260.853676 367.04845) scale(0.1 -0.1)">
       <use xlink:href="#DejaVuSans-31"/>
       <use xlink:href="#DejaVuSans-30" x="63.623047"/>
       <use xlink:href="#DejaVuSans-30" x="127.246094"/>
      </g>
     </g>
    </g>
    <g id="ytick_9">
     <g id="line2d_25">
      <g>
       <use xlink:href="#m2d3a94f42e" x="286.941176" y="298.633846" style="stroke: #000000; stroke-width: 0.8"/>
      </g>
     </g>
     <g id="text_22">
      <!-- 150 -->
      <g transform="translate(260.853676 302.433065) scale(0.1 -0.1)">
       <use xlink:href="#DejaVuSans-31"/>
       <use xlink:href="#DejaVuSans-35" x="63.623047"/>
       <use xlink:href="#DejaVuSans-30" x="127.246094"/>
      </g>
     </g>
    </g>
    <g id="ytick_10">
     <g id="line2d_26">
      <g>
       <use xlink:href="#m2d3a94f42e" x="286.941176" y="234.018462" style="stroke: #000000; stroke-width: 0.8"/>
      </g>
     </g>
     <g id="text_23">
      <!-- 200 -->
      <g transform="translate(260.853676 237.81768) scale(0.1 -0.1)">
       <use xlink:href="#DejaVuSans-32"/>
       <use xlink:href="#DejaVuSans-30" x="63.623047"/>
       <use xlink:href="#DejaVuSans-30" x="127.246094"/>
      </g>
     </g>
    </g>
    <g id="ytick_11">
     <g id="line2d_27">
      <g>
       <use xlink:href="#m2d3a94f42e" x="286.941176" y="169.403077" style="stroke: #000000; stroke-width: 0.8"/>
      </g>
     </g>
     <g id="text_24">
      <!-- 250 -->
      <g transform="translate(260.853676 173.202296) scale(0.1 -0.1)">
       <use xlink:href="#DejaVuSans-32"/>
       <use xlink:href="#DejaVuSans-35" x="63.623047"/>
       <use xlink:href="#DejaVuSans-30" x="127.246094"/>
      </g>
     </g>
    </g>
    <g id="ytick_12">
     <g id="line2d_28">
      <g>
       <use xlink:href="#m2d3a94f42e" x="286.941176" y="104.787692" style="stroke: #000000; stroke-width: 0.8"/>
      </g>
     </g>
     <g id="text_25">
      <!-- 300 -->
      <g transform="translate(260.853676 108.586911) scale(0.1 -0.1)">
       <use xlink:href="#DejaVuSans-33"/>
       <use xlink:href="#DejaVuSans-30" x="63.623047"/>
       <use xlink:href="#DejaVuSans-30" x="127.246094"/>
      </g>
     </g>
    </g>
   </g>
   <g id="line2d_29">
    <path d="M 294.40107 492.48 
L 295.065648 492.48 
L 295.397937 491.187692 
L 296.394805 491.187692 
L 296.727094 489.895385 
L 297.723962 489.895385 
L 298.056251 486.018462 
L 299.053119 486.018462 
L 299.385408 482.141538 
L 300.382276 482.141538 
L 300.714565 478.264615 
L 301.711432 478.264615 
L 302.043722 471.803077 
L 303.040589 471.803077 
L 303.372879 469.218462 
L 304.369746 469.218462 
L 304.702035 465.341538 
L 305.698903 465.341538 
L 306.031192 458.88 
L 307.02806 458.88 
L 307.360349 457.587692 
L 309.686374 457.587692 
L 310.018663 455.003077 
L 311.015531 455.003077 
L 311.34782 448.541538 
L 312.344688 448.541538 
L 312.676977 444.664615 
L 313.673844 444.664615 
L 314.006134 440.787692 
L 315.003001 440.787692 
L 315.335291 439.495385 
L 316.332158 439.495385 
L 316.664447 435.618462 
L 317.661315 435.618462 
L 317.993604 431.741538 
L 318.990472 431.741538 
L 319.322761 429.156923 
L 320.319629 429.156923 
L 320.651918 427.864615 
L 321.648786 427.864615 
L 321.981075 423.987692 
L 322.977943 423.987692 
L 323.310232 422.695385 
L 325.636256 422.695385 
L 325.968546 420.110769 
L 326.965413 420.110769 
L 327.297703 418.818462 
L 328.29457 418.818462 
L 328.626859 416.233846 
L 329.623727 416.233846 
L 329.956016 414.941538 
L 330.952884 414.941538 
L 331.285173 412.356923 
L 333.611198 412.356923 
L 333.943487 411.064615 
L 334.940355 411.064615 
L 335.272644 409.772308 
L 337.598668 409.772308 
L 337.930958 407.187692 
L 338.927825 407.187692 
L 339.260115 403.310769 
L 340.256982 403.310769 
L 340.589271 400.726154 
L 341.586139 400.726154 
L 341.918428 396.849231 
L 342.915296 396.849231 
L 343.247585 395.556923 
L 344.244453 395.556923 
L 344.576742 391.68 
L 345.57361 391.68 
L 345.905899 389.095385 
L 346.902767 389.095385 
L 347.235056 386.510769 
L 348.231924 386.510769 
L 348.564213 382.633846 
L 349.56108 382.633846 
L 349.89337 378.756923 
L 350.890237 378.756923 
L 351.222527 373.587692 
L 352.219394 373.587692 
L 352.551683 367.126154 
L 353.548551 367.126154 
L 353.88084 364.541538 
L 354.877708 364.541538 
L 355.209997 360.664615 
L 356.206865 360.664615 
L 356.539154 356.787692 
L 357.536022 356.787692 
L 357.868311 350.326154 
L 358.865179 350.326154 
L 359.197468 346.449231 
L 360.194336 346.449231 
L 360.526625 342.572308 
L 361.523492 342.572308 
L 361.855782 338.695385 
L 362.852649 338.695385 
L 363.184939 333.526154 
L 364.181806 333.526154 
L 364.514095 329.649231 
L 365.510963 329.649231 
L 365.843252 327.064615 
L 366.84012 327.064615 
L 367.172409 325.772308 
L 370.827591 325.772308 
L 371.15988 324.48 
L 372.156748 324.48 
L 372.489037 321.895385 
L 373.485905 321.895385 
L 373.818194 319.310769 
L 374.815061 319.310769 
L 375.147351 316.726154 
L 376.144218 316.726154 
L 376.476508 314.141538 
L 377.473375 314.141538 
L 377.805664 312.849231 
L 378.802532 312.849231 
L 379.134821 308.972308 
L 380.131689 308.972308 
L 380.463978 306.387692 
L 381.460846 306.387692 
L 381.793135 302.510769 
L 382.790003 302.510769 
L 383.122292 298.633846 
L 384.11916 298.633846 
L 384.451449 296.049231 
L 385.448317 296.049231 
L 385.780606 294.756923 
L 386.777473 294.756923 
L 387.109763 292.172308 
L 388.10663 292.172308 
L 388.43892 289.587692 
L 389.435787 289.587692 
L 389.768076 285.710769 
L 390.764944 285.710769 
L 391.097233 280.541538 
L 392.094101 280.541538 
L 392.42639 276.664615 
L 393.423258 276.664615 
L 393.755547 274.08 
L 394.752415 274.08 
L 395.084704 270.203077 
L 396.081572 270.203077 
L 396.413861 266.326154 
L 397.410729 266.326154 
L 397.743018 258.572308 
L 398.739885 258.572308 
L 399.072175 254.695385 
L 400.069042 254.695385 
L 400.401332 249.526154 
L 401.398199 249.526154 
L 401.730488 245.649231 
L 402.727356 245.649231 
L 403.059645 240.48 
L 404.056513 240.48 
L 404.388802 237.895385 
L 405.38567 237.895385 
L 405.717959 235.310769 
L 408.043984 235.310769 
L 408.376273 232.726154 
L 409.373141 232.726154 
L 409.70543 231.433846 
L 410.702297 231.433846 
L 411.034587 226.264615 
L 412.031454 226.264615 
L 412.363744 221.095385 
L 413.360611 221.095385 
L 413.6929 218.510769 
L 414.689768 218.510769 
L 415.022057 210.756923 
L 416.018925 210.756923 
L 416.351214 206.88 
L 417.348082 206.88 
L 417.680371 200.418462 
L 420.006396 200.418462 
L 420.338685 197.833846 
L 421.335553 197.833846 
L 421.667842 195.249231 
L 422.664709 195.249231 
L 422.996999 192.664615 
L 423.993866 192.664615 
L 424.326156 190.08 
L 425.323023 190.08 
L 425.655312 187.495385 
L 426.65218 187.495385 
L 426.984469 182.326154 
L 427.981337 182.326154 
L 428.313626 179.741538 
L 429.310494 179.741538 
L 429.642783 175.864615 
L 430.639651 175.864615 
L 430.97194 173.28 
L 431.968808 173.28 
L 432.301097 169.403077 
L 433.297965 169.403077 
L 433.630254 165.526154 
L 434.627121 165.526154 
L 434.959411 161.649231 
L 435.956278 161.649231 
L 436.288568 156.48 
L 437.285435 156.48 
L 437.617724 152.603077 
L 438.614592 152.603077 
L 438.946881 151.310769 
L 439.943749 151.310769 
L 440.276038 147.433846 
L 441.272906 147.433846 
L 441.605195 144.849231 
L 442.602063 144.849231 
L 442.934352 139.68 
L 443.59893 139.68 
L 443.59893 139.68 
" clip-path="url(#paebdb93b41)" style="fill: none; stroke: #0000ff; stroke-width: 1.5; stroke-linecap: square"/>
   </g>
   <g id="line2d_30">
    <path d="M 294.40107 492.48 
L 295.065648 492.48 
L 295.397937 491.187692 
L 296.394805 491.187692 
L 296.727094 483.433846 
L 297.723962 483.433846 
L 298.056251 479.556923 
L 299.053119 479.556923 
L 299.385408 474.387692 
L 300.382276 474.387692 
L 300.714565 469.218462 
L 301.711432 469.218462 
L 302.043722 464.049231 
L 303.040589 464.049231 
L 303.372879 456.295385 
L 304.369746 456.295385 
L 304.702035 453.710769 
L 305.698903 453.710769 
L 306.031192 449.833846 
L 307.02806 449.833846 
L 307.360349 444.664615 
L 308.357217 444.664615 
L 308.689506 438.203077 
L 309.686374 438.203077 
L 310.018663 431.741538 
L 311.015531 431.741538 
L 311.34782 427.864615 
L 312.344688 427.864615 
L 312.676977 423.987692 
L 313.673844 423.987692 
L 314.006134 421.403077 
L 315.003001 421.403077 
L 315.335291 416.233846 
L 316.332158 416.233846 
L 316.664447 411.064615 
L 317.661315 411.064615 
L 317.993604 407.187692 
L 318.990472 407.187692 
L 319.322761 402.018462 
L 320.319629 402.018462 
L 320.651918 398.141538 
L 321.648786 398.141538 
L 321.981075 396.849231 
L 322.977943 396.849231 
L 323.310232 394.264615 
L 324.3071 394.264615 
L 324.639389 391.68 
L 325.636256 391.68 
L 325.968546 386.510769 
L 326.965413 386.510769 
L 327.297703 385.218462 
L 330.952884 385.218462 
L 331.285173 382.633846 
L 334.940355 382.633846 
L 335.272644 380.049231 
L 336.269512 380.049231 
L 336.601801 377.464615 
L 337.598668 377.464615 
L 337.930958 376.172308 
L 338.927825 376.172308 
L 339.260115 374.88 
L 340.256982 374.88 
L 340.589271 368.418462 
L 341.586139 368.418462 
L 341.918428 361.956923 
L 342.915296 361.956923 
L 343.247585 359.372308 
L 344.244453 359.372308 
L 344.576742 355.495385 
L 345.57361 355.495385 
L 345.905899 347.741538 
L 346.902767 347.741538 
L 347.235056 342.572308 
L 348.231924 342.572308 
L 348.564213 339.987692 
L 349.56108 339.987692 
L 349.89337 334.818462 
L 350.890237 334.818462 
L 351.222527 333.526154 
L 352.219394 333.526154 
L 352.551683 330.941538 
L 353.548551 330.941538 
L 353.88084 327.064615 
L 354.877708 327.064615 
L 355.209997 323.187692 
L 356.206865 323.187692 
L 356.539154 320.603077 
L 357.536022 320.603077 
L 357.868311 319.310769 
L 358.865179 319.310769 
L 359.197468 315.433846 
L 360.194336 315.433846 
L 360.526625 311.556923 
L 361.523492 311.556923 
L 361.855782 310.264615 
L 362.852649 310.264615 
L 363.184939 308.972308 
L 364.181806 308.972308 
L 364.514095 306.387692 
L 365.510963 306.387692 
L 365.843252 302.510769 
L 366.84012 302.510769 
L 367.172409 298.633846 
L 368.169277 298.633846 
L 368.501566 296.049231 
L 369.498434 296.049231 
L 369.830723 294.756923 
L 370.827591 294.756923 
L 371.15988 293.464615 
L 373.485905 293.464615 
L 373.818194 292.172308 
L 376.144218 292.172308 
L 376.476508 290.88 
L 377.473375 290.88 
L 377.805664 287.003077 
L 378.802532 287.003077 
L 379.134821 283.126154 
L 380.131689 283.126154 
L 380.463978 276.664615 
L 381.460846 276.664615 
L 381.793135 270.203077 
L 382.790003 270.203077 
L 383.122292 266.326154 
L 384.11916 266.326154 
L 384.451449 261.156923 
L 385.448317 261.156923 
L 385.780606 254.695385 
L 386.777473 254.695385 
L 387.109763 252.110769 
L 388.10663 252.110769 
L 388.43892 246.941538 
L 389.435787 246.941538 
L 389.768076 244.356923 
L 390.764944 244.356923 
L 391.097233 240.48 
L 392.094101 240.48 
L 392.42639 237.895385 
L 393.423258 237.895385 
L 393.755547 234.018462 
L 394.752415 234.018462 
L 395.084704 232.726154 
L 396.081572 232.726154 
L 396.413861 231.433846 
L 397.410729 231.433846 
L 397.743018 230.141538 
L 398.739885 230.141538 
L 399.072175 227.556923 
L 400.069042 227.556923 
L 400.401332 226.264615 
L 401.398199 226.264615 
L 401.730488 223.68 
L 404.056513 223.68 
L 404.388802 222.387692 
L 405.38567 222.387692 
L 405.717959 221.095385 
L 406.714827 221.095385 
L 407.047116 218.510769 
L 408.043984 218.510769 
L 408.376273 213.341538 
L 409.373141 213.341538 
L 409.70543 205.587692 
L 410.702297 205.587692 
L 411.034587 196.541538 
L 412.031454 196.541538 
L 412.363744 191.372308 
L 413.360611 191.372308 
L 413.6929 183.618462 
L 414.689768 183.618462 
L 415.022057 181.033846 
L 416.018925 181.033846 
L 416.351214 174.572308 
L 417.348082 174.572308 
L 417.680371 173.28 
L 418.677239 173.28 
L 419.009528 168.110769 
L 420.006396 168.110769 
L 420.338685 161.649231 
L 421.335553 161.649231 
L 421.667842 152.603077 
L 422.664709 152.603077 
L 422.996999 143.556923 
L 423.993866 143.556923 
L 424.326156 138.387692 
L 425.323023 138.387692 
L 425.655312 134.510769 
L 426.65218 134.510769 
L 426.984469 129.341538 
L 427.981337 129.341538 
L 428.313626 128.049231 
L 429.310494 128.049231 
L 429.642783 122.88 
L 430.639651 122.88 
L 430.97194 117.710769 
L 431.968808 117.710769 
L 432.301097 113.833846 
L 433.297965 113.833846 
L 433.630254 111.249231 
L 434.627121 111.249231 
L 434.959411 106.08 
L 435.956278 106.08 
L 436.288568 103.495385 
L 437.285435 103.495385 
L 437.617724 100.910769 
L 438.614592 100.910769 
L 438.946881 98.326154 
L 439.943749 98.326154 
L 440.276038 94.449231 
L 442.602063 94.449231 
L 442.934352 89.28 
L 443.59893 89.28 
L 443.59893 89.28 
" clip-path="url(#paebdb93b41)" style="fill: none; stroke: #ff0000; stroke-width: 1.5; stroke-linecap: square"/>
   </g>
   <g id="line2d_31">
    <path d="M 294.40107 492.48 
L 295.065648 492.48 
L 295.397937 489.895385 
L 296.394805 489.895385 
L 296.727094 488.603077 
L 297.723962 488.603077 
L 298.056251 483.433846 
L 299.053119 483.433846 
L 299.385408 479.556923 
L 300.382276 479.556923 
L 300.714565 475.68 
L 301.711432 475.68 
L 302.043722 474.387692 
L 303.040589 474.387692 
L 303.372879 471.803077 
L 304.369746 471.803077 
L 304.702035 465.341538 
L 305.698903 465.341538 
L 306.031192 462.756923 
L 307.02806 462.756923 
L 307.360349 457.587692 
L 308.357217 457.587692 
L 308.689506 452.418462 
L 309.686374 452.418462 
L 310.018663 449.833846 
L 311.015531 449.833846 
L 311.34782 448.541538 
L 312.344688 448.541538 
L 312.676977 444.664615 
L 313.673844 444.664615 
L 314.006134 439.495385 
L 315.003001 439.495385 
L 315.335291 434.326154 
L 316.332158 434.326154 
L 316.664447 433.033846 
L 317.661315 433.033846 
L 317.993604 430.449231 
L 318.990472 430.449231 
L 319.322761 427.864615 
L 320.319629 427.864615 
L 320.651918 423.987692 
L 321.648786 423.987692 
L 321.981075 420.110769 
L 322.977943 420.110769 
L 323.310232 416.233846 
L 324.3071 416.233846 
L 324.639389 411.064615 
L 326.965413 411.064615 
L 327.297703 407.187692 
L 328.29457 407.187692 
L 328.626859 404.603077 
L 329.623727 404.603077 
L 329.956016 400.726154 
L 332.282041 400.726154 
L 332.61433 396.849231 
L 333.611198 396.849231 
L 333.943487 394.264615 
L 336.269512 394.264615 
L 336.601801 392.972308 
L 337.598668 392.972308 
L 337.930958 389.095385 
L 338.927825 389.095385 
L 339.260115 383.926154 
L 340.256982 383.926154 
L 340.589271 380.049231 
L 341.586139 380.049231 
L 341.918428 377.464615 
L 342.915296 377.464615 
L 343.247585 369.710769 
L 344.244453 369.710769 
L 344.576742 365.833846 
L 345.57361 365.833846 
L 345.905899 364.541538 
L 346.902767 364.541538 
L 347.235056 360.664615 
L 348.231924 360.664615 
L 348.564213 355.495385 
L 349.56108 355.495385 
L 349.89337 352.910769 
L 350.890237 352.910769 
L 351.222527 349.033846 
L 352.219394 349.033846 
L 352.551683 347.741538 
L 353.548551 347.741538 
L 353.88084 343.864615 
L 354.877708 343.864615 
L 355.209997 341.28 
L 356.206865 341.28 
L 356.539154 337.403077 
L 357.536022 337.403077 
L 357.868311 336.110769 
L 358.865179 336.110769 
L 359.197468 334.818462 
L 360.194336 334.818462 
L 360.526625 333.526154 
L 361.523492 333.526154 
L 361.855782 330.941538 
L 362.852649 330.941538 
L 363.184939 329.649231 
L 364.181806 329.649231 
L 364.514095 328.356923 
L 366.84012 328.356923 
L 367.172409 327.064615 
L 368.169277 327.064615 
L 368.501566 323.187692 
L 369.498434 323.187692 
L 369.830723 319.310769 
L 370.827591 319.310769 
L 371.15988 316.726154 
L 372.156748 316.726154 
L 372.489037 315.433846 
L 376.144218 315.433846 
L 376.476508 311.556923 
L 377.473375 311.556923 
L 377.805664 303.803077 
L 378.802532 303.803077 
L 379.134821 299.926154 
L 380.131689 299.926154 
L 380.463978 297.341538 
L 381.460846 297.341538 
L 381.793135 296.049231 
L 382.790003 296.049231 
L 383.122292 292.172308 
L 384.11916 292.172308 
L 384.451449 289.587692 
L 385.448317 289.587692 
L 385.780606 287.003077 
L 386.777473 287.003077 
L 387.109763 281.833846 
L 388.10663 281.833846 
L 388.43892 279.249231 
L 389.435787 279.249231 
L 389.768076 275.372308 
L 390.764944 275.372308 
L 391.097233 274.08 
L 392.094101 274.08 
L 392.42639 270.203077 
L 393.423258 270.203077 
L 393.755547 266.326154 
L 394.752415 266.326154 
L 395.084704 262.449231 
L 396.081572 262.449231 
L 396.413861 258.572308 
L 398.739885 258.572308 
L 399.072175 255.987692 
L 400.069042 255.987692 
L 400.401332 253.403077 
L 401.398199 253.403077 
L 401.730488 252.110769 
L 402.727356 252.110769 
L 403.059645 249.526154 
L 404.056513 249.526154 
L 404.388802 245.649231 
L 405.38567 245.649231 
L 405.717959 243.064615 
L 406.714827 243.064615 
L 407.047116 239.187692 
L 408.043984 239.187692 
L 408.376273 235.310769 
L 409.373141 235.310769 
L 409.70543 226.264615 
L 410.702297 226.264615 
L 411.034587 224.972308 
L 412.031454 224.972308 
L 412.363744 218.510769 
L 413.360611 218.510769 
L 413.6929 213.341538 
L 414.689768 213.341538 
L 415.022057 208.172308 
L 416.018925 208.172308 
L 416.351214 204.295385 
L 417.348082 204.295385 
L 417.680371 197.833846 
L 418.677239 197.833846 
L 419.009528 188.787692 
L 420.006396 188.787692 
L 420.338685 184.910769 
L 421.335553 184.910769 
L 421.667842 183.618462 
L 422.664709 183.618462 
L 422.996999 182.326154 
L 423.993866 182.326154 
L 424.326156 178.449231 
L 425.323023 178.449231 
L 425.655312 173.28 
L 426.65218 173.28 
L 426.984469 171.987692 
L 427.981337 171.987692 
L 428.313626 165.526154 
L 429.310494 165.526154 
L 429.642783 164.233846 
L 430.639651 164.233846 
L 430.97194 161.649231 
L 431.968808 161.649231 
L 432.301097 159.064615 
L 433.297965 159.064615 
L 433.630254 155.187692 
L 435.956278 155.187692 
L 436.288568 153.895385 
L 437.285435 153.895385 
L 437.617724 152.603077 
L 438.614592 152.603077 
L 438.946881 148.726154 
L 441.272906 148.726154 
L 441.605195 144.849231 
L 442.602063 144.849231 
L 442.934352 138.387692 
L 443.59893 138.387692 
L 443.59893 138.387692 
" clip-path="url(#paebdb93b41)" style="fill: none; stroke: #008000; stroke-width: 1.5; stroke-linecap: square"/>
   </g>
   <g id="patch_9">
    <path d="M 286.941176 512.64 
L 286.941176 69.12 
" style="fill: none; stroke: #000000; stroke-width: 0.8; stroke-linejoin: miter; stroke-linecap: square"/>
   </g>
   <g id="patch_10">
    <path d="M 451.058824 512.64 
L 451.058824 69.12 
" style="fill: none; stroke: #000000; stroke-width: 0.8; stroke-linejoin: miter; stroke-linecap: square"/>
   </g>
   <g id="patch_11">
    <path d="M 286.941176 512.64 
L 451.058824 512.64 
" style="fill: none; stroke: #000000; stroke-width: 0.8; stroke-linejoin: miter; stroke-linecap: square"/>
   </g>
   <g id="patch_12">
    <path d="M 286.941176 69.12 
L 451.058824 69.12 
" style="fill: none; stroke: #000000; stroke-width: 0.8; stroke-linejoin: miter; stroke-linecap: square"/>
   </g>
   <g id="legend_2">
    <g id="patch_13">
     <path d="M 293.941176 121.154375 
L 393.863051 121.154375 
Q 395.863051 121.154375 395.863051 119.154375 
L 395.863051 76.12 
Q 395.863051 74.12 393.863051 74.12 
L 293.941176 74.12 
Q 291.941176 74.12 291.941176 76.12 
L 291.941176 119.154375 
Q 291.941176 121.154375 293.941176 121.154375 
z
" style="fill: #ffffff; opacity: 0.8; stroke: #cccccc; stroke-linejoin: miter"/>
    </g>
    <g id="line2d_32">
     <path d="M 295.941176 82.218438 
L 305.941176 82.218438 
L 315.941176 82.218438 
" style="fill: none; stroke: #0000ff; stroke-width: 1.5; stroke-linecap: square"/>
    </g>
    <g id="text_26">
     <!-- O1 requested -->
     <g transform="translate(323.941176 85.718438) scale(0.1 -0.1)">
      <defs>
       <path id="DejaVuSans-72" d="M 2631 2963 
Q 2534 3019 2420 3045 
Q 2306 3072 2169 3072 
Q 1681 3072 1420 2755 
Q 1159 2438 1159 1844 
L 1159 0 
L 581 0 
L 581 3500 
L 1159 3500 
L 1159 2956 
Q 1341 3275 1631 3429 
Q 1922 3584 2338 3584 
Q 2397 3584 2469 3576 
Q 2541 3569 2628 3553 
L 2631 2963 
z
" transform="scale(0.015625)"/>
       <path id="DejaVuSans-65" d="M 3597 1894 
L 3597 1613 
L 953 1613 
Q 991 1019 1311 708 
Q 1631 397 2203 397 
Q 2534 397 2845 478 
Q 3156 559 3463 722 
L 3463 178 
Q 3153 47 2828 -22 
Q 2503 -91 2169 -91 
Q 1331 -91 842 396 
Q 353 884 353 1716 
Q 353 2575 817 3079 
Q 1281 3584 2069 3584 
Q 2775 3584 3186 3129 
Q 3597 2675 3597 1894 
z
M 3022 2063 
Q 3016 2534 2758 2815 
Q 2500 3097 2075 3097 
Q 1594 3097 1305 2825 
Q 1016 2553 972 2059 
L 3022 2063 
z
" transform="scale(0.015625)"/>
       <path id="DejaVuSans-71" d="M 947 1747 
Q 947 1113 1208 752 
Q 1469 391 1925 391 
Q 2381 391 2643 752 
Q 2906 1113 2906 1747 
Q 2906 2381 2643 2742 
Q 2381 3103 1925 3103 
Q 1469 3103 1208 2742 
Q 947 2381 947 1747 
z
M 2906 525 
Q 2725 213 2448 61 
Q 2172 -91 1784 -91 
Q 1150 -91 751 415 
Q 353 922 353 1747 
Q 353 2572 751 3078 
Q 1150 3584 1784 3584 
Q 2172 3584 2448 3432 
Q 2725 3281 2906 2969 
L 2906 3500 
L 3481 3500 
L 3481 -1331 
L 2906 -1331 
L 2906 525 
z
" transform="scale(0.015625)"/>
       <path id="DejaVuSans-73" d="M 2834 3397 
L 2834 2853 
Q 2591 2978 2328 3040 
Q 2066 3103 1784 3103 
Q 1356 3103 1142 2972 
Q 928 2841 928 2578 
Q 928 2378 1081 2264 
Q 1234 2150 1697 2047 
L 1894 2003 
Q 2506 1872 2764 1633 
Q 3022 1394 3022 966 
Q 3022 478 2636 193 
Q 2250 -91 1575 -91 
Q 1294 -91 989 -36 
Q 684 19 347 128 
L 347 722 
Q 666 556 975 473 
Q 1284 391 1588 391 
Q 1994 391 2212 530 
Q 2431 669 2431 922 
Q 2431 1156 2273 1281 
Q 2116 1406 1581 1522 
L 1381 1569 
Q 847 1681 609 1914 
Q 372 2147 372 2553 
Q 372 3047 722 3315 
Q 1072 3584 1716 3584 
Q 2034 3584 2315 3537 
Q 2597 3491 2834 3397 
z
" transform="scale(0.015625)"/>
       <path id="DejaVuSans-64" d="M 2906 2969 
L 2906 4863 
L 3481 4863 
L 3481 0 
L 2906 0 
L 2906 525 
Q 2725 213 2448 61 
Q 2172 -91 1784 -91 
Q 1150 -91 751 415 
Q 353 922 353 1747 
Q 353 2572 751 3078 
Q 1150 3584 1784 3584 
Q 2172 3584 2448 3432 
Q 2725 3281 2906 2969 
z
M 947 1747 
Q 947 1113 1208 752 
Q 1469 391 1925 391 
Q 2381 391 2643 752 
Q 2906 1113 2906 1747 
Q 2906 2381 2643 2742 
Q 2381 3103 1925 3103 
Q 1469 3103 1208 2742 
Q 947 2381 947 1747 
z
" transform="scale(0.015625)"/>
      </defs>
      <use xlink:href="#DejaVuSans-4f"/>
      <use xlink:href="#DejaVuSans-31" x="78.710938"/>
      <use xlink:href="#DejaVuSans-20" x="142.333984"/>
      <use xlink:href="#DejaVuSans-72" x="174.121094"/>
      <use xlink:href="#DejaVuSans-65" x="212.984375"/>
      <use xlink:href="#DejaVuSans-71" x="274.507812"/>
      <use xlink:href="#DejaVuSans-75" x="337.984375"/>
      <use xlink:href="#DejaVuSans-65" x="401.363281"/>
      <use xlink:href="#DejaVuSans-73" x="462.886719"/>
      <use xlink:href="#DejaVuSans-74" x="514.986328"/>
      <use xlink:href="#DejaVuSans-65" x="554.195312"/>
      <use xlink:href="#DejaVuSans-64" x="615.71875"/>
     </g>
    </g>
    <g id="line2d_33">
     <path d="M 295.941176 96.896563 
L 305.941176 96.896563 
L 315.941176 96.896563 
" style="fill: none; stroke: #ff0000; stroke-width: 1.5; stroke-linecap: square"/>
    </g>
    <g id="text_27">
     <!-- O2 requested -->
     <g transform="translate(323.941176 100.396563) scale(0.1 -0.1)">
      <use xlink:href="#DejaVuSans-4f"/>
      <use xlink:href="#DejaVuSans-32" x="78.710938"/>
      <use xlink:href="#DejaVuSans-20" x="142.333984"/>
      <use xlink:href="#DejaVuSans-72" x="174.121094"/>
      <use xlink:href="#DejaVuSans-65" x="212.984375"/>
      <use xlink:href="#DejaVuSans-71" x="274.507812"/>
      <use xlink:href="#DejaVuSans-75" x="337.984375"/>
      <use xlink:href="#DejaVuSans-65" x="401.363281"/>
      <use xlink:href="#DejaVuSans-73" x="462.886719"/>
      <use xlink:href="#DejaVuSans-74" x="514.986328"/>
      <use xlink:href="#DejaVuSans-65" x="554.195312"/>
      <use xlink:href="#DejaVuSans-64" x="615.71875"/>
     </g>
    </g>
    <g id="line2d_34">
     <path d="M 295.941176 111.574688 
L 305.941176 111.574688 
L 315.941176 111.574688 
" style="fill: none; stroke: #008000; stroke-width: 1.5; stroke-linecap: square"/>
    </g>
    <g id="text_28">
     <!-- O3 requested -->
     <g transform="translate(323.941176 115.074688) scale(0.1 -0.1)">
      <use xlink:href="#DejaVuSans-4f"/>
      <use xlink:href="#DejaVuSans-33" x="78.710938"/>
      <use xlink:href="#DejaVuSans-20" x="142.333984"/>
      <use xlink:href="#DejaVuSans-72" x="174.121094"/>
      <use xlink:href="#DejaVuSans-65" x="212.984375"/>
      <use xlink:href="#DejaVuSans-71" x="274.507812"/>
      <use xlink:href="#DejaVuSans-75" x="337.984375"/>
      <use xlink:href="#DejaVuSans-65" x="401.363281"/>
      <use xlink:href="#DejaVuSans-73" x="462.886719"/>
      <use xlink:href="#DejaVuSans-74" x="514.986328"/>
      <use xlink:href="#DejaVuSans-65" x="554.195312"/>
      <use xlink:href="#DejaVuSans-64" x="615.71875"/>
     </g>
    </g>
   </g>
  </g>
  <g id="axes_3">
   <g id="patch_14">
    <path d="M 483.882353 512.64 
L 648 512.64 
L 648 69.12 
L 483.882353 69.12 
z
" style="fill: #ffffff"/>
   </g>
   <g id="matplotlib.axis_5">
    <g id="xtick_11">
     <g id="line2d_35">
      <g>
       <use xlink:href="#m1d6eedcc3a" x="491.009957" y="512.64" style="stroke: #000000; stroke-width: 0.8"/>
      </g>
     </g>
     <g id="text_29">
      <!-- 0 -->
      <g transform="translate(487.828707 527.238438) scale(0.1 -0.1)">
       <use xlink:href="#DejaVuSans-30"/>
      </g>
     </g>
    </g>
    <g id="xtick_12">
     <g id="line2d_36">
      <g>
       <use xlink:href="#m1d6eedcc3a" x="524.238879" y="512.64" style="stroke: #000000; stroke-width: 0.8"/>
      </g>
     </g>
     <g id="text_30">
      <!-- 100 -->
      <g transform="translate(514.695129 527.238438) scale(0.1 -0.1)">
       <use xlink:href="#DejaVuSans-31"/>
       <use xlink:href="#DejaVuSans-30" x="63.623047"/>
       <use xlink:href="#DejaVuSans-30" x="127.246094"/>
      </g>
     </g>
    </g>
    <g id="xtick_13">
     <g id="line2d_37">
      <g>
       <use xlink:href="#m1d6eedcc3a" x="557.467801" y="512.64" style="stroke: #000000; stroke-width: 0.8"/>
      </g>
     </g>
     <g id="text_31">
      <!-- 200 -->
      <g transform="translate(547.924051 527.238438) scale(0.1 -0.1)">
       <use xlink:href="#DejaVuSans-32"/>
       <use xlink:href="#DejaVuSans-30" x="63.623047"/>
       <use xlink:href="#DejaVuSans-30" x="127.246094"/>
      </g>
     </g>
    </g>
    <g id="xtick_14">
     <g id="line2d_38">
      <g>
       <use xlink:href="#m1d6eedcc3a" x="590.696724" y="512.64" style="stroke: #000000; stroke-width: 0.8"/>
      </g>
     </g>
     <g id="text_32">
      <!-- 300 -->
      <g transform="translate(581.152974 527.238438) scale(0.1 -0.1)">
       <use xlink:href="#DejaVuSans-33"/>
       <use xlink:href="#DejaVuSans-30" x="63.623047"/>
       <use xlink:href="#DejaVuSans-30" x="127.246094"/>
      </g>
     </g>
    </g>
    <g id="xtick_15">
     <g id="line2d_39">
      <g>
       <use xlink:href="#m1d6eedcc3a" x="623.925646" y="512.64" style="stroke: #000000; stroke-width: 0.8"/>
      </g>
     </g>
     <g id="text_33">
      <!-- 400 -->
      <g transform="translate(614.381896 527.238438) scale(0.1 -0.1)">
       <use xlink:href="#DejaVuSans-34"/>
       <use xlink:href="#DejaVuSans-30" x="63.623047"/>
       <use xlink:href="#DejaVuSans-30" x="127.246094"/>
      </g>
     </g>
    </g>
   </g>
   <g id="matplotlib.axis_6">
    <g id="ytick_13">
     <g id="line2d_40">
      <g>
       <use xlink:href="#m2d3a94f42e" x="483.882353" y="492.48" style="stroke: #000000; stroke-width: 0.8"/>
      </g>
     </g>
     <g id="text_34">
      <!-- 0 -->
      <g transform="translate(470.519853 496.279219) scale(0.1 -0.1)">
       <use xlink:href="#DejaVuSans-30"/>
      </g>
     </g>
    </g>
    <g id="ytick_14">
     <g id="line2d_41">
      <g>
       <use xlink:href="#m2d3a94f42e" x="483.882353" y="404.827826" style="stroke: #000000; stroke-width: 0.8"/>
      </g>
     </g>
     <g id="text_35">
      <!-- 20 -->
      <g transform="translate(464.157353 408.627045) scale(0.1 -0.1)">
       <use xlink:href="#DejaVuSans-32"/>
       <use xlink:href="#DejaVuSans-30" x="63.623047"/>
      </g>
     </g>
    </g>
    <g id="ytick_15">
     <g id="line2d_42">
      <g>
       <use xlink:href="#m2d3a94f42e" x="483.882353" y="317.175652" style="stroke: #000000; stroke-width: 0.8"/>
      </g>
     </g>
     <g id="text_36">
      <!-- 40 -->
      <g transform="translate(464.157353 320.974871) scale(0.1 -0.1)">
       <use xlink:href="#DejaVuSans-34"/>
       <use xlink:href="#DejaVuSans-30" x="63.623047"/>
      </g>
     </g>
    </g>
    <g id="ytick_16">
     <g id="line2d_43">
      <g>
       <use xlink:href="#m2d3a94f42e" x="483.882353" y="229.523478" style="stroke: #000000; stroke-width: 0.8"/>
      </g>
     </g>
     <g id="text_37">
      <!-- 60 -->
      <g transform="translate(464.157353 233.322697) scale(0.1 -0.1)">
       <defs>
        <path id="DejaVuSans-36" d="M 2113 2584 
Q 1688 2584 1439 2293 
Q 1191 2003 1191 1497 
Q 1191 994 1439 701 
Q 1688 409 2113 409 
Q 2538 409 2786 701 
Q 3034 994 3034 1497 
Q 3034 2003 2786 2293 
Q 2538 2584 2113 2584 
z
M 3366 4563 
L 3366 3988 
Q 3128 4100 2886 4159 
Q 2644 4219 2406 4219 
Q 1781 4219 1451 3797 
Q 1122 3375 1075 2522 
Q 1259 2794 1537 2939 
Q 1816 3084 2150 3084 
Q 2853 3084 3261 2657 
Q 3669 2231 3669 1497 
Q 3669 778 3244 343 
Q 2819 -91 2113 -91 
Q 1303 -91 875 529 
Q 447 1150 447 2328 
Q 447 3434 972 4092 
Q 1497 4750 2381 4750 
Q 2619 4750 2861 4703 
Q 3103 4656 3366 4563 
z
" transform="scale(0.015625)"/>
       </defs>
       <use xlink:href="#DejaVuSans-36"/>
       <use xlink:href="#DejaVuSans-30" x="63.623047"/>
      </g>
     </g>
    </g>
    <g id="ytick_17">
     <g id="line2d_44">
      <g>
       <use xlink:href="#m2d3a94f42e" x="483.882353" y="141.871304" style="stroke: #000000; stroke-width: 0.8"/>
      </g>
     </g>
     <g id="text_38">
      <!-- 80 -->
      <g transform="translate(464.157353 145.670523) scale(0.1 -0.1)">
       <defs>
        <path id="DejaVuSans-38" d="M 2034 2216 
Q 1584 2216 1326 1975 
Q 1069 1734 1069 1313 
Q 1069 891 1326 650 
Q 1584 409 2034 409 
Q 2484 409 2743 651 
Q 3003 894 3003 1313 
Q 3003 1734 2745 1975 
Q 2488 2216 2034 2216 
z
M 1403 2484 
Q 997 2584 770 2862 
Q 544 3141 544 3541 
Q 544 4100 942 4425 
Q 1341 4750 2034 4750 
Q 2731 4750 3128 4425 
Q 3525 4100 3525 3541 
Q 3525 3141 3298 2862 
Q 3072 2584 2669 2484 
Q 3125 2378 3379 2068 
Q 3634 1759 3634 1313 
Q 3634 634 3220 271 
Q 2806 -91 2034 -91 
Q 1263 -91 848 271 
Q 434 634 434 1313 
Q 434 1759 690 2068 
Q 947 2378 1403 2484 
z
M 1172 3481 
Q 1172 3119 1398 2916 
Q 1625 2713 2034 2713 
Q 2441 2713 2670 2916 
Q 2900 3119 2900 3481 
Q 2900 3844 2670 4047 
Q 2441 4250 2034 4250 
Q 1625 4250 1398 4047 
Q 1172 3844 1172 3481 
z
" transform="scale(0.015625)"/>
       </defs>
       <use xlink:href="#DejaVuSans-38"/>
       <use xlink:href="#DejaVuSans-30" x="63.623047"/>
      </g>
     </g>
    </g>
   </g>
   <g id="line2d_45">
    <path d="M 491.342246 492.48 
L 507.956707 492.48 
L 508.288996 488.097391 
L 510.615021 488.097391 
L 510.94731 483.714783 
L 640.540107 483.714783 
L 640.540107 483.714783 
" clip-path="url(#p8fb79734ad)" style="fill: none; stroke: #0000ff; stroke-width: 1.5; stroke-linecap: square"/>
   </g>
   <g id="line2d_46">
    <path d="M 491.342246 492.48 
L 505.298393 492.48 
L 505.630683 488.097391 
L 506.62755 488.097391 
L 506.959839 474.949565 
L 509.285864 474.949565 
L 509.618153 470.566957 
L 511.944178 470.566957 
L 512.276467 453.036522 
L 513.273335 453.036522 
L 513.605624 435.506087 
L 514.602492 435.506087 
L 514.934781 426.74087 
L 515.931648 426.74087 
L 516.263938 409.210435 
L 517.260805 409.210435 
L 517.593095 396.062609 
L 523.90659 396.062609 
L 524.238879 391.68 
L 527.89406 391.68 
L 528.22635 387.297391 
L 531.881531 387.297391 
L 532.21382 378.532174 
L 533.210688 378.532174 
L 533.542977 374.149565 
L 534.539845 374.149565 
L 534.872134 369.766957 
L 537.198159 369.766957 
L 537.530448 352.236522 
L 538.527316 352.236522 
L 538.859605 330.323478 
L 539.856472 330.323478 
L 540.188762 325.94087 
L 541.185629 325.94087 
L 541.517919 312.793043 
L 542.514786 312.793043 
L 542.847075 286.497391 
L 543.843943 286.497391 
L 544.176232 268.966957 
L 558.464669 268.966957 
L 558.796958 264.584348 
L 562.45214 264.584348 
L 562.784429 260.201739 
L 563.781297 260.201739 
L 564.113586 255.81913 
L 565.110453 255.81913 
L 565.442743 251.436522 
L 567.768767 251.436522 
L 568.101056 247.053913 
L 573.085395 247.053913 
L 573.417684 242.671304 
L 574.414552 242.671304 
L 574.746841 229.523478 
L 575.743709 229.523478 
L 576.075998 216.375652 
L 577.072865 216.375652 
L 577.405155 194.462609 
L 578.402022 194.462609 
L 578.734312 172.549565 
L 579.731179 172.549565 
L 580.063468 159.401739 
L 581.060336 159.401739 
L 581.392625 141.871304 
L 582.389493 141.871304 
L 582.721782 119.958261 
L 583.71865 119.958261 
L 584.050939 111.193043 
L 585.047807 111.193043 
L 585.380096 102.427826 
L 589.035277 102.427826 
L 589.367567 98.045217 
L 590.364434 98.045217 
L 590.696724 89.28 
L 640.540107 89.28 
L 640.540107 89.28 
" clip-path="url(#p8fb79734ad)" style="fill: none; stroke: #ff0000; stroke-width: 1.5; stroke-linecap: square"/>
   </g>
   <g id="line2d_47">
    <path d="M 491.342246 492.48 
L 505.298393 492.48 
L 505.630683 479.332174 
L 506.62755 479.332174 
L 506.959839 474.949565 
L 507.956707 474.949565 
L 508.288996 470.566957 
L 510.615021 470.566957 
L 510.94731 466.184348 
L 640.540107 466.184348 
L 640.540107 466.184348 
" clip-path="url(#p8fb79734ad)" style="fill: none; stroke: #008000; stroke-width: 1.5; stroke-linecap: square"/>
   </g>
   <g id="patch_15">
    <path d="M 483.882353 512.64 
L 483.882353 69.12 
" style="fill: none; stroke: #000000; stroke-width: 0.8; stroke-linejoin: miter; stroke-linecap: square"/>
   </g>
   <g id="patch_16">
    <path d="M 648 512.64 
L 648 69.12 
" style="fill: none; stroke: #000000; stroke-width: 0.8; stroke-linejoin: miter; stroke-linecap: square"/>
   </g>
   <g id="patch_17">
    <path d="M 483.882353 512.64 
L 648 512.64 
" style="fill: none; stroke: #000000; stroke-width: 0.8; stroke-linejoin: miter; stroke-linecap: square"/>
   </g>
   <g id="patch_18">
    <path d="M 483.882353 69.12 
L 648 69.12 
" style="fill: none; stroke: #000000; stroke-width: 0.8; stroke-linejoin: miter; stroke-linecap: square"/>
   </g>
   <g id="legend_3">
    <g id="patch_19">
     <path d="M 490.882353 121.154375 
L 580.719853 121.154375 
Q 582.719853 121.154375 582.719853 119.154375 
L 582.719853 76.12 
Q 582.719853 74.12 580.719853 74.12 
L 490.882353 74.12 
Q 488.882353 74.12 488.882353 76.12 
L 488.882353 119.154375 
Q 488.882353 121.154375 490.882353 121.154375 
z
" style="fill: #ffffff; opacity: 0.8; stroke: #cccccc; stroke-linejoin: miter"/>
    </g>
    <g id="line2d_48">
     <path d="M 492.882353 82.218438 
L 502.882353 82.218438 
L 512.882353 82.218438 
" style="fill: none; stroke: #0000ff; stroke-width: 1.5; stroke-linecap: square"/>
    </g>
    <g id="text_39">
     <!-- O1 ensured -->
     <g transform="translate(520.882353 85.718438) scale(0.1 -0.1)">
      <defs>
       <path id="DejaVuSans-6e" d="M 3513 2113 
L 3513 0 
L 2938 0 
L 2938 2094 
Q 2938 2591 2744 2837 
Q 2550 3084 2163 3084 
Q 1697 3084 1428 2787 
Q 1159 2491 1159 1978 
L 1159 0 
L 581 0 
L 581 3500 
L 1159 3500 
L 1159 2956 
Q 1366 3272 1645 3428 
Q 1925 3584 2291 3584 
Q 2894 3584 3203 3211 
Q 3513 2838 3513 2113 
z
" transform="scale(0.015625)"/>
      </defs>
      <use xlink:href="#DejaVuSans-4f"/>
      <use xlink:href="#DejaVuSans-31" x="78.710938"/>
      <use xlink:href="#DejaVuSans-20" x="142.333984"/>
      <use xlink:href="#DejaVuSans-65" x="174.121094"/>
      <use xlink:href="#DejaVuSans-6e" x="235.644531"/>
      <use xlink:href="#DejaVuSans-73" x="299.023438"/>
      <use xlink:href="#DejaVuSans-75" x="351.123047"/>
      <use xlink:href="#DejaVuSans-72" x="414.501953"/>
      <use xlink:href="#DejaVuSans-65" x="453.365234"/>
      <use xlink:href="#DejaVuSans-64" x="514.888672"/>
     </g>
    </g>
    <g id="line2d_49">
     <path d="M 492.882353 96.896563 
L 502.882353 96.896563 
L 512.882353 96.896563 
" style="fill: none; stroke: #ff0000; stroke-width: 1.5; stroke-linecap: square"/>
    </g>
    <g id="text_40">
     <!-- O2 ensured -->
     <g transform="translate(520.882353 100.396563) scale(0.1 -0.1)">
      <use xlink:href="#DejaVuSans-4f"/>
      <use xlink:href="#DejaVuSans-32" x="78.710938"/>
      <use xlink:href="#DejaVuSans-20" x="142.333984"/>
      <use xlink:href="#DejaVuSans-65" x="174.121094"/>
      <use xlink:href="#DejaVuSans-6e" x="235.644531"/>
      <use xlink:href="#DejaVuSans-73" x="299.023438"/>
      <use xlink:href="#DejaVuSans-75" x="351.123047"/>
      <use xlink:href="#DejaVuSans-72" x="414.501953"/>
      <use xlink:href="#DejaVuSans-65" x="453.365234"/>
      <use xlink:href="#DejaVuSans-64" x="514.888672"/>
     </g>
    </g>
    <g id="line2d_50">
     <path d="M 492.882353 111.574688 
L 502.882353 111.574688 
L 512.882353 111.574688 
" style="fill: none; stroke: #008000; stroke-width: 1.5; stroke-linecap: square"/>
    </g>
    <g id="text_41">
     <!-- O3 ensured -->
     <g transform="translate(520.882353 115.074688) scale(0.1 -0.1)">
      <use xlink:href="#DejaVuSans-4f"/>
      <use xlink:href="#DejaVuSans-33" x="78.710938"/>
      <use xlink:href="#DejaVuSans-20" x="142.333984"/>
      <use xlink:href="#DejaVuSans-65" x="174.121094"/>
      <use xlink:href="#DejaVuSans-6e" x="235.644531"/>
      <use xlink:href="#DejaVuSans-73" x="299.023438"/>
      <use xlink:href="#DejaVuSans-75" x="351.123047"/>
      <use xlink:href="#DejaVuSans-72" x="414.501953"/>
      <use xlink:href="#DejaVuSans-65" x="453.365234"/>
      <use xlink:href="#DejaVuSans-64" x="514.888672"/>
     </g>
    </g>
   </g>
  </g>
 </g>
 <defs>
  <clipPath id="pae972a1eb4">
   <rect x="90" y="69.12" width="164.117647" height="443.52"/>
  </clipPath>
  <clipPath id="paebdb93b41">
   <rect x="286.941176" y="69.12" width="164.117647" height="443.52"/>
  </clipPath>
  <clipPath id="p8fb79734ad">
   <rect x="483.882353" y="69.12" width="164.117647" height="443.52"/>
  </clipPath>
 </defs>
</svg>
