<?xml version="1.0" encoding="utf-8" standalone="no"?>
<!DOCTYPE svg PUBLIC "-//W3C//DTD SVG 1.1//EN"
  "http://www.w3.org/Graphics/SVG/1.1/DTD/svg11.dtd">
<svg xmlns:xlink="http://www.w3.org/1999/xlink" width="720pt" height="576pt" viewBox="0 0 720 576" xmlns="http://www.w3.org/2000/svg" version="1.1">
 <metadata>
  <rdf:RDF xmlns:dc="http://purl.org/dc/elements/1.1/" xmlns:cc="http://creativecommons.org/ns#" xmlns:rdf="http://www.w3.org/1999/02/22-rdf-syntax-ns#">
   <cc:Work>
    <dc:type rdf:resource="http://purl.org/dc/dcmitype/StillImage"/>
    <dc:date>2023-05-31T19:22:25.031191</dc:date>
    <dc:format>image/svg+xml</dc:format>
    <dc:creator>
     <cc:Agent>
      <dc:title>Matplotlib v3.7.1, https://matplotlib.org/</dc:title>
     </cc:Agent>
    </dc:creator>
   </cc:Work>
  </rdf:RDF>
 </metadata>
 <defs>
  <style type="text/css">*{stroke-linejoin: round; stroke-linecap: butt}</style>
 </defs>
 <g id="figure_1">
  <g id="patch_1">
   <path d="M 0 576 
L 720 576 
L 720 0 
L 0 0 
z
" style="fill: #ffffff"/>
  </g>
  <g id="axes_1">
   <g id="patch_2">
    <path d="M 90 512.64 
L 254.117647 512.64 
L 254.117647 69.12 
L 90 69.12 
z
" style="fill: #ffffff"/>
   </g>
   <g id="matplotlib.axis_1">
    <g id="xtick_1">
     <g id="line2d_1">
      <defs>
       <path id="mcf6919d862" d="M 0 0 
L 0 3.5 
" style="stroke: #000000; stroke-width: 0.8"/>
      </defs>
      <g>
       <use xlink:href="#mcf6919d862" x="97.14513" y="512.64" style="stroke: #000000; stroke-width: 0.8"/>
      </g>
     </g>
     <g id="text_1">
      <!-- 0 -->
      <g transform="translate(93.96388 527.238438) scale(0.1 -0.1)">
       <defs>
        <path id="DejaVuSans-30" d="M 2034 4250 
Q 1547 4250 1301 3770 
Q 1056 3291 1056 2328 
Q 1056 1369 1301 889 
Q 1547 409 2034 409 
Q 2525 409 2770 889 
Q 3016 1369 3016 2328 
Q 3016 3291 2770 3770 
Q 2525 4250 2034 4250 
z
M 2034 4750 
Q 2819 4750 3233 4129 
Q 3647 3509 3647 2328 
Q 3647 1150 3233 529 
Q 2819 -91 2034 -91 
Q 1250 -91 836 529 
Q 422 1150 422 2328 
Q 422 3509 836 4129 
Q 1250 4750 2034 4750 
z
" transform="scale(0.015625)"/>
       </defs>
       <use xlink:href="#DejaVuSans-30"/>
      </g>
     </g>
    </g>
    <g id="xtick_2">
     <g id="line2d_2">
      <g>
       <use xlink:href="#mcf6919d862" x="160.097814" y="512.64" style="stroke: #000000; stroke-width: 0.8"/>
      </g>
     </g>
     <g id="text_2">
      <!-- 200 -->
      <g transform="translate(150.554064 527.238438) scale(0.1 -0.1)">
       <defs>
        <path id="DejaVuSans-32" d="M 1228 531 
L 3431 531 
L 3431 0 
L 469 0 
L 469 531 
Q 828 903 1448 1529 
Q 2069 2156 2228 2338 
Q 2531 2678 2651 2914 
Q 2772 3150 2772 3378 
Q 2772 3750 2511 3984 
Q 2250 4219 1831 4219 
Q 1534 4219 1204 4116 
Q 875 4013 500 3803 
L 500 4441 
Q 881 4594 1212 4672 
Q 1544 4750 1819 4750 
Q 2544 4750 2975 4387 
Q 3406 4025 3406 3419 
Q 3406 3131 3298 2873 
Q 3191 2616 2906 2266 
Q 2828 2175 2409 1742 
Q 1991 1309 1228 531 
z
" transform="scale(0.015625)"/>
       </defs>
       <use xlink:href="#DejaVuSans-32"/>
       <use xlink:href="#DejaVuSans-30" x="63.623047"/>
       <use xlink:href="#DejaVuSans-30" x="127.246094"/>
      </g>
     </g>
    </g>
    <g id="xtick_3">
     <g id="line2d_3">
      <g>
       <use xlink:href="#mcf6919d862" x="223.050498" y="512.64" style="stroke: #000000; stroke-width: 0.8"/>
      </g>
     </g>
     <g id="text_3">
      <!-- 400 -->
      <g transform="translate(213.506748 527.238438) scale(0.1 -0.1)">
       <defs>
        <path id="DejaVuSans-34" d="M 2419 4116 
L 825 1625 
L 2419 1625 
L 2419 4116 
z
M 2253 4666 
L 3047 4666 
L 3047 1625 
L 3713 1625 
L 3713 1100 
L 3047 1100 
L 3047 0 
L 2419 0 
L 2419 1100 
L 313 1100 
L 313 1709 
L 2253 4666 
z
" transform="scale(0.015625)"/>
       </defs>
       <use xlink:href="#DejaVuSans-34"/>
       <use xlink:href="#DejaVuSans-30" x="63.623047"/>
       <use xlink:href="#DejaVuSans-30" x="127.246094"/>
      </g>
     </g>
    </g>
   </g>
   <g id="matplotlib.axis_2">
    <g id="ytick_1">
     <g id="line2d_4">
      <defs>
       <path id="m0838083d59" d="M 0 0 
L -3.5 0 
" style="stroke: #000000; stroke-width: 0.8"/>
      </defs>
      <g>
       <use xlink:href="#m0838083d59" x="90" y="492.48" style="stroke: #000000; stroke-width: 0.8"/>
      </g>
     </g>
     <g id="text_4">
      <!-- 0.0 -->
      <g transform="translate(67.096875 496.279219) scale(0.1 -0.1)">
       <defs>
        <path id="DejaVuSans-2e" d="M 684 794 
L 1344 794 
L 1344 0 
L 684 0 
L 684 794 
z
" transform="scale(0.015625)"/>
       </defs>
       <use xlink:href="#DejaVuSans-30"/>
       <use xlink:href="#DejaVuSans-2e" x="63.623047"/>
       <use xlink:href="#DejaVuSans-30" x="95.410156"/>
      </g>
     </g>
    </g>
    <g id="ytick_2">
     <g id="line2d_5">
      <g>
       <use xlink:href="#m0838083d59" x="90" y="405.705578" style="stroke: #000000; stroke-width: 0.8"/>
      </g>
     </g>
     <g id="text_5">
      <!-- 0.1 -->
      <g transform="translate(67.096875 409.504796) scale(0.1 -0.1)">
       <defs>
        <path id="DejaVuSans-31" d="M 794 531 
L 1825 531 
L 1825 4091 
L 703 3866 
L 703 4441 
L 1819 4666 
L 2450 4666 
L 2450 531 
L 3481 531 
L 3481 0 
L 794 0 
L 794 531 
z
" transform="scale(0.015625)"/>
       </defs>
       <use xlink:href="#DejaVuSans-30"/>
       <use xlink:href="#DejaVuSans-2e" x="63.623047"/>
       <use xlink:href="#DejaVuSans-31" x="95.410156"/>
      </g>
     </g>
    </g>
    <g id="ytick_3">
     <g id="line2d_6">
      <g>
       <use xlink:href="#m0838083d59" x="90" y="318.931155" style="stroke: #000000; stroke-width: 0.8"/>
      </g>
     </g>
     <g id="text_6">
      <!-- 0.2 -->
      <g transform="translate(67.096875 322.730374) scale(0.1 -0.1)">
       <use xlink:href="#DejaVuSans-30"/>
       <use xlink:href="#DejaVuSans-2e" x="63.623047"/>
       <use xlink:href="#DejaVuSans-32" x="95.410156"/>
      </g>
     </g>
    </g>
    <g id="ytick_4">
     <g id="line2d_7">
      <g>
       <use xlink:href="#m0838083d59" x="90" y="232.156733" style="stroke: #000000; stroke-width: 0.8"/>
      </g>
     </g>
     <g id="text_7">
      <!-- 0.3 -->
      <g transform="translate(67.096875 235.955951) scale(0.1 -0.1)">
       <defs>
        <path id="DejaVuSans-33" d="M 2597 2516 
Q 3050 2419 3304 2112 
Q 3559 1806 3559 1356 
Q 3559 666 3084 287 
Q 2609 -91 1734 -91 
Q 1441 -91 1130 -33 
Q 819 25 488 141 
L 488 750 
Q 750 597 1062 519 
Q 1375 441 1716 441 
Q 2309 441 2620 675 
Q 2931 909 2931 1356 
Q 2931 1769 2642 2001 
Q 2353 2234 1838 2234 
L 1294 2234 
L 1294 2753 
L 1863 2753 
Q 2328 2753 2575 2939 
Q 2822 3125 2822 3475 
Q 2822 3834 2567 4026 
Q 2313 4219 1838 4219 
Q 1578 4219 1281 4162 
Q 984 4106 628 3988 
L 628 4550 
Q 988 4650 1302 4700 
Q 1616 4750 1894 4750 
Q 2613 4750 3031 4423 
Q 3450 4097 3450 3541 
Q 3450 3153 3228 2886 
Q 3006 2619 2597 2516 
z
" transform="scale(0.015625)"/>
       </defs>
       <use xlink:href="#DejaVuSans-30"/>
       <use xlink:href="#DejaVuSans-2e" x="63.623047"/>
       <use xlink:href="#DejaVuSans-33" x="95.410156"/>
      </g>
     </g>
    </g>
    <g id="ytick_5">
     <g id="line2d_8">
      <g>
       <use xlink:href="#m0838083d59" x="90" y="145.38231" style="stroke: #000000; stroke-width: 0.8"/>
      </g>
     </g>
     <g id="text_8">
      <!-- 0.4 -->
      <g transform="translate(67.096875 149.181529) scale(0.1 -0.1)">
       <use xlink:href="#DejaVuSans-30"/>
       <use xlink:href="#DejaVuSans-2e" x="63.623047"/>
       <use xlink:href="#DejaVuSans-34" x="95.410156"/>
      </g>
     </g>
    </g>
   </g>
   <g id="line2d_9">
    <path d="M 97.459893 492.48 
L 113.198064 492.48 
L 113.512827 434.630385 
L 115.716171 434.630385 
L 116.030935 423.060462 
L 116.975225 423.060462 
L 117.289988 423.505459 
L 118.234279 423.505459 
L 118.549042 440.03392 
L 119.493332 440.03392 
L 119.808096 445.611099 
L 120.752386 445.611099 
L 121.06715 450.011037 
L 122.01144 450.011037 
L 122.326203 450.367253 
L 123.270493 450.367253 
L 123.585257 451.302323 
L 124.529547 451.302323 
L 124.844311 451.576232 
L 127.047655 451.576232 
L 127.362418 451.834029 
L 129.565762 451.834029 
L 129.880525 452.306656 
L 132.083869 452.306656 
L 132.398633 452.523809 
L 134.601977 452.523809 
L 134.91674 452.729534 
L 135.86103 452.729534 
L 136.175794 452.924708 
L 138.379138 452.924708 
L 138.693901 453.286494 
L 139.638191 453.286494 
L 139.952955 453.614626 
L 140.897245 453.614626 
L 141.212008 456.828493 
L 142.156299 456.828493 
L 142.471062 459.610901 
L 143.415352 459.610901 
L 143.730116 459.756985 
L 144.674406 459.756985 
L 144.989169 462.087992 
L 145.93346 462.087992 
L 146.248223 464.075934 
L 147.192513 464.075934 
L 147.507277 464.204147 
L 148.451567 464.204147 
L 148.76633 464.445187 
L 149.710621 464.445187 
L 150.340148 464.558617 
L 150.969674 464.558617 
L 151.284438 464.873702 
L 152.228728 464.873702 
L 152.543492 468.031651 
L 154.746835 468.122267 
L 155.061599 468.294285 
L 157.264943 468.375994 
L 157.579706 468.531503 
L 158.523996 468.531503 
L 158.83876 468.677294 
L 159.78305 468.677294 
L 160.097814 470.019449 
L 161.042104 470.019449 
L 161.356867 470.209994 
L 162.301158 470.209994 
L 162.930684 470.328079 
L 163.560211 470.328079 
L 163.874975 472.336746 
L 164.819265 472.336746 
L 165.134028 473.239083 
L 169.85548 473.239083 
L 170.170243 474.000262 
L 173.632641 474.108838 
L 174.262167 474.211701 
L 174.891694 474.211701 
L 175.206458 474.949814 
L 177.409802 474.949814 
L 177.724565 476.195688 
L 178.668855 476.195688 
L 178.983619 476.766629 
L 181.186963 476.766629 
L 181.501726 477.294476 
L 186.223177 477.382661 
L 186.537941 478.239693 
L 187.482231 478.239693 
L 187.796995 478.622296 
L 188.741285 478.622296 
L 189.056048 479.310982 
L 192.518446 479.394968 
L 192.833209 480.038079 
L 193.777499 480.038079 
L 194.092263 480.351557 
L 195.036553 480.351557 
L 195.351317 481.001902 
L 196.295607 481.001902 
L 196.61037 481.266781 
L 197.554661 481.266781 
L 197.869424 481.689658 
L 200.072768 481.791101 
L 200.387531 482.081444 
L 202.590875 482.081444 
L 202.905639 482.266859 
L 207.62709 482.3271 
L 207.941853 482.561327 
L 208.886144 482.561327 
L 209.200907 482.945067 
L 211.404251 482.972069 
L 211.719014 483.488745 
L 212.663305 483.488745 
L 212.978068 483.647563 
L 213.922358 483.647563 
L 214.237122 483.871426 
L 216.440466 483.871426 
L 216.755229 484.112466 
L 220.217627 484.157775 
L 220.53239 484.293268 
L 221.47668 484.293268 
L 221.791444 484.424019 
L 222.735734 484.424019 
L 223.050498 484.651348 
L 223.994788 484.651348 
L 224.309551 484.84265 
L 227.771949 484.904455 
L 228.401476 484.963245 
L 230.290056 484.98221 
L 230.919583 485.091488 
L 231.54911 485.091488 
L 231.863873 485.263506 
L 235.326271 485.363579 
L 236.585325 485.399448 
L 243.51012 485.687884 
L 245.3987 485.761937 
L 246.028227 485.849199 
L 246.657754 485.849199 
L 246.657754 485.849199 
" clip-path="url(#p0ed24e3d21)" style="fill: none; stroke: #0000ff; stroke-width: 1.5; stroke-linecap: square"/>
   </g>
   <g id="line2d_10">
    <path d="M 97.459893 492.48 
L 110.679957 492.48 
L 110.99472 481.355074 
L 111.93901 481.355074 
L 112.253774 440.828558 
L 113.198064 440.828558 
L 113.512827 441.897209 
L 114.457118 441.897209 
L 114.771881 428.5286 
L 115.716171 428.5286 
L 116.030935 429.526007 
L 116.975225 429.526007 
L 117.289988 355.406188 
L 118.234279 355.406188 
L 118.549042 300.109271 
L 119.493332 300.109271 
L 119.808096 277.320029 
L 120.752386 277.320029 
L 121.06715 247.634042 
L 122.01144 247.634042 
L 122.326203 232.039152 
L 123.270493 232.039152 
L 123.585257 234.22279 
L 124.529547 234.22279 
L 124.844311 239.748293 
L 125.788601 239.748293 
L 126.103364 244.866118 
L 127.047655 244.866118 
L 127.362418 254.059938 
L 128.306708 254.059938 
L 128.621472 239.226704 
L 132.083869 239.226704 
L 132.398633 228.251737 
L 135.86103 228.251737 
L 136.175794 214.73298 
L 137.120084 214.73298 
L 137.434847 214.542267 
L 138.379138 214.542267 
L 138.693901 206.713615 
L 139.638191 206.713615 
L 139.952955 213.944817 
L 140.897245 213.944817 
L 141.212008 197.829303 
L 142.156299 197.829303 
L 142.471062 177.155773 
L 143.415352 177.155773 
L 143.730116 177.315857 
L 144.674406 177.315857 
L 144.989169 165.210281 
L 145.93346 165.210281 
L 146.248223 143.262459 
L 147.192513 143.262459 
L 147.507277 130.843948 
L 148.451567 130.843948 
L 148.76633 139.958909 
L 149.710621 139.958909 
L 150.025384 154.943733 
L 150.969674 154.943733 
L 151.284438 156.966447 
L 152.228728 156.966447 
L 152.543492 162.97992 
L 153.487782 162.97992 
L 153.802545 170.926296 
L 154.746835 170.926296 
L 155.061599 178.925364 
L 156.005889 178.925364 
L 156.320653 182.571348 
L 157.264943 182.571348 
L 157.579706 184.317313 
L 158.523996 184.317313 
L 158.83876 192.173639 
L 159.78305 192.173639 
L 160.097814 198.860756 
L 161.042104 198.860756 
L 161.356867 196.567618 
L 162.301158 196.567618 
L 162.615921 198.860811 
L 163.560211 198.860811 
L 163.874975 203.148085 
L 164.819265 203.148085 
L 165.134028 206.066103 
L 166.078319 206.066103 
L 166.393082 207.659192 
L 167.337372 207.659192 
L 167.652136 207.311065 
L 168.596426 207.311065 
L 168.911189 210.203545 
L 169.85548 210.203545 
L 170.170243 208.138158 
L 172.373587 208.138158 
L 172.68835 210.808141 
L 174.891694 210.808141 
L 175.206458 208.794388 
L 176.150748 208.794388 
L 176.465511 196.673545 
L 177.409802 196.673545 
L 177.724565 183.181453 
L 178.668855 183.181453 
L 178.983619 169.00717 
L 179.927909 169.00717 
L 180.242672 156.640256 
L 181.186963 156.640256 
L 181.501726 140.233211 
L 182.446016 140.233211 
L 182.76078 118.906164 
L 183.70507 118.906164 
L 184.019833 99.161821 
L 184.964124 99.161821 
L 185.278887 92.086759 
L 186.223177 92.086759 
L 186.537941 89.28 
L 187.482231 89.28 
L 187.796995 92.357107 
L 188.741285 92.357107 
L 189.056048 96.734847 
L 190.000338 96.734847 
L 190.315102 94.426224 
L 191.259392 94.426224 
L 191.574156 90.171803 
L 192.518446 90.171803 
L 192.833209 93.699218 
L 193.777499 93.699218 
L 194.092263 97.058661 
L 195.036553 97.058661 
L 195.351317 100.261852 
L 196.295607 100.261852 
L 196.61037 103.594318 
L 197.554661 103.594318 
L 197.869424 105.519676 
L 198.813714 105.519676 
L 199.128478 109.894634 
L 201.331822 109.894634 
L 201.646585 111.186171 
L 202.590875 111.186171 
L 202.905639 112.452629 
L 203.849929 112.452629 
L 204.164692 116.61643 
L 205.108983 116.61643 
L 205.423746 124.500742 
L 206.368036 124.500742 
L 206.6828 136.7319 
L 207.62709 136.7319 
L 207.941853 148.026933 
L 208.886144 148.026933 
L 209.200907 155.745744 
L 210.145197 155.745744 
L 210.459961 163.995113 
L 211.404251 163.995113 
L 211.719014 167.557281 
L 212.663305 167.557281 
L 212.978068 175.473211 
L 213.922358 175.473211 
L 214.237122 176.50608 
L 215.181412 176.50608 
L 215.496175 180.462491 
L 216.440466 180.462491 
L 216.755229 185.672635 
L 217.699519 185.672635 
L 218.014283 194.017439 
L 218.958573 194.017439 
L 219.273336 201.384579 
L 220.217627 201.384579 
L 220.53239 205.01384 
L 221.47668 205.01384 
L 221.791444 207.770452 
L 222.735734 207.770452 
L 223.050498 211.799592 
L 223.994788 211.799592 
L 224.309551 212.513708 
L 225.253841 212.513708 
L 225.568605 216.985388 
L 226.512895 216.985388 
L 226.827659 221.20479 
L 227.771949 221.20479 
L 228.086712 223.760269 
L 229.031003 223.760269 
L 229.345766 225.588784 
L 230.290056 225.588784 
L 230.60482 229.559311 
L 231.54911 229.559311 
L 231.863873 231.713235 
L 232.808164 231.713235 
L 233.122927 233.812917 
L 234.067217 233.812917 
L 234.381981 235.464201 
L 235.326271 235.464201 
L 235.641034 237.772272 
L 237.844378 237.772272 
L 238.159142 240.202484 
L 239.103432 240.202484 
L 239.418195 245.315591 
L 240.362486 245.315591 
L 240.677249 249.272744 
L 241.621539 249.272744 
L 241.936303 251.667254 
L 242.880593 251.667254 
L 243.195356 257.150248 
L 244.139647 257.150248 
L 244.45441 261.242456 
L 245.3987 261.242456 
L 245.713464 263.325241 
L 246.657754 263.325241 
L 246.657754 263.325241 
" clip-path="url(#p0ed24e3d21)" style="fill: none; stroke: #ff0000; stroke-width: 1.5; stroke-linecap: square"/>
   </g>
   <g id="line2d_11">
    <path d="M 97.459893 492.48 
L 110.679957 492.48 
L 110.99472 394.61411 
L 111.93901 394.61411 
L 112.253774 380.912885 
L 113.198064 380.912885 
L 113.512827 368.516539 
L 114.457118 368.516539 
L 114.771881 378.846828 
L 115.716171 378.846828 
L 116.030935 377.898637 
L 116.975225 377.898637 
L 117.289988 379.994638 
L 118.234279 379.994638 
L 118.549042 381.922958 
L 119.493332 381.922958 
L 119.808096 388.350693 
L 120.752386 388.350693 
L 121.06715 390.130681 
L 122.01144 390.130681 
L 122.326203 391.778818 
L 123.270493 391.778818 
L 123.585257 399.993155 
L 125.788601 399.993155 
L 126.103364 402.567109 
L 128.306708 402.567109 
L 128.621472 408.115978 
L 129.565762 408.115978 
L 129.880525 411.824287 
L 130.824816 411.824287 
L 131.139579 416.098474 
L 133.342923 416.098474 
L 133.657686 418.101924 
L 134.601977 418.101924 
L 134.91674 419.020171 
L 137.120084 419.020171 
L 137.434847 419.888784 
L 138.379138 419.888784 
L 138.693901 424.247121 
L 139.638191 424.247121 
L 139.952955 425.694266 
L 140.897245 425.694266 
L 141.212008 426.366154 
L 142.156299 426.366154 
L 142.471062 427.006792 
L 143.415352 427.006792 
L 143.730116 429.296733 
L 144.674406 429.296733 
L 144.989169 430.301502 
L 145.93346 430.301502 
L 146.248223 430.773744 
L 147.192513 430.773744 
L 147.507277 432.083547 
L 148.451567 432.083547 
L 148.76633 435.287767 
L 149.710621 435.287767 
L 150.025384 437.790238 
L 152.228728 437.790238 
L 152.543492 439.680748 
L 153.487782 439.680748 
L 153.802545 442.894616 
L 154.746835 442.894616 
L 155.061599 443.257082 
L 156.005889 443.257082 
L 156.320653 445.322525 
L 157.264943 445.322525 
L 157.579706 445.649359 
L 159.78305 445.649359 
L 160.097814 445.965477 
L 161.042104 445.965477 
L 161.356867 446.271398 
L 162.301158 446.271398 
L 162.615921 446.567607 
L 166.078319 446.567607 
L 166.393082 447.819763 
L 167.337372 447.819763 
L 167.652136 448.106716 
L 168.596426 448.106716 
L 168.911189 449.797807 
L 169.85548 449.797807 
L 170.170243 450.313401 
L 171.114533 450.313401 
L 171.429297 450.559989 
L 174.891694 450.559989 
L 175.206458 451.032327 
L 176.150748 451.032327 
L 176.465511 452.94943 
L 177.409802 452.94943 
L 177.724565 453.152411 
L 178.668855 453.152411 
L 178.983619 453.35012 
L 179.927909 453.35012 
L 180.242672 454.31428 
L 181.186963 454.31428 
L 181.501726 455.396913 
L 182.446016 455.396913 
L 182.76078 456.986189 
L 183.70507 456.986189 
L 184.019833 457.886385 
L 184.964124 457.886385 
L 185.278887 458.912939 
L 186.223177 458.912939 
L 186.537941 459.087133 
L 187.482231 459.087133 
L 187.796995 459.879168 
L 190.000338 459.879168 
L 190.315102 460.462329 
L 191.259392 460.462329 
L 191.574156 461.525741 
L 192.518446 461.525741 
L 192.833209 462.636945 
L 193.777499 462.636945 
L 194.092263 463.482699 
L 196.295607 463.482699 
L 196.61037 464.243878 
L 197.554661 464.243878 
L 197.869424 464.405922 
L 198.813714 464.405922 
L 199.128478 464.564197 
L 200.072768 464.564197 
L 200.387531 465.071576 
L 202.590875 465.071576 
L 202.905639 465.40752 
L 203.849929 465.40752 
L 204.164692 465.878961 
L 205.108983 465.878961 
L 205.423746 466.18472 
L 206.368036 466.18472 
L 206.6828 467.674043 
L 207.62709 467.674043 
L 207.941853 467.910164 
L 208.886144 467.910164 
L 209.200907 468.640873 
L 210.145197 468.640873 
L 210.459961 468.850777 
L 211.404251 468.850777 
L 211.719014 469.191105 
L 212.663305 469.191105 
L 212.978068 469.708934 
L 213.922358 469.708934 
L 214.237122 470.453925 
L 215.181412 470.453925 
L 215.496175 471.343373 
L 216.440466 471.343373 
L 216.755229 471.754207 
L 217.699519 471.754207 
L 218.329046 471.871075 
L 218.958573 471.871075 
L 219.5881 471.985628 
L 220.217627 471.985628 
L 220.53239 472.236997 
L 221.47668 472.236997 
L 221.791444 472.561085 
L 222.735734 472.561085 
L 223.050498 472.695933 
L 223.994788 472.695933 
L 224.309551 472.901895 
L 226.512895 472.901895 
L 226.827659 473.032717 
L 229.031003 473.132837 
L 229.345766 473.327617 
L 232.808164 473.327617 
L 233.122927 473.454592 
L 234.067217 473.454592 
L 234.381981 473.672644 
L 236.585325 473.672644 
L 236.900088 473.857128 
L 237.844378 473.857128 
L 238.159142 474.035195 
L 239.103432 474.035195 
L 239.418195 474.722707 
L 240.362486 474.722707 
L 240.677249 475.020882 
L 241.621539 475.020882 
L 241.936303 475.51078 
L 242.880593 475.51078 
L 243.195356 475.797785 
L 244.139647 475.797785 
L 244.45441 476.09445 
L 245.3987 476.09445 
L 245.713464 476.416796 
L 246.657754 476.416796 
L 246.657754 476.416796 
" clip-path="url(#p0ed24e3d21)" style="fill: none; stroke: #008000; stroke-width: 1.5; stroke-linecap: square"/>
   </g>
   <g id="patch_3">
    <path d="M 90 512.64 
L 90 69.12 
" style="fill: none; stroke: #000000; stroke-width: 0.8; stroke-linejoin: miter; stroke-linecap: square"/>
   </g>
   <g id="patch_4">
    <path d="M 254.117647 512.64 
L 254.117647 69.12 
" style="fill: none; stroke: #000000; stroke-width: 0.8; stroke-linejoin: miter; stroke-linecap: square"/>
   </g>
   <g id="patch_5">
    <path d="M 90 512.64 
L 254.117647 512.64 
" style="fill: none; stroke: #000000; stroke-width: 0.8; stroke-linejoin: miter; stroke-linecap: square"/>
   </g>
   <g id="patch_6">
    <path d="M 90 69.12 
L 254.117647 69.12 
" style="fill: none; stroke: #000000; stroke-width: 0.8; stroke-linejoin: miter; stroke-linecap: square"/>
   </g>
   <g id="legend_1">
    <g id="patch_7">
     <path d="M 97 121.154375 
L 174.84375 121.154375 
Q 176.84375 121.154375 176.84375 119.154375 
L 176.84375 76.12 
Q 176.84375 74.12 174.84375 74.12 
L 97 74.12 
Q 95 74.12 95 76.12 
L 95 119.154375 
Q 95 121.154375 97 121.154375 
z
" style="fill: #ffffff; opacity: 0.8; stroke: #cccccc; stroke-linejoin: miter"/>
    </g>
    <g id="line2d_12">
     <path d="M 99 82.218438 
L 109 82.218438 
L 119 82.218438 
" style="fill: none; stroke: #0000ff; stroke-width: 1.5; stroke-linecap: square"/>
    </g>
    <g id="text_9">
     <!-- O1 utility -->
     <g transform="translate(127 85.718438) scale(0.1 -0.1)">
      <defs>
       <path id="DejaVuSans-4f" d="M 2522 4238 
Q 1834 4238 1429 3725 
Q 1025 3213 1025 2328 
Q 1025 1447 1429 934 
Q 1834 422 2522 422 
Q 3209 422 3611 934 
Q 4013 1447 4013 2328 
Q 4013 3213 3611 3725 
Q 3209 4238 2522 4238 
z
M 2522 4750 
Q 3503 4750 4090 4092 
Q 4678 3434 4678 2328 
Q 4678 1225 4090 567 
Q 3503 -91 2522 -91 
Q 1538 -91 948 565 
Q 359 1222 359 2328 
Q 359 3434 948 4092 
Q 1538 4750 2522 4750 
z
" transform="scale(0.015625)"/>
       <path id="DejaVuSans-20" transform="scale(0.015625)"/>
       <path id="DejaVuSans-75" d="M 544 1381 
L 544 3500 
L 1119 3500 
L 1119 1403 
Q 1119 906 1312 657 
Q 1506 409 1894 409 
Q 2359 409 2629 706 
Q 2900 1003 2900 1516 
L 2900 3500 
L 3475 3500 
L 3475 0 
L 2900 0 
L 2900 538 
Q 2691 219 2414 64 
Q 2138 -91 1772 -91 
Q 1169 -91 856 284 
Q 544 659 544 1381 
z
M 1991 3584 
L 1991 3584 
z
" transform="scale(0.015625)"/>
       <path id="DejaVuSans-74" d="M 1172 4494 
L 1172 3500 
L 2356 3500 
L 2356 3053 
L 1172 3053 
L 1172 1153 
Q 1172 725 1289 603 
Q 1406 481 1766 481 
L 2356 481 
L 2356 0 
L 1766 0 
Q 1100 0 847 248 
Q 594 497 594 1153 
L 594 3053 
L 172 3053 
L 172 3500 
L 594 3500 
L 594 4494 
L 1172 4494 
z
" transform="scale(0.015625)"/>
       <path id="DejaVuSans-69" d="M 603 3500 
L 1178 3500 
L 1178 0 
L 603 0 
L 603 3500 
z
M 603 4863 
L 1178 4863 
L 1178 4134 
L 603 4134 
L 603 4863 
z
" transform="scale(0.015625)"/>
       <path id="DejaVuSans-6c" d="M 603 4863 
L 1178 4863 
L 1178 0 
L 603 0 
L 603 4863 
z
" transform="scale(0.015625)"/>
       <path id="DejaVuSans-79" d="M 2059 -325 
Q 1816 -950 1584 -1140 
Q 1353 -1331 966 -1331 
L 506 -1331 
L 506 -850 
L 844 -850 
Q 1081 -850 1212 -737 
Q 1344 -625 1503 -206 
L 1606 56 
L 191 3500 
L 800 3500 
L 1894 763 
L 2988 3500 
L 3597 3500 
L 2059 -325 
z
" transform="scale(0.015625)"/>
      </defs>
      <use xlink:href="#DejaVuSans-4f"/>
      <use xlink:href="#DejaVuSans-31" x="78.710938"/>
      <use xlink:href="#DejaVuSans-20" x="142.333984"/>
      <use xlink:href="#DejaVuSans-75" x="174.121094"/>
      <use xlink:href="#DejaVuSans-74" x="237.5"/>
      <use xlink:href="#DejaVuSans-69" x="276.708984"/>
      <use xlink:href="#DejaVuSans-6c" x="304.492188"/>
      <use xlink:href="#DejaVuSans-69" x="332.275391"/>
      <use xlink:href="#DejaVuSans-74" x="360.058594"/>
      <use xlink:href="#DejaVuSans-79" x="399.267578"/>
     </g>
    </g>
    <g id="line2d_13">
     <path d="M 99 96.896563 
L 109 96.896563 
L 119 96.896563 
" style="fill: none; stroke: #ff0000; stroke-width: 1.5; stroke-linecap: square"/>
    </g>
    <g id="text_10">
     <!-- O2 utility -->
     <g transform="translate(127 100.396563) scale(0.1 -0.1)">
      <use xlink:href="#DejaVuSans-4f"/>
      <use xlink:href="#DejaVuSans-32" x="78.710938"/>
      <use xlink:href="#DejaVuSans-20" x="142.333984"/>
      <use xlink:href="#DejaVuSans-75" x="174.121094"/>
      <use xlink:href="#DejaVuSans-74" x="237.5"/>
      <use xlink:href="#DejaVuSans-69" x="276.708984"/>
      <use xlink:href="#DejaVuSans-6c" x="304.492188"/>
      <use xlink:href="#DejaVuSans-69" x="332.275391"/>
      <use xlink:href="#DejaVuSans-74" x="360.058594"/>
      <use xlink:href="#DejaVuSans-79" x="399.267578"/>
     </g>
    </g>
    <g id="line2d_14">
     <path d="M 99 111.574688 
L 109 111.574688 
L 119 111.574688 
" style="fill: none; stroke: #008000; stroke-width: 1.5; stroke-linecap: square"/>
    </g>
    <g id="text_11">
     <!-- O3 utility -->
     <g transform="translate(127 115.074688) scale(0.1 -0.1)">
      <use xlink:href="#DejaVuSans-4f"/>
      <use xlink:href="#DejaVuSans-33" x="78.710938"/>
      <use xlink:href="#DejaVuSans-20" x="142.333984"/>
      <use xlink:href="#DejaVuSans-75" x="174.121094"/>
      <use xlink:href="#DejaVuSans-74" x="237.5"/>
      <use xlink:href="#DejaVuSans-69" x="276.708984"/>
      <use xlink:href="#DejaVuSans-6c" x="304.492188"/>
      <use xlink:href="#DejaVuSans-69" x="332.275391"/>
      <use xlink:href="#DejaVuSans-74" x="360.058594"/>
      <use xlink:href="#DejaVuSans-79" x="399.267578"/>
     </g>
    </g>
   </g>
  </g>
  <g id="axes_2">
   <g id="patch_8">
    <path d="M 286.941176 512.64 
L 451.058824 512.64 
L 451.058824 69.12 
L 286.941176 69.12 
z
" style="fill: #ffffff"/>
   </g>
   <g id="matplotlib.axis_3">
    <g id="xtick_4">
     <g id="line2d_15">
      <g>
       <use xlink:href="#mcf6919d862" x="294.086306" y="512.64" style="stroke: #000000; stroke-width: 0.8"/>
      </g>
     </g>
     <g id="text_12">
      <!-- 0 -->
      <g transform="translate(290.905056 527.238438) scale(0.1 -0.1)">
       <use xlink:href="#DejaVuSans-30"/>
      </g>
     </g>
    </g>
    <g id="xtick_5">
     <g id="line2d_16">
      <g>
       <use xlink:href="#mcf6919d862" x="357.03899" y="512.64" style="stroke: #000000; stroke-width: 0.8"/>
      </g>
     </g>
     <g id="text_13">
      <!-- 200 -->
      <g transform="translate(347.49524 527.238438) scale(0.1 -0.1)">
       <use xlink:href="#DejaVuSans-32"/>
       <use xlink:href="#DejaVuSans-30" x="63.623047"/>
       <use xlink:href="#DejaVuSans-30" x="127.246094"/>
      </g>
     </g>
    </g>
    <g id="xtick_6">
     <g id="line2d_17">
      <g>
       <use xlink:href="#mcf6919d862" x="419.991674" y="512.64" style="stroke: #000000; stroke-width: 0.8"/>
      </g>
     </g>
     <g id="text_14">
      <!-- 400 -->
      <g transform="translate(410.447924 527.238438) scale(0.1 -0.1)">
       <use xlink:href="#DejaVuSans-34"/>
       <use xlink:href="#DejaVuSans-30" x="63.623047"/>
       <use xlink:href="#DejaVuSans-30" x="127.246094"/>
      </g>
     </g>
    </g>
   </g>
   <g id="matplotlib.axis_4">
    <g id="ytick_6">
     <g id="line2d_18">
      <g>
       <use xlink:href="#m0838083d59" x="286.941176" y="492.48" style="stroke: #000000; stroke-width: 0.8"/>
      </g>
     </g>
     <g id="text_15">
      <!-- 0 -->
      <g transform="translate(273.578676 496.279219) scale(0.1 -0.1)">
       <use xlink:href="#DejaVuSans-30"/>
      </g>
     </g>
    </g>
    <g id="ytick_7">
     <g id="line2d_19">
      <g>
       <use xlink:href="#m0838083d59" x="286.941176" y="433.532632" style="stroke: #000000; stroke-width: 0.8"/>
      </g>
     </g>
     <g id="text_16">
      <!-- 50 -->
      <g transform="translate(267.216176 437.33185) scale(0.1 -0.1)">
       <defs>
        <path id="DejaVuSans-35" d="M 691 4666 
L 3169 4666 
L 3169 4134 
L 1269 4134 
L 1269 2991 
Q 1406 3038 1543 3061 
Q 1681 3084 1819 3084 
Q 2600 3084 3056 2656 
Q 3513 2228 3513 1497 
Q 3513 744 3044 326 
Q 2575 -91 1722 -91 
Q 1428 -91 1123 -41 
Q 819 9 494 109 
L 494 744 
Q 775 591 1075 516 
Q 1375 441 1709 441 
Q 2250 441 2565 725 
Q 2881 1009 2881 1497 
Q 2881 1984 2565 2268 
Q 2250 2553 1709 2553 
Q 1456 2553 1204 2497 
Q 953 2441 691 2322 
L 691 4666 
z
" transform="scale(0.015625)"/>
       </defs>
       <use xlink:href="#DejaVuSans-35"/>
       <use xlink:href="#DejaVuSans-30" x="63.623047"/>
      </g>
     </g>
    </g>
    <g id="ytick_8">
     <g id="line2d_20">
      <g>
       <use xlink:href="#m0838083d59" x="286.941176" y="374.585263" style="stroke: #000000; stroke-width: 0.8"/>
      </g>
     </g>
     <g id="text_17">
      <!-- 100 -->
      <g transform="translate(260.853676 378.384482) scale(0.1 -0.1)">
       <use xlink:href="#DejaVuSans-31"/>
       <use xlink:href="#DejaVuSans-30" x="63.623047"/>
       <use xlink:href="#DejaVuSans-30" x="127.246094"/>
      </g>
     </g>
    </g>
    <g id="ytick_9">
     <g id="line2d_21">
      <g>
       <use xlink:href="#m0838083d59" x="286.941176" y="315.637895" style="stroke: #000000; stroke-width: 0.8"/>
      </g>
     </g>
     <g id="text_18">
      <!-- 150 -->
      <g transform="translate(260.853676 319.437113) scale(0.1 -0.1)">
       <use xlink:href="#DejaVuSans-31"/>
       <use xlink:href="#DejaVuSans-35" x="63.623047"/>
       <use xlink:href="#DejaVuSans-30" x="127.246094"/>
      </g>
     </g>
    </g>
    <g id="ytick_10">
     <g id="line2d_22">
      <g>
       <use xlink:href="#m0838083d59" x="286.941176" y="256.690526" style="stroke: #000000; stroke-width: 0.8"/>
      </g>
     </g>
     <g id="text_19">
      <!-- 200 -->
      <g transform="translate(260.853676 260.489745) scale(0.1 -0.1)">
       <use xlink:href="#DejaVuSans-32"/>
       <use xlink:href="#DejaVuSans-30" x="63.623047"/>
       <use xlink:href="#DejaVuSans-30" x="127.246094"/>
      </g>
     </g>
    </g>
    <g id="ytick_11">
     <g id="line2d_23">
      <g>
       <use xlink:href="#m0838083d59" x="286.941176" y="197.743158" style="stroke: #000000; stroke-width: 0.8"/>
      </g>
     </g>
     <g id="text_20">
      <!-- 250 -->
      <g transform="translate(260.853676 201.542377) scale(0.1 -0.1)">
       <use xlink:href="#DejaVuSans-32"/>
       <use xlink:href="#DejaVuSans-35" x="63.623047"/>
       <use xlink:href="#DejaVuSans-30" x="127.246094"/>
      </g>
     </g>
    </g>
    <g id="ytick_12">
     <g id="line2d_24">
      <g>
       <use xlink:href="#m0838083d59" x="286.941176" y="138.795789" style="stroke: #000000; stroke-width: 0.8"/>
      </g>
     </g>
     <g id="text_21">
      <!-- 300 -->
      <g transform="translate(260.853676 142.595008) scale(0.1 -0.1)">
       <use xlink:href="#DejaVuSans-33"/>
       <use xlink:href="#DejaVuSans-30" x="63.623047"/>
       <use xlink:href="#DejaVuSans-30" x="127.246094"/>
      </g>
     </g>
    </g>
    <g id="ytick_13">
     <g id="line2d_25">
      <g>
       <use xlink:href="#m0838083d59" x="286.941176" y="79.848421" style="stroke: #000000; stroke-width: 0.8"/>
      </g>
     </g>
     <g id="text_22">
      <!-- 350 -->
      <g transform="translate(260.853676 83.64764) scale(0.1 -0.1)">
       <use xlink:href="#DejaVuSans-33"/>
       <use xlink:href="#DejaVuSans-35" x="63.623047"/>
       <use xlink:href="#DejaVuSans-30" x="127.246094"/>
      </g>
     </g>
    </g>
   </g>
   <g id="line2d_26">
    <path d="M 294.40107 492.48 
L 295.030596 492.48 
L 295.34536 491.301053 
L 296.28965 491.301053 
L 296.604413 490.122105 
L 297.548704 490.122105 
L 297.863467 486.585263 
L 298.807757 486.585263 
L 299.122521 483.048421 
L 300.066811 483.048421 
L 300.381574 479.511579 
L 301.325865 479.511579 
L 301.640628 473.616842 
L 302.584918 473.616842 
L 302.899682 471.258947 
L 303.843972 471.258947 
L 304.158736 467.722105 
L 305.103026 467.722105 
L 305.417789 461.827368 
L 306.362079 461.827368 
L 306.676843 460.648421 
L 308.880187 460.648421 
L 309.19495 458.290526 
L 310.139241 458.290526 
L 310.454004 452.395789 
L 311.398294 452.395789 
L 311.713058 448.858947 
L 312.657348 448.858947 
L 312.972111 445.322105 
L 313.916402 445.322105 
L 314.231165 444.143158 
L 315.175455 444.143158 
L 315.490219 440.606316 
L 316.434509 440.606316 
L 316.749272 437.069474 
L 317.693563 437.069474 
L 318.008326 434.711579 
L 318.952616 434.711579 
L 319.26738 433.532632 
L 320.21167 433.532632 
L 320.526433 429.995789 
L 321.470724 429.995789 
L 321.785487 428.816842 
L 323.988831 428.816842 
L 324.303594 426.458947 
L 325.247885 426.458947 
L 325.562648 425.28 
L 326.506938 425.28 
L 326.821702 422.922105 
L 327.765992 422.922105 
L 328.080755 421.743158 
L 329.025046 421.743158 
L 329.339809 419.385263 
L 331.543153 419.385263 
L 331.857916 418.206316 
L 332.802207 418.206316 
L 333.11697 417.027368 
L 335.320314 417.027368 
L 335.635078 414.669474 
L 336.579368 414.669474 
L 336.894131 411.132632 
L 337.838421 411.132632 
L 338.153185 408.774737 
L 339.097475 408.774737 
L 339.412239 405.237895 
L 340.356529 405.237895 
L 340.671292 404.058947 
L 341.615582 404.058947 
L 341.930346 400.522105 
L 342.874636 400.522105 
L 343.1894 398.164211 
L 344.13369 398.164211 
L 344.448453 395.806316 
L 345.392744 395.806316 
L 345.707507 392.269474 
L 346.651797 392.269474 
L 346.966561 388.732632 
L 347.910851 388.732632 
L 348.225614 384.016842 
L 349.169905 384.016842 
L 349.484668 378.122105 
L 350.428958 378.122105 
L 350.743722 375.764211 
L 351.688012 375.764211 
L 352.002775 372.227368 
L 352.947066 372.227368 
L 353.261829 368.690526 
L 354.206119 368.690526 
L 354.520883 362.795789 
L 355.465173 362.795789 
L 355.779936 359.258947 
L 356.724227 359.258947 
L 357.03899 355.722105 
L 357.98328 355.722105 
L 358.298044 352.185263 
L 359.242334 352.185263 
L 359.557097 347.469474 
L 360.501388 347.469474 
L 360.816151 343.932632 
L 361.760441 343.932632 
L 362.075205 341.574737 
L 363.019495 341.574737 
L 363.334258 340.395789 
L 366.796656 340.395789 
L 367.111419 339.216842 
L 368.05571 339.216842 
L 368.370473 336.858947 
L 369.314763 336.858947 
L 369.629527 334.501053 
L 370.573817 334.501053 
L 370.888581 332.143158 
L 371.832871 332.143158 
L 372.147634 329.785263 
L 373.091924 329.785263 
L 373.406688 328.606316 
L 374.350978 328.606316 
L 374.665742 325.069474 
L 375.610032 325.069474 
L 375.924795 322.711579 
L 376.869085 322.711579 
L 377.183849 319.174737 
L 378.128139 319.174737 
L 378.442903 315.637895 
L 379.387193 315.637895 
L 379.701956 313.28 
L 380.646247 313.28 
L 380.96101 312.101053 
L 381.9053 312.101053 
L 382.220064 309.743158 
L 383.164354 309.743158 
L 383.479117 307.385263 
L 384.423408 307.385263 
L 384.738171 303.848421 
L 385.682461 303.848421 
L 385.997225 299.132632 
L 386.941515 299.132632 
L 387.256278 295.595789 
L 388.200569 295.595789 
L 388.515332 293.237895 
L 389.459622 293.237895 
L 389.774386 289.701053 
L 390.718676 289.701053 
L 391.033439 286.164211 
L 391.97773 286.164211 
L 392.292493 279.090526 
L 393.236783 279.090526 
L 393.551547 275.553684 
L 394.495837 275.553684 
L 394.8106 270.837895 
L 395.754891 270.837895 
L 396.069654 267.301053 
L 397.013944 267.301053 
L 397.328708 262.585263 
L 398.272998 262.585263 
L 398.587761 260.227368 
L 399.532052 260.227368 
L 399.846815 257.869474 
L 402.050159 257.869474 
L 402.364922 255.511579 
L 403.309213 255.511579 
L 403.623976 254.332632 
L 404.568266 254.332632 
L 404.88303 249.616842 
L 405.82732 249.616842 
L 406.142084 244.901053 
L 407.086374 244.901053 
L 407.401137 242.543158 
L 408.345427 242.543158 
L 408.660191 235.469474 
L 409.604481 235.469474 
L 409.919245 231.932632 
L 410.863535 231.932632 
L 411.178298 226.037895 
L 413.381642 226.037895 
L 413.696406 223.68 
L 414.640696 223.68 
L 414.955459 221.322105 
L 415.89975 221.322105 
L 416.214513 218.964211 
L 417.158803 218.964211 
L 417.473567 216.606316 
L 418.417857 216.606316 
L 418.73262 214.248421 
L 419.676911 214.248421 
L 419.991674 209.532632 
L 420.935964 209.532632 
L 421.250728 207.174737 
L 422.195018 207.174737 
L 422.509781 203.637895 
L 423.454072 203.637895 
L 423.768835 201.28 
L 424.713125 201.28 
L 425.027889 197.743158 
L 425.972179 197.743158 
L 426.286942 194.206316 
L 427.231233 194.206316 
L 427.545996 190.669474 
L 428.490286 190.669474 
L 428.80505 185.953684 
L 429.74934 185.953684 
L 430.064103 182.416842 
L 431.008394 182.416842 
L 431.323157 181.237895 
L 432.267447 181.237895 
L 432.582211 177.701053 
L 433.526501 177.701053 
L 433.841264 175.343158 
L 434.785555 175.343158 
L 435.100318 170.627368 
L 437.303662 170.627368 
L 437.618426 167.090526 
L 438.562716 167.090526 
L 438.877479 162.374737 
L 439.821769 162.374737 
L 440.136533 161.195789 
L 441.080823 161.195789 
L 441.395587 160.016842 
L 442.339877 160.016842 
L 442.65464 155.301053 
L 443.59893 155.301053 
L 443.59893 155.301053 
" clip-path="url(#pca56330607)" style="fill: none; stroke: #0000ff; stroke-width: 1.5; stroke-linecap: square"/>
   </g>
   <g id="line2d_27">
    <path d="M 294.40107 492.48 
L 295.030596 492.48 
L 295.34536 491.301053 
L 296.28965 491.301053 
L 296.604413 484.227368 
L 297.548704 484.227368 
L 297.863467 480.690526 
L 298.807757 480.690526 
L 299.122521 475.974737 
L 300.066811 475.974737 
L 300.381574 471.258947 
L 301.325865 471.258947 
L 301.640628 466.543158 
L 302.584918 466.543158 
L 302.899682 459.469474 
L 303.843972 459.469474 
L 304.158736 457.111579 
L 305.103026 457.111579 
L 305.417789 453.574737 
L 306.362079 453.574737 
L 306.676843 448.858947 
L 307.621133 448.858947 
L 307.935897 442.964211 
L 308.880187 442.964211 
L 309.19495 437.069474 
L 310.139241 437.069474 
L 310.454004 433.532632 
L 311.398294 433.532632 
L 311.713058 429.995789 
L 312.657348 429.995789 
L 312.972111 427.637895 
L 313.916402 427.637895 
L 314.231165 422.922105 
L 315.175455 422.922105 
L 315.490219 418.206316 
L 316.434509 418.206316 
L 316.749272 414.669474 
L 317.693563 414.669474 
L 318.008326 409.953684 
L 318.952616 409.953684 
L 319.26738 406.416842 
L 320.21167 406.416842 
L 320.526433 405.237895 
L 321.470724 405.237895 
L 321.785487 402.88 
L 322.729777 402.88 
L 323.044541 400.522105 
L 323.988831 400.522105 
L 324.303594 395.806316 
L 325.247885 395.806316 
L 325.562648 394.627368 
L 329.025046 394.627368 
L 329.339809 392.269474 
L 332.802207 392.269474 
L 333.11697 389.911579 
L 334.06126 389.911579 
L 334.376024 387.553684 
L 335.320314 387.553684 
L 335.635078 386.374737 
L 336.579368 386.374737 
L 336.894131 385.195789 
L 337.838421 385.195789 
L 338.153185 379.301053 
L 339.097475 379.301053 
L 339.412239 373.406316 
L 340.356529 373.406316 
L 340.671292 371.048421 
L 341.615582 371.048421 
L 341.930346 367.511579 
L 342.874636 367.511579 
L 343.1894 360.437895 
L 344.13369 360.437895 
L 344.448453 355.722105 
L 345.392744 355.722105 
L 345.707507 353.364211 
L 346.651797 353.364211 
L 346.966561 348.648421 
L 347.910851 348.648421 
L 348.225614 347.469474 
L 349.169905 347.469474 
L 349.484668 345.111579 
L 350.428958 345.111579 
L 350.743722 341.574737 
L 351.688012 341.574737 
L 352.002775 338.037895 
L 352.947066 338.037895 
L 353.261829 335.68 
L 354.206119 335.68 
L 354.520883 334.501053 
L 355.465173 334.501053 
L 355.779936 330.964211 
L 356.724227 330.964211 
L 357.03899 327.427368 
L 357.98328 327.427368 
L 358.298044 326.248421 
L 359.242334 326.248421 
L 359.557097 325.069474 
L 360.501388 325.069474 
L 360.816151 322.711579 
L 361.760441 322.711579 
L 362.075205 319.174737 
L 363.019495 319.174737 
L 363.334258 315.637895 
L 364.278549 315.637895 
L 364.593312 313.28 
L 365.537602 313.28 
L 365.852366 312.101053 
L 366.796656 312.101053 
L 367.111419 310.922105 
L 369.314763 310.922105 
L 369.629527 309.743158 
L 371.832871 309.743158 
L 372.147634 308.564211 
L 373.091924 308.564211 
L 373.406688 305.027368 
L 374.350978 305.027368 
L 374.665742 301.490526 
L 375.610032 301.490526 
L 375.924795 295.595789 
L 376.869085 295.595789 
L 377.183849 289.701053 
L 378.128139 289.701053 
L 378.442903 286.164211 
L 379.387193 286.164211 
L 379.701956 281.448421 
L 380.646247 281.448421 
L 380.96101 275.553684 
L 381.9053 275.553684 
L 382.220064 273.195789 
L 383.164354 273.195789 
L 383.479117 268.48 
L 384.423408 268.48 
L 384.738171 266.122105 
L 385.682461 266.122105 
L 385.997225 262.585263 
L 386.941515 262.585263 
L 387.256278 260.227368 
L 388.200569 260.227368 
L 388.515332 256.690526 
L 389.459622 256.690526 
L 389.774386 255.511579 
L 390.718676 255.511579 
L 391.033439 254.332632 
L 391.97773 254.332632 
L 392.292493 253.153684 
L 393.236783 253.153684 
L 393.551547 250.795789 
L 394.495837 250.795789 
L 394.8106 249.616842 
L 395.754891 249.616842 
L 396.069654 247.258947 
L 398.272998 247.258947 
L 398.587761 246.08 
L 399.532052 246.08 
L 399.846815 244.901053 
L 400.791105 244.901053 
L 401.105869 242.543158 
L 402.050159 242.543158 
L 402.364922 237.827368 
L 403.309213 237.827368 
L 403.623976 230.753684 
L 404.568266 230.753684 
L 404.88303 222.501053 
L 405.82732 222.501053 
L 406.142084 217.785263 
L 407.086374 217.785263 
L 407.401137 210.711579 
L 408.345427 210.711579 
L 408.660191 208.353684 
L 409.604481 208.353684 
L 409.919245 202.458947 
L 410.863535 202.458947 
L 411.178298 201.28 
L 412.122589 201.28 
L 412.437352 196.564211 
L 413.381642 196.564211 
L 413.696406 190.669474 
L 414.640696 190.669474 
L 414.955459 182.416842 
L 415.89975 182.416842 
L 416.214513 174.164211 
L 417.158803 174.164211 
L 417.473567 169.448421 
L 418.417857 169.448421 
L 418.73262 165.911579 
L 419.676911 165.911579 
L 419.991674 161.195789 
L 420.935964 161.195789 
L 421.250728 160.016842 
L 422.195018 160.016842 
L 422.509781 155.301053 
L 423.454072 155.301053 
L 423.768835 150.585263 
L 424.713125 150.585263 
L 425.027889 147.048421 
L 425.972179 147.048421 
L 426.286942 144.690526 
L 427.231233 144.690526 
L 427.545996 139.974737 
L 428.490286 139.974737 
L 428.80505 137.616842 
L 429.74934 137.616842 
L 430.064103 135.258947 
L 431.008394 135.258947 
L 431.323157 132.901053 
L 432.267447 132.901053 
L 432.582211 129.364211 
L 434.785555 129.364211 
L 435.100318 124.648421 
L 436.044608 124.648421 
L 436.359372 117.574737 
L 437.303662 117.574737 
L 437.618426 111.68 
L 438.562716 111.68 
L 438.877479 108.143158 
L 439.821769 108.143158 
L 440.136533 99.890526 
L 441.080823 99.890526 
L 441.395587 92.816842 
L 442.339877 92.816842 
L 442.65464 89.28 
L 443.59893 89.28 
L 443.59893 89.28 
" clip-path="url(#pca56330607)" style="fill: none; stroke: #ff0000; stroke-width: 1.5; stroke-linecap: square"/>
   </g>
   <g id="line2d_28">
    <path d="M 294.40107 492.48 
L 295.030596 492.48 
L 295.34536 490.122105 
L 296.28965 490.122105 
L 296.604413 488.943158 
L 297.548704 488.943158 
L 297.863467 484.227368 
L 298.807757 484.227368 
L 299.122521 480.690526 
L 300.066811 480.690526 
L 300.381574 477.153684 
L 301.325865 477.153684 
L 301.640628 475.974737 
L 302.584918 475.974737 
L 302.899682 473.616842 
L 303.843972 473.616842 
L 304.158736 467.722105 
L 305.103026 467.722105 
L 305.417789 465.364211 
L 306.362079 465.364211 
L 306.676843 460.648421 
L 307.621133 460.648421 
L 307.935897 455.932632 
L 308.880187 455.932632 
L 309.19495 453.574737 
L 310.139241 453.574737 
L 310.454004 452.395789 
L 311.398294 452.395789 
L 311.713058 448.858947 
L 312.657348 448.858947 
L 312.972111 444.143158 
L 313.916402 444.143158 
L 314.231165 439.427368 
L 315.175455 439.427368 
L 315.490219 438.248421 
L 316.434509 438.248421 
L 316.749272 435.890526 
L 317.693563 435.890526 
L 318.008326 433.532632 
L 318.952616 433.532632 
L 319.26738 429.995789 
L 320.21167 429.995789 
L 320.526433 426.458947 
L 321.470724 426.458947 
L 321.785487 422.922105 
L 322.729777 422.922105 
L 323.044541 418.206316 
L 325.247885 418.206316 
L 325.562648 414.669474 
L 326.506938 414.669474 
L 326.821702 412.311579 
L 327.765992 412.311579 
L 328.080755 408.774737 
L 330.284099 408.774737 
L 330.598863 405.237895 
L 331.543153 405.237895 
L 331.857916 402.88 
L 334.06126 402.88 
L 334.376024 401.701053 
L 335.320314 401.701053 
L 335.635078 398.164211 
L 336.579368 398.164211 
L 336.894131 393.448421 
L 337.838421 393.448421 
L 338.153185 389.911579 
L 339.097475 389.911579 
L 339.412239 387.553684 
L 340.356529 387.553684 
L 340.671292 380.48 
L 341.615582 380.48 
L 341.930346 376.943158 
L 342.874636 376.943158 
L 343.1894 375.764211 
L 344.13369 375.764211 
L 344.448453 372.227368 
L 345.392744 372.227368 
L 345.707507 367.511579 
L 346.651797 367.511579 
L 346.966561 365.153684 
L 347.910851 365.153684 
L 348.225614 361.616842 
L 349.169905 361.616842 
L 349.484668 360.437895 
L 350.428958 360.437895 
L 350.743722 356.901053 
L 351.688012 356.901053 
L 352.002775 354.543158 
L 352.947066 354.543158 
L 353.261829 351.006316 
L 354.206119 351.006316 
L 354.520883 349.827368 
L 355.465173 349.827368 
L 355.779936 348.648421 
L 356.724227 348.648421 
L 357.03899 347.469474 
L 357.98328 347.469474 
L 358.298044 345.111579 
L 359.242334 345.111579 
L 359.557097 343.932632 
L 360.501388 343.932632 
L 360.816151 342.753684 
L 363.019495 342.753684 
L 363.334258 341.574737 
L 364.278549 341.574737 
L 364.593312 338.037895 
L 365.537602 338.037895 
L 365.852366 334.501053 
L 366.796656 334.501053 
L 367.111419 332.143158 
L 368.05571 332.143158 
L 368.370473 330.964211 
L 371.832871 330.964211 
L 372.147634 327.427368 
L 373.091924 327.427368 
L 373.406688 320.353684 
L 374.350978 320.353684 
L 374.665742 316.816842 
L 375.610032 316.816842 
L 375.924795 314.458947 
L 376.869085 314.458947 
L 377.183849 313.28 
L 378.128139 313.28 
L 378.442903 309.743158 
L 379.387193 309.743158 
L 379.701956 307.385263 
L 380.646247 307.385263 
L 380.96101 305.027368 
L 381.9053 305.027368 
L 382.220064 300.311579 
L 383.164354 300.311579 
L 383.479117 297.953684 
L 384.423408 297.953684 
L 384.738171 294.416842 
L 385.682461 294.416842 
L 385.997225 293.237895 
L 386.941515 293.237895 
L 387.256278 289.701053 
L 388.200569 289.701053 
L 388.515332 286.164211 
L 389.459622 286.164211 
L 389.774386 282.627368 
L 390.718676 282.627368 
L 391.033439 279.090526 
L 393.236783 279.090526 
L 393.551547 276.732632 
L 394.495837 276.732632 
L 394.8106 274.374737 
L 395.754891 274.374737 
L 396.069654 273.195789 
L 397.013944 273.195789 
L 397.328708 270.837895 
L 398.272998 270.837895 
L 398.587761 267.301053 
L 399.532052 267.301053 
L 399.846815 264.943158 
L 400.791105 264.943158 
L 401.105869 261.406316 
L 402.050159 261.406316 
L 402.364922 257.869474 
L 403.309213 257.869474 
L 403.623976 249.616842 
L 404.568266 249.616842 
L 404.88303 248.437895 
L 405.82732 248.437895 
L 406.142084 242.543158 
L 407.086374 242.543158 
L 407.401137 237.827368 
L 408.345427 237.827368 
L 408.660191 233.111579 
L 409.604481 233.111579 
L 409.919245 229.574737 
L 410.863535 229.574737 
L 411.178298 223.68 
L 412.122589 223.68 
L 412.437352 215.427368 
L 413.381642 215.427368 
L 413.696406 211.890526 
L 414.640696 211.890526 
L 414.955459 210.711579 
L 415.89975 210.711579 
L 416.214513 209.532632 
L 417.158803 209.532632 
L 417.473567 205.995789 
L 418.417857 205.995789 
L 418.73262 201.28 
L 419.676911 201.28 
L 419.991674 200.101053 
L 420.935964 200.101053 
L 421.250728 194.206316 
L 422.195018 194.206316 
L 422.509781 193.027368 
L 423.454072 193.027368 
L 423.768835 190.669474 
L 424.713125 190.669474 
L 425.027889 188.311579 
L 425.972179 188.311579 
L 426.286942 184.774737 
L 428.490286 184.774737 
L 428.80505 183.595789 
L 429.74934 183.595789 
L 430.064103 182.416842 
L 431.008394 182.416842 
L 431.323157 178.88 
L 433.526501 178.88 
L 433.841264 175.343158 
L 434.785555 175.343158 
L 435.100318 169.448421 
L 436.044608 169.448421 
L 436.359372 160.016842 
L 437.303662 160.016842 
L 437.618426 154.122105 
L 438.562716 154.122105 
L 438.877479 147.048421 
L 439.821769 147.048421 
L 440.136533 141.153684 
L 441.080823 141.153684 
L 441.395587 135.258947 
L 442.339877 135.258947 
L 442.65464 129.364211 
L 443.59893 129.364211 
L 443.59893 129.364211 
" clip-path="url(#pca56330607)" style="fill: none; stroke: #008000; stroke-width: 1.5; stroke-linecap: square"/>
   </g>
   <g id="patch_9">
    <path d="M 286.941176 512.64 
L 286.941176 69.12 
" style="fill: none; stroke: #000000; stroke-width: 0.8; stroke-linejoin: miter; stroke-linecap: square"/>
   </g>
   <g id="patch_10">
    <path d="M 451.058824 512.64 
L 451.058824 69.12 
" style="fill: none; stroke: #000000; stroke-width: 0.8; stroke-linejoin: miter; stroke-linecap: square"/>
   </g>
   <g id="patch_11">
    <path d="M 286.941176 512.64 
L 451.058824 512.64 
" style="fill: none; stroke: #000000; stroke-width: 0.8; stroke-linejoin: miter; stroke-linecap: square"/>
   </g>
   <g id="patch_12">
    <path d="M 286.941176 69.12 
L 451.058824 69.12 
" style="fill: none; stroke: #000000; stroke-width: 0.8; stroke-linejoin: miter; stroke-linecap: square"/>
   </g>
   <g id="legend_2">
    <g id="patch_13">
     <path d="M 293.941176 121.154375 
L 393.863051 121.154375 
Q 395.863051 121.154375 395.863051 119.154375 
L 395.863051 76.12 
Q 395.863051 74.12 393.863051 74.12 
L 293.941176 74.12 
Q 291.941176 74.12 291.941176 76.12 
L 291.941176 119.154375 
Q 291.941176 121.154375 293.941176 121.154375 
z
" style="fill: #ffffff; opacity: 0.8; stroke: #cccccc; stroke-linejoin: miter"/>
    </g>
    <g id="line2d_29">
     <path d="M 295.941176 82.218438 
L 305.941176 82.218438 
L 315.941176 82.218438 
" style="fill: none; stroke: #0000ff; stroke-width: 1.5; stroke-linecap: square"/>
    </g>
    <g id="text_23">
     <!-- O1 requested -->
     <g transform="translate(323.941176 85.718438) scale(0.1 -0.1)">
      <defs>
       <path id="DejaVuSans-72" d="M 2631 2963 
Q 2534 3019 2420 3045 
Q 2306 3072 2169 3072 
Q 1681 3072 1420 2755 
Q 1159 2438 1159 1844 
L 1159 0 
L 581 0 
L 581 3500 
L 1159 3500 
L 1159 2956 
Q 1341 3275 1631 3429 
Q 1922 3584 2338 3584 
Q 2397 3584 2469 3576 
Q 2541 3569 2628 3553 
L 2631 2963 
z
" transform="scale(0.015625)"/>
       <path id="DejaVuSans-65" d="M 3597 1894 
L 3597 1613 
L 953 1613 
Q 991 1019 1311 708 
Q 1631 397 2203 397 
Q 2534 397 2845 478 
Q 3156 559 3463 722 
L 3463 178 
Q 3153 47 2828 -22 
Q 2503 -91 2169 -91 
Q 1331 -91 842 396 
Q 353 884 353 1716 
Q 353 2575 817 3079 
Q 1281 3584 2069 3584 
Q 2775 3584 3186 3129 
Q 3597 2675 3597 1894 
z
M 3022 2063 
Q 3016 2534 2758 2815 
Q 2500 3097 2075 3097 
Q 1594 3097 1305 2825 
Q 1016 2553 972 2059 
L 3022 2063 
z
" transform="scale(0.015625)"/>
       <path id="DejaVuSans-71" d="M 947 1747 
Q 947 1113 1208 752 
Q 1469 391 1925 391 
Q 2381 391 2643 752 
Q 2906 1113 2906 1747 
Q 2906 2381 2643 2742 
Q 2381 3103 1925 3103 
Q 1469 3103 1208 2742 
Q 947 2381 947 1747 
z
M 2906 525 
Q 2725 213 2448 61 
Q 2172 -91 1784 -91 
Q 1150 -91 751 415 
Q 353 922 353 1747 
Q 353 2572 751 3078 
Q 1150 3584 1784 3584 
Q 2172 3584 2448 3432 
Q 2725 3281 2906 2969 
L 2906 3500 
L 3481 3500 
L 3481 -1331 
L 2906 -1331 
L 2906 525 
z
" transform="scale(0.015625)"/>
       <path id="DejaVuSans-73" d="M 2834 3397 
L 2834 2853 
Q 2591 2978 2328 3040 
Q 2066 3103 1784 3103 
Q 1356 3103 1142 2972 
Q 928 2841 928 2578 
Q 928 2378 1081 2264 
Q 1234 2150 1697 2047 
L 1894 2003 
Q 2506 1872 2764 1633 
Q 3022 1394 3022 966 
Q 3022 478 2636 193 
Q 2250 -91 1575 -91 
Q 1294 -91 989 -36 
Q 684 19 347 128 
L 347 722 
Q 666 556 975 473 
Q 1284 391 1588 391 
Q 1994 391 2212 530 
Q 2431 669 2431 922 
Q 2431 1156 2273 1281 
Q 2116 1406 1581 1522 
L 1381 1569 
Q 847 1681 609 1914 
Q 372 2147 372 2553 
Q 372 3047 722 3315 
Q 1072 3584 1716 3584 
Q 2034 3584 2315 3537 
Q 2597 3491 2834 3397 
z
" transform="scale(0.015625)"/>
       <path id="DejaVuSans-64" d="M 2906 2969 
L 2906 4863 
L 3481 4863 
L 3481 0 
L 2906 0 
L 2906 525 
Q 2725 213 2448 61 
Q 2172 -91 1784 -91 
Q 1150 -91 751 415 
Q 353 922 353 1747 
Q 353 2572 751 3078 
Q 1150 3584 1784 3584 
Q 2172 3584 2448 3432 
Q 2725 3281 2906 2969 
z
M 947 1747 
Q 947 1113 1208 752 
Q 1469 391 1925 391 
Q 2381 391 2643 752 
Q 2906 1113 2906 1747 
Q 2906 2381 2643 2742 
Q 2381 3103 1925 3103 
Q 1469 3103 1208 2742 
Q 947 2381 947 1747 
z
" transform="scale(0.015625)"/>
      </defs>
      <use xlink:href="#DejaVuSans-4f"/>
      <use xlink:href="#DejaVuSans-31" x="78.710938"/>
      <use xlink:href="#DejaVuSans-20" x="142.333984"/>
      <use xlink:href="#DejaVuSans-72" x="174.121094"/>
      <use xlink:href="#DejaVuSans-65" x="212.984375"/>
      <use xlink:href="#DejaVuSans-71" x="274.507812"/>
      <use xlink:href="#DejaVuSans-75" x="337.984375"/>
      <use xlink:href="#DejaVuSans-65" x="401.363281"/>
      <use xlink:href="#DejaVuSans-73" x="462.886719"/>
      <use xlink:href="#DejaVuSans-74" x="514.986328"/>
      <use xlink:href="#DejaVuSans-65" x="554.195312"/>
      <use xlink:href="#DejaVuSans-64" x="615.71875"/>
     </g>
    </g>
    <g id="line2d_30">
     <path d="M 295.941176 96.896563 
L 305.941176 96.896563 
L 315.941176 96.896563 
" style="fill: none; stroke: #ff0000; stroke-width: 1.5; stroke-linecap: square"/>
    </g>
    <g id="text_24">
     <!-- O2 requested -->
     <g transform="translate(323.941176 100.396563) scale(0.1 -0.1)">
      <use xlink:href="#DejaVuSans-4f"/>
      <use xlink:href="#DejaVuSans-32" x="78.710938"/>
      <use xlink:href="#DejaVuSans-20" x="142.333984"/>
      <use xlink:href="#DejaVuSans-72" x="174.121094"/>
      <use xlink:href="#DejaVuSans-65" x="212.984375"/>
      <use xlink:href="#DejaVuSans-71" x="274.507812"/>
      <use xlink:href="#DejaVuSans-75" x="337.984375"/>
      <use xlink:href="#DejaVuSans-65" x="401.363281"/>
      <use xlink:href="#DejaVuSans-73" x="462.886719"/>
      <use xlink:href="#DejaVuSans-74" x="514.986328"/>
      <use xlink:href="#DejaVuSans-65" x="554.195312"/>
      <use xlink:href="#DejaVuSans-64" x="615.71875"/>
     </g>
    </g>
    <g id="line2d_31">
     <path d="M 295.941176 111.574688 
L 305.941176 111.574688 
L 315.941176 111.574688 
" style="fill: none; stroke: #008000; stroke-width: 1.5; stroke-linecap: square"/>
    </g>
    <g id="text_25">
     <!-- O3 requested -->
     <g transform="translate(323.941176 115.074688) scale(0.1 -0.1)">
      <use xlink:href="#DejaVuSans-4f"/>
      <use xlink:href="#DejaVuSans-33" x="78.710938"/>
      <use xlink:href="#DejaVuSans-20" x="142.333984"/>
      <use xlink:href="#DejaVuSans-72" x="174.121094"/>
      <use xlink:href="#DejaVuSans-65" x="212.984375"/>
      <use xlink:href="#DejaVuSans-71" x="274.507812"/>
      <use xlink:href="#DejaVuSans-75" x="337.984375"/>
      <use xlink:href="#DejaVuSans-65" x="401.363281"/>
      <use xlink:href="#DejaVuSans-73" x="462.886719"/>
      <use xlink:href="#DejaVuSans-74" x="514.986328"/>
      <use xlink:href="#DejaVuSans-65" x="554.195312"/>
      <use xlink:href="#DejaVuSans-64" x="615.71875"/>
     </g>
    </g>
   </g>
  </g>
  <g id="axes_3">
   <g id="patch_14">
    <path d="M 483.882353 512.64 
L 648 512.64 
L 648 69.12 
L 483.882353 69.12 
z
" style="fill: #ffffff"/>
   </g>
   <g id="matplotlib.axis_5">
    <g id="xtick_7">
     <g id="line2d_32">
      <g>
       <use xlink:href="#mcf6919d862" x="491.027483" y="512.64" style="stroke: #000000; stroke-width: 0.8"/>
      </g>
     </g>
     <g id="text_26">
      <!-- 0 -->
      <g transform="translate(487.846233 527.238438) scale(0.1 -0.1)">
       <use xlink:href="#DejaVuSans-30"/>
      </g>
     </g>
    </g>
    <g id="xtick_8">
     <g id="line2d_33">
      <g>
       <use xlink:href="#mcf6919d862" x="553.980167" y="512.64" style="stroke: #000000; stroke-width: 0.8"/>
      </g>
     </g>
     <g id="text_27">
      <!-- 200 -->
      <g transform="translate(544.436417 527.238438) scale(0.1 -0.1)">
       <use xlink:href="#DejaVuSans-32"/>
       <use xlink:href="#DejaVuSans-30" x="63.623047"/>
       <use xlink:href="#DejaVuSans-30" x="127.246094"/>
      </g>
     </g>
    </g>
    <g id="xtick_9">
     <g id="line2d_34">
      <g>
       <use xlink:href="#mcf6919d862" x="616.93285" y="512.64" style="stroke: #000000; stroke-width: 0.8"/>
      </g>
     </g>
     <g id="text_28">
      <!-- 400 -->
      <g transform="translate(607.3891 527.238438) scale(0.1 -0.1)">
       <use xlink:href="#DejaVuSans-34"/>
       <use xlink:href="#DejaVuSans-30" x="63.623047"/>
       <use xlink:href="#DejaVuSans-30" x="127.246094"/>
      </g>
     </g>
    </g>
   </g>
   <g id="matplotlib.axis_6">
    <g id="ytick_14">
     <g id="line2d_35">
      <g>
       <use xlink:href="#m0838083d59" x="483.882353" y="492.48" style="stroke: #000000; stroke-width: 0.8"/>
      </g>
     </g>
     <g id="text_29">
      <!-- 0 -->
      <g transform="translate(470.519853 496.279219) scale(0.1 -0.1)">
       <use xlink:href="#DejaVuSans-30"/>
      </g>
     </g>
    </g>
    <g id="ytick_15">
     <g id="line2d_36">
      <g>
       <use xlink:href="#m0838083d59" x="483.882353" y="404.827826" style="stroke: #000000; stroke-width: 0.8"/>
      </g>
     </g>
     <g id="text_30">
      <!-- 20 -->
      <g transform="translate(464.157353 408.627045) scale(0.1 -0.1)">
       <use xlink:href="#DejaVuSans-32"/>
       <use xlink:href="#DejaVuSans-30" x="63.623047"/>
      </g>
     </g>
    </g>
    <g id="ytick_16">
     <g id="line2d_37">
      <g>
       <use xlink:href="#m0838083d59" x="483.882353" y="317.175652" style="stroke: #000000; stroke-width: 0.8"/>
      </g>
     </g>
     <g id="text_31">
      <!-- 40 -->
      <g transform="translate(464.157353 320.974871) scale(0.1 -0.1)">
       <use xlink:href="#DejaVuSans-34"/>
       <use xlink:href="#DejaVuSans-30" x="63.623047"/>
      </g>
     </g>
    </g>
    <g id="ytick_17">
     <g id="line2d_38">
      <g>
       <use xlink:href="#m0838083d59" x="483.882353" y="229.523478" style="stroke: #000000; stroke-width: 0.8"/>
      </g>
     </g>
     <g id="text_32">
      <!-- 60 -->
      <g transform="translate(464.157353 233.322697) scale(0.1 -0.1)">
       <defs>
        <path id="DejaVuSans-36" d="M 2113 2584 
Q 1688 2584 1439 2293 
Q 1191 2003 1191 1497 
Q 1191 994 1439 701 
Q 1688 409 2113 409 
Q 2538 409 2786 701 
Q 3034 994 3034 1497 
Q 3034 2003 2786 2293 
Q 2538 2584 2113 2584 
z
M 3366 4563 
L 3366 3988 
Q 3128 4100 2886 4159 
Q 2644 4219 2406 4219 
Q 1781 4219 1451 3797 
Q 1122 3375 1075 2522 
Q 1259 2794 1537 2939 
Q 1816 3084 2150 3084 
Q 2853 3084 3261 2657 
Q 3669 2231 3669 1497 
Q 3669 778 3244 343 
Q 2819 -91 2113 -91 
Q 1303 -91 875 529 
Q 447 1150 447 2328 
Q 447 3434 972 4092 
Q 1497 4750 2381 4750 
Q 2619 4750 2861 4703 
Q 3103 4656 3366 4563 
z
" transform="scale(0.015625)"/>
       </defs>
       <use xlink:href="#DejaVuSans-36"/>
       <use xlink:href="#DejaVuSans-30" x="63.623047"/>
      </g>
     </g>
    </g>
    <g id="ytick_18">
     <g id="line2d_39">
      <g>
       <use xlink:href="#m0838083d59" x="483.882353" y="141.871304" style="stroke: #000000; stroke-width: 0.8"/>
      </g>
     </g>
     <g id="text_33">
      <!-- 80 -->
      <g transform="translate(464.157353 145.670523) scale(0.1 -0.1)">
       <defs>
        <path id="DejaVuSans-38" d="M 2034 2216 
Q 1584 2216 1326 1975 
Q 1069 1734 1069 1313 
Q 1069 891 1326 650 
Q 1584 409 2034 409 
Q 2484 409 2743 651 
Q 3003 894 3003 1313 
Q 3003 1734 2745 1975 
Q 2488 2216 2034 2216 
z
M 1403 2484 
Q 997 2584 770 2862 
Q 544 3141 544 3541 
Q 544 4100 942 4425 
Q 1341 4750 2034 4750 
Q 2731 4750 3128 4425 
Q 3525 4100 3525 3541 
Q 3525 3141 3298 2862 
Q 3072 2584 2669 2484 
Q 3125 2378 3379 2068 
Q 3634 1759 3634 1313 
Q 3634 634 3220 271 
Q 2806 -91 2034 -91 
Q 1263 -91 848 271 
Q 434 634 434 1313 
Q 434 1759 690 2068 
Q 947 2378 1403 2484 
z
M 1172 3481 
Q 1172 3119 1398 2916 
Q 1625 2713 2034 2713 
Q 2441 2713 2670 2916 
Q 2900 3119 2900 3481 
Q 2900 3844 2670 4047 
Q 2441 4250 2034 4250 
Q 1625 4250 1398 4047 
Q 1172 3844 1172 3481 
z
" transform="scale(0.015625)"/>
       </defs>
       <use xlink:href="#DejaVuSans-38"/>
       <use xlink:href="#DejaVuSans-30" x="63.623047"/>
      </g>
     </g>
    </g>
   </g>
   <g id="line2d_40">
    <path d="M 491.342246 492.48 
L 507.080417 492.48 
L 507.39518 488.097391 
L 509.598524 488.097391 
L 509.913288 483.714783 
L 640.540107 483.714783 
L 640.540107 483.714783 
" clip-path="url(#pdbd567dac1)" style="fill: none; stroke: #0000ff; stroke-width: 1.5; stroke-linecap: square"/>
   </g>
   <g id="line2d_41">
    <path d="M 491.342246 492.48 
L 504.56231 492.48 
L 504.877073 488.097391 
L 505.821363 488.097391 
L 506.136127 474.949565 
L 508.339471 474.949565 
L 508.654234 470.566957 
L 510.857578 470.566957 
L 511.172341 453.036522 
L 512.116632 453.036522 
L 512.431395 435.506087 
L 513.375685 435.506087 
L 513.690449 426.74087 
L 514.634739 426.74087 
L 514.949502 409.210435 
L 515.893793 409.210435 
L 516.208556 396.062609 
L 522.189061 396.062609 
L 522.503825 391.68 
L 525.966222 391.68 
L 526.280986 387.297391 
L 529.743383 387.297391 
L 530.058147 378.532174 
L 531.002437 378.532174 
L 531.3172 374.149565 
L 532.261491 374.149565 
L 532.576254 369.766957 
L 534.779598 369.766957 
L 535.094361 352.236522 
L 536.038652 352.236522 
L 536.353415 330.323478 
L 537.297705 330.323478 
L 537.612469 325.94087 
L 538.556759 325.94087 
L 538.871522 312.793043 
L 539.815813 312.793043 
L 540.130576 286.497391 
L 541.074866 286.497391 
L 541.38963 268.966957 
L 554.924457 268.966957 
L 555.23922 264.584348 
L 558.701618 264.584348 
L 559.016381 260.201739 
L 559.960671 260.201739 
L 560.275435 255.81913 
L 561.219725 255.81913 
L 561.534489 251.436522 
L 563.737833 251.436522 
L 564.052596 247.053913 
L 568.774047 247.053913 
L 569.088811 242.671304 
L 570.033101 242.671304 
L 570.347864 229.523478 
L 571.292155 229.523478 
L 571.606918 216.375652 
L 572.551208 216.375652 
L 572.865972 194.462609 
L 573.810262 194.462609 
L 574.125025 172.549565 
L 575.069316 172.549565 
L 575.384079 159.401739 
L 576.328369 159.401739 
L 576.643133 141.871304 
L 577.587423 141.871304 
L 577.902186 119.958261 
L 578.846477 119.958261 
L 579.16124 111.193043 
L 580.10553 111.193043 
L 580.420294 102.427826 
L 583.882691 102.427826 
L 584.197455 98.045217 
L 585.141745 98.045217 
L 585.456508 89.28 
L 640.540107 89.28 
L 640.540107 89.28 
" clip-path="url(#pdbd567dac1)" style="fill: none; stroke: #ff0000; stroke-width: 1.5; stroke-linecap: square"/>
   </g>
   <g id="line2d_42">
    <path d="M 491.342246 492.48 
L 504.56231 492.48 
L 504.877073 479.332174 
L 505.821363 479.332174 
L 506.136127 474.949565 
L 507.080417 474.949565 
L 507.39518 470.566957 
L 509.598524 470.566957 
L 509.913288 466.184348 
L 640.540107 466.184348 
L 640.540107 466.184348 
" clip-path="url(#pdbd567dac1)" style="fill: none; stroke: #008000; stroke-width: 1.5; stroke-linecap: square"/>
   </g>
   <g id="patch_15">
    <path d="M 483.882353 512.64 
L 483.882353 69.12 
" style="fill: none; stroke: #000000; stroke-width: 0.8; stroke-linejoin: miter; stroke-linecap: square"/>
   </g>
   <g id="patch_16">
    <path d="M 648 512.64 
L 648 69.12 
" style="fill: none; stroke: #000000; stroke-width: 0.8; stroke-linejoin: miter; stroke-linecap: square"/>
   </g>
   <g id="patch_17">
    <path d="M 483.882353 512.64 
L 648 512.64 
" style="fill: none; stroke: #000000; stroke-width: 0.8; stroke-linejoin: miter; stroke-linecap: square"/>
   </g>
   <g id="patch_18">
    <path d="M 483.882353 69.12 
L 648 69.12 
" style="fill: none; stroke: #000000; stroke-width: 0.8; stroke-linejoin: miter; stroke-linecap: square"/>
   </g>
   <g id="legend_3">
    <g id="patch_19">
     <path d="M 490.882353 121.154375 
L 580.719853 121.154375 
Q 582.719853 121.154375 582.719853 119.154375 
L 582.719853 76.12 
Q 582.719853 74.12 580.719853 74.12 
L 490.882353 74.12 
Q 488.882353 74.12 488.882353 76.12 
L 488.882353 119.154375 
Q 488.882353 121.154375 490.882353 121.154375 
z
" style="fill: #ffffff; opacity: 0.8; stroke: #cccccc; stroke-linejoin: miter"/>
    </g>
    <g id="line2d_43">
     <path d="M 492.882353 82.218438 
L 502.882353 82.218438 
L 512.882353 82.218438 
" style="fill: none; stroke: #0000ff; stroke-width: 1.5; stroke-linecap: square"/>
    </g>
    <g id="text_34">
     <!-- O1 ensured -->
     <g transform="translate(520.882353 85.718438) scale(0.1 -0.1)">
      <defs>
       <path id="DejaVuSans-6e" d="M 3513 2113 
L 3513 0 
L 2938 0 
L 2938 2094 
Q 2938 2591 2744 2837 
Q 2550 3084 2163 3084 
Q 1697 3084 1428 2787 
Q 1159 2491 1159 1978 
L 1159 0 
L 581 0 
L 581 3500 
L 1159 3500 
L 1159 2956 
Q 1366 3272 1645 3428 
Q 1925 3584 2291 3584 
Q 2894 3584 3203 3211 
Q 3513 2838 3513 2113 
z
" transform="scale(0.015625)"/>
      </defs>
      <use xlink:href="#DejaVuSans-4f"/>
      <use xlink:href="#DejaVuSans-31" x="78.710938"/>
      <use xlink:href="#DejaVuSans-20" x="142.333984"/>
      <use xlink:href="#DejaVuSans-65" x="174.121094"/>
      <use xlink:href="#DejaVuSans-6e" x="235.644531"/>
      <use xlink:href="#DejaVuSans-73" x="299.023438"/>
      <use xlink:href="#DejaVuSans-75" x="351.123047"/>
      <use xlink:href="#DejaVuSans-72" x="414.501953"/>
      <use xlink:href="#DejaVuSans-65" x="453.365234"/>
      <use xlink:href="#DejaVuSans-64" x="514.888672"/>
     </g>
    </g>
    <g id="line2d_44">
     <path d="M 492.882353 96.896563 
L 502.882353 96.896563 
L 512.882353 96.896563 
" style="fill: none; stroke: #ff0000; stroke-width: 1.5; stroke-linecap: square"/>
    </g>
    <g id="text_35">
     <!-- O2 ensured -->
     <g transform="translate(520.882353 100.396563) scale(0.1 -0.1)">
      <use xlink:href="#DejaVuSans-4f"/>
      <use xlink:href="#DejaVuSans-32" x="78.710938"/>
      <use xlink:href="#DejaVuSans-20" x="142.333984"/>
      <use xlink:href="#DejaVuSans-65" x="174.121094"/>
      <use xlink:href="#DejaVuSans-6e" x="235.644531"/>
      <use xlink:href="#DejaVuSans-73" x="299.023438"/>
      <use xlink:href="#DejaVuSans-75" x="351.123047"/>
      <use xlink:href="#DejaVuSans-72" x="414.501953"/>
      <use xlink:href="#DejaVuSans-65" x="453.365234"/>
      <use xlink:href="#DejaVuSans-64" x="514.888672"/>
     </g>
    </g>
    <g id="line2d_45">
     <path d="M 492.882353 111.574688 
L 502.882353 111.574688 
L 512.882353 111.574688 
" style="fill: none; stroke: #008000; stroke-width: 1.5; stroke-linecap: square"/>
    </g>
    <g id="text_36">
     <!-- O3 ensured -->
     <g transform="translate(520.882353 115.074688) scale(0.1 -0.1)">
      <use xlink:href="#DejaVuSans-4f"/>
      <use xlink:href="#DejaVuSans-33" x="78.710938"/>
      <use xlink:href="#DejaVuSans-20" x="142.333984"/>
      <use xlink:href="#DejaVuSans-65" x="174.121094"/>
      <use xlink:href="#DejaVuSans-6e" x="235.644531"/>
      <use xlink:href="#DejaVuSans-73" x="299.023438"/>
      <use xlink:href="#DejaVuSans-75" x="351.123047"/>
      <use xlink:href="#DejaVuSans-72" x="414.501953"/>
      <use xlink:href="#DejaVuSans-65" x="453.365234"/>
      <use xlink:href="#DejaVuSans-64" x="514.888672"/>
     </g>
    </g>
   </g>
  </g>
 </g>
 <defs>
  <clipPath id="p0ed24e3d21">
   <rect x="90" y="69.12" width="164.117647" height="443.52"/>
  </clipPath>
  <clipPath id="pca56330607">
   <rect x="286.941176" y="69.12" width="164.117647" height="443.52"/>
  </clipPath>
  <clipPath id="pdbd567dac1">
   <rect x="483.882353" y="69.12" width="164.117647" height="443.52"/>
  </clipPath>
 </defs>
</svg>
