<?xml version="1.0" encoding="utf-8" standalone="no"?>
<!DOCTYPE svg PUBLIC "-//W3C//DTD SVG 1.1//EN"
  "http://www.w3.org/Graphics/SVG/1.1/DTD/svg11.dtd">
<svg xmlns:xlink="http://www.w3.org/1999/xlink" width="720pt" height="576pt" viewBox="0 0 720 576" xmlns="http://www.w3.org/2000/svg" version="1.1">
 <metadata>
  <rdf:RDF xmlns:dc="http://purl.org/dc/elements/1.1/" xmlns:cc="http://creativecommons.org/ns#" xmlns:rdf="http://www.w3.org/1999/02/22-rdf-syntax-ns#">
   <cc:Work>
    <dc:type rdf:resource="http://purl.org/dc/dcmitype/StillImage"/>
    <dc:date>2023-05-31T19:35:20.208730</dc:date>
    <dc:format>image/svg+xml</dc:format>
    <dc:creator>
     <cc:Agent>
      <dc:title>Matplotlib v3.7.1, https://matplotlib.org/</dc:title>
     </cc:Agent>
    </dc:creator>
   </cc:Work>
  </rdf:RDF>
 </metadata>
 <defs>
  <style type="text/css">*{stroke-linejoin: round; stroke-linecap: butt}</style>
 </defs>
 <g id="figure_1">
  <g id="patch_1">
   <path d="M 0 576 
L 720 576 
L 720 0 
L 0 0 
z
" style="fill: #ffffff"/>
  </g>
  <g id="axes_1">
   <g id="patch_2">
    <path d="M 90 512.64 
L 254.117647 512.64 
L 254.117647 69.12 
L 90 69.12 
z
" style="fill: #ffffff"/>
   </g>
   <g id="matplotlib.axis_1">
    <g id="xtick_1">
     <g id="line2d_1">
      <defs>
       <path id="mcf460bfe1d" d="M 0 0 
L 0 3.5 
" style="stroke: #000000; stroke-width: 0.8"/>
      </defs>
      <g>
       <use xlink:href="#mcf460bfe1d" x="97.305922" y="512.64" style="stroke: #000000; stroke-width: 0.8"/>
      </g>
     </g>
     <g id="text_1">
      <!-- 0 -->
      <g transform="translate(94.124672 527.238438) scale(0.1 -0.1)">
       <defs>
        <path id="DejaVuSans-30" d="M 2034 4250 
Q 1547 4250 1301 3770 
Q 1056 3291 1056 2328 
Q 1056 1369 1301 889 
Q 1547 409 2034 409 
Q 2525 409 2770 889 
Q 3016 1369 3016 2328 
Q 3016 3291 2770 3770 
Q 2525 4250 2034 4250 
z
M 2034 4750 
Q 2819 4750 3233 4129 
Q 3647 3509 3647 2328 
Q 3647 1150 3233 529 
Q 2819 -91 2034 -91 
Q 1250 -91 836 529 
Q 422 1150 422 2328 
Q 422 3509 836 4129 
Q 1250 4750 2034 4750 
z
" transform="scale(0.015625)"/>
       </defs>
       <use xlink:href="#DejaVuSans-30"/>
      </g>
     </g>
    </g>
    <g id="xtick_2">
     <g id="line2d_2">
      <g>
       <use xlink:href="#mcf460bfe1d" x="135.798662" y="512.64" style="stroke: #000000; stroke-width: 0.8"/>
      </g>
     </g>
     <g id="text_2">
      <!-- 250 -->
      <g transform="translate(126.254912 527.238438) scale(0.1 -0.1)">
       <defs>
        <path id="DejaVuSans-32" d="M 1228 531 
L 3431 531 
L 3431 0 
L 469 0 
L 469 531 
Q 828 903 1448 1529 
Q 2069 2156 2228 2338 
Q 2531 2678 2651 2914 
Q 2772 3150 2772 3378 
Q 2772 3750 2511 3984 
Q 2250 4219 1831 4219 
Q 1534 4219 1204 4116 
Q 875 4013 500 3803 
L 500 4441 
Q 881 4594 1212 4672 
Q 1544 4750 1819 4750 
Q 2544 4750 2975 4387 
Q 3406 4025 3406 3419 
Q 3406 3131 3298 2873 
Q 3191 2616 2906 2266 
Q 2828 2175 2409 1742 
Q 1991 1309 1228 531 
z
" transform="scale(0.015625)"/>
        <path id="DejaVuSans-35" d="M 691 4666 
L 3169 4666 
L 3169 4134 
L 1269 4134 
L 1269 2991 
Q 1406 3038 1543 3061 
Q 1681 3084 1819 3084 
Q 2600 3084 3056 2656 
Q 3513 2228 3513 1497 
Q 3513 744 3044 326 
Q 2575 -91 1722 -91 
Q 1428 -91 1123 -41 
Q 819 9 494 109 
L 494 744 
Q 775 591 1075 516 
Q 1375 441 1709 441 
Q 2250 441 2565 725 
Q 2881 1009 2881 1497 
Q 2881 1984 2565 2268 
Q 2250 2553 1709 2553 
Q 1456 2553 1204 2497 
Q 953 2441 691 2322 
L 691 4666 
z
" transform="scale(0.015625)"/>
       </defs>
       <use xlink:href="#DejaVuSans-32"/>
       <use xlink:href="#DejaVuSans-35" x="63.623047"/>
       <use xlink:href="#DejaVuSans-30" x="127.246094"/>
      </g>
     </g>
    </g>
    <g id="xtick_3">
     <g id="line2d_3">
      <g>
       <use xlink:href="#mcf460bfe1d" x="174.291402" y="512.64" style="stroke: #000000; stroke-width: 0.8"/>
      </g>
     </g>
     <g id="text_3">
      <!-- 500 -->
      <g transform="translate(164.747652 527.238438) scale(0.1 -0.1)">
       <use xlink:href="#DejaVuSans-35"/>
       <use xlink:href="#DejaVuSans-30" x="63.623047"/>
       <use xlink:href="#DejaVuSans-30" x="127.246094"/>
      </g>
     </g>
    </g>
    <g id="xtick_4">
     <g id="line2d_4">
      <g>
       <use xlink:href="#mcf460bfe1d" x="212.784143" y="512.64" style="stroke: #000000; stroke-width: 0.8"/>
      </g>
     </g>
     <g id="text_4">
      <!-- 750 -->
      <g transform="translate(203.240393 527.238438) scale(0.1 -0.1)">
       <defs>
        <path id="DejaVuSans-37" d="M 525 4666 
L 3525 4666 
L 3525 4397 
L 1831 0 
L 1172 0 
L 2766 4134 
L 525 4134 
L 525 4666 
z
" transform="scale(0.015625)"/>
       </defs>
       <use xlink:href="#DejaVuSans-37"/>
       <use xlink:href="#DejaVuSans-35" x="63.623047"/>
       <use xlink:href="#DejaVuSans-30" x="127.246094"/>
      </g>
     </g>
    </g>
    <g id="xtick_5">
     <g id="line2d_5">
      <g>
       <use xlink:href="#mcf460bfe1d" x="251.276883" y="512.64" style="stroke: #000000; stroke-width: 0.8"/>
      </g>
     </g>
     <g id="text_5">
      <!-- 1000 -->
      <g transform="translate(238.551883 527.238438) scale(0.1 -0.1)">
       <defs>
        <path id="DejaVuSans-31" d="M 794 531 
L 1825 531 
L 1825 4091 
L 703 3866 
L 703 4441 
L 1819 4666 
L 2450 4666 
L 2450 531 
L 3481 531 
L 3481 0 
L 794 0 
L 794 531 
z
" transform="scale(0.015625)"/>
       </defs>
       <use xlink:href="#DejaVuSans-31"/>
       <use xlink:href="#DejaVuSans-30" x="63.623047"/>
       <use xlink:href="#DejaVuSans-30" x="127.246094"/>
       <use xlink:href="#DejaVuSans-30" x="190.869141"/>
      </g>
     </g>
    </g>
   </g>
   <g id="matplotlib.axis_2">
    <g id="ytick_1">
     <g id="line2d_6">
      <defs>
       <path id="m73b3d53add" d="M 0 0 
L -3.5 0 
" style="stroke: #000000; stroke-width: 0.8"/>
      </defs>
      <g>
       <use xlink:href="#m73b3d53add" x="90" y="492.48" style="stroke: #000000; stroke-width: 0.8"/>
      </g>
     </g>
     <g id="text_6">
      <!-- 0.0 -->
      <g transform="translate(67.096875 496.279219) scale(0.1 -0.1)">
       <defs>
        <path id="DejaVuSans-2e" d="M 684 794 
L 1344 794 
L 1344 0 
L 684 0 
L 684 794 
z
" transform="scale(0.015625)"/>
       </defs>
       <use xlink:href="#DejaVuSans-30"/>
       <use xlink:href="#DejaVuSans-2e" x="63.623047"/>
       <use xlink:href="#DejaVuSans-30" x="95.410156"/>
      </g>
     </g>
    </g>
    <g id="ytick_2">
     <g id="line2d_7">
      <g>
       <use xlink:href="#m73b3d53add" x="90" y="405.705578" style="stroke: #000000; stroke-width: 0.8"/>
      </g>
     </g>
     <g id="text_7">
      <!-- 0.1 -->
      <g transform="translate(67.096875 409.504796) scale(0.1 -0.1)">
       <use xlink:href="#DejaVuSans-30"/>
       <use xlink:href="#DejaVuSans-2e" x="63.623047"/>
       <use xlink:href="#DejaVuSans-31" x="95.410156"/>
      </g>
     </g>
    </g>
    <g id="ytick_3">
     <g id="line2d_8">
      <g>
       <use xlink:href="#m73b3d53add" x="90" y="318.931155" style="stroke: #000000; stroke-width: 0.8"/>
      </g>
     </g>
     <g id="text_8">
      <!-- 0.2 -->
      <g transform="translate(67.096875 322.730374) scale(0.1 -0.1)">
       <use xlink:href="#DejaVuSans-30"/>
       <use xlink:href="#DejaVuSans-2e" x="63.623047"/>
       <use xlink:href="#DejaVuSans-32" x="95.410156"/>
      </g>
     </g>
    </g>
    <g id="ytick_4">
     <g id="line2d_9">
      <g>
       <use xlink:href="#m73b3d53add" x="90" y="232.156733" style="stroke: #000000; stroke-width: 0.8"/>
      </g>
     </g>
     <g id="text_9">
      <!-- 0.3 -->
      <g transform="translate(67.096875 235.955951) scale(0.1 -0.1)">
       <defs>
        <path id="DejaVuSans-33" d="M 2597 2516 
Q 3050 2419 3304 2112 
Q 3559 1806 3559 1356 
Q 3559 666 3084 287 
Q 2609 -91 1734 -91 
Q 1441 -91 1130 -33 
Q 819 25 488 141 
L 488 750 
Q 750 597 1062 519 
Q 1375 441 1716 441 
Q 2309 441 2620 675 
Q 2931 909 2931 1356 
Q 2931 1769 2642 2001 
Q 2353 2234 1838 2234 
L 1294 2234 
L 1294 2753 
L 1863 2753 
Q 2328 2753 2575 2939 
Q 2822 3125 2822 3475 
Q 2822 3834 2567 4026 
Q 2313 4219 1838 4219 
Q 1578 4219 1281 4162 
Q 984 4106 628 3988 
L 628 4550 
Q 988 4650 1302 4700 
Q 1616 4750 1894 4750 
Q 2613 4750 3031 4423 
Q 3450 4097 3450 3541 
Q 3450 3153 3228 2886 
Q 3006 2619 2597 2516 
z
" transform="scale(0.015625)"/>
       </defs>
       <use xlink:href="#DejaVuSans-30"/>
       <use xlink:href="#DejaVuSans-2e" x="63.623047"/>
       <use xlink:href="#DejaVuSans-33" x="95.410156"/>
      </g>
     </g>
    </g>
    <g id="ytick_5">
     <g id="line2d_10">
      <g>
       <use xlink:href="#m73b3d53add" x="90" y="145.38231" style="stroke: #000000; stroke-width: 0.8"/>
      </g>
     </g>
     <g id="text_10">
      <!-- 0.4 -->
      <g transform="translate(67.096875 149.181529) scale(0.1 -0.1)">
       <defs>
        <path id="DejaVuSans-34" d="M 2419 4116 
L 825 1625 
L 2419 1625 
L 2419 4116 
z
M 2253 4666 
L 3047 4666 
L 3047 1625 
L 3713 1625 
L 3713 1100 
L 3047 1100 
L 3047 0 
L 2419 0 
L 2419 1100 
L 313 1100 
L 313 1709 
L 2253 4666 
z
" transform="scale(0.015625)"/>
       </defs>
       <use xlink:href="#DejaVuSans-30"/>
       <use xlink:href="#DejaVuSans-2e" x="63.623047"/>
       <use xlink:href="#DejaVuSans-34" x="95.410156"/>
      </g>
     </g>
    </g>
   </g>
   <g id="line2d_11">
    <path d="M 97.459893 492.48 
L 105.158441 492.48 
L 105.312412 434.630385 
L 106.390209 434.630385 
L 106.54418 423.060462 
L 107.006093 423.060462 
L 107.160064 423.505459 
L 107.621976 423.505459 
L 107.775947 440.03392 
L 108.23786 440.03392 
L 108.391831 445.611099 
L 108.853744 445.611099 
L 109.007715 450.011037 
L 109.469628 450.011037 
L 109.623599 450.367253 
L 110.085512 450.367253 
L 110.239483 451.302323 
L 110.701396 451.302323 
L 110.855367 451.576232 
L 111.933163 451.576232 
L 112.087134 451.834029 
L 113.164931 451.834029 
L 113.318902 452.306656 
L 114.396699 452.306656 
L 114.55067 452.523809 
L 115.628466 452.523809 
L 115.782437 452.729534 
L 116.24435 452.729534 
L 116.398321 452.924708 
L 117.476118 452.924708 
L 117.630089 453.286494 
L 118.092002 453.286494 
L 118.245973 453.614626 
L 118.707886 453.614626 
L 118.861857 456.828493 
L 119.323769 456.828493 
L 119.47774 459.610901 
L 119.939653 459.610901 
L 120.247595 459.756985 
L 120.555537 459.756985 
L 120.709508 462.087992 
L 121.171421 462.087992 
L 121.325392 464.075934 
L 121.787305 464.075934 
L 122.095247 464.204147 
L 122.403189 464.204147 
L 122.55716 464.445187 
L 123.019073 464.445187 
L 123.327014 464.558617 
L 123.634956 464.558617 
L 123.788927 464.873702 
L 124.25084 464.873702 
L 124.404811 468.031651 
L 125.482608 468.122267 
L 125.636579 468.294285 
L 126.714376 468.375994 
L 127.022318 468.531503 
L 127.330259 468.531503 
L 127.638201 468.677294 
L 127.946143 468.677294 
L 128.100114 470.019449 
L 128.562027 470.019449 
L 128.715998 470.209994 
L 129.177911 470.209994 
L 129.485853 470.328079 
L 129.793795 470.328079 
L 129.947766 472.336746 
L 130.409679 472.336746 
L 130.56365 473.239083 
L 132.873214 473.239083 
L 133.027185 474.000262 
L 134.720866 474.108838 
L 135.028807 474.211701 
L 135.336749 474.211701 
L 135.49072 474.949814 
L 136.568517 474.949814 
L 136.722488 476.195688 
L 137.184401 476.195688 
L 137.338372 476.766629 
L 138.416169 476.766629 
L 138.57014 477.294476 
L 140.879704 477.382661 
L 141.033675 478.239693 
L 141.495588 478.239693 
L 141.649559 478.622296 
L 142.111472 478.622296 
L 142.265443 479.310982 
L 143.959123 479.394968 
L 144.113094 480.038079 
L 144.575007 480.038079 
L 144.728978 480.351557 
L 145.190891 480.351557 
L 145.344862 481.001902 
L 145.806775 481.001902 
L 145.960746 481.266781 
L 146.422659 481.266781 
L 146.57663 481.689658 
L 147.654426 481.791101 
L 147.808397 482.081444 
L 148.886194 482.081444 
L 149.040165 482.266859 
L 151.349729 482.3271 
L 151.5037 482.561327 
L 151.965613 482.561327 
L 152.119584 482.945067 
L 153.197381 482.972069 
L 153.351352 483.488745 
L 153.813265 483.488745 
L 154.121207 483.647563 
L 154.429149 483.647563 
L 154.583119 483.871426 
L 155.660916 483.871426 
L 155.814887 484.112466 
L 157.508568 484.157775 
L 157.81651 484.293268 
L 158.124452 484.293268 
L 158.432394 484.424019 
L 158.740335 484.424019 
L 158.894306 484.651348 
L 159.356219 484.651348 
L 159.51019 484.84265 
L 161.203871 484.904455 
L 161.665784 484.963245 
L 162.435638 484.98221 
L 162.74358 485.091488 
L 163.051522 485.091488 
L 163.205493 485.263506 
L 164.899174 485.363579 
L 165.515058 485.399448 
L 168.902419 485.687884 
L 169.826245 485.761937 
L 170.134187 485.849199 
L 170.442128 485.849199 
L 170.596099 486.016532 
L 171.673896 486.046049 
L 171.981838 486.203638 
L 172.28978 486.203638 
L 172.443751 486.411269 
L 172.905664 486.411269 
L 173.059635 486.590091 
L 173.521548 486.590091 
L 173.675519 486.804017 
L 175.369199 486.868743 
L 175.831112 486.915684 
L 176.600967 486.986165 
L 176.908909 487.086468 
L 177.832735 487.182416 
L 178.294647 487.222927 
L 178.448618 487.222927 
L 178.75656 487.350746 
L 179.680386 487.399338 
L 179.834357 487.606321 
L 180.29627 487.606321 
L 180.604212 487.753961 
L 180.912154 487.753961 
L 181.066125 487.918748 
L 182.143921 488.008786 
L 182.605834 488.059319 
L 183.375689 488.165404 
L 183.683631 488.231209 
L 184.607457 488.296267 
L 184.915399 488.358072 
L 186.455108 488.464556 
L 186.76305 488.563506 
L 188.918644 488.655747 
L 189.380557 488.712045 
L 190.150411 488.808872 
L 190.458353 488.878252 
L 191.382179 488.944746 
L 191.844092 489.00371 
L 193.229831 489.102838 
L 193.537773 489.163478 
L 195.077482 489.239987 
L 195.847337 489.322157 
L 198.156901 489.416086 
L 198.618814 489.465691 
L 199.388669 489.512651 
L 199.696611 489.580252 
L 201.236321 489.691273 
L 201.852204 489.729177 
L 202.468088 489.766115 
L 203.699856 489.807251 
L 206.317362 489.894144 
L 209.858694 489.994067 
L 211.552375 490.055557 
L 214.169881 490.147728 
L 215.247678 490.182065 
L 219.712836 490.271653 
L 220.636662 490.323466 
L 225.871674 490.420883 
L 226.7955 490.460597 
L 231.414629 490.56472 
L 233.108309 490.620683 
L 238.805235 490.724145 
L 240.652887 490.743186 
L 246.657754 490.828464 
L 246.657754 490.828464 
" clip-path="url(#p5f1ea1b86a)" style="fill: none; stroke: #0000ff; stroke-width: 1.5; stroke-linecap: square"/>
   </g>
   <g id="line2d_12">
    <path d="M 97.459893 492.48 
L 103.926673 492.48 
L 104.080644 481.355074 
L 104.542557 481.355074 
L 104.696528 440.828558 
L 105.158441 440.828558 
L 105.312412 441.897209 
L 105.774325 441.897209 
L 105.928296 428.5286 
L 106.390209 428.5286 
L 106.54418 429.526007 
L 107.006093 429.526007 
L 107.160064 355.406188 
L 107.621976 355.406188 
L 107.775947 300.109271 
L 108.23786 300.109271 
L 108.391831 277.320029 
L 108.853744 277.320029 
L 109.007715 247.634042 
L 109.469628 247.634042 
L 109.623599 232.039152 
L 110.085512 232.039152 
L 110.239483 234.22279 
L 110.701396 234.22279 
L 110.855367 239.748293 
L 111.31728 239.748293 
L 111.47125 244.866118 
L 111.933163 244.866118 
L 112.087134 254.059938 
L 112.549047 254.059938 
L 112.703018 239.226704 
L 114.396699 239.226704 
L 114.55067 228.251737 
L 116.24435 228.251737 
L 116.398321 214.73298 
L 116.860234 214.73298 
L 117.014205 214.542267 
L 117.476118 214.542267 
L 117.630089 206.713615 
L 118.092002 206.713615 
L 118.245973 213.944817 
L 118.707886 213.944817 
L 118.861857 197.829303 
L 119.323769 197.829303 
L 119.47774 177.155773 
L 119.939653 177.155773 
L 120.247595 177.315857 
L 120.555537 177.315857 
L 120.709508 165.210281 
L 121.171421 165.210281 
L 121.325392 143.262459 
L 121.787305 143.262459 
L 121.941276 130.843948 
L 122.403189 130.843948 
L 122.55716 139.958909 
L 123.019073 139.958909 
L 123.173043 154.943733 
L 123.634956 154.943733 
L 123.788927 156.966447 
L 124.25084 156.966447 
L 124.404811 162.97992 
L 124.866724 162.97992 
L 125.020695 170.926296 
L 125.482608 170.926296 
L 125.636579 178.925364 
L 126.098492 178.925364 
L 126.252463 182.571348 
L 126.714376 182.571348 
L 126.868347 184.317313 
L 127.330259 184.317313 
L 127.48423 192.173639 
L 127.946143 192.173639 
L 128.100114 198.860756 
L 128.562027 198.860756 
L 128.715998 196.567618 
L 129.177911 196.567618 
L 129.331882 198.860811 
L 129.793795 198.860811 
L 129.947766 203.148085 
L 130.409679 203.148085 
L 130.56365 206.066103 
L 131.025562 206.066103 
L 131.179533 207.659192 
L 131.641446 207.659192 
L 131.795417 207.311065 
L 132.25733 207.311065 
L 132.411301 210.203545 
L 132.873214 210.203545 
L 133.027185 208.138158 
L 134.104982 208.138158 
L 134.258953 210.808141 
L 135.336749 210.808141 
L 135.49072 208.794388 
L 135.952633 208.794388 
L 136.106604 196.673545 
L 136.568517 196.673545 
L 136.722488 183.181453 
L 137.184401 183.181453 
L 137.338372 169.00717 
L 137.800285 169.00717 
L 137.954256 156.640256 
L 138.416169 156.640256 
L 138.57014 140.233211 
L 139.032052 140.233211 
L 139.186023 118.906164 
L 139.647936 118.906164 
L 139.801907 99.161821 
L 140.26382 99.161821 
L 140.417791 92.086759 
L 140.879704 92.086759 
L 141.033675 89.28 
L 141.495588 89.28 
L 141.649559 92.357107 
L 142.111472 92.357107 
L 142.265443 96.734847 
L 142.727356 96.734847 
L 142.881326 94.426224 
L 143.343239 94.426224 
L 143.49721 90.171803 
L 143.959123 90.171803 
L 144.113094 93.699218 
L 144.575007 93.699218 
L 144.728978 97.058661 
L 145.190891 97.058661 
L 145.344862 100.261852 
L 145.806775 100.261852 
L 145.960746 103.594318 
L 146.422659 103.594318 
L 146.57663 105.519676 
L 147.038542 105.519676 
L 147.192513 109.894634 
L 148.27031 109.894634 
L 148.424281 111.186171 
L 148.886194 111.186171 
L 149.040165 112.452629 
L 149.502078 112.452629 
L 149.656049 116.61643 
L 150.117962 116.61643 
L 150.271933 124.500742 
L 150.733845 124.500742 
L 150.887816 136.7319 
L 151.349729 136.7319 
L 151.5037 148.026933 
L 151.965613 148.026933 
L 152.119584 155.745744 
L 152.581497 155.745744 
L 152.735468 163.995113 
L 153.197381 163.995113 
L 153.351352 167.557281 
L 153.813265 167.557281 
L 153.967236 175.473211 
L 154.429149 175.473211 
L 154.583119 176.50608 
L 155.045032 176.50608 
L 155.199003 180.462491 
L 155.660916 180.462491 
L 155.814887 185.672635 
L 156.2768 185.672635 
L 156.430771 194.017439 
L 156.892684 194.017439 
L 157.046655 201.384579 
L 157.508568 201.384579 
L 157.662539 205.01384 
L 158.124452 205.01384 
L 158.278423 207.770452 
L 158.740335 207.770452 
L 158.894306 211.799592 
L 159.356219 211.799592 
L 159.51019 212.513708 
L 159.972103 212.513708 
L 160.126074 216.985388 
L 160.587987 216.985388 
L 160.741958 221.20479 
L 161.203871 221.20479 
L 161.357842 223.760269 
L 161.819755 223.760269 
L 161.973726 225.588784 
L 162.435638 225.588784 
L 162.589609 229.559311 
L 163.051522 229.559311 
L 163.205493 231.713235 
L 163.667406 231.713235 
L 163.821377 233.812917 
L 164.28329 233.812917 
L 164.437261 235.464201 
L 164.899174 235.464201 
L 165.053145 237.772272 
L 166.130942 237.772272 
L 166.284913 240.202484 
L 166.746825 240.202484 
L 166.900796 245.315591 
L 167.362709 245.315591 
L 167.51668 249.272744 
L 167.978593 249.272744 
L 168.132564 251.667254 
L 168.594477 251.667254 
L 168.748448 257.150248 
L 169.210361 257.150248 
L 169.364332 261.242456 
L 169.826245 261.242456 
L 169.980216 263.325241 
L 170.442128 263.325241 
L 170.596099 265.5151 
L 171.058012 265.5151 
L 171.211983 270.65361 
L 171.673896 270.65361 
L 171.827867 272.612192 
L 172.28978 272.612192 
L 172.443751 274.069627 
L 172.905664 274.069627 
L 173.059635 275.980215 
L 173.521548 275.980215 
L 173.675519 277.139837 
L 174.137431 277.139837 
L 174.291402 279.656653 
L 174.753315 279.656653 
L 174.907286 280.816414 
L 175.369199 280.816414 
L 175.52317 281.95748 
L 175.985083 281.95748 
L 176.139054 282.404631 
L 176.600967 282.404631 
L 176.754938 283.728135 
L 177.216851 283.728135 
L 177.370822 285.425699 
L 177.832735 285.425699 
L 177.986706 287.214862 
L 179.064502 287.214862 
L 179.218473 290.308801 
L 179.680386 290.308801 
L 179.834357 293.218359 
L 180.29627 293.218359 
L 180.450241 296.940556 
L 180.912154 296.940556 
L 181.066125 298.548501 
L 181.528038 298.548501 
L 181.682009 301.612706 
L 182.143921 301.612706 
L 182.297892 305.367778 
L 182.759805 305.367778 
L 182.913776 307.736163 
L 183.375689 307.736163 
L 183.52966 311.116306 
L 183.991573 311.116306 
L 184.145544 314.81534 
L 184.607457 314.81534 
L 184.761428 317.447442 
L 185.223341 317.447442 
L 185.377312 319.88871 
L 185.839225 319.88871 
L 185.993195 322.387343 
L 186.455108 322.387343 
L 186.609079 324.704739 
L 187.070992 324.704739 
L 187.224963 326.281585 
L 187.686876 326.281585 
L 187.840847 327.983073 
L 188.30276 327.983073 
L 188.456731 330.515188 
L 188.918644 330.515188 
L 189.072615 331.865143 
L 189.534528 331.865143 
L 189.688499 334.110168 
L 190.150411 334.110168 
L 190.304382 334.728792 
L 190.766295 334.728792 
L 190.920266 335.762378 
L 191.382179 335.762378 
L 191.53615 336.984086 
L 191.998063 336.984086 
L 192.152034 338.111237 
L 192.613947 338.111237 
L 192.767918 339.467156 
L 193.229831 339.467156 
L 193.383802 340.134333 
L 193.845714 340.134333 
L 193.999685 341.037024 
L 194.461598 341.037024 
L 194.615569 342.10233 
L 195.077482 342.10233 
L 195.231453 343.59176 
L 195.693366 343.59176 
L 195.847337 344.377664 
L 196.30925 344.377664 
L 196.463221 344.934855 
L 196.925134 344.934855 
L 197.079105 345.484661 
L 197.541018 345.484661 
L 197.694988 345.9482 
L 198.156901 345.9482 
L 198.310872 346.397692 
L 198.772785 346.397692 
L 198.926756 348.413941 
L 199.388669 348.413941 
L 199.54264 349.430278 
L 200.004553 349.430278 
L 200.158524 350.933364 
L 200.620437 350.933364 
L 200.774408 351.487253 
L 201.236321 351.487253 
L 201.390292 352.648517 
L 201.852204 352.648517 
L 202.006175 354.190955 
L 202.468088 354.190955 
L 202.622059 356.196563 
L 203.083972 356.196563 
L 203.237943 357.458299 
L 203.699856 357.458299 
L 203.853827 358.805898 
L 204.31574 358.805898 
L 204.469711 359.844055 
L 204.931624 359.844055 
L 205.085595 361.739264 
L 205.547507 361.739264 
L 205.701478 362.517944 
L 206.163391 362.517944 
L 206.317362 363.370965 
L 206.779275 363.370965 
L 206.933246 365.19954 
L 207.395159 365.19954 
L 207.54913 366.780397 
L 208.011043 366.780397 
L 208.165014 367.434966 
L 208.626927 367.434966 
L 208.780898 368.176981 
L 209.242811 368.176981 
L 209.396782 368.816916 
L 209.858694 368.816916 
L 210.012665 369.182762 
L 210.474578 369.182762 
L 210.628549 369.998974 
L 211.090462 369.998974 
L 211.244433 370.309951 
L 211.706346 370.309951 
L 211.860317 370.667139 
L 212.32223 370.667139 
L 212.476201 371.086947 
L 212.938114 371.086947 
L 213.092085 371.331314 
L 213.553997 371.331314 
L 213.707968 372.1032 
L 214.169881 372.1032 
L 214.477823 372.259586 
L 214.785765 372.259586 
L 214.939736 373.29322 
L 215.401649 373.29322 
L 215.55562 373.781993 
L 216.633417 373.856578 
L 216.787388 374.115279 
L 217.249301 374.115279 
L 217.557242 374.262856 
L 217.865184 374.262856 
L 218.019155 375.345985 
L 218.481068 375.345985 
L 218.635039 376.408638 
L 219.096952 376.408638 
L 219.250923 377.244363 
L 219.712836 377.244363 
L 219.866807 378.091996 
L 220.32872 378.091996 
L 220.482691 378.940957 
L 220.944604 378.940957 
L 221.098575 380.269494 
L 221.560487 380.269494 
L 221.714458 381.525117 
L 222.176371 381.525117 
L 222.330342 382.279878 
L 222.792255 382.279878 
L 222.946226 383.46992 
L 223.408139 383.46992 
L 223.56211 384.634465 
L 224.024023 384.634465 
L 224.177994 385.954317 
L 224.639907 385.954317 
L 224.793878 387.507575 
L 225.25579 387.507575 
L 225.409761 388.421291 
L 225.871674 388.421291 
L 226.025645 389.830226 
L 226.487558 389.830226 
L 226.641529 390.691608 
L 227.103442 390.691608 
L 227.257413 391.636475 
L 227.719326 391.636475 
L 227.873297 392.741573 
L 228.33521 392.741573 
L 228.489181 393.869664 
L 228.951094 393.869664 
L 229.105064 394.659226 
L 229.566977 394.659226 
L 229.720948 395.481834 
L 230.182861 395.481834 
L 230.336832 395.9977 
L 230.798745 395.9977 
L 230.952716 396.714233 
L 231.414629 396.714233 
L 231.5686 397.060757 
L 232.030513 397.060757 
L 232.184484 397.496037 
L 232.646397 397.496037 
L 232.800368 397.988475 
L 233.26228 397.988475 
L 233.570222 398.12919 
L 233.878164 398.12919 
L 234.032135 398.828334 
L 234.494048 398.828334 
L 234.648019 399.362992 
L 235.109932 399.362992 
L 235.263903 399.55365 
L 236.3417 399.55365 
L 236.495671 399.797709 
L 237.573467 399.797709 
L 237.881409 399.939258 
L 238.189351 399.939258 
L 238.497293 400.072927 
L 240.037003 400.072927 
L 240.190974 400.337742 
L 241.26877 400.337742 
L 241.422741 400.793843 
L 241.884654 400.793843 
L 242.038625 401.116433 
L 242.500538 401.116433 
L 242.654509 401.818128 
L 243.116422 401.818128 
L 243.270393 402.269355 
L 243.732306 402.269355 
L 243.886277 402.978235 
L 244.34819 402.978235 
L 244.502161 403.537198 
L 244.964073 403.537198 
L 245.118044 403.914472 
L 245.579957 403.914472 
L 245.733928 404.088609 
L 246.195841 404.088609 
L 246.349812 404.512281 
L 246.657754 404.512281 
L 246.657754 404.512281 
" clip-path="url(#p5f1ea1b86a)" style="fill: none; stroke: #ff0000; stroke-width: 1.5; stroke-linecap: square"/>
   </g>
   <g id="line2d_13">
    <path d="M 97.459893 492.48 
L 103.926673 492.48 
L 104.080644 394.61411 
L 104.542557 394.61411 
L 104.696528 380.912885 
L 105.158441 380.912885 
L 105.312412 368.516539 
L 105.774325 368.516539 
L 105.928296 378.846828 
L 106.390209 378.846828 
L 106.54418 377.898637 
L 107.006093 377.898637 
L 107.160064 379.994638 
L 107.621976 379.994638 
L 107.775947 381.922958 
L 108.23786 381.922958 
L 108.391831 388.350693 
L 108.853744 388.350693 
L 109.007715 390.130681 
L 109.469628 390.130681 
L 109.623599 391.778818 
L 110.085512 391.778818 
L 110.239483 399.993155 
L 111.31728 399.993155 
L 111.47125 402.567109 
L 112.549047 402.567109 
L 112.703018 408.115978 
L 113.164931 408.115978 
L 113.318902 411.824287 
L 113.780815 411.824287 
L 113.934786 416.098474 
L 115.012583 416.098474 
L 115.166554 418.101924 
L 115.628466 418.101924 
L 115.782437 419.020171 
L 116.860234 419.020171 
L 117.014205 419.888784 
L 117.476118 419.888784 
L 117.630089 424.247121 
L 118.092002 424.247121 
L 118.245973 425.694266 
L 118.707886 425.694266 
L 118.861857 426.366154 
L 119.323769 426.366154 
L 119.47774 427.006792 
L 119.939653 427.006792 
L 120.093624 429.296733 
L 120.555537 429.296733 
L 120.709508 430.301502 
L 121.171421 430.301502 
L 121.325392 430.773744 
L 121.787305 430.773744 
L 121.941276 432.083547 
L 122.403189 432.083547 
L 122.55716 435.287767 
L 123.019073 435.287767 
L 123.173043 437.790238 
L 124.25084 437.790238 
L 124.404811 439.680748 
L 124.866724 439.680748 
L 125.020695 442.894616 
L 125.482608 442.894616 
L 125.636579 443.257082 
L 126.098492 443.257082 
L 126.252463 445.322525 
L 126.714376 445.322525 
L 126.868347 445.649359 
L 127.946143 445.649359 
L 128.100114 445.965477 
L 128.562027 445.965477 
L 128.715998 446.271398 
L 129.177911 446.271398 
L 129.331882 446.567607 
L 131.025562 446.567607 
L 131.179533 447.819763 
L 131.641446 447.819763 
L 131.795417 448.106716 
L 132.25733 448.106716 
L 132.411301 449.797807 
L 132.873214 449.797807 
L 133.027185 450.313401 
L 133.489098 450.313401 
L 133.643069 450.559989 
L 135.336749 450.559989 
L 135.49072 451.032327 
L 135.952633 451.032327 
L 136.106604 452.94943 
L 136.568517 452.94943 
L 136.722488 453.152411 
L 137.184401 453.152411 
L 137.338372 453.35012 
L 137.800285 453.35012 
L 137.954256 454.31428 
L 138.416169 454.31428 
L 138.57014 455.396913 
L 139.032052 455.396913 
L 139.186023 456.986189 
L 139.647936 456.986189 
L 139.801907 457.886385 
L 140.26382 457.886385 
L 140.417791 458.912939 
L 140.879704 458.912939 
L 141.033675 459.087133 
L 141.495588 459.087133 
L 141.649559 459.879168 
L 142.727356 459.879168 
L 142.881326 460.462329 
L 143.343239 460.462329 
L 143.49721 461.525741 
L 143.959123 461.525741 
L 144.113094 462.636945 
L 144.575007 462.636945 
L 144.728978 463.482699 
L 145.806775 463.482699 
L 145.960746 464.243878 
L 146.422659 464.243878 
L 146.57663 464.405922 
L 147.038542 464.405922 
L 147.346484 464.564197 
L 147.654426 464.564197 
L 147.808397 465.071576 
L 148.886194 465.071576 
L 149.040165 465.40752 
L 149.502078 465.40752 
L 149.656049 465.878961 
L 150.117962 465.878961 
L 150.271933 466.18472 
L 150.733845 466.18472 
L 150.887816 467.674043 
L 151.349729 467.674043 
L 151.5037 467.910164 
L 151.965613 467.910164 
L 152.119584 468.640873 
L 152.581497 468.640873 
L 152.735468 468.850777 
L 153.197381 468.850777 
L 153.351352 469.191105 
L 153.813265 469.191105 
L 153.967236 469.708934 
L 154.429149 469.708934 
L 154.583119 470.453925 
L 155.045032 470.453925 
L 155.199003 471.343373 
L 155.660916 471.343373 
L 155.814887 471.754207 
L 156.2768 471.754207 
L 156.584742 471.871075 
L 156.892684 471.871075 
L 157.200626 471.985628 
L 157.508568 471.985628 
L 157.662539 472.236997 
L 158.124452 472.236997 
L 158.278423 472.561085 
L 158.740335 472.561085 
L 159.048277 472.695933 
L 159.356219 472.695933 
L 159.51019 472.901895 
L 160.587987 472.901895 
L 160.895929 473.032717 
L 161.819755 473.132837 
L 161.973726 473.327617 
L 163.667406 473.327617 
L 163.975348 473.454592 
L 164.28329 473.454592 
L 164.437261 473.672644 
L 165.515058 473.672644 
L 165.669029 473.857128 
L 166.130942 473.857128 
L 166.284913 474.035195 
L 166.746825 474.035195 
L 166.900796 474.722707 
L 167.362709 474.722707 
L 167.51668 475.020882 
L 167.978593 475.020882 
L 168.132564 475.51078 
L 168.594477 475.51078 
L 168.748448 475.797785 
L 169.210361 475.797785 
L 169.364332 476.09445 
L 169.826245 476.09445 
L 169.980216 476.416796 
L 170.442128 476.416796 
L 170.596099 476.678485 
L 171.058012 476.678485 
L 171.211983 476.892873 
L 171.673896 476.892873 
L 171.827867 477.064968 
L 172.905664 477.126165 
L 173.059635 477.387522 
L 174.137431 477.445308 
L 174.291402 477.694906 
L 174.753315 477.694906 
L 174.907286 477.906014 
L 175.369199 477.906014 
L 175.52317 478.234749 
L 175.985083 478.234749 
L 176.293025 478.390064 
L 176.600967 478.390064 
L 176.754938 478.580207 
L 177.832735 478.64782 
L 178.140676 478.795145 
L 179.064502 478.861319 
L 179.218473 479.037381 
L 179.680386 479.037381 
L 179.834357 479.313868 
L 180.29627 479.313868 
L 180.450241 479.540796 
L 180.912154 479.540796 
L 181.066125 480.037121 
L 181.528038 480.037121 
L 181.682009 480.218637 
L 182.143921 480.218637 
L 182.297892 480.48089 
L 183.375689 480.523131 
L 183.52966 480.731101 
L 183.991573 480.731101 
L 184.299515 480.848682 
L 184.607457 480.848682 
L 184.761428 481.210594 
L 185.223341 481.210594 
L 185.531283 481.348735 
L 185.839225 481.348735 
L 185.993195 481.521962 
L 186.455108 481.521962 
L 186.76305 481.679384 
L 187.070992 481.679384 
L 187.378934 481.829881 
L 187.686876 481.829881 
L 187.840847 482.011974 
L 188.30276 482.011974 
L 188.610702 482.160307 
L 188.918644 482.160307 
L 189.226586 482.313036 
L 190.150411 482.335216 
L 190.458353 482.458404 
L 192.613947 482.560302 
L 192.921889 482.636135 
L 193.845714 482.693133 
L 194.153656 482.766176 
L 196.30925 482.856154 
L 196.617192 482.926596 
L 198.772785 483.029337 
L 199.080727 483.094124 
L 200.620437 483.175699 
L 200.928379 483.299518 
L 201.852204 483.404055 
L 202.160146 483.47838 
L 203.083972 483.530856 
L 203.391914 483.639223 
L 204.31574 483.731633 
L 204.623682 483.821084 
L 206.163391 483.875532 
L 206.471333 484.001963 
L 208.626927 484.09279 
L 208.934869 484.183476 
L 209.858694 484.251087 
L 210.166636 484.32602 
L 211.090462 484.343402 
L 211.398404 484.457968 
L 214.169881 484.557167 
L 214.631794 484.609737 
L 216.633417 484.68453 
L 216.941359 484.762672 
L 217.865184 484.79007 
L 218.173126 484.911808 
L 219.712836 484.992678 
L 220.020778 485.121837 
L 220.944604 485.215779 
L 221.406516 485.26359 
L 222.176371 485.313944 
L 222.484313 485.390014 
L 223.408139 485.438651 
L 223.716081 485.518404 
L 225.25579 485.587023 
L 225.563732 485.663433 
L 227.103442 485.744022 
L 227.565355 485.796684 
L 230.182861 485.899545 
L 230.490803 485.963312 
L 234.494048 486.066549 
L 235.879787 486.13238 
L 240.037003 486.235626 
L 240.960828 486.298005 
L 244.34819 486.392277 
L 245.118044 486.462308 
L 246.657754 486.498374 
L 246.657754 486.498374 
" clip-path="url(#p5f1ea1b86a)" style="fill: none; stroke: #008000; stroke-width: 1.5; stroke-linecap: square"/>
   </g>
   <g id="patch_3">
    <path d="M 90 512.64 
L 90 69.12 
" style="fill: none; stroke: #000000; stroke-width: 0.8; stroke-linejoin: miter; stroke-linecap: square"/>
   </g>
   <g id="patch_4">
    <path d="M 254.117647 512.64 
L 254.117647 69.12 
" style="fill: none; stroke: #000000; stroke-width: 0.8; stroke-linejoin: miter; stroke-linecap: square"/>
   </g>
   <g id="patch_5">
    <path d="M 90 512.64 
L 254.117647 512.64 
" style="fill: none; stroke: #000000; stroke-width: 0.8; stroke-linejoin: miter; stroke-linecap: square"/>
   </g>
   <g id="patch_6">
    <path d="M 90 69.12 
L 254.117647 69.12 
" style="fill: none; stroke: #000000; stroke-width: 0.8; stroke-linejoin: miter; stroke-linecap: square"/>
   </g>
   <g id="legend_1">
    <g id="patch_7">
     <path d="M 169.273897 121.154375 
L 247.117647 121.154375 
Q 249.117647 121.154375 249.117647 119.154375 
L 249.117647 76.12 
Q 249.117647 74.12 247.117647 74.12 
L 169.273897 74.12 
Q 167.273897 74.12 167.273897 76.12 
L 167.273897 119.154375 
Q 167.273897 121.154375 169.273897 121.154375 
z
" style="fill: #ffffff; opacity: 0.8; stroke: #cccccc; stroke-linejoin: miter"/>
    </g>
    <g id="line2d_14">
     <path d="M 171.273897 82.218438 
L 181.273897 82.218438 
L 191.273897 82.218438 
" style="fill: none; stroke: #0000ff; stroke-width: 1.5; stroke-linecap: square"/>
    </g>
    <g id="text_11">
     <!-- O1 utility -->
     <g transform="translate(199.273897 85.718438) scale(0.1 -0.1)">
      <defs>
       <path id="DejaVuSans-4f" d="M 2522 4238 
Q 1834 4238 1429 3725 
Q 1025 3213 1025 2328 
Q 1025 1447 1429 934 
Q 1834 422 2522 422 
Q 3209 422 3611 934 
Q 4013 1447 4013 2328 
Q 4013 3213 3611 3725 
Q 3209 4238 2522 4238 
z
M 2522 4750 
Q 3503 4750 4090 4092 
Q 4678 3434 4678 2328 
Q 4678 1225 4090 567 
Q 3503 -91 2522 -91 
Q 1538 -91 948 565 
Q 359 1222 359 2328 
Q 359 3434 948 4092 
Q 1538 4750 2522 4750 
z
" transform="scale(0.015625)"/>
       <path id="DejaVuSans-20" transform="scale(0.015625)"/>
       <path id="DejaVuSans-75" d="M 544 1381 
L 544 3500 
L 1119 3500 
L 1119 1403 
Q 1119 906 1312 657 
Q 1506 409 1894 409 
Q 2359 409 2629 706 
Q 2900 1003 2900 1516 
L 2900 3500 
L 3475 3500 
L 3475 0 
L 2900 0 
L 2900 538 
Q 2691 219 2414 64 
Q 2138 -91 1772 -91 
Q 1169 -91 856 284 
Q 544 659 544 1381 
z
M 1991 3584 
L 1991 3584 
z
" transform="scale(0.015625)"/>
       <path id="DejaVuSans-74" d="M 1172 4494 
L 1172 3500 
L 2356 3500 
L 2356 3053 
L 1172 3053 
L 1172 1153 
Q 1172 725 1289 603 
Q 1406 481 1766 481 
L 2356 481 
L 2356 0 
L 1766 0 
Q 1100 0 847 248 
Q 594 497 594 1153 
L 594 3053 
L 172 3053 
L 172 3500 
L 594 3500 
L 594 4494 
L 1172 4494 
z
" transform="scale(0.015625)"/>
       <path id="DejaVuSans-69" d="M 603 3500 
L 1178 3500 
L 1178 0 
L 603 0 
L 603 3500 
z
M 603 4863 
L 1178 4863 
L 1178 4134 
L 603 4134 
L 603 4863 
z
" transform="scale(0.015625)"/>
       <path id="DejaVuSans-6c" d="M 603 4863 
L 1178 4863 
L 1178 0 
L 603 0 
L 603 4863 
z
" transform="scale(0.015625)"/>
       <path id="DejaVuSans-79" d="M 2059 -325 
Q 1816 -950 1584 -1140 
Q 1353 -1331 966 -1331 
L 506 -1331 
L 506 -850 
L 844 -850 
Q 1081 -850 1212 -737 
Q 1344 -625 1503 -206 
L 1606 56 
L 191 3500 
L 800 3500 
L 1894 763 
L 2988 3500 
L 3597 3500 
L 2059 -325 
z
" transform="scale(0.015625)"/>
      </defs>
      <use xlink:href="#DejaVuSans-4f"/>
      <use xlink:href="#DejaVuSans-31" x="78.710938"/>
      <use xlink:href="#DejaVuSans-20" x="142.333984"/>
      <use xlink:href="#DejaVuSans-75" x="174.121094"/>
      <use xlink:href="#DejaVuSans-74" x="237.5"/>
      <use xlink:href="#DejaVuSans-69" x="276.708984"/>
      <use xlink:href="#DejaVuSans-6c" x="304.492188"/>
      <use xlink:href="#DejaVuSans-69" x="332.275391"/>
      <use xlink:href="#DejaVuSans-74" x="360.058594"/>
      <use xlink:href="#DejaVuSans-79" x="399.267578"/>
     </g>
    </g>
    <g id="line2d_15">
     <path d="M 171.273897 96.896563 
L 181.273897 96.896563 
L 191.273897 96.896563 
" style="fill: none; stroke: #ff0000; stroke-width: 1.5; stroke-linecap: square"/>
    </g>
    <g id="text_12">
     <!-- O2 utility -->
     <g transform="translate(199.273897 100.396563) scale(0.1 -0.1)">
      <use xlink:href="#DejaVuSans-4f"/>
      <use xlink:href="#DejaVuSans-32" x="78.710938"/>
      <use xlink:href="#DejaVuSans-20" x="142.333984"/>
      <use xlink:href="#DejaVuSans-75" x="174.121094"/>
      <use xlink:href="#DejaVuSans-74" x="237.5"/>
      <use xlink:href="#DejaVuSans-69" x="276.708984"/>
      <use xlink:href="#DejaVuSans-6c" x="304.492188"/>
      <use xlink:href="#DejaVuSans-69" x="332.275391"/>
      <use xlink:href="#DejaVuSans-74" x="360.058594"/>
      <use xlink:href="#DejaVuSans-79" x="399.267578"/>
     </g>
    </g>
    <g id="line2d_16">
     <path d="M 171.273897 111.574688 
L 181.273897 111.574688 
L 191.273897 111.574688 
" style="fill: none; stroke: #008000; stroke-width: 1.5; stroke-linecap: square"/>
    </g>
    <g id="text_13">
     <!-- O3 utility -->
     <g transform="translate(199.273897 115.074688) scale(0.1 -0.1)">
      <use xlink:href="#DejaVuSans-4f"/>
      <use xlink:href="#DejaVuSans-33" x="78.710938"/>
      <use xlink:href="#DejaVuSans-20" x="142.333984"/>
      <use xlink:href="#DejaVuSans-75" x="174.121094"/>
      <use xlink:href="#DejaVuSans-74" x="237.5"/>
      <use xlink:href="#DejaVuSans-69" x="276.708984"/>
      <use xlink:href="#DejaVuSans-6c" x="304.492188"/>
      <use xlink:href="#DejaVuSans-69" x="332.275391"/>
      <use xlink:href="#DejaVuSans-74" x="360.058594"/>
      <use xlink:href="#DejaVuSans-79" x="399.267578"/>
     </g>
    </g>
   </g>
  </g>
  <g id="axes_2">
   <g id="patch_8">
    <path d="M 286.941176 512.64 
L 451.058824 512.64 
L 451.058824 69.12 
L 286.941176 69.12 
z
" style="fill: #ffffff"/>
   </g>
   <g id="matplotlib.axis_3">
    <g id="xtick_6">
     <g id="line2d_17">
      <g>
       <use xlink:href="#mcf460bfe1d" x="294.247099" y="512.64" style="stroke: #000000; stroke-width: 0.8"/>
      </g>
     </g>
     <g id="text_14">
      <!-- 0 -->
      <g transform="translate(291.065849 527.238438) scale(0.1 -0.1)">
       <use xlink:href="#DejaVuSans-30"/>
      </g>
     </g>
    </g>
    <g id="xtick_7">
     <g id="line2d_18">
      <g>
       <use xlink:href="#mcf460bfe1d" x="332.739839" y="512.64" style="stroke: #000000; stroke-width: 0.8"/>
      </g>
     </g>
     <g id="text_15">
      <!-- 250 -->
      <g transform="translate(323.196089 527.238438) scale(0.1 -0.1)">
       <use xlink:href="#DejaVuSans-32"/>
       <use xlink:href="#DejaVuSans-35" x="63.623047"/>
       <use xlink:href="#DejaVuSans-30" x="127.246094"/>
      </g>
     </g>
    </g>
    <g id="xtick_8">
     <g id="line2d_19">
      <g>
       <use xlink:href="#mcf460bfe1d" x="371.232579" y="512.64" style="stroke: #000000; stroke-width: 0.8"/>
      </g>
     </g>
     <g id="text_16">
      <!-- 500 -->
      <g transform="translate(361.688829 527.238438) scale(0.1 -0.1)">
       <use xlink:href="#DejaVuSans-35"/>
       <use xlink:href="#DejaVuSans-30" x="63.623047"/>
       <use xlink:href="#DejaVuSans-30" x="127.246094"/>
      </g>
     </g>
    </g>
    <g id="xtick_9">
     <g id="line2d_20">
      <g>
       <use xlink:href="#mcf460bfe1d" x="409.725319" y="512.64" style="stroke: #000000; stroke-width: 0.8"/>
      </g>
     </g>
     <g id="text_17">
      <!-- 750 -->
      <g transform="translate(400.181569 527.238438) scale(0.1 -0.1)">
       <use xlink:href="#DejaVuSans-37"/>
       <use xlink:href="#DejaVuSans-35" x="63.623047"/>
       <use xlink:href="#DejaVuSans-30" x="127.246094"/>
      </g>
     </g>
    </g>
    <g id="xtick_10">
     <g id="line2d_21">
      <g>
       <use xlink:href="#mcf460bfe1d" x="448.218059" y="512.64" style="stroke: #000000; stroke-width: 0.8"/>
      </g>
     </g>
     <g id="text_18">
      <!-- 1000 -->
      <g transform="translate(435.493059 527.238438) scale(0.1 -0.1)">
       <use xlink:href="#DejaVuSans-31"/>
       <use xlink:href="#DejaVuSans-30" x="63.623047"/>
       <use xlink:href="#DejaVuSans-30" x="127.246094"/>
       <use xlink:href="#DejaVuSans-30" x="190.869141"/>
      </g>
     </g>
    </g>
   </g>
   <g id="matplotlib.axis_4">
    <g id="ytick_6">
     <g id="line2d_22">
      <g>
       <use xlink:href="#m73b3d53add" x="286.941176" y="492.48" style="stroke: #000000; stroke-width: 0.8"/>
      </g>
     </g>
     <g id="text_19">
      <!-- 0 -->
      <g transform="translate(273.578676 496.279219) scale(0.1 -0.1)">
       <use xlink:href="#DejaVuSans-30"/>
      </g>
     </g>
    </g>
    <g id="ytick_7">
     <g id="line2d_23">
      <g>
       <use xlink:href="#m73b3d53add" x="286.941176" y="406.234011" style="stroke: #000000; stroke-width: 0.8"/>
      </g>
     </g>
     <g id="text_20">
      <!-- 200 -->
      <g transform="translate(260.853676 410.033229) scale(0.1 -0.1)">
       <use xlink:href="#DejaVuSans-32"/>
       <use xlink:href="#DejaVuSans-30" x="63.623047"/>
       <use xlink:href="#DejaVuSans-30" x="127.246094"/>
      </g>
     </g>
    </g>
    <g id="ytick_8">
     <g id="line2d_24">
      <g>
       <use xlink:href="#m73b3d53add" x="286.941176" y="319.988021" style="stroke: #000000; stroke-width: 0.8"/>
      </g>
     </g>
     <g id="text_21">
      <!-- 400 -->
      <g transform="translate(260.853676 323.78724) scale(0.1 -0.1)">
       <use xlink:href="#DejaVuSans-34"/>
       <use xlink:href="#DejaVuSans-30" x="63.623047"/>
       <use xlink:href="#DejaVuSans-30" x="127.246094"/>
      </g>
     </g>
    </g>
    <g id="ytick_9">
     <g id="line2d_25">
      <g>
       <use xlink:href="#m73b3d53add" x="286.941176" y="233.742032" style="stroke: #000000; stroke-width: 0.8"/>
      </g>
     </g>
     <g id="text_22">
      <!-- 600 -->
      <g transform="translate(260.853676 237.541251) scale(0.1 -0.1)">
       <defs>
        <path id="DejaVuSans-36" d="M 2113 2584 
Q 1688 2584 1439 2293 
Q 1191 2003 1191 1497 
Q 1191 994 1439 701 
Q 1688 409 2113 409 
Q 2538 409 2786 701 
Q 3034 994 3034 1497 
Q 3034 2003 2786 2293 
Q 2538 2584 2113 2584 
z
M 3366 4563 
L 3366 3988 
Q 3128 4100 2886 4159 
Q 2644 4219 2406 4219 
Q 1781 4219 1451 3797 
Q 1122 3375 1075 2522 
Q 1259 2794 1537 2939 
Q 1816 3084 2150 3084 
Q 2853 3084 3261 2657 
Q 3669 2231 3669 1497 
Q 3669 778 3244 343 
Q 2819 -91 2113 -91 
Q 1303 -91 875 529 
Q 447 1150 447 2328 
Q 447 3434 972 4092 
Q 1497 4750 2381 4750 
Q 2619 4750 2861 4703 
Q 3103 4656 3366 4563 
z
" transform="scale(0.015625)"/>
       </defs>
       <use xlink:href="#DejaVuSans-36"/>
       <use xlink:href="#DejaVuSans-30" x="63.623047"/>
       <use xlink:href="#DejaVuSans-30" x="127.246094"/>
      </g>
     </g>
    </g>
    <g id="ytick_10">
     <g id="line2d_26">
      <g>
       <use xlink:href="#m73b3d53add" x="286.941176" y="147.496043" style="stroke: #000000; stroke-width: 0.8"/>
      </g>
     </g>
     <g id="text_23">
      <!-- 800 -->
      <g transform="translate(260.853676 151.295262) scale(0.1 -0.1)">
       <defs>
        <path id="DejaVuSans-38" d="M 2034 2216 
Q 1584 2216 1326 1975 
Q 1069 1734 1069 1313 
Q 1069 891 1326 650 
Q 1584 409 2034 409 
Q 2484 409 2743 651 
Q 3003 894 3003 1313 
Q 3003 1734 2745 1975 
Q 2488 2216 2034 2216 
z
M 1403 2484 
Q 997 2584 770 2862 
Q 544 3141 544 3541 
Q 544 4100 942 4425 
Q 1341 4750 2034 4750 
Q 2731 4750 3128 4425 
Q 3525 4100 3525 3541 
Q 3525 3141 3298 2862 
Q 3072 2584 2669 2484 
Q 3125 2378 3379 2068 
Q 3634 1759 3634 1313 
Q 3634 634 3220 271 
Q 2806 -91 2034 -91 
Q 1263 -91 848 271 
Q 434 634 434 1313 
Q 434 1759 690 2068 
Q 947 2378 1403 2484 
z
M 1172 3481 
Q 1172 3119 1398 2916 
Q 1625 2713 2034 2713 
Q 2441 2713 2670 2916 
Q 2900 3119 2900 3481 
Q 2900 3844 2670 4047 
Q 2441 4250 2034 4250 
Q 1625 4250 1398 4047 
Q 1172 3844 1172 3481 
z
" transform="scale(0.015625)"/>
       </defs>
       <use xlink:href="#DejaVuSans-38"/>
       <use xlink:href="#DejaVuSans-30" x="63.623047"/>
       <use xlink:href="#DejaVuSans-30" x="127.246094"/>
      </g>
     </g>
    </g>
   </g>
   <g id="line2d_27">
    <path d="M 294.40107 492.48 
L 294.709011 492.48 
L 294.862982 492.04877 
L 295.324895 492.04877 
L 295.478866 491.61754 
L 295.940779 491.61754 
L 296.09475 490.32385 
L 296.556663 490.32385 
L 296.710634 489.03016 
L 297.172547 489.03016 
L 297.326518 487.736471 
L 297.788431 487.736471 
L 297.942402 485.580321 
L 298.404314 485.580321 
L 298.558285 484.717861 
L 299.020198 484.717861 
L 299.174169 483.424171 
L 299.636082 483.424171 
L 299.790053 481.268021 
L 300.251966 481.268021 
L 300.405937 480.836791 
L 301.483734 480.836791 
L 301.637705 479.974332 
L 302.099618 479.974332 
L 302.253589 477.818182 
L 302.715501 477.818182 
L 302.869472 476.524492 
L 303.331385 476.524492 
L 303.485356 475.230802 
L 303.947269 475.230802 
L 304.10124 474.799572 
L 304.563153 474.799572 
L 304.717124 473.505882 
L 305.179037 473.505882 
L 305.333008 472.212193 
L 305.794921 472.212193 
L 305.948892 471.349733 
L 306.410804 471.349733 
L 306.564775 470.918503 
L 307.026688 470.918503 
L 307.180659 469.624813 
L 307.642572 469.624813 
L 307.796543 469.193583 
L 308.87434 469.193583 
L 309.028311 468.331123 
L 309.490224 468.331123 
L 309.644195 467.899893 
L 310.106108 467.899893 
L 310.260078 467.037433 
L 310.721991 467.037433 
L 310.875962 466.606203 
L 311.337875 466.606203 
L 311.491846 465.743743 
L 312.569643 465.743743 
L 312.723614 465.312513 
L 313.185527 465.312513 
L 313.339498 464.881283 
L 314.417294 464.881283 
L 314.571265 464.018824 
L 315.033178 464.018824 
L 315.187149 462.725134 
L 315.649062 462.725134 
L 315.803033 461.862674 
L 316.264946 461.862674 
L 316.418917 460.568984 
L 316.88083 460.568984 
L 317.034801 460.137754 
L 317.496714 460.137754 
L 317.650685 458.844064 
L 318.112597 458.844064 
L 318.266568 457.981604 
L 318.728481 457.981604 
L 318.882452 457.119144 
L 319.344365 457.119144 
L 319.498336 455.825455 
L 319.960249 455.825455 
L 320.11422 454.531765 
L 320.576133 454.531765 
L 320.730104 452.806845 
L 321.192017 452.806845 
L 321.345988 450.650695 
L 321.807901 450.650695 
L 321.961871 449.788235 
L 322.423784 449.788235 
L 322.577755 448.494545 
L 323.039668 448.494545 
L 323.193639 447.200856 
L 323.655552 447.200856 
L 323.809523 445.044706 
L 324.271436 445.044706 
L 324.425407 443.751016 
L 324.88732 443.751016 
L 325.041291 442.457326 
L 325.503204 442.457326 
L 325.657175 441.163636 
L 326.119087 441.163636 
L 326.273058 439.438717 
L 326.734971 439.438717 
L 326.888942 438.145027 
L 327.350855 438.145027 
L 327.504826 437.282567 
L 327.966739 437.282567 
L 328.12071 436.851337 
L 329.81439 436.851337 
L 329.968361 436.420107 
L 330.430274 436.420107 
L 330.584245 435.557647 
L 331.046158 435.557647 
L 331.200129 434.695187 
L 331.662042 434.695187 
L 331.816013 433.832727 
L 332.277926 433.832727 
L 332.431897 432.970267 
L 332.89381 432.970267 
L 333.047781 432.539037 
L 333.509694 432.539037 
L 333.663665 431.245348 
L 334.125577 431.245348 
L 334.279548 430.382888 
L 334.741461 430.382888 
L 334.895432 429.089198 
L 335.357345 429.089198 
L 335.511316 427.795508 
L 335.973229 427.795508 
L 336.1272 426.933048 
L 336.589113 426.933048 
L 336.743084 426.501818 
L 337.204997 426.501818 
L 337.358968 425.639358 
L 337.82088 425.639358 
L 337.974851 424.776898 
L 338.436764 424.776898 
L 338.590735 423.483209 
L 339.052648 423.483209 
L 339.206619 421.758289 
L 339.668532 421.758289 
L 339.822503 420.464599 
L 340.284416 420.464599 
L 340.438387 419.602139 
L 340.9003 419.602139 
L 341.054271 418.308449 
L 341.516184 418.308449 
L 341.670154 417.014759 
L 342.132067 417.014759 
L 342.286038 414.42738 
L 342.747951 414.42738 
L 342.901922 413.13369 
L 343.363835 413.13369 
L 343.517806 411.40877 
L 343.979719 411.40877 
L 344.13369 410.11508 
L 344.595603 410.11508 
L 344.749574 408.39016 
L 345.211487 408.39016 
L 345.365458 407.527701 
L 345.82737 407.527701 
L 345.981341 406.665241 
L 347.059138 406.665241 
L 347.213109 405.802781 
L 347.675022 405.802781 
L 347.828993 405.371551 
L 348.290906 405.371551 
L 348.444877 403.646631 
L 348.90679 403.646631 
L 349.060761 401.921711 
L 349.522673 401.921711 
L 349.676644 401.059251 
L 350.138557 401.059251 
L 350.292528 398.471872 
L 350.754441 398.471872 
L 350.908412 397.178182 
L 351.370325 397.178182 
L 351.524296 395.022032 
L 352.602093 395.022032 
L 352.756064 394.159572 
L 353.217977 394.159572 
L 353.371947 393.297112 
L 353.83386 393.297112 
L 353.987831 392.434652 
L 354.449744 392.434652 
L 354.603715 391.572193 
L 355.065628 391.572193 
L 355.219599 390.709733 
L 355.681512 390.709733 
L 355.835483 388.984813 
L 356.297396 388.984813 
L 356.451367 388.122353 
L 356.91328 388.122353 
L 357.067251 386.828663 
L 357.529163 386.828663 
L 357.683134 385.966203 
L 358.145047 385.966203 
L 358.299018 384.672513 
L 358.760931 384.672513 
L 358.914902 383.378824 
L 359.376815 383.378824 
L 359.530786 382.085134 
L 359.992699 382.085134 
L 360.14667 380.360214 
L 360.608583 380.360214 
L 360.762554 379.066524 
L 361.224466 379.066524 
L 361.378437 378.635294 
L 361.84035 378.635294 
L 361.994321 377.341604 
L 362.456234 377.341604 
L 362.610205 376.479144 
L 363.072118 376.479144 
L 363.226089 374.754225 
L 364.303886 374.754225 
L 364.457857 373.460535 
L 364.91977 373.460535 
L 365.073741 371.735615 
L 365.535653 371.735615 
L 365.689624 371.304385 
L 366.151537 371.304385 
L 366.305508 370.873155 
L 366.767421 370.873155 
L 366.921392 369.148235 
L 367.383305 369.148235 
L 367.537276 367.423316 
L 367.999189 367.423316 
L 368.15316 366.560856 
L 368.615073 366.560856 
L 368.769044 364.835936 
L 369.230956 364.835936 
L 369.384927 361.817326 
L 369.84684 361.817326 
L 370.000811 360.092406 
L 370.462724 360.092406 
L 370.616695 357.936257 
L 371.078608 357.936257 
L 371.232579 357.505027 
L 371.694492 357.505027 
L 371.848463 355.348877 
L 372.310376 355.348877 
L 372.464347 354.055187 
L 372.926259 354.055187 
L 373.08023 352.330267 
L 373.542143 352.330267 
L 373.696114 350.605348 
L 374.158027 350.605348 
L 374.311998 348.880428 
L 374.773911 348.880428 
L 374.927882 348.449198 
L 375.389795 348.449198 
L 375.543766 346.293048 
L 376.005679 346.293048 
L 376.15965 344.568128 
L 376.621563 344.568128 
L 376.775534 341.118289 
L 377.237446 341.118289 
L 377.391417 338.099679 
L 377.85333 338.099679 
L 378.007301 335.08107 
L 378.469214 335.08107 
L 378.623185 332.92492 
L 379.085098 332.92492 
L 379.239069 332.06246 
L 379.700982 332.06246 
L 379.854953 329.47508 
L 380.316866 329.47508 
L 380.470837 327.75016 
L 380.932749 327.75016 
L 381.08672 326.025241 
L 381.548633 326.025241 
L 381.702604 324.731551 
L 382.164517 324.731551 
L 382.318488 322.575401 
L 382.780401 322.575401 
L 382.934372 321.281711 
L 383.396285 321.281711 
L 383.550256 318.694332 
L 384.012169 318.694332 
L 384.16614 315.675722 
L 384.628053 315.675722 
L 384.782023 313.088342 
L 385.243936 313.088342 
L 385.397907 312.225882 
L 385.85982 312.225882 
L 386.013791 310.069733 
L 386.475704 310.069733 
L 386.629675 306.619893 
L 387.091588 306.619893 
L 387.245559 303.170053 
L 387.707472 303.170053 
L 387.861443 299.288984 
L 388.323356 299.288984 
L 388.477327 296.270374 
L 388.939239 296.270374 
L 389.09321 293.682995 
L 389.555123 293.682995 
L 389.709094 291.526845 
L 390.171007 291.526845 
L 390.324978 288.508235 
L 390.786891 288.508235 
L 390.940862 286.352086 
L 391.402775 286.352086 
L 391.556746 284.195936 
L 392.018659 284.195936 
L 392.17263 282.039786 
L 392.634542 282.039786 
L 392.788513 279.452406 
L 393.250426 279.452406 
L 393.404397 277.296257 
L 393.86631 277.296257 
L 394.020281 275.140107 
L 394.482194 275.140107 
L 394.636165 273.415187 
L 395.098078 273.415187 
L 395.252049 269.965348 
L 395.713962 269.965348 
L 395.867933 267.377968 
L 396.329846 267.377968 
L 396.483816 262.634439 
L 396.945729 262.634439 
L 397.0997 258.322139 
L 397.561613 258.322139 
L 397.715584 254.872299 
L 398.177497 254.872299 
L 398.331468 251.85369 
L 398.793381 251.85369 
L 398.947352 248.83508 
L 399.409265 248.83508 
L 399.563236 246.67893 
L 400.025149 246.67893 
L 400.17912 244.954011 
L 400.641032 244.954011 
L 400.795003 243.229091 
L 401.256916 243.229091 
L 401.410887 241.504171 
L 401.8728 241.504171 
L 402.026771 240.210481 
L 402.488684 240.210481 
L 402.642655 237.623102 
L 403.104568 237.623102 
L 403.258539 236.329412 
L 403.720452 236.329412 
L 403.874423 233.742032 
L 404.336335 233.742032 
L 404.490306 231.585882 
L 404.952219 231.585882 
L 405.10619 228.998503 
L 405.568103 228.998503 
L 405.722074 226.842353 
L 406.183987 226.842353 
L 406.337958 225.117433 
L 406.799871 225.117433 
L 406.953842 222.961283 
L 407.415755 222.961283 
L 407.569726 219.942674 
L 408.031639 219.942674 
L 408.18561 217.786524 
L 408.647522 217.786524 
L 408.801493 213.474225 
L 409.263406 213.474225 
L 409.417377 211.318075 
L 409.87929 211.318075 
L 410.033261 209.161925 
L 410.495174 209.161925 
L 410.649145 206.574545 
L 411.111058 206.574545 
L 411.265029 204.418396 
L 411.726942 204.418396 
L 411.880913 202.262246 
L 412.342825 202.262246 
L 412.496796 201.399786 
L 412.958709 201.399786 
L 413.11268 199.243636 
L 413.574593 199.243636 
L 413.728564 197.949947 
L 414.190477 197.949947 
L 414.344448 195.362567 
L 414.806361 195.362567 
L 414.960332 194.500107 
L 415.422245 194.500107 
L 415.576216 191.912727 
L 416.038129 191.912727 
L 416.192099 189.325348 
L 416.654012 189.325348 
L 416.807983 186.737968 
L 417.269896 186.737968 
L 417.423867 184.150588 
L 417.88578 184.150588 
L 418.039751 181.994439 
L 418.501664 181.994439 
L 418.655635 180.269519 
L 419.117548 180.269519 
L 419.271519 176.388449 
L 419.733432 176.388449 
L 419.887403 175.525989 
L 420.349315 175.525989 
L 420.503286 174.232299 
L 420.965199 174.232299 
L 421.11917 172.50738 
L 421.581083 172.50738 
L 421.735054 170.78246 
L 422.196967 170.78246 
L 422.350938 168.19508 
L 422.812851 168.19508 
L 422.966822 164.745241 
L 423.428735 164.745241 
L 423.582706 162.157861 
L 424.044618 162.157861 
L 424.198589 160.001711 
L 424.660502 160.001711 
L 424.814473 157.845561 
L 425.276386 157.845561 
L 425.430357 155.689412 
L 425.89227 155.689412 
L 426.046241 152.239572 
L 426.508154 152.239572 
L 426.662125 149.220963 
L 427.124038 149.220963 
L 427.278009 146.633583 
L 427.739922 146.633583 
L 427.893892 142.752513 
L 428.355805 142.752513 
L 428.509776 139.302674 
L 428.971689 139.302674 
L 429.12566 135.852834 
L 429.587573 135.852834 
L 429.741544 132.834225 
L 430.203457 132.834225 
L 430.357428 128.953155 
L 430.819341 128.953155 
L 430.973312 127.228235 
L 431.435225 127.228235 
L 431.589196 125.503316 
L 432.051108 125.503316 
L 432.205079 122.915936 
L 432.666992 122.915936 
L 432.820963 119.897326 
L 433.282876 119.897326 
L 433.436847 117.741176 
L 433.89876 117.741176 
L 434.052731 115.585027 
L 434.514644 115.585027 
L 434.668615 113.428877 
L 435.130528 113.428877 
L 435.284499 112.566417 
L 435.746411 112.566417 
L 435.900382 110.410267 
L 436.362295 110.410267 
L 436.516266 108.685348 
L 437.594063 108.685348 
L 437.748034 107.822888 
L 438.209947 107.822888 
L 438.363918 106.529198 
L 438.825831 106.529198 
L 438.979802 103.941818 
L 439.441715 103.941818 
L 439.595686 102.216898 
L 440.057598 102.216898 
L 440.211569 100.060749 
L 440.673482 100.060749 
L 440.827453 98.335829 
L 441.289366 98.335829 
L 441.443337 96.179679 
L 441.90525 96.179679 
L 442.059221 94.023529 
L 442.521134 94.023529 
L 442.675105 91.00492 
L 443.137018 91.00492 
L 443.290989 89.28 
L 443.59893 89.28 
L 443.59893 89.28 
" clip-path="url(#pb5f3660342)" style="fill: none; stroke: #0000ff; stroke-width: 1.5; stroke-linecap: square"/>
   </g>
   <g id="line2d_28">
    <path d="M 294.40107 492.48 
L 294.709011 492.48 
L 294.862982 492.04877 
L 295.324895 492.04877 
L 295.478866 489.46139 
L 295.940779 489.46139 
L 296.09475 488.167701 
L 296.556663 488.167701 
L 296.710634 486.442781 
L 297.172547 486.442781 
L 297.326518 484.717861 
L 297.788431 484.717861 
L 297.942402 482.992941 
L 298.404314 482.992941 
L 298.558285 480.405561 
L 299.020198 480.405561 
L 299.174169 479.543102 
L 299.636082 479.543102 
L 299.790053 478.249412 
L 300.251966 478.249412 
L 300.405937 476.524492 
L 300.86785 476.524492 
L 301.021821 474.368342 
L 301.483734 474.368342 
L 301.637705 472.212193 
L 302.099618 472.212193 
L 302.253589 470.918503 
L 302.715501 470.918503 
L 302.869472 469.624813 
L 303.331385 469.624813 
L 303.485356 468.762353 
L 303.947269 468.762353 
L 304.10124 467.037433 
L 304.563153 467.037433 
L 304.717124 465.312513 
L 305.179037 465.312513 
L 305.333008 464.018824 
L 305.794921 464.018824 
L 305.948892 462.293904 
L 306.410804 462.293904 
L 306.564775 461.000214 
L 307.026688 461.000214 
L 307.180659 460.568984 
L 307.642572 460.568984 
L 307.796543 459.706524 
L 308.258456 459.706524 
L 308.412427 458.844064 
L 308.87434 458.844064 
L 309.028311 457.119144 
L 309.490224 457.119144 
L 309.644195 456.687914 
L 311.337875 456.687914 
L 311.491846 455.825455 
L 313.185527 455.825455 
L 313.339498 454.962995 
L 313.801411 454.962995 
L 313.955382 454.100535 
L 314.417294 454.100535 
L 314.571265 453.669305 
L 315.033178 453.669305 
L 315.187149 453.238075 
L 315.649062 453.238075 
L 315.803033 451.081925 
L 316.264946 451.081925 
L 316.418917 448.925775 
L 316.88083 448.925775 
L 317.034801 448.063316 
L 317.496714 448.063316 
L 317.650685 446.769626 
L 318.112597 446.769626 
L 318.266568 444.182246 
L 318.728481 444.182246 
L 318.882452 442.457326 
L 319.344365 442.457326 
L 319.498336 441.594866 
L 319.960249 441.594866 
L 320.11422 439.869947 
L 320.576133 439.869947 
L 320.730104 439.438717 
L 321.192017 439.438717 
L 321.345988 438.576257 
L 321.807901 438.576257 
L 321.961871 437.282567 
L 322.423784 437.282567 
L 322.577755 435.988877 
L 323.039668 435.988877 
L 323.193639 435.126417 
L 323.655552 435.126417 
L 323.809523 434.695187 
L 324.271436 434.695187 
L 324.425407 433.401497 
L 324.88732 433.401497 
L 325.041291 432.107807 
L 325.503204 432.107807 
L 325.657175 431.676578 
L 326.119087 431.676578 
L 326.273058 431.245348 
L 326.734971 431.245348 
L 326.888942 430.382888 
L 327.350855 430.382888 
L 327.504826 429.089198 
L 327.966739 429.089198 
L 328.12071 427.795508 
L 328.582623 427.795508 
L 328.736594 426.933048 
L 329.198507 426.933048 
L 329.352478 426.501818 
L 329.81439 426.501818 
L 329.968361 426.070588 
L 331.046158 426.070588 
L 331.200129 425.639358 
L 332.277926 425.639358 
L 332.431897 425.208128 
L 332.89381 425.208128 
L 333.047781 423.914439 
L 333.509694 423.914439 
L 333.663665 422.620749 
L 334.125577 422.620749 
L 334.279548 420.464599 
L 334.741461 420.464599 
L 334.895432 418.308449 
L 335.357345 418.308449 
L 335.511316 417.014759 
L 335.973229 417.014759 
L 336.1272 415.28984 
L 336.589113 415.28984 
L 336.743084 413.13369 
L 337.204997 413.13369 
L 337.358968 412.27123 
L 337.82088 412.27123 
L 337.974851 410.54631 
L 338.436764 410.54631 
L 338.590735 409.68385 
L 339.052648 409.68385 
L 339.206619 408.39016 
L 339.668532 408.39016 
L 339.822503 407.527701 
L 340.284416 407.527701 
L 340.438387 406.234011 
L 340.9003 406.234011 
L 341.054271 405.802781 
L 341.516184 405.802781 
L 341.670154 405.371551 
L 342.132067 405.371551 
L 342.286038 404.940321 
L 342.747951 404.940321 
L 342.901922 404.077861 
L 343.363835 404.077861 
L 343.517806 403.646631 
L 343.979719 403.646631 
L 344.13369 402.784171 
L 345.211487 402.784171 
L 345.365458 402.352941 
L 345.82737 402.352941 
L 345.981341 401.921711 
L 346.443254 401.921711 
L 346.597225 401.059251 
L 347.059138 401.059251 
L 347.213109 399.334332 
L 347.675022 399.334332 
L 347.828993 396.746952 
L 348.290906 396.746952 
L 348.444877 393.728342 
L 348.90679 393.728342 
L 349.060761 392.003422 
L 349.522673 392.003422 
L 349.676644 389.416043 
L 350.138557 389.416043 
L 350.292528 388.553583 
L 350.754441 388.553583 
L 350.908412 386.397433 
L 351.370325 386.397433 
L 351.524296 385.966203 
L 351.986209 385.966203 
L 352.14018 384.241283 
L 352.602093 384.241283 
L 352.756064 382.085134 
L 353.217977 382.085134 
L 353.371947 379.066524 
L 353.83386 379.066524 
L 353.987831 376.047914 
L 354.449744 376.047914 
L 354.603715 374.322995 
L 355.065628 374.322995 
L 355.219599 373.029305 
L 355.681512 373.029305 
L 355.835483 371.304385 
L 356.297396 371.304385 
L 356.451367 370.873155 
L 356.91328 370.873155 
L 357.067251 369.148235 
L 357.529163 369.148235 
L 357.683134 367.423316 
L 358.145047 367.423316 
L 358.299018 366.129626 
L 358.760931 366.129626 
L 358.914902 365.267166 
L 359.376815 365.267166 
L 359.530786 363.542246 
L 359.992699 363.542246 
L 360.14667 362.679786 
L 360.608583 362.679786 
L 360.762554 361.817326 
L 361.224466 361.817326 
L 361.378437 360.954866 
L 361.84035 360.954866 
L 361.994321 359.661176 
L 363.072118 359.661176 
L 363.226089 357.936257 
L 363.688002 357.936257 
L 363.841973 355.348877 
L 364.303886 355.348877 
L 364.457857 353.192727 
L 364.91977 353.192727 
L 365.073741 351.899037 
L 365.535653 351.899037 
L 365.689624 348.880428 
L 366.151537 348.880428 
L 366.305508 346.293048 
L 366.767421 346.293048 
L 366.921392 344.999358 
L 367.383305 344.999358 
L 367.537276 343.705668 
L 367.999189 343.705668 
L 368.15316 340.687059 
L 368.615073 340.687059 
L 368.769044 339.393369 
L 369.230956 339.393369 
L 369.384927 338.099679 
L 369.84684 338.099679 
L 370.000811 336.805989 
L 370.462724 336.805989 
L 370.616695 335.943529 
L 371.078608 335.943529 
L 371.232579 334.21861 
L 371.694492 334.21861 
L 371.848463 333.35615 
L 372.310376 333.35615 
L 372.464347 332.49369 
L 372.926259 332.49369 
L 373.08023 332.06246 
L 373.542143 332.06246 
L 373.696114 331.2 
L 374.158027 331.2 
L 374.311998 329.90631 
L 374.773911 329.90631 
L 374.927882 328.61262 
L 376.005679 328.61262 
L 376.15965 326.025241 
L 376.621563 326.025241 
L 376.775534 323.869091 
L 377.237446 323.869091 
L 377.391417 320.419251 
L 377.85333 320.419251 
L 378.007301 319.125561 
L 378.469214 319.125561 
L 378.623185 316.106952 
L 379.085098 316.106952 
L 379.239069 312.657112 
L 379.700982 312.657112 
L 379.854953 310.069733 
L 380.316866 310.069733 
L 380.470837 306.619893 
L 380.932749 306.619893 
L 381.08672 302.307594 
L 381.548633 302.307594 
L 381.702604 299.720214 
L 382.164517 299.720214 
L 382.318488 296.270374 
L 382.780401 296.270374 
L 382.934372 292.389305 
L 383.396285 292.389305 
L 383.550256 289.370695 
L 384.012169 289.370695 
L 384.16614 287.214545 
L 384.628053 287.214545 
L 384.782023 285.058396 
L 385.243936 285.058396 
L 385.397907 281.608556 
L 385.85982 281.608556 
L 386.013791 279.883636 
L 386.475704 279.883636 
L 386.629675 277.296257 
L 387.091588 277.296257 
L 387.245559 276.002567 
L 387.707472 276.002567 
L 387.861443 274.277647 
L 388.323356 274.277647 
L 388.477327 272.121497 
L 388.939239 272.121497 
L 389.09321 270.396578 
L 389.555123 270.396578 
L 389.709094 268.671658 
L 390.171007 268.671658 
L 390.324978 267.377968 
L 390.786891 267.377968 
L 390.940862 266.084278 
L 391.402775 266.084278 
L 391.556746 264.359358 
L 392.018659 264.359358 
L 392.17263 261.771979 
L 392.634542 261.771979 
L 392.788513 260.047059 
L 393.250426 260.047059 
L 393.404397 259.184599 
L 393.86631 259.184599 
L 394.020281 258.322139 
L 394.482194 258.322139 
L 394.636165 257.028449 
L 395.098078 257.028449 
L 395.252049 255.734759 
L 395.713962 255.734759 
L 395.867933 252.28492 
L 396.329846 252.28492 
L 396.483816 250.56 
L 396.945729 250.56 
L 397.0997 247.97262 
L 397.561613 247.97262 
L 397.715584 246.67893 
L 398.177497 246.67893 
L 398.331468 244.091551 
L 398.793381 244.091551 
L 398.947352 241.072941 
L 399.409265 241.072941 
L 399.563236 237.623102 
L 400.025149 237.623102 
L 400.17912 235.035722 
L 400.641032 235.035722 
L 400.795003 232.017112 
L 401.256916 232.017112 
L 401.410887 229.860963 
L 401.8728 229.860963 
L 402.026771 225.548663 
L 402.488684 225.548663 
L 402.642655 222.961283 
L 403.104568 222.961283 
L 403.258539 220.805134 
L 403.720452 220.805134 
L 403.874423 216.924064 
L 404.336335 216.924064 
L 404.490306 213.474225 
L 404.952219 213.474225 
L 405.10619 211.318075 
L 405.568103 211.318075 
L 405.722074 209.161925 
L 406.183987 209.161925 
L 406.337958 207.437005 
L 406.799871 207.437005 
L 406.953842 206.574545 
L 407.415755 206.574545 
L 407.569726 204.849626 
L 408.031639 204.849626 
L 408.18561 203.987166 
L 408.647522 203.987166 
L 408.801493 203.124706 
L 409.263406 203.124706 
L 409.417377 200.968556 
L 409.87929 200.968556 
L 410.033261 199.674866 
L 410.495174 199.674866 
L 410.649145 197.518717 
L 411.111058 197.518717 
L 411.265029 196.656257 
L 411.726942 196.656257 
L 411.880913 194.068877 
L 412.342825 194.068877 
L 412.496796 192.343957 
L 412.958709 192.343957 
L 413.11268 191.912727 
L 413.574593 191.912727 
L 413.728564 191.481497 
L 414.190477 191.481497 
L 414.344448 190.619037 
L 414.806361 190.619037 
L 414.960332 188.031658 
L 415.422245 188.031658 
L 415.576216 185.444278 
L 416.038129 185.444278 
L 416.192099 183.288128 
L 416.654012 183.288128 
L 416.807983 181.131979 
L 417.269896 181.131979 
L 417.423867 178.544599 
L 417.88578 178.544599 
L 418.039751 174.663529 
L 418.501664 174.663529 
L 418.655635 171.21369 
L 419.117548 171.21369 
L 419.271519 169.05754 
L 419.733432 169.05754 
L 419.887403 165.607701 
L 420.349315 165.607701 
L 420.503286 162.157861 
L 420.965199 162.157861 
L 421.11917 159.139251 
L 421.581083 159.139251 
L 421.735054 155.258182 
L 422.196967 155.258182 
L 422.350938 153.102032 
L 422.812851 153.102032 
L 422.966822 149.652193 
L 423.428735 149.652193 
L 423.582706 147.496043 
L 424.044618 147.496043 
L 424.198589 144.477433 
L 424.660502 144.477433 
L 424.814473 141.027594 
L 425.276386 141.027594 
L 425.430357 137.146524 
L 425.89227 137.146524 
L 426.046241 134.990374 
L 426.508154 134.990374 
L 426.662125 132.402995 
L 427.124038 132.402995 
L 427.278009 130.678075 
L 427.739922 130.678075 
L 427.893892 128.090695 
L 428.355805 128.090695 
L 428.509776 126.797005 
L 428.971689 126.797005 
L 429.12566 125.503316 
L 429.587573 125.503316 
L 429.741544 123.778396 
L 430.203457 123.778396 
L 430.357428 123.347166 
L 430.819341 123.347166 
L 430.973312 121.191016 
L 431.435225 121.191016 
L 431.589196 119.034866 
L 432.051108 119.034866 
L 432.205079 118.172406 
L 433.282876 118.172406 
L 433.436847 116.878717 
L 434.514644 116.878717 
L 434.668615 116.447487 
L 435.130528 116.447487 
L 435.284499 116.016257 
L 436.978179 116.016257 
L 437.13215 115.153797 
L 438.209947 115.153797 
L 438.363918 113.428877 
L 438.825831 113.428877 
L 438.979802 112.135187 
L 439.441715 112.135187 
L 439.595686 109.547807 
L 440.057598 109.547807 
L 440.211569 107.822888 
L 440.673482 107.822888 
L 440.827453 105.235508 
L 441.289366 105.235508 
L 441.443337 103.079358 
L 441.90525 103.079358 
L 442.059221 101.785668 
L 442.521134 101.785668 
L 442.675105 100.923209 
L 443.137018 100.923209 
L 443.290989 99.198289 
L 443.59893 99.198289 
L 443.59893 99.198289 
" clip-path="url(#pb5f3660342)" style="fill: none; stroke: #ff0000; stroke-width: 1.5; stroke-linecap: square"/>
   </g>
   <g id="line2d_29">
    <path d="M 294.40107 492.48 
L 294.709011 492.48 
L 294.862982 491.61754 
L 295.324895 491.61754 
L 295.478866 491.18631 
L 295.940779 491.18631 
L 296.09475 489.46139 
L 296.556663 489.46139 
L 296.710634 488.167701 
L 297.172547 488.167701 
L 297.326518 486.874011 
L 297.788431 486.874011 
L 297.942402 486.442781 
L 298.404314 486.442781 
L 298.558285 485.580321 
L 299.020198 485.580321 
L 299.174169 483.424171 
L 299.636082 483.424171 
L 299.790053 482.561711 
L 300.251966 482.561711 
L 300.405937 480.836791 
L 300.86785 480.836791 
L 301.021821 479.111872 
L 301.483734 479.111872 
L 301.637705 478.249412 
L 302.099618 478.249412 
L 302.253589 477.818182 
L 302.715501 477.818182 
L 302.869472 476.524492 
L 303.331385 476.524492 
L 303.485356 474.799572 
L 303.947269 474.799572 
L 304.10124 473.074652 
L 304.563153 473.074652 
L 304.717124 472.643422 
L 305.179037 472.643422 
L 305.333008 471.780963 
L 305.794921 471.780963 
L 305.948892 470.918503 
L 306.410804 470.918503 
L 306.564775 469.624813 
L 307.026688 469.624813 
L 307.180659 468.331123 
L 307.642572 468.331123 
L 307.796543 467.037433 
L 308.258456 467.037433 
L 308.412427 465.312513 
L 309.490224 465.312513 
L 309.644195 464.018824 
L 310.106108 464.018824 
L 310.260078 463.156364 
L 310.721991 463.156364 
L 310.875962 461.862674 
L 311.953759 461.862674 
L 312.10773 460.568984 
L 312.569643 460.568984 
L 312.723614 459.706524 
L 313.801411 459.706524 
L 313.955382 459.275294 
L 314.417294 459.275294 
L 314.571265 457.981604 
L 315.033178 457.981604 
L 315.187149 456.256684 
L 315.649062 456.256684 
L 315.803033 454.962995 
L 316.264946 454.962995 
L 316.418917 454.100535 
L 316.88083 454.100535 
L 317.034801 451.513155 
L 317.496714 451.513155 
L 317.650685 450.219465 
L 318.112597 450.219465 
L 318.266568 449.788235 
L 318.728481 449.788235 
L 318.882452 448.494545 
L 319.344365 448.494545 
L 319.498336 446.769626 
L 319.960249 446.769626 
L 320.11422 445.907166 
L 320.576133 445.907166 
L 320.730104 444.613476 
L 321.192017 444.613476 
L 321.345988 444.182246 
L 321.807901 444.182246 
L 321.961871 442.888556 
L 322.423784 442.888556 
L 322.577755 442.026096 
L 323.039668 442.026096 
L 323.193639 440.732406 
L 323.655552 440.732406 
L 323.809523 440.301176 
L 324.271436 440.301176 
L 324.425407 439.869947 
L 324.88732 439.869947 
L 325.041291 439.438717 
L 325.503204 439.438717 
L 325.657175 438.576257 
L 326.119087 438.576257 
L 326.273058 438.145027 
L 326.734971 438.145027 
L 326.888942 437.713797 
L 327.966739 437.713797 
L 328.12071 437.282567 
L 328.582623 437.282567 
L 328.736594 435.988877 
L 329.198507 435.988877 
L 329.352478 434.695187 
L 329.81439 434.695187 
L 329.968361 433.832727 
L 330.430274 433.832727 
L 330.584245 433.401497 
L 332.277926 433.401497 
L 332.431897 432.107807 
L 332.89381 432.107807 
L 333.047781 429.520428 
L 333.509694 429.520428 
L 333.663665 428.226738 
L 334.125577 428.226738 
L 334.279548 427.364278 
L 334.741461 427.364278 
L 334.895432 426.933048 
L 335.357345 426.933048 
L 335.511316 425.639358 
L 335.973229 425.639358 
L 336.1272 424.776898 
L 336.589113 424.776898 
L 336.743084 423.914439 
L 337.204997 423.914439 
L 337.358968 422.189519 
L 337.82088 422.189519 
L 337.974851 421.327059 
L 338.436764 421.327059 
L 338.590735 420.033369 
L 339.052648 420.033369 
L 339.206619 419.602139 
L 339.668532 419.602139 
L 339.822503 418.308449 
L 340.284416 418.308449 
L 340.438387 417.014759 
L 340.9003 417.014759 
L 341.054271 415.72107 
L 341.516184 415.72107 
L 341.670154 414.42738 
L 342.747951 414.42738 
L 342.901922 413.56492 
L 343.363835 413.56492 
L 343.517806 412.70246 
L 343.979719 412.70246 
L 344.13369 412.27123 
L 344.595603 412.27123 
L 344.749574 411.40877 
L 345.211487 411.40877 
L 345.365458 410.11508 
L 345.82737 410.11508 
L 345.981341 409.25262 
L 346.443254 409.25262 
L 346.597225 407.95893 
L 347.059138 407.95893 
L 347.213109 406.665241 
L 347.675022 406.665241 
L 347.828993 403.646631 
L 348.290906 403.646631 
L 348.444877 403.215401 
L 348.90679 403.215401 
L 349.060761 401.059251 
L 349.522673 401.059251 
L 349.676644 399.334332 
L 350.138557 399.334332 
L 350.292528 397.609412 
L 350.754441 397.609412 
L 350.908412 396.315722 
L 351.370325 396.315722 
L 351.524296 394.159572 
L 351.986209 394.159572 
L 352.14018 391.140963 
L 352.602093 391.140963 
L 352.756064 389.847273 
L 353.217977 389.847273 
L 353.371947 389.416043 
L 353.83386 389.416043 
L 353.987831 388.984813 
L 354.449744 388.984813 
L 354.603715 387.691123 
L 355.065628 387.691123 
L 355.219599 385.966203 
L 355.681512 385.966203 
L 355.835483 385.534973 
L 356.297396 385.534973 
L 356.451367 383.378824 
L 356.91328 383.378824 
L 357.067251 382.947594 
L 357.529163 382.947594 
L 357.683134 382.085134 
L 358.145047 382.085134 
L 358.299018 381.222674 
L 358.760931 381.222674 
L 358.914902 379.928984 
L 359.992699 379.928984 
L 360.14667 379.497754 
L 360.608583 379.497754 
L 360.762554 379.066524 
L 361.224466 379.066524 
L 361.378437 377.772834 
L 362.456234 377.772834 
L 362.610205 376.479144 
L 363.072118 376.479144 
L 363.226089 374.322995 
L 363.688002 374.322995 
L 363.841973 370.873155 
L 364.303886 370.873155 
L 364.457857 368.717005 
L 364.91977 368.717005 
L 365.073741 366.129626 
L 365.535653 366.129626 
L 365.689624 363.973476 
L 366.151537 363.973476 
L 366.305508 361.817326 
L 366.767421 361.817326 
L 366.921392 359.661176 
L 367.383305 359.661176 
L 367.537276 357.505027 
L 367.999189 357.505027 
L 368.15316 356.211337 
L 368.615073 356.211337 
L 368.769044 354.486417 
L 369.230956 354.486417 
L 369.384927 354.055187 
L 369.84684 354.055187 
L 370.000811 352.330267 
L 370.462724 352.330267 
L 370.616695 351.036578 
L 371.078608 351.036578 
L 371.232579 348.880428 
L 371.694492 348.880428 
L 371.848463 347.586738 
L 372.310376 347.586738 
L 372.464347 345.430588 
L 372.926259 345.430588 
L 373.08023 343.705668 
L 373.542143 343.705668 
L 373.696114 342.411979 
L 374.158027 342.411979 
L 374.311998 341.980749 
L 374.773911 341.980749 
L 374.927882 340.255829 
L 375.389795 340.255829 
L 375.543766 338.530909 
L 376.005679 338.530909 
L 376.15965 336.805989 
L 376.621563 336.805989 
L 376.775534 334.64984 
L 377.237446 334.64984 
L 377.391417 332.49369 
L 377.85333 332.49369 
L 378.007301 327.75016 
L 378.469214 327.75016 
L 378.623185 324.300321 
L 379.085098 324.300321 
L 379.239069 321.281711 
L 379.700982 321.281711 
L 379.854953 319.556791 
L 380.316866 319.556791 
L 380.470837 316.969412 
L 380.932749 316.969412 
L 381.08672 315.244492 
L 381.548633 315.244492 
L 381.702604 310.932193 
L 382.164517 310.932193 
L 382.318488 308.776043 
L 382.780401 308.776043 
L 382.934372 306.188663 
L 383.396285 306.188663 
L 383.550256 304.032513 
L 384.012169 304.032513 
L 384.16614 301.876364 
L 384.628053 301.876364 
L 384.782023 299.288984 
L 385.243936 299.288984 
L 385.397907 296.701604 
L 385.85982 296.701604 
L 386.013791 293.682995 
L 386.475704 293.682995 
L 386.629675 292.820535 
L 387.091588 292.820535 
L 387.245559 290.664385 
L 387.707472 290.664385 
L 387.861443 289.801925 
L 388.323356 289.801925 
L 388.477327 288.508235 
L 388.939239 288.508235 
L 389.09321 286.783316 
L 389.555123 286.783316 
L 389.709094 284.627166 
L 390.171007 284.627166 
L 390.324978 283.333476 
L 390.786891 283.333476 
L 390.940862 281.608556 
L 391.402775 281.608556 
L 391.556746 280.314866 
L 392.634542 280.314866 
L 392.788513 279.883636 
L 393.250426 279.883636 
L 393.404397 278.589947 
L 393.86631 278.589947 
L 394.020281 277.727487 
L 394.482194 277.727487 
L 394.636165 276.865027 
L 395.098078 276.865027 
L 395.252049 276.002567 
L 395.713962 276.002567 
L 395.867933 273.846417 
L 396.329846 273.846417 
L 396.483816 271.690267 
L 396.945729 271.690267 
L 397.0997 270.396578 
L 397.561613 270.396578 
L 397.715584 266.946738 
L 398.177497 266.946738 
L 398.331468 264.359358 
L 398.793381 264.359358 
L 398.947352 262.634439 
L 399.409265 262.634439 
L 399.563236 260.478289 
L 400.025149 260.478289 
L 400.17912 257.028449 
L 400.641032 257.028449 
L 400.795003 254.00984 
L 401.256916 254.00984 
L 401.410887 250.12877 
L 401.8728 250.12877 
L 402.026771 248.40385 
L 402.488684 248.40385 
L 402.642655 246.247701 
L 403.104568 246.247701 
L 403.258539 242.366631 
L 403.720452 242.366631 
L 403.874423 241.504171 
L 404.336335 241.504171 
L 404.490306 240.210481 
L 404.952219 240.210481 
L 405.10619 238.054332 
L 405.568103 238.054332 
L 405.722074 235.898182 
L 406.183987 235.898182 
L 406.337958 232.879572 
L 406.799871 232.879572 
L 406.953842 229.429733 
L 407.415755 229.429733 
L 407.569726 228.136043 
L 408.031639 228.136043 
L 408.18561 225.117433 
L 408.647522 225.117433 
L 408.801493 224.254973 
L 409.263406 224.254973 
L 409.417377 222.961283 
L 409.87929 222.961283 
L 410.033261 220.805134 
L 410.495174 220.805134 
L 410.649145 220.373904 
L 411.111058 220.373904 
L 411.265029 218.217754 
L 412.342825 218.217754 
L 412.496796 216.492834 
L 412.958709 216.492834 
L 413.11268 214.767914 
L 413.574593 214.767914 
L 413.728564 212.611765 
L 414.190477 212.611765 
L 414.344448 212.180535 
L 414.806361 212.180535 
L 414.960332 209.593155 
L 415.422245 209.593155 
L 415.576216 207.868235 
L 416.038129 207.868235 
L 416.192099 205.712086 
L 416.654012 205.712086 
L 416.807983 201.831016 
L 417.269896 201.831016 
L 417.423867 198.812406 
L 417.88578 198.812406 
L 418.039751 197.087487 
L 418.501664 197.087487 
L 418.655635 194.500107 
L 419.117548 194.500107 
L 419.271519 192.775187 
L 419.733432 192.775187 
L 419.887403 189.756578 
L 420.349315 189.756578 
L 420.503286 187.169198 
L 420.965199 187.169198 
L 421.11917 184.581818 
L 421.581083 184.581818 
L 421.735054 182.856898 
L 422.196967 182.856898 
L 422.350938 180.269519 
L 422.812851 180.269519 
L 422.966822 179.838289 
L 423.428735 179.838289 
L 423.582706 177.250909 
L 424.044618 177.250909 
L 424.198589 175.094759 
L 424.660502 175.094759 
L 424.814473 173.36984 
L 425.276386 173.36984 
L 425.430357 172.50738 
L 425.89227 172.50738 
L 426.046241 171.21369 
L 426.508154 171.21369 
L 426.662125 170.35123 
L 427.124038 170.35123 
L 427.278009 168.19508 
L 428.355805 168.19508 
L 428.509776 166.90139 
L 428.971689 166.90139 
L 429.12566 165.607701 
L 429.587573 165.607701 
L 429.741544 164.745241 
L 430.203457 164.745241 
L 430.357428 163.451551 
L 430.819341 163.451551 
L 430.973312 162.157861 
L 431.435225 162.157861 
L 431.589196 161.295401 
L 432.051108 161.295401 
L 432.205079 160.432941 
L 432.666992 160.432941 
L 432.820963 159.570481 
L 433.282876 159.570481 
L 433.436847 159.139251 
L 433.89876 159.139251 
L 434.052731 157.845561 
L 434.514644 157.845561 
L 434.668615 157.414332 
L 435.130528 157.414332 
L 435.284499 155.689412 
L 435.746411 155.689412 
L 435.900382 154.826952 
L 436.362295 154.826952 
L 436.516266 153.964492 
L 436.978179 153.964492 
L 437.13215 152.239572 
L 437.594063 152.239572 
L 437.748034 150.945882 
L 438.209947 150.945882 
L 438.363918 150.083422 
L 438.825831 150.083422 
L 438.979802 149.220963 
L 439.441715 149.220963 
L 439.595686 148.358503 
L 440.057598 148.358503 
L 440.211569 146.633583 
L 440.673482 146.633583 
L 440.827453 145.771123 
L 441.289366 145.771123 
L 441.443337 144.908663 
L 441.90525 144.908663 
L 442.059221 143.183743 
L 442.521134 143.183743 
L 442.675105 141.890053 
L 443.137018 141.890053 
L 443.290989 140.596364 
L 443.59893 140.596364 
L 443.59893 140.596364 
" clip-path="url(#pb5f3660342)" style="fill: none; stroke: #008000; stroke-width: 1.5; stroke-linecap: square"/>
   </g>
   <g id="patch_9">
    <path d="M 286.941176 512.64 
L 286.941176 69.12 
" style="fill: none; stroke: #000000; stroke-width: 0.8; stroke-linejoin: miter; stroke-linecap: square"/>
   </g>
   <g id="patch_10">
    <path d="M 451.058824 512.64 
L 451.058824 69.12 
" style="fill: none; stroke: #000000; stroke-width: 0.8; stroke-linejoin: miter; stroke-linecap: square"/>
   </g>
   <g id="patch_11">
    <path d="M 286.941176 512.64 
L 451.058824 512.64 
" style="fill: none; stroke: #000000; stroke-width: 0.8; stroke-linejoin: miter; stroke-linecap: square"/>
   </g>
   <g id="patch_12">
    <path d="M 286.941176 69.12 
L 451.058824 69.12 
" style="fill: none; stroke: #000000; stroke-width: 0.8; stroke-linejoin: miter; stroke-linecap: square"/>
   </g>
   <g id="legend_2">
    <g id="patch_13">
     <path d="M 293.941176 121.154375 
L 393.863051 121.154375 
Q 395.863051 121.154375 395.863051 119.154375 
L 395.863051 76.12 
Q 395.863051 74.12 393.863051 74.12 
L 293.941176 74.12 
Q 291.941176 74.12 291.941176 76.12 
L 291.941176 119.154375 
Q 291.941176 121.154375 293.941176 121.154375 
z
" style="fill: #ffffff; opacity: 0.8; stroke: #cccccc; stroke-linejoin: miter"/>
    </g>
    <g id="line2d_30">
     <path d="M 295.941176 82.218438 
L 305.941176 82.218438 
L 315.941176 82.218438 
" style="fill: none; stroke: #0000ff; stroke-width: 1.5; stroke-linecap: square"/>
    </g>
    <g id="text_24">
     <!-- O1 requested -->
     <g transform="translate(323.941176 85.718438) scale(0.1 -0.1)">
      <defs>
       <path id="DejaVuSans-72" d="M 2631 2963 
Q 2534 3019 2420 3045 
Q 2306 3072 2169 3072 
Q 1681 3072 1420 2755 
Q 1159 2438 1159 1844 
L 1159 0 
L 581 0 
L 581 3500 
L 1159 3500 
L 1159 2956 
Q 1341 3275 1631 3429 
Q 1922 3584 2338 3584 
Q 2397 3584 2469 3576 
Q 2541 3569 2628 3553 
L 2631 2963 
z
" transform="scale(0.015625)"/>
       <path id="DejaVuSans-65" d="M 3597 1894 
L 3597 1613 
L 953 1613 
Q 991 1019 1311 708 
Q 1631 397 2203 397 
Q 2534 397 2845 478 
Q 3156 559 3463 722 
L 3463 178 
Q 3153 47 2828 -22 
Q 2503 -91 2169 -91 
Q 1331 -91 842 396 
Q 353 884 353 1716 
Q 353 2575 817 3079 
Q 1281 3584 2069 3584 
Q 2775 3584 3186 3129 
Q 3597 2675 3597 1894 
z
M 3022 2063 
Q 3016 2534 2758 2815 
Q 2500 3097 2075 3097 
Q 1594 3097 1305 2825 
Q 1016 2553 972 2059 
L 3022 2063 
z
" transform="scale(0.015625)"/>
       <path id="DejaVuSans-71" d="M 947 1747 
Q 947 1113 1208 752 
Q 1469 391 1925 391 
Q 2381 391 2643 752 
Q 2906 1113 2906 1747 
Q 2906 2381 2643 2742 
Q 2381 3103 1925 3103 
Q 1469 3103 1208 2742 
Q 947 2381 947 1747 
z
M 2906 525 
Q 2725 213 2448 61 
Q 2172 -91 1784 -91 
Q 1150 -91 751 415 
Q 353 922 353 1747 
Q 353 2572 751 3078 
Q 1150 3584 1784 3584 
Q 2172 3584 2448 3432 
Q 2725 3281 2906 2969 
L 2906 3500 
L 3481 3500 
L 3481 -1331 
L 2906 -1331 
L 2906 525 
z
" transform="scale(0.015625)"/>
       <path id="DejaVuSans-73" d="M 2834 3397 
L 2834 2853 
Q 2591 2978 2328 3040 
Q 2066 3103 1784 3103 
Q 1356 3103 1142 2972 
Q 928 2841 928 2578 
Q 928 2378 1081 2264 
Q 1234 2150 1697 2047 
L 1894 2003 
Q 2506 1872 2764 1633 
Q 3022 1394 3022 966 
Q 3022 478 2636 193 
Q 2250 -91 1575 -91 
Q 1294 -91 989 -36 
Q 684 19 347 128 
L 347 722 
Q 666 556 975 473 
Q 1284 391 1588 391 
Q 1994 391 2212 530 
Q 2431 669 2431 922 
Q 2431 1156 2273 1281 
Q 2116 1406 1581 1522 
L 1381 1569 
Q 847 1681 609 1914 
Q 372 2147 372 2553 
Q 372 3047 722 3315 
Q 1072 3584 1716 3584 
Q 2034 3584 2315 3537 
Q 2597 3491 2834 3397 
z
" transform="scale(0.015625)"/>
       <path id="DejaVuSans-64" d="M 2906 2969 
L 2906 4863 
L 3481 4863 
L 3481 0 
L 2906 0 
L 2906 525 
Q 2725 213 2448 61 
Q 2172 -91 1784 -91 
Q 1150 -91 751 415 
Q 353 922 353 1747 
Q 353 2572 751 3078 
Q 1150 3584 1784 3584 
Q 2172 3584 2448 3432 
Q 2725 3281 2906 2969 
z
M 947 1747 
Q 947 1113 1208 752 
Q 1469 391 1925 391 
Q 2381 391 2643 752 
Q 2906 1113 2906 1747 
Q 2906 2381 2643 2742 
Q 2381 3103 1925 3103 
Q 1469 3103 1208 2742 
Q 947 2381 947 1747 
z
" transform="scale(0.015625)"/>
      </defs>
      <use xlink:href="#DejaVuSans-4f"/>
      <use xlink:href="#DejaVuSans-31" x="78.710938"/>
      <use xlink:href="#DejaVuSans-20" x="142.333984"/>
      <use xlink:href="#DejaVuSans-72" x="174.121094"/>
      <use xlink:href="#DejaVuSans-65" x="212.984375"/>
      <use xlink:href="#DejaVuSans-71" x="274.507812"/>
      <use xlink:href="#DejaVuSans-75" x="337.984375"/>
      <use xlink:href="#DejaVuSans-65" x="401.363281"/>
      <use xlink:href="#DejaVuSans-73" x="462.886719"/>
      <use xlink:href="#DejaVuSans-74" x="514.986328"/>
      <use xlink:href="#DejaVuSans-65" x="554.195312"/>
      <use xlink:href="#DejaVuSans-64" x="615.71875"/>
     </g>
    </g>
    <g id="line2d_31">
     <path d="M 295.941176 96.896563 
L 305.941176 96.896563 
L 315.941176 96.896563 
" style="fill: none; stroke: #ff0000; stroke-width: 1.5; stroke-linecap: square"/>
    </g>
    <g id="text_25">
     <!-- O2 requested -->
     <g transform="translate(323.941176 100.396563) scale(0.1 -0.1)">
      <use xlink:href="#DejaVuSans-4f"/>
      <use xlink:href="#DejaVuSans-32" x="78.710938"/>
      <use xlink:href="#DejaVuSans-20" x="142.333984"/>
      <use xlink:href="#DejaVuSans-72" x="174.121094"/>
      <use xlink:href="#DejaVuSans-65" x="212.984375"/>
      <use xlink:href="#DejaVuSans-71" x="274.507812"/>
      <use xlink:href="#DejaVuSans-75" x="337.984375"/>
      <use xlink:href="#DejaVuSans-65" x="401.363281"/>
      <use xlink:href="#DejaVuSans-73" x="462.886719"/>
      <use xlink:href="#DejaVuSans-74" x="514.986328"/>
      <use xlink:href="#DejaVuSans-65" x="554.195312"/>
      <use xlink:href="#DejaVuSans-64" x="615.71875"/>
     </g>
    </g>
    <g id="line2d_32">
     <path d="M 295.941176 111.574688 
L 305.941176 111.574688 
L 315.941176 111.574688 
" style="fill: none; stroke: #008000; stroke-width: 1.5; stroke-linecap: square"/>
    </g>
    <g id="text_26">
     <!-- O3 requested -->
     <g transform="translate(323.941176 115.074688) scale(0.1 -0.1)">
      <use xlink:href="#DejaVuSans-4f"/>
      <use xlink:href="#DejaVuSans-33" x="78.710938"/>
      <use xlink:href="#DejaVuSans-20" x="142.333984"/>
      <use xlink:href="#DejaVuSans-72" x="174.121094"/>
      <use xlink:href="#DejaVuSans-65" x="212.984375"/>
      <use xlink:href="#DejaVuSans-71" x="274.507812"/>
      <use xlink:href="#DejaVuSans-75" x="337.984375"/>
      <use xlink:href="#DejaVuSans-65" x="401.363281"/>
      <use xlink:href="#DejaVuSans-73" x="462.886719"/>
      <use xlink:href="#DejaVuSans-74" x="514.986328"/>
      <use xlink:href="#DejaVuSans-65" x="554.195312"/>
      <use xlink:href="#DejaVuSans-64" x="615.71875"/>
     </g>
    </g>
   </g>
  </g>
  <g id="axes_3">
   <g id="patch_14">
    <path d="M 483.882353 512.64 
L 648 512.64 
L 648 69.12 
L 483.882353 69.12 
z
" style="fill: #ffffff"/>
   </g>
   <g id="matplotlib.axis_5">
    <g id="xtick_11">
     <g id="line2d_33">
      <g>
       <use xlink:href="#mcf460bfe1d" x="491.188275" y="512.64" style="stroke: #000000; stroke-width: 0.8"/>
      </g>
     </g>
     <g id="text_27">
      <!-- 0 -->
      <g transform="translate(488.007025 527.238438) scale(0.1 -0.1)">
       <use xlink:href="#DejaVuSans-30"/>
      </g>
     </g>
    </g>
    <g id="xtick_12">
     <g id="line2d_34">
      <g>
       <use xlink:href="#mcf460bfe1d" x="529.681015" y="512.64" style="stroke: #000000; stroke-width: 0.8"/>
      </g>
     </g>
     <g id="text_28">
      <!-- 250 -->
      <g transform="translate(520.137265 527.238438) scale(0.1 -0.1)">
       <use xlink:href="#DejaVuSans-32"/>
       <use xlink:href="#DejaVuSans-35" x="63.623047"/>
       <use xlink:href="#DejaVuSans-30" x="127.246094"/>
      </g>
     </g>
    </g>
    <g id="xtick_13">
     <g id="line2d_35">
      <g>
       <use xlink:href="#mcf460bfe1d" x="568.173755" y="512.64" style="stroke: #000000; stroke-width: 0.8"/>
      </g>
     </g>
     <g id="text_29">
      <!-- 500 -->
      <g transform="translate(558.630005 527.238438) scale(0.1 -0.1)">
       <use xlink:href="#DejaVuSans-35"/>
       <use xlink:href="#DejaVuSans-30" x="63.623047"/>
       <use xlink:href="#DejaVuSans-30" x="127.246094"/>
      </g>
     </g>
    </g>
    <g id="xtick_14">
     <g id="line2d_36">
      <g>
       <use xlink:href="#mcf460bfe1d" x="606.666496" y="512.64" style="stroke: #000000; stroke-width: 0.8"/>
      </g>
     </g>
     <g id="text_30">
      <!-- 750 -->
      <g transform="translate(597.122746 527.238438) scale(0.1 -0.1)">
       <use xlink:href="#DejaVuSans-37"/>
       <use xlink:href="#DejaVuSans-35" x="63.623047"/>
       <use xlink:href="#DejaVuSans-30" x="127.246094"/>
      </g>
     </g>
    </g>
    <g id="xtick_15">
     <g id="line2d_37">
      <g>
       <use xlink:href="#mcf460bfe1d" x="645.159236" y="512.64" style="stroke: #000000; stroke-width: 0.8"/>
      </g>
     </g>
     <g id="text_31">
      <!-- 1000 -->
      <g transform="translate(632.434236 527.238438) scale(0.1 -0.1)">
       <use xlink:href="#DejaVuSans-31"/>
       <use xlink:href="#DejaVuSans-30" x="63.623047"/>
       <use xlink:href="#DejaVuSans-30" x="127.246094"/>
       <use xlink:href="#DejaVuSans-30" x="190.869141"/>
      </g>
     </g>
    </g>
   </g>
   <g id="matplotlib.axis_6">
    <g id="ytick_11">
     <g id="line2d_38">
      <g>
       <use xlink:href="#m73b3d53add" x="483.882353" y="492.48" style="stroke: #000000; stroke-width: 0.8"/>
      </g>
     </g>
     <g id="text_32">
      <!-- 0 -->
      <g transform="translate(470.519853 496.279219) scale(0.1 -0.1)">
       <use xlink:href="#DejaVuSans-30"/>
      </g>
     </g>
    </g>
    <g id="ytick_12">
     <g id="line2d_39">
      <g>
       <use xlink:href="#m73b3d53add" x="483.882353" y="404.827826" style="stroke: #000000; stroke-width: 0.8"/>
      </g>
     </g>
     <g id="text_33">
      <!-- 20 -->
      <g transform="translate(464.157353 408.627045) scale(0.1 -0.1)">
       <use xlink:href="#DejaVuSans-32"/>
       <use xlink:href="#DejaVuSans-30" x="63.623047"/>
      </g>
     </g>
    </g>
    <g id="ytick_13">
     <g id="line2d_40">
      <g>
       <use xlink:href="#m73b3d53add" x="483.882353" y="317.175652" style="stroke: #000000; stroke-width: 0.8"/>
      </g>
     </g>
     <g id="text_34">
      <!-- 40 -->
      <g transform="translate(464.157353 320.974871) scale(0.1 -0.1)">
       <use xlink:href="#DejaVuSans-34"/>
       <use xlink:href="#DejaVuSans-30" x="63.623047"/>
      </g>
     </g>
    </g>
    <g id="ytick_14">
     <g id="line2d_41">
      <g>
       <use xlink:href="#m73b3d53add" x="483.882353" y="229.523478" style="stroke: #000000; stroke-width: 0.8"/>
      </g>
     </g>
     <g id="text_35">
      <!-- 60 -->
      <g transform="translate(464.157353 233.322697) scale(0.1 -0.1)">
       <use xlink:href="#DejaVuSans-36"/>
       <use xlink:href="#DejaVuSans-30" x="63.623047"/>
      </g>
     </g>
    </g>
    <g id="ytick_15">
     <g id="line2d_42">
      <g>
       <use xlink:href="#m73b3d53add" x="483.882353" y="141.871304" style="stroke: #000000; stroke-width: 0.8"/>
      </g>
     </g>
     <g id="text_36">
      <!-- 80 -->
      <g transform="translate(464.157353 145.670523) scale(0.1 -0.1)">
       <use xlink:href="#DejaVuSans-38"/>
       <use xlink:href="#DejaVuSans-30" x="63.623047"/>
      </g>
     </g>
    </g>
   </g>
   <g id="line2d_43">
    <path d="M 491.342246 492.48 
L 499.040794 492.48 
L 499.194765 488.097391 
L 500.272562 488.097391 
L 500.426533 483.714783 
L 640.540107 483.714783 
L 640.540107 483.714783 
" clip-path="url(#p7831801407)" style="fill: none; stroke: #0000ff; stroke-width: 1.5; stroke-linecap: square"/>
   </g>
   <g id="line2d_44">
    <path d="M 491.342246 492.48 
L 497.809026 492.48 
L 497.962997 488.097391 
L 498.42491 488.097391 
L 498.578881 474.949565 
L 499.656678 474.949565 
L 499.810649 470.566957 
L 500.888446 470.566957 
L 501.042417 453.036522 
L 501.504329 453.036522 
L 501.6583 435.506087 
L 502.120213 435.506087 
L 502.274184 426.74087 
L 502.736097 426.74087 
L 502.890068 409.210435 
L 503.351981 409.210435 
L 503.505952 396.062609 
L 506.4314 396.062609 
L 506.585371 391.68 
L 508.279052 391.68 
L 508.433023 387.297391 
L 510.126703 387.297391 
L 510.280674 378.532174 
L 510.742587 378.532174 
L 510.896558 374.149565 
L 511.358471 374.149565 
L 511.512442 369.766957 
L 512.590239 369.766957 
L 512.74421 352.236522 
L 513.206122 352.236522 
L 513.360093 330.323478 
L 513.822006 330.323478 
L 513.975977 325.94087 
L 514.43789 325.94087 
L 514.591861 312.793043 
L 515.053774 312.793043 
L 515.207745 286.497391 
L 515.669658 286.497391 
L 515.823629 268.966957 
L 522.44438 268.966957 
L 522.598351 264.584348 
L 524.292032 264.584348 
L 524.446003 260.201739 
L 524.907915 260.201739 
L 525.061886 255.81913 
L 525.523799 255.81913 
L 525.67777 251.436522 
L 526.755567 251.436522 
L 526.909538 247.053913 
L 529.219102 247.053913 
L 529.373073 242.671304 
L 529.834986 242.671304 
L 529.988957 229.523478 
L 530.45087 229.523478 
L 530.604841 216.375652 
L 531.066754 216.375652 
L 531.220725 194.462609 
L 531.682638 194.462609 
L 531.836609 172.549565 
L 532.298522 172.549565 
L 532.452493 159.401739 
L 532.914405 159.401739 
L 533.068376 141.871304 
L 533.530289 141.871304 
L 533.68426 119.958261 
L 534.146173 119.958261 
L 534.300144 111.193043 
L 534.762057 111.193043 
L 534.916028 102.427826 
L 536.609708 102.427826 
L 536.763679 98.045217 
L 537.225592 98.045217 
L 537.379563 89.28 
L 640.540107 89.28 
L 640.540107 89.28 
" clip-path="url(#p7831801407)" style="fill: none; stroke: #ff0000; stroke-width: 1.5; stroke-linecap: square"/>
   </g>
   <g id="line2d_45">
    <path d="M 491.342246 492.48 
L 497.809026 492.48 
L 497.962997 479.332174 
L 498.42491 479.332174 
L 498.578881 474.949565 
L 499.040794 474.949565 
L 499.194765 470.566957 
L 500.272562 470.566957 
L 500.426533 466.184348 
L 640.540107 466.184348 
L 640.540107 466.184348 
" clip-path="url(#p7831801407)" style="fill: none; stroke: #008000; stroke-width: 1.5; stroke-linecap: square"/>
   </g>
   <g id="patch_15">
    <path d="M 483.882353 512.64 
L 483.882353 69.12 
" style="fill: none; stroke: #000000; stroke-width: 0.8; stroke-linejoin: miter; stroke-linecap: square"/>
   </g>
   <g id="patch_16">
    <path d="M 648 512.64 
L 648 69.12 
" style="fill: none; stroke: #000000; stroke-width: 0.8; stroke-linejoin: miter; stroke-linecap: square"/>
   </g>
   <g id="patch_17">
    <path d="M 483.882353 512.64 
L 648 512.64 
" style="fill: none; stroke: #000000; stroke-width: 0.8; stroke-linejoin: miter; stroke-linecap: square"/>
   </g>
   <g id="patch_18">
    <path d="M 483.882353 69.12 
L 648 69.12 
" style="fill: none; stroke: #000000; stroke-width: 0.8; stroke-linejoin: miter; stroke-linecap: square"/>
   </g>
   <g id="legend_3">
    <g id="patch_19">
     <path d="M 551.1625 314.397188 
L 641 314.397188 
Q 643 314.397188 643 312.397188 
L 643 269.362813 
Q 643 267.362813 641 267.362813 
L 551.1625 267.362813 
Q 549.1625 267.362813 549.1625 269.362813 
L 549.1625 312.397188 
Q 549.1625 314.397188 551.1625 314.397188 
z
" style="fill: #ffffff; opacity: 0.8; stroke: #cccccc; stroke-linejoin: miter"/>
    </g>
    <g id="line2d_46">
     <path d="M 553.1625 275.46125 
L 563.1625 275.46125 
L 573.1625 275.46125 
" style="fill: none; stroke: #0000ff; stroke-width: 1.5; stroke-linecap: square"/>
    </g>
    <g id="text_37">
     <!-- O1 ensured -->
     <g transform="translate(581.1625 278.96125) scale(0.1 -0.1)">
      <defs>
       <path id="DejaVuSans-6e" d="M 3513 2113 
L 3513 0 
L 2938 0 
L 2938 2094 
Q 2938 2591 2744 2837 
Q 2550 3084 2163 3084 
Q 1697 3084 1428 2787 
Q 1159 2491 1159 1978 
L 1159 0 
L 581 0 
L 581 3500 
L 1159 3500 
L 1159 2956 
Q 1366 3272 1645 3428 
Q 1925 3584 2291 3584 
Q 2894 3584 3203 3211 
Q 3513 2838 3513 2113 
z
" transform="scale(0.015625)"/>
      </defs>
      <use xlink:href="#DejaVuSans-4f"/>
      <use xlink:href="#DejaVuSans-31" x="78.710938"/>
      <use xlink:href="#DejaVuSans-20" x="142.333984"/>
      <use xlink:href="#DejaVuSans-65" x="174.121094"/>
      <use xlink:href="#DejaVuSans-6e" x="235.644531"/>
      <use xlink:href="#DejaVuSans-73" x="299.023438"/>
      <use xlink:href="#DejaVuSans-75" x="351.123047"/>
      <use xlink:href="#DejaVuSans-72" x="414.501953"/>
      <use xlink:href="#DejaVuSans-65" x="453.365234"/>
      <use xlink:href="#DejaVuSans-64" x="514.888672"/>
     </g>
    </g>
    <g id="line2d_47">
     <path d="M 553.1625 290.139375 
L 563.1625 290.139375 
L 573.1625 290.139375 
" style="fill: none; stroke: #ff0000; stroke-width: 1.5; stroke-linecap: square"/>
    </g>
    <g id="text_38">
     <!-- O2 ensured -->
     <g transform="translate(581.1625 293.639375) scale(0.1 -0.1)">
      <use xlink:href="#DejaVuSans-4f"/>
      <use xlink:href="#DejaVuSans-32" x="78.710938"/>
      <use xlink:href="#DejaVuSans-20" x="142.333984"/>
      <use xlink:href="#DejaVuSans-65" x="174.121094"/>
      <use xlink:href="#DejaVuSans-6e" x="235.644531"/>
      <use xlink:href="#DejaVuSans-73" x="299.023438"/>
      <use xlink:href="#DejaVuSans-75" x="351.123047"/>
      <use xlink:href="#DejaVuSans-72" x="414.501953"/>
      <use xlink:href="#DejaVuSans-65" x="453.365234"/>
      <use xlink:href="#DejaVuSans-64" x="514.888672"/>
     </g>
    </g>
    <g id="line2d_48">
     <path d="M 553.1625 304.8175 
L 563.1625 304.8175 
L 573.1625 304.8175 
" style="fill: none; stroke: #008000; stroke-width: 1.5; stroke-linecap: square"/>
    </g>
    <g id="text_39">
     <!-- O3 ensured -->
     <g transform="translate(581.1625 308.3175) scale(0.1 -0.1)">
      <use xlink:href="#DejaVuSans-4f"/>
      <use xlink:href="#DejaVuSans-33" x="78.710938"/>
      <use xlink:href="#DejaVuSans-20" x="142.333984"/>
      <use xlink:href="#DejaVuSans-65" x="174.121094"/>
      <use xlink:href="#DejaVuSans-6e" x="235.644531"/>
      <use xlink:href="#DejaVuSans-73" x="299.023438"/>
      <use xlink:href="#DejaVuSans-75" x="351.123047"/>
      <use xlink:href="#DejaVuSans-72" x="414.501953"/>
      <use xlink:href="#DejaVuSans-65" x="453.365234"/>
      <use xlink:href="#DejaVuSans-64" x="514.888672"/>
     </g>
    </g>
   </g>
  </g>
 </g>
 <defs>
  <clipPath id="p5f1ea1b86a">
   <rect x="90" y="69.12" width="164.117647" height="443.52"/>
  </clipPath>
  <clipPath id="pb5f3660342">
   <rect x="286.941176" y="69.12" width="164.117647" height="443.52"/>
  </clipPath>
  <clipPath id="p7831801407">
   <rect x="483.882353" y="69.12" width="164.117647" height="443.52"/>
  </clipPath>
 </defs>
</svg>
