<?xml version="1.0" encoding="utf-8" standalone="no"?>
<!DOCTYPE svg PUBLIC "-//W3C//DTD SVG 1.1//EN"
  "http://www.w3.org/Graphics/SVG/1.1/DTD/svg11.dtd">
<svg xmlns:xlink="http://www.w3.org/1999/xlink" width="720pt" height="576pt" viewBox="0 0 720 576" xmlns="http://www.w3.org/2000/svg" version="1.1">
 <metadata>
  <rdf:RDF xmlns:dc="http://purl.org/dc/elements/1.1/" xmlns:cc="http://creativecommons.org/ns#" xmlns:rdf="http://www.w3.org/1999/02/22-rdf-syntax-ns#">
   <cc:Work>
    <dc:type rdf:resource="http://purl.org/dc/dcmitype/StillImage"/>
    <dc:date>2023-05-31T19:31:44.873565</dc:date>
    <dc:format>image/svg+xml</dc:format>
    <dc:creator>
     <cc:Agent>
      <dc:title>Matplotlib v3.7.1, https://matplotlib.org/</dc:title>
     </cc:Agent>
    </dc:creator>
   </cc:Work>
  </rdf:RDF>
 </metadata>
 <defs>
  <style type="text/css">*{stroke-linejoin: round; stroke-linecap: butt}</style>
 </defs>
 <g id="figure_1">
  <g id="patch_1">
   <path d="M 0 576 
L 720 576 
L 720 0 
L 0 0 
z
" style="fill: #ffffff"/>
  </g>
  <g id="axes_1">
   <g id="patch_2">
    <path d="M 90 512.64 
L 254.117647 512.64 
L 254.117647 69.12 
L 90 69.12 
z
" style="fill: #ffffff"/>
   </g>
   <g id="matplotlib.axis_1">
    <g id="xtick_1">
     <g id="line2d_1">
      <defs>
       <path id="ma2848a4a95" d="M 0 0 
L 0 3.5 
" style="stroke: #000000; stroke-width: 0.8"/>
      </defs>
      <g>
       <use xlink:href="#ma2848a4a95" x="97.278828" y="512.64" style="stroke: #000000; stroke-width: 0.8"/>
      </g>
     </g>
     <g id="text_1">
      <!-- 0 -->
      <g transform="translate(94.097578 527.238438) scale(0.1 -0.1)">
       <defs>
        <path id="DejaVuSans-30" d="M 2034 4250 
Q 1547 4250 1301 3770 
Q 1056 3291 1056 2328 
Q 1056 1369 1301 889 
Q 1547 409 2034 409 
Q 2525 409 2770 889 
Q 3016 1369 3016 2328 
Q 3016 3291 2770 3770 
Q 2525 4250 2034 4250 
z
M 2034 4750 
Q 2819 4750 3233 4129 
Q 3647 3509 3647 2328 
Q 3647 1150 3233 529 
Q 2819 -91 2034 -91 
Q 1250 -91 836 529 
Q 422 1150 422 2328 
Q 422 3509 836 4129 
Q 1250 4750 2034 4750 
z
" transform="scale(0.015625)"/>
       </defs>
       <use xlink:href="#DejaVuSans-30"/>
      </g>
     </g>
    </g>
    <g id="xtick_2">
     <g id="line2d_2">
      <g>
       <use xlink:href="#ma2848a4a95" x="133.491901" y="512.64" style="stroke: #000000; stroke-width: 0.8"/>
      </g>
     </g>
     <g id="text_2">
      <!-- 200 -->
      <g transform="translate(123.948151 527.238438) scale(0.1 -0.1)">
       <defs>
        <path id="DejaVuSans-32" d="M 1228 531 
L 3431 531 
L 3431 0 
L 469 0 
L 469 531 
Q 828 903 1448 1529 
Q 2069 2156 2228 2338 
Q 2531 2678 2651 2914 
Q 2772 3150 2772 3378 
Q 2772 3750 2511 3984 
Q 2250 4219 1831 4219 
Q 1534 4219 1204 4116 
Q 875 4013 500 3803 
L 500 4441 
Q 881 4594 1212 4672 
Q 1544 4750 1819 4750 
Q 2544 4750 2975 4387 
Q 3406 4025 3406 3419 
Q 3406 3131 3298 2873 
Q 3191 2616 2906 2266 
Q 2828 2175 2409 1742 
Q 1991 1309 1228 531 
z
" transform="scale(0.015625)"/>
       </defs>
       <use xlink:href="#DejaVuSans-32"/>
       <use xlink:href="#DejaVuSans-30" x="63.623047"/>
       <use xlink:href="#DejaVuSans-30" x="127.246094"/>
      </g>
     </g>
    </g>
    <g id="xtick_3">
     <g id="line2d_3">
      <g>
       <use xlink:href="#ma2848a4a95" x="169.704974" y="512.64" style="stroke: #000000; stroke-width: 0.8"/>
      </g>
     </g>
     <g id="text_3">
      <!-- 400 -->
      <g transform="translate(160.161224 527.238438) scale(0.1 -0.1)">
       <defs>
        <path id="DejaVuSans-34" d="M 2419 4116 
L 825 1625 
L 2419 1625 
L 2419 4116 
z
M 2253 4666 
L 3047 4666 
L 3047 1625 
L 3713 1625 
L 3713 1100 
L 3047 1100 
L 3047 0 
L 2419 0 
L 2419 1100 
L 313 1100 
L 313 1709 
L 2253 4666 
z
" transform="scale(0.015625)"/>
       </defs>
       <use xlink:href="#DejaVuSans-34"/>
       <use xlink:href="#DejaVuSans-30" x="63.623047"/>
       <use xlink:href="#DejaVuSans-30" x="127.246094"/>
      </g>
     </g>
    </g>
    <g id="xtick_4">
     <g id="line2d_4">
      <g>
       <use xlink:href="#ma2848a4a95" x="205.918047" y="512.64" style="stroke: #000000; stroke-width: 0.8"/>
      </g>
     </g>
     <g id="text_4">
      <!-- 600 -->
      <g transform="translate(196.374297 527.238438) scale(0.1 -0.1)">
       <defs>
        <path id="DejaVuSans-36" d="M 2113 2584 
Q 1688 2584 1439 2293 
Q 1191 2003 1191 1497 
Q 1191 994 1439 701 
Q 1688 409 2113 409 
Q 2538 409 2786 701 
Q 3034 994 3034 1497 
Q 3034 2003 2786 2293 
Q 2538 2584 2113 2584 
z
M 3366 4563 
L 3366 3988 
Q 3128 4100 2886 4159 
Q 2644 4219 2406 4219 
Q 1781 4219 1451 3797 
Q 1122 3375 1075 2522 
Q 1259 2794 1537 2939 
Q 1816 3084 2150 3084 
Q 2853 3084 3261 2657 
Q 3669 2231 3669 1497 
Q 3669 778 3244 343 
Q 2819 -91 2113 -91 
Q 1303 -91 875 529 
Q 447 1150 447 2328 
Q 447 3434 972 4092 
Q 1497 4750 2381 4750 
Q 2619 4750 2861 4703 
Q 3103 4656 3366 4563 
z
" transform="scale(0.015625)"/>
       </defs>
       <use xlink:href="#DejaVuSans-36"/>
       <use xlink:href="#DejaVuSans-30" x="63.623047"/>
       <use xlink:href="#DejaVuSans-30" x="127.246094"/>
      </g>
     </g>
    </g>
    <g id="xtick_5">
     <g id="line2d_5">
      <g>
       <use xlink:href="#ma2848a4a95" x="242.13112" y="512.64" style="stroke: #000000; stroke-width: 0.8"/>
      </g>
     </g>
     <g id="text_5">
      <!-- 800 -->
      <g transform="translate(232.58737 527.238438) scale(0.1 -0.1)">
       <defs>
        <path id="DejaVuSans-38" d="M 2034 2216 
Q 1584 2216 1326 1975 
Q 1069 1734 1069 1313 
Q 1069 891 1326 650 
Q 1584 409 2034 409 
Q 2484 409 2743 651 
Q 3003 894 3003 1313 
Q 3003 1734 2745 1975 
Q 2488 2216 2034 2216 
z
M 1403 2484 
Q 997 2584 770 2862 
Q 544 3141 544 3541 
Q 544 4100 942 4425 
Q 1341 4750 2034 4750 
Q 2731 4750 3128 4425 
Q 3525 4100 3525 3541 
Q 3525 3141 3298 2862 
Q 3072 2584 2669 2484 
Q 3125 2378 3379 2068 
Q 3634 1759 3634 1313 
Q 3634 634 3220 271 
Q 2806 -91 2034 -91 
Q 1263 -91 848 271 
Q 434 634 434 1313 
Q 434 1759 690 2068 
Q 947 2378 1403 2484 
z
M 1172 3481 
Q 1172 3119 1398 2916 
Q 1625 2713 2034 2713 
Q 2441 2713 2670 2916 
Q 2900 3119 2900 3481 
Q 2900 3844 2670 4047 
Q 2441 4250 2034 4250 
Q 1625 4250 1398 4047 
Q 1172 3844 1172 3481 
z
" transform="scale(0.015625)"/>
       </defs>
       <use xlink:href="#DejaVuSans-38"/>
       <use xlink:href="#DejaVuSans-30" x="63.623047"/>
       <use xlink:href="#DejaVuSans-30" x="127.246094"/>
      </g>
     </g>
    </g>
   </g>
   <g id="matplotlib.axis_2">
    <g id="ytick_1">
     <g id="line2d_6">
      <defs>
       <path id="mc6fd8c4f39" d="M 0 0 
L -3.5 0 
" style="stroke: #000000; stroke-width: 0.8"/>
      </defs>
      <g>
       <use xlink:href="#mc6fd8c4f39" x="90" y="492.48" style="stroke: #000000; stroke-width: 0.8"/>
      </g>
     </g>
     <g id="text_6">
      <!-- 0.0 -->
      <g transform="translate(67.096875 496.279219) scale(0.1 -0.1)">
       <defs>
        <path id="DejaVuSans-2e" d="M 684 794 
L 1344 794 
L 1344 0 
L 684 0 
L 684 794 
z
" transform="scale(0.015625)"/>
       </defs>
       <use xlink:href="#DejaVuSans-30"/>
       <use xlink:href="#DejaVuSans-2e" x="63.623047"/>
       <use xlink:href="#DejaVuSans-30" x="95.410156"/>
      </g>
     </g>
    </g>
    <g id="ytick_2">
     <g id="line2d_7">
      <g>
       <use xlink:href="#mc6fd8c4f39" x="90" y="405.705578" style="stroke: #000000; stroke-width: 0.8"/>
      </g>
     </g>
     <g id="text_7">
      <!-- 0.1 -->
      <g transform="translate(67.096875 409.504796) scale(0.1 -0.1)">
       <defs>
        <path id="DejaVuSans-31" d="M 794 531 
L 1825 531 
L 1825 4091 
L 703 3866 
L 703 4441 
L 1819 4666 
L 2450 4666 
L 2450 531 
L 3481 531 
L 3481 0 
L 794 0 
L 794 531 
z
" transform="scale(0.015625)"/>
       </defs>
       <use xlink:href="#DejaVuSans-30"/>
       <use xlink:href="#DejaVuSans-2e" x="63.623047"/>
       <use xlink:href="#DejaVuSans-31" x="95.410156"/>
      </g>
     </g>
    </g>
    <g id="ytick_3">
     <g id="line2d_8">
      <g>
       <use xlink:href="#mc6fd8c4f39" x="90" y="318.931155" style="stroke: #000000; stroke-width: 0.8"/>
      </g>
     </g>
     <g id="text_8">
      <!-- 0.2 -->
      <g transform="translate(67.096875 322.730374) scale(0.1 -0.1)">
       <use xlink:href="#DejaVuSans-30"/>
       <use xlink:href="#DejaVuSans-2e" x="63.623047"/>
       <use xlink:href="#DejaVuSans-32" x="95.410156"/>
      </g>
     </g>
    </g>
    <g id="ytick_4">
     <g id="line2d_9">
      <g>
       <use xlink:href="#mc6fd8c4f39" x="90" y="232.156733" style="stroke: #000000; stroke-width: 0.8"/>
      </g>
     </g>
     <g id="text_9">
      <!-- 0.3 -->
      <g transform="translate(67.096875 235.955951) scale(0.1 -0.1)">
       <defs>
        <path id="DejaVuSans-33" d="M 2597 2516 
Q 3050 2419 3304 2112 
Q 3559 1806 3559 1356 
Q 3559 666 3084 287 
Q 2609 -91 1734 -91 
Q 1441 -91 1130 -33 
Q 819 25 488 141 
L 488 750 
Q 750 597 1062 519 
Q 1375 441 1716 441 
Q 2309 441 2620 675 
Q 2931 909 2931 1356 
Q 2931 1769 2642 2001 
Q 2353 2234 1838 2234 
L 1294 2234 
L 1294 2753 
L 1863 2753 
Q 2328 2753 2575 2939 
Q 2822 3125 2822 3475 
Q 2822 3834 2567 4026 
Q 2313 4219 1838 4219 
Q 1578 4219 1281 4162 
Q 984 4106 628 3988 
L 628 4550 
Q 988 4650 1302 4700 
Q 1616 4750 1894 4750 
Q 2613 4750 3031 4423 
Q 3450 4097 3450 3541 
Q 3450 3153 3228 2886 
Q 3006 2619 2597 2516 
z
" transform="scale(0.015625)"/>
       </defs>
       <use xlink:href="#DejaVuSans-30"/>
       <use xlink:href="#DejaVuSans-2e" x="63.623047"/>
       <use xlink:href="#DejaVuSans-33" x="95.410156"/>
      </g>
     </g>
    </g>
    <g id="ytick_5">
     <g id="line2d_10">
      <g>
       <use xlink:href="#mc6fd8c4f39" x="90" y="145.38231" style="stroke: #000000; stroke-width: 0.8"/>
      </g>
     </g>
     <g id="text_10">
      <!-- 0.4 -->
      <g transform="translate(67.096875 149.181529) scale(0.1 -0.1)">
       <use xlink:href="#DejaVuSans-30"/>
       <use xlink:href="#DejaVuSans-2e" x="63.623047"/>
       <use xlink:href="#DejaVuSans-34" x="95.410156"/>
      </g>
     </g>
    </g>
   </g>
   <g id="line2d_11">
    <path d="M 97.459893 492.48 
L 106.513161 492.48 
L 106.694227 434.630385 
L 107.961684 434.630385 
L 108.14275 423.060462 
L 108.685946 423.060462 
L 108.867011 423.505459 
L 109.410207 423.505459 
L 109.591273 440.03392 
L 110.134469 440.03392 
L 110.315534 445.611099 
L 110.85873 445.611099 
L 111.039795 450.011037 
L 111.582992 450.011037 
L 111.764057 450.367253 
L 112.307253 450.367253 
L 112.488318 451.302323 
L 113.031514 451.302323 
L 113.21258 451.576232 
L 114.480037 451.576232 
L 114.661103 451.834029 
L 115.92856 451.834029 
L 116.109626 452.306656 
L 117.377083 452.306656 
L 117.558149 452.523809 
L 118.825606 452.523809 
L 119.006672 452.729534 
L 119.549868 452.729534 
L 119.730933 452.924708 
L 120.998391 452.924708 
L 121.179456 453.286494 
L 121.722652 453.286494 
L 121.903717 453.614626 
L 122.446913 453.614626 
L 122.627979 456.828493 
L 123.171175 456.828493 
L 123.35224 459.610901 
L 123.895436 459.610901 
L 124.076502 459.756985 
L 124.619698 459.756985 
L 124.800763 462.087992 
L 125.343959 462.087992 
L 125.525025 464.075934 
L 126.068221 464.075934 
L 126.430351 464.204147 
L 126.792482 464.204147 
L 126.973548 464.445187 
L 127.516744 464.445187 
L 127.878874 464.558617 
L 128.241005 464.558617 
L 128.422071 464.873702 
L 128.965267 464.873702 
L 129.146332 468.031651 
L 130.41379 468.122267 
L 130.594855 468.294285 
L 131.862312 468.375994 
L 132.043378 468.531503 
L 132.586574 468.531503 
L 132.767639 468.677294 
L 133.310835 468.677294 
L 133.491901 470.019449 
L 134.035097 470.019449 
L 134.216162 470.209994 
L 134.759358 470.209994 
L 135.121489 470.328079 
L 135.48362 470.328079 
L 135.664685 472.336746 
L 136.207881 472.336746 
L 136.388947 473.239083 
L 139.104927 473.239083 
L 139.285992 474.000262 
L 141.277711 474.108838 
L 141.639842 474.211701 
L 142.001973 474.211701 
L 142.183038 474.949814 
L 143.450496 474.949814 
L 143.631561 476.195688 
L 144.174757 476.195688 
L 144.355823 476.766629 
L 145.62328 476.766629 
L 145.804346 477.294476 
L 148.520326 477.382661 
L 148.701391 478.239693 
L 149.244588 478.239693 
L 149.425653 478.622296 
L 149.968849 478.622296 
L 150.149914 479.310982 
L 152.141633 479.394968 
L 152.322699 480.038079 
L 152.865895 480.038079 
L 153.04696 480.351557 
L 153.590156 480.351557 
L 153.771222 481.001902 
L 154.314418 481.001902 
L 154.495483 481.266781 
L 155.038679 481.266781 
L 155.219745 481.689658 
L 156.487202 481.791101 
L 156.668267 482.081444 
L 157.935725 482.081444 
L 158.11679 482.266859 
L 160.832771 482.3271 
L 161.013836 482.561327 
L 161.557032 482.561327 
L 161.738098 482.945067 
L 163.005555 482.972069 
L 163.186621 483.488745 
L 163.729817 483.488745 
L 163.910882 483.647563 
L 164.454078 483.647563 
L 164.635144 483.871426 
L 165.902601 483.871426 
L 166.083666 484.112466 
L 168.075385 484.157775 
L 168.437516 484.293268 
L 168.799647 484.293268 
L 169.161778 484.424019 
L 169.523908 484.424019 
L 169.704974 484.651348 
L 170.24817 484.651348 
L 170.429235 484.84265 
L 172.420954 484.904455 
L 172.783085 484.963245 
L 173.869477 484.98221 
L 174.231608 485.091488 
L 174.593739 485.091488 
L 174.774804 485.263506 
L 176.766523 485.363579 
L 177.490784 485.399448 
L 181.474223 485.687884 
L 182.560615 485.761937 
L 182.922745 485.849199 
L 183.284876 485.849199 
L 183.465942 486.016532 
L 184.733399 486.046049 
L 184.914464 486.203638 
L 185.457661 486.203638 
L 185.638726 486.411269 
L 186.181922 486.411269 
L 186.362987 486.590091 
L 186.906183 486.590091 
L 187.087249 486.804017 
L 189.078968 486.868743 
L 189.622164 486.915684 
L 190.527491 486.986165 
L 190.889622 487.086468 
L 191.976014 487.182416 
L 192.51921 487.222927 
L 192.700275 487.222927 
L 193.062406 487.350746 
L 194.148798 487.399338 
L 194.329863 487.606321 
L 194.87306 487.606321 
L 195.054125 487.753961 
L 195.597321 487.753961 
L 195.778386 487.918748 
L 197.045844 488.008786 
L 197.58904 488.059319 
L 198.494367 488.165404 
L 198.856498 488.231209 
L 199.94289 488.296267 
L 200.305021 488.358072 
L 202.115674 488.464556 
L 202.477805 488.563506 
L 205.01272 488.655747 
L 205.555916 488.712045 
L 206.461243 488.808872 
L 206.823374 488.878252 
L 207.909766 488.944746 
L 208.271897 489.00371 
L 210.08255 489.102838 
L 210.444681 489.163478 
L 212.255335 489.239987 
L 213.160661 489.322157 
L 215.876642 489.416086 
L 216.419838 489.465691 
L 217.325165 489.512651 
L 217.687296 489.580252 
L 219.497949 489.691273 
L 220.041145 489.729177 
L 223.119257 489.818283 
L 224.205649 489.857039 
L 228.189087 489.966735 
L 229.456544 489.994067 
L 233.258917 490.103583 
L 234.345309 490.147728 
L 240.501532 490.256754 
L 242.493251 490.323466 
L 246.657754 490.390707 
L 246.657754 490.390707 
" clip-path="url(#p8ecd3439d0)" style="fill: none; stroke: #0000ff; stroke-width: 1.5; stroke-linecap: square"/>
   </g>
   <g id="line2d_12">
    <path d="M 97.459893 492.48 
L 105.064638 492.48 
L 105.245704 481.355074 
L 105.7889 481.355074 
L 105.969965 440.828558 
L 106.513161 440.828558 
L 106.694227 441.897209 
L 107.237423 441.897209 
L 107.418488 428.5286 
L 107.961684 428.5286 
L 108.14275 429.526007 
L 108.685946 429.526007 
L 108.867011 355.406188 
L 109.410207 355.406188 
L 109.591273 300.109271 
L 110.134469 300.109271 
L 110.315534 277.320029 
L 110.85873 277.320029 
L 111.039795 247.634042 
L 111.582992 247.634042 
L 111.764057 232.039152 
L 112.307253 232.039152 
L 112.488318 234.22279 
L 113.031514 234.22279 
L 113.21258 239.748293 
L 113.755776 239.748293 
L 113.936841 244.866118 
L 114.480037 244.866118 
L 114.661103 254.059938 
L 115.204299 254.059938 
L 115.385364 239.226704 
L 117.377083 239.226704 
L 117.558149 228.251737 
L 119.549868 228.251737 
L 119.730933 214.73298 
L 120.274129 214.73298 
L 120.455194 214.542267 
L 120.998391 214.542267 
L 121.179456 206.713615 
L 121.722652 206.713615 
L 121.903717 213.944817 
L 122.446913 213.944817 
L 122.627979 197.829303 
L 123.171175 197.829303 
L 123.35224 177.155773 
L 123.895436 177.155773 
L 124.076502 177.315857 
L 124.619698 177.315857 
L 124.800763 165.210281 
L 125.343959 165.210281 
L 125.525025 143.262459 
L 126.068221 143.262459 
L 126.249286 130.843948 
L 126.792482 130.843948 
L 126.973548 139.958909 
L 127.516744 139.958909 
L 127.697809 154.943733 
L 128.241005 154.943733 
L 128.422071 156.966447 
L 128.965267 156.966447 
L 129.146332 162.97992 
L 129.689528 162.97992 
L 129.870593 170.926296 
L 130.41379 170.926296 
L 130.594855 178.925364 
L 131.138051 178.925364 
L 131.319116 182.571348 
L 131.862312 182.571348 
L 132.043378 184.317313 
L 132.586574 184.317313 
L 132.767639 192.173639 
L 133.310835 192.173639 
L 133.491901 198.860756 
L 134.035097 198.860756 
L 134.216162 196.567618 
L 134.759358 196.567618 
L 134.940424 198.860811 
L 135.48362 198.860811 
L 135.664685 203.148085 
L 136.207881 203.148085 
L 136.388947 206.066103 
L 136.932143 206.066103 
L 137.113208 207.659192 
L 137.656404 207.659192 
L 137.837469 207.311065 
L 138.380666 207.311065 
L 138.561731 210.203545 
L 139.104927 210.203545 
L 139.285992 208.138158 
L 140.55345 208.138158 
L 140.734515 210.808141 
L 142.001973 210.808141 
L 142.183038 208.794388 
L 142.726234 208.794388 
L 142.9073 196.673545 
L 143.450496 196.673545 
L 143.631561 183.181453 
L 144.174757 183.181453 
L 144.355823 169.00717 
L 144.899019 169.00717 
L 145.080084 156.640256 
L 145.62328 156.640256 
L 145.804346 140.233211 
L 146.347542 140.233211 
L 146.528607 118.906164 
L 147.071803 118.906164 
L 147.252868 99.161821 
L 147.796065 99.161821 
L 147.97713 92.086759 
L 148.520326 92.086759 
L 148.701391 89.28 
L 149.244588 89.28 
L 149.425653 92.357107 
L 149.968849 92.357107 
L 150.149914 96.734847 
L 150.69311 96.734847 
L 150.874176 94.426224 
L 151.417372 94.426224 
L 151.598437 90.171803 
L 152.141633 90.171803 
L 152.322699 93.699218 
L 152.865895 93.699218 
L 153.04696 97.058661 
L 153.590156 97.058661 
L 153.771222 100.261852 
L 154.314418 100.261852 
L 154.495483 103.594318 
L 155.038679 103.594318 
L 155.219745 105.519676 
L 155.762941 105.519676 
L 155.944006 109.894634 
L 157.211464 109.894634 
L 157.392529 111.186171 
L 157.935725 111.186171 
L 158.11679 112.452629 
L 158.659987 112.452629 
L 158.841052 116.61643 
L 159.384248 116.61643 
L 159.565313 124.500742 
L 160.108509 124.500742 
L 160.289575 136.7319 
L 160.832771 136.7319 
L 161.013836 148.026933 
L 161.557032 148.026933 
L 161.738098 155.745744 
L 162.281294 155.745744 
L 162.462359 163.995113 
L 163.005555 163.995113 
L 163.186621 167.557281 
L 163.729817 167.557281 
L 163.910882 175.473211 
L 164.454078 175.473211 
L 164.635144 176.50608 
L 165.17834 176.50608 
L 165.359405 180.462491 
L 165.902601 180.462491 
L 166.083666 185.672635 
L 166.626863 185.672635 
L 166.807928 194.017439 
L 167.351124 194.017439 
L 167.532189 201.384579 
L 168.075385 201.384579 
L 168.256451 205.01384 
L 168.799647 205.01384 
L 168.980712 207.770452 
L 169.523908 207.770452 
L 169.704974 211.799592 
L 170.24817 211.799592 
L 170.429235 212.513708 
L 170.972431 212.513708 
L 171.153497 216.985388 
L 171.696693 216.985388 
L 171.877758 221.20479 
L 172.420954 221.20479 
L 172.60202 223.760269 
L 173.145216 223.760269 
L 173.326281 225.588784 
L 173.869477 225.588784 
L 174.050543 229.559311 
L 174.593739 229.559311 
L 174.774804 231.713235 
L 175.318 231.713235 
L 175.499065 233.812917 
L 176.042262 233.812917 
L 176.223327 235.464201 
L 176.766523 235.464201 
L 176.947588 237.772272 
L 178.215046 237.772272 
L 178.396111 240.202484 
L 178.939307 240.202484 
L 179.120373 245.315591 
L 179.663569 245.315591 
L 179.844634 249.272744 
L 180.38783 249.272744 
L 180.568896 251.667254 
L 181.112092 251.667254 
L 181.293157 257.150248 
L 181.836353 257.150248 
L 182.017419 261.242456 
L 182.560615 261.242456 
L 182.74168 263.325241 
L 183.284876 263.325241 
L 183.465942 265.5151 
L 184.009138 265.5151 
L 184.190203 270.65361 
L 184.733399 270.65361 
L 184.914464 272.612192 
L 185.457661 272.612192 
L 185.638726 274.069627 
L 186.181922 274.069627 
L 186.362987 275.980215 
L 186.906183 275.980215 
L 187.087249 277.139837 
L 187.630445 277.139837 
L 187.81151 279.656653 
L 188.354706 279.656653 
L 188.535772 280.816414 
L 189.078968 280.816414 
L 189.260033 281.95748 
L 189.803229 281.95748 
L 189.984295 282.404631 
L 190.527491 282.404631 
L 190.708556 283.728135 
L 191.251752 283.728135 
L 191.432818 285.425699 
L 191.976014 285.425699 
L 192.157079 287.214862 
L 193.424537 287.214862 
L 193.605602 290.308801 
L 194.148798 290.308801 
L 194.329863 293.218359 
L 194.87306 293.218359 
L 195.054125 296.940556 
L 195.597321 296.940556 
L 195.778386 298.548501 
L 196.321582 298.548501 
L 196.502648 301.612706 
L 197.045844 301.612706 
L 197.226909 305.367778 
L 197.770105 305.367778 
L 197.951171 307.736163 
L 198.494367 307.736163 
L 198.675432 311.116306 
L 199.218628 311.116306 
L 199.399694 314.81534 
L 199.94289 314.81534 
L 200.123955 317.447442 
L 200.667151 317.447442 
L 200.848217 319.88871 
L 201.391413 319.88871 
L 201.572478 322.387343 
L 202.115674 322.387343 
L 202.29674 324.704739 
L 202.839936 324.704739 
L 203.021001 326.281585 
L 203.564197 326.281585 
L 203.745262 327.983073 
L 204.288459 327.983073 
L 204.469524 330.515188 
L 205.01272 330.515188 
L 205.193785 331.865143 
L 205.736981 331.865143 
L 205.918047 334.110168 
L 206.461243 334.110168 
L 206.642308 334.728792 
L 207.185504 334.728792 
L 207.36657 335.762378 
L 207.909766 335.762378 
L 208.090831 336.984086 
L 208.634027 336.984086 
L 208.815093 338.111237 
L 209.358289 338.111237 
L 209.539354 339.467156 
L 210.08255 339.467156 
L 210.263616 340.134333 
L 210.806812 340.134333 
L 210.987877 341.037024 
L 211.531073 341.037024 
L 211.712139 342.10233 
L 212.255335 342.10233 
L 212.4364 343.59176 
L 212.979596 343.59176 
L 213.160661 344.377664 
L 213.703858 344.377664 
L 213.884923 344.934855 
L 214.428119 344.934855 
L 214.609184 345.484661 
L 215.15238 345.484661 
L 215.333446 345.9482 
L 215.876642 345.9482 
L 216.057707 346.397692 
L 216.600903 346.397692 
L 216.781969 348.413941 
L 217.325165 348.413941 
L 217.50623 349.430278 
L 218.049426 349.430278 
L 218.230492 350.933364 
L 218.773688 350.933364 
L 218.954753 351.487253 
L 219.497949 351.487253 
L 219.679015 352.648517 
L 220.222211 352.648517 
L 220.403276 354.190955 
L 220.946472 354.190955 
L 221.127538 356.196563 
L 221.670734 356.196563 
L 221.851799 357.458299 
L 222.394995 357.458299 
L 222.57606 358.805898 
L 223.119257 358.805898 
L 223.300322 359.844055 
L 223.843518 359.844055 
L 224.024583 361.739264 
L 224.567779 361.739264 
L 224.748845 362.517944 
L 225.292041 362.517944 
L 225.473106 363.370965 
L 226.016302 363.370965 
L 226.197368 365.19954 
L 226.740564 365.19954 
L 226.921629 366.780397 
L 227.464825 366.780397 
L 227.645891 367.434966 
L 228.189087 367.434966 
L 228.370152 368.176981 
L 228.913348 368.176981 
L 229.094414 368.816916 
L 229.63761 368.816916 
L 229.818675 369.182762 
L 230.361871 369.182762 
L 230.542937 369.998974 
L 231.086133 369.998974 
L 231.267198 370.309951 
L 231.810394 370.309951 
L 231.991459 370.667139 
L 232.534656 370.667139 
L 232.715721 371.086947 
L 233.258917 371.086947 
L 233.439982 371.331314 
L 233.983178 371.331314 
L 234.164244 372.1032 
L 234.70744 372.1032 
L 234.888505 372.259586 
L 235.431701 372.259586 
L 235.612767 373.29322 
L 236.155963 373.29322 
L 236.337028 373.781993 
L 237.604486 373.856578 
L 237.785551 374.115279 
L 238.328747 374.115279 
L 238.509813 374.262856 
L 239.053009 374.262856 
L 239.234074 375.345985 
L 239.77727 375.345985 
L 239.958335 376.408638 
L 240.501532 376.408638 
L 240.682597 377.244363 
L 241.225793 377.244363 
L 241.406858 378.091996 
L 241.950055 378.091996 
L 242.13112 378.940957 
L 242.674316 378.940957 
L 242.855381 380.269494 
L 243.398577 380.269494 
L 243.579643 381.525117 
L 244.122839 381.525117 
L 244.303904 382.279878 
L 244.8471 382.279878 
L 245.028166 383.46992 
L 245.571362 383.46992 
L 245.752427 384.634465 
L 246.295623 384.634465 
L 246.476689 385.954317 
L 246.657754 385.954317 
L 246.657754 385.954317 
" clip-path="url(#p8ecd3439d0)" style="fill: none; stroke: #ff0000; stroke-width: 1.5; stroke-linecap: square"/>
   </g>
   <g id="line2d_13">
    <path d="M 97.459893 492.48 
L 105.064638 492.48 
L 105.245704 394.61411 
L 105.7889 394.61411 
L 105.969965 380.912885 
L 106.513161 380.912885 
L 106.694227 368.516539 
L 107.237423 368.516539 
L 107.418488 378.846828 
L 107.961684 378.846828 
L 108.14275 377.898637 
L 108.685946 377.898637 
L 108.867011 379.994638 
L 109.410207 379.994638 
L 109.591273 381.922958 
L 110.134469 381.922958 
L 110.315534 388.350693 
L 110.85873 388.350693 
L 111.039795 390.130681 
L 111.582992 390.130681 
L 111.764057 391.778818 
L 112.307253 391.778818 
L 112.488318 399.993155 
L 113.755776 399.993155 
L 113.936841 402.567109 
L 115.204299 402.567109 
L 115.385364 408.115978 
L 115.92856 408.115978 
L 116.109626 411.824287 
L 116.652822 411.824287 
L 116.833887 416.098474 
L 118.101345 416.098474 
L 118.28241 418.101924 
L 118.825606 418.101924 
L 119.006672 419.020171 
L 120.274129 419.020171 
L 120.455194 419.888784 
L 120.998391 419.888784 
L 121.179456 424.247121 
L 121.722652 424.247121 
L 121.903717 425.694266 
L 122.446913 425.694266 
L 122.627979 426.366154 
L 123.171175 426.366154 
L 123.35224 427.006792 
L 123.895436 427.006792 
L 124.076502 429.296733 
L 124.619698 429.296733 
L 124.800763 430.301502 
L 125.343959 430.301502 
L 125.525025 430.773744 
L 126.068221 430.773744 
L 126.249286 432.083547 
L 126.792482 432.083547 
L 126.973548 435.287767 
L 127.516744 435.287767 
L 127.697809 437.790238 
L 128.965267 437.790238 
L 129.146332 439.680748 
L 129.689528 439.680748 
L 129.870593 442.894616 
L 130.41379 442.894616 
L 130.594855 443.257082 
L 131.138051 443.257082 
L 131.319116 445.322525 
L 131.862312 445.322525 
L 132.043378 445.649359 
L 133.310835 445.649359 
L 133.491901 445.965477 
L 134.035097 445.965477 
L 134.216162 446.271398 
L 134.759358 446.271398 
L 134.940424 446.567607 
L 136.932143 446.567607 
L 137.113208 447.819763 
L 137.656404 447.819763 
L 137.837469 448.106716 
L 138.380666 448.106716 
L 138.561731 449.797807 
L 139.104927 449.797807 
L 139.285992 450.313401 
L 139.829189 450.313401 
L 140.010254 450.559989 
L 142.001973 450.559989 
L 142.183038 451.032327 
L 142.726234 451.032327 
L 142.9073 452.94943 
L 143.450496 452.94943 
L 143.631561 453.152411 
L 144.174757 453.152411 
L 144.355823 453.35012 
L 144.899019 453.35012 
L 145.080084 454.31428 
L 145.62328 454.31428 
L 145.804346 455.396913 
L 146.347542 455.396913 
L 146.528607 456.986189 
L 147.071803 456.986189 
L 147.252868 457.886385 
L 147.796065 457.886385 
L 147.97713 458.912939 
L 148.520326 458.912939 
L 148.701391 459.087133 
L 149.244588 459.087133 
L 149.425653 459.879168 
L 150.69311 459.879168 
L 150.874176 460.462329 
L 151.417372 460.462329 
L 151.598437 461.525741 
L 152.141633 461.525741 
L 152.322699 462.636945 
L 152.865895 462.636945 
L 153.04696 463.482699 
L 154.314418 463.482699 
L 154.495483 464.243878 
L 155.038679 464.243878 
L 155.219745 464.405922 
L 155.762941 464.405922 
L 155.944006 464.564197 
L 156.487202 464.564197 
L 156.668267 465.071576 
L 157.935725 465.071576 
L 158.11679 465.40752 
L 158.659987 465.40752 
L 158.841052 465.878961 
L 159.384248 465.878961 
L 159.565313 466.18472 
L 160.108509 466.18472 
L 160.289575 467.674043 
L 160.832771 467.674043 
L 161.013836 467.910164 
L 161.557032 467.910164 
L 161.738098 468.640873 
L 162.281294 468.640873 
L 162.462359 468.850777 
L 163.005555 468.850777 
L 163.186621 469.191105 
L 163.729817 469.191105 
L 163.910882 469.708934 
L 164.454078 469.708934 
L 164.635144 470.453925 
L 165.17834 470.453925 
L 165.359405 471.343373 
L 165.902601 471.343373 
L 166.083666 471.754207 
L 166.626863 471.754207 
L 166.988993 471.871075 
L 167.351124 471.871075 
L 167.713255 471.985628 
L 168.075385 471.985628 
L 168.256451 472.236997 
L 168.799647 472.236997 
L 168.980712 472.561085 
L 169.523908 472.561085 
L 169.886039 472.695933 
L 170.24817 472.695933 
L 170.429235 472.901895 
L 171.696693 472.901895 
L 172.058824 473.032717 
L 173.145216 473.132837 
L 173.326281 473.327617 
L 175.318 473.327617 
L 175.680131 473.454592 
L 176.042262 473.454592 
L 176.223327 473.672644 
L 177.490784 473.672644 
L 177.67185 473.857128 
L 178.215046 473.857128 
L 178.396111 474.035195 
L 178.939307 474.035195 
L 179.120373 474.722707 
L 179.663569 474.722707 
L 179.844634 475.020882 
L 180.38783 475.020882 
L 180.568896 475.51078 
L 181.112092 475.51078 
L 181.293157 475.797785 
L 181.836353 475.797785 
L 182.017419 476.09445 
L 182.560615 476.09445 
L 182.74168 476.416796 
L 183.284876 476.416796 
L 183.465942 476.678485 
L 184.009138 476.678485 
L 184.190203 476.892873 
L 184.733399 476.892873 
L 184.914464 477.064968 
L 186.181922 477.126165 
L 186.362987 477.387522 
L 187.630445 477.445308 
L 187.81151 477.694906 
L 188.354706 477.694906 
L 188.535772 477.906014 
L 189.078968 477.906014 
L 189.260033 478.234749 
L 189.803229 478.234749 
L 189.984295 478.390064 
L 190.527491 478.390064 
L 190.708556 478.580207 
L 191.976014 478.64782 
L 192.157079 478.795145 
L 193.424537 478.861319 
L 193.605602 479.037381 
L 194.148798 479.037381 
L 194.329863 479.313868 
L 194.87306 479.313868 
L 195.054125 479.540796 
L 195.597321 479.540796 
L 195.778386 480.037121 
L 196.321582 480.037121 
L 196.502648 480.218637 
L 197.045844 480.218637 
L 197.226909 480.48089 
L 198.494367 480.523131 
L 198.675432 480.731101 
L 199.218628 480.731101 
L 199.580759 480.848682 
L 199.94289 480.848682 
L 200.123955 481.210594 
L 200.667151 481.210594 
L 201.029282 481.348735 
L 201.391413 481.348735 
L 201.572478 481.521962 
L 202.115674 481.521962 
L 202.29674 481.679384 
L 202.839936 481.679384 
L 203.021001 481.829881 
L 203.564197 481.829881 
L 203.745262 482.011974 
L 204.288459 482.011974 
L 204.469524 482.160307 
L 205.01272 482.160307 
L 205.193785 482.313036 
L 206.461243 482.335216 
L 206.823374 482.458404 
L 209.358289 482.560302 
L 209.72042 482.636135 
L 210.806812 482.693133 
L 211.168942 482.766176 
L 213.703858 482.856154 
L 214.065988 482.926596 
L 216.600903 483.029337 
L 216.963034 483.094124 
L 218.773688 483.175699 
L 219.135818 483.299518 
L 220.222211 483.404055 
L 220.584341 483.47838 
L 221.670734 483.530856 
L 222.032864 483.639223 
L 223.119257 483.731633 
L 223.481387 483.821084 
L 225.292041 483.875532 
L 225.654172 484.001963 
L 228.189087 484.09279 
L 228.551217 484.183476 
L 229.63761 484.251087 
L 229.99974 484.32602 
L 231.086133 484.343402 
L 231.448263 484.457968 
L 234.70744 484.557167 
L 235.250636 484.609737 
L 237.604486 484.68453 
L 237.966616 484.762672 
L 239.053009 484.79007 
L 239.415139 484.911808 
L 241.225793 484.992678 
L 241.587924 485.121837 
L 242.674316 485.215779 
L 243.217512 485.26359 
L 244.122839 485.313944 
L 244.48497 485.390014 
L 245.571362 485.438651 
L 245.933493 485.518404 
L 246.657754 485.537122 
L 246.657754 485.537122 
" clip-path="url(#p8ecd3439d0)" style="fill: none; stroke: #008000; stroke-width: 1.5; stroke-linecap: square"/>
   </g>
   <g id="patch_3">
    <path d="M 90 512.64 
L 90 69.12 
" style="fill: none; stroke: #000000; stroke-width: 0.8; stroke-linejoin: miter; stroke-linecap: square"/>
   </g>
   <g id="patch_4">
    <path d="M 254.117647 512.64 
L 254.117647 69.12 
" style="fill: none; stroke: #000000; stroke-width: 0.8; stroke-linejoin: miter; stroke-linecap: square"/>
   </g>
   <g id="patch_5">
    <path d="M 90 512.64 
L 254.117647 512.64 
" style="fill: none; stroke: #000000; stroke-width: 0.8; stroke-linejoin: miter; stroke-linecap: square"/>
   </g>
   <g id="patch_6">
    <path d="M 90 69.12 
L 254.117647 69.12 
" style="fill: none; stroke: #000000; stroke-width: 0.8; stroke-linejoin: miter; stroke-linecap: square"/>
   </g>
   <g id="legend_1">
    <g id="patch_7">
     <path d="M 169.273897 121.154375 
L 247.117647 121.154375 
Q 249.117647 121.154375 249.117647 119.154375 
L 249.117647 76.12 
Q 249.117647 74.12 247.117647 74.12 
L 169.273897 74.12 
Q 167.273897 74.12 167.273897 76.12 
L 167.273897 119.154375 
Q 167.273897 121.154375 169.273897 121.154375 
z
" style="fill: #ffffff; opacity: 0.8; stroke: #cccccc; stroke-linejoin: miter"/>
    </g>
    <g id="line2d_14">
     <path d="M 171.273897 82.218438 
L 181.273897 82.218438 
L 191.273897 82.218438 
" style="fill: none; stroke: #0000ff; stroke-width: 1.5; stroke-linecap: square"/>
    </g>
    <g id="text_11">
     <!-- O1 utility -->
     <g transform="translate(199.273897 85.718438) scale(0.1 -0.1)">
      <defs>
       <path id="DejaVuSans-4f" d="M 2522 4238 
Q 1834 4238 1429 3725 
Q 1025 3213 1025 2328 
Q 1025 1447 1429 934 
Q 1834 422 2522 422 
Q 3209 422 3611 934 
Q 4013 1447 4013 2328 
Q 4013 3213 3611 3725 
Q 3209 4238 2522 4238 
z
M 2522 4750 
Q 3503 4750 4090 4092 
Q 4678 3434 4678 2328 
Q 4678 1225 4090 567 
Q 3503 -91 2522 -91 
Q 1538 -91 948 565 
Q 359 1222 359 2328 
Q 359 3434 948 4092 
Q 1538 4750 2522 4750 
z
" transform="scale(0.015625)"/>
       <path id="DejaVuSans-20" transform="scale(0.015625)"/>
       <path id="DejaVuSans-75" d="M 544 1381 
L 544 3500 
L 1119 3500 
L 1119 1403 
Q 1119 906 1312 657 
Q 1506 409 1894 409 
Q 2359 409 2629 706 
Q 2900 1003 2900 1516 
L 2900 3500 
L 3475 3500 
L 3475 0 
L 2900 0 
L 2900 538 
Q 2691 219 2414 64 
Q 2138 -91 1772 -91 
Q 1169 -91 856 284 
Q 544 659 544 1381 
z
M 1991 3584 
L 1991 3584 
z
" transform="scale(0.015625)"/>
       <path id="DejaVuSans-74" d="M 1172 4494 
L 1172 3500 
L 2356 3500 
L 2356 3053 
L 1172 3053 
L 1172 1153 
Q 1172 725 1289 603 
Q 1406 481 1766 481 
L 2356 481 
L 2356 0 
L 1766 0 
Q 1100 0 847 248 
Q 594 497 594 1153 
L 594 3053 
L 172 3053 
L 172 3500 
L 594 3500 
L 594 4494 
L 1172 4494 
z
" transform="scale(0.015625)"/>
       <path id="DejaVuSans-69" d="M 603 3500 
L 1178 3500 
L 1178 0 
L 603 0 
L 603 3500 
z
M 603 4863 
L 1178 4863 
L 1178 4134 
L 603 4134 
L 603 4863 
z
" transform="scale(0.015625)"/>
       <path id="DejaVuSans-6c" d="M 603 4863 
L 1178 4863 
L 1178 0 
L 603 0 
L 603 4863 
z
" transform="scale(0.015625)"/>
       <path id="DejaVuSans-79" d="M 2059 -325 
Q 1816 -950 1584 -1140 
Q 1353 -1331 966 -1331 
L 506 -1331 
L 506 -850 
L 844 -850 
Q 1081 -850 1212 -737 
Q 1344 -625 1503 -206 
L 1606 56 
L 191 3500 
L 800 3500 
L 1894 763 
L 2988 3500 
L 3597 3500 
L 2059 -325 
z
" transform="scale(0.015625)"/>
      </defs>
      <use xlink:href="#DejaVuSans-4f"/>
      <use xlink:href="#DejaVuSans-31" x="78.710938"/>
      <use xlink:href="#DejaVuSans-20" x="142.333984"/>
      <use xlink:href="#DejaVuSans-75" x="174.121094"/>
      <use xlink:href="#DejaVuSans-74" x="237.5"/>
      <use xlink:href="#DejaVuSans-69" x="276.708984"/>
      <use xlink:href="#DejaVuSans-6c" x="304.492188"/>
      <use xlink:href="#DejaVuSans-69" x="332.275391"/>
      <use xlink:href="#DejaVuSans-74" x="360.058594"/>
      <use xlink:href="#DejaVuSans-79" x="399.267578"/>
     </g>
    </g>
    <g id="line2d_15">
     <path d="M 171.273897 96.896563 
L 181.273897 96.896563 
L 191.273897 96.896563 
" style="fill: none; stroke: #ff0000; stroke-width: 1.5; stroke-linecap: square"/>
    </g>
    <g id="text_12">
     <!-- O2 utility -->
     <g transform="translate(199.273897 100.396563) scale(0.1 -0.1)">
      <use xlink:href="#DejaVuSans-4f"/>
      <use xlink:href="#DejaVuSans-32" x="78.710938"/>
      <use xlink:href="#DejaVuSans-20" x="142.333984"/>
      <use xlink:href="#DejaVuSans-75" x="174.121094"/>
      <use xlink:href="#DejaVuSans-74" x="237.5"/>
      <use xlink:href="#DejaVuSans-69" x="276.708984"/>
      <use xlink:href="#DejaVuSans-6c" x="304.492188"/>
      <use xlink:href="#DejaVuSans-69" x="332.275391"/>
      <use xlink:href="#DejaVuSans-74" x="360.058594"/>
      <use xlink:href="#DejaVuSans-79" x="399.267578"/>
     </g>
    </g>
    <g id="line2d_16">
     <path d="M 171.273897 111.574688 
L 181.273897 111.574688 
L 191.273897 111.574688 
" style="fill: none; stroke: #008000; stroke-width: 1.5; stroke-linecap: square"/>
    </g>
    <g id="text_13">
     <!-- O3 utility -->
     <g transform="translate(199.273897 115.074688) scale(0.1 -0.1)">
      <use xlink:href="#DejaVuSans-4f"/>
      <use xlink:href="#DejaVuSans-33" x="78.710938"/>
      <use xlink:href="#DejaVuSans-20" x="142.333984"/>
      <use xlink:href="#DejaVuSans-75" x="174.121094"/>
      <use xlink:href="#DejaVuSans-74" x="237.5"/>
      <use xlink:href="#DejaVuSans-69" x="276.708984"/>
      <use xlink:href="#DejaVuSans-6c" x="304.492188"/>
      <use xlink:href="#DejaVuSans-69" x="332.275391"/>
      <use xlink:href="#DejaVuSans-74" x="360.058594"/>
      <use xlink:href="#DejaVuSans-79" x="399.267578"/>
     </g>
    </g>
   </g>
  </g>
  <g id="axes_2">
   <g id="patch_8">
    <path d="M 286.941176 512.64 
L 451.058824 512.64 
L 451.058824 69.12 
L 286.941176 69.12 
z
" style="fill: #ffffff"/>
   </g>
   <g id="matplotlib.axis_3">
    <g id="xtick_6">
     <g id="line2d_17">
      <g>
       <use xlink:href="#ma2848a4a95" x="294.220004" y="512.64" style="stroke: #000000; stroke-width: 0.8"/>
      </g>
     </g>
     <g id="text_14">
      <!-- 0 -->
      <g transform="translate(291.038754 527.238438) scale(0.1 -0.1)">
       <use xlink:href="#DejaVuSans-30"/>
      </g>
     </g>
    </g>
    <g id="xtick_7">
     <g id="line2d_18">
      <g>
       <use xlink:href="#ma2848a4a95" x="330.433077" y="512.64" style="stroke: #000000; stroke-width: 0.8"/>
      </g>
     </g>
     <g id="text_15">
      <!-- 200 -->
      <g transform="translate(320.889327 527.238438) scale(0.1 -0.1)">
       <use xlink:href="#DejaVuSans-32"/>
       <use xlink:href="#DejaVuSans-30" x="63.623047"/>
       <use xlink:href="#DejaVuSans-30" x="127.246094"/>
      </g>
     </g>
    </g>
    <g id="xtick_8">
     <g id="line2d_19">
      <g>
       <use xlink:href="#ma2848a4a95" x="366.64615" y="512.64" style="stroke: #000000; stroke-width: 0.8"/>
      </g>
     </g>
     <g id="text_16">
      <!-- 400 -->
      <g transform="translate(357.1024 527.238438) scale(0.1 -0.1)">
       <use xlink:href="#DejaVuSans-34"/>
       <use xlink:href="#DejaVuSans-30" x="63.623047"/>
       <use xlink:href="#DejaVuSans-30" x="127.246094"/>
      </g>
     </g>
    </g>
    <g id="xtick_9">
     <g id="line2d_20">
      <g>
       <use xlink:href="#ma2848a4a95" x="402.859223" y="512.64" style="stroke: #000000; stroke-width: 0.8"/>
      </g>
     </g>
     <g id="text_17">
      <!-- 600 -->
      <g transform="translate(393.315473 527.238438) scale(0.1 -0.1)">
       <use xlink:href="#DejaVuSans-36"/>
       <use xlink:href="#DejaVuSans-30" x="63.623047"/>
       <use xlink:href="#DejaVuSans-30" x="127.246094"/>
      </g>
     </g>
    </g>
    <g id="xtick_10">
     <g id="line2d_21">
      <g>
       <use xlink:href="#ma2848a4a95" x="439.072296" y="512.64" style="stroke: #000000; stroke-width: 0.8"/>
      </g>
     </g>
     <g id="text_18">
      <!-- 800 -->
      <g transform="translate(429.528546 527.238438) scale(0.1 -0.1)">
       <use xlink:href="#DejaVuSans-38"/>
       <use xlink:href="#DejaVuSans-30" x="63.623047"/>
       <use xlink:href="#DejaVuSans-30" x="127.246094"/>
      </g>
     </g>
    </g>
   </g>
   <g id="matplotlib.axis_4">
    <g id="ytick_6">
     <g id="line2d_22">
      <g>
       <use xlink:href="#mc6fd8c4f39" x="286.941176" y="492.48" style="stroke: #000000; stroke-width: 0.8"/>
      </g>
     </g>
     <g id="text_19">
      <!-- 0 -->
      <g transform="translate(273.578676 496.279219) scale(0.1 -0.1)">
       <use xlink:href="#DejaVuSans-30"/>
      </g>
     </g>
    </g>
    <g id="ytick_7">
     <g id="line2d_23">
      <g>
       <use xlink:href="#mc6fd8c4f39" x="286.941176" y="440.319586" style="stroke: #000000; stroke-width: 0.8"/>
      </g>
     </g>
     <g id="text_20">
      <!-- 100 -->
      <g transform="translate(260.853676 444.118805) scale(0.1 -0.1)">
       <use xlink:href="#DejaVuSans-31"/>
       <use xlink:href="#DejaVuSans-30" x="63.623047"/>
       <use xlink:href="#DejaVuSans-30" x="127.246094"/>
      </g>
     </g>
    </g>
    <g id="ytick_8">
     <g id="line2d_24">
      <g>
       <use xlink:href="#mc6fd8c4f39" x="286.941176" y="388.159172" style="stroke: #000000; stroke-width: 0.8"/>
      </g>
     </g>
     <g id="text_21">
      <!-- 200 -->
      <g transform="translate(260.853676 391.958391) scale(0.1 -0.1)">
       <use xlink:href="#DejaVuSans-32"/>
       <use xlink:href="#DejaVuSans-30" x="63.623047"/>
       <use xlink:href="#DejaVuSans-30" x="127.246094"/>
      </g>
     </g>
    </g>
    <g id="ytick_9">
     <g id="line2d_25">
      <g>
       <use xlink:href="#mc6fd8c4f39" x="286.941176" y="335.998758" style="stroke: #000000; stroke-width: 0.8"/>
      </g>
     </g>
     <g id="text_22">
      <!-- 300 -->
      <g transform="translate(260.853676 339.797977) scale(0.1 -0.1)">
       <use xlink:href="#DejaVuSans-33"/>
       <use xlink:href="#DejaVuSans-30" x="63.623047"/>
       <use xlink:href="#DejaVuSans-30" x="127.246094"/>
      </g>
     </g>
    </g>
    <g id="ytick_10">
     <g id="line2d_26">
      <g>
       <use xlink:href="#mc6fd8c4f39" x="286.941176" y="283.838344" style="stroke: #000000; stroke-width: 0.8"/>
      </g>
     </g>
     <g id="text_23">
      <!-- 400 -->
      <g transform="translate(260.853676 287.637563) scale(0.1 -0.1)">
       <use xlink:href="#DejaVuSans-34"/>
       <use xlink:href="#DejaVuSans-30" x="63.623047"/>
       <use xlink:href="#DejaVuSans-30" x="127.246094"/>
      </g>
     </g>
    </g>
    <g id="ytick_11">
     <g id="line2d_27">
      <g>
       <use xlink:href="#mc6fd8c4f39" x="286.941176" y="231.67793" style="stroke: #000000; stroke-width: 0.8"/>
      </g>
     </g>
     <g id="text_24">
      <!-- 500 -->
      <g transform="translate(260.853676 235.477149) scale(0.1 -0.1)">
       <defs>
        <path id="DejaVuSans-35" d="M 691 4666 
L 3169 4666 
L 3169 4134 
L 1269 4134 
L 1269 2991 
Q 1406 3038 1543 3061 
Q 1681 3084 1819 3084 
Q 2600 3084 3056 2656 
Q 3513 2228 3513 1497 
Q 3513 744 3044 326 
Q 2575 -91 1722 -91 
Q 1428 -91 1123 -41 
Q 819 9 494 109 
L 494 744 
Q 775 591 1075 516 
Q 1375 441 1709 441 
Q 2250 441 2565 725 
Q 2881 1009 2881 1497 
Q 2881 1984 2565 2268 
Q 2250 2553 1709 2553 
Q 1456 2553 1204 2497 
Q 953 2441 691 2322 
L 691 4666 
z
" transform="scale(0.015625)"/>
       </defs>
       <use xlink:href="#DejaVuSans-35"/>
       <use xlink:href="#DejaVuSans-30" x="63.623047"/>
       <use xlink:href="#DejaVuSans-30" x="127.246094"/>
      </g>
     </g>
    </g>
    <g id="ytick_12">
     <g id="line2d_28">
      <g>
       <use xlink:href="#mc6fd8c4f39" x="286.941176" y="179.517516" style="stroke: #000000; stroke-width: 0.8"/>
      </g>
     </g>
     <g id="text_25">
      <!-- 600 -->
      <g transform="translate(260.853676 183.316735) scale(0.1 -0.1)">
       <use xlink:href="#DejaVuSans-36"/>
       <use xlink:href="#DejaVuSans-30" x="63.623047"/>
       <use xlink:href="#DejaVuSans-30" x="127.246094"/>
      </g>
     </g>
    </g>
    <g id="ytick_13">
     <g id="line2d_29">
      <g>
       <use xlink:href="#mc6fd8c4f39" x="286.941176" y="127.357102" style="stroke: #000000; stroke-width: 0.8"/>
      </g>
     </g>
     <g id="text_26">
      <!-- 700 -->
      <g transform="translate(260.853676 131.156321) scale(0.1 -0.1)">
       <defs>
        <path id="DejaVuSans-37" d="M 525 4666 
L 3525 4666 
L 3525 4397 
L 1831 0 
L 1172 0 
L 2766 4134 
L 525 4134 
L 525 4666 
z
" transform="scale(0.015625)"/>
       </defs>
       <use xlink:href="#DejaVuSans-37"/>
       <use xlink:href="#DejaVuSans-30" x="63.623047"/>
       <use xlink:href="#DejaVuSans-30" x="127.246094"/>
      </g>
     </g>
    </g>
    <g id="ytick_14">
     <g id="line2d_30">
      <g>
       <use xlink:href="#mc6fd8c4f39" x="286.941176" y="75.196688" style="stroke: #000000; stroke-width: 0.8"/>
      </g>
     </g>
     <g id="text_27">
      <!-- 800 -->
      <g transform="translate(260.853676 78.995907) scale(0.1 -0.1)">
       <use xlink:href="#DejaVuSans-38"/>
       <use xlink:href="#DejaVuSans-30" x="63.623047"/>
       <use xlink:href="#DejaVuSans-30" x="127.246094"/>
      </g>
     </g>
    </g>
   </g>
   <g id="line2d_31">
    <path d="M 294.40107 492.48 
L 294.7632 492.48 
L 294.944266 491.958396 
L 295.487462 491.958396 
L 295.668527 491.436792 
L 296.211723 491.436792 
L 296.392789 489.871979 
L 296.935985 489.871979 
L 297.11705 488.307167 
L 297.660246 488.307167 
L 297.841311 486.742354 
L 298.384508 486.742354 
L 298.565573 484.134334 
L 299.108769 484.134334 
L 299.289834 483.091125 
L 299.83303 483.091125 
L 300.014096 481.526313 
L 300.557292 481.526313 
L 300.738357 478.918292 
L 301.281553 478.918292 
L 301.462619 478.396688 
L 302.730076 478.396688 
L 302.911142 477.35348 
L 303.454338 477.35348 
L 303.635403 474.745459 
L 304.178599 474.745459 
L 304.359665 473.180647 
L 304.902861 473.180647 
L 305.083926 471.615834 
L 305.627122 471.615834 
L 305.808188 471.09423 
L 306.351384 471.09423 
L 306.532449 469.529418 
L 307.075645 469.529418 
L 307.25671 467.964605 
L 307.799907 467.964605 
L 307.980972 466.921397 
L 308.524168 466.921397 
L 308.705233 466.399793 
L 309.248429 466.399793 
L 309.429495 464.834981 
L 309.972691 464.834981 
L 310.153756 464.313376 
L 311.421214 464.313376 
L 311.602279 463.270168 
L 312.145475 463.270168 
L 312.326541 462.748564 
L 312.869737 462.748564 
L 313.050802 461.705356 
L 313.593998 461.705356 
L 313.775064 461.183752 
L 314.31826 461.183752 
L 314.499325 460.140543 
L 315.766783 460.140543 
L 315.947848 459.618939 
L 316.491044 459.618939 
L 316.672109 459.097335 
L 317.939567 459.097335 
L 318.120632 458.054127 
L 318.663828 458.054127 
L 318.844894 456.489314 
L 319.38809 456.489314 
L 319.569155 455.446106 
L 320.112351 455.446106 
L 320.293417 453.881294 
L 320.836613 453.881294 
L 321.017678 453.35969 
L 321.560874 453.35969 
L 321.74194 451.794877 
L 322.285136 451.794877 
L 322.466201 450.751669 
L 323.009397 450.751669 
L 323.190463 449.708461 
L 323.733659 449.708461 
L 323.914724 448.143648 
L 324.45792 448.143648 
L 324.638986 446.578836 
L 325.182182 446.578836 
L 325.363247 444.492419 
L 325.906443 444.492419 
L 326.087508 441.884398 
L 326.630705 441.884398 
L 326.81177 440.84119 
L 327.354966 440.84119 
L 327.536031 439.276378 
L 328.079227 439.276378 
L 328.260293 437.711565 
L 328.803489 437.711565 
L 328.984554 435.103545 
L 329.52775 435.103545 
L 329.708816 433.538732 
L 330.252012 433.538732 
L 330.433077 431.97392 
L 330.976273 431.97392 
L 331.157339 430.409107 
L 331.700535 430.409107 
L 331.8816 428.322691 
L 332.424796 428.322691 
L 332.605862 426.757878 
L 333.149058 426.757878 
L 333.330123 425.71467 
L 333.873319 425.71467 
L 334.054385 425.193066 
L 336.046104 425.193066 
L 336.227169 424.671462 
L 336.770365 424.671462 
L 336.95143 423.628254 
L 337.494626 423.628254 
L 337.675692 422.585045 
L 338.218888 422.585045 
L 338.399953 421.541837 
L 338.943149 421.541837 
L 339.124215 420.498629 
L 339.667411 420.498629 
L 339.848476 419.977025 
L 340.391672 419.977025 
L 340.572738 418.412212 
L 341.115934 418.412212 
L 341.296999 417.369004 
L 341.840195 417.369004 
L 342.021261 415.804191 
L 342.564457 415.804191 
L 342.745522 414.239379 
L 343.288718 414.239379 
L 343.469784 413.196171 
L 344.01298 413.196171 
L 344.194045 412.674567 
L 344.737241 412.674567 
L 344.918306 411.631358 
L 345.461503 411.631358 
L 345.642568 410.58815 
L 346.185764 410.58815 
L 346.366829 409.023338 
L 346.910025 409.023338 
L 347.091091 406.936921 
L 347.634287 406.936921 
L 347.815352 405.372109 
L 348.358548 405.372109 
L 348.539614 404.3289 
L 349.08281 404.3289 
L 349.263875 402.764088 
L 349.807071 402.764088 
L 349.988137 401.199276 
L 350.531333 401.199276 
L 350.712398 398.069651 
L 351.255594 398.069651 
L 351.43666 396.504838 
L 351.979856 396.504838 
L 352.160921 394.418422 
L 352.704117 394.418422 
L 352.885182 392.853609 
L 353.428379 392.853609 
L 353.609444 390.767193 
L 354.15264 390.767193 
L 354.333705 389.723984 
L 354.876902 389.723984 
L 355.057967 388.680776 
L 356.325424 388.680776 
L 356.50649 387.637568 
L 357.049686 387.637568 
L 357.230751 387.115964 
L 357.773947 387.115964 
L 357.955013 385.029547 
L 358.498209 385.029547 
L 358.679274 382.943131 
L 359.22247 382.943131 
L 359.403536 381.899922 
L 359.946732 381.899922 
L 360.127797 378.770298 
L 360.670993 378.770298 
L 360.852059 377.205485 
L 361.395255 377.205485 
L 361.57632 374.597464 
L 362.843778 374.597464 
L 363.024843 373.554256 
L 363.568039 373.554256 
L 363.749104 372.511048 
L 364.292301 372.511048 
L 364.473366 371.46784 
L 365.016562 371.46784 
L 365.197627 370.424631 
L 365.740823 370.424631 
L 365.921889 369.381423 
L 366.465085 369.381423 
L 366.64615 367.295006 
L 367.189346 367.295006 
L 367.370412 366.251798 
L 367.913608 366.251798 
L 368.094673 364.686986 
L 368.637869 364.686986 
L 368.818935 363.643777 
L 369.362131 363.643777 
L 369.543196 362.078965 
L 370.086392 362.078965 
L 370.267458 360.514153 
L 370.810654 360.514153 
L 370.991719 358.94934 
L 371.534915 358.94934 
L 371.71598 356.862924 
L 372.259177 356.862924 
L 372.440242 355.298111 
L 372.983438 355.298111 
L 373.164503 354.776507 
L 373.707699 354.776507 
L 373.888765 353.211695 
L 374.431961 353.211695 
L 374.613026 352.168486 
L 375.156222 352.168486 
L 375.337288 350.08207 
L 376.604745 350.08207 
L 376.785811 348.517257 
L 377.329007 348.517257 
L 377.510072 346.430841 
L 378.053268 346.430841 
L 378.234334 345.909237 
L 378.77753 345.909237 
L 378.958595 345.387633 
L 379.501791 345.387633 
L 379.682857 343.301216 
L 380.226053 343.301216 
L 380.407118 341.214799 
L 380.950314 341.214799 
L 381.131379 340.171591 
L 381.674576 340.171591 
L 381.855641 338.085175 
L 382.398837 338.085175 
L 382.579902 334.433946 
L 383.123098 334.433946 
L 383.304164 332.347529 
L 383.84736 332.347529 
L 384.028425 329.739508 
L 384.571621 329.739508 
L 384.752687 329.217904 
L 385.295883 329.217904 
L 385.476948 326.609884 
L 386.020144 326.609884 
L 386.20121 325.045071 
L 386.744406 325.045071 
L 386.925471 322.958655 
L 387.468667 322.958655 
L 387.649733 320.872238 
L 388.192929 320.872238 
L 388.373994 318.785821 
L 388.91719 318.785821 
L 389.098256 318.264217 
L 389.641452 318.264217 
L 389.822517 315.656197 
L 390.365713 315.656197 
L 390.546778 313.56978 
L 391.089975 313.56978 
L 391.27104 309.396947 
L 391.814236 309.396947 
L 391.995301 305.745718 
L 392.538497 305.745718 
L 392.719563 302.094489 
L 393.262759 302.094489 
L 393.443824 299.486468 
L 393.98702 299.486468 
L 394.168086 298.44326 
L 394.711282 298.44326 
L 394.892347 295.313635 
L 395.435543 295.313635 
L 395.616609 293.227219 
L 396.159805 293.227219 
L 396.34087 291.140802 
L 396.884066 291.140802 
L 397.065132 289.57599 
L 397.608328 289.57599 
L 397.789393 286.967969 
L 398.332589 286.967969 
L 398.513655 285.403157 
L 399.056851 285.403157 
L 399.237916 282.273532 
L 399.781112 282.273532 
L 399.962177 278.622303 
L 400.505374 278.622303 
L 400.686439 275.492678 
L 401.229635 275.492678 
L 401.4107 274.44947 
L 401.953896 274.44947 
L 402.134962 271.841449 
L 402.678158 271.841449 
L 402.859223 267.668616 
L 403.402419 267.668616 
L 403.583485 263.495783 
L 404.126681 263.495783 
L 404.307746 258.801345 
L 404.850942 258.801345 
L 405.032008 255.150116 
L 405.575204 255.150116 
L 405.756269 252.020492 
L 406.299465 252.020492 
L 406.480531 249.412471 
L 407.023727 249.412471 
L 407.204792 245.761242 
L 407.747988 245.761242 
L 407.929054 243.153221 
L 408.47225 243.153221 
L 408.653315 240.545201 
L 409.196511 240.545201 
L 409.377576 237.93718 
L 409.920773 237.93718 
L 410.101838 234.807555 
L 410.645034 234.807555 
L 410.826099 232.199534 
L 411.369295 232.199534 
L 411.550361 229.591514 
L 412.093557 229.591514 
L 412.274622 227.505097 
L 412.817818 227.505097 
L 412.998884 223.332264 
L 413.54208 223.332264 
L 413.723145 220.202639 
L 414.266341 220.202639 
L 414.447407 214.464994 
L 414.990603 214.464994 
L 415.171668 209.248952 
L 415.714864 209.248952 
L 415.89593 205.076119 
L 416.439126 205.076119 
L 416.620191 201.42489 
L 417.163387 201.42489 
L 417.344453 197.773661 
L 417.887649 197.773661 
L 418.068714 195.16564 
L 418.61191 195.16564 
L 418.792975 193.079224 
L 419.336172 193.079224 
L 419.517237 190.992807 
L 420.060433 190.992807 
L 420.241498 188.906391 
L 420.784694 188.906391 
L 420.96576 187.341578 
L 421.508956 187.341578 
L 421.690021 184.211953 
L 422.233217 184.211953 
L 422.414283 182.647141 
L 422.957479 182.647141 
L 423.138544 179.517516 
L 423.68174 179.517516 
L 423.862806 176.909495 
L 424.406002 176.909495 
L 424.587067 173.779871 
L 425.130263 173.779871 
L 425.311329 171.17185 
L 425.854525 171.17185 
L 426.03559 169.085433 
L 426.578786 169.085433 
L 426.759852 166.477413 
L 427.303048 166.477413 
L 427.484113 162.826184 
L 428.027309 162.826184 
L 428.208374 160.218163 
L 428.751571 160.218163 
L 428.932636 155.002122 
L 429.475832 155.002122 
L 429.656897 152.394101 
L 430.200093 152.394101 
L 430.381159 149.78608 
L 430.924355 149.78608 
L 431.10542 146.656455 
L 431.648616 146.656455 
L 431.829682 144.048435 
L 432.372878 144.048435 
L 432.553943 141.440414 
L 433.097139 141.440414 
L 433.278205 140.397206 
L 433.821401 140.397206 
L 434.002466 137.789185 
L 434.545662 137.789185 
L 434.726728 136.224373 
L 435.269924 136.224373 
L 435.450989 133.094748 
L 435.994185 133.094748 
L 436.175251 132.051539 
L 436.718447 132.051539 
L 436.899512 128.921915 
L 437.442708 128.921915 
L 437.623773 125.79229 
L 438.16697 125.79229 
L 438.348035 122.662665 
L 438.891231 122.662665 
L 439.072296 119.53304 
L 439.615492 119.53304 
L 439.796558 116.925019 
L 440.339754 116.925019 
L 440.520819 114.838603 
L 441.064015 114.838603 
L 441.245081 110.144166 
L 441.788277 110.144166 
L 441.969342 109.100957 
L 442.512538 109.100957 
L 442.693604 107.536145 
L 443.2368 107.536145 
L 443.417865 105.449728 
L 443.59893 105.449728 
L 443.59893 105.449728 
" clip-path="url(#p4788c56c05)" style="fill: none; stroke: #0000ff; stroke-width: 1.5; stroke-linecap: square"/>
   </g>
   <g id="line2d_32">
    <path d="M 294.40107 492.48 
L 294.7632 492.48 
L 294.944266 491.958396 
L 295.487462 491.958396 
L 295.668527 488.828771 
L 296.211723 488.828771 
L 296.392789 487.263959 
L 296.935985 487.263959 
L 297.11705 485.177542 
L 297.660246 485.177542 
L 297.841311 483.091125 
L 298.384508 483.091125 
L 298.565573 481.004709 
L 299.108769 481.004709 
L 299.289834 477.875084 
L 299.83303 477.875084 
L 300.014096 476.831876 
L 300.557292 476.831876 
L 300.738357 475.267063 
L 301.281553 475.267063 
L 301.462619 473.180647 
L 302.005815 473.180647 
L 302.18688 470.572626 
L 302.730076 470.572626 
L 302.911142 467.964605 
L 303.454338 467.964605 
L 303.635403 466.399793 
L 304.178599 466.399793 
L 304.359665 464.834981 
L 304.902861 464.834981 
L 305.083926 463.791772 
L 305.627122 463.791772 
L 305.808188 461.705356 
L 306.351384 461.705356 
L 306.532449 459.618939 
L 307.075645 459.618939 
L 307.25671 458.054127 
L 307.799907 458.054127 
L 307.980972 455.96771 
L 308.524168 455.96771 
L 308.705233 454.402898 
L 309.248429 454.402898 
L 309.429495 453.881294 
L 309.972691 453.881294 
L 310.153756 452.838085 
L 310.696952 452.838085 
L 310.878018 451.794877 
L 311.421214 451.794877 
L 311.602279 449.708461 
L 312.145475 449.708461 
L 312.326541 449.186856 
L 314.31826 449.186856 
L 314.499325 448.143648 
L 316.491044 448.143648 
L 316.672109 447.10044 
L 317.215306 447.10044 
L 317.396371 446.057232 
L 317.939567 446.057232 
L 318.120632 445.535627 
L 318.663828 445.535627 
L 318.844894 445.014023 
L 319.38809 445.014023 
L 319.569155 442.406003 
L 320.112351 442.406003 
L 320.293417 439.797982 
L 320.836613 439.797982 
L 321.017678 438.754774 
L 321.560874 438.754774 
L 321.74194 437.189961 
L 322.285136 437.189961 
L 322.466201 434.060336 
L 323.009397 434.060336 
L 323.190463 431.97392 
L 323.733659 431.97392 
L 323.914724 430.930712 
L 324.45792 430.930712 
L 324.638986 428.844295 
L 325.182182 428.844295 
L 325.363247 428.322691 
L 325.906443 428.322691 
L 326.087508 427.279483 
L 326.630705 427.279483 
L 326.81177 425.71467 
L 327.354966 425.71467 
L 327.536031 424.149858 
L 328.079227 424.149858 
L 328.260293 423.106649 
L 328.803489 423.106649 
L 328.984554 422.585045 
L 329.52775 422.585045 
L 329.708816 421.020233 
L 330.252012 421.020233 
L 330.433077 419.45542 
L 330.976273 419.45542 
L 331.157339 418.933816 
L 331.700535 418.933816 
L 331.8816 418.412212 
L 332.424796 418.412212 
L 332.605862 417.369004 
L 333.149058 417.369004 
L 333.330123 415.804191 
L 333.873319 415.804191 
L 334.054385 414.239379 
L 334.597581 414.239379 
L 334.778646 413.196171 
L 335.321842 413.196171 
L 335.502907 412.674567 
L 336.046104 412.674567 
L 336.227169 412.152962 
L 337.494626 412.152962 
L 337.675692 411.631358 
L 338.943149 411.631358 
L 339.124215 411.109754 
L 339.667411 411.109754 
L 339.848476 409.544942 
L 340.391672 409.544942 
L 340.572738 407.980129 
L 341.115934 407.980129 
L 341.296999 405.372109 
L 341.840195 405.372109 
L 342.021261 402.764088 
L 342.564457 402.764088 
L 342.745522 401.199276 
L 343.288718 401.199276 
L 343.469784 399.112859 
L 344.01298 399.112859 
L 344.194045 396.504838 
L 344.737241 396.504838 
L 344.918306 395.46163 
L 345.461503 395.46163 
L 345.642568 393.375213 
L 346.185764 393.375213 
L 346.366829 392.332005 
L 346.910025 392.332005 
L 347.091091 390.767193 
L 347.634287 390.767193 
L 347.815352 389.723984 
L 348.358548 389.723984 
L 348.539614 388.159172 
L 349.08281 388.159172 
L 349.263875 387.637568 
L 349.807071 387.637568 
L 349.988137 387.115964 
L 350.531333 387.115964 
L 350.712398 386.59436 
L 351.255594 386.59436 
L 351.43666 385.551151 
L 351.979856 385.551151 
L 352.160921 385.029547 
L 352.704117 385.029547 
L 352.885182 383.986339 
L 354.15264 383.986339 
L 354.333705 383.464735 
L 354.876902 383.464735 
L 355.057967 382.943131 
L 355.601163 382.943131 
L 355.782228 381.899922 
L 356.325424 381.899922 
L 356.50649 379.813506 
L 357.049686 379.813506 
L 357.230751 376.683881 
L 357.773947 376.683881 
L 357.955013 373.032652 
L 358.498209 373.032652 
L 358.679274 370.946235 
L 359.22247 370.946235 
L 359.403536 367.816611 
L 359.946732 367.816611 
L 360.127797 366.773402 
L 360.670993 366.773402 
L 360.852059 364.165382 
L 361.395255 364.165382 
L 361.57632 363.643777 
L 362.119516 363.643777 
L 362.300581 361.557361 
L 362.843778 361.557361 
L 363.024843 358.94934 
L 363.568039 358.94934 
L 363.749104 355.298111 
L 364.292301 355.298111 
L 364.473366 351.646882 
L 365.016562 351.646882 
L 365.197627 349.560466 
L 365.740823 349.560466 
L 365.921889 347.995653 
L 366.465085 347.995653 
L 366.64615 345.909237 
L 367.189346 345.909237 
L 367.370412 345.387633 
L 367.913608 345.387633 
L 368.094673 343.301216 
L 368.637869 343.301216 
L 368.818935 341.214799 
L 369.362131 341.214799 
L 369.543196 339.649987 
L 370.086392 339.649987 
L 370.267458 338.606779 
L 370.810654 338.606779 
L 370.991719 336.520362 
L 371.534915 336.520362 
L 371.71598 335.477154 
L 372.259177 335.477154 
L 372.440242 334.433946 
L 372.983438 334.433946 
L 373.164503 333.390737 
L 373.707699 333.390737 
L 373.888765 331.825925 
L 375.156222 331.825925 
L 375.337288 329.739508 
L 375.880484 329.739508 
L 376.061549 326.609884 
L 376.604745 326.609884 
L 376.785811 324.001863 
L 377.329007 324.001863 
L 377.510072 322.43705 
L 378.053268 322.43705 
L 378.234334 318.785821 
L 378.77753 318.785821 
L 378.958595 315.656197 
L 379.501791 315.656197 
L 379.682857 314.091384 
L 380.226053 314.091384 
L 380.407118 312.526572 
L 380.950314 312.526572 
L 381.131379 308.875343 
L 381.674576 308.875343 
L 381.855641 307.31053 
L 382.398837 307.31053 
L 382.579902 305.745718 
L 383.123098 305.745718 
L 383.304164 304.180906 
L 383.84736 304.180906 
L 384.028425 303.137697 
L 384.571621 303.137697 
L 384.752687 301.051281 
L 385.295883 301.051281 
L 385.476948 300.008072 
L 386.020144 300.008072 
L 386.20121 298.964864 
L 386.744406 298.964864 
L 386.925471 298.44326 
L 387.468667 298.44326 
L 387.649733 297.400052 
L 388.192929 297.400052 
L 388.373994 295.835239 
L 388.91719 295.835239 
L 389.098256 294.270427 
L 390.365713 294.270427 
L 390.546778 291.140802 
L 391.089975 291.140802 
L 391.27104 288.532781 
L 391.814236 288.532781 
L 391.995301 284.359948 
L 392.538497 284.359948 
L 392.719563 282.795136 
L 393.262759 282.795136 
L 393.443824 279.143907 
L 393.98702 279.143907 
L 394.168086 274.971074 
L 394.711282 274.971074 
L 394.892347 271.841449 
L 395.435543 271.841449 
L 395.616609 267.668616 
L 396.159805 267.668616 
L 396.34087 262.452574 
L 396.884066 262.452574 
L 397.065132 259.32295 
L 397.608328 259.32295 
L 397.789393 255.150116 
L 398.332589 255.150116 
L 398.513655 250.455679 
L 399.056851 250.455679 
L 399.237916 246.80445 
L 399.781112 246.80445 
L 399.962177 244.196429 
L 400.505374 244.196429 
L 400.686439 241.588409 
L 401.229635 241.588409 
L 401.4107 237.415576 
L 401.953896 237.415576 
L 402.134962 235.329159 
L 402.678158 235.329159 
L 402.859223 232.199534 
L 403.402419 232.199534 
L 403.583485 230.634722 
L 404.126681 230.634722 
L 404.307746 228.548305 
L 404.850942 228.548305 
L 405.032008 225.940285 
L 405.575204 225.940285 
L 405.756269 223.853868 
L 406.299465 223.853868 
L 406.480531 221.767451 
L 407.023727 221.767451 
L 407.204792 220.202639 
L 407.747988 220.202639 
L 407.929054 218.637827 
L 408.47225 218.637827 
L 408.653315 216.55141 
L 409.196511 216.55141 
L 409.377576 213.421785 
L 409.920773 213.421785 
L 410.101838 211.335369 
L 410.645034 211.335369 
L 410.826099 210.29216 
L 411.369295 210.29216 
L 411.550361 209.248952 
L 412.093557 209.248952 
L 412.274622 207.68414 
L 412.817818 207.68414 
L 412.998884 206.119327 
L 413.54208 206.119327 
L 413.723145 201.946494 
L 414.266341 201.946494 
L 414.447407 199.860078 
L 414.990603 199.860078 
L 415.171668 196.730453 
L 415.714864 196.730453 
L 415.89593 195.16564 
L 416.439126 195.16564 
L 416.620191 192.036016 
L 417.163387 192.036016 
L 417.344453 188.384787 
L 417.887649 188.384787 
L 418.068714 184.211953 
L 418.61191 184.211953 
L 418.792975 181.082329 
L 419.336172 181.082329 
L 419.517237 177.4311 
L 420.060433 177.4311 
L 420.241498 174.823079 
L 420.784694 174.823079 
L 420.96576 169.607038 
L 421.508956 169.607038 
L 421.690021 166.477413 
L 422.233217 166.477413 
L 422.414283 163.869392 
L 422.957479 163.869392 
L 423.138544 159.174955 
L 423.68174 159.174955 
L 423.862806 155.002122 
L 424.406002 155.002122 
L 424.587067 152.394101 
L 425.130263 152.394101 
L 425.311329 149.78608 
L 425.854525 149.78608 
L 426.03559 147.699664 
L 426.578786 147.699664 
L 426.759852 146.656455 
L 427.303048 146.656455 
L 427.484113 144.570039 
L 428.027309 144.570039 
L 428.208374 143.526831 
L 428.751571 143.526831 
L 428.932636 142.483622 
L 429.475832 142.483622 
L 429.656897 139.875602 
L 430.200093 139.875602 
L 430.381159 138.310789 
L 430.924355 138.310789 
L 431.10542 135.702768 
L 431.648616 135.702768 
L 431.829682 134.65956 
L 432.372878 134.65956 
L 432.553943 131.529935 
L 433.097139 131.529935 
L 433.278205 129.443519 
L 433.821401 129.443519 
L 434.002466 128.921915 
L 434.545662 128.921915 
L 434.726728 128.40031 
L 435.269924 128.40031 
L 435.450989 127.357102 
L 435.994185 127.357102 
L 436.175251 124.227477 
L 436.718447 124.227477 
L 436.899512 121.097853 
L 437.442708 121.097853 
L 437.623773 118.489832 
L 438.16697 118.489832 
L 438.348035 115.881811 
L 438.891231 115.881811 
L 439.072296 112.752186 
L 439.615492 112.752186 
L 439.796558 108.057749 
L 440.339754 108.057749 
L 440.520819 103.884916 
L 441.064015 103.884916 
L 441.245081 101.276895 
L 441.788277 101.276895 
L 441.969342 97.104062 
L 442.512538 97.104062 
L 442.693604 92.931229 
L 443.2368 92.931229 
L 443.417865 89.28 
L 443.59893 89.28 
L 443.59893 89.28 
" clip-path="url(#p4788c56c05)" style="fill: none; stroke: #ff0000; stroke-width: 1.5; stroke-linecap: square"/>
   </g>
   <g id="line2d_33">
    <path d="M 294.40107 492.48 
L 294.7632 492.48 
L 294.944266 491.436792 
L 295.487462 491.436792 
L 295.668527 490.915188 
L 296.211723 490.915188 
L 296.392789 488.828771 
L 296.935985 488.828771 
L 297.11705 487.263959 
L 297.660246 487.263959 
L 297.841311 485.699146 
L 298.384508 485.699146 
L 298.565573 485.177542 
L 299.108769 485.177542 
L 299.289834 484.134334 
L 299.83303 484.134334 
L 300.014096 481.526313 
L 300.557292 481.526313 
L 300.738357 480.483105 
L 301.281553 480.483105 
L 301.462619 478.396688 
L 302.005815 478.396688 
L 302.18688 476.310272 
L 302.730076 476.310272 
L 302.911142 475.267063 
L 303.454338 475.267063 
L 303.635403 474.745459 
L 304.178599 474.745459 
L 304.359665 473.180647 
L 304.902861 473.180647 
L 305.083926 471.09423 
L 305.627122 471.09423 
L 305.808188 469.007814 
L 306.351384 469.007814 
L 306.532449 468.48621 
L 307.075645 468.48621 
L 307.25671 467.443001 
L 307.799907 467.443001 
L 307.980972 466.399793 
L 308.524168 466.399793 
L 308.705233 464.834981 
L 309.248429 464.834981 
L 309.429495 463.270168 
L 309.972691 463.270168 
L 310.153756 461.705356 
L 310.696952 461.705356 
L 310.878018 459.618939 
L 312.145475 459.618939 
L 312.326541 458.054127 
L 312.869737 458.054127 
L 313.050802 457.010918 
L 313.593998 457.010918 
L 313.775064 455.446106 
L 315.042521 455.446106 
L 315.223587 453.881294 
L 315.766783 453.881294 
L 315.947848 452.838085 
L 317.215306 452.838085 
L 317.396371 452.316481 
L 317.939567 452.316481 
L 318.120632 450.751669 
L 318.663828 450.751669 
L 318.844894 448.665252 
L 319.38809 448.665252 
L 319.569155 447.10044 
L 320.112351 447.10044 
L 320.293417 446.057232 
L 320.836613 446.057232 
L 321.017678 442.927607 
L 321.560874 442.927607 
L 321.74194 441.362794 
L 322.285136 441.362794 
L 322.466201 440.84119 
L 323.009397 440.84119 
L 323.190463 439.276378 
L 323.733659 439.276378 
L 323.914724 437.189961 
L 324.45792 437.189961 
L 324.638986 436.146753 
L 325.182182 436.146753 
L 325.363247 434.58194 
L 325.906443 434.58194 
L 326.087508 434.060336 
L 326.630705 434.060336 
L 326.81177 432.495524 
L 327.354966 432.495524 
L 327.536031 431.452316 
L 328.079227 431.452316 
L 328.260293 429.887503 
L 328.803489 429.887503 
L 328.984554 429.365899 
L 329.52775 429.365899 
L 329.708816 428.844295 
L 330.252012 428.844295 
L 330.433077 428.322691 
L 330.976273 428.322691 
L 331.157339 427.279483 
L 331.700535 427.279483 
L 331.8816 426.757878 
L 332.424796 426.757878 
L 332.605862 426.236274 
L 333.873319 426.236274 
L 334.054385 425.71467 
L 334.597581 425.71467 
L 334.778646 424.149858 
L 335.321842 424.149858 
L 335.502907 422.585045 
L 336.046104 422.585045 
L 336.227169 421.541837 
L 336.770365 421.541837 
L 336.95143 421.020233 
L 338.943149 421.020233 
L 339.124215 419.45542 
L 339.667411 419.45542 
L 339.848476 416.325796 
L 340.391672 416.325796 
L 340.572738 414.760983 
L 341.115934 414.760983 
L 341.296999 413.717775 
L 341.840195 413.717775 
L 342.021261 413.196171 
L 342.564457 413.196171 
L 342.745522 411.631358 
L 343.288718 411.631358 
L 343.469784 410.58815 
L 344.01298 410.58815 
L 344.194045 409.544942 
L 344.737241 409.544942 
L 344.918306 407.458525 
L 345.461503 407.458525 
L 345.642568 406.415317 
L 346.185764 406.415317 
L 346.366829 404.850505 
L 346.910025 404.850505 
L 347.091091 404.3289 
L 347.634287 404.3289 
L 347.815352 402.764088 
L 348.358548 402.764088 
L 348.539614 401.199276 
L 349.08281 401.199276 
L 349.263875 399.634463 
L 349.807071 399.634463 
L 349.988137 398.069651 
L 351.255594 398.069651 
L 351.43666 397.026442 
L 351.979856 397.026442 
L 352.160921 395.983234 
L 352.704117 395.983234 
L 352.885182 395.46163 
L 353.428379 395.46163 
L 353.609444 394.418422 
L 354.15264 394.418422 
L 354.333705 392.853609 
L 354.876902 392.853609 
L 355.057967 391.810401 
L 355.601163 391.810401 
L 355.782228 390.245589 
L 356.325424 390.245589 
L 356.50649 388.680776 
L 357.049686 388.680776 
L 357.230751 385.029547 
L 357.773947 385.029547 
L 357.955013 384.507943 
L 358.498209 384.507943 
L 358.679274 381.899922 
L 359.22247 381.899922 
L 359.403536 379.813506 
L 359.946732 379.813506 
L 360.127797 377.727089 
L 360.670993 377.727089 
L 360.852059 376.162277 
L 361.395255 376.162277 
L 361.57632 373.554256 
L 362.119516 373.554256 
L 362.300581 369.903027 
L 362.843778 369.903027 
L 363.024843 368.338215 
L 363.568039 368.338215 
L 363.749104 367.816611 
L 364.292301 367.816611 
L 364.473366 367.295006 
L 365.016562 367.295006 
L 365.197627 365.730194 
L 365.740823 365.730194 
L 365.921889 363.643777 
L 366.465085 363.643777 
L 366.64615 363.122173 
L 367.189346 363.122173 
L 367.370412 360.514153 
L 367.913608 360.514153 
L 368.094673 359.992549 
L 368.637869 359.992549 
L 368.818935 358.94934 
L 369.362131 358.94934 
L 369.543196 357.906132 
L 370.086392 357.906132 
L 370.267458 356.34132 
L 371.534915 356.34132 
L 371.71598 355.819715 
L 372.259177 355.819715 
L 372.440242 355.298111 
L 372.983438 355.298111 
L 373.164503 353.733299 
L 374.431961 353.733299 
L 374.613026 352.168486 
L 375.156222 352.168486 
L 375.337288 349.560466 
L 375.880484 349.560466 
L 376.061549 345.387633 
L 376.604745 345.387633 
L 376.785811 342.779612 
L 377.329007 342.779612 
L 377.510072 339.649987 
L 378.053268 339.649987 
L 378.234334 337.041966 
L 378.77753 337.041966 
L 378.958595 334.433946 
L 379.501791 334.433946 
L 379.682857 331.825925 
L 380.226053 331.825925 
L 380.407118 329.217904 
L 380.950314 329.217904 
L 381.131379 327.653092 
L 381.674576 327.653092 
L 381.855641 325.566675 
L 382.398837 325.566675 
L 382.579902 325.045071 
L 383.123098 325.045071 
L 383.304164 322.958655 
L 383.84736 322.958655 
L 384.028425 321.393842 
L 384.571621 321.393842 
L 384.752687 318.785821 
L 385.295883 318.785821 
L 385.476948 317.221009 
L 386.020144 317.221009 
L 386.20121 314.612988 
L 386.744406 314.612988 
L 386.925471 312.526572 
L 387.468667 312.526572 
L 387.649733 310.961759 
L 388.192929 310.961759 
L 388.373994 310.440155 
L 388.91719 310.440155 
L 389.098256 308.353739 
L 389.641452 308.353739 
L 389.822517 306.267322 
L 390.365713 306.267322 
L 390.546778 304.180906 
L 391.089975 304.180906 
L 391.27104 301.572885 
L 391.814236 301.572885 
L 391.995301 298.964864 
L 392.538497 298.964864 
L 392.719563 293.227219 
L 393.262759 293.227219 
L 393.443824 289.054386 
L 393.98702 289.054386 
L 394.168086 285.403157 
L 394.711282 285.403157 
L 394.892347 283.31674 
L 395.435543 283.31674 
L 395.616609 280.187115 
L 396.159805 280.187115 
L 396.34087 278.100699 
L 396.884066 278.100699 
L 397.065132 272.884657 
L 397.608328 272.884657 
L 397.789393 270.276636 
L 398.332589 270.276636 
L 398.513655 267.147012 
L 399.056851 267.147012 
L 399.237916 264.538991 
L 399.781112 264.538991 
L 399.962177 261.93097 
L 400.505374 261.93097 
L 400.686439 258.801345 
L 401.229635 258.801345 
L 401.4107 255.671721 
L 401.953896 255.671721 
L 402.134962 252.020492 
L 402.678158 252.020492 
L 402.859223 250.977283 
L 403.402419 250.977283 
L 403.583485 248.369263 
L 404.126681 248.369263 
L 404.307746 247.326054 
L 404.850942 247.326054 
L 405.032008 245.761242 
L 405.575204 245.761242 
L 405.756269 243.674825 
L 406.299465 243.674825 
L 406.480531 241.066805 
L 407.023727 241.066805 
L 407.204792 239.501992 
L 407.747988 239.501992 
L 407.929054 237.415576 
L 408.47225 237.415576 
L 408.653315 235.850763 
L 409.920773 235.850763 
L 410.101838 235.329159 
L 410.645034 235.329159 
L 410.826099 233.764347 
L 411.369295 233.764347 
L 411.550361 232.721138 
L 412.093557 232.721138 
L 412.274622 231.67793 
L 412.817818 231.67793 
L 412.998884 230.634722 
L 413.54208 230.634722 
L 413.723145 228.026701 
L 414.266341 228.026701 
L 414.447407 225.41868 
L 414.990603 225.41868 
L 415.171668 223.853868 
L 415.714864 223.853868 
L 415.89593 219.681035 
L 416.439126 219.681035 
L 416.620191 216.55141 
L 417.163387 216.55141 
L 417.344453 214.464994 
L 417.887649 214.464994 
L 418.068714 211.856973 
L 418.61191 211.856973 
L 418.792975 207.68414 
L 419.336172 207.68414 
L 419.517237 204.032911 
L 420.060433 204.032911 
L 420.241498 199.338473 
L 420.784694 199.338473 
L 420.96576 197.252057 
L 421.508956 197.252057 
L 421.690021 194.644036 
L 422.233217 194.644036 
L 422.414283 189.949599 
L 422.957479 189.949599 
L 423.138544 188.906391 
L 423.68174 188.906391 
L 423.862806 187.341578 
L 424.406002 187.341578 
L 424.587067 184.733558 
L 425.130263 184.733558 
L 425.311329 182.125537 
L 425.854525 182.125537 
L 426.03559 178.474308 
L 426.578786 178.474308 
L 426.759852 174.301475 
L 427.303048 174.301475 
L 427.484113 172.736662 
L 428.027309 172.736662 
L 428.208374 169.085433 
L 428.751571 169.085433 
L 428.932636 168.042225 
L 429.475832 168.042225 
L 429.656897 166.477413 
L 430.200093 166.477413 
L 430.381159 163.869392 
L 430.924355 163.869392 
L 431.10542 163.347788 
L 431.648616 163.347788 
L 431.829682 160.739767 
L 433.097139 160.739767 
L 433.278205 158.653351 
L 433.821401 158.653351 
L 434.002466 156.566934 
L 434.545662 156.566934 
L 434.726728 153.958913 
L 435.269924 153.958913 
L 435.450989 153.437309 
L 435.994185 153.437309 
L 436.175251 150.307684 
L 436.718447 150.307684 
L 436.899512 148.221268 
L 437.442708 148.221268 
L 437.623773 145.613247 
L 438.16697 145.613247 
L 438.348035 140.91881 
L 438.891231 140.91881 
L 439.072296 137.267581 
L 439.615492 137.267581 
L 439.796558 135.181164 
L 440.339754 135.181164 
L 440.520819 132.051539 
L 441.064015 132.051539 
L 441.245081 129.965123 
L 441.788277 129.965123 
L 441.969342 126.313894 
L 442.512538 126.313894 
L 442.693604 123.184269 
L 443.2368 123.184269 
L 443.417865 120.054644 
L 443.59893 120.054644 
L 443.59893 120.054644 
" clip-path="url(#p4788c56c05)" style="fill: none; stroke: #008000; stroke-width: 1.5; stroke-linecap: square"/>
   </g>
   <g id="patch_9">
    <path d="M 286.941176 512.64 
L 286.941176 69.12 
" style="fill: none; stroke: #000000; stroke-width: 0.8; stroke-linejoin: miter; stroke-linecap: square"/>
   </g>
   <g id="patch_10">
    <path d="M 451.058824 512.64 
L 451.058824 69.12 
" style="fill: none; stroke: #000000; stroke-width: 0.8; stroke-linejoin: miter; stroke-linecap: square"/>
   </g>
   <g id="patch_11">
    <path d="M 286.941176 512.64 
L 451.058824 512.64 
" style="fill: none; stroke: #000000; stroke-width: 0.8; stroke-linejoin: miter; stroke-linecap: square"/>
   </g>
   <g id="patch_12">
    <path d="M 286.941176 69.12 
L 451.058824 69.12 
" style="fill: none; stroke: #000000; stroke-width: 0.8; stroke-linejoin: miter; stroke-linecap: square"/>
   </g>
   <g id="legend_2">
    <g id="patch_13">
     <path d="M 293.941176 121.154375 
L 393.863051 121.154375 
Q 395.863051 121.154375 395.863051 119.154375 
L 395.863051 76.12 
Q 395.863051 74.12 393.863051 74.12 
L 293.941176 74.12 
Q 291.941176 74.12 291.941176 76.12 
L 291.941176 119.154375 
Q 291.941176 121.154375 293.941176 121.154375 
z
" style="fill: #ffffff; opacity: 0.8; stroke: #cccccc; stroke-linejoin: miter"/>
    </g>
    <g id="line2d_34">
     <path d="M 295.941176 82.218438 
L 305.941176 82.218438 
L 315.941176 82.218438 
" style="fill: none; stroke: #0000ff; stroke-width: 1.5; stroke-linecap: square"/>
    </g>
    <g id="text_28">
     <!-- O1 requested -->
     <g transform="translate(323.941176 85.718438) scale(0.1 -0.1)">
      <defs>
       <path id="DejaVuSans-72" d="M 2631 2963 
Q 2534 3019 2420 3045 
Q 2306 3072 2169 3072 
Q 1681 3072 1420 2755 
Q 1159 2438 1159 1844 
L 1159 0 
L 581 0 
L 581 3500 
L 1159 3500 
L 1159 2956 
Q 1341 3275 1631 3429 
Q 1922 3584 2338 3584 
Q 2397 3584 2469 3576 
Q 2541 3569 2628 3553 
L 2631 2963 
z
" transform="scale(0.015625)"/>
       <path id="DejaVuSans-65" d="M 3597 1894 
L 3597 1613 
L 953 1613 
Q 991 1019 1311 708 
Q 1631 397 2203 397 
Q 2534 397 2845 478 
Q 3156 559 3463 722 
L 3463 178 
Q 3153 47 2828 -22 
Q 2503 -91 2169 -91 
Q 1331 -91 842 396 
Q 353 884 353 1716 
Q 353 2575 817 3079 
Q 1281 3584 2069 3584 
Q 2775 3584 3186 3129 
Q 3597 2675 3597 1894 
z
M 3022 2063 
Q 3016 2534 2758 2815 
Q 2500 3097 2075 3097 
Q 1594 3097 1305 2825 
Q 1016 2553 972 2059 
L 3022 2063 
z
" transform="scale(0.015625)"/>
       <path id="DejaVuSans-71" d="M 947 1747 
Q 947 1113 1208 752 
Q 1469 391 1925 391 
Q 2381 391 2643 752 
Q 2906 1113 2906 1747 
Q 2906 2381 2643 2742 
Q 2381 3103 1925 3103 
Q 1469 3103 1208 2742 
Q 947 2381 947 1747 
z
M 2906 525 
Q 2725 213 2448 61 
Q 2172 -91 1784 -91 
Q 1150 -91 751 415 
Q 353 922 353 1747 
Q 353 2572 751 3078 
Q 1150 3584 1784 3584 
Q 2172 3584 2448 3432 
Q 2725 3281 2906 2969 
L 2906 3500 
L 3481 3500 
L 3481 -1331 
L 2906 -1331 
L 2906 525 
z
" transform="scale(0.015625)"/>
       <path id="DejaVuSans-73" d="M 2834 3397 
L 2834 2853 
Q 2591 2978 2328 3040 
Q 2066 3103 1784 3103 
Q 1356 3103 1142 2972 
Q 928 2841 928 2578 
Q 928 2378 1081 2264 
Q 1234 2150 1697 2047 
L 1894 2003 
Q 2506 1872 2764 1633 
Q 3022 1394 3022 966 
Q 3022 478 2636 193 
Q 2250 -91 1575 -91 
Q 1294 -91 989 -36 
Q 684 19 347 128 
L 347 722 
Q 666 556 975 473 
Q 1284 391 1588 391 
Q 1994 391 2212 530 
Q 2431 669 2431 922 
Q 2431 1156 2273 1281 
Q 2116 1406 1581 1522 
L 1381 1569 
Q 847 1681 609 1914 
Q 372 2147 372 2553 
Q 372 3047 722 3315 
Q 1072 3584 1716 3584 
Q 2034 3584 2315 3537 
Q 2597 3491 2834 3397 
z
" transform="scale(0.015625)"/>
       <path id="DejaVuSans-64" d="M 2906 2969 
L 2906 4863 
L 3481 4863 
L 3481 0 
L 2906 0 
L 2906 525 
Q 2725 213 2448 61 
Q 2172 -91 1784 -91 
Q 1150 -91 751 415 
Q 353 922 353 1747 
Q 353 2572 751 3078 
Q 1150 3584 1784 3584 
Q 2172 3584 2448 3432 
Q 2725 3281 2906 2969 
z
M 947 1747 
Q 947 1113 1208 752 
Q 1469 391 1925 391 
Q 2381 391 2643 752 
Q 2906 1113 2906 1747 
Q 2906 2381 2643 2742 
Q 2381 3103 1925 3103 
Q 1469 3103 1208 2742 
Q 947 2381 947 1747 
z
" transform="scale(0.015625)"/>
      </defs>
      <use xlink:href="#DejaVuSans-4f"/>
      <use xlink:href="#DejaVuSans-31" x="78.710938"/>
      <use xlink:href="#DejaVuSans-20" x="142.333984"/>
      <use xlink:href="#DejaVuSans-72" x="174.121094"/>
      <use xlink:href="#DejaVuSans-65" x="212.984375"/>
      <use xlink:href="#DejaVuSans-71" x="274.507812"/>
      <use xlink:href="#DejaVuSans-75" x="337.984375"/>
      <use xlink:href="#DejaVuSans-65" x="401.363281"/>
      <use xlink:href="#DejaVuSans-73" x="462.886719"/>
      <use xlink:href="#DejaVuSans-74" x="514.986328"/>
      <use xlink:href="#DejaVuSans-65" x="554.195312"/>
      <use xlink:href="#DejaVuSans-64" x="615.71875"/>
     </g>
    </g>
    <g id="line2d_35">
     <path d="M 295.941176 96.896563 
L 305.941176 96.896563 
L 315.941176 96.896563 
" style="fill: none; stroke: #ff0000; stroke-width: 1.5; stroke-linecap: square"/>
    </g>
    <g id="text_29">
     <!-- O2 requested -->
     <g transform="translate(323.941176 100.396563) scale(0.1 -0.1)">
      <use xlink:href="#DejaVuSans-4f"/>
      <use xlink:href="#DejaVuSans-32" x="78.710938"/>
      <use xlink:href="#DejaVuSans-20" x="142.333984"/>
      <use xlink:href="#DejaVuSans-72" x="174.121094"/>
      <use xlink:href="#DejaVuSans-65" x="212.984375"/>
      <use xlink:href="#DejaVuSans-71" x="274.507812"/>
      <use xlink:href="#DejaVuSans-75" x="337.984375"/>
      <use xlink:href="#DejaVuSans-65" x="401.363281"/>
      <use xlink:href="#DejaVuSans-73" x="462.886719"/>
      <use xlink:href="#DejaVuSans-74" x="514.986328"/>
      <use xlink:href="#DejaVuSans-65" x="554.195312"/>
      <use xlink:href="#DejaVuSans-64" x="615.71875"/>
     </g>
    </g>
    <g id="line2d_36">
     <path d="M 295.941176 111.574688 
L 305.941176 111.574688 
L 315.941176 111.574688 
" style="fill: none; stroke: #008000; stroke-width: 1.5; stroke-linecap: square"/>
    </g>
    <g id="text_30">
     <!-- O3 requested -->
     <g transform="translate(323.941176 115.074688) scale(0.1 -0.1)">
      <use xlink:href="#DejaVuSans-4f"/>
      <use xlink:href="#DejaVuSans-33" x="78.710938"/>
      <use xlink:href="#DejaVuSans-20" x="142.333984"/>
      <use xlink:href="#DejaVuSans-72" x="174.121094"/>
      <use xlink:href="#DejaVuSans-65" x="212.984375"/>
      <use xlink:href="#DejaVuSans-71" x="274.507812"/>
      <use xlink:href="#DejaVuSans-75" x="337.984375"/>
      <use xlink:href="#DejaVuSans-65" x="401.363281"/>
      <use xlink:href="#DejaVuSans-73" x="462.886719"/>
      <use xlink:href="#DejaVuSans-74" x="514.986328"/>
      <use xlink:href="#DejaVuSans-65" x="554.195312"/>
      <use xlink:href="#DejaVuSans-64" x="615.71875"/>
     </g>
    </g>
   </g>
  </g>
  <g id="axes_3">
   <g id="patch_14">
    <path d="M 483.882353 512.64 
L 648 512.64 
L 648 69.12 
L 483.882353 69.12 
z
" style="fill: #ffffff"/>
   </g>
   <g id="matplotlib.axis_5">
    <g id="xtick_11">
     <g id="line2d_37">
      <g>
       <use xlink:href="#ma2848a4a95" x="491.161181" y="512.64" style="stroke: #000000; stroke-width: 0.8"/>
      </g>
     </g>
     <g id="text_31">
      <!-- 0 -->
      <g transform="translate(487.979931 527.238438) scale(0.1 -0.1)">
       <use xlink:href="#DejaVuSans-30"/>
      </g>
     </g>
    </g>
    <g id="xtick_12">
     <g id="line2d_38">
      <g>
       <use xlink:href="#ma2848a4a95" x="527.374254" y="512.64" style="stroke: #000000; stroke-width: 0.8"/>
      </g>
     </g>
     <g id="text_32">
      <!-- 200 -->
      <g transform="translate(517.830504 527.238438) scale(0.1 -0.1)">
       <use xlink:href="#DejaVuSans-32"/>
       <use xlink:href="#DejaVuSans-30" x="63.623047"/>
       <use xlink:href="#DejaVuSans-30" x="127.246094"/>
      </g>
     </g>
    </g>
    <g id="xtick_13">
     <g id="line2d_39">
      <g>
       <use xlink:href="#ma2848a4a95" x="563.587327" y="512.64" style="stroke: #000000; stroke-width: 0.8"/>
      </g>
     </g>
     <g id="text_33">
      <!-- 400 -->
      <g transform="translate(554.043577 527.238438) scale(0.1 -0.1)">
       <use xlink:href="#DejaVuSans-34"/>
       <use xlink:href="#DejaVuSans-30" x="63.623047"/>
       <use xlink:href="#DejaVuSans-30" x="127.246094"/>
      </g>
     </g>
    </g>
    <g id="xtick_14">
     <g id="line2d_40">
      <g>
       <use xlink:href="#ma2848a4a95" x="599.8004" y="512.64" style="stroke: #000000; stroke-width: 0.8"/>
      </g>
     </g>
     <g id="text_34">
      <!-- 600 -->
      <g transform="translate(590.25665 527.238438) scale(0.1 -0.1)">
       <use xlink:href="#DejaVuSans-36"/>
       <use xlink:href="#DejaVuSans-30" x="63.623047"/>
       <use xlink:href="#DejaVuSans-30" x="127.246094"/>
      </g>
     </g>
    </g>
    <g id="xtick_15">
     <g id="line2d_41">
      <g>
       <use xlink:href="#ma2848a4a95" x="636.013473" y="512.64" style="stroke: #000000; stroke-width: 0.8"/>
      </g>
     </g>
     <g id="text_35">
      <!-- 800 -->
      <g transform="translate(626.469723 527.238438) scale(0.1 -0.1)">
       <use xlink:href="#DejaVuSans-38"/>
       <use xlink:href="#DejaVuSans-30" x="63.623047"/>
       <use xlink:href="#DejaVuSans-30" x="127.246094"/>
      </g>
     </g>
    </g>
   </g>
   <g id="matplotlib.axis_6">
    <g id="ytick_15">
     <g id="line2d_42">
      <g>
       <use xlink:href="#mc6fd8c4f39" x="483.882353" y="492.48" style="stroke: #000000; stroke-width: 0.8"/>
      </g>
     </g>
     <g id="text_36">
      <!-- 0 -->
      <g transform="translate(470.519853 496.279219) scale(0.1 -0.1)">
       <use xlink:href="#DejaVuSans-30"/>
      </g>
     </g>
    </g>
    <g id="ytick_16">
     <g id="line2d_43">
      <g>
       <use xlink:href="#mc6fd8c4f39" x="483.882353" y="404.827826" style="stroke: #000000; stroke-width: 0.8"/>
      </g>
     </g>
     <g id="text_37">
      <!-- 20 -->
      <g transform="translate(464.157353 408.627045) scale(0.1 -0.1)">
       <use xlink:href="#DejaVuSans-32"/>
       <use xlink:href="#DejaVuSans-30" x="63.623047"/>
      </g>
     </g>
    </g>
    <g id="ytick_17">
     <g id="line2d_44">
      <g>
       <use xlink:href="#mc6fd8c4f39" x="483.882353" y="317.175652" style="stroke: #000000; stroke-width: 0.8"/>
      </g>
     </g>
     <g id="text_38">
      <!-- 40 -->
      <g transform="translate(464.157353 320.974871) scale(0.1 -0.1)">
       <use xlink:href="#DejaVuSans-34"/>
       <use xlink:href="#DejaVuSans-30" x="63.623047"/>
      </g>
     </g>
    </g>
    <g id="ytick_18">
     <g id="line2d_45">
      <g>
       <use xlink:href="#mc6fd8c4f39" x="483.882353" y="229.523478" style="stroke: #000000; stroke-width: 0.8"/>
      </g>
     </g>
     <g id="text_39">
      <!-- 60 -->
      <g transform="translate(464.157353 233.322697) scale(0.1 -0.1)">
       <use xlink:href="#DejaVuSans-36"/>
       <use xlink:href="#DejaVuSans-30" x="63.623047"/>
      </g>
     </g>
    </g>
    <g id="ytick_19">
     <g id="line2d_46">
      <g>
       <use xlink:href="#mc6fd8c4f39" x="483.882353" y="141.871304" style="stroke: #000000; stroke-width: 0.8"/>
      </g>
     </g>
     <g id="text_40">
      <!-- 80 -->
      <g transform="translate(464.157353 145.670523) scale(0.1 -0.1)">
       <use xlink:href="#DejaVuSans-38"/>
       <use xlink:href="#DejaVuSans-30" x="63.623047"/>
      </g>
     </g>
    </g>
   </g>
   <g id="line2d_47">
    <path d="M 491.342246 492.48 
L 500.395514 492.48 
L 500.57658 488.097391 
L 501.844037 488.097391 
L 502.025103 483.714783 
L 640.540107 483.714783 
L 640.540107 483.714783 
" clip-path="url(#p5c3087a2ae)" style="fill: none; stroke: #0000ff; stroke-width: 1.5; stroke-linecap: square"/>
   </g>
   <g id="line2d_48">
    <path d="M 491.342246 492.48 
L 498.946991 492.48 
L 499.128057 488.097391 
L 499.671253 488.097391 
L 499.852318 474.949565 
L 501.119776 474.949565 
L 501.300841 470.566957 
L 502.568299 470.566957 
L 502.749364 453.036522 
L 503.29256 453.036522 
L 503.473625 435.506087 
L 504.016822 435.506087 
L 504.197887 426.74087 
L 504.741083 426.74087 
L 504.922148 409.210435 
L 505.465344 409.210435 
L 505.64641 396.062609 
L 509.086652 396.062609 
L 509.267717 391.68 
L 511.259436 391.68 
L 511.440502 387.297391 
L 513.432221 387.297391 
L 513.613286 378.532174 
L 514.156482 378.532174 
L 514.337547 374.149565 
L 514.880743 374.149565 
L 515.061809 369.766957 
L 516.329266 369.766957 
L 516.510332 352.236522 
L 517.053528 352.236522 
L 517.234593 330.323478 
L 517.777789 330.323478 
L 517.958855 325.94087 
L 518.502051 325.94087 
L 518.683116 312.793043 
L 519.226312 312.793043 
L 519.407378 286.497391 
L 519.950574 286.497391 
L 520.131639 268.966957 
L 527.91745 268.966957 
L 528.098515 264.584348 
L 530.090234 264.584348 
L 530.2713 260.201739 
L 530.814496 260.201739 
L 530.995561 255.81913 
L 531.538757 255.81913 
L 531.719822 251.436522 
L 532.98728 251.436522 
L 533.168345 247.053913 
L 535.884326 247.053913 
L 536.065391 242.671304 
L 536.608587 242.671304 
L 536.789653 229.523478 
L 537.332849 229.523478 
L 537.513914 216.375652 
L 538.05711 216.375652 
L 538.238176 194.462609 
L 538.781372 194.462609 
L 538.962437 172.549565 
L 539.505633 172.549565 
L 539.686699 159.401739 
L 540.229895 159.401739 
L 540.41096 141.871304 
L 540.954156 141.871304 
L 541.135221 119.958261 
L 541.678418 119.958261 
L 541.859483 111.193043 
L 542.402679 111.193043 
L 542.583744 102.427826 
L 544.575463 102.427826 
L 544.756529 98.045217 
L 545.299725 98.045217 
L 545.48079 89.28 
L 640.540107 89.28 
L 640.540107 89.28 
" clip-path="url(#p5c3087a2ae)" style="fill: none; stroke: #ff0000; stroke-width: 1.5; stroke-linecap: square"/>
   </g>
   <g id="line2d_49">
    <path d="M 491.342246 492.48 
L 498.946991 492.48 
L 499.128057 479.332174 
L 499.671253 479.332174 
L 499.852318 474.949565 
L 500.395514 474.949565 
L 500.57658 470.566957 
L 501.844037 470.566957 
L 502.025103 466.184348 
L 640.540107 466.184348 
L 640.540107 466.184348 
" clip-path="url(#p5c3087a2ae)" style="fill: none; stroke: #008000; stroke-width: 1.5; stroke-linecap: square"/>
   </g>
   <g id="patch_15">
    <path d="M 483.882353 512.64 
L 483.882353 69.12 
" style="fill: none; stroke: #000000; stroke-width: 0.8; stroke-linejoin: miter; stroke-linecap: square"/>
   </g>
   <g id="patch_16">
    <path d="M 648 512.64 
L 648 69.12 
" style="fill: none; stroke: #000000; stroke-width: 0.8; stroke-linejoin: miter; stroke-linecap: square"/>
   </g>
   <g id="patch_17">
    <path d="M 483.882353 512.64 
L 648 512.64 
" style="fill: none; stroke: #000000; stroke-width: 0.8; stroke-linejoin: miter; stroke-linecap: square"/>
   </g>
   <g id="patch_18">
    <path d="M 483.882353 69.12 
L 648 69.12 
" style="fill: none; stroke: #000000; stroke-width: 0.8; stroke-linejoin: miter; stroke-linecap: square"/>
   </g>
   <g id="legend_3">
    <g id="patch_19">
     <path d="M 551.1625 314.397188 
L 641 314.397188 
Q 643 314.397188 643 312.397188 
L 643 269.362813 
Q 643 267.362813 641 267.362813 
L 551.1625 267.362813 
Q 549.1625 267.362813 549.1625 269.362813 
L 549.1625 312.397188 
Q 549.1625 314.397188 551.1625 314.397188 
z
" style="fill: #ffffff; opacity: 0.8; stroke: #cccccc; stroke-linejoin: miter"/>
    </g>
    <g id="line2d_50">
     <path d="M 553.1625 275.46125 
L 563.1625 275.46125 
L 573.1625 275.46125 
" style="fill: none; stroke: #0000ff; stroke-width: 1.5; stroke-linecap: square"/>
    </g>
    <g id="text_41">
     <!-- O1 ensured -->
     <g transform="translate(581.1625 278.96125) scale(0.1 -0.1)">
      <defs>
       <path id="DejaVuSans-6e" d="M 3513 2113 
L 3513 0 
L 2938 0 
L 2938 2094 
Q 2938 2591 2744 2837 
Q 2550 3084 2163 3084 
Q 1697 3084 1428 2787 
Q 1159 2491 1159 1978 
L 1159 0 
L 581 0 
L 581 3500 
L 1159 3500 
L 1159 2956 
Q 1366 3272 1645 3428 
Q 1925 3584 2291 3584 
Q 2894 3584 3203 3211 
Q 3513 2838 3513 2113 
z
" transform="scale(0.015625)"/>
      </defs>
      <use xlink:href="#DejaVuSans-4f"/>
      <use xlink:href="#DejaVuSans-31" x="78.710938"/>
      <use xlink:href="#DejaVuSans-20" x="142.333984"/>
      <use xlink:href="#DejaVuSans-65" x="174.121094"/>
      <use xlink:href="#DejaVuSans-6e" x="235.644531"/>
      <use xlink:href="#DejaVuSans-73" x="299.023438"/>
      <use xlink:href="#DejaVuSans-75" x="351.123047"/>
      <use xlink:href="#DejaVuSans-72" x="414.501953"/>
      <use xlink:href="#DejaVuSans-65" x="453.365234"/>
      <use xlink:href="#DejaVuSans-64" x="514.888672"/>
     </g>
    </g>
    <g id="line2d_51">
     <path d="M 553.1625 290.139375 
L 563.1625 290.139375 
L 573.1625 290.139375 
" style="fill: none; stroke: #ff0000; stroke-width: 1.5; stroke-linecap: square"/>
    </g>
    <g id="text_42">
     <!-- O2 ensured -->
     <g transform="translate(581.1625 293.639375) scale(0.1 -0.1)">
      <use xlink:href="#DejaVuSans-4f"/>
      <use xlink:href="#DejaVuSans-32" x="78.710938"/>
      <use xlink:href="#DejaVuSans-20" x="142.333984"/>
      <use xlink:href="#DejaVuSans-65" x="174.121094"/>
      <use xlink:href="#DejaVuSans-6e" x="235.644531"/>
      <use xlink:href="#DejaVuSans-73" x="299.023438"/>
      <use xlink:href="#DejaVuSans-75" x="351.123047"/>
      <use xlink:href="#DejaVuSans-72" x="414.501953"/>
      <use xlink:href="#DejaVuSans-65" x="453.365234"/>
      <use xlink:href="#DejaVuSans-64" x="514.888672"/>
     </g>
    </g>
    <g id="line2d_52">
     <path d="M 553.1625 304.8175 
L 563.1625 304.8175 
L 573.1625 304.8175 
" style="fill: none; stroke: #008000; stroke-width: 1.5; stroke-linecap: square"/>
    </g>
    <g id="text_43">
     <!-- O3 ensured -->
     <g transform="translate(581.1625 308.3175) scale(0.1 -0.1)">
      <use xlink:href="#DejaVuSans-4f"/>
      <use xlink:href="#DejaVuSans-33" x="78.710938"/>
      <use xlink:href="#DejaVuSans-20" x="142.333984"/>
      <use xlink:href="#DejaVuSans-65" x="174.121094"/>
      <use xlink:href="#DejaVuSans-6e" x="235.644531"/>
      <use xlink:href="#DejaVuSans-73" x="299.023438"/>
      <use xlink:href="#DejaVuSans-75" x="351.123047"/>
      <use xlink:href="#DejaVuSans-72" x="414.501953"/>
      <use xlink:href="#DejaVuSans-65" x="453.365234"/>
      <use xlink:href="#DejaVuSans-64" x="514.888672"/>
     </g>
    </g>
   </g>
  </g>
 </g>
 <defs>
  <clipPath id="p8ecd3439d0">
   <rect x="90" y="69.12" width="164.117647" height="443.52"/>
  </clipPath>
  <clipPath id="p4788c56c05">
   <rect x="286.941176" y="69.12" width="164.117647" height="443.52"/>
  </clipPath>
  <clipPath id="p5c3087a2ae">
   <rect x="483.882353" y="69.12" width="164.117647" height="443.52"/>
  </clipPath>
 </defs>
</svg>
