<?xml version="1.0" encoding="utf-8" standalone="no"?>
<!DOCTYPE svg PUBLIC "-//W3C//DTD SVG 1.1//EN"
  "http://www.w3.org/Graphics/SVG/1.1/DTD/svg11.dtd">
<svg xmlns:xlink="http://www.w3.org/1999/xlink" width="720pt" height="576pt" viewBox="0 0 720 576" xmlns="http://www.w3.org/2000/svg" version="1.1">
 <metadata>
  <rdf:RDF xmlns:dc="http://purl.org/dc/elements/1.1/" xmlns:cc="http://creativecommons.org/ns#" xmlns:rdf="http://www.w3.org/1999/02/22-rdf-syntax-ns#">
   <cc:Work>
    <dc:type rdf:resource="http://purl.org/dc/dcmitype/StillImage"/>
    <dc:date>2023-05-31T19:27:39.649626</dc:date>
    <dc:format>image/svg+xml</dc:format>
    <dc:creator>
     <cc:Agent>
      <dc:title>Matplotlib v3.7.1, https://matplotlib.org/</dc:title>
     </cc:Agent>
    </dc:creator>
   </cc:Work>
  </rdf:RDF>
 </metadata>
 <defs>
  <style type="text/css">*{stroke-linejoin: round; stroke-linecap: butt}</style>
 </defs>
 <g id="figure_1">
  <g id="patch_1">
   <path d="M 0 576 
L 720 576 
L 720 0 
L 0 0 
z
" style="fill: #ffffff"/>
  </g>
  <g id="axes_1">
   <g id="patch_2">
    <path d="M 90 512.64 
L 254.117647 512.64 
L 254.117647 69.12 
L 90 69.12 
z
" style="fill: #ffffff"/>
   </g>
   <g id="matplotlib.axis_1">
    <g id="xtick_1">
     <g id="line2d_1">
      <defs>
       <path id="mc08049a170" d="M 0 0 
L 0 3.5 
" style="stroke: #000000; stroke-width: 0.8"/>
      </defs>
      <g>
       <use xlink:href="#mc08049a170" x="97.235197" y="512.64" style="stroke: #000000; stroke-width: 0.8"/>
      </g>
     </g>
     <g id="text_1">
      <!-- 0 -->
      <g transform="translate(94.053947 527.238438) scale(0.1 -0.1)">
       <defs>
        <path id="DejaVuSans-30" d="M 2034 4250 
Q 1547 4250 1301 3770 
Q 1056 3291 1056 2328 
Q 1056 1369 1301 889 
Q 1547 409 2034 409 
Q 2525 409 2770 889 
Q 3016 1369 3016 2328 
Q 3016 3291 2770 3770 
Q 2525 4250 2034 4250 
z
M 2034 4750 
Q 2819 4750 3233 4129 
Q 3647 3509 3647 2328 
Q 3647 1150 3233 529 
Q 2819 -91 2034 -91 
Q 1250 -91 836 529 
Q 422 1150 422 2328 
Q 422 3509 836 4129 
Q 1250 4750 2034 4750 
z
" transform="scale(0.015625)"/>
       </defs>
       <use xlink:href="#DejaVuSans-30"/>
      </g>
     </g>
    </g>
    <g id="xtick_2">
     <g id="line2d_2">
      <g>
       <use xlink:href="#mc08049a170" x="142.174312" y="512.64" style="stroke: #000000; stroke-width: 0.8"/>
      </g>
     </g>
     <g id="text_2">
      <!-- 200 -->
      <g transform="translate(132.630562 527.238438) scale(0.1 -0.1)">
       <defs>
        <path id="DejaVuSans-32" d="M 1228 531 
L 3431 531 
L 3431 0 
L 469 0 
L 469 531 
Q 828 903 1448 1529 
Q 2069 2156 2228 2338 
Q 2531 2678 2651 2914 
Q 2772 3150 2772 3378 
Q 2772 3750 2511 3984 
Q 2250 4219 1831 4219 
Q 1534 4219 1204 4116 
Q 875 4013 500 3803 
L 500 4441 
Q 881 4594 1212 4672 
Q 1544 4750 1819 4750 
Q 2544 4750 2975 4387 
Q 3406 4025 3406 3419 
Q 3406 3131 3298 2873 
Q 3191 2616 2906 2266 
Q 2828 2175 2409 1742 
Q 1991 1309 1228 531 
z
" transform="scale(0.015625)"/>
       </defs>
       <use xlink:href="#DejaVuSans-32"/>
       <use xlink:href="#DejaVuSans-30" x="63.623047"/>
       <use xlink:href="#DejaVuSans-30" x="127.246094"/>
      </g>
     </g>
    </g>
    <g id="xtick_3">
     <g id="line2d_3">
      <g>
       <use xlink:href="#mc08049a170" x="187.113427" y="512.64" style="stroke: #000000; stroke-width: 0.8"/>
      </g>
     </g>
     <g id="text_3">
      <!-- 400 -->
      <g transform="translate(177.569677 527.238438) scale(0.1 -0.1)">
       <defs>
        <path id="DejaVuSans-34" d="M 2419 4116 
L 825 1625 
L 2419 1625 
L 2419 4116 
z
M 2253 4666 
L 3047 4666 
L 3047 1625 
L 3713 1625 
L 3713 1100 
L 3047 1100 
L 3047 0 
L 2419 0 
L 2419 1100 
L 313 1100 
L 313 1709 
L 2253 4666 
z
" transform="scale(0.015625)"/>
       </defs>
       <use xlink:href="#DejaVuSans-34"/>
       <use xlink:href="#DejaVuSans-30" x="63.623047"/>
       <use xlink:href="#DejaVuSans-30" x="127.246094"/>
      </g>
     </g>
    </g>
    <g id="xtick_4">
     <g id="line2d_4">
      <g>
       <use xlink:href="#mc08049a170" x="232.052542" y="512.64" style="stroke: #000000; stroke-width: 0.8"/>
      </g>
     </g>
     <g id="text_4">
      <!-- 600 -->
      <g transform="translate(222.508792 527.238438) scale(0.1 -0.1)">
       <defs>
        <path id="DejaVuSans-36" d="M 2113 2584 
Q 1688 2584 1439 2293 
Q 1191 2003 1191 1497 
Q 1191 994 1439 701 
Q 1688 409 2113 409 
Q 2538 409 2786 701 
Q 3034 994 3034 1497 
Q 3034 2003 2786 2293 
Q 2538 2584 2113 2584 
z
M 3366 4563 
L 3366 3988 
Q 3128 4100 2886 4159 
Q 2644 4219 2406 4219 
Q 1781 4219 1451 3797 
Q 1122 3375 1075 2522 
Q 1259 2794 1537 2939 
Q 1816 3084 2150 3084 
Q 2853 3084 3261 2657 
Q 3669 2231 3669 1497 
Q 3669 778 3244 343 
Q 2819 -91 2113 -91 
Q 1303 -91 875 529 
Q 447 1150 447 2328 
Q 447 3434 972 4092 
Q 1497 4750 2381 4750 
Q 2619 4750 2861 4703 
Q 3103 4656 3366 4563 
z
" transform="scale(0.015625)"/>
       </defs>
       <use xlink:href="#DejaVuSans-36"/>
       <use xlink:href="#DejaVuSans-30" x="63.623047"/>
       <use xlink:href="#DejaVuSans-30" x="127.246094"/>
      </g>
     </g>
    </g>
   </g>
   <g id="matplotlib.axis_2">
    <g id="ytick_1">
     <g id="line2d_5">
      <defs>
       <path id="m59b959ffc9" d="M 0 0 
L -3.5 0 
" style="stroke: #000000; stroke-width: 0.8"/>
      </defs>
      <g>
       <use xlink:href="#m59b959ffc9" x="90" y="492.48" style="stroke: #000000; stroke-width: 0.8"/>
      </g>
     </g>
     <g id="text_5">
      <!-- 0.0 -->
      <g transform="translate(67.096875 496.279219) scale(0.1 -0.1)">
       <defs>
        <path id="DejaVuSans-2e" d="M 684 794 
L 1344 794 
L 1344 0 
L 684 0 
L 684 794 
z
" transform="scale(0.015625)"/>
       </defs>
       <use xlink:href="#DejaVuSans-30"/>
       <use xlink:href="#DejaVuSans-2e" x="63.623047"/>
       <use xlink:href="#DejaVuSans-30" x="95.410156"/>
      </g>
     </g>
    </g>
    <g id="ytick_2">
     <g id="line2d_6">
      <g>
       <use xlink:href="#m59b959ffc9" x="90" y="405.705578" style="stroke: #000000; stroke-width: 0.8"/>
      </g>
     </g>
     <g id="text_6">
      <!-- 0.1 -->
      <g transform="translate(67.096875 409.504796) scale(0.1 -0.1)">
       <defs>
        <path id="DejaVuSans-31" d="M 794 531 
L 1825 531 
L 1825 4091 
L 703 3866 
L 703 4441 
L 1819 4666 
L 2450 4666 
L 2450 531 
L 3481 531 
L 3481 0 
L 794 0 
L 794 531 
z
" transform="scale(0.015625)"/>
       </defs>
       <use xlink:href="#DejaVuSans-30"/>
       <use xlink:href="#DejaVuSans-2e" x="63.623047"/>
       <use xlink:href="#DejaVuSans-31" x="95.410156"/>
      </g>
     </g>
    </g>
    <g id="ytick_3">
     <g id="line2d_7">
      <g>
       <use xlink:href="#m59b959ffc9" x="90" y="318.931155" style="stroke: #000000; stroke-width: 0.8"/>
      </g>
     </g>
     <g id="text_7">
      <!-- 0.2 -->
      <g transform="translate(67.096875 322.730374) scale(0.1 -0.1)">
       <use xlink:href="#DejaVuSans-30"/>
       <use xlink:href="#DejaVuSans-2e" x="63.623047"/>
       <use xlink:href="#DejaVuSans-32" x="95.410156"/>
      </g>
     </g>
    </g>
    <g id="ytick_4">
     <g id="line2d_8">
      <g>
       <use xlink:href="#m59b959ffc9" x="90" y="232.156733" style="stroke: #000000; stroke-width: 0.8"/>
      </g>
     </g>
     <g id="text_8">
      <!-- 0.3 -->
      <g transform="translate(67.096875 235.955951) scale(0.1 -0.1)">
       <defs>
        <path id="DejaVuSans-33" d="M 2597 2516 
Q 3050 2419 3304 2112 
Q 3559 1806 3559 1356 
Q 3559 666 3084 287 
Q 2609 -91 1734 -91 
Q 1441 -91 1130 -33 
Q 819 25 488 141 
L 488 750 
Q 750 597 1062 519 
Q 1375 441 1716 441 
Q 2309 441 2620 675 
Q 2931 909 2931 1356 
Q 2931 1769 2642 2001 
Q 2353 2234 1838 2234 
L 1294 2234 
L 1294 2753 
L 1863 2753 
Q 2328 2753 2575 2939 
Q 2822 3125 2822 3475 
Q 2822 3834 2567 4026 
Q 2313 4219 1838 4219 
Q 1578 4219 1281 4162 
Q 984 4106 628 3988 
L 628 4550 
Q 988 4650 1302 4700 
Q 1616 4750 1894 4750 
Q 2613 4750 3031 4423 
Q 3450 4097 3450 3541 
Q 3450 3153 3228 2886 
Q 3006 2619 2597 2516 
z
" transform="scale(0.015625)"/>
       </defs>
       <use xlink:href="#DejaVuSans-30"/>
       <use xlink:href="#DejaVuSans-2e" x="63.623047"/>
       <use xlink:href="#DejaVuSans-33" x="95.410156"/>
      </g>
     </g>
    </g>
    <g id="ytick_5">
     <g id="line2d_9">
      <g>
       <use xlink:href="#m59b959ffc9" x="90" y="145.38231" style="stroke: #000000; stroke-width: 0.8"/>
      </g>
     </g>
     <g id="text_9">
      <!-- 0.4 -->
      <g transform="translate(67.096875 149.181529) scale(0.1 -0.1)">
       <use xlink:href="#DejaVuSans-30"/>
       <use xlink:href="#DejaVuSans-2e" x="63.623047"/>
       <use xlink:href="#DejaVuSans-34" x="95.410156"/>
      </g>
     </g>
    </g>
   </g>
   <g id="line2d_10">
    <path d="M 97.459893 492.48 
L 108.694672 492.48 
L 108.919367 434.630385 
L 110.492236 434.630385 
L 110.716932 423.060462 
L 111.391019 423.060462 
L 111.615714 423.505459 
L 112.289801 423.505459 
L 112.514496 440.03392 
L 113.188583 440.03392 
L 113.413279 445.611099 
L 114.087366 445.611099 
L 114.312061 450.011037 
L 114.986148 450.011037 
L 115.210843 450.367253 
L 115.88493 450.367253 
L 116.109626 451.302323 
L 116.783712 451.302323 
L 117.008408 451.576232 
L 118.581277 451.576232 
L 118.805973 451.834029 
L 120.378842 451.834029 
L 120.603537 452.306656 
L 122.176406 452.306656 
L 122.401102 452.523809 
L 123.973971 452.523809 
L 124.198666 452.729534 
L 124.872753 452.729534 
L 125.097449 452.924708 
L 126.670318 452.924708 
L 126.895013 453.286494 
L 127.5691 453.286494 
L 127.793796 453.614626 
L 128.467882 453.614626 
L 128.692578 456.828493 
L 129.366665 456.828493 
L 129.59136 459.610901 
L 130.265447 459.610901 
L 130.490142 459.756985 
L 131.164229 459.756985 
L 131.388925 462.087992 
L 132.063011 462.087992 
L 132.287707 464.075934 
L 132.961794 464.075934 
L 133.186489 464.204147 
L 133.860576 464.204147 
L 134.085272 464.445187 
L 134.759358 464.445187 
L 135.208749 464.558617 
L 135.658141 464.558617 
L 135.882836 464.873702 
L 136.556923 464.873702 
L 136.781618 468.031651 
L 138.354487 468.122267 
L 138.579183 468.294285 
L 140.152052 468.375994 
L 140.376748 468.531503 
L 141.050834 468.531503 
L 141.27553 468.677294 
L 141.949617 468.677294 
L 142.174312 470.019449 
L 142.848399 470.019449 
L 143.073095 470.209994 
L 143.747181 470.209994 
L 144.196572 470.328079 
L 144.645964 470.328079 
L 144.870659 472.336746 
L 145.544746 472.336746 
L 145.769441 473.239083 
L 149.139875 473.239083 
L 149.364571 474.000262 
L 151.836222 474.108838 
L 152.285613 474.211701 
L 152.735004 474.211701 
L 152.9597 474.949814 
L 154.532569 474.949814 
L 154.757264 476.195688 
L 155.431351 476.195688 
L 155.656047 476.766629 
L 157.228916 476.766629 
L 157.453611 477.294476 
L 160.824045 477.382661 
L 161.04874 478.239693 
L 161.722827 478.239693 
L 161.947523 478.622296 
L 162.621609 478.622296 
L 162.846305 479.310982 
L 165.317956 479.394968 
L 165.542652 480.038079 
L 166.216739 480.038079 
L 166.441434 480.351557 
L 167.115521 480.351557 
L 167.340216 481.001902 
L 168.014303 481.001902 
L 168.238999 481.266781 
L 168.913085 481.266781 
L 169.137781 481.689658 
L 170.71065 481.791101 
L 170.935346 482.081444 
L 172.508215 482.081444 
L 172.73291 482.266859 
L 176.103344 482.3271 
L 176.328039 482.561327 
L 177.002126 482.561327 
L 177.226822 482.945067 
L 178.799691 482.972069 
L 179.024386 483.488745 
L 179.698473 483.488745 
L 179.923169 483.647563 
L 180.597255 483.647563 
L 180.821951 483.871426 
L 182.39482 483.871426 
L 182.619515 484.112466 
L 185.091167 484.157775 
L 185.315862 484.293268 
L 185.989949 484.293268 
L 186.214645 484.424019 
L 186.888731 484.424019 
L 187.113427 484.651348 
L 187.787514 484.651348 
L 188.012209 484.84265 
L 190.483861 484.904455 
L 190.933252 484.963245 
L 192.281425 484.98221 
L 192.730816 485.091488 
L 193.180207 485.091488 
L 193.404903 485.263506 
L 195.876554 485.363579 
L 196.775337 485.399448 
L 201.718639 485.687884 
L 203.066813 485.761937 
L 203.516204 485.849199 
L 203.965595 485.849199 
L 204.190291 486.016532 
L 205.76316 486.046049 
L 205.987855 486.203638 
L 206.661942 486.203638 
L 206.886637 486.411269 
L 207.560724 486.411269 
L 207.78542 486.590091 
L 208.459506 486.590091 
L 208.684202 486.804017 
L 211.155853 486.868743 
L 211.82994 486.915684 
L 212.953418 486.986165 
L 213.402809 487.086468 
L 214.750983 487.182416 
L 215.425069 487.222927 
L 215.649765 487.222927 
L 216.099156 487.350746 
L 217.447329 487.399338 
L 217.672025 487.606321 
L 218.346112 487.606321 
L 218.570807 487.753961 
L 219.244894 487.753961 
L 219.46959 487.918748 
L 221.042459 488.008786 
L 221.716545 488.059319 
L 222.840023 488.165404 
L 223.289414 488.231209 
L 224.637588 488.296267 
L 225.086979 488.358072 
L 227.333935 488.464556 
L 227.783326 488.563506 
L 230.929064 488.655747 
L 231.603151 488.712045 
L 232.726628 488.808872 
L 233.17602 488.878252 
L 234.524193 488.944746 
L 234.973584 489.00371 
L 237.22054 489.102838 
L 237.669931 489.163478 
L 239.916887 489.239987 
L 241.040365 489.322157 
L 244.410798 489.416086 
L 245.084885 489.465691 
L 246.208363 489.512651 
L 246.657754 489.580252 
L 246.657754 489.580252 
" clip-path="url(#pb77f7e04eb)" style="fill: none; stroke: #0000ff; stroke-width: 1.5; stroke-linecap: square"/>
   </g>
   <g id="line2d_11">
    <path d="M 97.459893 492.48 
L 106.897107 492.48 
L 107.121803 481.355074 
L 107.795889 481.355074 
L 108.020585 440.828558 
L 108.694672 440.828558 
L 108.919367 441.897209 
L 109.593454 441.897209 
L 109.81815 428.5286 
L 110.492236 428.5286 
L 110.716932 429.526007 
L 111.391019 429.526007 
L 111.615714 355.406188 
L 112.289801 355.406188 
L 112.514496 300.109271 
L 113.188583 300.109271 
L 113.413279 277.320029 
L 114.087366 277.320029 
L 114.312061 247.634042 
L 114.986148 247.634042 
L 115.210843 232.039152 
L 115.88493 232.039152 
L 116.109626 234.22279 
L 116.783712 234.22279 
L 117.008408 239.748293 
L 117.682495 239.748293 
L 117.90719 244.866118 
L 118.581277 244.866118 
L 118.805973 254.059938 
L 119.480059 254.059938 
L 119.704755 239.226704 
L 122.176406 239.226704 
L 122.401102 228.251737 
L 124.872753 228.251737 
L 125.097449 214.73298 
L 125.771535 214.73298 
L 125.996231 214.542267 
L 126.670318 214.542267 
L 126.895013 206.713615 
L 127.5691 206.713615 
L 127.793796 213.944817 
L 128.467882 213.944817 
L 128.692578 197.829303 
L 129.366665 197.829303 
L 129.59136 177.155773 
L 130.265447 177.155773 
L 130.490142 177.315857 
L 131.164229 177.315857 
L 131.388925 165.210281 
L 132.063011 165.210281 
L 132.287707 143.262459 
L 132.961794 143.262459 
L 133.186489 130.843948 
L 133.860576 130.843948 
L 134.085272 139.958909 
L 134.759358 139.958909 
L 134.984054 154.943733 
L 135.658141 154.943733 
L 135.882836 156.966447 
L 136.556923 156.966447 
L 136.781618 162.97992 
L 137.455705 162.97992 
L 137.680401 170.926296 
L 138.354487 170.926296 
L 138.579183 178.925364 
L 139.25327 178.925364 
L 139.477965 182.571348 
L 140.152052 182.571348 
L 140.376748 184.317313 
L 141.050834 184.317313 
L 141.27553 192.173639 
L 141.949617 192.173639 
L 142.174312 198.860756 
L 142.848399 198.860756 
L 143.073095 196.567618 
L 143.747181 196.567618 
L 143.971877 198.860811 
L 144.645964 198.860811 
L 144.870659 203.148085 
L 145.544746 203.148085 
L 145.769441 206.066103 
L 146.443528 206.066103 
L 146.668224 207.659192 
L 147.34231 207.659192 
L 147.567006 207.311065 
L 148.241093 207.311065 
L 148.465788 210.203545 
L 149.139875 210.203545 
L 149.364571 208.138158 
L 150.93744 208.138158 
L 151.162135 210.808141 
L 152.735004 210.808141 
L 152.9597 208.794388 
L 153.633786 208.794388 
L 153.858482 196.673545 
L 154.532569 196.673545 
L 154.757264 183.181453 
L 155.431351 183.181453 
L 155.656047 169.00717 
L 156.330133 169.00717 
L 156.554829 156.640256 
L 157.228916 156.640256 
L 157.453611 140.233211 
L 158.127698 140.233211 
L 158.352394 118.906164 
L 159.02648 118.906164 
L 159.251176 99.161821 
L 159.925263 99.161821 
L 160.149958 92.086759 
L 160.824045 92.086759 
L 161.04874 89.28 
L 161.722827 89.28 
L 161.947523 92.357107 
L 162.621609 92.357107 
L 162.846305 96.734847 
L 163.520392 96.734847 
L 163.745087 94.426224 
L 164.419174 94.426224 
L 164.64387 90.171803 
L 165.317956 90.171803 
L 165.542652 93.699218 
L 166.216739 93.699218 
L 166.441434 97.058661 
L 167.115521 97.058661 
L 167.340216 100.261852 
L 168.014303 100.261852 
L 168.238999 103.594318 
L 168.913085 103.594318 
L 169.137781 105.519676 
L 169.811868 105.519676 
L 170.036563 109.894634 
L 171.609432 109.894634 
L 171.834128 111.186171 
L 172.508215 111.186171 
L 172.73291 112.452629 
L 173.406997 112.452629 
L 173.631693 116.61643 
L 174.305779 116.61643 
L 174.530475 124.500742 
L 175.204562 124.500742 
L 175.429257 136.7319 
L 176.103344 136.7319 
L 176.328039 148.026933 
L 177.002126 148.026933 
L 177.226822 155.745744 
L 177.900908 155.745744 
L 178.125604 163.995113 
L 178.799691 163.995113 
L 179.024386 167.557281 
L 179.698473 167.557281 
L 179.923169 175.473211 
L 180.597255 175.473211 
L 180.821951 176.50608 
L 181.496038 176.50608 
L 181.720733 180.462491 
L 182.39482 180.462491 
L 182.619515 185.672635 
L 183.293602 185.672635 
L 183.518298 194.017439 
L 184.192385 194.017439 
L 184.41708 201.384579 
L 185.091167 201.384579 
L 185.315862 205.01384 
L 185.989949 205.01384 
L 186.214645 207.770452 
L 186.888731 207.770452 
L 187.113427 211.799592 
L 187.787514 211.799592 
L 188.012209 212.513708 
L 188.686296 212.513708 
L 188.910992 216.985388 
L 189.585078 216.985388 
L 189.809774 221.20479 
L 190.483861 221.20479 
L 190.708556 223.760269 
L 191.382643 223.760269 
L 191.607338 225.588784 
L 192.281425 225.588784 
L 192.506121 229.559311 
L 193.180207 229.559311 
L 193.404903 231.713235 
L 194.07899 231.713235 
L 194.303685 233.812917 
L 194.977772 233.812917 
L 195.202468 235.464201 
L 195.876554 235.464201 
L 196.10125 237.772272 
L 197.674119 237.772272 
L 197.898815 240.202484 
L 198.572901 240.202484 
L 198.797597 245.315591 
L 199.471684 245.315591 
L 199.696379 249.272744 
L 200.370466 249.272744 
L 200.595161 251.667254 
L 201.269248 251.667254 
L 201.493944 257.150248 
L 202.16803 257.150248 
L 202.392726 261.242456 
L 203.066813 261.242456 
L 203.291508 263.325241 
L 203.965595 263.325241 
L 204.190291 265.5151 
L 204.864377 265.5151 
L 205.089073 270.65361 
L 205.76316 270.65361 
L 205.987855 272.612192 
L 206.661942 272.612192 
L 206.886637 274.069627 
L 207.560724 274.069627 
L 207.78542 275.980215 
L 208.459506 275.980215 
L 208.684202 277.139837 
L 209.358289 277.139837 
L 209.582984 279.656653 
L 210.257071 279.656653 
L 210.481767 280.816414 
L 211.155853 280.816414 
L 211.380549 281.95748 
L 212.054636 281.95748 
L 212.279331 282.404631 
L 212.953418 282.404631 
L 213.178114 283.728135 
L 213.8522 283.728135 
L 214.076896 285.425699 
L 214.750983 285.425699 
L 214.975678 287.214862 
L 216.548547 287.214862 
L 216.773243 290.308801 
L 217.447329 290.308801 
L 217.672025 293.218359 
L 218.346112 293.218359 
L 218.570807 296.940556 
L 219.244894 296.940556 
L 219.46959 298.548501 
L 220.143676 298.548501 
L 220.368372 301.612706 
L 221.042459 301.612706 
L 221.267154 305.367778 
L 221.941241 305.367778 
L 222.165936 307.736163 
L 222.840023 307.736163 
L 223.064719 311.116306 
L 223.738805 311.116306 
L 223.963501 314.81534 
L 224.637588 314.81534 
L 224.862283 317.447442 
L 225.53637 317.447442 
L 225.761066 319.88871 
L 226.435152 319.88871 
L 226.659848 322.387343 
L 227.333935 322.387343 
L 227.55863 324.704739 
L 228.232717 324.704739 
L 228.457413 326.281585 
L 229.131499 326.281585 
L 229.356195 327.983073 
L 230.030282 327.983073 
L 230.254977 330.515188 
L 230.929064 330.515188 
L 231.153759 331.865143 
L 231.827846 331.865143 
L 232.052542 334.110168 
L 232.726628 334.110168 
L 232.951324 334.728792 
L 233.625411 334.728792 
L 233.850106 335.762378 
L 234.524193 335.762378 
L 234.748889 336.984086 
L 235.422975 336.984086 
L 235.647671 338.111237 
L 236.321758 338.111237 
L 236.546453 339.467156 
L 237.22054 339.467156 
L 237.445235 340.134333 
L 238.119322 340.134333 
L 238.344018 341.037024 
L 239.018105 341.037024 
L 239.2428 342.10233 
L 239.916887 342.10233 
L 240.141582 343.59176 
L 240.815669 343.59176 
L 241.040365 344.377664 
L 241.714451 344.377664 
L 241.939147 344.934855 
L 242.613234 344.934855 
L 242.837929 345.484661 
L 243.512016 345.484661 
L 243.736712 345.9482 
L 244.410798 345.9482 
L 244.635494 346.397692 
L 245.309581 346.397692 
L 245.534276 348.413941 
L 246.208363 348.413941 
L 246.433058 349.430278 
L 246.657754 349.430278 
L 246.657754 349.430278 
" clip-path="url(#pb77f7e04eb)" style="fill: none; stroke: #ff0000; stroke-width: 1.5; stroke-linecap: square"/>
   </g>
   <g id="line2d_12">
    <path d="M 97.459893 492.48 
L 106.897107 492.48 
L 107.121803 394.61411 
L 107.795889 394.61411 
L 108.020585 380.912885 
L 108.694672 380.912885 
L 108.919367 368.516539 
L 109.593454 368.516539 
L 109.81815 378.846828 
L 110.492236 378.846828 
L 110.716932 377.898637 
L 111.391019 377.898637 
L 111.615714 379.994638 
L 112.289801 379.994638 
L 112.514496 381.922958 
L 113.188583 381.922958 
L 113.413279 388.350693 
L 114.087366 388.350693 
L 114.312061 390.130681 
L 114.986148 390.130681 
L 115.210843 391.778818 
L 115.88493 391.778818 
L 116.109626 399.993155 
L 117.682495 399.993155 
L 117.90719 402.567109 
L 119.480059 402.567109 
L 119.704755 408.115978 
L 120.378842 408.115978 
L 120.603537 411.824287 
L 121.277624 411.824287 
L 121.502319 416.098474 
L 123.075188 416.098474 
L 123.299884 418.101924 
L 123.973971 418.101924 
L 124.198666 419.020171 
L 125.771535 419.020171 
L 125.996231 419.888784 
L 126.670318 419.888784 
L 126.895013 424.247121 
L 127.5691 424.247121 
L 127.793796 425.694266 
L 128.467882 425.694266 
L 128.692578 426.366154 
L 129.366665 426.366154 
L 129.59136 427.006792 
L 130.265447 427.006792 
L 130.490142 429.296733 
L 131.164229 429.296733 
L 131.388925 430.301502 
L 132.063011 430.301502 
L 132.287707 430.773744 
L 132.961794 430.773744 
L 133.186489 432.083547 
L 133.860576 432.083547 
L 134.085272 435.287767 
L 134.759358 435.287767 
L 134.984054 437.790238 
L 136.556923 437.790238 
L 136.781618 439.680748 
L 137.455705 439.680748 
L 137.680401 442.894616 
L 138.354487 442.894616 
L 138.579183 443.257082 
L 139.25327 443.257082 
L 139.477965 445.322525 
L 140.152052 445.322525 
L 140.376748 445.649359 
L 141.949617 445.649359 
L 142.174312 445.965477 
L 142.848399 445.965477 
L 143.073095 446.271398 
L 143.747181 446.271398 
L 143.971877 446.567607 
L 146.443528 446.567607 
L 146.668224 447.819763 
L 147.34231 447.819763 
L 147.567006 448.106716 
L 148.241093 448.106716 
L 148.465788 449.797807 
L 149.139875 449.797807 
L 149.364571 450.313401 
L 150.038657 450.313401 
L 150.263353 450.559989 
L 152.735004 450.559989 
L 152.9597 451.032327 
L 153.633786 451.032327 
L 153.858482 452.94943 
L 154.532569 452.94943 
L 154.757264 453.152411 
L 155.431351 453.152411 
L 155.656047 453.35012 
L 156.330133 453.35012 
L 156.554829 454.31428 
L 157.228916 454.31428 
L 157.453611 455.396913 
L 158.127698 455.396913 
L 158.352394 456.986189 
L 159.02648 456.986189 
L 159.251176 457.886385 
L 159.925263 457.886385 
L 160.149958 458.912939 
L 160.824045 458.912939 
L 161.04874 459.087133 
L 161.722827 459.087133 
L 161.947523 459.879168 
L 163.520392 459.879168 
L 163.745087 460.462329 
L 164.419174 460.462329 
L 164.64387 461.525741 
L 165.317956 461.525741 
L 165.542652 462.636945 
L 166.216739 462.636945 
L 166.441434 463.482699 
L 168.014303 463.482699 
L 168.238999 464.243878 
L 168.913085 464.243878 
L 169.137781 464.405922 
L 169.811868 464.405922 
L 170.036563 464.564197 
L 170.71065 464.564197 
L 170.935346 465.071576 
L 172.508215 465.071576 
L 172.73291 465.40752 
L 173.406997 465.40752 
L 173.631693 465.878961 
L 174.305779 465.878961 
L 174.530475 466.18472 
L 175.204562 466.18472 
L 175.429257 467.674043 
L 176.103344 467.674043 
L 176.328039 467.910164 
L 177.002126 467.910164 
L 177.226822 468.640873 
L 177.900908 468.640873 
L 178.125604 468.850777 
L 178.799691 468.850777 
L 179.024386 469.191105 
L 179.698473 469.191105 
L 179.923169 469.708934 
L 180.597255 469.708934 
L 180.821951 470.453925 
L 181.496038 470.453925 
L 181.720733 471.343373 
L 182.39482 471.343373 
L 182.619515 471.754207 
L 183.293602 471.754207 
L 183.742993 471.871075 
L 184.192385 471.871075 
L 184.641776 471.985628 
L 185.091167 471.985628 
L 185.315862 472.236997 
L 185.989949 472.236997 
L 186.214645 472.561085 
L 186.888731 472.561085 
L 187.113427 472.695933 
L 187.787514 472.695933 
L 188.012209 472.901895 
L 189.585078 472.901895 
L 189.809774 473.032717 
L 191.382643 473.132837 
L 191.607338 473.327617 
L 194.07899 473.327617 
L 194.528381 473.454592 
L 194.977772 473.454592 
L 195.202468 473.672644 
L 196.775337 473.672644 
L 197.000032 473.857128 
L 197.674119 473.857128 
L 197.898815 474.035195 
L 198.572901 474.035195 
L 198.797597 474.722707 
L 199.471684 474.722707 
L 199.696379 475.020882 
L 200.370466 475.020882 
L 200.595161 475.51078 
L 201.269248 475.51078 
L 201.493944 475.797785 
L 202.16803 475.797785 
L 202.392726 476.09445 
L 203.066813 476.09445 
L 203.291508 476.416796 
L 203.965595 476.416796 
L 204.190291 476.678485 
L 204.864377 476.678485 
L 205.089073 476.892873 
L 205.76316 476.892873 
L 205.987855 477.064968 
L 207.560724 477.126165 
L 207.78542 477.387522 
L 209.358289 477.445308 
L 209.582984 477.694906 
L 210.257071 477.694906 
L 210.481767 477.906014 
L 211.155853 477.906014 
L 211.380549 478.234749 
L 212.054636 478.234749 
L 212.279331 478.390064 
L 212.953418 478.390064 
L 213.178114 478.580207 
L 214.750983 478.64782 
L 214.975678 478.795145 
L 216.548547 478.861319 
L 216.773243 479.037381 
L 217.447329 479.037381 
L 217.672025 479.313868 
L 218.346112 479.313868 
L 218.570807 479.540796 
L 219.244894 479.540796 
L 219.46959 480.037121 
L 220.143676 480.037121 
L 220.368372 480.218637 
L 221.042459 480.218637 
L 221.267154 480.48089 
L 222.840023 480.523131 
L 223.064719 480.731101 
L 223.738805 480.731101 
L 224.188197 480.848682 
L 224.637588 480.848682 
L 224.862283 481.210594 
L 225.53637 481.210594 
L 225.761066 481.348735 
L 226.435152 481.348735 
L 226.659848 481.521962 
L 227.333935 481.521962 
L 227.55863 481.679384 
L 228.232717 481.679384 
L 228.457413 481.829881 
L 229.131499 481.829881 
L 229.356195 482.011974 
L 230.030282 482.011974 
L 230.254977 482.160307 
L 230.929064 482.160307 
L 231.153759 482.313036 
L 232.726628 482.335216 
L 233.17602 482.458404 
L 236.321758 482.560302 
L 236.771149 482.636135 
L 238.119322 482.693133 
L 238.568713 482.766176 
L 241.714451 482.856154 
L 242.163843 482.926596 
L 245.309581 483.029337 
L 245.758972 483.094124 
L 246.657754 483.109899 
L 246.657754 483.109899 
" clip-path="url(#pb77f7e04eb)" style="fill: none; stroke: #008000; stroke-width: 1.5; stroke-linecap: square"/>
   </g>
   <g id="patch_3">
    <path d="M 90 512.64 
L 90 69.12 
" style="fill: none; stroke: #000000; stroke-width: 0.8; stroke-linejoin: miter; stroke-linecap: square"/>
   </g>
   <g id="patch_4">
    <path d="M 254.117647 512.64 
L 254.117647 69.12 
" style="fill: none; stroke: #000000; stroke-width: 0.8; stroke-linejoin: miter; stroke-linecap: square"/>
   </g>
   <g id="patch_5">
    <path d="M 90 512.64 
L 254.117647 512.64 
" style="fill: none; stroke: #000000; stroke-width: 0.8; stroke-linejoin: miter; stroke-linecap: square"/>
   </g>
   <g id="patch_6">
    <path d="M 90 69.12 
L 254.117647 69.12 
" style="fill: none; stroke: #000000; stroke-width: 0.8; stroke-linejoin: miter; stroke-linecap: square"/>
   </g>
   <g id="legend_1">
    <g id="patch_7">
     <path d="M 97 314.397188 
L 174.84375 314.397188 
Q 176.84375 314.397188 176.84375 312.397188 
L 176.84375 269.362813 
Q 176.84375 267.362813 174.84375 267.362813 
L 97 267.362813 
Q 95 267.362813 95 269.362813 
L 95 312.397188 
Q 95 314.397188 97 314.397188 
z
" style="fill: #ffffff; opacity: 0.8; stroke: #cccccc; stroke-linejoin: miter"/>
    </g>
    <g id="line2d_13">
     <path d="M 99 275.46125 
L 109 275.46125 
L 119 275.46125 
" style="fill: none; stroke: #0000ff; stroke-width: 1.5; stroke-linecap: square"/>
    </g>
    <g id="text_10">
     <!-- O1 utility -->
     <g transform="translate(127 278.96125) scale(0.1 -0.1)">
      <defs>
       <path id="DejaVuSans-4f" d="M 2522 4238 
Q 1834 4238 1429 3725 
Q 1025 3213 1025 2328 
Q 1025 1447 1429 934 
Q 1834 422 2522 422 
Q 3209 422 3611 934 
Q 4013 1447 4013 2328 
Q 4013 3213 3611 3725 
Q 3209 4238 2522 4238 
z
M 2522 4750 
Q 3503 4750 4090 4092 
Q 4678 3434 4678 2328 
Q 4678 1225 4090 567 
Q 3503 -91 2522 -91 
Q 1538 -91 948 565 
Q 359 1222 359 2328 
Q 359 3434 948 4092 
Q 1538 4750 2522 4750 
z
" transform="scale(0.015625)"/>
       <path id="DejaVuSans-20" transform="scale(0.015625)"/>
       <path id="DejaVuSans-75" d="M 544 1381 
L 544 3500 
L 1119 3500 
L 1119 1403 
Q 1119 906 1312 657 
Q 1506 409 1894 409 
Q 2359 409 2629 706 
Q 2900 1003 2900 1516 
L 2900 3500 
L 3475 3500 
L 3475 0 
L 2900 0 
L 2900 538 
Q 2691 219 2414 64 
Q 2138 -91 1772 -91 
Q 1169 -91 856 284 
Q 544 659 544 1381 
z
M 1991 3584 
L 1991 3584 
z
" transform="scale(0.015625)"/>
       <path id="DejaVuSans-74" d="M 1172 4494 
L 1172 3500 
L 2356 3500 
L 2356 3053 
L 1172 3053 
L 1172 1153 
Q 1172 725 1289 603 
Q 1406 481 1766 481 
L 2356 481 
L 2356 0 
L 1766 0 
Q 1100 0 847 248 
Q 594 497 594 1153 
L 594 3053 
L 172 3053 
L 172 3500 
L 594 3500 
L 594 4494 
L 1172 4494 
z
" transform="scale(0.015625)"/>
       <path id="DejaVuSans-69" d="M 603 3500 
L 1178 3500 
L 1178 0 
L 603 0 
L 603 3500 
z
M 603 4863 
L 1178 4863 
L 1178 4134 
L 603 4134 
L 603 4863 
z
" transform="scale(0.015625)"/>
       <path id="DejaVuSans-6c" d="M 603 4863 
L 1178 4863 
L 1178 0 
L 603 0 
L 603 4863 
z
" transform="scale(0.015625)"/>
       <path id="DejaVuSans-79" d="M 2059 -325 
Q 1816 -950 1584 -1140 
Q 1353 -1331 966 -1331 
L 506 -1331 
L 506 -850 
L 844 -850 
Q 1081 -850 1212 -737 
Q 1344 -625 1503 -206 
L 1606 56 
L 191 3500 
L 800 3500 
L 1894 763 
L 2988 3500 
L 3597 3500 
L 2059 -325 
z
" transform="scale(0.015625)"/>
      </defs>
      <use xlink:href="#DejaVuSans-4f"/>
      <use xlink:href="#DejaVuSans-31" x="78.710938"/>
      <use xlink:href="#DejaVuSans-20" x="142.333984"/>
      <use xlink:href="#DejaVuSans-75" x="174.121094"/>
      <use xlink:href="#DejaVuSans-74" x="237.5"/>
      <use xlink:href="#DejaVuSans-69" x="276.708984"/>
      <use xlink:href="#DejaVuSans-6c" x="304.492188"/>
      <use xlink:href="#DejaVuSans-69" x="332.275391"/>
      <use xlink:href="#DejaVuSans-74" x="360.058594"/>
      <use xlink:href="#DejaVuSans-79" x="399.267578"/>
     </g>
    </g>
    <g id="line2d_14">
     <path d="M 99 290.139375 
L 109 290.139375 
L 119 290.139375 
" style="fill: none; stroke: #ff0000; stroke-width: 1.5; stroke-linecap: square"/>
    </g>
    <g id="text_11">
     <!-- O2 utility -->
     <g transform="translate(127 293.639375) scale(0.1 -0.1)">
      <use xlink:href="#DejaVuSans-4f"/>
      <use xlink:href="#DejaVuSans-32" x="78.710938"/>
      <use xlink:href="#DejaVuSans-20" x="142.333984"/>
      <use xlink:href="#DejaVuSans-75" x="174.121094"/>
      <use xlink:href="#DejaVuSans-74" x="237.5"/>
      <use xlink:href="#DejaVuSans-69" x="276.708984"/>
      <use xlink:href="#DejaVuSans-6c" x="304.492188"/>
      <use xlink:href="#DejaVuSans-69" x="332.275391"/>
      <use xlink:href="#DejaVuSans-74" x="360.058594"/>
      <use xlink:href="#DejaVuSans-79" x="399.267578"/>
     </g>
    </g>
    <g id="line2d_15">
     <path d="M 99 304.8175 
L 109 304.8175 
L 119 304.8175 
" style="fill: none; stroke: #008000; stroke-width: 1.5; stroke-linecap: square"/>
    </g>
    <g id="text_12">
     <!-- O3 utility -->
     <g transform="translate(127 308.3175) scale(0.1 -0.1)">
      <use xlink:href="#DejaVuSans-4f"/>
      <use xlink:href="#DejaVuSans-33" x="78.710938"/>
      <use xlink:href="#DejaVuSans-20" x="142.333984"/>
      <use xlink:href="#DejaVuSans-75" x="174.121094"/>
      <use xlink:href="#DejaVuSans-74" x="237.5"/>
      <use xlink:href="#DejaVuSans-69" x="276.708984"/>
      <use xlink:href="#DejaVuSans-6c" x="304.492188"/>
      <use xlink:href="#DejaVuSans-69" x="332.275391"/>
      <use xlink:href="#DejaVuSans-74" x="360.058594"/>
      <use xlink:href="#DejaVuSans-79" x="399.267578"/>
     </g>
    </g>
   </g>
  </g>
  <g id="axes_2">
   <g id="patch_8">
    <path d="M 286.941176 512.64 
L 451.058824 512.64 
L 451.058824 69.12 
L 286.941176 69.12 
z
" style="fill: #ffffff"/>
   </g>
   <g id="matplotlib.axis_3">
    <g id="xtick_5">
     <g id="line2d_16">
      <g>
       <use xlink:href="#mc08049a170" x="294.176374" y="512.64" style="stroke: #000000; stroke-width: 0.8"/>
      </g>
     </g>
     <g id="text_13">
      <!-- 0 -->
      <g transform="translate(290.995124 527.238438) scale(0.1 -0.1)">
       <use xlink:href="#DejaVuSans-30"/>
      </g>
     </g>
    </g>
    <g id="xtick_6">
     <g id="line2d_17">
      <g>
       <use xlink:href="#mc08049a170" x="339.115489" y="512.64" style="stroke: #000000; stroke-width: 0.8"/>
      </g>
     </g>
     <g id="text_14">
      <!-- 200 -->
      <g transform="translate(329.571739 527.238438) scale(0.1 -0.1)">
       <use xlink:href="#DejaVuSans-32"/>
       <use xlink:href="#DejaVuSans-30" x="63.623047"/>
       <use xlink:href="#DejaVuSans-30" x="127.246094"/>
      </g>
     </g>
    </g>
    <g id="xtick_7">
     <g id="line2d_18">
      <g>
       <use xlink:href="#mc08049a170" x="384.054603" y="512.64" style="stroke: #000000; stroke-width: 0.8"/>
      </g>
     </g>
     <g id="text_15">
      <!-- 400 -->
      <g transform="translate(374.510853 527.238438) scale(0.1 -0.1)">
       <use xlink:href="#DejaVuSans-34"/>
       <use xlink:href="#DejaVuSans-30" x="63.623047"/>
       <use xlink:href="#DejaVuSans-30" x="127.246094"/>
      </g>
     </g>
    </g>
    <g id="xtick_8">
     <g id="line2d_19">
      <g>
       <use xlink:href="#mc08049a170" x="428.993718" y="512.64" style="stroke: #000000; stroke-width: 0.8"/>
      </g>
     </g>
     <g id="text_16">
      <!-- 600 -->
      <g transform="translate(419.449968 527.238438) scale(0.1 -0.1)">
       <use xlink:href="#DejaVuSans-36"/>
       <use xlink:href="#DejaVuSans-30" x="63.623047"/>
       <use xlink:href="#DejaVuSans-30" x="127.246094"/>
      </g>
     </g>
    </g>
   </g>
   <g id="matplotlib.axis_4">
    <g id="ytick_6">
     <g id="line2d_20">
      <g>
       <use xlink:href="#m59b959ffc9" x="286.941176" y="492.48" style="stroke: #000000; stroke-width: 0.8"/>
      </g>
     </g>
     <g id="text_17">
      <!-- 0 -->
      <g transform="translate(273.578676 496.279219) scale(0.1 -0.1)">
       <use xlink:href="#DejaVuSans-30"/>
      </g>
     </g>
    </g>
    <g id="ytick_7">
     <g id="line2d_21">
      <g>
       <use xlink:href="#m59b959ffc9" x="286.941176" y="420.608342" style="stroke: #000000; stroke-width: 0.8"/>
      </g>
     </g>
     <g id="text_18">
      <!-- 100 -->
      <g transform="translate(260.853676 424.407561) scale(0.1 -0.1)">
       <use xlink:href="#DejaVuSans-31"/>
       <use xlink:href="#DejaVuSans-30" x="63.623047"/>
       <use xlink:href="#DejaVuSans-30" x="127.246094"/>
      </g>
     </g>
    </g>
    <g id="ytick_8">
     <g id="line2d_22">
      <g>
       <use xlink:href="#m59b959ffc9" x="286.941176" y="348.736684" style="stroke: #000000; stroke-width: 0.8"/>
      </g>
     </g>
     <g id="text_19">
      <!-- 200 -->
      <g transform="translate(260.853676 352.535903) scale(0.1 -0.1)">
       <use xlink:href="#DejaVuSans-32"/>
       <use xlink:href="#DejaVuSans-30" x="63.623047"/>
       <use xlink:href="#DejaVuSans-30" x="127.246094"/>
      </g>
     </g>
    </g>
    <g id="ytick_9">
     <g id="line2d_23">
      <g>
       <use xlink:href="#m59b959ffc9" x="286.941176" y="276.865027" style="stroke: #000000; stroke-width: 0.8"/>
      </g>
     </g>
     <g id="text_20">
      <!-- 300 -->
      <g transform="translate(260.853676 280.664245) scale(0.1 -0.1)">
       <use xlink:href="#DejaVuSans-33"/>
       <use xlink:href="#DejaVuSans-30" x="63.623047"/>
       <use xlink:href="#DejaVuSans-30" x="127.246094"/>
      </g>
     </g>
    </g>
    <g id="ytick_10">
     <g id="line2d_24">
      <g>
       <use xlink:href="#m59b959ffc9" x="286.941176" y="204.993369" style="stroke: #000000; stroke-width: 0.8"/>
      </g>
     </g>
     <g id="text_21">
      <!-- 400 -->
      <g transform="translate(260.853676 208.792588) scale(0.1 -0.1)">
       <use xlink:href="#DejaVuSans-34"/>
       <use xlink:href="#DejaVuSans-30" x="63.623047"/>
       <use xlink:href="#DejaVuSans-30" x="127.246094"/>
      </g>
     </g>
    </g>
    <g id="ytick_11">
     <g id="line2d_25">
      <g>
       <use xlink:href="#m59b959ffc9" x="286.941176" y="133.121711" style="stroke: #000000; stroke-width: 0.8"/>
      </g>
     </g>
     <g id="text_22">
      <!-- 500 -->
      <g transform="translate(260.853676 136.92093) scale(0.1 -0.1)">
       <defs>
        <path id="DejaVuSans-35" d="M 691 4666 
L 3169 4666 
L 3169 4134 
L 1269 4134 
L 1269 2991 
Q 1406 3038 1543 3061 
Q 1681 3084 1819 3084 
Q 2600 3084 3056 2656 
Q 3513 2228 3513 1497 
Q 3513 744 3044 326 
Q 2575 -91 1722 -91 
Q 1428 -91 1123 -41 
Q 819 9 494 109 
L 494 744 
Q 775 591 1075 516 
Q 1375 441 1709 441 
Q 2250 441 2565 725 
Q 2881 1009 2881 1497 
Q 2881 1984 2565 2268 
Q 2250 2553 1709 2553 
Q 1456 2553 1204 2497 
Q 953 2441 691 2322 
L 691 4666 
z
" transform="scale(0.015625)"/>
       </defs>
       <use xlink:href="#DejaVuSans-35"/>
       <use xlink:href="#DejaVuSans-30" x="63.623047"/>
       <use xlink:href="#DejaVuSans-30" x="127.246094"/>
      </g>
     </g>
    </g>
   </g>
   <g id="line2d_26">
    <path d="M 294.40107 492.48 
L 294.850461 492.48 
L 295.075156 491.761283 
L 295.749243 491.761283 
L 295.973939 491.042567 
L 296.648025 491.042567 
L 296.872721 488.886417 
L 297.546808 488.886417 
L 297.771503 486.730267 
L 298.44559 486.730267 
L 298.670285 484.574118 
L 299.344372 484.574118 
L 299.569068 480.980535 
L 300.243154 480.980535 
L 300.46785 479.543102 
L 301.141937 479.543102 
L 301.366632 477.386952 
L 302.040719 477.386952 
L 302.265415 473.793369 
L 302.939501 473.793369 
L 303.164197 473.074652 
L 304.737066 473.074652 
L 304.961761 471.637219 
L 305.635848 471.637219 
L 305.860544 468.043636 
L 306.534631 468.043636 
L 306.759326 465.887487 
L 307.433413 465.887487 
L 307.658108 463.731337 
L 308.332195 463.731337 
L 308.556891 463.01262 
L 309.230977 463.01262 
L 309.455673 460.856471 
L 310.12976 460.856471 
L 310.354455 458.700321 
L 311.028542 458.700321 
L 311.253238 457.262888 
L 311.927324 457.262888 
L 312.15202 456.544171 
L 312.826107 456.544171 
L 313.050802 454.388021 
L 313.724889 454.388021 
L 313.949584 453.669305 
L 315.522453 453.669305 
L 315.747149 452.231872 
L 316.421236 452.231872 
L 316.645931 451.513155 
L 317.320018 451.513155 
L 317.544714 450.075722 
L 318.2188 450.075722 
L 318.443496 449.357005 
L 319.117583 449.357005 
L 319.342278 447.919572 
L 320.915147 447.919572 
L 321.139843 447.200856 
L 321.81393 447.200856 
L 322.038625 446.482139 
L 323.611494 446.482139 
L 323.83619 445.044706 
L 324.510276 445.044706 
L 324.734972 442.888556 
L 325.409059 442.888556 
L 325.633754 441.451123 
L 326.307841 441.451123 
L 326.532537 439.294973 
L 327.206623 439.294973 
L 327.431319 438.576257 
L 328.105406 438.576257 
L 328.330101 436.420107 
L 329.004188 436.420107 
L 329.228883 434.982674 
L 329.90297 434.982674 
L 330.127666 433.545241 
L 330.801752 433.545241 
L 331.026448 431.389091 
L 331.700535 431.389091 
L 331.92523 429.232941 
L 332.599317 429.232941 
L 332.824013 426.358075 
L 333.498099 426.358075 
L 333.722795 422.764492 
L 334.396882 422.764492 
L 334.621577 421.327059 
L 335.295664 421.327059 
L 335.52036 419.170909 
L 336.194446 419.170909 
L 336.419142 417.014759 
L 337.093229 417.014759 
L 337.317924 413.421176 
L 337.992011 413.421176 
L 338.216706 411.265027 
L 338.890793 411.265027 
L 339.115489 409.108877 
L 339.789575 409.108877 
L 340.014271 406.952727 
L 340.688358 406.952727 
L 340.913053 404.077861 
L 341.58714 404.077861 
L 341.811836 401.921711 
L 342.485922 401.921711 
L 342.710618 400.484278 
L 343.384705 400.484278 
L 343.6094 399.765561 
L 346.081051 399.765561 
L 346.305747 399.046845 
L 346.979834 399.046845 
L 347.204529 397.609412 
L 347.878616 397.609412 
L 348.103312 396.171979 
L 348.777398 396.171979 
L 349.002094 394.734545 
L 349.676181 394.734545 
L 349.900876 393.297112 
L 350.574963 393.297112 
L 350.799659 392.578396 
L 351.473745 392.578396 
L 351.698441 390.422246 
L 352.372528 390.422246 
L 352.597223 388.984813 
L 353.27131 388.984813 
L 353.496005 386.828663 
L 354.170092 386.828663 
L 354.394788 384.672513 
L 355.068874 384.672513 
L 355.29357 383.23508 
L 355.967657 383.23508 
L 356.192352 382.516364 
L 356.866439 382.516364 
L 357.091135 381.07893 
L 357.765221 381.07893 
L 357.989917 379.641497 
L 358.664004 379.641497 
L 358.888699 377.485348 
L 359.562786 377.485348 
L 359.787481 374.610481 
L 360.461568 374.610481 
L 360.686264 372.454332 
L 361.36035 372.454332 
L 361.585046 371.016898 
L 362.259133 371.016898 
L 362.483828 368.860749 
L 363.157915 368.860749 
L 363.382611 366.704599 
L 364.056697 366.704599 
L 364.281393 362.392299 
L 364.95548 362.392299 
L 365.180175 360.23615 
L 365.854262 360.23615 
L 366.078958 357.361283 
L 366.753044 357.361283 
L 366.97774 355.205134 
L 367.651827 355.205134 
L 367.876522 352.330267 
L 368.550609 352.330267 
L 368.775304 350.892834 
L 369.449391 350.892834 
L 369.674087 349.455401 
L 371.246956 349.455401 
L 371.471651 348.017968 
L 372.145738 348.017968 
L 372.370434 347.299251 
L 373.04452 347.299251 
L 373.269216 344.424385 
L 373.943303 344.424385 
L 374.167998 341.549519 
L 374.842085 341.549519 
L 375.06678 340.112086 
L 375.740867 340.112086 
L 375.965563 335.799786 
L 376.63965 335.799786 
L 376.864345 333.643636 
L 377.538432 333.643636 
L 377.763127 330.050053 
L 379.335996 330.050053 
L 379.560692 328.61262 
L 380.234779 328.61262 
L 380.459474 327.175187 
L 381.133561 327.175187 
L 381.358257 325.737754 
L 382.032343 325.737754 
L 382.257039 324.300321 
L 382.931126 324.300321 
L 383.155821 322.862888 
L 383.829908 322.862888 
L 384.054603 319.988021 
L 384.72869 319.988021 
L 384.953386 318.550588 
L 385.627472 318.550588 
L 385.852168 316.394439 
L 386.526255 316.394439 
L 386.75095 314.957005 
L 387.425037 314.957005 
L 387.649733 312.800856 
L 388.323819 312.800856 
L 388.548515 310.644706 
L 389.222602 310.644706 
L 389.447297 308.488556 
L 390.121384 308.488556 
L 390.34608 305.61369 
L 391.020166 305.61369 
L 391.244862 303.45754 
L 391.918949 303.45754 
L 392.143644 302.738824 
L 392.817731 302.738824 
L 393.042426 300.582674 
L 393.716513 300.582674 
L 393.941209 299.145241 
L 394.615295 299.145241 
L 394.839991 296.270374 
L 396.41286 296.270374 
L 396.637556 294.114225 
L 397.311642 294.114225 
L 397.536338 291.239358 
L 398.210425 291.239358 
L 398.43512 290.520642 
L 399.109207 290.520642 
L 399.333902 289.801925 
L 400.007989 289.801925 
L 400.232685 286.927059 
L 400.906771 286.927059 
L 401.131467 284.052193 
L 401.805554 284.052193 
L 402.030249 282.614759 
L 402.704336 282.614759 
L 402.929032 279.739893 
L 403.603118 279.739893 
L 403.827814 274.708877 
L 404.501901 274.708877 
L 404.726596 271.834011 
L 405.400683 271.834011 
L 405.625379 268.240428 
L 406.299465 268.240428 
L 406.524161 267.521711 
L 407.198248 267.521711 
L 407.422943 263.928128 
L 408.09703 263.928128 
L 408.321725 261.771979 
L 408.995812 261.771979 
L 409.220508 258.897112 
L 409.894594 258.897112 
L 410.11929 256.022246 
L 410.793377 256.022246 
L 411.018072 253.14738 
L 411.692159 253.14738 
L 411.916855 252.428663 
L 412.590941 252.428663 
L 412.815637 248.83508 
L 413.489724 248.83508 
L 413.714419 245.960214 
L 414.388506 245.960214 
L 414.613201 240.210481 
L 415.287288 240.210481 
L 415.511984 235.179465 
L 416.18607 235.179465 
L 416.410766 230.148449 
L 417.084853 230.148449 
L 417.309548 226.554866 
L 417.983635 226.554866 
L 418.208331 225.117433 
L 418.882417 225.117433 
L 419.107113 220.805134 
L 419.7812 220.805134 
L 420.005895 217.930267 
L 420.679982 217.930267 
L 420.904678 215.055401 
L 421.578764 215.055401 
L 421.80346 212.899251 
L 422.477547 212.899251 
L 422.702242 209.305668 
L 423.376329 209.305668 
L 423.601024 207.149519 
L 424.275111 207.149519 
L 424.499807 202.837219 
L 425.173893 202.837219 
L 425.398589 197.806203 
L 426.072676 197.806203 
L 426.297371 193.493904 
L 426.971458 193.493904 
L 427.196154 192.056471 
L 427.87024 192.056471 
L 428.094936 188.462888 
L 428.769023 188.462888 
L 428.993718 182.713155 
L 429.667805 182.713155 
L 429.8925 176.963422 
L 430.566587 176.963422 
L 430.791283 170.494973 
L 431.465369 170.494973 
L 431.690065 165.463957 
L 432.364152 165.463957 
L 432.588847 161.151658 
L 433.262934 161.151658 
L 433.48763 157.558075 
L 434.161716 157.558075 
L 434.386412 152.527059 
L 435.060499 152.527059 
L 435.285194 148.933476 
L 435.959281 148.933476 
L 436.183977 145.339893 
L 436.858063 145.339893 
L 437.082759 141.74631 
L 437.756846 141.74631 
L 437.981541 137.434011 
L 438.655628 137.434011 
L 438.880323 133.840428 
L 439.55441 133.840428 
L 439.779106 130.246845 
L 440.453192 130.246845 
L 440.677888 127.371979 
L 441.351975 127.371979 
L 441.57667 121.622246 
L 442.250757 121.622246 
L 442.475453 117.309947 
L 443.149539 117.309947 
L 443.374235 109.404064 
L 443.59893 109.404064 
L 443.59893 109.404064 
" clip-path="url(#p7ecd773061)" style="fill: none; stroke: #0000ff; stroke-width: 1.5; stroke-linecap: square"/>
   </g>
   <g id="line2d_27">
    <path d="M 294.40107 492.48 
L 294.850461 492.48 
L 295.075156 491.761283 
L 295.749243 491.761283 
L 295.973939 487.448984 
L 296.648025 487.448984 
L 296.872721 485.292834 
L 297.546808 485.292834 
L 297.771503 482.417968 
L 298.44559 482.417968 
L 298.670285 479.543102 
L 299.344372 479.543102 
L 299.569068 476.668235 
L 300.243154 476.668235 
L 300.46785 472.355936 
L 301.141937 472.355936 
L 301.366632 470.918503 
L 302.040719 470.918503 
L 302.265415 468.762353 
L 302.939501 468.762353 
L 303.164197 465.887487 
L 303.838284 465.887487 
L 304.062979 462.293904 
L 304.737066 462.293904 
L 304.961761 458.700321 
L 305.635848 458.700321 
L 305.860544 456.544171 
L 306.534631 456.544171 
L 306.759326 454.388021 
L 307.433413 454.388021 
L 307.658108 452.950588 
L 308.332195 452.950588 
L 308.556891 450.075722 
L 309.230977 450.075722 
L 309.455673 447.200856 
L 310.12976 447.200856 
L 310.354455 445.044706 
L 311.028542 445.044706 
L 311.253238 442.16984 
L 311.927324 442.16984 
L 312.15202 440.01369 
L 312.826107 440.01369 
L 313.050802 439.294973 
L 313.724889 439.294973 
L 313.949584 437.85754 
L 314.623671 437.85754 
L 314.848367 436.420107 
L 315.522453 436.420107 
L 315.747149 433.545241 
L 316.421236 433.545241 
L 316.645931 432.826524 
L 319.117583 432.826524 
L 319.342278 431.389091 
L 321.81393 431.389091 
L 322.038625 429.951658 
L 322.712712 429.951658 
L 322.937407 428.514225 
L 323.611494 428.514225 
L 323.83619 427.795508 
L 324.510276 427.795508 
L 324.734972 427.076791 
L 325.409059 427.076791 
L 325.633754 423.483209 
L 326.307841 423.483209 
L 326.532537 419.889626 
L 327.206623 419.889626 
L 327.431319 418.452193 
L 328.105406 418.452193 
L 328.330101 416.296043 
L 329.004188 416.296043 
L 329.228883 411.983743 
L 329.90297 411.983743 
L 330.127666 409.108877 
L 330.801752 409.108877 
L 331.026448 407.671444 
L 331.700535 407.671444 
L 331.92523 404.796578 
L 332.599317 404.796578 
L 332.824013 404.077861 
L 333.498099 404.077861 
L 333.722795 402.640428 
L 334.396882 402.640428 
L 334.621577 400.484278 
L 335.295664 400.484278 
L 335.52036 398.328128 
L 336.194446 398.328128 
L 336.419142 396.890695 
L 337.093229 396.890695 
L 337.317924 396.171979 
L 337.992011 396.171979 
L 338.216706 394.015829 
L 338.890793 394.015829 
L 339.115489 391.859679 
L 339.789575 391.859679 
L 340.014271 391.140963 
L 340.688358 391.140963 
L 340.913053 390.422246 
L 341.58714 390.422246 
L 341.811836 388.984813 
L 342.485922 388.984813 
L 342.710618 386.828663 
L 343.384705 386.828663 
L 343.6094 384.672513 
L 344.283487 384.672513 
L 344.508182 383.23508 
L 345.182269 383.23508 
L 345.406965 382.516364 
L 346.081051 382.516364 
L 346.305747 381.797647 
L 347.878616 381.797647 
L 348.103312 381.07893 
L 349.676181 381.07893 
L 349.900876 380.360214 
L 350.574963 380.360214 
L 350.799659 378.204064 
L 351.473745 378.204064 
L 351.698441 376.047914 
L 352.372528 376.047914 
L 352.597223 372.454332 
L 353.27131 372.454332 
L 353.496005 368.860749 
L 354.170092 368.860749 
L 354.394788 366.704599 
L 355.068874 366.704599 
L 355.29357 363.829733 
L 355.967657 363.829733 
L 356.192352 360.23615 
L 356.866439 360.23615 
L 357.091135 358.798717 
L 357.765221 358.798717 
L 357.989917 355.92385 
L 358.664004 355.92385 
L 358.888699 354.486417 
L 359.562786 354.486417 
L 359.787481 352.330267 
L 360.461568 352.330267 
L 360.686264 350.892834 
L 361.36035 350.892834 
L 361.585046 348.736684 
L 362.259133 348.736684 
L 362.483828 348.017968 
L 363.157915 348.017968 
L 363.382611 347.299251 
L 364.056697 347.299251 
L 364.281393 346.580535 
L 364.95548 346.580535 
L 365.180175 345.143102 
L 365.854262 345.143102 
L 366.078958 344.424385 
L 366.753044 344.424385 
L 366.97774 342.986952 
L 368.550609 342.986952 
L 368.775304 342.268235 
L 369.449391 342.268235 
L 369.674087 341.549519 
L 370.348173 341.549519 
L 370.572869 340.112086 
L 371.246956 340.112086 
L 371.471651 337.237219 
L 372.145738 337.237219 
L 372.370434 332.92492 
L 373.04452 332.92492 
L 373.269216 327.893904 
L 373.943303 327.893904 
L 374.167998 325.019037 
L 374.842085 325.019037 
L 375.06678 320.706738 
L 375.740867 320.706738 
L 375.965563 319.269305 
L 376.63965 319.269305 
L 376.864345 315.675722 
L 377.538432 315.675722 
L 377.763127 314.957005 
L 378.437214 314.957005 
L 378.66191 312.082139 
L 379.335996 312.082139 
L 379.560692 308.488556 
L 380.234779 308.488556 
L 380.459474 303.45754 
L 381.133561 303.45754 
L 381.358257 298.426524 
L 382.032343 298.426524 
L 382.257039 295.551658 
L 382.931126 295.551658 
L 383.155821 293.395508 
L 383.829908 293.395508 
L 384.054603 290.520642 
L 384.72869 290.520642 
L 384.953386 289.801925 
L 385.627472 289.801925 
L 385.852168 286.927059 
L 386.526255 286.927059 
L 386.75095 284.052193 
L 387.425037 284.052193 
L 387.649733 281.896043 
L 388.323819 281.896043 
L 388.548515 280.45861 
L 389.222602 280.45861 
L 389.447297 277.583743 
L 390.121384 277.583743 
L 390.34608 276.14631 
L 391.020166 276.14631 
L 391.244862 274.708877 
L 391.918949 274.708877 
L 392.143644 273.271444 
L 392.817731 273.271444 
L 393.042426 271.115294 
L 394.615295 271.115294 
L 394.839991 268.240428 
L 395.514078 268.240428 
L 395.738773 263.928128 
L 396.41286 263.928128 
L 396.637556 260.334545 
L 397.311642 260.334545 
L 397.536338 258.178396 
L 398.210425 258.178396 
L 398.43512 253.14738 
L 399.109207 253.14738 
L 399.333902 248.83508 
L 400.007989 248.83508 
L 400.232685 246.67893 
L 400.906771 246.67893 
L 401.131467 244.522781 
L 401.805554 244.522781 
L 402.030249 239.491765 
L 402.704336 239.491765 
L 402.929032 237.335615 
L 403.603118 237.335615 
L 403.827814 235.179465 
L 404.501901 235.179465 
L 404.726596 233.023316 
L 405.400683 233.023316 
L 405.625379 231.585882 
L 406.299465 231.585882 
L 406.524161 228.711016 
L 407.198248 228.711016 
L 407.422943 227.273583 
L 408.09703 227.273583 
L 408.321725 225.83615 
L 408.995812 225.83615 
L 409.220508 225.117433 
L 409.894594 225.117433 
L 410.11929 223.68 
L 410.793377 223.68 
L 411.018072 221.52385 
L 411.692159 221.52385 
L 411.916855 219.367701 
L 413.489724 219.367701 
L 413.714419 215.055401 
L 414.388506 215.055401 
L 414.613201 211.461818 
L 415.287288 211.461818 
L 415.511984 205.712086 
L 416.18607 205.712086 
L 416.410766 203.555936 
L 417.084853 203.555936 
L 417.309548 198.52492 
L 417.983635 198.52492 
L 418.208331 192.775187 
L 418.882417 192.775187 
L 419.107113 188.462888 
L 419.7812 188.462888 
L 420.005895 182.713155 
L 420.679982 182.713155 
L 420.904678 175.525989 
L 421.578764 175.525989 
L 421.80346 171.21369 
L 422.477547 171.21369 
L 422.702242 165.463957 
L 423.376329 165.463957 
L 423.601024 158.995508 
L 424.275111 158.995508 
L 424.499807 153.964492 
L 425.173893 153.964492 
L 425.398589 150.370909 
L 426.072676 150.370909 
L 426.297371 146.777326 
L 426.971458 146.777326 
L 427.196154 141.027594 
L 427.87024 141.027594 
L 428.094936 138.152727 
L 428.769023 138.152727 
L 428.993718 133.840428 
L 429.667805 133.840428 
L 429.8925 131.684278 
L 430.566587 131.684278 
L 430.791283 128.809412 
L 431.465369 128.809412 
L 431.690065 125.215829 
L 432.364152 125.215829 
L 432.588847 122.340963 
L 433.262934 122.340963 
L 433.48763 119.466096 
L 434.161716 119.466096 
L 434.386412 117.309947 
L 435.060499 117.309947 
L 435.285194 115.153797 
L 435.959281 115.153797 
L 436.183977 112.27893 
L 436.858063 112.27893 
L 437.082759 107.966631 
L 437.756846 107.966631 
L 437.981541 105.091765 
L 438.655628 105.091765 
L 438.880323 103.654332 
L 439.55441 103.654332 
L 439.779106 102.216898 
L 440.453192 102.216898 
L 440.677888 100.060749 
L 441.351975 100.060749 
L 441.57667 97.904599 
L 442.250757 97.904599 
L 442.475453 92.154866 
L 443.149539 92.154866 
L 443.374235 89.28 
L 443.59893 89.28 
L 443.59893 89.28 
" clip-path="url(#p7ecd773061)" style="fill: none; stroke: #ff0000; stroke-width: 1.5; stroke-linecap: square"/>
   </g>
   <g id="line2d_28">
    <path d="M 294.40107 492.48 
L 294.850461 492.48 
L 295.075156 491.042567 
L 295.749243 491.042567 
L 295.973939 490.32385 
L 296.648025 490.32385 
L 296.872721 487.448984 
L 297.546808 487.448984 
L 297.771503 485.292834 
L 298.44559 485.292834 
L 298.670285 483.136684 
L 299.344372 483.136684 
L 299.569068 482.417968 
L 300.243154 482.417968 
L 300.46785 480.980535 
L 301.141937 480.980535 
L 301.366632 477.386952 
L 302.040719 477.386952 
L 302.265415 475.949519 
L 302.939501 475.949519 
L 303.164197 473.074652 
L 303.838284 473.074652 
L 304.062979 470.199786 
L 304.737066 470.199786 
L 304.961761 468.762353 
L 305.635848 468.762353 
L 305.860544 468.043636 
L 306.534631 468.043636 
L 306.759326 465.887487 
L 307.433413 465.887487 
L 307.658108 463.01262 
L 308.332195 463.01262 
L 308.556891 460.137754 
L 309.230977 460.137754 
L 309.455673 459.419037 
L 310.12976 459.419037 
L 310.354455 457.981604 
L 311.028542 457.981604 
L 311.253238 456.544171 
L 311.927324 456.544171 
L 312.15202 454.388021 
L 312.826107 454.388021 
L 313.050802 452.231872 
L 313.724889 452.231872 
L 313.949584 450.075722 
L 314.623671 450.075722 
L 314.848367 447.200856 
L 316.421236 447.200856 
L 316.645931 445.044706 
L 317.320018 445.044706 
L 317.544714 443.607273 
L 318.2188 443.607273 
L 318.443496 441.451123 
L 320.016365 441.451123 
L 320.24106 439.294973 
L 320.915147 439.294973 
L 321.139843 437.85754 
L 322.712712 437.85754 
L 322.937407 437.138824 
L 323.611494 437.138824 
L 323.83619 434.982674 
L 324.510276 434.982674 
L 324.734972 432.107807 
L 325.409059 432.107807 
L 325.633754 429.951658 
L 326.307841 429.951658 
L 326.532537 428.514225 
L 327.206623 428.514225 
L 327.431319 424.201925 
L 328.105406 424.201925 
L 328.330101 422.045775 
L 329.004188 422.045775 
L 329.228883 421.327059 
L 329.90297 421.327059 
L 330.127666 419.170909 
L 330.801752 419.170909 
L 331.026448 416.296043 
L 331.700535 416.296043 
L 331.92523 414.85861 
L 332.599317 414.85861 
L 332.824013 412.70246 
L 333.498099 412.70246 
L 333.722795 411.983743 
L 334.396882 411.983743 
L 334.621577 409.827594 
L 335.295664 409.827594 
L 335.52036 408.39016 
L 336.194446 408.39016 
L 336.419142 406.234011 
L 337.093229 406.234011 
L 337.317924 405.515294 
L 337.992011 405.515294 
L 338.216706 404.796578 
L 338.890793 404.796578 
L 339.115489 404.077861 
L 339.789575 404.077861 
L 340.014271 402.640428 
L 340.688358 402.640428 
L 340.913053 401.921711 
L 341.58714 401.921711 
L 341.811836 401.202995 
L 343.384705 401.202995 
L 343.6094 400.484278 
L 344.283487 400.484278 
L 344.508182 398.328128 
L 345.182269 398.328128 
L 345.406965 396.171979 
L 346.081051 396.171979 
L 346.305747 394.734545 
L 346.979834 394.734545 
L 347.204529 394.015829 
L 349.676181 394.015829 
L 349.900876 391.859679 
L 350.574963 391.859679 
L 350.799659 387.54738 
L 351.473745 387.54738 
L 351.698441 385.39123 
L 352.372528 385.39123 
L 352.597223 383.953797 
L 353.27131 383.953797 
L 353.496005 383.23508 
L 354.170092 383.23508 
L 354.394788 381.07893 
L 355.068874 381.07893 
L 355.29357 379.641497 
L 355.967657 379.641497 
L 356.192352 378.204064 
L 356.866439 378.204064 
L 357.091135 375.329198 
L 357.765221 375.329198 
L 357.989917 373.891765 
L 358.664004 373.891765 
L 358.888699 371.735615 
L 359.562786 371.735615 
L 359.787481 371.016898 
L 360.461568 371.016898 
L 360.686264 368.860749 
L 361.36035 368.860749 
L 361.585046 366.704599 
L 362.259133 366.704599 
L 362.483828 364.548449 
L 363.157915 364.548449 
L 363.382611 362.392299 
L 364.95548 362.392299 
L 365.180175 360.954866 
L 365.854262 360.954866 
L 366.078958 359.517433 
L 366.753044 359.517433 
L 366.97774 358.798717 
L 367.651827 358.798717 
L 367.876522 357.361283 
L 368.550609 357.361283 
L 368.775304 355.205134 
L 369.449391 355.205134 
L 369.674087 353.767701 
L 370.348173 353.767701 
L 370.572869 351.611551 
L 371.246956 351.611551 
L 371.471651 349.455401 
L 372.145738 349.455401 
L 372.370434 344.424385 
L 373.04452 344.424385 
L 373.269216 343.705668 
L 373.943303 343.705668 
L 374.167998 340.112086 
L 374.842085 340.112086 
L 375.06678 337.237219 
L 375.740867 337.237219 
L 375.965563 334.362353 
L 376.63965 334.362353 
L 376.864345 332.206203 
L 377.538432 332.206203 
L 377.763127 328.61262 
L 378.437214 328.61262 
L 378.66191 323.581604 
L 379.335996 323.581604 
L 379.560692 321.425455 
L 380.234779 321.425455 
L 380.459474 320.706738 
L 381.133561 320.706738 
L 381.358257 319.988021 
L 382.032343 319.988021 
L 382.257039 317.831872 
L 382.931126 317.831872 
L 383.155821 314.957005 
L 383.829908 314.957005 
L 384.054603 314.238289 
L 384.72869 314.238289 
L 384.953386 310.644706 
L 385.627472 310.644706 
L 385.852168 309.925989 
L 386.526255 309.925989 
L 386.75095 308.488556 
L 387.425037 308.488556 
L 387.649733 307.051123 
L 388.323819 307.051123 
L 388.548515 304.894973 
L 390.121384 304.894973 
L 390.34608 304.176257 
L 391.020166 304.176257 
L 391.244862 303.45754 
L 391.918949 303.45754 
L 392.143644 301.30139 
L 393.716513 301.30139 
L 393.941209 299.145241 
L 394.615295 299.145241 
L 394.839991 295.551658 
L 395.514078 295.551658 
L 395.738773 289.801925 
L 396.41286 289.801925 
L 396.637556 286.208342 
L 397.311642 286.208342 
L 397.536338 281.896043 
L 398.210425 281.896043 
L 398.43512 278.30246 
L 399.109207 278.30246 
L 399.333902 274.708877 
L 400.007989 274.708877 
L 400.232685 271.115294 
L 400.906771 271.115294 
L 401.131467 267.521711 
L 401.805554 267.521711 
L 402.030249 265.365561 
L 402.704336 265.365561 
L 402.929032 262.490695 
L 403.603118 262.490695 
L 403.827814 261.771979 
L 404.501901 261.771979 
L 404.726596 258.897112 
L 405.400683 258.897112 
L 405.625379 256.740963 
L 406.299465 256.740963 
L 406.524161 253.14738 
L 407.198248 253.14738 
L 407.422943 250.99123 
L 408.09703 250.99123 
L 408.321725 247.397647 
L 408.995812 247.397647 
L 409.220508 244.522781 
L 409.894594 244.522781 
L 410.11929 242.366631 
L 410.793377 242.366631 
L 411.018072 241.647914 
L 411.692159 241.647914 
L 411.916855 238.773048 
L 412.590941 238.773048 
L 412.815637 235.898182 
L 413.489724 235.898182 
L 413.714419 233.023316 
L 414.388506 233.023316 
L 414.613201 229.429733 
L 415.287288 229.429733 
L 415.511984 225.83615 
L 416.18607 225.83615 
L 416.410766 217.930267 
L 417.084853 217.930267 
L 417.309548 212.180535 
L 417.983635 212.180535 
L 418.208331 207.149519 
L 418.882417 207.149519 
L 419.107113 204.274652 
L 419.7812 204.274652 
L 420.005895 199.962353 
L 420.679982 199.962353 
L 420.904678 197.087487 
L 421.578764 197.087487 
L 421.80346 189.900321 
L 422.477547 189.900321 
L 422.702242 186.306738 
L 423.376329 186.306738 
L 423.601024 181.994439 
L 424.275111 181.994439 
L 424.499807 178.400856 
L 425.173893 178.400856 
L 425.398589 174.807273 
L 426.072676 174.807273 
L 426.297371 170.494973 
L 426.971458 170.494973 
L 427.196154 166.182674 
L 427.87024 166.182674 
L 428.094936 161.151658 
L 428.769023 161.151658 
L 428.993718 159.714225 
L 429.667805 159.714225 
L 429.8925 156.120642 
L 430.566587 156.120642 
L 430.791283 154.683209 
L 431.465369 154.683209 
L 431.690065 152.527059 
L 432.364152 152.527059 
L 432.588847 149.652193 
L 433.262934 149.652193 
L 433.48763 146.05861 
L 434.161716 146.05861 
L 434.386412 143.90246 
L 435.060499 143.90246 
L 435.285194 141.027594 
L 435.959281 141.027594 
L 436.183977 138.871444 
L 437.756846 138.871444 
L 437.981541 138.152727 
L 438.655628 138.152727 
L 438.880323 135.996578 
L 439.55441 135.996578 
L 439.779106 134.559144 
L 440.453192 134.559144 
L 440.677888 133.121711 
L 441.351975 133.121711 
L 441.57667 131.684278 
L 442.250757 131.684278 
L 442.475453 128.090695 
L 443.149539 128.090695 
L 443.374235 124.497112 
L 443.59893 124.497112 
L 443.59893 124.497112 
" clip-path="url(#p7ecd773061)" style="fill: none; stroke: #008000; stroke-width: 1.5; stroke-linecap: square"/>
   </g>
   <g id="patch_9">
    <path d="M 286.941176 512.64 
L 286.941176 69.12 
" style="fill: none; stroke: #000000; stroke-width: 0.8; stroke-linejoin: miter; stroke-linecap: square"/>
   </g>
   <g id="patch_10">
    <path d="M 451.058824 512.64 
L 451.058824 69.12 
" style="fill: none; stroke: #000000; stroke-width: 0.8; stroke-linejoin: miter; stroke-linecap: square"/>
   </g>
   <g id="patch_11">
    <path d="M 286.941176 512.64 
L 451.058824 512.64 
" style="fill: none; stroke: #000000; stroke-width: 0.8; stroke-linejoin: miter; stroke-linecap: square"/>
   </g>
   <g id="patch_12">
    <path d="M 286.941176 69.12 
L 451.058824 69.12 
" style="fill: none; stroke: #000000; stroke-width: 0.8; stroke-linejoin: miter; stroke-linecap: square"/>
   </g>
   <g id="legend_2">
    <g id="patch_13">
     <path d="M 293.941176 121.154375 
L 393.863051 121.154375 
Q 395.863051 121.154375 395.863051 119.154375 
L 395.863051 76.12 
Q 395.863051 74.12 393.863051 74.12 
L 293.941176 74.12 
Q 291.941176 74.12 291.941176 76.12 
L 291.941176 119.154375 
Q 291.941176 121.154375 293.941176 121.154375 
z
" style="fill: #ffffff; opacity: 0.8; stroke: #cccccc; stroke-linejoin: miter"/>
    </g>
    <g id="line2d_29">
     <path d="M 295.941176 82.218438 
L 305.941176 82.218438 
L 315.941176 82.218438 
" style="fill: none; stroke: #0000ff; stroke-width: 1.5; stroke-linecap: square"/>
    </g>
    <g id="text_23">
     <!-- O1 requested -->
     <g transform="translate(323.941176 85.718438) scale(0.1 -0.1)">
      <defs>
       <path id="DejaVuSans-72" d="M 2631 2963 
Q 2534 3019 2420 3045 
Q 2306 3072 2169 3072 
Q 1681 3072 1420 2755 
Q 1159 2438 1159 1844 
L 1159 0 
L 581 0 
L 581 3500 
L 1159 3500 
L 1159 2956 
Q 1341 3275 1631 3429 
Q 1922 3584 2338 3584 
Q 2397 3584 2469 3576 
Q 2541 3569 2628 3553 
L 2631 2963 
z
" transform="scale(0.015625)"/>
       <path id="DejaVuSans-65" d="M 3597 1894 
L 3597 1613 
L 953 1613 
Q 991 1019 1311 708 
Q 1631 397 2203 397 
Q 2534 397 2845 478 
Q 3156 559 3463 722 
L 3463 178 
Q 3153 47 2828 -22 
Q 2503 -91 2169 -91 
Q 1331 -91 842 396 
Q 353 884 353 1716 
Q 353 2575 817 3079 
Q 1281 3584 2069 3584 
Q 2775 3584 3186 3129 
Q 3597 2675 3597 1894 
z
M 3022 2063 
Q 3016 2534 2758 2815 
Q 2500 3097 2075 3097 
Q 1594 3097 1305 2825 
Q 1016 2553 972 2059 
L 3022 2063 
z
" transform="scale(0.015625)"/>
       <path id="DejaVuSans-71" d="M 947 1747 
Q 947 1113 1208 752 
Q 1469 391 1925 391 
Q 2381 391 2643 752 
Q 2906 1113 2906 1747 
Q 2906 2381 2643 2742 
Q 2381 3103 1925 3103 
Q 1469 3103 1208 2742 
Q 947 2381 947 1747 
z
M 2906 525 
Q 2725 213 2448 61 
Q 2172 -91 1784 -91 
Q 1150 -91 751 415 
Q 353 922 353 1747 
Q 353 2572 751 3078 
Q 1150 3584 1784 3584 
Q 2172 3584 2448 3432 
Q 2725 3281 2906 2969 
L 2906 3500 
L 3481 3500 
L 3481 -1331 
L 2906 -1331 
L 2906 525 
z
" transform="scale(0.015625)"/>
       <path id="DejaVuSans-73" d="M 2834 3397 
L 2834 2853 
Q 2591 2978 2328 3040 
Q 2066 3103 1784 3103 
Q 1356 3103 1142 2972 
Q 928 2841 928 2578 
Q 928 2378 1081 2264 
Q 1234 2150 1697 2047 
L 1894 2003 
Q 2506 1872 2764 1633 
Q 3022 1394 3022 966 
Q 3022 478 2636 193 
Q 2250 -91 1575 -91 
Q 1294 -91 989 -36 
Q 684 19 347 128 
L 347 722 
Q 666 556 975 473 
Q 1284 391 1588 391 
Q 1994 391 2212 530 
Q 2431 669 2431 922 
Q 2431 1156 2273 1281 
Q 2116 1406 1581 1522 
L 1381 1569 
Q 847 1681 609 1914 
Q 372 2147 372 2553 
Q 372 3047 722 3315 
Q 1072 3584 1716 3584 
Q 2034 3584 2315 3537 
Q 2597 3491 2834 3397 
z
" transform="scale(0.015625)"/>
       <path id="DejaVuSans-64" d="M 2906 2969 
L 2906 4863 
L 3481 4863 
L 3481 0 
L 2906 0 
L 2906 525 
Q 2725 213 2448 61 
Q 2172 -91 1784 -91 
Q 1150 -91 751 415 
Q 353 922 353 1747 
Q 353 2572 751 3078 
Q 1150 3584 1784 3584 
Q 2172 3584 2448 3432 
Q 2725 3281 2906 2969 
z
M 947 1747 
Q 947 1113 1208 752 
Q 1469 391 1925 391 
Q 2381 391 2643 752 
Q 2906 1113 2906 1747 
Q 2906 2381 2643 2742 
Q 2381 3103 1925 3103 
Q 1469 3103 1208 2742 
Q 947 2381 947 1747 
z
" transform="scale(0.015625)"/>
      </defs>
      <use xlink:href="#DejaVuSans-4f"/>
      <use xlink:href="#DejaVuSans-31" x="78.710938"/>
      <use xlink:href="#DejaVuSans-20" x="142.333984"/>
      <use xlink:href="#DejaVuSans-72" x="174.121094"/>
      <use xlink:href="#DejaVuSans-65" x="212.984375"/>
      <use xlink:href="#DejaVuSans-71" x="274.507812"/>
      <use xlink:href="#DejaVuSans-75" x="337.984375"/>
      <use xlink:href="#DejaVuSans-65" x="401.363281"/>
      <use xlink:href="#DejaVuSans-73" x="462.886719"/>
      <use xlink:href="#DejaVuSans-74" x="514.986328"/>
      <use xlink:href="#DejaVuSans-65" x="554.195312"/>
      <use xlink:href="#DejaVuSans-64" x="615.71875"/>
     </g>
    </g>
    <g id="line2d_30">
     <path d="M 295.941176 96.896563 
L 305.941176 96.896563 
L 315.941176 96.896563 
" style="fill: none; stroke: #ff0000; stroke-width: 1.5; stroke-linecap: square"/>
    </g>
    <g id="text_24">
     <!-- O2 requested -->
     <g transform="translate(323.941176 100.396563) scale(0.1 -0.1)">
      <use xlink:href="#DejaVuSans-4f"/>
      <use xlink:href="#DejaVuSans-32" x="78.710938"/>
      <use xlink:href="#DejaVuSans-20" x="142.333984"/>
      <use xlink:href="#DejaVuSans-72" x="174.121094"/>
      <use xlink:href="#DejaVuSans-65" x="212.984375"/>
      <use xlink:href="#DejaVuSans-71" x="274.507812"/>
      <use xlink:href="#DejaVuSans-75" x="337.984375"/>
      <use xlink:href="#DejaVuSans-65" x="401.363281"/>
      <use xlink:href="#DejaVuSans-73" x="462.886719"/>
      <use xlink:href="#DejaVuSans-74" x="514.986328"/>
      <use xlink:href="#DejaVuSans-65" x="554.195312"/>
      <use xlink:href="#DejaVuSans-64" x="615.71875"/>
     </g>
    </g>
    <g id="line2d_31">
     <path d="M 295.941176 111.574688 
L 305.941176 111.574688 
L 315.941176 111.574688 
" style="fill: none; stroke: #008000; stroke-width: 1.5; stroke-linecap: square"/>
    </g>
    <g id="text_25">
     <!-- O3 requested -->
     <g transform="translate(323.941176 115.074688) scale(0.1 -0.1)">
      <use xlink:href="#DejaVuSans-4f"/>
      <use xlink:href="#DejaVuSans-33" x="78.710938"/>
      <use xlink:href="#DejaVuSans-20" x="142.333984"/>
      <use xlink:href="#DejaVuSans-72" x="174.121094"/>
      <use xlink:href="#DejaVuSans-65" x="212.984375"/>
      <use xlink:href="#DejaVuSans-71" x="274.507812"/>
      <use xlink:href="#DejaVuSans-75" x="337.984375"/>
      <use xlink:href="#DejaVuSans-65" x="401.363281"/>
      <use xlink:href="#DejaVuSans-73" x="462.886719"/>
      <use xlink:href="#DejaVuSans-74" x="514.986328"/>
      <use xlink:href="#DejaVuSans-65" x="554.195312"/>
      <use xlink:href="#DejaVuSans-64" x="615.71875"/>
     </g>
    </g>
   </g>
  </g>
  <g id="axes_3">
   <g id="patch_14">
    <path d="M 483.882353 512.64 
L 648 512.64 
L 648 69.12 
L 483.882353 69.12 
z
" style="fill: #ffffff"/>
   </g>
   <g id="matplotlib.axis_5">
    <g id="xtick_9">
     <g id="line2d_32">
      <g>
       <use xlink:href="#mc08049a170" x="491.11755" y="512.64" style="stroke: #000000; stroke-width: 0.8"/>
      </g>
     </g>
     <g id="text_26">
      <!-- 0 -->
      <g transform="translate(487.9363 527.238438) scale(0.1 -0.1)">
       <use xlink:href="#DejaVuSans-30"/>
      </g>
     </g>
    </g>
    <g id="xtick_10">
     <g id="line2d_33">
      <g>
       <use xlink:href="#mc08049a170" x="536.056665" y="512.64" style="stroke: #000000; stroke-width: 0.8"/>
      </g>
     </g>
     <g id="text_27">
      <!-- 200 -->
      <g transform="translate(526.512915 527.238438) scale(0.1 -0.1)">
       <use xlink:href="#DejaVuSans-32"/>
       <use xlink:href="#DejaVuSans-30" x="63.623047"/>
       <use xlink:href="#DejaVuSans-30" x="127.246094"/>
      </g>
     </g>
    </g>
    <g id="xtick_11">
     <g id="line2d_34">
      <g>
       <use xlink:href="#mc08049a170" x="580.99578" y="512.64" style="stroke: #000000; stroke-width: 0.8"/>
      </g>
     </g>
     <g id="text_28">
      <!-- 400 -->
      <g transform="translate(571.45203 527.238438) scale(0.1 -0.1)">
       <use xlink:href="#DejaVuSans-34"/>
       <use xlink:href="#DejaVuSans-30" x="63.623047"/>
       <use xlink:href="#DejaVuSans-30" x="127.246094"/>
      </g>
     </g>
    </g>
    <g id="xtick_12">
     <g id="line2d_35">
      <g>
       <use xlink:href="#mc08049a170" x="625.934895" y="512.64" style="stroke: #000000; stroke-width: 0.8"/>
      </g>
     </g>
     <g id="text_29">
      <!-- 600 -->
      <g transform="translate(616.391145 527.238438) scale(0.1 -0.1)">
       <use xlink:href="#DejaVuSans-36"/>
       <use xlink:href="#DejaVuSans-30" x="63.623047"/>
       <use xlink:href="#DejaVuSans-30" x="127.246094"/>
      </g>
     </g>
    </g>
   </g>
   <g id="matplotlib.axis_6">
    <g id="ytick_12">
     <g id="line2d_36">
      <g>
       <use xlink:href="#m59b959ffc9" x="483.882353" y="492.48" style="stroke: #000000; stroke-width: 0.8"/>
      </g>
     </g>
     <g id="text_30">
      <!-- 0 -->
      <g transform="translate(470.519853 496.279219) scale(0.1 -0.1)">
       <use xlink:href="#DejaVuSans-30"/>
      </g>
     </g>
    </g>
    <g id="ytick_13">
     <g id="line2d_37">
      <g>
       <use xlink:href="#m59b959ffc9" x="483.882353" y="404.827826" style="stroke: #000000; stroke-width: 0.8"/>
      </g>
     </g>
     <g id="text_31">
      <!-- 20 -->
      <g transform="translate(464.157353 408.627045) scale(0.1 -0.1)">
       <use xlink:href="#DejaVuSans-32"/>
       <use xlink:href="#DejaVuSans-30" x="63.623047"/>
      </g>
     </g>
    </g>
    <g id="ytick_14">
     <g id="line2d_38">
      <g>
       <use xlink:href="#m59b959ffc9" x="483.882353" y="317.175652" style="stroke: #000000; stroke-width: 0.8"/>
      </g>
     </g>
     <g id="text_32">
      <!-- 40 -->
      <g transform="translate(464.157353 320.974871) scale(0.1 -0.1)">
       <use xlink:href="#DejaVuSans-34"/>
       <use xlink:href="#DejaVuSans-30" x="63.623047"/>
      </g>
     </g>
    </g>
    <g id="ytick_15">
     <g id="line2d_39">
      <g>
       <use xlink:href="#m59b959ffc9" x="483.882353" y="229.523478" style="stroke: #000000; stroke-width: 0.8"/>
      </g>
     </g>
     <g id="text_33">
      <!-- 60 -->
      <g transform="translate(464.157353 233.322697) scale(0.1 -0.1)">
       <use xlink:href="#DejaVuSans-36"/>
       <use xlink:href="#DejaVuSans-30" x="63.623047"/>
      </g>
     </g>
    </g>
    <g id="ytick_16">
     <g id="line2d_40">
      <g>
       <use xlink:href="#m59b959ffc9" x="483.882353" y="141.871304" style="stroke: #000000; stroke-width: 0.8"/>
      </g>
     </g>
     <g id="text_34">
      <!-- 80 -->
      <g transform="translate(464.157353 145.670523) scale(0.1 -0.1)">
       <defs>
        <path id="DejaVuSans-38" d="M 2034 2216 
Q 1584 2216 1326 1975 
Q 1069 1734 1069 1313 
Q 1069 891 1326 650 
Q 1584 409 2034 409 
Q 2484 409 2743 651 
Q 3003 894 3003 1313 
Q 3003 1734 2745 1975 
Q 2488 2216 2034 2216 
z
M 1403 2484 
Q 997 2584 770 2862 
Q 544 3141 544 3541 
Q 544 4100 942 4425 
Q 1341 4750 2034 4750 
Q 2731 4750 3128 4425 
Q 3525 4100 3525 3541 
Q 3525 3141 3298 2862 
Q 3072 2584 2669 2484 
Q 3125 2378 3379 2068 
Q 3634 1759 3634 1313 
Q 3634 634 3220 271 
Q 2806 -91 2034 -91 
Q 1263 -91 848 271 
Q 434 634 434 1313 
Q 434 1759 690 2068 
Q 947 2378 1403 2484 
z
M 1172 3481 
Q 1172 3119 1398 2916 
Q 1625 2713 2034 2713 
Q 2441 2713 2670 2916 
Q 2900 3119 2900 3481 
Q 2900 3844 2670 4047 
Q 2441 4250 2034 4250 
Q 1625 4250 1398 4047 
Q 1172 3844 1172 3481 
z
" transform="scale(0.015625)"/>
       </defs>
       <use xlink:href="#DejaVuSans-38"/>
       <use xlink:href="#DejaVuSans-30" x="63.623047"/>
      </g>
     </g>
    </g>
   </g>
   <g id="line2d_41">
    <path d="M 491.342246 492.48 
L 502.577025 492.48 
L 502.80172 488.097391 
L 504.374589 488.097391 
L 504.599285 483.714783 
L 640.540107 483.714783 
L 640.540107 483.714783 
" clip-path="url(#p6af641ae2a)" style="fill: none; stroke: #0000ff; stroke-width: 1.5; stroke-linecap: square"/>
   </g>
   <g id="line2d_42">
    <path d="M 491.342246 492.48 
L 500.77946 492.48 
L 501.004156 488.097391 
L 501.678242 488.097391 
L 501.902938 474.949565 
L 503.475807 474.949565 
L 503.700503 470.566957 
L 505.273372 470.566957 
L 505.498067 453.036522 
L 506.172154 453.036522 
L 506.396849 435.506087 
L 507.070936 435.506087 
L 507.295632 426.74087 
L 507.969718 426.74087 
L 508.194414 409.210435 
L 508.868501 409.210435 
L 509.093196 396.062609 
L 513.362412 396.062609 
L 513.587108 391.68 
L 516.058759 391.68 
L 516.283455 387.297391 
L 518.755106 387.297391 
L 518.979802 378.532174 
L 519.653888 378.532174 
L 519.878584 374.149565 
L 520.552671 374.149565 
L 520.777366 369.766957 
L 522.350235 369.766957 
L 522.574931 352.236522 
L 523.249017 352.236522 
L 523.473713 330.323478 
L 524.1478 330.323478 
L 524.372495 325.94087 
L 525.046582 325.94087 
L 525.271278 312.793043 
L 525.945364 312.793043 
L 526.17006 286.497391 
L 526.844147 286.497391 
L 527.068842 268.966957 
L 536.730752 268.966957 
L 536.955447 264.584348 
L 539.427099 264.584348 
L 539.651794 260.201739 
L 540.325881 260.201739 
L 540.550577 255.81913 
L 541.224663 255.81913 
L 541.449359 251.436522 
L 543.022228 251.436522 
L 543.246924 247.053913 
L 546.617357 247.053913 
L 546.842053 242.671304 
L 547.516139 242.671304 
L 547.740835 229.523478 
L 548.414922 229.523478 
L 548.639617 216.375652 
L 549.313704 216.375652 
L 549.5384 194.462609 
L 550.212486 194.462609 
L 550.437182 172.549565 
L 551.111269 172.549565 
L 551.335964 159.401739 
L 552.010051 159.401739 
L 552.234746 141.871304 
L 552.908833 141.871304 
L 553.133529 119.958261 
L 553.807615 119.958261 
L 554.032311 111.193043 
L 554.706398 111.193043 
L 554.931093 102.427826 
L 557.402745 102.427826 
L 557.62744 98.045217 
L 558.301527 98.045217 
L 558.526223 89.28 
L 640.540107 89.28 
L 640.540107 89.28 
" clip-path="url(#p6af641ae2a)" style="fill: none; stroke: #ff0000; stroke-width: 1.5; stroke-linecap: square"/>
   </g>
   <g id="line2d_43">
    <path d="M 491.342246 492.48 
L 500.77946 492.48 
L 501.004156 479.332174 
L 501.678242 479.332174 
L 501.902938 474.949565 
L 502.577025 474.949565 
L 502.80172 470.566957 
L 504.374589 470.566957 
L 504.599285 466.184348 
L 640.540107 466.184348 
L 640.540107 466.184348 
" clip-path="url(#p6af641ae2a)" style="fill: none; stroke: #008000; stroke-width: 1.5; stroke-linecap: square"/>
   </g>
   <g id="patch_15">
    <path d="M 483.882353 512.64 
L 483.882353 69.12 
" style="fill: none; stroke: #000000; stroke-width: 0.8; stroke-linejoin: miter; stroke-linecap: square"/>
   </g>
   <g id="patch_16">
    <path d="M 648 512.64 
L 648 69.12 
" style="fill: none; stroke: #000000; stroke-width: 0.8; stroke-linejoin: miter; stroke-linecap: square"/>
   </g>
   <g id="patch_17">
    <path d="M 483.882353 512.64 
L 648 512.64 
" style="fill: none; stroke: #000000; stroke-width: 0.8; stroke-linejoin: miter; stroke-linecap: square"/>
   </g>
   <g id="patch_18">
    <path d="M 483.882353 69.12 
L 648 69.12 
" style="fill: none; stroke: #000000; stroke-width: 0.8; stroke-linejoin: miter; stroke-linecap: square"/>
   </g>
   <g id="legend_3">
    <g id="patch_19">
     <path d="M 551.1625 314.397188 
L 641 314.397188 
Q 643 314.397188 643 312.397188 
L 643 269.362813 
Q 643 267.362813 641 267.362813 
L 551.1625 267.362813 
Q 549.1625 267.362813 549.1625 269.362813 
L 549.1625 312.397188 
Q 549.1625 314.397188 551.1625 314.397188 
z
" style="fill: #ffffff; opacity: 0.8; stroke: #cccccc; stroke-linejoin: miter"/>
    </g>
    <g id="line2d_44">
     <path d="M 553.1625 275.46125 
L 563.1625 275.46125 
L 573.1625 275.46125 
" style="fill: none; stroke: #0000ff; stroke-width: 1.5; stroke-linecap: square"/>
    </g>
    <g id="text_35">
     <!-- O1 ensured -->
     <g transform="translate(581.1625 278.96125) scale(0.1 -0.1)">
      <defs>
       <path id="DejaVuSans-6e" d="M 3513 2113 
L 3513 0 
L 2938 0 
L 2938 2094 
Q 2938 2591 2744 2837 
Q 2550 3084 2163 3084 
Q 1697 3084 1428 2787 
Q 1159 2491 1159 1978 
L 1159 0 
L 581 0 
L 581 3500 
L 1159 3500 
L 1159 2956 
Q 1366 3272 1645 3428 
Q 1925 3584 2291 3584 
Q 2894 3584 3203 3211 
Q 3513 2838 3513 2113 
z
" transform="scale(0.015625)"/>
      </defs>
      <use xlink:href="#DejaVuSans-4f"/>
      <use xlink:href="#DejaVuSans-31" x="78.710938"/>
      <use xlink:href="#DejaVuSans-20" x="142.333984"/>
      <use xlink:href="#DejaVuSans-65" x="174.121094"/>
      <use xlink:href="#DejaVuSans-6e" x="235.644531"/>
      <use xlink:href="#DejaVuSans-73" x="299.023438"/>
      <use xlink:href="#DejaVuSans-75" x="351.123047"/>
      <use xlink:href="#DejaVuSans-72" x="414.501953"/>
      <use xlink:href="#DejaVuSans-65" x="453.365234"/>
      <use xlink:href="#DejaVuSans-64" x="514.888672"/>
     </g>
    </g>
    <g id="line2d_45">
     <path d="M 553.1625 290.139375 
L 563.1625 290.139375 
L 573.1625 290.139375 
" style="fill: none; stroke: #ff0000; stroke-width: 1.5; stroke-linecap: square"/>
    </g>
    <g id="text_36">
     <!-- O2 ensured -->
     <g transform="translate(581.1625 293.639375) scale(0.1 -0.1)">
      <use xlink:href="#DejaVuSans-4f"/>
      <use xlink:href="#DejaVuSans-32" x="78.710938"/>
      <use xlink:href="#DejaVuSans-20" x="142.333984"/>
      <use xlink:href="#DejaVuSans-65" x="174.121094"/>
      <use xlink:href="#DejaVuSans-6e" x="235.644531"/>
      <use xlink:href="#DejaVuSans-73" x="299.023438"/>
      <use xlink:href="#DejaVuSans-75" x="351.123047"/>
      <use xlink:href="#DejaVuSans-72" x="414.501953"/>
      <use xlink:href="#DejaVuSans-65" x="453.365234"/>
      <use xlink:href="#DejaVuSans-64" x="514.888672"/>
     </g>
    </g>
    <g id="line2d_46">
     <path d="M 553.1625 304.8175 
L 563.1625 304.8175 
L 573.1625 304.8175 
" style="fill: none; stroke: #008000; stroke-width: 1.5; stroke-linecap: square"/>
    </g>
    <g id="text_37">
     <!-- O3 ensured -->
     <g transform="translate(581.1625 308.3175) scale(0.1 -0.1)">
      <use xlink:href="#DejaVuSans-4f"/>
      <use xlink:href="#DejaVuSans-33" x="78.710938"/>
      <use xlink:href="#DejaVuSans-20" x="142.333984"/>
      <use xlink:href="#DejaVuSans-65" x="174.121094"/>
      <use xlink:href="#DejaVuSans-6e" x="235.644531"/>
      <use xlink:href="#DejaVuSans-73" x="299.023438"/>
      <use xlink:href="#DejaVuSans-75" x="351.123047"/>
      <use xlink:href="#DejaVuSans-72" x="414.501953"/>
      <use xlink:href="#DejaVuSans-65" x="453.365234"/>
      <use xlink:href="#DejaVuSans-64" x="514.888672"/>
     </g>
    </g>
   </g>
  </g>
 </g>
 <defs>
  <clipPath id="pb77f7e04eb">
   <rect x="90" y="69.12" width="164.117647" height="443.52"/>
  </clipPath>
  <clipPath id="p7ecd773061">
   <rect x="286.941176" y="69.12" width="164.117647" height="443.52"/>
  </clipPath>
  <clipPath id="p6af641ae2a">
   <rect x="483.882353" y="69.12" width="164.117647" height="443.52"/>
  </clipPath>
 </defs>
</svg>
