<?xml version="1.0" encoding="utf-8" standalone="no"?>
<!DOCTYPE svg PUBLIC "-//W3C//DTD SVG 1.1//EN"
  "http://www.w3.org/Graphics/SVG/1.1/DTD/svg11.dtd">
<svg xmlns:xlink="http://www.w3.org/1999/xlink" width="720pt" height="576pt" viewBox="0 0 720 576" xmlns="http://www.w3.org/2000/svg" version="1.1">
 <metadata>
  <rdf:RDF xmlns:dc="http://purl.org/dc/elements/1.1/" xmlns:cc="http://creativecommons.org/ns#" xmlns:rdf="http://www.w3.org/1999/02/22-rdf-syntax-ns#">
   <cc:Work>
    <dc:type rdf:resource="http://purl.org/dc/dcmitype/StillImage"/>
    <dc:date>2023-06-01T16:18:19.777823</dc:date>
    <dc:format>image/svg+xml</dc:format>
    <dc:creator>
     <cc:Agent>
      <dc:title>Matplotlib v3.7.1, https://matplotlib.org/</dc:title>
     </cc:Agent>
    </dc:creator>
   </cc:Work>
  </rdf:RDF>
 </metadata>
 <defs>
  <style type="text/css">*{stroke-linejoin: round; stroke-linecap: butt}</style>
 </defs>
 <g id="figure_1">
  <g id="patch_1">
   <path d="M 0 576 
L 720 576 
L 720 0 
L 0 0 
z
" style="fill: #ffffff"/>
  </g>
  <g id="axes_1">
   <g id="patch_2">
    <path d="M 90 512.64 
L 254.117647 512.64 
L 254.117647 69.12 
L 90 69.12 
z
" style="fill: #ffffff"/>
   </g>
   <g id="matplotlib.axis_1">
    <g id="xtick_1">
     <g id="line2d_1">
      <defs>
       <path id="m204dd0e865" d="M 0 0 
L 0 3.5 
" style="stroke: #000000; stroke-width: 0.8"/>
      </defs>
      <g>
       <use xlink:href="#m204dd0e865" x="95.783513" y="512.64" style="stroke: #000000; stroke-width: 0.8"/>
      </g>
     </g>
     <g id="text_1">
      <!-- 0 -->
      <g transform="translate(92.602263 527.238438) scale(0.1 -0.1)">
       <defs>
        <path id="DejaVuSans-30" d="M 2034 4250 
Q 1547 4250 1301 3770 
Q 1056 3291 1056 2328 
Q 1056 1369 1301 889 
Q 1547 409 2034 409 
Q 2525 409 2770 889 
Q 3016 1369 3016 2328 
Q 3016 3291 2770 3770 
Q 2525 4250 2034 4250 
z
M 2034 4750 
Q 2819 4750 3233 4129 
Q 3647 3509 3647 2328 
Q 3647 1150 3233 529 
Q 2819 -91 2034 -91 
Q 1250 -91 836 529 
Q 422 1150 422 2328 
Q 422 3509 836 4129 
Q 1250 4750 2034 4750 
z
" transform="scale(0.015625)"/>
       </defs>
       <use xlink:href="#DejaVuSans-30"/>
      </g>
     </g>
    </g>
    <g id="xtick_2">
     <g id="line2d_2">
      <g>
       <use xlink:href="#m204dd0e865" x="129.311122" y="512.64" style="stroke: #000000; stroke-width: 0.8"/>
      </g>
     </g>
     <g id="text_2">
      <!-- 20 -->
      <g transform="translate(122.948622 527.238438) scale(0.1 -0.1)">
       <defs>
        <path id="DejaVuSans-32" d="M 1228 531 
L 3431 531 
L 3431 0 
L 469 0 
L 469 531 
Q 828 903 1448 1529 
Q 2069 2156 2228 2338 
Q 2531 2678 2651 2914 
Q 2772 3150 2772 3378 
Q 2772 3750 2511 3984 
Q 2250 4219 1831 4219 
Q 1534 4219 1204 4116 
Q 875 4013 500 3803 
L 500 4441 
Q 881 4594 1212 4672 
Q 1544 4750 1819 4750 
Q 2544 4750 2975 4387 
Q 3406 4025 3406 3419 
Q 3406 3131 3298 2873 
Q 3191 2616 2906 2266 
Q 2828 2175 2409 1742 
Q 1991 1309 1228 531 
z
" transform="scale(0.015625)"/>
       </defs>
       <use xlink:href="#DejaVuSans-32"/>
       <use xlink:href="#DejaVuSans-30" x="63.623047"/>
      </g>
     </g>
    </g>
    <g id="xtick_3">
     <g id="line2d_3">
      <g>
       <use xlink:href="#m204dd0e865" x="162.838731" y="512.64" style="stroke: #000000; stroke-width: 0.8"/>
      </g>
     </g>
     <g id="text_3">
      <!-- 40 -->
      <g transform="translate(156.476231 527.238438) scale(0.1 -0.1)">
       <defs>
        <path id="DejaVuSans-34" d="M 2419 4116 
L 825 1625 
L 2419 1625 
L 2419 4116 
z
M 2253 4666 
L 3047 4666 
L 3047 1625 
L 3713 1625 
L 3713 1100 
L 3047 1100 
L 3047 0 
L 2419 0 
L 2419 1100 
L 313 1100 
L 313 1709 
L 2253 4666 
z
" transform="scale(0.015625)"/>
       </defs>
       <use xlink:href="#DejaVuSans-34"/>
       <use xlink:href="#DejaVuSans-30" x="63.623047"/>
      </g>
     </g>
    </g>
    <g id="xtick_4">
     <g id="line2d_4">
      <g>
       <use xlink:href="#m204dd0e865" x="196.36634" y="512.64" style="stroke: #000000; stroke-width: 0.8"/>
      </g>
     </g>
     <g id="text_4">
      <!-- 60 -->
      <g transform="translate(190.00384 527.238438) scale(0.1 -0.1)">
       <defs>
        <path id="DejaVuSans-36" d="M 2113 2584 
Q 1688 2584 1439 2293 
Q 1191 2003 1191 1497 
Q 1191 994 1439 701 
Q 1688 409 2113 409 
Q 2538 409 2786 701 
Q 3034 994 3034 1497 
Q 3034 2003 2786 2293 
Q 2538 2584 2113 2584 
z
M 3366 4563 
L 3366 3988 
Q 3128 4100 2886 4159 
Q 2644 4219 2406 4219 
Q 1781 4219 1451 3797 
Q 1122 3375 1075 2522 
Q 1259 2794 1537 2939 
Q 1816 3084 2150 3084 
Q 2853 3084 3261 2657 
Q 3669 2231 3669 1497 
Q 3669 778 3244 343 
Q 2819 -91 2113 -91 
Q 1303 -91 875 529 
Q 447 1150 447 2328 
Q 447 3434 972 4092 
Q 1497 4750 2381 4750 
Q 2619 4750 2861 4703 
Q 3103 4656 3366 4563 
z
" transform="scale(0.015625)"/>
       </defs>
       <use xlink:href="#DejaVuSans-36"/>
       <use xlink:href="#DejaVuSans-30" x="63.623047"/>
      </g>
     </g>
    </g>
    <g id="xtick_5">
     <g id="line2d_5">
      <g>
       <use xlink:href="#m204dd0e865" x="229.893949" y="512.64" style="stroke: #000000; stroke-width: 0.8"/>
      </g>
     </g>
     <g id="text_5">
      <!-- 80 -->
      <g transform="translate(223.531449 527.238438) scale(0.1 -0.1)">
       <defs>
        <path id="DejaVuSans-38" d="M 2034 2216 
Q 1584 2216 1326 1975 
Q 1069 1734 1069 1313 
Q 1069 891 1326 650 
Q 1584 409 2034 409 
Q 2484 409 2743 651 
Q 3003 894 3003 1313 
Q 3003 1734 2745 1975 
Q 2488 2216 2034 2216 
z
M 1403 2484 
Q 997 2584 770 2862 
Q 544 3141 544 3541 
Q 544 4100 942 4425 
Q 1341 4750 2034 4750 
Q 2731 4750 3128 4425 
Q 3525 4100 3525 3541 
Q 3525 3141 3298 2862 
Q 3072 2584 2669 2484 
Q 3125 2378 3379 2068 
Q 3634 1759 3634 1313 
Q 3634 634 3220 271 
Q 2806 -91 2034 -91 
Q 1263 -91 848 271 
Q 434 634 434 1313 
Q 434 1759 690 2068 
Q 947 2378 1403 2484 
z
M 1172 3481 
Q 1172 3119 1398 2916 
Q 1625 2713 2034 2713 
Q 2441 2713 2670 2916 
Q 2900 3119 2900 3481 
Q 2900 3844 2670 4047 
Q 2441 4250 2034 4250 
Q 1625 4250 1398 4047 
Q 1172 3844 1172 3481 
z
" transform="scale(0.015625)"/>
       </defs>
       <use xlink:href="#DejaVuSans-38"/>
       <use xlink:href="#DejaVuSans-30" x="63.623047"/>
      </g>
     </g>
    </g>
   </g>
   <g id="matplotlib.axis_2">
    <g id="ytick_1">
     <g id="line2d_6">
      <defs>
       <path id="m6fa5f0d158" d="M 0 0 
L -3.5 0 
" style="stroke: #000000; stroke-width: 0.8"/>
      </defs>
      <g>
       <use xlink:href="#m6fa5f0d158" x="90" y="461.464615" style="stroke: #000000; stroke-width: 0.8"/>
      </g>
     </g>
     <g id="text_6">
      <!-- 0.00 -->
      <g transform="translate(60.734375 465.263834) scale(0.1 -0.1)">
       <defs>
        <path id="DejaVuSans-2e" d="M 684 794 
L 1344 794 
L 1344 0 
L 684 0 
L 684 794 
z
" transform="scale(0.015625)"/>
       </defs>
       <use xlink:href="#DejaVuSans-30"/>
       <use xlink:href="#DejaVuSans-2e" x="63.623047"/>
       <use xlink:href="#DejaVuSans-30" x="95.410156"/>
       <use xlink:href="#DejaVuSans-30" x="159.033203"/>
      </g>
     </g>
    </g>
    <g id="ytick_2">
     <g id="line2d_7">
      <g>
       <use xlink:href="#m6fa5f0d158" x="90" y="405.636923" style="stroke: #000000; stroke-width: 0.8"/>
      </g>
     </g>
     <g id="text_7">
      <!-- 0.05 -->
      <g transform="translate(60.734375 409.436142) scale(0.1 -0.1)">
       <defs>
        <path id="DejaVuSans-35" d="M 691 4666 
L 3169 4666 
L 3169 4134 
L 1269 4134 
L 1269 2991 
Q 1406 3038 1543 3061 
Q 1681 3084 1819 3084 
Q 2600 3084 3056 2656 
Q 3513 2228 3513 1497 
Q 3513 744 3044 326 
Q 2575 -91 1722 -91 
Q 1428 -91 1123 -41 
Q 819 9 494 109 
L 494 744 
Q 775 591 1075 516 
Q 1375 441 1709 441 
Q 2250 441 2565 725 
Q 2881 1009 2881 1497 
Q 2881 1984 2565 2268 
Q 2250 2553 1709 2553 
Q 1456 2553 1204 2497 
Q 953 2441 691 2322 
L 691 4666 
z
" transform="scale(0.015625)"/>
       </defs>
       <use xlink:href="#DejaVuSans-30"/>
       <use xlink:href="#DejaVuSans-2e" x="63.623047"/>
       <use xlink:href="#DejaVuSans-30" x="95.410156"/>
       <use xlink:href="#DejaVuSans-35" x="159.033203"/>
      </g>
     </g>
    </g>
    <g id="ytick_3">
     <g id="line2d_8">
      <g>
       <use xlink:href="#m6fa5f0d158" x="90" y="349.809231" style="stroke: #000000; stroke-width: 0.8"/>
      </g>
     </g>
     <g id="text_8">
      <!-- 0.10 -->
      <g transform="translate(60.734375 353.60845) scale(0.1 -0.1)">
       <defs>
        <path id="DejaVuSans-31" d="M 794 531 
L 1825 531 
L 1825 4091 
L 703 3866 
L 703 4441 
L 1819 4666 
L 2450 4666 
L 2450 531 
L 3481 531 
L 3481 0 
L 794 0 
L 794 531 
z
" transform="scale(0.015625)"/>
       </defs>
       <use xlink:href="#DejaVuSans-30"/>
       <use xlink:href="#DejaVuSans-2e" x="63.623047"/>
       <use xlink:href="#DejaVuSans-31" x="95.410156"/>
       <use xlink:href="#DejaVuSans-30" x="159.033203"/>
      </g>
     </g>
    </g>
    <g id="ytick_4">
     <g id="line2d_9">
      <g>
       <use xlink:href="#m6fa5f0d158" x="90" y="293.981538" style="stroke: #000000; stroke-width: 0.8"/>
      </g>
     </g>
     <g id="text_9">
      <!-- 0.15 -->
      <g transform="translate(60.734375 297.780757) scale(0.1 -0.1)">
       <use xlink:href="#DejaVuSans-30"/>
       <use xlink:href="#DejaVuSans-2e" x="63.623047"/>
       <use xlink:href="#DejaVuSans-31" x="95.410156"/>
       <use xlink:href="#DejaVuSans-35" x="159.033203"/>
      </g>
     </g>
    </g>
    <g id="ytick_5">
     <g id="line2d_10">
      <g>
       <use xlink:href="#m6fa5f0d158" x="90" y="238.153846" style="stroke: #000000; stroke-width: 0.8"/>
      </g>
     </g>
     <g id="text_10">
      <!-- 0.20 -->
      <g transform="translate(60.734375 241.953065) scale(0.1 -0.1)">
       <use xlink:href="#DejaVuSans-30"/>
       <use xlink:href="#DejaVuSans-2e" x="63.623047"/>
       <use xlink:href="#DejaVuSans-32" x="95.410156"/>
       <use xlink:href="#DejaVuSans-30" x="159.033203"/>
      </g>
     </g>
    </g>
    <g id="ytick_6">
     <g id="line2d_11">
      <g>
       <use xlink:href="#m6fa5f0d158" x="90" y="182.326154" style="stroke: #000000; stroke-width: 0.8"/>
      </g>
     </g>
     <g id="text_11">
      <!-- 0.25 -->
      <g transform="translate(60.734375 186.125373) scale(0.1 -0.1)">
       <use xlink:href="#DejaVuSans-30"/>
       <use xlink:href="#DejaVuSans-2e" x="63.623047"/>
       <use xlink:href="#DejaVuSans-32" x="95.410156"/>
       <use xlink:href="#DejaVuSans-35" x="159.033203"/>
      </g>
     </g>
    </g>
    <g id="ytick_7">
     <g id="line2d_12">
      <g>
       <use xlink:href="#m6fa5f0d158" x="90" y="126.498462" style="stroke: #000000; stroke-width: 0.8"/>
      </g>
     </g>
     <g id="text_12">
      <!-- 0.30 -->
      <g transform="translate(60.734375 130.29768) scale(0.1 -0.1)">
       <defs>
        <path id="DejaVuSans-33" d="M 2597 2516 
Q 3050 2419 3304 2112 
Q 3559 1806 3559 1356 
Q 3559 666 3084 287 
Q 2609 -91 1734 -91 
Q 1441 -91 1130 -33 
Q 819 25 488 141 
L 488 750 
Q 750 597 1062 519 
Q 1375 441 1716 441 
Q 2309 441 2620 675 
Q 2931 909 2931 1356 
Q 2931 1769 2642 2001 
Q 2353 2234 1838 2234 
L 1294 2234 
L 1294 2753 
L 1863 2753 
Q 2328 2753 2575 2939 
Q 2822 3125 2822 3475 
Q 2822 3834 2567 4026 
Q 2313 4219 1838 4219 
Q 1578 4219 1281 4162 
Q 984 4106 628 3988 
L 628 4550 
Q 988 4650 1302 4700 
Q 1616 4750 1894 4750 
Q 2613 4750 3031 4423 
Q 3450 4097 3450 3541 
Q 3450 3153 3228 2886 
Q 3006 2619 2597 2516 
z
" transform="scale(0.015625)"/>
       </defs>
       <use xlink:href="#DejaVuSans-30"/>
       <use xlink:href="#DejaVuSans-2e" x="63.623047"/>
       <use xlink:href="#DejaVuSans-33" x="95.410156"/>
       <use xlink:href="#DejaVuSans-30" x="159.033203"/>
      </g>
     </g>
    </g>
    <g id="ytick_8">
     <g id="line2d_13">
      <g>
       <use xlink:href="#m6fa5f0d158" x="90" y="70.670769" style="stroke: #000000; stroke-width: 0.8"/>
      </g>
     </g>
     <g id="text_13">
      <!-- 0.35 -->
      <g transform="translate(60.734375 74.469988) scale(0.1 -0.1)">
       <use xlink:href="#DejaVuSans-30"/>
       <use xlink:href="#DejaVuSans-2e" x="63.623047"/>
       <use xlink:href="#DejaVuSans-33" x="95.410156"/>
       <use xlink:href="#DejaVuSans-35" x="159.033203"/>
      </g>
     </g>
    </g>
   </g>
   <g id="line2d_14">
    <path d="M 97.459893 461.464615 
L 99.136274 461.464615 
L 100.812654 461.464615 
L 102.489034 461.464615 
L 104.165415 461.464615 
L 105.841795 89.28 
L 107.518176 89.28 
L 109.194556 89.28 
L 110.870937 89.28 
L 112.547317 89.28 
L 114.223698 89.28 
L 115.900078 89.28 
L 117.576459 89.28 
L 119.252839 89.28 
L 120.929219 89.28 
L 122.6056 89.28 
L 124.28198 89.28 
L 125.958361 89.28 
L 127.634741 89.28 
L 129.311122 89.28 
L 130.987502 89.28 
L 132.663883 89.28 
L 134.340263 89.28 
L 136.016644 275.372308 
L 137.693024 275.372308 
L 139.369405 275.372308 
L 141.045785 275.372308 
L 142.722165 275.372308 
L 144.398546 275.372308 
L 146.074926 151.310769 
L 147.751307 151.310769 
L 149.427687 151.310769 
L 151.104068 151.310769 
L 152.780448 151.310769 
L 154.456829 151.310769 
L 156.133209 120.295385 
L 157.80959 120.295385 
L 159.48597 120.295385 
L 161.162351 120.295385 
L 162.838731 120.295385 
L 164.515111 120.295385 
L 166.191492 209.796923 
L 167.867872 209.796923 
L 169.544253 209.796923 
L 171.220633 209.796923 
L 172.897014 209.796923 
L 174.573394 209.796923 
L 176.249775 252.627692 
L 177.926155 252.627692 
L 179.602536 252.627692 
L 181.278916 252.627692 
L 182.955297 252.627692 
L 184.631677 252.627692 
L 186.308057 288.096568 
L 187.984438 288.096568 
L 189.660818 288.096568 
L 191.337199 288.096568 
L 193.013579 288.096568 
L 194.68996 288.096568 
L 196.36634 301.735385 
L 198.042721 301.735385 
L 199.719101 301.735385 
L 201.395482 301.735385 
L 203.071862 301.735385 
L 204.748243 301.735385 
L 206.424623 308.502378 
L 208.101003 308.502378 
L 209.777384 308.502378 
L 211.453764 308.502378 
L 213.130145 308.502378 
L 214.806525 308.502378 
L 216.482906 329.143 
L 218.159286 329.143 
L 219.835667 329.143 
L 221.512047 329.143 
L 223.188428 329.143 
L 224.864808 329.143 
L 226.541188 340.061538 
L 228.217569 340.061538 
L 229.893949 340.061538 
L 231.57033 340.061538 
L 233.24671 340.061538 
L 234.923091 340.061538 
L 236.599471 347.593846 
L 238.275852 347.593846 
L 239.952232 347.593846 
L 241.628613 347.593846 
L 243.304993 347.593846 
L 244.981374 347.593846 
L 246.657754 354.304214 
" clip-path="url(#pe73d86fcc5)" style="fill: none; stroke: #0000ff; stroke-width: 1.5; stroke-linecap: square"/>
   </g>
   <g id="line2d_15">
    <path d="M 97.459893 461.464615 
L 99.136274 461.464615 
L 100.812654 461.464615 
L 102.489034 461.464615 
L 104.165415 461.464615 
L 105.841795 461.464615 
L 107.518176 461.464615 
L 109.194556 461.464615 
L 110.870937 461.464615 
L 112.547317 461.464615 
L 114.223698 461.464615 
L 115.900078 275.372308 
L 117.576459 275.372308 
L 119.252839 275.372308 
L 120.929219 275.372308 
L 122.6056 275.372308 
L 124.28198 275.372308 
L 125.958361 461.464615 
L 127.634741 461.464615 
L 129.311122 461.464615 
L 130.987502 461.464615 
L 132.663883 461.464615 
L 134.340263 461.464615 
L 136.016644 492.48 
L 137.693024 492.48 
L 139.369405 492.48 
L 141.045785 492.48 
L 142.722165 492.48 
L 144.398546 492.48 
L 146.074926 484.021259 
L 147.751307 484.021259 
L 149.427687 484.021259 
L 151.104068 484.021259 
L 152.780448 484.021259 
L 154.456829 484.021259 
L 156.133209 313.545089 
L 157.80959 313.545089 
L 159.48597 313.545089 
L 161.162351 313.545089 
L 162.838731 313.545089 
L 164.515111 313.545089 
L 166.191492 328.541538 
L 167.867872 328.541538 
L 169.544253 328.541538 
L 171.220633 328.541538 
L 172.897014 328.541538 
L 174.573394 328.541538 
L 176.249775 309.046154 
L 177.926155 309.046154 
L 179.602536 309.046154 
L 181.278916 309.046154 
L 182.955297 309.046154 
L 184.631677 309.046154 
L 186.308057 245.464615 
L 187.984438 245.464615 
L 189.660818 245.464615 
L 191.337199 245.464615 
L 193.013579 245.464615 
L 194.68996 245.464615 
L 196.36634 263.828988 
L 198.042721 263.828988 
L 199.719101 263.828988 
L 201.395482 263.828988 
L 203.071862 263.828988 
L 204.748243 263.828988 
L 206.424623 283.831049 
L 208.101003 283.831049 
L 209.777384 283.831049 
L 211.453764 283.831049 
L 213.130145 283.831049 
L 214.806525 283.831049 
L 216.482906 283.831049 
L 218.159286 283.831049 
L 219.835667 283.831049 
L 221.512047 283.831049 
L 223.188428 283.831049 
L 224.864808 283.831049 
L 226.541188 287.508763 
L 228.217569 287.508763 
L 229.893949 287.508763 
L 231.57033 287.508763 
L 233.24671 287.508763 
L 234.923091 287.508763 
L 236.599471 308.455385 
L 238.275852 308.455385 
L 239.952232 308.455385 
L 241.628613 308.455385 
L 243.304993 308.455385 
L 244.981374 308.455385 
L 246.657754 313.969231 
" clip-path="url(#pe73d86fcc5)" style="fill: none; stroke: #ff0000; stroke-width: 1.5; stroke-linecap: square"/>
   </g>
   <g id="line2d_16">
    <path d="M 97.459893 461.464615 
L 99.136274 461.464615 
L 100.812654 461.464615 
L 102.489034 461.464615 
L 104.165415 461.464615 
L 105.841795 275.372308 
L 107.518176 275.372308 
L 109.194556 275.372308 
L 110.870937 275.372308 
L 112.547317 275.372308 
L 114.223698 275.372308 
L 115.900078 275.372308 
L 117.576459 275.372308 
L 119.252839 275.372308 
L 120.929219 275.372308 
L 122.6056 275.372308 
L 124.28198 275.372308 
L 125.958361 275.372308 
L 127.634741 275.372308 
L 129.311122 275.372308 
L 130.987502 275.372308 
L 132.663883 275.372308 
L 134.340263 275.372308 
L 136.016644 228.849231 
L 137.693024 228.849231 
L 139.369405 228.849231 
L 141.045785 228.849231 
L 142.722165 228.849231 
L 144.398546 228.849231 
L 146.074926 238.153846 
L 147.751307 238.153846 
L 149.427687 238.153846 
L 151.104068 238.153846 
L 152.780448 238.153846 
L 154.456829 238.153846 
L 156.133209 114.092308 
L 157.80959 114.092308 
L 159.48597 114.092308 
L 161.162351 114.092308 
L 162.838731 114.092308 
L 164.515111 114.092308 
L 166.191492 114.092308 
L 167.867872 114.092308 
L 169.544253 114.092308 
L 171.220633 114.092308 
L 172.897014 114.092308 
L 174.573394 114.092308 
L 176.249775 114.092308 
L 177.926155 114.092308 
L 179.602536 114.092308 
L 181.278916 114.092308 
L 182.955297 114.092308 
L 184.631677 114.092308 
L 186.308057 114.092308 
L 187.984438 114.092308 
L 189.660818 114.092308 
L 191.337199 114.092308 
L 193.013579 114.092308 
L 194.68996 114.092308 
L 196.36634 114.092308 
L 198.042721 114.092308 
L 199.719101 114.092308 
L 201.395482 114.092308 
L 203.071862 114.092308 
L 204.748243 114.092308 
L 206.424623 114.092308 
L 208.101003 114.092308 
L 209.777384 114.092308 
L 211.453764 114.092308 
L 213.130145 114.092308 
L 214.806525 114.092308 
L 216.482906 114.092308 
L 218.159286 114.092308 
L 219.835667 114.092308 
L 221.512047 114.092308 
L 223.188428 114.092308 
L 224.864808 114.092308 
L 226.541188 114.092308 
L 228.217569 114.092308 
L 229.893949 114.092308 
L 231.57033 114.092308 
L 233.24671 114.092308 
L 234.923091 114.092308 
L 236.599471 114.092308 
L 238.275852 114.092308 
L 239.952232 114.092308 
L 241.628613 114.092308 
L 243.304993 114.092308 
L 244.981374 114.092308 
L 246.657754 114.092308 
" clip-path="url(#pe73d86fcc5)" style="fill: none; stroke: #008000; stroke-width: 1.5; stroke-linecap: square"/>
   </g>
   <g id="patch_3">
    <path d="M 90 512.64 
L 90 69.12 
" style="fill: none; stroke: #000000; stroke-width: 0.8; stroke-linejoin: miter; stroke-linecap: square"/>
   </g>
   <g id="patch_4">
    <path d="M 254.117647 512.64 
L 254.117647 69.12 
" style="fill: none; stroke: #000000; stroke-width: 0.8; stroke-linejoin: miter; stroke-linecap: square"/>
   </g>
   <g id="patch_5">
    <path d="M 90 512.64 
L 254.117647 512.64 
" style="fill: none; stroke: #000000; stroke-width: 0.8; stroke-linejoin: miter; stroke-linecap: square"/>
   </g>
   <g id="patch_6">
    <path d="M 90 69.12 
L 254.117647 69.12 
" style="fill: none; stroke: #000000; stroke-width: 0.8; stroke-linejoin: miter; stroke-linecap: square"/>
   </g>
   <g id="legend_1">
    <g id="patch_7">
     <path d="M 169.273897 507.64 
L 247.117647 507.64 
Q 249.117647 507.64 249.117647 505.64 
L 249.117647 462.605625 
Q 249.117647 460.605625 247.117647 460.605625 
L 169.273897 460.605625 
Q 167.273897 460.605625 167.273897 462.605625 
L 167.273897 505.64 
Q 167.273897 507.64 169.273897 507.64 
z
" style="fill: #ffffff; opacity: 0.8; stroke: #cccccc; stroke-linejoin: miter"/>
    </g>
    <g id="line2d_17">
     <path d="M 171.273897 468.704063 
L 181.273897 468.704063 
L 191.273897 468.704063 
" style="fill: none; stroke: #0000ff; stroke-width: 1.5; stroke-linecap: square"/>
    </g>
    <g id="text_14">
     <!-- O1 utility -->
     <g transform="translate(199.273897 472.204063) scale(0.1 -0.1)">
      <defs>
       <path id="DejaVuSans-4f" d="M 2522 4238 
Q 1834 4238 1429 3725 
Q 1025 3213 1025 2328 
Q 1025 1447 1429 934 
Q 1834 422 2522 422 
Q 3209 422 3611 934 
Q 4013 1447 4013 2328 
Q 4013 3213 3611 3725 
Q 3209 4238 2522 4238 
z
M 2522 4750 
Q 3503 4750 4090 4092 
Q 4678 3434 4678 2328 
Q 4678 1225 4090 567 
Q 3503 -91 2522 -91 
Q 1538 -91 948 565 
Q 359 1222 359 2328 
Q 359 3434 948 4092 
Q 1538 4750 2522 4750 
z
" transform="scale(0.015625)"/>
       <path id="DejaVuSans-20" transform="scale(0.015625)"/>
       <path id="DejaVuSans-75" d="M 544 1381 
L 544 3500 
L 1119 3500 
L 1119 1403 
Q 1119 906 1312 657 
Q 1506 409 1894 409 
Q 2359 409 2629 706 
Q 2900 1003 2900 1516 
L 2900 3500 
L 3475 3500 
L 3475 0 
L 2900 0 
L 2900 538 
Q 2691 219 2414 64 
Q 2138 -91 1772 -91 
Q 1169 -91 856 284 
Q 544 659 544 1381 
z
M 1991 3584 
L 1991 3584 
z
" transform="scale(0.015625)"/>
       <path id="DejaVuSans-74" d="M 1172 4494 
L 1172 3500 
L 2356 3500 
L 2356 3053 
L 1172 3053 
L 1172 1153 
Q 1172 725 1289 603 
Q 1406 481 1766 481 
L 2356 481 
L 2356 0 
L 1766 0 
Q 1100 0 847 248 
Q 594 497 594 1153 
L 594 3053 
L 172 3053 
L 172 3500 
L 594 3500 
L 594 4494 
L 1172 4494 
z
" transform="scale(0.015625)"/>
       <path id="DejaVuSans-69" d="M 603 3500 
L 1178 3500 
L 1178 0 
L 603 0 
L 603 3500 
z
M 603 4863 
L 1178 4863 
L 1178 4134 
L 603 4134 
L 603 4863 
z
" transform="scale(0.015625)"/>
       <path id="DejaVuSans-6c" d="M 603 4863 
L 1178 4863 
L 1178 0 
L 603 0 
L 603 4863 
z
" transform="scale(0.015625)"/>
       <path id="DejaVuSans-79" d="M 2059 -325 
Q 1816 -950 1584 -1140 
Q 1353 -1331 966 -1331 
L 506 -1331 
L 506 -850 
L 844 -850 
Q 1081 -850 1212 -737 
Q 1344 -625 1503 -206 
L 1606 56 
L 191 3500 
L 800 3500 
L 1894 763 
L 2988 3500 
L 3597 3500 
L 2059 -325 
z
" transform="scale(0.015625)"/>
      </defs>
      <use xlink:href="#DejaVuSans-4f"/>
      <use xlink:href="#DejaVuSans-31" x="78.710938"/>
      <use xlink:href="#DejaVuSans-20" x="142.333984"/>
      <use xlink:href="#DejaVuSans-75" x="174.121094"/>
      <use xlink:href="#DejaVuSans-74" x="237.5"/>
      <use xlink:href="#DejaVuSans-69" x="276.708984"/>
      <use xlink:href="#DejaVuSans-6c" x="304.492188"/>
      <use xlink:href="#DejaVuSans-69" x="332.275391"/>
      <use xlink:href="#DejaVuSans-74" x="360.058594"/>
      <use xlink:href="#DejaVuSans-79" x="399.267578"/>
     </g>
    </g>
    <g id="line2d_18">
     <path d="M 171.273897 483.382187 
L 181.273897 483.382187 
L 191.273897 483.382187 
" style="fill: none; stroke: #ff0000; stroke-width: 1.5; stroke-linecap: square"/>
    </g>
    <g id="text_15">
     <!-- O2 utility -->
     <g transform="translate(199.273897 486.882187) scale(0.1 -0.1)">
      <use xlink:href="#DejaVuSans-4f"/>
      <use xlink:href="#DejaVuSans-32" x="78.710938"/>
      <use xlink:href="#DejaVuSans-20" x="142.333984"/>
      <use xlink:href="#DejaVuSans-75" x="174.121094"/>
      <use xlink:href="#DejaVuSans-74" x="237.5"/>
      <use xlink:href="#DejaVuSans-69" x="276.708984"/>
      <use xlink:href="#DejaVuSans-6c" x="304.492188"/>
      <use xlink:href="#DejaVuSans-69" x="332.275391"/>
      <use xlink:href="#DejaVuSans-74" x="360.058594"/>
      <use xlink:href="#DejaVuSans-79" x="399.267578"/>
     </g>
    </g>
    <g id="line2d_19">
     <path d="M 171.273897 498.060313 
L 181.273897 498.060313 
L 191.273897 498.060313 
" style="fill: none; stroke: #008000; stroke-width: 1.5; stroke-linecap: square"/>
    </g>
    <g id="text_16">
     <!-- O3 utility -->
     <g transform="translate(199.273897 501.560313) scale(0.1 -0.1)">
      <use xlink:href="#DejaVuSans-4f"/>
      <use xlink:href="#DejaVuSans-33" x="78.710938"/>
      <use xlink:href="#DejaVuSans-20" x="142.333984"/>
      <use xlink:href="#DejaVuSans-75" x="174.121094"/>
      <use xlink:href="#DejaVuSans-74" x="237.5"/>
      <use xlink:href="#DejaVuSans-69" x="276.708984"/>
      <use xlink:href="#DejaVuSans-6c" x="304.492188"/>
      <use xlink:href="#DejaVuSans-69" x="332.275391"/>
      <use xlink:href="#DejaVuSans-74" x="360.058594"/>
      <use xlink:href="#DejaVuSans-79" x="399.267578"/>
     </g>
    </g>
   </g>
  </g>
  <g id="axes_2">
   <g id="patch_8">
    <path d="M 286.941176 512.64 
L 451.058824 512.64 
L 451.058824 69.12 
L 286.941176 69.12 
z
" style="fill: #ffffff"/>
   </g>
   <g id="matplotlib.axis_3">
    <g id="xtick_6">
     <g id="line2d_20">
      <g>
       <use xlink:href="#m204dd0e865" x="292.724689" y="512.64" style="stroke: #000000; stroke-width: 0.8"/>
      </g>
     </g>
     <g id="text_17">
      <!-- 0 -->
      <g transform="translate(289.543439 527.238438) scale(0.1 -0.1)">
       <use xlink:href="#DejaVuSans-30"/>
      </g>
     </g>
    </g>
    <g id="xtick_7">
     <g id="line2d_21">
      <g>
       <use xlink:href="#m204dd0e865" x="326.252298" y="512.64" style="stroke: #000000; stroke-width: 0.8"/>
      </g>
     </g>
     <g id="text_18">
      <!-- 20 -->
      <g transform="translate(319.889798 527.238438) scale(0.1 -0.1)">
       <use xlink:href="#DejaVuSans-32"/>
       <use xlink:href="#DejaVuSans-30" x="63.623047"/>
      </g>
     </g>
    </g>
    <g id="xtick_8">
     <g id="line2d_22">
      <g>
       <use xlink:href="#m204dd0e865" x="359.779907" y="512.64" style="stroke: #000000; stroke-width: 0.8"/>
      </g>
     </g>
     <g id="text_19">
      <!-- 40 -->
      <g transform="translate(353.417407 527.238438) scale(0.1 -0.1)">
       <use xlink:href="#DejaVuSans-34"/>
       <use xlink:href="#DejaVuSans-30" x="63.623047"/>
      </g>
     </g>
    </g>
    <g id="xtick_9">
     <g id="line2d_23">
      <g>
       <use xlink:href="#m204dd0e865" x="393.307517" y="512.64" style="stroke: #000000; stroke-width: 0.8"/>
      </g>
     </g>
     <g id="text_20">
      <!-- 60 -->
      <g transform="translate(386.945017 527.238438) scale(0.1 -0.1)">
       <use xlink:href="#DejaVuSans-36"/>
       <use xlink:href="#DejaVuSans-30" x="63.623047"/>
      </g>
     </g>
    </g>
    <g id="xtick_10">
     <g id="line2d_24">
      <g>
       <use xlink:href="#m204dd0e865" x="426.835126" y="512.64" style="stroke: #000000; stroke-width: 0.8"/>
      </g>
     </g>
     <g id="text_21">
      <!-- 80 -->
      <g transform="translate(420.472626 527.238438) scale(0.1 -0.1)">
       <use xlink:href="#DejaVuSans-38"/>
       <use xlink:href="#DejaVuSans-30" x="63.623047"/>
      </g>
     </g>
    </g>
   </g>
   <g id="matplotlib.axis_4">
    <g id="ytick_9">
     <g id="line2d_25">
      <g>
       <use xlink:href="#m6fa5f0d158" x="286.941176" y="492.48" style="stroke: #000000; stroke-width: 0.8"/>
      </g>
     </g>
     <g id="text_22">
      <!-- 0 -->
      <g transform="translate(273.578676 496.279219) scale(0.1 -0.1)">
       <use xlink:href="#DejaVuSans-30"/>
      </g>
     </g>
    </g>
    <g id="ytick_10">
     <g id="line2d_26">
      <g>
       <use xlink:href="#m6fa5f0d158" x="286.941176" y="406.692766" style="stroke: #000000; stroke-width: 0.8"/>
      </g>
     </g>
     <g id="text_23">
      <!-- 10 -->
      <g transform="translate(267.216176 410.491985) scale(0.1 -0.1)">
       <use xlink:href="#DejaVuSans-31"/>
       <use xlink:href="#DejaVuSans-30" x="63.623047"/>
      </g>
     </g>
    </g>
    <g id="ytick_11">
     <g id="line2d_27">
      <g>
       <use xlink:href="#m6fa5f0d158" x="286.941176" y="320.905532" style="stroke: #000000; stroke-width: 0.8"/>
      </g>
     </g>
     <g id="text_24">
      <!-- 20 -->
      <g transform="translate(267.216176 324.704751) scale(0.1 -0.1)">
       <use xlink:href="#DejaVuSans-32"/>
       <use xlink:href="#DejaVuSans-30" x="63.623047"/>
      </g>
     </g>
    </g>
    <g id="ytick_12">
     <g id="line2d_28">
      <g>
       <use xlink:href="#m6fa5f0d158" x="286.941176" y="235.118298" style="stroke: #000000; stroke-width: 0.8"/>
      </g>
     </g>
     <g id="text_25">
      <!-- 30 -->
      <g transform="translate(267.216176 238.917517) scale(0.1 -0.1)">
       <use xlink:href="#DejaVuSans-33"/>
       <use xlink:href="#DejaVuSans-30" x="63.623047"/>
      </g>
     </g>
    </g>
    <g id="ytick_13">
     <g id="line2d_29">
      <g>
       <use xlink:href="#m6fa5f0d158" x="286.941176" y="149.331064" style="stroke: #000000; stroke-width: 0.8"/>
      </g>
     </g>
     <g id="text_26">
      <!-- 40 -->
      <g transform="translate(267.216176 153.130283) scale(0.1 -0.1)">
       <use xlink:href="#DejaVuSans-34"/>
       <use xlink:href="#DejaVuSans-30" x="63.623047"/>
      </g>
     </g>
    </g>
   </g>
   <g id="line2d_30">
    <path d="M 294.40107 492.48 
L 296.07745 492.48 
L 297.75383 492.48 
L 299.430211 492.48 
L 301.106591 492.48 
L 302.782972 483.901277 
L 304.459352 483.901277 
L 306.135733 483.901277 
L 307.812113 483.901277 
L 309.488494 483.901277 
L 311.164874 483.901277 
L 312.841255 475.322553 
L 314.517635 475.322553 
L 316.194016 475.322553 
L 317.870396 475.322553 
L 319.546776 475.322553 
L 321.223157 475.322553 
L 322.899537 449.586383 
L 324.575918 449.586383 
L 326.252298 449.586383 
L 327.928679 449.586383 
L 329.605059 449.586383 
L 331.28144 449.586383 
L 332.95782 432.428936 
L 334.634201 432.428936 
L 336.310581 432.428936 
L 337.986961 432.428936 
L 339.663342 432.428936 
L 341.339722 432.428936 
L 343.016103 406.692766 
L 344.692483 406.692766 
L 346.368864 406.692766 
L 348.045244 406.692766 
L 349.721625 406.692766 
L 351.398005 406.692766 
L 353.074386 389.535319 
L 354.750766 389.535319 
L 356.427147 389.535319 
L 358.103527 389.535319 
L 359.779907 389.535319 
L 361.456288 389.535319 
L 363.132668 363.799149 
L 364.809049 363.799149 
L 366.485429 363.799149 
L 368.16181 363.799149 
L 369.83819 363.799149 
L 371.514571 363.799149 
L 373.190951 303.748085 
L 374.867332 303.748085 
L 376.543712 303.748085 
L 378.220093 303.748085 
L 379.896473 303.748085 
L 381.572853 303.748085 
L 383.249234 252.275745 
L 384.925614 252.275745 
L 386.601995 252.275745 
L 388.278375 252.275745 
L 389.954756 252.275745 
L 391.631136 252.275745 
L 393.307517 217.960851 
L 394.983897 217.960851 
L 396.660278 217.960851 
L 398.336658 217.960851 
L 400.013039 217.960851 
L 401.689419 217.960851 
L 403.365799 209.382128 
L 405.04218 209.382128 
L 406.71856 209.382128 
L 408.394941 209.382128 
L 410.071321 209.382128 
L 411.747702 209.382128 
L 413.424082 175.067234 
L 415.100463 175.067234 
L 416.776843 175.067234 
L 418.453224 175.067234 
L 420.129604 175.067234 
L 421.805984 175.067234 
L 423.482365 132.173617 
L 425.158745 132.173617 
L 426.835126 132.173617 
L 428.511506 132.173617 
L 430.187887 132.173617 
L 431.864267 132.173617 
L 433.540648 115.01617 
L 435.217028 115.01617 
L 436.893409 115.01617 
L 438.569789 115.01617 
L 440.24617 115.01617 
L 441.92255 115.01617 
L 443.59893 89.28 
" clip-path="url(#p928856d33d)" style="fill: none; stroke: #0000ff; stroke-width: 1.5; stroke-linecap: square"/>
   </g>
   <g id="line2d_31">
    <path d="M 294.40107 492.48 
L 296.07745 492.48 
L 297.75383 492.48 
L 299.430211 492.48 
L 301.106591 492.48 
L 302.782972 492.48 
L 304.459352 492.48 
L 306.135733 492.48 
L 307.812113 492.48 
L 309.488494 492.48 
L 311.164874 492.48 
L 312.841255 466.74383 
L 314.517635 466.74383 
L 316.194016 466.74383 
L 317.870396 466.74383 
L 319.546776 466.74383 
L 321.223157 466.74383 
L 322.899537 423.850213 
L 324.575918 423.850213 
L 326.252298 423.850213 
L 327.928679 423.850213 
L 329.605059 423.850213 
L 331.28144 423.850213 
L 332.95782 372.377872 
L 334.634201 372.377872 
L 336.310581 372.377872 
L 337.986961 372.377872 
L 339.663342 372.377872 
L 341.339722 372.377872 
L 343.016103 338.062979 
L 344.692483 338.062979 
L 346.368864 338.062979 
L 348.045244 338.062979 
L 349.721625 338.062979 
L 351.398005 338.062979 
L 353.074386 286.590638 
L 354.750766 286.590638 
L 356.427147 286.590638 
L 358.103527 286.590638 
L 359.779907 286.590638 
L 361.456288 286.590638 
L 363.132668 260.854468 
L 364.809049 260.854468 
L 366.485429 260.854468 
L 368.16181 260.854468 
L 369.83819 260.854468 
L 371.514571 260.854468 
L 373.190951 252.275745 
L 374.867332 252.275745 
L 376.543712 252.275745 
L 378.220093 252.275745 
L 379.896473 252.275745 
L 381.572853 252.275745 
L 383.249234 226.539574 
L 384.925614 226.539574 
L 386.601995 226.539574 
L 388.278375 226.539574 
L 389.954756 226.539574 
L 391.631136 226.539574 
L 393.307517 200.803404 
L 394.983897 200.803404 
L 396.660278 200.803404 
L 398.336658 200.803404 
L 400.013039 200.803404 
L 401.689419 200.803404 
L 403.365799 166.488511 
L 405.04218 166.488511 
L 406.71856 166.488511 
L 408.394941 166.488511 
L 410.071321 166.488511 
L 411.747702 166.488511 
L 413.424082 166.488511 
L 415.100463 166.488511 
L 416.776843 166.488511 
L 418.453224 166.488511 
L 420.129604 166.488511 
L 421.805984 166.488511 
L 423.482365 157.909787 
L 425.158745 157.909787 
L 426.835126 157.909787 
L 428.511506 157.909787 
L 430.187887 157.909787 
L 431.864267 157.909787 
L 433.540648 115.01617 
L 435.217028 115.01617 
L 436.893409 115.01617 
L 438.569789 115.01617 
L 440.24617 115.01617 
L 441.92255 115.01617 
L 443.59893 97.858723 
" clip-path="url(#p928856d33d)" style="fill: none; stroke: #ff0000; stroke-width: 1.5; stroke-linecap: square"/>
   </g>
   <g id="line2d_32">
    <path d="M 294.40107 492.48 
L 296.07745 492.48 
L 297.75383 492.48 
L 299.430211 492.48 
L 301.106591 492.48 
L 302.782972 466.74383 
L 304.459352 466.74383 
L 306.135733 466.74383 
L 307.812113 466.74383 
L 309.488494 466.74383 
L 311.164874 466.74383 
L 312.841255 415.271489 
L 314.517635 415.271489 
L 316.194016 415.271489 
L 317.870396 415.271489 
L 319.546776 415.271489 
L 321.223157 415.271489 
L 322.899537 398.114043 
L 324.575918 398.114043 
L 326.252298 398.114043 
L 327.928679 398.114043 
L 329.605059 398.114043 
L 331.28144 398.114043 
L 332.95782 380.956596 
L 334.634201 380.956596 
L 336.310581 380.956596 
L 337.986961 380.956596 
L 339.663342 380.956596 
L 341.339722 380.956596 
L 343.016103 355.220426 
L 344.692483 355.220426 
L 346.368864 355.220426 
L 348.045244 355.220426 
L 349.721625 355.220426 
L 351.398005 355.220426 
L 353.074386 346.641702 
L 354.750766 346.641702 
L 356.427147 346.641702 
L 358.103527 346.641702 
L 359.779907 346.641702 
L 361.456288 346.641702 
L 363.132668 346.641702 
L 364.809049 346.641702 
L 366.485429 346.641702 
L 368.16181 346.641702 
L 369.83819 346.641702 
L 371.514571 346.641702 
L 373.190951 346.641702 
L 374.867332 346.641702 
L 376.543712 346.641702 
L 378.220093 346.641702 
L 379.896473 346.641702 
L 381.572853 346.641702 
L 383.249234 346.641702 
L 384.925614 346.641702 
L 386.601995 346.641702 
L 388.278375 346.641702 
L 389.954756 346.641702 
L 391.631136 346.641702 
L 393.307517 346.641702 
L 394.983897 346.641702 
L 396.660278 346.641702 
L 398.336658 346.641702 
L 400.013039 346.641702 
L 401.689419 346.641702 
L 403.365799 346.641702 
L 405.04218 346.641702 
L 406.71856 346.641702 
L 408.394941 346.641702 
L 410.071321 346.641702 
L 411.747702 346.641702 
L 413.424082 346.641702 
L 415.100463 346.641702 
L 416.776843 346.641702 
L 418.453224 346.641702 
L 420.129604 346.641702 
L 421.805984 346.641702 
L 423.482365 346.641702 
L 425.158745 346.641702 
L 426.835126 346.641702 
L 428.511506 346.641702 
L 430.187887 346.641702 
L 431.864267 346.641702 
L 433.540648 346.641702 
L 435.217028 346.641702 
L 436.893409 346.641702 
L 438.569789 346.641702 
L 440.24617 346.641702 
L 441.92255 346.641702 
L 443.59893 346.641702 
" clip-path="url(#p928856d33d)" style="fill: none; stroke: #008000; stroke-width: 1.5; stroke-linecap: square"/>
   </g>
   <g id="patch_9">
    <path d="M 286.941176 512.64 
L 286.941176 69.12 
" style="fill: none; stroke: #000000; stroke-width: 0.8; stroke-linejoin: miter; stroke-linecap: square"/>
   </g>
   <g id="patch_10">
    <path d="M 451.058824 512.64 
L 451.058824 69.12 
" style="fill: none; stroke: #000000; stroke-width: 0.8; stroke-linejoin: miter; stroke-linecap: square"/>
   </g>
   <g id="patch_11">
    <path d="M 286.941176 512.64 
L 451.058824 512.64 
" style="fill: none; stroke: #000000; stroke-width: 0.8; stroke-linejoin: miter; stroke-linecap: square"/>
   </g>
   <g id="patch_12">
    <path d="M 286.941176 69.12 
L 451.058824 69.12 
" style="fill: none; stroke: #000000; stroke-width: 0.8; stroke-linejoin: miter; stroke-linecap: square"/>
   </g>
   <g id="legend_2">
    <g id="patch_13">
     <path d="M 293.941176 121.154375 
L 393.863051 121.154375 
Q 395.863051 121.154375 395.863051 119.154375 
L 395.863051 76.12 
Q 395.863051 74.12 393.863051 74.12 
L 293.941176 74.12 
Q 291.941176 74.12 291.941176 76.12 
L 291.941176 119.154375 
Q 291.941176 121.154375 293.941176 121.154375 
z
" style="fill: #ffffff; opacity: 0.8; stroke: #cccccc; stroke-linejoin: miter"/>
    </g>
    <g id="line2d_33">
     <path d="M 295.941176 82.218438 
L 305.941176 82.218438 
L 315.941176 82.218438 
" style="fill: none; stroke: #0000ff; stroke-width: 1.5; stroke-linecap: square"/>
    </g>
    <g id="text_27">
     <!-- O1 requested -->
     <g transform="translate(323.941176 85.718438) scale(0.1 -0.1)">
      <defs>
       <path id="DejaVuSans-72" d="M 2631 2963 
Q 2534 3019 2420 3045 
Q 2306 3072 2169 3072 
Q 1681 3072 1420 2755 
Q 1159 2438 1159 1844 
L 1159 0 
L 581 0 
L 581 3500 
L 1159 3500 
L 1159 2956 
Q 1341 3275 1631 3429 
Q 1922 3584 2338 3584 
Q 2397 3584 2469 3576 
Q 2541 3569 2628 3553 
L 2631 2963 
z
" transform="scale(0.015625)"/>
       <path id="DejaVuSans-65" d="M 3597 1894 
L 3597 1613 
L 953 1613 
Q 991 1019 1311 708 
Q 1631 397 2203 397 
Q 2534 397 2845 478 
Q 3156 559 3463 722 
L 3463 178 
Q 3153 47 2828 -22 
Q 2503 -91 2169 -91 
Q 1331 -91 842 396 
Q 353 884 353 1716 
Q 353 2575 817 3079 
Q 1281 3584 2069 3584 
Q 2775 3584 3186 3129 
Q 3597 2675 3597 1894 
z
M 3022 2063 
Q 3016 2534 2758 2815 
Q 2500 3097 2075 3097 
Q 1594 3097 1305 2825 
Q 1016 2553 972 2059 
L 3022 2063 
z
" transform="scale(0.015625)"/>
       <path id="DejaVuSans-71" d="M 947 1747 
Q 947 1113 1208 752 
Q 1469 391 1925 391 
Q 2381 391 2643 752 
Q 2906 1113 2906 1747 
Q 2906 2381 2643 2742 
Q 2381 3103 1925 3103 
Q 1469 3103 1208 2742 
Q 947 2381 947 1747 
z
M 2906 525 
Q 2725 213 2448 61 
Q 2172 -91 1784 -91 
Q 1150 -91 751 415 
Q 353 922 353 1747 
Q 353 2572 751 3078 
Q 1150 3584 1784 3584 
Q 2172 3584 2448 3432 
Q 2725 3281 2906 2969 
L 2906 3500 
L 3481 3500 
L 3481 -1331 
L 2906 -1331 
L 2906 525 
z
" transform="scale(0.015625)"/>
       <path id="DejaVuSans-73" d="M 2834 3397 
L 2834 2853 
Q 2591 2978 2328 3040 
Q 2066 3103 1784 3103 
Q 1356 3103 1142 2972 
Q 928 2841 928 2578 
Q 928 2378 1081 2264 
Q 1234 2150 1697 2047 
L 1894 2003 
Q 2506 1872 2764 1633 
Q 3022 1394 3022 966 
Q 3022 478 2636 193 
Q 2250 -91 1575 -91 
Q 1294 -91 989 -36 
Q 684 19 347 128 
L 347 722 
Q 666 556 975 473 
Q 1284 391 1588 391 
Q 1994 391 2212 530 
Q 2431 669 2431 922 
Q 2431 1156 2273 1281 
Q 2116 1406 1581 1522 
L 1381 1569 
Q 847 1681 609 1914 
Q 372 2147 372 2553 
Q 372 3047 722 3315 
Q 1072 3584 1716 3584 
Q 2034 3584 2315 3537 
Q 2597 3491 2834 3397 
z
" transform="scale(0.015625)"/>
       <path id="DejaVuSans-64" d="M 2906 2969 
L 2906 4863 
L 3481 4863 
L 3481 0 
L 2906 0 
L 2906 525 
Q 2725 213 2448 61 
Q 2172 -91 1784 -91 
Q 1150 -91 751 415 
Q 353 922 353 1747 
Q 353 2572 751 3078 
Q 1150 3584 1784 3584 
Q 2172 3584 2448 3432 
Q 2725 3281 2906 2969 
z
M 947 1747 
Q 947 1113 1208 752 
Q 1469 391 1925 391 
Q 2381 391 2643 752 
Q 2906 1113 2906 1747 
Q 2906 2381 2643 2742 
Q 2381 3103 1925 3103 
Q 1469 3103 1208 2742 
Q 947 2381 947 1747 
z
" transform="scale(0.015625)"/>
      </defs>
      <use xlink:href="#DejaVuSans-4f"/>
      <use xlink:href="#DejaVuSans-31" x="78.710938"/>
      <use xlink:href="#DejaVuSans-20" x="142.333984"/>
      <use xlink:href="#DejaVuSans-72" x="174.121094"/>
      <use xlink:href="#DejaVuSans-65" x="212.984375"/>
      <use xlink:href="#DejaVuSans-71" x="274.507812"/>
      <use xlink:href="#DejaVuSans-75" x="337.984375"/>
      <use xlink:href="#DejaVuSans-65" x="401.363281"/>
      <use xlink:href="#DejaVuSans-73" x="462.886719"/>
      <use xlink:href="#DejaVuSans-74" x="514.986328"/>
      <use xlink:href="#DejaVuSans-65" x="554.195312"/>
      <use xlink:href="#DejaVuSans-64" x="615.71875"/>
     </g>
    </g>
    <g id="line2d_34">
     <path d="M 295.941176 96.896563 
L 305.941176 96.896563 
L 315.941176 96.896563 
" style="fill: none; stroke: #ff0000; stroke-width: 1.5; stroke-linecap: square"/>
    </g>
    <g id="text_28">
     <!-- O2 requested -->
     <g transform="translate(323.941176 100.396563) scale(0.1 -0.1)">
      <use xlink:href="#DejaVuSans-4f"/>
      <use xlink:href="#DejaVuSans-32" x="78.710938"/>
      <use xlink:href="#DejaVuSans-20" x="142.333984"/>
      <use xlink:href="#DejaVuSans-72" x="174.121094"/>
      <use xlink:href="#DejaVuSans-65" x="212.984375"/>
      <use xlink:href="#DejaVuSans-71" x="274.507812"/>
      <use xlink:href="#DejaVuSans-75" x="337.984375"/>
      <use xlink:href="#DejaVuSans-65" x="401.363281"/>
      <use xlink:href="#DejaVuSans-73" x="462.886719"/>
      <use xlink:href="#DejaVuSans-74" x="514.986328"/>
      <use xlink:href="#DejaVuSans-65" x="554.195312"/>
      <use xlink:href="#DejaVuSans-64" x="615.71875"/>
     </g>
    </g>
    <g id="line2d_35">
     <path d="M 295.941176 111.574688 
L 305.941176 111.574688 
L 315.941176 111.574688 
" style="fill: none; stroke: #008000; stroke-width: 1.5; stroke-linecap: square"/>
    </g>
    <g id="text_29">
     <!-- O3 requested -->
     <g transform="translate(323.941176 115.074688) scale(0.1 -0.1)">
      <use xlink:href="#DejaVuSans-4f"/>
      <use xlink:href="#DejaVuSans-33" x="78.710938"/>
      <use xlink:href="#DejaVuSans-20" x="142.333984"/>
      <use xlink:href="#DejaVuSans-72" x="174.121094"/>
      <use xlink:href="#DejaVuSans-65" x="212.984375"/>
      <use xlink:href="#DejaVuSans-71" x="274.507812"/>
      <use xlink:href="#DejaVuSans-75" x="337.984375"/>
      <use xlink:href="#DejaVuSans-65" x="401.363281"/>
      <use xlink:href="#DejaVuSans-73" x="462.886719"/>
      <use xlink:href="#DejaVuSans-74" x="514.986328"/>
      <use xlink:href="#DejaVuSans-65" x="554.195312"/>
      <use xlink:href="#DejaVuSans-64" x="615.71875"/>
     </g>
    </g>
   </g>
  </g>
  <g id="axes_3">
   <g id="patch_14">
    <path d="M 483.882353 512.64 
L 648 512.64 
L 648 69.12 
L 483.882353 69.12 
z
" style="fill: #ffffff"/>
   </g>
   <g id="matplotlib.axis_5">
    <g id="xtick_11">
     <g id="line2d_36">
      <g>
       <use xlink:href="#m204dd0e865" x="489.665866" y="512.64" style="stroke: #000000; stroke-width: 0.8"/>
      </g>
     </g>
     <g id="text_30">
      <!-- 0 -->
      <g transform="translate(486.484616 527.238438) scale(0.1 -0.1)">
       <use xlink:href="#DejaVuSans-30"/>
      </g>
     </g>
    </g>
    <g id="xtick_12">
     <g id="line2d_37">
      <g>
       <use xlink:href="#m204dd0e865" x="523.193475" y="512.64" style="stroke: #000000; stroke-width: 0.8"/>
      </g>
     </g>
     <g id="text_31">
      <!-- 20 -->
      <g transform="translate(516.830975 527.238438) scale(0.1 -0.1)">
       <use xlink:href="#DejaVuSans-32"/>
       <use xlink:href="#DejaVuSans-30" x="63.623047"/>
      </g>
     </g>
    </g>
    <g id="xtick_13">
     <g id="line2d_38">
      <g>
       <use xlink:href="#m204dd0e865" x="556.721084" y="512.64" style="stroke: #000000; stroke-width: 0.8"/>
      </g>
     </g>
     <g id="text_32">
      <!-- 40 -->
      <g transform="translate(550.358584 527.238438) scale(0.1 -0.1)">
       <use xlink:href="#DejaVuSans-34"/>
       <use xlink:href="#DejaVuSans-30" x="63.623047"/>
      </g>
     </g>
    </g>
    <g id="xtick_14">
     <g id="line2d_39">
      <g>
       <use xlink:href="#m204dd0e865" x="590.248693" y="512.64" style="stroke: #000000; stroke-width: 0.8"/>
      </g>
     </g>
     <g id="text_33">
      <!-- 60 -->
      <g transform="translate(583.886193 527.238438) scale(0.1 -0.1)">
       <use xlink:href="#DejaVuSans-36"/>
       <use xlink:href="#DejaVuSans-30" x="63.623047"/>
      </g>
     </g>
    </g>
    <g id="xtick_15">
     <g id="line2d_40">
      <g>
       <use xlink:href="#m204dd0e865" x="623.776302" y="512.64" style="stroke: #000000; stroke-width: 0.8"/>
      </g>
     </g>
     <g id="text_34">
      <!-- 80 -->
      <g transform="translate(617.413802 527.238438) scale(0.1 -0.1)">
       <use xlink:href="#DejaVuSans-38"/>
       <use xlink:href="#DejaVuSans-30" x="63.623047"/>
      </g>
     </g>
    </g>
   </g>
   <g id="matplotlib.axis_6">
    <g id="ytick_14">
     <g id="line2d_41">
      <g>
       <use xlink:href="#m6fa5f0d158" x="483.882353" y="492.48" style="stroke: #000000; stroke-width: 0.8"/>
      </g>
     </g>
     <g id="text_35">
      <!-- 0 -->
      <g transform="translate(470.519853 496.279219) scale(0.1 -0.1)">
       <use xlink:href="#DejaVuSans-30"/>
      </g>
     </g>
    </g>
    <g id="ytick_15">
     <g id="line2d_42">
      <g>
       <use xlink:href="#m6fa5f0d158" x="483.882353" y="434.88" style="stroke: #000000; stroke-width: 0.8"/>
      </g>
     </g>
     <g id="text_36">
      <!-- 1 -->
      <g transform="translate(470.519853 438.679219) scale(0.1 -0.1)">
       <use xlink:href="#DejaVuSans-31"/>
      </g>
     </g>
    </g>
    <g id="ytick_16">
     <g id="line2d_43">
      <g>
       <use xlink:href="#m6fa5f0d158" x="483.882353" y="377.28" style="stroke: #000000; stroke-width: 0.8"/>
      </g>
     </g>
     <g id="text_37">
      <!-- 2 -->
      <g transform="translate(470.519853 381.079219) scale(0.1 -0.1)">
       <use xlink:href="#DejaVuSans-32"/>
      </g>
     </g>
    </g>
    <g id="ytick_17">
     <g id="line2d_44">
      <g>
       <use xlink:href="#m6fa5f0d158" x="483.882353" y="319.68" style="stroke: #000000; stroke-width: 0.8"/>
      </g>
     </g>
     <g id="text_38">
      <!-- 3 -->
      <g transform="translate(470.519853 323.479219) scale(0.1 -0.1)">
       <use xlink:href="#DejaVuSans-33"/>
      </g>
     </g>
    </g>
    <g id="ytick_18">
     <g id="line2d_45">
      <g>
       <use xlink:href="#m6fa5f0d158" x="483.882353" y="262.08" style="stroke: #000000; stroke-width: 0.8"/>
      </g>
     </g>
     <g id="text_39">
      <!-- 4 -->
      <g transform="translate(470.519853 265.879219) scale(0.1 -0.1)">
       <use xlink:href="#DejaVuSans-34"/>
      </g>
     </g>
    </g>
    <g id="ytick_19">
     <g id="line2d_46">
      <g>
       <use xlink:href="#m6fa5f0d158" x="483.882353" y="204.48" style="stroke: #000000; stroke-width: 0.8"/>
      </g>
     </g>
     <g id="text_40">
      <!-- 5 -->
      <g transform="translate(470.519853 208.279219) scale(0.1 -0.1)">
       <use xlink:href="#DejaVuSans-35"/>
      </g>
     </g>
    </g>
    <g id="ytick_20">
     <g id="line2d_47">
      <g>
       <use xlink:href="#m6fa5f0d158" x="483.882353" y="146.88" style="stroke: #000000; stroke-width: 0.8"/>
      </g>
     </g>
     <g id="text_41">
      <!-- 6 -->
      <g transform="translate(470.519853 150.679219) scale(0.1 -0.1)">
       <use xlink:href="#DejaVuSans-36"/>
      </g>
     </g>
    </g>
    <g id="ytick_21">
     <g id="line2d_48">
      <g>
       <use xlink:href="#m6fa5f0d158" x="483.882353" y="89.28" style="stroke: #000000; stroke-width: 0.8"/>
      </g>
     </g>
     <g id="text_42">
      <!-- 7 -->
      <g transform="translate(470.519853 93.079219) scale(0.1 -0.1)">
       <defs>
        <path id="DejaVuSans-37" d="M 525 4666 
L 3525 4666 
L 3525 4397 
L 1831 0 
L 1172 0 
L 2766 4134 
L 525 4134 
L 525 4666 
z
" transform="scale(0.015625)"/>
       </defs>
       <use xlink:href="#DejaVuSans-37"/>
      </g>
     </g>
    </g>
   </g>
   <g id="line2d_49">
    <path d="M 491.342246 492.48 
L 493.018626 492.48 
L 494.695007 492.48 
L 496.371387 492.48 
L 498.047768 492.48 
L 499.724148 434.88 
L 501.400529 434.88 
L 503.076909 434.88 
L 504.75329 434.88 
L 506.42967 434.88 
L 508.106051 434.88 
L 509.782431 434.88 
L 511.458812 434.88 
L 513.135192 434.88 
L 514.811572 434.88 
L 516.487953 434.88 
L 518.164333 434.88 
L 519.840714 434.88 
L 521.517094 434.88 
L 523.193475 434.88 
L 524.869855 434.88 
L 526.546236 434.88 
L 528.222616 434.88 
L 529.898997 434.88 
L 531.575377 434.88 
L 533.251757 434.88 
L 534.928138 434.88 
L 536.604518 434.88 
L 538.280899 434.88 
L 539.957279 377.28 
L 541.63366 377.28 
L 543.31004 377.28 
L 544.986421 377.28 
L 546.662801 377.28 
L 548.339182 377.28 
L 550.015562 319.68 
L 551.691943 319.68 
L 553.368323 319.68 
L 555.044703 319.68 
L 556.721084 319.68 
L 558.397464 319.68 
L 560.073845 319.68 
L 561.750225 319.68 
L 563.426606 319.68 
L 565.102986 319.68 
L 566.779367 319.68 
L 568.455747 319.68 
L 570.132128 262.08 
L 571.808508 262.08 
L 573.484889 262.08 
L 575.161269 262.08 
L 576.837649 262.08 
L 578.51403 262.08 
L 580.19041 262.08 
L 581.866791 262.08 
L 583.543171 262.08 
L 585.219552 262.08 
L 586.895932 262.08 
L 588.572313 262.08 
L 590.248693 262.08 
L 591.925074 262.08 
L 593.601454 262.08 
L 595.277835 262.08 
L 596.954215 262.08 
L 598.630595 262.08 
L 600.306976 262.08 
L 601.983356 262.08 
L 603.659737 262.08 
L 605.336117 262.08 
L 607.012498 262.08 
L 608.688878 262.08 
L 610.365259 262.08 
L 612.041639 262.08 
L 613.71802 262.08 
L 615.3944 262.08 
L 617.070781 262.08 
L 618.747161 262.08 
L 620.423541 262.08 
L 622.099922 262.08 
L 623.776302 262.08 
L 625.452683 262.08 
L 627.129063 262.08 
L 628.805444 262.08 
L 630.481824 262.08 
L 632.158205 262.08 
L 633.834585 262.08 
L 635.510966 262.08 
L 637.187346 262.08 
L 638.863726 262.08 
L 640.540107 262.08 
" clip-path="url(#p9e9531bf1e)" style="fill: none; stroke: #0000ff; stroke-width: 1.5; stroke-linecap: square"/>
   </g>
   <g id="line2d_50">
    <path d="M 491.342246 492.48 
L 493.018626 492.48 
L 494.695007 492.48 
L 496.371387 492.48 
L 498.047768 492.48 
L 499.724148 492.48 
L 501.400529 492.48 
L 503.076909 492.48 
L 504.75329 492.48 
L 506.42967 492.48 
L 508.106051 492.48 
L 509.782431 492.48 
L 511.458812 492.48 
L 513.135192 492.48 
L 514.811572 492.48 
L 516.487953 492.48 
L 518.164333 492.48 
L 519.840714 434.88 
L 521.517094 434.88 
L 523.193475 434.88 
L 524.869855 434.88 
L 526.546236 434.88 
L 528.222616 434.88 
L 529.898997 434.88 
L 531.575377 434.88 
L 533.251757 434.88 
L 534.928138 434.88 
L 536.604518 434.88 
L 538.280899 434.88 
L 539.957279 377.28 
L 541.63366 377.28 
L 543.31004 377.28 
L 544.986421 377.28 
L 546.662801 377.28 
L 548.339182 377.28 
L 550.015562 262.08 
L 551.691943 262.08 
L 553.368323 262.08 
L 555.044703 262.08 
L 556.721084 262.08 
L 558.397464 262.08 
L 560.073845 262.08 
L 561.750225 262.08 
L 563.426606 262.08 
L 565.102986 262.08 
L 566.779367 262.08 
L 568.455747 262.08 
L 570.132128 204.48 
L 571.808508 204.48 
L 573.484889 204.48 
L 575.161269 204.48 
L 576.837649 204.48 
L 578.51403 204.48 
L 580.19041 89.28 
L 581.866791 89.28 
L 583.543171 89.28 
L 585.219552 89.28 
L 586.895932 89.28 
L 588.572313 89.28 
L 590.248693 89.28 
L 591.925074 89.28 
L 593.601454 89.28 
L 595.277835 89.28 
L 596.954215 89.28 
L 598.630595 89.28 
L 600.306976 89.28 
L 601.983356 89.28 
L 603.659737 89.28 
L 605.336117 89.28 
L 607.012498 89.28 
L 608.688878 89.28 
L 610.365259 89.28 
L 612.041639 89.28 
L 613.71802 89.28 
L 615.3944 89.28 
L 617.070781 89.28 
L 618.747161 89.28 
L 620.423541 89.28 
L 622.099922 89.28 
L 623.776302 89.28 
L 625.452683 89.28 
L 627.129063 89.28 
L 628.805444 89.28 
L 630.481824 89.28 
L 632.158205 89.28 
L 633.834585 89.28 
L 635.510966 89.28 
L 637.187346 89.28 
L 638.863726 89.28 
L 640.540107 89.28 
" clip-path="url(#p9e9531bf1e)" style="fill: none; stroke: #ff0000; stroke-width: 1.5; stroke-linecap: square"/>
   </g>
   <g id="line2d_51">
    <path d="M 491.342246 492.48 
L 493.018626 492.48 
L 494.695007 492.48 
L 496.371387 492.48 
L 498.047768 492.48 
L 499.724148 434.88 
L 501.400529 434.88 
L 503.076909 434.88 
L 504.75329 434.88 
L 506.42967 434.88 
L 508.106051 434.88 
L 509.782431 377.28 
L 511.458812 377.28 
L 513.135192 377.28 
L 514.811572 377.28 
L 516.487953 377.28 
L 518.164333 377.28 
L 519.840714 319.68 
L 521.517094 319.68 
L 523.193475 319.68 
L 524.869855 319.68 
L 526.546236 319.68 
L 528.222616 319.68 
L 529.898997 204.48 
L 531.575377 204.48 
L 533.251757 204.48 
L 534.928138 204.48 
L 536.604518 204.48 
L 538.280899 204.48 
L 539.957279 146.88 
L 541.63366 146.88 
L 543.31004 146.88 
L 544.986421 146.88 
L 546.662801 146.88 
L 548.339182 146.88 
L 550.015562 89.28 
L 551.691943 89.28 
L 553.368323 89.28 
L 555.044703 89.28 
L 556.721084 89.28 
L 558.397464 89.28 
L 560.073845 89.28 
L 561.750225 89.28 
L 563.426606 89.28 
L 565.102986 89.28 
L 566.779367 89.28 
L 568.455747 89.28 
L 570.132128 89.28 
L 571.808508 89.28 
L 573.484889 89.28 
L 575.161269 89.28 
L 576.837649 89.28 
L 578.51403 89.28 
L 580.19041 89.28 
L 581.866791 89.28 
L 583.543171 89.28 
L 585.219552 89.28 
L 586.895932 89.28 
L 588.572313 89.28 
L 590.248693 89.28 
L 591.925074 89.28 
L 593.601454 89.28 
L 595.277835 89.28 
L 596.954215 89.28 
L 598.630595 89.28 
L 600.306976 89.28 
L 601.983356 89.28 
L 603.659737 89.28 
L 605.336117 89.28 
L 607.012498 89.28 
L 608.688878 89.28 
L 610.365259 89.28 
L 612.041639 89.28 
L 613.71802 89.28 
L 615.3944 89.28 
L 617.070781 89.28 
L 618.747161 89.28 
L 620.423541 89.28 
L 622.099922 89.28 
L 623.776302 89.28 
L 625.452683 89.28 
L 627.129063 89.28 
L 628.805444 89.28 
L 630.481824 89.28 
L 632.158205 89.28 
L 633.834585 89.28 
L 635.510966 89.28 
L 637.187346 89.28 
L 638.863726 89.28 
L 640.540107 89.28 
" clip-path="url(#p9e9531bf1e)" style="fill: none; stroke: #008000; stroke-width: 1.5; stroke-linecap: square"/>
   </g>
   <g id="patch_15">
    <path d="M 483.882353 512.64 
L 483.882353 69.12 
" style="fill: none; stroke: #000000; stroke-width: 0.8; stroke-linejoin: miter; stroke-linecap: square"/>
   </g>
   <g id="patch_16">
    <path d="M 648 512.64 
L 648 69.12 
" style="fill: none; stroke: #000000; stroke-width: 0.8; stroke-linejoin: miter; stroke-linecap: square"/>
   </g>
   <g id="patch_17">
    <path d="M 483.882353 512.64 
L 648 512.64 
" style="fill: none; stroke: #000000; stroke-width: 0.8; stroke-linejoin: miter; stroke-linecap: square"/>
   </g>
   <g id="patch_18">
    <path d="M 483.882353 69.12 
L 648 69.12 
" style="fill: none; stroke: #000000; stroke-width: 0.8; stroke-linejoin: miter; stroke-linecap: square"/>
   </g>
   <g id="legend_3">
    <g id="patch_19">
     <path d="M 551.1625 507.64 
L 641 507.64 
Q 643 507.64 643 505.64 
L 643 462.605625 
Q 643 460.605625 641 460.605625 
L 551.1625 460.605625 
Q 549.1625 460.605625 549.1625 462.605625 
L 549.1625 505.64 
Q 549.1625 507.64 551.1625 507.64 
z
" style="fill: #ffffff; opacity: 0.8; stroke: #cccccc; stroke-linejoin: miter"/>
    </g>
    <g id="line2d_52">
     <path d="M 553.1625 468.704063 
L 563.1625 468.704063 
L 573.1625 468.704063 
" style="fill: none; stroke: #0000ff; stroke-width: 1.5; stroke-linecap: square"/>
    </g>
    <g id="text_43">
     <!-- O1 ensured -->
     <g transform="translate(581.1625 472.204063) scale(0.1 -0.1)">
      <defs>
       <path id="DejaVuSans-6e" d="M 3513 2113 
L 3513 0 
L 2938 0 
L 2938 2094 
Q 2938 2591 2744 2837 
Q 2550 3084 2163 3084 
Q 1697 3084 1428 2787 
Q 1159 2491 1159 1978 
L 1159 0 
L 581 0 
L 581 3500 
L 1159 3500 
L 1159 2956 
Q 1366 3272 1645 3428 
Q 1925 3584 2291 3584 
Q 2894 3584 3203 3211 
Q 3513 2838 3513 2113 
z
" transform="scale(0.015625)"/>
      </defs>
      <use xlink:href="#DejaVuSans-4f"/>
      <use xlink:href="#DejaVuSans-31" x="78.710938"/>
      <use xlink:href="#DejaVuSans-20" x="142.333984"/>
      <use xlink:href="#DejaVuSans-65" x="174.121094"/>
      <use xlink:href="#DejaVuSans-6e" x="235.644531"/>
      <use xlink:href="#DejaVuSans-73" x="299.023438"/>
      <use xlink:href="#DejaVuSans-75" x="351.123047"/>
      <use xlink:href="#DejaVuSans-72" x="414.501953"/>
      <use xlink:href="#DejaVuSans-65" x="453.365234"/>
      <use xlink:href="#DejaVuSans-64" x="514.888672"/>
     </g>
    </g>
    <g id="line2d_53">
     <path d="M 553.1625 483.382187 
L 563.1625 483.382187 
L 573.1625 483.382187 
" style="fill: none; stroke: #ff0000; stroke-width: 1.5; stroke-linecap: square"/>
    </g>
    <g id="text_44">
     <!-- O2 ensured -->
     <g transform="translate(581.1625 486.882187) scale(0.1 -0.1)">
      <use xlink:href="#DejaVuSans-4f"/>
      <use xlink:href="#DejaVuSans-32" x="78.710938"/>
      <use xlink:href="#DejaVuSans-20" x="142.333984"/>
      <use xlink:href="#DejaVuSans-65" x="174.121094"/>
      <use xlink:href="#DejaVuSans-6e" x="235.644531"/>
      <use xlink:href="#DejaVuSans-73" x="299.023438"/>
      <use xlink:href="#DejaVuSans-75" x="351.123047"/>
      <use xlink:href="#DejaVuSans-72" x="414.501953"/>
      <use xlink:href="#DejaVuSans-65" x="453.365234"/>
      <use xlink:href="#DejaVuSans-64" x="514.888672"/>
     </g>
    </g>
    <g id="line2d_54">
     <path d="M 553.1625 498.060313 
L 563.1625 498.060313 
L 573.1625 498.060313 
" style="fill: none; stroke: #008000; stroke-width: 1.5; stroke-linecap: square"/>
    </g>
    <g id="text_45">
     <!-- O3 ensured -->
     <g transform="translate(581.1625 501.560313) scale(0.1 -0.1)">
      <use xlink:href="#DejaVuSans-4f"/>
      <use xlink:href="#DejaVuSans-33" x="78.710938"/>
      <use xlink:href="#DejaVuSans-20" x="142.333984"/>
      <use xlink:href="#DejaVuSans-65" x="174.121094"/>
      <use xlink:href="#DejaVuSans-6e" x="235.644531"/>
      <use xlink:href="#DejaVuSans-73" x="299.023438"/>
      <use xlink:href="#DejaVuSans-75" x="351.123047"/>
      <use xlink:href="#DejaVuSans-72" x="414.501953"/>
      <use xlink:href="#DejaVuSans-65" x="453.365234"/>
      <use xlink:href="#DejaVuSans-64" x="514.888672"/>
     </g>
    </g>
   </g>
  </g>
 </g>
 <defs>
  <clipPath id="pe73d86fcc5">
   <rect x="90" y="69.12" width="164.117647" height="443.52"/>
  </clipPath>
  <clipPath id="p928856d33d">
   <rect x="286.941176" y="69.12" width="164.117647" height="443.52"/>
  </clipPath>
  <clipPath id="p9e9531bf1e">
   <rect x="483.882353" y="69.12" width="164.117647" height="443.52"/>
  </clipPath>
 </defs>
</svg>
