<?xml version="1.0" encoding="utf-8" standalone="no"?>
<!DOCTYPE svg PUBLIC "-//W3C//DTD SVG 1.1//EN"
  "http://www.w3.org/Graphics/SVG/1.1/DTD/svg11.dtd">
<svg xmlns:xlink="http://www.w3.org/1999/xlink" width="720pt" height="576pt" viewBox="0 0 720 576" xmlns="http://www.w3.org/2000/svg" version="1.1">
 <metadata>
  <rdf:RDF xmlns:dc="http://purl.org/dc/elements/1.1/" xmlns:cc="http://creativecommons.org/ns#" xmlns:rdf="http://www.w3.org/1999/02/22-rdf-syntax-ns#">
   <cc:Work>
    <dc:type rdf:resource="http://purl.org/dc/dcmitype/StillImage"/>
    <dc:date>2023-06-04T14:23:11.912744</dc:date>
    <dc:format>image/svg+xml</dc:format>
    <dc:creator>
     <cc:Agent>
      <dc:title>Matplotlib v3.7.1, https://matplotlib.org/</dc:title>
     </cc:Agent>
    </dc:creator>
   </cc:Work>
  </rdf:RDF>
 </metadata>
 <defs>
  <style type="text/css">*{stroke-linejoin: round; stroke-linecap: butt}</style>
 </defs>
 <g id="figure_1">
  <g id="patch_1">
   <path d="M 0 576 
L 720 576 
L 720 0 
L 0 0 
z
" style="fill: #ffffff"/>
  </g>
  <g id="axes_1">
   <g id="patch_2">
    <path d="M 90 512.64 
L 254.117647 512.64 
L 254.117647 69.12 
L 90 69.12 
z
" style="fill: #ffffff"/>
   </g>
   <g id="matplotlib.axis_1">
    <g id="xtick_1">
     <g id="line2d_1">
      <defs>
       <path id="mb899fef759" d="M 0 0 
L 0 3.5 
" style="stroke: #000000; stroke-width: 0.8"/>
      </defs>
      <g>
       <use xlink:href="#mb899fef759" x="96.835634" y="512.64" style="stroke: #000000; stroke-width: 0.8"/>
      </g>
     </g>
     <g id="text_1">
      <!-- 0 -->
      <g transform="translate(93.654384 527.238438) scale(0.1 -0.1)">
       <defs>
        <path id="DejaVuSans-30" d="M 2034 4250 
Q 1547 4250 1301 3770 
Q 1056 3291 1056 2328 
Q 1056 1369 1301 889 
Q 1547 409 2034 409 
Q 2525 409 2770 889 
Q 3016 1369 3016 2328 
Q 3016 3291 2770 3770 
Q 2525 4250 2034 4250 
z
M 2034 4750 
Q 2819 4750 3233 4129 
Q 3647 3509 3647 2328 
Q 3647 1150 3233 529 
Q 2819 -91 2034 -91 
Q 1250 -91 836 529 
Q 422 1150 422 2328 
Q 422 3509 836 4129 
Q 1250 4750 2034 4750 
z
" transform="scale(0.015625)"/>
       </defs>
       <use xlink:href="#DejaVuSans-30"/>
      </g>
     </g>
    </g>
    <g id="xtick_2">
     <g id="line2d_2">
      <g>
       <use xlink:href="#mb899fef759" x="159.261517" y="512.64" style="stroke: #000000; stroke-width: 0.8"/>
      </g>
     </g>
     <g id="text_2">
      <!-- 100 -->
      <g transform="translate(149.717767 527.238438) scale(0.1 -0.1)">
       <defs>
        <path id="DejaVuSans-31" d="M 794 531 
L 1825 531 
L 1825 4091 
L 703 3866 
L 703 4441 
L 1819 4666 
L 2450 4666 
L 2450 531 
L 3481 531 
L 3481 0 
L 794 0 
L 794 531 
z
" transform="scale(0.015625)"/>
       </defs>
       <use xlink:href="#DejaVuSans-31"/>
       <use xlink:href="#DejaVuSans-30" x="63.623047"/>
       <use xlink:href="#DejaVuSans-30" x="127.246094"/>
      </g>
     </g>
    </g>
    <g id="xtick_3">
     <g id="line2d_3">
      <g>
       <use xlink:href="#mb899fef759" x="221.687401" y="512.64" style="stroke: #000000; stroke-width: 0.8"/>
      </g>
     </g>
     <g id="text_3">
      <!-- 200 -->
      <g transform="translate(212.143651 527.238438) scale(0.1 -0.1)">
       <defs>
        <path id="DejaVuSans-32" d="M 1228 531 
L 3431 531 
L 3431 0 
L 469 0 
L 469 531 
Q 828 903 1448 1529 
Q 2069 2156 2228 2338 
Q 2531 2678 2651 2914 
Q 2772 3150 2772 3378 
Q 2772 3750 2511 3984 
Q 2250 4219 1831 4219 
Q 1534 4219 1204 4116 
Q 875 4013 500 3803 
L 500 4441 
Q 881 4594 1212 4672 
Q 1544 4750 1819 4750 
Q 2544 4750 2975 4387 
Q 3406 4025 3406 3419 
Q 3406 3131 3298 2873 
Q 3191 2616 2906 2266 
Q 2828 2175 2409 1742 
Q 1991 1309 1228 531 
z
" transform="scale(0.015625)"/>
       </defs>
       <use xlink:href="#DejaVuSans-32"/>
       <use xlink:href="#DejaVuSans-30" x="63.623047"/>
       <use xlink:href="#DejaVuSans-30" x="127.246094"/>
      </g>
     </g>
    </g>
   </g>
   <g id="matplotlib.axis_2">
    <g id="ytick_1">
     <g id="line2d_4">
      <defs>
       <path id="m2c262f0531" d="M 0 0 
L -3.5 0 
" style="stroke: #000000; stroke-width: 0.8"/>
      </defs>
      <g>
       <use xlink:href="#m2c262f0531" x="90" y="492.48" style="stroke: #000000; stroke-width: 0.8"/>
      </g>
     </g>
     <g id="text_4">
      <!-- 0.0 -->
      <g transform="translate(67.096875 496.279219) scale(0.1 -0.1)">
       <defs>
        <path id="DejaVuSans-2e" d="M 684 794 
L 1344 794 
L 1344 0 
L 684 0 
L 684 794 
z
" transform="scale(0.015625)"/>
       </defs>
       <use xlink:href="#DejaVuSans-30"/>
       <use xlink:href="#DejaVuSans-2e" x="63.623047"/>
       <use xlink:href="#DejaVuSans-30" x="95.410156"/>
      </g>
     </g>
    </g>
    <g id="ytick_2">
     <g id="line2d_5">
      <g>
       <use xlink:href="#m2c262f0531" x="90" y="395.712" style="stroke: #000000; stroke-width: 0.8"/>
      </g>
     </g>
     <g id="text_5">
      <!-- 0.1 -->
      <g transform="translate(67.096875 399.511219) scale(0.1 -0.1)">
       <use xlink:href="#DejaVuSans-30"/>
       <use xlink:href="#DejaVuSans-2e" x="63.623047"/>
       <use xlink:href="#DejaVuSans-31" x="95.410156"/>
      </g>
     </g>
    </g>
    <g id="ytick_3">
     <g id="line2d_6">
      <g>
       <use xlink:href="#m2c262f0531" x="90" y="298.944" style="stroke: #000000; stroke-width: 0.8"/>
      </g>
     </g>
     <g id="text_6">
      <!-- 0.2 -->
      <g transform="translate(67.096875 302.743219) scale(0.1 -0.1)">
       <use xlink:href="#DejaVuSans-30"/>
       <use xlink:href="#DejaVuSans-2e" x="63.623047"/>
       <use xlink:href="#DejaVuSans-32" x="95.410156"/>
      </g>
     </g>
    </g>
    <g id="ytick_4">
     <g id="line2d_7">
      <g>
       <use xlink:href="#m2c262f0531" x="90" y="202.176" style="stroke: #000000; stroke-width: 0.8"/>
      </g>
     </g>
     <g id="text_7">
      <!-- 0.3 -->
      <g transform="translate(67.096875 205.975219) scale(0.1 -0.1)">
       <defs>
        <path id="DejaVuSans-33" d="M 2597 2516 
Q 3050 2419 3304 2112 
Q 3559 1806 3559 1356 
Q 3559 666 3084 287 
Q 2609 -91 1734 -91 
Q 1441 -91 1130 -33 
Q 819 25 488 141 
L 488 750 
Q 750 597 1062 519 
Q 1375 441 1716 441 
Q 2309 441 2620 675 
Q 2931 909 2931 1356 
Q 2931 1769 2642 2001 
Q 2353 2234 1838 2234 
L 1294 2234 
L 1294 2753 
L 1863 2753 
Q 2328 2753 2575 2939 
Q 2822 3125 2822 3475 
Q 2822 3834 2567 4026 
Q 2313 4219 1838 4219 
Q 1578 4219 1281 4162 
Q 984 4106 628 3988 
L 628 4550 
Q 988 4650 1302 4700 
Q 1616 4750 1894 4750 
Q 2613 4750 3031 4423 
Q 3450 4097 3450 3541 
Q 3450 3153 3228 2886 
Q 3006 2619 2597 2516 
z
" transform="scale(0.015625)"/>
       </defs>
       <use xlink:href="#DejaVuSans-30"/>
       <use xlink:href="#DejaVuSans-2e" x="63.623047"/>
       <use xlink:href="#DejaVuSans-33" x="95.410156"/>
      </g>
     </g>
    </g>
    <g id="ytick_5">
     <g id="line2d_8">
      <g>
       <use xlink:href="#m2c262f0531" x="90" y="105.408" style="stroke: #000000; stroke-width: 0.8"/>
      </g>
     </g>
     <g id="text_8">
      <!-- 0.4 -->
      <g transform="translate(67.096875 109.207219) scale(0.1 -0.1)">
       <defs>
        <path id="DejaVuSans-34" d="M 2419 4116 
L 825 1625 
L 2419 1625 
L 2419 4116 
z
M 2253 4666 
L 3047 4666 
L 3047 1625 
L 3713 1625 
L 3713 1100 
L 3047 1100 
L 3047 0 
L 2419 0 
L 2419 1100 
L 313 1100 
L 313 1709 
L 2253 4666 
z
" transform="scale(0.015625)"/>
       </defs>
       <use xlink:href="#DejaVuSans-30"/>
       <use xlink:href="#DejaVuSans-2e" x="63.623047"/>
       <use xlink:href="#DejaVuSans-34" x="95.410156"/>
      </g>
     </g>
    </g>
   </g>
   <g id="line2d_9">
    <path d="M 97.459893 492.48 
L 99.956928 492.48 
L 100.581187 169.92 
L 103.702481 169.92 
L 104.32674 331.2 
L 114.93914 331.2 
L 115.563399 277.44 
L 118.684693 277.44 
L 119.308952 250.56 
L 122.430246 250.56 
L 123.054505 291.776 
L 126.175799 291.776 
L 126.800058 320.448 
L 129.921352 320.448 
L 130.545611 346.56 
L 133.666905 346.56 
L 134.291164 350.695385 
L 137.412458 350.695385 
L 138.036717 354.24 
L 141.158011 354.24 
L 141.78227 360 
L 144.903564 360 
L 145.527823 362.371765 
L 148.649117 362.371765 
L 149.273376 368.064 
L 152.39467 368.064 
L 153.018929 382.516364 
L 156.140223 382.516364 
L 156.764482 391.476364 
L 159.885776 391.476364 
L 160.510035 401.088 
L 163.631329 401.088 
L 164.255588 406.952727 
L 171.122435 406.952727 
L 171.746694 408.027927 
L 174.867988 408.027927 
L 175.492247 409.02042 
L 178.613541 409.02042 
L 179.2378 413.907692 
L 182.359094 413.907692 
L 182.983353 421.351385 
L 189.8502 421.351385 
L 190.474459 426.24 
L 193.595753 426.24 
L 194.220012 427.425882 
L 197.341306 427.425882 
L 197.965565 492.48 
L 246.657754 492.48 
L 246.657754 492.48 
" clip-path="url(#pabbb3cc31a)" style="fill: none; stroke: #0000ff; stroke-width: 1.5; stroke-linecap: square"/>
   </g>
   <g id="line2d_10">
    <path d="M 97.459893 492.48 
L 99.956928 492.48 
L 100.581187 116.16 
L 107.448034 116.16 
L 108.072293 185.28 
L 111.193587 185.28 
L 111.817846 315.072 
L 114.93914 315.072 
L 115.563399 296.64 
L 118.684693 296.64 
L 119.308952 314.123294 
L 122.430246 314.123294 
L 123.054505 354.24 
L 126.175799 354.24 
L 126.800058 341.133913 
L 129.921352 341.133913 
L 130.545611 340.504615 
L 133.666905 340.504615 
L 134.291164 322.308923 
L 137.412458 322.308923 
L 138.036717 333.98069 
L 141.158011 333.98069 
L 141.78227 343.483871 
L 144.903564 343.483871 
L 145.527823 351.547871 
L 148.649117 351.547871 
L 149.273376 359.2 
L 152.39467 359.2 
L 153.018929 365.248 
L 156.140223 365.248 
L 156.764482 369.107692 
L 159.885776 369.107692 
L 160.510035 372.408745 
L 163.631329 372.408745 
L 164.255588 373.932308 
L 174.867988 373.932308 
L 175.492247 375.379692 
L 182.359094 375.379692 
L 182.983353 378.986667 
L 186.104647 378.986667 
L 186.728906 383.078119 
L 189.8502 383.078119 
L 190.474459 386.050783 
L 193.595753 386.050783 
L 194.220012 389.9776 
L 197.341306 389.9776 
L 197.965565 492.48 
L 219.814624 492.48 
L 220.438883 365.76 
L 223.560177 365.76 
L 224.184436 379.584 
L 227.30573 379.584 
L 227.929989 388.544 
L 231.051283 388.544 
L 231.675542 395.712 
L 246.657754 395.712 
L 246.657754 395.712 
" clip-path="url(#pabbb3cc31a)" style="fill: none; stroke: #ff0000; stroke-width: 1.5; stroke-linecap: square"/>
   </g>
   <g id="line2d_11">
    <path d="M 97.459893 492.48 
L 99.956928 492.48 
L 100.581187 169.92 
L 103.702481 169.92 
L 104.32674 492.48 
L 107.448034 492.48 
L 108.072293 169.92 
L 111.193587 169.92 
L 111.817846 331.2 
L 114.93914 331.2 
L 115.563399 384.96 
L 118.684693 384.96 
L 119.308952 347.328 
L 122.430246 347.328 
L 123.054505 358.08 
L 133.666905 358.08 
L 134.291164 381.888 
L 137.412458 381.888 
L 138.036717 398.4 
L 141.158011 398.4 
L 141.78227 410.56 
L 197.341306 410.56 
L 197.965565 169.92 
L 204.832412 169.92 
L 205.456671 89.28 
L 208.577965 89.28 
L 209.202224 196.8 
L 212.323518 196.8 
L 212.947777 186.048 
L 219.814624 186.048 
L 220.438883 234.432 
L 227.30573 234.432 
L 227.929989 245.184 
L 231.051283 245.184 
L 231.675542 252.864 
L 234.796836 252.864 
L 235.421095 285.12 
L 246.033495 285.12 
L 246.657754 308.16 
L 246.657754 308.16 
" clip-path="url(#pabbb3cc31a)" style="fill: none; stroke: #008000; stroke-width: 1.5; stroke-linecap: square"/>
   </g>
   <g id="patch_3">
    <path d="M 90 512.64 
L 90 69.12 
" style="fill: none; stroke: #000000; stroke-width: 0.8; stroke-linejoin: miter; stroke-linecap: square"/>
   </g>
   <g id="patch_4">
    <path d="M 254.117647 512.64 
L 254.117647 69.12 
" style="fill: none; stroke: #000000; stroke-width: 0.8; stroke-linejoin: miter; stroke-linecap: square"/>
   </g>
   <g id="patch_5">
    <path d="M 90 512.64 
L 254.117647 512.64 
" style="fill: none; stroke: #000000; stroke-width: 0.8; stroke-linejoin: miter; stroke-linecap: square"/>
   </g>
   <g id="patch_6">
    <path d="M 90 69.12 
L 254.117647 69.12 
" style="fill: none; stroke: #000000; stroke-width: 0.8; stroke-linejoin: miter; stroke-linecap: square"/>
   </g>
   <g id="legend_1">
    <g id="patch_7">
     <path d="M 133.136949 314.397188 
L 210.980699 314.397188 
Q 212.980699 314.397188 212.980699 312.397188 
L 212.980699 269.362813 
Q 212.980699 267.362813 210.980699 267.362813 
L 133.136949 267.362813 
Q 131.136949 267.362813 131.136949 269.362813 
L 131.136949 312.397188 
Q 131.136949 314.397188 133.136949 314.397188 
z
" style="fill: #ffffff; opacity: 0.8; stroke: #cccccc; stroke-linejoin: miter"/>
    </g>
    <g id="line2d_12">
     <path d="M 135.136949 275.46125 
L 145.136949 275.46125 
L 155.136949 275.46125 
" style="fill: none; stroke: #0000ff; stroke-width: 1.5; stroke-linecap: square"/>
    </g>
    <g id="text_9">
     <!-- O1 utility -->
     <g transform="translate(163.136949 278.96125) scale(0.1 -0.1)">
      <defs>
       <path id="DejaVuSans-4f" d="M 2522 4238 
Q 1834 4238 1429 3725 
Q 1025 3213 1025 2328 
Q 1025 1447 1429 934 
Q 1834 422 2522 422 
Q 3209 422 3611 934 
Q 4013 1447 4013 2328 
Q 4013 3213 3611 3725 
Q 3209 4238 2522 4238 
z
M 2522 4750 
Q 3503 4750 4090 4092 
Q 4678 3434 4678 2328 
Q 4678 1225 4090 567 
Q 3503 -91 2522 -91 
Q 1538 -91 948 565 
Q 359 1222 359 2328 
Q 359 3434 948 4092 
Q 1538 4750 2522 4750 
z
" transform="scale(0.015625)"/>
       <path id="DejaVuSans-20" transform="scale(0.015625)"/>
       <path id="DejaVuSans-75" d="M 544 1381 
L 544 3500 
L 1119 3500 
L 1119 1403 
Q 1119 906 1312 657 
Q 1506 409 1894 409 
Q 2359 409 2629 706 
Q 2900 1003 2900 1516 
L 2900 3500 
L 3475 3500 
L 3475 0 
L 2900 0 
L 2900 538 
Q 2691 219 2414 64 
Q 2138 -91 1772 -91 
Q 1169 -91 856 284 
Q 544 659 544 1381 
z
M 1991 3584 
L 1991 3584 
z
" transform="scale(0.015625)"/>
       <path id="DejaVuSans-74" d="M 1172 4494 
L 1172 3500 
L 2356 3500 
L 2356 3053 
L 1172 3053 
L 1172 1153 
Q 1172 725 1289 603 
Q 1406 481 1766 481 
L 2356 481 
L 2356 0 
L 1766 0 
Q 1100 0 847 248 
Q 594 497 594 1153 
L 594 3053 
L 172 3053 
L 172 3500 
L 594 3500 
L 594 4494 
L 1172 4494 
z
" transform="scale(0.015625)"/>
       <path id="DejaVuSans-69" d="M 603 3500 
L 1178 3500 
L 1178 0 
L 603 0 
L 603 3500 
z
M 603 4863 
L 1178 4863 
L 1178 4134 
L 603 4134 
L 603 4863 
z
" transform="scale(0.015625)"/>
       <path id="DejaVuSans-6c" d="M 603 4863 
L 1178 4863 
L 1178 0 
L 603 0 
L 603 4863 
z
" transform="scale(0.015625)"/>
       <path id="DejaVuSans-79" d="M 2059 -325 
Q 1816 -950 1584 -1140 
Q 1353 -1331 966 -1331 
L 506 -1331 
L 506 -850 
L 844 -850 
Q 1081 -850 1212 -737 
Q 1344 -625 1503 -206 
L 1606 56 
L 191 3500 
L 800 3500 
L 1894 763 
L 2988 3500 
L 3597 3500 
L 2059 -325 
z
" transform="scale(0.015625)"/>
      </defs>
      <use xlink:href="#DejaVuSans-4f"/>
      <use xlink:href="#DejaVuSans-31" x="78.710938"/>
      <use xlink:href="#DejaVuSans-20" x="142.333984"/>
      <use xlink:href="#DejaVuSans-75" x="174.121094"/>
      <use xlink:href="#DejaVuSans-74" x="237.5"/>
      <use xlink:href="#DejaVuSans-69" x="276.708984"/>
      <use xlink:href="#DejaVuSans-6c" x="304.492188"/>
      <use xlink:href="#DejaVuSans-69" x="332.275391"/>
      <use xlink:href="#DejaVuSans-74" x="360.058594"/>
      <use xlink:href="#DejaVuSans-79" x="399.267578"/>
     </g>
    </g>
    <g id="line2d_13">
     <path d="M 135.136949 290.139375 
L 145.136949 290.139375 
L 155.136949 290.139375 
" style="fill: none; stroke: #ff0000; stroke-width: 1.5; stroke-linecap: square"/>
    </g>
    <g id="text_10">
     <!-- O2 utility -->
     <g transform="translate(163.136949 293.639375) scale(0.1 -0.1)">
      <use xlink:href="#DejaVuSans-4f"/>
      <use xlink:href="#DejaVuSans-32" x="78.710938"/>
      <use xlink:href="#DejaVuSans-20" x="142.333984"/>
      <use xlink:href="#DejaVuSans-75" x="174.121094"/>
      <use xlink:href="#DejaVuSans-74" x="237.5"/>
      <use xlink:href="#DejaVuSans-69" x="276.708984"/>
      <use xlink:href="#DejaVuSans-6c" x="304.492188"/>
      <use xlink:href="#DejaVuSans-69" x="332.275391"/>
      <use xlink:href="#DejaVuSans-74" x="360.058594"/>
      <use xlink:href="#DejaVuSans-79" x="399.267578"/>
     </g>
    </g>
    <g id="line2d_14">
     <path d="M 135.136949 304.8175 
L 145.136949 304.8175 
L 155.136949 304.8175 
" style="fill: none; stroke: #008000; stroke-width: 1.5; stroke-linecap: square"/>
    </g>
    <g id="text_11">
     <!-- O3 utility -->
     <g transform="translate(163.136949 308.3175) scale(0.1 -0.1)">
      <use xlink:href="#DejaVuSans-4f"/>
      <use xlink:href="#DejaVuSans-33" x="78.710938"/>
      <use xlink:href="#DejaVuSans-20" x="142.333984"/>
      <use xlink:href="#DejaVuSans-75" x="174.121094"/>
      <use xlink:href="#DejaVuSans-74" x="237.5"/>
      <use xlink:href="#DejaVuSans-69" x="276.708984"/>
      <use xlink:href="#DejaVuSans-6c" x="304.492188"/>
      <use xlink:href="#DejaVuSans-69" x="332.275391"/>
      <use xlink:href="#DejaVuSans-74" x="360.058594"/>
      <use xlink:href="#DejaVuSans-79" x="399.267578"/>
     </g>
    </g>
   </g>
  </g>
  <g id="axes_2">
   <g id="patch_8">
    <path d="M 286.941176 512.64 
L 451.058824 512.64 
L 451.058824 69.12 
L 286.941176 69.12 
z
" style="fill: #ffffff"/>
   </g>
   <g id="matplotlib.axis_3">
    <g id="xtick_4">
     <g id="line2d_15">
      <g>
       <use xlink:href="#mb899fef759" x="293.776811" y="512.64" style="stroke: #000000; stroke-width: 0.8"/>
      </g>
     </g>
     <g id="text_12">
      <!-- 0 -->
      <g transform="translate(290.595561 527.238438) scale(0.1 -0.1)">
       <use xlink:href="#DejaVuSans-30"/>
      </g>
     </g>
    </g>
    <g id="xtick_5">
     <g id="line2d_16">
      <g>
       <use xlink:href="#mb899fef759" x="356.202694" y="512.64" style="stroke: #000000; stroke-width: 0.8"/>
      </g>
     </g>
     <g id="text_13">
      <!-- 100 -->
      <g transform="translate(346.658944 527.238438) scale(0.1 -0.1)">
       <use xlink:href="#DejaVuSans-31"/>
       <use xlink:href="#DejaVuSans-30" x="63.623047"/>
       <use xlink:href="#DejaVuSans-30" x="127.246094"/>
      </g>
     </g>
    </g>
    <g id="xtick_6">
     <g id="line2d_17">
      <g>
       <use xlink:href="#mb899fef759" x="418.628577" y="512.64" style="stroke: #000000; stroke-width: 0.8"/>
      </g>
     </g>
     <g id="text_14">
      <!-- 200 -->
      <g transform="translate(409.084827 527.238438) scale(0.1 -0.1)">
       <use xlink:href="#DejaVuSans-32"/>
       <use xlink:href="#DejaVuSans-30" x="63.623047"/>
       <use xlink:href="#DejaVuSans-30" x="127.246094"/>
      </g>
     </g>
    </g>
   </g>
   <g id="matplotlib.axis_4">
    <g id="ytick_6">
     <g id="line2d_18">
      <g>
       <use xlink:href="#m2c262f0531" x="286.941176" y="492.48" style="stroke: #000000; stroke-width: 0.8"/>
      </g>
     </g>
     <g id="text_15">
      <!-- 0 -->
      <g transform="translate(273.578676 496.279219) scale(0.1 -0.1)">
       <use xlink:href="#DejaVuSans-30"/>
      </g>
     </g>
    </g>
    <g id="ytick_7">
     <g id="line2d_19">
      <g>
       <use xlink:href="#m2c262f0531" x="286.941176" y="401.873258" style="stroke: #000000; stroke-width: 0.8"/>
      </g>
     </g>
     <g id="text_16">
      <!-- 20 -->
      <g transform="translate(267.216176 405.672477) scale(0.1 -0.1)">
       <use xlink:href="#DejaVuSans-32"/>
       <use xlink:href="#DejaVuSans-30" x="63.623047"/>
      </g>
     </g>
    </g>
    <g id="ytick_8">
     <g id="line2d_20">
      <g>
       <use xlink:href="#m2c262f0531" x="286.941176" y="311.266517" style="stroke: #000000; stroke-width: 0.8"/>
      </g>
     </g>
     <g id="text_17">
      <!-- 40 -->
      <g transform="translate(267.216176 315.065736) scale(0.1 -0.1)">
       <use xlink:href="#DejaVuSans-34"/>
       <use xlink:href="#DejaVuSans-30" x="63.623047"/>
      </g>
     </g>
    </g>
    <g id="ytick_9">
     <g id="line2d_21">
      <g>
       <use xlink:href="#m2c262f0531" x="286.941176" y="220.659775" style="stroke: #000000; stroke-width: 0.8"/>
      </g>
     </g>
     <g id="text_18">
      <!-- 60 -->
      <g transform="translate(267.216176 224.458994) scale(0.1 -0.1)">
       <defs>
        <path id="DejaVuSans-36" d="M 2113 2584 
Q 1688 2584 1439 2293 
Q 1191 2003 1191 1497 
Q 1191 994 1439 701 
Q 1688 409 2113 409 
Q 2538 409 2786 701 
Q 3034 994 3034 1497 
Q 3034 2003 2786 2293 
Q 2538 2584 2113 2584 
z
M 3366 4563 
L 3366 3988 
Q 3128 4100 2886 4159 
Q 2644 4219 2406 4219 
Q 1781 4219 1451 3797 
Q 1122 3375 1075 2522 
Q 1259 2794 1537 2939 
Q 1816 3084 2150 3084 
Q 2853 3084 3261 2657 
Q 3669 2231 3669 1497 
Q 3669 778 3244 343 
Q 2819 -91 2113 -91 
Q 1303 -91 875 529 
Q 447 1150 447 2328 
Q 447 3434 972 4092 
Q 1497 4750 2381 4750 
Q 2619 4750 2861 4703 
Q 3103 4656 3366 4563 
z
" transform="scale(0.015625)"/>
       </defs>
       <use xlink:href="#DejaVuSans-36"/>
       <use xlink:href="#DejaVuSans-30" x="63.623047"/>
      </g>
     </g>
    </g>
    <g id="ytick_10">
     <g id="line2d_22">
      <g>
       <use xlink:href="#m2c262f0531" x="286.941176" y="130.053034" style="stroke: #000000; stroke-width: 0.8"/>
      </g>
     </g>
     <g id="text_19">
      <!-- 80 -->
      <g transform="translate(267.216176 133.852252) scale(0.1 -0.1)">
       <defs>
        <path id="DejaVuSans-38" d="M 2034 2216 
Q 1584 2216 1326 1975 
Q 1069 1734 1069 1313 
Q 1069 891 1326 650 
Q 1584 409 2034 409 
Q 2484 409 2743 651 
Q 3003 894 3003 1313 
Q 3003 1734 2745 1975 
Q 2488 2216 2034 2216 
z
M 1403 2484 
Q 997 2584 770 2862 
Q 544 3141 544 3541 
Q 544 4100 942 4425 
Q 1341 4750 2034 4750 
Q 2731 4750 3128 4425 
Q 3525 4100 3525 3541 
Q 3525 3141 3298 2862 
Q 3072 2584 2669 2484 
Q 3125 2378 3379 2068 
Q 3634 1759 3634 1313 
Q 3634 634 3220 271 
Q 2806 -91 2034 -91 
Q 1263 -91 848 271 
Q 434 634 434 1313 
Q 434 1759 690 2068 
Q 947 2378 1403 2484 
z
M 1172 3481 
Q 1172 3119 1398 2916 
Q 1625 2713 2034 2713 
Q 2441 2713 2670 2916 
Q 2900 3119 2900 3481 
Q 2900 3844 2670 4047 
Q 2441 4250 2034 4250 
Q 1625 4250 1398 4047 
Q 1172 3844 1172 3481 
z
" transform="scale(0.015625)"/>
       </defs>
       <use xlink:href="#DejaVuSans-38"/>
       <use xlink:href="#DejaVuSans-30" x="63.623047"/>
      </g>
     </g>
    </g>
   </g>
   <g id="line2d_23">
    <path d="M 294.40107 492.48 
L 300.643658 492.48 
L 301.267917 478.888989 
L 304.389211 478.888989 
L 305.01347 469.828315 
L 311.880317 469.828315 
L 312.504576 447.176629 
L 315.62587 447.176629 
L 316.250129 429.055281 
L 319.371423 429.055281 
L 319.995682 419.994607 
L 323.116976 419.994607 
L 323.741235 406.403596 
L 326.862529 406.403596 
L 327.486788 388.282247 
L 330.608082 388.282247 
L 331.232341 365.630562 
L 334.353635 365.630562 
L 334.977894 356.569888 
L 338.099188 356.569888 
L 338.723447 347.509213 
L 341.844741 347.509213 
L 342.469 333.918202 
L 345.590294 333.918202 
L 346.214553 320.327191 
L 349.335847 320.327191 
L 349.960106 302.205843 
L 353.0814 302.205843 
L 353.705659 297.675506 
L 356.826953 297.675506 
L 357.451212 284.084494 
L 360.572506 284.084494 
L 361.196765 279.554157 
L 368.063612 279.554157 
L 368.687871 270.493483 
L 371.809165 270.493483 
L 372.433424 265.963146 
L 375.554718 265.963146 
L 376.178977 256.902472 
L 379.300271 256.902472 
L 379.92453 229.720449 
L 386.791377 229.720449 
L 387.415636 211.599101 
L 390.53693 211.599101 
L 391.161189 193.477753 
L 393.658224 193.477753 
L 394.282483 492.48 
L 394.906742 487.949663 
L 398.028036 487.949663 
L 398.652295 478.888989 
L 401.773589 478.888989 
L 402.397848 474.358652 
L 405.519142 474.358652 
L 406.143401 460.76764 
L 409.264695 460.76764 
L 409.888954 451.706966 
L 413.010248 451.706966 
L 413.634507 438.115955 
L 416.755801 438.115955 
L 417.38006 433.585618 
L 420.501354 433.585618 
L 421.125613 429.055281 
L 424.246907 429.055281 
L 424.871166 410.933933 
L 427.99246 410.933933 
L 428.616719 397.342921 
L 431.738013 397.342921 
L 432.362271 388.282247 
L 435.483566 388.282247 
L 436.107824 374.691236 
L 439.229119 374.691236 
L 439.853377 365.630562 
L 442.974672 365.630562 
L 443.59893 356.569888 
L 443.59893 356.569888 
" clip-path="url(#pd16a1af21c)" style="fill: none; stroke: #0000ff; stroke-width: 1.5; stroke-linecap: square"/>
   </g>
   <g id="line2d_24">
    <path d="M 294.40107 492.48 
L 296.898105 492.48 
L 297.522364 465.297978 
L 300.643658 465.297978 
L 301.267917 447.176629 
L 304.389211 447.176629 
L 305.01347 429.055281 
L 308.134764 429.055281 
L 308.759023 392.812584 
L 311.880317 392.812584 
L 312.504576 374.691236 
L 315.62587 374.691236 
L 316.250129 356.569888 
L 319.371423 356.569888 
L 319.995682 324.857528 
L 323.116976 324.857528 
L 323.741235 297.675506 
L 326.862529 297.675506 
L 327.486788 279.554157 
L 330.608082 279.554157 
L 331.232341 270.493483 
L 334.353635 270.493483 
L 334.977894 252.372135 
L 338.099188 252.372135 
L 338.723447 234.250787 
L 341.844741 234.250787 
L 342.469 220.659775 
L 345.590294 220.659775 
L 346.214553 198.00809 
L 349.335847 198.00809 
L 349.960106 184.417079 
L 353.0814 184.417079 
L 353.705659 170.826067 
L 356.826953 170.826067 
L 357.451212 161.765393 
L 360.572506 161.765393 
L 361.196765 157.235056 
L 371.809165 157.235056 
L 372.433424 152.704719 
L 379.300271 152.704719 
L 379.92453 139.113708 
L 383.045824 139.113708 
L 383.670083 120.99236 
L 386.791377 120.99236 
L 387.415636 107.401348 
L 390.53693 107.401348 
L 391.161189 89.28 
L 393.658224 89.28 
L 394.282483 492.48 
L 394.906742 469.828315 
L 398.028036 469.828315 
L 398.652295 456.237303 
L 401.773589 456.237303 
L 402.397848 438.115955 
L 405.519142 438.115955 
L 406.143401 424.524944 
L 409.264695 424.524944 
L 409.888954 406.403596 
L 413.010248 406.403596 
L 413.634507 388.282247 
L 416.755801 388.282247 
L 417.38006 365.630562 
L 420.501354 365.630562 
L 421.125613 342.978876 
L 424.246907 342.978876 
L 424.871166 338.448539 
L 427.99246 338.448539 
L 428.616719 333.918202 
L 431.738013 333.918202 
L 432.362271 324.857528 
L 435.483566 324.857528 
L 436.107824 320.327191 
L 443.59893 320.327191 
L 443.59893 320.327191 
" clip-path="url(#pd16a1af21c)" style="fill: none; stroke: #ff0000; stroke-width: 1.5; stroke-linecap: square"/>
   </g>
   <g id="line2d_25">
    <path d="M 294.40107 492.48 
L 300.643658 492.48 
L 301.267917 478.888989 
L 304.389211 478.888989 
L 305.01347 460.76764 
L 308.134764 460.76764 
L 308.759023 451.706966 
L 311.880317 451.706966 
L 312.504576 447.176629 
L 315.62587 447.176629 
L 316.250129 438.115955 
L 319.371423 438.115955 
L 319.995682 433.585618 
L 326.862529 433.585618 
L 327.486788 429.055281 
L 330.608082 429.055281 
L 331.232341 419.994607 
L 334.353635 419.994607 
L 334.977894 410.933933 
L 338.099188 410.933933 
L 338.723447 401.873258 
L 393.658224 401.873258 
L 394.282483 492.48 
L 394.906742 483.419326 
L 398.028036 483.419326 
L 398.652295 469.828315 
L 401.773589 469.828315 
L 402.397848 456.237303 
L 405.519142 456.237303 
L 406.143401 447.176629 
L 409.264695 447.176629 
L 409.888954 438.115955 
L 416.755801 438.115955 
L 417.38006 433.585618 
L 424.246907 433.585618 
L 424.871166 429.055281 
L 427.99246 429.055281 
L 428.616719 419.994607 
L 431.738013 419.994607 
L 432.362271 415.46427 
L 439.229119 415.46427 
L 439.853377 410.933933 
L 442.974672 410.933933 
L 443.59893 406.403596 
L 443.59893 406.403596 
" clip-path="url(#pd16a1af21c)" style="fill: none; stroke: #008000; stroke-width: 1.5; stroke-linecap: square"/>
   </g>
   <g id="patch_9">
    <path d="M 286.941176 512.64 
L 286.941176 69.12 
" style="fill: none; stroke: #000000; stroke-width: 0.8; stroke-linejoin: miter; stroke-linecap: square"/>
   </g>
   <g id="patch_10">
    <path d="M 451.058824 512.64 
L 451.058824 69.12 
" style="fill: none; stroke: #000000; stroke-width: 0.8; stroke-linejoin: miter; stroke-linecap: square"/>
   </g>
   <g id="patch_11">
    <path d="M 286.941176 512.64 
L 451.058824 512.64 
" style="fill: none; stroke: #000000; stroke-width: 0.8; stroke-linejoin: miter; stroke-linecap: square"/>
   </g>
   <g id="patch_12">
    <path d="M 286.941176 69.12 
L 451.058824 69.12 
" style="fill: none; stroke: #000000; stroke-width: 0.8; stroke-linejoin: miter; stroke-linecap: square"/>
   </g>
   <g id="legend_2">
    <g id="patch_13">
     <path d="M 344.136949 121.154375 
L 444.058824 121.154375 
Q 446.058824 121.154375 446.058824 119.154375 
L 446.058824 76.12 
Q 446.058824 74.12 444.058824 74.12 
L 344.136949 74.12 
Q 342.136949 74.12 342.136949 76.12 
L 342.136949 119.154375 
Q 342.136949 121.154375 344.136949 121.154375 
z
" style="fill: #ffffff; opacity: 0.8; stroke: #cccccc; stroke-linejoin: miter"/>
    </g>
    <g id="line2d_26">
     <path d="M 346.136949 82.218438 
L 356.136949 82.218438 
L 366.136949 82.218438 
" style="fill: none; stroke: #0000ff; stroke-width: 1.5; stroke-linecap: square"/>
    </g>
    <g id="text_20">
     <!-- O1 requested -->
     <g transform="translate(374.136949 85.718438) scale(0.1 -0.1)">
      <defs>
       <path id="DejaVuSans-72" d="M 2631 2963 
Q 2534 3019 2420 3045 
Q 2306 3072 2169 3072 
Q 1681 3072 1420 2755 
Q 1159 2438 1159 1844 
L 1159 0 
L 581 0 
L 581 3500 
L 1159 3500 
L 1159 2956 
Q 1341 3275 1631 3429 
Q 1922 3584 2338 3584 
Q 2397 3584 2469 3576 
Q 2541 3569 2628 3553 
L 2631 2963 
z
" transform="scale(0.015625)"/>
       <path id="DejaVuSans-65" d="M 3597 1894 
L 3597 1613 
L 953 1613 
Q 991 1019 1311 708 
Q 1631 397 2203 397 
Q 2534 397 2845 478 
Q 3156 559 3463 722 
L 3463 178 
Q 3153 47 2828 -22 
Q 2503 -91 2169 -91 
Q 1331 -91 842 396 
Q 353 884 353 1716 
Q 353 2575 817 3079 
Q 1281 3584 2069 3584 
Q 2775 3584 3186 3129 
Q 3597 2675 3597 1894 
z
M 3022 2063 
Q 3016 2534 2758 2815 
Q 2500 3097 2075 3097 
Q 1594 3097 1305 2825 
Q 1016 2553 972 2059 
L 3022 2063 
z
" transform="scale(0.015625)"/>
       <path id="DejaVuSans-71" d="M 947 1747 
Q 947 1113 1208 752 
Q 1469 391 1925 391 
Q 2381 391 2643 752 
Q 2906 1113 2906 1747 
Q 2906 2381 2643 2742 
Q 2381 3103 1925 3103 
Q 1469 3103 1208 2742 
Q 947 2381 947 1747 
z
M 2906 525 
Q 2725 213 2448 61 
Q 2172 -91 1784 -91 
Q 1150 -91 751 415 
Q 353 922 353 1747 
Q 353 2572 751 3078 
Q 1150 3584 1784 3584 
Q 2172 3584 2448 3432 
Q 2725 3281 2906 2969 
L 2906 3500 
L 3481 3500 
L 3481 -1331 
L 2906 -1331 
L 2906 525 
z
" transform="scale(0.015625)"/>
       <path id="DejaVuSans-73" d="M 2834 3397 
L 2834 2853 
Q 2591 2978 2328 3040 
Q 2066 3103 1784 3103 
Q 1356 3103 1142 2972 
Q 928 2841 928 2578 
Q 928 2378 1081 2264 
Q 1234 2150 1697 2047 
L 1894 2003 
Q 2506 1872 2764 1633 
Q 3022 1394 3022 966 
Q 3022 478 2636 193 
Q 2250 -91 1575 -91 
Q 1294 -91 989 -36 
Q 684 19 347 128 
L 347 722 
Q 666 556 975 473 
Q 1284 391 1588 391 
Q 1994 391 2212 530 
Q 2431 669 2431 922 
Q 2431 1156 2273 1281 
Q 2116 1406 1581 1522 
L 1381 1569 
Q 847 1681 609 1914 
Q 372 2147 372 2553 
Q 372 3047 722 3315 
Q 1072 3584 1716 3584 
Q 2034 3584 2315 3537 
Q 2597 3491 2834 3397 
z
" transform="scale(0.015625)"/>
       <path id="DejaVuSans-64" d="M 2906 2969 
L 2906 4863 
L 3481 4863 
L 3481 0 
L 2906 0 
L 2906 525 
Q 2725 213 2448 61 
Q 2172 -91 1784 -91 
Q 1150 -91 751 415 
Q 353 922 353 1747 
Q 353 2572 751 3078 
Q 1150 3584 1784 3584 
Q 2172 3584 2448 3432 
Q 2725 3281 2906 2969 
z
M 947 1747 
Q 947 1113 1208 752 
Q 1469 391 1925 391 
Q 2381 391 2643 752 
Q 2906 1113 2906 1747 
Q 2906 2381 2643 2742 
Q 2381 3103 1925 3103 
Q 1469 3103 1208 2742 
Q 947 2381 947 1747 
z
" transform="scale(0.015625)"/>
      </defs>
      <use xlink:href="#DejaVuSans-4f"/>
      <use xlink:href="#DejaVuSans-31" x="78.710938"/>
      <use xlink:href="#DejaVuSans-20" x="142.333984"/>
      <use xlink:href="#DejaVuSans-72" x="174.121094"/>
      <use xlink:href="#DejaVuSans-65" x="212.984375"/>
      <use xlink:href="#DejaVuSans-71" x="274.507812"/>
      <use xlink:href="#DejaVuSans-75" x="337.984375"/>
      <use xlink:href="#DejaVuSans-65" x="401.363281"/>
      <use xlink:href="#DejaVuSans-73" x="462.886719"/>
      <use xlink:href="#DejaVuSans-74" x="514.986328"/>
      <use xlink:href="#DejaVuSans-65" x="554.195312"/>
      <use xlink:href="#DejaVuSans-64" x="615.71875"/>
     </g>
    </g>
    <g id="line2d_27">
     <path d="M 346.136949 96.896563 
L 356.136949 96.896563 
L 366.136949 96.896563 
" style="fill: none; stroke: #ff0000; stroke-width: 1.5; stroke-linecap: square"/>
    </g>
    <g id="text_21">
     <!-- O2 requested -->
     <g transform="translate(374.136949 100.396563) scale(0.1 -0.1)">
      <use xlink:href="#DejaVuSans-4f"/>
      <use xlink:href="#DejaVuSans-32" x="78.710938"/>
      <use xlink:href="#DejaVuSans-20" x="142.333984"/>
      <use xlink:href="#DejaVuSans-72" x="174.121094"/>
      <use xlink:href="#DejaVuSans-65" x="212.984375"/>
      <use xlink:href="#DejaVuSans-71" x="274.507812"/>
      <use xlink:href="#DejaVuSans-75" x="337.984375"/>
      <use xlink:href="#DejaVuSans-65" x="401.363281"/>
      <use xlink:href="#DejaVuSans-73" x="462.886719"/>
      <use xlink:href="#DejaVuSans-74" x="514.986328"/>
      <use xlink:href="#DejaVuSans-65" x="554.195312"/>
      <use xlink:href="#DejaVuSans-64" x="615.71875"/>
     </g>
    </g>
    <g id="line2d_28">
     <path d="M 346.136949 111.574688 
L 356.136949 111.574688 
L 366.136949 111.574688 
" style="fill: none; stroke: #008000; stroke-width: 1.5; stroke-linecap: square"/>
    </g>
    <g id="text_22">
     <!-- O3 requested -->
     <g transform="translate(374.136949 115.074688) scale(0.1 -0.1)">
      <use xlink:href="#DejaVuSans-4f"/>
      <use xlink:href="#DejaVuSans-33" x="78.710938"/>
      <use xlink:href="#DejaVuSans-20" x="142.333984"/>
      <use xlink:href="#DejaVuSans-72" x="174.121094"/>
      <use xlink:href="#DejaVuSans-65" x="212.984375"/>
      <use xlink:href="#DejaVuSans-71" x="274.507812"/>
      <use xlink:href="#DejaVuSans-75" x="337.984375"/>
      <use xlink:href="#DejaVuSans-65" x="401.363281"/>
      <use xlink:href="#DejaVuSans-73" x="462.886719"/>
      <use xlink:href="#DejaVuSans-74" x="514.986328"/>
      <use xlink:href="#DejaVuSans-65" x="554.195312"/>
      <use xlink:href="#DejaVuSans-64" x="615.71875"/>
     </g>
    </g>
   </g>
  </g>
  <g id="axes_3">
   <g id="patch_14">
    <path d="M 483.882353 512.64 
L 648 512.64 
L 648 69.12 
L 483.882353 69.12 
z
" style="fill: #ffffff"/>
   </g>
   <g id="matplotlib.axis_5">
    <g id="xtick_7">
     <g id="line2d_29">
      <g>
       <use xlink:href="#mb899fef759" x="490.717987" y="512.64" style="stroke: #000000; stroke-width: 0.8"/>
      </g>
     </g>
     <g id="text_23">
      <!-- 0 -->
      <g transform="translate(487.536737 527.238438) scale(0.1 -0.1)">
       <use xlink:href="#DejaVuSans-30"/>
      </g>
     </g>
    </g>
    <g id="xtick_8">
     <g id="line2d_30">
      <g>
       <use xlink:href="#mb899fef759" x="553.14387" y="512.64" style="stroke: #000000; stroke-width: 0.8"/>
      </g>
     </g>
     <g id="text_24">
      <!-- 100 -->
      <g transform="translate(543.60012 527.238438) scale(0.1 -0.1)">
       <use xlink:href="#DejaVuSans-31"/>
       <use xlink:href="#DejaVuSans-30" x="63.623047"/>
       <use xlink:href="#DejaVuSans-30" x="127.246094"/>
      </g>
     </g>
    </g>
    <g id="xtick_9">
     <g id="line2d_31">
      <g>
       <use xlink:href="#mb899fef759" x="615.569754" y="512.64" style="stroke: #000000; stroke-width: 0.8"/>
      </g>
     </g>
     <g id="text_25">
      <!-- 200 -->
      <g transform="translate(606.026004 527.238438) scale(0.1 -0.1)">
       <use xlink:href="#DejaVuSans-32"/>
       <use xlink:href="#DejaVuSans-30" x="63.623047"/>
       <use xlink:href="#DejaVuSans-30" x="127.246094"/>
      </g>
     </g>
    </g>
   </g>
   <g id="matplotlib.axis_6">
    <g id="ytick_11">
     <g id="line2d_32">
      <g>
       <use xlink:href="#m2c262f0531" x="483.882353" y="492.48" style="stroke: #000000; stroke-width: 0.8"/>
      </g>
     </g>
     <g id="text_26">
      <!-- 0 -->
      <g transform="translate(470.519853 496.279219) scale(0.1 -0.1)">
       <use xlink:href="#DejaVuSans-30"/>
      </g>
     </g>
    </g>
    <g id="ytick_12">
     <g id="line2d_33">
      <g>
       <use xlink:href="#m2c262f0531" x="483.882353" y="411.84" style="stroke: #000000; stroke-width: 0.8"/>
      </g>
     </g>
     <g id="text_27">
      <!-- 2 -->
      <g transform="translate(470.519853 415.639219) scale(0.1 -0.1)">
       <use xlink:href="#DejaVuSans-32"/>
      </g>
     </g>
    </g>
    <g id="ytick_13">
     <g id="line2d_34">
      <g>
       <use xlink:href="#m2c262f0531" x="483.882353" y="331.2" style="stroke: #000000; stroke-width: 0.8"/>
      </g>
     </g>
     <g id="text_28">
      <!-- 4 -->
      <g transform="translate(470.519853 334.999219) scale(0.1 -0.1)">
       <use xlink:href="#DejaVuSans-34"/>
      </g>
     </g>
    </g>
    <g id="ytick_14">
     <g id="line2d_35">
      <g>
       <use xlink:href="#m2c262f0531" x="483.882353" y="250.56" style="stroke: #000000; stroke-width: 0.8"/>
      </g>
     </g>
     <g id="text_29">
      <!-- 6 -->
      <g transform="translate(470.519853 254.359219) scale(0.1 -0.1)">
       <use xlink:href="#DejaVuSans-36"/>
      </g>
     </g>
    </g>
    <g id="ytick_15">
     <g id="line2d_36">
      <g>
       <use xlink:href="#m2c262f0531" x="483.882353" y="169.92" style="stroke: #000000; stroke-width: 0.8"/>
      </g>
     </g>
     <g id="text_30">
      <!-- 8 -->
      <g transform="translate(470.519853 173.719219) scale(0.1 -0.1)">
       <use xlink:href="#DejaVuSans-38"/>
      </g>
     </g>
    </g>
    <g id="ytick_16">
     <g id="line2d_37">
      <g>
       <use xlink:href="#m2c262f0531" x="483.882353" y="89.28" style="stroke: #000000; stroke-width: 0.8"/>
      </g>
     </g>
     <g id="text_31">
      <!-- 10 -->
      <g transform="translate(464.157353 93.079219) scale(0.1 -0.1)">
       <use xlink:href="#DejaVuSans-31"/>
       <use xlink:href="#DejaVuSans-30" x="63.623047"/>
      </g>
     </g>
    </g>
   </g>
   <g id="line2d_38">
    <path d="M 491.342246 492.48 
L 493.839281 492.48 
L 494.46354 452.16 
L 508.821493 452.16 
L 509.445752 411.84 
L 512.567046 411.84 
L 513.191305 331.2 
L 590.5994 331.2 
L 591.223659 492.48 
L 640.540107 492.48 
L 640.540107 492.48 
" clip-path="url(#p652cddd8c4)" style="fill: none; stroke: #0000ff; stroke-width: 1.5; stroke-linecap: square"/>
   </g>
   <g id="line2d_39">
    <path d="M 491.342246 492.48 
L 493.839281 492.48 
L 494.46354 331.2 
L 508.821493 331.2 
L 509.445752 250.56 
L 512.567046 250.56 
L 513.191305 210.24 
L 520.058152 210.24 
L 520.682411 169.92 
L 523.803705 169.92 
L 524.427964 129.6 
L 527.549258 129.6 
L 528.173517 89.28 
L 590.5994 89.28 
L 591.223659 492.48 
L 613.696977 492.48 
L 614.321236 371.52 
L 640.540107 371.52 
L 640.540107 371.52 
" clip-path="url(#p652cddd8c4)" style="fill: none; stroke: #ff0000; stroke-width: 1.5; stroke-linecap: square"/>
   </g>
   <g id="line2d_40">
    <path d="M 491.342246 492.48 
L 493.839281 492.48 
L 494.46354 452.16 
L 512.567046 452.16 
L 513.191305 411.84 
L 590.5994 411.84 
L 591.223659 492.48 
L 591.847918 452.16 
L 594.969212 452.16 
L 595.593471 411.84 
L 598.714765 411.84 
L 599.339024 371.52 
L 606.205871 371.52 
L 606.83013 331.2 
L 640.540107 331.2 
L 640.540107 331.2 
" clip-path="url(#p652cddd8c4)" style="fill: none; stroke: #008000; stroke-width: 1.5; stroke-linecap: square"/>
   </g>
   <g id="patch_15">
    <path d="M 483.882353 512.64 
L 483.882353 69.12 
" style="fill: none; stroke: #000000; stroke-width: 0.8; stroke-linejoin: miter; stroke-linecap: square"/>
   </g>
   <g id="patch_16">
    <path d="M 648 512.64 
L 648 69.12 
" style="fill: none; stroke: #000000; stroke-width: 0.8; stroke-linejoin: miter; stroke-linecap: square"/>
   </g>
   <g id="patch_17">
    <path d="M 483.882353 512.64 
L 648 512.64 
" style="fill: none; stroke: #000000; stroke-width: 0.8; stroke-linejoin: miter; stroke-linecap: square"/>
   </g>
   <g id="patch_18">
    <path d="M 483.882353 69.12 
L 648 69.12 
" style="fill: none; stroke: #000000; stroke-width: 0.8; stroke-linejoin: miter; stroke-linecap: square"/>
   </g>
   <g id="legend_3">
    <g id="patch_19">
     <path d="M 551.1625 314.397188 
L 641 314.397188 
Q 643 314.397188 643 312.397188 
L 643 269.362813 
Q 643 267.362813 641 267.362813 
L 551.1625 267.362813 
Q 549.1625 267.362813 549.1625 269.362813 
L 549.1625 312.397188 
Q 549.1625 314.397188 551.1625 314.397188 
z
" style="fill: #ffffff; opacity: 0.8; stroke: #cccccc; stroke-linejoin: miter"/>
    </g>
    <g id="line2d_41">
     <path d="M 553.1625 275.46125 
L 563.1625 275.46125 
L 573.1625 275.46125 
" style="fill: none; stroke: #0000ff; stroke-width: 1.5; stroke-linecap: square"/>
    </g>
    <g id="text_32">
     <!-- O1 ensured -->
     <g transform="translate(581.1625 278.96125) scale(0.1 -0.1)">
      <defs>
       <path id="DejaVuSans-6e" d="M 3513 2113 
L 3513 0 
L 2938 0 
L 2938 2094 
Q 2938 2591 2744 2837 
Q 2550 3084 2163 3084 
Q 1697 3084 1428 2787 
Q 1159 2491 1159 1978 
L 1159 0 
L 581 0 
L 581 3500 
L 1159 3500 
L 1159 2956 
Q 1366 3272 1645 3428 
Q 1925 3584 2291 3584 
Q 2894 3584 3203 3211 
Q 3513 2838 3513 2113 
z
" transform="scale(0.015625)"/>
      </defs>
      <use xlink:href="#DejaVuSans-4f"/>
      <use xlink:href="#DejaVuSans-31" x="78.710938"/>
      <use xlink:href="#DejaVuSans-20" x="142.333984"/>
      <use xlink:href="#DejaVuSans-65" x="174.121094"/>
      <use xlink:href="#DejaVuSans-6e" x="235.644531"/>
      <use xlink:href="#DejaVuSans-73" x="299.023438"/>
      <use xlink:href="#DejaVuSans-75" x="351.123047"/>
      <use xlink:href="#DejaVuSans-72" x="414.501953"/>
      <use xlink:href="#DejaVuSans-65" x="453.365234"/>
      <use xlink:href="#DejaVuSans-64" x="514.888672"/>
     </g>
    </g>
    <g id="line2d_42">
     <path d="M 553.1625 290.139375 
L 563.1625 290.139375 
L 573.1625 290.139375 
" style="fill: none; stroke: #ff0000; stroke-width: 1.5; stroke-linecap: square"/>
    </g>
    <g id="text_33">
     <!-- O2 ensured -->
     <g transform="translate(581.1625 293.639375) scale(0.1 -0.1)">
      <use xlink:href="#DejaVuSans-4f"/>
      <use xlink:href="#DejaVuSans-32" x="78.710938"/>
      <use xlink:href="#DejaVuSans-20" x="142.333984"/>
      <use xlink:href="#DejaVuSans-65" x="174.121094"/>
      <use xlink:href="#DejaVuSans-6e" x="235.644531"/>
      <use xlink:href="#DejaVuSans-73" x="299.023438"/>
      <use xlink:href="#DejaVuSans-75" x="351.123047"/>
      <use xlink:href="#DejaVuSans-72" x="414.501953"/>
      <use xlink:href="#DejaVuSans-65" x="453.365234"/>
      <use xlink:href="#DejaVuSans-64" x="514.888672"/>
     </g>
    </g>
    <g id="line2d_43">
     <path d="M 553.1625 304.8175 
L 563.1625 304.8175 
L 573.1625 304.8175 
" style="fill: none; stroke: #008000; stroke-width: 1.5; stroke-linecap: square"/>
    </g>
    <g id="text_34">
     <!-- O3 ensured -->
     <g transform="translate(581.1625 308.3175) scale(0.1 -0.1)">
      <use xlink:href="#DejaVuSans-4f"/>
      <use xlink:href="#DejaVuSans-33" x="78.710938"/>
      <use xlink:href="#DejaVuSans-20" x="142.333984"/>
      <use xlink:href="#DejaVuSans-65" x="174.121094"/>
      <use xlink:href="#DejaVuSans-6e" x="235.644531"/>
      <use xlink:href="#DejaVuSans-73" x="299.023438"/>
      <use xlink:href="#DejaVuSans-75" x="351.123047"/>
      <use xlink:href="#DejaVuSans-72" x="414.501953"/>
      <use xlink:href="#DejaVuSans-65" x="453.365234"/>
      <use xlink:href="#DejaVuSans-64" x="514.888672"/>
     </g>
    </g>
   </g>
  </g>
 </g>
 <defs>
  <clipPath id="pabbb3cc31a">
   <rect x="90" y="69.12" width="164.117647" height="443.52"/>
  </clipPath>
  <clipPath id="pd16a1af21c">
   <rect x="286.941176" y="69.12" width="164.117647" height="443.52"/>
  </clipPath>
  <clipPath id="p652cddd8c4">
   <rect x="483.882353" y="69.12" width="164.117647" height="443.52"/>
  </clipPath>
 </defs>
</svg>
