<?xml version="1.0" encoding="utf-8" standalone="no"?>
<!DOCTYPE svg PUBLIC "-//W3C//DTD SVG 1.1//EN"
  "http://www.w3.org/Graphics/SVG/1.1/DTD/svg11.dtd">
<svg xmlns:xlink="http://www.w3.org/1999/xlink" width="720pt" height="576pt" viewBox="0 0 720 576" xmlns="http://www.w3.org/2000/svg" version="1.1">
 <metadata>
  <rdf:RDF xmlns:dc="http://purl.org/dc/elements/1.1/" xmlns:cc="http://creativecommons.org/ns#" xmlns:rdf="http://www.w3.org/1999/02/22-rdf-syntax-ns#">
   <cc:Work>
    <dc:type rdf:resource="http://purl.org/dc/dcmitype/StillImage"/>
    <dc:date>2023-05-29T13:37:25.112370</dc:date>
    <dc:format>image/svg+xml</dc:format>
    <dc:creator>
     <cc:Agent>
      <dc:title>Matplotlib v3.7.1, https://matplotlib.org/</dc:title>
     </cc:Agent>
    </dc:creator>
   </cc:Work>
  </rdf:RDF>
 </metadata>
 <defs>
  <style type="text/css">*{stroke-linejoin: round; stroke-linecap: butt}</style>
 </defs>
 <g id="figure_1">
  <g id="patch_1">
   <path d="M 0 576 
L 720 576 
L 720 0 
L 0 0 
z
" style="fill: #ffffff"/>
  </g>
  <g id="axes_1">
   <g id="patch_2">
    <path d="M 90 512.64 
L 254.117647 512.64 
L 254.117647 69.12 
L 90 69.12 
z
" style="fill: #ffffff"/>
   </g>
   <g id="matplotlib.axis_1">
    <g id="xtick_1">
     <g id="line2d_1">
      <defs>
       <path id="mb6ff1c5a11" d="M 0 0 
L 0 3.5 
" style="stroke: #000000; stroke-width: 0.8"/>
      </defs>
      <g>
       <use xlink:href="#mb6ff1c5a11" x="96.15114" y="512.64" style="stroke: #000000; stroke-width: 0.8"/>
      </g>
     </g>
     <g id="text_1">
      <!-- 0 -->
      <g transform="translate(92.96989 527.238438) scale(0.1 -0.1)">
       <defs>
        <path id="DejaVuSans-30" d="M 2034 4250 
Q 1547 4250 1301 3770 
Q 1056 3291 1056 2328 
Q 1056 1369 1301 889 
Q 1547 409 2034 409 
Q 2525 409 2770 889 
Q 3016 1369 3016 2328 
Q 3016 3291 2770 3770 
Q 2525 4250 2034 4250 
z
M 2034 4750 
Q 2819 4750 3233 4129 
Q 3647 3509 3647 2328 
Q 3647 1150 3233 529 
Q 2819 -91 2034 -91 
Q 1250 -91 836 529 
Q 422 1150 422 2328 
Q 422 3509 836 4129 
Q 1250 4750 2034 4750 
z
" transform="scale(0.015625)"/>
       </defs>
       <use xlink:href="#DejaVuSans-30"/>
      </g>
     </g>
    </g>
    <g id="xtick_2">
     <g id="line2d_2">
      <g>
       <use xlink:href="#mb6ff1c5a11" x="161.588798" y="512.64" style="stroke: #000000; stroke-width: 0.8"/>
      </g>
     </g>
     <g id="text_2">
      <!-- 50 -->
      <g transform="translate(155.226298 527.238438) scale(0.1 -0.1)">
       <defs>
        <path id="DejaVuSans-35" d="M 691 4666 
L 3169 4666 
L 3169 4134 
L 1269 4134 
L 1269 2991 
Q 1406 3038 1543 3061 
Q 1681 3084 1819 3084 
Q 2600 3084 3056 2656 
Q 3513 2228 3513 1497 
Q 3513 744 3044 326 
Q 2575 -91 1722 -91 
Q 1428 -91 1123 -41 
Q 819 9 494 109 
L 494 744 
Q 775 591 1075 516 
Q 1375 441 1709 441 
Q 2250 441 2565 725 
Q 2881 1009 2881 1497 
Q 2881 1984 2565 2268 
Q 2250 2553 1709 2553 
Q 1456 2553 1204 2497 
Q 953 2441 691 2322 
L 691 4666 
z
" transform="scale(0.015625)"/>
       </defs>
       <use xlink:href="#DejaVuSans-35"/>
       <use xlink:href="#DejaVuSans-30" x="63.623047"/>
      </g>
     </g>
    </g>
    <g id="xtick_3">
     <g id="line2d_3">
      <g>
       <use xlink:href="#mb6ff1c5a11" x="227.026457" y="512.64" style="stroke: #000000; stroke-width: 0.8"/>
      </g>
     </g>
     <g id="text_3">
      <!-- 100 -->
      <g transform="translate(217.482707 527.238438) scale(0.1 -0.1)">
       <defs>
        <path id="DejaVuSans-31" d="M 794 531 
L 1825 531 
L 1825 4091 
L 703 3866 
L 703 4441 
L 1819 4666 
L 2450 4666 
L 2450 531 
L 3481 531 
L 3481 0 
L 794 0 
L 794 531 
z
" transform="scale(0.015625)"/>
       </defs>
       <use xlink:href="#DejaVuSans-31"/>
       <use xlink:href="#DejaVuSans-30" x="63.623047"/>
       <use xlink:href="#DejaVuSans-30" x="127.246094"/>
      </g>
     </g>
    </g>
   </g>
   <g id="matplotlib.axis_2">
    <g id="ytick_1">
     <g id="line2d_4">
      <defs>
       <path id="md00ecb0479" d="M 0 0 
L -3.5 0 
" style="stroke: #000000; stroke-width: 0.8"/>
      </defs>
      <g>
       <use xlink:href="#md00ecb0479" x="90" y="492.48" style="stroke: #000000; stroke-width: 0.8"/>
      </g>
     </g>
     <g id="text_4">
      <!-- 0 -->
      <g transform="translate(76.6375 496.279219) scale(0.1 -0.1)">
       <use xlink:href="#DejaVuSans-30"/>
      </g>
     </g>
    </g>
    <g id="ytick_2">
     <g id="line2d_5">
      <g>
       <use xlink:href="#md00ecb0479" x="90" y="411.84" style="stroke: #000000; stroke-width: 0.8"/>
      </g>
     </g>
     <g id="text_5">
      <!-- 2 -->
      <g transform="translate(76.6375 415.639219) scale(0.1 -0.1)">
       <defs>
        <path id="DejaVuSans-32" d="M 1228 531 
L 3431 531 
L 3431 0 
L 469 0 
L 469 531 
Q 828 903 1448 1529 
Q 2069 2156 2228 2338 
Q 2531 2678 2651 2914 
Q 2772 3150 2772 3378 
Q 2772 3750 2511 3984 
Q 2250 4219 1831 4219 
Q 1534 4219 1204 4116 
Q 875 4013 500 3803 
L 500 4441 
Q 881 4594 1212 4672 
Q 1544 4750 1819 4750 
Q 2544 4750 2975 4387 
Q 3406 4025 3406 3419 
Q 3406 3131 3298 2873 
Q 3191 2616 2906 2266 
Q 2828 2175 2409 1742 
Q 1991 1309 1228 531 
z
" transform="scale(0.015625)"/>
       </defs>
       <use xlink:href="#DejaVuSans-32"/>
      </g>
     </g>
    </g>
    <g id="ytick_3">
     <g id="line2d_6">
      <g>
       <use xlink:href="#md00ecb0479" x="90" y="331.2" style="stroke: #000000; stroke-width: 0.8"/>
      </g>
     </g>
     <g id="text_6">
      <!-- 4 -->
      <g transform="translate(76.6375 334.999219) scale(0.1 -0.1)">
       <defs>
        <path id="DejaVuSans-34" d="M 2419 4116 
L 825 1625 
L 2419 1625 
L 2419 4116 
z
M 2253 4666 
L 3047 4666 
L 3047 1625 
L 3713 1625 
L 3713 1100 
L 3047 1100 
L 3047 0 
L 2419 0 
L 2419 1100 
L 313 1100 
L 313 1709 
L 2253 4666 
z
" transform="scale(0.015625)"/>
       </defs>
       <use xlink:href="#DejaVuSans-34"/>
      </g>
     </g>
    </g>
    <g id="ytick_4">
     <g id="line2d_7">
      <g>
       <use xlink:href="#md00ecb0479" x="90" y="250.56" style="stroke: #000000; stroke-width: 0.8"/>
      </g>
     </g>
     <g id="text_7">
      <!-- 6 -->
      <g transform="translate(76.6375 254.359219) scale(0.1 -0.1)">
       <defs>
        <path id="DejaVuSans-36" d="M 2113 2584 
Q 1688 2584 1439 2293 
Q 1191 2003 1191 1497 
Q 1191 994 1439 701 
Q 1688 409 2113 409 
Q 2538 409 2786 701 
Q 3034 994 3034 1497 
Q 3034 2003 2786 2293 
Q 2538 2584 2113 2584 
z
M 3366 4563 
L 3366 3988 
Q 3128 4100 2886 4159 
Q 2644 4219 2406 4219 
Q 1781 4219 1451 3797 
Q 1122 3375 1075 2522 
Q 1259 2794 1537 2939 
Q 1816 3084 2150 3084 
Q 2853 3084 3261 2657 
Q 3669 2231 3669 1497 
Q 3669 778 3244 343 
Q 2819 -91 2113 -91 
Q 1303 -91 875 529 
Q 447 1150 447 2328 
Q 447 3434 972 4092 
Q 1497 4750 2381 4750 
Q 2619 4750 2861 4703 
Q 3103 4656 3366 4563 
z
" transform="scale(0.015625)"/>
       </defs>
       <use xlink:href="#DejaVuSans-36"/>
      </g>
     </g>
    </g>
    <g id="ytick_5">
     <g id="line2d_8">
      <g>
       <use xlink:href="#md00ecb0479" x="90" y="169.92" style="stroke: #000000; stroke-width: 0.8"/>
      </g>
     </g>
     <g id="text_8">
      <!-- 8 -->
      <g transform="translate(76.6375 173.719219) scale(0.1 -0.1)">
       <defs>
        <path id="DejaVuSans-38" d="M 2034 2216 
Q 1584 2216 1326 1975 
Q 1069 1734 1069 1313 
Q 1069 891 1326 650 
Q 1584 409 2034 409 
Q 2484 409 2743 651 
Q 3003 894 3003 1313 
Q 3003 1734 2745 1975 
Q 2488 2216 2034 2216 
z
M 1403 2484 
Q 997 2584 770 2862 
Q 544 3141 544 3541 
Q 544 4100 942 4425 
Q 1341 4750 2034 4750 
Q 2731 4750 3128 4425 
Q 3525 4100 3525 3541 
Q 3525 3141 3298 2862 
Q 3072 2584 2669 2484 
Q 3125 2378 3379 2068 
Q 3634 1759 3634 1313 
Q 3634 634 3220 271 
Q 2806 -91 2034 -91 
Q 1263 -91 848 271 
Q 434 634 434 1313 
Q 434 1759 690 2068 
Q 947 2378 1403 2484 
z
M 1172 3481 
Q 1172 3119 1398 2916 
Q 1625 2713 2034 2713 
Q 2441 2713 2670 2916 
Q 2900 3119 2900 3481 
Q 2900 3844 2670 4047 
Q 2441 4250 2034 4250 
Q 1625 4250 1398 4047 
Q 1172 3844 1172 3481 
z
" transform="scale(0.015625)"/>
       </defs>
       <use xlink:href="#DejaVuSans-38"/>
      </g>
     </g>
    </g>
    <g id="ytick_6">
     <g id="line2d_9">
      <g>
       <use xlink:href="#md00ecb0479" x="90" y="89.28" style="stroke: #000000; stroke-width: 0.8"/>
      </g>
     </g>
     <g id="text_9">
      <!-- 10 -->
      <g transform="translate(70.275 93.079219) scale(0.1 -0.1)">
       <use xlink:href="#DejaVuSans-31"/>
       <use xlink:href="#DejaVuSans-30" x="63.623047"/>
      </g>
     </g>
    </g>
   </g>
   <g id="line2d_10">
    <path d="M 97.459893 492.48 
L 98.768646 89.28 
L 100.077399 89.28 
L 101.386153 492.48 
L 102.694906 492.48 
L 104.003659 492.48 
L 105.312412 492.48 
L 106.621165 492.48 
L 107.929918 492.48 
L 109.238672 492.48 
L 110.547425 89.28 
L 111.856178 89.28 
L 113.164931 492.48 
L 114.473684 89.28 
L 115.782437 89.28 
L 117.091191 492.48 
L 118.399944 492.48 
L 119.708697 492.48 
L 121.01745 492.48 
L 122.326203 492.48 
L 123.634956 492.48 
L 124.94371 492.48 
L 126.252463 89.28 
L 127.561216 492.48 
L 128.869969 492.48 
L 130.178722 492.48 
L 131.487475 492.48 
L 132.796229 492.48 
L 134.104982 492.48 
L 135.413735 492.48 
L 136.722488 492.48 
L 138.031241 492.48 
L 139.339994 492.48 
L 140.648748 492.48 
L 141.957501 492.48 
L 143.266254 89.28 
L 144.575007 492.48 
L 145.88376 492.48 
L 147.192513 89.28 
L 148.501267 492.48 
L 149.81002 89.28 
L 151.118773 89.28 
L 152.427526 492.48 
L 153.736279 492.48 
L 155.045032 492.48 
L 156.353786 492.48 
L 157.662539 492.48 
L 158.971292 492.48 
L 160.280045 492.48 
L 161.588798 492.48 
L 162.897551 492.48 
L 164.206305 89.28 
L 165.515058 492.48 
L 166.823811 492.48 
L 168.132564 492.48 
L 169.441317 492.48 
L 170.75007 492.48 
L 172.058824 89.28 
L 173.367577 492.48 
L 174.67633 492.48 
L 175.985083 89.28 
L 177.293836 492.48 
L 178.602589 492.48 
L 179.911343 89.28 
L 181.220096 492.48 
L 182.528849 492.48 
L 183.837602 492.48 
L 185.146355 492.48 
L 186.455108 492.48 
L 187.763862 492.48 
L 189.072615 492.48 
L 190.381368 492.48 
L 191.690121 492.48 
L 192.998874 492.48 
L 194.307627 492.48 
L 195.616381 89.28 
L 196.925134 492.48 
L 198.233887 492.48 
L 199.54264 492.48 
L 200.851393 492.48 
L 202.160146 492.48 
L 203.4689 492.48 
L 204.777653 492.48 
L 206.086406 492.48 
L 207.395159 492.48 
L 208.703912 492.48 
L 210.012665 492.48 
L 211.321419 492.48 
L 212.630172 492.48 
L 213.938925 492.48 
L 215.247678 492.48 
L 216.556431 492.48 
L 217.865184 492.48 
L 219.173938 492.48 
L 220.482691 492.48 
L 221.791444 492.48 
L 223.100197 492.48 
L 224.40895 492.48 
L 225.717703 492.48 
L 227.026457 492.48 
L 228.33521 492.48 
L 229.643963 492.48 
L 230.952716 492.48 
L 232.261469 492.48 
L 233.570222 492.48 
L 234.878976 492.48 
L 236.187729 89.28 
L 237.496482 492.48 
L 238.805235 492.48 
L 240.113988 492.48 
L 241.422741 492.48 
L 242.731495 492.48 
L 244.040248 492.48 
L 245.349001 492.48 
L 246.657754 492.48 
" clip-path="url(#p5c6cbc20d2)" style="fill: none; stroke: #0000ff; stroke-width: 1.5; stroke-linecap: square"/>
   </g>
   <g id="line2d_11">
    <path d="M 97.459893 492.48 
L 98.768646 492.48 
L 100.077399 492.48 
L 101.386153 492.48 
L 102.694906 492.48 
L 104.003659 492.48 
L 105.312412 492.48 
L 106.621165 492.48 
L 107.929918 89.28 
L 109.238672 492.48 
L 110.547425 492.48 
L 111.856178 492.48 
L 113.164931 492.48 
L 114.473684 89.28 
L 115.782437 492.48 
L 117.091191 492.48 
L 118.399944 89.28 
L 119.708697 89.28 
L 121.01745 492.48 
L 122.326203 492.48 
L 123.634956 492.48 
L 124.94371 492.48 
L 126.252463 492.48 
L 127.561216 492.48 
L 128.869969 89.28 
L 130.178722 492.48 
L 131.487475 492.48 
L 132.796229 492.48 
L 134.104982 89.28 
L 135.413735 492.48 
L 136.722488 492.48 
L 138.031241 492.48 
L 139.339994 492.48 
L 140.648748 89.28 
L 141.957501 492.48 
L 143.266254 492.48 
L 144.575007 492.48 
L 145.88376 492.48 
L 147.192513 492.48 
L 148.501267 492.48 
L 149.81002 492.48 
L 151.118773 492.48 
L 152.427526 492.48 
L 153.736279 89.28 
L 155.045032 492.48 
L 156.353786 492.48 
L 157.662539 492.48 
L 158.971292 492.48 
L 160.280045 492.48 
L 161.588798 89.28 
L 162.897551 492.48 
L 164.206305 492.48 
L 165.515058 492.48 
L 166.823811 492.48 
L 168.132564 492.48 
L 169.441317 492.48 
L 170.75007 492.48 
L 172.058824 89.28 
L 173.367577 89.28 
L 174.67633 492.48 
L 175.985083 492.48 
L 177.293836 492.48 
L 178.602589 492.48 
L 179.911343 492.48 
L 181.220096 492.48 
L 182.528849 492.48 
L 183.837602 89.28 
L 185.146355 492.48 
L 186.455108 492.48 
L 187.763862 492.48 
L 189.072615 492.48 
L 190.381368 492.48 
L 191.690121 492.48 
L 192.998874 492.48 
L 194.307627 492.48 
L 195.616381 492.48 
L 196.925134 492.48 
L 198.233887 492.48 
L 199.54264 492.48 
L 200.851393 492.48 
L 202.160146 492.48 
L 203.4689 89.28 
L 204.777653 492.48 
L 206.086406 89.28 
L 207.395159 89.28 
L 208.703912 492.48 
L 210.012665 89.28 
L 211.321419 492.48 
L 212.630172 492.48 
L 213.938925 492.48 
L 215.247678 492.48 
L 216.556431 492.48 
L 217.865184 492.48 
L 219.173938 89.28 
L 220.482691 492.48 
L 221.791444 492.48 
L 223.100197 492.48 
L 224.40895 492.48 
L 225.717703 89.28 
L 227.026457 492.48 
L 228.33521 492.48 
L 229.643963 492.48 
L 230.952716 89.28 
L 232.261469 89.28 
L 233.570222 492.48 
L 234.878976 492.48 
L 236.187729 492.48 
L 237.496482 492.48 
L 238.805235 492.48 
L 240.113988 492.48 
L 241.422741 89.28 
L 242.731495 492.48 
L 244.040248 492.48 
L 245.349001 492.48 
L 246.657754 492.48 
" clip-path="url(#p5c6cbc20d2)" style="fill: none; stroke: #ff0000; stroke-width: 1.5; stroke-linecap: square"/>
   </g>
   <g id="line2d_12">
    <path d="M 97.459893 492.48 
L 98.768646 89.28 
L 100.077399 492.48 
L 101.386153 492.48 
L 102.694906 492.48 
L 104.003659 492.48 
L 105.312412 492.48 
L 106.621165 89.28 
L 107.929918 492.48 
L 109.238672 492.48 
L 110.547425 492.48 
L 111.856178 492.48 
L 113.164931 492.48 
L 114.473684 492.48 
L 115.782437 492.48 
L 117.091191 492.48 
L 118.399944 492.48 
L 119.708697 492.48 
L 121.01745 492.48 
L 122.326203 492.48 
L 123.634956 492.48 
L 124.94371 492.48 
L 126.252463 492.48 
L 127.561216 492.48 
L 128.869969 492.48 
L 130.178722 492.48 
L 131.487475 492.48 
L 132.796229 492.48 
L 134.104982 492.48 
L 135.413735 492.48 
L 136.722488 492.48 
L 138.031241 492.48 
L 139.339994 492.48 
L 140.648748 492.48 
L 141.957501 492.48 
L 143.266254 492.48 
L 144.575007 492.48 
L 145.88376 492.48 
L 147.192513 492.48 
L 148.501267 492.48 
L 149.81002 492.48 
L 151.118773 492.48 
L 152.427526 492.48 
L 153.736279 492.48 
L 155.045032 492.48 
L 156.353786 492.48 
L 157.662539 492.48 
L 158.971292 492.48 
L 160.280045 492.48 
L 161.588798 492.48 
L 162.897551 492.48 
L 164.206305 492.48 
L 165.515058 492.48 
L 166.823811 492.48 
L 168.132564 492.48 
L 169.441317 492.48 
L 170.75007 492.48 
L 172.058824 492.48 
L 173.367577 492.48 
L 174.67633 492.48 
L 175.985083 492.48 
L 177.293836 492.48 
L 178.602589 492.48 
L 179.911343 492.48 
L 181.220096 492.48 
L 182.528849 492.48 
L 183.837602 492.48 
L 185.146355 492.48 
L 186.455108 492.48 
L 187.763862 492.48 
L 189.072615 492.48 
L 190.381368 492.48 
L 191.690121 492.48 
L 192.998874 492.48 
L 194.307627 492.48 
L 195.616381 492.48 
L 196.925134 492.48 
L 198.233887 492.48 
L 199.54264 492.48 
L 200.851393 492.48 
L 202.160146 492.48 
L 203.4689 492.48 
L 204.777653 492.48 
L 206.086406 492.48 
L 207.395159 492.48 
L 208.703912 492.48 
L 210.012665 492.48 
L 211.321419 492.48 
L 212.630172 492.48 
L 213.938925 492.48 
L 215.247678 492.48 
L 216.556431 492.48 
L 217.865184 492.48 
L 219.173938 492.48 
L 220.482691 492.48 
L 221.791444 492.48 
L 223.100197 492.48 
L 224.40895 492.48 
L 225.717703 492.48 
L 227.026457 492.48 
L 228.33521 492.48 
L 229.643963 492.48 
L 230.952716 492.48 
L 232.261469 492.48 
L 233.570222 492.48 
L 234.878976 492.48 
L 236.187729 492.48 
L 237.496482 492.48 
L 238.805235 492.48 
L 240.113988 492.48 
L 241.422741 492.48 
L 242.731495 492.48 
L 244.040248 492.48 
L 245.349001 492.48 
L 246.657754 492.48 
" clip-path="url(#p5c6cbc20d2)" style="fill: none; stroke: #008000; stroke-width: 1.5; stroke-linecap: square"/>
   </g>
   <g id="patch_3">
    <path d="M 90 512.64 
L 90 69.12 
" style="fill: none; stroke: #000000; stroke-width: 0.8; stroke-linejoin: miter; stroke-linecap: square"/>
   </g>
   <g id="patch_4">
    <path d="M 254.117647 512.64 
L 254.117647 69.12 
" style="fill: none; stroke: #000000; stroke-width: 0.8; stroke-linejoin: miter; stroke-linecap: square"/>
   </g>
   <g id="patch_5">
    <path d="M 90 512.64 
L 254.117647 512.64 
" style="fill: none; stroke: #000000; stroke-width: 0.8; stroke-linejoin: miter; stroke-linecap: square"/>
   </g>
   <g id="patch_6">
    <path d="M 90 69.12 
L 254.117647 69.12 
" style="fill: none; stroke: #000000; stroke-width: 0.8; stroke-linejoin: miter; stroke-linecap: square"/>
   </g>
   <g id="legend_1">
    <g id="patch_7">
     <path d="M 169.273897 314.397188 
L 247.117647 314.397188 
Q 249.117647 314.397188 249.117647 312.397188 
L 249.117647 269.362813 
Q 249.117647 267.362813 247.117647 267.362813 
L 169.273897 267.362813 
Q 167.273897 267.362813 167.273897 269.362813 
L 167.273897 312.397188 
Q 167.273897 314.397188 169.273897 314.397188 
z
" style="fill: #ffffff; opacity: 0.8; stroke: #cccccc; stroke-linejoin: miter"/>
    </g>
    <g id="line2d_13">
     <path d="M 171.273897 275.46125 
L 181.273897 275.46125 
L 191.273897 275.46125 
" style="fill: none; stroke: #0000ff; stroke-width: 1.5; stroke-linecap: square"/>
    </g>
    <g id="text_10">
     <!-- O1 utility -->
     <g transform="translate(199.273897 278.96125) scale(0.1 -0.1)">
      <defs>
       <path id="DejaVuSans-4f" d="M 2522 4238 
Q 1834 4238 1429 3725 
Q 1025 3213 1025 2328 
Q 1025 1447 1429 934 
Q 1834 422 2522 422 
Q 3209 422 3611 934 
Q 4013 1447 4013 2328 
Q 4013 3213 3611 3725 
Q 3209 4238 2522 4238 
z
M 2522 4750 
Q 3503 4750 4090 4092 
Q 4678 3434 4678 2328 
Q 4678 1225 4090 567 
Q 3503 -91 2522 -91 
Q 1538 -91 948 565 
Q 359 1222 359 2328 
Q 359 3434 948 4092 
Q 1538 4750 2522 4750 
z
" transform="scale(0.015625)"/>
       <path id="DejaVuSans-20" transform="scale(0.015625)"/>
       <path id="DejaVuSans-75" d="M 544 1381 
L 544 3500 
L 1119 3500 
L 1119 1403 
Q 1119 906 1312 657 
Q 1506 409 1894 409 
Q 2359 409 2629 706 
Q 2900 1003 2900 1516 
L 2900 3500 
L 3475 3500 
L 3475 0 
L 2900 0 
L 2900 538 
Q 2691 219 2414 64 
Q 2138 -91 1772 -91 
Q 1169 -91 856 284 
Q 544 659 544 1381 
z
M 1991 3584 
L 1991 3584 
z
" transform="scale(0.015625)"/>
       <path id="DejaVuSans-74" d="M 1172 4494 
L 1172 3500 
L 2356 3500 
L 2356 3053 
L 1172 3053 
L 1172 1153 
Q 1172 725 1289 603 
Q 1406 481 1766 481 
L 2356 481 
L 2356 0 
L 1766 0 
Q 1100 0 847 248 
Q 594 497 594 1153 
L 594 3053 
L 172 3053 
L 172 3500 
L 594 3500 
L 594 4494 
L 1172 4494 
z
" transform="scale(0.015625)"/>
       <path id="DejaVuSans-69" d="M 603 3500 
L 1178 3500 
L 1178 0 
L 603 0 
L 603 3500 
z
M 603 4863 
L 1178 4863 
L 1178 4134 
L 603 4134 
L 603 4863 
z
" transform="scale(0.015625)"/>
       <path id="DejaVuSans-6c" d="M 603 4863 
L 1178 4863 
L 1178 0 
L 603 0 
L 603 4863 
z
" transform="scale(0.015625)"/>
       <path id="DejaVuSans-79" d="M 2059 -325 
Q 1816 -950 1584 -1140 
Q 1353 -1331 966 -1331 
L 506 -1331 
L 506 -850 
L 844 -850 
Q 1081 -850 1212 -737 
Q 1344 -625 1503 -206 
L 1606 56 
L 191 3500 
L 800 3500 
L 1894 763 
L 2988 3500 
L 3597 3500 
L 2059 -325 
z
" transform="scale(0.015625)"/>
      </defs>
      <use xlink:href="#DejaVuSans-4f"/>
      <use xlink:href="#DejaVuSans-31" x="78.710938"/>
      <use xlink:href="#DejaVuSans-20" x="142.333984"/>
      <use xlink:href="#DejaVuSans-75" x="174.121094"/>
      <use xlink:href="#DejaVuSans-74" x="237.5"/>
      <use xlink:href="#DejaVuSans-69" x="276.708984"/>
      <use xlink:href="#DejaVuSans-6c" x="304.492188"/>
      <use xlink:href="#DejaVuSans-69" x="332.275391"/>
      <use xlink:href="#DejaVuSans-74" x="360.058594"/>
      <use xlink:href="#DejaVuSans-79" x="399.267578"/>
     </g>
    </g>
    <g id="line2d_14">
     <path d="M 171.273897 290.139375 
L 181.273897 290.139375 
L 191.273897 290.139375 
" style="fill: none; stroke: #ff0000; stroke-width: 1.5; stroke-linecap: square"/>
    </g>
    <g id="text_11">
     <!-- O2 utility -->
     <g transform="translate(199.273897 293.639375) scale(0.1 -0.1)">
      <use xlink:href="#DejaVuSans-4f"/>
      <use xlink:href="#DejaVuSans-32" x="78.710938"/>
      <use xlink:href="#DejaVuSans-20" x="142.333984"/>
      <use xlink:href="#DejaVuSans-75" x="174.121094"/>
      <use xlink:href="#DejaVuSans-74" x="237.5"/>
      <use xlink:href="#DejaVuSans-69" x="276.708984"/>
      <use xlink:href="#DejaVuSans-6c" x="304.492188"/>
      <use xlink:href="#DejaVuSans-69" x="332.275391"/>
      <use xlink:href="#DejaVuSans-74" x="360.058594"/>
      <use xlink:href="#DejaVuSans-79" x="399.267578"/>
     </g>
    </g>
    <g id="line2d_15">
     <path d="M 171.273897 304.8175 
L 181.273897 304.8175 
L 191.273897 304.8175 
" style="fill: none; stroke: #008000; stroke-width: 1.5; stroke-linecap: square"/>
    </g>
    <g id="text_12">
     <!-- O3 utility -->
     <g transform="translate(199.273897 308.3175) scale(0.1 -0.1)">
      <defs>
       <path id="DejaVuSans-33" d="M 2597 2516 
Q 3050 2419 3304 2112 
Q 3559 1806 3559 1356 
Q 3559 666 3084 287 
Q 2609 -91 1734 -91 
Q 1441 -91 1130 -33 
Q 819 25 488 141 
L 488 750 
Q 750 597 1062 519 
Q 1375 441 1716 441 
Q 2309 441 2620 675 
Q 2931 909 2931 1356 
Q 2931 1769 2642 2001 
Q 2353 2234 1838 2234 
L 1294 2234 
L 1294 2753 
L 1863 2753 
Q 2328 2753 2575 2939 
Q 2822 3125 2822 3475 
Q 2822 3834 2567 4026 
Q 2313 4219 1838 4219 
Q 1578 4219 1281 4162 
Q 984 4106 628 3988 
L 628 4550 
Q 988 4650 1302 4700 
Q 1616 4750 1894 4750 
Q 2613 4750 3031 4423 
Q 3450 4097 3450 3541 
Q 3450 3153 3228 2886 
Q 3006 2619 2597 2516 
z
" transform="scale(0.015625)"/>
      </defs>
      <use xlink:href="#DejaVuSans-4f"/>
      <use xlink:href="#DejaVuSans-33" x="78.710938"/>
      <use xlink:href="#DejaVuSans-20" x="142.333984"/>
      <use xlink:href="#DejaVuSans-75" x="174.121094"/>
      <use xlink:href="#DejaVuSans-74" x="237.5"/>
      <use xlink:href="#DejaVuSans-69" x="276.708984"/>
      <use xlink:href="#DejaVuSans-6c" x="304.492188"/>
      <use xlink:href="#DejaVuSans-69" x="332.275391"/>
      <use xlink:href="#DejaVuSans-74" x="360.058594"/>
      <use xlink:href="#DejaVuSans-79" x="399.267578"/>
     </g>
    </g>
   </g>
  </g>
  <g id="axes_2">
   <g id="patch_8">
    <path d="M 286.941176 512.64 
L 451.058824 512.64 
L 451.058824 69.12 
L 286.941176 69.12 
z
" style="fill: #ffffff"/>
   </g>
   <g id="matplotlib.axis_3">
    <g id="xtick_4">
     <g id="line2d_16">
      <g>
       <use xlink:href="#mb6ff1c5a11" x="293.092316" y="512.64" style="stroke: #000000; stroke-width: 0.8"/>
      </g>
     </g>
     <g id="text_13">
      <!-- 0 -->
      <g transform="translate(289.911066 527.238438) scale(0.1 -0.1)">
       <use xlink:href="#DejaVuSans-30"/>
      </g>
     </g>
    </g>
    <g id="xtick_5">
     <g id="line2d_17">
      <g>
       <use xlink:href="#mb6ff1c5a11" x="358.529975" y="512.64" style="stroke: #000000; stroke-width: 0.8"/>
      </g>
     </g>
     <g id="text_14">
      <!-- 50 -->
      <g transform="translate(352.167475 527.238438) scale(0.1 -0.1)">
       <use xlink:href="#DejaVuSans-35"/>
       <use xlink:href="#DejaVuSans-30" x="63.623047"/>
      </g>
     </g>
    </g>
    <g id="xtick_6">
     <g id="line2d_18">
      <g>
       <use xlink:href="#mb6ff1c5a11" x="423.967633" y="512.64" style="stroke: #000000; stroke-width: 0.8"/>
      </g>
     </g>
     <g id="text_15">
      <!-- 100 -->
      <g transform="translate(414.423883 527.238438) scale(0.1 -0.1)">
       <use xlink:href="#DejaVuSans-31"/>
       <use xlink:href="#DejaVuSans-30" x="63.623047"/>
       <use xlink:href="#DejaVuSans-30" x="127.246094"/>
      </g>
     </g>
    </g>
   </g>
   <g id="matplotlib.axis_4">
    <g id="ytick_7">
     <g id="line2d_19">
      <g>
       <use xlink:href="#md00ecb0479" x="286.941176" y="492.48" style="stroke: #000000; stroke-width: 0.8"/>
      </g>
     </g>
     <g id="text_16">
      <!-- 0 -->
      <g transform="translate(273.578676 496.279219) scale(0.1 -0.1)">
       <use xlink:href="#DejaVuSans-30"/>
      </g>
     </g>
    </g>
    <g id="ytick_8">
     <g id="line2d_20">
      <g>
       <use xlink:href="#md00ecb0479" x="286.941176" y="417.813333" style="stroke: #000000; stroke-width: 0.8"/>
      </g>
     </g>
     <g id="text_17">
      <!-- 100 -->
      <g transform="translate(260.853676 421.612552) scale(0.1 -0.1)">
       <use xlink:href="#DejaVuSans-31"/>
       <use xlink:href="#DejaVuSans-30" x="63.623047"/>
       <use xlink:href="#DejaVuSans-30" x="127.246094"/>
      </g>
     </g>
    </g>
    <g id="ytick_9">
     <g id="line2d_21">
      <g>
       <use xlink:href="#md00ecb0479" x="286.941176" y="343.146667" style="stroke: #000000; stroke-width: 0.8"/>
      </g>
     </g>
     <g id="text_18">
      <!-- 200 -->
      <g transform="translate(260.853676 346.945885) scale(0.1 -0.1)">
       <use xlink:href="#DejaVuSans-32"/>
       <use xlink:href="#DejaVuSans-30" x="63.623047"/>
       <use xlink:href="#DejaVuSans-30" x="127.246094"/>
      </g>
     </g>
    </g>
    <g id="ytick_10">
     <g id="line2d_22">
      <g>
       <use xlink:href="#md00ecb0479" x="286.941176" y="268.48" style="stroke: #000000; stroke-width: 0.8"/>
      </g>
     </g>
     <g id="text_19">
      <!-- 300 -->
      <g transform="translate(260.853676 272.279219) scale(0.1 -0.1)">
       <use xlink:href="#DejaVuSans-33"/>
       <use xlink:href="#DejaVuSans-30" x="63.623047"/>
       <use xlink:href="#DejaVuSans-30" x="127.246094"/>
      </g>
     </g>
    </g>
    <g id="ytick_11">
     <g id="line2d_23">
      <g>
       <use xlink:href="#md00ecb0479" x="286.941176" y="193.813333" style="stroke: #000000; stroke-width: 0.8"/>
      </g>
     </g>
     <g id="text_20">
      <!-- 400 -->
      <g transform="translate(260.853676 197.612552) scale(0.1 -0.1)">
       <use xlink:href="#DejaVuSans-34"/>
       <use xlink:href="#DejaVuSans-30" x="63.623047"/>
       <use xlink:href="#DejaVuSans-30" x="127.246094"/>
      </g>
     </g>
    </g>
    <g id="ytick_12">
     <g id="line2d_24">
      <g>
       <use xlink:href="#md00ecb0479" x="286.941176" y="119.146667" style="stroke: #000000; stroke-width: 0.8"/>
      </g>
     </g>
     <g id="text_21">
      <!-- 500 -->
      <g transform="translate(260.853676 122.945885) scale(0.1 -0.1)">
       <use xlink:href="#DejaVuSans-35"/>
       <use xlink:href="#DejaVuSans-30" x="63.623047"/>
       <use xlink:href="#DejaVuSans-30" x="127.246094"/>
      </g>
     </g>
    </g>
   </g>
   <g id="line2d_25">
    <path d="M 294.40107 492.48 
L 295.709823 490.986667 
L 297.018576 490.986667 
L 298.327329 490.24 
L 299.636082 488 
L 300.944835 487.253333 
L 302.253589 486.506667 
L 303.562342 484.266667 
L 304.871095 482.026667 
L 306.179848 479.04 
L 307.488601 478.293333 
L 308.797354 476.053333 
L 310.106108 473.813333 
L 311.414861 471.573333 
L 312.723614 468.586667 
L 314.032367 466.346667 
L 315.34112 464.853333 
L 316.649873 463.36 
L 317.958627 460.373333 
L 319.26738 459.626667 
L 320.576133 458.133333 
L 321.884886 455.893333 
L 323.193639 452.906667 
L 324.502392 450.666667 
L 325.811146 449.173333 
L 327.119899 447.68 
L 328.428652 445.44 
L 329.737405 444.693333 
L 331.046158 442.453333 
L 332.354911 437.973333 
L 333.663665 435.733333 
L 334.972418 432 
L 336.281171 432 
L 337.589924 429.76 
L 338.898677 426.773333 
L 340.20743 424.533333 
L 341.516184 421.546667 
L 342.824937 418.56 
L 344.13369 414.826667 
L 345.442443 409.6 
L 346.751196 401.386667 
L 348.059949 396.906667 
L 349.368703 390.933333 
L 350.677456 384.96 
L 351.986209 379.733333 
L 353.294962 374.506667 
L 354.603715 370.026667 
L 355.912468 363.306667 
L 357.221222 358.08 
L 358.529975 354.346667 
L 359.838728 346.88 
L 361.147481 341.653333 
L 362.456234 335.68 
L 363.764987 331.946667 
L 365.073741 326.72 
L 366.382494 320 
L 367.691247 312.533333 
L 369 305.066667 
L 370.308753 298.346667 
L 371.617506 293.866667 
L 372.926259 287.146667 
L 374.235013 281.92 
L 375.543766 277.44 
L 376.852519 272.96 
L 378.161272 267.733333 
L 379.470025 261.76 
L 380.778778 258.026667 
L 382.087532 252.8 
L 383.396285 245.333333 
L 384.705038 239.36 
L 386.013791 234.133333 
L 387.322544 229.653333 
L 388.631297 222.186667 
L 389.940051 217.706667 
L 391.248804 213.226667 
L 392.557557 210.24 
L 393.86631 205.76 
L 395.175063 202.026667 
L 396.483816 196.8 
L 397.79257 193.813333 
L 399.101323 192.32 
L 400.410076 190.08 
L 401.718829 186.346667 
L 403.027582 181.12 
L 404.336335 177.386667 
L 405.645089 172.906667 
L 406.953842 169.92 
L 408.262595 167.68 
L 409.571348 161.706667 
L 410.880101 158.72 
L 412.188854 155.733333 
L 413.497608 152 
L 414.806361 149.013333 
L 416.115114 144.533333 
L 417.423867 142.293333 
L 418.73262 139.306667 
L 420.041373 135.573333 
L 421.350127 132.586667 
L 422.65888 130.346667 
L 423.967633 126.613333 
L 425.276386 123.626667 
L 426.585139 119.146667 
L 427.893892 115.413333 
L 429.202646 113.173333 
L 430.511399 110.186667 
L 431.820152 106.453333 
L 433.128905 104.213333 
L 434.437658 101.973333 
L 435.746411 98.986667 
L 437.055165 96 
L 438.363918 94.506667 
L 439.672671 93.76 
L 440.981424 91.52 
L 442.290177 90.026667 
L 443.59893 89.28 
" clip-path="url(#p0b99811763)" style="fill: none; stroke: #0000ff; stroke-width: 1.5; stroke-linecap: square"/>
   </g>
   <g id="line2d_26">
    <path d="M 294.40107 492.48 
L 295.709823 490.986667 
L 297.018576 489.493333 
L 298.327329 485.76 
L 299.636082 483.52 
L 300.944835 480.533333 
L 302.253589 479.04 
L 303.562342 475.306667 
L 304.871095 471.573333 
L 306.179848 466.346667 
L 307.488601 464.106667 
L 308.797354 458.88 
L 310.106108 452.906667 
L 311.414861 447.68 
L 312.723614 445.44 
L 314.032367 439.466667 
L 315.34112 432.746667 
L 316.649873 426.026667 
L 317.958627 420.8 
L 319.26738 414.08 
L 320.576133 410.346667 
L 321.884886 406.613333 
L 323.193639 402.133333 
L 324.502392 397.653333 
L 325.811146 391.68 
L 327.119899 385.706667 
L 328.428652 381.973333 
L 329.737405 376.746667 
L 331.046158 373.013333 
L 332.354911 370.026667 
L 333.663665 364.053333 
L 334.972418 360.32 
L 336.281171 355.093333 
L 337.589924 350.613333 
L 338.898677 346.133333 
L 340.20743 342.4 
L 341.516184 337.173333 
L 342.824937 331.946667 
L 344.13369 327.466667 
L 345.442443 324.48 
L 346.751196 322.986667 
L 348.059949 320.746667 
L 349.368703 318.506667 
L 350.677456 315.52 
L 351.986209 312.533333 
L 353.294962 310.293333 
L 354.603715 308.053333 
L 355.912468 306.56 
L 357.221222 303.573333 
L 358.529975 299.84 
L 359.838728 298.346667 
L 361.147481 296.853333 
L 362.456234 295.36 
L 363.764987 293.12 
L 365.073741 290.88 
L 366.382494 288.64 
L 367.691247 287.146667 
L 369 284.906667 
L 370.308753 282.666667 
L 371.617506 278.933333 
L 372.926259 277.44 
L 374.235013 274.453333 
L 375.543766 271.466667 
L 376.852519 269.226667 
L 378.161272 266.24 
L 379.470025 264 
L 380.778778 261.013333 
L 382.087532 259.52 
L 383.396285 258.026667 
L 384.705038 255.786667 
L 386.013791 253.546667 
L 387.322544 251.306667 
L 388.631297 251.306667 
L 389.940051 248.32 
L 391.248804 245.333333 
L 392.557557 241.6 
L 393.86631 240.106667 
L 395.175063 236.373333 
L 396.483816 234.133333 
L 397.79257 232.64 
L 399.101323 228.906667 
L 400.410076 225.92 
L 401.718829 222.933333 
L 403.027582 222.186667 
L 404.336335 219.946667 
L 405.645089 217.706667 
L 406.953842 215.466667 
L 408.262595 211.733333 
L 409.571348 211.733333 
L 410.880101 209.493333 
L 412.188854 209.493333 
L 413.497608 207.253333 
L 414.806361 205.013333 
L 416.115114 204.266667 
L 417.423867 201.28 
L 418.73262 200.533333 
L 420.041373 199.786667 
L 421.350127 198.293333 
L 422.65888 196.053333 
L 423.967633 195.306667 
L 425.276386 194.56 
L 426.585139 194.56 
L 427.893892 193.813333 
L 429.202646 193.813333 
L 430.511399 193.066667 
L 431.820152 193.066667 
L 433.128905 192.32 
L 434.437658 191.573333 
L 435.746411 191.573333 
L 437.055165 190.826667 
L 438.363918 190.08 
L 439.672671 188.586667 
L 440.981424 187.84 
L 442.290177 187.093333 
L 443.59893 184.853333 
" clip-path="url(#p0b99811763)" style="fill: none; stroke: #ff0000; stroke-width: 1.5; stroke-linecap: square"/>
   </g>
   <g id="line2d_27">
    <path d="M 294.40107 492.48 
L 295.709823 490.24 
L 297.018576 488.746667 
L 298.327329 488.746667 
L 299.636082 484.266667 
L 300.944835 480.533333 
L 302.253589 475.306667 
L 303.562342 471.573333 
L 304.871095 467.093333 
L 306.179848 464.106667 
L 307.488601 455.893333 
L 308.797354 451.413333 
L 310.106108 449.173333 
L 311.414861 444.693333 
L 312.723614 437.973333 
L 314.032367 434.24 
L 315.34112 430.506667 
L 316.649873 426.773333 
L 317.958627 423.04 
L 319.26738 418.56 
L 320.576133 411.84 
L 321.884886 405.866667 
L 323.193639 401.386667 
L 324.502392 396.16 
L 325.811146 392.426667 
L 327.119899 388.693333 
L 328.428652 383.466667 
L 329.737405 378.24 
L 331.046158 373.013333 
L 332.354911 369.28 
L 333.663665 366.293333 
L 334.972418 362.56 
L 336.281171 356.586667 
L 337.589924 352.106667 
L 338.898677 348.373333 
L 340.20743 343.146667 
L 341.516184 340.16 
L 342.824937 337.173333 
L 344.13369 334.186667 
L 345.442443 331.2 
L 346.751196 329.706667 
L 348.059949 325.226667 
L 349.368703 322.24 
L 350.677456 320 
L 351.986209 317.013333 
L 353.294962 313.28 
L 354.603715 308.8 
L 355.912468 305.813333 
L 357.221222 302.826667 
L 358.529975 299.093333 
L 359.838728 296.853333 
L 361.147481 293.12 
L 362.456234 290.133333 
L 363.764987 285.653333 
L 365.073741 282.666667 
L 366.382494 281.173333 
L 367.691247 279.68 
L 369 278.933333 
L 370.308753 277.44 
L 371.617506 275.2 
L 372.926259 272.96 
L 374.235013 270.72 
L 375.543766 267.733333 
L 376.852519 264.746667 
L 378.161272 263.253333 
L 379.470025 261.76 
L 380.778778 258.773333 
L 382.087532 255.786667 
L 383.396285 255.04 
L 384.705038 253.546667 
L 386.013791 251.306667 
L 387.322544 248.32 
L 388.631297 246.826667 
L 389.940051 245.333333 
L 391.248804 243.84 
L 392.557557 241.6 
L 393.86631 238.613333 
L 395.175063 237.12 
L 396.483816 235.626667 
L 397.79257 231.893333 
L 399.101323 228.906667 
L 400.410076 225.92 
L 401.718829 224.426667 
L 403.027582 222.186667 
L 404.336335 219.946667 
L 405.645089 219.2 
L 406.953842 216.96 
L 408.262595 215.466667 
L 409.571348 213.973333 
L 410.880101 211.733333 
L 412.188854 207.253333 
L 413.497608 206.506667 
L 414.806361 205.013333 
L 416.115114 203.52 
L 417.423867 202.026667 
L 418.73262 199.04 
L 420.041373 197.546667 
L 421.350127 196.053333 
L 422.65888 194.56 
L 423.967633 193.066667 
L 425.276386 191.573333 
L 426.585139 190.826667 
L 427.893892 190.08 
L 429.202646 187.84 
L 430.511399 187.093333 
L 431.820152 186.346667 
L 433.128905 184.853333 
L 434.437658 183.36 
L 435.746411 181.866667 
L 437.055165 181.12 
L 438.363918 178.88 
L 439.672671 176.64 
L 440.981424 175.893333 
L 442.290177 173.653333 
L 443.59893 169.173333 
" clip-path="url(#p0b99811763)" style="fill: none; stroke: #008000; stroke-width: 1.5; stroke-linecap: square"/>
   </g>
   <g id="patch_9">
    <path d="M 286.941176 512.64 
L 286.941176 69.12 
" style="fill: none; stroke: #000000; stroke-width: 0.8; stroke-linejoin: miter; stroke-linecap: square"/>
   </g>
   <g id="patch_10">
    <path d="M 451.058824 512.64 
L 451.058824 69.12 
" style="fill: none; stroke: #000000; stroke-width: 0.8; stroke-linejoin: miter; stroke-linecap: square"/>
   </g>
   <g id="patch_11">
    <path d="M 286.941176 512.64 
L 451.058824 512.64 
" style="fill: none; stroke: #000000; stroke-width: 0.8; stroke-linejoin: miter; stroke-linecap: square"/>
   </g>
   <g id="patch_12">
    <path d="M 286.941176 69.12 
L 451.058824 69.12 
" style="fill: none; stroke: #000000; stroke-width: 0.8; stroke-linejoin: miter; stroke-linecap: square"/>
   </g>
   <g id="legend_2">
    <g id="patch_13">
     <path d="M 293.941176 121.154375 
L 393.863051 121.154375 
Q 395.863051 121.154375 395.863051 119.154375 
L 395.863051 76.12 
Q 395.863051 74.12 393.863051 74.12 
L 293.941176 74.12 
Q 291.941176 74.12 291.941176 76.12 
L 291.941176 119.154375 
Q 291.941176 121.154375 293.941176 121.154375 
z
" style="fill: #ffffff; opacity: 0.8; stroke: #cccccc; stroke-linejoin: miter"/>
    </g>
    <g id="line2d_28">
     <path d="M 295.941176 82.218438 
L 305.941176 82.218438 
L 315.941176 82.218438 
" style="fill: none; stroke: #0000ff; stroke-width: 1.5; stroke-linecap: square"/>
    </g>
    <g id="text_22">
     <!-- O1 requested -->
     <g transform="translate(323.941176 85.718438) scale(0.1 -0.1)">
      <defs>
       <path id="DejaVuSans-72" d="M 2631 2963 
Q 2534 3019 2420 3045 
Q 2306 3072 2169 3072 
Q 1681 3072 1420 2755 
Q 1159 2438 1159 1844 
L 1159 0 
L 581 0 
L 581 3500 
L 1159 3500 
L 1159 2956 
Q 1341 3275 1631 3429 
Q 1922 3584 2338 3584 
Q 2397 3584 2469 3576 
Q 2541 3569 2628 3553 
L 2631 2963 
z
" transform="scale(0.015625)"/>
       <path id="DejaVuSans-65" d="M 3597 1894 
L 3597 1613 
L 953 1613 
Q 991 1019 1311 708 
Q 1631 397 2203 397 
Q 2534 397 2845 478 
Q 3156 559 3463 722 
L 3463 178 
Q 3153 47 2828 -22 
Q 2503 -91 2169 -91 
Q 1331 -91 842 396 
Q 353 884 353 1716 
Q 353 2575 817 3079 
Q 1281 3584 2069 3584 
Q 2775 3584 3186 3129 
Q 3597 2675 3597 1894 
z
M 3022 2063 
Q 3016 2534 2758 2815 
Q 2500 3097 2075 3097 
Q 1594 3097 1305 2825 
Q 1016 2553 972 2059 
L 3022 2063 
z
" transform="scale(0.015625)"/>
       <path id="DejaVuSans-71" d="M 947 1747 
Q 947 1113 1208 752 
Q 1469 391 1925 391 
Q 2381 391 2643 752 
Q 2906 1113 2906 1747 
Q 2906 2381 2643 2742 
Q 2381 3103 1925 3103 
Q 1469 3103 1208 2742 
Q 947 2381 947 1747 
z
M 2906 525 
Q 2725 213 2448 61 
Q 2172 -91 1784 -91 
Q 1150 -91 751 415 
Q 353 922 353 1747 
Q 353 2572 751 3078 
Q 1150 3584 1784 3584 
Q 2172 3584 2448 3432 
Q 2725 3281 2906 2969 
L 2906 3500 
L 3481 3500 
L 3481 -1331 
L 2906 -1331 
L 2906 525 
z
" transform="scale(0.015625)"/>
       <path id="DejaVuSans-73" d="M 2834 3397 
L 2834 2853 
Q 2591 2978 2328 3040 
Q 2066 3103 1784 3103 
Q 1356 3103 1142 2972 
Q 928 2841 928 2578 
Q 928 2378 1081 2264 
Q 1234 2150 1697 2047 
L 1894 2003 
Q 2506 1872 2764 1633 
Q 3022 1394 3022 966 
Q 3022 478 2636 193 
Q 2250 -91 1575 -91 
Q 1294 -91 989 -36 
Q 684 19 347 128 
L 347 722 
Q 666 556 975 473 
Q 1284 391 1588 391 
Q 1994 391 2212 530 
Q 2431 669 2431 922 
Q 2431 1156 2273 1281 
Q 2116 1406 1581 1522 
L 1381 1569 
Q 847 1681 609 1914 
Q 372 2147 372 2553 
Q 372 3047 722 3315 
Q 1072 3584 1716 3584 
Q 2034 3584 2315 3537 
Q 2597 3491 2834 3397 
z
" transform="scale(0.015625)"/>
       <path id="DejaVuSans-64" d="M 2906 2969 
L 2906 4863 
L 3481 4863 
L 3481 0 
L 2906 0 
L 2906 525 
Q 2725 213 2448 61 
Q 2172 -91 1784 -91 
Q 1150 -91 751 415 
Q 353 922 353 1747 
Q 353 2572 751 3078 
Q 1150 3584 1784 3584 
Q 2172 3584 2448 3432 
Q 2725 3281 2906 2969 
z
M 947 1747 
Q 947 1113 1208 752 
Q 1469 391 1925 391 
Q 2381 391 2643 752 
Q 2906 1113 2906 1747 
Q 2906 2381 2643 2742 
Q 2381 3103 1925 3103 
Q 1469 3103 1208 2742 
Q 947 2381 947 1747 
z
" transform="scale(0.015625)"/>
      </defs>
      <use xlink:href="#DejaVuSans-4f"/>
      <use xlink:href="#DejaVuSans-31" x="78.710938"/>
      <use xlink:href="#DejaVuSans-20" x="142.333984"/>
      <use xlink:href="#DejaVuSans-72" x="174.121094"/>
      <use xlink:href="#DejaVuSans-65" x="212.984375"/>
      <use xlink:href="#DejaVuSans-71" x="274.507812"/>
      <use xlink:href="#DejaVuSans-75" x="337.984375"/>
      <use xlink:href="#DejaVuSans-65" x="401.363281"/>
      <use xlink:href="#DejaVuSans-73" x="462.886719"/>
      <use xlink:href="#DejaVuSans-74" x="514.986328"/>
      <use xlink:href="#DejaVuSans-65" x="554.195312"/>
      <use xlink:href="#DejaVuSans-64" x="615.71875"/>
     </g>
    </g>
    <g id="line2d_29">
     <path d="M 295.941176 96.896563 
L 305.941176 96.896563 
L 315.941176 96.896563 
" style="fill: none; stroke: #ff0000; stroke-width: 1.5; stroke-linecap: square"/>
    </g>
    <g id="text_23">
     <!-- O2 requested -->
     <g transform="translate(323.941176 100.396563) scale(0.1 -0.1)">
      <use xlink:href="#DejaVuSans-4f"/>
      <use xlink:href="#DejaVuSans-32" x="78.710938"/>
      <use xlink:href="#DejaVuSans-20" x="142.333984"/>
      <use xlink:href="#DejaVuSans-72" x="174.121094"/>
      <use xlink:href="#DejaVuSans-65" x="212.984375"/>
      <use xlink:href="#DejaVuSans-71" x="274.507812"/>
      <use xlink:href="#DejaVuSans-75" x="337.984375"/>
      <use xlink:href="#DejaVuSans-65" x="401.363281"/>
      <use xlink:href="#DejaVuSans-73" x="462.886719"/>
      <use xlink:href="#DejaVuSans-74" x="514.986328"/>
      <use xlink:href="#DejaVuSans-65" x="554.195312"/>
      <use xlink:href="#DejaVuSans-64" x="615.71875"/>
     </g>
    </g>
    <g id="line2d_30">
     <path d="M 295.941176 111.574688 
L 305.941176 111.574688 
L 315.941176 111.574688 
" style="fill: none; stroke: #008000; stroke-width: 1.5; stroke-linecap: square"/>
    </g>
    <g id="text_24">
     <!-- O3 requested -->
     <g transform="translate(323.941176 115.074688) scale(0.1 -0.1)">
      <use xlink:href="#DejaVuSans-4f"/>
      <use xlink:href="#DejaVuSans-33" x="78.710938"/>
      <use xlink:href="#DejaVuSans-20" x="142.333984"/>
      <use xlink:href="#DejaVuSans-72" x="174.121094"/>
      <use xlink:href="#DejaVuSans-65" x="212.984375"/>
      <use xlink:href="#DejaVuSans-71" x="274.507812"/>
      <use xlink:href="#DejaVuSans-75" x="337.984375"/>
      <use xlink:href="#DejaVuSans-65" x="401.363281"/>
      <use xlink:href="#DejaVuSans-73" x="462.886719"/>
      <use xlink:href="#DejaVuSans-74" x="514.986328"/>
      <use xlink:href="#DejaVuSans-65" x="554.195312"/>
      <use xlink:href="#DejaVuSans-64" x="615.71875"/>
     </g>
    </g>
   </g>
  </g>
  <g id="axes_3">
   <g id="patch_14">
    <path d="M 483.882353 512.64 
L 648 512.64 
L 648 69.12 
L 483.882353 69.12 
z
" style="fill: #ffffff"/>
   </g>
   <g id="matplotlib.axis_5">
    <g id="xtick_7">
     <g id="line2d_31">
      <g>
       <use xlink:href="#mb6ff1c5a11" x="490.033493" y="512.64" style="stroke: #000000; stroke-width: 0.8"/>
      </g>
     </g>
     <g id="text_25">
      <!-- 0 -->
      <g transform="translate(486.852243 527.238438) scale(0.1 -0.1)">
       <use xlink:href="#DejaVuSans-30"/>
      </g>
     </g>
    </g>
    <g id="xtick_8">
     <g id="line2d_32">
      <g>
       <use xlink:href="#mb6ff1c5a11" x="555.471151" y="512.64" style="stroke: #000000; stroke-width: 0.8"/>
      </g>
     </g>
     <g id="text_26">
      <!-- 50 -->
      <g transform="translate(549.108651 527.238438) scale(0.1 -0.1)">
       <use xlink:href="#DejaVuSans-35"/>
       <use xlink:href="#DejaVuSans-30" x="63.623047"/>
      </g>
     </g>
    </g>
    <g id="xtick_9">
     <g id="line2d_33">
      <g>
       <use xlink:href="#mb6ff1c5a11" x="620.908809" y="512.64" style="stroke: #000000; stroke-width: 0.8"/>
      </g>
     </g>
     <g id="text_27">
      <!-- 100 -->
      <g transform="translate(611.365059 527.238438) scale(0.1 -0.1)">
       <use xlink:href="#DejaVuSans-31"/>
       <use xlink:href="#DejaVuSans-30" x="63.623047"/>
       <use xlink:href="#DejaVuSans-30" x="127.246094"/>
      </g>
     </g>
    </g>
   </g>
   <g id="matplotlib.axis_6">
    <g id="ytick_13">
     <g id="line2d_34">
      <g>
       <use xlink:href="#md00ecb0479" x="483.882353" y="492.48" style="stroke: #000000; stroke-width: 0.8"/>
      </g>
     </g>
     <g id="text_28">
      <!-- 0 -->
      <g transform="translate(470.519853 496.279219) scale(0.1 -0.1)">
       <use xlink:href="#DejaVuSans-30"/>
      </g>
     </g>
    </g>
    <g id="ytick_14">
     <g id="line2d_35">
      <g>
       <use xlink:href="#md00ecb0479" x="483.882353" y="442.08" style="stroke: #000000; stroke-width: 0.8"/>
      </g>
     </g>
     <g id="text_29">
      <!-- 10 -->
      <g transform="translate(464.157353 445.879219) scale(0.1 -0.1)">
       <use xlink:href="#DejaVuSans-31"/>
       <use xlink:href="#DejaVuSans-30" x="63.623047"/>
      </g>
     </g>
    </g>
    <g id="ytick_15">
     <g id="line2d_36">
      <g>
       <use xlink:href="#md00ecb0479" x="483.882353" y="391.68" style="stroke: #000000; stroke-width: 0.8"/>
      </g>
     </g>
     <g id="text_30">
      <!-- 20 -->
      <g transform="translate(464.157353 395.479219) scale(0.1 -0.1)">
       <use xlink:href="#DejaVuSans-32"/>
       <use xlink:href="#DejaVuSans-30" x="63.623047"/>
      </g>
     </g>
    </g>
    <g id="ytick_16">
     <g id="line2d_37">
      <g>
       <use xlink:href="#md00ecb0479" x="483.882353" y="341.28" style="stroke: #000000; stroke-width: 0.8"/>
      </g>
     </g>
     <g id="text_31">
      <!-- 30 -->
      <g transform="translate(464.157353 345.079219) scale(0.1 -0.1)">
       <use xlink:href="#DejaVuSans-33"/>
       <use xlink:href="#DejaVuSans-30" x="63.623047"/>
      </g>
     </g>
    </g>
    <g id="ytick_17">
     <g id="line2d_38">
      <g>
       <use xlink:href="#md00ecb0479" x="483.882353" y="290.88" style="stroke: #000000; stroke-width: 0.8"/>
      </g>
     </g>
     <g id="text_32">
      <!-- 40 -->
      <g transform="translate(464.157353 294.679219) scale(0.1 -0.1)">
       <use xlink:href="#DejaVuSans-34"/>
       <use xlink:href="#DejaVuSans-30" x="63.623047"/>
      </g>
     </g>
    </g>
    <g id="ytick_18">
     <g id="line2d_39">
      <g>
       <use xlink:href="#md00ecb0479" x="483.882353" y="240.48" style="stroke: #000000; stroke-width: 0.8"/>
      </g>
     </g>
     <g id="text_33">
      <!-- 50 -->
      <g transform="translate(464.157353 244.279219) scale(0.1 -0.1)">
       <use xlink:href="#DejaVuSans-35"/>
       <use xlink:href="#DejaVuSans-30" x="63.623047"/>
      </g>
     </g>
    </g>
    <g id="ytick_19">
     <g id="line2d_40">
      <g>
       <use xlink:href="#md00ecb0479" x="483.882353" y="190.08" style="stroke: #000000; stroke-width: 0.8"/>
      </g>
     </g>
     <g id="text_34">
      <!-- 60 -->
      <g transform="translate(464.157353 193.879219) scale(0.1 -0.1)">
       <use xlink:href="#DejaVuSans-36"/>
       <use xlink:href="#DejaVuSans-30" x="63.623047"/>
      </g>
     </g>
    </g>
    <g id="ytick_20">
     <g id="line2d_41">
      <g>
       <use xlink:href="#md00ecb0479" x="483.882353" y="139.68" style="stroke: #000000; stroke-width: 0.8"/>
      </g>
     </g>
     <g id="text_35">
      <!-- 70 -->
      <g transform="translate(464.157353 143.479219) scale(0.1 -0.1)">
       <defs>
        <path id="DejaVuSans-37" d="M 525 4666 
L 3525 4666 
L 3525 4397 
L 1831 0 
L 1172 0 
L 2766 4134 
L 525 4134 
L 525 4666 
z
" transform="scale(0.015625)"/>
       </defs>
       <use xlink:href="#DejaVuSans-37"/>
       <use xlink:href="#DejaVuSans-30" x="63.623047"/>
      </g>
     </g>
    </g>
    <g id="ytick_21">
     <g id="line2d_42">
      <g>
       <use xlink:href="#md00ecb0479" x="483.882353" y="89.28" style="stroke: #000000; stroke-width: 0.8"/>
      </g>
     </g>
     <g id="text_36">
      <!-- 80 -->
      <g transform="translate(464.157353 93.079219) scale(0.1 -0.1)">
       <use xlink:href="#DejaVuSans-38"/>
       <use xlink:href="#DejaVuSans-30" x="63.623047"/>
      </g>
     </g>
    </g>
   </g>
   <g id="line2d_43">
    <path d="M 491.342246 492.48 
L 492.650999 487.44 
L 493.959752 487.44 
L 495.268505 487.44 
L 496.577259 482.4 
L 497.886012 482.4 
L 499.194765 482.4 
L 500.503518 482.4 
L 501.812271 482.4 
L 503.121024 482.4 
L 504.429778 477.36 
L 505.738531 472.32 
L 507.047284 472.32 
L 508.356037 467.28 
L 509.66479 457.2 
L 510.973543 457.2 
L 512.282297 457.2 
L 513.59105 457.2 
L 514.899803 457.2 
L 516.208556 457.2 
L 517.517309 457.2 
L 518.826062 457.2 
L 520.134816 447.12 
L 521.443569 442.08 
L 522.752322 442.08 
L 524.061075 442.08 
L 525.369828 442.08 
L 526.678581 442.08 
L 527.987335 442.08 
L 529.296088 442.08 
L 530.604841 442.08 
L 531.913594 437.04 
L 533.222347 437.04 
L 534.5311 432 
L 535.839854 432 
L 537.148607 421.92 
L 538.45736 416.88 
L 539.766113 416.88 
L 541.074866 411.84 
L 542.383619 391.68 
L 543.692373 371.52 
L 545.001126 351.36 
L 546.309879 346.32 
L 547.618632 346.32 
L 548.927385 331.2 
L 550.236138 331.2 
L 551.544892 331.2 
L 552.853645 326.16 
L 554.162398 316.08 
L 555.471151 311.04 
L 556.779904 306 
L 558.088657 285.84 
L 559.397411 275.76 
L 560.706164 265.68 
L 562.014917 265.68 
L 563.32367 255.6 
L 564.632423 250.56 
L 565.941176 245.52 
L 567.24993 235.44 
L 568.558683 225.36 
L 569.867436 220.32 
L 571.176189 220.32 
L 572.484942 220.32 
L 573.793695 210.24 
L 575.102449 200.16 
L 576.411202 190.08 
L 577.719955 185.04 
L 579.028708 185.04 
L 580.337461 174.96 
L 581.646214 174.96 
L 582.954968 169.92 
L 584.263721 169.92 
L 585.572474 159.84 
L 586.881227 149.76 
L 588.18998 144.72 
L 589.498733 134.64 
L 590.807487 134.64 
L 592.11624 134.64 
L 593.424993 124.56 
L 594.733746 124.56 
L 596.042499 124.56 
L 597.351252 124.56 
L 598.660006 119.52 
L 599.968759 114.48 
L 601.277512 114.48 
L 602.586265 114.48 
L 603.895018 114.48 
L 605.203771 114.48 
L 606.512525 114.48 
L 607.821278 114.48 
L 609.130031 109.44 
L 610.438784 109.44 
L 611.747537 109.44 
L 613.05629 109.44 
L 614.365044 109.44 
L 615.673797 109.44 
L 616.98255 109.44 
L 618.291303 109.44 
L 619.600056 109.44 
L 620.908809 109.44 
L 622.217563 109.44 
L 623.526316 109.44 
L 624.835069 109.44 
L 626.143822 104.4 
L 627.452575 104.4 
L 628.761328 99.36 
L 630.070082 94.32 
L 631.378835 89.28 
L 632.687588 89.28 
L 633.996341 89.28 
L 635.305094 89.28 
L 636.613847 89.28 
L 637.922601 89.28 
L 639.231354 89.28 
L 640.540107 89.28 
" clip-path="url(#p54db9c0176)" style="fill: none; stroke: #0000ff; stroke-width: 1.5; stroke-linecap: square"/>
   </g>
   <g id="line2d_44">
    <path d="M 491.342246 492.48 
L 492.650999 492.48 
L 493.959752 487.44 
L 495.268505 487.44 
L 496.577259 482.4 
L 497.886012 482.4 
L 499.194765 482.4 
L 500.503518 482.4 
L 501.812271 477.36 
L 503.121024 477.36 
L 504.429778 472.32 
L 505.738531 462.24 
L 507.047284 452.16 
L 508.356037 447.12 
L 509.66479 447.12 
L 510.973543 447.12 
L 512.282297 442.08 
L 513.59105 437.04 
L 514.899803 426.96 
L 516.208556 401.76 
L 517.517309 401.76 
L 518.826062 396.72 
L 520.134816 396.72 
L 521.443569 396.72 
L 522.752322 386.64 
L 524.061075 381.6 
L 525.369828 376.56 
L 526.678581 376.56 
L 527.987335 366.48 
L 529.296088 366.48 
L 530.604841 361.44 
L 531.913594 356.4 
L 533.222347 351.36 
L 534.5311 346.32 
L 535.839854 346.32 
L 537.148607 346.32 
L 538.45736 346.32 
L 539.766113 346.32 
L 541.074866 336.24 
L 542.383619 331.2 
L 543.692373 331.2 
L 545.001126 331.2 
L 546.309879 326.16 
L 547.618632 316.08 
L 548.927385 316.08 
L 550.236138 316.08 
L 551.544892 316.08 
L 552.853645 316.08 
L 554.162398 316.08 
L 555.471151 300.96 
L 556.779904 295.92 
L 558.088657 295.92 
L 559.397411 295.92 
L 560.706164 295.92 
L 562.014917 295.92 
L 563.32367 295.92 
L 564.632423 295.92 
L 565.941176 285.84 
L 567.24993 280.8 
L 568.558683 275.76 
L 569.867436 275.76 
L 571.176189 265.68 
L 572.484942 265.68 
L 573.793695 260.64 
L 575.102449 260.64 
L 576.411202 260.64 
L 577.719955 255.6 
L 579.028708 255.6 
L 580.337461 255.6 
L 581.646214 255.6 
L 582.954968 250.56 
L 584.263721 245.52 
L 585.572474 245.52 
L 586.881227 235.44 
L 588.18998 235.44 
L 589.498733 230.4 
L 590.807487 230.4 
L 592.11624 220.32 
L 593.424993 220.32 
L 594.733746 220.32 
L 596.042499 210.24 
L 597.351252 205.2 
L 598.660006 205.2 
L 599.968759 200.16 
L 601.277512 195.12 
L 602.586265 190.08 
L 603.895018 185.04 
L 605.203771 174.96 
L 606.512525 174.96 
L 607.821278 169.92 
L 609.130031 169.92 
L 610.438784 169.92 
L 611.747537 164.88 
L 613.05629 159.84 
L 614.365044 159.84 
L 615.673797 159.84 
L 616.98255 159.84 
L 618.291303 159.84 
L 619.600056 154.8 
L 620.908809 154.8 
L 622.217563 154.8 
L 623.526316 154.8 
L 624.835069 149.76 
L 626.143822 149.76 
L 627.452575 149.76 
L 628.761328 149.76 
L 630.070082 149.76 
L 631.378835 149.76 
L 632.687588 149.76 
L 633.996341 149.76 
L 635.305094 144.72 
L 636.613847 144.72 
L 637.922601 144.72 
L 639.231354 144.72 
L 640.540107 144.72 
" clip-path="url(#p54db9c0176)" style="fill: none; stroke: #ff0000; stroke-width: 1.5; stroke-linecap: square"/>
   </g>
   <g id="line2d_45">
    <path d="M 491.342246 492.48 
L 492.650999 487.44 
L 493.959752 487.44 
L 495.268505 487.44 
L 496.577259 477.36 
L 497.886012 477.36 
L 499.194765 477.36 
L 500.503518 472.32 
L 501.812271 472.32 
L 503.121024 467.28 
L 504.429778 467.28 
L 505.738531 467.28 
L 507.047284 467.28 
L 508.356037 467.28 
L 509.66479 467.28 
L 510.973543 467.28 
L 512.282297 467.28 
L 513.59105 467.28 
L 514.899803 467.28 
L 516.208556 467.28 
L 517.517309 467.28 
L 518.826062 467.28 
L 520.134816 467.28 
L 521.443569 467.28 
L 522.752322 467.28 
L 524.061075 467.28 
L 525.369828 467.28 
L 526.678581 467.28 
L 527.987335 467.28 
L 529.296088 467.28 
L 530.604841 467.28 
L 531.913594 467.28 
L 533.222347 467.28 
L 534.5311 467.28 
L 535.839854 467.28 
L 537.148607 467.28 
L 538.45736 467.28 
L 539.766113 467.28 
L 541.074866 467.28 
L 542.383619 467.28 
L 543.692373 467.28 
L 545.001126 467.28 
L 546.309879 467.28 
L 547.618632 467.28 
L 548.927385 467.28 
L 550.236138 467.28 
L 551.544892 467.28 
L 552.853645 467.28 
L 554.162398 467.28 
L 555.471151 467.28 
L 556.779904 467.28 
L 558.088657 467.28 
L 559.397411 467.28 
L 560.706164 467.28 
L 562.014917 467.28 
L 563.32367 467.28 
L 564.632423 467.28 
L 565.941176 467.28 
L 567.24993 467.28 
L 568.558683 467.28 
L 569.867436 467.28 
L 571.176189 467.28 
L 572.484942 467.28 
L 573.793695 467.28 
L 575.102449 467.28 
L 576.411202 467.28 
L 577.719955 467.28 
L 579.028708 467.28 
L 580.337461 467.28 
L 581.646214 467.28 
L 582.954968 467.28 
L 584.263721 467.28 
L 585.572474 467.28 
L 586.881227 467.28 
L 588.18998 467.28 
L 589.498733 467.28 
L 590.807487 467.28 
L 592.11624 467.28 
L 593.424993 467.28 
L 594.733746 467.28 
L 596.042499 467.28 
L 597.351252 467.28 
L 598.660006 467.28 
L 599.968759 467.28 
L 601.277512 467.28 
L 602.586265 467.28 
L 603.895018 467.28 
L 605.203771 467.28 
L 606.512525 467.28 
L 607.821278 467.28 
L 609.130031 467.28 
L 610.438784 467.28 
L 611.747537 467.28 
L 613.05629 467.28 
L 614.365044 467.28 
L 615.673797 467.28 
L 616.98255 467.28 
L 618.291303 467.28 
L 619.600056 467.28 
L 620.908809 467.28 
L 622.217563 467.28 
L 623.526316 467.28 
L 624.835069 467.28 
L 626.143822 467.28 
L 627.452575 467.28 
L 628.761328 467.28 
L 630.070082 467.28 
L 631.378835 467.28 
L 632.687588 467.28 
L 633.996341 467.28 
L 635.305094 467.28 
L 636.613847 467.28 
L 637.922601 467.28 
L 639.231354 467.28 
L 640.540107 467.28 
" clip-path="url(#p54db9c0176)" style="fill: none; stroke: #008000; stroke-width: 1.5; stroke-linecap: square"/>
   </g>
   <g id="patch_15">
    <path d="M 483.882353 512.64 
L 483.882353 69.12 
" style="fill: none; stroke: #000000; stroke-width: 0.8; stroke-linejoin: miter; stroke-linecap: square"/>
   </g>
   <g id="patch_16">
    <path d="M 648 512.64 
L 648 69.12 
" style="fill: none; stroke: #000000; stroke-width: 0.8; stroke-linejoin: miter; stroke-linecap: square"/>
   </g>
   <g id="patch_17">
    <path d="M 483.882353 512.64 
L 648 512.64 
" style="fill: none; stroke: #000000; stroke-width: 0.8; stroke-linejoin: miter; stroke-linecap: square"/>
   </g>
   <g id="patch_18">
    <path d="M 483.882353 69.12 
L 648 69.12 
" style="fill: none; stroke: #000000; stroke-width: 0.8; stroke-linejoin: miter; stroke-linecap: square"/>
   </g>
   <g id="legend_3">
    <g id="patch_19">
     <path d="M 490.882353 121.154375 
L 580.719853 121.154375 
Q 582.719853 121.154375 582.719853 119.154375 
L 582.719853 76.12 
Q 582.719853 74.12 580.719853 74.12 
L 490.882353 74.12 
Q 488.882353 74.12 488.882353 76.12 
L 488.882353 119.154375 
Q 488.882353 121.154375 490.882353 121.154375 
z
" style="fill: #ffffff; opacity: 0.8; stroke: #cccccc; stroke-linejoin: miter"/>
    </g>
    <g id="line2d_46">
     <path d="M 492.882353 82.218438 
L 502.882353 82.218438 
L 512.882353 82.218438 
" style="fill: none; stroke: #0000ff; stroke-width: 1.5; stroke-linecap: square"/>
    </g>
    <g id="text_37">
     <!-- O1 ensured -->
     <g transform="translate(520.882353 85.718438) scale(0.1 -0.1)">
      <defs>
       <path id="DejaVuSans-6e" d="M 3513 2113 
L 3513 0 
L 2938 0 
L 2938 2094 
Q 2938 2591 2744 2837 
Q 2550 3084 2163 3084 
Q 1697 3084 1428 2787 
Q 1159 2491 1159 1978 
L 1159 0 
L 581 0 
L 581 3500 
L 1159 3500 
L 1159 2956 
Q 1366 3272 1645 3428 
Q 1925 3584 2291 3584 
Q 2894 3584 3203 3211 
Q 3513 2838 3513 2113 
z
" transform="scale(0.015625)"/>
      </defs>
      <use xlink:href="#DejaVuSans-4f"/>
      <use xlink:href="#DejaVuSans-31" x="78.710938"/>
      <use xlink:href="#DejaVuSans-20" x="142.333984"/>
      <use xlink:href="#DejaVuSans-65" x="174.121094"/>
      <use xlink:href="#DejaVuSans-6e" x="235.644531"/>
      <use xlink:href="#DejaVuSans-73" x="299.023438"/>
      <use xlink:href="#DejaVuSans-75" x="351.123047"/>
      <use xlink:href="#DejaVuSans-72" x="414.501953"/>
      <use xlink:href="#DejaVuSans-65" x="453.365234"/>
      <use xlink:href="#DejaVuSans-64" x="514.888672"/>
     </g>
    </g>
    <g id="line2d_47">
     <path d="M 492.882353 96.896563 
L 502.882353 96.896563 
L 512.882353 96.896563 
" style="fill: none; stroke: #ff0000; stroke-width: 1.5; stroke-linecap: square"/>
    </g>
    <g id="text_38">
     <!-- O2 ensured -->
     <g transform="translate(520.882353 100.396563) scale(0.1 -0.1)">
      <use xlink:href="#DejaVuSans-4f"/>
      <use xlink:href="#DejaVuSans-32" x="78.710938"/>
      <use xlink:href="#DejaVuSans-20" x="142.333984"/>
      <use xlink:href="#DejaVuSans-65" x="174.121094"/>
      <use xlink:href="#DejaVuSans-6e" x="235.644531"/>
      <use xlink:href="#DejaVuSans-73" x="299.023438"/>
      <use xlink:href="#DejaVuSans-75" x="351.123047"/>
      <use xlink:href="#DejaVuSans-72" x="414.501953"/>
      <use xlink:href="#DejaVuSans-65" x="453.365234"/>
      <use xlink:href="#DejaVuSans-64" x="514.888672"/>
     </g>
    </g>
    <g id="line2d_48">
     <path d="M 492.882353 111.574688 
L 502.882353 111.574688 
L 512.882353 111.574688 
" style="fill: none; stroke: #008000; stroke-width: 1.5; stroke-linecap: square"/>
    </g>
    <g id="text_39">
     <!-- O3 ensured -->
     <g transform="translate(520.882353 115.074688) scale(0.1 -0.1)">
      <use xlink:href="#DejaVuSans-4f"/>
      <use xlink:href="#DejaVuSans-33" x="78.710938"/>
      <use xlink:href="#DejaVuSans-20" x="142.333984"/>
      <use xlink:href="#DejaVuSans-65" x="174.121094"/>
      <use xlink:href="#DejaVuSans-6e" x="235.644531"/>
      <use xlink:href="#DejaVuSans-73" x="299.023438"/>
      <use xlink:href="#DejaVuSans-75" x="351.123047"/>
      <use xlink:href="#DejaVuSans-72" x="414.501953"/>
      <use xlink:href="#DejaVuSans-65" x="453.365234"/>
      <use xlink:href="#DejaVuSans-64" x="514.888672"/>
     </g>
    </g>
   </g>
  </g>
 </g>
 <defs>
  <clipPath id="p5c6cbc20d2">
   <rect x="90" y="69.12" width="164.117647" height="443.52"/>
  </clipPath>
  <clipPath id="p0b99811763">
   <rect x="286.941176" y="69.12" width="164.117647" height="443.52"/>
  </clipPath>
  <clipPath id="p54db9c0176">
   <rect x="483.882353" y="69.12" width="164.117647" height="443.52"/>
  </clipPath>
 </defs>
</svg>
