<?xml version="1.0" encoding="utf-8" standalone="no"?>
<!DOCTYPE svg PUBLIC "-//W3C//DTD SVG 1.1//EN"
  "http://www.w3.org/Graphics/SVG/1.1/DTD/svg11.dtd">
<svg xmlns:xlink="http://www.w3.org/1999/xlink" width="720pt" height="576pt" viewBox="0 0 720 576" xmlns="http://www.w3.org/2000/svg" version="1.1">
 <metadata>
  <rdf:RDF xmlns:dc="http://purl.org/dc/elements/1.1/" xmlns:cc="http://creativecommons.org/ns#" xmlns:rdf="http://www.w3.org/1999/02/22-rdf-syntax-ns#">
   <cc:Work>
    <dc:type rdf:resource="http://purl.org/dc/dcmitype/StillImage"/>
    <dc:date>2023-05-29T13:37:05.466615</dc:date>
    <dc:format>image/svg+xml</dc:format>
    <dc:creator>
     <cc:Agent>
      <dc:title>Matplotlib v3.7.1, https://matplotlib.org/</dc:title>
     </cc:Agent>
    </dc:creator>
   </cc:Work>
  </rdf:RDF>
 </metadata>
 <defs>
  <style type="text/css">*{stroke-linejoin: round; stroke-linecap: butt}</style>
 </defs>
 <g id="figure_1">
  <g id="patch_1">
   <path d="M 0 576 
L 720 576 
L 720 0 
L 0 0 
z
" style="fill: #ffffff"/>
  </g>
  <g id="axes_1">
   <g id="patch_2">
    <path d="M 90 512.64 
L 254.117647 512.64 
L 254.117647 69.12 
L 90 69.12 
z
" style="fill: #ffffff"/>
   </g>
   <g id="matplotlib.axis_1">
    <g id="xtick_1">
     <g id="line2d_1">
      <defs>
       <path id="m5424a241b9" d="M 0 0 
L 0 3.5 
" style="stroke: #000000; stroke-width: 0.8"/>
      </defs>
      <g>
       <use xlink:href="#m5424a241b9" x="95.443706" y="512.64" style="stroke: #000000; stroke-width: 0.8"/>
      </g>
     </g>
     <g id="text_1">
      <!-- 0 -->
      <g transform="translate(92.262456 527.238438) scale(0.1 -0.1)">
       <defs>
        <path id="DejaVuSans-30" d="M 2034 4250 
Q 1547 4250 1301 3770 
Q 1056 3291 1056 2328 
Q 1056 1369 1301 889 
Q 1547 409 2034 409 
Q 2525 409 2770 889 
Q 3016 1369 3016 2328 
Q 3016 3291 2770 3770 
Q 2525 4250 2034 4250 
z
M 2034 4750 
Q 2819 4750 3233 4129 
Q 3647 3509 3647 2328 
Q 3647 1150 3233 529 
Q 2819 -91 2034 -91 
Q 1250 -91 836 529 
Q 422 1150 422 2328 
Q 422 3509 836 4129 
Q 1250 4750 2034 4750 
z
" transform="scale(0.015625)"/>
       </defs>
       <use xlink:href="#DejaVuSans-30"/>
      </g>
     </g>
    </g>
    <g id="xtick_2">
     <g id="line2d_2">
      <g>
       <use xlink:href="#m5424a241b9" x="135.767452" y="512.64" style="stroke: #000000; stroke-width: 0.8"/>
      </g>
     </g>
     <g id="text_2">
      <!-- 20 -->
      <g transform="translate(129.404952 527.238438) scale(0.1 -0.1)">
       <defs>
        <path id="DejaVuSans-32" d="M 1228 531 
L 3431 531 
L 3431 0 
L 469 0 
L 469 531 
Q 828 903 1448 1529 
Q 2069 2156 2228 2338 
Q 2531 2678 2651 2914 
Q 2772 3150 2772 3378 
Q 2772 3750 2511 3984 
Q 2250 4219 1831 4219 
Q 1534 4219 1204 4116 
Q 875 4013 500 3803 
L 500 4441 
Q 881 4594 1212 4672 
Q 1544 4750 1819 4750 
Q 2544 4750 2975 4387 
Q 3406 4025 3406 3419 
Q 3406 3131 3298 2873 
Q 3191 2616 2906 2266 
Q 2828 2175 2409 1742 
Q 1991 1309 1228 531 
z
" transform="scale(0.015625)"/>
       </defs>
       <use xlink:href="#DejaVuSans-32"/>
       <use xlink:href="#DejaVuSans-30" x="63.623047"/>
      </g>
     </g>
    </g>
    <g id="xtick_3">
     <g id="line2d_3">
      <g>
       <use xlink:href="#m5424a241b9" x="176.091198" y="512.64" style="stroke: #000000; stroke-width: 0.8"/>
      </g>
     </g>
     <g id="text_3">
      <!-- 40 -->
      <g transform="translate(169.728698 527.238438) scale(0.1 -0.1)">
       <defs>
        <path id="DejaVuSans-34" d="M 2419 4116 
L 825 1625 
L 2419 1625 
L 2419 4116 
z
M 2253 4666 
L 3047 4666 
L 3047 1625 
L 3713 1625 
L 3713 1100 
L 3047 1100 
L 3047 0 
L 2419 0 
L 2419 1100 
L 313 1100 
L 313 1709 
L 2253 4666 
z
" transform="scale(0.015625)"/>
       </defs>
       <use xlink:href="#DejaVuSans-34"/>
       <use xlink:href="#DejaVuSans-30" x="63.623047"/>
      </g>
     </g>
    </g>
    <g id="xtick_4">
     <g id="line2d_4">
      <g>
       <use xlink:href="#m5424a241b9" x="216.414944" y="512.64" style="stroke: #000000; stroke-width: 0.8"/>
      </g>
     </g>
     <g id="text_4">
      <!-- 60 -->
      <g transform="translate(210.052444 527.238438) scale(0.1 -0.1)">
       <defs>
        <path id="DejaVuSans-36" d="M 2113 2584 
Q 1688 2584 1439 2293 
Q 1191 2003 1191 1497 
Q 1191 994 1439 701 
Q 1688 409 2113 409 
Q 2538 409 2786 701 
Q 3034 994 3034 1497 
Q 3034 2003 2786 2293 
Q 2538 2584 2113 2584 
z
M 3366 4563 
L 3366 3988 
Q 3128 4100 2886 4159 
Q 2644 4219 2406 4219 
Q 1781 4219 1451 3797 
Q 1122 3375 1075 2522 
Q 1259 2794 1537 2939 
Q 1816 3084 2150 3084 
Q 2853 3084 3261 2657 
Q 3669 2231 3669 1497 
Q 3669 778 3244 343 
Q 2819 -91 2113 -91 
Q 1303 -91 875 529 
Q 447 1150 447 2328 
Q 447 3434 972 4092 
Q 1497 4750 2381 4750 
Q 2619 4750 2861 4703 
Q 3103 4656 3366 4563 
z
" transform="scale(0.015625)"/>
       </defs>
       <use xlink:href="#DejaVuSans-36"/>
       <use xlink:href="#DejaVuSans-30" x="63.623047"/>
      </g>
     </g>
    </g>
   </g>
   <g id="matplotlib.axis_2">
    <g id="ytick_1">
     <g id="line2d_5">
      <defs>
       <path id="m72b73b141e" d="M 0 0 
L -3.5 0 
" style="stroke: #000000; stroke-width: 0.8"/>
      </defs>
      <g>
       <use xlink:href="#m72b73b141e" x="90" y="492.48" style="stroke: #000000; stroke-width: 0.8"/>
      </g>
     </g>
     <g id="text_5">
      <!-- 0 -->
      <g transform="translate(76.6375 496.279219) scale(0.1 -0.1)">
       <use xlink:href="#DejaVuSans-30"/>
      </g>
     </g>
    </g>
    <g id="ytick_2">
     <g id="line2d_6">
      <g>
       <use xlink:href="#m72b73b141e" x="90" y="411.84" style="stroke: #000000; stroke-width: 0.8"/>
      </g>
     </g>
     <g id="text_6">
      <!-- 2 -->
      <g transform="translate(76.6375 415.639219) scale(0.1 -0.1)">
       <use xlink:href="#DejaVuSans-32"/>
      </g>
     </g>
    </g>
    <g id="ytick_3">
     <g id="line2d_7">
      <g>
       <use xlink:href="#m72b73b141e" x="90" y="331.2" style="stroke: #000000; stroke-width: 0.8"/>
      </g>
     </g>
     <g id="text_7">
      <!-- 4 -->
      <g transform="translate(76.6375 334.999219) scale(0.1 -0.1)">
       <use xlink:href="#DejaVuSans-34"/>
      </g>
     </g>
    </g>
    <g id="ytick_4">
     <g id="line2d_8">
      <g>
       <use xlink:href="#m72b73b141e" x="90" y="250.56" style="stroke: #000000; stroke-width: 0.8"/>
      </g>
     </g>
     <g id="text_8">
      <!-- 6 -->
      <g transform="translate(76.6375 254.359219) scale(0.1 -0.1)">
       <use xlink:href="#DejaVuSans-36"/>
      </g>
     </g>
    </g>
    <g id="ytick_5">
     <g id="line2d_9">
      <g>
       <use xlink:href="#m72b73b141e" x="90" y="169.92" style="stroke: #000000; stroke-width: 0.8"/>
      </g>
     </g>
     <g id="text_9">
      <!-- 8 -->
      <g transform="translate(76.6375 173.719219) scale(0.1 -0.1)">
       <defs>
        <path id="DejaVuSans-38" d="M 2034 2216 
Q 1584 2216 1326 1975 
Q 1069 1734 1069 1313 
Q 1069 891 1326 650 
Q 1584 409 2034 409 
Q 2484 409 2743 651 
Q 3003 894 3003 1313 
Q 3003 1734 2745 1975 
Q 2488 2216 2034 2216 
z
M 1403 2484 
Q 997 2584 770 2862 
Q 544 3141 544 3541 
Q 544 4100 942 4425 
Q 1341 4750 2034 4750 
Q 2731 4750 3128 4425 
Q 3525 4100 3525 3541 
Q 3525 3141 3298 2862 
Q 3072 2584 2669 2484 
Q 3125 2378 3379 2068 
Q 3634 1759 3634 1313 
Q 3634 634 3220 271 
Q 2806 -91 2034 -91 
Q 1263 -91 848 271 
Q 434 634 434 1313 
Q 434 1759 690 2068 
Q 947 2378 1403 2484 
z
M 1172 3481 
Q 1172 3119 1398 2916 
Q 1625 2713 2034 2713 
Q 2441 2713 2670 2916 
Q 2900 3119 2900 3481 
Q 2900 3844 2670 4047 
Q 2441 4250 2034 4250 
Q 1625 4250 1398 4047 
Q 1172 3844 1172 3481 
z
" transform="scale(0.015625)"/>
       </defs>
       <use xlink:href="#DejaVuSans-38"/>
      </g>
     </g>
    </g>
    <g id="ytick_6">
     <g id="line2d_10">
      <g>
       <use xlink:href="#m72b73b141e" x="90" y="89.28" style="stroke: #000000; stroke-width: 0.8"/>
      </g>
     </g>
     <g id="text_10">
      <!-- 10 -->
      <g transform="translate(70.275 93.079219) scale(0.1 -0.1)">
       <defs>
        <path id="DejaVuSans-31" d="M 794 531 
L 1825 531 
L 1825 4091 
L 703 3866 
L 703 4441 
L 1819 4666 
L 2450 4666 
L 2450 531 
L 3481 531 
L 3481 0 
L 794 0 
L 794 531 
z
" transform="scale(0.015625)"/>
       </defs>
       <use xlink:href="#DejaVuSans-31"/>
       <use xlink:href="#DejaVuSans-30" x="63.623047"/>
      </g>
     </g>
    </g>
   </g>
   <g id="line2d_11">
    <path d="M 97.459893 492.48 
L 99.47608 89.28 
L 101.492268 89.28 
L 103.508455 492.48 
L 105.524642 492.48 
L 107.54083 492.48 
L 109.557017 492.48 
L 111.573204 492.48 
L 113.589392 492.48 
L 115.605579 492.48 
L 117.621766 89.28 
L 119.637953 89.28 
L 121.654141 492.48 
L 123.670328 89.28 
L 125.686515 89.28 
L 127.702703 492.48 
L 129.71889 492.48 
L 131.735077 492.48 
L 133.751265 492.48 
L 135.767452 492.48 
L 137.783639 492.48 
L 139.799827 492.48 
L 141.816014 89.28 
L 143.832201 492.48 
L 145.848388 492.48 
L 147.864576 492.48 
L 149.880763 492.48 
L 151.89695 492.48 
L 153.913138 492.48 
L 155.929325 492.48 
L 157.945512 492.48 
L 159.9617 492.48 
L 161.977887 492.48 
L 163.994074 492.48 
L 166.010262 492.48 
L 168.026449 89.28 
L 170.042636 492.48 
L 172.058824 492.48 
L 174.075011 89.28 
L 176.091198 492.48 
L 178.107385 89.28 
L 180.123573 89.28 
L 182.13976 492.48 
L 184.155947 492.48 
L 186.172135 492.48 
L 188.188322 492.48 
L 190.204509 492.48 
L 192.220697 492.48 
L 194.236884 492.48 
L 196.253071 492.48 
L 198.269259 492.48 
L 200.285446 89.28 
L 202.301633 492.48 
L 204.31782 492.48 
L 206.334008 492.48 
L 208.350195 492.48 
L 210.366382 492.48 
L 212.38257 89.28 
L 214.398757 492.48 
L 216.414944 492.48 
L 218.431132 89.28 
L 220.447319 492.48 
L 222.463506 492.48 
L 224.479694 89.28 
L 226.495881 492.48 
L 228.512068 492.48 
L 230.528256 492.48 
L 232.544443 492.48 
L 234.56063 492.48 
L 236.576817 492.48 
L 238.593005 492.48 
L 240.609192 492.48 
L 242.625379 492.48 
L 244.641567 492.48 
L 246.657754 492.48 
" clip-path="url(#pb9be28d3ef)" style="fill: none; stroke: #0000ff; stroke-width: 1.5; stroke-linecap: square"/>
   </g>
   <g id="line2d_12">
    <path d="M 97.459893 492.48 
L 99.47608 492.48 
L 101.492268 492.48 
L 103.508455 492.48 
L 105.524642 492.48 
L 107.54083 492.48 
L 109.557017 492.48 
L 111.573204 492.48 
L 113.589392 89.28 
L 115.605579 492.48 
L 117.621766 492.48 
L 119.637953 492.48 
L 121.654141 492.48 
L 123.670328 89.28 
L 125.686515 492.48 
L 127.702703 492.48 
L 129.71889 89.28 
L 131.735077 89.28 
L 133.751265 492.48 
L 135.767452 492.48 
L 137.783639 492.48 
L 139.799827 492.48 
L 141.816014 492.48 
L 143.832201 492.48 
L 145.848388 89.28 
L 147.864576 492.48 
L 149.880763 492.48 
L 151.89695 492.48 
L 153.913138 89.28 
L 155.929325 492.48 
L 157.945512 492.48 
L 159.9617 492.48 
L 161.977887 492.48 
L 163.994074 89.28 
L 166.010262 492.48 
L 168.026449 492.48 
L 170.042636 492.48 
L 172.058824 492.48 
L 174.075011 492.48 
L 176.091198 492.48 
L 178.107385 492.48 
L 180.123573 492.48 
L 182.13976 492.48 
L 184.155947 89.28 
L 186.172135 492.48 
L 188.188322 492.48 
L 190.204509 492.48 
L 192.220697 492.48 
L 194.236884 492.48 
L 196.253071 89.28 
L 198.269259 492.48 
L 200.285446 492.48 
L 202.301633 492.48 
L 204.31782 492.48 
L 206.334008 492.48 
L 208.350195 492.48 
L 210.366382 492.48 
L 212.38257 89.28 
L 214.398757 89.28 
L 216.414944 492.48 
L 218.431132 492.48 
L 220.447319 492.48 
L 222.463506 492.48 
L 224.479694 492.48 
L 226.495881 492.48 
L 228.512068 492.48 
L 230.528256 89.28 
L 232.544443 492.48 
L 234.56063 492.48 
L 236.576817 492.48 
L 238.593005 492.48 
L 240.609192 492.48 
L 242.625379 492.48 
L 244.641567 492.48 
L 246.657754 492.48 
" clip-path="url(#pb9be28d3ef)" style="fill: none; stroke: #ff0000; stroke-width: 1.5; stroke-linecap: square"/>
   </g>
   <g id="line2d_13">
    <path d="M 97.459893 492.48 
L 99.47608 89.28 
L 101.492268 492.48 
L 103.508455 492.48 
L 105.524642 492.48 
L 107.54083 492.48 
L 109.557017 492.48 
L 111.573204 89.28 
L 113.589392 492.48 
L 115.605579 492.48 
L 117.621766 492.48 
L 119.637953 492.48 
L 121.654141 492.48 
L 123.670328 492.48 
L 125.686515 492.48 
L 127.702703 492.48 
L 129.71889 492.48 
L 131.735077 492.48 
L 133.751265 492.48 
L 135.767452 492.48 
L 137.783639 492.48 
L 139.799827 492.48 
L 141.816014 492.48 
L 143.832201 492.48 
L 145.848388 492.48 
L 147.864576 492.48 
L 149.880763 492.48 
L 151.89695 492.48 
L 153.913138 492.48 
L 155.929325 492.48 
L 157.945512 492.48 
L 159.9617 492.48 
L 161.977887 492.48 
L 163.994074 492.48 
L 166.010262 492.48 
L 168.026449 492.48 
L 170.042636 492.48 
L 172.058824 492.48 
L 174.075011 492.48 
L 176.091198 492.48 
L 178.107385 492.48 
L 180.123573 492.48 
L 182.13976 492.48 
L 184.155947 492.48 
L 186.172135 492.48 
L 188.188322 492.48 
L 190.204509 492.48 
L 192.220697 492.48 
L 194.236884 492.48 
L 196.253071 492.48 
L 198.269259 492.48 
L 200.285446 492.48 
L 202.301633 492.48 
L 204.31782 492.48 
L 206.334008 492.48 
L 208.350195 492.48 
L 210.366382 492.48 
L 212.38257 492.48 
L 214.398757 492.48 
L 216.414944 492.48 
L 218.431132 492.48 
L 220.447319 492.48 
L 222.463506 492.48 
L 224.479694 492.48 
L 226.495881 492.48 
L 228.512068 492.48 
L 230.528256 492.48 
L 232.544443 492.48 
L 234.56063 492.48 
L 236.576817 492.48 
L 238.593005 492.48 
L 240.609192 492.48 
L 242.625379 492.48 
L 244.641567 492.48 
L 246.657754 492.48 
" clip-path="url(#pb9be28d3ef)" style="fill: none; stroke: #008000; stroke-width: 1.5; stroke-linecap: square"/>
   </g>
   <g id="patch_3">
    <path d="M 90 512.64 
L 90 69.12 
" style="fill: none; stroke: #000000; stroke-width: 0.8; stroke-linejoin: miter; stroke-linecap: square"/>
   </g>
   <g id="patch_4">
    <path d="M 254.117647 512.64 
L 254.117647 69.12 
" style="fill: none; stroke: #000000; stroke-width: 0.8; stroke-linejoin: miter; stroke-linecap: square"/>
   </g>
   <g id="patch_5">
    <path d="M 90 512.64 
L 254.117647 512.64 
" style="fill: none; stroke: #000000; stroke-width: 0.8; stroke-linejoin: miter; stroke-linecap: square"/>
   </g>
   <g id="patch_6">
    <path d="M 90 69.12 
L 254.117647 69.12 
" style="fill: none; stroke: #000000; stroke-width: 0.8; stroke-linejoin: miter; stroke-linecap: square"/>
   </g>
   <g id="legend_1">
    <g id="patch_7">
     <path d="M 169.273897 314.397188 
L 247.117647 314.397188 
Q 249.117647 314.397188 249.117647 312.397188 
L 249.117647 269.362813 
Q 249.117647 267.362813 247.117647 267.362813 
L 169.273897 267.362813 
Q 167.273897 267.362813 167.273897 269.362813 
L 167.273897 312.397188 
Q 167.273897 314.397188 169.273897 314.397188 
z
" style="fill: #ffffff; opacity: 0.8; stroke: #cccccc; stroke-linejoin: miter"/>
    </g>
    <g id="line2d_14">
     <path d="M 171.273897 275.46125 
L 181.273897 275.46125 
L 191.273897 275.46125 
" style="fill: none; stroke: #0000ff; stroke-width: 1.5; stroke-linecap: square"/>
    </g>
    <g id="text_11">
     <!-- O1 utility -->
     <g transform="translate(199.273897 278.96125) scale(0.1 -0.1)">
      <defs>
       <path id="DejaVuSans-4f" d="M 2522 4238 
Q 1834 4238 1429 3725 
Q 1025 3213 1025 2328 
Q 1025 1447 1429 934 
Q 1834 422 2522 422 
Q 3209 422 3611 934 
Q 4013 1447 4013 2328 
Q 4013 3213 3611 3725 
Q 3209 4238 2522 4238 
z
M 2522 4750 
Q 3503 4750 4090 4092 
Q 4678 3434 4678 2328 
Q 4678 1225 4090 567 
Q 3503 -91 2522 -91 
Q 1538 -91 948 565 
Q 359 1222 359 2328 
Q 359 3434 948 4092 
Q 1538 4750 2522 4750 
z
" transform="scale(0.015625)"/>
       <path id="DejaVuSans-20" transform="scale(0.015625)"/>
       <path id="DejaVuSans-75" d="M 544 1381 
L 544 3500 
L 1119 3500 
L 1119 1403 
Q 1119 906 1312 657 
Q 1506 409 1894 409 
Q 2359 409 2629 706 
Q 2900 1003 2900 1516 
L 2900 3500 
L 3475 3500 
L 3475 0 
L 2900 0 
L 2900 538 
Q 2691 219 2414 64 
Q 2138 -91 1772 -91 
Q 1169 -91 856 284 
Q 544 659 544 1381 
z
M 1991 3584 
L 1991 3584 
z
" transform="scale(0.015625)"/>
       <path id="DejaVuSans-74" d="M 1172 4494 
L 1172 3500 
L 2356 3500 
L 2356 3053 
L 1172 3053 
L 1172 1153 
Q 1172 725 1289 603 
Q 1406 481 1766 481 
L 2356 481 
L 2356 0 
L 1766 0 
Q 1100 0 847 248 
Q 594 497 594 1153 
L 594 3053 
L 172 3053 
L 172 3500 
L 594 3500 
L 594 4494 
L 1172 4494 
z
" transform="scale(0.015625)"/>
       <path id="DejaVuSans-69" d="M 603 3500 
L 1178 3500 
L 1178 0 
L 603 0 
L 603 3500 
z
M 603 4863 
L 1178 4863 
L 1178 4134 
L 603 4134 
L 603 4863 
z
" transform="scale(0.015625)"/>
       <path id="DejaVuSans-6c" d="M 603 4863 
L 1178 4863 
L 1178 0 
L 603 0 
L 603 4863 
z
" transform="scale(0.015625)"/>
       <path id="DejaVuSans-79" d="M 2059 -325 
Q 1816 -950 1584 -1140 
Q 1353 -1331 966 -1331 
L 506 -1331 
L 506 -850 
L 844 -850 
Q 1081 -850 1212 -737 
Q 1344 -625 1503 -206 
L 1606 56 
L 191 3500 
L 800 3500 
L 1894 763 
L 2988 3500 
L 3597 3500 
L 2059 -325 
z
" transform="scale(0.015625)"/>
      </defs>
      <use xlink:href="#DejaVuSans-4f"/>
      <use xlink:href="#DejaVuSans-31" x="78.710938"/>
      <use xlink:href="#DejaVuSans-20" x="142.333984"/>
      <use xlink:href="#DejaVuSans-75" x="174.121094"/>
      <use xlink:href="#DejaVuSans-74" x="237.5"/>
      <use xlink:href="#DejaVuSans-69" x="276.708984"/>
      <use xlink:href="#DejaVuSans-6c" x="304.492188"/>
      <use xlink:href="#DejaVuSans-69" x="332.275391"/>
      <use xlink:href="#DejaVuSans-74" x="360.058594"/>
      <use xlink:href="#DejaVuSans-79" x="399.267578"/>
     </g>
    </g>
    <g id="line2d_15">
     <path d="M 171.273897 290.139375 
L 181.273897 290.139375 
L 191.273897 290.139375 
" style="fill: none; stroke: #ff0000; stroke-width: 1.5; stroke-linecap: square"/>
    </g>
    <g id="text_12">
     <!-- O2 utility -->
     <g transform="translate(199.273897 293.639375) scale(0.1 -0.1)">
      <use xlink:href="#DejaVuSans-4f"/>
      <use xlink:href="#DejaVuSans-32" x="78.710938"/>
      <use xlink:href="#DejaVuSans-20" x="142.333984"/>
      <use xlink:href="#DejaVuSans-75" x="174.121094"/>
      <use xlink:href="#DejaVuSans-74" x="237.5"/>
      <use xlink:href="#DejaVuSans-69" x="276.708984"/>
      <use xlink:href="#DejaVuSans-6c" x="304.492188"/>
      <use xlink:href="#DejaVuSans-69" x="332.275391"/>
      <use xlink:href="#DejaVuSans-74" x="360.058594"/>
      <use xlink:href="#DejaVuSans-79" x="399.267578"/>
     </g>
    </g>
    <g id="line2d_16">
     <path d="M 171.273897 304.8175 
L 181.273897 304.8175 
L 191.273897 304.8175 
" style="fill: none; stroke: #008000; stroke-width: 1.5; stroke-linecap: square"/>
    </g>
    <g id="text_13">
     <!-- O3 utility -->
     <g transform="translate(199.273897 308.3175) scale(0.1 -0.1)">
      <defs>
       <path id="DejaVuSans-33" d="M 2597 2516 
Q 3050 2419 3304 2112 
Q 3559 1806 3559 1356 
Q 3559 666 3084 287 
Q 2609 -91 1734 -91 
Q 1441 -91 1130 -33 
Q 819 25 488 141 
L 488 750 
Q 750 597 1062 519 
Q 1375 441 1716 441 
Q 2309 441 2620 675 
Q 2931 909 2931 1356 
Q 2931 1769 2642 2001 
Q 2353 2234 1838 2234 
L 1294 2234 
L 1294 2753 
L 1863 2753 
Q 2328 2753 2575 2939 
Q 2822 3125 2822 3475 
Q 2822 3834 2567 4026 
Q 2313 4219 1838 4219 
Q 1578 4219 1281 4162 
Q 984 4106 628 3988 
L 628 4550 
Q 988 4650 1302 4700 
Q 1616 4750 1894 4750 
Q 2613 4750 3031 4423 
Q 3450 4097 3450 3541 
Q 3450 3153 3228 2886 
Q 3006 2619 2597 2516 
z
" transform="scale(0.015625)"/>
      </defs>
      <use xlink:href="#DejaVuSans-4f"/>
      <use xlink:href="#DejaVuSans-33" x="78.710938"/>
      <use xlink:href="#DejaVuSans-20" x="142.333984"/>
      <use xlink:href="#DejaVuSans-75" x="174.121094"/>
      <use xlink:href="#DejaVuSans-74" x="237.5"/>
      <use xlink:href="#DejaVuSans-69" x="276.708984"/>
      <use xlink:href="#DejaVuSans-6c" x="304.492188"/>
      <use xlink:href="#DejaVuSans-69" x="332.275391"/>
      <use xlink:href="#DejaVuSans-74" x="360.058594"/>
      <use xlink:href="#DejaVuSans-79" x="399.267578"/>
     </g>
    </g>
   </g>
  </g>
  <g id="axes_2">
   <g id="patch_8">
    <path d="M 286.941176 512.64 
L 451.058824 512.64 
L 451.058824 69.12 
L 286.941176 69.12 
z
" style="fill: #ffffff"/>
   </g>
   <g id="matplotlib.axis_3">
    <g id="xtick_5">
     <g id="line2d_17">
      <g>
       <use xlink:href="#m5424a241b9" x="292.384882" y="512.64" style="stroke: #000000; stroke-width: 0.8"/>
      </g>
     </g>
     <g id="text_14">
      <!-- 0 -->
      <g transform="translate(289.203632 527.238438) scale(0.1 -0.1)">
       <use xlink:href="#DejaVuSans-30"/>
      </g>
     </g>
    </g>
    <g id="xtick_6">
     <g id="line2d_18">
      <g>
       <use xlink:href="#m5424a241b9" x="332.708628" y="512.64" style="stroke: #000000; stroke-width: 0.8"/>
      </g>
     </g>
     <g id="text_15">
      <!-- 20 -->
      <g transform="translate(326.346128 527.238438) scale(0.1 -0.1)">
       <use xlink:href="#DejaVuSans-32"/>
       <use xlink:href="#DejaVuSans-30" x="63.623047"/>
      </g>
     </g>
    </g>
    <g id="xtick_7">
     <g id="line2d_19">
      <g>
       <use xlink:href="#m5424a241b9" x="373.032375" y="512.64" style="stroke: #000000; stroke-width: 0.8"/>
      </g>
     </g>
     <g id="text_16">
      <!-- 40 -->
      <g transform="translate(366.669875 527.238438) scale(0.1 -0.1)">
       <use xlink:href="#DejaVuSans-34"/>
       <use xlink:href="#DejaVuSans-30" x="63.623047"/>
      </g>
     </g>
    </g>
    <g id="xtick_8">
     <g id="line2d_20">
      <g>
       <use xlink:href="#m5424a241b9" x="413.356121" y="512.64" style="stroke: #000000; stroke-width: 0.8"/>
      </g>
     </g>
     <g id="text_17">
      <!-- 60 -->
      <g transform="translate(406.993621 527.238438) scale(0.1 -0.1)">
       <use xlink:href="#DejaVuSans-36"/>
       <use xlink:href="#DejaVuSans-30" x="63.623047"/>
      </g>
     </g>
    </g>
   </g>
   <g id="matplotlib.axis_4">
    <g id="ytick_7">
     <g id="line2d_21">
      <g>
       <use xlink:href="#m72b73b141e" x="286.941176" y="492.48" style="stroke: #000000; stroke-width: 0.8"/>
      </g>
     </g>
     <g id="text_18">
      <!-- 0 -->
      <g transform="translate(273.578676 496.279219) scale(0.1 -0.1)">
       <use xlink:href="#DejaVuSans-30"/>
      </g>
     </g>
    </g>
    <g id="ytick_8">
     <g id="line2d_22">
      <g>
       <use xlink:href="#m72b73b141e" x="286.941176" y="438.576257" style="stroke: #000000; stroke-width: 0.8"/>
      </g>
     </g>
     <g id="text_19">
      <!-- 50 -->
      <g transform="translate(267.216176 442.375475) scale(0.1 -0.1)">
       <defs>
        <path id="DejaVuSans-35" d="M 691 4666 
L 3169 4666 
L 3169 4134 
L 1269 4134 
L 1269 2991 
Q 1406 3038 1543 3061 
Q 1681 3084 1819 3084 
Q 2600 3084 3056 2656 
Q 3513 2228 3513 1497 
Q 3513 744 3044 326 
Q 2575 -91 1722 -91 
Q 1428 -91 1123 -41 
Q 819 9 494 109 
L 494 744 
Q 775 591 1075 516 
Q 1375 441 1709 441 
Q 2250 441 2565 725 
Q 2881 1009 2881 1497 
Q 2881 1984 2565 2268 
Q 2250 2553 1709 2553 
Q 1456 2553 1204 2497 
Q 953 2441 691 2322 
L 691 4666 
z
" transform="scale(0.015625)"/>
       </defs>
       <use xlink:href="#DejaVuSans-35"/>
       <use xlink:href="#DejaVuSans-30" x="63.623047"/>
      </g>
     </g>
    </g>
    <g id="ytick_9">
     <g id="line2d_23">
      <g>
       <use xlink:href="#m72b73b141e" x="286.941176" y="384.672513" style="stroke: #000000; stroke-width: 0.8"/>
      </g>
     </g>
     <g id="text_20">
      <!-- 100 -->
      <g transform="translate(260.853676 388.471732) scale(0.1 -0.1)">
       <use xlink:href="#DejaVuSans-31"/>
       <use xlink:href="#DejaVuSans-30" x="63.623047"/>
       <use xlink:href="#DejaVuSans-30" x="127.246094"/>
      </g>
     </g>
    </g>
    <g id="ytick_10">
     <g id="line2d_24">
      <g>
       <use xlink:href="#m72b73b141e" x="286.941176" y="330.76877" style="stroke: #000000; stroke-width: 0.8"/>
      </g>
     </g>
     <g id="text_21">
      <!-- 150 -->
      <g transform="translate(260.853676 334.567989) scale(0.1 -0.1)">
       <use xlink:href="#DejaVuSans-31"/>
       <use xlink:href="#DejaVuSans-35" x="63.623047"/>
       <use xlink:href="#DejaVuSans-30" x="127.246094"/>
      </g>
     </g>
    </g>
    <g id="ytick_11">
     <g id="line2d_25">
      <g>
       <use xlink:href="#m72b73b141e" x="286.941176" y="276.865027" style="stroke: #000000; stroke-width: 0.8"/>
      </g>
     </g>
     <g id="text_22">
      <!-- 200 -->
      <g transform="translate(260.853676 280.664245) scale(0.1 -0.1)">
       <use xlink:href="#DejaVuSans-32"/>
       <use xlink:href="#DejaVuSans-30" x="63.623047"/>
       <use xlink:href="#DejaVuSans-30" x="127.246094"/>
      </g>
     </g>
    </g>
    <g id="ytick_12">
     <g id="line2d_26">
      <g>
       <use xlink:href="#m72b73b141e" x="286.941176" y="222.961283" style="stroke: #000000; stroke-width: 0.8"/>
      </g>
     </g>
     <g id="text_23">
      <!-- 250 -->
      <g transform="translate(260.853676 226.760502) scale(0.1 -0.1)">
       <use xlink:href="#DejaVuSans-32"/>
       <use xlink:href="#DejaVuSans-35" x="63.623047"/>
       <use xlink:href="#DejaVuSans-30" x="127.246094"/>
      </g>
     </g>
    </g>
    <g id="ytick_13">
     <g id="line2d_27">
      <g>
       <use xlink:href="#m72b73b141e" x="286.941176" y="169.05754" style="stroke: #000000; stroke-width: 0.8"/>
      </g>
     </g>
     <g id="text_24">
      <!-- 300 -->
      <g transform="translate(260.853676 172.856759) scale(0.1 -0.1)">
       <use xlink:href="#DejaVuSans-33"/>
       <use xlink:href="#DejaVuSans-30" x="63.623047"/>
       <use xlink:href="#DejaVuSans-30" x="127.246094"/>
      </g>
     </g>
    </g>
    <g id="ytick_14">
     <g id="line2d_28">
      <g>
       <use xlink:href="#m72b73b141e" x="286.941176" y="115.153797" style="stroke: #000000; stroke-width: 0.8"/>
      </g>
     </g>
     <g id="text_25">
      <!-- 350 -->
      <g transform="translate(260.853676 118.953016) scale(0.1 -0.1)">
       <use xlink:href="#DejaVuSans-33"/>
       <use xlink:href="#DejaVuSans-35" x="63.623047"/>
       <use xlink:href="#DejaVuSans-30" x="127.246094"/>
      </g>
     </g>
    </g>
   </g>
   <g id="line2d_29">
    <path d="M 294.40107 492.48 
L 296.417257 490.32385 
L 298.433444 490.32385 
L 300.449631 489.245775 
L 302.465819 486.011551 
L 304.482006 484.933476 
L 306.498193 483.855401 
L 308.514381 480.621176 
L 310.530568 477.386952 
L 312.546755 473.074652 
L 314.562943 471.996578 
L 316.57913 468.762353 
L 318.595317 465.528128 
L 320.611505 462.293904 
L 322.627692 457.981604 
L 324.643879 454.74738 
L 326.660066 452.59123 
L 328.676254 450.43508 
L 330.692441 446.122781 
L 332.708628 445.044706 
L 334.724816 442.888556 
L 336.741003 439.654332 
L 338.75719 435.342032 
L 340.773378 432.107807 
L 342.789565 429.951658 
L 344.805752 427.795508 
L 346.82194 424.561283 
L 348.838127 423.483209 
L 350.854314 420.248984 
L 352.870502 413.780535 
L 354.886689 410.54631 
L 356.902876 405.155936 
L 358.919063 405.155936 
L 360.935251 401.921711 
L 362.951438 397.609412 
L 364.967625 394.375187 
L 366.983813 390.062888 
L 369 385.750588 
L 371.016187 380.360214 
L 373.032375 372.81369 
L 375.048562 360.954866 
L 377.064749 354.486417 
L 379.080937 345.861818 
L 381.097124 337.237219 
L 383.113311 329.690695 
L 385.129498 322.144171 
L 387.145686 315.675722 
L 389.161873 305.973048 
L 391.17806 298.426524 
L 393.194248 293.03615 
L 395.210435 282.255401 
L 397.226622 274.708877 
L 399.24281 266.084278 
L 401.258997 260.693904 
L 403.275184 253.14738 
L 405.291372 243.444706 
L 407.307559 232.663957 
L 409.323746 221.883209 
L 411.339934 212.180535 
L 413.356121 205.712086 
L 415.372308 196.009412 
L 417.388495 188.462888 
L 419.404683 181.994439 
L 421.42087 175.525989 
L 423.437057 167.979465 
L 425.453245 159.354866 
L 427.469432 153.964492 
L 429.485619 146.417968 
L 431.501807 135.637219 
L 433.517994 127.01262 
L 435.534181 119.466096 
L 437.550369 112.997647 
L 439.566556 102.216898 
L 441.582743 95.748449 
L 443.59893 89.28 
" clip-path="url(#pe60b74c953)" style="fill: none; stroke: #0000ff; stroke-width: 1.5; stroke-linecap: square"/>
   </g>
   <g id="line2d_30">
    <path d="M 294.40107 492.48 
L 296.417257 490.32385 
L 298.433444 488.167701 
L 300.449631 482.777326 
L 302.465819 479.543102 
L 304.482006 475.230802 
L 306.498193 473.074652 
L 308.514381 467.684278 
L 310.530568 462.293904 
L 312.546755 454.74738 
L 314.562943 451.513155 
L 316.57913 443.966631 
L 318.595317 435.342032 
L 320.611505 427.795508 
L 322.627692 424.561283 
L 324.643879 415.936684 
L 326.660066 406.234011 
L 328.676254 396.531337 
L 330.692441 388.984813 
L 332.708628 379.282139 
L 334.724816 373.891765 
L 336.741003 368.50139 
L 338.75719 362.032941 
L 340.773378 355.564492 
L 342.789565 346.939893 
L 344.805752 338.315294 
L 346.82194 332.92492 
L 348.838127 325.378396 
L 350.854314 319.988021 
L 352.870502 315.675722 
L 354.886689 307.051123 
L 356.902876 301.660749 
L 358.919063 294.114225 
L 360.935251 287.645775 
L 362.951438 281.177326 
L 364.967625 275.786952 
L 366.983813 268.240428 
L 369 260.693904 
L 371.016187 254.225455 
L 373.032375 249.913155 
L 375.048562 247.757005 
L 377.064749 244.522781 
L 379.080937 241.288556 
L 381.097124 236.976257 
L 383.113311 232.663957 
L 385.129498 229.429733 
L 387.145686 226.195508 
L 389.161873 224.039358 
L 391.17806 219.727059 
L 393.194248 214.336684 
L 395.210435 212.180535 
L 397.226622 210.024385 
L 399.24281 207.868235 
L 401.258997 204.634011 
L 403.275184 201.399786 
L 405.291372 198.165561 
L 407.307559 196.009412 
L 409.323746 192.775187 
L 411.339934 189.540963 
L 413.356121 184.150588 
L 415.372308 181.994439 
L 417.388495 177.682139 
L 419.404683 173.36984 
L 421.42087 170.135615 
L 423.437057 165.823316 
L 425.453245 162.589091 
L 427.469432 158.276791 
L 429.485619 156.120642 
L 431.501807 153.964492 
L 433.517994 150.730267 
L 435.534181 147.496043 
L 437.550369 144.261818 
L 439.566556 144.261818 
L 441.582743 139.949519 
L 443.59893 135.637219 
" clip-path="url(#pe60b74c953)" style="fill: none; stroke: #ff0000; stroke-width: 1.5; stroke-linecap: square"/>
   </g>
   <g id="line2d_31">
    <path d="M 294.40107 492.48 
L 296.417257 489.245775 
L 298.433444 487.089626 
L 300.449631 487.089626 
L 302.465819 480.621176 
L 304.482006 475.230802 
L 306.498193 467.684278 
L 308.514381 462.293904 
L 310.530568 455.825455 
L 312.546755 451.513155 
L 314.562943 439.654332 
L 316.57913 433.185882 
L 318.595317 429.951658 
L 320.611505 423.483209 
L 322.627692 413.780535 
L 324.643879 408.39016 
L 326.660066 402.999786 
L 328.676254 397.609412 
L 330.692441 392.219037 
L 332.708628 385.750588 
L 334.724816 376.047914 
L 336.741003 367.423316 
L 338.75719 360.954866 
L 340.773378 353.408342 
L 342.789565 348.017968 
L 344.805752 342.627594 
L 346.82194 335.08107 
L 348.838127 327.534545 
L 350.854314 319.988021 
L 352.870502 314.597647 
L 354.886689 310.285348 
L 356.902876 304.894973 
L 358.919063 296.270374 
L 360.935251 289.801925 
L 362.951438 284.411551 
L 364.967625 276.865027 
L 366.983813 272.552727 
L 369 268.240428 
L 371.016187 263.928128 
L 373.032375 259.615829 
L 375.048562 257.459679 
L 377.064749 250.99123 
L 379.080937 246.67893 
L 381.097124 243.444706 
L 383.113311 239.132406 
L 385.129498 233.742032 
L 387.145686 227.273583 
L 389.161873 222.961283 
L 391.17806 218.648984 
L 393.194248 213.25861 
L 395.210435 210.024385 
L 397.226622 204.634011 
L 399.24281 200.321711 
L 401.258997 193.853262 
L 403.275184 189.540963 
L 405.291372 187.384813 
L 407.307559 185.228663 
L 409.323746 184.150588 
L 411.339934 181.994439 
L 413.356121 178.760214 
L 415.372308 175.525989 
L 417.388495 172.291765 
L 419.404683 167.979465 
L 421.42087 163.667166 
L 423.437057 161.511016 
L 425.453245 159.354866 
L 427.469432 155.042567 
L 429.485619 150.730267 
L 431.501807 149.652193 
L 433.517994 147.496043 
L 435.534181 144.261818 
L 437.550369 139.949519 
L 439.566556 137.793369 
L 441.582743 135.637219 
L 443.59893 133.48107 
" clip-path="url(#pe60b74c953)" style="fill: none; stroke: #008000; stroke-width: 1.5; stroke-linecap: square"/>
   </g>
   <g id="patch_9">
    <path d="M 286.941176 512.64 
L 286.941176 69.12 
" style="fill: none; stroke: #000000; stroke-width: 0.8; stroke-linejoin: miter; stroke-linecap: square"/>
   </g>
   <g id="patch_10">
    <path d="M 451.058824 512.64 
L 451.058824 69.12 
" style="fill: none; stroke: #000000; stroke-width: 0.8; stroke-linejoin: miter; stroke-linecap: square"/>
   </g>
   <g id="patch_11">
    <path d="M 286.941176 512.64 
L 451.058824 512.64 
" style="fill: none; stroke: #000000; stroke-width: 0.8; stroke-linejoin: miter; stroke-linecap: square"/>
   </g>
   <g id="patch_12">
    <path d="M 286.941176 69.12 
L 451.058824 69.12 
" style="fill: none; stroke: #000000; stroke-width: 0.8; stroke-linejoin: miter; stroke-linecap: square"/>
   </g>
   <g id="legend_2">
    <g id="patch_13">
     <path d="M 293.941176 121.154375 
L 393.863051 121.154375 
Q 395.863051 121.154375 395.863051 119.154375 
L 395.863051 76.12 
Q 395.863051 74.12 393.863051 74.12 
L 293.941176 74.12 
Q 291.941176 74.12 291.941176 76.12 
L 291.941176 119.154375 
Q 291.941176 121.154375 293.941176 121.154375 
z
" style="fill: #ffffff; opacity: 0.8; stroke: #cccccc; stroke-linejoin: miter"/>
    </g>
    <g id="line2d_32">
     <path d="M 295.941176 82.218438 
L 305.941176 82.218438 
L 315.941176 82.218438 
" style="fill: none; stroke: #0000ff; stroke-width: 1.5; stroke-linecap: square"/>
    </g>
    <g id="text_26">
     <!-- O1 requested -->
     <g transform="translate(323.941176 85.718438) scale(0.1 -0.1)">
      <defs>
       <path id="DejaVuSans-72" d="M 2631 2963 
Q 2534 3019 2420 3045 
Q 2306 3072 2169 3072 
Q 1681 3072 1420 2755 
Q 1159 2438 1159 1844 
L 1159 0 
L 581 0 
L 581 3500 
L 1159 3500 
L 1159 2956 
Q 1341 3275 1631 3429 
Q 1922 3584 2338 3584 
Q 2397 3584 2469 3576 
Q 2541 3569 2628 3553 
L 2631 2963 
z
" transform="scale(0.015625)"/>
       <path id="DejaVuSans-65" d="M 3597 1894 
L 3597 1613 
L 953 1613 
Q 991 1019 1311 708 
Q 1631 397 2203 397 
Q 2534 397 2845 478 
Q 3156 559 3463 722 
L 3463 178 
Q 3153 47 2828 -22 
Q 2503 -91 2169 -91 
Q 1331 -91 842 396 
Q 353 884 353 1716 
Q 353 2575 817 3079 
Q 1281 3584 2069 3584 
Q 2775 3584 3186 3129 
Q 3597 2675 3597 1894 
z
M 3022 2063 
Q 3016 2534 2758 2815 
Q 2500 3097 2075 3097 
Q 1594 3097 1305 2825 
Q 1016 2553 972 2059 
L 3022 2063 
z
" transform="scale(0.015625)"/>
       <path id="DejaVuSans-71" d="M 947 1747 
Q 947 1113 1208 752 
Q 1469 391 1925 391 
Q 2381 391 2643 752 
Q 2906 1113 2906 1747 
Q 2906 2381 2643 2742 
Q 2381 3103 1925 3103 
Q 1469 3103 1208 2742 
Q 947 2381 947 1747 
z
M 2906 525 
Q 2725 213 2448 61 
Q 2172 -91 1784 -91 
Q 1150 -91 751 415 
Q 353 922 353 1747 
Q 353 2572 751 3078 
Q 1150 3584 1784 3584 
Q 2172 3584 2448 3432 
Q 2725 3281 2906 2969 
L 2906 3500 
L 3481 3500 
L 3481 -1331 
L 2906 -1331 
L 2906 525 
z
" transform="scale(0.015625)"/>
       <path id="DejaVuSans-73" d="M 2834 3397 
L 2834 2853 
Q 2591 2978 2328 3040 
Q 2066 3103 1784 3103 
Q 1356 3103 1142 2972 
Q 928 2841 928 2578 
Q 928 2378 1081 2264 
Q 1234 2150 1697 2047 
L 1894 2003 
Q 2506 1872 2764 1633 
Q 3022 1394 3022 966 
Q 3022 478 2636 193 
Q 2250 -91 1575 -91 
Q 1294 -91 989 -36 
Q 684 19 347 128 
L 347 722 
Q 666 556 975 473 
Q 1284 391 1588 391 
Q 1994 391 2212 530 
Q 2431 669 2431 922 
Q 2431 1156 2273 1281 
Q 2116 1406 1581 1522 
L 1381 1569 
Q 847 1681 609 1914 
Q 372 2147 372 2553 
Q 372 3047 722 3315 
Q 1072 3584 1716 3584 
Q 2034 3584 2315 3537 
Q 2597 3491 2834 3397 
z
" transform="scale(0.015625)"/>
       <path id="DejaVuSans-64" d="M 2906 2969 
L 2906 4863 
L 3481 4863 
L 3481 0 
L 2906 0 
L 2906 525 
Q 2725 213 2448 61 
Q 2172 -91 1784 -91 
Q 1150 -91 751 415 
Q 353 922 353 1747 
Q 353 2572 751 3078 
Q 1150 3584 1784 3584 
Q 2172 3584 2448 3432 
Q 2725 3281 2906 2969 
z
M 947 1747 
Q 947 1113 1208 752 
Q 1469 391 1925 391 
Q 2381 391 2643 752 
Q 2906 1113 2906 1747 
Q 2906 2381 2643 2742 
Q 2381 3103 1925 3103 
Q 1469 3103 1208 2742 
Q 947 2381 947 1747 
z
" transform="scale(0.015625)"/>
      </defs>
      <use xlink:href="#DejaVuSans-4f"/>
      <use xlink:href="#DejaVuSans-31" x="78.710938"/>
      <use xlink:href="#DejaVuSans-20" x="142.333984"/>
      <use xlink:href="#DejaVuSans-72" x="174.121094"/>
      <use xlink:href="#DejaVuSans-65" x="212.984375"/>
      <use xlink:href="#DejaVuSans-71" x="274.507812"/>
      <use xlink:href="#DejaVuSans-75" x="337.984375"/>
      <use xlink:href="#DejaVuSans-65" x="401.363281"/>
      <use xlink:href="#DejaVuSans-73" x="462.886719"/>
      <use xlink:href="#DejaVuSans-74" x="514.986328"/>
      <use xlink:href="#DejaVuSans-65" x="554.195312"/>
      <use xlink:href="#DejaVuSans-64" x="615.71875"/>
     </g>
    </g>
    <g id="line2d_33">
     <path d="M 295.941176 96.896563 
L 305.941176 96.896563 
L 315.941176 96.896563 
" style="fill: none; stroke: #ff0000; stroke-width: 1.5; stroke-linecap: square"/>
    </g>
    <g id="text_27">
     <!-- O2 requested -->
     <g transform="translate(323.941176 100.396563) scale(0.1 -0.1)">
      <use xlink:href="#DejaVuSans-4f"/>
      <use xlink:href="#DejaVuSans-32" x="78.710938"/>
      <use xlink:href="#DejaVuSans-20" x="142.333984"/>
      <use xlink:href="#DejaVuSans-72" x="174.121094"/>
      <use xlink:href="#DejaVuSans-65" x="212.984375"/>
      <use xlink:href="#DejaVuSans-71" x="274.507812"/>
      <use xlink:href="#DejaVuSans-75" x="337.984375"/>
      <use xlink:href="#DejaVuSans-65" x="401.363281"/>
      <use xlink:href="#DejaVuSans-73" x="462.886719"/>
      <use xlink:href="#DejaVuSans-74" x="514.986328"/>
      <use xlink:href="#DejaVuSans-65" x="554.195312"/>
      <use xlink:href="#DejaVuSans-64" x="615.71875"/>
     </g>
    </g>
    <g id="line2d_34">
     <path d="M 295.941176 111.574688 
L 305.941176 111.574688 
L 315.941176 111.574688 
" style="fill: none; stroke: #008000; stroke-width: 1.5; stroke-linecap: square"/>
    </g>
    <g id="text_28">
     <!-- O3 requested -->
     <g transform="translate(323.941176 115.074688) scale(0.1 -0.1)">
      <use xlink:href="#DejaVuSans-4f"/>
      <use xlink:href="#DejaVuSans-33" x="78.710938"/>
      <use xlink:href="#DejaVuSans-20" x="142.333984"/>
      <use xlink:href="#DejaVuSans-72" x="174.121094"/>
      <use xlink:href="#DejaVuSans-65" x="212.984375"/>
      <use xlink:href="#DejaVuSans-71" x="274.507812"/>
      <use xlink:href="#DejaVuSans-75" x="337.984375"/>
      <use xlink:href="#DejaVuSans-65" x="401.363281"/>
      <use xlink:href="#DejaVuSans-73" x="462.886719"/>
      <use xlink:href="#DejaVuSans-74" x="514.986328"/>
      <use xlink:href="#DejaVuSans-65" x="554.195312"/>
      <use xlink:href="#DejaVuSans-64" x="615.71875"/>
     </g>
    </g>
   </g>
  </g>
  <g id="axes_3">
   <g id="patch_14">
    <path d="M 483.882353 512.64 
L 648 512.64 
L 648 69.12 
L 483.882353 69.12 
z
" style="fill: #ffffff"/>
   </g>
   <g id="matplotlib.axis_5">
    <g id="xtick_9">
     <g id="line2d_35">
      <g>
       <use xlink:href="#m5424a241b9" x="489.326059" y="512.64" style="stroke: #000000; stroke-width: 0.8"/>
      </g>
     </g>
     <g id="text_29">
      <!-- 0 -->
      <g transform="translate(486.144809 527.238438) scale(0.1 -0.1)">
       <use xlink:href="#DejaVuSans-30"/>
      </g>
     </g>
    </g>
    <g id="xtick_10">
     <g id="line2d_36">
      <g>
       <use xlink:href="#m5424a241b9" x="529.649805" y="512.64" style="stroke: #000000; stroke-width: 0.8"/>
      </g>
     </g>
     <g id="text_30">
      <!-- 20 -->
      <g transform="translate(523.287305 527.238438) scale(0.1 -0.1)">
       <use xlink:href="#DejaVuSans-32"/>
       <use xlink:href="#DejaVuSans-30" x="63.623047"/>
      </g>
     </g>
    </g>
    <g id="xtick_11">
     <g id="line2d_37">
      <g>
       <use xlink:href="#m5424a241b9" x="569.973551" y="512.64" style="stroke: #000000; stroke-width: 0.8"/>
      </g>
     </g>
     <g id="text_31">
      <!-- 40 -->
      <g transform="translate(563.611051 527.238438) scale(0.1 -0.1)">
       <use xlink:href="#DejaVuSans-34"/>
       <use xlink:href="#DejaVuSans-30" x="63.623047"/>
      </g>
     </g>
    </g>
    <g id="xtick_12">
     <g id="line2d_38">
      <g>
       <use xlink:href="#m5424a241b9" x="610.297297" y="512.64" style="stroke: #000000; stroke-width: 0.8"/>
      </g>
     </g>
     <g id="text_32">
      <!-- 60 -->
      <g transform="translate(603.934797 527.238438) scale(0.1 -0.1)">
       <use xlink:href="#DejaVuSans-36"/>
       <use xlink:href="#DejaVuSans-30" x="63.623047"/>
      </g>
     </g>
    </g>
   </g>
   <g id="matplotlib.axis_6">
    <g id="ytick_15">
     <g id="line2d_39">
      <g>
       <use xlink:href="#m72b73b141e" x="483.882353" y="492.48" style="stroke: #000000; stroke-width: 0.8"/>
      </g>
     </g>
     <g id="text_33">
      <!-- 0 -->
      <g transform="translate(470.519853 496.279219) scale(0.1 -0.1)">
       <use xlink:href="#DejaVuSans-30"/>
      </g>
     </g>
    </g>
    <g id="ytick_16">
     <g id="line2d_40">
      <g>
       <use xlink:href="#m72b73b141e" x="483.882353" y="434.045217" style="stroke: #000000; stroke-width: 0.8"/>
      </g>
     </g>
     <g id="text_34">
      <!-- 10 -->
      <g transform="translate(464.157353 437.844436) scale(0.1 -0.1)">
       <use xlink:href="#DejaVuSans-31"/>
       <use xlink:href="#DejaVuSans-30" x="63.623047"/>
      </g>
     </g>
    </g>
    <g id="ytick_17">
     <g id="line2d_41">
      <g>
       <use xlink:href="#m72b73b141e" x="483.882353" y="375.610435" style="stroke: #000000; stroke-width: 0.8"/>
      </g>
     </g>
     <g id="text_35">
      <!-- 20 -->
      <g transform="translate(464.157353 379.409654) scale(0.1 -0.1)">
       <use xlink:href="#DejaVuSans-32"/>
       <use xlink:href="#DejaVuSans-30" x="63.623047"/>
      </g>
     </g>
    </g>
    <g id="ytick_18">
     <g id="line2d_42">
      <g>
       <use xlink:href="#m72b73b141e" x="483.882353" y="317.175652" style="stroke: #000000; stroke-width: 0.8"/>
      </g>
     </g>
     <g id="text_36">
      <!-- 30 -->
      <g transform="translate(464.157353 320.974871) scale(0.1 -0.1)">
       <use xlink:href="#DejaVuSans-33"/>
       <use xlink:href="#DejaVuSans-30" x="63.623047"/>
      </g>
     </g>
    </g>
    <g id="ytick_19">
     <g id="line2d_43">
      <g>
       <use xlink:href="#m72b73b141e" x="483.882353" y="258.74087" style="stroke: #000000; stroke-width: 0.8"/>
      </g>
     </g>
     <g id="text_37">
      <!-- 40 -->
      <g transform="translate(464.157353 262.540088) scale(0.1 -0.1)">
       <use xlink:href="#DejaVuSans-34"/>
       <use xlink:href="#DejaVuSans-30" x="63.623047"/>
      </g>
     </g>
    </g>
    <g id="ytick_20">
     <g id="line2d_44">
      <g>
       <use xlink:href="#m72b73b141e" x="483.882353" y="200.306087" style="stroke: #000000; stroke-width: 0.8"/>
      </g>
     </g>
     <g id="text_38">
      <!-- 50 -->
      <g transform="translate(464.157353 204.105306) scale(0.1 -0.1)">
       <use xlink:href="#DejaVuSans-35"/>
       <use xlink:href="#DejaVuSans-30" x="63.623047"/>
      </g>
     </g>
    </g>
    <g id="ytick_21">
     <g id="line2d_45">
      <g>
       <use xlink:href="#m72b73b141e" x="483.882353" y="141.871304" style="stroke: #000000; stroke-width: 0.8"/>
      </g>
     </g>
     <g id="text_39">
      <!-- 60 -->
      <g transform="translate(464.157353 145.670523) scale(0.1 -0.1)">
       <use xlink:href="#DejaVuSans-36"/>
       <use xlink:href="#DejaVuSans-30" x="63.623047"/>
      </g>
     </g>
    </g>
    <g id="ytick_22">
     <g id="line2d_46">
      <g>
       <use xlink:href="#m72b73b141e" x="483.882353" y="83.436522" style="stroke: #000000; stroke-width: 0.8"/>
      </g>
     </g>
     <g id="text_40">
      <!-- 70 -->
      <g transform="translate(464.157353 87.23574) scale(0.1 -0.1)">
       <defs>
        <path id="DejaVuSans-37" d="M 525 4666 
L 3525 4666 
L 3525 4397 
L 1831 0 
L 1172 0 
L 2766 4134 
L 525 4134 
L 525 4666 
z
" transform="scale(0.015625)"/>
       </defs>
       <use xlink:href="#DejaVuSans-37"/>
       <use xlink:href="#DejaVuSans-30" x="63.623047"/>
      </g>
     </g>
    </g>
   </g>
   <g id="line2d_47">
    <path d="M 491.342246 492.48 
L 493.358433 486.636522 
L 495.374621 486.636522 
L 497.390808 486.636522 
L 499.406995 480.793043 
L 501.423183 480.793043 
L 503.43937 480.793043 
L 505.455557 480.793043 
L 507.471744 480.793043 
L 509.487932 480.793043 
L 511.504119 474.949565 
L 513.520306 469.106087 
L 515.536494 469.106087 
L 517.552681 463.262609 
L 519.568868 451.575652 
L 521.585056 451.575652 
L 523.601243 451.575652 
L 525.61743 451.575652 
L 527.633618 451.575652 
L 529.649805 451.575652 
L 531.665992 451.575652 
L 533.68218 451.575652 
L 535.698367 439.888696 
L 537.714554 434.045217 
L 539.730741 434.045217 
L 541.746929 434.045217 
L 543.763116 434.045217 
L 545.779303 434.045217 
L 547.795491 434.045217 
L 549.811678 434.045217 
L 551.827865 434.045217 
L 553.844053 428.201739 
L 555.86024 428.201739 
L 557.876427 422.358261 
L 559.892615 422.358261 
L 561.908802 410.671304 
L 563.924989 404.827826 
L 565.941176 404.827826 
L 567.957364 398.984348 
L 569.973551 375.610435 
L 571.989738 352.236522 
L 574.005926 328.862609 
L 576.022113 323.01913 
L 578.0383 323.01913 
L 580.054488 305.488696 
L 582.070675 305.488696 
L 584.086862 305.488696 
L 586.10305 299.645217 
L 588.119237 287.958261 
L 590.135424 282.114783 
L 592.151612 276.271304 
L 594.167799 252.897391 
L 596.183986 241.210435 
L 598.200173 229.523478 
L 600.216361 229.523478 
L 602.232548 217.836522 
L 604.248735 211.993043 
L 606.264923 206.149565 
L 608.28111 194.462609 
L 610.297297 182.775652 
L 612.313485 176.932174 
L 614.329672 176.932174 
L 616.345859 176.932174 
L 618.362047 165.245217 
L 620.378234 153.558261 
L 622.394421 141.871304 
L 624.410608 136.027826 
L 626.426796 136.027826 
L 628.442983 124.34087 
L 630.45917 124.34087 
L 632.475358 118.497391 
L 634.491545 118.497391 
L 636.507732 106.810435 
L 638.52392 95.123478 
L 640.540107 89.28 
" clip-path="url(#p42181c590a)" style="fill: none; stroke: #0000ff; stroke-width: 1.5; stroke-linecap: square"/>
   </g>
   <g id="line2d_48">
    <path d="M 491.342246 492.48 
L 493.358433 492.48 
L 495.374621 486.636522 
L 497.390808 486.636522 
L 499.406995 480.793043 
L 501.423183 480.793043 
L 503.43937 480.793043 
L 505.455557 480.793043 
L 507.471744 474.949565 
L 509.487932 474.949565 
L 511.504119 469.106087 
L 513.520306 457.41913 
L 515.536494 445.732174 
L 517.552681 439.888696 
L 519.568868 439.888696 
L 521.585056 439.888696 
L 523.601243 434.045217 
L 525.61743 428.201739 
L 527.633618 416.514783 
L 529.649805 387.297391 
L 531.665992 387.297391 
L 533.68218 381.453913 
L 535.698367 381.453913 
L 537.714554 381.453913 
L 539.730741 369.766957 
L 541.746929 363.923478 
L 543.763116 358.08 
L 545.779303 358.08 
L 547.795491 346.393043 
L 549.811678 346.393043 
L 551.827865 340.549565 
L 553.844053 334.706087 
L 555.86024 328.862609 
L 557.876427 323.01913 
L 559.892615 323.01913 
L 561.908802 323.01913 
L 563.924989 323.01913 
L 565.941176 323.01913 
L 567.957364 311.332174 
L 569.973551 305.488696 
L 571.989738 305.488696 
L 574.005926 305.488696 
L 576.022113 299.645217 
L 578.0383 287.958261 
L 580.054488 287.958261 
L 582.070675 287.958261 
L 584.086862 287.958261 
L 586.10305 287.958261 
L 588.119237 287.958261 
L 590.135424 270.427826 
L 592.151612 264.584348 
L 594.167799 264.584348 
L 596.183986 264.584348 
L 598.200173 264.584348 
L 600.216361 264.584348 
L 602.232548 264.584348 
L 604.248735 264.584348 
L 606.264923 252.897391 
L 608.28111 247.053913 
L 610.297297 241.210435 
L 612.313485 241.210435 
L 614.329672 229.523478 
L 616.345859 229.523478 
L 618.362047 223.68 
L 620.378234 223.68 
L 622.394421 223.68 
L 624.410608 217.836522 
L 626.426796 217.836522 
L 628.442983 217.836522 
L 630.45917 217.836522 
L 632.475358 211.993043 
L 634.491545 206.149565 
L 636.507732 206.149565 
L 638.52392 194.462609 
L 640.540107 194.462609 
" clip-path="url(#p42181c590a)" style="fill: none; stroke: #ff0000; stroke-width: 1.5; stroke-linecap: square"/>
   </g>
   <g id="line2d_49">
    <path d="M 491.342246 492.48 
L 493.358433 486.636522 
L 495.374621 486.636522 
L 497.390808 486.636522 
L 499.406995 474.949565 
L 501.423183 474.949565 
L 503.43937 474.949565 
L 505.455557 469.106087 
L 507.471744 469.106087 
L 509.487932 463.262609 
L 511.504119 463.262609 
L 513.520306 463.262609 
L 515.536494 463.262609 
L 517.552681 463.262609 
L 519.568868 463.262609 
L 521.585056 463.262609 
L 523.601243 463.262609 
L 525.61743 463.262609 
L 527.633618 463.262609 
L 529.649805 463.262609 
L 531.665992 463.262609 
L 533.68218 463.262609 
L 535.698367 463.262609 
L 537.714554 463.262609 
L 539.730741 463.262609 
L 541.746929 463.262609 
L 543.763116 463.262609 
L 545.779303 463.262609 
L 547.795491 463.262609 
L 549.811678 463.262609 
L 551.827865 463.262609 
L 553.844053 463.262609 
L 555.86024 463.262609 
L 557.876427 463.262609 
L 559.892615 463.262609 
L 561.908802 463.262609 
L 563.924989 463.262609 
L 565.941176 463.262609 
L 567.957364 463.262609 
L 569.973551 463.262609 
L 571.989738 463.262609 
L 574.005926 463.262609 
L 576.022113 463.262609 
L 578.0383 463.262609 
L 580.054488 463.262609 
L 582.070675 463.262609 
L 584.086862 463.262609 
L 586.10305 463.262609 
L 588.119237 463.262609 
L 590.135424 463.262609 
L 592.151612 463.262609 
L 594.167799 463.262609 
L 596.183986 463.262609 
L 598.200173 463.262609 
L 600.216361 463.262609 
L 602.232548 463.262609 
L 604.248735 463.262609 
L 606.264923 463.262609 
L 608.28111 463.262609 
L 610.297297 463.262609 
L 612.313485 463.262609 
L 614.329672 463.262609 
L 616.345859 463.262609 
L 618.362047 463.262609 
L 620.378234 463.262609 
L 622.394421 463.262609 
L 624.410608 463.262609 
L 626.426796 463.262609 
L 628.442983 463.262609 
L 630.45917 463.262609 
L 632.475358 463.262609 
L 634.491545 463.262609 
L 636.507732 463.262609 
L 638.52392 463.262609 
L 640.540107 463.262609 
" clip-path="url(#p42181c590a)" style="fill: none; stroke: #008000; stroke-width: 1.5; stroke-linecap: square"/>
   </g>
   <g id="patch_15">
    <path d="M 483.882353 512.64 
L 483.882353 69.12 
" style="fill: none; stroke: #000000; stroke-width: 0.8; stroke-linejoin: miter; stroke-linecap: square"/>
   </g>
   <g id="patch_16">
    <path d="M 648 512.64 
L 648 69.12 
" style="fill: none; stroke: #000000; stroke-width: 0.8; stroke-linejoin: miter; stroke-linecap: square"/>
   </g>
   <g id="patch_17">
    <path d="M 483.882353 512.64 
L 648 512.64 
" style="fill: none; stroke: #000000; stroke-width: 0.8; stroke-linejoin: miter; stroke-linecap: square"/>
   </g>
   <g id="patch_18">
    <path d="M 483.882353 69.12 
L 648 69.12 
" style="fill: none; stroke: #000000; stroke-width: 0.8; stroke-linejoin: miter; stroke-linecap: square"/>
   </g>
   <g id="legend_3">
    <g id="patch_19">
     <path d="M 490.882353 121.154375 
L 580.719853 121.154375 
Q 582.719853 121.154375 582.719853 119.154375 
L 582.719853 76.12 
Q 582.719853 74.12 580.719853 74.12 
L 490.882353 74.12 
Q 488.882353 74.12 488.882353 76.12 
L 488.882353 119.154375 
Q 488.882353 121.154375 490.882353 121.154375 
z
" style="fill: #ffffff; opacity: 0.8; stroke: #cccccc; stroke-linejoin: miter"/>
    </g>
    <g id="line2d_50">
     <path d="M 492.882353 82.218438 
L 502.882353 82.218438 
L 512.882353 82.218438 
" style="fill: none; stroke: #0000ff; stroke-width: 1.5; stroke-linecap: square"/>
    </g>
    <g id="text_41">
     <!-- O1 ensured -->
     <g transform="translate(520.882353 85.718438) scale(0.1 -0.1)">
      <defs>
       <path id="DejaVuSans-6e" d="M 3513 2113 
L 3513 0 
L 2938 0 
L 2938 2094 
Q 2938 2591 2744 2837 
Q 2550 3084 2163 3084 
Q 1697 3084 1428 2787 
Q 1159 2491 1159 1978 
L 1159 0 
L 581 0 
L 581 3500 
L 1159 3500 
L 1159 2956 
Q 1366 3272 1645 3428 
Q 1925 3584 2291 3584 
Q 2894 3584 3203 3211 
Q 3513 2838 3513 2113 
z
" transform="scale(0.015625)"/>
      </defs>
      <use xlink:href="#DejaVuSans-4f"/>
      <use xlink:href="#DejaVuSans-31" x="78.710938"/>
      <use xlink:href="#DejaVuSans-20" x="142.333984"/>
      <use xlink:href="#DejaVuSans-65" x="174.121094"/>
      <use xlink:href="#DejaVuSans-6e" x="235.644531"/>
      <use xlink:href="#DejaVuSans-73" x="299.023438"/>
      <use xlink:href="#DejaVuSans-75" x="351.123047"/>
      <use xlink:href="#DejaVuSans-72" x="414.501953"/>
      <use xlink:href="#DejaVuSans-65" x="453.365234"/>
      <use xlink:href="#DejaVuSans-64" x="514.888672"/>
     </g>
    </g>
    <g id="line2d_51">
     <path d="M 492.882353 96.896563 
L 502.882353 96.896563 
L 512.882353 96.896563 
" style="fill: none; stroke: #ff0000; stroke-width: 1.5; stroke-linecap: square"/>
    </g>
    <g id="text_42">
     <!-- O2 ensured -->
     <g transform="translate(520.882353 100.396563) scale(0.1 -0.1)">
      <use xlink:href="#DejaVuSans-4f"/>
      <use xlink:href="#DejaVuSans-32" x="78.710938"/>
      <use xlink:href="#DejaVuSans-20" x="142.333984"/>
      <use xlink:href="#DejaVuSans-65" x="174.121094"/>
      <use xlink:href="#DejaVuSans-6e" x="235.644531"/>
      <use xlink:href="#DejaVuSans-73" x="299.023438"/>
      <use xlink:href="#DejaVuSans-75" x="351.123047"/>
      <use xlink:href="#DejaVuSans-72" x="414.501953"/>
      <use xlink:href="#DejaVuSans-65" x="453.365234"/>
      <use xlink:href="#DejaVuSans-64" x="514.888672"/>
     </g>
    </g>
    <g id="line2d_52">
     <path d="M 492.882353 111.574688 
L 502.882353 111.574688 
L 512.882353 111.574688 
" style="fill: none; stroke: #008000; stroke-width: 1.5; stroke-linecap: square"/>
    </g>
    <g id="text_43">
     <!-- O3 ensured -->
     <g transform="translate(520.882353 115.074688) scale(0.1 -0.1)">
      <use xlink:href="#DejaVuSans-4f"/>
      <use xlink:href="#DejaVuSans-33" x="78.710938"/>
      <use xlink:href="#DejaVuSans-20" x="142.333984"/>
      <use xlink:href="#DejaVuSans-65" x="174.121094"/>
      <use xlink:href="#DejaVuSans-6e" x="235.644531"/>
      <use xlink:href="#DejaVuSans-73" x="299.023438"/>
      <use xlink:href="#DejaVuSans-75" x="351.123047"/>
      <use xlink:href="#DejaVuSans-72" x="414.501953"/>
      <use xlink:href="#DejaVuSans-65" x="453.365234"/>
      <use xlink:href="#DejaVuSans-64" x="514.888672"/>
     </g>
    </g>
   </g>
  </g>
 </g>
 <defs>
  <clipPath id="pb9be28d3ef">
   <rect x="90" y="69.12" width="164.117647" height="443.52"/>
  </clipPath>
  <clipPath id="pe60b74c953">
   <rect x="286.941176" y="69.12" width="164.117647" height="443.52"/>
  </clipPath>
  <clipPath id="p42181c590a">
   <rect x="483.882353" y="69.12" width="164.117647" height="443.52"/>
  </clipPath>
 </defs>
</svg>
