<?xml version="1.0" encoding="utf-8" standalone="no"?>
<!DOCTYPE svg PUBLIC "-//W3C//DTD SVG 1.1//EN"
  "http://www.w3.org/Graphics/SVG/1.1/DTD/svg11.dtd">
<svg xmlns:xlink="http://www.w3.org/1999/xlink" width="720pt" height="576pt" viewBox="0 0 720 576" xmlns="http://www.w3.org/2000/svg" version="1.1">
 <metadata>
  <rdf:RDF xmlns:dc="http://purl.org/dc/elements/1.1/" xmlns:cc="http://creativecommons.org/ns#" xmlns:rdf="http://www.w3.org/1999/02/22-rdf-syntax-ns#">
   <cc:Work>
    <dc:type rdf:resource="http://purl.org/dc/dcmitype/StillImage"/>
    <dc:date>2023-05-29T13:37:07.164423</dc:date>
    <dc:format>image/svg+xml</dc:format>
    <dc:creator>
     <cc:Agent>
      <dc:title>Matplotlib v3.7.1, https://matplotlib.org/</dc:title>
     </cc:Agent>
    </dc:creator>
   </cc:Work>
  </rdf:RDF>
 </metadata>
 <defs>
  <style type="text/css">*{stroke-linejoin: round; stroke-linecap: butt}</style>
 </defs>
 <g id="figure_1">
  <g id="patch_1">
   <path d="M 0 576 
L 720 576 
L 720 0 
L 0 0 
z
" style="fill: #ffffff"/>
  </g>
  <g id="axes_1">
   <g id="patch_2">
    <path d="M 90 512.64 
L 254.117647 512.64 
L 254.117647 69.12 
L 90 69.12 
z
" style="fill: #ffffff"/>
   </g>
   <g id="matplotlib.axis_1">
    <g id="xtick_1">
     <g id="line2d_1">
      <defs>
       <path id="m9f77023ccb" d="M 0 0 
L 0 3.5 
" style="stroke: #000000; stroke-width: 0.8"/>
      </defs>
      <g>
       <use xlink:href="#m9f77023ccb" x="95.571313" y="512.64" style="stroke: #000000; stroke-width: 0.8"/>
      </g>
     </g>
     <g id="text_1">
      <!-- 0 -->
      <g transform="translate(92.390063 527.238438) scale(0.1 -0.1)">
       <defs>
        <path id="DejaVuSans-30" d="M 2034 4250 
Q 1547 4250 1301 3770 
Q 1056 3291 1056 2328 
Q 1056 1369 1301 889 
Q 1547 409 2034 409 
Q 2525 409 2770 889 
Q 3016 1369 3016 2328 
Q 3016 3291 2770 3770 
Q 2525 4250 2034 4250 
z
M 2034 4750 
Q 2819 4750 3233 4129 
Q 3647 3509 3647 2328 
Q 3647 1150 3233 529 
Q 2819 -91 2034 -91 
Q 1250 -91 836 529 
Q 422 1150 422 2328 
Q 422 3509 836 4129 
Q 1250 4750 2034 4750 
z
" transform="scale(0.015625)"/>
       </defs>
       <use xlink:href="#DejaVuSans-30"/>
      </g>
     </g>
    </g>
    <g id="xtick_2">
     <g id="line2d_2">
      <g>
       <use xlink:href="#m9f77023ccb" x="133.342923" y="512.64" style="stroke: #000000; stroke-width: 0.8"/>
      </g>
     </g>
     <g id="text_2">
      <!-- 20 -->
      <g transform="translate(126.980423 527.238438) scale(0.1 -0.1)">
       <defs>
        <path id="DejaVuSans-32" d="M 1228 531 
L 3431 531 
L 3431 0 
L 469 0 
L 469 531 
Q 828 903 1448 1529 
Q 2069 2156 2228 2338 
Q 2531 2678 2651 2914 
Q 2772 3150 2772 3378 
Q 2772 3750 2511 3984 
Q 2250 4219 1831 4219 
Q 1534 4219 1204 4116 
Q 875 4013 500 3803 
L 500 4441 
Q 881 4594 1212 4672 
Q 1544 4750 1819 4750 
Q 2544 4750 2975 4387 
Q 3406 4025 3406 3419 
Q 3406 3131 3298 2873 
Q 3191 2616 2906 2266 
Q 2828 2175 2409 1742 
Q 1991 1309 1228 531 
z
" transform="scale(0.015625)"/>
       </defs>
       <use xlink:href="#DejaVuSans-32"/>
       <use xlink:href="#DejaVuSans-30" x="63.623047"/>
      </g>
     </g>
    </g>
    <g id="xtick_3">
     <g id="line2d_3">
      <g>
       <use xlink:href="#m9f77023ccb" x="171.114533" y="512.64" style="stroke: #000000; stroke-width: 0.8"/>
      </g>
     </g>
     <g id="text_3">
      <!-- 40 -->
      <g transform="translate(164.752033 527.238438) scale(0.1 -0.1)">
       <defs>
        <path id="DejaVuSans-34" d="M 2419 4116 
L 825 1625 
L 2419 1625 
L 2419 4116 
z
M 2253 4666 
L 3047 4666 
L 3047 1625 
L 3713 1625 
L 3713 1100 
L 3047 1100 
L 3047 0 
L 2419 0 
L 2419 1100 
L 313 1100 
L 313 1709 
L 2253 4666 
z
" transform="scale(0.015625)"/>
       </defs>
       <use xlink:href="#DejaVuSans-34"/>
       <use xlink:href="#DejaVuSans-30" x="63.623047"/>
      </g>
     </g>
    </g>
    <g id="xtick_4">
     <g id="line2d_4">
      <g>
       <use xlink:href="#m9f77023ccb" x="208.886144" y="512.64" style="stroke: #000000; stroke-width: 0.8"/>
      </g>
     </g>
     <g id="text_4">
      <!-- 60 -->
      <g transform="translate(202.523644 527.238438) scale(0.1 -0.1)">
       <defs>
        <path id="DejaVuSans-36" d="M 2113 2584 
Q 1688 2584 1439 2293 
Q 1191 2003 1191 1497 
Q 1191 994 1439 701 
Q 1688 409 2113 409 
Q 2538 409 2786 701 
Q 3034 994 3034 1497 
Q 3034 2003 2786 2293 
Q 2538 2584 2113 2584 
z
M 3366 4563 
L 3366 3988 
Q 3128 4100 2886 4159 
Q 2644 4219 2406 4219 
Q 1781 4219 1451 3797 
Q 1122 3375 1075 2522 
Q 1259 2794 1537 2939 
Q 1816 3084 2150 3084 
Q 2853 3084 3261 2657 
Q 3669 2231 3669 1497 
Q 3669 778 3244 343 
Q 2819 -91 2113 -91 
Q 1303 -91 875 529 
Q 447 1150 447 2328 
Q 447 3434 972 4092 
Q 1497 4750 2381 4750 
Q 2619 4750 2861 4703 
Q 3103 4656 3366 4563 
z
" transform="scale(0.015625)"/>
       </defs>
       <use xlink:href="#DejaVuSans-36"/>
       <use xlink:href="#DejaVuSans-30" x="63.623047"/>
      </g>
     </g>
    </g>
    <g id="xtick_5">
     <g id="line2d_5">
      <g>
       <use xlink:href="#m9f77023ccb" x="246.657754" y="512.64" style="stroke: #000000; stroke-width: 0.8"/>
      </g>
     </g>
     <g id="text_5">
      <!-- 80 -->
      <g transform="translate(240.295254 527.238438) scale(0.1 -0.1)">
       <defs>
        <path id="DejaVuSans-38" d="M 2034 2216 
Q 1584 2216 1326 1975 
Q 1069 1734 1069 1313 
Q 1069 891 1326 650 
Q 1584 409 2034 409 
Q 2484 409 2743 651 
Q 3003 894 3003 1313 
Q 3003 1734 2745 1975 
Q 2488 2216 2034 2216 
z
M 1403 2484 
Q 997 2584 770 2862 
Q 544 3141 544 3541 
Q 544 4100 942 4425 
Q 1341 4750 2034 4750 
Q 2731 4750 3128 4425 
Q 3525 4100 3525 3541 
Q 3525 3141 3298 2862 
Q 3072 2584 2669 2484 
Q 3125 2378 3379 2068 
Q 3634 1759 3634 1313 
Q 3634 634 3220 271 
Q 2806 -91 2034 -91 
Q 1263 -91 848 271 
Q 434 634 434 1313 
Q 434 1759 690 2068 
Q 947 2378 1403 2484 
z
M 1172 3481 
Q 1172 3119 1398 2916 
Q 1625 2713 2034 2713 
Q 2441 2713 2670 2916 
Q 2900 3119 2900 3481 
Q 2900 3844 2670 4047 
Q 2441 4250 2034 4250 
Q 1625 4250 1398 4047 
Q 1172 3844 1172 3481 
z
" transform="scale(0.015625)"/>
       </defs>
       <use xlink:href="#DejaVuSans-38"/>
       <use xlink:href="#DejaVuSans-30" x="63.623047"/>
      </g>
     </g>
    </g>
   </g>
   <g id="matplotlib.axis_2">
    <g id="ytick_1">
     <g id="line2d_6">
      <defs>
       <path id="m3384fdbbe4" d="M 0 0 
L -3.5 0 
" style="stroke: #000000; stroke-width: 0.8"/>
      </defs>
      <g>
       <use xlink:href="#m3384fdbbe4" x="90" y="492.48" style="stroke: #000000; stroke-width: 0.8"/>
      </g>
     </g>
     <g id="text_6">
      <!-- 0 -->
      <g transform="translate(76.6375 496.279219) scale(0.1 -0.1)">
       <use xlink:href="#DejaVuSans-30"/>
      </g>
     </g>
    </g>
    <g id="ytick_2">
     <g id="line2d_7">
      <g>
       <use xlink:href="#m3384fdbbe4" x="90" y="411.84" style="stroke: #000000; stroke-width: 0.8"/>
      </g>
     </g>
     <g id="text_7">
      <!-- 2 -->
      <g transform="translate(76.6375 415.639219) scale(0.1 -0.1)">
       <use xlink:href="#DejaVuSans-32"/>
      </g>
     </g>
    </g>
    <g id="ytick_3">
     <g id="line2d_8">
      <g>
       <use xlink:href="#m3384fdbbe4" x="90" y="331.2" style="stroke: #000000; stroke-width: 0.8"/>
      </g>
     </g>
     <g id="text_8">
      <!-- 4 -->
      <g transform="translate(76.6375 334.999219) scale(0.1 -0.1)">
       <use xlink:href="#DejaVuSans-34"/>
      </g>
     </g>
    </g>
    <g id="ytick_4">
     <g id="line2d_9">
      <g>
       <use xlink:href="#m3384fdbbe4" x="90" y="250.56" style="stroke: #000000; stroke-width: 0.8"/>
      </g>
     </g>
     <g id="text_9">
      <!-- 6 -->
      <g transform="translate(76.6375 254.359219) scale(0.1 -0.1)">
       <use xlink:href="#DejaVuSans-36"/>
      </g>
     </g>
    </g>
    <g id="ytick_5">
     <g id="line2d_10">
      <g>
       <use xlink:href="#m3384fdbbe4" x="90" y="169.92" style="stroke: #000000; stroke-width: 0.8"/>
      </g>
     </g>
     <g id="text_10">
      <!-- 8 -->
      <g transform="translate(76.6375 173.719219) scale(0.1 -0.1)">
       <use xlink:href="#DejaVuSans-38"/>
      </g>
     </g>
    </g>
    <g id="ytick_6">
     <g id="line2d_11">
      <g>
       <use xlink:href="#m3384fdbbe4" x="90" y="89.28" style="stroke: #000000; stroke-width: 0.8"/>
      </g>
     </g>
     <g id="text_11">
      <!-- 10 -->
      <g transform="translate(70.275 93.079219) scale(0.1 -0.1)">
       <defs>
        <path id="DejaVuSans-31" d="M 794 531 
L 1825 531 
L 1825 4091 
L 703 3866 
L 703 4441 
L 1819 4666 
L 2450 4666 
L 2450 531 
L 3481 531 
L 3481 0 
L 794 0 
L 794 531 
z
" transform="scale(0.015625)"/>
       </defs>
       <use xlink:href="#DejaVuSans-31"/>
       <use xlink:href="#DejaVuSans-30" x="63.623047"/>
      </g>
     </g>
    </g>
   </g>
   <g id="line2d_12">
    <path d="M 97.459893 492.48 
L 99.348474 89.28 
L 101.237054 89.28 
L 103.125635 492.48 
L 105.014215 492.48 
L 106.902796 492.48 
L 108.791376 492.48 
L 110.679957 492.48 
L 112.568537 492.48 
L 114.457118 492.48 
L 116.345698 89.28 
L 118.234279 89.28 
L 120.122859 492.48 
L 122.01144 89.28 
L 123.90002 89.28 
L 125.788601 492.48 
L 127.677181 492.48 
L 129.565762 492.48 
L 131.454342 492.48 
L 133.342923 492.48 
L 135.231503 492.48 
L 137.120084 492.48 
L 139.008664 89.28 
L 140.897245 492.48 
L 142.785825 492.48 
L 144.674406 492.48 
L 146.562987 492.48 
L 148.451567 492.48 
L 150.340148 492.48 
L 152.228728 492.48 
L 154.117309 492.48 
L 156.005889 492.48 
L 157.89447 492.48 
L 159.78305 492.48 
L 161.671631 492.48 
L 163.560211 89.28 
L 165.448792 492.48 
L 167.337372 492.48 
L 169.225953 89.28 
L 171.114533 492.48 
L 173.003114 89.28 
L 174.891694 89.28 
L 176.780275 492.48 
L 178.668855 492.48 
L 180.557436 492.48 
L 182.446016 492.48 
L 184.334597 492.48 
L 186.223177 492.48 
L 188.111758 492.48 
L 190.000338 492.48 
L 191.888919 492.48 
L 193.777499 89.28 
L 195.66608 492.48 
L 197.554661 492.48 
L 199.443241 492.48 
L 201.331822 492.48 
L 203.220402 492.48 
L 205.108983 89.28 
L 206.997563 492.48 
L 208.886144 492.48 
L 210.774724 89.28 
L 212.663305 492.48 
L 214.551885 492.48 
L 216.440466 89.28 
L 218.329046 492.48 
L 220.217627 492.48 
L 222.106207 492.48 
L 223.994788 492.48 
L 225.883368 492.48 
L 227.771949 492.48 
L 229.660529 492.48 
L 231.54911 492.48 
L 233.43769 492.48 
L 235.326271 492.48 
L 237.214851 492.48 
L 239.103432 89.28 
L 240.992012 492.48 
L 242.880593 492.48 
L 244.769173 492.48 
L 246.657754 492.48 
" clip-path="url(#pd1401e9c0e)" style="fill: none; stroke: #0000ff; stroke-width: 1.5; stroke-linecap: square"/>
   </g>
   <g id="line2d_13">
    <path d="M 97.459893 492.48 
L 99.348474 492.48 
L 101.237054 492.48 
L 103.125635 492.48 
L 105.014215 492.48 
L 106.902796 492.48 
L 108.791376 492.48 
L 110.679957 492.48 
L 112.568537 89.28 
L 114.457118 492.48 
L 116.345698 492.48 
L 118.234279 492.48 
L 120.122859 492.48 
L 122.01144 89.28 
L 123.90002 492.48 
L 125.788601 492.48 
L 127.677181 89.28 
L 129.565762 89.28 
L 131.454342 492.48 
L 133.342923 492.48 
L 135.231503 492.48 
L 137.120084 492.48 
L 139.008664 492.48 
L 140.897245 492.48 
L 142.785825 89.28 
L 144.674406 492.48 
L 146.562987 492.48 
L 148.451567 492.48 
L 150.340148 89.28 
L 152.228728 492.48 
L 154.117309 492.48 
L 156.005889 492.48 
L 157.89447 492.48 
L 159.78305 89.28 
L 161.671631 492.48 
L 163.560211 492.48 
L 165.448792 492.48 
L 167.337372 492.48 
L 169.225953 492.48 
L 171.114533 492.48 
L 173.003114 492.48 
L 174.891694 492.48 
L 176.780275 492.48 
L 178.668855 89.28 
L 180.557436 492.48 
L 182.446016 492.48 
L 184.334597 492.48 
L 186.223177 492.48 
L 188.111758 492.48 
L 190.000338 89.28 
L 191.888919 492.48 
L 193.777499 492.48 
L 195.66608 492.48 
L 197.554661 492.48 
L 199.443241 492.48 
L 201.331822 492.48 
L 203.220402 492.48 
L 205.108983 89.28 
L 206.997563 89.28 
L 208.886144 492.48 
L 210.774724 492.48 
L 212.663305 492.48 
L 214.551885 492.48 
L 216.440466 492.48 
L 218.329046 492.48 
L 220.217627 492.48 
L 222.106207 89.28 
L 223.994788 492.48 
L 225.883368 492.48 
L 227.771949 492.48 
L 229.660529 492.48 
L 231.54911 492.48 
L 233.43769 492.48 
L 235.326271 492.48 
L 237.214851 492.48 
L 239.103432 492.48 
L 240.992012 492.48 
L 242.880593 492.48 
L 244.769173 492.48 
L 246.657754 492.48 
" clip-path="url(#pd1401e9c0e)" style="fill: none; stroke: #ff0000; stroke-width: 1.5; stroke-linecap: square"/>
   </g>
   <g id="line2d_14">
    <path d="M 97.459893 492.48 
L 99.348474 89.28 
L 101.237054 492.48 
L 103.125635 492.48 
L 105.014215 492.48 
L 106.902796 492.48 
L 108.791376 492.48 
L 110.679957 89.28 
L 112.568537 492.48 
L 114.457118 492.48 
L 116.345698 492.48 
L 118.234279 492.48 
L 120.122859 492.48 
L 122.01144 492.48 
L 123.90002 492.48 
L 125.788601 492.48 
L 127.677181 492.48 
L 129.565762 492.48 
L 131.454342 492.48 
L 133.342923 492.48 
L 135.231503 492.48 
L 137.120084 492.48 
L 139.008664 492.48 
L 140.897245 492.48 
L 142.785825 492.48 
L 144.674406 492.48 
L 146.562987 492.48 
L 148.451567 492.48 
L 150.340148 492.48 
L 152.228728 492.48 
L 154.117309 492.48 
L 156.005889 492.48 
L 157.89447 492.48 
L 159.78305 492.48 
L 161.671631 492.48 
L 163.560211 492.48 
L 165.448792 492.48 
L 167.337372 492.48 
L 169.225953 492.48 
L 171.114533 492.48 
L 173.003114 492.48 
L 174.891694 492.48 
L 176.780275 492.48 
L 178.668855 492.48 
L 180.557436 492.48 
L 182.446016 492.48 
L 184.334597 492.48 
L 186.223177 492.48 
L 188.111758 492.48 
L 190.000338 492.48 
L 191.888919 492.48 
L 193.777499 492.48 
L 195.66608 492.48 
L 197.554661 492.48 
L 199.443241 492.48 
L 201.331822 492.48 
L 203.220402 492.48 
L 205.108983 492.48 
L 206.997563 492.48 
L 208.886144 492.48 
L 210.774724 492.48 
L 212.663305 492.48 
L 214.551885 492.48 
L 216.440466 492.48 
L 218.329046 492.48 
L 220.217627 492.48 
L 222.106207 492.48 
L 223.994788 492.48 
L 225.883368 492.48 
L 227.771949 492.48 
L 229.660529 492.48 
L 231.54911 492.48 
L 233.43769 492.48 
L 235.326271 492.48 
L 237.214851 492.48 
L 239.103432 492.48 
L 240.992012 492.48 
L 242.880593 492.48 
L 244.769173 492.48 
L 246.657754 492.48 
" clip-path="url(#pd1401e9c0e)" style="fill: none; stroke: #008000; stroke-width: 1.5; stroke-linecap: square"/>
   </g>
   <g id="patch_3">
    <path d="M 90 512.64 
L 90 69.12 
" style="fill: none; stroke: #000000; stroke-width: 0.8; stroke-linejoin: miter; stroke-linecap: square"/>
   </g>
   <g id="patch_4">
    <path d="M 254.117647 512.64 
L 254.117647 69.12 
" style="fill: none; stroke: #000000; stroke-width: 0.8; stroke-linejoin: miter; stroke-linecap: square"/>
   </g>
   <g id="patch_5">
    <path d="M 90 512.64 
L 254.117647 512.64 
" style="fill: none; stroke: #000000; stroke-width: 0.8; stroke-linejoin: miter; stroke-linecap: square"/>
   </g>
   <g id="patch_6">
    <path d="M 90 69.12 
L 254.117647 69.12 
" style="fill: none; stroke: #000000; stroke-width: 0.8; stroke-linejoin: miter; stroke-linecap: square"/>
   </g>
   <g id="legend_1">
    <g id="patch_7">
     <path d="M 169.273897 314.397188 
L 247.117647 314.397188 
Q 249.117647 314.397188 249.117647 312.397188 
L 249.117647 269.362813 
Q 249.117647 267.362813 247.117647 267.362813 
L 169.273897 267.362813 
Q 167.273897 267.362813 167.273897 269.362813 
L 167.273897 312.397188 
Q 167.273897 314.397188 169.273897 314.397188 
z
" style="fill: #ffffff; opacity: 0.8; stroke: #cccccc; stroke-linejoin: miter"/>
    </g>
    <g id="line2d_15">
     <path d="M 171.273897 275.46125 
L 181.273897 275.46125 
L 191.273897 275.46125 
" style="fill: none; stroke: #0000ff; stroke-width: 1.5; stroke-linecap: square"/>
    </g>
    <g id="text_12">
     <!-- O1 utility -->
     <g transform="translate(199.273897 278.96125) scale(0.1 -0.1)">
      <defs>
       <path id="DejaVuSans-4f" d="M 2522 4238 
Q 1834 4238 1429 3725 
Q 1025 3213 1025 2328 
Q 1025 1447 1429 934 
Q 1834 422 2522 422 
Q 3209 422 3611 934 
Q 4013 1447 4013 2328 
Q 4013 3213 3611 3725 
Q 3209 4238 2522 4238 
z
M 2522 4750 
Q 3503 4750 4090 4092 
Q 4678 3434 4678 2328 
Q 4678 1225 4090 567 
Q 3503 -91 2522 -91 
Q 1538 -91 948 565 
Q 359 1222 359 2328 
Q 359 3434 948 4092 
Q 1538 4750 2522 4750 
z
" transform="scale(0.015625)"/>
       <path id="DejaVuSans-20" transform="scale(0.015625)"/>
       <path id="DejaVuSans-75" d="M 544 1381 
L 544 3500 
L 1119 3500 
L 1119 1403 
Q 1119 906 1312 657 
Q 1506 409 1894 409 
Q 2359 409 2629 706 
Q 2900 1003 2900 1516 
L 2900 3500 
L 3475 3500 
L 3475 0 
L 2900 0 
L 2900 538 
Q 2691 219 2414 64 
Q 2138 -91 1772 -91 
Q 1169 -91 856 284 
Q 544 659 544 1381 
z
M 1991 3584 
L 1991 3584 
z
" transform="scale(0.015625)"/>
       <path id="DejaVuSans-74" d="M 1172 4494 
L 1172 3500 
L 2356 3500 
L 2356 3053 
L 1172 3053 
L 1172 1153 
Q 1172 725 1289 603 
Q 1406 481 1766 481 
L 2356 481 
L 2356 0 
L 1766 0 
Q 1100 0 847 248 
Q 594 497 594 1153 
L 594 3053 
L 172 3053 
L 172 3500 
L 594 3500 
L 594 4494 
L 1172 4494 
z
" transform="scale(0.015625)"/>
       <path id="DejaVuSans-69" d="M 603 3500 
L 1178 3500 
L 1178 0 
L 603 0 
L 603 3500 
z
M 603 4863 
L 1178 4863 
L 1178 4134 
L 603 4134 
L 603 4863 
z
" transform="scale(0.015625)"/>
       <path id="DejaVuSans-6c" d="M 603 4863 
L 1178 4863 
L 1178 0 
L 603 0 
L 603 4863 
z
" transform="scale(0.015625)"/>
       <path id="DejaVuSans-79" d="M 2059 -325 
Q 1816 -950 1584 -1140 
Q 1353 -1331 966 -1331 
L 506 -1331 
L 506 -850 
L 844 -850 
Q 1081 -850 1212 -737 
Q 1344 -625 1503 -206 
L 1606 56 
L 191 3500 
L 800 3500 
L 1894 763 
L 2988 3500 
L 3597 3500 
L 2059 -325 
z
" transform="scale(0.015625)"/>
      </defs>
      <use xlink:href="#DejaVuSans-4f"/>
      <use xlink:href="#DejaVuSans-31" x="78.710938"/>
      <use xlink:href="#DejaVuSans-20" x="142.333984"/>
      <use xlink:href="#DejaVuSans-75" x="174.121094"/>
      <use xlink:href="#DejaVuSans-74" x="237.5"/>
      <use xlink:href="#DejaVuSans-69" x="276.708984"/>
      <use xlink:href="#DejaVuSans-6c" x="304.492188"/>
      <use xlink:href="#DejaVuSans-69" x="332.275391"/>
      <use xlink:href="#DejaVuSans-74" x="360.058594"/>
      <use xlink:href="#DejaVuSans-79" x="399.267578"/>
     </g>
    </g>
    <g id="line2d_16">
     <path d="M 171.273897 290.139375 
L 181.273897 290.139375 
L 191.273897 290.139375 
" style="fill: none; stroke: #ff0000; stroke-width: 1.5; stroke-linecap: square"/>
    </g>
    <g id="text_13">
     <!-- O2 utility -->
     <g transform="translate(199.273897 293.639375) scale(0.1 -0.1)">
      <use xlink:href="#DejaVuSans-4f"/>
      <use xlink:href="#DejaVuSans-32" x="78.710938"/>
      <use xlink:href="#DejaVuSans-20" x="142.333984"/>
      <use xlink:href="#DejaVuSans-75" x="174.121094"/>
      <use xlink:href="#DejaVuSans-74" x="237.5"/>
      <use xlink:href="#DejaVuSans-69" x="276.708984"/>
      <use xlink:href="#DejaVuSans-6c" x="304.492188"/>
      <use xlink:href="#DejaVuSans-69" x="332.275391"/>
      <use xlink:href="#DejaVuSans-74" x="360.058594"/>
      <use xlink:href="#DejaVuSans-79" x="399.267578"/>
     </g>
    </g>
    <g id="line2d_17">
     <path d="M 171.273897 304.8175 
L 181.273897 304.8175 
L 191.273897 304.8175 
" style="fill: none; stroke: #008000; stroke-width: 1.5; stroke-linecap: square"/>
    </g>
    <g id="text_14">
     <!-- O3 utility -->
     <g transform="translate(199.273897 308.3175) scale(0.1 -0.1)">
      <defs>
       <path id="DejaVuSans-33" d="M 2597 2516 
Q 3050 2419 3304 2112 
Q 3559 1806 3559 1356 
Q 3559 666 3084 287 
Q 2609 -91 1734 -91 
Q 1441 -91 1130 -33 
Q 819 25 488 141 
L 488 750 
Q 750 597 1062 519 
Q 1375 441 1716 441 
Q 2309 441 2620 675 
Q 2931 909 2931 1356 
Q 2931 1769 2642 2001 
Q 2353 2234 1838 2234 
L 1294 2234 
L 1294 2753 
L 1863 2753 
Q 2328 2753 2575 2939 
Q 2822 3125 2822 3475 
Q 2822 3834 2567 4026 
Q 2313 4219 1838 4219 
Q 1578 4219 1281 4162 
Q 984 4106 628 3988 
L 628 4550 
Q 988 4650 1302 4700 
Q 1616 4750 1894 4750 
Q 2613 4750 3031 4423 
Q 3450 4097 3450 3541 
Q 3450 3153 3228 2886 
Q 3006 2619 2597 2516 
z
" transform="scale(0.015625)"/>
      </defs>
      <use xlink:href="#DejaVuSans-4f"/>
      <use xlink:href="#DejaVuSans-33" x="78.710938"/>
      <use xlink:href="#DejaVuSans-20" x="142.333984"/>
      <use xlink:href="#DejaVuSans-75" x="174.121094"/>
      <use xlink:href="#DejaVuSans-74" x="237.5"/>
      <use xlink:href="#DejaVuSans-69" x="276.708984"/>
      <use xlink:href="#DejaVuSans-6c" x="304.492188"/>
      <use xlink:href="#DejaVuSans-69" x="332.275391"/>
      <use xlink:href="#DejaVuSans-74" x="360.058594"/>
      <use xlink:href="#DejaVuSans-79" x="399.267578"/>
     </g>
    </g>
   </g>
  </g>
  <g id="axes_2">
   <g id="patch_8">
    <path d="M 286.941176 512.64 
L 451.058824 512.64 
L 451.058824 69.12 
L 286.941176 69.12 
z
" style="fill: #ffffff"/>
   </g>
   <g id="matplotlib.axis_3">
    <g id="xtick_6">
     <g id="line2d_18">
      <g>
       <use xlink:href="#m9f77023ccb" x="292.512489" y="512.64" style="stroke: #000000; stroke-width: 0.8"/>
      </g>
     </g>
     <g id="text_15">
      <!-- 0 -->
      <g transform="translate(289.331239 527.238438) scale(0.1 -0.1)">
       <use xlink:href="#DejaVuSans-30"/>
      </g>
     </g>
    </g>
    <g id="xtick_7">
     <g id="line2d_19">
      <g>
       <use xlink:href="#m9f77023ccb" x="330.284099" y="512.64" style="stroke: #000000; stroke-width: 0.8"/>
      </g>
     </g>
     <g id="text_16">
      <!-- 20 -->
      <g transform="translate(323.921599 527.238438) scale(0.1 -0.1)">
       <use xlink:href="#DejaVuSans-32"/>
       <use xlink:href="#DejaVuSans-30" x="63.623047"/>
      </g>
     </g>
    </g>
    <g id="xtick_8">
     <g id="line2d_20">
      <g>
       <use xlink:href="#m9f77023ccb" x="368.05571" y="512.64" style="stroke: #000000; stroke-width: 0.8"/>
      </g>
     </g>
     <g id="text_17">
      <!-- 40 -->
      <g transform="translate(361.69321 527.238438) scale(0.1 -0.1)">
       <use xlink:href="#DejaVuSans-34"/>
       <use xlink:href="#DejaVuSans-30" x="63.623047"/>
      </g>
     </g>
    </g>
    <g id="xtick_9">
     <g id="line2d_21">
      <g>
       <use xlink:href="#m9f77023ccb" x="405.82732" y="512.64" style="stroke: #000000; stroke-width: 0.8"/>
      </g>
     </g>
     <g id="text_18">
      <!-- 60 -->
      <g transform="translate(399.46482 527.238438) scale(0.1 -0.1)">
       <use xlink:href="#DejaVuSans-36"/>
       <use xlink:href="#DejaVuSans-30" x="63.623047"/>
      </g>
     </g>
    </g>
    <g id="xtick_10">
     <g id="line2d_22">
      <g>
       <use xlink:href="#m9f77023ccb" x="443.59893" y="512.64" style="stroke: #000000; stroke-width: 0.8"/>
      </g>
     </g>
     <g id="text_19">
      <!-- 80 -->
      <g transform="translate(437.23643 527.238438) scale(0.1 -0.1)">
       <use xlink:href="#DejaVuSans-38"/>
       <use xlink:href="#DejaVuSans-30" x="63.623047"/>
      </g>
     </g>
    </g>
   </g>
   <g id="matplotlib.axis_4">
    <g id="ytick_7">
     <g id="line2d_23">
      <g>
       <use xlink:href="#m3384fdbbe4" x="286.941176" y="492.48" style="stroke: #000000; stroke-width: 0.8"/>
      </g>
     </g>
     <g id="text_20">
      <!-- 0 -->
      <g transform="translate(273.578676 496.279219) scale(0.1 -0.1)">
       <use xlink:href="#DejaVuSans-30"/>
      </g>
     </g>
    </g>
    <g id="ytick_8">
     <g id="line2d_24">
      <g>
       <use xlink:href="#m3384fdbbe4" x="286.941176" y="442.08" style="stroke: #000000; stroke-width: 0.8"/>
      </g>
     </g>
     <g id="text_21">
      <!-- 50 -->
      <g transform="translate(267.216176 445.879219) scale(0.1 -0.1)">
       <defs>
        <path id="DejaVuSans-35" d="M 691 4666 
L 3169 4666 
L 3169 4134 
L 1269 4134 
L 1269 2991 
Q 1406 3038 1543 3061 
Q 1681 3084 1819 3084 
Q 2600 3084 3056 2656 
Q 3513 2228 3513 1497 
Q 3513 744 3044 326 
Q 2575 -91 1722 -91 
Q 1428 -91 1123 -41 
Q 819 9 494 109 
L 494 744 
Q 775 591 1075 516 
Q 1375 441 1709 441 
Q 2250 441 2565 725 
Q 2881 1009 2881 1497 
Q 2881 1984 2565 2268 
Q 2250 2553 1709 2553 
Q 1456 2553 1204 2497 
Q 953 2441 691 2322 
L 691 4666 
z
" transform="scale(0.015625)"/>
       </defs>
       <use xlink:href="#DejaVuSans-35"/>
       <use xlink:href="#DejaVuSans-30" x="63.623047"/>
      </g>
     </g>
    </g>
    <g id="ytick_9">
     <g id="line2d_25">
      <g>
       <use xlink:href="#m3384fdbbe4" x="286.941176" y="391.68" style="stroke: #000000; stroke-width: 0.8"/>
      </g>
     </g>
     <g id="text_22">
      <!-- 100 -->
      <g transform="translate(260.853676 395.479219) scale(0.1 -0.1)">
       <use xlink:href="#DejaVuSans-31"/>
       <use xlink:href="#DejaVuSans-30" x="63.623047"/>
       <use xlink:href="#DejaVuSans-30" x="127.246094"/>
      </g>
     </g>
    </g>
    <g id="ytick_10">
     <g id="line2d_26">
      <g>
       <use xlink:href="#m3384fdbbe4" x="286.941176" y="341.28" style="stroke: #000000; stroke-width: 0.8"/>
      </g>
     </g>
     <g id="text_23">
      <!-- 150 -->
      <g transform="translate(260.853676 345.079219) scale(0.1 -0.1)">
       <use xlink:href="#DejaVuSans-31"/>
       <use xlink:href="#DejaVuSans-35" x="63.623047"/>
       <use xlink:href="#DejaVuSans-30" x="127.246094"/>
      </g>
     </g>
    </g>
    <g id="ytick_11">
     <g id="line2d_27">
      <g>
       <use xlink:href="#m3384fdbbe4" x="286.941176" y="290.88" style="stroke: #000000; stroke-width: 0.8"/>
      </g>
     </g>
     <g id="text_24">
      <!-- 200 -->
      <g transform="translate(260.853676 294.679219) scale(0.1 -0.1)">
       <use xlink:href="#DejaVuSans-32"/>
       <use xlink:href="#DejaVuSans-30" x="63.623047"/>
       <use xlink:href="#DejaVuSans-30" x="127.246094"/>
      </g>
     </g>
    </g>
    <g id="ytick_12">
     <g id="line2d_28">
      <g>
       <use xlink:href="#m3384fdbbe4" x="286.941176" y="240.48" style="stroke: #000000; stroke-width: 0.8"/>
      </g>
     </g>
     <g id="text_25">
      <!-- 250 -->
      <g transform="translate(260.853676 244.279219) scale(0.1 -0.1)">
       <use xlink:href="#DejaVuSans-32"/>
       <use xlink:href="#DejaVuSans-35" x="63.623047"/>
       <use xlink:href="#DejaVuSans-30" x="127.246094"/>
      </g>
     </g>
    </g>
    <g id="ytick_13">
     <g id="line2d_29">
      <g>
       <use xlink:href="#m3384fdbbe4" x="286.941176" y="190.08" style="stroke: #000000; stroke-width: 0.8"/>
      </g>
     </g>
     <g id="text_26">
      <!-- 300 -->
      <g transform="translate(260.853676 193.879219) scale(0.1 -0.1)">
       <use xlink:href="#DejaVuSans-33"/>
       <use xlink:href="#DejaVuSans-30" x="63.623047"/>
       <use xlink:href="#DejaVuSans-30" x="127.246094"/>
      </g>
     </g>
    </g>
    <g id="ytick_14">
     <g id="line2d_30">
      <g>
       <use xlink:href="#m3384fdbbe4" x="286.941176" y="139.68" style="stroke: #000000; stroke-width: 0.8"/>
      </g>
     </g>
     <g id="text_27">
      <!-- 350 -->
      <g transform="translate(260.853676 143.479219) scale(0.1 -0.1)">
       <use xlink:href="#DejaVuSans-33"/>
       <use xlink:href="#DejaVuSans-35" x="63.623047"/>
       <use xlink:href="#DejaVuSans-30" x="127.246094"/>
      </g>
     </g>
    </g>
    <g id="ytick_15">
     <g id="line2d_31">
      <g>
       <use xlink:href="#m3384fdbbe4" x="286.941176" y="89.28" style="stroke: #000000; stroke-width: 0.8"/>
      </g>
     </g>
     <g id="text_28">
      <!-- 400 -->
      <g transform="translate(260.853676 93.079219) scale(0.1 -0.1)">
       <use xlink:href="#DejaVuSans-34"/>
       <use xlink:href="#DejaVuSans-30" x="63.623047"/>
       <use xlink:href="#DejaVuSans-30" x="127.246094"/>
      </g>
     </g>
    </g>
   </g>
   <g id="line2d_32">
    <path d="M 294.40107 492.48 
L 296.28965 490.464 
L 298.178231 490.464 
L 300.066811 489.456 
L 301.955392 486.432 
L 303.843972 485.424 
L 305.732553 484.416 
L 307.621133 481.392 
L 309.509714 478.368 
L 311.398294 474.336 
L 313.286875 473.328 
L 315.175455 470.304 
L 317.064036 467.28 
L 318.952616 464.256 
L 320.841197 460.224 
L 322.729777 457.2 
L 324.618358 455.184 
L 326.506938 453.168 
L 328.395519 449.136 
L 330.284099 448.128 
L 332.17268 446.112 
L 334.06126 443.088 
L 335.949841 439.056 
L 337.838421 436.032 
L 339.727002 434.016 
L 341.615582 432 
L 343.504163 428.976 
L 345.392744 427.968 
L 347.281324 424.944 
L 349.169905 418.896 
L 351.058485 415.872 
L 352.947066 410.832 
L 354.835646 410.832 
L 356.724227 407.808 
L 358.612807 403.776 
L 360.501388 400.752 
L 362.389968 396.72 
L 364.278549 392.688 
L 366.167129 387.648 
L 368.05571 380.592 
L 369.94429 369.504 
L 371.832871 363.456 
L 373.721451 355.392 
L 375.610032 347.328 
L 377.498612 340.272 
L 379.387193 333.216 
L 381.275773 327.168 
L 383.164354 318.096 
L 385.052934 311.04 
L 386.941515 306 
L 388.830095 295.92 
L 390.718676 288.864 
L 392.607256 280.8 
L 394.495837 275.76 
L 396.384418 268.704 
L 398.272998 259.632 
L 400.161579 249.552 
L 402.050159 239.472 
L 403.93874 230.4 
L 405.82732 224.352 
L 407.715901 215.28 
L 409.604481 208.224 
L 411.493062 202.176 
L 413.381642 196.128 
L 415.270223 189.072 
L 417.158803 181.008 
L 419.047384 175.968 
L 420.935964 168.912 
L 422.824545 158.832 
L 424.713125 150.768 
L 426.601706 143.712 
L 428.490286 137.664 
L 430.378867 127.584 
L 432.267447 121.536 
L 434.156028 115.488 
L 436.044608 111.456 
L 437.933189 105.408 
L 439.821769 100.368 
L 441.71035 93.312 
L 443.59893 89.28 
" clip-path="url(#p3170c2173b)" style="fill: none; stroke: #0000ff; stroke-width: 1.5; stroke-linecap: square"/>
   </g>
   <g id="line2d_33">
    <path d="M 294.40107 492.48 
L 296.28965 490.464 
L 298.178231 488.448 
L 300.066811 483.408 
L 301.955392 480.384 
L 303.843972 476.352 
L 305.732553 474.336 
L 307.621133 469.296 
L 309.509714 464.256 
L 311.398294 457.2 
L 313.286875 454.176 
L 315.175455 447.12 
L 317.064036 439.056 
L 318.952616 432 
L 320.841197 428.976 
L 322.729777 420.912 
L 324.618358 411.84 
L 326.506938 402.768 
L 328.395519 395.712 
L 330.284099 386.64 
L 332.17268 381.6 
L 334.06126 376.56 
L 335.949841 370.512 
L 337.838421 364.464 
L 339.727002 356.4 
L 341.615582 348.336 
L 343.504163 343.296 
L 345.392744 336.24 
L 347.281324 331.2 
L 349.169905 327.168 
L 351.058485 319.104 
L 352.947066 314.064 
L 354.835646 307.008 
L 356.724227 300.96 
L 358.612807 294.912 
L 360.501388 289.872 
L 362.389968 282.816 
L 364.278549 275.76 
L 366.167129 269.712 
L 368.05571 265.68 
L 369.94429 263.664 
L 371.832871 260.64 
L 373.721451 257.616 
L 375.610032 253.584 
L 377.498612 249.552 
L 379.387193 246.528 
L 381.275773 243.504 
L 383.164354 241.488 
L 385.052934 237.456 
L 386.941515 232.416 
L 388.830095 230.4 
L 390.718676 228.384 
L 392.607256 226.368 
L 394.495837 223.344 
L 396.384418 220.32 
L 398.272998 217.296 
L 400.161579 215.28 
L 402.050159 212.256 
L 403.93874 209.232 
L 405.82732 204.192 
L 407.715901 202.176 
L 409.604481 198.144 
L 411.493062 194.112 
L 413.381642 191.088 
L 415.270223 187.056 
L 417.158803 184.032 
L 419.047384 180 
L 420.935964 177.984 
L 422.824545 175.968 
L 424.713125 172.944 
L 426.601706 169.92 
L 428.490286 166.896 
L 430.378867 166.896 
L 432.267447 162.864 
L 434.156028 158.832 
L 436.044608 153.792 
L 437.933189 151.776 
L 439.821769 146.736 
L 441.71035 143.712 
L 443.59893 141.696 
" clip-path="url(#p3170c2173b)" style="fill: none; stroke: #ff0000; stroke-width: 1.5; stroke-linecap: square"/>
   </g>
   <g id="line2d_34">
    <path d="M 294.40107 492.48 
L 296.28965 489.456 
L 298.178231 487.44 
L 300.066811 487.44 
L 301.955392 481.392 
L 303.843972 476.352 
L 305.732553 469.296 
L 307.621133 464.256 
L 309.509714 458.208 
L 311.398294 454.176 
L 313.286875 443.088 
L 315.175455 437.04 
L 317.064036 434.016 
L 318.952616 427.968 
L 320.841197 418.896 
L 322.729777 413.856 
L 324.618358 408.816 
L 326.506938 403.776 
L 328.395519 398.736 
L 330.284099 392.688 
L 332.17268 383.616 
L 334.06126 375.552 
L 335.949841 369.504 
L 337.838421 362.448 
L 339.727002 357.408 
L 341.615582 352.368 
L 343.504163 345.312 
L 345.392744 338.256 
L 347.281324 331.2 
L 349.169905 326.16 
L 351.058485 322.128 
L 352.947066 317.088 
L 354.835646 309.024 
L 356.724227 302.976 
L 358.612807 297.936 
L 360.501388 290.88 
L 362.389968 286.848 
L 364.278549 282.816 
L 366.167129 278.784 
L 368.05571 274.752 
L 369.94429 272.736 
L 371.832871 266.688 
L 373.721451 262.656 
L 375.610032 259.632 
L 377.498612 255.6 
L 379.387193 250.56 
L 381.275773 244.512 
L 383.164354 240.48 
L 385.052934 236.448 
L 386.941515 231.408 
L 388.830095 228.384 
L 390.718676 223.344 
L 392.607256 219.312 
L 394.495837 213.264 
L 396.384418 209.232 
L 398.272998 207.216 
L 400.161579 205.2 
L 402.050159 204.192 
L 403.93874 202.176 
L 405.82732 199.152 
L 407.715901 196.128 
L 409.604481 193.104 
L 411.493062 189.072 
L 413.381642 185.04 
L 415.270223 183.024 
L 417.158803 181.008 
L 419.047384 176.976 
L 420.935964 172.944 
L 422.824545 171.936 
L 424.713125 169.92 
L 426.601706 166.896 
L 428.490286 162.864 
L 430.378867 160.848 
L 432.267447 158.832 
L 434.156028 156.816 
L 436.044608 153.792 
L 437.933189 149.76 
L 439.821769 147.744 
L 441.71035 145.728 
L 443.59893 140.688 
" clip-path="url(#p3170c2173b)" style="fill: none; stroke: #008000; stroke-width: 1.5; stroke-linecap: square"/>
   </g>
   <g id="patch_9">
    <path d="M 286.941176 512.64 
L 286.941176 69.12 
" style="fill: none; stroke: #000000; stroke-width: 0.8; stroke-linejoin: miter; stroke-linecap: square"/>
   </g>
   <g id="patch_10">
    <path d="M 451.058824 512.64 
L 451.058824 69.12 
" style="fill: none; stroke: #000000; stroke-width: 0.8; stroke-linejoin: miter; stroke-linecap: square"/>
   </g>
   <g id="patch_11">
    <path d="M 286.941176 512.64 
L 451.058824 512.64 
" style="fill: none; stroke: #000000; stroke-width: 0.8; stroke-linejoin: miter; stroke-linecap: square"/>
   </g>
   <g id="patch_12">
    <path d="M 286.941176 69.12 
L 451.058824 69.12 
" style="fill: none; stroke: #000000; stroke-width: 0.8; stroke-linejoin: miter; stroke-linecap: square"/>
   </g>
   <g id="legend_2">
    <g id="patch_13">
     <path d="M 293.941176 121.154375 
L 393.863051 121.154375 
Q 395.863051 121.154375 395.863051 119.154375 
L 395.863051 76.12 
Q 395.863051 74.12 393.863051 74.12 
L 293.941176 74.12 
Q 291.941176 74.12 291.941176 76.12 
L 291.941176 119.154375 
Q 291.941176 121.154375 293.941176 121.154375 
z
" style="fill: #ffffff; opacity: 0.8; stroke: #cccccc; stroke-linejoin: miter"/>
    </g>
    <g id="line2d_35">
     <path d="M 295.941176 82.218438 
L 305.941176 82.218438 
L 315.941176 82.218438 
" style="fill: none; stroke: #0000ff; stroke-width: 1.5; stroke-linecap: square"/>
    </g>
    <g id="text_29">
     <!-- O1 requested -->
     <g transform="translate(323.941176 85.718438) scale(0.1 -0.1)">
      <defs>
       <path id="DejaVuSans-72" d="M 2631 2963 
Q 2534 3019 2420 3045 
Q 2306 3072 2169 3072 
Q 1681 3072 1420 2755 
Q 1159 2438 1159 1844 
L 1159 0 
L 581 0 
L 581 3500 
L 1159 3500 
L 1159 2956 
Q 1341 3275 1631 3429 
Q 1922 3584 2338 3584 
Q 2397 3584 2469 3576 
Q 2541 3569 2628 3553 
L 2631 2963 
z
" transform="scale(0.015625)"/>
       <path id="DejaVuSans-65" d="M 3597 1894 
L 3597 1613 
L 953 1613 
Q 991 1019 1311 708 
Q 1631 397 2203 397 
Q 2534 397 2845 478 
Q 3156 559 3463 722 
L 3463 178 
Q 3153 47 2828 -22 
Q 2503 -91 2169 -91 
Q 1331 -91 842 396 
Q 353 884 353 1716 
Q 353 2575 817 3079 
Q 1281 3584 2069 3584 
Q 2775 3584 3186 3129 
Q 3597 2675 3597 1894 
z
M 3022 2063 
Q 3016 2534 2758 2815 
Q 2500 3097 2075 3097 
Q 1594 3097 1305 2825 
Q 1016 2553 972 2059 
L 3022 2063 
z
" transform="scale(0.015625)"/>
       <path id="DejaVuSans-71" d="M 947 1747 
Q 947 1113 1208 752 
Q 1469 391 1925 391 
Q 2381 391 2643 752 
Q 2906 1113 2906 1747 
Q 2906 2381 2643 2742 
Q 2381 3103 1925 3103 
Q 1469 3103 1208 2742 
Q 947 2381 947 1747 
z
M 2906 525 
Q 2725 213 2448 61 
Q 2172 -91 1784 -91 
Q 1150 -91 751 415 
Q 353 922 353 1747 
Q 353 2572 751 3078 
Q 1150 3584 1784 3584 
Q 2172 3584 2448 3432 
Q 2725 3281 2906 2969 
L 2906 3500 
L 3481 3500 
L 3481 -1331 
L 2906 -1331 
L 2906 525 
z
" transform="scale(0.015625)"/>
       <path id="DejaVuSans-73" d="M 2834 3397 
L 2834 2853 
Q 2591 2978 2328 3040 
Q 2066 3103 1784 3103 
Q 1356 3103 1142 2972 
Q 928 2841 928 2578 
Q 928 2378 1081 2264 
Q 1234 2150 1697 2047 
L 1894 2003 
Q 2506 1872 2764 1633 
Q 3022 1394 3022 966 
Q 3022 478 2636 193 
Q 2250 -91 1575 -91 
Q 1294 -91 989 -36 
Q 684 19 347 128 
L 347 722 
Q 666 556 975 473 
Q 1284 391 1588 391 
Q 1994 391 2212 530 
Q 2431 669 2431 922 
Q 2431 1156 2273 1281 
Q 2116 1406 1581 1522 
L 1381 1569 
Q 847 1681 609 1914 
Q 372 2147 372 2553 
Q 372 3047 722 3315 
Q 1072 3584 1716 3584 
Q 2034 3584 2315 3537 
Q 2597 3491 2834 3397 
z
" transform="scale(0.015625)"/>
       <path id="DejaVuSans-64" d="M 2906 2969 
L 2906 4863 
L 3481 4863 
L 3481 0 
L 2906 0 
L 2906 525 
Q 2725 213 2448 61 
Q 2172 -91 1784 -91 
Q 1150 -91 751 415 
Q 353 922 353 1747 
Q 353 2572 751 3078 
Q 1150 3584 1784 3584 
Q 2172 3584 2448 3432 
Q 2725 3281 2906 2969 
z
M 947 1747 
Q 947 1113 1208 752 
Q 1469 391 1925 391 
Q 2381 391 2643 752 
Q 2906 1113 2906 1747 
Q 2906 2381 2643 2742 
Q 2381 3103 1925 3103 
Q 1469 3103 1208 2742 
Q 947 2381 947 1747 
z
" transform="scale(0.015625)"/>
      </defs>
      <use xlink:href="#DejaVuSans-4f"/>
      <use xlink:href="#DejaVuSans-31" x="78.710938"/>
      <use xlink:href="#DejaVuSans-20" x="142.333984"/>
      <use xlink:href="#DejaVuSans-72" x="174.121094"/>
      <use xlink:href="#DejaVuSans-65" x="212.984375"/>
      <use xlink:href="#DejaVuSans-71" x="274.507812"/>
      <use xlink:href="#DejaVuSans-75" x="337.984375"/>
      <use xlink:href="#DejaVuSans-65" x="401.363281"/>
      <use xlink:href="#DejaVuSans-73" x="462.886719"/>
      <use xlink:href="#DejaVuSans-74" x="514.986328"/>
      <use xlink:href="#DejaVuSans-65" x="554.195312"/>
      <use xlink:href="#DejaVuSans-64" x="615.71875"/>
     </g>
    </g>
    <g id="line2d_36">
     <path d="M 295.941176 96.896563 
L 305.941176 96.896563 
L 315.941176 96.896563 
" style="fill: none; stroke: #ff0000; stroke-width: 1.5; stroke-linecap: square"/>
    </g>
    <g id="text_30">
     <!-- O2 requested -->
     <g transform="translate(323.941176 100.396563) scale(0.1 -0.1)">
      <use xlink:href="#DejaVuSans-4f"/>
      <use xlink:href="#DejaVuSans-32" x="78.710938"/>
      <use xlink:href="#DejaVuSans-20" x="142.333984"/>
      <use xlink:href="#DejaVuSans-72" x="174.121094"/>
      <use xlink:href="#DejaVuSans-65" x="212.984375"/>
      <use xlink:href="#DejaVuSans-71" x="274.507812"/>
      <use xlink:href="#DejaVuSans-75" x="337.984375"/>
      <use xlink:href="#DejaVuSans-65" x="401.363281"/>
      <use xlink:href="#DejaVuSans-73" x="462.886719"/>
      <use xlink:href="#DejaVuSans-74" x="514.986328"/>
      <use xlink:href="#DejaVuSans-65" x="554.195312"/>
      <use xlink:href="#DejaVuSans-64" x="615.71875"/>
     </g>
    </g>
    <g id="line2d_37">
     <path d="M 295.941176 111.574688 
L 305.941176 111.574688 
L 315.941176 111.574688 
" style="fill: none; stroke: #008000; stroke-width: 1.5; stroke-linecap: square"/>
    </g>
    <g id="text_31">
     <!-- O3 requested -->
     <g transform="translate(323.941176 115.074688) scale(0.1 -0.1)">
      <use xlink:href="#DejaVuSans-4f"/>
      <use xlink:href="#DejaVuSans-33" x="78.710938"/>
      <use xlink:href="#DejaVuSans-20" x="142.333984"/>
      <use xlink:href="#DejaVuSans-72" x="174.121094"/>
      <use xlink:href="#DejaVuSans-65" x="212.984375"/>
      <use xlink:href="#DejaVuSans-71" x="274.507812"/>
      <use xlink:href="#DejaVuSans-75" x="337.984375"/>
      <use xlink:href="#DejaVuSans-65" x="401.363281"/>
      <use xlink:href="#DejaVuSans-73" x="462.886719"/>
      <use xlink:href="#DejaVuSans-74" x="514.986328"/>
      <use xlink:href="#DejaVuSans-65" x="554.195312"/>
      <use xlink:href="#DejaVuSans-64" x="615.71875"/>
     </g>
    </g>
   </g>
  </g>
  <g id="axes_3">
   <g id="patch_14">
    <path d="M 483.882353 512.64 
L 648 512.64 
L 648 69.12 
L 483.882353 69.12 
z
" style="fill: #ffffff"/>
   </g>
   <g id="matplotlib.axis_5">
    <g id="xtick_11">
     <g id="line2d_38">
      <g>
       <use xlink:href="#m9f77023ccb" x="489.453665" y="512.64" style="stroke: #000000; stroke-width: 0.8"/>
      </g>
     </g>
     <g id="text_32">
      <!-- 0 -->
      <g transform="translate(486.272415 527.238438) scale(0.1 -0.1)">
       <use xlink:href="#DejaVuSans-30"/>
      </g>
     </g>
    </g>
    <g id="xtick_12">
     <g id="line2d_39">
      <g>
       <use xlink:href="#m9f77023ccb" x="527.225276" y="512.64" style="stroke: #000000; stroke-width: 0.8"/>
      </g>
     </g>
     <g id="text_33">
      <!-- 20 -->
      <g transform="translate(520.862776 527.238438) scale(0.1 -0.1)">
       <use xlink:href="#DejaVuSans-32"/>
       <use xlink:href="#DejaVuSans-30" x="63.623047"/>
      </g>
     </g>
    </g>
    <g id="xtick_13">
     <g id="line2d_40">
      <g>
       <use xlink:href="#m9f77023ccb" x="564.996886" y="512.64" style="stroke: #000000; stroke-width: 0.8"/>
      </g>
     </g>
     <g id="text_34">
      <!-- 40 -->
      <g transform="translate(558.634386 527.238438) scale(0.1 -0.1)">
       <use xlink:href="#DejaVuSans-34"/>
       <use xlink:href="#DejaVuSans-30" x="63.623047"/>
      </g>
     </g>
    </g>
    <g id="xtick_14">
     <g id="line2d_41">
      <g>
       <use xlink:href="#m9f77023ccb" x="602.768497" y="512.64" style="stroke: #000000; stroke-width: 0.8"/>
      </g>
     </g>
     <g id="text_35">
      <!-- 60 -->
      <g transform="translate(596.405997 527.238438) scale(0.1 -0.1)">
       <use xlink:href="#DejaVuSans-36"/>
       <use xlink:href="#DejaVuSans-30" x="63.623047"/>
      </g>
     </g>
    </g>
    <g id="xtick_15">
     <g id="line2d_42">
      <g>
       <use xlink:href="#m9f77023ccb" x="640.540107" y="512.64" style="stroke: #000000; stroke-width: 0.8"/>
      </g>
     </g>
     <g id="text_36">
      <!-- 80 -->
      <g transform="translate(634.177607 527.238438) scale(0.1 -0.1)">
       <use xlink:href="#DejaVuSans-38"/>
       <use xlink:href="#DejaVuSans-30" x="63.623047"/>
      </g>
     </g>
    </g>
   </g>
   <g id="matplotlib.axis_6">
    <g id="ytick_16">
     <g id="line2d_43">
      <g>
       <use xlink:href="#m3384fdbbe4" x="483.882353" y="492.48" style="stroke: #000000; stroke-width: 0.8"/>
      </g>
     </g>
     <g id="text_37">
      <!-- 0 -->
      <g transform="translate(470.519853 496.279219) scale(0.1 -0.1)">
       <use xlink:href="#DejaVuSans-30"/>
      </g>
     </g>
    </g>
    <g id="ytick_17">
     <g id="line2d_44">
      <g>
       <use xlink:href="#m3384fdbbe4" x="483.882353" y="437.247123" style="stroke: #000000; stroke-width: 0.8"/>
      </g>
     </g>
     <g id="text_38">
      <!-- 10 -->
      <g transform="translate(464.157353 441.046342) scale(0.1 -0.1)">
       <use xlink:href="#DejaVuSans-31"/>
       <use xlink:href="#DejaVuSans-30" x="63.623047"/>
      </g>
     </g>
    </g>
    <g id="ytick_18">
     <g id="line2d_45">
      <g>
       <use xlink:href="#m3384fdbbe4" x="483.882353" y="382.014247" style="stroke: #000000; stroke-width: 0.8"/>
      </g>
     </g>
     <g id="text_39">
      <!-- 20 -->
      <g transform="translate(464.157353 385.813465) scale(0.1 -0.1)">
       <use xlink:href="#DejaVuSans-32"/>
       <use xlink:href="#DejaVuSans-30" x="63.623047"/>
      </g>
     </g>
    </g>
    <g id="ytick_19">
     <g id="line2d_46">
      <g>
       <use xlink:href="#m3384fdbbe4" x="483.882353" y="326.78137" style="stroke: #000000; stroke-width: 0.8"/>
      </g>
     </g>
     <g id="text_40">
      <!-- 30 -->
      <g transform="translate(464.157353 330.580589) scale(0.1 -0.1)">
       <use xlink:href="#DejaVuSans-33"/>
       <use xlink:href="#DejaVuSans-30" x="63.623047"/>
      </g>
     </g>
    </g>
    <g id="ytick_20">
     <g id="line2d_47">
      <g>
       <use xlink:href="#m3384fdbbe4" x="483.882353" y="271.548493" style="stroke: #000000; stroke-width: 0.8"/>
      </g>
     </g>
     <g id="text_41">
      <!-- 40 -->
      <g transform="translate(464.157353 275.347712) scale(0.1 -0.1)">
       <use xlink:href="#DejaVuSans-34"/>
       <use xlink:href="#DejaVuSans-30" x="63.623047"/>
      </g>
     </g>
    </g>
    <g id="ytick_21">
     <g id="line2d_48">
      <g>
       <use xlink:href="#m3384fdbbe4" x="483.882353" y="216.315616" style="stroke: #000000; stroke-width: 0.8"/>
      </g>
     </g>
     <g id="text_42">
      <!-- 50 -->
      <g transform="translate(464.157353 220.114835) scale(0.1 -0.1)">
       <use xlink:href="#DejaVuSans-35"/>
       <use xlink:href="#DejaVuSans-30" x="63.623047"/>
      </g>
     </g>
    </g>
    <g id="ytick_22">
     <g id="line2d_49">
      <g>
       <use xlink:href="#m3384fdbbe4" x="483.882353" y="161.08274" style="stroke: #000000; stroke-width: 0.8"/>
      </g>
     </g>
     <g id="text_43">
      <!-- 60 -->
      <g transform="translate(464.157353 164.881958) scale(0.1 -0.1)">
       <use xlink:href="#DejaVuSans-36"/>
       <use xlink:href="#DejaVuSans-30" x="63.623047"/>
      </g>
     </g>
    </g>
    <g id="ytick_23">
     <g id="line2d_50">
      <g>
       <use xlink:href="#m3384fdbbe4" x="483.882353" y="105.849863" style="stroke: #000000; stroke-width: 0.8"/>
      </g>
     </g>
     <g id="text_44">
      <!-- 70 -->
      <g transform="translate(464.157353 109.649082) scale(0.1 -0.1)">
       <defs>
        <path id="DejaVuSans-37" d="M 525 4666 
L 3525 4666 
L 3525 4397 
L 1831 0 
L 1172 0 
L 2766 4134 
L 525 4134 
L 525 4666 
z
" transform="scale(0.015625)"/>
       </defs>
       <use xlink:href="#DejaVuSans-37"/>
       <use xlink:href="#DejaVuSans-30" x="63.623047"/>
      </g>
     </g>
    </g>
   </g>
   <g id="line2d_51">
    <path d="M 491.342246 492.48 
L 493.230827 486.956712 
L 495.119407 486.956712 
L 497.007988 486.956712 
L 498.896568 481.433425 
L 500.785149 481.433425 
L 502.673729 481.433425 
L 504.56231 481.433425 
L 506.45089 481.433425 
L 508.339471 481.433425 
L 510.228051 475.910137 
L 512.116632 470.386849 
L 514.005212 470.386849 
L 515.893793 464.863562 
L 517.782373 453.816986 
L 519.670954 453.816986 
L 521.559534 453.816986 
L 523.448115 453.816986 
L 525.336695 453.816986 
L 527.225276 453.816986 
L 529.113856 453.816986 
L 531.002437 453.816986 
L 532.891017 442.770411 
L 534.779598 437.247123 
L 536.668178 437.247123 
L 538.556759 437.247123 
L 540.445339 437.247123 
L 542.33392 437.247123 
L 544.222501 437.247123 
L 546.111081 437.247123 
L 547.999662 437.247123 
L 549.888242 431.723836 
L 551.776823 431.723836 
L 553.665403 426.200548 
L 555.553984 426.200548 
L 557.442564 415.153973 
L 559.331145 409.630685 
L 561.219725 409.630685 
L 563.108306 404.107397 
L 564.996886 382.014247 
L 566.885467 359.921096 
L 568.774047 337.827945 
L 570.662628 332.304658 
L 572.551208 332.304658 
L 574.439789 315.734795 
L 576.328369 315.734795 
L 578.21695 315.734795 
L 580.10553 310.211507 
L 581.994111 299.164932 
L 583.882691 293.641644 
L 585.771272 288.118356 
L 587.659852 266.025205 
L 589.548433 254.97863 
L 591.437013 243.932055 
L 593.325594 243.932055 
L 595.214175 232.885479 
L 597.102755 227.362192 
L 598.991336 221.838904 
L 600.879916 210.792329 
L 602.768497 199.745753 
L 604.657077 194.222466 
L 606.545658 194.222466 
L 608.434238 194.222466 
L 610.322819 183.17589 
L 612.211399 172.129315 
L 614.09998 161.08274 
L 615.98856 155.559452 
L 617.877141 155.559452 
L 619.765721 144.512877 
L 621.654302 144.512877 
L 623.542882 138.989589 
L 625.431463 138.989589 
L 627.320043 127.943014 
L 629.208624 116.896438 
L 631.097204 111.373151 
L 632.985785 100.326575 
L 634.874365 100.326575 
L 636.762946 100.326575 
L 638.651526 89.28 
L 640.540107 89.28 
" clip-path="url(#p9e79c9cc1f)" style="fill: none; stroke: #0000ff; stroke-width: 1.5; stroke-linecap: square"/>
   </g>
   <g id="line2d_52">
    <path d="M 491.342246 492.48 
L 493.230827 492.48 
L 495.119407 486.956712 
L 497.007988 486.956712 
L 498.896568 481.433425 
L 500.785149 481.433425 
L 502.673729 481.433425 
L 504.56231 481.433425 
L 506.45089 475.910137 
L 508.339471 475.910137 
L 510.228051 470.386849 
L 512.116632 459.340274 
L 514.005212 448.293699 
L 515.893793 442.770411 
L 517.782373 442.770411 
L 519.670954 442.770411 
L 521.559534 437.247123 
L 523.448115 431.723836 
L 525.336695 420.67726 
L 527.225276 393.060822 
L 529.113856 393.060822 
L 531.002437 387.537534 
L 532.891017 387.537534 
L 534.779598 387.537534 
L 536.668178 376.490959 
L 538.556759 370.967671 
L 540.445339 365.444384 
L 542.33392 365.444384 
L 544.222501 354.397808 
L 546.111081 354.397808 
L 547.999662 348.874521 
L 549.888242 343.351233 
L 551.776823 337.827945 
L 553.665403 332.304658 
L 555.553984 332.304658 
L 557.442564 332.304658 
L 559.331145 332.304658 
L 561.219725 332.304658 
L 563.108306 321.258082 
L 564.996886 315.734795 
L 566.885467 315.734795 
L 568.774047 315.734795 
L 570.662628 310.211507 
L 572.551208 299.164932 
L 574.439789 299.164932 
L 576.328369 299.164932 
L 578.21695 299.164932 
L 580.10553 299.164932 
L 581.994111 299.164932 
L 583.882691 282.595068 
L 585.771272 277.071781 
L 587.659852 277.071781 
L 589.548433 277.071781 
L 591.437013 277.071781 
L 593.325594 277.071781 
L 595.214175 277.071781 
L 597.102755 277.071781 
L 598.991336 266.025205 
L 600.879916 260.501918 
L 602.768497 254.97863 
L 604.657077 254.97863 
L 606.545658 243.932055 
L 608.434238 243.932055 
L 610.322819 238.408767 
L 612.211399 238.408767 
L 614.09998 238.408767 
L 615.98856 232.885479 
L 617.877141 232.885479 
L 619.765721 232.885479 
L 621.654302 232.885479 
L 623.542882 227.362192 
L 625.431463 221.838904 
L 627.320043 221.838904 
L 629.208624 210.792329 
L 631.097204 210.792329 
L 632.985785 205.269041 
L 634.874365 205.269041 
L 636.762946 194.222466 
L 638.651526 194.222466 
L 640.540107 194.222466 
" clip-path="url(#p9e79c9cc1f)" style="fill: none; stroke: #ff0000; stroke-width: 1.5; stroke-linecap: square"/>
   </g>
   <g id="line2d_53">
    <path d="M 491.342246 492.48 
L 493.230827 486.956712 
L 495.119407 486.956712 
L 497.007988 486.956712 
L 498.896568 475.910137 
L 500.785149 475.910137 
L 502.673729 475.910137 
L 504.56231 470.386849 
L 506.45089 470.386849 
L 508.339471 464.863562 
L 510.228051 464.863562 
L 512.116632 464.863562 
L 514.005212 464.863562 
L 515.893793 464.863562 
L 517.782373 464.863562 
L 519.670954 464.863562 
L 521.559534 464.863562 
L 523.448115 464.863562 
L 525.336695 464.863562 
L 527.225276 464.863562 
L 529.113856 464.863562 
L 531.002437 464.863562 
L 532.891017 464.863562 
L 534.779598 464.863562 
L 536.668178 464.863562 
L 538.556759 464.863562 
L 540.445339 464.863562 
L 542.33392 464.863562 
L 544.222501 464.863562 
L 546.111081 464.863562 
L 547.999662 464.863562 
L 549.888242 464.863562 
L 551.776823 464.863562 
L 553.665403 464.863562 
L 555.553984 464.863562 
L 557.442564 464.863562 
L 559.331145 464.863562 
L 561.219725 464.863562 
L 563.108306 464.863562 
L 564.996886 464.863562 
L 566.885467 464.863562 
L 568.774047 464.863562 
L 570.662628 464.863562 
L 572.551208 464.863562 
L 574.439789 464.863562 
L 576.328369 464.863562 
L 578.21695 464.863562 
L 580.10553 464.863562 
L 581.994111 464.863562 
L 583.882691 464.863562 
L 585.771272 464.863562 
L 587.659852 464.863562 
L 589.548433 464.863562 
L 591.437013 464.863562 
L 593.325594 464.863562 
L 595.214175 464.863562 
L 597.102755 464.863562 
L 598.991336 464.863562 
L 600.879916 464.863562 
L 602.768497 464.863562 
L 604.657077 464.863562 
L 606.545658 464.863562 
L 608.434238 464.863562 
L 610.322819 464.863562 
L 612.211399 464.863562 
L 614.09998 464.863562 
L 615.98856 464.863562 
L 617.877141 464.863562 
L 619.765721 464.863562 
L 621.654302 464.863562 
L 623.542882 464.863562 
L 625.431463 464.863562 
L 627.320043 464.863562 
L 629.208624 464.863562 
L 631.097204 464.863562 
L 632.985785 464.863562 
L 634.874365 464.863562 
L 636.762946 464.863562 
L 638.651526 464.863562 
L 640.540107 464.863562 
" clip-path="url(#p9e79c9cc1f)" style="fill: none; stroke: #008000; stroke-width: 1.5; stroke-linecap: square"/>
   </g>
   <g id="patch_15">
    <path d="M 483.882353 512.64 
L 483.882353 69.12 
" style="fill: none; stroke: #000000; stroke-width: 0.8; stroke-linejoin: miter; stroke-linecap: square"/>
   </g>
   <g id="patch_16">
    <path d="M 648 512.64 
L 648 69.12 
" style="fill: none; stroke: #000000; stroke-width: 0.8; stroke-linejoin: miter; stroke-linecap: square"/>
   </g>
   <g id="patch_17">
    <path d="M 483.882353 512.64 
L 648 512.64 
" style="fill: none; stroke: #000000; stroke-width: 0.8; stroke-linejoin: miter; stroke-linecap: square"/>
   </g>
   <g id="patch_18">
    <path d="M 483.882353 69.12 
L 648 69.12 
" style="fill: none; stroke: #000000; stroke-width: 0.8; stroke-linejoin: miter; stroke-linecap: square"/>
   </g>
   <g id="legend_3">
    <g id="patch_19">
     <path d="M 490.882353 121.154375 
L 580.719853 121.154375 
Q 582.719853 121.154375 582.719853 119.154375 
L 582.719853 76.12 
Q 582.719853 74.12 580.719853 74.12 
L 490.882353 74.12 
Q 488.882353 74.12 488.882353 76.12 
L 488.882353 119.154375 
Q 488.882353 121.154375 490.882353 121.154375 
z
" style="fill: #ffffff; opacity: 0.8; stroke: #cccccc; stroke-linejoin: miter"/>
    </g>
    <g id="line2d_54">
     <path d="M 492.882353 82.218438 
L 502.882353 82.218438 
L 512.882353 82.218438 
" style="fill: none; stroke: #0000ff; stroke-width: 1.5; stroke-linecap: square"/>
    </g>
    <g id="text_45">
     <!-- O1 ensured -->
     <g transform="translate(520.882353 85.718438) scale(0.1 -0.1)">
      <defs>
       <path id="DejaVuSans-6e" d="M 3513 2113 
L 3513 0 
L 2938 0 
L 2938 2094 
Q 2938 2591 2744 2837 
Q 2550 3084 2163 3084 
Q 1697 3084 1428 2787 
Q 1159 2491 1159 1978 
L 1159 0 
L 581 0 
L 581 3500 
L 1159 3500 
L 1159 2956 
Q 1366 3272 1645 3428 
Q 1925 3584 2291 3584 
Q 2894 3584 3203 3211 
Q 3513 2838 3513 2113 
z
" transform="scale(0.015625)"/>
      </defs>
      <use xlink:href="#DejaVuSans-4f"/>
      <use xlink:href="#DejaVuSans-31" x="78.710938"/>
      <use xlink:href="#DejaVuSans-20" x="142.333984"/>
      <use xlink:href="#DejaVuSans-65" x="174.121094"/>
      <use xlink:href="#DejaVuSans-6e" x="235.644531"/>
      <use xlink:href="#DejaVuSans-73" x="299.023438"/>
      <use xlink:href="#DejaVuSans-75" x="351.123047"/>
      <use xlink:href="#DejaVuSans-72" x="414.501953"/>
      <use xlink:href="#DejaVuSans-65" x="453.365234"/>
      <use xlink:href="#DejaVuSans-64" x="514.888672"/>
     </g>
    </g>
    <g id="line2d_55">
     <path d="M 492.882353 96.896563 
L 502.882353 96.896563 
L 512.882353 96.896563 
" style="fill: none; stroke: #ff0000; stroke-width: 1.5; stroke-linecap: square"/>
    </g>
    <g id="text_46">
     <!-- O2 ensured -->
     <g transform="translate(520.882353 100.396563) scale(0.1 -0.1)">
      <use xlink:href="#DejaVuSans-4f"/>
      <use xlink:href="#DejaVuSans-32" x="78.710938"/>
      <use xlink:href="#DejaVuSans-20" x="142.333984"/>
      <use xlink:href="#DejaVuSans-65" x="174.121094"/>
      <use xlink:href="#DejaVuSans-6e" x="235.644531"/>
      <use xlink:href="#DejaVuSans-73" x="299.023438"/>
      <use xlink:href="#DejaVuSans-75" x="351.123047"/>
      <use xlink:href="#DejaVuSans-72" x="414.501953"/>
      <use xlink:href="#DejaVuSans-65" x="453.365234"/>
      <use xlink:href="#DejaVuSans-64" x="514.888672"/>
     </g>
    </g>
    <g id="line2d_56">
     <path d="M 492.882353 111.574688 
L 502.882353 111.574688 
L 512.882353 111.574688 
" style="fill: none; stroke: #008000; stroke-width: 1.5; stroke-linecap: square"/>
    </g>
    <g id="text_47">
     <!-- O3 ensured -->
     <g transform="translate(520.882353 115.074688) scale(0.1 -0.1)">
      <use xlink:href="#DejaVuSans-4f"/>
      <use xlink:href="#DejaVuSans-33" x="78.710938"/>
      <use xlink:href="#DejaVuSans-20" x="142.333984"/>
      <use xlink:href="#DejaVuSans-65" x="174.121094"/>
      <use xlink:href="#DejaVuSans-6e" x="235.644531"/>
      <use xlink:href="#DejaVuSans-73" x="299.023438"/>
      <use xlink:href="#DejaVuSans-75" x="351.123047"/>
      <use xlink:href="#DejaVuSans-72" x="414.501953"/>
      <use xlink:href="#DejaVuSans-65" x="453.365234"/>
      <use xlink:href="#DejaVuSans-64" x="514.888672"/>
     </g>
    </g>
   </g>
  </g>
 </g>
 <defs>
  <clipPath id="pd1401e9c0e">
   <rect x="90" y="69.12" width="164.117647" height="443.52"/>
  </clipPath>
  <clipPath id="p3170c2173b">
   <rect x="286.941176" y="69.12" width="164.117647" height="443.52"/>
  </clipPath>
  <clipPath id="p9e79c9cc1f">
   <rect x="483.882353" y="69.12" width="164.117647" height="443.52"/>
  </clipPath>
 </defs>
</svg>
