<?xml version="1.0" encoding="utf-8" standalone="no"?>
<!DOCTYPE svg PUBLIC "-//W3C//DTD SVG 1.1//EN"
  "http://www.w3.org/Graphics/SVG/1.1/DTD/svg11.dtd">
<svg xmlns:xlink="http://www.w3.org/1999/xlink" width="720pt" height="576pt" viewBox="0 0 720 576" xmlns="http://www.w3.org/2000/svg" version="1.1">
 <metadata>
  <rdf:RDF xmlns:dc="http://purl.org/dc/elements/1.1/" xmlns:cc="http://creativecommons.org/ns#" xmlns:rdf="http://www.w3.org/1999/02/22-rdf-syntax-ns#">
   <cc:Work>
    <dc:type rdf:resource="http://purl.org/dc/dcmitype/StillImage"/>
    <dc:date>2023-05-31T19:33:57.344478</dc:date>
    <dc:format>image/svg+xml</dc:format>
    <dc:creator>
     <cc:Agent>
      <dc:title>Matplotlib v3.7.1, https://matplotlib.org/</dc:title>
     </cc:Agent>
    </dc:creator>
   </cc:Work>
  </rdf:RDF>
 </metadata>
 <defs>
  <style type="text/css">*{stroke-linejoin: round; stroke-linecap: butt}</style>
 </defs>
 <g id="figure_1">
  <g id="patch_1">
   <path d="M 0 576 
L 720 576 
L 720 0 
L 0 0 
z
" style="fill: #ffffff"/>
  </g>
  <g id="axes_1">
   <g id="patch_2">
    <path d="M 90 512.64 
L 254.117647 512.64 
L 254.117647 69.12 
L 90 69.12 
z
" style="fill: #ffffff"/>
   </g>
   <g id="matplotlib.axis_1">
    <g id="xtick_1">
     <g id="line2d_1">
      <defs>
       <path id="mea488a038c" d="M 0 0 
L 0 3.5 
" style="stroke: #000000; stroke-width: 0.8"/>
      </defs>
      <g>
       <use xlink:href="#mea488a038c" x="97.296657" y="512.64" style="stroke: #000000; stroke-width: 0.8"/>
      </g>
     </g>
     <g id="text_1">
      <!-- 0 -->
      <g transform="translate(94.115407 527.238438) scale(0.1 -0.1)">
       <defs>
        <path id="DejaVuSans-30" d="M 2034 4250 
Q 1547 4250 1301 3770 
Q 1056 3291 1056 2328 
Q 1056 1369 1301 889 
Q 1547 409 2034 409 
Q 2525 409 2770 889 
Q 3016 1369 3016 2328 
Q 3016 3291 2770 3770 
Q 2525 4250 2034 4250 
z
M 2034 4750 
Q 2819 4750 3233 4129 
Q 3647 3509 3647 2328 
Q 3647 1150 3233 529 
Q 2819 -91 2034 -91 
Q 1250 -91 836 529 
Q 422 1150 422 2328 
Q 422 3509 836 4129 
Q 1250 4750 2034 4750 
z
" transform="scale(0.015625)"/>
       </defs>
       <use xlink:href="#DejaVuSans-30"/>
      </g>
     </g>
    </g>
    <g id="xtick_2">
     <g id="line2d_2">
      <g>
       <use xlink:href="#mea488a038c" x="138.1057" y="512.64" style="stroke: #000000; stroke-width: 0.8"/>
      </g>
     </g>
     <g id="text_2">
      <!-- 250 -->
      <g transform="translate(128.56195 527.238438) scale(0.1 -0.1)">
       <defs>
        <path id="DejaVuSans-32" d="M 1228 531 
L 3431 531 
L 3431 0 
L 469 0 
L 469 531 
Q 828 903 1448 1529 
Q 2069 2156 2228 2338 
Q 2531 2678 2651 2914 
Q 2772 3150 2772 3378 
Q 2772 3750 2511 3984 
Q 2250 4219 1831 4219 
Q 1534 4219 1204 4116 
Q 875 4013 500 3803 
L 500 4441 
Q 881 4594 1212 4672 
Q 1544 4750 1819 4750 
Q 2544 4750 2975 4387 
Q 3406 4025 3406 3419 
Q 3406 3131 3298 2873 
Q 3191 2616 2906 2266 
Q 2828 2175 2409 1742 
Q 1991 1309 1228 531 
z
" transform="scale(0.015625)"/>
        <path id="DejaVuSans-35" d="M 691 4666 
L 3169 4666 
L 3169 4134 
L 1269 4134 
L 1269 2991 
Q 1406 3038 1543 3061 
Q 1681 3084 1819 3084 
Q 2600 3084 3056 2656 
Q 3513 2228 3513 1497 
Q 3513 744 3044 326 
Q 2575 -91 1722 -91 
Q 1428 -91 1123 -41 
Q 819 9 494 109 
L 494 744 
Q 775 591 1075 516 
Q 1375 441 1709 441 
Q 2250 441 2565 725 
Q 2881 1009 2881 1497 
Q 2881 1984 2565 2268 
Q 2250 2553 1709 2553 
Q 1456 2553 1204 2497 
Q 953 2441 691 2322 
L 691 4666 
z
" transform="scale(0.015625)"/>
       </defs>
       <use xlink:href="#DejaVuSans-32"/>
       <use xlink:href="#DejaVuSans-35" x="63.623047"/>
       <use xlink:href="#DejaVuSans-30" x="127.246094"/>
      </g>
     </g>
    </g>
    <g id="xtick_3">
     <g id="line2d_3">
      <g>
       <use xlink:href="#mea488a038c" x="178.914743" y="512.64" style="stroke: #000000; stroke-width: 0.8"/>
      </g>
     </g>
     <g id="text_3">
      <!-- 500 -->
      <g transform="translate(169.370993 527.238438) scale(0.1 -0.1)">
       <use xlink:href="#DejaVuSans-35"/>
       <use xlink:href="#DejaVuSans-30" x="63.623047"/>
       <use xlink:href="#DejaVuSans-30" x="127.246094"/>
      </g>
     </g>
    </g>
    <g id="xtick_4">
     <g id="line2d_4">
      <g>
       <use xlink:href="#mea488a038c" x="219.723786" y="512.64" style="stroke: #000000; stroke-width: 0.8"/>
      </g>
     </g>
     <g id="text_4">
      <!-- 750 -->
      <g transform="translate(210.180036 527.238438) scale(0.1 -0.1)">
       <defs>
        <path id="DejaVuSans-37" d="M 525 4666 
L 3525 4666 
L 3525 4397 
L 1831 0 
L 1172 0 
L 2766 4134 
L 525 4134 
L 525 4666 
z
" transform="scale(0.015625)"/>
       </defs>
       <use xlink:href="#DejaVuSans-37"/>
       <use xlink:href="#DejaVuSans-35" x="63.623047"/>
       <use xlink:href="#DejaVuSans-30" x="127.246094"/>
      </g>
     </g>
    </g>
   </g>
   <g id="matplotlib.axis_2">
    <g id="ytick_1">
     <g id="line2d_5">
      <defs>
       <path id="m661362fcb3" d="M 0 0 
L -3.5 0 
" style="stroke: #000000; stroke-width: 0.8"/>
      </defs>
      <g>
       <use xlink:href="#m661362fcb3" x="90" y="492.48" style="stroke: #000000; stroke-width: 0.8"/>
      </g>
     </g>
     <g id="text_5">
      <!-- 0.0 -->
      <g transform="translate(67.096875 496.279219) scale(0.1 -0.1)">
       <defs>
        <path id="DejaVuSans-2e" d="M 684 794 
L 1344 794 
L 1344 0 
L 684 0 
L 684 794 
z
" transform="scale(0.015625)"/>
       </defs>
       <use xlink:href="#DejaVuSans-30"/>
       <use xlink:href="#DejaVuSans-2e" x="63.623047"/>
       <use xlink:href="#DejaVuSans-30" x="95.410156"/>
      </g>
     </g>
    </g>
    <g id="ytick_2">
     <g id="line2d_6">
      <g>
       <use xlink:href="#m661362fcb3" x="90" y="405.705578" style="stroke: #000000; stroke-width: 0.8"/>
      </g>
     </g>
     <g id="text_6">
      <!-- 0.1 -->
      <g transform="translate(67.096875 409.504796) scale(0.1 -0.1)">
       <defs>
        <path id="DejaVuSans-31" d="M 794 531 
L 1825 531 
L 1825 4091 
L 703 3866 
L 703 4441 
L 1819 4666 
L 2450 4666 
L 2450 531 
L 3481 531 
L 3481 0 
L 794 0 
L 794 531 
z
" transform="scale(0.015625)"/>
       </defs>
       <use xlink:href="#DejaVuSans-30"/>
       <use xlink:href="#DejaVuSans-2e" x="63.623047"/>
       <use xlink:href="#DejaVuSans-31" x="95.410156"/>
      </g>
     </g>
    </g>
    <g id="ytick_3">
     <g id="line2d_7">
      <g>
       <use xlink:href="#m661362fcb3" x="90" y="318.931155" style="stroke: #000000; stroke-width: 0.8"/>
      </g>
     </g>
     <g id="text_7">
      <!-- 0.2 -->
      <g transform="translate(67.096875 322.730374) scale(0.1 -0.1)">
       <use xlink:href="#DejaVuSans-30"/>
       <use xlink:href="#DejaVuSans-2e" x="63.623047"/>
       <use xlink:href="#DejaVuSans-32" x="95.410156"/>
      </g>
     </g>
    </g>
    <g id="ytick_4">
     <g id="line2d_8">
      <g>
       <use xlink:href="#m661362fcb3" x="90" y="232.156733" style="stroke: #000000; stroke-width: 0.8"/>
      </g>
     </g>
     <g id="text_8">
      <!-- 0.3 -->
      <g transform="translate(67.096875 235.955951) scale(0.1 -0.1)">
       <defs>
        <path id="DejaVuSans-33" d="M 2597 2516 
Q 3050 2419 3304 2112 
Q 3559 1806 3559 1356 
Q 3559 666 3084 287 
Q 2609 -91 1734 -91 
Q 1441 -91 1130 -33 
Q 819 25 488 141 
L 488 750 
Q 750 597 1062 519 
Q 1375 441 1716 441 
Q 2309 441 2620 675 
Q 2931 909 2931 1356 
Q 2931 1769 2642 2001 
Q 2353 2234 1838 2234 
L 1294 2234 
L 1294 2753 
L 1863 2753 
Q 2328 2753 2575 2939 
Q 2822 3125 2822 3475 
Q 2822 3834 2567 4026 
Q 2313 4219 1838 4219 
Q 1578 4219 1281 4162 
Q 984 4106 628 3988 
L 628 4550 
Q 988 4650 1302 4700 
Q 1616 4750 1894 4750 
Q 2613 4750 3031 4423 
Q 3450 4097 3450 3541 
Q 3450 3153 3228 2886 
Q 3006 2619 2597 2516 
z
" transform="scale(0.015625)"/>
       </defs>
       <use xlink:href="#DejaVuSans-30"/>
       <use xlink:href="#DejaVuSans-2e" x="63.623047"/>
       <use xlink:href="#DejaVuSans-33" x="95.410156"/>
      </g>
     </g>
    </g>
    <g id="ytick_5">
     <g id="line2d_9">
      <g>
       <use xlink:href="#m661362fcb3" x="90" y="145.38231" style="stroke: #000000; stroke-width: 0.8"/>
      </g>
     </g>
     <g id="text_9">
      <!-- 0.4 -->
      <g transform="translate(67.096875 149.181529) scale(0.1 -0.1)">
       <defs>
        <path id="DejaVuSans-34" d="M 2419 4116 
L 825 1625 
L 2419 1625 
L 2419 4116 
z
M 2253 4666 
L 3047 4666 
L 3047 1625 
L 3713 1625 
L 3713 1100 
L 3047 1100 
L 3047 0 
L 2419 0 
L 2419 1100 
L 313 1100 
L 313 1709 
L 2253 4666 
z
" transform="scale(0.015625)"/>
       </defs>
       <use xlink:href="#DejaVuSans-30"/>
       <use xlink:href="#DejaVuSans-2e" x="63.623047"/>
       <use xlink:href="#DejaVuSans-34" x="95.410156"/>
      </g>
     </g>
    </g>
   </g>
   <g id="line2d_10">
    <path d="M 97.459893 492.48 
L 105.621702 492.48 
L 105.784938 434.630385 
L 106.927591 434.630385 
L 107.090827 423.060462 
L 107.580536 423.060462 
L 107.743772 423.505459 
L 108.23348 423.505459 
L 108.396717 440.03392 
L 108.886425 440.03392 
L 109.049661 445.611099 
L 109.53937 445.611099 
L 109.702606 450.011037 
L 110.192314 450.011037 
L 110.355551 450.367253 
L 110.845259 450.367253 
L 111.008495 451.302323 
L 111.498204 451.302323 
L 111.66144 451.576232 
L 112.804093 451.576232 
L 112.967329 451.834029 
L 114.109983 451.834029 
L 114.273219 452.306656 
L 115.415872 452.306656 
L 115.579108 452.523809 
L 116.721761 452.523809 
L 116.884997 452.729534 
L 117.374706 452.729534 
L 117.537942 452.924708 
L 118.680595 452.924708 
L 118.843832 453.286494 
L 119.33354 453.286494 
L 119.496776 453.614626 
L 119.986485 453.614626 
L 120.149721 456.828493 
L 120.639429 456.828493 
L 120.802666 459.610901 
L 121.292374 459.610901 
L 121.618846 459.756985 
L 121.945319 459.756985 
L 122.108555 462.087992 
L 122.598263 462.087992 
L 122.7615 464.075934 
L 123.251208 464.075934 
L 123.577681 464.204147 
L 123.904153 464.204147 
L 124.067389 464.445187 
L 124.557098 464.445187 
L 124.88357 464.558617 
L 125.210042 464.558617 
L 125.373278 464.873702 
L 125.862987 464.873702 
L 126.026223 468.031651 
L 127.168876 468.122267 
L 127.332112 468.294285 
L 128.474766 468.375994 
L 128.638002 468.531503 
L 129.12771 468.531503 
L 129.454183 468.677294 
L 129.780655 468.677294 
L 129.943891 470.019449 
L 130.4336 470.019449 
L 130.596836 470.209994 
L 131.086544 470.209994 
L 131.413017 470.328079 
L 131.739489 470.328079 
L 131.902725 472.336746 
L 132.392434 472.336746 
L 132.55567 473.239083 
L 135.004213 473.239083 
L 135.167449 474.000262 
L 136.963047 474.108838 
L 137.289519 474.211701 
L 137.615991 474.211701 
L 137.779227 474.949814 
L 138.921881 474.949814 
L 139.085117 476.195688 
L 139.574825 476.195688 
L 139.738062 476.766629 
L 140.880715 476.766629 
L 141.043951 477.294476 
L 143.492493 477.382661 
L 143.65573 478.239693 
L 144.145438 478.239693 
L 144.308674 478.622296 
L 144.798383 478.622296 
L 144.961619 479.310982 
L 146.757217 479.394968 
L 146.920453 480.038079 
L 147.410162 480.038079 
L 147.573398 480.351557 
L 148.063106 480.351557 
L 148.226342 481.001902 
L 148.716051 481.001902 
L 148.879287 481.266781 
L 149.368996 481.266781 
L 149.532232 481.689658 
L 150.674885 481.791101 
L 150.838121 482.081444 
L 151.980774 482.081444 
L 152.144011 482.266859 
L 154.592553 482.3271 
L 154.755789 482.561327 
L 155.245498 482.561327 
L 155.408734 482.945067 
L 156.551387 482.972069 
L 156.714623 483.488745 
L 157.204332 483.488745 
L 157.367568 483.647563 
L 157.857277 483.647563 
L 158.020513 483.871426 
L 159.163166 483.871426 
L 159.326402 484.112466 
L 161.122 484.157775 
L 161.448472 484.293268 
L 161.774945 484.293268 
L 162.101417 484.424019 
L 162.427889 484.424019 
L 162.591126 484.651348 
L 163.080834 484.651348 
L 163.24407 484.84265 
L 165.039668 484.904455 
L 165.529377 484.963245 
L 166.345558 484.98221 
L 166.67203 485.091488 
L 166.998502 485.091488 
L 167.161738 485.263506 
L 168.957336 485.363579 
L 169.610281 485.399448 
L 173.201477 485.687884 
L 174.180894 485.761937 
L 174.507366 485.849199 
L 174.833838 485.849199 
L 174.997075 486.016532 
L 176.139728 486.046049 
L 176.302964 486.203638 
L 176.792673 486.203638 
L 176.955909 486.411269 
L 177.445617 486.411269 
L 177.608853 486.590091 
L 178.098562 486.590091 
L 178.261798 486.804017 
L 180.057396 486.868743 
L 180.547104 486.915684 
L 181.363285 486.986165 
L 181.689758 487.086468 
L 182.669175 487.182416 
L 183.158883 487.222927 
L 183.322119 487.222927 
L 183.648592 487.350746 
L 184.628009 487.399338 
L 184.791245 487.606321 
L 185.280953 487.606321 
L 185.607426 487.753961 
L 185.933898 487.753961 
L 186.097134 487.918748 
L 187.239788 488.008786 
L 187.729496 488.059319 
L 188.545677 488.165404 
L 188.872149 488.231209 
L 189.851566 488.296267 
L 190.178039 488.358072 
L 191.8104 488.464556 
L 192.136873 488.563506 
L 194.422179 488.655747 
L 194.911888 488.712045 
L 195.728068 488.808872 
L 196.054541 488.878252 
L 197.033958 488.944746 
L 197.523666 489.00371 
L 198.992792 489.102838 
L 199.319264 489.163478 
L 200.951626 489.239987 
L 201.767807 489.322157 
L 204.216349 489.416086 
L 204.706058 489.465691 
L 205.522239 489.512651 
L 205.848711 489.580252 
L 207.481073 489.691273 
L 208.134017 489.729177 
L 208.786962 489.766115 
L 210.092852 489.807251 
L 212.867866 489.894144 
L 216.622298 489.994067 
L 218.417896 490.055557 
L 221.192911 490.147728 
L 222.335564 490.182065 
L 227.069413 490.271653 
L 228.04883 490.323466 
L 233.59886 490.420883 
L 234.578277 490.460597 
L 239.475362 490.56472 
L 241.107724 490.620683 
L 246.657754 490.720984 
L 246.657754 490.720984 
" clip-path="url(#pb3c5cbb55d)" style="fill: none; stroke: #0000ff; stroke-width: 1.5; stroke-linecap: square"/>
   </g>
   <g id="line2d_11">
    <path d="M 97.459893 492.48 
L 104.315812 492.48 
L 104.479048 481.355074 
L 104.968757 481.355074 
L 105.131993 440.828558 
L 105.621702 440.828558 
L 105.784938 441.897209 
L 106.274646 441.897209 
L 106.437882 428.5286 
L 106.927591 428.5286 
L 107.090827 429.526007 
L 107.580536 429.526007 
L 107.743772 355.406188 
L 108.23348 355.406188 
L 108.396717 300.109271 
L 108.886425 300.109271 
L 109.049661 277.320029 
L 109.53937 277.320029 
L 109.702606 247.634042 
L 110.192314 247.634042 
L 110.355551 232.039152 
L 110.845259 232.039152 
L 111.008495 234.22279 
L 111.498204 234.22279 
L 111.66144 239.748293 
L 112.151149 239.748293 
L 112.314385 244.866118 
L 112.804093 244.866118 
L 112.967329 254.059938 
L 113.457038 254.059938 
L 113.620274 239.226704 
L 115.415872 239.226704 
L 115.579108 228.251737 
L 117.374706 228.251737 
L 117.537942 214.73298 
L 118.027651 214.73298 
L 118.190887 214.542267 
L 118.680595 214.542267 
L 118.843832 206.713615 
L 119.33354 206.713615 
L 119.496776 213.944817 
L 119.986485 213.944817 
L 120.149721 197.829303 
L 120.639429 197.829303 
L 120.802666 177.155773 
L 121.292374 177.155773 
L 121.45561 177.315857 
L 121.945319 177.315857 
L 122.108555 165.210281 
L 122.598263 165.210281 
L 122.7615 143.262459 
L 123.251208 143.262459 
L 123.414444 130.843948 
L 123.904153 130.843948 
L 124.067389 139.958909 
L 124.557098 139.958909 
L 124.720334 154.943733 
L 125.210042 154.943733 
L 125.373278 156.966447 
L 125.862987 156.966447 
L 126.026223 162.97992 
L 126.515932 162.97992 
L 126.679168 170.926296 
L 127.168876 170.926296 
L 127.332112 178.925364 
L 127.821821 178.925364 
L 127.985057 182.571348 
L 128.474766 182.571348 
L 128.638002 184.317313 
L 129.12771 184.317313 
L 129.290947 192.173639 
L 129.780655 192.173639 
L 129.943891 198.860756 
L 130.4336 198.860756 
L 130.596836 196.567618 
L 131.086544 196.567618 
L 131.249781 198.860811 
L 131.739489 198.860811 
L 131.902725 203.148085 
L 132.392434 203.148085 
L 132.55567 206.066103 
L 133.045378 206.066103 
L 133.208615 207.659192 
L 133.698323 207.659192 
L 133.861559 207.311065 
L 134.351268 207.311065 
L 134.514504 210.203545 
L 135.004213 210.203545 
L 135.167449 208.138158 
L 136.310102 208.138158 
L 136.473338 210.808141 
L 137.615991 210.808141 
L 137.779227 208.794388 
L 138.268936 208.794388 
L 138.432172 196.673545 
L 138.921881 196.673545 
L 139.085117 183.181453 
L 139.574825 183.181453 
L 139.738062 169.00717 
L 140.22777 169.00717 
L 140.391006 156.640256 
L 140.880715 156.640256 
L 141.043951 140.233211 
L 141.533659 140.233211 
L 141.696896 118.906164 
L 142.186604 118.906164 
L 142.34984 99.161821 
L 142.839549 99.161821 
L 143.002785 92.086759 
L 143.492493 92.086759 
L 143.65573 89.28 
L 144.145438 89.28 
L 144.308674 92.357107 
L 144.798383 92.357107 
L 144.961619 96.734847 
L 145.451328 96.734847 
L 145.614564 94.426224 
L 146.104272 94.426224 
L 146.267508 90.171803 
L 146.757217 90.171803 
L 146.920453 93.699218 
L 147.410162 93.699218 
L 147.573398 97.058661 
L 148.063106 97.058661 
L 148.226342 100.261852 
L 148.716051 100.261852 
L 148.879287 103.594318 
L 149.368996 103.594318 
L 149.532232 105.519676 
L 150.02194 105.519676 
L 150.185177 109.894634 
L 151.32783 109.894634 
L 151.491066 111.186171 
L 151.980774 111.186171 
L 152.144011 112.452629 
L 152.633719 112.452629 
L 152.796955 116.61643 
L 153.286664 116.61643 
L 153.4499 124.500742 
L 153.939608 124.500742 
L 154.102845 136.7319 
L 154.592553 136.7319 
L 154.755789 148.026933 
L 155.245498 148.026933 
L 155.408734 155.745744 
L 155.898443 155.745744 
L 156.061679 163.995113 
L 156.551387 163.995113 
L 156.714623 167.557281 
L 157.204332 167.557281 
L 157.367568 175.473211 
L 157.857277 175.473211 
L 158.020513 176.50608 
L 158.510221 176.50608 
L 158.673457 180.462491 
L 159.163166 180.462491 
L 159.326402 185.672635 
L 159.816111 185.672635 
L 159.979347 194.017439 
L 160.469055 194.017439 
L 160.632292 201.384579 
L 161.122 201.384579 
L 161.285236 205.01384 
L 161.774945 205.01384 
L 161.938181 207.770452 
L 162.427889 207.770452 
L 162.591126 211.799592 
L 163.080834 211.799592 
L 163.24407 212.513708 
L 163.733779 212.513708 
L 163.897015 216.985388 
L 164.386723 216.985388 
L 164.54996 221.20479 
L 165.039668 221.20479 
L 165.202904 223.760269 
L 165.692613 223.760269 
L 165.855849 225.588784 
L 166.345558 225.588784 
L 166.508794 229.559311 
L 166.998502 229.559311 
L 167.161738 231.713235 
L 167.651447 231.713235 
L 167.814683 233.812917 
L 168.304392 233.812917 
L 168.467628 235.464201 
L 168.957336 235.464201 
L 169.120572 237.772272 
L 170.263226 237.772272 
L 170.426462 240.202484 
L 170.91617 240.202484 
L 171.079406 245.315591 
L 171.569115 245.315591 
L 171.732351 249.272744 
L 172.22206 249.272744 
L 172.385296 251.667254 
L 172.875004 251.667254 
L 173.038241 257.150248 
L 173.527949 257.150248 
L 173.691185 261.242456 
L 174.180894 261.242456 
L 174.34413 263.325241 
L 174.833838 263.325241 
L 174.997075 265.5151 
L 175.486783 265.5151 
L 175.650019 270.65361 
L 176.139728 270.65361 
L 176.302964 272.612192 
L 176.792673 272.612192 
L 176.955909 274.069627 
L 177.445617 274.069627 
L 177.608853 275.980215 
L 178.098562 275.980215 
L 178.261798 277.139837 
L 178.751507 277.139837 
L 178.914743 279.656653 
L 179.404451 279.656653 
L 179.567687 280.816414 
L 180.057396 280.816414 
L 180.220632 281.95748 
L 180.710341 281.95748 
L 180.873577 282.404631 
L 181.363285 282.404631 
L 181.526521 283.728135 
L 182.01623 283.728135 
L 182.179466 285.425699 
L 182.669175 285.425699 
L 182.832411 287.214862 
L 183.975064 287.214862 
L 184.1383 290.308801 
L 184.628009 290.308801 
L 184.791245 293.218359 
L 185.280953 293.218359 
L 185.44419 296.940556 
L 185.933898 296.940556 
L 186.097134 298.548501 
L 186.586843 298.548501 
L 186.750079 301.612706 
L 187.239788 301.612706 
L 187.403024 305.367778 
L 187.892732 305.367778 
L 188.055968 307.736163 
L 188.545677 307.736163 
L 188.708913 311.116306 
L 189.198622 311.116306 
L 189.361858 314.81534 
L 189.851566 314.81534 
L 190.014802 317.447442 
L 190.504511 317.447442 
L 190.667747 319.88871 
L 191.157456 319.88871 
L 191.320692 322.387343 
L 191.8104 322.387343 
L 191.973636 324.704739 
L 192.463345 324.704739 
L 192.626581 326.281585 
L 193.11629 326.281585 
L 193.279526 327.983073 
L 193.769234 327.983073 
L 193.932471 330.515188 
L 194.422179 330.515188 
L 194.585415 331.865143 
L 195.075124 331.865143 
L 195.23836 334.110168 
L 195.728068 334.110168 
L 195.891305 334.728792 
L 196.381013 334.728792 
L 196.544249 335.762378 
L 197.033958 335.762378 
L 197.197194 336.984086 
L 197.686902 336.984086 
L 197.850139 338.111237 
L 198.339847 338.111237 
L 198.503083 339.467156 
L 198.992792 339.467156 
L 199.156028 340.134333 
L 199.645737 340.134333 
L 199.808973 341.037024 
L 200.298681 341.037024 
L 200.461917 342.10233 
L 200.951626 342.10233 
L 201.114862 343.59176 
L 201.604571 343.59176 
L 201.767807 344.377664 
L 202.257515 344.377664 
L 202.420751 344.934855 
L 202.91046 344.934855 
L 203.073696 345.484661 
L 203.563405 345.484661 
L 203.726641 345.9482 
L 204.216349 345.9482 
L 204.379586 346.397692 
L 204.869294 346.397692 
L 205.03253 348.413941 
L 205.522239 348.413941 
L 205.685475 349.430278 
L 206.175183 349.430278 
L 206.33842 350.933364 
L 206.828128 350.933364 
L 206.991364 351.487253 
L 207.481073 351.487253 
L 207.644309 352.648517 
L 208.134017 352.648517 
L 208.297254 354.190955 
L 208.786962 354.190955 
L 208.950198 356.196563 
L 209.439907 356.196563 
L 209.603143 357.458299 
L 210.092852 357.458299 
L 210.256088 358.805898 
L 210.745796 358.805898 
L 210.909032 359.844055 
L 211.398741 359.844055 
L 211.561977 361.739264 
L 212.051686 361.739264 
L 212.214922 362.517944 
L 212.70463 362.517944 
L 212.867866 363.370965 
L 213.357575 363.370965 
L 213.520811 365.19954 
L 214.01052 365.19954 
L 214.173756 366.780397 
L 214.663464 366.780397 
L 214.826701 367.434966 
L 215.316409 367.434966 
L 215.479645 368.176981 
L 215.969354 368.176981 
L 216.13259 368.816916 
L 216.622298 368.816916 
L 216.785535 369.182762 
L 217.275243 369.182762 
L 217.438479 369.998974 
L 217.928188 369.998974 
L 218.091424 370.309951 
L 218.581132 370.309951 
L 218.744369 370.667139 
L 219.234077 370.667139 
L 219.397313 371.086947 
L 219.887022 371.086947 
L 220.050258 371.331314 
L 220.539967 371.331314 
L 220.703203 372.1032 
L 221.192911 372.1032 
L 221.356147 372.259586 
L 221.845856 372.259586 
L 222.009092 373.29322 
L 222.498801 373.29322 
L 222.662037 373.781993 
L 223.80469 373.856578 
L 223.967926 374.115279 
L 224.457635 374.115279 
L 224.784107 374.262856 
L 225.110579 374.262856 
L 225.273816 375.345985 
L 225.763524 375.345985 
L 225.92676 376.408638 
L 226.416469 376.408638 
L 226.579705 377.244363 
L 227.069413 377.244363 
L 227.23265 378.091996 
L 227.722358 378.091996 
L 227.885594 378.940957 
L 228.375303 378.940957 
L 228.538539 380.269494 
L 229.028247 380.269494 
L 229.191484 381.525117 
L 229.681192 381.525117 
L 229.844428 382.279878 
L 230.334137 382.279878 
L 230.497373 383.46992 
L 230.987082 383.46992 
L 231.150318 384.634465 
L 231.640026 384.634465 
L 231.803262 385.954317 
L 232.292971 385.954317 
L 232.456207 387.507575 
L 232.945916 387.507575 
L 233.109152 388.421291 
L 233.59886 388.421291 
L 233.762096 389.830226 
L 234.251805 389.830226 
L 234.415041 390.691608 
L 234.90475 390.691608 
L 235.067986 391.636475 
L 235.557694 391.636475 
L 235.720931 392.741573 
L 236.210639 392.741573 
L 236.373875 393.869664 
L 236.863584 393.869664 
L 237.02682 394.659226 
L 237.516528 394.659226 
L 237.679765 395.481834 
L 238.169473 395.481834 
L 238.332709 395.9977 
L 238.822418 395.9977 
L 238.985654 396.714233 
L 239.475362 396.714233 
L 239.638599 397.060757 
L 240.128307 397.060757 
L 240.291543 397.496037 
L 240.781252 397.496037 
L 240.944488 397.988475 
L 241.434197 397.988475 
L 241.760669 398.12919 
L 242.087141 398.12919 
L 242.250377 398.828334 
L 242.740086 398.828334 
L 242.903322 399.362992 
L 243.393031 399.362992 
L 243.556267 399.55365 
L 244.69892 399.55365 
L 244.862156 399.797709 
L 246.004809 399.797709 
L 246.331282 399.939258 
L 246.657754 399.939258 
L 246.657754 399.939258 
" clip-path="url(#pb3c5cbb55d)" style="fill: none; stroke: #ff0000; stroke-width: 1.5; stroke-linecap: square"/>
   </g>
   <g id="line2d_12">
    <path d="M 97.459893 492.48 
L 104.315812 492.48 
L 104.479048 394.61411 
L 104.968757 394.61411 
L 105.131993 380.912885 
L 105.621702 380.912885 
L 105.784938 368.516539 
L 106.274646 368.516539 
L 106.437882 378.846828 
L 106.927591 378.846828 
L 107.090827 377.898637 
L 107.580536 377.898637 
L 107.743772 379.994638 
L 108.23348 379.994638 
L 108.396717 381.922958 
L 108.886425 381.922958 
L 109.049661 388.350693 
L 109.53937 388.350693 
L 109.702606 390.130681 
L 110.192314 390.130681 
L 110.355551 391.778818 
L 110.845259 391.778818 
L 111.008495 399.993155 
L 112.151149 399.993155 
L 112.314385 402.567109 
L 113.457038 402.567109 
L 113.620274 408.115978 
L 114.109983 408.115978 
L 114.273219 411.824287 
L 114.762927 411.824287 
L 114.926163 416.098474 
L 116.068817 416.098474 
L 116.232053 418.101924 
L 116.721761 418.101924 
L 116.884997 419.020171 
L 118.027651 419.020171 
L 118.190887 419.888784 
L 118.680595 419.888784 
L 118.843832 424.247121 
L 119.33354 424.247121 
L 119.496776 425.694266 
L 119.986485 425.694266 
L 120.149721 426.366154 
L 120.639429 426.366154 
L 120.802666 427.006792 
L 121.292374 427.006792 
L 121.45561 429.296733 
L 121.945319 429.296733 
L 122.108555 430.301502 
L 122.598263 430.301502 
L 122.7615 430.773744 
L 123.251208 430.773744 
L 123.414444 432.083547 
L 123.904153 432.083547 
L 124.067389 435.287767 
L 124.557098 435.287767 
L 124.720334 437.790238 
L 125.862987 437.790238 
L 126.026223 439.680748 
L 126.515932 439.680748 
L 126.679168 442.894616 
L 127.168876 442.894616 
L 127.332112 443.257082 
L 127.821821 443.257082 
L 127.985057 445.322525 
L 128.474766 445.322525 
L 128.638002 445.649359 
L 129.780655 445.649359 
L 129.943891 445.965477 
L 130.4336 445.965477 
L 130.596836 446.271398 
L 131.086544 446.271398 
L 131.249781 446.567607 
L 133.045378 446.567607 
L 133.208615 447.819763 
L 133.698323 447.819763 
L 133.861559 448.106716 
L 134.351268 448.106716 
L 134.514504 449.797807 
L 135.004213 449.797807 
L 135.167449 450.313401 
L 135.657157 450.313401 
L 135.820393 450.559989 
L 137.615991 450.559989 
L 137.779227 451.032327 
L 138.268936 451.032327 
L 138.432172 452.94943 
L 138.921881 452.94943 
L 139.085117 453.152411 
L 139.574825 453.152411 
L 139.738062 453.35012 
L 140.22777 453.35012 
L 140.391006 454.31428 
L 140.880715 454.31428 
L 141.043951 455.396913 
L 141.533659 455.396913 
L 141.696896 456.986189 
L 142.186604 456.986189 
L 142.34984 457.886385 
L 142.839549 457.886385 
L 143.002785 458.912939 
L 143.492493 458.912939 
L 143.65573 459.087133 
L 144.145438 459.087133 
L 144.308674 459.879168 
L 145.451328 459.879168 
L 145.614564 460.462329 
L 146.104272 460.462329 
L 146.267508 461.525741 
L 146.757217 461.525741 
L 146.920453 462.636945 
L 147.410162 462.636945 
L 147.573398 463.482699 
L 148.716051 463.482699 
L 148.879287 464.243878 
L 149.368996 464.243878 
L 149.532232 464.405922 
L 150.02194 464.405922 
L 150.185177 464.564197 
L 150.674885 464.564197 
L 150.838121 465.071576 
L 151.980774 465.071576 
L 152.144011 465.40752 
L 152.633719 465.40752 
L 152.796955 465.878961 
L 153.286664 465.878961 
L 153.4499 466.18472 
L 153.939608 466.18472 
L 154.102845 467.674043 
L 154.592553 467.674043 
L 154.755789 467.910164 
L 155.245498 467.910164 
L 155.408734 468.640873 
L 155.898443 468.640873 
L 156.061679 468.850777 
L 156.551387 468.850777 
L 156.714623 469.191105 
L 157.204332 469.191105 
L 157.367568 469.708934 
L 157.857277 469.708934 
L 158.020513 470.453925 
L 158.510221 470.453925 
L 158.673457 471.343373 
L 159.163166 471.343373 
L 159.326402 471.754207 
L 159.816111 471.754207 
L 160.142583 471.871075 
L 160.469055 471.871075 
L 160.795528 471.985628 
L 161.122 471.985628 
L 161.285236 472.236997 
L 161.774945 472.236997 
L 161.938181 472.561085 
L 162.427889 472.561085 
L 162.754362 472.695933 
L 163.080834 472.695933 
L 163.24407 472.901895 
L 164.386723 472.901895 
L 164.713196 473.032717 
L 165.692613 473.132837 
L 165.855849 473.327617 
L 167.651447 473.327617 
L 167.977919 473.454592 
L 168.304392 473.454592 
L 168.467628 473.672644 
L 169.610281 473.672644 
L 169.773517 473.857128 
L 170.263226 473.857128 
L 170.426462 474.035195 
L 170.91617 474.035195 
L 171.079406 474.722707 
L 171.569115 474.722707 
L 171.732351 475.020882 
L 172.22206 475.020882 
L 172.385296 475.51078 
L 172.875004 475.51078 
L 173.038241 475.797785 
L 173.527949 475.797785 
L 173.691185 476.09445 
L 174.180894 476.09445 
L 174.34413 476.416796 
L 174.833838 476.416796 
L 174.997075 476.678485 
L 175.486783 476.678485 
L 175.650019 476.892873 
L 176.139728 476.892873 
L 176.302964 477.064968 
L 177.445617 477.126165 
L 177.608853 477.387522 
L 178.751507 477.445308 
L 178.914743 477.694906 
L 179.404451 477.694906 
L 179.567687 477.906014 
L 180.057396 477.906014 
L 180.220632 478.234749 
L 180.710341 478.234749 
L 180.873577 478.390064 
L 181.363285 478.390064 
L 181.526521 478.580207 
L 182.669175 478.64782 
L 182.995647 478.795145 
L 183.975064 478.861319 
L 184.1383 479.037381 
L 184.628009 479.037381 
L 184.791245 479.313868 
L 185.280953 479.313868 
L 185.44419 479.540796 
L 185.933898 479.540796 
L 186.097134 480.037121 
L 186.586843 480.037121 
L 186.750079 480.218637 
L 187.239788 480.218637 
L 187.403024 480.48089 
L 188.545677 480.523131 
L 188.708913 480.731101 
L 189.198622 480.731101 
L 189.525094 480.848682 
L 189.851566 480.848682 
L 190.014802 481.210594 
L 190.504511 481.210594 
L 190.830983 481.348735 
L 191.157456 481.348735 
L 191.320692 481.521962 
L 191.8104 481.521962 
L 191.973636 481.679384 
L 192.463345 481.679384 
L 192.789817 481.829881 
L 193.11629 481.829881 
L 193.279526 482.011974 
L 193.769234 482.011974 
L 194.095707 482.160307 
L 194.422179 482.160307 
L 194.585415 482.313036 
L 195.728068 482.335216 
L 196.054541 482.458404 
L 198.339847 482.560302 
L 198.66632 482.636135 
L 199.645737 482.693133 
L 199.972209 482.766176 
L 202.257515 482.856154 
L 202.583988 482.926596 
L 204.869294 483.029337 
L 205.195766 483.094124 
L 206.828128 483.175699 
L 207.1546 483.299518 
L 208.134017 483.404055 
L 208.46049 483.47838 
L 209.439907 483.530856 
L 209.766379 483.639223 
L 210.745796 483.731633 
L 211.072269 483.821084 
L 212.70463 483.875532 
L 213.031103 484.001963 
L 215.316409 484.09279 
L 215.642881 484.183476 
L 216.622298 484.251087 
L 216.948771 484.32602 
L 217.928188 484.343402 
L 218.25466 484.457968 
L 221.192911 484.557167 
L 221.68262 484.609737 
L 223.80469 484.68453 
L 224.131162 484.762672 
L 225.110579 484.79007 
L 225.437052 484.911808 
L 227.069413 484.992678 
L 227.395886 485.121837 
L 228.375303 485.215779 
L 228.865011 485.26359 
L 229.681192 485.313944 
L 230.007664 485.390014 
L 230.987082 485.438651 
L 231.313554 485.518404 
L 232.945916 485.587023 
L 233.272388 485.663433 
L 234.90475 485.744022 
L 235.394458 485.796684 
L 238.169473 485.899545 
L 238.495945 485.963312 
L 242.740086 486.066549 
L 244.209211 486.13238 
L 246.657754 486.166565 
L 246.657754 486.166565 
" clip-path="url(#pb3c5cbb55d)" style="fill: none; stroke: #008000; stroke-width: 1.5; stroke-linecap: square"/>
   </g>
   <g id="patch_3">
    <path d="M 90 512.64 
L 90 69.12 
" style="fill: none; stroke: #000000; stroke-width: 0.8; stroke-linejoin: miter; stroke-linecap: square"/>
   </g>
   <g id="patch_4">
    <path d="M 254.117647 512.64 
L 254.117647 69.12 
" style="fill: none; stroke: #000000; stroke-width: 0.8; stroke-linejoin: miter; stroke-linecap: square"/>
   </g>
   <g id="patch_5">
    <path d="M 90 512.64 
L 254.117647 512.64 
" style="fill: none; stroke: #000000; stroke-width: 0.8; stroke-linejoin: miter; stroke-linecap: square"/>
   </g>
   <g id="patch_6">
    <path d="M 90 69.12 
L 254.117647 69.12 
" style="fill: none; stroke: #000000; stroke-width: 0.8; stroke-linejoin: miter; stroke-linecap: square"/>
   </g>
   <g id="legend_1">
    <g id="patch_7">
     <path d="M 169.273897 121.154375 
L 247.117647 121.154375 
Q 249.117647 121.154375 249.117647 119.154375 
L 249.117647 76.12 
Q 249.117647 74.12 247.117647 74.12 
L 169.273897 74.12 
Q 167.273897 74.12 167.273897 76.12 
L 167.273897 119.154375 
Q 167.273897 121.154375 169.273897 121.154375 
z
" style="fill: #ffffff; opacity: 0.8; stroke: #cccccc; stroke-linejoin: miter"/>
    </g>
    <g id="line2d_13">
     <path d="M 171.273897 82.218438 
L 181.273897 82.218438 
L 191.273897 82.218438 
" style="fill: none; stroke: #0000ff; stroke-width: 1.5; stroke-linecap: square"/>
    </g>
    <g id="text_10">
     <!-- O1 utility -->
     <g transform="translate(199.273897 85.718438) scale(0.1 -0.1)">
      <defs>
       <path id="DejaVuSans-4f" d="M 2522 4238 
Q 1834 4238 1429 3725 
Q 1025 3213 1025 2328 
Q 1025 1447 1429 934 
Q 1834 422 2522 422 
Q 3209 422 3611 934 
Q 4013 1447 4013 2328 
Q 4013 3213 3611 3725 
Q 3209 4238 2522 4238 
z
M 2522 4750 
Q 3503 4750 4090 4092 
Q 4678 3434 4678 2328 
Q 4678 1225 4090 567 
Q 3503 -91 2522 -91 
Q 1538 -91 948 565 
Q 359 1222 359 2328 
Q 359 3434 948 4092 
Q 1538 4750 2522 4750 
z
" transform="scale(0.015625)"/>
       <path id="DejaVuSans-20" transform="scale(0.015625)"/>
       <path id="DejaVuSans-75" d="M 544 1381 
L 544 3500 
L 1119 3500 
L 1119 1403 
Q 1119 906 1312 657 
Q 1506 409 1894 409 
Q 2359 409 2629 706 
Q 2900 1003 2900 1516 
L 2900 3500 
L 3475 3500 
L 3475 0 
L 2900 0 
L 2900 538 
Q 2691 219 2414 64 
Q 2138 -91 1772 -91 
Q 1169 -91 856 284 
Q 544 659 544 1381 
z
M 1991 3584 
L 1991 3584 
z
" transform="scale(0.015625)"/>
       <path id="DejaVuSans-74" d="M 1172 4494 
L 1172 3500 
L 2356 3500 
L 2356 3053 
L 1172 3053 
L 1172 1153 
Q 1172 725 1289 603 
Q 1406 481 1766 481 
L 2356 481 
L 2356 0 
L 1766 0 
Q 1100 0 847 248 
Q 594 497 594 1153 
L 594 3053 
L 172 3053 
L 172 3500 
L 594 3500 
L 594 4494 
L 1172 4494 
z
" transform="scale(0.015625)"/>
       <path id="DejaVuSans-69" d="M 603 3500 
L 1178 3500 
L 1178 0 
L 603 0 
L 603 3500 
z
M 603 4863 
L 1178 4863 
L 1178 4134 
L 603 4134 
L 603 4863 
z
" transform="scale(0.015625)"/>
       <path id="DejaVuSans-6c" d="M 603 4863 
L 1178 4863 
L 1178 0 
L 603 0 
L 603 4863 
z
" transform="scale(0.015625)"/>
       <path id="DejaVuSans-79" d="M 2059 -325 
Q 1816 -950 1584 -1140 
Q 1353 -1331 966 -1331 
L 506 -1331 
L 506 -850 
L 844 -850 
Q 1081 -850 1212 -737 
Q 1344 -625 1503 -206 
L 1606 56 
L 191 3500 
L 800 3500 
L 1894 763 
L 2988 3500 
L 3597 3500 
L 2059 -325 
z
" transform="scale(0.015625)"/>
      </defs>
      <use xlink:href="#DejaVuSans-4f"/>
      <use xlink:href="#DejaVuSans-31" x="78.710938"/>
      <use xlink:href="#DejaVuSans-20" x="142.333984"/>
      <use xlink:href="#DejaVuSans-75" x="174.121094"/>
      <use xlink:href="#DejaVuSans-74" x="237.5"/>
      <use xlink:href="#DejaVuSans-69" x="276.708984"/>
      <use xlink:href="#DejaVuSans-6c" x="304.492188"/>
      <use xlink:href="#DejaVuSans-69" x="332.275391"/>
      <use xlink:href="#DejaVuSans-74" x="360.058594"/>
      <use xlink:href="#DejaVuSans-79" x="399.267578"/>
     </g>
    </g>
    <g id="line2d_14">
     <path d="M 171.273897 96.896563 
L 181.273897 96.896563 
L 191.273897 96.896563 
" style="fill: none; stroke: #ff0000; stroke-width: 1.5; stroke-linecap: square"/>
    </g>
    <g id="text_11">
     <!-- O2 utility -->
     <g transform="translate(199.273897 100.396563) scale(0.1 -0.1)">
      <use xlink:href="#DejaVuSans-4f"/>
      <use xlink:href="#DejaVuSans-32" x="78.710938"/>
      <use xlink:href="#DejaVuSans-20" x="142.333984"/>
      <use xlink:href="#DejaVuSans-75" x="174.121094"/>
      <use xlink:href="#DejaVuSans-74" x="237.5"/>
      <use xlink:href="#DejaVuSans-69" x="276.708984"/>
      <use xlink:href="#DejaVuSans-6c" x="304.492188"/>
      <use xlink:href="#DejaVuSans-69" x="332.275391"/>
      <use xlink:href="#DejaVuSans-74" x="360.058594"/>
      <use xlink:href="#DejaVuSans-79" x="399.267578"/>
     </g>
    </g>
    <g id="line2d_15">
     <path d="M 171.273897 111.574688 
L 181.273897 111.574688 
L 191.273897 111.574688 
" style="fill: none; stroke: #008000; stroke-width: 1.5; stroke-linecap: square"/>
    </g>
    <g id="text_12">
     <!-- O3 utility -->
     <g transform="translate(199.273897 115.074688) scale(0.1 -0.1)">
      <use xlink:href="#DejaVuSans-4f"/>
      <use xlink:href="#DejaVuSans-33" x="78.710938"/>
      <use xlink:href="#DejaVuSans-20" x="142.333984"/>
      <use xlink:href="#DejaVuSans-75" x="174.121094"/>
      <use xlink:href="#DejaVuSans-74" x="237.5"/>
      <use xlink:href="#DejaVuSans-69" x="276.708984"/>
      <use xlink:href="#DejaVuSans-6c" x="304.492188"/>
      <use xlink:href="#DejaVuSans-69" x="332.275391"/>
      <use xlink:href="#DejaVuSans-74" x="360.058594"/>
      <use xlink:href="#DejaVuSans-79" x="399.267578"/>
     </g>
    </g>
   </g>
  </g>
  <g id="axes_2">
   <g id="patch_8">
    <path d="M 286.941176 512.64 
L 451.058824 512.64 
L 451.058824 69.12 
L 286.941176 69.12 
z
" style="fill: #ffffff"/>
   </g>
   <g id="matplotlib.axis_3">
    <g id="xtick_5">
     <g id="line2d_16">
      <g>
       <use xlink:href="#mea488a038c" x="294.237833" y="512.64" style="stroke: #000000; stroke-width: 0.8"/>
      </g>
     </g>
     <g id="text_13">
      <!-- 0 -->
      <g transform="translate(291.056583 527.238438) scale(0.1 -0.1)">
       <use xlink:href="#DejaVuSans-30"/>
      </g>
     </g>
    </g>
    <g id="xtick_6">
     <g id="line2d_17">
      <g>
       <use xlink:href="#mea488a038c" x="335.046876" y="512.64" style="stroke: #000000; stroke-width: 0.8"/>
      </g>
     </g>
     <g id="text_14">
      <!-- 250 -->
      <g transform="translate(325.503126 527.238438) scale(0.1 -0.1)">
       <use xlink:href="#DejaVuSans-32"/>
       <use xlink:href="#DejaVuSans-35" x="63.623047"/>
       <use xlink:href="#DejaVuSans-30" x="127.246094"/>
      </g>
     </g>
    </g>
    <g id="xtick_7">
     <g id="line2d_18">
      <g>
       <use xlink:href="#mea488a038c" x="375.855919" y="512.64" style="stroke: #000000; stroke-width: 0.8"/>
      </g>
     </g>
     <g id="text_15">
      <!-- 500 -->
      <g transform="translate(366.312169 527.238438) scale(0.1 -0.1)">
       <use xlink:href="#DejaVuSans-35"/>
       <use xlink:href="#DejaVuSans-30" x="63.623047"/>
       <use xlink:href="#DejaVuSans-30" x="127.246094"/>
      </g>
     </g>
    </g>
    <g id="xtick_8">
     <g id="line2d_19">
      <g>
       <use xlink:href="#mea488a038c" x="416.664962" y="512.64" style="stroke: #000000; stroke-width: 0.8"/>
      </g>
     </g>
     <g id="text_16">
      <!-- 750 -->
      <g transform="translate(407.121212 527.238438) scale(0.1 -0.1)">
       <use xlink:href="#DejaVuSans-37"/>
       <use xlink:href="#DejaVuSans-35" x="63.623047"/>
       <use xlink:href="#DejaVuSans-30" x="127.246094"/>
      </g>
     </g>
    </g>
   </g>
   <g id="matplotlib.axis_4">
    <g id="ytick_6">
     <g id="line2d_20">
      <g>
       <use xlink:href="#m661362fcb3" x="286.941176" y="492.48" style="stroke: #000000; stroke-width: 0.8"/>
      </g>
     </g>
     <g id="text_17">
      <!-- 0 -->
      <g transform="translate(273.578676 496.279219) scale(0.1 -0.1)">
       <use xlink:href="#DejaVuSans-30"/>
      </g>
     </g>
    </g>
    <g id="ytick_7">
     <g id="line2d_21">
      <g>
       <use xlink:href="#m661362fcb3" x="286.941176" y="400.739386" style="stroke: #000000; stroke-width: 0.8"/>
      </g>
     </g>
     <g id="text_18">
      <!-- 200 -->
      <g transform="translate(260.853676 404.538604) scale(0.1 -0.1)">
       <use xlink:href="#DejaVuSans-32"/>
       <use xlink:href="#DejaVuSans-30" x="63.623047"/>
       <use xlink:href="#DejaVuSans-30" x="127.246094"/>
      </g>
     </g>
    </g>
    <g id="ytick_8">
     <g id="line2d_22">
      <g>
       <use xlink:href="#m661362fcb3" x="286.941176" y="308.998771" style="stroke: #000000; stroke-width: 0.8"/>
      </g>
     </g>
     <g id="text_19">
      <!-- 400 -->
      <g transform="translate(260.853676 312.79799) scale(0.1 -0.1)">
       <use xlink:href="#DejaVuSans-34"/>
       <use xlink:href="#DejaVuSans-30" x="63.623047"/>
       <use xlink:href="#DejaVuSans-30" x="127.246094"/>
      </g>
     </g>
    </g>
    <g id="ytick_9">
     <g id="line2d_23">
      <g>
       <use xlink:href="#m661362fcb3" x="286.941176" y="217.258157" style="stroke: #000000; stroke-width: 0.8"/>
      </g>
     </g>
     <g id="text_20">
      <!-- 600 -->
      <g transform="translate(260.853676 221.057376) scale(0.1 -0.1)">
       <defs>
        <path id="DejaVuSans-36" d="M 2113 2584 
Q 1688 2584 1439 2293 
Q 1191 2003 1191 1497 
Q 1191 994 1439 701 
Q 1688 409 2113 409 
Q 2538 409 2786 701 
Q 3034 994 3034 1497 
Q 3034 2003 2786 2293 
Q 2538 2584 2113 2584 
z
M 3366 4563 
L 3366 3988 
Q 3128 4100 2886 4159 
Q 2644 4219 2406 4219 
Q 1781 4219 1451 3797 
Q 1122 3375 1075 2522 
Q 1259 2794 1537 2939 
Q 1816 3084 2150 3084 
Q 2853 3084 3261 2657 
Q 3669 2231 3669 1497 
Q 3669 778 3244 343 
Q 2819 -91 2113 -91 
Q 1303 -91 875 529 
Q 447 1150 447 2328 
Q 447 3434 972 4092 
Q 1497 4750 2381 4750 
Q 2619 4750 2861 4703 
Q 3103 4656 3366 4563 
z
" transform="scale(0.015625)"/>
       </defs>
       <use xlink:href="#DejaVuSans-36"/>
       <use xlink:href="#DejaVuSans-30" x="63.623047"/>
       <use xlink:href="#DejaVuSans-30" x="127.246094"/>
      </g>
     </g>
    </g>
    <g id="ytick_10">
     <g id="line2d_24">
      <g>
       <use xlink:href="#m661362fcb3" x="286.941176" y="125.517543" style="stroke: #000000; stroke-width: 0.8"/>
      </g>
     </g>
     <g id="text_21">
      <!-- 800 -->
      <g transform="translate(260.853676 129.316761) scale(0.1 -0.1)">
       <defs>
        <path id="DejaVuSans-38" d="M 2034 2216 
Q 1584 2216 1326 1975 
Q 1069 1734 1069 1313 
Q 1069 891 1326 650 
Q 1584 409 2034 409 
Q 2484 409 2743 651 
Q 3003 894 3003 1313 
Q 3003 1734 2745 1975 
Q 2488 2216 2034 2216 
z
M 1403 2484 
Q 997 2584 770 2862 
Q 544 3141 544 3541 
Q 544 4100 942 4425 
Q 1341 4750 2034 4750 
Q 2731 4750 3128 4425 
Q 3525 4100 3525 3541 
Q 3525 3141 3298 2862 
Q 3072 2584 2669 2484 
Q 3125 2378 3379 2068 
Q 3634 1759 3634 1313 
Q 3634 634 3220 271 
Q 2806 -91 2034 -91 
Q 1263 -91 848 271 
Q 434 634 434 1313 
Q 434 1759 690 2068 
Q 947 2378 1403 2484 
z
M 1172 3481 
Q 1172 3119 1398 2916 
Q 1625 2713 2034 2713 
Q 2441 2713 2670 2916 
Q 2900 3119 2900 3481 
Q 2900 3844 2670 4047 
Q 2441 4250 2034 4250 
Q 1625 4250 1398 4047 
Q 1172 3844 1172 3481 
z
" transform="scale(0.015625)"/>
       </defs>
       <use xlink:href="#DejaVuSans-38"/>
       <use xlink:href="#DejaVuSans-30" x="63.623047"/>
       <use xlink:href="#DejaVuSans-30" x="127.246094"/>
      </g>
     </g>
    </g>
   </g>
   <g id="line2d_25">
    <path d="M 294.40107 492.48 
L 294.727542 492.48 
L 294.890778 492.021297 
L 295.380487 492.021297 
L 295.543723 491.562594 
L 296.033431 491.562594 
L 296.196667 490.186485 
L 296.686376 490.186485 
L 296.849612 488.810375 
L 297.339321 488.810375 
L 297.502557 487.434266 
L 297.992265 487.434266 
L 298.155501 485.140751 
L 298.64521 485.140751 
L 298.808446 484.223345 
L 299.298155 484.223345 
L 299.461391 482.847235 
L 299.951099 482.847235 
L 300.114336 480.55372 
L 300.604044 480.55372 
L 300.76728 480.095017 
L 301.909933 480.095017 
L 302.07317 479.177611 
L 302.562878 479.177611 
L 302.726114 476.884096 
L 303.215823 476.884096 
L 303.379059 475.507986 
L 303.868767 475.507986 
L 304.032004 474.131877 
L 304.521712 474.131877 
L 304.684948 473.673174 
L 305.174657 473.673174 
L 305.337893 472.297065 
L 305.827602 472.297065 
L 305.990838 470.920956 
L 306.480546 470.920956 
L 306.643782 470.003549 
L 307.133491 470.003549 
L 307.296727 469.544846 
L 307.786436 469.544846 
L 307.949672 468.168737 
L 308.43938 468.168737 
L 308.602616 467.710034 
L 309.74527 467.710034 
L 309.908506 466.792628 
L 310.398214 466.792628 
L 310.561451 466.333925 
L 311.051159 466.333925 
L 311.214395 465.416519 
L 311.704104 465.416519 
L 311.86734 464.957816 
L 312.357048 464.957816 
L 312.520285 464.04041 
L 313.662938 464.04041 
L 313.826174 463.581706 
L 314.315882 463.581706 
L 314.479119 463.123003 
L 315.621772 463.123003 
L 315.785008 462.205597 
L 316.274717 462.205597 
L 316.437953 460.829488 
L 316.927661 460.829488 
L 317.090897 459.912082 
L 317.580606 459.912082 
L 317.743842 458.535973 
L 318.233551 458.535973 
L 318.396787 458.07727 
L 318.886495 458.07727 
L 319.049731 456.70116 
L 319.53944 456.70116 
L 319.702676 455.783754 
L 320.192385 455.783754 
L 320.355621 454.866348 
L 320.845329 454.866348 
L 321.008566 453.490239 
L 321.498274 453.490239 
L 321.66151 452.11413 
L 322.151219 452.11413 
L 322.314455 450.279317 
L 322.804163 450.279317 
L 322.9674 447.985802 
L 323.457108 447.985802 
L 323.620344 447.068396 
L 324.110053 447.068396 
L 324.273289 445.692287 
L 324.762997 445.692287 
L 324.926234 444.316177 
L 325.415942 444.316177 
L 325.579178 442.022662 
L 326.068887 442.022662 
L 326.232123 440.646553 
L 326.721832 440.646553 
L 326.885068 439.270444 
L 327.374776 439.270444 
L 327.538012 437.894334 
L 328.027721 437.894334 
L 328.190957 436.059522 
L 328.680666 436.059522 
L 328.843902 434.683413 
L 329.33361 434.683413 
L 329.496846 433.766007 
L 329.986555 433.766007 
L 330.149791 433.307304 
L 331.945389 433.307304 
L 332.108625 432.848601 
L 332.598334 432.848601 
L 332.76157 431.931195 
L 333.251278 431.931195 
L 333.414515 431.013788 
L 333.904223 431.013788 
L 334.067459 430.096382 
L 334.557168 430.096382 
L 334.720404 429.178976 
L 335.210112 429.178976 
L 335.373349 428.720273 
L 335.863057 428.720273 
L 336.026293 427.344164 
L 336.516002 427.344164 
L 336.679238 426.426758 
L 337.168947 426.426758 
L 337.332183 425.050648 
L 337.821891 425.050648 
L 337.985127 423.674539 
L 338.474836 423.674539 
L 338.638072 422.757133 
L 339.127781 422.757133 
L 339.291017 422.29843 
L 339.780725 422.29843 
L 339.943961 421.381024 
L 340.43367 421.381024 
L 340.596906 420.463618 
L 341.086615 420.463618 
L 341.249851 419.087509 
L 341.739559 419.087509 
L 341.902795 417.252696 
L 342.392504 417.252696 
L 342.55574 415.876587 
L 343.045449 415.876587 
L 343.208685 414.959181 
L 343.698393 414.959181 
L 343.86163 413.583072 
L 344.351338 413.583072 
L 344.514574 412.206962 
L 345.004283 412.206962 
L 345.167519 409.454744 
L 345.657227 409.454744 
L 345.820464 408.078635 
L 346.310172 408.078635 
L 346.473408 406.243823 
L 346.963117 406.243823 
L 347.126353 404.867713 
L 347.616062 404.867713 
L 347.779298 403.032901 
L 348.269006 403.032901 
L 348.432242 402.115495 
L 348.921951 402.115495 
L 349.085187 401.198089 
L 350.22784 401.198089 
L 350.391076 400.280683 
L 350.880785 400.280683 
L 351.044021 399.82198 
L 351.53373 399.82198 
L 351.696966 397.987167 
L 352.186674 397.987167 
L 352.34991 396.152355 
L 352.839619 396.152355 
L 353.002855 395.234949 
L 353.492564 395.234949 
L 353.6558 392.48273 
L 354.145508 392.48273 
L 354.308745 391.106621 
L 354.798453 391.106621 
L 354.961689 388.813106 
L 356.104342 388.813106 
L 356.267579 387.8957 
L 356.757287 387.8957 
L 356.920523 386.978294 
L 357.410232 386.978294 
L 357.573468 386.060887 
L 358.063176 386.060887 
L 358.226413 385.143481 
L 358.716121 385.143481 
L 358.879357 384.226075 
L 359.369066 384.226075 
L 359.532302 382.391263 
L 360.022011 382.391263 
L 360.185247 381.473857 
L 360.674955 381.473857 
L 360.838191 380.097747 
L 361.3279 380.097747 
L 361.491136 379.180341 
L 361.980845 379.180341 
L 362.144081 377.804232 
L 362.633789 377.804232 
L 362.797025 376.428123 
L 363.286734 376.428123 
L 363.44997 375.052014 
L 363.939679 375.052014 
L 364.102915 373.217201 
L 364.592623 373.217201 
L 364.75586 371.841092 
L 365.245568 371.841092 
L 365.408804 371.382389 
L 365.898513 371.382389 
L 366.061749 370.00628 
L 366.551457 370.00628 
L 366.714694 369.088874 
L 367.204402 369.088874 
L 367.367638 367.254061 
L 368.510291 367.254061 
L 368.673528 365.877952 
L 369.163236 365.877952 
L 369.326472 364.04314 
L 369.816181 364.04314 
L 369.979417 363.584437 
L 370.469126 363.584437 
L 370.632362 363.125734 
L 371.12207 363.125734 
L 371.285306 361.290922 
L 371.775015 361.290922 
L 371.938251 359.456109 
L 372.42796 359.456109 
L 372.591196 358.538703 
L 373.080904 358.538703 
L 373.24414 356.703891 
L 373.733849 356.703891 
L 373.897085 353.492969 
L 374.386794 353.492969 
L 374.55003 351.658157 
L 375.039738 351.658157 
L 375.202975 349.364642 
L 375.692683 349.364642 
L 375.855919 348.905939 
L 376.345628 348.905939 
L 376.508864 346.612423 
L 376.998572 346.612423 
L 377.161809 345.236314 
L 377.651517 345.236314 
L 377.814753 343.401502 
L 378.304462 343.401502 
L 378.467698 341.566689 
L 378.957406 341.566689 
L 379.120643 339.731877 
L 379.610351 339.731877 
L 379.773587 339.273174 
L 380.263296 339.273174 
L 380.426532 336.979659 
L 380.916241 336.979659 
L 381.079477 335.144846 
L 381.569185 335.144846 
L 381.732421 331.475222 
L 382.22213 331.475222 
L 382.385366 328.2643 
L 382.875075 328.2643 
L 383.038311 325.053379 
L 383.528019 325.053379 
L 383.691255 322.759863 
L 384.180964 322.759863 
L 384.3442 321.842457 
L 384.833909 321.842457 
L 384.997145 319.090239 
L 385.486853 319.090239 
L 385.65009 317.255427 
L 386.139798 317.255427 
L 386.303034 315.420614 
L 386.792743 315.420614 
L 386.955979 314.044505 
L 387.445687 314.044505 
L 387.608924 311.75099 
L 388.098632 311.75099 
L 388.261868 310.374881 
L 388.751577 310.374881 
L 388.914813 307.622662 
L 389.404521 307.622662 
L 389.567758 304.411741 
L 390.057466 304.411741 
L 390.220702 301.659522 
L 390.710411 301.659522 
L 390.873647 300.742116 
L 391.363356 300.742116 
L 391.526592 298.448601 
L 392.0163 298.448601 
L 392.179536 294.778976 
L 392.669245 294.778976 
L 392.832481 291.109352 
L 393.32219 291.109352 
L 393.485426 286.981024 
L 393.975134 286.981024 
L 394.13837 283.770102 
L 394.628079 283.770102 
L 394.791315 281.017884 
L 395.281024 281.017884 
L 395.44426 278.724369 
L 395.933968 278.724369 
L 396.097205 275.513447 
L 396.586913 275.513447 
L 396.750149 273.219932 
L 397.239858 273.219932 
L 397.403094 270.926416 
L 397.892802 270.926416 
L 398.056039 268.632901 
L 398.545747 268.632901 
L 398.708983 265.880683 
L 399.198692 265.880683 
L 399.361928 263.587167 
L 399.851636 263.587167 
L 400.014873 261.293652 
L 400.504581 261.293652 
L 400.667817 259.45884 
L 401.157526 259.45884 
L 401.320762 255.789215 
L 401.810471 255.789215 
L 401.973707 253.036997 
L 402.463415 253.036997 
L 402.626651 247.991263 
L 403.11636 247.991263 
L 403.279596 243.404232 
L 403.769305 243.404232 
L 403.932541 239.734608 
L 404.422249 239.734608 
L 404.585485 236.523686 
L 405.075194 236.523686 
L 405.23843 233.312765 
L 405.728139 233.312765 
L 405.891375 231.019249 
L 406.381083 231.019249 
L 406.544319 229.184437 
L 407.034028 229.184437 
L 407.197264 227.349625 
L 407.686973 227.349625 
L 407.850209 225.514812 
L 408.339917 225.514812 
L 408.503154 224.138703 
L 408.992862 224.138703 
L 409.156098 221.386485 
L 409.645807 221.386485 
L 409.809043 220.010375 
L 410.298751 220.010375 
L 410.461988 217.258157 
L 410.951696 217.258157 
L 411.114932 214.964642 
L 411.604641 214.964642 
L 411.767877 212.212423 
L 412.257586 212.212423 
L 412.420822 209.918908 
L 412.91053 209.918908 
L 413.073766 208.084096 
L 413.563475 208.084096 
L 413.726711 205.79058 
L 414.21642 205.79058 
L 414.379656 202.579659 
L 414.869364 202.579659 
L 415.0326 200.286143 
L 415.522309 200.286143 
L 415.685545 195.699113 
L 416.175254 195.699113 
L 416.33849 193.405597 
L 416.828198 193.405597 
L 416.991434 191.112082 
L 417.481143 191.112082 
L 417.644379 188.359863 
L 418.134088 188.359863 
L 418.297324 186.066348 
L 418.787032 186.066348 
L 418.950269 183.772833 
L 419.439977 183.772833 
L 419.603213 182.855427 
L 420.092922 182.855427 
L 420.256158 180.561911 
L 420.745866 180.561911 
L 420.909103 179.185802 
L 421.398811 179.185802 
L 421.562047 176.433584 
L 422.051756 176.433584 
L 422.214992 175.516177 
L 422.7047 175.516177 
L 422.867937 172.763959 
L 423.357645 172.763959 
L 423.520881 170.011741 
L 424.01059 170.011741 
L 424.173826 167.259522 
L 424.663535 167.259522 
L 424.826771 164.507304 
L 425.316479 164.507304 
L 425.479715 162.213788 
L 425.969424 162.213788 
L 426.13266 160.378976 
L 426.622369 160.378976 
L 426.785605 156.250648 
L 427.275313 156.250648 
L 427.438549 155.333242 
L 427.928258 155.333242 
L 428.091494 153.957133 
L 428.581203 153.957133 
L 428.744439 152.122321 
L 429.234147 152.122321 
L 429.397384 150.287509 
L 429.887092 150.287509 
L 430.050328 147.53529 
L 430.540037 147.53529 
L 430.703273 143.865666 
L 431.192981 143.865666 
L 431.356218 141.113447 
L 431.845926 141.113447 
L 432.009162 138.819932 
L 432.498871 138.819932 
L 432.662107 136.526416 
L 433.151815 136.526416 
L 433.315052 134.232901 
L 433.80476 134.232901 
L 433.967996 130.563276 
L 434.457705 130.563276 
L 434.620941 127.352355 
L 435.11065 127.352355 
L 435.273886 124.600137 
L 435.763594 124.600137 
L 435.92683 120.471809 
L 436.416539 120.471809 
L 436.579775 116.802184 
L 437.069484 116.802184 
L 437.23272 113.13256 
L 437.722428 113.13256 
L 437.885664 109.921638 
L 438.375373 109.921638 
L 438.538609 105.793311 
L 439.028318 105.793311 
L 439.191554 103.958498 
L 439.681262 103.958498 
L 439.844499 102.123686 
L 440.334207 102.123686 
L 440.497443 99.371468 
L 440.987152 99.371468 
L 441.150388 96.160546 
L 441.640096 96.160546 
L 441.803333 93.867031 
L 442.293041 93.867031 
L 442.456277 91.573515 
L 442.945986 91.573515 
L 443.109222 89.28 
L 443.59893 89.28 
L 443.59893 89.28 
" clip-path="url(#p3dbbf554c1)" style="fill: none; stroke: #0000ff; stroke-width: 1.5; stroke-linecap: square"/>
   </g>
   <g id="line2d_26">
    <path d="M 294.40107 492.48 
L 294.727542 492.48 
L 294.890778 492.021297 
L 295.380487 492.021297 
L 295.543723 489.269078 
L 296.033431 489.269078 
L 296.196667 487.892969 
L 296.686376 487.892969 
L 296.849612 486.058157 
L 297.339321 486.058157 
L 297.502557 484.223345 
L 297.992265 484.223345 
L 298.155501 482.388532 
L 298.64521 482.388532 
L 298.808446 479.636314 
L 299.298155 479.636314 
L 299.461391 478.718908 
L 299.951099 478.718908 
L 300.114336 477.342799 
L 300.604044 477.342799 
L 300.76728 475.507986 
L 301.256989 475.507986 
L 301.420225 473.214471 
L 301.909933 473.214471 
L 302.07317 470.920956 
L 302.562878 470.920956 
L 302.726114 469.544846 
L 303.215823 469.544846 
L 303.379059 468.168737 
L 303.868767 468.168737 
L 304.032004 467.251331 
L 304.521712 467.251331 
L 304.684948 465.416519 
L 305.174657 465.416519 
L 305.337893 463.581706 
L 305.827602 463.581706 
L 305.990838 462.205597 
L 306.480546 462.205597 
L 306.643782 460.370785 
L 307.133491 460.370785 
L 307.296727 458.994676 
L 307.786436 458.994676 
L 307.949672 458.535973 
L 308.43938 458.535973 
L 308.602616 457.618567 
L 309.092325 457.618567 
L 309.255561 456.70116 
L 309.74527 456.70116 
L 309.908506 454.866348 
L 310.398214 454.866348 
L 310.561451 454.407645 
L 312.357048 454.407645 
L 312.520285 453.490239 
L 314.315882 453.490239 
L 314.479119 452.572833 
L 314.968827 452.572833 
L 315.132063 451.655427 
L 315.621772 451.655427 
L 315.785008 451.196724 
L 316.274717 451.196724 
L 316.437953 450.73802 
L 316.927661 450.73802 
L 317.090897 448.444505 
L 317.580606 448.444505 
L 317.743842 446.15099 
L 318.233551 446.15099 
L 318.396787 445.233584 
L 318.886495 445.233584 
L 319.049731 443.857474 
L 319.53944 443.857474 
L 319.702676 441.105256 
L 320.192385 441.105256 
L 320.355621 439.270444 
L 320.845329 439.270444 
L 321.008566 438.353038 
L 321.498274 438.353038 
L 321.66151 436.518225 
L 322.151219 436.518225 
L 322.314455 436.059522 
L 322.804163 436.059522 
L 322.9674 435.142116 
L 323.457108 435.142116 
L 323.620344 433.766007 
L 324.110053 433.766007 
L 324.273289 432.389898 
L 324.762997 432.389898 
L 324.926234 431.472491 
L 325.415942 431.472491 
L 325.579178 431.013788 
L 326.068887 431.013788 
L 326.232123 429.637679 
L 326.721832 429.637679 
L 326.885068 428.26157 
L 327.374776 428.26157 
L 327.538012 427.802867 
L 328.027721 427.802867 
L 328.190957 427.344164 
L 328.680666 427.344164 
L 328.843902 426.426758 
L 329.33361 426.426758 
L 329.496846 425.050648 
L 329.986555 425.050648 
L 330.149791 423.674539 
L 330.6395 423.674539 
L 330.802736 422.757133 
L 331.292444 422.757133 
L 331.455681 422.29843 
L 331.945389 422.29843 
L 332.108625 421.839727 
L 333.251278 421.839727 
L 333.414515 421.381024 
L 334.557168 421.381024 
L 334.720404 420.922321 
L 335.210112 420.922321 
L 335.373349 419.546212 
L 335.863057 419.546212 
L 336.026293 418.170102 
L 336.516002 418.170102 
L 336.679238 415.876587 
L 337.168947 415.876587 
L 337.332183 413.583072 
L 337.821891 413.583072 
L 337.985127 412.206962 
L 338.474836 412.206962 
L 338.638072 410.37215 
L 339.127781 410.37215 
L 339.291017 408.078635 
L 339.780725 408.078635 
L 339.943961 407.161229 
L 340.43367 407.161229 
L 340.596906 405.326416 
L 341.086615 405.326416 
L 341.249851 404.40901 
L 341.739559 404.40901 
L 341.902795 403.032901 
L 342.392504 403.032901 
L 342.55574 402.115495 
L 343.045449 402.115495 
L 343.208685 400.739386 
L 343.698393 400.739386 
L 343.86163 400.280683 
L 344.351338 400.280683 
L 344.514574 399.82198 
L 345.004283 399.82198 
L 345.167519 399.363276 
L 345.657227 399.363276 
L 345.820464 398.44587 
L 346.310172 398.44587 
L 346.473408 397.987167 
L 346.963117 397.987167 
L 347.126353 397.069761 
L 348.269006 397.069761 
L 348.432242 396.611058 
L 348.921951 396.611058 
L 349.085187 396.152355 
L 349.574896 396.152355 
L 349.738132 395.234949 
L 350.22784 395.234949 
L 350.391076 393.400137 
L 350.880785 393.400137 
L 351.044021 390.647918 
L 351.53373 390.647918 
L 351.696966 387.436997 
L 352.186674 387.436997 
L 352.34991 385.602184 
L 352.839619 385.602184 
L 353.002855 382.849966 
L 353.492564 382.849966 
L 353.6558 381.93256 
L 354.145508 381.93256 
L 354.308745 379.639044 
L 354.798453 379.639044 
L 354.961689 379.180341 
L 355.451398 379.180341 
L 355.614634 377.345529 
L 356.104342 377.345529 
L 356.267579 375.052014 
L 356.757287 375.052014 
L 356.920523 371.841092 
L 357.410232 371.841092 
L 357.573468 368.630171 
L 358.063176 368.630171 
L 358.226413 366.795358 
L 358.716121 366.795358 
L 358.879357 365.419249 
L 359.369066 365.419249 
L 359.532302 363.584437 
L 360.022011 363.584437 
L 360.185247 363.125734 
L 360.674955 363.125734 
L 360.838191 361.290922 
L 361.3279 361.290922 
L 361.491136 359.456109 
L 361.980845 359.456109 
L 362.144081 358.08 
L 362.633789 358.08 
L 362.797025 357.162594 
L 363.286734 357.162594 
L 363.44997 355.327782 
L 363.939679 355.327782 
L 364.102915 354.410375 
L 364.592623 354.410375 
L 364.75586 353.492969 
L 365.245568 353.492969 
L 365.408804 352.575563 
L 365.898513 352.575563 
L 366.061749 351.199454 
L 367.204402 351.199454 
L 367.367638 349.364642 
L 367.857347 349.364642 
L 368.020583 346.612423 
L 368.510291 346.612423 
L 368.673528 344.318908 
L 369.163236 344.318908 
L 369.326472 342.942799 
L 369.816181 342.942799 
L 369.979417 339.731877 
L 370.469126 339.731877 
L 370.632362 336.979659 
L 371.12207 336.979659 
L 371.285306 335.603549 
L 371.775015 335.603549 
L 371.938251 334.22744 
L 372.42796 334.22744 
L 372.591196 331.016519 
L 373.080904 331.016519 
L 373.24414 329.64041 
L 373.733849 329.64041 
L 373.897085 328.2643 
L 374.386794 328.2643 
L 374.55003 326.888191 
L 375.039738 326.888191 
L 375.202975 325.970785 
L 375.692683 325.970785 
L 375.855919 324.135973 
L 376.345628 324.135973 
L 376.508864 323.218567 
L 376.998572 323.218567 
L 377.161809 322.30116 
L 377.651517 322.30116 
L 377.814753 321.842457 
L 378.304462 321.842457 
L 378.467698 320.925051 
L 378.957406 320.925051 
L 379.120643 319.548942 
L 379.610351 319.548942 
L 379.773587 318.172833 
L 380.916241 318.172833 
L 381.079477 315.420614 
L 381.569185 315.420614 
L 381.732421 313.127099 
L 382.22213 313.127099 
L 382.385366 309.457474 
L 382.875075 309.457474 
L 383.038311 308.081365 
L 383.528019 308.081365 
L 383.691255 304.870444 
L 384.180964 304.870444 
L 384.3442 301.200819 
L 384.833909 301.200819 
L 384.997145 298.448601 
L 385.486853 298.448601 
L 385.65009 294.778976 
L 386.139798 294.778976 
L 386.303034 290.191945 
L 386.792743 290.191945 
L 386.955979 287.439727 
L 387.445687 287.439727 
L 387.608924 283.770102 
L 388.098632 283.770102 
L 388.261868 279.641775 
L 388.751577 279.641775 
L 388.914813 276.430853 
L 389.404521 276.430853 
L 389.567758 274.137338 
L 390.057466 274.137338 
L 390.220702 271.843823 
L 390.710411 271.843823 
L 390.873647 268.174198 
L 391.363356 268.174198 
L 391.526592 266.339386 
L 392.0163 266.339386 
L 392.179536 263.587167 
L 392.669245 263.587167 
L 392.832481 262.211058 
L 393.32219 262.211058 
L 393.485426 260.376246 
L 393.975134 260.376246 
L 394.13837 258.08273 
L 394.628079 258.08273 
L 394.791315 256.247918 
L 395.281024 256.247918 
L 395.44426 254.413106 
L 395.933968 254.413106 
L 396.097205 253.036997 
L 396.586913 253.036997 
L 396.750149 251.660887 
L 397.239858 251.660887 
L 397.403094 249.826075 
L 397.892802 249.826075 
L 398.056039 247.073857 
L 398.545747 247.073857 
L 398.708983 245.239044 
L 399.198692 245.239044 
L 399.361928 244.321638 
L 399.851636 244.321638 
L 400.014873 243.404232 
L 400.504581 243.404232 
L 400.667817 242.028123 
L 401.157526 242.028123 
L 401.320762 240.652014 
L 401.810471 240.652014 
L 401.973707 236.982389 
L 402.463415 236.982389 
L 402.626651 235.147577 
L 403.11636 235.147577 
L 403.279596 232.395358 
L 403.769305 232.395358 
L 403.932541 231.019249 
L 404.422249 231.019249 
L 404.585485 228.267031 
L 405.075194 228.267031 
L 405.23843 225.056109 
L 405.728139 225.056109 
L 405.891375 221.386485 
L 406.381083 221.386485 
L 406.544319 218.634266 
L 407.034028 218.634266 
L 407.197264 215.423345 
L 407.686973 215.423345 
L 407.850209 213.129829 
L 408.339917 213.129829 
L 408.503154 208.542799 
L 408.992862 208.542799 
L 409.156098 205.79058 
L 409.645807 205.79058 
L 409.809043 203.497065 
L 410.298751 203.497065 
L 410.461988 199.368737 
L 410.951696 199.368737 
L 411.114932 195.699113 
L 411.604641 195.699113 
L 411.767877 193.405597 
L 412.257586 193.405597 
L 412.420822 191.112082 
L 412.91053 191.112082 
L 413.073766 189.27727 
L 413.563475 189.27727 
L 413.726711 188.359863 
L 414.21642 188.359863 
L 414.379656 186.525051 
L 414.869364 186.525051 
L 415.0326 185.607645 
L 415.522309 185.607645 
L 415.685545 184.690239 
L 416.175254 184.690239 
L 416.33849 182.396724 
L 416.828198 182.396724 
L 416.991434 181.020614 
L 417.481143 181.020614 
L 417.644379 178.727099 
L 418.134088 178.727099 
L 418.297324 177.809693 
L 418.787032 177.809693 
L 418.950269 175.057474 
L 419.439977 175.057474 
L 419.603213 173.222662 
L 420.092922 173.222662 
L 420.256158 172.763959 
L 420.745866 172.763959 
L 420.909103 172.305256 
L 421.398811 172.305256 
L 421.562047 171.38785 
L 422.051756 171.38785 
L 422.214992 168.635631 
L 422.7047 168.635631 
L 422.867937 165.883413 
L 423.357645 165.883413 
L 423.520881 163.589898 
L 424.01059 163.589898 
L 424.173826 161.296382 
L 424.663535 161.296382 
L 424.826771 158.544164 
L 425.316479 158.544164 
L 425.479715 154.415836 
L 425.969424 154.415836 
L 426.13266 150.746212 
L 426.622369 150.746212 
L 426.785605 148.452696 
L 427.275313 148.452696 
L 427.438549 144.783072 
L 427.928258 144.783072 
L 428.091494 141.113447 
L 428.581203 141.113447 
L 428.744439 137.902526 
L 429.234147 137.902526 
L 429.397384 133.774198 
L 429.887092 133.774198 
L 430.050328 131.480683 
L 430.540037 131.480683 
L 430.703273 127.811058 
L 431.192981 127.811058 
L 431.356218 125.517543 
L 431.845926 125.517543 
L 432.009162 122.306621 
L 432.498871 122.306621 
L 432.662107 118.636997 
L 433.151815 118.636997 
L 433.315052 114.508669 
L 433.80476 114.508669 
L 433.967996 112.215154 
L 434.457705 112.215154 
L 434.620941 109.462935 
L 435.11065 109.462935 
L 435.273886 107.628123 
L 435.763594 107.628123 
L 435.92683 104.875904 
L 436.416539 104.875904 
L 436.579775 103.499795 
L 437.069484 103.499795 
L 437.23272 102.123686 
L 437.722428 102.123686 
L 437.885664 100.288874 
L 438.375373 100.288874 
L 438.538609 99.830171 
L 439.028318 99.830171 
L 439.191554 97.536655 
L 439.681262 97.536655 
L 439.844499 95.24314 
L 440.334207 95.24314 
L 440.497443 94.325734 
L 441.640096 94.325734 
L 441.803333 92.949625 
L 442.945986 92.949625 
L 443.109222 92.490922 
L 443.59893 92.490922 
L 443.59893 92.490922 
" clip-path="url(#p3dbbf554c1)" style="fill: none; stroke: #ff0000; stroke-width: 1.5; stroke-linecap: square"/>
   </g>
   <g id="line2d_27">
    <path d="M 294.40107 492.48 
L 294.727542 492.48 
L 294.890778 491.562594 
L 295.380487 491.562594 
L 295.543723 491.103891 
L 296.033431 491.103891 
L 296.196667 489.269078 
L 296.686376 489.269078 
L 296.849612 487.892969 
L 297.339321 487.892969 
L 297.502557 486.51686 
L 297.992265 486.51686 
L 298.155501 486.058157 
L 298.64521 486.058157 
L 298.808446 485.140751 
L 299.298155 485.140751 
L 299.461391 482.847235 
L 299.951099 482.847235 
L 300.114336 481.929829 
L 300.604044 481.929829 
L 300.76728 480.095017 
L 301.256989 480.095017 
L 301.420225 478.260205 
L 301.909933 478.260205 
L 302.07317 477.342799 
L 302.562878 477.342799 
L 302.726114 476.884096 
L 303.215823 476.884096 
L 303.379059 475.507986 
L 303.868767 475.507986 
L 304.032004 473.673174 
L 304.521712 473.673174 
L 304.684948 471.838362 
L 305.174657 471.838362 
L 305.337893 471.379659 
L 305.827602 471.379659 
L 305.990838 470.462253 
L 306.480546 470.462253 
L 306.643782 469.544846 
L 307.133491 469.544846 
L 307.296727 468.168737 
L 307.786436 468.168737 
L 307.949672 466.792628 
L 308.43938 466.792628 
L 308.602616 465.416519 
L 309.092325 465.416519 
L 309.255561 463.581706 
L 310.398214 463.581706 
L 310.561451 462.205597 
L 311.051159 462.205597 
L 311.214395 461.288191 
L 311.704104 461.288191 
L 311.86734 459.912082 
L 313.009993 459.912082 
L 313.173229 458.535973 
L 313.662938 458.535973 
L 313.826174 457.618567 
L 314.968827 457.618567 
L 315.132063 457.159863 
L 315.621772 457.159863 
L 315.785008 455.783754 
L 316.274717 455.783754 
L 316.437953 453.948942 
L 316.927661 453.948942 
L 317.090897 452.572833 
L 317.580606 452.572833 
L 317.743842 451.655427 
L 318.233551 451.655427 
L 318.396787 448.903208 
L 318.886495 448.903208 
L 319.049731 447.527099 
L 319.53944 447.527099 
L 319.702676 447.068396 
L 320.192385 447.068396 
L 320.355621 445.692287 
L 320.845329 445.692287 
L 321.008566 443.857474 
L 321.498274 443.857474 
L 321.66151 442.940068 
L 322.151219 442.940068 
L 322.314455 441.563959 
L 322.804163 441.563959 
L 322.9674 441.105256 
L 323.457108 441.105256 
L 323.620344 439.729147 
L 324.110053 439.729147 
L 324.273289 438.811741 
L 324.762997 438.811741 
L 324.926234 437.435631 
L 325.415942 437.435631 
L 325.579178 436.976928 
L 326.068887 436.976928 
L 326.232123 436.518225 
L 326.721832 436.518225 
L 326.885068 436.059522 
L 327.374776 436.059522 
L 327.538012 435.142116 
L 328.027721 435.142116 
L 328.190957 434.683413 
L 328.680666 434.683413 
L 328.843902 434.22471 
L 329.986555 434.22471 
L 330.149791 433.766007 
L 330.6395 433.766007 
L 330.802736 432.389898 
L 331.292444 432.389898 
L 331.455681 431.013788 
L 331.945389 431.013788 
L 332.108625 430.096382 
L 332.598334 430.096382 
L 332.76157 429.637679 
L 334.557168 429.637679 
L 334.720404 428.26157 
L 335.210112 428.26157 
L 335.373349 425.509352 
L 335.863057 425.509352 
L 336.026293 424.133242 
L 336.516002 424.133242 
L 336.679238 423.215836 
L 337.168947 423.215836 
L 337.332183 422.757133 
L 337.821891 422.757133 
L 337.985127 421.381024 
L 338.474836 421.381024 
L 338.638072 420.463618 
L 339.127781 420.463618 
L 339.291017 419.546212 
L 339.780725 419.546212 
L 339.943961 417.711399 
L 340.43367 417.711399 
L 340.596906 416.793993 
L 341.086615 416.793993 
L 341.249851 415.417884 
L 341.739559 415.417884 
L 341.902795 414.959181 
L 342.392504 414.959181 
L 342.55574 413.583072 
L 343.045449 413.583072 
L 343.208685 412.206962 
L 343.698393 412.206962 
L 343.86163 410.830853 
L 344.351338 410.830853 
L 344.514574 409.454744 
L 345.657227 409.454744 
L 345.820464 408.537338 
L 346.310172 408.537338 
L 346.473408 407.619932 
L 346.963117 407.619932 
L 347.126353 407.161229 
L 347.616062 407.161229 
L 347.779298 406.243823 
L 348.269006 406.243823 
L 348.432242 404.867713 
L 348.921951 404.867713 
L 349.085187 403.950307 
L 349.574896 403.950307 
L 349.738132 402.574198 
L 350.22784 402.574198 
L 350.391076 401.198089 
L 350.880785 401.198089 
L 351.044021 397.987167 
L 351.53373 397.987167 
L 351.696966 397.528464 
L 352.186674 397.528464 
L 352.34991 395.234949 
L 352.839619 395.234949 
L 353.002855 393.400137 
L 353.492564 393.400137 
L 353.6558 391.565324 
L 354.145508 391.565324 
L 354.308745 390.189215 
L 354.798453 390.189215 
L 354.961689 387.8957 
L 355.451398 387.8957 
L 355.614634 384.684778 
L 356.104342 384.684778 
L 356.267579 383.308669 
L 356.757287 383.308669 
L 356.920523 382.849966 
L 357.410232 382.849966 
L 357.573468 382.391263 
L 358.063176 382.391263 
L 358.226413 381.015154 
L 358.716121 381.015154 
L 358.879357 379.180341 
L 359.369066 379.180341 
L 359.532302 378.721638 
L 360.022011 378.721638 
L 360.185247 376.428123 
L 360.674955 376.428123 
L 360.838191 375.96942 
L 361.3279 375.96942 
L 361.491136 375.052014 
L 361.980845 375.052014 
L 362.144081 374.134608 
L 362.633789 374.134608 
L 362.797025 372.758498 
L 363.939679 372.758498 
L 364.102915 372.299795 
L 364.592623 372.299795 
L 364.75586 371.841092 
L 365.245568 371.841092 
L 365.408804 370.464983 
L 366.551457 370.464983 
L 366.714694 369.088874 
L 367.204402 369.088874 
L 367.367638 366.795358 
L 367.857347 366.795358 
L 368.020583 363.125734 
L 368.510291 363.125734 
L 368.673528 360.832218 
L 369.163236 360.832218 
L 369.326472 358.08 
L 369.816181 358.08 
L 369.979417 355.786485 
L 370.469126 355.786485 
L 370.632362 353.492969 
L 371.12207 353.492969 
L 371.285306 351.199454 
L 371.775015 351.199454 
L 371.938251 348.905939 
L 372.42796 348.905939 
L 372.591196 347.529829 
L 373.080904 347.529829 
L 373.24414 345.695017 
L 373.733849 345.695017 
L 373.897085 345.236314 
L 374.386794 345.236314 
L 374.55003 343.401502 
L 375.039738 343.401502 
L 375.202975 342.025392 
L 375.692683 342.025392 
L 375.855919 339.731877 
L 376.345628 339.731877 
L 376.508864 338.355768 
L 376.998572 338.355768 
L 377.161809 336.062253 
L 377.651517 336.062253 
L 377.814753 334.22744 
L 378.304462 334.22744 
L 378.467698 332.851331 
L 378.957406 332.851331 
L 379.120643 332.392628 
L 379.610351 332.392628 
L 379.773587 330.557816 
L 380.263296 330.557816 
L 380.426532 328.723003 
L 380.916241 328.723003 
L 381.079477 326.888191 
L 381.569185 326.888191 
L 381.732421 324.594676 
L 382.22213 324.594676 
L 382.385366 322.30116 
L 382.875075 322.30116 
L 383.038311 317.255427 
L 383.528019 317.255427 
L 383.691255 313.585802 
L 384.180964 313.585802 
L 384.3442 310.374881 
L 384.833909 310.374881 
L 384.997145 308.540068 
L 385.486853 308.540068 
L 385.65009 305.78785 
L 386.139798 305.78785 
L 386.303034 303.953038 
L 386.792743 303.953038 
L 386.955979 299.366007 
L 387.445687 299.366007 
L 387.608924 297.072491 
L 388.098632 297.072491 
L 388.261868 294.320273 
L 388.751577 294.320273 
L 388.914813 292.026758 
L 389.404521 292.026758 
L 389.567758 289.733242 
L 390.057466 289.733242 
L 390.220702 286.981024 
L 390.710411 286.981024 
L 390.873647 284.228805 
L 391.363356 284.228805 
L 391.526592 281.017884 
L 392.0163 281.017884 
L 392.179536 280.100478 
L 392.669245 280.100478 
L 392.832481 277.806962 
L 393.32219 277.806962 
L 393.485426 276.889556 
L 393.975134 276.889556 
L 394.13837 275.513447 
L 394.628079 275.513447 
L 394.791315 273.678635 
L 395.281024 273.678635 
L 395.44426 271.385119 
L 395.933968 271.385119 
L 396.097205 270.00901 
L 396.586913 270.00901 
L 396.750149 268.174198 
L 397.239858 268.174198 
L 397.403094 266.798089 
L 398.545747 266.798089 
L 398.708983 266.339386 
L 399.198692 266.339386 
L 399.361928 264.963276 
L 399.851636 264.963276 
L 400.014873 264.04587 
L 400.504581 264.04587 
L 400.667817 263.128464 
L 401.157526 263.128464 
L 401.320762 262.211058 
L 401.810471 262.211058 
L 401.973707 259.917543 
L 402.463415 259.917543 
L 402.626651 257.624027 
L 403.11636 257.624027 
L 403.279596 256.247918 
L 403.769305 256.247918 
L 403.932541 252.578294 
L 404.422249 252.578294 
L 404.585485 249.826075 
L 405.075194 249.826075 
L 405.23843 247.991263 
L 405.728139 247.991263 
L 405.891375 245.697747 
L 406.381083 245.697747 
L 406.544319 242.028123 
L 407.034028 242.028123 
L 407.197264 238.817201 
L 407.686973 238.817201 
L 407.850209 234.688874 
L 408.339917 234.688874 
L 408.503154 232.854061 
L 408.992862 232.854061 
L 409.156098 230.560546 
L 409.645807 230.560546 
L 409.809043 226.432218 
L 410.298751 226.432218 
L 410.461988 225.514812 
L 410.951696 225.514812 
L 411.114932 224.138703 
L 411.604641 224.138703 
L 411.767877 221.845188 
L 412.257586 221.845188 
L 412.420822 219.551672 
L 412.91053 219.551672 
L 413.073766 216.340751 
L 413.563475 216.340751 
L 413.726711 212.671126 
L 414.21642 212.671126 
L 414.379656 211.295017 
L 414.869364 211.295017 
L 415.0326 208.084096 
L 415.522309 208.084096 
L 415.685545 207.166689 
L 416.175254 207.166689 
L 416.33849 205.79058 
L 416.828198 205.79058 
L 416.991434 203.497065 
L 417.481143 203.497065 
L 417.644379 203.038362 
L 418.134088 203.038362 
L 418.297324 200.744846 
L 419.439977 200.744846 
L 419.603213 198.910034 
L 420.092922 198.910034 
L 420.256158 197.075222 
L 420.745866 197.075222 
L 420.909103 194.781706 
L 421.398811 194.781706 
L 421.562047 194.323003 
L 422.051756 194.323003 
L 422.214992 191.570785 
L 422.7047 191.570785 
L 422.867937 189.735973 
L 423.357645 189.735973 
L 423.520881 187.442457 
L 424.01059 187.442457 
L 424.173826 183.31413 
L 424.663535 183.31413 
L 424.826771 180.103208 
L 425.316479 180.103208 
L 425.479715 178.268396 
L 425.969424 178.268396 
L 426.13266 175.516177 
L 426.622369 175.516177 
L 426.785605 173.681365 
L 427.275313 173.681365 
L 427.438549 170.470444 
L 427.928258 170.470444 
L 428.091494 167.718225 
L 428.581203 167.718225 
L 428.744439 164.966007 
L 429.234147 164.966007 
L 429.397384 163.131195 
L 429.887092 163.131195 
L 430.050328 160.378976 
L 430.540037 160.378976 
L 430.703273 159.920273 
L 431.192981 159.920273 
L 431.356218 157.168055 
L 431.845926 157.168055 
L 432.009162 154.874539 
L 432.498871 154.874539 
L 432.662107 153.039727 
L 433.151815 153.039727 
L 433.315052 152.122321 
L 433.80476 152.122321 
L 433.967996 150.746212 
L 434.457705 150.746212 
L 434.620941 149.828805 
L 435.11065 149.828805 
L 435.273886 147.53529 
L 436.416539 147.53529 
L 436.579775 146.159181 
L 437.069484 146.159181 
L 437.23272 144.783072 
L 437.722428 144.783072 
L 437.885664 143.865666 
L 438.375373 143.865666 
L 438.538609 142.489556 
L 439.028318 142.489556 
L 439.191554 141.113447 
L 439.681262 141.113447 
L 439.844499 140.196041 
L 440.334207 140.196041 
L 440.497443 139.278635 
L 440.987152 139.278635 
L 441.150388 138.361229 
L 441.640096 138.361229 
L 441.803333 137.902526 
L 442.293041 137.902526 
L 442.456277 136.526416 
L 442.945986 136.526416 
L 443.109222 136.067713 
L 443.59893 136.067713 
L 443.59893 136.067713 
" clip-path="url(#p3dbbf554c1)" style="fill: none; stroke: #008000; stroke-width: 1.5; stroke-linecap: square"/>
   </g>
   <g id="patch_9">
    <path d="M 286.941176 512.64 
L 286.941176 69.12 
" style="fill: none; stroke: #000000; stroke-width: 0.8; stroke-linejoin: miter; stroke-linecap: square"/>
   </g>
   <g id="patch_10">
    <path d="M 451.058824 512.64 
L 451.058824 69.12 
" style="fill: none; stroke: #000000; stroke-width: 0.8; stroke-linejoin: miter; stroke-linecap: square"/>
   </g>
   <g id="patch_11">
    <path d="M 286.941176 512.64 
L 451.058824 512.64 
" style="fill: none; stroke: #000000; stroke-width: 0.8; stroke-linejoin: miter; stroke-linecap: square"/>
   </g>
   <g id="patch_12">
    <path d="M 286.941176 69.12 
L 451.058824 69.12 
" style="fill: none; stroke: #000000; stroke-width: 0.8; stroke-linejoin: miter; stroke-linecap: square"/>
   </g>
   <g id="legend_2">
    <g id="patch_13">
     <path d="M 293.941176 121.154375 
L 393.863051 121.154375 
Q 395.863051 121.154375 395.863051 119.154375 
L 395.863051 76.12 
Q 395.863051 74.12 393.863051 74.12 
L 293.941176 74.12 
Q 291.941176 74.12 291.941176 76.12 
L 291.941176 119.154375 
Q 291.941176 121.154375 293.941176 121.154375 
z
" style="fill: #ffffff; opacity: 0.8; stroke: #cccccc; stroke-linejoin: miter"/>
    </g>
    <g id="line2d_28">
     <path d="M 295.941176 82.218438 
L 305.941176 82.218438 
L 315.941176 82.218438 
" style="fill: none; stroke: #0000ff; stroke-width: 1.5; stroke-linecap: square"/>
    </g>
    <g id="text_22">
     <!-- O1 requested -->
     <g transform="translate(323.941176 85.718438) scale(0.1 -0.1)">
      <defs>
       <path id="DejaVuSans-72" d="M 2631 2963 
Q 2534 3019 2420 3045 
Q 2306 3072 2169 3072 
Q 1681 3072 1420 2755 
Q 1159 2438 1159 1844 
L 1159 0 
L 581 0 
L 581 3500 
L 1159 3500 
L 1159 2956 
Q 1341 3275 1631 3429 
Q 1922 3584 2338 3584 
Q 2397 3584 2469 3576 
Q 2541 3569 2628 3553 
L 2631 2963 
z
" transform="scale(0.015625)"/>
       <path id="DejaVuSans-65" d="M 3597 1894 
L 3597 1613 
L 953 1613 
Q 991 1019 1311 708 
Q 1631 397 2203 397 
Q 2534 397 2845 478 
Q 3156 559 3463 722 
L 3463 178 
Q 3153 47 2828 -22 
Q 2503 -91 2169 -91 
Q 1331 -91 842 396 
Q 353 884 353 1716 
Q 353 2575 817 3079 
Q 1281 3584 2069 3584 
Q 2775 3584 3186 3129 
Q 3597 2675 3597 1894 
z
M 3022 2063 
Q 3016 2534 2758 2815 
Q 2500 3097 2075 3097 
Q 1594 3097 1305 2825 
Q 1016 2553 972 2059 
L 3022 2063 
z
" transform="scale(0.015625)"/>
       <path id="DejaVuSans-71" d="M 947 1747 
Q 947 1113 1208 752 
Q 1469 391 1925 391 
Q 2381 391 2643 752 
Q 2906 1113 2906 1747 
Q 2906 2381 2643 2742 
Q 2381 3103 1925 3103 
Q 1469 3103 1208 2742 
Q 947 2381 947 1747 
z
M 2906 525 
Q 2725 213 2448 61 
Q 2172 -91 1784 -91 
Q 1150 -91 751 415 
Q 353 922 353 1747 
Q 353 2572 751 3078 
Q 1150 3584 1784 3584 
Q 2172 3584 2448 3432 
Q 2725 3281 2906 2969 
L 2906 3500 
L 3481 3500 
L 3481 -1331 
L 2906 -1331 
L 2906 525 
z
" transform="scale(0.015625)"/>
       <path id="DejaVuSans-73" d="M 2834 3397 
L 2834 2853 
Q 2591 2978 2328 3040 
Q 2066 3103 1784 3103 
Q 1356 3103 1142 2972 
Q 928 2841 928 2578 
Q 928 2378 1081 2264 
Q 1234 2150 1697 2047 
L 1894 2003 
Q 2506 1872 2764 1633 
Q 3022 1394 3022 966 
Q 3022 478 2636 193 
Q 2250 -91 1575 -91 
Q 1294 -91 989 -36 
Q 684 19 347 128 
L 347 722 
Q 666 556 975 473 
Q 1284 391 1588 391 
Q 1994 391 2212 530 
Q 2431 669 2431 922 
Q 2431 1156 2273 1281 
Q 2116 1406 1581 1522 
L 1381 1569 
Q 847 1681 609 1914 
Q 372 2147 372 2553 
Q 372 3047 722 3315 
Q 1072 3584 1716 3584 
Q 2034 3584 2315 3537 
Q 2597 3491 2834 3397 
z
" transform="scale(0.015625)"/>
       <path id="DejaVuSans-64" d="M 2906 2969 
L 2906 4863 
L 3481 4863 
L 3481 0 
L 2906 0 
L 2906 525 
Q 2725 213 2448 61 
Q 2172 -91 1784 -91 
Q 1150 -91 751 415 
Q 353 922 353 1747 
Q 353 2572 751 3078 
Q 1150 3584 1784 3584 
Q 2172 3584 2448 3432 
Q 2725 3281 2906 2969 
z
M 947 1747 
Q 947 1113 1208 752 
Q 1469 391 1925 391 
Q 2381 391 2643 752 
Q 2906 1113 2906 1747 
Q 2906 2381 2643 2742 
Q 2381 3103 1925 3103 
Q 1469 3103 1208 2742 
Q 947 2381 947 1747 
z
" transform="scale(0.015625)"/>
      </defs>
      <use xlink:href="#DejaVuSans-4f"/>
      <use xlink:href="#DejaVuSans-31" x="78.710938"/>
      <use xlink:href="#DejaVuSans-20" x="142.333984"/>
      <use xlink:href="#DejaVuSans-72" x="174.121094"/>
      <use xlink:href="#DejaVuSans-65" x="212.984375"/>
      <use xlink:href="#DejaVuSans-71" x="274.507812"/>
      <use xlink:href="#DejaVuSans-75" x="337.984375"/>
      <use xlink:href="#DejaVuSans-65" x="401.363281"/>
      <use xlink:href="#DejaVuSans-73" x="462.886719"/>
      <use xlink:href="#DejaVuSans-74" x="514.986328"/>
      <use xlink:href="#DejaVuSans-65" x="554.195312"/>
      <use xlink:href="#DejaVuSans-64" x="615.71875"/>
     </g>
    </g>
    <g id="line2d_29">
     <path d="M 295.941176 96.896563 
L 305.941176 96.896563 
L 315.941176 96.896563 
" style="fill: none; stroke: #ff0000; stroke-width: 1.5; stroke-linecap: square"/>
    </g>
    <g id="text_23">
     <!-- O2 requested -->
     <g transform="translate(323.941176 100.396563) scale(0.1 -0.1)">
      <use xlink:href="#DejaVuSans-4f"/>
      <use xlink:href="#DejaVuSans-32" x="78.710938"/>
      <use xlink:href="#DejaVuSans-20" x="142.333984"/>
      <use xlink:href="#DejaVuSans-72" x="174.121094"/>
      <use xlink:href="#DejaVuSans-65" x="212.984375"/>
      <use xlink:href="#DejaVuSans-71" x="274.507812"/>
      <use xlink:href="#DejaVuSans-75" x="337.984375"/>
      <use xlink:href="#DejaVuSans-65" x="401.363281"/>
      <use xlink:href="#DejaVuSans-73" x="462.886719"/>
      <use xlink:href="#DejaVuSans-74" x="514.986328"/>
      <use xlink:href="#DejaVuSans-65" x="554.195312"/>
      <use xlink:href="#DejaVuSans-64" x="615.71875"/>
     </g>
    </g>
    <g id="line2d_30">
     <path d="M 295.941176 111.574688 
L 305.941176 111.574688 
L 315.941176 111.574688 
" style="fill: none; stroke: #008000; stroke-width: 1.5; stroke-linecap: square"/>
    </g>
    <g id="text_24">
     <!-- O3 requested -->
     <g transform="translate(323.941176 115.074688) scale(0.1 -0.1)">
      <use xlink:href="#DejaVuSans-4f"/>
      <use xlink:href="#DejaVuSans-33" x="78.710938"/>
      <use xlink:href="#DejaVuSans-20" x="142.333984"/>
      <use xlink:href="#DejaVuSans-72" x="174.121094"/>
      <use xlink:href="#DejaVuSans-65" x="212.984375"/>
      <use xlink:href="#DejaVuSans-71" x="274.507812"/>
      <use xlink:href="#DejaVuSans-75" x="337.984375"/>
      <use xlink:href="#DejaVuSans-65" x="401.363281"/>
      <use xlink:href="#DejaVuSans-73" x="462.886719"/>
      <use xlink:href="#DejaVuSans-74" x="514.986328"/>
      <use xlink:href="#DejaVuSans-65" x="554.195312"/>
      <use xlink:href="#DejaVuSans-64" x="615.71875"/>
     </g>
    </g>
   </g>
  </g>
  <g id="axes_3">
   <g id="patch_14">
    <path d="M 483.882353 512.64 
L 648 512.64 
L 648 69.12 
L 483.882353 69.12 
z
" style="fill: #ffffff"/>
   </g>
   <g id="matplotlib.axis_5">
    <g id="xtick_9">
     <g id="line2d_31">
      <g>
       <use xlink:href="#mea488a038c" x="491.17901" y="512.64" style="stroke: #000000; stroke-width: 0.8"/>
      </g>
     </g>
     <g id="text_25">
      <!-- 0 -->
      <g transform="translate(487.99776 527.238438) scale(0.1 -0.1)">
       <use xlink:href="#DejaVuSans-30"/>
      </g>
     </g>
    </g>
    <g id="xtick_10">
     <g id="line2d_32">
      <g>
       <use xlink:href="#mea488a038c" x="531.988053" y="512.64" style="stroke: #000000; stroke-width: 0.8"/>
      </g>
     </g>
     <g id="text_26">
      <!-- 250 -->
      <g transform="translate(522.444303 527.238438) scale(0.1 -0.1)">
       <use xlink:href="#DejaVuSans-32"/>
       <use xlink:href="#DejaVuSans-35" x="63.623047"/>
       <use xlink:href="#DejaVuSans-30" x="127.246094"/>
      </g>
     </g>
    </g>
    <g id="xtick_11">
     <g id="line2d_33">
      <g>
       <use xlink:href="#mea488a038c" x="572.797096" y="512.64" style="stroke: #000000; stroke-width: 0.8"/>
      </g>
     </g>
     <g id="text_27">
      <!-- 500 -->
      <g transform="translate(563.253346 527.238438) scale(0.1 -0.1)">
       <use xlink:href="#DejaVuSans-35"/>
       <use xlink:href="#DejaVuSans-30" x="63.623047"/>
       <use xlink:href="#DejaVuSans-30" x="127.246094"/>
      </g>
     </g>
    </g>
    <g id="xtick_12">
     <g id="line2d_34">
      <g>
       <use xlink:href="#mea488a038c" x="613.606139" y="512.64" style="stroke: #000000; stroke-width: 0.8"/>
      </g>
     </g>
     <g id="text_28">
      <!-- 750 -->
      <g transform="translate(604.062389 527.238438) scale(0.1 -0.1)">
       <use xlink:href="#DejaVuSans-37"/>
       <use xlink:href="#DejaVuSans-35" x="63.623047"/>
       <use xlink:href="#DejaVuSans-30" x="127.246094"/>
      </g>
     </g>
    </g>
   </g>
   <g id="matplotlib.axis_6">
    <g id="ytick_11">
     <g id="line2d_35">
      <g>
       <use xlink:href="#m661362fcb3" x="483.882353" y="492.48" style="stroke: #000000; stroke-width: 0.8"/>
      </g>
     </g>
     <g id="text_29">
      <!-- 0 -->
      <g transform="translate(470.519853 496.279219) scale(0.1 -0.1)">
       <use xlink:href="#DejaVuSans-30"/>
      </g>
     </g>
    </g>
    <g id="ytick_12">
     <g id="line2d_36">
      <g>
       <use xlink:href="#m661362fcb3" x="483.882353" y="404.827826" style="stroke: #000000; stroke-width: 0.8"/>
      </g>
     </g>
     <g id="text_30">
      <!-- 20 -->
      <g transform="translate(464.157353 408.627045) scale(0.1 -0.1)">
       <use xlink:href="#DejaVuSans-32"/>
       <use xlink:href="#DejaVuSans-30" x="63.623047"/>
      </g>
     </g>
    </g>
    <g id="ytick_13">
     <g id="line2d_37">
      <g>
       <use xlink:href="#m661362fcb3" x="483.882353" y="317.175652" style="stroke: #000000; stroke-width: 0.8"/>
      </g>
     </g>
     <g id="text_31">
      <!-- 40 -->
      <g transform="translate(464.157353 320.974871) scale(0.1 -0.1)">
       <use xlink:href="#DejaVuSans-34"/>
       <use xlink:href="#DejaVuSans-30" x="63.623047"/>
      </g>
     </g>
    </g>
    <g id="ytick_14">
     <g id="line2d_38">
      <g>
       <use xlink:href="#m661362fcb3" x="483.882353" y="229.523478" style="stroke: #000000; stroke-width: 0.8"/>
      </g>
     </g>
     <g id="text_32">
      <!-- 60 -->
      <g transform="translate(464.157353 233.322697) scale(0.1 -0.1)">
       <use xlink:href="#DejaVuSans-36"/>
       <use xlink:href="#DejaVuSans-30" x="63.623047"/>
      </g>
     </g>
    </g>
    <g id="ytick_15">
     <g id="line2d_39">
      <g>
       <use xlink:href="#m661362fcb3" x="483.882353" y="141.871304" style="stroke: #000000; stroke-width: 0.8"/>
      </g>
     </g>
     <g id="text_33">
      <!-- 80 -->
      <g transform="translate(464.157353 145.670523) scale(0.1 -0.1)">
       <use xlink:href="#DejaVuSans-38"/>
       <use xlink:href="#DejaVuSans-30" x="63.623047"/>
      </g>
     </g>
    </g>
   </g>
   <g id="line2d_40">
    <path d="M 491.342246 492.48 
L 499.504055 492.48 
L 499.667291 488.097391 
L 500.809944 488.097391 
L 500.97318 483.714783 
L 640.540107 483.714783 
L 640.540107 483.714783 
" clip-path="url(#p1a90e241dc)" style="fill: none; stroke: #0000ff; stroke-width: 1.5; stroke-linecap: square"/>
   </g>
   <g id="line2d_41">
    <path d="M 491.342246 492.48 
L 498.198165 492.48 
L 498.361401 488.097391 
L 498.85111 488.097391 
L 499.014346 474.949565 
L 500.156999 474.949565 
L 500.320235 470.566957 
L 501.462889 470.566957 
L 501.626125 453.036522 
L 502.115833 453.036522 
L 502.279069 435.506087 
L 502.768778 435.506087 
L 502.932014 426.74087 
L 503.421723 426.74087 
L 503.584959 409.210435 
L 504.074667 409.210435 
L 504.237904 396.062609 
L 507.339391 396.062609 
L 507.502627 391.68 
L 509.298225 391.68 
L 509.461461 387.297391 
L 511.257059 387.297391 
L 511.420295 378.532174 
L 511.910004 378.532174 
L 512.07324 374.149565 
L 512.562948 374.149565 
L 512.726184 369.766957 
L 513.868838 369.766957 
L 514.032074 352.236522 
L 514.521782 352.236522 
L 514.685019 330.323478 
L 515.174727 330.323478 
L 515.337963 325.94087 
L 515.827672 325.94087 
L 515.990908 312.793043 
L 516.480616 312.793043 
L 516.643853 286.497391 
L 517.133561 286.497391 
L 517.296797 268.966957 
L 524.315953 268.966957 
L 524.479189 264.584348 
L 526.274787 264.584348 
L 526.438023 260.201739 
L 526.927731 260.201739 
L 527.090968 255.81913 
L 527.580676 255.81913 
L 527.743912 251.436522 
L 528.886565 251.436522 
L 529.049802 247.053913 
L 531.498344 247.053913 
L 531.66158 242.671304 
L 532.151289 242.671304 
L 532.314525 229.523478 
L 532.804234 229.523478 
L 532.96747 216.375652 
L 533.457178 216.375652 
L 533.620414 194.462609 
L 534.110123 194.462609 
L 534.273359 172.549565 
L 534.763068 172.549565 
L 534.926304 159.401739 
L 535.416012 159.401739 
L 535.579249 141.871304 
L 536.068957 141.871304 
L 536.232193 119.958261 
L 536.721902 119.958261 
L 536.885138 111.193043 
L 537.374846 111.193043 
L 537.538083 102.427826 
L 539.33368 102.427826 
L 539.496917 98.045217 
L 539.986625 98.045217 
L 540.149861 89.28 
L 640.540107 89.28 
L 640.540107 89.28 
" clip-path="url(#p1a90e241dc)" style="fill: none; stroke: #ff0000; stroke-width: 1.5; stroke-linecap: square"/>
   </g>
   <g id="line2d_42">
    <path d="M 491.342246 492.48 
L 498.198165 492.48 
L 498.361401 479.332174 
L 498.85111 479.332174 
L 499.014346 474.949565 
L 499.504055 474.949565 
L 499.667291 470.566957 
L 500.809944 470.566957 
L 500.97318 466.184348 
L 640.540107 466.184348 
L 640.540107 466.184348 
" clip-path="url(#p1a90e241dc)" style="fill: none; stroke: #008000; stroke-width: 1.5; stroke-linecap: square"/>
   </g>
   <g id="patch_15">
    <path d="M 483.882353 512.64 
L 483.882353 69.12 
" style="fill: none; stroke: #000000; stroke-width: 0.8; stroke-linejoin: miter; stroke-linecap: square"/>
   </g>
   <g id="patch_16">
    <path d="M 648 512.64 
L 648 69.12 
" style="fill: none; stroke: #000000; stroke-width: 0.8; stroke-linejoin: miter; stroke-linecap: square"/>
   </g>
   <g id="patch_17">
    <path d="M 483.882353 512.64 
L 648 512.64 
" style="fill: none; stroke: #000000; stroke-width: 0.8; stroke-linejoin: miter; stroke-linecap: square"/>
   </g>
   <g id="patch_18">
    <path d="M 483.882353 69.12 
L 648 69.12 
" style="fill: none; stroke: #000000; stroke-width: 0.8; stroke-linejoin: miter; stroke-linecap: square"/>
   </g>
   <g id="legend_3">
    <g id="patch_19">
     <path d="M 551.1625 314.397188 
L 641 314.397188 
Q 643 314.397188 643 312.397188 
L 643 269.362813 
Q 643 267.362813 641 267.362813 
L 551.1625 267.362813 
Q 549.1625 267.362813 549.1625 269.362813 
L 549.1625 312.397188 
Q 549.1625 314.397188 551.1625 314.397188 
z
" style="fill: #ffffff; opacity: 0.8; stroke: #cccccc; stroke-linejoin: miter"/>
    </g>
    <g id="line2d_43">
     <path d="M 553.1625 275.46125 
L 563.1625 275.46125 
L 573.1625 275.46125 
" style="fill: none; stroke: #0000ff; stroke-width: 1.5; stroke-linecap: square"/>
    </g>
    <g id="text_34">
     <!-- O1 ensured -->
     <g transform="translate(581.1625 278.96125) scale(0.1 -0.1)">
      <defs>
       <path id="DejaVuSans-6e" d="M 3513 2113 
L 3513 0 
L 2938 0 
L 2938 2094 
Q 2938 2591 2744 2837 
Q 2550 3084 2163 3084 
Q 1697 3084 1428 2787 
Q 1159 2491 1159 1978 
L 1159 0 
L 581 0 
L 581 3500 
L 1159 3500 
L 1159 2956 
Q 1366 3272 1645 3428 
Q 1925 3584 2291 3584 
Q 2894 3584 3203 3211 
Q 3513 2838 3513 2113 
z
" transform="scale(0.015625)"/>
      </defs>
      <use xlink:href="#DejaVuSans-4f"/>
      <use xlink:href="#DejaVuSans-31" x="78.710938"/>
      <use xlink:href="#DejaVuSans-20" x="142.333984"/>
      <use xlink:href="#DejaVuSans-65" x="174.121094"/>
      <use xlink:href="#DejaVuSans-6e" x="235.644531"/>
      <use xlink:href="#DejaVuSans-73" x="299.023438"/>
      <use xlink:href="#DejaVuSans-75" x="351.123047"/>
      <use xlink:href="#DejaVuSans-72" x="414.501953"/>
      <use xlink:href="#DejaVuSans-65" x="453.365234"/>
      <use xlink:href="#DejaVuSans-64" x="514.888672"/>
     </g>
    </g>
    <g id="line2d_44">
     <path d="M 553.1625 290.139375 
L 563.1625 290.139375 
L 573.1625 290.139375 
" style="fill: none; stroke: #ff0000; stroke-width: 1.5; stroke-linecap: square"/>
    </g>
    <g id="text_35">
     <!-- O2 ensured -->
     <g transform="translate(581.1625 293.639375) scale(0.1 -0.1)">
      <use xlink:href="#DejaVuSans-4f"/>
      <use xlink:href="#DejaVuSans-32" x="78.710938"/>
      <use xlink:href="#DejaVuSans-20" x="142.333984"/>
      <use xlink:href="#DejaVuSans-65" x="174.121094"/>
      <use xlink:href="#DejaVuSans-6e" x="235.644531"/>
      <use xlink:href="#DejaVuSans-73" x="299.023438"/>
      <use xlink:href="#DejaVuSans-75" x="351.123047"/>
      <use xlink:href="#DejaVuSans-72" x="414.501953"/>
      <use xlink:href="#DejaVuSans-65" x="453.365234"/>
      <use xlink:href="#DejaVuSans-64" x="514.888672"/>
     </g>
    </g>
    <g id="line2d_45">
     <path d="M 553.1625 304.8175 
L 563.1625 304.8175 
L 573.1625 304.8175 
" style="fill: none; stroke: #008000; stroke-width: 1.5; stroke-linecap: square"/>
    </g>
    <g id="text_36">
     <!-- O3 ensured -->
     <g transform="translate(581.1625 308.3175) scale(0.1 -0.1)">
      <use xlink:href="#DejaVuSans-4f"/>
      <use xlink:href="#DejaVuSans-33" x="78.710938"/>
      <use xlink:href="#DejaVuSans-20" x="142.333984"/>
      <use xlink:href="#DejaVuSans-65" x="174.121094"/>
      <use xlink:href="#DejaVuSans-6e" x="235.644531"/>
      <use xlink:href="#DejaVuSans-73" x="299.023438"/>
      <use xlink:href="#DejaVuSans-75" x="351.123047"/>
      <use xlink:href="#DejaVuSans-72" x="414.501953"/>
      <use xlink:href="#DejaVuSans-65" x="453.365234"/>
      <use xlink:href="#DejaVuSans-64" x="514.888672"/>
     </g>
    </g>
   </g>
  </g>
 </g>
 <defs>
  <clipPath id="pb3c5cbb55d">
   <rect x="90" y="69.12" width="164.117647" height="443.52"/>
  </clipPath>
  <clipPath id="p3dbbf554c1">
   <rect x="286.941176" y="69.12" width="164.117647" height="443.52"/>
  </clipPath>
  <clipPath id="p1a90e241dc">
   <rect x="483.882353" y="69.12" width="164.117647" height="443.52"/>
  </clipPath>
 </defs>
</svg>
