<?xml version="1.0" encoding="utf-8" standalone="no"?>
<!DOCTYPE svg PUBLIC "-//W3C//DTD SVG 1.1//EN"
  "http://www.w3.org/Graphics/SVG/1.1/DTD/svg11.dtd">
<svg xmlns:xlink="http://www.w3.org/1999/xlink" width="720pt" height="576pt" viewBox="0 0 720 576" xmlns="http://www.w3.org/2000/svg" version="1.1">
 <metadata>
  <rdf:RDF xmlns:dc="http://purl.org/dc/elements/1.1/" xmlns:cc="http://creativecommons.org/ns#" xmlns:rdf="http://www.w3.org/1999/02/22-rdf-syntax-ns#">
   <cc:Work>
    <dc:type rdf:resource="http://purl.org/dc/dcmitype/StillImage"/>
    <dc:date>2023-06-04T14:33:14.217236</dc:date>
    <dc:format>image/svg+xml</dc:format>
    <dc:creator>
     <cc:Agent>
      <dc:title>Matplotlib v3.7.1, https://matplotlib.org/</dc:title>
     </cc:Agent>
    </dc:creator>
   </cc:Work>
  </rdf:RDF>
 </metadata>
 <defs>
  <style type="text/css">*{stroke-linejoin: round; stroke-linecap: butt}</style>
 </defs>
 <g id="figure_1">
  <g id="patch_1">
   <path d="M 0 576 
L 720 576 
L 720 0 
L 0 0 
z
" style="fill: #ffffff"/>
  </g>
  <g id="axes_1">
   <g id="patch_2">
    <path d="M 90 512.64 
L 254.117647 512.64 
L 254.117647 69.12 
L 90 69.12 
z
" style="fill: #ffffff"/>
   </g>
   <g id="matplotlib.axis_1">
    <g id="xtick_1">
     <g id="line2d_1">
      <defs>
       <path id="m8c673d10bc" d="M 0 0 
L 0 3.5 
" style="stroke: #000000; stroke-width: 0.8"/>
      </defs>
      <g>
       <use xlink:href="#m8c673d10bc" x="94.415039" y="512.64" style="stroke: #000000; stroke-width: 0.8"/>
      </g>
     </g>
     <g id="text_1">
      <!-- 0 -->
      <g transform="translate(91.233789 527.238438) scale(0.1 -0.1)">
       <defs>
        <path id="DejaVuSans-30" d="M 2034 4250 
Q 1547 4250 1301 3770 
Q 1056 3291 1056 2328 
Q 1056 1369 1301 889 
Q 1547 409 2034 409 
Q 2525 409 2770 889 
Q 3016 1369 3016 2328 
Q 3016 3291 2770 3770 
Q 2525 4250 2034 4250 
z
M 2034 4750 
Q 2819 4750 3233 4129 
Q 3647 3509 3647 2328 
Q 3647 1150 3233 529 
Q 2819 -91 2034 -91 
Q 1250 -91 836 529 
Q 422 1150 422 2328 
Q 422 3509 836 4129 
Q 1250 4750 2034 4750 
z
" transform="scale(0.015625)"/>
       </defs>
       <use xlink:href="#DejaVuSans-30"/>
      </g>
     </g>
    </g>
    <g id="xtick_2">
     <g id="line2d_2">
      <g>
       <use xlink:href="#m8c673d10bc" x="155.312125" y="512.64" style="stroke: #000000; stroke-width: 0.8"/>
      </g>
     </g>
     <g id="text_2">
      <!-- 20 -->
      <g transform="translate(148.949625 527.238438) scale(0.1 -0.1)">
       <defs>
        <path id="DejaVuSans-32" d="M 1228 531 
L 3431 531 
L 3431 0 
L 469 0 
L 469 531 
Q 828 903 1448 1529 
Q 2069 2156 2228 2338 
Q 2531 2678 2651 2914 
Q 2772 3150 2772 3378 
Q 2772 3750 2511 3984 
Q 2250 4219 1831 4219 
Q 1534 4219 1204 4116 
Q 875 4013 500 3803 
L 500 4441 
Q 881 4594 1212 4672 
Q 1544 4750 1819 4750 
Q 2544 4750 2975 4387 
Q 3406 4025 3406 3419 
Q 3406 3131 3298 2873 
Q 3191 2616 2906 2266 
Q 2828 2175 2409 1742 
Q 1991 1309 1228 531 
z
" transform="scale(0.015625)"/>
       </defs>
       <use xlink:href="#DejaVuSans-32"/>
       <use xlink:href="#DejaVuSans-30" x="63.623047"/>
      </g>
     </g>
    </g>
    <g id="xtick_3">
     <g id="line2d_3">
      <g>
       <use xlink:href="#m8c673d10bc" x="216.209211" y="512.64" style="stroke: #000000; stroke-width: 0.8"/>
      </g>
     </g>
     <g id="text_3">
      <!-- 40 -->
      <g transform="translate(209.846711 527.238438) scale(0.1 -0.1)">
       <defs>
        <path id="DejaVuSans-34" d="M 2419 4116 
L 825 1625 
L 2419 1625 
L 2419 4116 
z
M 2253 4666 
L 3047 4666 
L 3047 1625 
L 3713 1625 
L 3713 1100 
L 3047 1100 
L 3047 0 
L 2419 0 
L 2419 1100 
L 313 1100 
L 313 1709 
L 2253 4666 
z
" transform="scale(0.015625)"/>
       </defs>
       <use xlink:href="#DejaVuSans-34"/>
       <use xlink:href="#DejaVuSans-30" x="63.623047"/>
      </g>
     </g>
    </g>
   </g>
   <g id="matplotlib.axis_2">
    <g id="ytick_1">
     <g id="line2d_4">
      <defs>
       <path id="ma6ab7fbe2d" d="M 0 0 
L -3.5 0 
" style="stroke: #000000; stroke-width: 0.8"/>
      </defs>
      <g>
       <use xlink:href="#ma6ab7fbe2d" x="90" y="492.48" style="stroke: #000000; stroke-width: 0.8"/>
      </g>
     </g>
     <g id="text_4">
      <!-- 0.0 -->
      <g transform="translate(67.096875 496.279219) scale(0.1 -0.1)">
       <defs>
        <path id="DejaVuSans-2e" d="M 684 794 
L 1344 794 
L 1344 0 
L 684 0 
L 684 794 
z
" transform="scale(0.015625)"/>
       </defs>
       <use xlink:href="#DejaVuSans-30"/>
       <use xlink:href="#DejaVuSans-2e" x="63.623047"/>
       <use xlink:href="#DejaVuSans-30" x="95.410156"/>
      </g>
     </g>
    </g>
    <g id="ytick_2">
     <g id="line2d_5">
      <g>
       <use xlink:href="#ma6ab7fbe2d" x="90" y="419.904" style="stroke: #000000; stroke-width: 0.8"/>
      </g>
     </g>
     <g id="text_5">
      <!-- 0.1 -->
      <g transform="translate(67.096875 423.703219) scale(0.1 -0.1)">
       <defs>
        <path id="DejaVuSans-31" d="M 794 531 
L 1825 531 
L 1825 4091 
L 703 3866 
L 703 4441 
L 1819 4666 
L 2450 4666 
L 2450 531 
L 3481 531 
L 3481 0 
L 794 0 
L 794 531 
z
" transform="scale(0.015625)"/>
       </defs>
       <use xlink:href="#DejaVuSans-30"/>
       <use xlink:href="#DejaVuSans-2e" x="63.623047"/>
       <use xlink:href="#DejaVuSans-31" x="95.410156"/>
      </g>
     </g>
    </g>
    <g id="ytick_3">
     <g id="line2d_6">
      <g>
       <use xlink:href="#ma6ab7fbe2d" x="90" y="347.328" style="stroke: #000000; stroke-width: 0.8"/>
      </g>
     </g>
     <g id="text_6">
      <!-- 0.2 -->
      <g transform="translate(67.096875 351.127219) scale(0.1 -0.1)">
       <use xlink:href="#DejaVuSans-30"/>
       <use xlink:href="#DejaVuSans-2e" x="63.623047"/>
       <use xlink:href="#DejaVuSans-32" x="95.410156"/>
      </g>
     </g>
    </g>
    <g id="ytick_4">
     <g id="line2d_7">
      <g>
       <use xlink:href="#ma6ab7fbe2d" x="90" y="274.752" style="stroke: #000000; stroke-width: 0.8"/>
      </g>
     </g>
     <g id="text_7">
      <!-- 0.3 -->
      <g transform="translate(67.096875 278.551219) scale(0.1 -0.1)">
       <defs>
        <path id="DejaVuSans-33" d="M 2597 2516 
Q 3050 2419 3304 2112 
Q 3559 1806 3559 1356 
Q 3559 666 3084 287 
Q 2609 -91 1734 -91 
Q 1441 -91 1130 -33 
Q 819 25 488 141 
L 488 750 
Q 750 597 1062 519 
Q 1375 441 1716 441 
Q 2309 441 2620 675 
Q 2931 909 2931 1356 
Q 2931 1769 2642 2001 
Q 2353 2234 1838 2234 
L 1294 2234 
L 1294 2753 
L 1863 2753 
Q 2328 2753 2575 2939 
Q 2822 3125 2822 3475 
Q 2822 3834 2567 4026 
Q 2313 4219 1838 4219 
Q 1578 4219 1281 4162 
Q 984 4106 628 3988 
L 628 4550 
Q 988 4650 1302 4700 
Q 1616 4750 1894 4750 
Q 2613 4750 3031 4423 
Q 3450 4097 3450 3541 
Q 3450 3153 3228 2886 
Q 3006 2619 2597 2516 
z
" transform="scale(0.015625)"/>
       </defs>
       <use xlink:href="#DejaVuSans-30"/>
       <use xlink:href="#DejaVuSans-2e" x="63.623047"/>
       <use xlink:href="#DejaVuSans-33" x="95.410156"/>
      </g>
     </g>
    </g>
    <g id="ytick_5">
     <g id="line2d_8">
      <g>
       <use xlink:href="#ma6ab7fbe2d" x="90" y="202.176" style="stroke: #000000; stroke-width: 0.8"/>
      </g>
     </g>
     <g id="text_8">
      <!-- 0.4 -->
      <g transform="translate(67.096875 205.975219) scale(0.1 -0.1)">
       <use xlink:href="#DejaVuSans-30"/>
       <use xlink:href="#DejaVuSans-2e" x="63.623047"/>
       <use xlink:href="#DejaVuSans-34" x="95.410156"/>
      </g>
     </g>
    </g>
    <g id="ytick_6">
     <g id="line2d_9">
      <g>
       <use xlink:href="#ma6ab7fbe2d" x="90" y="129.6" style="stroke: #000000; stroke-width: 0.8"/>
      </g>
     </g>
     <g id="text_9">
      <!-- 0.5 -->
      <g transform="translate(67.096875 133.399219) scale(0.1 -0.1)">
       <defs>
        <path id="DejaVuSans-35" d="M 691 4666 
L 3169 4666 
L 3169 4134 
L 1269 4134 
L 1269 2991 
Q 1406 3038 1543 3061 
Q 1681 3084 1819 3084 
Q 2600 3084 3056 2656 
Q 3513 2228 3513 1497 
Q 3513 744 3044 326 
Q 2575 -91 1722 -91 
Q 1428 -91 1123 -41 
Q 819 9 494 109 
L 494 744 
Q 775 591 1075 516 
Q 1375 441 1709 441 
Q 2250 441 2565 725 
Q 2881 1009 2881 1497 
Q 2881 1984 2565 2268 
Q 2250 2553 1709 2553 
Q 1456 2553 1204 2497 
Q 953 2441 691 2322 
L 691 4666 
z
" transform="scale(0.015625)"/>
       </defs>
       <use xlink:href="#DejaVuSans-30"/>
       <use xlink:href="#DejaVuSans-2e" x="63.623047"/>
       <use xlink:href="#DejaVuSans-35" x="95.410156"/>
      </g>
     </g>
    </g>
   </g>
   <g id="line2d_10">
    <path d="M 97.459893 492.48 
L 100.504747 492.48 
L 103.549602 492.48 
L 106.594456 492.48 
L 109.63931 492.48 
L 112.684165 492.48 
L 115.729019 492.48 
L 118.773873 492.48 
L 121.818727 492.48 
L 124.863582 492.48 
L 127.908436 492.48 
L 130.95329 250.56 
L 133.998145 250.56 
L 137.042999 250.56 
L 140.087853 250.56 
L 143.132708 250.56 
L 146.177562 250.56 
L 149.222416 347.328 
L 152.267271 347.328 
L 155.312125 347.328 
L 158.356979 347.328 
L 161.401833 347.328 
L 164.446688 347.328 
L 167.491542 388.8 
L 170.536396 388.8 
L 173.581251 388.8 
L 176.626105 388.8 
L 179.670959 388.8 
L 182.715814 388.8 
L 185.760668 401.76 
L 188.805522 401.76 
L 191.850377 401.76 
L 194.895231 401.76 
L 197.940085 401.76 
L 200.984939 401.76 
L 204.029794 419.904 
L 207.074648 419.904 
L 210.119502 419.904 
L 213.164357 419.904 
L 216.209211 419.904 
L 219.254065 419.904 
L 222.29892 419.904 
L 225.343774 419.904 
L 228.388628 419.904 
L 231.433482 419.904 
L 234.478337 419.904 
L 237.523191 419.904 
L 240.568045 371.52 
L 243.6129 371.52 
L 246.657754 371.52 
" clip-path="url(#pe6427587fb)" style="fill: none; stroke: #0000ff; stroke-width: 1.5; stroke-linecap: square"/>
   </g>
   <g id="line2d_11">
    <path d="M 97.459893 492.48 
L 100.504747 492.48 
L 103.549602 492.48 
L 106.594456 492.48 
L 109.63931 492.48 
L 112.684165 250.56 
L 115.729019 250.56 
L 118.773873 250.56 
L 121.818727 250.56 
L 124.863582 250.56 
L 127.908436 250.56 
L 130.95329 311.04 
L 133.998145 311.04 
L 137.042999 311.04 
L 140.087853 311.04 
L 143.132708 311.04 
L 146.177562 311.04 
L 149.222416 89.28 
L 152.267271 89.28 
L 155.312125 89.28 
L 158.356979 89.28 
L 161.401833 89.28 
L 164.446688 89.28 
L 167.491542 143.04 
L 170.536396 143.04 
L 173.581251 143.04 
L 176.626105 143.04 
L 179.670959 143.04 
L 182.715814 143.04 
L 185.760668 323.869091 
L 188.805522 323.869091 
L 191.850377 323.869091 
L 194.895231 323.869091 
L 197.940085 323.869091 
L 200.984939 323.869091 
L 204.029794 367.488 
L 207.074648 367.488 
L 210.119502 367.488 
L 213.164357 367.488 
L 216.209211 367.488 
L 219.254065 367.488 
L 222.29892 311.04 
L 225.343774 311.04 
L 228.388628 311.04 
L 231.433482 311.04 
L 234.478337 311.04 
L 237.523191 311.04 
L 240.568045 301.207579 
L 243.6129 301.207579 
L 246.657754 301.207579 
" clip-path="url(#pe6427587fb)" style="fill: none; stroke: #ff0000; stroke-width: 1.5; stroke-linecap: square"/>
   </g>
   <g id="line2d_12">
    <path d="M 97.459893 492.48 
L 100.504747 492.48 
L 103.549602 492.48 
L 106.594456 492.48 
L 109.63931 492.48 
L 112.684165 371.52 
L 115.729019 371.52 
L 118.773873 371.52 
L 121.818727 371.52 
L 124.863582 371.52 
L 127.908436 371.52 
L 130.95329 444.096 
L 133.998145 444.096 
L 137.042999 444.096 
L 140.087853 444.096 
L 143.132708 444.096 
L 146.177562 444.096 
L 149.222416 411.84 
L 152.267271 411.84 
L 155.312125 411.84 
L 158.356979 411.84 
L 161.401833 411.84 
L 164.446688 411.84 
L 167.491542 432 
L 170.536396 432 
L 173.581251 432 
L 176.626105 432 
L 179.670959 432 
L 182.715814 432 
L 185.760668 444.096 
L 188.805522 444.096 
L 191.850377 444.096 
L 194.895231 444.096 
L 197.940085 444.096 
L 200.984939 444.096 
L 204.029794 448.494545 
L 207.074648 448.494545 
L 210.119502 448.494545 
L 213.164357 448.494545 
L 216.209211 448.494545 
L 219.254065 448.494545 
L 222.29892 457.92 
L 225.343774 457.92 
L 228.388628 457.92 
L 231.433482 457.92 
L 234.478337 457.92 
L 237.523191 457.92 
L 240.568045 460.224 
L 243.6129 460.224 
L 246.657754 460.224 
" clip-path="url(#pe6427587fb)" style="fill: none; stroke: #008000; stroke-width: 1.5; stroke-linecap: square"/>
   </g>
   <g id="patch_3">
    <path d="M 90 512.64 
L 90 69.12 
" style="fill: none; stroke: #000000; stroke-width: 0.8; stroke-linejoin: miter; stroke-linecap: square"/>
   </g>
   <g id="patch_4">
    <path d="M 254.117647 512.64 
L 254.117647 69.12 
" style="fill: none; stroke: #000000; stroke-width: 0.8; stroke-linejoin: miter; stroke-linecap: square"/>
   </g>
   <g id="patch_5">
    <path d="M 90 512.64 
L 254.117647 512.64 
" style="fill: none; stroke: #000000; stroke-width: 0.8; stroke-linejoin: miter; stroke-linecap: square"/>
   </g>
   <g id="patch_6">
    <path d="M 90 69.12 
L 254.117647 69.12 
" style="fill: none; stroke: #000000; stroke-width: 0.8; stroke-linejoin: miter; stroke-linecap: square"/>
   </g>
   <g id="legend_1">
    <g id="patch_7">
     <path d="M 169.273897 121.154375 
L 247.117647 121.154375 
Q 249.117647 121.154375 249.117647 119.154375 
L 249.117647 76.12 
Q 249.117647 74.12 247.117647 74.12 
L 169.273897 74.12 
Q 167.273897 74.12 167.273897 76.12 
L 167.273897 119.154375 
Q 167.273897 121.154375 169.273897 121.154375 
z
" style="fill: #ffffff; opacity: 0.8; stroke: #cccccc; stroke-linejoin: miter"/>
    </g>
    <g id="line2d_13">
     <path d="M 171.273897 82.218438 
L 181.273897 82.218438 
L 191.273897 82.218438 
" style="fill: none; stroke: #0000ff; stroke-width: 1.5; stroke-linecap: square"/>
    </g>
    <g id="text_10">
     <!-- O1 utility -->
     <g transform="translate(199.273897 85.718438) scale(0.1 -0.1)">
      <defs>
       <path id="DejaVuSans-4f" d="M 2522 4238 
Q 1834 4238 1429 3725 
Q 1025 3213 1025 2328 
Q 1025 1447 1429 934 
Q 1834 422 2522 422 
Q 3209 422 3611 934 
Q 4013 1447 4013 2328 
Q 4013 3213 3611 3725 
Q 3209 4238 2522 4238 
z
M 2522 4750 
Q 3503 4750 4090 4092 
Q 4678 3434 4678 2328 
Q 4678 1225 4090 567 
Q 3503 -91 2522 -91 
Q 1538 -91 948 565 
Q 359 1222 359 2328 
Q 359 3434 948 4092 
Q 1538 4750 2522 4750 
z
" transform="scale(0.015625)"/>
       <path id="DejaVuSans-20" transform="scale(0.015625)"/>
       <path id="DejaVuSans-75" d="M 544 1381 
L 544 3500 
L 1119 3500 
L 1119 1403 
Q 1119 906 1312 657 
Q 1506 409 1894 409 
Q 2359 409 2629 706 
Q 2900 1003 2900 1516 
L 2900 3500 
L 3475 3500 
L 3475 0 
L 2900 0 
L 2900 538 
Q 2691 219 2414 64 
Q 2138 -91 1772 -91 
Q 1169 -91 856 284 
Q 544 659 544 1381 
z
M 1991 3584 
L 1991 3584 
z
" transform="scale(0.015625)"/>
       <path id="DejaVuSans-74" d="M 1172 4494 
L 1172 3500 
L 2356 3500 
L 2356 3053 
L 1172 3053 
L 1172 1153 
Q 1172 725 1289 603 
Q 1406 481 1766 481 
L 2356 481 
L 2356 0 
L 1766 0 
Q 1100 0 847 248 
Q 594 497 594 1153 
L 594 3053 
L 172 3053 
L 172 3500 
L 594 3500 
L 594 4494 
L 1172 4494 
z
" transform="scale(0.015625)"/>
       <path id="DejaVuSans-69" d="M 603 3500 
L 1178 3500 
L 1178 0 
L 603 0 
L 603 3500 
z
M 603 4863 
L 1178 4863 
L 1178 4134 
L 603 4134 
L 603 4863 
z
" transform="scale(0.015625)"/>
       <path id="DejaVuSans-6c" d="M 603 4863 
L 1178 4863 
L 1178 0 
L 603 0 
L 603 4863 
z
" transform="scale(0.015625)"/>
       <path id="DejaVuSans-79" d="M 2059 -325 
Q 1816 -950 1584 -1140 
Q 1353 -1331 966 -1331 
L 506 -1331 
L 506 -850 
L 844 -850 
Q 1081 -850 1212 -737 
Q 1344 -625 1503 -206 
L 1606 56 
L 191 3500 
L 800 3500 
L 1894 763 
L 2988 3500 
L 3597 3500 
L 2059 -325 
z
" transform="scale(0.015625)"/>
      </defs>
      <use xlink:href="#DejaVuSans-4f"/>
      <use xlink:href="#DejaVuSans-31" x="78.710938"/>
      <use xlink:href="#DejaVuSans-20" x="142.333984"/>
      <use xlink:href="#DejaVuSans-75" x="174.121094"/>
      <use xlink:href="#DejaVuSans-74" x="237.5"/>
      <use xlink:href="#DejaVuSans-69" x="276.708984"/>
      <use xlink:href="#DejaVuSans-6c" x="304.492188"/>
      <use xlink:href="#DejaVuSans-69" x="332.275391"/>
      <use xlink:href="#DejaVuSans-74" x="360.058594"/>
      <use xlink:href="#DejaVuSans-79" x="399.267578"/>
     </g>
    </g>
    <g id="line2d_14">
     <path d="M 171.273897 96.896563 
L 181.273897 96.896563 
L 191.273897 96.896563 
" style="fill: none; stroke: #ff0000; stroke-width: 1.5; stroke-linecap: square"/>
    </g>
    <g id="text_11">
     <!-- O2 utility -->
     <g transform="translate(199.273897 100.396563) scale(0.1 -0.1)">
      <use xlink:href="#DejaVuSans-4f"/>
      <use xlink:href="#DejaVuSans-32" x="78.710938"/>
      <use xlink:href="#DejaVuSans-20" x="142.333984"/>
      <use xlink:href="#DejaVuSans-75" x="174.121094"/>
      <use xlink:href="#DejaVuSans-74" x="237.5"/>
      <use xlink:href="#DejaVuSans-69" x="276.708984"/>
      <use xlink:href="#DejaVuSans-6c" x="304.492188"/>
      <use xlink:href="#DejaVuSans-69" x="332.275391"/>
      <use xlink:href="#DejaVuSans-74" x="360.058594"/>
      <use xlink:href="#DejaVuSans-79" x="399.267578"/>
     </g>
    </g>
    <g id="line2d_15">
     <path d="M 171.273897 111.574688 
L 181.273897 111.574688 
L 191.273897 111.574688 
" style="fill: none; stroke: #008000; stroke-width: 1.5; stroke-linecap: square"/>
    </g>
    <g id="text_12">
     <!-- O3 utility -->
     <g transform="translate(199.273897 115.074688) scale(0.1 -0.1)">
      <use xlink:href="#DejaVuSans-4f"/>
      <use xlink:href="#DejaVuSans-33" x="78.710938"/>
      <use xlink:href="#DejaVuSans-20" x="142.333984"/>
      <use xlink:href="#DejaVuSans-75" x="174.121094"/>
      <use xlink:href="#DejaVuSans-74" x="237.5"/>
      <use xlink:href="#DejaVuSans-69" x="276.708984"/>
      <use xlink:href="#DejaVuSans-6c" x="304.492188"/>
      <use xlink:href="#DejaVuSans-69" x="332.275391"/>
      <use xlink:href="#DejaVuSans-74" x="360.058594"/>
      <use xlink:href="#DejaVuSans-79" x="399.267578"/>
     </g>
    </g>
   </g>
  </g>
  <g id="axes_2">
   <g id="patch_8">
    <path d="M 286.941176 512.64 
L 451.058824 512.64 
L 451.058824 69.12 
L 286.941176 69.12 
z
" style="fill: #ffffff"/>
   </g>
   <g id="matplotlib.axis_3">
    <g id="xtick_4">
     <g id="line2d_16">
      <g>
       <use xlink:href="#m8c673d10bc" x="291.356215" y="512.64" style="stroke: #000000; stroke-width: 0.8"/>
      </g>
     </g>
     <g id="text_13">
      <!-- 0 -->
      <g transform="translate(288.174965 527.238438) scale(0.1 -0.1)">
       <use xlink:href="#DejaVuSans-30"/>
      </g>
     </g>
    </g>
    <g id="xtick_5">
     <g id="line2d_17">
      <g>
       <use xlink:href="#m8c673d10bc" x="352.253301" y="512.64" style="stroke: #000000; stroke-width: 0.8"/>
      </g>
     </g>
     <g id="text_14">
      <!-- 20 -->
      <g transform="translate(345.890801 527.238438) scale(0.1 -0.1)">
       <use xlink:href="#DejaVuSans-32"/>
       <use xlink:href="#DejaVuSans-30" x="63.623047"/>
      </g>
     </g>
    </g>
    <g id="xtick_6">
     <g id="line2d_18">
      <g>
       <use xlink:href="#m8c673d10bc" x="413.150387" y="512.64" style="stroke: #000000; stroke-width: 0.8"/>
      </g>
     </g>
     <g id="text_15">
      <!-- 40 -->
      <g transform="translate(406.787887 527.238438) scale(0.1 -0.1)">
       <use xlink:href="#DejaVuSans-34"/>
       <use xlink:href="#DejaVuSans-30" x="63.623047"/>
      </g>
     </g>
    </g>
   </g>
   <g id="matplotlib.axis_4">
    <g id="ytick_7">
     <g id="line2d_19">
      <g>
       <use xlink:href="#ma6ab7fbe2d" x="286.941176" y="492.48" style="stroke: #000000; stroke-width: 0.8"/>
      </g>
     </g>
     <g id="text_16">
      <!-- 0 -->
      <g transform="translate(273.578676 496.279219) scale(0.1 -0.1)">
       <use xlink:href="#DejaVuSans-30"/>
      </g>
     </g>
    </g>
    <g id="ytick_8">
     <g id="line2d_20">
      <g>
       <use xlink:href="#ma6ab7fbe2d" x="286.941176" y="431.389091" style="stroke: #000000; stroke-width: 0.8"/>
      </g>
     </g>
     <g id="text_17">
      <!-- 5 -->
      <g transform="translate(273.578676 435.18831) scale(0.1 -0.1)">
       <use xlink:href="#DejaVuSans-35"/>
      </g>
     </g>
    </g>
    <g id="ytick_9">
     <g id="line2d_21">
      <g>
       <use xlink:href="#ma6ab7fbe2d" x="286.941176" y="370.298182" style="stroke: #000000; stroke-width: 0.8"/>
      </g>
     </g>
     <g id="text_18">
      <!-- 10 -->
      <g transform="translate(267.216176 374.097401) scale(0.1 -0.1)">
       <use xlink:href="#DejaVuSans-31"/>
       <use xlink:href="#DejaVuSans-30" x="63.623047"/>
      </g>
     </g>
    </g>
    <g id="ytick_10">
     <g id="line2d_22">
      <g>
       <use xlink:href="#ma6ab7fbe2d" x="286.941176" y="309.207273" style="stroke: #000000; stroke-width: 0.8"/>
      </g>
     </g>
     <g id="text_19">
      <!-- 15 -->
      <g transform="translate(267.216176 313.006491) scale(0.1 -0.1)">
       <use xlink:href="#DejaVuSans-31"/>
       <use xlink:href="#DejaVuSans-35" x="63.623047"/>
      </g>
     </g>
    </g>
    <g id="ytick_11">
     <g id="line2d_23">
      <g>
       <use xlink:href="#ma6ab7fbe2d" x="286.941176" y="248.116364" style="stroke: #000000; stroke-width: 0.8"/>
      </g>
     </g>
     <g id="text_20">
      <!-- 20 -->
      <g transform="translate(267.216176 251.915582) scale(0.1 -0.1)">
       <use xlink:href="#DejaVuSans-32"/>
       <use xlink:href="#DejaVuSans-30" x="63.623047"/>
      </g>
     </g>
    </g>
    <g id="ytick_12">
     <g id="line2d_24">
      <g>
       <use xlink:href="#ma6ab7fbe2d" x="286.941176" y="187.025455" style="stroke: #000000; stroke-width: 0.8"/>
      </g>
     </g>
     <g id="text_21">
      <!-- 25 -->
      <g transform="translate(267.216176 190.824673) scale(0.1 -0.1)">
       <use xlink:href="#DejaVuSans-32"/>
       <use xlink:href="#DejaVuSans-35" x="63.623047"/>
      </g>
     </g>
    </g>
    <g id="ytick_13">
     <g id="line2d_25">
      <g>
       <use xlink:href="#ma6ab7fbe2d" x="286.941176" y="125.934545" style="stroke: #000000; stroke-width: 0.8"/>
      </g>
     </g>
     <g id="text_22">
      <!-- 30 -->
      <g transform="translate(267.216176 129.733764) scale(0.1 -0.1)">
       <use xlink:href="#DejaVuSans-33"/>
       <use xlink:href="#DejaVuSans-30" x="63.623047"/>
      </g>
     </g>
    </g>
   </g>
   <g id="line2d_26">
    <path d="M 294.40107 492.48 
L 297.445924 492.48 
L 300.490778 492.48 
L 303.535632 492.48 
L 306.580487 492.48 
L 309.625341 492.48 
L 312.670195 492.48 
L 315.71505 492.48 
L 318.759904 492.48 
L 321.804758 492.48 
L 324.849613 492.48 
L 327.894467 468.043636 
L 330.939321 468.043636 
L 333.984175 468.043636 
L 337.02903 468.043636 
L 340.073884 468.043636 
L 343.118738 468.043636 
L 346.163593 406.952727 
L 349.208447 406.952727 
L 352.253301 406.952727 
L 355.298156 406.952727 
L 358.34301 406.952727 
L 361.387864 406.952727 
L 364.432719 358.08 
L 367.477573 358.08 
L 370.522427 358.08 
L 373.567281 358.08 
L 376.612136 358.08 
L 379.65699 358.08 
L 382.701844 333.643636 
L 385.746699 333.643636 
L 388.791553 333.643636 
L 391.836407 333.643636 
L 394.881262 333.643636 
L 397.926116 333.643636 
L 400.97097 309.207273 
L 404.015825 309.207273 
L 407.060679 309.207273 
L 410.105533 309.207273 
L 413.150387 309.207273 
L 416.195242 309.207273 
L 419.240096 296.989091 
L 422.28495 296.989091 
L 425.329805 296.989091 
L 428.374659 296.989091 
L 431.419513 296.989091 
L 434.464368 296.989091 
L 437.509222 260.334545 
L 440.554076 260.334545 
L 443.59893 260.334545 
" clip-path="url(#p55537f0c16)" style="fill: none; stroke: #0000ff; stroke-width: 1.5; stroke-linecap: square"/>
   </g>
   <g id="line2d_27">
    <path d="M 294.40107 492.48 
L 297.445924 492.48 
L 300.490778 492.48 
L 303.535632 492.48 
L 306.580487 492.48 
L 309.625341 468.043636 
L 312.670195 468.043636 
L 315.71505 468.043636 
L 318.759904 468.043636 
L 321.804758 468.043636 
L 324.849613 468.043636 
L 327.894467 419.170909 
L 330.939321 419.170909 
L 333.984175 419.170909 
L 337.02903 419.170909 
L 340.073884 419.170909 
L 343.118738 419.170909 
L 346.163593 370.298182 
L 349.208447 370.298182 
L 352.253301 370.298182 
L 355.298156 370.298182 
L 358.34301 370.298182 
L 361.387864 370.298182 
L 364.432719 333.643636 
L 367.477573 333.643636 
L 370.522427 333.643636 
L 373.567281 333.643636 
L 376.612136 333.643636 
L 379.65699 333.643636 
L 382.701844 272.552727 
L 385.746699 272.552727 
L 388.791553 272.552727 
L 391.836407 272.552727 
L 394.881262 272.552727 
L 397.926116 272.552727 
L 400.97097 199.243636 
L 404.015825 199.243636 
L 407.060679 199.243636 
L 410.105533 199.243636 
L 413.150387 199.243636 
L 416.195242 199.243636 
L 419.240096 150.370909 
L 422.28495 150.370909 
L 425.329805 150.370909 
L 428.374659 150.370909 
L 431.419513 150.370909 
L 434.464368 150.370909 
L 437.509222 89.28 
L 440.554076 89.28 
L 443.59893 89.28 
" clip-path="url(#p55537f0c16)" style="fill: none; stroke: #ff0000; stroke-width: 1.5; stroke-linecap: square"/>
   </g>
   <g id="line2d_28">
    <path d="M 294.40107 492.48 
L 297.445924 492.48 
L 300.490778 492.48 
L 303.535632 492.48 
L 306.580487 492.48 
L 309.625341 455.825455 
L 312.670195 455.825455 
L 315.71505 455.825455 
L 318.759904 455.825455 
L 321.804758 455.825455 
L 324.849613 455.825455 
L 327.894467 406.952727 
L 330.939321 406.952727 
L 333.984175 406.952727 
L 337.02903 406.952727 
L 340.073884 406.952727 
L 343.118738 406.952727 
L 346.163593 382.516364 
L 349.208447 382.516364 
L 352.253301 382.516364 
L 355.298156 382.516364 
L 358.34301 382.516364 
L 361.387864 382.516364 
L 364.432719 345.861818 
L 367.477573 345.861818 
L 370.522427 345.861818 
L 373.567281 345.861818 
L 376.612136 345.861818 
L 379.65699 345.861818 
L 382.701844 309.207273 
L 385.746699 309.207273 
L 388.791553 309.207273 
L 391.836407 309.207273 
L 394.881262 309.207273 
L 397.926116 309.207273 
L 400.97097 284.770909 
L 404.015825 284.770909 
L 407.060679 284.770909 
L 410.105533 284.770909 
L 413.150387 284.770909 
L 416.195242 284.770909 
L 419.240096 223.68 
L 422.28495 223.68 
L 425.329805 223.68 
L 428.374659 223.68 
L 431.419513 223.68 
L 434.464368 223.68 
L 437.509222 199.243636 
L 440.554076 199.243636 
L 443.59893 199.243636 
" clip-path="url(#p55537f0c16)" style="fill: none; stroke: #008000; stroke-width: 1.5; stroke-linecap: square"/>
   </g>
   <g id="patch_9">
    <path d="M 286.941176 512.64 
L 286.941176 69.12 
" style="fill: none; stroke: #000000; stroke-width: 0.8; stroke-linejoin: miter; stroke-linecap: square"/>
   </g>
   <g id="patch_10">
    <path d="M 451.058824 512.64 
L 451.058824 69.12 
" style="fill: none; stroke: #000000; stroke-width: 0.8; stroke-linejoin: miter; stroke-linecap: square"/>
   </g>
   <g id="patch_11">
    <path d="M 286.941176 512.64 
L 451.058824 512.64 
" style="fill: none; stroke: #000000; stroke-width: 0.8; stroke-linejoin: miter; stroke-linecap: square"/>
   </g>
   <g id="patch_12">
    <path d="M 286.941176 69.12 
L 451.058824 69.12 
" style="fill: none; stroke: #000000; stroke-width: 0.8; stroke-linejoin: miter; stroke-linecap: square"/>
   </g>
   <g id="legend_2">
    <g id="patch_13">
     <path d="M 293.941176 121.154375 
L 393.863051 121.154375 
Q 395.863051 121.154375 395.863051 119.154375 
L 395.863051 76.12 
Q 395.863051 74.12 393.863051 74.12 
L 293.941176 74.12 
Q 291.941176 74.12 291.941176 76.12 
L 291.941176 119.154375 
Q 291.941176 121.154375 293.941176 121.154375 
z
" style="fill: #ffffff; opacity: 0.8; stroke: #cccccc; stroke-linejoin: miter"/>
    </g>
    <g id="line2d_29">
     <path d="M 295.941176 82.218438 
L 305.941176 82.218438 
L 315.941176 82.218438 
" style="fill: none; stroke: #0000ff; stroke-width: 1.5; stroke-linecap: square"/>
    </g>
    <g id="text_23">
     <!-- O1 requested -->
     <g transform="translate(323.941176 85.718438) scale(0.1 -0.1)">
      <defs>
       <path id="DejaVuSans-72" d="M 2631 2963 
Q 2534 3019 2420 3045 
Q 2306 3072 2169 3072 
Q 1681 3072 1420 2755 
Q 1159 2438 1159 1844 
L 1159 0 
L 581 0 
L 581 3500 
L 1159 3500 
L 1159 2956 
Q 1341 3275 1631 3429 
Q 1922 3584 2338 3584 
Q 2397 3584 2469 3576 
Q 2541 3569 2628 3553 
L 2631 2963 
z
" transform="scale(0.015625)"/>
       <path id="DejaVuSans-65" d="M 3597 1894 
L 3597 1613 
L 953 1613 
Q 991 1019 1311 708 
Q 1631 397 2203 397 
Q 2534 397 2845 478 
Q 3156 559 3463 722 
L 3463 178 
Q 3153 47 2828 -22 
Q 2503 -91 2169 -91 
Q 1331 -91 842 396 
Q 353 884 353 1716 
Q 353 2575 817 3079 
Q 1281 3584 2069 3584 
Q 2775 3584 3186 3129 
Q 3597 2675 3597 1894 
z
M 3022 2063 
Q 3016 2534 2758 2815 
Q 2500 3097 2075 3097 
Q 1594 3097 1305 2825 
Q 1016 2553 972 2059 
L 3022 2063 
z
" transform="scale(0.015625)"/>
       <path id="DejaVuSans-71" d="M 947 1747 
Q 947 1113 1208 752 
Q 1469 391 1925 391 
Q 2381 391 2643 752 
Q 2906 1113 2906 1747 
Q 2906 2381 2643 2742 
Q 2381 3103 1925 3103 
Q 1469 3103 1208 2742 
Q 947 2381 947 1747 
z
M 2906 525 
Q 2725 213 2448 61 
Q 2172 -91 1784 -91 
Q 1150 -91 751 415 
Q 353 922 353 1747 
Q 353 2572 751 3078 
Q 1150 3584 1784 3584 
Q 2172 3584 2448 3432 
Q 2725 3281 2906 2969 
L 2906 3500 
L 3481 3500 
L 3481 -1331 
L 2906 -1331 
L 2906 525 
z
" transform="scale(0.015625)"/>
       <path id="DejaVuSans-73" d="M 2834 3397 
L 2834 2853 
Q 2591 2978 2328 3040 
Q 2066 3103 1784 3103 
Q 1356 3103 1142 2972 
Q 928 2841 928 2578 
Q 928 2378 1081 2264 
Q 1234 2150 1697 2047 
L 1894 2003 
Q 2506 1872 2764 1633 
Q 3022 1394 3022 966 
Q 3022 478 2636 193 
Q 2250 -91 1575 -91 
Q 1294 -91 989 -36 
Q 684 19 347 128 
L 347 722 
Q 666 556 975 473 
Q 1284 391 1588 391 
Q 1994 391 2212 530 
Q 2431 669 2431 922 
Q 2431 1156 2273 1281 
Q 2116 1406 1581 1522 
L 1381 1569 
Q 847 1681 609 1914 
Q 372 2147 372 2553 
Q 372 3047 722 3315 
Q 1072 3584 1716 3584 
Q 2034 3584 2315 3537 
Q 2597 3491 2834 3397 
z
" transform="scale(0.015625)"/>
       <path id="DejaVuSans-64" d="M 2906 2969 
L 2906 4863 
L 3481 4863 
L 3481 0 
L 2906 0 
L 2906 525 
Q 2725 213 2448 61 
Q 2172 -91 1784 -91 
Q 1150 -91 751 415 
Q 353 922 353 1747 
Q 353 2572 751 3078 
Q 1150 3584 1784 3584 
Q 2172 3584 2448 3432 
Q 2725 3281 2906 2969 
z
M 947 1747 
Q 947 1113 1208 752 
Q 1469 391 1925 391 
Q 2381 391 2643 752 
Q 2906 1113 2906 1747 
Q 2906 2381 2643 2742 
Q 2381 3103 1925 3103 
Q 1469 3103 1208 2742 
Q 947 2381 947 1747 
z
" transform="scale(0.015625)"/>
      </defs>
      <use xlink:href="#DejaVuSans-4f"/>
      <use xlink:href="#DejaVuSans-31" x="78.710938"/>
      <use xlink:href="#DejaVuSans-20" x="142.333984"/>
      <use xlink:href="#DejaVuSans-72" x="174.121094"/>
      <use xlink:href="#DejaVuSans-65" x="212.984375"/>
      <use xlink:href="#DejaVuSans-71" x="274.507812"/>
      <use xlink:href="#DejaVuSans-75" x="337.984375"/>
      <use xlink:href="#DejaVuSans-65" x="401.363281"/>
      <use xlink:href="#DejaVuSans-73" x="462.886719"/>
      <use xlink:href="#DejaVuSans-74" x="514.986328"/>
      <use xlink:href="#DejaVuSans-65" x="554.195312"/>
      <use xlink:href="#DejaVuSans-64" x="615.71875"/>
     </g>
    </g>
    <g id="line2d_30">
     <path d="M 295.941176 96.896563 
L 305.941176 96.896563 
L 315.941176 96.896563 
" style="fill: none; stroke: #ff0000; stroke-width: 1.5; stroke-linecap: square"/>
    </g>
    <g id="text_24">
     <!-- O2 requested -->
     <g transform="translate(323.941176 100.396563) scale(0.1 -0.1)">
      <use xlink:href="#DejaVuSans-4f"/>
      <use xlink:href="#DejaVuSans-32" x="78.710938"/>
      <use xlink:href="#DejaVuSans-20" x="142.333984"/>
      <use xlink:href="#DejaVuSans-72" x="174.121094"/>
      <use xlink:href="#DejaVuSans-65" x="212.984375"/>
      <use xlink:href="#DejaVuSans-71" x="274.507812"/>
      <use xlink:href="#DejaVuSans-75" x="337.984375"/>
      <use xlink:href="#DejaVuSans-65" x="401.363281"/>
      <use xlink:href="#DejaVuSans-73" x="462.886719"/>
      <use xlink:href="#DejaVuSans-74" x="514.986328"/>
      <use xlink:href="#DejaVuSans-65" x="554.195312"/>
      <use xlink:href="#DejaVuSans-64" x="615.71875"/>
     </g>
    </g>
    <g id="line2d_31">
     <path d="M 295.941176 111.574688 
L 305.941176 111.574688 
L 315.941176 111.574688 
" style="fill: none; stroke: #008000; stroke-width: 1.5; stroke-linecap: square"/>
    </g>
    <g id="text_25">
     <!-- O3 requested -->
     <g transform="translate(323.941176 115.074688) scale(0.1 -0.1)">
      <use xlink:href="#DejaVuSans-4f"/>
      <use xlink:href="#DejaVuSans-33" x="78.710938"/>
      <use xlink:href="#DejaVuSans-20" x="142.333984"/>
      <use xlink:href="#DejaVuSans-72" x="174.121094"/>
      <use xlink:href="#DejaVuSans-65" x="212.984375"/>
      <use xlink:href="#DejaVuSans-71" x="274.507812"/>
      <use xlink:href="#DejaVuSans-75" x="337.984375"/>
      <use xlink:href="#DejaVuSans-65" x="401.363281"/>
      <use xlink:href="#DejaVuSans-73" x="462.886719"/>
      <use xlink:href="#DejaVuSans-74" x="514.986328"/>
      <use xlink:href="#DejaVuSans-65" x="554.195312"/>
      <use xlink:href="#DejaVuSans-64" x="615.71875"/>
     </g>
    </g>
   </g>
  </g>
  <g id="axes_3">
   <g id="patch_14">
    <path d="M 483.882353 512.64 
L 648 512.64 
L 648 69.12 
L 483.882353 69.12 
z
" style="fill: #ffffff"/>
   </g>
   <g id="matplotlib.axis_5">
    <g id="xtick_7">
     <g id="line2d_32">
      <g>
       <use xlink:href="#m8c673d10bc" x="488.297392" y="512.64" style="stroke: #000000; stroke-width: 0.8"/>
      </g>
     </g>
     <g id="text_26">
      <!-- 0 -->
      <g transform="translate(485.116142 527.238438) scale(0.1 -0.1)">
       <use xlink:href="#DejaVuSans-30"/>
      </g>
     </g>
    </g>
    <g id="xtick_8">
     <g id="line2d_33">
      <g>
       <use xlink:href="#m8c673d10bc" x="549.194478" y="512.64" style="stroke: #000000; stroke-width: 0.8"/>
      </g>
     </g>
     <g id="text_27">
      <!-- 20 -->
      <g transform="translate(542.831978 527.238438) scale(0.1 -0.1)">
       <use xlink:href="#DejaVuSans-32"/>
       <use xlink:href="#DejaVuSans-30" x="63.623047"/>
      </g>
     </g>
    </g>
    <g id="xtick_9">
     <g id="line2d_34">
      <g>
       <use xlink:href="#m8c673d10bc" x="610.091564" y="512.64" style="stroke: #000000; stroke-width: 0.8"/>
      </g>
     </g>
     <g id="text_28">
      <!-- 40 -->
      <g transform="translate(603.729064 527.238438) scale(0.1 -0.1)">
       <use xlink:href="#DejaVuSans-34"/>
       <use xlink:href="#DejaVuSans-30" x="63.623047"/>
      </g>
     </g>
    </g>
   </g>
   <g id="matplotlib.axis_6">
    <g id="ytick_14">
     <g id="line2d_35">
      <g>
       <use xlink:href="#ma6ab7fbe2d" x="483.882353" y="492.48" style="stroke: #000000; stroke-width: 0.8"/>
      </g>
     </g>
     <g id="text_29">
      <!-- 0 -->
      <g transform="translate(470.519853 496.279219) scale(0.1 -0.1)">
       <use xlink:href="#DejaVuSans-30"/>
      </g>
     </g>
    </g>
    <g id="ytick_15">
     <g id="line2d_36">
      <g>
       <use xlink:href="#ma6ab7fbe2d" x="483.882353" y="411.84" style="stroke: #000000; stroke-width: 0.8"/>
      </g>
     </g>
     <g id="text_30">
      <!-- 2 -->
      <g transform="translate(470.519853 415.639219) scale(0.1 -0.1)">
       <use xlink:href="#DejaVuSans-32"/>
      </g>
     </g>
    </g>
    <g id="ytick_16">
     <g id="line2d_37">
      <g>
       <use xlink:href="#ma6ab7fbe2d" x="483.882353" y="331.2" style="stroke: #000000; stroke-width: 0.8"/>
      </g>
     </g>
     <g id="text_31">
      <!-- 4 -->
      <g transform="translate(470.519853 334.999219) scale(0.1 -0.1)">
       <use xlink:href="#DejaVuSans-34"/>
      </g>
     </g>
    </g>
    <g id="ytick_17">
     <g id="line2d_38">
      <g>
       <use xlink:href="#ma6ab7fbe2d" x="483.882353" y="250.56" style="stroke: #000000; stroke-width: 0.8"/>
      </g>
     </g>
     <g id="text_32">
      <!-- 6 -->
      <g transform="translate(470.519853 254.359219) scale(0.1 -0.1)">
       <defs>
        <path id="DejaVuSans-36" d="M 2113 2584 
Q 1688 2584 1439 2293 
Q 1191 2003 1191 1497 
Q 1191 994 1439 701 
Q 1688 409 2113 409 
Q 2538 409 2786 701 
Q 3034 994 3034 1497 
Q 3034 2003 2786 2293 
Q 2538 2584 2113 2584 
z
M 3366 4563 
L 3366 3988 
Q 3128 4100 2886 4159 
Q 2644 4219 2406 4219 
Q 1781 4219 1451 3797 
Q 1122 3375 1075 2522 
Q 1259 2794 1537 2939 
Q 1816 3084 2150 3084 
Q 2853 3084 3261 2657 
Q 3669 2231 3669 1497 
Q 3669 778 3244 343 
Q 2819 -91 2113 -91 
Q 1303 -91 875 529 
Q 447 1150 447 2328 
Q 447 3434 972 4092 
Q 1497 4750 2381 4750 
Q 2619 4750 2861 4703 
Q 3103 4656 3366 4563 
z
" transform="scale(0.015625)"/>
       </defs>
       <use xlink:href="#DejaVuSans-36"/>
      </g>
     </g>
    </g>
    <g id="ytick_18">
     <g id="line2d_39">
      <g>
       <use xlink:href="#ma6ab7fbe2d" x="483.882353" y="169.92" style="stroke: #000000; stroke-width: 0.8"/>
      </g>
     </g>
     <g id="text_33">
      <!-- 8 -->
      <g transform="translate(470.519853 173.719219) scale(0.1 -0.1)">
       <defs>
        <path id="DejaVuSans-38" d="M 2034 2216 
Q 1584 2216 1326 1975 
Q 1069 1734 1069 1313 
Q 1069 891 1326 650 
Q 1584 409 2034 409 
Q 2484 409 2743 651 
Q 3003 894 3003 1313 
Q 3003 1734 2745 1975 
Q 2488 2216 2034 2216 
z
M 1403 2484 
Q 997 2584 770 2862 
Q 544 3141 544 3541 
Q 544 4100 942 4425 
Q 1341 4750 2034 4750 
Q 2731 4750 3128 4425 
Q 3525 4100 3525 3541 
Q 3525 3141 3298 2862 
Q 3072 2584 2669 2484 
Q 3125 2378 3379 2068 
Q 3634 1759 3634 1313 
Q 3634 634 3220 271 
Q 2806 -91 2034 -91 
Q 1263 -91 848 271 
Q 434 634 434 1313 
Q 434 1759 690 2068 
Q 947 2378 1403 2484 
z
M 1172 3481 
Q 1172 3119 1398 2916 
Q 1625 2713 2034 2713 
Q 2441 2713 2670 2916 
Q 2900 3119 2900 3481 
Q 2900 3844 2670 4047 
Q 2441 4250 2034 4250 
Q 1625 4250 1398 4047 
Q 1172 3844 1172 3481 
z
" transform="scale(0.015625)"/>
       </defs>
       <use xlink:href="#DejaVuSans-38"/>
      </g>
     </g>
    </g>
    <g id="ytick_19">
     <g id="line2d_40">
      <g>
       <use xlink:href="#ma6ab7fbe2d" x="483.882353" y="89.28" style="stroke: #000000; stroke-width: 0.8"/>
      </g>
     </g>
     <g id="text_34">
      <!-- 10 -->
      <g transform="translate(464.157353 93.079219) scale(0.1 -0.1)">
       <use xlink:href="#DejaVuSans-31"/>
       <use xlink:href="#DejaVuSans-30" x="63.623047"/>
      </g>
     </g>
    </g>
   </g>
   <g id="line2d_41">
    <path d="M 491.342246 492.48 
L 494.3871 492.48 
L 497.431955 492.48 
L 500.476809 492.48 
L 503.521663 492.48 
L 506.566518 492.48 
L 509.611372 492.48 
L 512.656226 492.48 
L 515.70108 492.48 
L 518.745935 492.48 
L 521.790789 492.48 
L 524.835643 411.84 
L 527.880498 411.84 
L 530.925352 411.84 
L 533.970206 411.84 
L 537.015061 411.84 
L 540.059915 411.84 
L 543.104769 371.52 
L 546.149623 371.52 
L 549.194478 371.52 
L 552.239332 371.52 
L 555.284186 371.52 
L 558.329041 371.52 
L 561.373895 371.52 
L 564.418749 371.52 
L 567.463604 371.52 
L 570.508458 371.52 
L 573.553312 371.52 
L 576.598167 371.52 
L 579.643021 371.52 
L 582.687875 371.52 
L 585.732729 371.52 
L 588.777584 371.52 
L 591.822438 371.52 
L 594.867292 371.52 
L 597.912147 371.52 
L 600.957001 371.52 
L 604.001855 371.52 
L 607.04671 371.52 
L 610.091564 371.52 
L 613.136418 371.52 
L 616.181273 371.52 
L 619.226127 371.52 
L 622.270981 371.52 
L 625.315835 371.52 
L 628.36069 371.52 
L 631.405544 371.52 
L 634.450398 331.2 
L 637.495253 331.2 
L 640.540107 331.2 
" clip-path="url(#p72c8d5c730)" style="fill: none; stroke: #0000ff; stroke-width: 1.5; stroke-linecap: square"/>
   </g>
   <g id="line2d_42">
    <path d="M 491.342246 492.48 
L 494.3871 492.48 
L 497.431955 492.48 
L 500.476809 492.48 
L 503.521663 492.48 
L 506.566518 411.84 
L 509.611372 411.84 
L 512.656226 411.84 
L 515.70108 411.84 
L 518.745935 411.84 
L 521.790789 411.84 
L 524.835643 371.52 
L 527.880498 371.52 
L 530.925352 371.52 
L 533.970206 371.52 
L 537.015061 371.52 
L 540.059915 371.52 
L 543.104769 290.88 
L 546.149623 290.88 
L 549.194478 290.88 
L 552.239332 290.88 
L 555.284186 290.88 
L 558.329041 290.88 
L 561.373895 290.88 
L 564.418749 290.88 
L 567.463604 290.88 
L 570.508458 290.88 
L 573.553312 290.88 
L 576.598167 290.88 
L 579.643021 290.88 
L 582.687875 290.88 
L 585.732729 290.88 
L 588.777584 290.88 
L 591.822438 290.88 
L 594.867292 290.88 
L 597.912147 290.88 
L 600.957001 290.88 
L 604.001855 290.88 
L 607.04671 290.88 
L 610.091564 290.88 
L 613.136418 290.88 
L 616.181273 169.92 
L 619.226127 169.92 
L 622.270981 169.92 
L 625.315835 169.92 
L 628.36069 169.92 
L 631.405544 169.92 
L 634.450398 89.28 
L 637.495253 89.28 
L 640.540107 89.28 
" clip-path="url(#p72c8d5c730)" style="fill: none; stroke: #ff0000; stroke-width: 1.5; stroke-linecap: square"/>
   </g>
   <g id="line2d_43">
    <path d="M 491.342246 492.48 
L 494.3871 492.48 
L 497.431955 492.48 
L 500.476809 492.48 
L 503.521663 492.48 
L 506.566518 452.16 
L 509.611372 452.16 
L 512.656226 452.16 
L 515.70108 452.16 
L 518.745935 452.16 
L 521.790789 452.16 
L 524.835643 452.16 
L 527.880498 452.16 
L 530.925352 452.16 
L 533.970206 452.16 
L 537.015061 452.16 
L 540.059915 452.16 
L 543.104769 411.84 
L 546.149623 411.84 
L 549.194478 411.84 
L 552.239332 411.84 
L 555.284186 411.84 
L 558.329041 411.84 
L 561.373895 411.84 
L 564.418749 411.84 
L 567.463604 411.84 
L 570.508458 411.84 
L 573.553312 411.84 
L 576.598167 411.84 
L 579.643021 411.84 
L 582.687875 411.84 
L 585.732729 411.84 
L 588.777584 411.84 
L 591.822438 411.84 
L 594.867292 411.84 
L 597.912147 411.84 
L 600.957001 411.84 
L 604.001855 411.84 
L 607.04671 411.84 
L 610.091564 411.84 
L 613.136418 411.84 
L 616.181273 411.84 
L 619.226127 411.84 
L 622.270981 411.84 
L 625.315835 411.84 
L 628.36069 411.84 
L 631.405544 411.84 
L 634.450398 411.84 
L 637.495253 411.84 
L 640.540107 411.84 
" clip-path="url(#p72c8d5c730)" style="fill: none; stroke: #008000; stroke-width: 1.5; stroke-linecap: square"/>
   </g>
   <g id="patch_15">
    <path d="M 483.882353 512.64 
L 483.882353 69.12 
" style="fill: none; stroke: #000000; stroke-width: 0.8; stroke-linejoin: miter; stroke-linecap: square"/>
   </g>
   <g id="patch_16">
    <path d="M 648 512.64 
L 648 69.12 
" style="fill: none; stroke: #000000; stroke-width: 0.8; stroke-linejoin: miter; stroke-linecap: square"/>
   </g>
   <g id="patch_17">
    <path d="M 483.882353 512.64 
L 648 512.64 
" style="fill: none; stroke: #000000; stroke-width: 0.8; stroke-linejoin: miter; stroke-linecap: square"/>
   </g>
   <g id="patch_18">
    <path d="M 483.882353 69.12 
L 648 69.12 
" style="fill: none; stroke: #000000; stroke-width: 0.8; stroke-linejoin: miter; stroke-linecap: square"/>
   </g>
   <g id="legend_3">
    <g id="patch_19">
     <path d="M 490.882353 121.154375 
L 580.719853 121.154375 
Q 582.719853 121.154375 582.719853 119.154375 
L 582.719853 76.12 
Q 582.719853 74.12 580.719853 74.12 
L 490.882353 74.12 
Q 488.882353 74.12 488.882353 76.12 
L 488.882353 119.154375 
Q 488.882353 121.154375 490.882353 121.154375 
z
" style="fill: #ffffff; opacity: 0.8; stroke: #cccccc; stroke-linejoin: miter"/>
    </g>
    <g id="line2d_44">
     <path d="M 492.882353 82.218438 
L 502.882353 82.218438 
L 512.882353 82.218438 
" style="fill: none; stroke: #0000ff; stroke-width: 1.5; stroke-linecap: square"/>
    </g>
    <g id="text_35">
     <!-- O1 ensured -->
     <g transform="translate(520.882353 85.718438) scale(0.1 -0.1)">
      <defs>
       <path id="DejaVuSans-6e" d="M 3513 2113 
L 3513 0 
L 2938 0 
L 2938 2094 
Q 2938 2591 2744 2837 
Q 2550 3084 2163 3084 
Q 1697 3084 1428 2787 
Q 1159 2491 1159 1978 
L 1159 0 
L 581 0 
L 581 3500 
L 1159 3500 
L 1159 2956 
Q 1366 3272 1645 3428 
Q 1925 3584 2291 3584 
Q 2894 3584 3203 3211 
Q 3513 2838 3513 2113 
z
" transform="scale(0.015625)"/>
      </defs>
      <use xlink:href="#DejaVuSans-4f"/>
      <use xlink:href="#DejaVuSans-31" x="78.710938"/>
      <use xlink:href="#DejaVuSans-20" x="142.333984"/>
      <use xlink:href="#DejaVuSans-65" x="174.121094"/>
      <use xlink:href="#DejaVuSans-6e" x="235.644531"/>
      <use xlink:href="#DejaVuSans-73" x="299.023438"/>
      <use xlink:href="#DejaVuSans-75" x="351.123047"/>
      <use xlink:href="#DejaVuSans-72" x="414.501953"/>
      <use xlink:href="#DejaVuSans-65" x="453.365234"/>
      <use xlink:href="#DejaVuSans-64" x="514.888672"/>
     </g>
    </g>
    <g id="line2d_45">
     <path d="M 492.882353 96.896563 
L 502.882353 96.896563 
L 512.882353 96.896563 
" style="fill: none; stroke: #ff0000; stroke-width: 1.5; stroke-linecap: square"/>
    </g>
    <g id="text_36">
     <!-- O2 ensured -->
     <g transform="translate(520.882353 100.396563) scale(0.1 -0.1)">
      <use xlink:href="#DejaVuSans-4f"/>
      <use xlink:href="#DejaVuSans-32" x="78.710938"/>
      <use xlink:href="#DejaVuSans-20" x="142.333984"/>
      <use xlink:href="#DejaVuSans-65" x="174.121094"/>
      <use xlink:href="#DejaVuSans-6e" x="235.644531"/>
      <use xlink:href="#DejaVuSans-73" x="299.023438"/>
      <use xlink:href="#DejaVuSans-75" x="351.123047"/>
      <use xlink:href="#DejaVuSans-72" x="414.501953"/>
      <use xlink:href="#DejaVuSans-65" x="453.365234"/>
      <use xlink:href="#DejaVuSans-64" x="514.888672"/>
     </g>
    </g>
    <g id="line2d_46">
     <path d="M 492.882353 111.574688 
L 502.882353 111.574688 
L 512.882353 111.574688 
" style="fill: none; stroke: #008000; stroke-width: 1.5; stroke-linecap: square"/>
    </g>
    <g id="text_37">
     <!-- O3 ensured -->
     <g transform="translate(520.882353 115.074688) scale(0.1 -0.1)">
      <use xlink:href="#DejaVuSans-4f"/>
      <use xlink:href="#DejaVuSans-33" x="78.710938"/>
      <use xlink:href="#DejaVuSans-20" x="142.333984"/>
      <use xlink:href="#DejaVuSans-65" x="174.121094"/>
      <use xlink:href="#DejaVuSans-6e" x="235.644531"/>
      <use xlink:href="#DejaVuSans-73" x="299.023438"/>
      <use xlink:href="#DejaVuSans-75" x="351.123047"/>
      <use xlink:href="#DejaVuSans-72" x="414.501953"/>
      <use xlink:href="#DejaVuSans-65" x="453.365234"/>
      <use xlink:href="#DejaVuSans-64" x="514.888672"/>
     </g>
    </g>
   </g>
  </g>
 </g>
 <defs>
  <clipPath id="pe6427587fb">
   <rect x="90" y="69.12" width="164.117647" height="443.52"/>
  </clipPath>
  <clipPath id="p55537f0c16">
   <rect x="286.941176" y="69.12" width="164.117647" height="443.52"/>
  </clipPath>
  <clipPath id="p72c8d5c730">
   <rect x="483.882353" y="69.12" width="164.117647" height="443.52"/>
  </clipPath>
 </defs>
</svg>
