<?xml version="1.0" encoding="utf-8" standalone="no"?>
<!DOCTYPE svg PUBLIC "-//W3C//DTD SVG 1.1//EN"
  "http://www.w3.org/Graphics/SVG/1.1/DTD/svg11.dtd">
<svg xmlns:xlink="http://www.w3.org/1999/xlink" width="720pt" height="576pt" viewBox="0 0 720 576" xmlns="http://www.w3.org/2000/svg" version="1.1">
 <metadata>
  <rdf:RDF xmlns:dc="http://purl.org/dc/elements/1.1/" xmlns:cc="http://creativecommons.org/ns#" xmlns:rdf="http://www.w3.org/1999/02/22-rdf-syntax-ns#">
   <cc:Work>
    <dc:type rdf:resource="http://purl.org/dc/dcmitype/StillImage"/>
    <dc:date>2023-05-31T19:33:13.528191</dc:date>
    <dc:format>image/svg+xml</dc:format>
    <dc:creator>
     <cc:Agent>
      <dc:title>Matplotlib v3.7.1, https://matplotlib.org/</dc:title>
     </cc:Agent>
    </dc:creator>
   </cc:Work>
  </rdf:RDF>
 </metadata>
 <defs>
  <style type="text/css">*{stroke-linejoin: round; stroke-linecap: butt}</style>
 </defs>
 <g id="figure_1">
  <g id="patch_1">
   <path d="M 0 576 
L 720 576 
L 720 0 
L 0 0 
z
" style="fill: #ffffff"/>
  </g>
  <g id="axes_1">
   <g id="patch_2">
    <path d="M 90 512.64 
L 254.117647 512.64 
L 254.117647 69.12 
L 90 69.12 
z
" style="fill: #ffffff"/>
   </g>
   <g id="matplotlib.axis_1">
    <g id="xtick_1">
     <g id="line2d_1">
      <defs>
       <path id="m3251a79b67" d="M 0 0 
L 0 3.5 
" style="stroke: #000000; stroke-width: 0.8"/>
      </defs>
      <g>
       <use xlink:href="#m3251a79b67" x="97.290157" y="512.64" style="stroke: #000000; stroke-width: 0.8"/>
      </g>
     </g>
     <g id="text_1">
      <!-- 0 -->
      <g transform="translate(94.108907 527.238438) scale(0.1 -0.1)">
       <defs>
        <path id="DejaVuSans-30" d="M 2034 4250 
Q 1547 4250 1301 3770 
Q 1056 3291 1056 2328 
Q 1056 1369 1301 889 
Q 1547 409 2034 409 
Q 2525 409 2770 889 
Q 3016 1369 3016 2328 
Q 3016 3291 2770 3770 
Q 2525 4250 2034 4250 
z
M 2034 4750 
Q 2819 4750 3233 4129 
Q 3647 3509 3647 2328 
Q 3647 1150 3233 529 
Q 2819 -91 2034 -91 
Q 1250 -91 836 529 
Q 422 1150 422 2328 
Q 422 3509 836 4129 
Q 1250 4750 2034 4750 
z
" transform="scale(0.015625)"/>
       </defs>
       <use xlink:href="#DejaVuSans-30"/>
      </g>
     </g>
    </g>
    <g id="xtick_2">
     <g id="line2d_2">
      <g>
       <use xlink:href="#m3251a79b67" x="131.237338" y="512.64" style="stroke: #000000; stroke-width: 0.8"/>
      </g>
     </g>
     <g id="text_2">
      <!-- 200 -->
      <g transform="translate(121.693588 527.238438) scale(0.1 -0.1)">
       <defs>
        <path id="DejaVuSans-32" d="M 1228 531 
L 3431 531 
L 3431 0 
L 469 0 
L 469 531 
Q 828 903 1448 1529 
Q 2069 2156 2228 2338 
Q 2531 2678 2651 2914 
Q 2772 3150 2772 3378 
Q 2772 3750 2511 3984 
Q 2250 4219 1831 4219 
Q 1534 4219 1204 4116 
Q 875 4013 500 3803 
L 500 4441 
Q 881 4594 1212 4672 
Q 1544 4750 1819 4750 
Q 2544 4750 2975 4387 
Q 3406 4025 3406 3419 
Q 3406 3131 3298 2873 
Q 3191 2616 2906 2266 
Q 2828 2175 2409 1742 
Q 1991 1309 1228 531 
z
" transform="scale(0.015625)"/>
       </defs>
       <use xlink:href="#DejaVuSans-32"/>
       <use xlink:href="#DejaVuSans-30" x="63.623047"/>
       <use xlink:href="#DejaVuSans-30" x="127.246094"/>
      </g>
     </g>
    </g>
    <g id="xtick_3">
     <g id="line2d_3">
      <g>
       <use xlink:href="#m3251a79b67" x="165.184519" y="512.64" style="stroke: #000000; stroke-width: 0.8"/>
      </g>
     </g>
     <g id="text_3">
      <!-- 400 -->
      <g transform="translate(155.640769 527.238438) scale(0.1 -0.1)">
       <defs>
        <path id="DejaVuSans-34" d="M 2419 4116 
L 825 1625 
L 2419 1625 
L 2419 4116 
z
M 2253 4666 
L 3047 4666 
L 3047 1625 
L 3713 1625 
L 3713 1100 
L 3047 1100 
L 3047 0 
L 2419 0 
L 2419 1100 
L 313 1100 
L 313 1709 
L 2253 4666 
z
" transform="scale(0.015625)"/>
       </defs>
       <use xlink:href="#DejaVuSans-34"/>
       <use xlink:href="#DejaVuSans-30" x="63.623047"/>
       <use xlink:href="#DejaVuSans-30" x="127.246094"/>
      </g>
     </g>
    </g>
    <g id="xtick_4">
     <g id="line2d_4">
      <g>
       <use xlink:href="#m3251a79b67" x="199.1317" y="512.64" style="stroke: #000000; stroke-width: 0.8"/>
      </g>
     </g>
     <g id="text_4">
      <!-- 600 -->
      <g transform="translate(189.58795 527.238438) scale(0.1 -0.1)">
       <defs>
        <path id="DejaVuSans-36" d="M 2113 2584 
Q 1688 2584 1439 2293 
Q 1191 2003 1191 1497 
Q 1191 994 1439 701 
Q 1688 409 2113 409 
Q 2538 409 2786 701 
Q 3034 994 3034 1497 
Q 3034 2003 2786 2293 
Q 2538 2584 2113 2584 
z
M 3366 4563 
L 3366 3988 
Q 3128 4100 2886 4159 
Q 2644 4219 2406 4219 
Q 1781 4219 1451 3797 
Q 1122 3375 1075 2522 
Q 1259 2794 1537 2939 
Q 1816 3084 2150 3084 
Q 2853 3084 3261 2657 
Q 3669 2231 3669 1497 
Q 3669 778 3244 343 
Q 2819 -91 2113 -91 
Q 1303 -91 875 529 
Q 447 1150 447 2328 
Q 447 3434 972 4092 
Q 1497 4750 2381 4750 
Q 2619 4750 2861 4703 
Q 3103 4656 3366 4563 
z
" transform="scale(0.015625)"/>
       </defs>
       <use xlink:href="#DejaVuSans-36"/>
       <use xlink:href="#DejaVuSans-30" x="63.623047"/>
       <use xlink:href="#DejaVuSans-30" x="127.246094"/>
      </g>
     </g>
    </g>
    <g id="xtick_5">
     <g id="line2d_5">
      <g>
       <use xlink:href="#m3251a79b67" x="233.078882" y="512.64" style="stroke: #000000; stroke-width: 0.8"/>
      </g>
     </g>
     <g id="text_5">
      <!-- 800 -->
      <g transform="translate(223.535132 527.238438) scale(0.1 -0.1)">
       <defs>
        <path id="DejaVuSans-38" d="M 2034 2216 
Q 1584 2216 1326 1975 
Q 1069 1734 1069 1313 
Q 1069 891 1326 650 
Q 1584 409 2034 409 
Q 2484 409 2743 651 
Q 3003 894 3003 1313 
Q 3003 1734 2745 1975 
Q 2488 2216 2034 2216 
z
M 1403 2484 
Q 997 2584 770 2862 
Q 544 3141 544 3541 
Q 544 4100 942 4425 
Q 1341 4750 2034 4750 
Q 2731 4750 3128 4425 
Q 3525 4100 3525 3541 
Q 3525 3141 3298 2862 
Q 3072 2584 2669 2484 
Q 3125 2378 3379 2068 
Q 3634 1759 3634 1313 
Q 3634 634 3220 271 
Q 2806 -91 2034 -91 
Q 1263 -91 848 271 
Q 434 634 434 1313 
Q 434 1759 690 2068 
Q 947 2378 1403 2484 
z
M 1172 3481 
Q 1172 3119 1398 2916 
Q 1625 2713 2034 2713 
Q 2441 2713 2670 2916 
Q 2900 3119 2900 3481 
Q 2900 3844 2670 4047 
Q 2441 4250 2034 4250 
Q 1625 4250 1398 4047 
Q 1172 3844 1172 3481 
z
" transform="scale(0.015625)"/>
       </defs>
       <use xlink:href="#DejaVuSans-38"/>
       <use xlink:href="#DejaVuSans-30" x="63.623047"/>
       <use xlink:href="#DejaVuSans-30" x="127.246094"/>
      </g>
     </g>
    </g>
   </g>
   <g id="matplotlib.axis_2">
    <g id="ytick_1">
     <g id="line2d_6">
      <defs>
       <path id="ma32bf87b54" d="M 0 0 
L -3.5 0 
" style="stroke: #000000; stroke-width: 0.8"/>
      </defs>
      <g>
       <use xlink:href="#ma32bf87b54" x="90" y="492.48" style="stroke: #000000; stroke-width: 0.8"/>
      </g>
     </g>
     <g id="text_6">
      <!-- 0.0 -->
      <g transform="translate(67.096875 496.279219) scale(0.1 -0.1)">
       <defs>
        <path id="DejaVuSans-2e" d="M 684 794 
L 1344 794 
L 1344 0 
L 684 0 
L 684 794 
z
" transform="scale(0.015625)"/>
       </defs>
       <use xlink:href="#DejaVuSans-30"/>
       <use xlink:href="#DejaVuSans-2e" x="63.623047"/>
       <use xlink:href="#DejaVuSans-30" x="95.410156"/>
      </g>
     </g>
    </g>
    <g id="ytick_2">
     <g id="line2d_7">
      <g>
       <use xlink:href="#ma32bf87b54" x="90" y="405.705578" style="stroke: #000000; stroke-width: 0.8"/>
      </g>
     </g>
     <g id="text_7">
      <!-- 0.1 -->
      <g transform="translate(67.096875 409.504796) scale(0.1 -0.1)">
       <defs>
        <path id="DejaVuSans-31" d="M 794 531 
L 1825 531 
L 1825 4091 
L 703 3866 
L 703 4441 
L 1819 4666 
L 2450 4666 
L 2450 531 
L 3481 531 
L 3481 0 
L 794 0 
L 794 531 
z
" transform="scale(0.015625)"/>
       </defs>
       <use xlink:href="#DejaVuSans-30"/>
       <use xlink:href="#DejaVuSans-2e" x="63.623047"/>
       <use xlink:href="#DejaVuSans-31" x="95.410156"/>
      </g>
     </g>
    </g>
    <g id="ytick_3">
     <g id="line2d_8">
      <g>
       <use xlink:href="#ma32bf87b54" x="90" y="318.931155" style="stroke: #000000; stroke-width: 0.8"/>
      </g>
     </g>
     <g id="text_8">
      <!-- 0.2 -->
      <g transform="translate(67.096875 322.730374) scale(0.1 -0.1)">
       <use xlink:href="#DejaVuSans-30"/>
       <use xlink:href="#DejaVuSans-2e" x="63.623047"/>
       <use xlink:href="#DejaVuSans-32" x="95.410156"/>
      </g>
     </g>
    </g>
    <g id="ytick_4">
     <g id="line2d_9">
      <g>
       <use xlink:href="#ma32bf87b54" x="90" y="232.156733" style="stroke: #000000; stroke-width: 0.8"/>
      </g>
     </g>
     <g id="text_9">
      <!-- 0.3 -->
      <g transform="translate(67.096875 235.955951) scale(0.1 -0.1)">
       <defs>
        <path id="DejaVuSans-33" d="M 2597 2516 
Q 3050 2419 3304 2112 
Q 3559 1806 3559 1356 
Q 3559 666 3084 287 
Q 2609 -91 1734 -91 
Q 1441 -91 1130 -33 
Q 819 25 488 141 
L 488 750 
Q 750 597 1062 519 
Q 1375 441 1716 441 
Q 2309 441 2620 675 
Q 2931 909 2931 1356 
Q 2931 1769 2642 2001 
Q 2353 2234 1838 2234 
L 1294 2234 
L 1294 2753 
L 1863 2753 
Q 2328 2753 2575 2939 
Q 2822 3125 2822 3475 
Q 2822 3834 2567 4026 
Q 2313 4219 1838 4219 
Q 1578 4219 1281 4162 
Q 984 4106 628 3988 
L 628 4550 
Q 988 4650 1302 4700 
Q 1616 4750 1894 4750 
Q 2613 4750 3031 4423 
Q 3450 4097 3450 3541 
Q 3450 3153 3228 2886 
Q 3006 2619 2597 2516 
z
" transform="scale(0.015625)"/>
       </defs>
       <use xlink:href="#DejaVuSans-30"/>
       <use xlink:href="#DejaVuSans-2e" x="63.623047"/>
       <use xlink:href="#DejaVuSans-33" x="95.410156"/>
      </g>
     </g>
    </g>
    <g id="ytick_5">
     <g id="line2d_10">
      <g>
       <use xlink:href="#ma32bf87b54" x="90" y="145.38231" style="stroke: #000000; stroke-width: 0.8"/>
      </g>
     </g>
     <g id="text_10">
      <!-- 0.4 -->
      <g transform="translate(67.096875 149.181529) scale(0.1 -0.1)">
       <use xlink:href="#DejaVuSans-30"/>
       <use xlink:href="#DejaVuSans-2e" x="63.623047"/>
       <use xlink:href="#DejaVuSans-34" x="95.410156"/>
      </g>
     </g>
    </g>
   </g>
   <g id="line2d_11">
    <path d="M 97.459893 492.48 
L 105.946688 492.48 
L 106.116424 434.630385 
L 107.304576 434.630385 
L 107.474311 423.060462 
L 107.983519 423.060462 
L 108.153255 423.505459 
L 108.662463 423.505459 
L 108.832199 440.03392 
L 109.341406 440.03392 
L 109.511142 445.611099 
L 110.02035 445.611099 
L 110.190086 450.011037 
L 110.699294 450.011037 
L 110.86903 450.367253 
L 111.378237 450.367253 
L 111.547973 451.302323 
L 112.057181 451.302323 
L 112.226917 451.576232 
L 113.415068 451.576232 
L 113.584804 451.834029 
L 114.772955 451.834029 
L 114.942691 452.306656 
L 116.130843 452.306656 
L 116.300579 452.523809 
L 117.48873 452.523809 
L 117.658466 452.729534 
L 118.167674 452.729534 
L 118.337409 452.924708 
L 119.525561 452.924708 
L 119.695297 453.286494 
L 120.204504 453.286494 
L 120.37424 453.614626 
L 120.883448 453.614626 
L 121.053184 456.828493 
L 121.562392 456.828493 
L 121.732128 459.610901 
L 122.241335 459.610901 
L 122.580807 459.756985 
L 122.920279 459.756985 
L 123.090015 462.087992 
L 123.599223 462.087992 
L 123.768958 464.075934 
L 124.278166 464.075934 
L 124.617638 464.204147 
L 124.95711 464.204147 
L 125.126846 464.445187 
L 125.636053 464.445187 
L 125.975525 464.558617 
L 126.314997 464.558617 
L 126.484733 464.873702 
L 126.993941 464.873702 
L 127.163677 468.031651 
L 128.351828 468.122267 
L 128.521564 468.294285 
L 129.709715 468.375994 
L 129.879451 468.531503 
L 130.388659 468.531503 
L 130.728131 468.677294 
L 131.067602 468.677294 
L 131.237338 470.019449 
L 131.746546 470.019449 
L 131.916282 470.209994 
L 132.42549 470.209994 
L 132.764961 470.328079 
L 133.104433 470.328079 
L 133.274169 472.336746 
L 133.783377 472.336746 
L 133.953113 473.239083 
L 136.499151 473.239083 
L 136.668887 474.000262 
L 138.535982 474.108838 
L 138.875454 474.211701 
L 139.214926 474.211701 
L 139.384662 474.949814 
L 140.572813 474.949814 
L 140.742549 476.195688 
L 141.251757 476.195688 
L 141.421493 476.766629 
L 142.609644 476.766629 
L 142.77938 477.294476 
L 145.325418 477.382661 
L 145.495154 478.239693 
L 146.004362 478.239693 
L 146.174098 478.622296 
L 146.683306 478.622296 
L 146.853042 479.310982 
L 148.720137 479.394968 
L 148.889872 480.038079 
L 149.39908 480.038079 
L 149.568816 480.351557 
L 150.078024 480.351557 
L 150.24776 481.001902 
L 150.756967 481.001902 
L 150.926703 481.266781 
L 151.435911 481.266781 
L 151.605647 481.689658 
L 152.793798 481.791101 
L 152.963534 482.081444 
L 154.151685 482.081444 
L 154.321421 482.266859 
L 156.86746 482.3271 
L 157.037196 482.561327 
L 157.546404 482.561327 
L 157.71614 482.945067 
L 158.904291 482.972069 
L 159.074027 483.488745 
L 159.583234 483.488745 
L 159.75297 483.647563 
L 160.262178 483.647563 
L 160.431914 483.871426 
L 161.620065 483.871426 
L 161.789801 484.112466 
L 163.656896 484.157775 
L 163.996368 484.293268 
L 164.33584 484.293268 
L 164.675312 484.424019 
L 165.014783 484.424019 
L 165.184519 484.651348 
L 165.693727 484.651348 
L 165.863463 484.84265 
L 167.730558 484.904455 
L 168.239766 484.963245 
L 169.088445 484.98221 
L 169.427917 485.091488 
L 169.767389 485.091488 
L 169.937125 485.263506 
L 171.80422 485.363579 
L 172.483163 485.399448 
L 176.217353 485.687884 
L 177.235769 485.761937 
L 177.57524 485.849199 
L 177.914712 485.849199 
L 178.084448 486.016532 
L 179.2726 486.046049 
L 179.442335 486.203638 
L 179.951543 486.203638 
L 180.121279 486.411269 
L 180.630487 486.411269 
L 180.800223 486.590091 
L 181.30943 486.590091 
L 181.479166 486.804017 
L 183.346261 486.868743 
L 183.855469 486.915684 
L 184.704148 486.986165 
L 185.04362 487.086468 
L 186.062036 487.182416 
L 186.571243 487.222927 
L 186.740979 487.222927 
L 187.080451 487.350746 
L 188.098867 487.399338 
L 188.268603 487.606321 
L 188.77781 487.606321 
L 188.947546 487.753961 
L 189.456754 487.753961 
L 189.62649 487.918748 
L 190.814641 488.008786 
L 191.323849 488.059319 
L 192.172528 488.165404 
L 192.512 488.231209 
L 193.530416 488.296267 
L 193.869887 488.358072 
L 195.567246 488.464556 
L 195.906718 488.563506 
L 198.283021 488.655747 
L 198.792229 488.712045 
L 199.640908 488.808872 
L 199.98038 488.878252 
L 200.998795 488.944746 
L 201.338267 489.00371 
L 203.035626 489.102838 
L 203.375098 489.163478 
L 205.072457 489.239987 
L 205.921137 489.322157 
L 208.467175 489.416086 
L 208.976383 489.465691 
L 209.825063 489.512651 
L 210.164534 489.580252 
L 211.861893 489.691273 
L 212.540837 489.729177 
L 213.219781 489.766115 
L 214.577668 489.807251 
L 217.463178 489.894144 
L 221.367104 489.994067 
L 223.234199 490.055557 
L 226.119709 490.147728 
L 227.307861 490.182065 
L 232.230202 490.271653 
L 233.248617 490.323466 
L 239.019638 490.420883 
L 240.038054 490.460597 
L 245.130131 490.56472 
L 246.657754 490.620683 
L 246.657754 490.620683 
" clip-path="url(#p6f87377411)" style="fill: none; stroke: #0000ff; stroke-width: 1.5; stroke-linecap: square"/>
   </g>
   <g id="line2d_12">
    <path d="M 97.459893 492.48 
L 104.588801 492.48 
L 104.758537 481.355074 
L 105.267745 481.355074 
L 105.437481 440.828558 
L 105.946688 440.828558 
L 106.116424 441.897209 
L 106.625632 441.897209 
L 106.795368 428.5286 
L 107.304576 428.5286 
L 107.474311 429.526007 
L 107.983519 429.526007 
L 108.153255 355.406188 
L 108.662463 355.406188 
L 108.832199 300.109271 
L 109.341406 300.109271 
L 109.511142 277.320029 
L 110.02035 277.320029 
L 110.190086 247.634042 
L 110.699294 247.634042 
L 110.86903 232.039152 
L 111.378237 232.039152 
L 111.547973 234.22279 
L 112.057181 234.22279 
L 112.226917 239.748293 
L 112.736125 239.748293 
L 112.90586 244.866118 
L 113.415068 244.866118 
L 113.584804 254.059938 
L 114.094012 254.059938 
L 114.263748 239.226704 
L 116.130843 239.226704 
L 116.300579 228.251737 
L 118.167674 228.251737 
L 118.337409 214.73298 
L 118.846617 214.73298 
L 119.016353 214.542267 
L 119.525561 214.542267 
L 119.695297 206.713615 
L 120.204504 206.713615 
L 120.37424 213.944817 
L 120.883448 213.944817 
L 121.053184 197.829303 
L 121.562392 197.829303 
L 121.732128 177.155773 
L 122.241335 177.155773 
L 122.411071 177.315857 
L 122.920279 177.315857 
L 123.090015 165.210281 
L 123.599223 165.210281 
L 123.768958 143.262459 
L 124.278166 143.262459 
L 124.447902 130.843948 
L 124.95711 130.843948 
L 125.126846 139.958909 
L 125.636053 139.958909 
L 125.805789 154.943733 
L 126.314997 154.943733 
L 126.484733 156.966447 
L 126.993941 156.966447 
L 127.163677 162.97992 
L 127.672884 162.97992 
L 127.84262 170.926296 
L 128.351828 170.926296 
L 128.521564 178.925364 
L 129.030771 178.925364 
L 129.200507 182.571348 
L 129.709715 182.571348 
L 129.879451 184.317313 
L 130.388659 184.317313 
L 130.558395 192.173639 
L 131.067602 192.173639 
L 131.237338 198.860756 
L 131.746546 198.860756 
L 131.916282 196.567618 
L 132.42549 196.567618 
L 132.595225 198.860811 
L 133.104433 198.860811 
L 133.274169 203.148085 
L 133.783377 203.148085 
L 133.953113 206.066103 
L 134.46232 206.066103 
L 134.632056 207.659192 
L 135.141264 207.659192 
L 135.311 207.311065 
L 135.820208 207.311065 
L 135.989944 210.203545 
L 136.499151 210.203545 
L 136.668887 208.138158 
L 137.857039 208.138158 
L 138.026774 210.808141 
L 139.214926 210.808141 
L 139.384662 208.794388 
L 139.893869 208.794388 
L 140.063605 196.673545 
L 140.572813 196.673545 
L 140.742549 183.181453 
L 141.251757 183.181453 
L 141.421493 169.00717 
L 141.9307 169.00717 
L 142.100436 156.640256 
L 142.609644 156.640256 
L 142.77938 140.233211 
L 143.288588 140.233211 
L 143.458323 118.906164 
L 143.967531 118.906164 
L 144.137267 99.161821 
L 144.646475 99.161821 
L 144.816211 92.086759 
L 145.325418 92.086759 
L 145.495154 89.28 
L 146.004362 89.28 
L 146.174098 92.357107 
L 146.683306 92.357107 
L 146.853042 96.734847 
L 147.362249 96.734847 
L 147.531985 94.426224 
L 148.041193 94.426224 
L 148.210929 90.171803 
L 148.720137 90.171803 
L 148.889872 93.699218 
L 149.39908 93.699218 
L 149.568816 97.058661 
L 150.078024 97.058661 
L 150.24776 100.261852 
L 150.756967 100.261852 
L 150.926703 103.594318 
L 151.435911 103.594318 
L 151.605647 105.519676 
L 152.114855 105.519676 
L 152.284591 109.894634 
L 153.472742 109.894634 
L 153.642478 111.186171 
L 154.151685 111.186171 
L 154.321421 112.452629 
L 154.830629 112.452629 
L 155.000365 116.61643 
L 155.509573 116.61643 
L 155.679309 124.500742 
L 156.188516 124.500742 
L 156.358252 136.7319 
L 156.86746 136.7319 
L 157.037196 148.026933 
L 157.546404 148.026933 
L 157.71614 155.745744 
L 158.225347 155.745744 
L 158.395083 163.995113 
L 158.904291 163.995113 
L 159.074027 167.557281 
L 159.583234 167.557281 
L 159.75297 175.473211 
L 160.262178 175.473211 
L 160.431914 176.50608 
L 160.941122 176.50608 
L 161.110858 180.462491 
L 161.620065 180.462491 
L 161.789801 185.672635 
L 162.299009 185.672635 
L 162.468745 194.017439 
L 162.977953 194.017439 
L 163.147688 201.384579 
L 163.656896 201.384579 
L 163.826632 205.01384 
L 164.33584 205.01384 
L 164.505576 207.770452 
L 165.014783 207.770452 
L 165.184519 211.799592 
L 165.693727 211.799592 
L 165.863463 212.513708 
L 166.372671 212.513708 
L 166.542407 216.985388 
L 167.051614 216.985388 
L 167.22135 221.20479 
L 167.730558 221.20479 
L 167.900294 223.760269 
L 168.409502 223.760269 
L 168.579237 225.588784 
L 169.088445 225.588784 
L 169.258181 229.559311 
L 169.767389 229.559311 
L 169.937125 231.713235 
L 170.446332 231.713235 
L 170.616068 233.812917 
L 171.125276 233.812917 
L 171.295012 235.464201 
L 171.80422 235.464201 
L 171.973956 237.772272 
L 173.162107 237.772272 
L 173.331843 240.202484 
L 173.841051 240.202484 
L 174.010786 245.315591 
L 174.519994 245.315591 
L 174.68973 249.272744 
L 175.198938 249.272744 
L 175.368674 251.667254 
L 175.877881 251.667254 
L 176.047617 257.150248 
L 176.556825 257.150248 
L 176.726561 261.242456 
L 177.235769 261.242456 
L 177.405505 263.325241 
L 177.914712 263.325241 
L 178.084448 265.5151 
L 178.593656 265.5151 
L 178.763392 270.65361 
L 179.2726 270.65361 
L 179.442335 272.612192 
L 179.951543 272.612192 
L 180.121279 274.069627 
L 180.630487 274.069627 
L 180.800223 275.980215 
L 181.30943 275.980215 
L 181.479166 277.139837 
L 181.988374 277.139837 
L 182.15811 279.656653 
L 182.667318 279.656653 
L 182.837054 280.816414 
L 183.346261 280.816414 
L 183.515997 281.95748 
L 184.025205 281.95748 
L 184.194941 282.404631 
L 184.704148 282.404631 
L 184.873884 283.728135 
L 185.383092 283.728135 
L 185.552828 285.425699 
L 186.062036 285.425699 
L 186.231772 287.214862 
L 187.419923 287.214862 
L 187.589659 290.308801 
L 188.098867 290.308801 
L 188.268603 293.218359 
L 188.77781 293.218359 
L 188.947546 296.940556 
L 189.456754 296.940556 
L 189.62649 298.548501 
L 190.135697 298.548501 
L 190.305433 301.612706 
L 190.814641 301.612706 
L 190.984377 305.367778 
L 191.493585 305.367778 
L 191.663321 307.736163 
L 192.172528 307.736163 
L 192.342264 311.116306 
L 192.851472 311.116306 
L 193.021208 314.81534 
L 193.530416 314.81534 
L 193.700151 317.447442 
L 194.209359 317.447442 
L 194.379095 319.88871 
L 194.888303 319.88871 
L 195.058039 322.387343 
L 195.567246 322.387343 
L 195.736982 324.704739 
L 196.24619 324.704739 
L 196.415926 326.281585 
L 196.925134 326.281585 
L 197.09487 327.983073 
L 197.604077 327.983073 
L 197.773813 330.515188 
L 198.283021 330.515188 
L 198.452757 331.865143 
L 198.961965 331.865143 
L 199.1317 334.110168 
L 199.640908 334.110168 
L 199.810644 334.728792 
L 200.319852 334.728792 
L 200.489588 335.762378 
L 200.998795 335.762378 
L 201.168531 336.984086 
L 201.677739 336.984086 
L 201.847475 338.111237 
L 202.356683 338.111237 
L 202.526419 339.467156 
L 203.035626 339.467156 
L 203.205362 340.134333 
L 203.71457 340.134333 
L 203.884306 341.037024 
L 204.393514 341.037024 
L 204.563249 342.10233 
L 205.072457 342.10233 
L 205.242193 343.59176 
L 205.751401 343.59176 
L 205.921137 344.377664 
L 206.430344 344.377664 
L 206.60008 344.934855 
L 207.109288 344.934855 
L 207.279024 345.484661 
L 207.788232 345.484661 
L 207.957968 345.9482 
L 208.467175 345.9482 
L 208.636911 346.397692 
L 209.146119 346.397692 
L 209.315855 348.413941 
L 209.825063 348.413941 
L 209.994798 349.430278 
L 210.504006 349.430278 
L 210.673742 350.933364 
L 211.18295 350.933364 
L 211.352686 351.487253 
L 211.861893 351.487253 
L 212.031629 352.648517 
L 212.540837 352.648517 
L 212.710573 354.190955 
L 213.219781 354.190955 
L 213.389517 356.196563 
L 213.898724 356.196563 
L 214.06846 357.458299 
L 214.577668 357.458299 
L 214.747404 358.805898 
L 215.256611 358.805898 
L 215.426347 359.844055 
L 215.935555 359.844055 
L 216.105291 361.739264 
L 216.614499 361.739264 
L 216.784235 362.517944 
L 217.293442 362.517944 
L 217.463178 363.370965 
L 217.972386 363.370965 
L 218.142122 365.19954 
L 218.65133 365.19954 
L 218.821066 366.780397 
L 219.330273 366.780397 
L 219.500009 367.434966 
L 220.009217 367.434966 
L 220.178953 368.176981 
L 220.68816 368.176981 
L 220.857896 368.816916 
L 221.367104 368.816916 
L 221.53684 369.182762 
L 222.046048 369.182762 
L 222.215784 369.998974 
L 222.724991 369.998974 
L 222.894727 370.309951 
L 223.403935 370.309951 
L 223.573671 370.667139 
L 224.082879 370.667139 
L 224.252614 371.086947 
L 224.761822 371.086947 
L 224.931558 371.331314 
L 225.440766 371.331314 
L 225.610502 372.1032 
L 226.119709 372.1032 
L 226.289445 372.259586 
L 226.798653 372.259586 
L 226.968389 373.29322 
L 227.477597 373.29322 
L 227.647333 373.781993 
L 228.835484 373.856578 
L 229.00522 374.115279 
L 229.514428 374.115279 
L 229.684163 374.262856 
L 230.193371 374.262856 
L 230.363107 375.345985 
L 230.872315 375.345985 
L 231.042051 376.408638 
L 231.551258 376.408638 
L 231.720994 377.244363 
L 232.230202 377.244363 
L 232.399938 378.091996 
L 232.909146 378.091996 
L 233.078882 378.940957 
L 233.588089 378.940957 
L 233.757825 380.269494 
L 234.267033 380.269494 
L 234.436769 381.525117 
L 234.945977 381.525117 
L 235.115712 382.279878 
L 235.62492 382.279878 
L 235.794656 383.46992 
L 236.303864 383.46992 
L 236.4736 384.634465 
L 236.982807 384.634465 
L 237.152543 385.954317 
L 237.661751 385.954317 
L 237.831487 387.507575 
L 238.340695 387.507575 
L 238.510431 388.421291 
L 239.019638 388.421291 
L 239.189374 389.830226 
L 239.698582 389.830226 
L 239.868318 390.691608 
L 240.377526 390.691608 
L 240.547261 391.636475 
L 241.056469 391.636475 
L 241.226205 392.741573 
L 241.735413 392.741573 
L 241.905149 393.869664 
L 242.414356 393.869664 
L 242.584092 394.659226 
L 243.0933 394.659226 
L 243.263036 395.481834 
L 243.772244 395.481834 
L 243.94198 395.9977 
L 244.451187 395.9977 
L 244.620923 396.714233 
L 245.130131 396.714233 
L 245.299867 397.060757 
L 245.809074 397.060757 
L 245.97881 397.496037 
L 246.488018 397.496037 
L 246.657754 397.988475 
L 246.657754 397.988475 
" clip-path="url(#p6f87377411)" style="fill: none; stroke: #ff0000; stroke-width: 1.5; stroke-linecap: square"/>
   </g>
   <g id="line2d_13">
    <path d="M 97.459893 492.48 
L 104.588801 492.48 
L 104.758537 394.61411 
L 105.267745 394.61411 
L 105.437481 380.912885 
L 105.946688 380.912885 
L 106.116424 368.516539 
L 106.625632 368.516539 
L 106.795368 378.846828 
L 107.304576 378.846828 
L 107.474311 377.898637 
L 107.983519 377.898637 
L 108.153255 379.994638 
L 108.662463 379.994638 
L 108.832199 381.922958 
L 109.341406 381.922958 
L 109.511142 388.350693 
L 110.02035 388.350693 
L 110.190086 390.130681 
L 110.699294 390.130681 
L 110.86903 391.778818 
L 111.378237 391.778818 
L 111.547973 399.993155 
L 112.736125 399.993155 
L 112.90586 402.567109 
L 114.094012 402.567109 
L 114.263748 408.115978 
L 114.772955 408.115978 
L 114.942691 411.824287 
L 115.451899 411.824287 
L 115.621635 416.098474 
L 116.809786 416.098474 
L 116.979522 418.101924 
L 117.48873 418.101924 
L 117.658466 419.020171 
L 118.846617 419.020171 
L 119.016353 419.888784 
L 119.525561 419.888784 
L 119.695297 424.247121 
L 120.204504 424.247121 
L 120.37424 425.694266 
L 120.883448 425.694266 
L 121.053184 426.366154 
L 121.562392 426.366154 
L 121.732128 427.006792 
L 122.241335 427.006792 
L 122.411071 429.296733 
L 122.920279 429.296733 
L 123.090015 430.301502 
L 123.599223 430.301502 
L 123.768958 430.773744 
L 124.278166 430.773744 
L 124.447902 432.083547 
L 124.95711 432.083547 
L 125.126846 435.287767 
L 125.636053 435.287767 
L 125.805789 437.790238 
L 126.993941 437.790238 
L 127.163677 439.680748 
L 127.672884 439.680748 
L 127.84262 442.894616 
L 128.351828 442.894616 
L 128.521564 443.257082 
L 129.030771 443.257082 
L 129.200507 445.322525 
L 129.709715 445.322525 
L 129.879451 445.649359 
L 131.067602 445.649359 
L 131.237338 445.965477 
L 131.746546 445.965477 
L 131.916282 446.271398 
L 132.42549 446.271398 
L 132.595225 446.567607 
L 134.46232 446.567607 
L 134.632056 447.819763 
L 135.141264 447.819763 
L 135.311 448.106716 
L 135.820208 448.106716 
L 135.989944 449.797807 
L 136.499151 449.797807 
L 136.668887 450.313401 
L 137.178095 450.313401 
L 137.347831 450.559989 
L 139.214926 450.559989 
L 139.384662 451.032327 
L 139.893869 451.032327 
L 140.063605 452.94943 
L 140.572813 452.94943 
L 140.742549 453.152411 
L 141.251757 453.152411 
L 141.421493 453.35012 
L 141.9307 453.35012 
L 142.100436 454.31428 
L 142.609644 454.31428 
L 142.77938 455.396913 
L 143.288588 455.396913 
L 143.458323 456.986189 
L 143.967531 456.986189 
L 144.137267 457.886385 
L 144.646475 457.886385 
L 144.816211 458.912939 
L 145.325418 458.912939 
L 145.495154 459.087133 
L 146.004362 459.087133 
L 146.174098 459.879168 
L 147.362249 459.879168 
L 147.531985 460.462329 
L 148.041193 460.462329 
L 148.210929 461.525741 
L 148.720137 461.525741 
L 148.889872 462.636945 
L 149.39908 462.636945 
L 149.568816 463.482699 
L 150.756967 463.482699 
L 150.926703 464.243878 
L 151.435911 464.243878 
L 151.605647 464.405922 
L 152.114855 464.405922 
L 152.284591 464.564197 
L 152.793798 464.564197 
L 152.963534 465.071576 
L 154.151685 465.071576 
L 154.321421 465.40752 
L 154.830629 465.40752 
L 155.000365 465.878961 
L 155.509573 465.878961 
L 155.679309 466.18472 
L 156.188516 466.18472 
L 156.358252 467.674043 
L 156.86746 467.674043 
L 157.037196 467.910164 
L 157.546404 467.910164 
L 157.71614 468.640873 
L 158.225347 468.640873 
L 158.395083 468.850777 
L 158.904291 468.850777 
L 159.074027 469.191105 
L 159.583234 469.191105 
L 159.75297 469.708934 
L 160.262178 469.708934 
L 160.431914 470.453925 
L 160.941122 470.453925 
L 161.110858 471.343373 
L 161.620065 471.343373 
L 161.789801 471.754207 
L 162.299009 471.754207 
L 162.638481 471.871075 
L 162.977953 471.871075 
L 163.317424 471.985628 
L 163.656896 471.985628 
L 163.826632 472.236997 
L 164.33584 472.236997 
L 164.505576 472.561085 
L 165.014783 472.561085 
L 165.354255 472.695933 
L 165.693727 472.695933 
L 165.863463 472.901895 
L 167.051614 472.901895 
L 167.391086 473.032717 
L 168.409502 473.132837 
L 168.579237 473.327617 
L 170.446332 473.327617 
L 170.785804 473.454592 
L 171.125276 473.454592 
L 171.295012 473.672644 
L 172.483163 473.672644 
L 172.652899 473.857128 
L 173.162107 473.857128 
L 173.331843 474.035195 
L 173.841051 474.035195 
L 174.010786 474.722707 
L 174.519994 474.722707 
L 174.68973 475.020882 
L 175.198938 475.020882 
L 175.368674 475.51078 
L 175.877881 475.51078 
L 176.047617 475.797785 
L 176.556825 475.797785 
L 176.726561 476.09445 
L 177.235769 476.09445 
L 177.405505 476.416796 
L 177.914712 476.416796 
L 178.084448 476.678485 
L 178.593656 476.678485 
L 178.763392 476.892873 
L 179.2726 476.892873 
L 179.442335 477.064968 
L 180.630487 477.126165 
L 180.800223 477.387522 
L 181.988374 477.445308 
L 182.15811 477.694906 
L 182.667318 477.694906 
L 182.837054 477.906014 
L 183.346261 477.906014 
L 183.515997 478.234749 
L 184.025205 478.234749 
L 184.194941 478.390064 
L 184.704148 478.390064 
L 184.873884 478.580207 
L 186.062036 478.64782 
L 186.231772 478.795145 
L 187.419923 478.861319 
L 187.589659 479.037381 
L 188.098867 479.037381 
L 188.268603 479.313868 
L 188.77781 479.313868 
L 188.947546 479.540796 
L 189.456754 479.540796 
L 189.62649 480.037121 
L 190.135697 480.037121 
L 190.305433 480.218637 
L 190.814641 480.218637 
L 190.984377 480.48089 
L 192.172528 480.523131 
L 192.342264 480.731101 
L 192.851472 480.731101 
L 193.190944 480.848682 
L 193.530416 480.848682 
L 193.700151 481.210594 
L 194.209359 481.210594 
L 194.548831 481.348735 
L 194.888303 481.348735 
L 195.058039 481.521962 
L 195.567246 481.521962 
L 195.736982 481.679384 
L 196.24619 481.679384 
L 196.415926 481.829881 
L 196.925134 481.829881 
L 197.09487 482.011974 
L 197.604077 482.011974 
L 197.773813 482.160307 
L 198.283021 482.160307 
L 198.452757 482.313036 
L 199.640908 482.335216 
L 199.98038 482.458404 
L 202.356683 482.560302 
L 202.696154 482.636135 
L 203.71457 482.693133 
L 204.054042 482.766176 
L 206.430344 482.856154 
L 206.769816 482.926596 
L 209.146119 483.029337 
L 209.485591 483.094124 
L 211.18295 483.175699 
L 211.522422 483.299518 
L 212.540837 483.404055 
L 212.880309 483.47838 
L 213.898724 483.530856 
L 214.238196 483.639223 
L 215.256611 483.731633 
L 215.596083 483.821084 
L 217.293442 483.875532 
L 217.632914 484.001963 
L 220.009217 484.09279 
L 220.348689 484.183476 
L 221.367104 484.251087 
L 221.706576 484.32602 
L 222.724991 484.343402 
L 223.064463 484.457968 
L 226.119709 484.557167 
L 226.628917 484.609737 
L 228.835484 484.68453 
L 229.174956 484.762672 
L 230.193371 484.79007 
L 230.532843 484.911808 
L 232.230202 484.992678 
L 232.569674 485.121837 
L 233.588089 485.215779 
L 234.097297 485.26359 
L 234.945977 485.313944 
L 235.285448 485.390014 
L 236.303864 485.438651 
L 236.643336 485.518404 
L 238.340695 485.587023 
L 238.680166 485.663433 
L 240.377526 485.744022 
L 240.886733 485.796684 
L 243.772244 485.899545 
L 244.111715 485.963312 
L 246.657754 486.031276 
L 246.657754 486.031276 
" clip-path="url(#p6f87377411)" style="fill: none; stroke: #008000; stroke-width: 1.5; stroke-linecap: square"/>
   </g>
   <g id="patch_3">
    <path d="M 90 512.64 
L 90 69.12 
" style="fill: none; stroke: #000000; stroke-width: 0.8; stroke-linejoin: miter; stroke-linecap: square"/>
   </g>
   <g id="patch_4">
    <path d="M 254.117647 512.64 
L 254.117647 69.12 
" style="fill: none; stroke: #000000; stroke-width: 0.8; stroke-linejoin: miter; stroke-linecap: square"/>
   </g>
   <g id="patch_5">
    <path d="M 90 512.64 
L 254.117647 512.64 
" style="fill: none; stroke: #000000; stroke-width: 0.8; stroke-linejoin: miter; stroke-linecap: square"/>
   </g>
   <g id="patch_6">
    <path d="M 90 69.12 
L 254.117647 69.12 
" style="fill: none; stroke: #000000; stroke-width: 0.8; stroke-linejoin: miter; stroke-linecap: square"/>
   </g>
   <g id="legend_1">
    <g id="patch_7">
     <path d="M 169.273897 121.154375 
L 247.117647 121.154375 
Q 249.117647 121.154375 249.117647 119.154375 
L 249.117647 76.12 
Q 249.117647 74.12 247.117647 74.12 
L 169.273897 74.12 
Q 167.273897 74.12 167.273897 76.12 
L 167.273897 119.154375 
Q 167.273897 121.154375 169.273897 121.154375 
z
" style="fill: #ffffff; opacity: 0.8; stroke: #cccccc; stroke-linejoin: miter"/>
    </g>
    <g id="line2d_14">
     <path d="M 171.273897 82.218438 
L 181.273897 82.218438 
L 191.273897 82.218438 
" style="fill: none; stroke: #0000ff; stroke-width: 1.5; stroke-linecap: square"/>
    </g>
    <g id="text_11">
     <!-- O1 utility -->
     <g transform="translate(199.273897 85.718438) scale(0.1 -0.1)">
      <defs>
       <path id="DejaVuSans-4f" d="M 2522 4238 
Q 1834 4238 1429 3725 
Q 1025 3213 1025 2328 
Q 1025 1447 1429 934 
Q 1834 422 2522 422 
Q 3209 422 3611 934 
Q 4013 1447 4013 2328 
Q 4013 3213 3611 3725 
Q 3209 4238 2522 4238 
z
M 2522 4750 
Q 3503 4750 4090 4092 
Q 4678 3434 4678 2328 
Q 4678 1225 4090 567 
Q 3503 -91 2522 -91 
Q 1538 -91 948 565 
Q 359 1222 359 2328 
Q 359 3434 948 4092 
Q 1538 4750 2522 4750 
z
" transform="scale(0.015625)"/>
       <path id="DejaVuSans-20" transform="scale(0.015625)"/>
       <path id="DejaVuSans-75" d="M 544 1381 
L 544 3500 
L 1119 3500 
L 1119 1403 
Q 1119 906 1312 657 
Q 1506 409 1894 409 
Q 2359 409 2629 706 
Q 2900 1003 2900 1516 
L 2900 3500 
L 3475 3500 
L 3475 0 
L 2900 0 
L 2900 538 
Q 2691 219 2414 64 
Q 2138 -91 1772 -91 
Q 1169 -91 856 284 
Q 544 659 544 1381 
z
M 1991 3584 
L 1991 3584 
z
" transform="scale(0.015625)"/>
       <path id="DejaVuSans-74" d="M 1172 4494 
L 1172 3500 
L 2356 3500 
L 2356 3053 
L 1172 3053 
L 1172 1153 
Q 1172 725 1289 603 
Q 1406 481 1766 481 
L 2356 481 
L 2356 0 
L 1766 0 
Q 1100 0 847 248 
Q 594 497 594 1153 
L 594 3053 
L 172 3053 
L 172 3500 
L 594 3500 
L 594 4494 
L 1172 4494 
z
" transform="scale(0.015625)"/>
       <path id="DejaVuSans-69" d="M 603 3500 
L 1178 3500 
L 1178 0 
L 603 0 
L 603 3500 
z
M 603 4863 
L 1178 4863 
L 1178 4134 
L 603 4134 
L 603 4863 
z
" transform="scale(0.015625)"/>
       <path id="DejaVuSans-6c" d="M 603 4863 
L 1178 4863 
L 1178 0 
L 603 0 
L 603 4863 
z
" transform="scale(0.015625)"/>
       <path id="DejaVuSans-79" d="M 2059 -325 
Q 1816 -950 1584 -1140 
Q 1353 -1331 966 -1331 
L 506 -1331 
L 506 -850 
L 844 -850 
Q 1081 -850 1212 -737 
Q 1344 -625 1503 -206 
L 1606 56 
L 191 3500 
L 800 3500 
L 1894 763 
L 2988 3500 
L 3597 3500 
L 2059 -325 
z
" transform="scale(0.015625)"/>
      </defs>
      <use xlink:href="#DejaVuSans-4f"/>
      <use xlink:href="#DejaVuSans-31" x="78.710938"/>
      <use xlink:href="#DejaVuSans-20" x="142.333984"/>
      <use xlink:href="#DejaVuSans-75" x="174.121094"/>
      <use xlink:href="#DejaVuSans-74" x="237.5"/>
      <use xlink:href="#DejaVuSans-69" x="276.708984"/>
      <use xlink:href="#DejaVuSans-6c" x="304.492188"/>
      <use xlink:href="#DejaVuSans-69" x="332.275391"/>
      <use xlink:href="#DejaVuSans-74" x="360.058594"/>
      <use xlink:href="#DejaVuSans-79" x="399.267578"/>
     </g>
    </g>
    <g id="line2d_15">
     <path d="M 171.273897 96.896563 
L 181.273897 96.896563 
L 191.273897 96.896563 
" style="fill: none; stroke: #ff0000; stroke-width: 1.5; stroke-linecap: square"/>
    </g>
    <g id="text_12">
     <!-- O2 utility -->
     <g transform="translate(199.273897 100.396563) scale(0.1 -0.1)">
      <use xlink:href="#DejaVuSans-4f"/>
      <use xlink:href="#DejaVuSans-32" x="78.710938"/>
      <use xlink:href="#DejaVuSans-20" x="142.333984"/>
      <use xlink:href="#DejaVuSans-75" x="174.121094"/>
      <use xlink:href="#DejaVuSans-74" x="237.5"/>
      <use xlink:href="#DejaVuSans-69" x="276.708984"/>
      <use xlink:href="#DejaVuSans-6c" x="304.492188"/>
      <use xlink:href="#DejaVuSans-69" x="332.275391"/>
      <use xlink:href="#DejaVuSans-74" x="360.058594"/>
      <use xlink:href="#DejaVuSans-79" x="399.267578"/>
     </g>
    </g>
    <g id="line2d_16">
     <path d="M 171.273897 111.574688 
L 181.273897 111.574688 
L 191.273897 111.574688 
" style="fill: none; stroke: #008000; stroke-width: 1.5; stroke-linecap: square"/>
    </g>
    <g id="text_13">
     <!-- O3 utility -->
     <g transform="translate(199.273897 115.074688) scale(0.1 -0.1)">
      <use xlink:href="#DejaVuSans-4f"/>
      <use xlink:href="#DejaVuSans-33" x="78.710938"/>
      <use xlink:href="#DejaVuSans-20" x="142.333984"/>
      <use xlink:href="#DejaVuSans-75" x="174.121094"/>
      <use xlink:href="#DejaVuSans-74" x="237.5"/>
      <use xlink:href="#DejaVuSans-69" x="276.708984"/>
      <use xlink:href="#DejaVuSans-6c" x="304.492188"/>
      <use xlink:href="#DejaVuSans-69" x="332.275391"/>
      <use xlink:href="#DejaVuSans-74" x="360.058594"/>
      <use xlink:href="#DejaVuSans-79" x="399.267578"/>
     </g>
    </g>
   </g>
  </g>
  <g id="axes_2">
   <g id="patch_8">
    <path d="M 286.941176 512.64 
L 451.058824 512.64 
L 451.058824 69.12 
L 286.941176 69.12 
z
" style="fill: #ffffff"/>
   </g>
   <g id="matplotlib.axis_3">
    <g id="xtick_6">
     <g id="line2d_17">
      <g>
       <use xlink:href="#m3251a79b67" x="294.231334" y="512.64" style="stroke: #000000; stroke-width: 0.8"/>
      </g>
     </g>
     <g id="text_14">
      <!-- 0 -->
      <g transform="translate(291.050084 527.238438) scale(0.1 -0.1)">
       <use xlink:href="#DejaVuSans-30"/>
      </g>
     </g>
    </g>
    <g id="xtick_7">
     <g id="line2d_18">
      <g>
       <use xlink:href="#m3251a79b67" x="328.178515" y="512.64" style="stroke: #000000; stroke-width: 0.8"/>
      </g>
     </g>
     <g id="text_15">
      <!-- 200 -->
      <g transform="translate(318.634765 527.238438) scale(0.1 -0.1)">
       <use xlink:href="#DejaVuSans-32"/>
       <use xlink:href="#DejaVuSans-30" x="63.623047"/>
       <use xlink:href="#DejaVuSans-30" x="127.246094"/>
      </g>
     </g>
    </g>
    <g id="xtick_8">
     <g id="line2d_19">
      <g>
       <use xlink:href="#m3251a79b67" x="362.125696" y="512.64" style="stroke: #000000; stroke-width: 0.8"/>
      </g>
     </g>
     <g id="text_16">
      <!-- 400 -->
      <g transform="translate(352.581946 527.238438) scale(0.1 -0.1)">
       <use xlink:href="#DejaVuSans-34"/>
       <use xlink:href="#DejaVuSans-30" x="63.623047"/>
       <use xlink:href="#DejaVuSans-30" x="127.246094"/>
      </g>
     </g>
    </g>
    <g id="xtick_9">
     <g id="line2d_20">
      <g>
       <use xlink:href="#m3251a79b67" x="396.072877" y="512.64" style="stroke: #000000; stroke-width: 0.8"/>
      </g>
     </g>
     <g id="text_17">
      <!-- 600 -->
      <g transform="translate(386.529127 527.238438) scale(0.1 -0.1)">
       <use xlink:href="#DejaVuSans-36"/>
       <use xlink:href="#DejaVuSans-30" x="63.623047"/>
       <use xlink:href="#DejaVuSans-30" x="127.246094"/>
      </g>
     </g>
    </g>
    <g id="xtick_10">
     <g id="line2d_21">
      <g>
       <use xlink:href="#m3251a79b67" x="430.020058" y="512.64" style="stroke: #000000; stroke-width: 0.8"/>
      </g>
     </g>
     <g id="text_18">
      <!-- 800 -->
      <g transform="translate(420.476308 527.238438) scale(0.1 -0.1)">
       <use xlink:href="#DejaVuSans-38"/>
       <use xlink:href="#DejaVuSans-30" x="63.623047"/>
       <use xlink:href="#DejaVuSans-30" x="127.246094"/>
      </g>
     </g>
    </g>
   </g>
   <g id="matplotlib.axis_4">
    <g id="ytick_6">
     <g id="line2d_22">
      <g>
       <use xlink:href="#ma32bf87b54" x="286.941176" y="492.48" style="stroke: #000000; stroke-width: 0.8"/>
      </g>
     </g>
     <g id="text_19">
      <!-- 0 -->
      <g transform="translate(273.578676 496.279219) scale(0.1 -0.1)">
       <use xlink:href="#DejaVuSans-30"/>
      </g>
     </g>
    </g>
    <g id="ytick_7">
     <g id="line2d_23">
      <g>
       <use xlink:href="#ma32bf87b54" x="286.941176" y="398.164211" style="stroke: #000000; stroke-width: 0.8"/>
      </g>
     </g>
     <g id="text_20">
      <!-- 200 -->
      <g transform="translate(260.853676 401.963429) scale(0.1 -0.1)">
       <use xlink:href="#DejaVuSans-32"/>
       <use xlink:href="#DejaVuSans-30" x="63.623047"/>
       <use xlink:href="#DejaVuSans-30" x="127.246094"/>
      </g>
     </g>
    </g>
    <g id="ytick_8">
     <g id="line2d_24">
      <g>
       <use xlink:href="#ma32bf87b54" x="286.941176" y="303.848421" style="stroke: #000000; stroke-width: 0.8"/>
      </g>
     </g>
     <g id="text_21">
      <!-- 400 -->
      <g transform="translate(260.853676 307.64764) scale(0.1 -0.1)">
       <use xlink:href="#DejaVuSans-34"/>
       <use xlink:href="#DejaVuSans-30" x="63.623047"/>
       <use xlink:href="#DejaVuSans-30" x="127.246094"/>
      </g>
     </g>
    </g>
    <g id="ytick_9">
     <g id="line2d_25">
      <g>
       <use xlink:href="#ma32bf87b54" x="286.941176" y="209.532632" style="stroke: #000000; stroke-width: 0.8"/>
      </g>
     </g>
     <g id="text_22">
      <!-- 600 -->
      <g transform="translate(260.853676 213.33185) scale(0.1 -0.1)">
       <use xlink:href="#DejaVuSans-36"/>
       <use xlink:href="#DejaVuSans-30" x="63.623047"/>
       <use xlink:href="#DejaVuSans-30" x="127.246094"/>
      </g>
     </g>
    </g>
    <g id="ytick_10">
     <g id="line2d_26">
      <g>
       <use xlink:href="#ma32bf87b54" x="286.941176" y="115.216842" style="stroke: #000000; stroke-width: 0.8"/>
      </g>
     </g>
     <g id="text_23">
      <!-- 800 -->
      <g transform="translate(260.853676 119.016061) scale(0.1 -0.1)">
       <use xlink:href="#DejaVuSans-38"/>
       <use xlink:href="#DejaVuSans-30" x="63.623047"/>
       <use xlink:href="#DejaVuSans-30" x="127.246094"/>
      </g>
     </g>
    </g>
   </g>
   <g id="line2d_27">
    <path d="M 294.40107 492.48 
L 294.740541 492.48 
L 294.910277 492.008421 
L 295.419485 492.008421 
L 295.589221 491.536842 
L 296.098429 491.536842 
L 296.268164 490.122105 
L 296.777372 490.122105 
L 296.947108 488.707368 
L 297.456316 488.707368 
L 297.626052 487.292632 
L 298.135259 487.292632 
L 298.304995 484.934737 
L 298.814203 484.934737 
L 298.983939 483.991579 
L 299.493147 483.991579 
L 299.662883 482.576842 
L 300.17209 482.576842 
L 300.341826 480.218947 
L 300.851034 480.218947 
L 301.02077 479.747368 
L 302.208921 479.747368 
L 302.378657 478.804211 
L 302.887865 478.804211 
L 303.057601 476.446316 
L 303.566808 476.446316 
L 303.736544 475.031579 
L 304.245752 475.031579 
L 304.415488 473.616842 
L 304.924696 473.616842 
L 305.094432 473.145263 
L 305.603639 473.145263 
L 305.773375 471.730526 
L 306.282583 471.730526 
L 306.452319 470.315789 
L 306.961527 470.315789 
L 307.131262 469.372632 
L 307.64047 469.372632 
L 307.810206 468.901053 
L 308.319414 468.901053 
L 308.48915 467.486316 
L 308.998357 467.486316 
L 309.168093 467.014737 
L 310.356245 467.014737 
L 310.525981 466.071579 
L 311.035188 466.071579 
L 311.204924 465.6 
L 311.714132 465.6 
L 311.883868 464.656842 
L 312.393076 464.656842 
L 312.562811 464.185263 
L 313.072019 464.185263 
L 313.241755 463.242105 
L 314.429906 463.242105 
L 314.599642 462.770526 
L 315.10885 462.770526 
L 315.278586 462.298947 
L 316.466737 462.298947 
L 316.636473 461.355789 
L 317.145681 461.355789 
L 317.315417 459.941053 
L 317.824624 459.941053 
L 317.99436 458.997895 
L 318.503568 458.997895 
L 318.673304 457.583158 
L 319.182512 457.583158 
L 319.352248 457.111579 
L 319.861455 457.111579 
L 320.031191 455.696842 
L 320.540399 455.696842 
L 320.710135 454.753684 
L 321.219343 454.753684 
L 321.389078 453.810526 
L 321.898286 453.810526 
L 322.068022 452.395789 
L 322.57723 452.395789 
L 322.746966 450.981053 
L 323.256173 450.981053 
L 323.425909 449.094737 
L 323.935117 449.094737 
L 324.104853 446.736842 
L 324.614061 446.736842 
L 324.783797 445.793684 
L 325.293004 445.793684 
L 325.46274 444.378947 
L 325.971948 444.378947 
L 326.141684 442.964211 
L 326.650892 442.964211 
L 326.820627 440.606316 
L 327.329835 440.606316 
L 327.499571 439.191579 
L 328.008779 439.191579 
L 328.178515 437.776842 
L 328.687722 437.776842 
L 328.857458 436.362105 
L 329.366666 436.362105 
L 329.536402 434.475789 
L 330.04561 434.475789 
L 330.215346 433.061053 
L 330.724553 433.061053 
L 330.894289 432.117895 
L 331.403497 432.117895 
L 331.573233 431.646316 
L 333.440328 431.646316 
L 333.610064 431.174737 
L 334.119271 431.174737 
L 334.289007 430.231579 
L 334.798215 430.231579 
L 334.967951 429.288421 
L 335.477159 429.288421 
L 335.646895 428.345263 
L 336.156102 428.345263 
L 336.325838 427.402105 
L 336.835046 427.402105 
L 337.004782 426.930526 
L 337.51399 426.930526 
L 337.683725 425.515789 
L 338.192933 425.515789 
L 338.362669 424.572632 
L 338.871877 424.572632 
L 339.041613 423.157895 
L 339.55082 423.157895 
L 339.720556 421.743158 
L 340.229764 421.743158 
L 340.3995 420.8 
L 340.908708 420.8 
L 341.078444 420.328421 
L 341.587651 420.328421 
L 341.757387 419.385263 
L 342.266595 419.385263 
L 342.436331 418.442105 
L 342.945539 418.442105 
L 343.115274 417.027368 
L 343.624482 417.027368 
L 343.794218 415.141053 
L 344.303426 415.141053 
L 344.473162 413.726316 
L 344.982369 413.726316 
L 345.152105 412.783158 
L 345.661313 412.783158 
L 345.831049 411.368421 
L 346.340257 411.368421 
L 346.509993 409.953684 
L 347.0192 409.953684 
L 347.188936 407.124211 
L 347.698144 407.124211 
L 347.86788 405.709474 
L 348.377087 405.709474 
L 348.546823 403.823158 
L 349.056031 403.823158 
L 349.225767 402.408421 
L 349.734975 402.408421 
L 349.904711 400.522105 
L 350.413918 400.522105 
L 350.583654 399.578947 
L 351.092862 399.578947 
L 351.262598 398.635789 
L 352.450749 398.635789 
L 352.620485 397.692632 
L 353.129693 397.692632 
L 353.299429 397.221053 
L 353.808636 397.221053 
L 353.978372 395.334737 
L 354.48758 395.334737 
L 354.657316 393.448421 
L 355.166524 393.448421 
L 355.33626 392.505263 
L 355.845467 392.505263 
L 356.015203 389.675789 
L 356.524411 389.675789 
L 356.694147 388.261053 
L 357.203355 388.261053 
L 357.37309 385.903158 
L 358.561242 385.903158 
L 358.730978 384.96 
L 359.240185 384.96 
L 359.409921 384.016842 
L 359.919129 384.016842 
L 360.088865 383.073684 
L 360.598073 383.073684 
L 360.767809 382.130526 
L 361.277016 382.130526 
L 361.446752 381.187368 
L 361.95596 381.187368 
L 362.125696 379.301053 
L 362.634904 379.301053 
L 362.804639 378.357895 
L 363.313847 378.357895 
L 363.483583 376.943158 
L 363.992791 376.943158 
L 364.162527 376 
L 364.671734 376 
L 364.84147 374.585263 
L 365.350678 374.585263 
L 365.520414 373.170526 
L 366.029622 373.170526 
L 366.199358 371.755789 
L 366.708565 371.755789 
L 366.878301 369.869474 
L 367.387509 369.869474 
L 367.557245 368.454737 
L 368.066453 368.454737 
L 368.236188 367.983158 
L 368.745396 367.983158 
L 368.915132 366.568421 
L 369.42434 366.568421 
L 369.594076 365.625263 
L 370.103283 365.625263 
L 370.273019 363.738947 
L 371.461171 363.738947 
L 371.630907 362.324211 
L 372.140114 362.324211 
L 372.30985 360.437895 
L 372.819058 360.437895 
L 372.988794 359.966316 
L 373.498001 359.966316 
L 373.667737 359.494737 
L 374.176945 359.494737 
L 374.346681 357.608421 
L 374.855889 357.608421 
L 375.025625 355.722105 
L 375.534832 355.722105 
L 375.704568 354.778947 
L 376.213776 354.778947 
L 376.383512 352.892632 
L 376.89272 352.892632 
L 377.062456 349.591579 
L 377.571663 349.591579 
L 377.741399 347.705263 
L 378.250607 347.705263 
L 378.420343 345.347368 
L 378.92955 345.347368 
L 379.099286 344.875789 
L 379.608494 344.875789 
L 379.77823 342.517895 
L 380.287438 342.517895 
L 380.457174 341.103158 
L 380.966381 341.103158 
L 381.136117 339.216842 
L 381.645325 339.216842 
L 381.815061 337.330526 
L 382.324269 337.330526 
L 382.494004 335.444211 
L 383.003212 335.444211 
L 383.172948 334.972632 
L 383.682156 334.972632 
L 383.851892 332.614737 
L 384.361099 332.614737 
L 384.530835 330.728421 
L 385.040043 330.728421 
L 385.209779 326.955789 
L 385.718987 326.955789 
L 385.888723 323.654737 
L 386.39793 323.654737 
L 386.567666 320.353684 
L 387.076874 320.353684 
L 387.24661 317.995789 
L 387.755818 317.995789 
L 387.925553 317.052632 
L 388.434761 317.052632 
L 388.604497 314.223158 
L 389.113705 314.223158 
L 389.283441 312.336842 
L 389.792648 312.336842 
L 389.962384 310.450526 
L 390.471592 310.450526 
L 390.641328 309.035789 
L 391.150536 309.035789 
L 391.320272 306.677895 
L 391.829479 306.677895 
L 391.999215 305.263158 
L 392.508423 305.263158 
L 392.678159 302.433684 
L 393.187367 302.433684 
L 393.357102 299.132632 
L 393.86631 299.132632 
L 394.036046 296.303158 
L 394.545254 296.303158 
L 394.71499 295.36 
L 395.224197 295.36 
L 395.393933 293.002105 
L 395.903141 293.002105 
L 396.072877 289.229474 
L 396.582085 289.229474 
L 396.751821 285.456842 
L 397.261028 285.456842 
L 397.430764 281.212632 
L 397.939972 281.212632 
L 398.109708 277.911579 
L 398.618916 277.911579 
L 398.788651 275.082105 
L 399.297859 275.082105 
L 399.467595 272.724211 
L 399.976803 272.724211 
L 400.146539 269.423158 
L 400.655746 269.423158 
L 400.825482 267.065263 
L 401.33469 267.065263 
L 401.504426 264.707368 
L 402.013634 264.707368 
L 402.18337 262.349474 
L 402.692577 262.349474 
L 402.862313 259.52 
L 403.371521 259.52 
L 403.541257 257.162105 
L 404.050464 257.162105 
L 404.2202 254.804211 
L 404.729408 254.804211 
L 404.899144 252.917895 
L 405.408352 252.917895 
L 405.578088 249.145263 
L 406.087295 249.145263 
L 406.257031 246.315789 
L 406.766239 246.315789 
L 406.935975 241.128421 
L 407.445183 241.128421 
L 407.614919 236.412632 
L 408.124126 236.412632 
L 408.293862 232.64 
L 408.80307 232.64 
L 408.972806 229.338947 
L 409.482013 229.338947 
L 409.651749 226.037895 
L 410.160957 226.037895 
L 410.330693 223.68 
L 410.839901 223.68 
L 411.009637 221.793684 
L 411.518844 221.793684 
L 411.68858 219.907368 
L 412.197788 219.907368 
L 412.367524 218.021053 
L 412.876732 218.021053 
L 413.046467 216.606316 
L 413.555675 216.606316 
L 413.725411 213.776842 
L 414.234619 213.776842 
L 414.404355 212.362105 
L 414.913562 212.362105 
L 415.083298 209.532632 
L 415.592506 209.532632 
L 415.762242 207.174737 
L 416.27145 207.174737 
L 416.441186 204.345263 
L 416.950393 204.345263 
L 417.120129 201.987368 
L 417.629337 201.987368 
L 417.799073 200.101053 
L 418.308281 200.101053 
L 418.478016 197.743158 
L 418.987224 197.743158 
L 419.15696 194.442105 
L 419.666168 194.442105 
L 419.835904 192.084211 
L 420.345111 192.084211 
L 420.514847 187.368421 
L 421.024055 187.368421 
L 421.193791 185.010526 
L 421.702999 185.010526 
L 421.872735 182.652632 
L 422.381942 182.652632 
L 422.551678 179.823158 
L 423.060886 179.823158 
L 423.230622 177.465263 
L 423.73983 177.465263 
L 423.909565 175.107368 
L 424.418773 175.107368 
L 424.588509 174.164211 
L 425.097717 174.164211 
L 425.267453 171.806316 
L 425.77666 171.806316 
L 425.946396 170.391579 
L 426.455604 170.391579 
L 426.62534 167.562105 
L 427.134548 167.562105 
L 427.304284 166.618947 
L 427.813491 166.618947 
L 427.983227 163.789474 
L 428.492435 163.789474 
L 428.662171 160.96 
L 429.171379 160.96 
L 429.341114 158.130526 
L 429.850322 158.130526 
L 430.020058 155.301053 
L 430.529266 155.301053 
L 430.699002 152.943158 
L 431.208209 152.943158 
L 431.377945 151.056842 
L 431.887153 151.056842 
L 432.056889 146.812632 
L 432.566097 146.812632 
L 432.735833 145.869474 
L 433.24504 145.869474 
L 433.414776 144.454737 
L 433.923984 144.454737 
L 434.09372 142.568421 
L 434.602927 142.568421 
L 434.772663 140.682105 
L 435.281871 140.682105 
L 435.451607 137.852632 
L 435.960815 137.852632 
L 436.130551 134.08 
L 436.639758 134.08 
L 436.809494 131.250526 
L 437.318702 131.250526 
L 437.488438 128.892632 
L 437.997646 128.892632 
L 438.167382 126.534737 
L 438.676589 126.534737 
L 438.846325 124.176842 
L 439.355533 124.176842 
L 439.525269 120.404211 
L 440.034476 120.404211 
L 440.204212 117.103158 
L 440.71342 117.103158 
L 440.883156 114.273684 
L 441.392364 114.273684 
L 441.5621 110.029474 
L 442.071307 110.029474 
L 442.241043 106.256842 
L 442.750251 106.256842 
L 442.919987 102.484211 
L 443.429195 102.484211 
L 443.59893 99.183158 
L 443.59893 99.183158 
" clip-path="url(#p8bdd07dbe3)" style="fill: none; stroke: #0000ff; stroke-width: 1.5; stroke-linecap: square"/>
   </g>
   <g id="line2d_28">
    <path d="M 294.40107 492.48 
L 294.740541 492.48 
L 294.910277 492.008421 
L 295.419485 492.008421 
L 295.589221 489.178947 
L 296.098429 489.178947 
L 296.268164 487.764211 
L 296.777372 487.764211 
L 296.947108 485.877895 
L 297.456316 485.877895 
L 297.626052 483.991579 
L 298.135259 483.991579 
L 298.304995 482.105263 
L 298.814203 482.105263 
L 298.983939 479.275789 
L 299.493147 479.275789 
L 299.662883 478.332632 
L 300.17209 478.332632 
L 300.341826 476.917895 
L 300.851034 476.917895 
L 301.02077 475.031579 
L 301.529978 475.031579 
L 301.699713 472.673684 
L 302.208921 472.673684 
L 302.378657 470.315789 
L 302.887865 470.315789 
L 303.057601 468.901053 
L 303.566808 468.901053 
L 303.736544 467.486316 
L 304.245752 467.486316 
L 304.415488 466.543158 
L 304.924696 466.543158 
L 305.094432 464.656842 
L 305.603639 464.656842 
L 305.773375 462.770526 
L 306.282583 462.770526 
L 306.452319 461.355789 
L 306.961527 461.355789 
L 307.131262 459.469474 
L 307.64047 459.469474 
L 307.810206 458.054737 
L 308.319414 458.054737 
L 308.48915 457.583158 
L 308.998357 457.583158 
L 309.168093 456.64 
L 309.677301 456.64 
L 309.847037 455.696842 
L 310.356245 455.696842 
L 310.525981 453.810526 
L 311.035188 453.810526 
L 311.204924 453.338947 
L 313.072019 453.338947 
L 313.241755 452.395789 
L 315.10885 452.395789 
L 315.278586 451.452632 
L 315.787794 451.452632 
L 315.95753 450.509474 
L 316.466737 450.509474 
L 316.636473 450.037895 
L 317.145681 450.037895 
L 317.315417 449.566316 
L 317.824624 449.566316 
L 317.99436 447.208421 
L 318.503568 447.208421 
L 318.673304 444.850526 
L 319.182512 444.850526 
L 319.352248 443.907368 
L 319.861455 443.907368 
L 320.031191 442.492632 
L 320.540399 442.492632 
L 320.710135 439.663158 
L 321.219343 439.663158 
L 321.389078 437.776842 
L 321.898286 437.776842 
L 322.068022 436.833684 
L 322.57723 436.833684 
L 322.746966 434.947368 
L 323.256173 434.947368 
L 323.425909 434.475789 
L 323.935117 434.475789 
L 324.104853 433.532632 
L 324.614061 433.532632 
L 324.783797 432.117895 
L 325.293004 432.117895 
L 325.46274 430.703158 
L 325.971948 430.703158 
L 326.141684 429.76 
L 326.650892 429.76 
L 326.820627 429.288421 
L 327.329835 429.288421 
L 327.499571 427.873684 
L 328.008779 427.873684 
L 328.178515 426.458947 
L 328.687722 426.458947 
L 328.857458 425.987368 
L 329.366666 425.987368 
L 329.536402 425.515789 
L 330.04561 425.515789 
L 330.215346 424.572632 
L 330.724553 424.572632 
L 330.894289 423.157895 
L 331.403497 423.157895 
L 331.573233 421.743158 
L 332.082441 421.743158 
L 332.252176 420.8 
L 332.761384 420.8 
L 332.93112 420.328421 
L 333.440328 420.328421 
L 333.610064 419.856842 
L 334.798215 419.856842 
L 334.967951 419.385263 
L 336.156102 419.385263 
L 336.325838 418.913684 
L 336.835046 418.913684 
L 337.004782 417.498947 
L 337.51399 417.498947 
L 337.683725 416.084211 
L 338.192933 416.084211 
L 338.362669 413.726316 
L 338.871877 413.726316 
L 339.041613 411.368421 
L 339.55082 411.368421 
L 339.720556 409.953684 
L 340.229764 409.953684 
L 340.3995 408.067368 
L 340.908708 408.067368 
L 341.078444 405.709474 
L 341.587651 405.709474 
L 341.757387 404.766316 
L 342.266595 404.766316 
L 342.436331 402.88 
L 342.945539 402.88 
L 343.115274 401.936842 
L 343.624482 401.936842 
L 343.794218 400.522105 
L 344.303426 400.522105 
L 344.473162 399.578947 
L 344.982369 399.578947 
L 345.152105 398.164211 
L 345.661313 398.164211 
L 345.831049 397.692632 
L 346.340257 397.692632 
L 346.509993 397.221053 
L 347.0192 397.221053 
L 347.188936 396.749474 
L 347.698144 396.749474 
L 347.86788 395.806316 
L 348.377087 395.806316 
L 348.546823 395.334737 
L 349.056031 395.334737 
L 349.225767 394.391579 
L 350.413918 394.391579 
L 350.583654 393.92 
L 351.092862 393.92 
L 351.262598 393.448421 
L 351.771806 393.448421 
L 351.941541 392.505263 
L 352.450749 392.505263 
L 352.620485 390.618947 
L 353.129693 390.618947 
L 353.299429 387.789474 
L 353.808636 387.789474 
L 353.978372 384.488421 
L 354.48758 384.488421 
L 354.657316 382.602105 
L 355.166524 382.602105 
L 355.33626 379.772632 
L 355.845467 379.772632 
L 356.015203 378.829474 
L 356.524411 378.829474 
L 356.694147 376.471579 
L 357.203355 376.471579 
L 357.37309 376 
L 357.882298 376 
L 358.052034 374.113684 
L 358.561242 374.113684 
L 358.730978 371.755789 
L 359.240185 371.755789 
L 359.409921 368.454737 
L 359.919129 368.454737 
L 360.088865 365.153684 
L 360.598073 365.153684 
L 360.767809 363.267368 
L 361.277016 363.267368 
L 361.446752 361.852632 
L 361.95596 361.852632 
L 362.125696 359.966316 
L 362.634904 359.966316 
L 362.804639 359.494737 
L 363.313847 359.494737 
L 363.483583 357.608421 
L 363.992791 357.608421 
L 364.162527 355.722105 
L 364.671734 355.722105 
L 364.84147 354.307368 
L 365.350678 354.307368 
L 365.520414 353.364211 
L 366.029622 353.364211 
L 366.199358 351.477895 
L 366.708565 351.477895 
L 366.878301 350.534737 
L 367.387509 350.534737 
L 367.557245 349.591579 
L 368.066453 349.591579 
L 368.236188 348.648421 
L 368.745396 348.648421 
L 368.915132 347.233684 
L 370.103283 347.233684 
L 370.273019 345.347368 
L 370.782227 345.347368 
L 370.951963 342.517895 
L 371.461171 342.517895 
L 371.630907 340.16 
L 372.140114 340.16 
L 372.30985 338.745263 
L 372.819058 338.745263 
L 372.988794 335.444211 
L 373.498001 335.444211 
L 373.667737 332.614737 
L 374.176945 332.614737 
L 374.346681 331.2 
L 374.855889 331.2 
L 375.025625 329.785263 
L 375.534832 329.785263 
L 375.704568 326.484211 
L 376.213776 326.484211 
L 376.383512 325.069474 
L 376.89272 325.069474 
L 377.062456 323.654737 
L 377.571663 323.654737 
L 377.741399 322.24 
L 378.250607 322.24 
L 378.420343 321.296842 
L 378.92955 321.296842 
L 379.099286 319.410526 
L 379.608494 319.410526 
L 379.77823 318.467368 
L 380.287438 318.467368 
L 380.457174 317.524211 
L 380.966381 317.524211 
L 381.136117 317.052632 
L 381.645325 317.052632 
L 381.815061 316.109474 
L 382.324269 316.109474 
L 382.494004 314.694737 
L 383.003212 314.694737 
L 383.172948 313.28 
L 384.361099 313.28 
L 384.530835 310.450526 
L 385.040043 310.450526 
L 385.209779 308.092632 
L 385.718987 308.092632 
L 385.888723 304.32 
L 386.39793 304.32 
L 386.567666 302.905263 
L 387.076874 302.905263 
L 387.24661 299.604211 
L 387.755818 299.604211 
L 387.925553 295.831579 
L 388.434761 295.831579 
L 388.604497 293.002105 
L 389.113705 293.002105 
L 389.283441 289.229474 
L 389.792648 289.229474 
L 389.962384 284.513684 
L 390.471592 284.513684 
L 390.641328 281.684211 
L 391.150536 281.684211 
L 391.320272 277.911579 
L 391.829479 277.911579 
L 391.999215 273.667368 
L 392.508423 273.667368 
L 392.678159 270.366316 
L 393.187367 270.366316 
L 393.357102 268.008421 
L 393.86631 268.008421 
L 394.036046 265.650526 
L 394.545254 265.650526 
L 394.71499 261.877895 
L 395.224197 261.877895 
L 395.393933 259.991579 
L 395.903141 259.991579 
L 396.072877 257.162105 
L 396.582085 257.162105 
L 396.751821 255.747368 
L 397.261028 255.747368 
L 397.430764 253.861053 
L 397.939972 253.861053 
L 398.109708 251.503158 
L 398.618916 251.503158 
L 398.788651 249.616842 
L 399.297859 249.616842 
L 399.467595 247.730526 
L 399.976803 247.730526 
L 400.146539 246.315789 
L 400.655746 246.315789 
L 400.825482 244.901053 
L 401.33469 244.901053 
L 401.504426 243.014737 
L 402.013634 243.014737 
L 402.18337 240.185263 
L 402.692577 240.185263 
L 402.862313 238.298947 
L 403.371521 238.298947 
L 403.541257 237.355789 
L 404.050464 237.355789 
L 404.2202 236.412632 
L 404.729408 236.412632 
L 404.899144 234.997895 
L 405.408352 234.997895 
L 405.578088 233.583158 
L 406.087295 233.583158 
L 406.257031 229.810526 
L 406.766239 229.810526 
L 406.935975 227.924211 
L 407.445183 227.924211 
L 407.614919 225.094737 
L 408.124126 225.094737 
L 408.293862 223.68 
L 408.80307 223.68 
L 408.972806 220.850526 
L 409.482013 220.850526 
L 409.651749 217.549474 
L 410.160957 217.549474 
L 410.330693 213.776842 
L 410.839901 213.776842 
L 411.009637 210.947368 
L 411.518844 210.947368 
L 411.68858 207.646316 
L 412.197788 207.646316 
L 412.367524 205.288421 
L 412.876732 205.288421 
L 413.046467 200.572632 
L 413.555675 200.572632 
L 413.725411 197.743158 
L 414.234619 197.743158 
L 414.404355 195.385263 
L 414.913562 195.385263 
L 415.083298 191.141053 
L 415.592506 191.141053 
L 415.762242 187.368421 
L 416.27145 187.368421 
L 416.441186 185.010526 
L 416.950393 185.010526 
L 417.120129 182.652632 
L 417.629337 182.652632 
L 417.799073 180.766316 
L 418.308281 180.766316 
L 418.478016 179.823158 
L 418.987224 179.823158 
L 419.15696 177.936842 
L 419.666168 177.936842 
L 419.835904 176.993684 
L 420.345111 176.993684 
L 420.514847 176.050526 
L 421.024055 176.050526 
L 421.193791 173.692632 
L 421.702999 173.692632 
L 421.872735 172.277895 
L 422.381942 172.277895 
L 422.551678 169.92 
L 423.060886 169.92 
L 423.230622 168.976842 
L 423.73983 168.976842 
L 423.909565 166.147368 
L 424.418773 166.147368 
L 424.588509 164.261053 
L 425.097717 164.261053 
L 425.267453 163.789474 
L 425.77666 163.789474 
L 425.946396 163.317895 
L 426.455604 163.317895 
L 426.62534 162.374737 
L 427.134548 162.374737 
L 427.304284 159.545263 
L 427.813491 159.545263 
L 427.983227 156.715789 
L 428.492435 156.715789 
L 428.662171 154.357895 
L 429.171379 154.357895 
L 429.341114 152 
L 429.850322 152 
L 430.020058 149.170526 
L 430.529266 149.170526 
L 430.699002 144.926316 
L 431.208209 144.926316 
L 431.377945 141.153684 
L 431.887153 141.153684 
L 432.056889 138.795789 
L 432.566097 138.795789 
L 432.735833 135.023158 
L 433.24504 135.023158 
L 433.414776 131.250526 
L 433.923984 131.250526 
L 434.09372 127.949474 
L 434.602927 127.949474 
L 434.772663 123.705263 
L 435.281871 123.705263 
L 435.451607 121.347368 
L 435.960815 121.347368 
L 436.130551 117.574737 
L 436.639758 117.574737 
L 436.809494 115.216842 
L 437.318702 115.216842 
L 437.488438 111.915789 
L 437.997646 111.915789 
L 438.167382 108.143158 
L 438.676589 108.143158 
L 438.846325 103.898947 
L 439.355533 103.898947 
L 439.525269 101.541053 
L 440.034476 101.541053 
L 440.204212 98.711579 
L 440.71342 98.711579 
L 440.883156 96.825263 
L 441.392364 96.825263 
L 441.5621 93.995789 
L 442.071307 93.995789 
L 442.241043 92.581053 
L 442.750251 92.581053 
L 442.919987 91.166316 
L 443.429195 91.166316 
L 443.59893 89.28 
L 443.59893 89.28 
" clip-path="url(#p8bdd07dbe3)" style="fill: none; stroke: #ff0000; stroke-width: 1.5; stroke-linecap: square"/>
   </g>
   <g id="line2d_29">
    <path d="M 294.40107 492.48 
L 294.740541 492.48 
L 294.910277 491.536842 
L 295.419485 491.536842 
L 295.589221 491.065263 
L 296.098429 491.065263 
L 296.268164 489.178947 
L 296.777372 489.178947 
L 296.947108 487.764211 
L 297.456316 487.764211 
L 297.626052 486.349474 
L 298.135259 486.349474 
L 298.304995 485.877895 
L 298.814203 485.877895 
L 298.983939 484.934737 
L 299.493147 484.934737 
L 299.662883 482.576842 
L 300.17209 482.576842 
L 300.341826 481.633684 
L 300.851034 481.633684 
L 301.02077 479.747368 
L 301.529978 479.747368 
L 301.699713 477.861053 
L 302.208921 477.861053 
L 302.378657 476.917895 
L 302.887865 476.917895 
L 303.057601 476.446316 
L 303.566808 476.446316 
L 303.736544 475.031579 
L 304.245752 475.031579 
L 304.415488 473.145263 
L 304.924696 473.145263 
L 305.094432 471.258947 
L 305.603639 471.258947 
L 305.773375 470.787368 
L 306.282583 470.787368 
L 306.452319 469.844211 
L 306.961527 469.844211 
L 307.131262 468.901053 
L 307.64047 468.901053 
L 307.810206 467.486316 
L 308.319414 467.486316 
L 308.48915 466.071579 
L 308.998357 466.071579 
L 309.168093 464.656842 
L 309.677301 464.656842 
L 309.847037 462.770526 
L 311.035188 462.770526 
L 311.204924 461.355789 
L 311.714132 461.355789 
L 311.883868 460.412632 
L 312.393076 460.412632 
L 312.562811 458.997895 
L 313.750963 458.997895 
L 313.920699 457.583158 
L 314.429906 457.583158 
L 314.599642 456.64 
L 315.787794 456.64 
L 315.95753 456.168421 
L 316.466737 456.168421 
L 316.636473 454.753684 
L 317.145681 454.753684 
L 317.315417 452.867368 
L 317.824624 452.867368 
L 317.99436 451.452632 
L 318.503568 451.452632 
L 318.673304 450.509474 
L 319.182512 450.509474 
L 319.352248 447.68 
L 319.861455 447.68 
L 320.031191 446.265263 
L 320.540399 446.265263 
L 320.710135 445.793684 
L 321.219343 445.793684 
L 321.389078 444.378947 
L 321.898286 444.378947 
L 322.068022 442.492632 
L 322.57723 442.492632 
L 322.746966 441.549474 
L 323.256173 441.549474 
L 323.425909 440.134737 
L 323.935117 440.134737 
L 324.104853 439.663158 
L 324.614061 439.663158 
L 324.783797 438.248421 
L 325.293004 438.248421 
L 325.46274 437.305263 
L 325.971948 437.305263 
L 326.141684 435.890526 
L 326.650892 435.890526 
L 326.820627 435.418947 
L 327.329835 435.418947 
L 327.499571 434.947368 
L 328.008779 434.947368 
L 328.178515 434.475789 
L 328.687722 434.475789 
L 328.857458 433.532632 
L 329.366666 433.532632 
L 329.536402 433.061053 
L 330.04561 433.061053 
L 330.215346 432.589474 
L 331.403497 432.589474 
L 331.573233 432.117895 
L 332.082441 432.117895 
L 332.252176 430.703158 
L 332.761384 430.703158 
L 332.93112 429.288421 
L 333.440328 429.288421 
L 333.610064 428.345263 
L 334.119271 428.345263 
L 334.289007 427.873684 
L 336.156102 427.873684 
L 336.325838 426.458947 
L 336.835046 426.458947 
L 337.004782 423.629474 
L 337.51399 423.629474 
L 337.683725 422.214737 
L 338.192933 422.214737 
L 338.362669 421.271579 
L 338.871877 421.271579 
L 339.041613 420.8 
L 339.55082 420.8 
L 339.720556 419.385263 
L 340.229764 419.385263 
L 340.3995 418.442105 
L 340.908708 418.442105 
L 341.078444 417.498947 
L 341.587651 417.498947 
L 341.757387 415.612632 
L 342.266595 415.612632 
L 342.436331 414.669474 
L 342.945539 414.669474 
L 343.115274 413.254737 
L 343.624482 413.254737 
L 343.794218 412.783158 
L 344.303426 412.783158 
L 344.473162 411.368421 
L 344.982369 411.368421 
L 345.152105 409.953684 
L 345.661313 409.953684 
L 345.831049 408.538947 
L 346.340257 408.538947 
L 346.509993 407.124211 
L 347.698144 407.124211 
L 347.86788 406.181053 
L 348.377087 406.181053 
L 348.546823 405.237895 
L 349.056031 405.237895 
L 349.225767 404.766316 
L 349.734975 404.766316 
L 349.904711 403.823158 
L 350.413918 403.823158 
L 350.583654 402.408421 
L 351.092862 402.408421 
L 351.262598 401.465263 
L 351.771806 401.465263 
L 351.941541 400.050526 
L 352.450749 400.050526 
L 352.620485 398.635789 
L 353.129693 398.635789 
L 353.299429 395.334737 
L 353.808636 395.334737 
L 353.978372 394.863158 
L 354.48758 394.863158 
L 354.657316 392.505263 
L 355.166524 392.505263 
L 355.33626 390.618947 
L 355.845467 390.618947 
L 356.015203 388.732632 
L 356.524411 388.732632 
L 356.694147 387.317895 
L 357.203355 387.317895 
L 357.37309 384.96 
L 357.882298 384.96 
L 358.052034 381.658947 
L 358.561242 381.658947 
L 358.730978 380.244211 
L 359.240185 380.244211 
L 359.409921 379.772632 
L 359.919129 379.772632 
L 360.088865 379.301053 
L 360.598073 379.301053 
L 360.767809 377.886316 
L 361.277016 377.886316 
L 361.446752 376 
L 361.95596 376 
L 362.125696 375.528421 
L 362.634904 375.528421 
L 362.804639 373.170526 
L 363.313847 373.170526 
L 363.483583 372.698947 
L 363.992791 372.698947 
L 364.162527 371.755789 
L 364.671734 371.755789 
L 364.84147 370.812632 
L 365.350678 370.812632 
L 365.520414 369.397895 
L 366.708565 369.397895 
L 366.878301 368.926316 
L 367.387509 368.926316 
L 367.557245 368.454737 
L 368.066453 368.454737 
L 368.236188 367.04 
L 369.42434 367.04 
L 369.594076 365.625263 
L 370.103283 365.625263 
L 370.273019 363.267368 
L 370.782227 363.267368 
L 370.951963 359.494737 
L 371.461171 359.494737 
L 371.630907 357.136842 
L 372.140114 357.136842 
L 372.30985 354.307368 
L 372.819058 354.307368 
L 372.988794 351.949474 
L 373.498001 351.949474 
L 373.667737 349.591579 
L 374.176945 349.591579 
L 374.346681 347.233684 
L 374.855889 347.233684 
L 375.025625 344.875789 
L 375.534832 344.875789 
L 375.704568 343.461053 
L 376.213776 343.461053 
L 376.383512 341.574737 
L 376.89272 341.574737 
L 377.062456 341.103158 
L 377.571663 341.103158 
L 377.741399 339.216842 
L 378.250607 339.216842 
L 378.420343 337.802105 
L 378.92955 337.802105 
L 379.099286 335.444211 
L 379.608494 335.444211 
L 379.77823 334.029474 
L 380.287438 334.029474 
L 380.457174 331.671579 
L 380.966381 331.671579 
L 381.136117 329.785263 
L 381.645325 329.785263 
L 381.815061 328.370526 
L 382.324269 328.370526 
L 382.494004 327.898947 
L 383.003212 327.898947 
L 383.172948 326.012632 
L 383.682156 326.012632 
L 383.851892 324.126316 
L 384.361099 324.126316 
L 384.530835 322.24 
L 385.040043 322.24 
L 385.209779 319.882105 
L 385.718987 319.882105 
L 385.888723 317.524211 
L 386.39793 317.524211 
L 386.567666 312.336842 
L 387.076874 312.336842 
L 387.24661 308.564211 
L 387.755818 308.564211 
L 387.925553 305.263158 
L 388.434761 305.263158 
L 388.604497 303.376842 
L 389.113705 303.376842 
L 389.283441 300.547368 
L 389.792648 300.547368 
L 389.962384 298.661053 
L 390.471592 298.661053 
L 390.641328 293.945263 
L 391.150536 293.945263 
L 391.320272 291.587368 
L 391.829479 291.587368 
L 391.999215 288.757895 
L 392.508423 288.757895 
L 392.678159 286.4 
L 393.187367 286.4 
L 393.357102 284.042105 
L 393.86631 284.042105 
L 394.036046 281.212632 
L 394.545254 281.212632 
L 394.71499 278.383158 
L 395.224197 278.383158 
L 395.393933 275.082105 
L 395.903141 275.082105 
L 396.072877 274.138947 
L 396.582085 274.138947 
L 396.751821 271.781053 
L 397.261028 271.781053 
L 397.430764 270.837895 
L 397.939972 270.837895 
L 398.109708 269.423158 
L 398.618916 269.423158 
L 398.788651 267.536842 
L 399.297859 267.536842 
L 399.467595 265.178947 
L 399.976803 265.178947 
L 400.146539 263.764211 
L 400.655746 263.764211 
L 400.825482 261.877895 
L 401.33469 261.877895 
L 401.504426 260.463158 
L 402.692577 260.463158 
L 402.862313 259.991579 
L 403.371521 259.991579 
L 403.541257 258.576842 
L 404.050464 258.576842 
L 404.2202 257.633684 
L 404.729408 257.633684 
L 404.899144 256.690526 
L 405.408352 256.690526 
L 405.578088 255.747368 
L 406.087295 255.747368 
L 406.257031 253.389474 
L 406.766239 253.389474 
L 406.935975 251.031579 
L 407.445183 251.031579 
L 407.614919 249.616842 
L 408.124126 249.616842 
L 408.293862 245.844211 
L 408.80307 245.844211 
L 408.972806 243.014737 
L 409.482013 243.014737 
L 409.651749 241.128421 
L 410.160957 241.128421 
L 410.330693 238.770526 
L 410.839901 238.770526 
L 411.009637 234.997895 
L 411.518844 234.997895 
L 411.68858 231.696842 
L 412.197788 231.696842 
L 412.367524 227.452632 
L 412.876732 227.452632 
L 413.046467 225.566316 
L 413.555675 225.566316 
L 413.725411 223.208421 
L 414.234619 223.208421 
L 414.404355 218.964211 
L 414.913562 218.964211 
L 415.083298 218.021053 
L 415.592506 218.021053 
L 415.762242 216.606316 
L 416.27145 216.606316 
L 416.441186 214.248421 
L 416.950393 214.248421 
L 417.120129 211.890526 
L 417.629337 211.890526 
L 417.799073 208.589474 
L 418.308281 208.589474 
L 418.478016 204.816842 
L 418.987224 204.816842 
L 419.15696 203.402105 
L 419.666168 203.402105 
L 419.835904 200.101053 
L 420.345111 200.101053 
L 420.514847 199.157895 
L 421.024055 199.157895 
L 421.193791 197.743158 
L 421.702999 197.743158 
L 421.872735 195.385263 
L 422.381942 195.385263 
L 422.551678 194.913684 
L 423.060886 194.913684 
L 423.230622 192.555789 
L 424.418773 192.555789 
L 424.588509 190.669474 
L 425.097717 190.669474 
L 425.267453 188.783158 
L 425.77666 188.783158 
L 425.946396 186.425263 
L 426.455604 186.425263 
L 426.62534 185.953684 
L 427.134548 185.953684 
L 427.304284 183.124211 
L 427.813491 183.124211 
L 427.983227 181.237895 
L 428.492435 181.237895 
L 428.662171 178.88 
L 429.171379 178.88 
L 429.341114 174.635789 
L 429.850322 174.635789 
L 430.020058 171.334737 
L 430.529266 171.334737 
L 430.699002 169.448421 
L 431.208209 169.448421 
L 431.377945 166.618947 
L 431.887153 166.618947 
L 432.056889 164.732632 
L 432.566097 164.732632 
L 432.735833 161.431579 
L 433.24504 161.431579 
L 433.414776 158.602105 
L 433.923984 158.602105 
L 434.09372 155.772632 
L 434.602927 155.772632 
L 434.772663 153.886316 
L 435.281871 153.886316 
L 435.451607 151.056842 
L 435.960815 151.056842 
L 436.130551 150.585263 
L 436.639758 150.585263 
L 436.809494 147.755789 
L 437.318702 147.755789 
L 437.488438 145.397895 
L 437.997646 145.397895 
L 438.167382 143.511579 
L 438.676589 143.511579 
L 438.846325 142.568421 
L 439.355533 142.568421 
L 439.525269 141.153684 
L 440.034476 141.153684 
L 440.204212 140.210526 
L 440.71342 140.210526 
L 440.883156 137.852632 
L 442.071307 137.852632 
L 442.241043 136.437895 
L 442.750251 136.437895 
L 442.919987 135.023158 
L 443.429195 135.023158 
L 443.59893 134.08 
L 443.59893 134.08 
" clip-path="url(#p8bdd07dbe3)" style="fill: none; stroke: #008000; stroke-width: 1.5; stroke-linecap: square"/>
   </g>
   <g id="patch_9">
    <path d="M 286.941176 512.64 
L 286.941176 69.12 
" style="fill: none; stroke: #000000; stroke-width: 0.8; stroke-linejoin: miter; stroke-linecap: square"/>
   </g>
   <g id="patch_10">
    <path d="M 451.058824 512.64 
L 451.058824 69.12 
" style="fill: none; stroke: #000000; stroke-width: 0.8; stroke-linejoin: miter; stroke-linecap: square"/>
   </g>
   <g id="patch_11">
    <path d="M 286.941176 512.64 
L 451.058824 512.64 
" style="fill: none; stroke: #000000; stroke-width: 0.8; stroke-linejoin: miter; stroke-linecap: square"/>
   </g>
   <g id="patch_12">
    <path d="M 286.941176 69.12 
L 451.058824 69.12 
" style="fill: none; stroke: #000000; stroke-width: 0.8; stroke-linejoin: miter; stroke-linecap: square"/>
   </g>
   <g id="legend_2">
    <g id="patch_13">
     <path d="M 293.941176 121.154375 
L 393.863051 121.154375 
Q 395.863051 121.154375 395.863051 119.154375 
L 395.863051 76.12 
Q 395.863051 74.12 393.863051 74.12 
L 293.941176 74.12 
Q 291.941176 74.12 291.941176 76.12 
L 291.941176 119.154375 
Q 291.941176 121.154375 293.941176 121.154375 
z
" style="fill: #ffffff; opacity: 0.8; stroke: #cccccc; stroke-linejoin: miter"/>
    </g>
    <g id="line2d_30">
     <path d="M 295.941176 82.218438 
L 305.941176 82.218438 
L 315.941176 82.218438 
" style="fill: none; stroke: #0000ff; stroke-width: 1.5; stroke-linecap: square"/>
    </g>
    <g id="text_24">
     <!-- O1 requested -->
     <g transform="translate(323.941176 85.718438) scale(0.1 -0.1)">
      <defs>
       <path id="DejaVuSans-72" d="M 2631 2963 
Q 2534 3019 2420 3045 
Q 2306 3072 2169 3072 
Q 1681 3072 1420 2755 
Q 1159 2438 1159 1844 
L 1159 0 
L 581 0 
L 581 3500 
L 1159 3500 
L 1159 2956 
Q 1341 3275 1631 3429 
Q 1922 3584 2338 3584 
Q 2397 3584 2469 3576 
Q 2541 3569 2628 3553 
L 2631 2963 
z
" transform="scale(0.015625)"/>
       <path id="DejaVuSans-65" d="M 3597 1894 
L 3597 1613 
L 953 1613 
Q 991 1019 1311 708 
Q 1631 397 2203 397 
Q 2534 397 2845 478 
Q 3156 559 3463 722 
L 3463 178 
Q 3153 47 2828 -22 
Q 2503 -91 2169 -91 
Q 1331 -91 842 396 
Q 353 884 353 1716 
Q 353 2575 817 3079 
Q 1281 3584 2069 3584 
Q 2775 3584 3186 3129 
Q 3597 2675 3597 1894 
z
M 3022 2063 
Q 3016 2534 2758 2815 
Q 2500 3097 2075 3097 
Q 1594 3097 1305 2825 
Q 1016 2553 972 2059 
L 3022 2063 
z
" transform="scale(0.015625)"/>
       <path id="DejaVuSans-71" d="M 947 1747 
Q 947 1113 1208 752 
Q 1469 391 1925 391 
Q 2381 391 2643 752 
Q 2906 1113 2906 1747 
Q 2906 2381 2643 2742 
Q 2381 3103 1925 3103 
Q 1469 3103 1208 2742 
Q 947 2381 947 1747 
z
M 2906 525 
Q 2725 213 2448 61 
Q 2172 -91 1784 -91 
Q 1150 -91 751 415 
Q 353 922 353 1747 
Q 353 2572 751 3078 
Q 1150 3584 1784 3584 
Q 2172 3584 2448 3432 
Q 2725 3281 2906 2969 
L 2906 3500 
L 3481 3500 
L 3481 -1331 
L 2906 -1331 
L 2906 525 
z
" transform="scale(0.015625)"/>
       <path id="DejaVuSans-73" d="M 2834 3397 
L 2834 2853 
Q 2591 2978 2328 3040 
Q 2066 3103 1784 3103 
Q 1356 3103 1142 2972 
Q 928 2841 928 2578 
Q 928 2378 1081 2264 
Q 1234 2150 1697 2047 
L 1894 2003 
Q 2506 1872 2764 1633 
Q 3022 1394 3022 966 
Q 3022 478 2636 193 
Q 2250 -91 1575 -91 
Q 1294 -91 989 -36 
Q 684 19 347 128 
L 347 722 
Q 666 556 975 473 
Q 1284 391 1588 391 
Q 1994 391 2212 530 
Q 2431 669 2431 922 
Q 2431 1156 2273 1281 
Q 2116 1406 1581 1522 
L 1381 1569 
Q 847 1681 609 1914 
Q 372 2147 372 2553 
Q 372 3047 722 3315 
Q 1072 3584 1716 3584 
Q 2034 3584 2315 3537 
Q 2597 3491 2834 3397 
z
" transform="scale(0.015625)"/>
       <path id="DejaVuSans-64" d="M 2906 2969 
L 2906 4863 
L 3481 4863 
L 3481 0 
L 2906 0 
L 2906 525 
Q 2725 213 2448 61 
Q 2172 -91 1784 -91 
Q 1150 -91 751 415 
Q 353 922 353 1747 
Q 353 2572 751 3078 
Q 1150 3584 1784 3584 
Q 2172 3584 2448 3432 
Q 2725 3281 2906 2969 
z
M 947 1747 
Q 947 1113 1208 752 
Q 1469 391 1925 391 
Q 2381 391 2643 752 
Q 2906 1113 2906 1747 
Q 2906 2381 2643 2742 
Q 2381 3103 1925 3103 
Q 1469 3103 1208 2742 
Q 947 2381 947 1747 
z
" transform="scale(0.015625)"/>
      </defs>
      <use xlink:href="#DejaVuSans-4f"/>
      <use xlink:href="#DejaVuSans-31" x="78.710938"/>
      <use xlink:href="#DejaVuSans-20" x="142.333984"/>
      <use xlink:href="#DejaVuSans-72" x="174.121094"/>
      <use xlink:href="#DejaVuSans-65" x="212.984375"/>
      <use xlink:href="#DejaVuSans-71" x="274.507812"/>
      <use xlink:href="#DejaVuSans-75" x="337.984375"/>
      <use xlink:href="#DejaVuSans-65" x="401.363281"/>
      <use xlink:href="#DejaVuSans-73" x="462.886719"/>
      <use xlink:href="#DejaVuSans-74" x="514.986328"/>
      <use xlink:href="#DejaVuSans-65" x="554.195312"/>
      <use xlink:href="#DejaVuSans-64" x="615.71875"/>
     </g>
    </g>
    <g id="line2d_31">
     <path d="M 295.941176 96.896563 
L 305.941176 96.896563 
L 315.941176 96.896563 
" style="fill: none; stroke: #ff0000; stroke-width: 1.5; stroke-linecap: square"/>
    </g>
    <g id="text_25">
     <!-- O2 requested -->
     <g transform="translate(323.941176 100.396563) scale(0.1 -0.1)">
      <use xlink:href="#DejaVuSans-4f"/>
      <use xlink:href="#DejaVuSans-32" x="78.710938"/>
      <use xlink:href="#DejaVuSans-20" x="142.333984"/>
      <use xlink:href="#DejaVuSans-72" x="174.121094"/>
      <use xlink:href="#DejaVuSans-65" x="212.984375"/>
      <use xlink:href="#DejaVuSans-71" x="274.507812"/>
      <use xlink:href="#DejaVuSans-75" x="337.984375"/>
      <use xlink:href="#DejaVuSans-65" x="401.363281"/>
      <use xlink:href="#DejaVuSans-73" x="462.886719"/>
      <use xlink:href="#DejaVuSans-74" x="514.986328"/>
      <use xlink:href="#DejaVuSans-65" x="554.195312"/>
      <use xlink:href="#DejaVuSans-64" x="615.71875"/>
     </g>
    </g>
    <g id="line2d_32">
     <path d="M 295.941176 111.574688 
L 305.941176 111.574688 
L 315.941176 111.574688 
" style="fill: none; stroke: #008000; stroke-width: 1.5; stroke-linecap: square"/>
    </g>
    <g id="text_26">
     <!-- O3 requested -->
     <g transform="translate(323.941176 115.074688) scale(0.1 -0.1)">
      <use xlink:href="#DejaVuSans-4f"/>
      <use xlink:href="#DejaVuSans-33" x="78.710938"/>
      <use xlink:href="#DejaVuSans-20" x="142.333984"/>
      <use xlink:href="#DejaVuSans-72" x="174.121094"/>
      <use xlink:href="#DejaVuSans-65" x="212.984375"/>
      <use xlink:href="#DejaVuSans-71" x="274.507812"/>
      <use xlink:href="#DejaVuSans-75" x="337.984375"/>
      <use xlink:href="#DejaVuSans-65" x="401.363281"/>
      <use xlink:href="#DejaVuSans-73" x="462.886719"/>
      <use xlink:href="#DejaVuSans-74" x="514.986328"/>
      <use xlink:href="#DejaVuSans-65" x="554.195312"/>
      <use xlink:href="#DejaVuSans-64" x="615.71875"/>
     </g>
    </g>
   </g>
  </g>
  <g id="axes_3">
   <g id="patch_14">
    <path d="M 483.882353 512.64 
L 648 512.64 
L 648 69.12 
L 483.882353 69.12 
z
" style="fill: #ffffff"/>
   </g>
   <g id="matplotlib.axis_5">
    <g id="xtick_11">
     <g id="line2d_33">
      <g>
       <use xlink:href="#m3251a79b67" x="491.17251" y="512.64" style="stroke: #000000; stroke-width: 0.8"/>
      </g>
     </g>
     <g id="text_27">
      <!-- 0 -->
      <g transform="translate(487.99126 527.238438) scale(0.1 -0.1)">
       <use xlink:href="#DejaVuSans-30"/>
      </g>
     </g>
    </g>
    <g id="xtick_12">
     <g id="line2d_34">
      <g>
       <use xlink:href="#m3251a79b67" x="525.119691" y="512.64" style="stroke: #000000; stroke-width: 0.8"/>
      </g>
     </g>
     <g id="text_28">
      <!-- 200 -->
      <g transform="translate(515.575941 527.238438) scale(0.1 -0.1)">
       <use xlink:href="#DejaVuSans-32"/>
       <use xlink:href="#DejaVuSans-30" x="63.623047"/>
       <use xlink:href="#DejaVuSans-30" x="127.246094"/>
      </g>
     </g>
    </g>
    <g id="xtick_13">
     <g id="line2d_35">
      <g>
       <use xlink:href="#m3251a79b67" x="559.066872" y="512.64" style="stroke: #000000; stroke-width: 0.8"/>
      </g>
     </g>
     <g id="text_29">
      <!-- 400 -->
      <g transform="translate(549.523122 527.238438) scale(0.1 -0.1)">
       <use xlink:href="#DejaVuSans-34"/>
       <use xlink:href="#DejaVuSans-30" x="63.623047"/>
       <use xlink:href="#DejaVuSans-30" x="127.246094"/>
      </g>
     </g>
    </g>
    <g id="xtick_14">
     <g id="line2d_36">
      <g>
       <use xlink:href="#m3251a79b67" x="593.014053" y="512.64" style="stroke: #000000; stroke-width: 0.8"/>
      </g>
     </g>
     <g id="text_30">
      <!-- 600 -->
      <g transform="translate(583.470303 527.238438) scale(0.1 -0.1)">
       <use xlink:href="#DejaVuSans-36"/>
       <use xlink:href="#DejaVuSans-30" x="63.623047"/>
       <use xlink:href="#DejaVuSans-30" x="127.246094"/>
      </g>
     </g>
    </g>
    <g id="xtick_15">
     <g id="line2d_37">
      <g>
       <use xlink:href="#m3251a79b67" x="626.961235" y="512.64" style="stroke: #000000; stroke-width: 0.8"/>
      </g>
     </g>
     <g id="text_31">
      <!-- 800 -->
      <g transform="translate(617.417485 527.238438) scale(0.1 -0.1)">
       <use xlink:href="#DejaVuSans-38"/>
       <use xlink:href="#DejaVuSans-30" x="63.623047"/>
       <use xlink:href="#DejaVuSans-30" x="127.246094"/>
      </g>
     </g>
    </g>
   </g>
   <g id="matplotlib.axis_6">
    <g id="ytick_11">
     <g id="line2d_38">
      <g>
       <use xlink:href="#ma32bf87b54" x="483.882353" y="492.48" style="stroke: #000000; stroke-width: 0.8"/>
      </g>
     </g>
     <g id="text_32">
      <!-- 0 -->
      <g transform="translate(470.519853 496.279219) scale(0.1 -0.1)">
       <use xlink:href="#DejaVuSans-30"/>
      </g>
     </g>
    </g>
    <g id="ytick_12">
     <g id="line2d_39">
      <g>
       <use xlink:href="#ma32bf87b54" x="483.882353" y="404.827826" style="stroke: #000000; stroke-width: 0.8"/>
      </g>
     </g>
     <g id="text_33">
      <!-- 20 -->
      <g transform="translate(464.157353 408.627045) scale(0.1 -0.1)">
       <use xlink:href="#DejaVuSans-32"/>
       <use xlink:href="#DejaVuSans-30" x="63.623047"/>
      </g>
     </g>
    </g>
    <g id="ytick_13">
     <g id="line2d_40">
      <g>
       <use xlink:href="#ma32bf87b54" x="483.882353" y="317.175652" style="stroke: #000000; stroke-width: 0.8"/>
      </g>
     </g>
     <g id="text_34">
      <!-- 40 -->
      <g transform="translate(464.157353 320.974871) scale(0.1 -0.1)">
       <use xlink:href="#DejaVuSans-34"/>
       <use xlink:href="#DejaVuSans-30" x="63.623047"/>
      </g>
     </g>
    </g>
    <g id="ytick_14">
     <g id="line2d_41">
      <g>
       <use xlink:href="#ma32bf87b54" x="483.882353" y="229.523478" style="stroke: #000000; stroke-width: 0.8"/>
      </g>
     </g>
     <g id="text_35">
      <!-- 60 -->
      <g transform="translate(464.157353 233.322697) scale(0.1 -0.1)">
       <use xlink:href="#DejaVuSans-36"/>
       <use xlink:href="#DejaVuSans-30" x="63.623047"/>
      </g>
     </g>
    </g>
    <g id="ytick_15">
     <g id="line2d_42">
      <g>
       <use xlink:href="#ma32bf87b54" x="483.882353" y="141.871304" style="stroke: #000000; stroke-width: 0.8"/>
      </g>
     </g>
     <g id="text_36">
      <!-- 80 -->
      <g transform="translate(464.157353 145.670523) scale(0.1 -0.1)">
       <use xlink:href="#DejaVuSans-38"/>
       <use xlink:href="#DejaVuSans-30" x="63.623047"/>
      </g>
     </g>
    </g>
   </g>
   <g id="line2d_43">
    <path d="M 491.342246 492.48 
L 499.829041 492.48 
L 499.998777 488.097391 
L 501.186929 488.097391 
L 501.356664 483.714783 
L 640.540107 483.714783 
L 640.540107 483.714783 
" clip-path="url(#p1c87dc9de6)" style="fill: none; stroke: #0000ff; stroke-width: 1.5; stroke-linecap: square"/>
   </g>
   <g id="line2d_44">
    <path d="M 491.342246 492.48 
L 498.471154 492.48 
L 498.64089 488.097391 
L 499.150098 488.097391 
L 499.319834 474.949565 
L 500.507985 474.949565 
L 500.677721 470.566957 
L 501.865872 470.566957 
L 502.035608 453.036522 
L 502.544816 453.036522 
L 502.714552 435.506087 
L 503.223759 435.506087 
L 503.393495 426.74087 
L 503.902703 426.74087 
L 504.072439 409.210435 
L 504.581647 409.210435 
L 504.751383 396.062609 
L 507.976365 396.062609 
L 508.146101 391.68 
L 510.013196 391.68 
L 510.182932 387.297391 
L 512.050026 387.297391 
L 512.219762 378.532174 
L 512.72897 378.532174 
L 512.898706 374.149565 
L 513.407914 374.149565 
L 513.57765 369.766957 
L 514.765801 369.766957 
L 514.935537 352.236522 
L 515.444745 352.236522 
L 515.61448 330.323478 
L 516.123688 330.323478 
L 516.293424 325.94087 
L 516.802632 325.94087 
L 516.972368 312.793043 
L 517.481575 312.793043 
L 517.651311 286.497391 
L 518.160519 286.497391 
L 518.330255 268.966957 
L 525.628899 268.966957 
L 525.798635 264.584348 
L 527.66573 264.584348 
L 527.835466 260.201739 
L 528.344673 260.201739 
L 528.514409 255.81913 
L 529.023617 255.81913 
L 529.193353 251.436522 
L 530.381504 251.436522 
L 530.55124 247.053913 
L 533.097279 247.053913 
L 533.267015 242.671304 
L 533.776222 242.671304 
L 533.945958 229.523478 
L 534.455166 229.523478 
L 534.624902 216.375652 
L 535.13411 216.375652 
L 535.303846 194.462609 
L 535.813053 194.462609 
L 535.982789 172.549565 
L 536.491997 172.549565 
L 536.661733 159.401739 
L 537.17094 159.401739 
L 537.340676 141.871304 
L 537.849884 141.871304 
L 538.01962 119.958261 
L 538.528828 119.958261 
L 538.698564 111.193043 
L 539.207771 111.193043 
L 539.377507 102.427826 
L 541.244602 102.427826 
L 541.414338 98.045217 
L 541.923546 98.045217 
L 542.093282 89.28 
L 640.540107 89.28 
L 640.540107 89.28 
" clip-path="url(#p1c87dc9de6)" style="fill: none; stroke: #ff0000; stroke-width: 1.5; stroke-linecap: square"/>
   </g>
   <g id="line2d_45">
    <path d="M 491.342246 492.48 
L 498.471154 492.48 
L 498.64089 479.332174 
L 499.150098 479.332174 
L 499.319834 474.949565 
L 499.829041 474.949565 
L 499.998777 470.566957 
L 501.186929 470.566957 
L 501.356664 466.184348 
L 640.540107 466.184348 
L 640.540107 466.184348 
" clip-path="url(#p1c87dc9de6)" style="fill: none; stroke: #008000; stroke-width: 1.5; stroke-linecap: square"/>
   </g>
   <g id="patch_15">
    <path d="M 483.882353 512.64 
L 483.882353 69.12 
" style="fill: none; stroke: #000000; stroke-width: 0.8; stroke-linejoin: miter; stroke-linecap: square"/>
   </g>
   <g id="patch_16">
    <path d="M 648 512.64 
L 648 69.12 
" style="fill: none; stroke: #000000; stroke-width: 0.8; stroke-linejoin: miter; stroke-linecap: square"/>
   </g>
   <g id="patch_17">
    <path d="M 483.882353 512.64 
L 648 512.64 
" style="fill: none; stroke: #000000; stroke-width: 0.8; stroke-linejoin: miter; stroke-linecap: square"/>
   </g>
   <g id="patch_18">
    <path d="M 483.882353 69.12 
L 648 69.12 
" style="fill: none; stroke: #000000; stroke-width: 0.8; stroke-linejoin: miter; stroke-linecap: square"/>
   </g>
   <g id="legend_3">
    <g id="patch_19">
     <path d="M 551.1625 314.397188 
L 641 314.397188 
Q 643 314.397188 643 312.397188 
L 643 269.362813 
Q 643 267.362813 641 267.362813 
L 551.1625 267.362813 
Q 549.1625 267.362813 549.1625 269.362813 
L 549.1625 312.397188 
Q 549.1625 314.397188 551.1625 314.397188 
z
" style="fill: #ffffff; opacity: 0.8; stroke: #cccccc; stroke-linejoin: miter"/>
    </g>
    <g id="line2d_46">
     <path d="M 553.1625 275.46125 
L 563.1625 275.46125 
L 573.1625 275.46125 
" style="fill: none; stroke: #0000ff; stroke-width: 1.5; stroke-linecap: square"/>
    </g>
    <g id="text_37">
     <!-- O1 ensured -->
     <g transform="translate(581.1625 278.96125) scale(0.1 -0.1)">
      <defs>
       <path id="DejaVuSans-6e" d="M 3513 2113 
L 3513 0 
L 2938 0 
L 2938 2094 
Q 2938 2591 2744 2837 
Q 2550 3084 2163 3084 
Q 1697 3084 1428 2787 
Q 1159 2491 1159 1978 
L 1159 0 
L 581 0 
L 581 3500 
L 1159 3500 
L 1159 2956 
Q 1366 3272 1645 3428 
Q 1925 3584 2291 3584 
Q 2894 3584 3203 3211 
Q 3513 2838 3513 2113 
z
" transform="scale(0.015625)"/>
      </defs>
      <use xlink:href="#DejaVuSans-4f"/>
      <use xlink:href="#DejaVuSans-31" x="78.710938"/>
      <use xlink:href="#DejaVuSans-20" x="142.333984"/>
      <use xlink:href="#DejaVuSans-65" x="174.121094"/>
      <use xlink:href="#DejaVuSans-6e" x="235.644531"/>
      <use xlink:href="#DejaVuSans-73" x="299.023438"/>
      <use xlink:href="#DejaVuSans-75" x="351.123047"/>
      <use xlink:href="#DejaVuSans-72" x="414.501953"/>
      <use xlink:href="#DejaVuSans-65" x="453.365234"/>
      <use xlink:href="#DejaVuSans-64" x="514.888672"/>
     </g>
    </g>
    <g id="line2d_47">
     <path d="M 553.1625 290.139375 
L 563.1625 290.139375 
L 573.1625 290.139375 
" style="fill: none; stroke: #ff0000; stroke-width: 1.5; stroke-linecap: square"/>
    </g>
    <g id="text_38">
     <!-- O2 ensured -->
     <g transform="translate(581.1625 293.639375) scale(0.1 -0.1)">
      <use xlink:href="#DejaVuSans-4f"/>
      <use xlink:href="#DejaVuSans-32" x="78.710938"/>
      <use xlink:href="#DejaVuSans-20" x="142.333984"/>
      <use xlink:href="#DejaVuSans-65" x="174.121094"/>
      <use xlink:href="#DejaVuSans-6e" x="235.644531"/>
      <use xlink:href="#DejaVuSans-73" x="299.023438"/>
      <use xlink:href="#DejaVuSans-75" x="351.123047"/>
      <use xlink:href="#DejaVuSans-72" x="414.501953"/>
      <use xlink:href="#DejaVuSans-65" x="453.365234"/>
      <use xlink:href="#DejaVuSans-64" x="514.888672"/>
     </g>
    </g>
    <g id="line2d_48">
     <path d="M 553.1625 304.8175 
L 563.1625 304.8175 
L 573.1625 304.8175 
" style="fill: none; stroke: #008000; stroke-width: 1.5; stroke-linecap: square"/>
    </g>
    <g id="text_39">
     <!-- O3 ensured -->
     <g transform="translate(581.1625 308.3175) scale(0.1 -0.1)">
      <use xlink:href="#DejaVuSans-4f"/>
      <use xlink:href="#DejaVuSans-33" x="78.710938"/>
      <use xlink:href="#DejaVuSans-20" x="142.333984"/>
      <use xlink:href="#DejaVuSans-65" x="174.121094"/>
      <use xlink:href="#DejaVuSans-6e" x="235.644531"/>
      <use xlink:href="#DejaVuSans-73" x="299.023438"/>
      <use xlink:href="#DejaVuSans-75" x="351.123047"/>
      <use xlink:href="#DejaVuSans-72" x="414.501953"/>
      <use xlink:href="#DejaVuSans-65" x="453.365234"/>
      <use xlink:href="#DejaVuSans-64" x="514.888672"/>
     </g>
    </g>
   </g>
  </g>
 </g>
 <defs>
  <clipPath id="p6f87377411">
   <rect x="90" y="69.12" width="164.117647" height="443.52"/>
  </clipPath>
  <clipPath id="p8bdd07dbe3">
   <rect x="286.941176" y="69.12" width="164.117647" height="443.52"/>
  </clipPath>
  <clipPath id="p1c87dc9de6">
   <rect x="483.882353" y="69.12" width="164.117647" height="443.52"/>
  </clipPath>
 </defs>
</svg>
