<?xml version="1.0" encoding="utf-8" standalone="no"?>
<!DOCTYPE svg PUBLIC "-//W3C//DTD SVG 1.1//EN"
  "http://www.w3.org/Graphics/SVG/1.1/DTD/svg11.dtd">
<svg xmlns:xlink="http://www.w3.org/1999/xlink" width="2160pt" height="1440pt" viewBox="0 0 2160 1440" xmlns="http://www.w3.org/2000/svg" version="1.1">
 <metadata>
  <rdf:RDF xmlns:dc="http://purl.org/dc/elements/1.1/" xmlns:cc="http://creativecommons.org/ns#" xmlns:rdf="http://www.w3.org/1999/02/22-rdf-syntax-ns#">
   <cc:Work>
    <dc:type rdf:resource="http://purl.org/dc/dcmitype/StillImage"/>
    <dc:date>2023-05-31T19:43:55.878104</dc:date>
    <dc:format>image/svg+xml</dc:format>
    <dc:creator>
     <cc:Agent>
      <dc:title>Matplotlib v3.7.1, https://matplotlib.org/</dc:title>
     </cc:Agent>
    </dc:creator>
   </cc:Work>
  </rdf:RDF>
 </metadata>
 <defs>
  <style type="text/css">*{stroke-linejoin: round; stroke-linecap: butt}</style>
 </defs>
 <g id="figure_1">
  <g id="patch_1">
   <path d="M 0 1440 
L 2160 1440 
L 2160 0 
L 0 0 
z
" style="fill: #ffffff"/>
  </g>
  <g id="axes_1">
   <g id="patch_2">
    <path d="M 270 1281.6 
L 762.352941 1281.6 
L 762.352941 172.8 
L 270 172.8 
z
" style="fill: #ffffff"/>
   </g>
   <g id="matplotlib.axis_1">
    <g id="xtick_1">
     <g id="line2d_1">
      <defs>
       <path id="m66ef6d5cb5" d="M 0 0 
L 0 3.5 
" style="stroke: #000000; stroke-width: 0.8"/>
      </defs>
      <g>
       <use xlink:href="#m66ef6d5cb5" x="292.044152" y="1281.6" style="stroke: #000000; stroke-width: 0.8"/>
      </g>
     </g>
     <g id="text_1">
      <!-- 0 -->
      <g transform="translate(288.862902 1296.198437) scale(0.1 -0.1)">
       <defs>
        <path id="DejaVuSans-30" d="M 2034 4250 
Q 1547 4250 1301 3770 
Q 1056 3291 1056 2328 
Q 1056 1369 1301 889 
Q 1547 409 2034 409 
Q 2525 409 2770 889 
Q 3016 1369 3016 2328 
Q 3016 3291 2770 3770 
Q 2525 4250 2034 4250 
z
M 2034 4750 
Q 2819 4750 3233 4129 
Q 3647 3509 3647 2328 
Q 3647 1150 3233 529 
Q 2819 -91 2034 -91 
Q 1250 -91 836 529 
Q 422 1150 422 2328 
Q 422 3509 836 4129 
Q 1250 4750 2034 4750 
z
" transform="scale(0.015625)"/>
       </defs>
       <use xlink:href="#DejaVuSans-30"/>
      </g>
     </g>
    </g>
    <g id="xtick_2">
     <g id="line2d_2">
      <g>
       <use xlink:href="#m66ef6d5cb5" x="359.149636" y="1281.6" style="stroke: #000000; stroke-width: 0.8"/>
      </g>
     </g>
     <g id="text_2">
      <!-- 200 -->
      <g transform="translate(349.605886 1296.198437) scale(0.1 -0.1)">
       <defs>
        <path id="DejaVuSans-32" d="M 1228 531 
L 3431 531 
L 3431 0 
L 469 0 
L 469 531 
Q 828 903 1448 1529 
Q 2069 2156 2228 2338 
Q 2531 2678 2651 2914 
Q 2772 3150 2772 3378 
Q 2772 3750 2511 3984 
Q 2250 4219 1831 4219 
Q 1534 4219 1204 4116 
Q 875 4013 500 3803 
L 500 4441 
Q 881 4594 1212 4672 
Q 1544 4750 1819 4750 
Q 2544 4750 2975 4387 
Q 3406 4025 3406 3419 
Q 3406 3131 3298 2873 
Q 3191 2616 2906 2266 
Q 2828 2175 2409 1742 
Q 1991 1309 1228 531 
z
" transform="scale(0.015625)"/>
       </defs>
       <use xlink:href="#DejaVuSans-32"/>
       <use xlink:href="#DejaVuSans-30" x="63.623047"/>
       <use xlink:href="#DejaVuSans-30" x="127.246094"/>
      </g>
     </g>
    </g>
    <g id="xtick_3">
     <g id="line2d_3">
      <g>
       <use xlink:href="#m66ef6d5cb5" x="426.255121" y="1281.6" style="stroke: #000000; stroke-width: 0.8"/>
      </g>
     </g>
     <g id="text_3">
      <!-- 400 -->
      <g transform="translate(416.711371 1296.198437) scale(0.1 -0.1)">
       <defs>
        <path id="DejaVuSans-34" d="M 2419 4116 
L 825 1625 
L 2419 1625 
L 2419 4116 
z
M 2253 4666 
L 3047 4666 
L 3047 1625 
L 3713 1625 
L 3713 1100 
L 3047 1100 
L 3047 0 
L 2419 0 
L 2419 1100 
L 313 1100 
L 313 1709 
L 2253 4666 
z
" transform="scale(0.015625)"/>
       </defs>
       <use xlink:href="#DejaVuSans-34"/>
       <use xlink:href="#DejaVuSans-30" x="63.623047"/>
       <use xlink:href="#DejaVuSans-30" x="127.246094"/>
      </g>
     </g>
    </g>
    <g id="xtick_4">
     <g id="line2d_4">
      <g>
       <use xlink:href="#m66ef6d5cb5" x="493.360606" y="1281.6" style="stroke: #000000; stroke-width: 0.8"/>
      </g>
     </g>
     <g id="text_4">
      <!-- 600 -->
      <g transform="translate(483.816856 1296.198437) scale(0.1 -0.1)">
       <defs>
        <path id="DejaVuSans-36" d="M 2113 2584 
Q 1688 2584 1439 2293 
Q 1191 2003 1191 1497 
Q 1191 994 1439 701 
Q 1688 409 2113 409 
Q 2538 409 2786 701 
Q 3034 994 3034 1497 
Q 3034 2003 2786 2293 
Q 2538 2584 2113 2584 
z
M 3366 4563 
L 3366 3988 
Q 3128 4100 2886 4159 
Q 2644 4219 2406 4219 
Q 1781 4219 1451 3797 
Q 1122 3375 1075 2522 
Q 1259 2794 1537 2939 
Q 1816 3084 2150 3084 
Q 2853 3084 3261 2657 
Q 3669 2231 3669 1497 
Q 3669 778 3244 343 
Q 2819 -91 2113 -91 
Q 1303 -91 875 529 
Q 447 1150 447 2328 
Q 447 3434 972 4092 
Q 1497 4750 2381 4750 
Q 2619 4750 2861 4703 
Q 3103 4656 3366 4563 
z
" transform="scale(0.015625)"/>
       </defs>
       <use xlink:href="#DejaVuSans-36"/>
       <use xlink:href="#DejaVuSans-30" x="63.623047"/>
       <use xlink:href="#DejaVuSans-30" x="127.246094"/>
      </g>
     </g>
    </g>
    <g id="xtick_5">
     <g id="line2d_5">
      <g>
       <use xlink:href="#m66ef6d5cb5" x="560.46609" y="1281.6" style="stroke: #000000; stroke-width: 0.8"/>
      </g>
     </g>
     <g id="text_5">
      <!-- 800 -->
      <g transform="translate(550.92234 1296.198437) scale(0.1 -0.1)">
       <defs>
        <path id="DejaVuSans-38" d="M 2034 2216 
Q 1584 2216 1326 1975 
Q 1069 1734 1069 1313 
Q 1069 891 1326 650 
Q 1584 409 2034 409 
Q 2484 409 2743 651 
Q 3003 894 3003 1313 
Q 3003 1734 2745 1975 
Q 2488 2216 2034 2216 
z
M 1403 2484 
Q 997 2584 770 2862 
Q 544 3141 544 3541 
Q 544 4100 942 4425 
Q 1341 4750 2034 4750 
Q 2731 4750 3128 4425 
Q 3525 4100 3525 3541 
Q 3525 3141 3298 2862 
Q 3072 2584 2669 2484 
Q 3125 2378 3379 2068 
Q 3634 1759 3634 1313 
Q 3634 634 3220 271 
Q 2806 -91 2034 -91 
Q 1263 -91 848 271 
Q 434 634 434 1313 
Q 434 1759 690 2068 
Q 947 2378 1403 2484 
z
M 1172 3481 
Q 1172 3119 1398 2916 
Q 1625 2713 2034 2713 
Q 2441 2713 2670 2916 
Q 2900 3119 2900 3481 
Q 2900 3844 2670 4047 
Q 2441 4250 2034 4250 
Q 1625 4250 1398 4047 
Q 1172 3844 1172 3481 
z
" transform="scale(0.015625)"/>
       </defs>
       <use xlink:href="#DejaVuSans-38"/>
       <use xlink:href="#DejaVuSans-30" x="63.623047"/>
       <use xlink:href="#DejaVuSans-30" x="127.246094"/>
      </g>
     </g>
    </g>
    <g id="xtick_6">
     <g id="line2d_6">
      <g>
       <use xlink:href="#m66ef6d5cb5" x="627.571575" y="1281.6" style="stroke: #000000; stroke-width: 0.8"/>
      </g>
     </g>
     <g id="text_6">
      <!-- 1000 -->
      <g transform="translate(614.846575 1296.198437) scale(0.1 -0.1)">
       <defs>
        <path id="DejaVuSans-31" d="M 794 531 
L 1825 531 
L 1825 4091 
L 703 3866 
L 703 4441 
L 1819 4666 
L 2450 4666 
L 2450 531 
L 3481 531 
L 3481 0 
L 794 0 
L 794 531 
z
" transform="scale(0.015625)"/>
       </defs>
       <use xlink:href="#DejaVuSans-31"/>
       <use xlink:href="#DejaVuSans-30" x="63.623047"/>
       <use xlink:href="#DejaVuSans-30" x="127.246094"/>
       <use xlink:href="#DejaVuSans-30" x="190.869141"/>
      </g>
     </g>
    </g>
    <g id="xtick_7">
     <g id="line2d_7">
      <g>
       <use xlink:href="#m66ef6d5cb5" x="694.67706" y="1281.6" style="stroke: #000000; stroke-width: 0.8"/>
      </g>
     </g>
     <g id="text_7">
      <!-- 1200 -->
      <g transform="translate(681.95206 1296.198437) scale(0.1 -0.1)">
       <use xlink:href="#DejaVuSans-31"/>
       <use xlink:href="#DejaVuSans-32" x="63.623047"/>
       <use xlink:href="#DejaVuSans-30" x="127.246094"/>
       <use xlink:href="#DejaVuSans-30" x="190.869141"/>
      </g>
     </g>
    </g>
    <g id="xtick_8">
     <g id="line2d_8">
      <g>
       <use xlink:href="#m66ef6d5cb5" x="761.782545" y="1281.6" style="stroke: #000000; stroke-width: 0.8"/>
      </g>
     </g>
     <g id="text_8">
      <!-- 1400 -->
      <g transform="translate(749.057545 1296.198437) scale(0.1 -0.1)">
       <use xlink:href="#DejaVuSans-31"/>
       <use xlink:href="#DejaVuSans-34" x="63.623047"/>
       <use xlink:href="#DejaVuSans-30" x="127.246094"/>
       <use xlink:href="#DejaVuSans-30" x="190.869141"/>
      </g>
     </g>
    </g>
   </g>
   <g id="matplotlib.axis_2">
    <g id="ytick_1">
     <g id="line2d_9">
      <defs>
       <path id="m48cf2b1f53" d="M 0 0 
L -3.5 0 
" style="stroke: #000000; stroke-width: 0.8"/>
      </defs>
      <g>
       <use xlink:href="#m48cf2b1f53" x="270" y="1251.048" style="stroke: #000000; stroke-width: 0.8"/>
      </g>
     </g>
     <g id="text_9">
      <!-- −20.0 -->
      <g transform="translate(232.354688 1254.847218) scale(0.1 -0.1)">
       <defs>
        <path id="DejaVuSans-2212" d="M 678 2272 
L 4684 2272 
L 4684 1741 
L 678 1741 
L 678 2272 
z
" transform="scale(0.015625)"/>
        <path id="DejaVuSans-2e" d="M 684 794 
L 1344 794 
L 1344 0 
L 684 0 
L 684 794 
z
" transform="scale(0.015625)"/>
       </defs>
       <use xlink:href="#DejaVuSans-2212"/>
       <use xlink:href="#DejaVuSans-32" x="83.789062"/>
       <use xlink:href="#DejaVuSans-30" x="147.412109"/>
       <use xlink:href="#DejaVuSans-2e" x="211.035156"/>
       <use xlink:href="#DejaVuSans-30" x="242.822266"/>
      </g>
     </g>
    </g>
    <g id="ytick_2">
     <g id="line2d_10">
      <g>
       <use xlink:href="#m48cf2b1f53" x="270" y="1123.839089" style="stroke: #000000; stroke-width: 0.8"/>
      </g>
     </g>
     <g id="text_10">
      <!-- −17.5 -->
      <g transform="translate(232.354688 1127.638307) scale(0.1 -0.1)">
       <defs>
        <path id="DejaVuSans-37" d="M 525 4666 
L 3525 4666 
L 3525 4397 
L 1831 0 
L 1172 0 
L 2766 4134 
L 525 4134 
L 525 4666 
z
" transform="scale(0.015625)"/>
        <path id="DejaVuSans-35" d="M 691 4666 
L 3169 4666 
L 3169 4134 
L 1269 4134 
L 1269 2991 
Q 1406 3038 1543 3061 
Q 1681 3084 1819 3084 
Q 2600 3084 3056 2656 
Q 3513 2228 3513 1497 
Q 3513 744 3044 326 
Q 2575 -91 1722 -91 
Q 1428 -91 1123 -41 
Q 819 9 494 109 
L 494 744 
Q 775 591 1075 516 
Q 1375 441 1709 441 
Q 2250 441 2565 725 
Q 2881 1009 2881 1497 
Q 2881 1984 2565 2268 
Q 2250 2553 1709 2553 
Q 1456 2553 1204 2497 
Q 953 2441 691 2322 
L 691 4666 
z
" transform="scale(0.015625)"/>
       </defs>
       <use xlink:href="#DejaVuSans-2212"/>
       <use xlink:href="#DejaVuSans-31" x="83.789062"/>
       <use xlink:href="#DejaVuSans-37" x="147.412109"/>
       <use xlink:href="#DejaVuSans-2e" x="211.035156"/>
       <use xlink:href="#DejaVuSans-35" x="242.822266"/>
      </g>
     </g>
    </g>
    <g id="ytick_3">
     <g id="line2d_11">
      <g>
       <use xlink:href="#m48cf2b1f53" x="270" y="996.630178" style="stroke: #000000; stroke-width: 0.8"/>
      </g>
     </g>
     <g id="text_11">
      <!-- −15.0 -->
      <g transform="translate(232.354688 1000.429397) scale(0.1 -0.1)">
       <use xlink:href="#DejaVuSans-2212"/>
       <use xlink:href="#DejaVuSans-31" x="83.789062"/>
       <use xlink:href="#DejaVuSans-35" x="147.412109"/>
       <use xlink:href="#DejaVuSans-2e" x="211.035156"/>
       <use xlink:href="#DejaVuSans-30" x="242.822266"/>
      </g>
     </g>
    </g>
    <g id="ytick_4">
     <g id="line2d_12">
      <g>
       <use xlink:href="#m48cf2b1f53" x="270" y="869.421267" style="stroke: #000000; stroke-width: 0.8"/>
      </g>
     </g>
     <g id="text_12">
      <!-- −12.5 -->
      <g transform="translate(232.354688 873.220486) scale(0.1 -0.1)">
       <use xlink:href="#DejaVuSans-2212"/>
       <use xlink:href="#DejaVuSans-31" x="83.789062"/>
       <use xlink:href="#DejaVuSans-32" x="147.412109"/>
       <use xlink:href="#DejaVuSans-2e" x="211.035156"/>
       <use xlink:href="#DejaVuSans-35" x="242.822266"/>
      </g>
     </g>
    </g>
    <g id="ytick_5">
     <g id="line2d_13">
      <g>
       <use xlink:href="#m48cf2b1f53" x="270" y="742.212356" style="stroke: #000000; stroke-width: 0.8"/>
      </g>
     </g>
     <g id="text_13">
      <!-- −10.0 -->
      <g transform="translate(232.354688 746.011575) scale(0.1 -0.1)">
       <use xlink:href="#DejaVuSans-2212"/>
       <use xlink:href="#DejaVuSans-31" x="83.789062"/>
       <use xlink:href="#DejaVuSans-30" x="147.412109"/>
       <use xlink:href="#DejaVuSans-2e" x="211.035156"/>
       <use xlink:href="#DejaVuSans-30" x="242.822266"/>
      </g>
     </g>
    </g>
    <g id="ytick_6">
     <g id="line2d_14">
      <g>
       <use xlink:href="#m48cf2b1f53" x="270" y="615.003445" style="stroke: #000000; stroke-width: 0.8"/>
      </g>
     </g>
     <g id="text_14">
      <!-- −7.5 -->
      <g transform="translate(238.717187 618.802664) scale(0.1 -0.1)">
       <use xlink:href="#DejaVuSans-2212"/>
       <use xlink:href="#DejaVuSans-37" x="83.789062"/>
       <use xlink:href="#DejaVuSans-2e" x="147.412109"/>
       <use xlink:href="#DejaVuSans-35" x="179.199219"/>
      </g>
     </g>
    </g>
    <g id="ytick_7">
     <g id="line2d_15">
      <g>
       <use xlink:href="#m48cf2b1f53" x="270" y="487.794535" style="stroke: #000000; stroke-width: 0.8"/>
      </g>
     </g>
     <g id="text_15">
      <!-- −5.0 -->
      <g transform="translate(238.717187 491.593753) scale(0.1 -0.1)">
       <use xlink:href="#DejaVuSans-2212"/>
       <use xlink:href="#DejaVuSans-35" x="83.789062"/>
       <use xlink:href="#DejaVuSans-2e" x="147.412109"/>
       <use xlink:href="#DejaVuSans-30" x="179.199219"/>
      </g>
     </g>
    </g>
    <g id="ytick_8">
     <g id="line2d_16">
      <g>
       <use xlink:href="#m48cf2b1f53" x="270" y="360.585624" style="stroke: #000000; stroke-width: 0.8"/>
      </g>
     </g>
     <g id="text_16">
      <!-- −2.5 -->
      <g transform="translate(238.717187 364.384842) scale(0.1 -0.1)">
       <use xlink:href="#DejaVuSans-2212"/>
       <use xlink:href="#DejaVuSans-32" x="83.789062"/>
       <use xlink:href="#DejaVuSans-2e" x="147.412109"/>
       <use xlink:href="#DejaVuSans-35" x="179.199219"/>
      </g>
     </g>
    </g>
    <g id="ytick_9">
     <g id="line2d_17">
      <g>
       <use xlink:href="#m48cf2b1f53" x="270" y="233.376713" style="stroke: #000000; stroke-width: 0.8"/>
      </g>
     </g>
     <g id="text_17">
      <!-- 0.0 -->
      <g transform="translate(247.096875 237.175932) scale(0.1 -0.1)">
       <use xlink:href="#DejaVuSans-30"/>
       <use xlink:href="#DejaVuSans-2e" x="63.623047"/>
       <use xlink:href="#DejaVuSans-30" x="95.410156"/>
      </g>
     </g>
    </g>
   </g>
   <g id="line2d_18">
    <path d="M 292.379679 233.376713 
L 309.15605 233.376713 
L 309.491578 223.2 
L 310.49816 223.2 
L 310.833687 229.984475 
L 311.84027 229.984475 
L 312.175797 241.518083 
L 313.182379 241.518083 
L 313.517907 242.82279 
L 314.524489 242.82279 
L 314.860017 255.758026 
L 315.866599 255.758026 
L 316.202126 261.380345 
L 317.208708 261.380345 
L 317.544236 267.397529 
L 318.550818 267.397529 
L 318.886346 272.681925 
L 319.892928 272.681925 
L 320.228455 279.536224 
L 321.235038 279.536224 
L 321.570565 284.752021 
L 323.919257 284.752021 
L 324.254784 280.434078 
L 326.603476 280.434078 
L 326.939004 286.573066 
L 327.945586 286.573066 
L 328.281113 281.385776 
L 329.287696 281.385776 
L 329.623223 277.201119 
L 331.971915 277.201119 
L 332.307443 278.252005 
L 333.314025 278.252005 
L 333.649552 273.087605 
L 335.998244 273.087605 
L 336.333772 267.943888 
L 337.340354 267.943888 
L 337.675881 262.819871 
L 338.682464 262.819871 
L 339.017991 267.566973 
L 340.024573 267.566973 
L 340.360101 259.857342 
L 342.708793 259.857342 
L 343.04432 252.712339 
L 344.050902 252.712339 
L 344.38643 257.207673 
L 345.393012 257.207673 
L 345.728539 252.712339 
L 346.735122 252.712339 
L 347.070649 259.579349 
L 349.419341 259.579349 
L 349.754869 264.426418 
L 350.761451 264.426418 
L 351.096978 272.869727 
L 352.103561 272.869727 
L 352.439088 271.600771 
L 353.44567 271.600771 
L 353.781198 274.795926 
L 354.78778 274.795926 
L 355.123307 273.576221 
L 356.12989 273.576221 
L 356.465417 272.383724 
L 357.471999 272.383724 
L 357.807527 274.475051 
L 358.814109 274.475051 
L 359.149636 286.449181 
L 360.156219 286.449181 
L 360.491746 282.181368 
L 361.498328 282.181368 
L 361.833856 285.493439 
L 362.840438 285.493439 
L 363.175965 297.313027 
L 364.182548 297.313027 
L 364.518075 301.349914 
L 365.524657 301.349914 
L 365.860185 304.910623 
L 369.550987 304.910623 
L 369.886514 308.858241 
L 370.893096 308.858241 
L 371.228624 316.366568 
L 372.235206 316.366568 
L 372.570733 312.42523 
L 373.577316 312.42523 
L 373.912843 319.946458 
L 374.919425 319.946458 
L 375.254953 327.398512 
L 376.261535 327.398512 
L 376.597062 330.995947 
L 377.603645 330.995947 
L 377.939172 342.371133 
L 378.945754 342.371133 
L 379.281282 350.014751 
L 380.287864 350.014751 
L 380.623392 361.525561 
L 381.629974 361.525561 
L 381.965501 372.843265 
L 382.972083 372.843265 
L 383.307611 380.446443 
L 384.314193 380.446443 
L 384.649721 384.33484 
L 385.656303 384.33484 
L 385.99183 391.938018 
L 386.998413 391.938018 
L 387.33394 388.275425 
L 388.340522 388.275425 
L 388.67605 381.039982 
L 389.682632 381.039982 
L 390.018159 373.88809 
L 391.024742 373.88809 
L 391.360269 370.312145 
L 392.366851 370.312145 
L 392.702379 377.955862 
L 395.051071 377.990058 
L 395.386598 378.645154 
L 396.39318 378.645154 
L 396.728708 390.551606 
L 399.0774 390.547465 
L 399.412927 383.688009 
L 400.419509 383.688009 
L 400.755037 380.262247 
L 401.761619 380.262247 
L 402.097147 373.422038 
L 403.103729 373.422038 
L 403.439256 381.237732 
L 404.445839 381.237732 
L 404.781366 384.655977 
L 407.130058 384.655977 
L 407.465585 388.074221 
L 408.472168 388.074221 
L 408.807695 384.659473 
L 409.814277 384.659473 
L 410.149805 382.305591 
L 411.156387 382.305591 
L 411.491914 375.549558 
L 412.498497 375.549558 
L 412.834024 376.684878 
L 413.840606 376.684878 
L 414.176134 382.443934 
L 415.182716 382.443934 
L 415.518244 383.711588 
L 416.524826 383.711588 
L 416.860353 380.360081 
L 419.209045 380.360081 
L 419.544573 388.311858 
L 420.551155 388.311858 
L 420.886682 385.007049 
L 421.893265 385.007049 
L 422.228792 381.704872 
L 423.235374 381.704872 
L 423.570902 383.084217 
L 424.577484 383.084217 
L 424.913011 384.491688 
L 425.919594 384.491688 
L 426.255121 389.208969 
L 427.261703 389.208969 
L 427.597231 397.240124 
L 428.603813 397.240124 
L 428.93934 410.030629 
L 429.945923 410.030629 
L 430.28145 418.061783 
L 431.288032 418.061783 
L 431.62356 429.359946 
L 432.630142 429.359946 
L 432.96567 442.155278 
L 433.972252 442.155278 
L 434.307779 453.429855 
L 435.314362 453.429855 
L 435.649889 469.536082 
L 436.656471 469.536082 
L 436.991999 482.427248 
L 437.998581 482.427248 
L 438.334108 485.676992 
L 439.340691 485.676992 
L 439.676218 498.599976 
L 440.6828 498.599976 
L 441.018328 500.193047 
L 442.02491 500.193047 
L 442.360437 509.899837 
L 444.709129 509.899837 
L 445.044657 514.75252 
L 447.393349 514.76149 
L 447.728876 519.619772 
L 448.735458 519.619772 
L 449.070986 516.402751 
L 451.419678 516.40093 
L 451.755205 521.294168 
L 452.761788 521.294168 
L 453.097315 529.396467 
L 454.103897 529.396467 
L 454.439425 523.011643 
L 455.446007 523.011643 
L 455.781534 524.771981 
L 456.788117 524.771981 
L 457.123644 518.426422 
L 458.130226 518.426422 
L 458.465754 508.946375 
L 459.472336 508.946375 
L 459.807863 513.923575 
L 460.814446 513.923575 
L 461.149973 504.469967 
L 462.156555 504.469967 
L 462.492083 512.61396 
L 463.498665 512.61396 
L 463.834193 511.317103 
L 467.524994 511.317103 
L 467.860522 508.189188 
L 468.867104 508.189188 
L 469.202631 501.940558 
L 470.209214 501.940558 
L 470.544741 495.69636 
L 471.551323 495.69636 
L 471.886851 483.229348 
L 472.893433 483.229348 
L 473.22896 470.818338 
L 474.235543 470.818338 
L 474.57107 461.537336 
L 475.577652 461.537336 
L 475.91318 452.279213 
L 476.919762 452.279213 
L 477.255289 449.198552 
L 478.261872 449.198552 
L 478.597399 439.971739 
L 479.603981 439.971739 
L 479.939509 433.827593 
L 482.288201 433.830093 
L 482.623728 430.763533 
L 483.630311 430.763533 
L 483.965838 421.574214 
L 484.97242 421.574214 
L 485.307948 429.814942 
L 486.31453 429.814942 
L 486.650057 420.642165 
L 487.65664 420.642165 
L 487.992167 431.034805 
L 488.998749 431.034805 
L 489.334277 450.589835 
L 490.340859 450.589835 
L 490.676386 447.540118 
L 491.682969 447.540118 
L 492.018496 446.651595 
L 493.025078 446.651595 
L 493.360606 434.476957 
L 494.367188 434.476957 
L 494.702715 439.704026 
L 495.709298 439.704026 
L 496.044825 453.200241 
L 497.051407 453.200241 
L 497.386935 465.889083 
L 498.393517 465.889083 
L 498.729045 474.158282 
L 499.735627 474.158282 
L 500.071154 488.473868 
L 501.077737 488.473868 
L 501.413264 502.004555 
L 502.419846 502.004555 
L 502.755374 510.281219 
L 503.761956 510.281219 
L 504.097483 515.548274 
L 505.104066 515.548274 
L 505.439593 517.053117 
L 506.446175 517.053117 
L 506.781703 530.615064 
L 507.788285 530.615064 
L 508.123812 541.910795 
L 509.130395 541.910795 
L 509.465922 544.19014 
L 510.472504 544.19014 
L 510.808032 549.476213 
L 511.814614 549.476213 
L 512.150142 565.352844 
L 513.156724 565.352844 
L 513.492251 578.947229 
L 514.498833 578.947229 
L 514.834361 603.169781 
L 515.840943 603.169781 
L 516.176471 632.743636 
L 517.183053 632.743636 
L 517.51858 643.386501 
L 518.525163 643.386501 
L 518.86069 665.341778 
L 519.867272 665.341778 
L 520.2028 683.684498 
L 521.209382 683.684498 
L 521.544909 680.699168 
L 522.551492 680.699168 
L 522.887019 674.733711 
L 523.893601 674.733711 
L 524.229129 668.770852 
L 526.577821 668.770057 
L 526.913348 665.790995 
L 527.91993 665.790995 
L 528.255458 662.811145 
L 529.26204 662.811145 
L 529.597568 656.856382 
L 530.60415 656.856382 
L 530.939677 653.278897 
L 531.946259 653.278897 
L 532.281787 652.680594 
L 533.288369 652.680594 
L 533.623897 665.771675 
L 534.630479 665.771675 
L 534.966006 662.799788 
L 535.972589 662.799788 
L 536.308116 668.158369 
L 537.314698 668.158369 
L 537.650226 678.880221 
L 538.656808 678.880221 
L 538.992335 678.302207 
L 539.998918 678.302207 
L 540.334445 683.667796 
L 541.341027 683.667796 
L 541.676555 690.873436 
L 542.683137 690.873436 
L 543.018664 693.280341 
L 544.025247 693.280341 
L 544.360774 698.098798 
L 545.367356 698.098798 
L 545.702884 701.059928 
L 546.709466 701.059928 
L 547.044994 697.554983 
L 548.051576 697.554983 
L 548.387103 697.014764 
L 549.393686 697.014764 
L 549.729213 705.354948 
L 550.735795 705.354948 
L 551.071323 696.478177 
L 552.077905 696.478177 
L 552.413432 698.902874 
L 553.420015 698.902874 
L 553.755542 712.102081 
L 554.762124 712.102081 
L 555.097652 709.145765 
L 556.104234 709.145765 
L 556.439761 716.966351 
L 557.446344 716.966351 
L 557.781871 724.795272 
L 558.788453 724.795272 
L 559.123981 732.627408 
L 560.130563 732.627408 
L 560.46609 757.672731 
L 561.472673 757.672731 
L 561.8082 760.624946 
L 562.814782 760.624946 
L 563.15031 771.928002 
L 564.156892 771.928002 
L 564.49242 771.432508 
L 565.499002 771.432508 
L 565.834529 774.382037 
L 568.183221 774.382037 
L 568.518749 780.27998 
L 569.525331 780.27998 
L 569.860858 779.791837 
L 570.867441 779.791837 
L 571.202968 776.359448 
L 572.20955 776.359448 
L 572.545078 775.879123 
L 573.55166 775.879123 
L 573.887187 778.349988 
L 574.89377 778.349988 
L 575.229297 783.293157 
L 576.235879 783.293157 
L 576.571407 780.350295 
L 577.577989 780.350295 
L 577.913517 779.883193 
L 578.920099 779.883193 
L 579.255626 790.721464 
L 580.262208 790.721464 
L 580.597736 795.682167 
L 581.604318 795.682167 
L 581.939846 798.164315 
L 582.946428 798.164315 
L 583.281955 792.288407 
L 584.288538 792.288407 
L 584.624065 797.267615 
L 585.630647 797.267615 
L 585.966175 791.39659 
L 586.972757 791.39659 
L 587.308284 790.52011 
L 588.314867 790.52011 
L 588.650394 806.817846 
L 590.999086 806.817846 
L 591.334613 812.254592 
L 592.341196 812.254592 
L 592.676723 814.761435 
L 595.025415 814.762864 
L 595.360943 814.346295 
L 596.367525 814.346295 
L 596.703052 828.160246 
L 597.709634 828.160246 
L 598.045162 822.303789 
L 599.051744 822.303789 
L 599.387272 819.37556 
L 600.393854 819.37556 
L 600.729381 821.893562 
L 601.735964 821.893562 
L 602.071491 816.038717 
L 604.420183 816.038717 
L 604.75571 813.111475 
L 605.762293 813.111475 
L 606.09782 810.184589 
L 607.104402 810.184589 
L 607.43993 801.405848 
L 608.446512 801.405848 
L 608.782039 795.554735 
L 609.788622 795.554735 
L 610.124149 786.778782 
L 611.130731 786.778782 
L 611.466259 780.928947 
L 612.472841 780.928947 
L 612.808369 775.080369 
L 613.814951 775.080369 
L 614.150478 766.309774 
L 615.157061 766.309774 
L 615.492588 796.904607 
L 616.49917 796.904607 
L 616.834698 813.664757 
L 617.84128 813.664757 
L 618.176807 833.347955 
L 619.18339 833.347955 
L 619.518917 841.729038 
L 620.525499 841.729038 
L 620.861027 850.110121 
L 621.867609 850.110121 
L 622.203136 872.331622 
L 623.209719 872.331622 
L 623.545246 889.094556 
L 624.551828 889.094556 
L 624.887356 908.777327 
L 625.893938 908.777327 
L 626.229465 933.919559 
L 627.236048 933.919559 
L 627.571575 942.300432 
L 628.578157 942.300432 
L 628.913685 939.381456 
L 629.920267 939.381456 
L 630.255795 933.544433 
L 631.262377 933.544433 
L 631.597904 936.462577 
L 632.604487 936.462577 
L 632.940014 933.544736 
L 633.946596 933.544736 
L 634.282124 930.627196 
L 635.288706 930.627196 
L 635.624233 927.709656 
L 636.630816 927.709656 
L 636.966343 933.173804 
L 637.972925 933.173804 
L 638.308453 930.256264 
L 640.657145 930.25656 
L 640.992672 929.888834 
L 641.999254 929.888834 
L 642.334782 941.187777 
L 643.341364 941.187777 
L 643.676892 943.738519 
L 644.683474 943.738519 
L 645.019001 960.141907 
L 646.025583 960.141907 
L 646.361111 963.057578 
L 647.367693 963.057578 
L 647.703221 965.610776 
L 648.709803 965.610776 
L 649.04533 984.935261 
L 650.051913 984.935261 
L 650.38744 998.792186 
L 651.394022 998.792186 
L 651.72955 998.433672 
L 652.736132 998.433672 
L 653.071659 1003.905834 
L 654.078242 1003.905834 
L 654.413769 1006.820621 
L 655.420351 1006.820621 
L 655.755879 1000.991317 
L 656.762461 1000.991317 
L 657.097988 1006.465305 
L 658.104571 1006.465305 
L 658.440098 1014.500542 
L 659.44668 1014.500542 
L 659.782208 1011.586223 
L 660.78879 1011.586223 
L 661.124318 1011.23295 
L 663.473009 1011.232756 
L 663.808537 1014.146421 
L 664.815119 1014.146421 
L 665.150647 1019.623759 
L 666.157229 1019.623759 
L 666.492756 1019.274411 
L 667.499339 1019.274411 
L 667.834866 1016.361007 
L 668.841448 1016.361007 
L 669.176976 1021.839761 
L 670.183558 1021.839761 
L 670.519085 1035.711687 
L 671.525668 1035.711687 
L 671.861195 1038.279067 
L 672.867777 1038.279067 
L 673.203305 1046.672364 
L 674.209887 1046.672364 
L 674.545414 1049.584816 
L 675.551997 1049.584816 
L 675.887524 1052.497079 
L 676.894106 1052.497079 
L 677.229634 1057.97811 
L 679.578326 1057.97811 
L 679.913853 1060.890124 
L 680.920436 1060.890124 
L 681.255963 1063.459634 
L 682.262545 1063.459634 
L 682.598073 1063.117864 
L 683.604655 1063.117864 
L 683.940182 1068.599878 
L 684.946765 1068.599878 
L 685.282292 1068.259939 
L 686.288874 1068.259939 
L 686.624402 1073.742328 
L 687.630984 1073.742328 
L 687.966511 1087.789649 
L 688.973094 1087.789649 
L 689.308621 1093.611071 
L 691.657313 1093.611302 
L 691.99284 1104.582318 
L 692.999423 1104.582318 
L 693.33495 1098.762682 
L 694.341532 1098.762682 
L 694.67706 1104.249169 
L 695.683642 1104.249169 
L 696.01917 1115.554844 
L 697.025752 1115.554844 
L 697.361279 1112.645583 
L 699.709971 1112.645583 
L 700.045499 1118.132698 
L 701.052081 1118.132698 
L 701.387608 1121.041591 
L 702.394191 1121.041591 
L 702.729718 1132.346534 
L 703.7363 1132.346534 
L 704.071828 1137.83471 
L 705.07841 1137.83471 
L 705.413937 1146.23163 
L 706.42052 1146.23163 
L 706.756047 1151.720457 
L 707.762629 1151.720457 
L 708.098157 1165.6077 
L 709.104739 1165.6077 
L 709.440266 1159.791934 
L 710.446849 1159.791934 
L 710.782376 1156.884261 
L 711.788958 1156.884261 
L 712.124486 1153.976587 
L 713.131068 1153.976587 
L 713.466596 1156.560211 
L 714.473178 1156.560211 
L 714.808705 1159.467498 
L 717.157397 1159.467498 
L 717.492925 1156.560211 
L 719.841617 1156.560211 
L 720.177144 1150.74625 
L 721.183726 1150.74625 
L 721.519254 1150.425368 
L 722.525836 1150.425368 
L 722.861363 1153.012163 
L 723.867946 1153.012163 
L 724.203473 1155.599155 
L 725.210055 1155.599155 
L 725.545583 1166.585496 
L 726.552165 1166.585496 
L 726.887693 1169.491202 
L 727.894275 1169.491202 
L 728.229802 1172.396908 
L 729.236384 1172.396908 
L 729.571912 1175.302614 
L 730.578494 1175.302614 
L 730.914022 1183.38587 
L 733.262714 1183.38587 
L 733.598241 1191.786339 
L 734.604823 1191.786339 
L 734.940351 1197.596104 
L 735.946933 1197.596104 
L 736.28246 1214.397687 
L 737.289043 1214.397687 
L 737.62457 1228.606716 
L 738.631152 1228.606716 
L 738.96668 1231.2 
L 739.973262 1231.2 
L 739.973262 1231.2 
" clip-path="url(#p13dba3fd7d)" style="fill: none; stroke: #0000ff; stroke-width: 1.5; stroke-linecap: square"/>
   </g>
   <g id="patch_3">
    <path d="M 270 1281.6 
L 270 172.8 
" style="fill: none; stroke: #000000; stroke-width: 0.8; stroke-linejoin: miter; stroke-linecap: square"/>
   </g>
   <g id="patch_4">
    <path d="M 762.352941 1281.6 
L 762.352941 172.8 
" style="fill: none; stroke: #000000; stroke-width: 0.8; stroke-linejoin: miter; stroke-linecap: square"/>
   </g>
   <g id="patch_5">
    <path d="M 270 1281.6 
L 762.352941 1281.6 
" style="fill: none; stroke: #000000; stroke-width: 0.8; stroke-linejoin: miter; stroke-linecap: square"/>
   </g>
   <g id="patch_6">
    <path d="M 270 172.8 
L 762.352941 172.8 
" style="fill: none; stroke: #000000; stroke-width: 0.8; stroke-linejoin: miter; stroke-linecap: square"/>
   </g>
   <g id="legend_1">
    <g id="patch_7">
     <path d="M 671.310754 195.478125 
L 755.352941 195.478125 
Q 757.352941 195.478125 757.352941 193.478125 
L 757.352941 179.8 
Q 757.352941 177.8 755.352941 177.8 
L 671.310754 177.8 
Q 669.310754 177.8 669.310754 179.8 
L 669.310754 193.478125 
Q 669.310754 195.478125 671.310754 195.478125 
z
" style="fill: #ffffff; opacity: 0.8; stroke: #cccccc; stroke-linejoin: miter"/>
    </g>
    <g id="line2d_19">
     <path d="M 673.310754 185.898437 
L 683.310754 185.898437 
L 693.310754 185.898437 
" style="fill: none; stroke: #0000ff; stroke-width: 1.5; stroke-linecap: square"/>
    </g>
    <g id="text_18">
     <!-- O1 reward -->
     <g transform="translate(701.310754 189.398437) scale(0.1 -0.1)">
      <defs>
       <path id="DejaVuSans-4f" d="M 2522 4238 
Q 1834 4238 1429 3725 
Q 1025 3213 1025 2328 
Q 1025 1447 1429 934 
Q 1834 422 2522 422 
Q 3209 422 3611 934 
Q 4013 1447 4013 2328 
Q 4013 3213 3611 3725 
Q 3209 4238 2522 4238 
z
M 2522 4750 
Q 3503 4750 4090 4092 
Q 4678 3434 4678 2328 
Q 4678 1225 4090 567 
Q 3503 -91 2522 -91 
Q 1538 -91 948 565 
Q 359 1222 359 2328 
Q 359 3434 948 4092 
Q 1538 4750 2522 4750 
z
" transform="scale(0.015625)"/>
       <path id="DejaVuSans-20" transform="scale(0.015625)"/>
       <path id="DejaVuSans-72" d="M 2631 2963 
Q 2534 3019 2420 3045 
Q 2306 3072 2169 3072 
Q 1681 3072 1420 2755 
Q 1159 2438 1159 1844 
L 1159 0 
L 581 0 
L 581 3500 
L 1159 3500 
L 1159 2956 
Q 1341 3275 1631 3429 
Q 1922 3584 2338 3584 
Q 2397 3584 2469 3576 
Q 2541 3569 2628 3553 
L 2631 2963 
z
" transform="scale(0.015625)"/>
       <path id="DejaVuSans-65" d="M 3597 1894 
L 3597 1613 
L 953 1613 
Q 991 1019 1311 708 
Q 1631 397 2203 397 
Q 2534 397 2845 478 
Q 3156 559 3463 722 
L 3463 178 
Q 3153 47 2828 -22 
Q 2503 -91 2169 -91 
Q 1331 -91 842 396 
Q 353 884 353 1716 
Q 353 2575 817 3079 
Q 1281 3584 2069 3584 
Q 2775 3584 3186 3129 
Q 3597 2675 3597 1894 
z
M 3022 2063 
Q 3016 2534 2758 2815 
Q 2500 3097 2075 3097 
Q 1594 3097 1305 2825 
Q 1016 2553 972 2059 
L 3022 2063 
z
" transform="scale(0.015625)"/>
       <path id="DejaVuSans-77" d="M 269 3500 
L 844 3500 
L 1563 769 
L 2278 3500 
L 2956 3500 
L 3675 769 
L 4391 3500 
L 4966 3500 
L 4050 0 
L 3372 0 
L 2619 2869 
L 1863 0 
L 1184 0 
L 269 3500 
z
" transform="scale(0.015625)"/>
       <path id="DejaVuSans-61" d="M 2194 1759 
Q 1497 1759 1228 1600 
Q 959 1441 959 1056 
Q 959 750 1161 570 
Q 1363 391 1709 391 
Q 2188 391 2477 730 
Q 2766 1069 2766 1631 
L 2766 1759 
L 2194 1759 
z
M 3341 1997 
L 3341 0 
L 2766 0 
L 2766 531 
Q 2569 213 2275 61 
Q 1981 -91 1556 -91 
Q 1019 -91 701 211 
Q 384 513 384 1019 
Q 384 1609 779 1909 
Q 1175 2209 1959 2209 
L 2766 2209 
L 2766 2266 
Q 2766 2663 2505 2880 
Q 2244 3097 1772 3097 
Q 1472 3097 1187 3025 
Q 903 2953 641 2809 
L 641 3341 
Q 956 3463 1253 3523 
Q 1550 3584 1831 3584 
Q 2591 3584 2966 3190 
Q 3341 2797 3341 1997 
z
" transform="scale(0.015625)"/>
       <path id="DejaVuSans-64" d="M 2906 2969 
L 2906 4863 
L 3481 4863 
L 3481 0 
L 2906 0 
L 2906 525 
Q 2725 213 2448 61 
Q 2172 -91 1784 -91 
Q 1150 -91 751 415 
Q 353 922 353 1747 
Q 353 2572 751 3078 
Q 1150 3584 1784 3584 
Q 2172 3584 2448 3432 
Q 2725 3281 2906 2969 
z
M 947 1747 
Q 947 1113 1208 752 
Q 1469 391 1925 391 
Q 2381 391 2643 752 
Q 2906 1113 2906 1747 
Q 2906 2381 2643 2742 
Q 2381 3103 1925 3103 
Q 1469 3103 1208 2742 
Q 947 2381 947 1747 
z
" transform="scale(0.015625)"/>
      </defs>
      <use xlink:href="#DejaVuSans-4f"/>
      <use xlink:href="#DejaVuSans-31" x="78.710938"/>
      <use xlink:href="#DejaVuSans-20" x="142.333984"/>
      <use xlink:href="#DejaVuSans-72" x="174.121094"/>
      <use xlink:href="#DejaVuSans-65" x="212.984375"/>
      <use xlink:href="#DejaVuSans-77" x="274.507812"/>
      <use xlink:href="#DejaVuSans-61" x="356.294922"/>
      <use xlink:href="#DejaVuSans-72" x="417.574219"/>
      <use xlink:href="#DejaVuSans-64" x="456.9375"/>
     </g>
    </g>
   </g>
  </g>
  <g id="axes_2">
   <g id="patch_8">
    <path d="M 860.823529 1281.6 
L 1353.176471 1281.6 
L 1353.176471 172.8 
L 860.823529 172.8 
z
" style="fill: #ffffff"/>
   </g>
   <g id="matplotlib.axis_3">
    <g id="xtick_9">
     <g id="line2d_20">
      <g>
       <use xlink:href="#m66ef6d5cb5" x="882.867681" y="1281.6" style="stroke: #000000; stroke-width: 0.8"/>
      </g>
     </g>
     <g id="text_19">
      <!-- 0 -->
      <g transform="translate(879.686431 1296.198437) scale(0.1 -0.1)">
       <use xlink:href="#DejaVuSans-30"/>
      </g>
     </g>
    </g>
    <g id="xtick_10">
     <g id="line2d_21">
      <g>
       <use xlink:href="#m66ef6d5cb5" x="949.973166" y="1281.6" style="stroke: #000000; stroke-width: 0.8"/>
      </g>
     </g>
     <g id="text_20">
      <!-- 200 -->
      <g transform="translate(940.429416 1296.198437) scale(0.1 -0.1)">
       <use xlink:href="#DejaVuSans-32"/>
       <use xlink:href="#DejaVuSans-30" x="63.623047"/>
       <use xlink:href="#DejaVuSans-30" x="127.246094"/>
      </g>
     </g>
    </g>
    <g id="xtick_11">
     <g id="line2d_22">
      <g>
       <use xlink:href="#m66ef6d5cb5" x="1017.078651" y="1281.6" style="stroke: #000000; stroke-width: 0.8"/>
      </g>
     </g>
     <g id="text_21">
      <!-- 400 -->
      <g transform="translate(1007.534901 1296.198437) scale(0.1 -0.1)">
       <use xlink:href="#DejaVuSans-34"/>
       <use xlink:href="#DejaVuSans-30" x="63.623047"/>
       <use xlink:href="#DejaVuSans-30" x="127.246094"/>
      </g>
     </g>
    </g>
    <g id="xtick_12">
     <g id="line2d_23">
      <g>
       <use xlink:href="#m66ef6d5cb5" x="1084.184135" y="1281.6" style="stroke: #000000; stroke-width: 0.8"/>
      </g>
     </g>
     <g id="text_22">
      <!-- 600 -->
      <g transform="translate(1074.640385 1296.198437) scale(0.1 -0.1)">
       <use xlink:href="#DejaVuSans-36"/>
       <use xlink:href="#DejaVuSans-30" x="63.623047"/>
       <use xlink:href="#DejaVuSans-30" x="127.246094"/>
      </g>
     </g>
    </g>
    <g id="xtick_13">
     <g id="line2d_24">
      <g>
       <use xlink:href="#m66ef6d5cb5" x="1151.28962" y="1281.6" style="stroke: #000000; stroke-width: 0.8"/>
      </g>
     </g>
     <g id="text_23">
      <!-- 800 -->
      <g transform="translate(1141.74587 1296.198437) scale(0.1 -0.1)">
       <use xlink:href="#DejaVuSans-38"/>
       <use xlink:href="#DejaVuSans-30" x="63.623047"/>
       <use xlink:href="#DejaVuSans-30" x="127.246094"/>
      </g>
     </g>
    </g>
    <g id="xtick_14">
     <g id="line2d_25">
      <g>
       <use xlink:href="#m66ef6d5cb5" x="1218.395105" y="1281.6" style="stroke: #000000; stroke-width: 0.8"/>
      </g>
     </g>
     <g id="text_24">
      <!-- 1000 -->
      <g transform="translate(1205.670105 1296.198437) scale(0.1 -0.1)">
       <use xlink:href="#DejaVuSans-31"/>
       <use xlink:href="#DejaVuSans-30" x="63.623047"/>
       <use xlink:href="#DejaVuSans-30" x="127.246094"/>
       <use xlink:href="#DejaVuSans-30" x="190.869141"/>
      </g>
     </g>
    </g>
    <g id="xtick_15">
     <g id="line2d_26">
      <g>
       <use xlink:href="#m66ef6d5cb5" x="1285.500589" y="1281.6" style="stroke: #000000; stroke-width: 0.8"/>
      </g>
     </g>
     <g id="text_25">
      <!-- 1200 -->
      <g transform="translate(1272.775589 1296.198437) scale(0.1 -0.1)">
       <use xlink:href="#DejaVuSans-31"/>
       <use xlink:href="#DejaVuSans-32" x="63.623047"/>
       <use xlink:href="#DejaVuSans-30" x="127.246094"/>
       <use xlink:href="#DejaVuSans-30" x="190.869141"/>
      </g>
     </g>
    </g>
    <g id="xtick_16">
     <g id="line2d_27">
      <g>
       <use xlink:href="#m66ef6d5cb5" x="1352.606074" y="1281.6" style="stroke: #000000; stroke-width: 0.8"/>
      </g>
     </g>
     <g id="text_26">
      <!-- 1400 -->
      <g transform="translate(1339.881074 1296.198437) scale(0.1 -0.1)">
       <use xlink:href="#DejaVuSans-31"/>
       <use xlink:href="#DejaVuSans-34" x="63.623047"/>
       <use xlink:href="#DejaVuSans-30" x="127.246094"/>
       <use xlink:href="#DejaVuSans-30" x="190.869141"/>
      </g>
     </g>
    </g>
   </g>
   <g id="matplotlib.axis_4">
    <g id="ytick_10">
     <g id="line2d_28">
      <g>
       <use xlink:href="#m48cf2b1f53" x="860.823529" y="1231.2" style="stroke: #000000; stroke-width: 0.8"/>
      </g>
     </g>
     <g id="text_27">
      <!-- 0 -->
      <g transform="translate(847.461029 1234.999219) scale(0.1 -0.1)">
       <use xlink:href="#DejaVuSans-30"/>
      </g>
     </g>
    </g>
    <g id="ytick_11">
     <g id="line2d_29">
      <g>
       <use xlink:href="#m48cf2b1f53" x="860.823529" y="1028.18106" style="stroke: #000000; stroke-width: 0.8"/>
      </g>
     </g>
     <g id="text_28">
      <!-- 20 -->
      <g transform="translate(841.098529 1031.980279) scale(0.1 -0.1)">
       <use xlink:href="#DejaVuSans-32"/>
       <use xlink:href="#DejaVuSans-30" x="63.623047"/>
      </g>
     </g>
    </g>
    <g id="ytick_12">
     <g id="line2d_30">
      <g>
       <use xlink:href="#m48cf2b1f53" x="860.823529" y="825.16212" style="stroke: #000000; stroke-width: 0.8"/>
      </g>
     </g>
     <g id="text_29">
      <!-- 40 -->
      <g transform="translate(841.098529 828.961339) scale(0.1 -0.1)">
       <use xlink:href="#DejaVuSans-34"/>
       <use xlink:href="#DejaVuSans-30" x="63.623047"/>
      </g>
     </g>
    </g>
    <g id="ytick_13">
     <g id="line2d_31">
      <g>
       <use xlink:href="#m48cf2b1f53" x="860.823529" y="622.14318" style="stroke: #000000; stroke-width: 0.8"/>
      </g>
     </g>
     <g id="text_30">
      <!-- 60 -->
      <g transform="translate(841.098529 625.942398) scale(0.1 -0.1)">
       <use xlink:href="#DejaVuSans-36"/>
       <use xlink:href="#DejaVuSans-30" x="63.623047"/>
      </g>
     </g>
    </g>
    <g id="ytick_14">
     <g id="line2d_32">
      <g>
       <use xlink:href="#m48cf2b1f53" x="860.823529" y="419.12424" style="stroke: #000000; stroke-width: 0.8"/>
      </g>
     </g>
     <g id="text_31">
      <!-- 80 -->
      <g transform="translate(841.098529 422.923458) scale(0.1 -0.1)">
       <use xlink:href="#DejaVuSans-38"/>
       <use xlink:href="#DejaVuSans-30" x="63.623047"/>
      </g>
     </g>
    </g>
    <g id="ytick_15">
     <g id="line2d_33">
      <g>
       <use xlink:href="#m48cf2b1f53" x="860.823529" y="216.105299" style="stroke: #000000; stroke-width: 0.8"/>
      </g>
     </g>
     <g id="text_32">
      <!-- 100 -->
      <g transform="translate(834.736029 219.904518) scale(0.1 -0.1)">
       <use xlink:href="#DejaVuSans-31"/>
       <use xlink:href="#DejaVuSans-30" x="63.623047"/>
       <use xlink:href="#DejaVuSans-30" x="127.246094"/>
      </g>
     </g>
    </g>
   </g>
   <g id="line2d_34">
    <path d="M 883.203209 1231.2 
L 898.63747 1231.124952 
L 898.972997 1227.035344 
L 899.97958 1227.035344 
L 900.315107 1228.638164 
L 901.321689 1228.638164 
L 901.657217 1227.684967 
L 902.663799 1227.684967 
L 902.999327 1229.564073 
L 904.005909 1229.564073 
L 904.341436 1221.121658 
L 905.348019 1221.121658 
L 905.683546 1208.3242 
L 906.690128 1208.3242 
L 907.025656 1201.957734 
L 908.032238 1201.957734 
L 908.367765 1185.187895 
L 909.374348 1185.187895 
L 909.709875 1169.732479 
L 916.084896 1169.732479 
L 916.420423 1163.024583 
L 920.111225 1163.024583 
L 920.446753 1155.870492 
L 924.137554 1155.870492 
L 924.473082 1146.123166 
L 925.479664 1146.123166 
L 925.815191 1143.386195 
L 926.821774 1143.386195 
L 927.157301 1140.374484 
L 929.505993 1140.374484 
L 929.84152 1121.887721 
L 930.848103 1121.887721 
L 931.18363 1092.81574 
L 932.190212 1092.81574 
L 932.52574 1085.07124 
L 933.532322 1085.07124 
L 933.867849 1070.157943 
L 934.874432 1070.157943 
L 935.209959 1034.056737 
L 936.216541 1034.056737 
L 936.552069 1008.930241 
L 950.979748 1008.930241 
L 951.315276 1001.521476 
L 955.006077 1001.521476 
L 955.341605 994.22159 
L 956.348187 994.22159 
L 956.683714 986.845382 
L 957.690297 986.845382 
L 958.025824 979.394807 
L 960.374516 979.394807 
L 960.710043 976.765106 
L 965.742955 976.765106 
L 966.078482 974.064733 
L 967.085064 974.064733 
L 967.420592 956.13906 
L 968.427174 956.13906 
L 968.762702 942.449533 
L 969.769284 942.449533 
L 970.104811 912.110757 
L 971.111394 912.110757 
L 971.446921 885.420983 
L 972.453503 885.420983 
L 972.789031 864.384308 
L 973.795613 864.384308 
L 974.13114 838.515262 
L 975.137723 838.515262 
L 975.47325 807.096059 
L 976.479832 807.096059 
L 976.81536 793.044555 
L 977.821942 793.044555 
L 978.157469 773.584079 
L 981.848271 773.584079 
L 982.183798 769.190696 
L 983.190381 769.190696 
L 983.525908 760.106134 
L 984.53249 760.106134 
L 984.868018 766.375534 
L 985.8746 766.375534 
L 986.210128 769.35748 
L 987.21671 769.35748 
L 987.552237 775.551937 
L 988.55882 775.551937 
L 988.894347 778.749369 
L 989.900929 778.749369 
L 990.236457 781.654826 
L 991.243039 781.654826 
L 991.578566 772.703792 
L 993.927258 772.703792 
L 994.262786 766.616896 
L 995.269368 766.616896 
L 995.604895 763.812606 
L 996.611478 763.812606 
L 996.947005 755.018837 
L 997.953587 755.018837 
L 998.289115 737.672237 
L 999.295697 737.672237 
L 999.631224 729.366792 
L 1000.637807 729.366792 
L 1000.973334 722.146306 
L 1001.979916 722.146306 
L 1002.315444 717.471834 
L 1003.322026 717.471834 
L 1003.657554 709.794059 
L 1004.664136 709.794059 
L 1004.999663 717.396007 
L 1006.006246 717.396007 
L 1006.341773 734.42616 
L 1007.348355 734.42616 
L 1007.683883 729.088173 
L 1008.690465 729.088173 
L 1009.025992 714.442657 
L 1010.032575 714.442657 
L 1010.368102 702.016404 
L 1011.374684 702.016404 
L 1011.710212 703.810843 
L 1012.716794 703.810843 
L 1013.052321 692.009392 
L 1014.058904 692.009392 
L 1014.394431 681.868071 
L 1015.401013 681.868071 
L 1015.736541 680.224288 
L 1018.085233 680.164184 
L 1018.42076 681.75997 
L 1019.427342 681.75997 
L 1019.76287 678.637321 
L 1020.769452 678.637321 
L 1021.10498 668.889681 
L 1022.111562 668.889681 
L 1022.447089 670.353434 
L 1023.453672 670.353434 
L 1023.789199 667.03715 
L 1024.795781 667.03715 
L 1025.131309 657.539492 
L 1026.137891 657.539492 
L 1026.473418 651.438547 
L 1027.480001 651.438547 
L 1027.815528 645.386728 
L 1028.82211 645.386728 
L 1029.157638 642.091466 
L 1030.16422 642.091466 
L 1030.499747 640.135032 
L 1032.848439 640.135032 
L 1033.183967 651.967734 
L 1034.190549 651.967734 
L 1034.526077 657.795882 
L 1035.532659 657.795882 
L 1035.868186 655.722366 
L 1036.874768 655.722366 
L 1037.210296 660.171887 
L 1038.216878 660.171887 
L 1038.552406 661.274201 
L 1039.558988 661.274201 
L 1039.894515 673.336774 
L 1040.901098 673.336774 
L 1041.236625 675.639837 
L 1042.243207 675.639837 
L 1042.578735 685.278023 
L 1043.585317 685.278023 
L 1043.920844 684.807904 
L 1044.927427 684.807904 
L 1045.262954 675.418688 
L 1046.269536 675.418688 
L 1046.605064 669.409666 
L 1047.611646 669.409666 
L 1047.947173 668.521286 
L 1048.953756 668.521286 
L 1049.289283 663.48315 
L 1050.295865 663.48315 
L 1050.631393 655.175102 
L 1051.637975 655.175102 
L 1051.973503 658.502829 
L 1052.980085 658.502829 
L 1053.315612 661.825027 
L 1054.322195 661.825027 
L 1054.657722 661.033877 
L 1055.664304 661.033877 
L 1055.999832 657.700565 
L 1057.006414 657.700565 
L 1057.341941 648.757974 
L 1058.348524 648.757974 
L 1058.684051 643.209293 
L 1061.032743 643.209293 
L 1061.36827 638.458792 
L 1062.374853 638.458792 
L 1062.71038 643.837158 
L 1063.716962 643.837158 
L 1064.05249 653.078103 
L 1065.059072 653.078103 
L 1065.394599 655.812265 
L 1066.401182 655.812265 
L 1066.736709 655.259021 
L 1067.743291 655.259021 
L 1068.078819 654.184041 
L 1069.085401 654.184041 
L 1069.420929 656.51406 
L 1070.427511 656.51406 
L 1070.763038 647.983764 
L 1071.769621 647.983764 
L 1072.105148 627.041066 
L 1073.11173 627.041066 
L 1073.447258 614.69576 
L 1074.45384 614.69576 
L 1074.789367 598.460502 
L 1075.79595 598.460502 
L 1076.131477 582.120093 
L 1077.138059 582.120093 
L 1077.473587 566.642733 
L 1078.480169 566.642733 
L 1078.815696 558.559964 
L 1079.822279 558.559964 
L 1080.157806 547.244096 
L 1081.164388 547.244096 
L 1081.499916 531.994805 
L 1082.506498 531.994805 
L 1082.842026 524.463086 
L 1083.848608 524.463086 
L 1084.184135 513.28587 
L 1085.190717 513.28587 
L 1085.526245 517.157676 
L 1086.532827 517.157676 
L 1086.868355 510.489363 
L 1087.874937 510.489363 
L 1088.210464 521.263526 
L 1089.217047 521.263526 
L 1089.552574 521.567304 
L 1090.559156 521.567304 
L 1090.894684 521.818781 
L 1091.901266 521.818781 
L 1092.236793 518.601957 
L 1093.243376 518.601957 
L 1093.91443 518.713604 
L 1094.585485 518.713604 
L 1094.921013 518.917457 
L 1095.927595 518.917457 
L 1096.263122 529.396771 
L 1097.269705 529.396771 
L 1097.605232 536.212329 
L 1098.611814 536.212329 
L 1098.947342 539.546554 
L 1099.953924 539.546554 
L 1100.289452 536.206847 
L 1101.296034 536.206847 
L 1101.631561 532.732505 
L 1102.638143 532.732505 
L 1102.973671 525.932477 
L 1103.980253 525.932477 
L 1104.315781 519.210108 
L 1106.664473 519.196618 
L 1107 522.579683 
L 1108.006582 522.579683 
L 1108.34211 519.310445 
L 1109.348692 519.310445 
L 1109.684219 516.060535 
L 1110.690802 516.060535 
L 1111.026329 516.17854 
L 1112.032911 516.17854 
L 1112.368439 529.406076 
L 1113.375021 529.406076 
L 1113.710548 532.805373 
L 1114.717131 532.805373 
L 1115.052658 523.687646 
L 1116.05924 523.687646 
L 1116.394768 527.138573 
L 1117.40135 527.138573 
L 1117.736878 530.86011 
L 1118.74346 530.86011 
L 1119.078987 527.669392 
L 1120.08557 527.669392 
L 1120.421097 527.965438 
L 1121.427679 527.965438 
L 1121.763207 532.140951 
L 1122.769789 532.140951 
L 1123.105316 533.280491 
L 1125.454008 533.282665 
L 1125.789536 523.919385 
L 1126.796118 523.919385 
L 1127.131645 517.701101 
L 1128.138228 517.701101 
L 1128.473755 514.595054 
L 1129.480337 514.595054 
L 1129.815865 508.393464 
L 1130.822447 508.393464 
L 1131.157974 505.297907 
L 1132.164557 505.297907 
L 1132.500084 502.20436 
L 1133.506666 502.20436 
L 1133.842194 496.023173 
L 1134.848776 496.023173 
L 1135.184304 489.849667 
L 1136.190886 489.849667 
L 1136.526413 483.683629 
L 1137.532996 483.683629 
L 1137.868523 480.603371 
L 1138.875105 480.603371 
L 1139.210633 471.390346 
L 1140.217215 471.390346 
L 1140.552742 465.268186 
L 1141.559325 465.268186 
L 1141.894852 462.209737 
L 1144.243544 462.209737 
L 1144.579071 459.15302 
L 1145.585654 459.15302 
L 1145.921181 450.003103 
L 1146.927763 450.003103 
L 1147.263291 440.886532 
L 1148.269873 440.886532 
L 1148.605401 431.806872 
L 1149.611983 431.806872 
L 1149.94751 425.772568 
L 1150.954092 425.772568 
L 1151.28962 416.750969 
L 1152.296202 416.750969 
L 1152.63173 427.165754 
L 1153.638312 427.165754 
L 1153.973839 435.332638 
L 1154.980422 435.332638 
L 1155.315949 437.618304 
L 1156.322531 437.618304 
L 1156.658059 439.975964 
L 1157.664641 439.975964 
L 1158.000168 447.461159 
L 1160.34886 447.478653 
L 1160.684388 445.153211 
L 1161.69097 445.153211 
L 1162.026497 448.925448 
L 1163.03308 448.925448 
L 1163.368607 445.915987 
L 1164.375189 445.915987 
L 1164.710717 447.819732 
L 1165.717299 447.819732 
L 1166.052827 436.4049 
L 1167.059409 436.4049 
L 1167.394936 425.034534 
L 1168.401518 425.034534 
L 1168.737046 413.705026 
L 1169.743628 413.705026 
L 1170.079156 405.246571 
L 1171.085738 405.246571 
L 1171.421265 396.820637 
L 1172.427848 396.820637 
L 1172.763375 391.216911 
L 1173.769957 391.216911 
L 1174.105485 382.833603 
L 1175.112067 382.833603 
L 1175.447594 380.045275 
L 1176.454177 380.045275 
L 1176.789704 374.478935 
L 1177.796286 374.478935 
L 1178.131814 368.926281 
L 1179.138396 368.926281 
L 1179.473923 370.06061 
L 1180.480506 370.06061 
L 1180.816033 379.512512 
L 1183.164725 379.509324 
L 1183.500253 377.920176 
L 1185.848945 377.920176 
L 1186.184472 373.582076 
L 1189.875274 373.582076 
L 1190.210801 376.335479 
L 1193.901603 376.335479 
L 1194.23713 373.585164 
L 1196.585822 373.585164 
L 1196.921349 374.783857 
L 1197.927932 374.783857 
L 1198.263459 378.736964 
L 1199.270041 378.736964 
L 1199.605569 377.233213 
L 1200.612151 377.233213 
L 1200.947679 383.931779 
L 1201.954261 383.931779 
L 1202.289788 390.414908 
L 1203.296371 390.414908 
L 1203.631898 394.400731 
L 1204.63848 394.400731 
L 1204.974008 398.38659 
L 1205.98059 398.38659 
L 1206.316117 395.675887 
L 1207.3227 395.675887 
L 1207.658227 390.259747 
L 1208.664809 390.259747 
L 1209.000337 384.855031 
L 1210.006919 384.855031 
L 1210.342446 376.762684 
L 1211.349029 376.762684 
L 1211.684556 374.069813 
L 1212.691138 374.069813 
L 1213.026666 371.379746 
L 1214.033248 371.379746 
L 1214.368776 368.69238 
L 1215.375358 368.69238 
L 1215.710885 366.007683 
L 1218.059577 366.007683 
L 1218.395105 360.644754 
L 1219.401687 360.644754 
L 1219.737214 357.966506 
L 1220.743797 357.966506 
L 1221.079324 360.64358 
L 1222.085906 360.64358 
L 1222.421434 362.010271 
L 1223.428016 362.010271 
L 1223.763543 360.71149 
L 1224.770126 360.71149 
L 1225.105653 358.043485 
L 1226.112235 358.043485 
L 1226.447763 360.710343 
L 1227.454345 360.710343 
L 1227.789872 358.046033 
L 1228.796455 358.046033 
L 1229.131982 355.384419 
L 1230.138564 355.384419 
L 1230.474092 347.414877 
L 1231.480674 347.414877 
L 1231.816202 348.829487 
L 1232.822784 348.829487 
L 1233.158311 340.892193 
L 1234.164893 340.892193 
L 1234.500421 330.339264 
L 1235.507003 330.339264 
L 1235.842531 327.707042 
L 1236.849113 327.707042 
L 1237.18464 322.449999 
L 1238.191223 322.449999 
L 1238.52675 314.575669 
L 1239.533332 314.575669 
L 1239.86886 309.337108 
L 1240.875442 309.337108 
L 1241.210969 304.105224 
L 1242.217552 304.105224 
L 1242.553079 293.66814 
L 1243.559661 293.66814 
L 1243.895189 285.86218 
L 1244.901771 285.86218 
L 1245.237298 280.665553 
L 1246.243881 280.665553 
L 1246.579408 276.999079 
L 1247.58599 276.999079 
L 1247.921518 275.936501 
L 1248.9281 275.936501 
L 1249.263628 280.061955 
L 1250.27021 280.061955 
L 1250.605737 277.978108 
L 1251.61232 277.978108 
L 1251.947847 274.364426 
L 1252.954429 274.364426 
L 1253.289957 278.498597 
L 1255.638649 278.498597 
L 1255.974176 277.485478 
L 1256.980758 277.485478 
L 1257.316286 276.477805 
L 1258.322868 276.477805 
L 1258.658395 273.903975 
L 1259.664978 273.903975 
L 1260.000505 271.332155 
L 1263.691307 271.332155 
L 1264.026834 273.901786 
L 1265.033416 273.901786 
L 1265.368944 272.918692 
L 1266.375526 272.918692 
L 1266.711054 271.941887 
L 1267.717636 271.941887 
L 1268.053163 269.378167 
L 1269.059746 269.378167 
L 1269.395273 266.816398 
L 1271.743965 266.816398 
L 1272.079492 269.376024 
L 1273.086075 269.376024 
L 1273.421602 264.260939 
L 1274.428184 264.260939 
L 1274.763712 261.705474 
L 1275.770294 261.705474 
L 1276.105821 256.597561 
L 1278.454513 256.597561 
L 1278.790041 254.046191 
L 1279.796623 254.046191 
L 1280.132151 248.948265 
L 1281.138733 248.948265 
L 1281.47426 246.401701 
L 1282.480842 246.401701 
L 1282.81637 243.857179 
L 1283.822952 243.857179 
L 1284.15848 241.314541 
L 1285.165062 241.314541 
L 1285.500589 236.235016 
L 1286.507172 236.235016 
L 1286.842699 237.87403 
L 1287.849281 237.87403 
L 1288.184809 238.640238 
L 1289.191391 238.640238 
L 1289.526918 237.76155 
L 1290.533501 237.76155 
L 1290.869028 235.232156 
L 1291.87561 235.232156 
L 1292.211138 241.945157 
L 1293.21772 241.945157 
L 1293.553247 244.468731 
L 1294.55983 244.468731 
L 1294.895357 246.145229 
L 1295.901939 246.145229 
L 1296.237467 244.465304 
L 1297.244049 244.465304 
L 1297.579577 251.18259 
L 1298.586159 251.18259 
L 1298.921686 250.353021 
L 1301.270378 250.353021 
L 1301.605906 247.018684 
L 1306.638817 247.018684 
L 1306.974344 249.528717 
L 1309.323036 249.528717 
L 1309.658564 247.020396 
L 1310.665146 247.020396 
L 1311.000673 244.51377 
L 1312.007256 244.51377 
L 1312.342783 243.715589 
L 1313.349365 243.715589 
L 1313.684893 240.423064 
L 1314.691475 240.423064 
L 1315.027003 239.643767 
L 1316.033585 239.643767 
L 1316.369112 242.140588 
L 1317.375695 242.140588 
L 1317.711222 239.645416 
L 1318.717804 239.645416 
L 1319.053332 241.373535 
L 1320.059914 241.373535 
L 1320.395441 235.632807 
L 1321.402024 235.632807 
L 1321.737551 233.143433 
L 1322.744133 233.143433 
L 1323.079661 230.655657 
L 1324.086243 230.655657 
L 1324.42177 228.168781 
L 1325.428353 228.168781 
L 1325.76388 225.683495 
L 1326.770462 225.683495 
L 1327.10599 223.2 
L 1329.454682 223.2 
L 1329.790209 227.434743 
L 1330.796791 227.434743 
L 1330.796791 227.434743 
" clip-path="url(#p6239814313)" style="fill: none; stroke: #0000ff; stroke-width: 1.5; stroke-linecap: square"/>
   </g>
   <g id="patch_9">
    <path d="M 860.823529 1281.6 
L 860.823529 172.8 
" style="fill: none; stroke: #000000; stroke-width: 0.8; stroke-linejoin: miter; stroke-linecap: square"/>
   </g>
   <g id="patch_10">
    <path d="M 1353.176471 1281.6 
L 1353.176471 172.8 
" style="fill: none; stroke: #000000; stroke-width: 0.8; stroke-linejoin: miter; stroke-linecap: square"/>
   </g>
   <g id="patch_11">
    <path d="M 860.823529 1281.6 
L 1353.176471 1281.6 
" style="fill: none; stroke: #000000; stroke-width: 0.8; stroke-linejoin: miter; stroke-linecap: square"/>
   </g>
   <g id="patch_12">
    <path d="M 860.823529 172.8 
L 1353.176471 172.8 
" style="fill: none; stroke: #000000; stroke-width: 0.8; stroke-linejoin: miter; stroke-linecap: square"/>
   </g>
   <g id="legend_2">
    <g id="patch_13">
     <path d="M 1262.134283 195.478125 
L 1346.176471 195.478125 
Q 1348.176471 195.478125 1348.176471 193.478125 
L 1348.176471 179.8 
Q 1348.176471 177.8 1346.176471 177.8 
L 1262.134283 177.8 
Q 1260.134283 177.8 1260.134283 179.8 
L 1260.134283 193.478125 
Q 1260.134283 195.478125 1262.134283 195.478125 
z
" style="fill: #ffffff; opacity: 0.8; stroke: #cccccc; stroke-linejoin: miter"/>
    </g>
    <g id="line2d_35">
     <path d="M 1264.134283 185.898437 
L 1274.134283 185.898437 
L 1284.134283 185.898437 
" style="fill: none; stroke: #0000ff; stroke-width: 1.5; stroke-linecap: square"/>
    </g>
    <g id="text_33">
     <!-- O2 reward -->
     <g transform="translate(1292.134283 189.398437) scale(0.1 -0.1)">
      <use xlink:href="#DejaVuSans-4f"/>
      <use xlink:href="#DejaVuSans-32" x="78.710938"/>
      <use xlink:href="#DejaVuSans-20" x="142.333984"/>
      <use xlink:href="#DejaVuSans-72" x="174.121094"/>
      <use xlink:href="#DejaVuSans-65" x="212.984375"/>
      <use xlink:href="#DejaVuSans-77" x="274.507812"/>
      <use xlink:href="#DejaVuSans-61" x="356.294922"/>
      <use xlink:href="#DejaVuSans-72" x="417.574219"/>
      <use xlink:href="#DejaVuSans-64" x="456.9375"/>
     </g>
    </g>
   </g>
  </g>
  <g id="axes_3">
   <g id="patch_14">
    <path d="M 1451.647059 1281.6 
L 1944 1281.6 
L 1944 172.8 
L 1451.647059 172.8 
z
" style="fill: #ffffff"/>
   </g>
   <g id="matplotlib.axis_5">
    <g id="xtick_17">
     <g id="line2d_36">
      <g>
       <use xlink:href="#m66ef6d5cb5" x="1473.691211" y="1281.6" style="stroke: #000000; stroke-width: 0.8"/>
      </g>
     </g>
     <g id="text_34">
      <!-- 0 -->
      <g transform="translate(1470.509961 1296.198437) scale(0.1 -0.1)">
       <use xlink:href="#DejaVuSans-30"/>
      </g>
     </g>
    </g>
    <g id="xtick_18">
     <g id="line2d_37">
      <g>
       <use xlink:href="#m66ef6d5cb5" x="1540.796695" y="1281.6" style="stroke: #000000; stroke-width: 0.8"/>
      </g>
     </g>
     <g id="text_35">
      <!-- 200 -->
      <g transform="translate(1531.252945 1296.198437) scale(0.1 -0.1)">
       <use xlink:href="#DejaVuSans-32"/>
       <use xlink:href="#DejaVuSans-30" x="63.623047"/>
       <use xlink:href="#DejaVuSans-30" x="127.246094"/>
      </g>
     </g>
    </g>
    <g id="xtick_19">
     <g id="line2d_38">
      <g>
       <use xlink:href="#m66ef6d5cb5" x="1607.90218" y="1281.6" style="stroke: #000000; stroke-width: 0.8"/>
      </g>
     </g>
     <g id="text_36">
      <!-- 400 -->
      <g transform="translate(1598.35843 1296.198437) scale(0.1 -0.1)">
       <use xlink:href="#DejaVuSans-34"/>
       <use xlink:href="#DejaVuSans-30" x="63.623047"/>
       <use xlink:href="#DejaVuSans-30" x="127.246094"/>
      </g>
     </g>
    </g>
    <g id="xtick_20">
     <g id="line2d_39">
      <g>
       <use xlink:href="#m66ef6d5cb5" x="1675.007665" y="1281.6" style="stroke: #000000; stroke-width: 0.8"/>
      </g>
     </g>
     <g id="text_37">
      <!-- 600 -->
      <g transform="translate(1665.463915 1296.198437) scale(0.1 -0.1)">
       <use xlink:href="#DejaVuSans-36"/>
       <use xlink:href="#DejaVuSans-30" x="63.623047"/>
       <use xlink:href="#DejaVuSans-30" x="127.246094"/>
      </g>
     </g>
    </g>
    <g id="xtick_21">
     <g id="line2d_40">
      <g>
       <use xlink:href="#m66ef6d5cb5" x="1742.113149" y="1281.6" style="stroke: #000000; stroke-width: 0.8"/>
      </g>
     </g>
     <g id="text_38">
      <!-- 800 -->
      <g transform="translate(1732.569399 1296.198437) scale(0.1 -0.1)">
       <use xlink:href="#DejaVuSans-38"/>
       <use xlink:href="#DejaVuSans-30" x="63.623047"/>
       <use xlink:href="#DejaVuSans-30" x="127.246094"/>
      </g>
     </g>
    </g>
    <g id="xtick_22">
     <g id="line2d_41">
      <g>
       <use xlink:href="#m66ef6d5cb5" x="1809.218634" y="1281.6" style="stroke: #000000; stroke-width: 0.8"/>
      </g>
     </g>
     <g id="text_39">
      <!-- 1000 -->
      <g transform="translate(1796.493634 1296.198437) scale(0.1 -0.1)">
       <use xlink:href="#DejaVuSans-31"/>
       <use xlink:href="#DejaVuSans-30" x="63.623047"/>
       <use xlink:href="#DejaVuSans-30" x="127.246094"/>
       <use xlink:href="#DejaVuSans-30" x="190.869141"/>
      </g>
     </g>
    </g>
    <g id="xtick_23">
     <g id="line2d_42">
      <g>
       <use xlink:href="#m66ef6d5cb5" x="1876.324119" y="1281.6" style="stroke: #000000; stroke-width: 0.8"/>
      </g>
     </g>
     <g id="text_40">
      <!-- 1200 -->
      <g transform="translate(1863.599119 1296.198437) scale(0.1 -0.1)">
       <use xlink:href="#DejaVuSans-31"/>
       <use xlink:href="#DejaVuSans-32" x="63.623047"/>
       <use xlink:href="#DejaVuSans-30" x="127.246094"/>
       <use xlink:href="#DejaVuSans-30" x="190.869141"/>
      </g>
     </g>
    </g>
    <g id="xtick_24">
     <g id="line2d_43">
      <g>
       <use xlink:href="#m66ef6d5cb5" x="1943.429603" y="1281.6" style="stroke: #000000; stroke-width: 0.8"/>
      </g>
     </g>
     <g id="text_41">
      <!-- 1400 -->
      <g transform="translate(1930.704603 1296.198437) scale(0.1 -0.1)">
       <use xlink:href="#DejaVuSans-31"/>
       <use xlink:href="#DejaVuSans-34" x="63.623047"/>
       <use xlink:href="#DejaVuSans-30" x="127.246094"/>
       <use xlink:href="#DejaVuSans-30" x="190.869141"/>
      </g>
     </g>
    </g>
   </g>
   <g id="matplotlib.axis_6">
    <g id="ytick_16">
     <g id="line2d_44">
      <g>
       <use xlink:href="#m48cf2b1f53" x="1451.647059" y="1231.2" style="stroke: #000000; stroke-width: 0.8"/>
      </g>
     </g>
     <g id="text_42">
      <!-- 0 -->
      <g transform="translate(1438.284559 1234.999219) scale(0.1 -0.1)">
       <use xlink:href="#DejaVuSans-30"/>
      </g>
     </g>
    </g>
    <g id="ytick_17">
     <g id="line2d_45">
      <g>
       <use xlink:href="#m48cf2b1f53" x="1451.647059" y="985.255278" style="stroke: #000000; stroke-width: 0.8"/>
      </g>
     </g>
     <g id="text_43">
      <!-- 5 -->
      <g transform="translate(1438.284559 989.054496) scale(0.1 -0.1)">
       <use xlink:href="#DejaVuSans-35"/>
      </g>
     </g>
    </g>
    <g id="ytick_18">
     <g id="line2d_46">
      <g>
       <use xlink:href="#m48cf2b1f53" x="1451.647059" y="739.310555" style="stroke: #000000; stroke-width: 0.8"/>
      </g>
     </g>
     <g id="text_44">
      <!-- 10 -->
      <g transform="translate(1431.922059 743.109774) scale(0.1 -0.1)">
       <use xlink:href="#DejaVuSans-31"/>
       <use xlink:href="#DejaVuSans-30" x="63.623047"/>
      </g>
     </g>
    </g>
    <g id="ytick_19">
     <g id="line2d_47">
      <g>
       <use xlink:href="#m48cf2b1f53" x="1451.647059" y="493.365833" style="stroke: #000000; stroke-width: 0.8"/>
      </g>
     </g>
     <g id="text_45">
      <!-- 15 -->
      <g transform="translate(1431.922059 497.165051) scale(0.1 -0.1)">
       <use xlink:href="#DejaVuSans-31"/>
       <use xlink:href="#DejaVuSans-35" x="63.623047"/>
      </g>
     </g>
    </g>
    <g id="ytick_20">
     <g id="line2d_48">
      <g>
       <use xlink:href="#m48cf2b1f53" x="1451.647059" y="247.42111" style="stroke: #000000; stroke-width: 0.8"/>
      </g>
     </g>
     <g id="text_46">
      <!-- 20 -->
      <g transform="translate(1431.922059 251.220329) scale(0.1 -0.1)">
       <use xlink:href="#DejaVuSans-32"/>
       <use xlink:href="#DejaVuSans-30" x="63.623047"/>
      </g>
     </g>
    </g>
   </g>
   <g id="line2d_49">
    <path d="M 1474.026738 1231.2 
L 1488.11889 1231.2 
L 1488.454417 1212.016175 
L 1489.460999 1212.016175 
L 1489.796527 1196.686922 
L 1490.803109 1196.686922 
L 1491.138637 1183.647947 
L 1492.145219 1183.647947 
L 1492.480746 1164.323719 
L 1493.487329 1164.323719 
L 1493.822856 1157.825526 
L 1494.829438 1157.825526 
L 1495.164966 1132.527172 
L 1496.171548 1132.527172 
L 1496.507075 1139.877358 
L 1497.513658 1139.877358 
L 1497.849185 1125.480069 
L 1498.855767 1125.480069 
L 1499.191295 1111.28458 
L 1500.197877 1111.28458 
L 1500.533404 1101.655089 
L 1501.539987 1101.655089 
L 1501.875514 1085.346241 
L 1502.882096 1085.346241 
L 1503.217624 1070.037296 
L 1504.224206 1070.037296 
L 1504.559734 1060.550741 
L 1506.908425 1060.550741 
L 1507.243953 1056.374842 
L 1508.250535 1056.374842 
L 1508.586063 1047.230744 
L 1509.592645 1047.230744 
L 1509.928172 1042.138329 
L 1512.276864 1042.138329 
L 1512.612392 1038.336776 
L 1513.618974 1038.336776 
L 1513.954501 1030.008489 
L 1516.303193 1030.008489 
L 1516.638721 1026.519744 
L 1517.645303 1026.519744 
L 1517.98083 1011.812389 
L 1518.987413 1011.812389 
L 1519.32294 991.17512 
L 1520.329522 991.17512 
L 1520.66505 976.717412 
L 1521.671632 976.717412 
L 1522.00716 967.096985 
L 1523.013742 967.096985 
L 1523.349269 940.260968 
L 1524.355851 940.260968 
L 1524.691379 926.909452 
L 1525.697961 926.909452 
L 1526.033489 922.718027 
L 1527.040071 922.718027 
L 1527.375598 909.645704 
L 1528.382181 909.645704 
L 1528.717708 900.939476 
L 1529.72429 900.939476 
L 1530.059818 893.510255 
L 1531.0664 893.510255 
L 1531.401927 880.523021 
L 1532.40851 880.523021 
L 1532.744037 875.23089 
L 1533.750619 875.23089 
L 1534.086147 863.399351 
L 1536.434839 863.314605 
L 1536.770366 866.660808 
L 1537.776948 866.660808 
L 1538.112476 868.733698 
L 1539.119058 868.733698 
L 1539.454586 863.879107 
L 1540.461168 863.879107 
L 1540.796695 865.916158 
L 1541.803278 865.916158 
L 1542.138805 863.063935 
L 1543.145387 863.063935 
L 1543.480915 866.266747 
L 1544.487497 866.266747 
L 1544.823024 863.263196 
L 1547.171716 863.263196 
L 1547.507244 860.202343 
L 1548.513826 860.202343 
L 1548.849353 851.16692 
L 1549.855936 851.16692 
L 1550.191463 843.331167 
L 1551.198045 843.331167 
L 1551.533573 848.111678 
L 1552.540155 848.111678 
L 1552.875682 850.025851 
L 1556.566484 850.025851 
L 1556.902012 841.110008 
L 1557.908594 841.110008 
L 1558.244121 824.335915 
L 1559.250704 824.335915 
L 1559.586231 816.20159 
L 1560.592813 816.20159 
L 1560.928341 810.454954 
L 1561.934923 810.454954 
L 1562.27045 806.687704 
L 1563.277033 806.687704 
L 1563.61256 797.691053 
L 1564.619142 797.691053 
L 1564.95467 791.655047 
L 1565.961252 791.655047 
L 1566.296779 786.97052 
L 1567.303362 786.97052 
L 1567.638889 777.381223 
L 1568.645471 777.381223 
L 1568.980999 771.7025 
L 1569.987581 771.7025 
L 1570.323108 763.867934 
L 1571.329691 763.867934 
L 1571.665218 761.716339 
L 1572.6718 761.716339 
L 1573.007328 752.879042 
L 1574.01391 752.879042 
L 1574.349438 745.556589 
L 1575.35602 745.556589 
L 1575.691547 738.363296 
L 1576.69813 738.363296 
L 1577.033657 731.45631 
L 1579.382349 731.45631 
L 1579.717876 726.654532 
L 1580.724459 726.654532 
L 1581.059986 722.485369 
L 1582.066568 722.485369 
L 1582.402096 724.440123 
L 1583.408678 724.440123 
L 1583.744205 720.747713 
L 1584.750788 720.747713 
L 1585.086315 714.331504 
L 1586.092897 714.331504 
L 1586.428425 709.727613 
L 1587.435007 709.727613 
L 1587.770535 705.085323 
L 1588.777117 705.085323 
L 1589.112644 698.941243 
L 1590.119226 698.941243 
L 1590.454754 685.85538 
L 1591.461336 685.85538 
L 1591.796864 684.391428 
L 1592.803446 684.391428 
L 1593.138973 682.343773 
L 1594.145556 682.343773 
L 1594.481083 674.307097 
L 1595.487665 674.307097 
L 1595.823193 668.558696 
L 1596.829775 668.558696 
L 1597.165302 664.596736 
L 1598.171885 664.596736 
L 1598.507412 657.479067 
L 1599.513994 657.479067 
L 1599.849522 649.368701 
L 1600.856104 649.368701 
L 1601.191631 645.055533 
L 1602.198214 645.055533 
L 1602.533741 644.263689 
L 1603.540323 644.263689 
L 1603.875851 641.966224 
L 1604.882433 641.966224 
L 1605.217961 638.87939 
L 1606.224543 638.87939 
L 1606.56007 634.360165 
L 1607.566653 634.360165 
L 1607.90218 632.884306 
L 1608.908762 632.884306 
L 1609.24429 626.515774 
L 1610.250872 626.515774 
L 1610.586399 624.33701 
L 1611.592982 624.33701 
L 1611.928509 621.029844 
L 1612.935091 621.029844 
L 1613.270619 617.739705 
L 1614.277201 617.739705 
L 1614.612728 614.104916 
L 1616.96142 614.104916 
L 1617.296948 611.9484 
L 1618.30353 611.9484 
L 1618.639057 610.869494 
L 1619.64564 610.869494 
L 1619.981167 606.228104 
L 1622.329859 606.228104 
L 1622.665387 607.297303 
L 1623.671969 607.297303 
L 1624.007496 607.658129 
L 1625.014079 607.658129 
L 1625.349606 605.599549 
L 1626.356188 605.599549 
L 1626.691716 598.976408 
L 1627.698298 598.976408 
L 1628.033825 596.310425 
L 1629.040408 596.310425 
L 1629.375935 596.926466 
L 1630.382517 596.926466 
L 1630.718045 590.43855 
L 1631.724627 590.43855 
L 1632.060154 585.147925 
L 1633.066737 585.147925 
L 1633.402264 584.289227 
L 1634.408846 584.289227 
L 1634.744374 581.815111 
L 1635.750956 581.815111 
L 1636.086483 578.300334 
L 1637.093066 578.300334 
L 1637.428593 577.7589 
L 1638.435175 577.7589 
L 1638.770703 574.05941 
L 1639.777285 574.05941 
L 1640.112813 571.171784 
L 1641.119395 571.171784 
L 1641.454922 566.433234 
L 1642.461505 566.433234 
L 1642.797032 563.629008 
L 1643.803614 563.629008 
L 1644.139142 559.886799 
L 1645.145724 559.886799 
L 1645.481251 556.451327 
L 1646.487834 556.451327 
L 1646.823361 553.755829 
L 1647.829943 553.755829 
L 1648.165471 553.299464 
L 1649.172053 553.299464 
L 1649.50758 549.957261 
L 1650.514163 549.957261 
L 1650.84969 545.32533 
L 1651.856272 545.32533 
L 1652.1918 541.278198 
L 1653.198382 541.278198 
L 1653.53391 535.697558 
L 1654.540492 535.697558 
L 1654.876019 530.651634 
L 1655.882601 530.651634 
L 1656.218129 518.759178 
L 1657.224711 518.759178 
L 1657.560239 510.364373 
L 1658.566821 510.364373 
L 1658.902348 504.15436 
L 1659.908931 504.15436 
L 1660.244458 500.264501 
L 1661.25104 500.264501 
L 1661.586568 494.734161 
L 1662.59315 494.734161 
L 1662.928677 490.764944 
L 1663.93526 490.764944 
L 1664.270787 481.550253 
L 1665.277369 481.550253 
L 1665.612897 476.455802 
L 1666.619479 476.455802 
L 1666.955006 471.308271 
L 1667.961589 471.308271 
L 1668.297116 467.187018 
L 1669.303698 467.187018 
L 1669.639226 462.151555 
L 1670.645808 462.151555 
L 1670.981336 457.373175 
L 1671.987918 457.373175 
L 1672.323445 452.083551 
L 1673.330027 452.083551 
L 1673.665555 446.607359 
L 1674.672137 446.607359 
L 1675.007665 444.882158 
L 1676.014247 444.882158 
L 1676.349774 441.701691 
L 1677.356357 441.701691 
L 1677.691884 440.565523 
L 1678.698466 440.565523 
L 1679.033994 439.19872 
L 1680.040576 439.19872 
L 1680.376103 436.944949 
L 1681.382686 436.944949 
L 1681.718213 433.373259 
L 1682.724795 433.373259 
L 1683.060323 432.035029 
L 1684.066905 432.035029 
L 1684.402432 429.828384 
L 1685.409015 429.828384 
L 1685.744542 427.860564 
L 1688.093234 427.860564 
L 1688.428762 427.644221 
L 1689.435344 427.644221 
L 1689.770871 426.113025 
L 1690.777454 426.113025 
L 1691.112981 425.452536 
L 1692.119563 425.452536 
L 1692.455091 423.942891 
L 1693.461673 423.942891 
L 1693.7972 422.871451 
L 1694.803783 422.871451 
L 1695.13931 420.432873 
L 1696.145892 420.432873 
L 1696.48142 416.379129 
L 1697.488002 416.379129 
L 1697.823529 415.521192 
L 1698.830112 415.521192 
L 1699.165639 411.238443 
L 1700.172221 411.238443 
L 1700.507749 408.510143 
L 1701.514331 408.510143 
L 1701.849858 406.814801 
L 1702.856441 406.814801 
L 1703.191968 403.940676 
L 1704.19855 403.940676 
L 1704.534078 399.909902 
L 1705.54066 399.909902 
L 1705.876188 396.761719 
L 1706.88277 396.761719 
L 1707.218297 391.98522 
L 1708.22488 391.98522 
L 1708.560407 390.025621 
L 1709.566989 390.025621 
L 1709.902517 387.922512 
L 1710.909099 387.922512 
L 1711.244626 383.165354 
L 1712.251209 383.165354 
L 1712.586736 382.208903 
L 1713.593318 382.208903 
L 1713.928846 381.118111 
L 1714.935428 381.118111 
L 1715.270955 378.398785 
L 1716.277538 378.398785 
L 1716.613065 376.108045 
L 1717.619647 376.108045 
L 1717.955175 372.709839 
L 1718.961757 372.709839 
L 1719.297285 369.145191 
L 1720.303867 369.145191 
L 1720.639394 367.574324 
L 1721.645976 367.574324 
L 1721.981504 364.944091 
L 1722.988086 364.944091 
L 1723.323614 363.581308 
L 1724.330196 363.581308 
L 1724.665723 364.077435 
L 1725.672306 364.077435 
L 1726.007833 360.199872 
L 1727.014415 360.199872 
L 1727.349943 360.031246 
L 1728.356525 360.031246 
L 1728.692052 358.134305 
L 1731.040744 358.134305 
L 1731.376272 355.965271 
L 1732.382854 355.965271 
L 1732.718381 354.195961 
L 1733.724964 354.195961 
L 1734.060491 351.954418 
L 1735.067073 351.954418 
L 1735.402601 351.183383 
L 1736.409183 351.183383 
L 1736.744711 348.211641 
L 1737.751293 348.211641 
L 1738.08682 346.068238 
L 1739.093402 346.068238 
L 1739.42893 343.850963 
L 1740.435512 343.850963 
L 1740.77104 338.994787 
L 1741.777622 338.994787 
L 1742.113149 335.644739 
L 1744.461841 335.642041 
L 1744.797369 334.678749 
L 1745.803951 334.678749 
L 1746.139478 336.142214 
L 1747.146061 336.142214 
L 1747.481588 333.151719 
L 1748.48817 333.151719 
L 1748.823698 335.126712 
L 1749.83028 335.126712 
L 1750.165807 332.761796 
L 1751.17239 332.761796 
L 1751.507917 332.633876 
L 1752.514499 332.633876 
L 1752.850027 333.274537 
L 1755.198719 333.213143 
L 1755.534246 333.740677 
L 1756.540829 333.740677 
L 1756.876356 330.812689 
L 1757.882938 330.812689 
L 1758.218466 328.922862 
L 1759.225048 328.922862 
L 1759.560575 328.170379 
L 1760.567158 328.170379 
L 1760.902685 326.965968 
L 1761.909267 326.965968 
L 1762.244795 325.846909 
L 1763.251377 325.846909 
L 1763.586904 322.980274 
L 1765.935596 322.980274 
L 1766.271124 321.853766 
L 1767.277706 321.853766 
L 1767.613233 320.067384 
L 1768.619816 320.067384 
L 1768.955343 319.336279 
L 1769.961925 319.336279 
L 1770.297453 318.544228 
L 1771.304035 318.544228 
L 1771.639563 316.789212 
L 1772.646145 316.789212 
L 1772.981672 315.72156 
L 1773.988255 315.72156 
L 1774.323782 314.980407 
L 1775.330364 314.980407 
L 1775.665892 314.260765 
L 1778.014584 314.21041 
L 1778.350111 312.811227 
L 1780.698803 312.76179 
L 1781.03433 310.997733 
L 1782.040913 310.997733 
L 1782.37644 309.949108 
L 1783.383022 309.949108 
L 1783.71855 308.887202 
L 1784.725132 308.887202 
L 1785.06066 308.463936 
L 1786.067242 308.463936 
L 1786.402769 307.07384 
L 1787.409351 307.07384 
L 1787.744879 306.038937 
L 1788.751461 306.038937 
L 1789.086989 306.733461 
L 1790.093571 306.733461 
L 1790.429098 305.748069 
L 1791.435681 305.748069 
L 1791.771208 303.671038 
L 1792.77779 303.671038 
L 1793.113318 302.683189 
L 1794.1199 302.683189 
L 1794.455427 303.369658 
L 1795.46201 303.369658 
L 1795.797537 301.69403 
L 1796.804119 301.69403 
L 1797.139647 300.998813 
L 1799.488339 300.98525 
L 1799.823866 300.296559 
L 1802.172558 300.282457 
L 1802.508086 298.289259 
L 1804.856777 298.27924 
L 1805.192305 296.960577 
L 1806.198887 296.960577 
L 1806.534415 296.294667 
L 1807.540997 296.294667 
L 1807.876524 295.631025 
L 1808.883107 295.631025 
L 1809.218634 294.967933 
L 1810.225216 294.967933 
L 1810.560744 292.665027 
L 1812.909436 292.665027 
L 1813.244963 291.678818 
L 1814.251545 291.678818 
L 1814.587073 291.024668 
L 1816.935765 291.022572 
L 1817.271292 289.392775 
L 1818.277874 289.392775 
L 1818.613402 288.742579 
L 1819.619984 288.742579 
L 1819.955512 288.093771 
L 1820.962094 288.093771 
L 1821.297621 286.798808 
L 1822.304204 286.798808 
L 1822.639731 284.854914 
L 1823.646313 284.854914 
L 1823.981841 283.893836 
L 1824.988423 283.893836 
L 1825.32395 282.599326 
L 1826.330533 282.599326 
L 1826.66606 281.002775 
L 1827.672642 281.002775 
L 1828.00817 279.421036 
L 1829.014752 279.421036 
L 1829.350279 279.094715 
L 1830.356862 279.094715 
L 1830.692389 279.761522 
L 1831.698971 279.761522 
L 1832.034499 278.152609 
L 1834.383191 278.183865 
L 1834.718718 276.584024 
L 1835.7253 276.584024 
L 1836.060828 275.670952 
L 1838.40952 275.670952 
L 1838.745047 273.443347 
L 1839.75163 273.443347 
L 1840.087157 272.484342 
L 1841.093739 272.484342 
L 1841.429267 270.907681 
L 1842.435849 270.907681 
L 1842.771376 269.95262 
L 1843.777959 269.95262 
L 1844.113486 269.01198 
L 1845.120068 269.01198 
L 1845.455596 266.198298 
L 1846.462178 266.198298 
L 1846.797705 264.623572 
L 1847.804288 264.623572 
L 1848.139815 263.675523 
L 1849.146397 263.675523 
L 1849.481925 262.743737 
L 1850.488507 262.743737 
L 1850.824035 262.108061 
L 1851.830617 262.108061 
L 1852.166144 261.45678 
L 1853.172726 261.45678 
L 1853.508254 259.897853 
L 1855.856946 259.880955 
L 1856.192473 258.957577 
L 1859.883275 258.940448 
L 1860.218802 257.999311 
L 1861.225385 257.999311 
L 1861.560912 257.076623 
L 1862.567494 257.076623 
L 1862.903022 255.197609 
L 1863.909604 255.197609 
L 1864.245131 254.566995 
L 1865.251714 254.566995 
L 1865.587241 252.086212 
L 1866.593823 252.086212 
L 1866.929351 250.870439 
L 1867.935933 250.870439 
L 1868.271461 249.033658 
L 1869.278043 249.033658 
L 1869.61357 247.504946 
L 1871.962262 247.504946 
L 1872.29779 246.881065 
L 1873.304372 246.881065 
L 1873.639899 245.978887 
L 1874.646482 245.978887 
L 1874.982009 245.378567 
L 1875.988591 245.378567 
L 1876.324119 243.558078 
L 1878.672811 243.558078 
L 1879.008338 243.154328 
L 1880.01492 243.154328 
L 1880.350448 241.633665 
L 1881.35703 241.633665 
L 1881.692557 242.230896 
L 1882.69914 242.230896 
L 1883.034667 241.310067 
L 1885.383359 241.414767 
L 1885.718887 240.520221 
L 1886.725469 240.520221 
L 1887.060996 240.033895 
L 1889.409688 240.033895 
L 1889.745216 240.628136 
L 1893.436017 240.600368 
L 1893.771545 239.979404 
L 1896.120237 239.979404 
L 1896.455764 239.359478 
L 1897.462346 239.359478 
L 1897.797874 238.471239 
L 1898.804456 238.471239 
L 1899.139983 237.85213 
L 1900.146566 237.85213 
L 1900.482093 236.320011 
L 1901.488675 236.320011 
L 1901.824203 234.526326 
L 1902.830785 234.526326 
L 1903.166313 233.645477 
L 1904.172895 233.645477 
L 1904.508422 232.765261 
L 1905.515005 232.765261 
L 1905.850532 231.097423 
L 1906.857114 231.097423 
L 1907.192642 230.898086 
L 1908.199224 230.898086 
L 1908.534751 228.653158 
L 1909.541334 228.653158 
L 1909.876861 227.033071 
L 1910.883443 227.033071 
L 1911.218971 226.586615 
L 1912.225553 226.586615 
L 1912.56108 227.16921 
L 1913.567663 227.16921 
L 1913.90319 225.562187 
L 1914.909772 225.562187 
L 1915.2453 224.652648 
L 1916.251882 224.652648 
L 1916.58741 224.070964 
L 1917.593992 224.070964 
L 1917.929519 224.215368 
L 1918.936101 224.215368 
L 1919.271629 223.633684 
L 1920.278211 223.633684 
L 1920.613739 223.2 
L 1921.620321 223.2 
L 1921.620321 223.2 
" clip-path="url(#p43f8081fe5)" style="fill: none; stroke: #0000ff; stroke-width: 1.5; stroke-linecap: square"/>
   </g>
   <g id="patch_15">
    <path d="M 1451.647059 1281.6 
L 1451.647059 172.8 
" style="fill: none; stroke: #000000; stroke-width: 0.8; stroke-linejoin: miter; stroke-linecap: square"/>
   </g>
   <g id="patch_16">
    <path d="M 1944 1281.6 
L 1944 172.8 
" style="fill: none; stroke: #000000; stroke-width: 0.8; stroke-linejoin: miter; stroke-linecap: square"/>
   </g>
   <g id="patch_17">
    <path d="M 1451.647059 1281.6 
L 1944 1281.6 
" style="fill: none; stroke: #000000; stroke-width: 0.8; stroke-linejoin: miter; stroke-linecap: square"/>
   </g>
   <g id="patch_18">
    <path d="M 1451.647059 172.8 
L 1944 172.8 
" style="fill: none; stroke: #000000; stroke-width: 0.8; stroke-linejoin: miter; stroke-linecap: square"/>
   </g>
   <g id="legend_3">
    <g id="patch_19">
     <path d="M 1852.957813 195.478125 
L 1937 195.478125 
Q 1939 195.478125 1939 193.478125 
L 1939 179.8 
Q 1939 177.8 1937 177.8 
L 1852.957813 177.8 
Q 1850.957813 177.8 1850.957813 179.8 
L 1850.957813 193.478125 
Q 1850.957813 195.478125 1852.957813 195.478125 
z
" style="fill: #ffffff; opacity: 0.8; stroke: #cccccc; stroke-linejoin: miter"/>
    </g>
    <g id="line2d_50">
     <path d="M 1854.957813 185.898437 
L 1864.957813 185.898437 
L 1874.957813 185.898437 
" style="fill: none; stroke: #0000ff; stroke-width: 1.5; stroke-linecap: square"/>
    </g>
    <g id="text_47">
     <!-- O3 reward -->
     <g transform="translate(1882.957813 189.398437) scale(0.1 -0.1)">
      <defs>
       <path id="DejaVuSans-33" d="M 2597 2516 
Q 3050 2419 3304 2112 
Q 3559 1806 3559 1356 
Q 3559 666 3084 287 
Q 2609 -91 1734 -91 
Q 1441 -91 1130 -33 
Q 819 25 488 141 
L 488 750 
Q 750 597 1062 519 
Q 1375 441 1716 441 
Q 2309 441 2620 675 
Q 2931 909 2931 1356 
Q 2931 1769 2642 2001 
Q 2353 2234 1838 2234 
L 1294 2234 
L 1294 2753 
L 1863 2753 
Q 2328 2753 2575 2939 
Q 2822 3125 2822 3475 
Q 2822 3834 2567 4026 
Q 2313 4219 1838 4219 
Q 1578 4219 1281 4162 
Q 984 4106 628 3988 
L 628 4550 
Q 988 4650 1302 4700 
Q 1616 4750 1894 4750 
Q 2613 4750 3031 4423 
Q 3450 4097 3450 3541 
Q 3450 3153 3228 2886 
Q 3006 2619 2597 2516 
z
" transform="scale(0.015625)"/>
      </defs>
      <use xlink:href="#DejaVuSans-4f"/>
      <use xlink:href="#DejaVuSans-33" x="78.710938"/>
      <use xlink:href="#DejaVuSans-20" x="142.333984"/>
      <use xlink:href="#DejaVuSans-72" x="174.121094"/>
      <use xlink:href="#DejaVuSans-65" x="212.984375"/>
      <use xlink:href="#DejaVuSans-77" x="274.507812"/>
      <use xlink:href="#DejaVuSans-61" x="356.294922"/>
      <use xlink:href="#DejaVuSans-72" x="417.574219"/>
      <use xlink:href="#DejaVuSans-64" x="456.9375"/>
     </g>
    </g>
   </g>
  </g>
 </g>
 <defs>
  <clipPath id="p13dba3fd7d">
   <rect x="270" y="172.8" width="492.352941" height="1108.8"/>
  </clipPath>
  <clipPath id="p6239814313">
   <rect x="860.823529" y="172.8" width="492.352941" height="1108.8"/>
  </clipPath>
  <clipPath id="p43f8081fe5">
   <rect x="1451.647059" y="172.8" width="492.352941" height="1108.8"/>
  </clipPath>
 </defs>
</svg>
