<?xml version="1.0" encoding="utf-8" standalone="no"?>
<!DOCTYPE svg PUBLIC "-//W3C//DTD SVG 1.1//EN"
  "http://www.w3.org/Graphics/SVG/1.1/DTD/svg11.dtd">
<svg xmlns:xlink="http://www.w3.org/1999/xlink" width="2160pt" height="1440pt" viewBox="0 0 2160 1440" xmlns="http://www.w3.org/2000/svg" version="1.1">
 <metadata>
  <rdf:RDF xmlns:dc="http://purl.org/dc/elements/1.1/" xmlns:cc="http://creativecommons.org/ns#" xmlns:rdf="http://www.w3.org/1999/02/22-rdf-syntax-ns#">
   <cc:Work>
    <dc:type rdf:resource="http://purl.org/dc/dcmitype/StillImage"/>
    <dc:date>2023-05-31T20:05:02.977905</dc:date>
    <dc:format>image/svg+xml</dc:format>
    <dc:creator>
     <cc:Agent>
      <dc:title>Matplotlib v3.7.1, https://matplotlib.org/</dc:title>
     </cc:Agent>
    </dc:creator>
   </cc:Work>
  </rdf:RDF>
 </metadata>
 <defs>
  <style type="text/css">*{stroke-linejoin: round; stroke-linecap: butt}</style>
 </defs>
 <g id="figure_1">
  <g id="patch_1">
   <path d="M 0 1440 
L 2160 1440 
L 2160 0 
L 0 0 
z
" style="fill: #ffffff"/>
  </g>
  <g id="axes_1">
   <g id="patch_2">
    <path d="M 270 1281.6 
L 762.352941 1281.6 
L 762.352941 172.8 
L 270 172.8 
z
" style="fill: #ffffff"/>
   </g>
   <g id="matplotlib.axis_1">
    <g id="xtick_1">
     <g id="line2d_1">
      <defs>
       <path id="md2eeb54bfd" d="M 0 0 
L 0 3.5 
" style="stroke: #000000; stroke-width: 0.8"/>
      </defs>
      <g>
       <use xlink:href="#md2eeb54bfd" x="292.169443" y="1281.6" style="stroke: #000000; stroke-width: 0.8"/>
      </g>
     </g>
     <g id="text_1">
      <!-- 0 -->
      <g transform="translate(288.988193 1296.198437) scale(0.1 -0.1)">
       <defs>
        <path id="DejaVuSans-30" d="M 2034 4250 
Q 1547 4250 1301 3770 
Q 1056 3291 1056 2328 
Q 1056 1369 1301 889 
Q 1547 409 2034 409 
Q 2525 409 2770 889 
Q 3016 1369 3016 2328 
Q 3016 3291 2770 3770 
Q 2525 4250 2034 4250 
z
M 2034 4750 
Q 2819 4750 3233 4129 
Q 3647 3509 3647 2328 
Q 3647 1150 3233 529 
Q 2819 -91 2034 -91 
Q 1250 -91 836 529 
Q 422 1150 422 2328 
Q 422 3509 836 4129 
Q 1250 4750 2034 4750 
z
" transform="scale(0.015625)"/>
       </defs>
       <use xlink:href="#DejaVuSans-30"/>
      </g>
     </g>
    </g>
    <g id="xtick_2">
     <g id="line2d_2">
      <g>
       <use xlink:href="#md2eeb54bfd" x="397.28771" y="1281.6" style="stroke: #000000; stroke-width: 0.8"/>
      </g>
     </g>
     <g id="text_2">
      <!-- 500 -->
      <g transform="translate(387.74396 1296.198437) scale(0.1 -0.1)">
       <defs>
        <path id="DejaVuSans-35" d="M 691 4666 
L 3169 4666 
L 3169 4134 
L 1269 4134 
L 1269 2991 
Q 1406 3038 1543 3061 
Q 1681 3084 1819 3084 
Q 2600 3084 3056 2656 
Q 3513 2228 3513 1497 
Q 3513 744 3044 326 
Q 2575 -91 1722 -91 
Q 1428 -91 1123 -41 
Q 819 9 494 109 
L 494 744 
Q 775 591 1075 516 
Q 1375 441 1709 441 
Q 2250 441 2565 725 
Q 2881 1009 2881 1497 
Q 2881 1984 2565 2268 
Q 2250 2553 1709 2553 
Q 1456 2553 1204 2497 
Q 953 2441 691 2322 
L 691 4666 
z
" transform="scale(0.015625)"/>
       </defs>
       <use xlink:href="#DejaVuSans-35"/>
       <use xlink:href="#DejaVuSans-30" x="63.623047"/>
       <use xlink:href="#DejaVuSans-30" x="127.246094"/>
      </g>
     </g>
    </g>
    <g id="xtick_3">
     <g id="line2d_3">
      <g>
       <use xlink:href="#md2eeb54bfd" x="502.405978" y="1281.6" style="stroke: #000000; stroke-width: 0.8"/>
      </g>
     </g>
     <g id="text_3">
      <!-- 1000 -->
      <g transform="translate(489.680978 1296.198437) scale(0.1 -0.1)">
       <defs>
        <path id="DejaVuSans-31" d="M 794 531 
L 1825 531 
L 1825 4091 
L 703 3866 
L 703 4441 
L 1819 4666 
L 2450 4666 
L 2450 531 
L 3481 531 
L 3481 0 
L 794 0 
L 794 531 
z
" transform="scale(0.015625)"/>
       </defs>
       <use xlink:href="#DejaVuSans-31"/>
       <use xlink:href="#DejaVuSans-30" x="63.623047"/>
       <use xlink:href="#DejaVuSans-30" x="127.246094"/>
       <use xlink:href="#DejaVuSans-30" x="190.869141"/>
      </g>
     </g>
    </g>
    <g id="xtick_4">
     <g id="line2d_4">
      <g>
       <use xlink:href="#md2eeb54bfd" x="607.524245" y="1281.6" style="stroke: #000000; stroke-width: 0.8"/>
      </g>
     </g>
     <g id="text_4">
      <!-- 1500 -->
      <g transform="translate(594.799245 1296.198437) scale(0.1 -0.1)">
       <use xlink:href="#DejaVuSans-31"/>
       <use xlink:href="#DejaVuSans-35" x="63.623047"/>
       <use xlink:href="#DejaVuSans-30" x="127.246094"/>
       <use xlink:href="#DejaVuSans-30" x="190.869141"/>
      </g>
     </g>
    </g>
    <g id="xtick_5">
     <g id="line2d_5">
      <g>
       <use xlink:href="#md2eeb54bfd" x="712.642512" y="1281.6" style="stroke: #000000; stroke-width: 0.8"/>
      </g>
     </g>
     <g id="text_5">
      <!-- 2000 -->
      <g transform="translate(699.917512 1296.198437) scale(0.1 -0.1)">
       <defs>
        <path id="DejaVuSans-32" d="M 1228 531 
L 3431 531 
L 3431 0 
L 469 0 
L 469 531 
Q 828 903 1448 1529 
Q 2069 2156 2228 2338 
Q 2531 2678 2651 2914 
Q 2772 3150 2772 3378 
Q 2772 3750 2511 3984 
Q 2250 4219 1831 4219 
Q 1534 4219 1204 4116 
Q 875 4013 500 3803 
L 500 4441 
Q 881 4594 1212 4672 
Q 1544 4750 1819 4750 
Q 2544 4750 2975 4387 
Q 3406 4025 3406 3419 
Q 3406 3131 3298 2873 
Q 3191 2616 2906 2266 
Q 2828 2175 2409 1742 
Q 1991 1309 1228 531 
z
" transform="scale(0.015625)"/>
       </defs>
       <use xlink:href="#DejaVuSans-32"/>
       <use xlink:href="#DejaVuSans-30" x="63.623047"/>
       <use xlink:href="#DejaVuSans-30" x="127.246094"/>
       <use xlink:href="#DejaVuSans-30" x="190.869141"/>
      </g>
     </g>
    </g>
   </g>
   <g id="matplotlib.axis_2">
    <g id="ytick_1">
     <g id="line2d_6">
      <defs>
       <path id="mce368ba9a5" d="M 0 0 
L -3.5 0 
" style="stroke: #000000; stroke-width: 0.8"/>
      </defs>
      <g>
       <use xlink:href="#mce368ba9a5" x="270" y="1208.782314" style="stroke: #000000; stroke-width: 0.8"/>
      </g>
     </g>
     <g id="text_6">
      <!-- −40 -->
      <g transform="translate(241.895312 1212.581532) scale(0.1 -0.1)">
       <defs>
        <path id="DejaVuSans-2212" d="M 678 2272 
L 4684 2272 
L 4684 1741 
L 678 1741 
L 678 2272 
z
" transform="scale(0.015625)"/>
        <path id="DejaVuSans-34" d="M 2419 4116 
L 825 1625 
L 2419 1625 
L 2419 4116 
z
M 2253 4666 
L 3047 4666 
L 3047 1625 
L 3713 1625 
L 3713 1100 
L 3047 1100 
L 3047 0 
L 2419 0 
L 2419 1100 
L 313 1100 
L 313 1709 
L 2253 4666 
z
" transform="scale(0.015625)"/>
       </defs>
       <use xlink:href="#DejaVuSans-2212"/>
       <use xlink:href="#DejaVuSans-34" x="83.789062"/>
       <use xlink:href="#DejaVuSans-30" x="147.412109"/>
      </g>
     </g>
    </g>
    <g id="ytick_2">
     <g id="line2d_7">
      <g>
       <use xlink:href="#mce368ba9a5" x="270" y="963.612584" style="stroke: #000000; stroke-width: 0.8"/>
      </g>
     </g>
     <g id="text_7">
      <!-- −30 -->
      <g transform="translate(241.895312 967.411803) scale(0.1 -0.1)">
       <defs>
        <path id="DejaVuSans-33" d="M 2597 2516 
Q 3050 2419 3304 2112 
Q 3559 1806 3559 1356 
Q 3559 666 3084 287 
Q 2609 -91 1734 -91 
Q 1441 -91 1130 -33 
Q 819 25 488 141 
L 488 750 
Q 750 597 1062 519 
Q 1375 441 1716 441 
Q 2309 441 2620 675 
Q 2931 909 2931 1356 
Q 2931 1769 2642 2001 
Q 2353 2234 1838 2234 
L 1294 2234 
L 1294 2753 
L 1863 2753 
Q 2328 2753 2575 2939 
Q 2822 3125 2822 3475 
Q 2822 3834 2567 4026 
Q 2313 4219 1838 4219 
Q 1578 4219 1281 4162 
Q 984 4106 628 3988 
L 628 4550 
Q 988 4650 1302 4700 
Q 1616 4750 1894 4750 
Q 2613 4750 3031 4423 
Q 3450 4097 3450 3541 
Q 3450 3153 3228 2886 
Q 3006 2619 2597 2516 
z
" transform="scale(0.015625)"/>
       </defs>
       <use xlink:href="#DejaVuSans-2212"/>
       <use xlink:href="#DejaVuSans-33" x="83.789062"/>
       <use xlink:href="#DejaVuSans-30" x="147.412109"/>
      </g>
     </g>
    </g>
    <g id="ytick_3">
     <g id="line2d_8">
      <g>
       <use xlink:href="#mce368ba9a5" x="270" y="718.442854" style="stroke: #000000; stroke-width: 0.8"/>
      </g>
     </g>
     <g id="text_8">
      <!-- −20 -->
      <g transform="translate(241.895312 722.242073) scale(0.1 -0.1)">
       <use xlink:href="#DejaVuSans-2212"/>
       <use xlink:href="#DejaVuSans-32" x="83.789062"/>
       <use xlink:href="#DejaVuSans-30" x="147.412109"/>
      </g>
     </g>
    </g>
    <g id="ytick_4">
     <g id="line2d_9">
      <g>
       <use xlink:href="#mce368ba9a5" x="270" y="473.273124" style="stroke: #000000; stroke-width: 0.8"/>
      </g>
     </g>
     <g id="text_9">
      <!-- −10 -->
      <g transform="translate(241.895312 477.072343) scale(0.1 -0.1)">
       <use xlink:href="#DejaVuSans-2212"/>
       <use xlink:href="#DejaVuSans-31" x="83.789062"/>
       <use xlink:href="#DejaVuSans-30" x="147.412109"/>
      </g>
     </g>
    </g>
    <g id="ytick_5">
     <g id="line2d_10">
      <g>
       <use xlink:href="#mce368ba9a5" x="270" y="228.103395" style="stroke: #000000; stroke-width: 0.8"/>
      </g>
     </g>
     <g id="text_10">
      <!-- 0 -->
      <g transform="translate(256.6375 231.902613) scale(0.1 -0.1)">
       <use xlink:href="#DejaVuSans-30"/>
      </g>
     </g>
    </g>
   </g>
   <g id="line2d_11">
    <path d="M 292.379679 228.103395 
L 302.891506 228.103395 
L 303.101742 223.2 
L 303.732452 223.2 
L 303.942689 226.46893 
L 304.573398 226.46893 
L 304.783635 232.02611 
L 305.414344 232.02611 
L 305.624581 232.654751 
L 306.25529 232.654751 
L 306.465527 238.88727 
L 307.096237 238.88727 
L 307.306473 241.596245 
L 307.937183 241.596245 
L 308.147419 244.495474 
L 308.778129 244.495474 
L 308.988365 247.041628 
L 309.619075 247.041628 
L 309.829312 250.344201 
L 310.460021 250.344201 
L 310.670258 252.857302 
L 312.141913 252.857302 
L 312.35215 250.776809 
L 313.823806 250.776809 
L 314.034042 253.734727 
L 314.664752 253.734727 
L 314.874988 251.235361 
L 315.505698 251.235361 
L 315.715935 249.219089 
L 317.18759 249.219089 
L 317.397827 249.725432 
L 318.028536 249.725432 
L 318.238773 247.237095 
L 319.710429 247.237095 
L 319.920665 244.758724 
L 320.551375 244.758724 
L 320.761611 242.289844 
L 321.392321 242.289844 
L 321.602558 244.577116 
L 322.233267 244.577116 
L 322.443504 240.862423 
L 323.915159 240.862423 
L 324.125396 237.419783 
L 324.756106 237.419783 
L 324.966342 239.585747 
L 325.597052 239.585747 
L 325.807288 237.419783 
L 326.437998 237.419783 
L 326.648234 240.72848 
L 328.11989 240.72848 
L 328.330127 243.063919 
L 328.960836 243.063919 
L 329.171073 247.132116 
L 329.801782 247.132116 
L 330.012019 246.520701 
L 330.642729 246.520701 
L 330.852965 248.060206 
L 331.483675 248.060206 
L 331.693911 247.472522 
L 332.324621 247.472522 
L 332.534857 246.897947 
L 333.165567 246.897947 
L 333.375803 247.905601 
L 334.006513 247.905601 
L 334.21675 253.675036 
L 334.847459 253.675036 
L 335.057696 251.618697 
L 335.688405 251.618697 
L 335.898642 253.214536 
L 336.529351 253.214536 
L 336.739588 258.909509 
L 337.370298 258.909509 
L 337.580534 260.854582 
L 338.211244 260.854582 
L 338.42148 262.57022 
L 340.734082 262.57022 
L 340.944319 264.472281 
L 341.575028 264.472281 
L 341.785265 268.089981 
L 342.415974 268.089981 
L 342.626211 266.190946 
L 343.256921 266.190946 
L 343.467157 269.814861 
L 344.097867 269.814861 
L 344.308103 273.405447 
L 344.938813 273.405447 
L 345.149049 275.138781 
L 345.779759 275.138781 
L 345.989996 280.61963 
L 346.620705 280.61963 
L 346.830942 284.302516 
L 347.461651 284.302516 
L 347.671888 289.848712 
L 348.302597 289.848712 
L 348.512834 295.301865 
L 349.143544 295.301865 
L 349.35378 298.965266 
L 349.98449 298.965266 
L 350.194726 300.838793 
L 350.825436 300.838793 
L 351.035672 304.502194 
L 351.666382 304.502194 
L 351.876619 302.737466 
L 352.507328 302.737466 
L 352.717565 299.251248 
L 353.348274 299.251248 
L 353.558511 295.805288 
L 354.18922 295.805288 
L 354.399457 294.082308 
L 355.030167 294.082308 
L 355.240403 297.765242 
L 356.712059 297.781718 
L 356.922295 298.09736 
L 357.553005 298.09736 
L 357.763242 303.834186 
L 359.234897 303.832191 
L 359.445134 300.527134 
L 360.075843 300.527134 
L 360.28608 298.876516 
L 360.91679 298.876516 
L 361.127026 295.580732 
L 361.757736 295.580732 
L 361.967972 299.346529 
L 362.598682 299.346529 
L 362.808918 300.993525 
L 364.280574 300.993525 
L 364.490811 302.64052 
L 365.12152 302.64052 
L 365.331757 300.995209 
L 365.962466 300.995209 
L 366.172703 299.86105 
L 366.803413 299.86105 
L 367.013649 296.605824 
L 367.644359 296.605824 
L 367.854595 297.15285 
L 368.485305 297.15285 
L 368.695541 299.927707 
L 369.326251 299.927707 
L 369.536487 300.538495 
L 370.167197 300.538495 
L 370.377434 298.923655 
L 371.849089 298.923655 
L 372.059326 302.75502 
L 372.690035 302.75502 
L 372.900272 301.16268 
L 373.530982 301.16268 
L 373.741218 299.571609 
L 374.371928 299.571609 
L 374.582164 300.236212 
L 375.212874 300.236212 
L 375.42311 300.914366 
L 376.05382 300.914366 
L 376.264057 303.18727 
L 376.894766 303.18727 
L 377.105003 307.056881 
L 377.735712 307.056881 
L 377.945949 313.219666 
L 378.576658 313.219666 
L 378.786895 317.089277 
L 379.417605 317.089277 
L 379.627841 322.533014 
L 380.258551 322.533014 
L 380.468787 328.698125 
L 381.099497 328.698125 
L 381.309733 334.130498 
L 381.940443 334.130498 
L 382.15068 341.890881 
L 382.781389 341.890881 
L 382.991626 348.102166 
L 383.622335 348.102166 
L 383.832572 349.667975 
L 384.463281 349.667975 
L 384.673518 355.894591 
L 385.304228 355.894591 
L 385.514464 356.662173 
L 386.145174 356.662173 
L 386.35541 361.339147 
L 387.827066 361.339147 
L 388.037303 363.677291 
L 389.508958 363.681612 
L 389.719195 366.022454 
L 390.349904 366.022454 
L 390.560141 364.472413 
L 392.031797 364.471536 
L 392.242033 366.82922 
L 392.872743 366.82922 
L 393.082979 370.73311 
L 393.713689 370.73311 
L 393.923926 367.656743 
L 394.554635 367.656743 
L 394.764872 368.504917 
L 395.395581 368.504917 
L 395.605818 365.447469 
L 396.236527 365.447469 
L 396.446764 360.879745 
L 397.077474 360.879745 
L 397.28771 363.277884 
L 397.91842 363.277884 
L 398.128656 358.722899 
L 398.759366 358.722899 
L 398.969602 362.646879 
L 399.600312 362.646879 
L 399.810548 362.022021 
L 402.12315 362.022021 
L 402.333387 360.514913 
L 402.964097 360.514913 
L 403.174333 357.504167 
L 403.805043 357.504167 
L 404.015279 354.495556 
L 404.645989 354.495556 
L 404.856225 348.488638 
L 405.486935 348.488638 
L 405.697171 342.508704 
L 406.327881 342.508704 
L 406.538118 338.036885 
L 407.168827 338.036885 
L 407.379064 333.57609 
L 408.009773 333.57609 
L 408.22001 332.091751 
L 408.85072 332.091751 
L 409.060956 327.646041 
L 409.691666 327.646041 
L 409.901902 324.685638 
L 411.373558 324.686843 
L 411.583794 323.209297 
L 412.214504 323.209297 
L 412.424741 318.781654 
L 413.05545 318.781654 
L 413.265687 322.752243 
L 413.896396 322.752243 
L 414.106633 318.332569 
L 414.737342 318.332569 
L 414.947579 323.340003 
L 415.578289 323.340003 
L 415.788525 332.762105 
L 416.419235 332.762105 
L 416.629471 331.292676 
L 417.260181 331.292676 
L 417.470417 330.864563 
L 418.101127 330.864563 
L 418.311364 324.998518 
L 418.942073 324.998518 
L 419.15231 327.517051 
L 419.783019 327.517051 
L 419.993256 334.019864 
L 420.623965 334.019864 
L 420.834202 340.133665 
L 421.464912 340.133665 
L 421.675148 344.117972 
L 422.305858 344.117972 
L 422.516094 351.015579 
L 423.146804 351.015579 
L 423.35704 357.535002 
L 423.98775 357.535002 
L 424.197987 361.522906 
L 424.828696 361.522906 
L 425.038933 364.060705 
L 425.669642 364.060705 
L 425.879879 364.785776 
L 426.510588 364.785776 
L 426.720825 371.320261 
L 427.351535 371.320261 
L 427.561771 376.762826 
L 428.192481 376.762826 
L 428.402717 377.861072 
L 429.033427 377.861072 
L 429.243663 380.408034 
L 429.874373 380.408034 
L 430.08461 388.057791 
L 430.715319 388.057791 
L 430.925556 394.607906 
L 431.556265 394.607906 
L 431.766502 406.278937 
L 432.397211 406.278937 
L 432.607448 420.528359 
L 433.238158 420.528359 
L 433.448394 425.656357 
L 434.079104 425.656357 
L 434.28934 436.234959 
L 434.92005 436.234959 
L 435.130286 445.072939 
L 435.760996 445.072939 
L 435.971233 443.634533 
L 436.601942 443.634533 
L 436.812179 440.760226 
L 437.442888 440.760226 
L 437.653125 437.887172 
L 439.124781 437.886789 
L 439.335017 436.451403 
L 439.965727 436.451403 
L 440.175963 435.015636 
L 440.806673 435.015636 
L 441.016909 432.146483 
L 441.647619 432.146483 
L 441.857855 430.422761 
L 442.488565 430.422761 
L 442.698802 430.134484 
L 443.329511 430.134484 
L 443.539748 436.442094 
L 444.170457 436.442094 
L 444.380694 435.010164 
L 445.011404 435.010164 
L 445.22164 437.592063 
L 445.85235 437.592063 
L 446.062586 442.758119 
L 446.693296 442.758119 
L 446.903532 442.479617 
L 447.534242 442.479617 
L 447.744478 445.064892 
L 448.375188 445.064892 
L 448.585425 448.536749 
L 449.216134 448.536749 
L 449.426371 449.696457 
L 450.05708 449.696457 
L 450.267317 452.018109 
L 450.898026 452.018109 
L 451.108263 453.444856 
L 451.738973 453.444856 
L 451.949209 451.756086 
L 452.579919 451.756086 
L 452.790155 451.495795 
L 453.420865 451.495795 
L 453.631101 455.514304 
L 454.261811 455.514304 
L 454.472048 451.237254 
L 455.102757 451.237254 
L 455.312994 452.405534 
L 455.943703 452.405534 
L 456.15394 458.765241 
L 456.784649 458.765241 
L 456.994886 457.340814 
L 457.625596 457.340814 
L 457.835832 461.108968 
L 458.466542 461.108968 
L 458.676778 464.881138 
L 459.307488 464.881138 
L 459.517724 468.654857 
L 460.148434 468.654857 
L 460.358671 480.722319 
L 460.98938 480.722319 
L 461.199617 482.14477 
L 461.830326 482.14477 
L 462.040563 487.590865 
L 462.671272 487.590865 
L 462.881509 487.352124 
L 463.512219 487.352124 
L 463.722455 488.773281 
L 465.194111 488.773281 
L 465.404347 491.615057 
L 466.035057 491.615057 
L 466.245294 491.379857 
L 466.876003 491.379857 
L 467.08624 489.726046 
L 467.716949 489.726046 
L 467.927186 489.494614 
L 468.557895 489.494614 
L 468.768132 490.685139 
L 469.398842 490.685139 
L 469.609078 493.066881 
L 470.239788 493.066881 
L 470.450024 491.648936 
L 471.080734 491.648936 
L 471.29097 491.423875 
L 471.92168 491.423875 
L 472.131917 496.646025 
L 472.762626 496.646025 
L 472.972863 499.036215 
L 473.603572 499.036215 
L 473.813809 500.232176 
L 474.444518 500.232176 
L 474.654755 497.401017 
L 475.285465 497.401017 
L 475.495701 499.800124 
L 476.126411 499.800124 
L 476.336647 496.971317 
L 476.967357 496.971317 
L 477.177593 496.549007 
L 477.808303 496.549007 
L 478.018539 504.401664 
L 479.490195 504.401664 
L 479.700432 507.021224 
L 480.331141 507.021224 
L 480.541378 508.229084 
L 482.013034 508.229772 
L 482.22327 508.029059 
L 482.85398 508.029059 
L 483.064216 514.684966 
L 483.694926 514.684966 
L 483.905162 511.863178 
L 484.535872 511.863178 
L 484.746109 510.452285 
L 485.376818 510.452285 
L 485.587055 511.665521 
L 486.217764 511.665521 
L 486.428001 508.84451 
L 487.899657 508.84451 
L 488.109893 507.434092 
L 488.740603 507.434092 
L 488.950839 506.023845 
L 489.581549 506.023845 
L 489.791785 501.794028 
L 490.422495 501.794028 
L 490.632732 498.974816 
L 491.263441 498.974816 
L 491.473678 494.746342 
L 492.104387 494.746342 
L 492.314624 491.927745 
L 492.945333 491.927745 
L 493.15557 489.109754 
L 493.78628 489.109754 
L 493.996516 484.883863 
L 494.627226 484.883863 
L 494.837462 499.625218 
L 495.468172 499.625218 
L 495.678408 507.700677 
L 496.309118 507.700677 
L 496.519355 517.184534 
L 497.150064 517.184534 
L 497.360301 521.222749 
L 497.99101 521.222749 
L 498.201247 525.260964 
L 498.831956 525.260964 
L 499.042193 535.967839 
L 499.672903 535.967839 
L 499.883139 544.044639 
L 500.513849 544.044639 
L 500.724085 553.52829 
L 501.354795 553.52829 
L 501.565031 565.642446 
L 502.195741 565.642446 
L 502.405978 569.68056 
L 503.036687 569.68056 
L 503.246924 568.274124 
L 503.877633 568.274124 
L 504.08787 565.461701 
L 504.718579 565.461701 
L 504.928816 566.867736 
L 505.559526 566.867736 
L 505.769762 565.461847 
L 506.400472 565.461847 
L 506.610708 564.056103 
L 507.241418 564.056103 
L 507.451654 562.650359 
L 508.082364 562.650359 
L 508.292601 565.283123 
L 508.92331 565.283123 
L 509.133547 563.877379 
L 510.605202 563.877521 
L 510.815439 563.700342 
L 511.446149 563.700342 
L 511.656385 569.144455 
L 512.287095 569.144455 
L 512.497331 570.373466 
L 513.128041 570.373466 
L 513.338277 578.277028 
L 513.968987 578.277028 
L 514.179224 579.681872 
L 514.809933 579.681872 
L 515.02017 580.912066 
L 515.650879 580.912066 
L 515.861116 590.223086 
L 516.491825 590.223086 
L 516.702062 596.899699 
L 517.332772 596.899699 
L 517.543008 596.726958 
L 518.173718 596.726958 
L 518.383954 599.363582 
L 519.014664 599.363582 
L 519.2249 600.768 
L 519.85561 600.768 
L 520.065846 597.959295 
L 520.696556 597.959295 
L 520.906793 600.596799 
L 521.537502 600.596799 
L 521.747739 604.468377 
L 522.378448 604.468377 
L 522.588685 603.064186 
L 523.219395 603.064186 
L 523.429631 602.89397 
L 524.901287 602.893876 
L 525.111523 604.297753 
L 525.742233 604.297753 
L 525.952469 606.936871 
L 526.583179 606.936871 
L 526.793416 606.768547 
L 527.424125 606.768547 
L 527.634362 605.364796 
L 528.265071 605.364796 
L 528.475308 608.004596 
L 529.106017 608.004596 
L 529.316254 614.688437 
L 529.946964 614.688437 
L 530.1572 615.925465 
L 530.78791 615.925465 
L 530.998146 619.969565 
L 531.628856 619.969565 
L 531.839092 621.372857 
L 532.469802 621.372857 
L 532.680039 622.776058 
L 533.310748 622.776058 
L 533.520985 625.416956 
L 534.99264 625.416956 
L 535.202877 626.820037 
L 535.833587 626.820037 
L 536.043823 628.058092 
L 536.674533 628.058092 
L 536.884769 627.893418 
L 537.515479 627.893418 
L 537.725715 630.534789 
L 538.356425 630.534789 
L 538.566662 630.370999 
L 539.197371 630.370999 
L 539.407608 633.01255 
L 540.038317 633.01255 
L 540.248554 639.780901 
L 540.879263 639.780901 
L 541.0895 642.585807 
L 542.561156 642.585918 
L 542.771392 647.872028 
L 543.402102 647.872028 
L 543.612338 645.067982 
L 544.243048 645.067982 
L 544.453285 647.711509 
L 545.083994 647.711509 
L 545.294231 653.158865 
L 545.92494 653.158865 
L 546.135177 651.757111 
L 547.606833 651.757111 
L 547.817069 654.40094 
L 548.447779 654.40094 
L 548.658015 655.802517 
L 549.288725 655.802517 
L 549.498961 661.249521 
L 550.129671 661.249521 
L 550.339908 663.893862 
L 550.970617 663.893862 
L 551.180854 667.939708 
L 551.811563 667.939708 
L 552.0218 670.584362 
L 552.652509 670.584362 
L 552.862746 677.275583 
L 553.493456 677.275583 
L 553.703692 674.473401 
L 554.334402 674.473401 
L 554.544638 673.072411 
L 555.175348 673.072411 
L 555.385584 671.671422 
L 556.016294 671.671422 
L 556.22653 672.916276 
L 556.85724 672.916276 
L 557.067477 674.31708 
L 558.539132 674.31708 
L 558.749369 672.916276 
L 560.221025 672.916276 
L 560.431261 670.114964 
L 561.061971 670.114964 
L 561.272207 669.960356 
L 561.902917 669.960356 
L 562.113153 671.206738 
L 562.743863 671.206738 
L 562.9541 672.453215 
L 563.584809 672.453215 
L 563.795046 677.746709 
L 564.425755 677.746709 
L 564.635992 679.146751 
L 565.266701 679.146751 
L 565.476938 680.546793 
L 566.107648 680.546793 
L 566.317884 681.946835 
L 566.948594 681.946835 
L 567.15883 685.841549 
L 568.630486 685.841549 
L 568.840723 689.889105 
L 569.471432 689.889105 
L 569.681669 692.688395 
L 570.312378 692.688395 
L 570.522615 700.783818 
L 571.153324 700.783818 
L 571.363561 707.630083 
L 571.994271 707.630083 
L 572.204507 708.879592 
L 572.835217 708.879592 
L 573.045453 712.92751 
L 573.676163 712.92751 
L 573.886399 712.778371 
L 574.517109 712.778371 
L 574.727346 715.427563 
L 575.358055 715.427563 
L 575.568292 716.826559 
L 576.199001 716.826559 
L 576.409238 723.524353 
L 577.039947 723.524353 
L 577.250184 727.572877 
L 577.880894 727.572877 
L 578.09113 731.621477 
L 579.562786 731.621477 
L 579.773022 733.020133 
L 581.244678 733.020133 
L 581.454915 735.669997 
L 582.92657 735.669997 
L 583.136807 737.068653 
L 584.608463 737.068653 
L 584.818699 741.117504 
L 585.449409 741.117504 
L 585.659645 739.718934 
L 586.290355 739.718934 
L 586.500592 738.320447 
L 587.131301 738.320447 
L 587.341538 746.418722 
L 587.972247 746.418722 
L 588.182484 745.020403 
L 588.813193 745.020403 
L 589.02343 749.069658 
L 589.65414 749.069658 
L 589.864376 747.671421 
L 590.495086 747.671421 
L 590.705322 754.372104 
L 591.336032 754.372104 
L 591.546268 759.819683 
L 593.017924 759.819683 
L 593.228161 765.267101 
L 593.85887 765.267101 
L 594.069107 769.316684 
L 594.699816 769.316684 
L 594.910053 773.366346 
L 595.540763 773.366346 
L 595.750999 776.018407 
L 596.381709 776.018407 
L 596.591945 778.813373 
L 597.222655 778.813373 
L 597.432891 782.863034 
L 598.063601 782.863034 
L 598.273837 786.912773 
L 598.904547 786.912773 
L 599.114784 789.565377 
L 601.427386 789.5653 
L 601.637622 788.168165 
L 606.473062 788.168165 
L 606.683299 790.820922 
L 607.314008 790.820922 
L 607.524245 790.679561 
L 608.154955 790.679561 
L 608.365191 794.729679 
L 608.995901 794.729679 
L 609.206137 798.779874 
L 609.836847 798.779874 
L 610.047083 801.433164 
L 610.677793 801.433164 
L 610.88803 804.086679 
L 611.518739 804.086679 
L 611.728976 806.740271 
L 612.359685 806.740271 
L 612.569922 807.997255 
L 613.200631 807.997255 
L 613.410868 812.047979 
L 614.041578 812.047979 
L 614.251814 817.35635 
L 615.72347 817.35635 
L 615.933706 818.614067 
L 616.564416 818.614067 
L 616.774653 820.010681 
L 617.405362 820.010681 
L 617.615599 822.665162 
L 618.246308 822.665162 
L 618.456545 824.061632 
L 619.087254 824.061632 
L 619.297491 825.319865 
L 619.928201 825.319865 
L 620.138437 832.026105 
L 620.769147 832.026105 
L 620.979383 836.077572 
L 621.610093 836.077572 
L 621.820329 844.180716 
L 622.451039 844.180716 
L 622.661276 846.83621 
L 623.291985 846.83621 
L 623.502222 850.887955 
L 624.132931 850.887955 
L 624.343168 856.335667 
L 624.973877 856.335667 
L 625.184114 860.387476 
L 626.65577 860.387476 
L 626.866006 864.439364 
L 628.337662 864.439364 
L 628.547899 867.095629 
L 629.178608 867.095629 
L 629.388845 865.699861 
L 630.019554 865.699861 
L 630.229791 868.356271 
L 630.8605 868.356271 
L 631.070737 869.751972 
L 631.701447 869.751972 
L 631.911683 872.408516 
L 632.542393 872.408516 
L 632.752629 871.012815 
L 633.383339 871.012815 
L 633.593575 879.117518 
L 634.224285 879.117518 
L 634.434521 878.983346 
L 635.065231 878.983346 
L 635.275468 889.746007 
L 635.906177 889.746007 
L 636.116414 895.061063 
L 636.747123 895.061063 
L 636.95736 896.323454 
L 637.58807 896.323454 
L 637.798306 904.429871 
L 638.429016 904.429871 
L 638.639252 908.351162 
L 639.269962 908.351162 
L 639.480198 909.746253 
L 640.110908 909.746253 
L 640.321144 913.799713 
L 640.951854 913.799713 
L 641.162091 916.45827 
L 641.7928 916.45827 
L 642.003037 920.511932 
L 642.633746 920.511932 
L 642.843983 928.619461 
L 643.474692 928.619461 
L 643.684929 933.937764 
L 644.315639 933.937764 
L 644.525875 939.386464 
L 645.156585 939.386464 
L 645.366821 946.100136 
L 645.997531 946.100136 
L 646.207767 954.208711 
L 646.838477 954.208711 
L 647.048714 952.814259 
L 647.679423 952.814259 
L 647.88966 959.528749 
L 648.520369 959.528749 
L 648.730606 958.134357 
L 650.202262 958.134357 
L 650.412498 960.922963 
L 651.884154 960.922963 
L 652.09439 964.105809 
L 653.566046 964.105809 
L 653.776283 965.530921 
L 654.406992 965.530921 
L 654.617229 968.191616 
L 655.247938 968.191616 
L 655.458175 966.766504 
L 656.088885 966.766504 
L 656.299121 969.427432 
L 656.929831 969.427432 
L 657.140067 973.51349 
L 657.770777 973.51349 
L 657.981013 979.024428 
L 658.611723 979.024428 
L 658.82196 983.110599 
L 659.452669 983.110599 
L 659.662906 980.261294 
L 661.975508 980.261294 
L 662.185744 978.836642 
L 662.816454 978.836642 
L 663.02669 980.261181 
L 663.6574 980.261181 
L 663.867636 984.347352 
L 665.339292 984.347352 
L 665.549529 988.433634 
L 666.180238 988.433634 
L 666.390475 994.455239 
L 667.021184 994.455239 
L 667.231421 1001.234721 
L 667.862131 1001.234721 
L 668.072367 1005.351714 
L 668.703077 1005.351714 
L 668.913313 1006.805243 
L 669.544023 1006.805243 
L 669.754259 1005.351714 
L 670.384969 1005.351714 
L 670.595206 1006.805082 
L 671.225915 1006.805082 
L 671.436152 1008.258383 
L 672.066861 1008.258383 
L 672.277098 1009.468516 
L 672.907807 1009.468516 
L 673.118044 1014.796346 
L 673.748754 1014.796346 
L 673.95899 1017.460738 
L 675.430646 1017.46058 
L 675.640882 1021.578113 
L 676.271592 1021.578113 
L 676.481828 1024.242952 
L 677.953484 1024.242952 
L 678.163721 1022.790126 
L 680.476323 1022.790126 
L 680.686559 1026.907765 
L 681.317269 1026.907765 
L 681.527505 1025.455095 
L 682.158215 1025.455095 
L 682.368451 1030.785541 
L 682.999161 1030.785541 
L 683.209398 1037.569381 
L 683.840107 1037.569381 
L 684.050344 1043.139975 
L 684.681053 1043.139975 
L 684.89129 1045.806439 
L 685.521999 1045.806439 
L 685.732236 1048.472878 
L 686.362946 1048.472878 
L 686.573182 1052.591436 
L 687.203892 1052.591436 
L 687.414128 1055.258307 
L 688.044838 1055.258307 
L 688.255074 1055.022084 
L 688.885784 1055.022084 
L 689.096021 1060.356937 
L 689.72673 1060.356937 
L 689.936967 1070.046611 
L 690.567676 1070.046611 
L 690.777913 1071.497725 
L 691.408622 1071.497725 
L 691.618859 1074.907497 
L 692.249569 1074.907497 
L 692.459805 1076.068468 
L 693.090515 1076.068468 
L 693.300751 1078.970117 
L 693.931461 1078.970117 
L 694.141697 1083.032996 
L 694.772407 1083.032996 
L 694.982644 1084.195065 
L 695.613353 1084.195065 
L 695.82359 1092.322572 
L 696.454299 1092.322572 
L 696.664536 1097.836772 
L 697.295245 1097.836772 
L 697.505482 1099.000624 
L 698.136192 1099.000624 
L 698.346428 1104.514953 
L 698.977138 1104.514953 
L 699.187374 1105.679426 
L 700.65903 1105.679426 
L 700.869267 1112.358978 
L 701.499976 1112.358978 
L 701.710213 1113.808702 
L 703.181868 1113.808702 
L 703.392105 1116.424022 
L 704.022815 1116.424022 
L 704.233051 1117.873686 
L 705.704707 1117.873686 
L 705.914943 1119.039718 
L 706.545653 1119.039718 
L 706.75589 1123.105263 
L 707.386599 1123.105263 
L 707.596836 1125.721517 
L 708.227545 1125.721517 
L 708.437782 1129.505961 
L 709.068491 1129.505961 
L 709.278728 1135.021288 
L 709.909438 1135.021288 
L 710.119674 1143.154271 
L 710.750384 1143.154271 
L 710.96062 1151.287975 
L 711.59133 1151.287975 
L 711.801566 1154.184332 
L 712.432276 1154.184332 
L 712.642512 1155.632243 
L 714.114168 1155.632243 
L 714.324405 1167.831807 
L 714.955114 1167.831807 
L 715.165351 1170.726281 
L 715.796061 1170.726281 
L 716.006297 1174.792687 
L 716.637007 1174.792687 
L 716.847243 1178.858863 
L 717.477953 1178.858863 
L 717.688189 1185.545443 
L 718.318899 1185.545443 
L 718.529135 1193.679331 
L 719.159845 1193.679331 
L 719.370082 1201.813891 
L 720.000791 1201.813891 
L 720.211028 1203.259618 
L 721.682683 1203.259618 
L 721.89292 1208.772265 
L 724.205522 1208.772265 
L 724.415758 1210.217602 
L 725.046468 1210.217602 
L 725.256705 1211.394287 
L 728.410253 1211.394287 
L 728.620489 1214.284469 
L 729.251199 1214.284469 
L 729.461435 1215.461809 
L 730.092145 1215.461809 
L 730.302381 1216.639263 
L 730.933091 1216.639263 
L 731.143328 1215.194254 
L 731.774037 1215.194254 
L 731.984274 1219.261889 
L 732.614983 1219.261889 
L 732.82522 1220.706574 
L 733.455929 1220.706574 
L 733.666166 1219.261889 
L 734.296876 1219.261889 
L 734.507112 1221.885001 
L 735.137822 1221.885001 
L 735.348058 1223.329524 
L 736.819714 1223.329524 
L 737.029951 1225.952749 
L 737.66066 1225.952749 
L 737.870897 1224.508226 
L 738.501606 1224.508226 
L 738.711843 1231.2 
L 739.342552 1231.2 
L 739.552789 1229.755636 
L 739.973262 1229.755636 
L 739.973262 1229.755636 
" clip-path="url(#p0c237e5127)" style="fill: none; stroke: #0000ff; stroke-width: 1.5; stroke-linecap: square"/>
   </g>
   <g id="patch_3">
    <path d="M 270 1281.6 
L 270 172.8 
" style="fill: none; stroke: #000000; stroke-width: 0.8; stroke-linejoin: miter; stroke-linecap: square"/>
   </g>
   <g id="patch_4">
    <path d="M 762.352941 1281.6 
L 762.352941 172.8 
" style="fill: none; stroke: #000000; stroke-width: 0.8; stroke-linejoin: miter; stroke-linecap: square"/>
   </g>
   <g id="patch_5">
    <path d="M 270 1281.6 
L 762.352941 1281.6 
" style="fill: none; stroke: #000000; stroke-width: 0.8; stroke-linejoin: miter; stroke-linecap: square"/>
   </g>
   <g id="patch_6">
    <path d="M 270 172.8 
L 762.352941 172.8 
" style="fill: none; stroke: #000000; stroke-width: 0.8; stroke-linejoin: miter; stroke-linecap: square"/>
   </g>
   <g id="legend_1">
    <g id="patch_7">
     <path d="M 671.310754 195.478125 
L 755.352941 195.478125 
Q 757.352941 195.478125 757.352941 193.478125 
L 757.352941 179.8 
Q 757.352941 177.8 755.352941 177.8 
L 671.310754 177.8 
Q 669.310754 177.8 669.310754 179.8 
L 669.310754 193.478125 
Q 669.310754 195.478125 671.310754 195.478125 
z
" style="fill: #ffffff; opacity: 0.8; stroke: #cccccc; stroke-linejoin: miter"/>
    </g>
    <g id="line2d_12">
     <path d="M 673.310754 185.898437 
L 683.310754 185.898437 
L 693.310754 185.898437 
" style="fill: none; stroke: #0000ff; stroke-width: 1.5; stroke-linecap: square"/>
    </g>
    <g id="text_11">
     <!-- O1 reward -->
     <g transform="translate(701.310754 189.398437) scale(0.1 -0.1)">
      <defs>
       <path id="DejaVuSans-4f" d="M 2522 4238 
Q 1834 4238 1429 3725 
Q 1025 3213 1025 2328 
Q 1025 1447 1429 934 
Q 1834 422 2522 422 
Q 3209 422 3611 934 
Q 4013 1447 4013 2328 
Q 4013 3213 3611 3725 
Q 3209 4238 2522 4238 
z
M 2522 4750 
Q 3503 4750 4090 4092 
Q 4678 3434 4678 2328 
Q 4678 1225 4090 567 
Q 3503 -91 2522 -91 
Q 1538 -91 948 565 
Q 359 1222 359 2328 
Q 359 3434 948 4092 
Q 1538 4750 2522 4750 
z
" transform="scale(0.015625)"/>
       <path id="DejaVuSans-20" transform="scale(0.015625)"/>
       <path id="DejaVuSans-72" d="M 2631 2963 
Q 2534 3019 2420 3045 
Q 2306 3072 2169 3072 
Q 1681 3072 1420 2755 
Q 1159 2438 1159 1844 
L 1159 0 
L 581 0 
L 581 3500 
L 1159 3500 
L 1159 2956 
Q 1341 3275 1631 3429 
Q 1922 3584 2338 3584 
Q 2397 3584 2469 3576 
Q 2541 3569 2628 3553 
L 2631 2963 
z
" transform="scale(0.015625)"/>
       <path id="DejaVuSans-65" d="M 3597 1894 
L 3597 1613 
L 953 1613 
Q 991 1019 1311 708 
Q 1631 397 2203 397 
Q 2534 397 2845 478 
Q 3156 559 3463 722 
L 3463 178 
Q 3153 47 2828 -22 
Q 2503 -91 2169 -91 
Q 1331 -91 842 396 
Q 353 884 353 1716 
Q 353 2575 817 3079 
Q 1281 3584 2069 3584 
Q 2775 3584 3186 3129 
Q 3597 2675 3597 1894 
z
M 3022 2063 
Q 3016 2534 2758 2815 
Q 2500 3097 2075 3097 
Q 1594 3097 1305 2825 
Q 1016 2553 972 2059 
L 3022 2063 
z
" transform="scale(0.015625)"/>
       <path id="DejaVuSans-77" d="M 269 3500 
L 844 3500 
L 1563 769 
L 2278 3500 
L 2956 3500 
L 3675 769 
L 4391 3500 
L 4966 3500 
L 4050 0 
L 3372 0 
L 2619 2869 
L 1863 0 
L 1184 0 
L 269 3500 
z
" transform="scale(0.015625)"/>
       <path id="DejaVuSans-61" d="M 2194 1759 
Q 1497 1759 1228 1600 
Q 959 1441 959 1056 
Q 959 750 1161 570 
Q 1363 391 1709 391 
Q 2188 391 2477 730 
Q 2766 1069 2766 1631 
L 2766 1759 
L 2194 1759 
z
M 3341 1997 
L 3341 0 
L 2766 0 
L 2766 531 
Q 2569 213 2275 61 
Q 1981 -91 1556 -91 
Q 1019 -91 701 211 
Q 384 513 384 1019 
Q 384 1609 779 1909 
Q 1175 2209 1959 2209 
L 2766 2209 
L 2766 2266 
Q 2766 2663 2505 2880 
Q 2244 3097 1772 3097 
Q 1472 3097 1187 3025 
Q 903 2953 641 2809 
L 641 3341 
Q 956 3463 1253 3523 
Q 1550 3584 1831 3584 
Q 2591 3584 2966 3190 
Q 3341 2797 3341 1997 
z
" transform="scale(0.015625)"/>
       <path id="DejaVuSans-64" d="M 2906 2969 
L 2906 4863 
L 3481 4863 
L 3481 0 
L 2906 0 
L 2906 525 
Q 2725 213 2448 61 
Q 2172 -91 1784 -91 
Q 1150 -91 751 415 
Q 353 922 353 1747 
Q 353 2572 751 3078 
Q 1150 3584 1784 3584 
Q 2172 3584 2448 3432 
Q 2725 3281 2906 2969 
z
M 947 1747 
Q 947 1113 1208 752 
Q 1469 391 1925 391 
Q 2381 391 2643 752 
Q 2906 1113 2906 1747 
Q 2906 2381 2643 2742 
Q 2381 3103 1925 3103 
Q 1469 3103 1208 2742 
Q 947 2381 947 1747 
z
" transform="scale(0.015625)"/>
      </defs>
      <use xlink:href="#DejaVuSans-4f"/>
      <use xlink:href="#DejaVuSans-31" x="78.710938"/>
      <use xlink:href="#DejaVuSans-20" x="142.333984"/>
      <use xlink:href="#DejaVuSans-72" x="174.121094"/>
      <use xlink:href="#DejaVuSans-65" x="212.984375"/>
      <use xlink:href="#DejaVuSans-77" x="274.507812"/>
      <use xlink:href="#DejaVuSans-61" x="356.294922"/>
      <use xlink:href="#DejaVuSans-72" x="417.574219"/>
      <use xlink:href="#DejaVuSans-64" x="456.9375"/>
     </g>
    </g>
   </g>
  </g>
  <g id="axes_2">
   <g id="patch_8">
    <path d="M 860.823529 1281.6 
L 1353.176471 1281.6 
L 1353.176471 172.8 
L 860.823529 172.8 
z
" style="fill: #ffffff"/>
   </g>
   <g id="matplotlib.axis_3">
    <g id="xtick_6">
     <g id="line2d_13">
      <g>
       <use xlink:href="#md2eeb54bfd" x="882.992972" y="1281.6" style="stroke: #000000; stroke-width: 0.8"/>
      </g>
     </g>
     <g id="text_12">
      <!-- 0 -->
      <g transform="translate(879.811722 1296.198437) scale(0.1 -0.1)">
       <use xlink:href="#DejaVuSans-30"/>
      </g>
     </g>
    </g>
    <g id="xtick_7">
     <g id="line2d_14">
      <g>
       <use xlink:href="#md2eeb54bfd" x="988.111239" y="1281.6" style="stroke: #000000; stroke-width: 0.8"/>
      </g>
     </g>
     <g id="text_13">
      <!-- 500 -->
      <g transform="translate(978.567489 1296.198437) scale(0.1 -0.1)">
       <use xlink:href="#DejaVuSans-35"/>
       <use xlink:href="#DejaVuSans-30" x="63.623047"/>
       <use xlink:href="#DejaVuSans-30" x="127.246094"/>
      </g>
     </g>
    </g>
    <g id="xtick_8">
     <g id="line2d_15">
      <g>
       <use xlink:href="#md2eeb54bfd" x="1093.229507" y="1281.6" style="stroke: #000000; stroke-width: 0.8"/>
      </g>
     </g>
     <g id="text_14">
      <!-- 1000 -->
      <g transform="translate(1080.504507 1296.198437) scale(0.1 -0.1)">
       <use xlink:href="#DejaVuSans-31"/>
       <use xlink:href="#DejaVuSans-30" x="63.623047"/>
       <use xlink:href="#DejaVuSans-30" x="127.246094"/>
       <use xlink:href="#DejaVuSans-30" x="190.869141"/>
      </g>
     </g>
    </g>
    <g id="xtick_9">
     <g id="line2d_16">
      <g>
       <use xlink:href="#md2eeb54bfd" x="1198.347774" y="1281.6" style="stroke: #000000; stroke-width: 0.8"/>
      </g>
     </g>
     <g id="text_15">
      <!-- 1500 -->
      <g transform="translate(1185.622774 1296.198437) scale(0.1 -0.1)">
       <use xlink:href="#DejaVuSans-31"/>
       <use xlink:href="#DejaVuSans-35" x="63.623047"/>
       <use xlink:href="#DejaVuSans-30" x="127.246094"/>
       <use xlink:href="#DejaVuSans-30" x="190.869141"/>
      </g>
     </g>
    </g>
    <g id="xtick_10">
     <g id="line2d_17">
      <g>
       <use xlink:href="#md2eeb54bfd" x="1303.466042" y="1281.6" style="stroke: #000000; stroke-width: 0.8"/>
      </g>
     </g>
     <g id="text_16">
      <!-- 2000 -->
      <g transform="translate(1290.741042 1296.198437) scale(0.1 -0.1)">
       <use xlink:href="#DejaVuSans-32"/>
       <use xlink:href="#DejaVuSans-30" x="63.623047"/>
       <use xlink:href="#DejaVuSans-30" x="127.246094"/>
       <use xlink:href="#DejaVuSans-30" x="190.869141"/>
      </g>
     </g>
    </g>
   </g>
   <g id="matplotlib.axis_4">
    <g id="ytick_6">
     <g id="line2d_18">
      <g>
       <use xlink:href="#mce368ba9a5" x="860.823529" y="1231.2" style="stroke: #000000; stroke-width: 0.8"/>
      </g>
     </g>
     <g id="text_17">
      <!-- 0 -->
      <g transform="translate(847.461029 1234.999219) scale(0.1 -0.1)">
       <use xlink:href="#DejaVuSans-30"/>
      </g>
     </g>
    </g>
    <g id="ytick_7">
     <g id="line2d_19">
      <g>
       <use xlink:href="#mce368ba9a5" x="860.823529" y="1062.217237" style="stroke: #000000; stroke-width: 0.8"/>
      </g>
     </g>
     <g id="text_18">
      <!-- 20 -->
      <g transform="translate(841.098529 1066.016456) scale(0.1 -0.1)">
       <use xlink:href="#DejaVuSans-32"/>
       <use xlink:href="#DejaVuSans-30" x="63.623047"/>
      </g>
     </g>
    </g>
    <g id="ytick_8">
     <g id="line2d_20">
      <g>
       <use xlink:href="#mce368ba9a5" x="860.823529" y="893.234474" style="stroke: #000000; stroke-width: 0.8"/>
      </g>
     </g>
     <g id="text_19">
      <!-- 40 -->
      <g transform="translate(841.098529 897.033692) scale(0.1 -0.1)">
       <use xlink:href="#DejaVuSans-34"/>
       <use xlink:href="#DejaVuSans-30" x="63.623047"/>
      </g>
     </g>
    </g>
    <g id="ytick_9">
     <g id="line2d_21">
      <g>
       <use xlink:href="#mce368ba9a5" x="860.823529" y="724.25171" style="stroke: #000000; stroke-width: 0.8"/>
      </g>
     </g>
     <g id="text_20">
      <!-- 60 -->
      <g transform="translate(841.098529 728.050929) scale(0.1 -0.1)">
       <defs>
        <path id="DejaVuSans-36" d="M 2113 2584 
Q 1688 2584 1439 2293 
Q 1191 2003 1191 1497 
Q 1191 994 1439 701 
Q 1688 409 2113 409 
Q 2538 409 2786 701 
Q 3034 994 3034 1497 
Q 3034 2003 2786 2293 
Q 2538 2584 2113 2584 
z
M 3366 4563 
L 3366 3988 
Q 3128 4100 2886 4159 
Q 2644 4219 2406 4219 
Q 1781 4219 1451 3797 
Q 1122 3375 1075 2522 
Q 1259 2794 1537 2939 
Q 1816 3084 2150 3084 
Q 2853 3084 3261 2657 
Q 3669 2231 3669 1497 
Q 3669 778 3244 343 
Q 2819 -91 2113 -91 
Q 1303 -91 875 529 
Q 447 1150 447 2328 
Q 447 3434 972 4092 
Q 1497 4750 2381 4750 
Q 2619 4750 2861 4703 
Q 3103 4656 3366 4563 
z
" transform="scale(0.015625)"/>
       </defs>
       <use xlink:href="#DejaVuSans-36"/>
       <use xlink:href="#DejaVuSans-30" x="63.623047"/>
      </g>
     </g>
    </g>
    <g id="ytick_10">
     <g id="line2d_22">
      <g>
       <use xlink:href="#mce368ba9a5" x="860.823529" y="555.268947" style="stroke: #000000; stroke-width: 0.8"/>
      </g>
     </g>
     <g id="text_21">
      <!-- 80 -->
      <g transform="translate(841.098529 559.068166) scale(0.1 -0.1)">
       <defs>
        <path id="DejaVuSans-38" d="M 2034 2216 
Q 1584 2216 1326 1975 
Q 1069 1734 1069 1313 
Q 1069 891 1326 650 
Q 1584 409 2034 409 
Q 2484 409 2743 651 
Q 3003 894 3003 1313 
Q 3003 1734 2745 1975 
Q 2488 2216 2034 2216 
z
M 1403 2484 
Q 997 2584 770 2862 
Q 544 3141 544 3541 
Q 544 4100 942 4425 
Q 1341 4750 2034 4750 
Q 2731 4750 3128 4425 
Q 3525 4100 3525 3541 
Q 3525 3141 3298 2862 
Q 3072 2584 2669 2484 
Q 3125 2378 3379 2068 
Q 3634 1759 3634 1313 
Q 3634 634 3220 271 
Q 2806 -91 2034 -91 
Q 1263 -91 848 271 
Q 434 634 434 1313 
Q 434 1759 690 2068 
Q 947 2378 1403 2484 
z
M 1172 3481 
Q 1172 3119 1398 2916 
Q 1625 2713 2034 2713 
Q 2441 2713 2670 2916 
Q 2900 3119 2900 3481 
Q 2900 3844 2670 4047 
Q 2441 4250 2034 4250 
Q 1625 4250 1398 4047 
Q 1172 3844 1172 3481 
z
" transform="scale(0.015625)"/>
       </defs>
       <use xlink:href="#DejaVuSans-38"/>
       <use xlink:href="#DejaVuSans-30" x="63.623047"/>
      </g>
     </g>
    </g>
    <g id="ytick_11">
     <g id="line2d_23">
      <g>
       <use xlink:href="#mce368ba9a5" x="860.823529" y="386.286184" style="stroke: #000000; stroke-width: 0.8"/>
      </g>
     </g>
     <g id="text_22">
      <!-- 100 -->
      <g transform="translate(834.736029 390.085403) scale(0.1 -0.1)">
       <use xlink:href="#DejaVuSans-31"/>
       <use xlink:href="#DejaVuSans-30" x="63.623047"/>
       <use xlink:href="#DejaVuSans-30" x="127.246094"/>
      </g>
     </g>
    </g>
    <g id="ytick_12">
     <g id="line2d_24">
      <g>
       <use xlink:href="#mce368ba9a5" x="860.823529" y="217.303421" style="stroke: #000000; stroke-width: 0.8"/>
      </g>
     </g>
     <g id="text_23">
      <!-- 120 -->
      <g transform="translate(834.736029 221.102639) scale(0.1 -0.1)">
       <use xlink:href="#DejaVuSans-31"/>
       <use xlink:href="#DejaVuSans-32" x="63.623047"/>
       <use xlink:href="#DejaVuSans-30" x="127.246094"/>
      </g>
     </g>
    </g>
   </g>
   <g id="line2d_25">
    <path d="M 883.203209 1231.2 
L 892.874089 1231.137534 
L 893.084326 1227.733549 
L 893.715035 1227.733549 
L 893.925272 1229.067657 
L 894.555981 1229.067657 
L 894.766218 1228.274263 
L 895.396928 1228.274263 
L 895.607164 1229.838337 
L 896.237874 1229.838337 
L 896.44811 1222.811294 
L 897.07882 1222.811294 
L 897.289056 1212.159333 
L 897.919766 1212.159333 
L 898.130003 1206.860207 
L 898.760712 1206.860207 
L 898.970949 1192.901836 
L 899.601658 1192.901836 
L 899.811895 1180.037525 
L 903.806389 1180.037525 
L 904.016626 1174.454209 
L 906.329227 1174.454209 
L 906.539464 1168.499503 
L 908.852066 1168.499503 
L 909.062302 1160.386319 
L 909.693012 1160.386319 
L 909.903248 1158.108202 
L 910.533958 1158.108202 
L 910.744195 1155.601405 
L 912.21585 1155.601405 
L 912.426087 1140.213952 
L 913.056797 1140.213952 
L 913.267033 1116.015896 
L 913.897743 1116.015896 
L 914.107979 1109.569764 
L 914.738689 1109.569764 
L 914.948925 1097.156685 
L 915.579635 1097.156685 
L 915.789871 1067.107855 
L 916.420581 1067.107855 
L 916.630818 1046.193823 
L 925.670989 1046.193823 
L 925.881225 1040.027139 
L 928.193827 1040.027139 
L 928.404064 1033.951081 
L 929.034773 1033.951081 
L 929.24501 1027.811495 
L 929.875719 1027.811495 
L 930.085956 1021.610012 
L 931.557612 1021.610012 
L 931.767848 1019.42118 
L 934.921396 1019.42118 
L 935.131633 1017.173526 
L 935.762342 1017.173526 
L 935.972579 1002.253096 
L 936.603288 1002.253096 
L 936.813525 990.858622 
L 937.444235 990.858622 
L 937.654471 965.60615 
L 938.285181 965.60615 
L 938.495417 943.390923 
L 939.126127 943.390923 
L 939.336363 925.881052 
L 939.967073 925.881052 
L 940.17731 904.348958 
L 940.808019 904.348958 
L 941.018256 878.197192 
L 941.648965 878.197192 
L 941.859202 866.501426 
L 942.489911 866.501426 
L 942.700148 850.303504 
L 945.01275 850.303504 
L 945.222986 846.646674 
L 945.853696 846.646674 
L 946.063933 839.085141 
L 946.694642 839.085141 
L 946.904879 844.303474 
L 947.535588 844.303474 
L 947.745825 846.785496 
L 948.376534 846.785496 
L 948.586771 851.941451 
L 949.217481 851.941451 
L 949.427717 854.602832 
L 950.058427 854.602832 
L 950.268663 857.021188 
L 950.899373 857.021188 
L 951.109609 849.570798 
L 952.581265 849.570798 
L 952.791502 844.504372 
L 953.422211 844.504372 
L 953.632448 842.170221 
L 954.263157 842.170221 
L 954.473394 834.85073 
L 955.104104 834.85073 
L 955.31434 820.412292 
L 955.94505 820.412292 
L 956.155286 813.499256 
L 956.785996 813.499256 
L 956.996232 807.489287 
L 957.626942 807.489287 
L 957.837178 803.598491 
L 958.467888 803.598491 
L 958.678125 797.207898 
L 959.308834 797.207898 
L 959.519071 803.535377 
L 960.14978 803.535377 
L 960.360017 817.710421 
L 960.990726 817.710421 
L 961.200963 813.267349 
L 961.831673 813.267349 
L 962.041909 801.077157 
L 962.672619 801.077157 
L 962.882855 790.734168 
L 963.513565 790.734168 
L 963.723801 792.227769 
L 964.354511 792.227769 
L 964.564748 782.404834 
L 965.195457 782.404834 
L 965.405694 773.963708 
L 966.036403 773.963708 
L 966.24664 772.595506 
L 967.718296 772.545479 
L 967.928532 773.87373 
L 968.559242 773.87373 
L 968.769478 771.274595 
L 969.400188 771.274595 
L 969.610424 763.161149 
L 970.241134 763.161149 
L 970.451371 764.379503 
L 971.08208 764.379503 
L 971.292317 761.619195 
L 971.923026 761.619195 
L 972.133263 753.713822 
L 972.763972 753.713822 
L 972.974209 748.635702 
L 973.604919 748.635702 
L 973.815155 743.598472 
L 974.445865 743.598472 
L 974.656101 740.855662 
L 975.286811 740.855662 
L 975.497047 739.227224 
L 976.968703 739.227224 
L 977.17894 749.07617 
L 977.809649 749.07617 
L 978.019886 753.927228 
L 978.650595 753.927228 
L 978.860832 752.201338 
L 979.491542 752.201338 
L 979.701778 755.904895 
L 980.332488 755.904895 
L 980.542724 756.822406 
L 981.173434 756.822406 
L 981.38367 766.862685 
L 982.01438 766.862685 
L 982.224617 768.77964 
L 982.855326 768.77964 
L 983.065563 776.801982 
L 983.696272 776.801982 
L 983.906509 776.410678 
L 984.537218 776.410678 
L 984.747455 768.595566 
L 985.378165 768.595566 
L 985.588401 763.593958 
L 986.219111 763.593958 
L 986.429347 762.854515 
L 987.060057 762.854515 
L 987.270293 758.661025 
L 987.901003 758.661025 
L 988.111239 751.745822 
L 988.741949 751.745822 
L 988.952186 754.515655 
L 989.582895 754.515655 
L 989.793132 757.280886 
L 990.423841 757.280886 
L 990.634078 756.622372 
L 991.264788 756.622372 
L 991.475024 753.847891 
L 992.105734 753.847891 
L 992.31597 746.404528 
L 992.94668 746.404528 
L 993.156916 741.786084 
L 994.628572 741.786084 
L 994.838809 737.832006 
L 995.469518 737.832006 
L 995.679755 742.308687 
L 996.310464 742.308687 
L 996.520701 750.000386 
L 997.15141 750.000386 
L 997.361647 752.276165 
L 997.992357 752.276165 
L 998.202593 751.815673 
L 998.833303 751.815673 
L 999.043539 750.920913 
L 999.674249 750.920913 
L 999.884485 752.860304 
L 1000.515195 752.860304 
L 1000.725432 745.760114 
L 1001.356141 745.760114 
L 1001.566378 728.328465 
L 1002.197087 728.328465 
L 1002.407324 718.052852 
L 1003.038033 718.052852 
L 1003.24827 704.53944 
L 1003.87898 704.53944 
L 1004.089216 690.938504 
L 1004.719926 690.938504 
L 1004.930162 678.055928 
L 1005.560872 678.055928 
L 1005.771108 671.328237 
L 1006.401818 671.328237 
L 1006.612055 661.909477 
L 1007.242764 661.909477 
L 1007.453001 649.216734 
L 1008.08371 649.216734 
L 1008.293947 642.947709 
L 1008.924656 642.947709 
L 1009.134893 633.644357 
L 1009.765603 633.644357 
L 1009.975839 636.867053 
L 1010.606549 636.867053 
L 1010.816785 631.316684 
L 1011.447495 631.316684 
L 1011.657731 640.284556 
L 1012.288441 640.284556 
L 1012.498678 640.537406 
L 1013.129387 640.537406 
L 1013.339624 640.746723 
L 1013.970333 640.746723 
L 1014.18057 638.0692 
L 1015.652226 638.162129 
L 1015.862462 638.331806 
L 1016.493172 638.331806 
L 1016.703408 647.05426 
L 1017.334118 647.05426 
L 1017.544354 652.727189 
L 1018.175064 652.727189 
L 1018.385301 655.50243 
L 1019.01601 655.50243 
L 1019.226247 652.722626 
L 1019.856956 652.722626 
L 1020.067193 649.830758 
L 1020.697902 649.830758 
L 1020.908139 644.170756 
L 1021.538849 644.170756 
L 1021.749085 638.575394 
L 1023.220741 638.564166 
L 1023.430977 641.380059 
L 1024.061687 641.380059 
L 1024.271924 638.658909 
L 1024.902633 638.658909 
L 1025.11287 635.953848 
L 1026.584525 636.052069 
L 1026.794762 647.062006 
L 1027.425472 647.062006 
L 1027.635708 649.89141 
L 1028.266418 649.89141 
L 1028.476654 642.302272 
L 1029.107364 642.302272 
L 1029.3176 645.17465 
L 1029.94831 645.17465 
L 1030.158546 648.27227 
L 1030.789256 648.27227 
L 1030.999493 645.616477 
L 1031.630202 645.616477 
L 1031.840439 645.862891 
L 1032.471148 645.862891 
L 1032.681385 649.338379 
L 1033.312095 649.338379 
L 1033.522331 650.286874 
L 1034.993987 650.288684 
L 1035.204223 642.49516 
L 1035.834933 642.49516 
L 1036.045169 637.319373 
L 1036.675879 637.319373 
L 1036.886116 634.734055 
L 1037.516825 634.734055 
L 1037.727062 629.572164 
L 1038.357771 629.572164 
L 1038.568008 626.995577 
L 1039.198717 626.995577 
L 1039.408954 624.420664 
L 1040.039664 624.420664 
L 1040.2499 619.275755 
L 1040.88061 619.275755 
L 1041.090846 614.137238 
L 1041.721556 614.137238 
L 1041.931792 609.004939 
L 1042.562502 609.004939 
L 1042.772739 606.441087 
L 1043.403448 606.441087 
L 1043.613685 598.772628 
L 1044.244394 598.772628 
L 1044.454631 593.67685 
L 1045.08534 593.67685 
L 1045.295577 591.13115 
L 1046.767233 591.13115 
L 1046.977469 588.586892 
L 1047.608179 588.586892 
L 1047.818415 580.970962 
L 1048.449125 580.970962 
L 1048.659362 573.382786 
L 1049.290071 573.382786 
L 1049.500308 565.825333 
L 1050.131017 565.825333 
L 1050.341254 560.802682 
L 1050.971963 560.802682 
L 1051.1822 553.293556 
L 1051.81291 553.293556 
L 1052.023146 561.9623 
L 1052.653856 561.9623 
L 1052.864092 568.760003 
L 1053.494802 568.760003 
L 1053.705038 570.662477 
L 1054.335748 570.662477 
L 1054.545985 572.624875 
L 1055.176694 572.624875 
L 1055.386931 578.855175 
L 1056.858586 578.869736 
L 1057.068823 576.934155 
L 1057.699533 576.934155 
L 1057.909769 580.073975 
L 1058.540479 580.073975 
L 1058.750715 577.569051 
L 1059.381425 577.569051 
L 1059.591661 579.153633 
L 1060.222371 579.153633 
L 1060.432608 569.652501 
L 1061.063317 569.652501 
L 1061.273554 560.188379 
L 1061.904263 560.188379 
L 1062.1145 550.758266 
L 1062.745209 550.758266 
L 1062.955446 543.717873 
L 1063.586156 543.717873 
L 1063.796392 536.704549 
L 1064.427102 536.704549 
L 1064.637338 532.04029 
L 1065.268048 532.04029 
L 1065.478284 525.062445 
L 1066.108994 525.062445 
L 1066.31923 522.741581 
L 1066.94994 522.741581 
L 1067.160177 518.108439 
L 1067.790886 518.108439 
L 1068.001123 513.486689 
L 1068.631832 513.486689 
L 1068.842069 514.430847 
L 1069.472779 514.430847 
L 1069.683015 522.298136 
L 1071.154671 522.295483 
L 1071.364907 520.972755 
L 1072.836563 520.972755 
L 1073.0468 517.361939 
L 1075.359401 517.361939 
L 1075.569638 519.653733 
L 1077.88224 519.653733 
L 1078.092476 517.364509 
L 1079.564132 517.364509 
L 1079.774369 518.362241 
L 1080.405078 518.362241 
L 1080.615315 521.652609 
L 1081.246024 521.652609 
L 1081.456261 520.400962 
L 1082.086971 520.400962 
L 1082.297207 525.976512 
L 1082.927917 525.976512 
L 1083.138153 531.372742 
L 1083.768863 531.372742 
L 1083.979099 534.690341 
L 1084.609809 534.690341 
L 1084.820046 538.00797 
L 1085.450755 538.00797 
L 1085.660992 535.751717 
L 1086.291701 535.751717 
L 1086.501938 531.243594 
L 1087.132647 531.243594 
L 1087.342884 526.74498 
L 1087.973594 526.74498 
L 1088.18383 520.009317 
L 1088.81454 520.009317 
L 1089.024776 517.767907 
L 1089.655486 517.767907 
L 1089.865722 515.52883 
L 1090.496432 515.52883 
L 1090.706669 513.292002 
L 1091.337378 513.292002 
L 1091.547615 511.057395 
L 1093.01927 511.057395 
L 1093.229507 506.593562 
L 1093.860217 506.593562 
L 1094.070453 504.364324 
L 1094.701163 504.364324 
L 1094.911399 506.592585 
L 1095.542109 506.592585 
L 1095.752345 507.73015 
L 1096.383055 507.73015 
L 1096.593292 506.64911 
L 1097.224001 506.64911 
L 1097.434238 504.428397 
L 1098.064947 504.428397 
L 1098.275184 506.648155 
L 1098.905893 506.648155 
L 1099.11613 504.430518 
L 1099.74684 504.430518 
L 1099.957076 502.215124 
L 1100.587786 502.215124 
L 1100.798022 495.581677 
L 1101.428732 495.581677 
L 1101.638968 496.759128 
L 1102.269678 496.759128 
L 1102.479914 490.152523 
L 1103.110624 490.152523 
L 1103.320861 481.368795 
L 1103.95157 481.368795 
L 1104.161807 479.177866 
L 1104.792516 479.177866 
L 1105.002753 474.802168 
L 1105.633463 474.802168 
L 1105.843699 468.247971 
L 1106.474409 468.247971 
L 1106.684645 463.887656 
L 1107.315355 463.887656 
L 1107.525591 459.532899 
L 1108.156301 459.532899 
L 1108.366537 450.845595 
L 1108.997247 450.845595 
L 1109.207484 444.348306 
L 1109.838193 444.348306 
L 1110.04843 440.022894 
L 1110.679139 440.022894 
L 1110.889376 436.971106 
L 1111.520086 436.971106 
L 1111.730322 436.08667 
L 1112.361032 436.08667 
L 1112.571268 439.52049 
L 1113.201978 439.52049 
L 1113.412214 437.786 
L 1114.042924 437.786 
L 1114.25316 434.778153 
L 1114.88387 434.778153 
L 1115.094107 438.219229 
L 1116.565762 438.219229 
L 1116.775999 437.37596 
L 1117.406708 437.37596 
L 1117.616945 436.537223 
L 1118.247655 436.537223 
L 1118.457891 434.394897 
L 1119.088601 434.394897 
L 1119.298837 432.254243 
L 1121.611439 432.254243 
L 1121.821676 434.393075 
L 1122.452385 434.393075 
L 1122.662622 433.574797 
L 1123.293331 433.574797 
L 1123.503568 432.761753 
L 1124.134278 432.761753 
L 1124.344514 430.627842 
L 1124.975224 430.627842 
L 1125.18546 428.495554 
L 1126.657116 428.495554 
L 1126.867353 430.626058 
L 1127.498062 430.626058 
L 1127.708299 426.368518 
L 1128.339008 426.368518 
L 1128.549245 424.241477 
L 1129.179954 424.241477 
L 1129.390191 419.989908 
L 1130.861847 419.989908 
L 1131.072083 417.866275 
L 1131.702793 417.866275 
L 1131.913029 413.623018 
L 1132.543739 413.623018 
L 1132.753976 411.503386 
L 1133.384685 411.503386 
L 1133.594922 409.385454 
L 1134.225631 409.385454 
L 1134.435868 407.26909 
L 1135.066577 407.26909 
L 1135.276814 403.041148 
L 1135.907524 403.041148 
L 1136.11776 404.405381 
L 1136.74847 404.405381 
L 1136.958706 405.043134 
L 1137.589416 405.043134 
L 1137.799652 404.311758 
L 1138.430362 404.311758 
L 1138.640599 402.206419 
L 1139.271308 402.206419 
L 1139.481545 407.793983 
L 1140.112254 407.793983 
L 1140.322491 409.894479 
L 1140.9532 409.894479 
L 1141.163437 411.289912 
L 1141.794147 411.289912 
L 1142.004383 409.891626 
L 1142.635093 409.891626 
L 1142.845329 415.482758 
L 1143.476039 415.482758 
L 1143.686275 414.792266 
L 1145.157931 414.792266 
L 1145.368168 412.016932 
L 1148.521716 412.016932 
L 1148.731952 414.106157 
L 1150.203608 414.106157 
L 1150.413844 412.018356 
L 1151.044554 412.018356 
L 1151.254791 409.931967 
L 1151.8855 409.931967 
L 1152.095737 409.267601 
L 1152.726446 409.267601 
L 1152.936683 406.527069 
L 1153.567392 406.527069 
L 1153.777629 405.878422 
L 1154.408339 405.878422 
L 1154.618575 407.956649 
L 1155.249285 407.956649 
L 1155.459521 405.879794 
L 1156.090231 405.879794 
L 1156.300467 407.318194 
L 1156.931177 407.318194 
L 1157.141414 402.5399 
L 1157.772123 402.5399 
L 1157.98236 400.46787 
L 1158.613069 400.46787 
L 1158.823306 398.39717 
L 1159.454015 398.39717 
L 1159.664252 396.32722 
L 1160.294962 396.32722 
L 1160.505198 394.258593 
L 1161.135908 394.258593 
L 1161.346144 392.191456 
L 1162.8178 392.191456 
L 1163.028037 395.716244 
L 1163.658746 395.716244 
L 1163.868983 391.587394 
L 1165.340638 391.587394 
L 1165.550875 393.650432 
L 1166.181585 393.650432 
L 1166.391821 389.528555 
L 1167.022531 389.528555 
L 1167.232767 387.469699 
L 1167.863477 387.469699 
L 1168.073713 385.412268 
L 1168.704423 385.412268 
L 1168.91466 383.356114 
L 1169.545369 383.356114 
L 1169.755606 384.840381 
L 1170.386315 384.840381 
L 1170.596552 386.325761 
L 1171.227261 386.325761 
L 1171.437498 384.273013 
L 1173.7501 384.273013 
L 1173.960336 386.324506 
L 1174.591046 386.324506 
L 1174.801283 385.766609 
L 1175.431992 385.766609 
L 1175.642229 389.312202 
L 1176.272938 389.312202 
L 1176.483175 391.357886 
L 1177.113884 391.357886 
L 1177.324121 394.908907 
L 1177.954831 394.908907 
L 1178.165067 390.823892 
L 1178.795777 390.823892 
L 1179.006013 386.21621 
L 1179.636723 386.21621 
L 1179.846959 382.143561 
L 1180.477669 382.143561 
L 1180.687905 380.109064 
L 1181.318615 380.109064 
L 1181.528852 378.075723 
L 1182.159561 378.075723 
L 1182.369798 377.572448 
L 1183.000507 377.572448 
L 1183.210744 373.015693 
L 1183.841454 373.015693 
L 1184.05169 375.043583 
L 1184.6824 375.043583 
L 1184.892636 370.991349 
L 1186.364292 370.991349 
L 1186.574528 370.507964 
L 1188.046184 370.507964 
L 1188.256421 368.4849 
L 1189.728076 368.4849 
L 1189.938313 368.007539 
L 1191.409969 368.007539 
L 1191.620205 365.986864 
L 1192.250915 365.986864 
L 1192.461151 363.967284 
L 1193.091861 363.967284 
L 1193.302098 365.986166 
L 1193.932807 365.986166 
L 1194.143044 363.968366 
L 1194.773753 363.968366 
L 1194.98399 361.951638 
L 1195.614699 361.951638 
L 1195.824936 359.936182 
L 1197.296592 359.936182 
L 1197.506828 359.483322 
L 1200.660376 359.483194 
L 1200.870613 355.468755 
L 1201.501322 355.468755 
L 1201.711559 357.474777 
L 1202.342269 357.474777 
L 1202.552505 353.465795 
L 1203.183215 353.465795 
L 1203.393451 349.461265 
L 1204.024161 349.461265 
L 1204.234397 347.460512 
L 1204.865107 347.460512 
L 1205.075344 346.65196 
L 1205.706053 346.65196 
L 1205.91629 344.654189 
L 1206.546999 344.654189 
L 1206.757236 346.651288 
L 1207.387945 346.651288 
L 1207.598182 350.246689 
L 1208.228892 350.246689 
L 1208.439128 348.251441 
L 1209.069838 348.251441 
L 1209.280074 350.246027 
L 1210.75173 350.246027 
L 1210.961967 352.239954 
L 1212.433622 352.239299 
L 1212.643859 353.850579 
L 1213.274568 353.850579 
L 1213.484805 349.869288 
L 1214.115515 349.869288 
L 1214.325751 347.880092 
L 1215.797407 347.880092 
L 1216.007643 345.892041 
L 1216.638353 345.892041 
L 1216.84859 347.879442 
L 1218.320245 347.879442 
L 1218.530482 345.892998 
L 1219.161191 345.892998 
L 1219.371428 345.532922 
L 1222.524976 345.532922 
L 1222.735212 343.548737 
L 1223.365922 343.548737 
L 1223.576159 345.175259 
L 1224.206868 345.175259 
L 1224.417105 343.192195 
L 1225.047814 343.192195 
L 1225.258051 342.839777 
L 1225.888761 342.839777 
L 1226.098997 340.858773 
L 1227.570653 340.858773 
L 1227.780889 336.899912 
L 1228.411599 336.899912 
L 1228.621835 338.878234 
L 1229.252545 338.878234 
L 1229.462782 336.563825 
L 1230.093491 336.563825 
L 1230.303728 334.591385 
L 1230.934437 334.591385 
L 1231.144674 332.618783 
L 1231.775383 332.618783 
L 1231.98562 332.295189 
L 1232.61633 332.295189 
L 1232.826566 331.975889 
L 1233.457276 331.975889 
L 1233.667512 335.598761 
L 1234.298222 335.598761 
L 1234.508458 333.315429 
L 1235.980114 333.315429 
L 1236.190351 331.348142 
L 1236.82106 331.348142 
L 1237.031297 334.971802 
L 1237.662006 334.971802 
L 1237.872243 333.006182 
L 1238.502953 333.006182 
L 1238.713189 331.041605 
L 1239.343899 331.041605 
L 1239.554135 333.005574 
L 1240.184845 333.005574 
L 1240.395081 332.706663 
L 1241.866737 332.706663 
L 1242.076974 332.411624 
L 1242.707683 332.411624 
L 1242.91792 330.45032 
L 1243.548629 330.45032 
L 1243.758866 328.490043 
L 1245.230522 328.490043 
L 1245.440758 326.530646 
L 1246.912414 326.530646 
L 1247.122651 328.489443 
L 1247.75336 328.489443 
L 1247.963597 326.531658 
L 1248.594306 326.531658 
L 1248.804543 328.488846 
L 1250.276199 328.488846 
L 1250.486435 330.44485 
L 1251.958091 330.445702 
L 1252.168327 326.27691 
L 1252.799037 326.27691 
L 1253.009274 326.019883 
L 1253.639983 326.019883 
L 1253.85022 325.764853 
L 1254.480929 325.764853 
L 1254.691166 323.81683 
L 1256.162822 323.816252 
L 1256.373058 325.516402 
L 1257.003768 325.516402 
L 1257.214004 323.572169 
L 1257.844714 323.572169 
L 1258.05495 321.393403 
L 1258.68566 321.393403 
L 1258.895896 315.571089 
L 1259.526606 315.571089 
L 1259.736843 311.694057 
L 1260.367552 311.694057 
L 1260.577789 309.756745 
L 1261.208498 309.756745 
L 1261.418735 307.820232 
L 1262.049445 307.820232 
L 1262.259681 307.605148 
L 1262.890391 307.605148 
L 1263.100627 307.392126 
L 1263.731337 307.392126 
L 1263.941573 309.326352 
L 1266.254175 309.327269 
L 1266.464412 307.395312 
L 1268.777014 307.394754 
L 1268.98725 305.465153 
L 1269.61796 305.465153 
L 1269.828196 307.198746 
L 1270.458906 307.198746 
L 1270.669142 303.342108 
L 1272.981744 303.342882 
L 1273.191981 299.492212 
L 1273.82269 299.492212 
L 1274.032927 293.722606 
L 1274.663637 293.722606 
L 1274.873873 289.880315 
L 1275.504583 289.880315 
L 1275.714819 286.041437 
L 1277.186475 286.041437 
L 1277.396712 282.923623 
L 1278.868367 282.923623 
L 1279.078604 280.853668 
L 1279.709313 280.853668 
L 1279.91955 278.939298 
L 1280.55026 278.939298 
L 1280.760496 277.02566 
L 1282.232152 277.025114 
L 1282.442388 282.616543 
L 1283.073098 282.616543 
L 1283.283335 280.705977 
L 1283.914044 280.705977 
L 1284.124281 278.796131 
L 1284.75499 278.796131 
L 1284.965227 276.886998 
L 1285.595936 276.886998 
L 1285.806173 278.660915 
L 1286.436883 278.660915 
L 1286.647119 276.752493 
L 1287.277829 276.752493 
L 1287.488065 274.844778 
L 1288.118775 274.844778 
L 1288.329011 276.75196 
L 1288.959721 276.75196 
L 1289.169958 274.845478 
L 1290.641613 274.845478 
L 1291.062086 274.718905 
L 1291.482559 274.718905 
L 1291.692796 272.813937 
L 1292.323506 272.813937 
L 1292.533742 270.909778 
L 1293.164452 270.909778 
L 1293.374688 269.006313 
L 1294.005398 269.006313 
L 1294.215634 267.103648 
L 1295.68729 267.103648 
L 1295.897527 265.201673 
L 1296.528236 265.201673 
L 1296.738473 267.10312 
L 1297.369182 267.10312 
L 1297.579419 263.194988 
L 1299.892021 263.194463 
L 1300.102257 261.297043 
L 1300.732967 261.297043 
L 1300.943203 257.504438 
L 1301.573913 257.504438 
L 1301.78415 255.609134 
L 1303.255805 255.516527 
L 1303.466042 257.410649 
L 1304.096752 257.410649 
L 1304.306988 255.517185 
L 1304.937698 255.517185 
L 1305.147934 253.624375 
L 1305.778644 253.624375 
L 1305.98888 255.516667 
L 1306.61959 255.516667 
L 1306.829826 257.325461 
L 1307.460536 257.325461 
L 1307.670773 259.13477 
L 1308.301482 259.13477 
L 1308.511719 257.244407 
L 1309.142428 257.244407 
L 1309.352665 255.354692 
L 1310.824321 255.354692 
L 1311.034557 253.465739 
L 1311.665267 253.465739 
L 1311.875503 249.689754 
L 1312.506213 249.689754 
L 1312.716449 247.802833 
L 1313.347159 247.802833 
L 1313.557396 245.91666 
L 1314.188105 245.91666 
L 1314.398342 247.802324 
L 1315.029051 247.802324 
L 1315.239288 245.917405 
L 1315.869997 245.917405 
L 1316.080234 244.033226 
L 1317.55189 244.033226 
L 1317.762126 240.266749 
L 1318.392836 240.266749 
L 1318.603072 236.502751 
L 1319.233782 236.502751 
L 1319.444019 234.621674 
L 1320.074728 234.621674 
L 1320.284965 232.741208 
L 1320.915674 232.741208 
L 1321.125911 232.602852 
L 1321.75662 232.602852 
L 1321.966857 230.724941 
L 1324.279459 230.72554 
L 1324.489695 228.849453 
L 1325.961351 228.850172 
L 1326.171588 226.945349 
L 1326.802297 226.945349 
L 1327.012534 223.2 
L 1327.643243 223.2 
L 1327.85348 228.792248 
L 1328.48419 228.792248 
L 1328.694426 226.902315 
L 1329.325136 226.902315 
L 1329.535372 225.032789 
L 1330.796791 225.017467 
L 1330.796791 225.017467 
" clip-path="url(#p6a4ea5d14b)" style="fill: none; stroke: #0000ff; stroke-width: 1.5; stroke-linecap: square"/>
   </g>
   <g id="patch_9">
    <path d="M 860.823529 1281.6 
L 860.823529 172.8 
" style="fill: none; stroke: #000000; stroke-width: 0.8; stroke-linejoin: miter; stroke-linecap: square"/>
   </g>
   <g id="patch_10">
    <path d="M 1353.176471 1281.6 
L 1353.176471 172.8 
" style="fill: none; stroke: #000000; stroke-width: 0.8; stroke-linejoin: miter; stroke-linecap: square"/>
   </g>
   <g id="patch_11">
    <path d="M 860.823529 1281.6 
L 1353.176471 1281.6 
" style="fill: none; stroke: #000000; stroke-width: 0.8; stroke-linejoin: miter; stroke-linecap: square"/>
   </g>
   <g id="patch_12">
    <path d="M 860.823529 172.8 
L 1353.176471 172.8 
" style="fill: none; stroke: #000000; stroke-width: 0.8; stroke-linejoin: miter; stroke-linecap: square"/>
   </g>
   <g id="legend_2">
    <g id="patch_13">
     <path d="M 1262.134283 195.478125 
L 1346.176471 195.478125 
Q 1348.176471 195.478125 1348.176471 193.478125 
L 1348.176471 179.8 
Q 1348.176471 177.8 1346.176471 177.8 
L 1262.134283 177.8 
Q 1260.134283 177.8 1260.134283 179.8 
L 1260.134283 193.478125 
Q 1260.134283 195.478125 1262.134283 195.478125 
z
" style="fill: #ffffff; opacity: 0.8; stroke: #cccccc; stroke-linejoin: miter"/>
    </g>
    <g id="line2d_26">
     <path d="M 1264.134283 185.898437 
L 1274.134283 185.898437 
L 1284.134283 185.898437 
" style="fill: none; stroke: #0000ff; stroke-width: 1.5; stroke-linecap: square"/>
    </g>
    <g id="text_24">
     <!-- O2 reward -->
     <g transform="translate(1292.134283 189.398437) scale(0.1 -0.1)">
      <use xlink:href="#DejaVuSans-4f"/>
      <use xlink:href="#DejaVuSans-32" x="78.710938"/>
      <use xlink:href="#DejaVuSans-20" x="142.333984"/>
      <use xlink:href="#DejaVuSans-72" x="174.121094"/>
      <use xlink:href="#DejaVuSans-65" x="212.984375"/>
      <use xlink:href="#DejaVuSans-77" x="274.507812"/>
      <use xlink:href="#DejaVuSans-61" x="356.294922"/>
      <use xlink:href="#DejaVuSans-72" x="417.574219"/>
      <use xlink:href="#DejaVuSans-64" x="456.9375"/>
     </g>
    </g>
   </g>
  </g>
  <g id="axes_3">
   <g id="patch_14">
    <path d="M 1451.647059 1281.6 
L 1944 1281.6 
L 1944 172.8 
L 1451.647059 172.8 
z
" style="fill: #ffffff"/>
   </g>
   <g id="matplotlib.axis_5">
    <g id="xtick_11">
     <g id="line2d_27">
      <g>
       <use xlink:href="#md2eeb54bfd" x="1473.816501" y="1281.6" style="stroke: #000000; stroke-width: 0.8"/>
      </g>
     </g>
     <g id="text_25">
      <!-- 0 -->
      <g transform="translate(1470.635251 1296.198437) scale(0.1 -0.1)">
       <use xlink:href="#DejaVuSans-30"/>
      </g>
     </g>
    </g>
    <g id="xtick_12">
     <g id="line2d_28">
      <g>
       <use xlink:href="#md2eeb54bfd" x="1578.934769" y="1281.6" style="stroke: #000000; stroke-width: 0.8"/>
      </g>
     </g>
     <g id="text_26">
      <!-- 500 -->
      <g transform="translate(1569.391019 1296.198437) scale(0.1 -0.1)">
       <use xlink:href="#DejaVuSans-35"/>
       <use xlink:href="#DejaVuSans-30" x="63.623047"/>
       <use xlink:href="#DejaVuSans-30" x="127.246094"/>
      </g>
     </g>
    </g>
    <g id="xtick_13">
     <g id="line2d_29">
      <g>
       <use xlink:href="#md2eeb54bfd" x="1684.053036" y="1281.6" style="stroke: #000000; stroke-width: 0.8"/>
      </g>
     </g>
     <g id="text_27">
      <!-- 1000 -->
      <g transform="translate(1671.328036 1296.198437) scale(0.1 -0.1)">
       <use xlink:href="#DejaVuSans-31"/>
       <use xlink:href="#DejaVuSans-30" x="63.623047"/>
       <use xlink:href="#DejaVuSans-30" x="127.246094"/>
       <use xlink:href="#DejaVuSans-30" x="190.869141"/>
      </g>
     </g>
    </g>
    <g id="xtick_14">
     <g id="line2d_30">
      <g>
       <use xlink:href="#md2eeb54bfd" x="1789.171304" y="1281.6" style="stroke: #000000; stroke-width: 0.8"/>
      </g>
     </g>
     <g id="text_28">
      <!-- 1500 -->
      <g transform="translate(1776.446304 1296.198437) scale(0.1 -0.1)">
       <use xlink:href="#DejaVuSans-31"/>
       <use xlink:href="#DejaVuSans-35" x="63.623047"/>
       <use xlink:href="#DejaVuSans-30" x="127.246094"/>
       <use xlink:href="#DejaVuSans-30" x="190.869141"/>
      </g>
     </g>
    </g>
    <g id="xtick_15">
     <g id="line2d_31">
      <g>
       <use xlink:href="#md2eeb54bfd" x="1894.289571" y="1281.6" style="stroke: #000000; stroke-width: 0.8"/>
      </g>
     </g>
     <g id="text_29">
      <!-- 2000 -->
      <g transform="translate(1881.564571 1296.198437) scale(0.1 -0.1)">
       <use xlink:href="#DejaVuSans-32"/>
       <use xlink:href="#DejaVuSans-30" x="63.623047"/>
       <use xlink:href="#DejaVuSans-30" x="127.246094"/>
       <use xlink:href="#DejaVuSans-30" x="190.869141"/>
      </g>
     </g>
    </g>
   </g>
   <g id="matplotlib.axis_6">
    <g id="ytick_13">
     <g id="line2d_32">
      <g>
       <use xlink:href="#mce368ba9a5" x="1451.647059" y="1231.2" style="stroke: #000000; stroke-width: 0.8"/>
      </g>
     </g>
     <g id="text_30">
      <!-- 0 -->
      <g transform="translate(1438.284559 1234.999219) scale(0.1 -0.1)">
       <use xlink:href="#DejaVuSans-30"/>
      </g>
     </g>
    </g>
    <g id="ytick_14">
     <g id="line2d_33">
      <g>
       <use xlink:href="#mce368ba9a5" x="1451.647059" y="1002.106357" style="stroke: #000000; stroke-width: 0.8"/>
      </g>
     </g>
     <g id="text_31">
      <!-- 5 -->
      <g transform="translate(1438.284559 1005.905576) scale(0.1 -0.1)">
       <use xlink:href="#DejaVuSans-35"/>
      </g>
     </g>
    </g>
    <g id="ytick_15">
     <g id="line2d_34">
      <g>
       <use xlink:href="#mce368ba9a5" x="1451.647059" y="773.012715" style="stroke: #000000; stroke-width: 0.8"/>
      </g>
     </g>
     <g id="text_32">
      <!-- 10 -->
      <g transform="translate(1431.922059 776.811933) scale(0.1 -0.1)">
       <use xlink:href="#DejaVuSans-31"/>
       <use xlink:href="#DejaVuSans-30" x="63.623047"/>
      </g>
     </g>
    </g>
    <g id="ytick_16">
     <g id="line2d_35">
      <g>
       <use xlink:href="#mce368ba9a5" x="1451.647059" y="543.919072" style="stroke: #000000; stroke-width: 0.8"/>
      </g>
     </g>
     <g id="text_33">
      <!-- 15 -->
      <g transform="translate(1431.922059 547.718291) scale(0.1 -0.1)">
       <use xlink:href="#DejaVuSans-31"/>
       <use xlink:href="#DejaVuSans-35" x="63.623047"/>
      </g>
     </g>
    </g>
    <g id="ytick_17">
     <g id="line2d_36">
      <g>
       <use xlink:href="#mce368ba9a5" x="1451.647059" y="314.825429" style="stroke: #000000; stroke-width: 0.8"/>
      </g>
     </g>
     <g id="text_34">
      <!-- 20 -->
      <g transform="translate(1431.922059 318.624648) scale(0.1 -0.1)">
       <use xlink:href="#DejaVuSans-32"/>
       <use xlink:href="#DejaVuSans-30" x="63.623047"/>
      </g>
     </g>
    </g>
   </g>
   <g id="line2d_37">
    <path d="M 1474.026738 1231.2 
L 1482.856672 1231.2 
L 1483.066909 1213.330568 
L 1483.697619 1213.330568 
L 1483.907855 1199.05161 
L 1484.538565 1199.05161 
L 1484.748801 1186.906011 
L 1485.379511 1186.906011 
L 1485.589747 1168.905796 
L 1486.220457 1168.905796 
L 1486.430694 1162.852831 
L 1487.061403 1162.852831 
L 1487.27164 1139.287812 
L 1487.902349 1139.287812 
L 1488.112586 1146.134395 
L 1488.743295 1146.134395 
L 1488.953532 1132.723546 
L 1489.584242 1132.723546 
L 1489.794478 1119.500671 
L 1490.425188 1119.500671 
L 1490.635424 1110.530952 
L 1491.266134 1110.530952 
L 1491.47637 1095.339516 
L 1492.10708 1095.339516 
L 1492.317317 1081.079475 
L 1492.948026 1081.079475 
L 1493.158263 1072.242897 
L 1494.629918 1072.242897 
L 1494.840155 1068.353114 
L 1495.470865 1068.353114 
L 1495.681101 1059.83553 
L 1496.311811 1059.83553 
L 1496.522047 1055.092025 
L 1497.993703 1055.092025 
L 1498.203939 1051.550939 
L 1498.834649 1051.550939 
L 1499.044886 1043.793271 
L 1500.516541 1043.793271 
L 1500.726778 1040.54356 
L 1501.357488 1040.54356 
L 1501.567724 1026.843889 
L 1502.198434 1026.843889 
L 1502.40867 1007.620598 
L 1503.03938 1007.620598 
L 1503.249616 994.15347 
L 1503.880326 994.15347 
L 1504.090562 985.192194 
L 1504.721272 985.192194 
L 1504.931509 960.194866 
L 1505.562218 960.194866 
L 1505.772455 947.758138 
L 1506.403164 947.758138 
L 1506.613401 943.853892 
L 1507.24411 943.853892 
L 1507.454347 931.677228 
L 1508.085057 931.677228 
L 1508.295293 923.567514 
L 1508.926003 923.567514 
L 1509.136239 916.647311 
L 1509.766949 916.647311 
L 1509.977185 904.549907 
L 1510.607895 904.549907 
L 1510.818132 899.62037 
L 1511.448841 899.62037 
L 1511.659078 888.599478 
L 1513.130733 888.520537 
L 1513.34097 891.637473 
L 1513.97168 891.637473 
L 1514.181916 893.568337 
L 1514.812626 893.568337 
L 1515.022862 889.046363 
L 1515.653572 889.046363 
L 1515.863808 890.943843 
L 1516.494518 890.943843 
L 1516.704755 888.287043 
L 1517.335464 888.287043 
L 1517.545701 891.270412 
L 1518.17641 891.270412 
L 1518.386647 888.472651 
L 1519.858303 888.472651 
L 1520.068539 885.621515 
L 1520.699249 885.621515 
L 1520.909485 877.205161 
L 1521.540195 877.205161 
L 1521.750431 869.906279 
L 1522.381141 869.906279 
L 1522.591378 874.35925 
L 1523.222087 874.35925 
L 1523.432324 876.142272 
L 1525.744926 876.142272 
L 1525.955162 867.837305 
L 1526.585872 867.837305 
L 1526.796108 852.212501 
L 1527.426818 852.212501 
L 1527.637054 844.635505 
L 1528.267764 844.635505 
L 1528.478001 839.282604 
L 1529.10871 839.282604 
L 1529.318947 835.77347 
L 1529.949656 835.77347 
L 1530.159893 827.393231 
L 1530.790602 827.393231 
L 1531.000839 821.770786 
L 1531.631549 821.770786 
L 1531.841785 817.407223 
L 1532.472495 817.407223 
L 1532.682731 808.474944 
L 1533.313441 808.474944 
L 1533.523677 803.185302 
L 1534.154387 803.185302 
L 1534.364623 795.887527 
L 1534.995333 795.887527 
L 1535.20557 793.88335 
L 1535.836279 793.88335 
L 1536.046516 785.651547 
L 1536.677225 785.651547 
L 1536.887462 778.830797 
L 1537.518172 778.830797 
L 1537.728408 772.130358 
L 1538.359118 772.130358 
L 1538.569354 765.696609 
L 1540.04101 765.696609 
L 1540.251246 761.223828 
L 1540.881956 761.223828 
L 1541.092193 757.340318 
L 1541.722902 757.340318 
L 1541.933139 759.161141 
L 1542.563848 759.161141 
L 1542.774085 755.721719 
L 1543.404794 755.721719 
L 1543.615031 749.745122 
L 1544.245741 749.745122 
L 1544.455977 745.456669 
L 1545.086687 745.456669 
L 1545.296923 741.132449 
L 1545.927633 741.132449 
L 1546.137869 735.409335 
L 1546.768579 735.409335 
L 1546.978816 723.220059 
L 1547.609525 723.220059 
L 1547.819762 721.856411 
L 1548.450471 721.856411 
L 1548.660708 719.949053 
L 1549.291417 719.949053 
L 1549.501654 712.463016 
L 1550.132364 712.463016 
L 1550.3426 707.10847 
L 1550.97331 707.10847 
L 1551.183546 703.417967 
L 1551.814256 703.417967 
L 1552.024492 696.78797 
L 1552.655202 696.78797 
L 1552.865439 689.233292 
L 1553.496148 689.233292 
L 1553.706385 685.215643 
L 1554.337094 685.215643 
L 1554.547331 684.478053 
L 1555.17804 684.478053 
L 1555.388277 682.338 
L 1556.018987 682.338 
L 1556.229223 679.462663 
L 1556.859933 679.462663 
L 1557.070169 675.253076 
L 1557.700879 675.253076 
L 1557.911115 673.878336 
L 1558.541825 673.878336 
L 1558.752062 667.946149 
L 1559.382771 667.946149 
L 1559.593008 665.916665 
L 1560.223717 665.916665 
L 1560.433954 662.836092 
L 1561.064663 662.836092 
L 1561.2749 659.771379 
L 1561.90561 659.771379 
L 1562.115846 656.38563 
L 1563.587502 656.38563 
L 1563.797738 654.37687 
L 1564.428448 654.37687 
L 1564.638685 653.371885 
L 1565.269394 653.371885 
L 1565.479631 649.048503 
L 1566.951286 649.048503 
L 1567.161523 650.044446 
L 1567.792233 650.044446 
L 1568.002469 650.380549 
L 1568.633179 650.380549 
L 1568.843415 648.463014 
L 1569.474125 648.463014 
L 1569.684361 642.293663 
L 1570.315071 642.293663 
L 1570.525308 639.810341 
L 1571.156017 639.810341 
L 1571.366254 640.384174 
L 1571.996963 640.384174 
L 1572.2072 634.340782 
L 1572.837909 634.340782 
L 1573.048146 629.412648 
L 1573.678856 629.412648 
L 1573.889092 628.612785 
L 1574.519802 628.612785 
L 1574.730038 626.308184 
L 1575.360748 626.308184 
L 1575.570984 623.034225 
L 1576.201694 623.034225 
L 1576.41193 622.529888 
L 1577.04264 622.529888 
L 1577.252877 619.083871 
L 1577.883586 619.083871 
L 1578.093823 616.394093 
L 1578.724532 616.394093 
L 1578.934769 611.980207 
L 1579.565479 611.980207 
L 1579.775715 609.368115 
L 1580.406425 609.368115 
L 1580.616661 605.882306 
L 1581.247371 605.882306 
L 1581.457607 602.682218 
L 1582.088317 602.682218 
L 1582.298553 600.171404 
L 1582.929263 600.171404 
L 1583.1395 599.746308 
L 1583.770209 599.746308 
L 1583.980446 596.633098 
L 1584.611155 596.633098 
L 1584.821392 592.318527 
L 1585.452101 592.318527 
L 1585.662338 588.548688 
L 1586.293048 588.548688 
L 1586.503284 583.350409 
L 1587.133994 583.350409 
L 1587.34423 578.65021 
L 1587.97494 578.65021 
L 1588.185176 567.572574 
L 1588.815886 567.572574 
L 1589.026123 559.752946 
L 1589.656832 559.752946 
L 1589.867069 553.968416 
L 1590.497778 553.968416 
L 1590.708015 550.345073 
L 1591.338724 550.345073 
L 1591.548961 545.193648 
L 1592.179671 545.193648 
L 1592.389907 541.496385 
L 1593.020617 541.496385 
L 1593.230853 532.913045 
L 1593.861563 532.913045 
L 1594.071799 528.167644 
L 1594.702509 528.167644 
L 1594.912746 523.3728 
L 1595.543455 523.3728 
L 1595.753692 519.533918 
L 1596.384401 519.533918 
L 1596.594638 514.843464 
L 1597.225347 514.843464 
L 1597.435584 510.392477 
L 1598.066294 510.392477 
L 1598.27653 505.465276 
L 1598.90724 505.465276 
L 1599.117476 500.364289 
L 1599.748186 500.364289 
L 1599.958422 498.757291 
L 1600.589132 498.757291 
L 1600.799369 495.794736 
L 1601.430078 495.794736 
L 1601.640315 494.736413 
L 1602.271024 494.736413 
L 1602.481261 493.463258 
L 1603.11197 493.463258 
L 1603.322207 491.363906 
L 1603.952917 491.363906 
L 1604.163153 488.036933 
L 1604.793863 488.036933 
L 1605.004099 486.790392 
L 1605.634809 486.790392 
L 1605.845045 484.734937 
L 1606.475755 484.734937 
L 1606.685992 482.901944 
L 1608.157647 482.901944 
L 1608.367884 482.700424 
L 1608.998593 482.700424 
L 1609.20883 481.274139 
L 1609.83954 481.274139 
L 1610.049776 480.658903 
L 1610.680486 480.658903 
L 1610.890722 479.252694 
L 1611.521432 479.252694 
L 1611.731668 478.254664 
L 1612.362378 478.254664 
L 1612.572614 475.983167 
L 1613.203324 475.983167 
L 1613.413561 472.207168 
L 1614.04427 472.207168 
L 1614.254507 471.408013 
L 1614.885216 471.408013 
L 1615.095453 467.4187 
L 1615.726163 467.4187 
L 1615.936399 464.877331 
L 1616.567109 464.877331 
L 1616.777345 463.298147 
L 1617.408055 463.298147 
L 1617.618291 460.620944 
L 1618.249001 460.620944 
L 1618.459237 456.866342 
L 1619.089947 456.866342 
L 1619.300184 453.933859 
L 1619.930893 453.933859 
L 1620.14113 449.484625 
L 1620.771839 449.484625 
L 1620.982076 447.659289 
L 1621.612785 447.659289 
L 1621.823022 445.700276 
L 1622.453732 445.700276 
L 1622.663968 441.269059 
L 1623.294678 441.269059 
L 1623.504914 440.378139 
L 1624.135624 440.378139 
L 1624.34586 439.362084 
L 1624.97657 439.362084 
L 1625.186807 436.829074 
L 1625.817516 436.829074 
L 1626.027753 434.695286 
L 1626.658462 434.695286 
L 1626.868699 431.52991 
L 1627.499408 431.52991 
L 1627.709645 428.209497 
L 1628.340355 428.209497 
L 1628.550591 426.74626 
L 1629.181301 426.74626 
L 1629.391537 424.296239 
L 1630.022247 424.296239 
L 1630.232483 423.026828 
L 1630.863193 423.026828 
L 1631.07343 423.488962 
L 1631.704139 423.488962 
L 1631.914376 419.877073 
L 1632.545085 419.877073 
L 1632.755322 419.720001 
L 1633.386031 419.720001 
L 1633.596268 417.95303 
L 1635.067924 417.95303 
L 1635.27816 415.932609 
L 1635.90887 415.932609 
L 1636.119106 414.284524 
L 1636.749816 414.284524 
L 1636.960053 412.196563 
L 1637.590762 412.196563 
L 1637.800999 411.478356 
L 1638.431708 411.478356 
L 1638.641945 408.710224 
L 1639.272654 408.710224 
L 1639.482891 406.713678 
L 1640.113601 406.713678 
L 1640.323837 404.648322 
L 1640.954547 404.648322 
L 1641.164783 400.12487 
L 1641.795493 400.12487 
L 1642.005729 397.004353 
L 1643.477385 397.001839 
L 1643.687622 396.104548 
L 1644.318331 396.104548 
L 1644.528568 397.467743 
L 1645.159277 397.467743 
L 1645.369514 394.682144 
L 1646.000224 394.682144 
L 1646.21046 396.521819 
L 1646.84117 396.521819 
L 1647.051406 394.318937 
L 1647.682116 394.318937 
L 1648.102589 394.199781 
L 1648.523062 394.199781 
L 1648.733299 394.796547 
L 1650.204954 394.739359 
L 1650.415191 395.230749 
L 1651.0459 395.230749 
L 1651.256137 392.503374 
L 1651.886847 392.503374 
L 1652.097083 390.74303 
L 1652.727793 390.74303 
L 1652.938029 390.042104 
L 1653.568739 390.042104 
L 1653.778975 388.920214 
L 1654.409685 388.920214 
L 1654.619921 387.877828 
L 1655.250631 387.877828 
L 1655.460868 385.207603 
L 1656.932523 385.207603 
L 1657.14276 384.158278 
L 1657.77347 384.158278 
L 1657.983706 382.494291 
L 1658.614416 382.494291 
L 1658.824652 381.813279 
L 1659.455362 381.813279 
L 1659.665598 381.075495 
L 1660.296308 381.075495 
L 1660.506544 379.440726 
L 1661.137254 379.440726 
L 1661.347491 378.446225 
L 1661.9782 378.446225 
L 1662.188437 377.755852 
L 1662.819146 377.755852 
L 1663.029383 377.085517 
L 1664.501039 377.038612 
L 1664.711275 375.735296 
L 1666.182931 375.689245 
L 1666.393167 374.046054 
L 1667.023877 374.046054 
L 1667.234114 373.069276 
L 1667.864823 373.069276 
L 1668.07506 372.080128 
L 1668.705769 372.080128 
L 1668.916006 371.685862 
L 1669.546715 371.685862 
L 1669.756952 370.391009 
L 1670.387662 370.391009 
L 1670.597898 369.427013 
L 1671.228608 369.427013 
L 1671.438844 370.073952 
L 1672.069554 370.073952 
L 1672.27979 369.156075 
L 1672.9105 369.156075 
L 1673.120737 367.221353 
L 1673.751446 367.221353 
L 1673.961683 366.301187 
L 1674.592392 366.301187 
L 1674.802629 366.940623 
L 1675.433338 366.940623 
L 1675.643575 365.379801 
L 1676.274285 365.379801 
L 1676.484521 364.732217 
L 1677.956177 364.719584 
L 1678.166413 364.078079 
L 1679.638069 364.064943 
L 1679.848306 362.208311 
L 1681.319961 362.198978 
L 1681.530198 360.970664 
L 1682.160908 360.970664 
L 1682.371144 360.350379 
L 1683.001854 360.350379 
L 1683.21209 359.732207 
L 1683.8428 359.732207 
L 1684.053036 359.114547 
L 1684.683746 359.114547 
L 1684.893983 356.969427 
L 1686.365638 356.969427 
L 1686.575875 356.050789 
L 1687.206584 356.050789 
L 1687.416821 355.441458 
L 1688.888477 355.439505 
L 1689.098713 353.921376 
L 1689.729423 353.921376 
L 1689.939659 353.315728 
L 1690.570369 353.315728 
L 1690.780605 352.711374 
L 1691.411315 352.711374 
L 1691.621552 351.505136 
L 1692.252261 351.505136 
L 1692.462498 349.694429 
L 1693.093207 349.694429 
L 1693.303444 348.799201 
L 1693.934154 348.799201 
L 1694.14439 347.593384 
L 1694.7751 347.593384 
L 1694.985336 346.106222 
L 1695.616046 346.106222 
L 1695.826282 344.632857 
L 1696.456992 344.632857 
L 1696.667228 344.328895 
L 1697.297938 344.328895 
L 1697.508175 344.950015 
L 1698.138884 344.950015 
L 1698.349121 343.451338 
L 1699.820776 343.480452 
L 1700.031013 341.990225 
L 1700.661723 341.990225 
L 1700.871959 341.139713 
L 1702.343615 341.139713 
L 1702.553851 339.064734 
L 1703.184561 339.064734 
L 1703.394798 338.171436 
L 1704.025507 338.171436 
L 1704.235744 336.702801 
L 1704.866453 336.702801 
L 1705.07669 335.813177 
L 1705.707399 335.813177 
L 1705.917636 334.936986 
L 1706.548346 334.936986 
L 1706.758582 332.316085 
L 1707.389292 332.316085 
L 1707.599528 330.849252 
L 1708.230238 330.849252 
L 1708.440474 329.966159 
L 1709.071184 329.966159 
L 1709.281421 329.098215 
L 1709.91213 329.098215 
L 1710.122367 328.506093 
L 1710.753076 328.506093 
L 1710.963313 327.899435 
L 1711.594022 327.899435 
L 1711.804259 326.447319 
L 1713.275915 326.431579 
L 1713.486151 325.571467 
L 1715.798753 325.555512 
L 1716.00899 324.678857 
L 1716.639699 324.678857 
L 1716.849936 323.819388 
L 1717.480645 323.819388 
L 1717.690882 322.069116 
L 1718.321592 322.069116 
L 1718.531828 321.481709 
L 1719.162538 321.481709 
L 1719.372774 319.170898 
L 1720.003484 319.170898 
L 1720.21372 318.038425 
L 1720.84443 318.038425 
L 1721.054667 316.327493 
L 1721.685376 316.327493 
L 1721.895613 314.903522 
L 1723.367268 314.903522 
L 1723.577505 314.322385 
L 1724.208215 314.322385 
L 1724.418451 313.482022 
L 1725.049161 313.482022 
L 1725.259397 312.922833 
L 1725.890107 312.922833 
L 1726.100343 311.227076 
L 1727.571999 311.227076 
L 1727.782236 310.850989 
L 1728.412945 310.850989 
L 1728.623182 309.434516 
L 1729.253891 309.434516 
L 1729.464128 309.990827 
L 1730.094838 309.990827 
L 1730.305074 309.133089 
L 1731.77673 309.230615 
L 1731.986966 308.397359 
L 1732.617676 308.397359 
L 1732.827912 307.944355 
L 1734.299568 307.944355 
L 1734.509805 308.49788 
L 1736.822407 308.472015 
L 1737.032643 307.893597 
L 1738.504299 307.893597 
L 1738.714535 307.316145 
L 1739.345245 307.316145 
L 1739.555482 306.488766 
L 1740.186191 306.488766 
L 1740.396428 305.912075 
L 1741.027137 305.912075 
L 1741.237374 304.48493 
L 1741.868083 304.48493 
L 1742.07832 302.814141 
L 1742.70903 302.814141 
L 1742.919266 301.993644 
L 1743.549976 301.993644 
L 1743.760212 301.173736 
L 1744.390922 301.173736 
L 1744.601158 299.620171 
L 1745.231868 299.620171 
L 1745.442105 299.434492 
L 1746.072814 299.434492 
L 1746.283051 297.343377 
L 1746.91376 297.343377 
L 1747.123997 295.834292 
L 1747.754706 295.834292 
L 1747.964943 295.418425 
L 1748.595653 295.418425 
L 1748.805889 295.961103 
L 1749.436599 295.961103 
L 1749.646835 294.464186 
L 1750.277545 294.464186 
L 1750.487781 293.616965 
L 1751.118491 293.616965 
L 1751.328728 293.075136 
L 1751.959437 293.075136 
L 1752.169674 293.209645 
L 1752.800383 293.209645 
L 1753.01062 292.667816 
L 1753.641329 292.667816 
L 1753.851566 292.263846 
L 1754.482276 292.263846 
L 1754.692512 291.722017 
L 1755.323222 291.722017 
L 1755.533458 291.861538 
L 1756.164168 291.861538 
L 1756.374404 290.921084 
L 1757.84606 290.921084 
L 1758.056297 290.523269 
L 1759.527952 290.523269 
L 1759.738189 289.982653 
L 1761.209845 289.982653 
L 1761.420081 289.44285 
L 1762.050791 289.44285 
L 1762.261027 288.903857 
L 1762.891737 288.903857 
L 1763.101974 288.365666 
L 1764.573629 288.365666 
L 1764.783866 286.753832 
L 1765.414575 286.753832 
L 1765.624812 286.217603 
L 1766.255522 286.217603 
L 1766.465758 284.574318 
L 1767.096468 284.574318 
L 1767.306704 282.934489 
L 1767.937414 282.934489 
L 1768.14765 281.869684 
L 1769.619306 281.869684 
L 1769.829543 281.337282 
L 1771.301198 281.337282 
L 1771.511435 282.555076 
L 1772.142145 282.555076 
L 1772.352381 282.711807 
L 1772.983091 282.711807 
L 1773.193327 283.240516 
L 1773.824037 283.240516 
L 1774.034273 283.7685 
L 1774.664983 283.7685 
L 1774.875219 284.616515 
L 1775.505929 284.616515 
L 1775.716166 284.089961 
L 1776.346875 284.089961 
L 1776.557112 283.200766 
L 1777.187821 283.200766 
L 1777.398058 283.725915 
L 1778.028767 283.725915 
L 1778.239004 282.676311 
L 1778.869714 282.676311 
L 1779.07995 283.200078 
L 1779.71066 283.200078 
L 1779.920896 283.717249 
L 1780.551606 283.717249 
L 1780.761842 284.239321 
L 1782.233498 284.239321 
L 1782.443735 283.197692 
L 1783.074444 283.197692 
L 1783.284681 283.717257 
L 1784.756337 283.717257 
L 1784.966573 283.22402 
L 1785.597283 283.22402 
L 1785.807519 283.742761 
L 1786.438229 283.742761 
L 1786.648465 284.260685 
L 1787.279175 284.260685 
L 1787.489412 283.74357 
L 1788.961067 283.74357 
L 1789.171304 283.227633 
L 1789.802013 283.227633 
L 1790.01225 283.775569 
L 1790.64296 283.775569 
L 1790.853196 282.746814 
L 1791.483906 282.746814 
L 1791.694142 282.270291 
L 1793.165798 282.271061 
L 1793.376035 281.28824 
L 1794.006744 281.28824 
L 1794.216981 281.799135 
L 1794.84769 281.799135 
L 1795.057927 280.77883 
L 1795.688636 280.77883 
L 1795.898873 280.2698 
L 1796.529583 280.2698 
L 1796.739819 278.74491 
L 1797.370529 278.74491 
L 1797.580765 277.781411 
L 1798.211475 277.781411 
L 1798.421711 277.327633 
L 1799.052421 277.327633 
L 1799.262658 276.429296 
L 1799.893367 276.429296 
L 1800.103604 275.478963 
L 1800.734313 275.478963 
L 1800.94455 273.969175 
L 1801.575259 273.969175 
L 1801.785496 274.471393 
L 1803.257152 274.535594 
L 1803.467388 274.035083 
L 1804.098098 274.035083 
L 1804.308334 273.534572 
L 1804.939044 273.534572 
L 1805.14928 273.034062 
L 1805.77999 273.034062 
L 1805.990227 272.534215 
L 1806.620936 272.534215 
L 1806.831173 272.03503 
L 1807.461882 272.03503 
L 1807.672119 271.03863 
L 1808.302829 271.03863 
L 1808.513065 270.043236 
L 1809.143775 270.043236 
L 1809.354011 269.545716 
L 1811.666613 269.620578 
L 1811.87685 269.124977 
L 1812.507559 269.124977 
L 1812.717796 268.630006 
L 1814.189452 268.630006 
L 1814.399688 267.641386 
L 1815.030398 267.641386 
L 1815.240634 266.654701 
L 1815.871344 266.654701 
L 1816.08158 266.244757 
L 1816.71229 266.244757 
L 1816.922526 265.261141 
L 1817.553236 265.261141 
L 1817.763473 264.279329 
L 1818.394182 264.279329 
L 1818.604419 263.788135 
L 1819.235128 263.788135 
L 1819.445365 263.390156 
L 1820.917021 263.390156 
L 1821.127257 263.878415 
L 1821.757967 263.878415 
L 1821.968203 262.995071 
L 1822.598913 262.995071 
L 1822.809149 262.507386 
L 1823.439859 262.507386 
L 1823.650096 261.628165 
L 1824.280805 261.628165 
L 1824.491042 261.141621 
L 1825.962697 261.141621 
L 1826.172934 260.170229 
L 1826.803644 260.170229 
L 1827.01388 259.298129 
L 1827.64459 259.298129 
L 1827.854826 258.813613 
L 1829.326482 258.813948 
L 1829.536719 258.432815 
L 1831.008374 258.432266 
L 1831.218611 258.054311 
L 1832.690267 258.158769 
L 1832.900503 258.746287 
L 1833.531213 258.746287 
L 1833.741449 258.266032 
L 1834.372159 258.266032 
L 1834.582395 257.786103 
L 1835.213105 257.786103 
L 1835.423342 257.306708 
L 1836.054051 257.306708 
L 1836.264288 256.935102 
L 1836.894997 256.935102 
L 1837.105234 257.413969 
L 1838.57689 257.413969 
L 1838.787126 256.935102 
L 1839.417836 256.935102 
L 1839.628072 255.978938 
L 1840.258782 255.978938 
L 1840.469018 254.547483 
L 1841.940674 254.547483 
L 1842.150911 253.593524 
L 1842.78162 253.593524 
L 1842.991857 253.116544 
L 1843.622566 253.116544 
L 1843.832803 253.591501 
L 1844.463513 253.591501 
L 1844.673749 252.16757 
L 1845.304459 252.16757 
L 1845.514695 250.747374 
L 1846.145405 250.747374 
L 1846.355641 251.219911 
L 1846.986351 251.219911 
L 1847.196587 250.747686 
L 1848.668243 250.747686 
L 1848.87848 250.275947 
L 1850.350136 250.275947 
L 1850.560372 249.804209 
L 1851.191082 249.804209 
L 1851.401318 249.332952 
L 1852.032028 249.332952 
L 1852.242264 248.862177 
L 1852.872974 248.862177 
L 1853.08321 248.517608 
L 1853.71392 248.517608 
L 1853.924157 248.047311 
L 1855.395812 248.047311 
L 1855.606049 247.577321 
L 1857.918651 247.577321 
L 1858.128887 246.637646 
L 1859.600543 246.637646 
L 1859.81078 246.168265 
L 1860.441489 246.168265 
L 1860.651726 245.699187 
L 1862.123381 245.699187 
L 1862.333618 245.230108 
L 1865.487166 245.230579 
L 1865.697403 244.762445 
L 1866.328112 244.762445 
L 1866.538349 244.294312 
L 1867.169058 244.294312 
L 1867.379295 242.891387 
L 1868.850951 242.891387 
L 1869.061187 242.558362 
L 1870.532843 242.558362 
L 1870.743079 242.091577 
L 1872.214735 242.091577 
L 1872.424972 241.625256 
L 1873.896627 241.625256 
L 1874.106864 241.158934 
L 1874.737574 241.158934 
L 1874.94781 241.624796 
L 1875.57852 241.624796 
L 1875.788756 241.159226 
L 1876.419466 241.159226 
L 1876.629702 240.693947 
L 1877.260412 240.693947 
L 1877.470649 240.22912 
L 1879.78325 240.22912 
L 1879.993487 240.693495 
L 1880.624197 240.693495 
L 1880.834433 239.765771 
L 1881.465143 239.765771 
L 1881.675379 239.302133 
L 1884.828927 239.302133 
L 1885.039164 238.838495 
L 1885.669873 238.838495 
L 1885.88011 238.375301 
L 1886.51082 238.375301 
L 1886.721056 237.449798 
L 1887.351766 237.449798 
L 1887.562002 238.055994 
L 1888.192712 238.055994 
L 1888.402948 237.594116 
L 1889.033658 237.594116 
L 1889.243894 236.670928 
L 1889.874604 236.670928 
L 1890.084841 235.287426 
L 1891.556496 235.287707 
L 1891.766733 235.435613 
L 1892.397442 235.435613 
L 1892.607679 234.516125 
L 1893.238389 234.516125 
L 1893.448625 234.205975 
L 1894.079335 234.205975 
L 1894.289571 233.287891 
L 1894.920281 233.287891 
L 1895.130517 231.912573 
L 1896.602173 231.912573 
L 1896.81241 231.454643 
L 1897.443119 231.454643 
L 1897.653356 231.912158 
L 1898.284065 231.912158 
L 1898.494302 231.454916 
L 1899.965958 231.454916 
L 1900.176194 231.911747 
L 1900.806904 231.911747 
L 1901.01714 231.455187 
L 1903.329742 231.454779 
L 1903.539979 230.999037 
L 1904.170688 230.999037 
L 1904.380925 231.454373 
L 1905.011635 231.454373 
L 1905.221871 230.999442 
L 1905.852581 230.999442 
L 1906.062817 230.703421 
L 1907.534473 230.703421 
L 1907.74471 230.248758 
L 1910.057311 230.248758 
L 1910.267548 230.568832 
L 1910.898258 230.568832 
L 1911.108494 229.3705 
L 1911.739204 229.3705 
L 1911.94944 228.918081 
L 1912.58015 228.918081 
L 1912.790386 228.013894 
L 1913.421096 228.013894 
L 1913.631333 229.080919 
L 1914.262042 229.080919 
L 1914.472279 227.896761 
L 1915.102988 227.896761 
L 1915.313225 228.231347 
L 1915.943934 228.231347 
L 1916.154171 227.332647 
L 1916.784881 227.332647 
L 1916.995117 226.434949 
L 1917.625827 226.434949 
L 1917.836063 225.538356 
L 1918.466773 225.538356 
L 1918.677009 224.642653 
L 1919.307719 224.642653 
L 1919.517956 223.919082 
L 1920.148665 223.919082 
L 1920.358902 224.366313 
L 1920.989611 224.366313 
L 1921.199848 223.2 
L 1921.620321 223.2 
L 1921.620321 223.2 
" clip-path="url(#paa475a4948)" style="fill: none; stroke: #0000ff; stroke-width: 1.5; stroke-linecap: square"/>
   </g>
   <g id="patch_15">
    <path d="M 1451.647059 1281.6 
L 1451.647059 172.8 
" style="fill: none; stroke: #000000; stroke-width: 0.8; stroke-linejoin: miter; stroke-linecap: square"/>
   </g>
   <g id="patch_16">
    <path d="M 1944 1281.6 
L 1944 172.8 
" style="fill: none; stroke: #000000; stroke-width: 0.8; stroke-linejoin: miter; stroke-linecap: square"/>
   </g>
   <g id="patch_17">
    <path d="M 1451.647059 1281.6 
L 1944 1281.6 
" style="fill: none; stroke: #000000; stroke-width: 0.8; stroke-linejoin: miter; stroke-linecap: square"/>
   </g>
   <g id="patch_18">
    <path d="M 1451.647059 172.8 
L 1944 172.8 
" style="fill: none; stroke: #000000; stroke-width: 0.8; stroke-linejoin: miter; stroke-linecap: square"/>
   </g>
   <g id="legend_3">
    <g id="patch_19">
     <path d="M 1852.957813 195.478125 
L 1937 195.478125 
Q 1939 195.478125 1939 193.478125 
L 1939 179.8 
Q 1939 177.8 1937 177.8 
L 1852.957813 177.8 
Q 1850.957813 177.8 1850.957813 179.8 
L 1850.957813 193.478125 
Q 1850.957813 195.478125 1852.957813 195.478125 
z
" style="fill: #ffffff; opacity: 0.8; stroke: #cccccc; stroke-linejoin: miter"/>
    </g>
    <g id="line2d_38">
     <path d="M 1854.957813 185.898437 
L 1864.957813 185.898437 
L 1874.957813 185.898437 
" style="fill: none; stroke: #0000ff; stroke-width: 1.5; stroke-linecap: square"/>
    </g>
    <g id="text_35">
     <!-- O3 reward -->
     <g transform="translate(1882.957813 189.398437) scale(0.1 -0.1)">
      <use xlink:href="#DejaVuSans-4f"/>
      <use xlink:href="#DejaVuSans-33" x="78.710938"/>
      <use xlink:href="#DejaVuSans-20" x="142.333984"/>
      <use xlink:href="#DejaVuSans-72" x="174.121094"/>
      <use xlink:href="#DejaVuSans-65" x="212.984375"/>
      <use xlink:href="#DejaVuSans-77" x="274.507812"/>
      <use xlink:href="#DejaVuSans-61" x="356.294922"/>
      <use xlink:href="#DejaVuSans-72" x="417.574219"/>
      <use xlink:href="#DejaVuSans-64" x="456.9375"/>
     </g>
    </g>
   </g>
  </g>
 </g>
 <defs>
  <clipPath id="p0c237e5127">
   <rect x="270" y="172.8" width="492.352941" height="1108.8"/>
  </clipPath>
  <clipPath id="p6a4ea5d14b">
   <rect x="860.823529" y="172.8" width="492.352941" height="1108.8"/>
  </clipPath>
  <clipPath id="paa475a4948">
   <rect x="1451.647059" y="172.8" width="492.352941" height="1108.8"/>
  </clipPath>
 </defs>
</svg>
