<?xml version="1.0" encoding="utf-8" standalone="no"?>
<!DOCTYPE svg PUBLIC "-//W3C//DTD SVG 1.1//EN"
  "http://www.w3.org/Graphics/SVG/1.1/DTD/svg11.dtd">
<svg xmlns:xlink="http://www.w3.org/1999/xlink" width="2160pt" height="1440pt" viewBox="0 0 2160 1440" xmlns="http://www.w3.org/2000/svg" version="1.1">
 <metadata>
  <rdf:RDF xmlns:dc="http://purl.org/dc/elements/1.1/" xmlns:cc="http://creativecommons.org/ns#" xmlns:rdf="http://www.w3.org/1999/02/22-rdf-syntax-ns#">
   <cc:Work>
    <dc:type rdf:resource="http://purl.org/dc/dcmitype/StillImage"/>
    <dc:date>2023-05-31T20:05:51.074864</dc:date>
    <dc:format>image/svg+xml</dc:format>
    <dc:creator>
     <cc:Agent>
      <dc:title>Matplotlib v3.7.1, https://matplotlib.org/</dc:title>
     </cc:Agent>
    </dc:creator>
   </cc:Work>
  </rdf:RDF>
 </metadata>
 <defs>
  <style type="text/css">*{stroke-linejoin: round; stroke-linecap: butt}</style>
 </defs>
 <g id="figure_1">
  <g id="patch_1">
   <path d="M 0 1440 
L 2160 1440 
L 2160 0 
L 0 0 
z
" style="fill: #ffffff"/>
  </g>
  <g id="axes_1">
   <g id="patch_2">
    <path d="M 270 1281.6 
L 762.352941 1281.6 
L 762.352941 172.8 
L 270 172.8 
z
" style="fill: #ffffff"/>
   </g>
   <g id="matplotlib.axis_1">
    <g id="xtick_1">
     <g id="line2d_1">
      <defs>
       <path id="mdd00fd70f2" d="M 0 0 
L 0 3.5 
" style="stroke: #000000; stroke-width: 0.8"/>
      </defs>
      <g>
       <use xlink:href="#mdd00fd70f2" x="292.172364" y="1281.6" style="stroke: #000000; stroke-width: 0.8"/>
      </g>
     </g>
     <g id="text_1">
      <!-- 0 -->
      <g transform="translate(288.991114 1296.198437) scale(0.1 -0.1)">
       <defs>
        <path id="DejaVuSans-30" d="M 2034 4250 
Q 1547 4250 1301 3770 
Q 1056 3291 1056 2328 
Q 1056 1369 1301 889 
Q 1547 409 2034 409 
Q 2525 409 2770 889 
Q 3016 1369 3016 2328 
Q 3016 3291 2770 3770 
Q 2525 4250 2034 4250 
z
M 2034 4750 
Q 2819 4750 3233 4129 
Q 3647 3509 3647 2328 
Q 3647 1150 3233 529 
Q 2819 -91 2034 -91 
Q 1250 -91 836 529 
Q 422 1150 422 2328 
Q 422 3509 836 4129 
Q 1250 4750 2034 4750 
z
" transform="scale(0.015625)"/>
       </defs>
       <use xlink:href="#DejaVuSans-30"/>
      </g>
     </g>
    </g>
    <g id="xtick_2">
     <g id="line2d_2">
      <g>
       <use xlink:href="#mdd00fd70f2" x="395.829979" y="1281.6" style="stroke: #000000; stroke-width: 0.8"/>
      </g>
     </g>
     <g id="text_2">
      <!-- 500 -->
      <g transform="translate(386.286229 1296.198437) scale(0.1 -0.1)">
       <defs>
        <path id="DejaVuSans-35" d="M 691 4666 
L 3169 4666 
L 3169 4134 
L 1269 4134 
L 1269 2991 
Q 1406 3038 1543 3061 
Q 1681 3084 1819 3084 
Q 2600 3084 3056 2656 
Q 3513 2228 3513 1497 
Q 3513 744 3044 326 
Q 2575 -91 1722 -91 
Q 1428 -91 1123 -41 
Q 819 9 494 109 
L 494 744 
Q 775 591 1075 516 
Q 1375 441 1709 441 
Q 2250 441 2565 725 
Q 2881 1009 2881 1497 
Q 2881 1984 2565 2268 
Q 2250 2553 1709 2553 
Q 1456 2553 1204 2497 
Q 953 2441 691 2322 
L 691 4666 
z
" transform="scale(0.015625)"/>
       </defs>
       <use xlink:href="#DejaVuSans-35"/>
       <use xlink:href="#DejaVuSans-30" x="63.623047"/>
       <use xlink:href="#DejaVuSans-30" x="127.246094"/>
      </g>
     </g>
    </g>
    <g id="xtick_3">
     <g id="line2d_3">
      <g>
       <use xlink:href="#mdd00fd70f2" x="499.487595" y="1281.6" style="stroke: #000000; stroke-width: 0.8"/>
      </g>
     </g>
     <g id="text_3">
      <!-- 1000 -->
      <g transform="translate(486.762595 1296.198437) scale(0.1 -0.1)">
       <defs>
        <path id="DejaVuSans-31" d="M 794 531 
L 1825 531 
L 1825 4091 
L 703 3866 
L 703 4441 
L 1819 4666 
L 2450 4666 
L 2450 531 
L 3481 531 
L 3481 0 
L 794 0 
L 794 531 
z
" transform="scale(0.015625)"/>
       </defs>
       <use xlink:href="#DejaVuSans-31"/>
       <use xlink:href="#DejaVuSans-30" x="63.623047"/>
       <use xlink:href="#DejaVuSans-30" x="127.246094"/>
       <use xlink:href="#DejaVuSans-30" x="190.869141"/>
      </g>
     </g>
    </g>
    <g id="xtick_4">
     <g id="line2d_4">
      <g>
       <use xlink:href="#mdd00fd70f2" x="603.14521" y="1281.6" style="stroke: #000000; stroke-width: 0.8"/>
      </g>
     </g>
     <g id="text_4">
      <!-- 1500 -->
      <g transform="translate(590.42021 1296.198437) scale(0.1 -0.1)">
       <use xlink:href="#DejaVuSans-31"/>
       <use xlink:href="#DejaVuSans-35" x="63.623047"/>
       <use xlink:href="#DejaVuSans-30" x="127.246094"/>
       <use xlink:href="#DejaVuSans-30" x="190.869141"/>
      </g>
     </g>
    </g>
    <g id="xtick_5">
     <g id="line2d_5">
      <g>
       <use xlink:href="#mdd00fd70f2" x="706.802825" y="1281.6" style="stroke: #000000; stroke-width: 0.8"/>
      </g>
     </g>
     <g id="text_5">
      <!-- 2000 -->
      <g transform="translate(694.077825 1296.198437) scale(0.1 -0.1)">
       <defs>
        <path id="DejaVuSans-32" d="M 1228 531 
L 3431 531 
L 3431 0 
L 469 0 
L 469 531 
Q 828 903 1448 1529 
Q 2069 2156 2228 2338 
Q 2531 2678 2651 2914 
Q 2772 3150 2772 3378 
Q 2772 3750 2511 3984 
Q 2250 4219 1831 4219 
Q 1534 4219 1204 4116 
Q 875 4013 500 3803 
L 500 4441 
Q 881 4594 1212 4672 
Q 1544 4750 1819 4750 
Q 2544 4750 2975 4387 
Q 3406 4025 3406 3419 
Q 3406 3131 3298 2873 
Q 3191 2616 2906 2266 
Q 2828 2175 2409 1742 
Q 1991 1309 1228 531 
z
" transform="scale(0.015625)"/>
       </defs>
       <use xlink:href="#DejaVuSans-32"/>
       <use xlink:href="#DejaVuSans-30" x="63.623047"/>
       <use xlink:href="#DejaVuSans-30" x="127.246094"/>
       <use xlink:href="#DejaVuSans-30" x="190.869141"/>
      </g>
     </g>
    </g>
   </g>
   <g id="matplotlib.axis_2">
    <g id="ytick_1">
     <g id="line2d_6">
      <defs>
       <path id="m629cad3dda" d="M 0 0 
L -3.5 0 
" style="stroke: #000000; stroke-width: 0.8"/>
      </defs>
      <g>
       <use xlink:href="#m629cad3dda" x="270" y="1190.644847" style="stroke: #000000; stroke-width: 0.8"/>
      </g>
     </g>
     <g id="text_6">
      <!-- −40 -->
      <g transform="translate(241.895312 1194.444066) scale(0.1 -0.1)">
       <defs>
        <path id="DejaVuSans-2212" d="M 678 2272 
L 4684 2272 
L 4684 1741 
L 678 1741 
L 678 2272 
z
" transform="scale(0.015625)"/>
        <path id="DejaVuSans-34" d="M 2419 4116 
L 825 1625 
L 2419 1625 
L 2419 4116 
z
M 2253 4666 
L 3047 4666 
L 3047 1625 
L 3713 1625 
L 3713 1100 
L 3047 1100 
L 3047 0 
L 2419 0 
L 2419 1100 
L 313 1100 
L 313 1709 
L 2253 4666 
z
" transform="scale(0.015625)"/>
       </defs>
       <use xlink:href="#DejaVuSans-2212"/>
       <use xlink:href="#DejaVuSans-34" x="83.789062"/>
       <use xlink:href="#DejaVuSans-30" x="147.412109"/>
      </g>
     </g>
    </g>
    <g id="ytick_2">
     <g id="line2d_7">
      <g>
       <use xlink:href="#m629cad3dda" x="270" y="949.986925" style="stroke: #000000; stroke-width: 0.8"/>
      </g>
     </g>
     <g id="text_7">
      <!-- −30 -->
      <g transform="translate(241.895312 953.786144) scale(0.1 -0.1)">
       <defs>
        <path id="DejaVuSans-33" d="M 2597 2516 
Q 3050 2419 3304 2112 
Q 3559 1806 3559 1356 
Q 3559 666 3084 287 
Q 2609 -91 1734 -91 
Q 1441 -91 1130 -33 
Q 819 25 488 141 
L 488 750 
Q 750 597 1062 519 
Q 1375 441 1716 441 
Q 2309 441 2620 675 
Q 2931 909 2931 1356 
Q 2931 1769 2642 2001 
Q 2353 2234 1838 2234 
L 1294 2234 
L 1294 2753 
L 1863 2753 
Q 2328 2753 2575 2939 
Q 2822 3125 2822 3475 
Q 2822 3834 2567 4026 
Q 2313 4219 1838 4219 
Q 1578 4219 1281 4162 
Q 984 4106 628 3988 
L 628 4550 
Q 988 4650 1302 4700 
Q 1616 4750 1894 4750 
Q 2613 4750 3031 4423 
Q 3450 4097 3450 3541 
Q 3450 3153 3228 2886 
Q 3006 2619 2597 2516 
z
" transform="scale(0.015625)"/>
       </defs>
       <use xlink:href="#DejaVuSans-2212"/>
       <use xlink:href="#DejaVuSans-33" x="83.789062"/>
       <use xlink:href="#DejaVuSans-30" x="147.412109"/>
      </g>
     </g>
    </g>
    <g id="ytick_3">
     <g id="line2d_8">
      <g>
       <use xlink:href="#m629cad3dda" x="270" y="709.329003" style="stroke: #000000; stroke-width: 0.8"/>
      </g>
     </g>
     <g id="text_8">
      <!-- −20 -->
      <g transform="translate(241.895312 713.128221) scale(0.1 -0.1)">
       <use xlink:href="#DejaVuSans-2212"/>
       <use xlink:href="#DejaVuSans-32" x="83.789062"/>
       <use xlink:href="#DejaVuSans-30" x="147.412109"/>
      </g>
     </g>
    </g>
    <g id="ytick_4">
     <g id="line2d_9">
      <g>
       <use xlink:href="#m629cad3dda" x="270" y="468.671081" style="stroke: #000000; stroke-width: 0.8"/>
      </g>
     </g>
     <g id="text_9">
      <!-- −10 -->
      <g transform="translate(241.895312 472.470299) scale(0.1 -0.1)">
       <use xlink:href="#DejaVuSans-2212"/>
       <use xlink:href="#DejaVuSans-31" x="83.789062"/>
       <use xlink:href="#DejaVuSans-30" x="147.412109"/>
      </g>
     </g>
    </g>
    <g id="ytick_5">
     <g id="line2d_10">
      <g>
       <use xlink:href="#m629cad3dda" x="270" y="228.013158" style="stroke: #000000; stroke-width: 0.8"/>
      </g>
     </g>
     <g id="text_10">
      <!-- 0 -->
      <g transform="translate(256.6375 231.812377) scale(0.1 -0.1)">
       <use xlink:href="#DejaVuSans-30"/>
      </g>
     </g>
    </g>
   </g>
   <g id="line2d_11">
    <path d="M 292.379679 228.013158 
L 302.745441 228.013158 
L 302.952756 223.2 
L 303.574702 223.2 
L 303.782017 226.408772 
L 304.403963 226.408772 
L 304.611278 231.863685 
L 305.233223 231.863685 
L 305.440539 232.480757 
L 306.062484 232.480757 
L 306.2698 238.598581 
L 306.891745 238.598581 
L 307.099061 241.257702 
L 307.721006 241.257702 
L 307.928321 244.103578 
L 308.550267 244.103578 
L 308.757582 246.602875 
L 309.379528 246.602875 
L 309.586843 249.844672 
L 310.208789 249.844672 
L 310.416104 252.311525 
L 311.867311 252.311525 
L 312.074626 250.269319 
L 313.525833 250.269319 
L 313.733148 253.172803 
L 314.355094 253.172803 
L 314.562409 250.719432 
L 315.184355 250.719432 
L 315.39167 248.740265 
L 316.842876 248.740265 
L 317.050192 249.23729 
L 317.672137 249.23729 
L 317.879453 246.794745 
L 319.330659 246.794745 
L 319.537974 244.361983 
L 320.15992 244.361983 
L 320.367235 241.938538 
L 320.989181 241.938538 
L 321.196496 244.183718 
L 321.818442 244.183718 
L 322.025757 240.537386 
L 323.476964 240.537386 
L 323.684279 237.158099 
L 324.306225 237.158099 
L 324.51354 239.284203 
L 325.135486 239.284203 
L 325.342801 237.158099 
L 325.964747 237.158099 
L 326.172062 240.405907 
L 327.623268 240.405907 
L 327.830584 242.698367 
L 328.452529 242.698367 
L 328.659845 246.691698 
L 329.28179 246.691698 
L 329.489105 246.091535 
L 330.111051 246.091535 
L 330.318366 247.602709 
L 330.940312 247.602709 
L 331.147627 247.02584 
L 331.769573 247.02584 
L 331.976888 246.461839 
L 332.598834 246.461839 
L 332.806149 247.450949 
L 333.428095 247.450949 
L 333.63541 253.11421 
L 334.257356 253.11421 
L 334.464671 251.095714 
L 335.086617 251.095714 
L 335.293932 252.662185 
L 335.915878 252.662185 
L 336.123193 258.252354 
L 336.745138 258.252354 
L 336.952454 260.161632 
L 337.574399 260.161632 
L 337.781715 261.845698 
L 340.062182 261.845698 
L 340.269497 263.712756 
L 340.891443 263.712756 
L 341.098758 267.26388 
L 341.720704 267.26388 
L 341.928019 265.399792 
L 342.549965 265.399792 
L 342.75728 268.957018 
L 343.379226 268.957018 
L 343.586541 272.481527 
L 344.208487 272.481527 
L 344.415802 274.182963 
L 345.037748 274.182963 
L 345.245063 279.562949 
L 345.867009 279.562949 
L 346.074324 283.17806 
L 346.69627 283.17806 
L 346.903585 288.62219 
L 347.52553 288.62219 
L 347.732846 293.974989 
L 348.354791 293.974989 
L 348.562107 297.570974 
L 349.184052 297.570974 
L 349.391368 299.410022 
L 350.013313 299.410022 
L 350.220628 303.006007 
L 350.842574 303.006007 
L 351.049889 301.273754 
L 351.671835 301.273754 
L 351.87915 297.851693 
L 352.501096 297.851693 
L 352.708411 294.469148 
L 353.330357 294.469148 
L 353.537672 292.777876 
L 354.159618 292.777876 
L 354.366933 296.393033 
L 355.81814 296.409206 
L 356.025455 296.71904 
L 356.647401 296.71904 
L 356.854716 302.350292 
L 358.305922 302.348333 
L 358.513238 299.104099 
L 359.135183 299.104099 
L 359.342499 297.483856 
L 359.964444 297.483856 
L 360.17176 294.248725 
L 360.793705 294.248725 
L 361.00102 297.94522 
L 361.622966 297.94522 
L 361.830281 299.561907 
L 363.281488 299.561907 
L 363.488803 301.178593 
L 364.110749 301.178593 
L 364.318064 299.56356 
L 364.94001 299.56356 
L 365.147325 298.450273 
L 365.769271 298.450273 
L 365.976586 295.254952 
L 366.598532 295.254952 
L 366.805847 295.791911 
L 367.427793 295.791911 
L 367.635108 298.515703 
L 368.257054 298.515703 
L 368.464369 299.11525 
L 369.086314 299.11525 
L 369.29363 297.530128 
L 370.744836 297.530128 
L 370.952152 301.290985 
L 371.574097 301.290985 
L 371.781412 299.727949 
L 372.403358 299.727949 
L 372.610673 298.166158 
L 373.232619 298.166158 
L 373.439934 298.81853 
L 374.06188 298.81853 
L 374.269195 299.484205 
L 374.891141 299.484205 
L 375.098456 301.715281 
L 375.720402 301.715281 
L 375.927717 305.51368 
L 376.549663 305.51368 
L 376.756978 311.563053 
L 377.378924 311.563053 
L 377.586239 315.361452 
L 378.208185 315.361452 
L 378.4155 320.70501 
L 379.037446 320.70501 
L 379.244761 326.756665 
L 379.866706 326.756665 
L 380.074022 332.089067 
L 380.695967 332.089067 
L 380.903283 339.706637 
L 381.525228 339.706637 
L 381.732544 345.803618 
L 382.354489 345.803618 
L 382.561804 347.340611 
L 383.18375 347.340611 
L 383.391065 353.45264 
L 384.013011 353.45264 
L 384.220326 354.206096 
L 384.842272 354.206096 
L 385.049587 358.797 
L 386.500794 358.797 
L 386.708109 361.092116 
L 388.159316 361.096358 
L 388.366631 363.394122 
L 388.988577 363.394122 
L 389.195892 361.872606 
L 390.647098 361.871745 
L 390.854414 364.186041 
L 391.476359 364.186041 
L 391.683675 368.018089 
L 392.30562 368.018089 
L 392.512936 364.998335 
L 393.134881 364.998335 
L 393.342196 365.830901 
L 393.964142 365.830901 
L 394.171457 362.829718 
L 394.793403 362.829718 
L 395.000718 358.346053 
L 395.622664 358.346053 
L 395.829979 360.70006 
L 396.451925 360.70006 
L 396.65924 356.2289 
L 397.281186 356.2289 
L 397.488501 360.080667 
L 398.110447 360.080667 
L 398.317762 359.467308 
L 400.59823 359.467308 
L 400.805545 357.987935 
L 401.42749 357.987935 
L 401.634806 355.032596 
L 402.256751 355.032596 
L 402.464067 352.079351 
L 403.086012 352.079351 
L 403.293328 346.182978 
L 403.915273 346.182978 
L 404.122588 340.313091 
L 404.744534 340.313091 
L 404.951849 335.923566 
L 405.573795 335.923566 
L 405.78111 331.544862 
L 406.403056 331.544862 
L 406.610371 330.087838 
L 407.232317 330.087838 
L 407.439632 325.723942 
L 408.061578 325.723942 
L 408.268893 322.818019 
L 409.7201 322.819201 
L 409.927415 321.368847 
L 410.549361 321.368847 
L 410.756676 317.022685 
L 411.378622 317.022685 
L 411.585937 320.920203 
L 412.207882 320.920203 
L 412.415198 316.581864 
L 413.037143 316.581864 
L 413.244459 321.497148 
L 413.866404 321.497148 
L 414.07372 330.745857 
L 414.695665 330.745857 
L 414.90298 329.303469 
L 415.524926 329.303469 
L 415.732241 328.883234 
L 416.354187 328.883234 
L 416.561502 323.125141 
L 417.183448 323.125141 
L 417.390763 325.597326 
L 418.012709 325.597326 
L 418.220024 331.980469 
L 418.84197 331.980469 
L 419.049285 337.981759 
L 419.671231 337.981759 
L 419.878546 341.892744 
L 420.500492 341.892744 
L 420.707807 348.663416 
L 421.329753 348.663416 
L 421.537068 355.062863 
L 422.159014 355.062863 
L 422.366329 358.977378 
L 422.988274 358.977378 
L 423.19559 361.468474 
L 423.817535 361.468474 
L 424.024851 362.180202 
L 424.646796 362.180202 
L 424.854112 368.594434 
L 425.476057 368.594434 
L 425.683372 373.936841 
L 426.305318 373.936841 
L 426.512633 375.014876 
L 427.134579 375.014876 
L 427.341894 377.514967 
L 427.96384 377.514967 
L 428.171155 385.023948 
L 428.793101 385.023948 
L 429.000416 391.453522 
L 429.622362 391.453522 
L 429.829677 402.909773 
L 430.451623 402.909773 
L 430.658938 416.896966 
L 431.280884 416.896966 
L 431.488199 421.930595 
L 432.110145 421.930595 
L 432.31746 432.314521 
L 432.939405 432.314521 
L 433.146721 440.989858 
L 433.768666 440.989858 
L 433.975982 439.577922 
L 434.597927 439.577922 
L 434.805243 436.756511 
L 435.427188 436.756511 
L 435.634503 433.936329 
L 437.08571 433.935953 
L 437.293025 432.526981 
L 437.914971 432.526981 
L 438.122286 431.117637 
L 438.744232 431.117637 
L 438.951547 428.301284 
L 439.573493 428.301284 
L 439.780808 426.609284 
L 440.402754 426.609284 
L 440.610069 426.326311 
L 441.232015 426.326311 
L 441.43933 432.517844 
L 442.061276 432.517844 
L 442.268591 431.112266 
L 442.890537 431.112266 
L 443.097852 433.64665 
L 443.719797 433.64665 
L 443.927113 438.717636 
L 444.549058 438.717636 
L 444.756374 438.44426 
L 445.378319 438.44426 
L 445.585635 440.981958 
L 446.20758 440.981958 
L 446.414895 444.389924 
L 447.036841 444.389924 
L 447.244156 445.528289 
L 447.866102 445.528289 
L 448.073417 447.807217 
L 448.695363 447.807217 
L 448.902678 449.207708 
L 449.524624 449.207708 
L 449.731939 447.550016 
L 450.353885 447.550016 
L 450.5612 447.294515 
L 451.183146 447.294515 
L 451.390461 451.239072 
L 452.012407 451.239072 
L 452.219722 447.040731 
L 452.841668 447.040731 
L 453.048983 448.187512 
L 453.670929 448.187512 
L 453.878244 454.430183 
L 454.500189 454.430183 
L 454.707505 453.031969 
L 455.32945 453.031969 
L 455.536766 456.730779 
L 456.158711 456.730779 
L 456.366027 460.43353 
L 456.987972 460.43353 
L 457.195287 464.137802 
L 457.817233 464.137802 
L 458.024548 475.983189 
L 458.646494 475.983189 
L 458.853809 477.379464 
L 459.475755 477.379464 
L 459.68307 482.725335 
L 460.305016 482.725335 
L 460.512331 482.490987 
L 461.134277 482.490987 
L 461.341592 483.885991 
L 462.792799 483.885991 
L 463.000114 486.67547 
L 463.62206 486.67547 
L 463.829375 486.444599 
L 464.451321 486.444599 
L 464.658636 484.821223 
L 465.280581 484.821223 
L 465.487897 484.594049 
L 466.109842 484.594049 
L 466.317158 485.762665 
L 466.939103 485.762665 
L 467.146419 488.100577 
L 467.768364 488.100577 
L 467.975679 486.708726 
L 468.597625 486.708726 
L 468.80494 486.487807 
L 469.426886 486.487807 
L 469.634201 491.613855 
L 470.256147 491.613855 
L 470.463462 493.960059 
L 471.085408 493.960059 
L 471.292723 495.134011 
L 471.914669 495.134011 
L 472.121984 492.354953 
L 472.74393 492.354953 
L 472.951245 494.709909 
L 473.573191 494.709909 
L 473.780506 491.933161 
L 474.402452 491.933161 
L 474.609767 491.518622 
L 475.231713 491.518622 
L 475.439028 499.226768 
L 476.890234 499.226768 
L 477.09755 501.798121 
L 477.719495 501.798121 
L 477.926811 502.983753 
L 479.378017 502.984428 
L 479.585332 502.787409 
L 480.207278 502.787409 
L 480.414593 509.320829 
L 481.036539 509.320829 
L 481.243854 506.55097 
L 481.8658 506.55097 
L 482.073115 505.16604 
L 482.695061 505.16604 
L 482.902376 506.35695 
L 483.524322 506.35695 
L 483.731637 503.587853 
L 485.182844 503.587853 
L 485.390159 502.203391 
L 486.012105 502.203391 
L 486.21942 500.819096 
L 486.841365 500.819096 
L 487.048681 496.66712 
L 487.670626 496.66712 
L 487.877942 493.899789 
L 488.499887 493.899789 
L 488.707203 489.749131 
L 489.329148 489.749131 
L 489.536463 486.982404 
L 490.158409 486.982404 
L 490.365724 484.216272 
L 490.98767 484.216272 
L 491.194985 480.068149 
L 491.816931 480.068149 
L 492.024246 494.538222 
L 492.646192 494.538222 
L 492.853507 502.46507 
L 493.475453 502.46507 
L 493.682768 511.774397 
L 494.304714 511.774397 
L 494.512029 515.738298 
L 495.133975 515.738298 
L 495.34129 519.702199 
L 495.963236 519.702199 
L 496.170551 530.212037 
L 496.792497 530.212037 
L 496.999812 538.140202 
L 497.621757 538.140202 
L 497.829073 547.449327 
L 498.451018 547.449327 
L 498.658334 559.340549 
L 499.280279 559.340549 
L 499.487595 563.30435 
L 500.10954 563.30435 
L 500.316855 561.923797 
L 500.938801 561.923797 
L 501.146116 559.16313 
L 501.768062 559.16313 
L 501.975377 560.54329 
L 502.597323 560.54329 
L 502.804638 559.163273 
L 503.426584 559.163273 
L 503.633899 557.783399 
L 504.255845 557.783399 
L 504.46316 556.403525 
L 505.085106 556.403525 
L 505.292421 558.987838 
L 505.914367 558.987838 
L 506.121682 557.607964 
L 507.572889 557.608104 
L 507.780204 557.434185 
L 508.402149 557.434185 
L 508.609465 562.778111 
L 509.23141 562.778111 
L 509.438726 563.984505 
L 510.060671 563.984505 
L 510.267987 571.742619 
L 510.889932 571.742619 
L 511.097247 573.12161 
L 511.719193 573.12161 
L 511.926508 574.329165 
L 512.548454 574.329165 
L 512.755769 583.468836 
L 513.377715 583.468836 
L 513.58503 590.022581 
L 514.206976 590.022581 
L 514.414291 589.853019 
L 515.036237 589.853019 
L 515.243552 592.441122 
L 515.865498 592.441122 
L 516.072813 593.819694 
L 516.694759 593.819694 
L 516.902074 591.062677 
L 517.52402 591.062677 
L 517.731335 593.651644 
L 518.353281 593.651644 
L 518.560596 597.451974 
L 519.182541 597.451974 
L 519.389857 596.073624 
L 520.011802 596.073624 
L 520.219118 595.906541 
L 521.670324 595.906449 
L 521.877639 597.28449 
L 522.499585 597.28449 
L 522.7069 599.875041 
L 523.328846 599.875041 
L 523.536161 599.709814 
L 524.158107 599.709814 
L 524.365422 598.331896 
L 524.987368 598.331896 
L 525.194683 600.923117 
L 525.816629 600.923117 
L 526.023944 607.483957 
L 526.64589 607.483957 
L 526.853205 608.69822 
L 527.475151 608.69822 
L 527.682466 612.667897 
L 528.304412 612.667897 
L 528.511727 614.045365 
L 529.133673 614.045365 
L 529.340988 615.422743 
L 529.962933 615.422743 
L 530.170249 618.015041 
L 531.621455 618.015041 
L 531.82877 619.392302 
L 532.450716 619.392302 
L 532.658031 620.607572 
L 533.279977 620.607572 
L 533.487292 620.445929 
L 534.109238 620.445929 
L 534.316553 623.038692 
L 534.938499 623.038692 
L 535.145814 622.877915 
L 535.76776 622.877915 
L 535.975075 625.470855 
L 536.597021 625.470855 
L 536.804336 632.114649 
L 537.426282 632.114649 
L 537.633597 634.867937 
L 539.084804 634.868046 
L 539.292119 640.056877 
L 539.914064 640.056877 
L 540.12138 637.304433 
L 540.743325 637.304433 
L 540.950641 639.899312 
L 541.572586 639.899312 
L 541.779902 645.246422 
L 542.401847 645.246422 
L 542.609162 643.870463 
L 544.060369 643.870463 
L 544.267684 646.465639 
L 544.88963 646.465639 
L 545.096945 647.841423 
L 545.718891 647.841423 
L 545.926206 653.188187 
L 546.548152 653.188187 
L 546.755467 655.783864 
L 547.377413 655.783864 
L 547.584728 659.755255 
L 548.206674 659.755255 
L 548.413989 662.35124 
L 549.035935 662.35124 
L 549.24325 668.919324 
L 549.865196 668.919324 
L 550.072511 666.168711 
L 550.694456 666.168711 
L 550.901772 664.793503 
L 551.523717 664.793503 
L 551.731033 663.418295 
L 552.352978 663.418295 
L 552.560294 664.640241 
L 553.182239 664.640241 
L 553.389554 666.015266 
L 554.840761 666.015266 
L 555.048076 664.640241 
L 556.499283 664.640241 
L 556.706598 661.890481 
L 557.328544 661.890481 
L 557.535859 661.738717 
L 558.157805 661.738717 
L 558.36512 662.962163 
L 558.987066 662.962163 
L 559.194381 664.185701 
L 559.816327 664.185701 
L 560.023642 669.38178 
L 560.645588 669.38178 
L 560.852903 670.756057 
L 561.474848 670.756057 
L 561.682164 672.130335 
L 562.304109 672.130335 
L 562.511425 673.504612 
L 563.13337 673.504612 
L 563.340686 677.327652 
L 564.791892 677.327652 
L 564.999207 681.300722 
L 565.621153 681.300722 
L 565.828468 684.048497 
L 566.450414 684.048497 
L 566.657729 691.994942 
L 567.279675 691.994942 
L 567.48699 698.715217 
L 568.108936 698.715217 
L 568.316251 699.941731 
L 568.938197 699.941731 
L 569.145512 703.915157 
L 569.767458 703.915157 
L 569.974773 703.768762 
L 570.596719 703.768762 
L 570.804034 706.369201 
L 571.42598 706.369201 
L 571.633295 707.742452 
L 572.25524 707.742452 
L 572.462556 714.316987 
L 573.084501 714.316987 
L 573.291817 718.291007 
L 573.913762 718.291007 
L 574.121078 722.265102 
L 575.572284 722.265102 
L 575.779599 723.638019 
L 577.230806 723.638019 
L 577.438121 726.239118 
L 578.889328 726.239118 
L 579.096643 727.612034 
L 580.54785 727.612034 
L 580.755165 731.586376 
L 581.377111 731.586376 
L 581.584426 730.213543 
L 582.206372 730.213543 
L 582.413687 728.840793 
L 583.035632 728.840793 
L 583.242948 736.790037 
L 583.864893 736.790037 
L 584.072209 735.41745 
L 584.694154 735.41745 
L 584.90147 739.392188 
L 585.523415 739.392188 
L 585.73073 738.019682 
L 586.352676 738.019682 
L 586.559991 744.597054 
L 587.181937 744.597054 
L 587.389252 749.944382 
L 588.840459 749.944382 
L 589.047774 755.291553 
L 589.66972 755.291553 
L 589.877035 759.266612 
L 590.498981 759.266612 
L 590.706296 763.241749 
L 591.328242 763.241749 
L 591.535557 765.845005 
L 592.157503 765.845005 
L 592.364818 768.588535 
L 592.986764 768.588535 
L 593.194079 772.563672 
L 593.816024 772.563672 
L 594.02334 776.538884 
L 594.645285 776.538884 
L 594.852601 779.142672 
L 597.133068 779.142597 
L 597.340383 777.771173 
L 602.108634 777.771173 
L 602.315949 780.375112 
L 602.937895 780.375112 
L 603.14521 780.236352 
L 603.767156 780.236352 
L 603.974471 784.211937 
L 604.596416 784.211937 
L 604.803732 788.187597 
L 605.425677 788.187597 
L 605.632993 790.792059 
L 606.254938 790.792059 
L 606.462254 793.396742 
L 607.084199 793.396742 
L 607.291514 796.0015 
L 607.91346 796.0015 
L 608.120775 797.235352 
L 608.742721 797.235352 
L 608.950036 801.211532 
L 609.571982 801.211532 
L 609.779297 806.422214 
L 611.230504 806.422214 
L 611.437819 807.656786 
L 612.059765 807.656786 
L 612.26708 809.027698 
L 612.889026 809.027698 
L 613.096341 811.633329 
L 613.718287 811.633329 
L 613.925602 813.0041 
L 614.547548 813.0041 
L 614.754863 814.239178 
L 615.376808 814.239178 
L 615.584124 820.822004 
L 616.206069 820.822004 
L 616.413385 824.798913 
L 617.03533 824.798913 
L 617.242646 832.752937 
L 617.864591 832.752937 
L 618.071906 835.359562 
L 618.693852 835.359562 
L 618.901167 839.336744 
L 619.523113 839.336744 
L 619.730428 844.684203 
L 620.352374 844.684203 
L 620.559689 848.661447 
L 622.010896 848.661447 
L 622.218211 852.638769 
L 623.669418 852.638769 
L 623.876733 855.246151 
L 624.498679 855.246151 
L 624.705994 853.876069 
L 625.32794 853.876069 
L 625.535255 856.483594 
L 626.1572 856.483594 
L 626.364516 857.853611 
L 626.986461 857.853611 
L 627.193777 860.461267 
L 627.815722 860.461267 
L 628.023038 859.09125 
L 628.644983 859.09125 
L 628.852298 867.046804 
L 629.474244 867.046804 
L 629.681559 866.915101 
L 630.303505 866.915101 
L 630.51082 877.479699 
L 631.132766 877.479699 
L 631.340081 882.696944 
L 631.962027 882.696944 
L 632.169342 883.936103 
L 632.791288 883.936103 
L 632.998603 891.893339 
L 633.620549 891.893339 
L 633.827864 895.742468 
L 634.44981 895.742468 
L 634.657125 897.111885 
L 635.279071 897.111885 
L 635.486386 901.090749 
L 636.108331 901.090749 
L 636.315647 903.700382 
L 636.937592 903.700382 
L 637.144908 907.679445 
L 637.766853 907.679445 
L 637.974169 915.637773 
L 638.596114 915.637773 
L 638.803429 920.858204 
L 639.425375 920.858204 
L 639.63269 926.206633 
L 640.254636 926.206633 
L 640.461951 932.796755 
L 641.083897 932.796755 
L 641.291212 940.75611 
L 641.913158 940.75611 
L 642.120473 939.387319 
L 642.742419 939.387319 
L 642.949734 945.978244 
L 643.57168 945.978244 
L 643.778995 944.609512 
L 645.230202 944.609512 
L 645.437517 947.3468 
L 646.888723 947.3468 
L 647.096039 950.471073 
L 648.547245 950.471073 
L 648.754561 951.869959 
L 649.376506 951.869959 
L 649.583821 954.48169 
L 650.205767 954.48169 
L 650.413082 953.082804 
L 651.035028 953.082804 
L 651.242343 955.694764 
L 651.864289 955.694764 
L 652.071604 959.705626 
L 652.69355 959.705626 
L 652.900865 965.115148 
L 653.522811 965.115148 
L 653.730126 969.126122 
L 654.352072 969.126122 
L 654.559387 966.329252 
L 656.839855 966.329252 
L 657.04717 964.930817 
L 657.669115 964.930817 
L 657.876431 966.329141 
L 658.498376 966.329141 
L 658.705692 970.340115 
L 660.156898 970.340115 
L 660.364213 974.351198 
L 660.986159 974.351198 
L 661.193474 980.261989 
L 661.81542 980.261989 
L 662.022735 986.916709 
L 662.644681 986.916709 
L 662.851996 990.957938 
L 663.473942 990.957938 
L 663.681257 992.384718 
L 664.303203 992.384718 
L 664.510518 990.957938 
L 665.132464 990.957938 
L 665.339779 992.38456 
L 665.961725 992.38456 
L 666.16904 993.811117 
L 666.790986 993.811117 
L 666.998301 994.998979 
L 667.620247 994.998979 
L 667.827562 1000.228762 
L 668.449507 1000.228762 
L 668.656823 1002.844122 
L 670.108029 1002.843967 
L 670.315345 1006.885727 
L 670.93729 1006.885727 
L 671.144605 1009.501525 
L 672.595812 1009.501525 
L 672.803127 1008.075435 
L 675.083595 1008.075435 
L 675.29091 1012.117297 
L 675.912856 1012.117297 
L 676.120171 1010.691361 
L 676.742117 1010.691361 
L 676.949432 1015.923712 
L 677.571378 1015.923712 
L 677.778693 1022.58271 
L 678.400639 1022.58271 
L 678.607954 1028.05079 
L 679.229899 1028.05079 
L 679.437215 1030.668183 
L 680.05916 1030.668183 
L 680.266476 1033.285553 
L 680.888421 1033.285553 
L 681.095737 1037.328317 
L 681.717682 1037.328317 
L 681.924997 1039.946111 
L 682.546943 1039.946111 
L 682.754258 1039.714235 
L 683.376204 1039.714235 
L 683.583519 1044.950911 
L 684.205465 1044.950911 
L 684.41278 1054.462269 
L 685.034726 1054.462269 
L 685.242041 1055.886678 
L 685.863987 1055.886678 
L 686.071302 1059.2337 
L 686.693248 1059.2337 
L 686.900563 1060.373307 
L 687.522509 1060.373307 
L 687.729824 1063.221557 
L 688.35177 1063.221557 
L 688.559085 1067.209668 
L 689.181031 1067.209668 
L 689.388346 1068.350351 
L 690.010291 1068.350351 
L 690.217607 1076.32829 
L 690.839552 1076.32829 
L 691.046868 1081.741013 
L 691.668813 1081.741013 
L 691.876129 1082.883446 
L 692.498074 1082.883446 
L 692.705389 1088.296297 
L 693.327335 1088.296297 
L 693.53465 1089.439341 
L 694.985857 1089.439341 
L 695.193172 1095.99597 
L 695.815118 1095.99597 
L 696.022433 1097.419014 
L 697.47364 1097.419014 
L 697.680955 1099.986206 
L 698.302901 1099.986206 
L 698.510216 1101.409192 
L 699.961423 1101.409192 
L 700.168738 1102.553766 
L 700.790683 1102.553766 
L 700.997999 1106.544493 
L 701.619944 1106.544493 
L 701.82726 1109.112601 
L 702.449205 1109.112601 
L 702.656521 1112.8274 
L 703.278466 1112.8274 
L 703.485781 1118.24123 
L 704.107727 1118.24123 
L 704.315042 1126.224544 
L 704.936988 1126.224544 
L 705.144303 1134.208565 
L 705.766249 1134.208565 
L 705.973564 1137.05162 
L 706.59551 1137.05162 
L 706.802825 1138.472886 
L 708.254032 1138.472886 
L 708.461347 1150.447944 
L 709.083293 1150.447944 
L 709.290608 1153.289151 
L 709.912554 1153.289151 
L 710.119869 1157.280724 
L 710.741815 1157.280724 
L 710.94913 1161.272071 
L 711.571075 1161.272071 
L 711.778391 1167.8356 
L 712.400336 1167.8356 
L 712.607652 1175.819801 
L 713.229597 1175.819801 
L 713.436913 1183.804663 
L 714.058858 1183.804663 
L 714.266173 1185.223784 
L 715.71738 1185.223784 
L 715.924695 1190.634983 
L 718.205163 1190.634983 
L 718.412478 1192.053722 
L 719.034424 1192.053722 
L 719.241739 1193.208752 
L 722.351467 1193.208752 
L 722.558783 1196.045747 
L 723.180728 1196.045747 
L 723.388044 1197.20142 
L 724.009989 1197.20142 
L 724.217305 1198.357206 
L 724.83925 1198.357206 
L 725.046565 1196.938789 
L 725.668511 1196.938789 
L 725.875826 1200.931569 
L 726.497772 1200.931569 
L 726.705087 1202.349667 
L 727.327033 1202.349667 
L 727.534348 1200.931569 
L 728.156294 1200.931569 
L 728.363609 1203.506408 
L 728.985555 1203.506408 
L 729.19287 1204.924348 
L 730.644077 1204.924348 
L 730.851392 1207.499299 
L 731.473338 1207.499299 
L 731.680653 1206.081358 
L 732.302598 1206.081358 
L 732.509914 1212.649985 
L 733.131859 1212.649985 
L 733.339175 1211.232202 
L 733.96112 1211.232202 
L 734.168436 1209.814418 
L 734.790381 1209.814418 
L 734.997696 1211.232046 
L 735.619642 1211.232046 
L 735.826957 1219.218924 
L 736.448903 1219.218924 
L 736.656218 1223.212398 
L 737.278164 1223.212398 
L 737.485479 1227.206123 
L 738.936686 1227.206123 
L 739.144001 1231.2 
L 739.765947 1231.2 
L 739.973262 1230.943308 
L 739.973262 1230.943308 
" clip-path="url(#p7616f13c88)" style="fill: none; stroke: #0000ff; stroke-width: 1.5; stroke-linecap: square"/>
   </g>
   <g id="patch_3">
    <path d="M 270 1281.6 
L 270 172.8 
" style="fill: none; stroke: #000000; stroke-width: 0.8; stroke-linejoin: miter; stroke-linecap: square"/>
   </g>
   <g id="patch_4">
    <path d="M 762.352941 1281.6 
L 762.352941 172.8 
" style="fill: none; stroke: #000000; stroke-width: 0.8; stroke-linejoin: miter; stroke-linecap: square"/>
   </g>
   <g id="patch_5">
    <path d="M 270 1281.6 
L 762.352941 1281.6 
" style="fill: none; stroke: #000000; stroke-width: 0.8; stroke-linejoin: miter; stroke-linecap: square"/>
   </g>
   <g id="patch_6">
    <path d="M 270 172.8 
L 762.352941 172.8 
" style="fill: none; stroke: #000000; stroke-width: 0.8; stroke-linejoin: miter; stroke-linecap: square"/>
   </g>
   <g id="legend_1">
    <g id="patch_7">
     <path d="M 671.310754 195.478125 
L 755.352941 195.478125 
Q 757.352941 195.478125 757.352941 193.478125 
L 757.352941 179.8 
Q 757.352941 177.8 755.352941 177.8 
L 671.310754 177.8 
Q 669.310754 177.8 669.310754 179.8 
L 669.310754 193.478125 
Q 669.310754 195.478125 671.310754 195.478125 
z
" style="fill: #ffffff; opacity: 0.8; stroke: #cccccc; stroke-linejoin: miter"/>
    </g>
    <g id="line2d_12">
     <path d="M 673.310754 185.898437 
L 683.310754 185.898437 
L 693.310754 185.898437 
" style="fill: none; stroke: #0000ff; stroke-width: 1.5; stroke-linecap: square"/>
    </g>
    <g id="text_11">
     <!-- O1 reward -->
     <g transform="translate(701.310754 189.398437) scale(0.1 -0.1)">
      <defs>
       <path id="DejaVuSans-4f" d="M 2522 4238 
Q 1834 4238 1429 3725 
Q 1025 3213 1025 2328 
Q 1025 1447 1429 934 
Q 1834 422 2522 422 
Q 3209 422 3611 934 
Q 4013 1447 4013 2328 
Q 4013 3213 3611 3725 
Q 3209 4238 2522 4238 
z
M 2522 4750 
Q 3503 4750 4090 4092 
Q 4678 3434 4678 2328 
Q 4678 1225 4090 567 
Q 3503 -91 2522 -91 
Q 1538 -91 948 565 
Q 359 1222 359 2328 
Q 359 3434 948 4092 
Q 1538 4750 2522 4750 
z
" transform="scale(0.015625)"/>
       <path id="DejaVuSans-20" transform="scale(0.015625)"/>
       <path id="DejaVuSans-72" d="M 2631 2963 
Q 2534 3019 2420 3045 
Q 2306 3072 2169 3072 
Q 1681 3072 1420 2755 
Q 1159 2438 1159 1844 
L 1159 0 
L 581 0 
L 581 3500 
L 1159 3500 
L 1159 2956 
Q 1341 3275 1631 3429 
Q 1922 3584 2338 3584 
Q 2397 3584 2469 3576 
Q 2541 3569 2628 3553 
L 2631 2963 
z
" transform="scale(0.015625)"/>
       <path id="DejaVuSans-65" d="M 3597 1894 
L 3597 1613 
L 953 1613 
Q 991 1019 1311 708 
Q 1631 397 2203 397 
Q 2534 397 2845 478 
Q 3156 559 3463 722 
L 3463 178 
Q 3153 47 2828 -22 
Q 2503 -91 2169 -91 
Q 1331 -91 842 396 
Q 353 884 353 1716 
Q 353 2575 817 3079 
Q 1281 3584 2069 3584 
Q 2775 3584 3186 3129 
Q 3597 2675 3597 1894 
z
M 3022 2063 
Q 3016 2534 2758 2815 
Q 2500 3097 2075 3097 
Q 1594 3097 1305 2825 
Q 1016 2553 972 2059 
L 3022 2063 
z
" transform="scale(0.015625)"/>
       <path id="DejaVuSans-77" d="M 269 3500 
L 844 3500 
L 1563 769 
L 2278 3500 
L 2956 3500 
L 3675 769 
L 4391 3500 
L 4966 3500 
L 4050 0 
L 3372 0 
L 2619 2869 
L 1863 0 
L 1184 0 
L 269 3500 
z
" transform="scale(0.015625)"/>
       <path id="DejaVuSans-61" d="M 2194 1759 
Q 1497 1759 1228 1600 
Q 959 1441 959 1056 
Q 959 750 1161 570 
Q 1363 391 1709 391 
Q 2188 391 2477 730 
Q 2766 1069 2766 1631 
L 2766 1759 
L 2194 1759 
z
M 3341 1997 
L 3341 0 
L 2766 0 
L 2766 531 
Q 2569 213 2275 61 
Q 1981 -91 1556 -91 
Q 1019 -91 701 211 
Q 384 513 384 1019 
Q 384 1609 779 1909 
Q 1175 2209 1959 2209 
L 2766 2209 
L 2766 2266 
Q 2766 2663 2505 2880 
Q 2244 3097 1772 3097 
Q 1472 3097 1187 3025 
Q 903 2953 641 2809 
L 641 3341 
Q 956 3463 1253 3523 
Q 1550 3584 1831 3584 
Q 2591 3584 2966 3190 
Q 3341 2797 3341 1997 
z
" transform="scale(0.015625)"/>
       <path id="DejaVuSans-64" d="M 2906 2969 
L 2906 4863 
L 3481 4863 
L 3481 0 
L 2906 0 
L 2906 525 
Q 2725 213 2448 61 
Q 2172 -91 1784 -91 
Q 1150 -91 751 415 
Q 353 922 353 1747 
Q 353 2572 751 3078 
Q 1150 3584 1784 3584 
Q 2172 3584 2448 3432 
Q 2725 3281 2906 2969 
z
M 947 1747 
Q 947 1113 1208 752 
Q 1469 391 1925 391 
Q 2381 391 2643 752 
Q 2906 1113 2906 1747 
Q 2906 2381 2643 2742 
Q 2381 3103 1925 3103 
Q 1469 3103 1208 2742 
Q 947 2381 947 1747 
z
" transform="scale(0.015625)"/>
      </defs>
      <use xlink:href="#DejaVuSans-4f"/>
      <use xlink:href="#DejaVuSans-31" x="78.710938"/>
      <use xlink:href="#DejaVuSans-20" x="142.333984"/>
      <use xlink:href="#DejaVuSans-72" x="174.121094"/>
      <use xlink:href="#DejaVuSans-65" x="212.984375"/>
      <use xlink:href="#DejaVuSans-77" x="274.507812"/>
      <use xlink:href="#DejaVuSans-61" x="356.294922"/>
      <use xlink:href="#DejaVuSans-72" x="417.574219"/>
      <use xlink:href="#DejaVuSans-64" x="456.9375"/>
     </g>
    </g>
   </g>
  </g>
  <g id="axes_2">
   <g id="patch_8">
    <path d="M 860.823529 1281.6 
L 1353.176471 1281.6 
L 1353.176471 172.8 
L 860.823529 172.8 
z
" style="fill: #ffffff"/>
   </g>
   <g id="matplotlib.axis_3">
    <g id="xtick_6">
     <g id="line2d_13">
      <g>
       <use xlink:href="#mdd00fd70f2" x="882.995893" y="1281.6" style="stroke: #000000; stroke-width: 0.8"/>
      </g>
     </g>
     <g id="text_12">
      <!-- 0 -->
      <g transform="translate(879.814643 1296.198437) scale(0.1 -0.1)">
       <use xlink:href="#DejaVuSans-30"/>
      </g>
     </g>
    </g>
    <g id="xtick_7">
     <g id="line2d_14">
      <g>
       <use xlink:href="#mdd00fd70f2" x="986.653509" y="1281.6" style="stroke: #000000; stroke-width: 0.8"/>
      </g>
     </g>
     <g id="text_13">
      <!-- 500 -->
      <g transform="translate(977.109759 1296.198437) scale(0.1 -0.1)">
       <use xlink:href="#DejaVuSans-35"/>
       <use xlink:href="#DejaVuSans-30" x="63.623047"/>
       <use xlink:href="#DejaVuSans-30" x="127.246094"/>
      </g>
     </g>
    </g>
    <g id="xtick_8">
     <g id="line2d_15">
      <g>
       <use xlink:href="#mdd00fd70f2" x="1090.311124" y="1281.6" style="stroke: #000000; stroke-width: 0.8"/>
      </g>
     </g>
     <g id="text_14">
      <!-- 1000 -->
      <g transform="translate(1077.586124 1296.198437) scale(0.1 -0.1)">
       <use xlink:href="#DejaVuSans-31"/>
       <use xlink:href="#DejaVuSans-30" x="63.623047"/>
       <use xlink:href="#DejaVuSans-30" x="127.246094"/>
       <use xlink:href="#DejaVuSans-30" x="190.869141"/>
      </g>
     </g>
    </g>
    <g id="xtick_9">
     <g id="line2d_16">
      <g>
       <use xlink:href="#mdd00fd70f2" x="1193.968739" y="1281.6" style="stroke: #000000; stroke-width: 0.8"/>
      </g>
     </g>
     <g id="text_15">
      <!-- 1500 -->
      <g transform="translate(1181.243739 1296.198437) scale(0.1 -0.1)">
       <use xlink:href="#DejaVuSans-31"/>
       <use xlink:href="#DejaVuSans-35" x="63.623047"/>
       <use xlink:href="#DejaVuSans-30" x="127.246094"/>
       <use xlink:href="#DejaVuSans-30" x="190.869141"/>
      </g>
     </g>
    </g>
    <g id="xtick_10">
     <g id="line2d_17">
      <g>
       <use xlink:href="#mdd00fd70f2" x="1297.626355" y="1281.6" style="stroke: #000000; stroke-width: 0.8"/>
      </g>
     </g>
     <g id="text_16">
      <!-- 2000 -->
      <g transform="translate(1284.901355 1296.198437) scale(0.1 -0.1)">
       <use xlink:href="#DejaVuSans-32"/>
       <use xlink:href="#DejaVuSans-30" x="63.623047"/>
       <use xlink:href="#DejaVuSans-30" x="127.246094"/>
       <use xlink:href="#DejaVuSans-30" x="190.869141"/>
      </g>
     </g>
    </g>
   </g>
   <g id="matplotlib.axis_4">
    <g id="ytick_6">
     <g id="line2d_18">
      <g>
       <use xlink:href="#m629cad3dda" x="860.823529" y="1231.2" style="stroke: #000000; stroke-width: 0.8"/>
      </g>
     </g>
     <g id="text_17">
      <!-- 0 -->
      <g transform="translate(847.461029 1234.999219) scale(0.1 -0.1)">
       <use xlink:href="#DejaVuSans-30"/>
      </g>
     </g>
    </g>
    <g id="ytick_7">
     <g id="line2d_19">
      <g>
       <use xlink:href="#m629cad3dda" x="860.823529" y="1062.849217" style="stroke: #000000; stroke-width: 0.8"/>
      </g>
     </g>
     <g id="text_18">
      <!-- 20 -->
      <g transform="translate(841.098529 1066.648436) scale(0.1 -0.1)">
       <use xlink:href="#DejaVuSans-32"/>
       <use xlink:href="#DejaVuSans-30" x="63.623047"/>
      </g>
     </g>
    </g>
    <g id="ytick_8">
     <g id="line2d_20">
      <g>
       <use xlink:href="#m629cad3dda" x="860.823529" y="894.498435" style="stroke: #000000; stroke-width: 0.8"/>
      </g>
     </g>
     <g id="text_19">
      <!-- 40 -->
      <g transform="translate(841.098529 898.297654) scale(0.1 -0.1)">
       <use xlink:href="#DejaVuSans-34"/>
       <use xlink:href="#DejaVuSans-30" x="63.623047"/>
      </g>
     </g>
    </g>
    <g id="ytick_9">
     <g id="line2d_21">
      <g>
       <use xlink:href="#m629cad3dda" x="860.823529" y="726.147652" style="stroke: #000000; stroke-width: 0.8"/>
      </g>
     </g>
     <g id="text_20">
      <!-- 60 -->
      <g transform="translate(841.098529 729.946871) scale(0.1 -0.1)">
       <defs>
        <path id="DejaVuSans-36" d="M 2113 2584 
Q 1688 2584 1439 2293 
Q 1191 2003 1191 1497 
Q 1191 994 1439 701 
Q 1688 409 2113 409 
Q 2538 409 2786 701 
Q 3034 994 3034 1497 
Q 3034 2003 2786 2293 
Q 2538 2584 2113 2584 
z
M 3366 4563 
L 3366 3988 
Q 3128 4100 2886 4159 
Q 2644 4219 2406 4219 
Q 1781 4219 1451 3797 
Q 1122 3375 1075 2522 
Q 1259 2794 1537 2939 
Q 1816 3084 2150 3084 
Q 2853 3084 3261 2657 
Q 3669 2231 3669 1497 
Q 3669 778 3244 343 
Q 2819 -91 2113 -91 
Q 1303 -91 875 529 
Q 447 1150 447 2328 
Q 447 3434 972 4092 
Q 1497 4750 2381 4750 
Q 2619 4750 2861 4703 
Q 3103 4656 3366 4563 
z
" transform="scale(0.015625)"/>
       </defs>
       <use xlink:href="#DejaVuSans-36"/>
       <use xlink:href="#DejaVuSans-30" x="63.623047"/>
      </g>
     </g>
    </g>
    <g id="ytick_10">
     <g id="line2d_22">
      <g>
       <use xlink:href="#m629cad3dda" x="860.823529" y="557.79687" style="stroke: #000000; stroke-width: 0.8"/>
      </g>
     </g>
     <g id="text_21">
      <!-- 80 -->
      <g transform="translate(841.098529 561.596089) scale(0.1 -0.1)">
       <defs>
        <path id="DejaVuSans-38" d="M 2034 2216 
Q 1584 2216 1326 1975 
Q 1069 1734 1069 1313 
Q 1069 891 1326 650 
Q 1584 409 2034 409 
Q 2484 409 2743 651 
Q 3003 894 3003 1313 
Q 3003 1734 2745 1975 
Q 2488 2216 2034 2216 
z
M 1403 2484 
Q 997 2584 770 2862 
Q 544 3141 544 3541 
Q 544 4100 942 4425 
Q 1341 4750 2034 4750 
Q 2731 4750 3128 4425 
Q 3525 4100 3525 3541 
Q 3525 3141 3298 2862 
Q 3072 2584 2669 2484 
Q 3125 2378 3379 2068 
Q 3634 1759 3634 1313 
Q 3634 634 3220 271 
Q 2806 -91 2034 -91 
Q 1263 -91 848 271 
Q 434 634 434 1313 
Q 434 1759 690 2068 
Q 947 2378 1403 2484 
z
M 1172 3481 
Q 1172 3119 1398 2916 
Q 1625 2713 2034 2713 
Q 2441 2713 2670 2916 
Q 2900 3119 2900 3481 
Q 2900 3844 2670 4047 
Q 2441 4250 2034 4250 
Q 1625 4250 1398 4047 
Q 1172 3844 1172 3481 
z
" transform="scale(0.015625)"/>
       </defs>
       <use xlink:href="#DejaVuSans-38"/>
       <use xlink:href="#DejaVuSans-30" x="63.623047"/>
      </g>
     </g>
    </g>
    <g id="ytick_11">
     <g id="line2d_23">
      <g>
       <use xlink:href="#m629cad3dda" x="860.823529" y="389.446087" style="stroke: #000000; stroke-width: 0.8"/>
      </g>
     </g>
     <g id="text_22">
      <!-- 100 -->
      <g transform="translate(834.736029 393.245306) scale(0.1 -0.1)">
       <use xlink:href="#DejaVuSans-31"/>
       <use xlink:href="#DejaVuSans-30" x="63.623047"/>
       <use xlink:href="#DejaVuSans-30" x="127.246094"/>
      </g>
     </g>
    </g>
    <g id="ytick_12">
     <g id="line2d_24">
      <g>
       <use xlink:href="#m629cad3dda" x="860.823529" y="221.095305" style="stroke: #000000; stroke-width: 0.8"/>
      </g>
     </g>
     <g id="text_23">
      <!-- 120 -->
      <g transform="translate(834.736029 224.894524) scale(0.1 -0.1)">
       <use xlink:href="#DejaVuSans-31"/>
       <use xlink:href="#DejaVuSans-32" x="63.623047"/>
       <use xlink:href="#DejaVuSans-30" x="127.246094"/>
      </g>
     </g>
    </g>
   </g>
   <g id="line2d_25">
    <path d="M 883.203209 1231.2 
L 892.739709 1231.137768 
L 892.947024 1227.746514 
L 893.56897 1227.746514 
L 893.776285 1229.075631 
L 894.398231 1229.075631 
L 894.605546 1228.285205 
L 895.227492 1228.285205 
L 895.434807 1229.843429 
L 896.056753 1229.843429 
L 896.264068 1222.842668 
L 896.886014 1222.842668 
L 897.093329 1212.230544 
L 897.715275 1212.230544 
L 897.92259 1206.951236 
L 898.544536 1206.951236 
L 898.751851 1193.045068 
L 899.373797 1193.045068 
L 899.581112 1180.228868 
L 903.520101 1180.228868 
L 903.727416 1174.666433 
L 906.007884 1174.666433 
L 906.215199 1168.733997 
L 908.495667 1168.733997 
L 908.702982 1160.651155 
L 909.324928 1160.651155 
L 909.532243 1158.381559 
L 910.154189 1158.381559 
L 910.361504 1155.884137 
L 911.81271 1155.884137 
L 912.020026 1140.554232 
L 912.641971 1140.554232 
L 912.849287 1116.446674 
L 913.471232 1116.446674 
L 913.678547 1110.02465 
L 914.300493 1110.02465 
L 914.507808 1097.657995 
L 915.129754 1097.657995 
L 915.337069 1067.721546 
L 915.959015 1067.721546 
L 916.16633 1046.885729 
L 925.080885 1046.885729 
L 925.2882 1040.742109 
L 927.568668 1040.742109 
L 927.775983 1034.688774 
L 928.397929 1034.688774 
L 928.605244 1028.572151 
L 929.22719 1028.572151 
L 929.434505 1022.39386 
L 930.885712 1022.39386 
L 931.093027 1020.213215 
L 934.202755 1020.213215 
L 934.410071 1017.973966 
L 935.032016 1017.973966 
L 935.239331 1003.109338 
L 935.861277 1003.109338 
L 936.068592 991.757478 
L 936.690538 991.757478 
L 936.897853 966.599448 
L 937.519799 966.599448 
L 937.727114 944.467304 
L 938.34906 944.467304 
L 938.556375 927.022918 
L 939.178321 927.022918 
L 939.385636 905.571352 
L 940.007582 905.571352 
L 940.214897 879.517392 
L 940.836843 879.517392 
L 941.044158 867.865367 
L 941.666104 867.865367 
L 941.873419 851.728024 
L 944.153886 851.728024 
L 944.361202 848.084869 
L 944.983147 848.084869 
L 945.190463 840.551616 
L 945.812408 840.551616 
L 946.019723 845.750433 
L 946.641669 845.750433 
L 946.848984 848.223173 
L 947.47093 848.223173 
L 947.678245 853.359845 
L 948.300191 853.359845 
L 948.507506 856.011273 
L 949.129452 856.011273 
L 949.336767 858.420584 
L 949.958713 858.420584 
L 950.166028 850.998058 
L 951.617235 850.998058 
L 951.82455 845.950579 
L 952.446496 845.950579 
L 952.653811 843.625159 
L 953.275757 843.625159 
L 953.483072 836.333041 
L 954.105017 836.333041 
L 954.312333 821.948602 
L 954.934278 821.948602 
L 955.141594 815.061421 
L 955.763539 815.061421 
L 955.970855 809.073928 
L 956.5928 809.073928 
L 956.800115 805.197683 
L 957.422061 805.197683 
L 957.629376 798.83099 
L 958.251322 798.83099 
L 958.458637 805.134805 
L 959.080583 805.134805 
L 959.287898 819.256836 
L 959.909844 819.256836 
L 960.117159 814.83038 
L 960.739105 814.83038 
L 960.94642 802.685779 
L 961.568366 802.685779 
L 961.775681 792.381472 
L 962.397627 792.381472 
L 962.604942 793.869486 
L 963.226888 793.869486 
L 963.434203 784.083289 
L 964.056148 784.083289 
L 964.263464 775.673732 
L 964.885409 775.673732 
L 965.092725 774.310646 
L 966.543931 774.260806 
L 966.751246 775.584091 
L 967.373192 775.584091 
L 967.580507 772.994675 
L 968.202453 772.994675 
L 968.409768 764.911573 
L 969.031714 764.911573 
L 969.239029 766.125371 
L 969.860975 766.125371 
L 970.06829 763.375386 
L 970.690236 763.375386 
L 970.897551 755.499578 
L 971.519497 755.499578 
L 971.726812 750.44045 
L 972.348758 750.44045 
L 972.556073 745.422058 
L 973.178019 745.422058 
L 973.385334 742.689507 
L 974.00728 742.689507 
L 974.214595 741.067159 
L 975.665801 741.067159 
L 975.873117 750.879271 
L 976.495062 750.879271 
L 976.702378 755.712187 
L 977.324323 755.712187 
L 977.531638 753.99275 
L 978.153584 753.99275 
L 978.360899 757.682457 
L 978.982845 757.682457 
L 979.19016 758.596536 
L 979.812106 758.596536 
L 980.019421 768.599266 
L 980.641367 768.599266 
L 980.848682 770.509051 
L 981.470628 770.509051 
L 981.677943 778.50139 
L 982.299889 778.50139 
L 982.507204 778.11155 
L 983.12915 778.11155 
L 983.336465 770.325666 
L 983.958411 770.325666 
L 984.165726 765.342763 
L 984.787672 765.342763 
L 984.994987 764.606086 
L 985.616932 764.606086 
L 985.824248 760.428279 
L 986.446193 760.428279 
L 986.653509 753.538939 
L 987.275454 753.538939 
L 987.48277 756.298412 
L 988.104715 756.298412 
L 988.31203 759.053302 
L 988.933976 759.053302 
L 989.141291 758.397251 
L 989.763237 758.397251 
L 989.970552 755.633146 
L 990.592498 755.633146 
L 990.799813 748.217621 
L 991.421759 748.217621 
L 991.629074 743.616449 
L 993.080281 743.616449 
L 993.287596 739.677159 
L 993.909542 739.677159 
L 994.116857 744.137098 
L 994.738803 744.137098 
L 994.946118 751.80003 
L 995.568064 751.80003 
L 995.775379 754.067298 
L 996.397324 754.067298 
L 996.60464 753.608528 
L 997.226585 753.608528 
L 997.433901 752.717115 
L 998.055846 752.717115 
L 998.263162 754.649252 
L 998.885107 754.649252 
L 999.092422 747.575617 
L 999.714368 747.575617 
L 999.921683 730.20916 
L 1000.543629 730.20916 
L 1000.750944 719.971978 
L 1001.37289 719.971978 
L 1001.580205 706.509104 
L 1002.202151 706.509104 
L 1002.409466 692.959035 
L 1003.031412 692.959035 
L 1003.238727 680.124638 
L 1003.860673 680.124638 
L 1004.067988 673.422108 
L 1004.689934 673.422108 
L 1004.897249 664.038573 
L 1005.519195 664.038573 
L 1005.72651 651.3933 
L 1006.348456 651.3933 
L 1006.555771 645.147721 
L 1007.177716 645.147721 
L 1007.385032 635.879162 
L 1008.006977 635.879162 
L 1008.214293 639.089806 
L 1008.836238 639.089806 
L 1009.043554 633.560195 
L 1009.665499 633.560195 
L 1009.872814 642.494528 
L 1010.49476 642.494528 
L 1010.702075 642.746432 
L 1011.324021 642.746432 
L 1011.531336 642.954966 
L 1012.153282 642.954966 
L 1012.360597 640.287457 
L 1013.811804 640.380039 
L 1014.019119 640.549081 
L 1014.641065 640.549081 
L 1014.84838 649.238914 
L 1015.470326 649.238914 
L 1015.677641 654.890626 
L 1016.299587 654.890626 
L 1016.506902 657.655488 
L 1017.128848 657.655488 
L 1017.336163 654.88608 
L 1017.958108 654.88608 
L 1018.165424 652.005028 
L 1018.787369 652.005028 
L 1018.994685 646.366194 
L 1019.61663 646.366194 
L 1019.823946 640.791758 
L 1021.275152 640.780572 
L 1021.482467 643.585934 
L 1022.104413 643.585934 
L 1022.311728 640.874961 
L 1022.933674 640.874961 
L 1023.140989 638.180017 
L 1024.592196 638.27787 
L 1024.799511 649.24663 
L 1025.421457 649.24663 
L 1025.628772 652.065453 
L 1026.250718 652.065453 
L 1026.458033 644.504698 
L 1027.079979 644.504698 
L 1027.287294 647.366333 
L 1027.90924 647.366333 
L 1028.116555 650.452369 
L 1028.7385 650.452369 
L 1028.945816 647.806508 
L 1029.567761 647.806508 
L 1029.775077 648.052001 
L 1030.397022 648.052001 
L 1030.604338 651.51449 
L 1031.226283 651.51449 
L 1031.433598 652.459438 
L 1032.884805 652.461241 
L 1033.09212 644.696864 
L 1033.714066 644.696864 
L 1033.921381 639.540434 
L 1034.543327 639.540434 
L 1034.750642 636.964785 
L 1035.372588 636.964785 
L 1035.579903 631.822199 
L 1036.201849 631.822199 
L 1036.409164 629.255249 
L 1037.03111 629.255249 
L 1037.238425 626.689965 
L 1037.860371 626.689965 
L 1038.067686 621.564297 
L 1038.689632 621.564297 
L 1038.896947 616.444999 
L 1039.518892 616.444999 
L 1039.726208 611.331893 
L 1040.348153 611.331893 
L 1040.555469 608.77763 
L 1041.177414 608.77763 
L 1041.38473 601.13785 
L 1042.006675 601.13785 
L 1042.21399 596.06113 
L 1042.835936 596.06113 
L 1043.043251 593.524951 
L 1044.494458 593.524951 
L 1044.701773 590.990209 
L 1045.323719 590.990209 
L 1045.531034 583.402761 
L 1046.15298 583.402761 
L 1046.360295 575.842964 
L 1046.982241 575.842964 
L 1047.189556 568.313776 
L 1047.811502 568.313776 
L 1048.018817 563.309909 
L 1048.640763 563.309909 
L 1048.848078 555.828867 
L 1049.470024 555.828867 
L 1049.677339 564.46519 
L 1050.299284 564.46519 
L 1050.5066 571.237471 
L 1051.128545 571.237471 
L 1051.335861 573.132829 
L 1051.957806 573.132829 
L 1052.165122 575.087888 
L 1052.787067 575.087888 
L 1052.994382 581.294887 
L 1054.445589 581.309394 
L 1054.652904 579.381051 
L 1055.27485 579.381051 
L 1055.482165 582.50913 
L 1056.104111 582.50913 
L 1056.311426 580.013574 
L 1056.933372 580.013574 
L 1057.140687 581.592229 
L 1057.762633 581.592229 
L 1057.969948 572.12663 
L 1058.591894 572.12663 
L 1058.799209 562.697904 
L 1059.421155 562.697904 
L 1059.62847 553.303058 
L 1060.250415 553.303058 
L 1060.457731 546.288996 
L 1061.079676 546.288996 
L 1061.286992 539.301901 
L 1061.908937 539.301901 
L 1062.116253 534.655085 
L 1062.738198 534.655085 
L 1062.945513 527.703338 
L 1063.567459 527.703338 
L 1063.774774 525.391153 
L 1064.39672 525.391153 
L 1064.604035 520.775339 
L 1065.225981 520.775339 
L 1065.433296 516.170874 
L 1066.055242 516.170874 
L 1066.262557 517.111501 
L 1066.884503 517.111501 
L 1067.091818 524.949366 
L 1068.543025 524.946723 
L 1068.75034 523.628942 
L 1070.201547 523.628942 
L 1070.408862 520.031631 
L 1072.689329 520.031631 
L 1072.896645 522.314854 
L 1075.177112 522.314854 
L 1075.384427 520.034191 
L 1076.835634 520.034191 
L 1077.042949 521.028192 
L 1077.664895 521.028192 
L 1077.87221 524.306254 
L 1078.494156 524.306254 
L 1078.701471 523.059288 
L 1079.323417 523.059288 
L 1079.530732 528.613985 
L 1080.152678 528.613985 
L 1080.359993 533.990034 
L 1080.981939 533.990034 
L 1081.189254 537.295226 
L 1081.811199 537.295226 
L 1082.018515 540.600447 
L 1082.64046 540.600447 
L 1082.847776 538.352632 
L 1083.469721 538.352632 
L 1083.677037 533.86137 
L 1084.298982 533.86137 
L 1084.506297 529.37958 
L 1085.128243 529.37958 
L 1085.335558 522.669108 
L 1085.957504 522.669108 
L 1086.164819 520.43608 
L 1086.786765 520.43608 
L 1086.99408 518.205377 
L 1087.616026 518.205377 
L 1087.823341 515.976914 
L 1088.445287 515.976914 
L 1088.652602 513.750665 
L 1090.103809 513.750665 
L 1090.311124 509.303527 
L 1090.93307 509.303527 
L 1091.140385 507.082625 
L 1091.762331 507.082625 
L 1091.969646 509.302553 
L 1092.591591 509.302553 
L 1092.798907 510.435863 
L 1093.420852 510.435863 
L 1093.628168 509.358867 
L 1094.250113 509.358867 
L 1094.457429 507.146459 
L 1095.079374 507.146459 
L 1095.286689 509.357915 
L 1095.908635 509.357915 
L 1096.11595 507.148572 
L 1096.737896 507.148572 
L 1096.945211 504.941463 
L 1097.567157 504.941463 
L 1097.774472 498.332825 
L 1098.396418 498.332825 
L 1098.603733 499.505872 
L 1099.225679 499.505872 
L 1099.432994 492.923975 
L 1100.05494 492.923975 
L 1100.262255 484.173098 
L 1100.884201 484.173098 
L 1101.091516 481.990363 
L 1101.713462 481.990363 
L 1101.920777 477.631029 
L 1102.542723 477.631029 
L 1102.750038 471.101344 
L 1103.371983 471.101344 
L 1103.579299 466.757336 
L 1104.201244 466.757336 
L 1104.40856 462.418866 
L 1105.030505 462.418866 
L 1105.237821 453.764052 
L 1105.859766 453.764052 
L 1106.067081 447.291062 
L 1106.689027 447.291062 
L 1106.896342 442.981827 
L 1107.518288 442.981827 
L 1107.725603 439.941452 
L 1108.347549 439.941452 
L 1108.554864 439.060324 
L 1109.17681 439.060324 
L 1109.384125 442.481302 
L 1110.006071 442.481302 
L 1110.213386 440.753299 
L 1110.835332 440.753299 
L 1111.042647 437.756701 
L 1111.664593 437.756701 
L 1111.871908 441.184907 
L 1113.323115 441.184907 
L 1113.53043 440.344792 
L 1114.152375 440.344792 
L 1114.359691 439.509192 
L 1114.981636 439.509192 
L 1115.188952 437.374878 
L 1115.810897 437.374878 
L 1116.018213 435.24223 
L 1118.29868 435.24223 
L 1118.505995 437.373062 
L 1119.127941 437.373062 
L 1119.335256 436.557845 
L 1119.957202 436.557845 
L 1120.164517 435.747842 
L 1120.786463 435.747842 
L 1120.993778 433.621911 
L 1121.615724 433.621911 
L 1121.823039 431.497598 
L 1123.274246 431.497598 
L 1123.481561 433.620134 
L 1124.103507 433.620134 
L 1124.310822 429.378517 
L 1124.932767 429.378517 
L 1125.140083 427.259431 
L 1125.762028 427.259431 
L 1125.969344 423.023762 
L 1127.42055 423.023762 
L 1127.627865 420.908072 
L 1128.249811 420.908072 
L 1128.457126 416.680684 
L 1129.079072 416.680684 
L 1129.286387 414.568979 
L 1129.908333 414.568979 
L 1130.115648 412.458968 
L 1130.737594 412.458968 
L 1130.944909 410.350519 
L 1131.566855 410.350519 
L 1131.77417 406.13839 
L 1132.396116 406.13839 
L 1132.603431 407.49752 
L 1133.225377 407.49752 
L 1133.432692 408.132888 
L 1134.054638 408.132888 
L 1134.261953 407.404248 
L 1134.883899 407.404248 
L 1135.091214 405.306782 
L 1135.713159 405.306782 
L 1135.920475 410.873449 
L 1136.54242 410.873449 
L 1136.749736 412.966089 
L 1137.371681 412.966089 
L 1137.578997 414.356303 
L 1138.200942 414.356303 
L 1138.408257 412.963247 
L 1139.030203 412.963247 
L 1139.237518 418.533469 
L 1139.859464 418.533469 
L 1140.066779 417.845559 
L 1141.517986 417.845559 
L 1141.725301 415.080605 
L 1144.83503 415.080605 
L 1145.042345 417.162016 
L 1146.493551 417.162016 
L 1146.700867 415.082024 
L 1147.322812 415.082024 
L 1147.530128 413.003437 
L 1148.152073 413.003437 
L 1148.359389 412.341556 
L 1148.981334 412.341556 
L 1149.188649 409.611274 
L 1149.810595 409.611274 
L 1150.01791 408.965052 
L 1150.639856 408.965052 
L 1150.847171 411.035507 
L 1151.469117 411.035507 
L 1151.676432 408.966419 
L 1152.298378 408.966419 
L 1152.505693 410.399439 
L 1153.127639 410.399439 
L 1153.334954 405.639016 
L 1153.9569 405.639016 
L 1154.164215 403.574736 
L 1154.786161 403.574736 
L 1154.993476 401.511779 
L 1155.615422 401.511779 
L 1155.822737 399.449571 
L 1156.444683 399.449571 
L 1156.651998 397.38868 
L 1157.273943 397.38868 
L 1157.481259 395.329274 
L 1158.932465 395.329274 
L 1159.13978 398.84088 
L 1159.761726 398.84088 
L 1159.969041 394.727471 
L 1161.420248 394.727471 
L 1161.627563 396.782794 
L 1162.249509 396.782794 
L 1162.456824 392.676332 
L 1163.07877 392.676332 
L 1163.286085 390.625176 
L 1163.908031 390.625176 
L 1164.115346 388.575439 
L 1164.737292 388.575439 
L 1164.944607 386.526975 
L 1165.566553 386.526975 
L 1165.773868 388.005692 
L 1166.395814 388.005692 
L 1166.603129 389.485516 
L 1167.225074 389.485516 
L 1167.43239 387.440446 
L 1169.712857 387.440446 
L 1169.920172 389.484266 
L 1170.542118 389.484266 
L 1170.749433 388.928456 
L 1171.371379 388.928456 
L 1171.578694 392.460788 
L 1172.20064 392.460788 
L 1172.407955 394.498821 
L 1173.029901 394.498821 
L 1173.237216 398.036562 
L 1173.859162 398.036562 
L 1174.066477 393.966825 
L 1174.688423 393.966825 
L 1174.895738 389.376375 
L 1175.517684 389.376375 
L 1175.724999 385.318957 
L 1176.346945 385.318957 
L 1176.55426 383.29207 
L 1177.176206 383.29207 
L 1177.383521 381.266333 
L 1178.005466 381.266333 
L 1178.212782 380.76494 
L 1178.834727 380.76494 
L 1179.042043 376.225227 
L 1179.663988 376.225227 
L 1179.871304 378.245532 
L 1180.493249 378.245532 
L 1180.700564 374.208454 
L 1182.151771 374.208454 
L 1182.359086 373.726877 
L 1183.810293 373.726877 
L 1184.017608 371.711378 
L 1185.468815 371.711378 
L 1185.67613 371.235803 
L 1187.127337 371.235803 
L 1187.334652 369.222685 
L 1187.956598 369.222685 
L 1188.163913 367.210658 
L 1188.785858 367.210658 
L 1188.993174 369.221989 
L 1189.615119 369.221989 
L 1189.822435 367.211736 
L 1190.44438 367.211736 
L 1190.651696 365.202551 
L 1191.273641 365.202551 
L 1191.480956 363.194632 
L 1192.932163 363.194632 
L 1193.139478 362.743466 
L 1196.249207 362.743338 
L 1196.456522 358.743913 
L 1197.078468 358.743913 
L 1197.285783 360.742433 
L 1197.907729 360.742433 
L 1198.115044 356.748443 
L 1198.73699 356.748443 
L 1198.944305 352.758891 
L 1199.56625 352.758891 
L 1199.773566 350.76562 
L 1200.395511 350.76562 
L 1200.602827 349.960092 
L 1201.224772 349.960092 
L 1201.432088 347.969792 
L 1202.054033 347.969792 
L 1202.261348 349.959422 
L 1202.883294 349.959422 
L 1203.090609 353.541377 
L 1203.712555 353.541377 
L 1203.91987 351.55359 
L 1204.541816 351.55359 
L 1204.749131 353.540717 
L 1206.200338 353.540717 
L 1206.407653 355.527188 
L 1207.85886 355.526534 
L 1208.066175 357.131789 
L 1208.688121 357.131789 
L 1208.895436 353.165387 
L 1209.517382 353.165387 
L 1209.724697 351.18363 
L 1211.175903 351.18363 
L 1211.383219 349.203015 
L 1212.005164 349.203015 
L 1212.21248 351.182983 
L 1213.663686 351.182983 
L 1213.871001 349.203968 
L 1214.492947 349.203968 
L 1214.700262 348.845239 
L 1217.809991 348.845239 
L 1218.017306 346.868475 
L 1218.639252 346.868475 
L 1218.846567 348.488914 
L 1219.468513 348.488914 
L 1219.675828 346.513266 
L 1220.297774 346.513266 
L 1220.505089 346.162166 
L 1221.127034 346.162166 
L 1221.33435 344.188571 
L 1222.785556 344.188571 
L 1222.992872 340.244516 
L 1223.614817 340.244516 
L 1223.822132 342.215439 
L 1224.444078 342.215439 
L 1224.651393 339.909686 
L 1225.273339 339.909686 
L 1225.480654 337.944622 
L 1226.1026 337.944622 
L 1226.309915 335.979398 
L 1226.931861 335.979398 
L 1227.139176 335.657014 
L 1227.761122 335.657014 
L 1227.968437 335.338908 
L 1228.590383 335.338908 
L 1228.797698 338.948231 
L 1229.419644 338.948231 
L 1229.626959 336.673439 
L 1231.078166 336.673439 
L 1231.285481 334.713509 
L 1231.907426 334.713509 
L 1232.114742 338.323617 
L 1232.736687 338.323617 
L 1232.944003 336.365348 
L 1233.565948 336.365348 
L 1233.773264 334.408118 
L 1234.395209 334.408118 
L 1234.602524 336.364742 
L 1235.22447 336.364742 
L 1235.431785 336.066949 
L 1236.882992 336.066949 
L 1237.090307 335.773014 
L 1237.712253 335.773014 
L 1237.919568 333.819044 
L 1238.541514 333.819044 
L 1238.748829 331.866099 
L 1240.200036 331.866099 
L 1240.407351 329.91403 
L 1241.858558 329.91403 
L 1242.065873 331.865501 
L 1242.687818 331.865501 
L 1242.895134 329.915038 
L 1243.517079 329.915038 
L 1243.724395 331.864907 
L 1245.175601 331.864907 
L 1245.382916 333.813595 
L 1246.834123 333.814444 
L 1247.041438 329.661243 
L 1247.663384 329.661243 
L 1247.870699 329.405177 
L 1248.492645 329.405177 
L 1248.69996 329.151101 
L 1249.321906 329.151101 
L 1249.529221 327.210363 
L 1250.980428 327.209788 
L 1251.187743 328.903579 
L 1251.809689 328.903579 
L 1252.017004 326.966618 
L 1252.63895 326.966618 
L 1252.846265 324.796 
L 1253.46821 324.796 
L 1253.675526 318.995461 
L 1254.297471 318.995461 
L 1254.504787 315.132928 
L 1255.126732 315.132928 
L 1255.334048 313.202862 
L 1255.955993 313.202862 
L 1256.163308 311.273591 
L 1256.785254 311.273591 
L 1256.992569 311.059311 
L 1257.614515 311.059311 
L 1257.82183 310.847086 
L 1258.443776 310.847086 
L 1258.651091 312.774078 
L 1260.931559 312.774992 
L 1261.138874 310.85026 
L 1263.419341 310.849705 
L 1263.626657 308.92732 
L 1264.248602 308.92732 
L 1264.455918 310.654429 
L 1265.077863 310.654429 
L 1265.285179 306.812214 
L 1267.565646 306.812986 
L 1267.772961 302.976717 
L 1268.394907 302.976717 
L 1268.602222 297.228689 
L 1269.224168 297.228689 
L 1269.431483 293.400767 
L 1270.053429 293.400767 
L 1270.260744 289.576247 
L 1271.711951 289.576247 
L 1271.919266 286.470093 
L 1273.370473 286.470093 
L 1273.577788 284.407879 
L 1274.199733 284.407879 
L 1274.407049 282.50067 
L 1275.028994 282.50067 
L 1275.23631 280.594188 
L 1276.687516 280.593645 
L 1276.894831 286.164161 
L 1277.516777 286.164161 
L 1277.724092 284.260741 
L 1278.346038 284.260741 
L 1278.553353 282.358037 
L 1279.175299 282.358037 
L 1279.382614 280.456044 
L 1280.00456 280.456044 
L 1280.211875 282.223327 
L 1280.833821 282.223327 
L 1281.041136 280.322043 
L 1281.663082 280.322043 
L 1281.870397 278.421463 
L 1282.492343 278.421463 
L 1282.699658 280.321511 
L 1283.321604 280.321511 
L 1283.528919 278.42216 
L 1284.980125 278.42216 
L 1285.394756 278.29606 
L 1285.809386 278.29606 
L 1286.016702 276.398217 
L 1286.638647 276.398217 
L 1286.845963 274.501179 
L 1287.467908 274.501179 
L 1287.675223 272.604833 
L 1288.297169 272.604833 
L 1288.504484 270.709284 
L 1289.955691 270.709284 
L 1290.163006 268.814421 
L 1290.784952 268.814421 
L 1290.992267 270.708757 
L 1291.614213 270.708757 
L 1291.821528 266.815241 
L 1294.101996 266.814719 
L 1294.309311 264.924395 
L 1294.931257 264.924395 
L 1295.138572 261.145974 
L 1295.760517 261.145974 
L 1295.967833 259.257758 
L 1297.419039 259.165497 
L 1297.626355 261.052535 
L 1298.2483 261.052535 
L 1298.455615 259.166153 
L 1299.077561 259.166153 
L 1299.284876 257.280422 
L 1299.906822 257.280422 
L 1300.114137 259.165637 
L 1300.736083 259.165637 
L 1300.943398 260.967666 
L 1301.565344 260.967666 
L 1301.772659 262.770209 
L 1302.394605 262.770209 
L 1302.60192 260.886915 
L 1303.223866 260.886915 
L 1303.431181 259.004268 
L 1304.882388 259.004268 
L 1305.089703 257.122379 
L 1305.711649 257.122379 
L 1305.918964 253.360516 
L 1306.540909 253.360516 
L 1306.748225 251.480652 
L 1307.37017 251.480652 
L 1307.577486 249.601533 
L 1308.199431 249.601533 
L 1308.406747 251.480145 
L 1309.028692 251.480145 
L 1309.236007 249.602275 
L 1309.857953 249.602275 
L 1310.065268 247.725143 
L 1311.516475 247.725143 
L 1311.72379 243.972752 
L 1312.345736 243.972752 
L 1312.553051 240.222831 
L 1313.174997 240.222831 
L 1313.382312 238.348789 
L 1314.004258 238.348789 
L 1314.211573 236.475356 
L 1314.833519 236.475356 
L 1315.040834 236.337518 
L 1315.66278 236.337518 
L 1315.870095 234.46663 
L 1318.150562 234.467227 
L 1318.357878 232.598156 
L 1319.809084 232.598872 
L 1320.016399 230.701173 
L 1320.638345 230.701173 
L 1320.84566 226.969831 
L 1321.467606 226.969831 
L 1321.674921 232.541165 
L 1322.296867 232.541165 
L 1322.504182 230.6583 
L 1323.126128 230.6583 
L 1323.333443 228.795766 
L 1324.78465 228.780501 
L 1324.991965 225.058803 
L 1325.613911 225.058803 
L 1325.821226 226.918883 
L 1327.272433 226.918883 
L 1327.479748 228.772959 
L 1328.930954 228.772959 
L 1329.13827 225.056967 
L 1330.589476 225.056967 
L 1330.796791 223.2 
L 1330.796791 223.2 
" clip-path="url(#pa3bc1df1b8)" style="fill: none; stroke: #0000ff; stroke-width: 1.5; stroke-linecap: square"/>
   </g>
   <g id="patch_9">
    <path d="M 860.823529 1281.6 
L 860.823529 172.8 
" style="fill: none; stroke: #000000; stroke-width: 0.8; stroke-linejoin: miter; stroke-linecap: square"/>
   </g>
   <g id="patch_10">
    <path d="M 1353.176471 1281.6 
L 1353.176471 172.8 
" style="fill: none; stroke: #000000; stroke-width: 0.8; stroke-linejoin: miter; stroke-linecap: square"/>
   </g>
   <g id="patch_11">
    <path d="M 860.823529 1281.6 
L 1353.176471 1281.6 
" style="fill: none; stroke: #000000; stroke-width: 0.8; stroke-linejoin: miter; stroke-linecap: square"/>
   </g>
   <g id="patch_12">
    <path d="M 860.823529 172.8 
L 1353.176471 172.8 
" style="fill: none; stroke: #000000; stroke-width: 0.8; stroke-linejoin: miter; stroke-linecap: square"/>
   </g>
   <g id="legend_2">
    <g id="patch_13">
     <path d="M 1262.134283 195.478125 
L 1346.176471 195.478125 
Q 1348.176471 195.478125 1348.176471 193.478125 
L 1348.176471 179.8 
Q 1348.176471 177.8 1346.176471 177.8 
L 1262.134283 177.8 
Q 1260.134283 177.8 1260.134283 179.8 
L 1260.134283 193.478125 
Q 1260.134283 195.478125 1262.134283 195.478125 
z
" style="fill: #ffffff; opacity: 0.8; stroke: #cccccc; stroke-linejoin: miter"/>
    </g>
    <g id="line2d_26">
     <path d="M 1264.134283 185.898437 
L 1274.134283 185.898437 
L 1284.134283 185.898437 
" style="fill: none; stroke: #0000ff; stroke-width: 1.5; stroke-linecap: square"/>
    </g>
    <g id="text_24">
     <!-- O2 reward -->
     <g transform="translate(1292.134283 189.398437) scale(0.1 -0.1)">
      <use xlink:href="#DejaVuSans-4f"/>
      <use xlink:href="#DejaVuSans-32" x="78.710938"/>
      <use xlink:href="#DejaVuSans-20" x="142.333984"/>
      <use xlink:href="#DejaVuSans-72" x="174.121094"/>
      <use xlink:href="#DejaVuSans-65" x="212.984375"/>
      <use xlink:href="#DejaVuSans-77" x="274.507812"/>
      <use xlink:href="#DejaVuSans-61" x="356.294922"/>
      <use xlink:href="#DejaVuSans-72" x="417.574219"/>
      <use xlink:href="#DejaVuSans-64" x="456.9375"/>
     </g>
    </g>
   </g>
  </g>
  <g id="axes_3">
   <g id="patch_14">
    <path d="M 1451.647059 1281.6 
L 1944 1281.6 
L 1944 172.8 
L 1451.647059 172.8 
z
" style="fill: #ffffff"/>
   </g>
   <g id="matplotlib.axis_5">
    <g id="xtick_11">
     <g id="line2d_27">
      <g>
       <use xlink:href="#mdd00fd70f2" x="1473.819423" y="1281.6" style="stroke: #000000; stroke-width: 0.8"/>
      </g>
     </g>
     <g id="text_25">
      <!-- 0 -->
      <g transform="translate(1470.638173 1296.198437) scale(0.1 -0.1)">
       <use xlink:href="#DejaVuSans-30"/>
      </g>
     </g>
    </g>
    <g id="xtick_12">
     <g id="line2d_28">
      <g>
       <use xlink:href="#mdd00fd70f2" x="1577.477038" y="1281.6" style="stroke: #000000; stroke-width: 0.8"/>
      </g>
     </g>
     <g id="text_26">
      <!-- 500 -->
      <g transform="translate(1567.933288 1296.198437) scale(0.1 -0.1)">
       <use xlink:href="#DejaVuSans-35"/>
       <use xlink:href="#DejaVuSans-30" x="63.623047"/>
       <use xlink:href="#DejaVuSans-30" x="127.246094"/>
      </g>
     </g>
    </g>
    <g id="xtick_13">
     <g id="line2d_29">
      <g>
       <use xlink:href="#mdd00fd70f2" x="1681.134653" y="1281.6" style="stroke: #000000; stroke-width: 0.8"/>
      </g>
     </g>
     <g id="text_27">
      <!-- 1000 -->
      <g transform="translate(1668.409653 1296.198437) scale(0.1 -0.1)">
       <use xlink:href="#DejaVuSans-31"/>
       <use xlink:href="#DejaVuSans-30" x="63.623047"/>
       <use xlink:href="#DejaVuSans-30" x="127.246094"/>
       <use xlink:href="#DejaVuSans-30" x="190.869141"/>
      </g>
     </g>
    </g>
    <g id="xtick_14">
     <g id="line2d_30">
      <g>
       <use xlink:href="#mdd00fd70f2" x="1784.792269" y="1281.6" style="stroke: #000000; stroke-width: 0.8"/>
      </g>
     </g>
     <g id="text_28">
      <!-- 1500 -->
      <g transform="translate(1772.067269 1296.198437) scale(0.1 -0.1)">
       <use xlink:href="#DejaVuSans-31"/>
       <use xlink:href="#DejaVuSans-35" x="63.623047"/>
       <use xlink:href="#DejaVuSans-30" x="127.246094"/>
       <use xlink:href="#DejaVuSans-30" x="190.869141"/>
      </g>
     </g>
    </g>
    <g id="xtick_15">
     <g id="line2d_31">
      <g>
       <use xlink:href="#mdd00fd70f2" x="1888.449884" y="1281.6" style="stroke: #000000; stroke-width: 0.8"/>
      </g>
     </g>
     <g id="text_29">
      <!-- 2000 -->
      <g transform="translate(1875.724884 1296.198437) scale(0.1 -0.1)">
       <use xlink:href="#DejaVuSans-32"/>
       <use xlink:href="#DejaVuSans-30" x="63.623047"/>
       <use xlink:href="#DejaVuSans-30" x="127.246094"/>
       <use xlink:href="#DejaVuSans-30" x="190.869141"/>
      </g>
     </g>
    </g>
   </g>
   <g id="matplotlib.axis_6">
    <g id="ytick_13">
     <g id="line2d_32">
      <g>
       <use xlink:href="#m629cad3dda" x="1451.647059" y="1231.2" style="stroke: #000000; stroke-width: 0.8"/>
      </g>
     </g>
     <g id="text_30">
      <!-- 0 -->
      <g transform="translate(1438.284559 1234.999219) scale(0.1 -0.1)">
       <use xlink:href="#DejaVuSans-30"/>
      </g>
     </g>
    </g>
    <g id="ytick_14">
     <g id="line2d_33">
      <g>
       <use xlink:href="#m629cad3dda" x="1451.647059" y="1002.57047" style="stroke: #000000; stroke-width: 0.8"/>
      </g>
     </g>
     <g id="text_31">
      <!-- 5 -->
      <g transform="translate(1438.284559 1006.369688) scale(0.1 -0.1)">
       <use xlink:href="#DejaVuSans-35"/>
      </g>
     </g>
    </g>
    <g id="ytick_15">
     <g id="line2d_34">
      <g>
       <use xlink:href="#m629cad3dda" x="1451.647059" y="773.940939" style="stroke: #000000; stroke-width: 0.8"/>
      </g>
     </g>
     <g id="text_32">
      <!-- 10 -->
      <g transform="translate(1431.922059 777.740158) scale(0.1 -0.1)">
       <use xlink:href="#DejaVuSans-31"/>
       <use xlink:href="#DejaVuSans-30" x="63.623047"/>
      </g>
     </g>
    </g>
    <g id="ytick_16">
     <g id="line2d_35">
      <g>
       <use xlink:href="#m629cad3dda" x="1451.647059" y="545.311409" style="stroke: #000000; stroke-width: 0.8"/>
      </g>
     </g>
     <g id="text_33">
      <!-- 15 -->
      <g transform="translate(1431.922059 549.110627) scale(0.1 -0.1)">
       <use xlink:href="#DejaVuSans-31"/>
       <use xlink:href="#DejaVuSans-35" x="63.623047"/>
      </g>
     </g>
    </g>
    <g id="ytick_17">
     <g id="line2d_36">
      <g>
       <use xlink:href="#m629cad3dda" x="1451.647059" y="316.681878" style="stroke: #000000; stroke-width: 0.8"/>
      </g>
     </g>
     <g id="text_34">
      <!-- 20 -->
      <g transform="translate(1431.922059 320.481097) scale(0.1 -0.1)">
       <use xlink:href="#DejaVuSans-32"/>
       <use xlink:href="#DejaVuSans-30" x="63.623047"/>
      </g>
     </g>
    </g>
   </g>
   <g id="line2d_37">
    <path d="M 1474.026738 1231.2 
L 1482.733978 1231.2 
L 1482.941293 1213.366769 
L 1483.563239 1213.366769 
L 1483.770554 1199.116738 
L 1484.392499 1199.116738 
L 1484.599815 1186.995744 
L 1485.22176 1186.995744 
L 1485.429076 1169.031995 
L 1486.051021 1169.031995 
L 1486.258337 1162.991293 
L 1486.880282 1162.991293 
L 1487.087597 1139.474013 
L 1487.709543 1139.474013 
L 1487.916858 1146.306726 
L 1488.538804 1146.306726 
L 1488.746119 1132.923046 
L 1489.368065 1132.923046 
L 1489.57538 1119.726959 
L 1490.197326 1119.726959 
L 1490.404641 1110.775411 
L 1491.026587 1110.775411 
L 1491.233902 1095.614751 
L 1491.855848 1095.614751 
L 1492.063163 1081.383599 
L 1492.685109 1081.383599 
L 1492.892424 1072.564923 
L 1494.343631 1072.564923 
L 1494.550946 1068.683019 
L 1495.172891 1068.683019 
L 1495.380207 1060.182691 
L 1496.002152 1060.182691 
L 1496.209468 1055.448796 
L 1497.660674 1055.448796 
L 1497.867989 1051.914883 
L 1498.489935 1051.914883 
L 1498.69725 1044.172931 
L 1500.148457 1044.172931 
L 1500.355772 1040.929803 
L 1500.977718 1040.929803 
L 1501.185033 1027.257887 
L 1501.806979 1027.257887 
L 1502.014294 1008.073539 
L 1502.63624 1008.073539 
L 1502.843555 994.633693 
L 1503.465501 994.633693 
L 1503.672816 985.690572 
L 1504.294762 985.690572 
L 1504.502077 960.743885 
L 1505.124023 960.743885 
L 1505.331338 948.332352 
L 1505.953283 948.332352 
L 1506.160599 944.436015 
L 1506.782544 944.436015 
L 1506.98986 932.28402 
L 1507.611805 932.28402 
L 1507.819121 924.190735 
L 1508.441066 924.190735 
L 1508.648381 917.284551 
L 1509.270327 917.284551 
L 1509.477642 905.211655 
L 1510.099588 905.211655 
L 1510.306903 900.292104 
L 1510.928849 900.292104 
L 1511.136164 889.293539 
L 1512.587371 889.214759 
L 1512.794686 892.32538 
L 1513.416632 892.32538 
L 1513.623947 894.252333 
L 1514.245893 894.252333 
L 1514.453208 889.739519 
L 1515.075154 889.739519 
L 1515.282469 891.633156 
L 1515.904415 891.633156 
L 1516.11173 888.981738 
L 1516.733675 888.981738 
L 1516.940991 891.959062 
L 1517.562936 891.959062 
L 1517.770252 889.166969 
L 1519.221458 889.166969 
L 1519.428773 886.32161 
L 1520.050719 886.32161 
L 1520.258034 877.922306 
L 1520.87998 877.922306 
L 1521.087295 870.638211 
L 1521.709241 870.638211 
L 1521.916556 875.082161 
L 1522.538502 875.082161 
L 1522.745817 876.86157 
L 1525.026285 876.86157 
L 1525.2336 868.573427 
L 1525.855546 868.573427 
L 1526.062861 852.980277 
L 1526.684807 852.980277 
L 1526.892122 845.418632 
L 1527.514067 845.418632 
L 1527.721383 840.076574 
L 1528.343328 840.076574 
L 1528.550644 836.57455 
L 1529.172589 836.57455 
L 1529.379905 828.211288 
L 1530.00185 828.211288 
L 1530.209165 822.600233 
L 1530.831111 822.600233 
L 1531.038426 818.24551 
L 1531.660372 818.24551 
L 1531.867687 809.331326 
L 1532.489633 809.331326 
L 1532.696948 804.052401 
L 1533.318894 804.052401 
L 1533.526209 796.76941 
L 1534.148155 796.76941 
L 1534.35547 794.769294 
L 1534.977416 794.769294 
L 1535.184731 786.554167 
L 1535.806677 786.554167 
L 1536.013992 779.747235 
L 1536.635938 779.747235 
L 1536.843253 773.06037 
L 1537.465199 773.06037 
L 1537.672514 766.639655 
L 1539.12372 766.639655 
L 1539.331036 762.175935 
L 1539.952981 762.175935 
L 1540.160297 758.300293 
L 1540.782242 758.300293 
L 1540.989557 760.117427 
L 1541.611503 760.117427 
L 1541.818818 756.684973 
L 1542.440764 756.684973 
L 1542.648079 750.720483 
L 1543.270025 750.720483 
L 1543.47734 746.440718 
L 1544.099286 746.440718 
L 1544.306601 742.125259 
L 1544.928547 742.125259 
L 1545.135862 736.413739 
L 1545.757808 736.413739 
L 1545.965123 724.249157 
L 1546.587069 724.249157 
L 1546.794384 722.888271 
L 1547.41633 722.888271 
L 1547.623645 720.984777 
L 1548.245591 720.984777 
L 1548.452906 713.513905 
L 1549.074851 713.513905 
L 1549.282167 708.170207 
L 1549.904112 708.170207 
L 1550.111428 704.487181 
L 1550.733373 704.487181 
L 1550.940689 697.870615 
L 1551.562634 697.870615 
L 1551.769949 690.331242 
L 1552.391895 690.331242 
L 1552.59921 686.321733 
L 1553.221156 686.321733 
L 1553.428471 685.585636 
L 1554.050417 685.585636 
L 1554.257732 683.449919 
L 1554.879678 683.449919 
L 1555.086993 680.580407 
L 1555.708939 680.580407 
L 1555.916254 676.379348 
L 1556.5382 676.379348 
L 1556.745515 675.007393 
L 1557.367461 675.007393 
L 1557.574776 669.087224 
L 1558.196722 669.087224 
L 1558.404037 667.061851 
L 1559.025983 667.061851 
L 1559.233298 663.987519 
L 1559.855243 663.987519 
L 1560.062559 660.929015 
L 1560.684504 660.929015 
L 1560.89182 657.550125 
L 1562.343026 657.550125 
L 1562.550341 655.545434 
L 1563.172287 655.545434 
L 1563.379602 654.542485 
L 1564.001548 654.542485 
L 1564.208863 650.227862 
L 1565.66007 650.227862 
L 1565.867385 651.221787 
L 1566.489331 651.221787 
L 1566.696646 651.557209 
L 1567.318592 651.557209 
L 1567.525907 649.643559 
L 1568.147853 649.643559 
L 1568.355168 643.486706 
L 1568.977114 643.486706 
L 1569.184429 641.008415 
L 1569.806375 641.008415 
L 1570.01369 641.581086 
L 1570.635635 641.581086 
L 1570.842951 635.549937 
L 1571.464896 635.549937 
L 1571.672212 630.631787 
L 1572.294157 630.631787 
L 1572.501473 629.833544 
L 1573.123418 629.833544 
L 1573.330733 627.533612 
L 1573.952679 627.533612 
L 1574.159994 624.266285 
L 1574.78194 624.266285 
L 1574.989255 623.762969 
L 1575.611201 623.762969 
L 1575.818516 620.323934 
L 1576.440462 620.323934 
L 1576.647777 617.639605 
L 1577.269723 617.639605 
L 1577.477038 613.234662 
L 1578.098984 613.234662 
L 1578.306299 610.627861 
L 1578.928245 610.627861 
L 1579.13556 607.149114 
L 1579.757506 607.149114 
L 1579.964821 603.955509 
L 1580.586767 603.955509 
L 1580.794082 601.449781 
L 1581.416027 601.449781 
L 1581.623343 601.025546 
L 1582.245288 601.025546 
L 1582.452604 597.918643 
L 1583.074549 597.918643 
L 1583.281864 593.612813 
L 1583.90381 593.612813 
L 1584.111125 589.850611 
L 1584.733071 589.850611 
L 1584.940386 584.662863 
L 1585.562332 584.662863 
L 1585.769647 579.972186 
L 1586.391593 579.972186 
L 1586.598908 568.916992 
L 1587.220854 568.916992 
L 1587.428169 561.113205 
L 1588.050115 561.113205 
L 1588.25743 555.340394 
L 1588.879376 555.340394 
L 1589.086691 551.724392 
L 1589.708637 551.724392 
L 1589.915952 546.583403 
L 1590.537898 546.583403 
L 1590.745213 542.89363 
L 1591.367158 542.89363 
L 1591.574474 534.327679 
L 1592.196419 534.327679 
L 1592.403735 529.591891 
L 1593.02568 529.591891 
L 1593.232996 524.80676 
L 1593.854941 524.80676 
L 1594.062256 520.975655 
L 1594.684202 520.975655 
L 1594.891517 516.294703 
L 1595.513463 516.294703 
L 1595.720778 511.852734 
L 1596.342724 511.852734 
L 1596.550039 506.935514 
L 1597.171985 506.935514 
L 1597.3793 501.844862 
L 1598.001246 501.844862 
L 1598.208561 500.24112 
L 1598.830507 500.24112 
L 1599.037822 497.284566 
L 1599.659768 497.284566 
L 1599.867083 496.228387 
L 1600.489029 496.228387 
L 1600.696344 494.957811 
L 1601.31829 494.957811 
L 1601.525605 492.862712 
L 1602.14755 492.862712 
L 1602.354866 489.542479 
L 1602.976811 489.542479 
L 1603.184127 488.298464 
L 1603.806072 488.298464 
L 1604.013388 486.247173 
L 1604.635333 486.247173 
L 1604.842648 484.417893 
L 1606.293855 484.417893 
L 1606.50117 484.216782 
L 1607.123116 484.216782 
L 1607.330431 482.793386 
L 1607.952377 482.793386 
L 1608.159692 482.179396 
L 1608.781638 482.179396 
L 1608.988953 480.776035 
L 1609.610899 480.776035 
L 1609.818214 479.780027 
L 1610.44016 479.780027 
L 1610.647475 477.513133 
L 1611.269421 477.513133 
L 1611.476736 473.744783 
L 1612.098682 473.744783 
L 1612.305997 472.947247 
L 1612.927942 472.947247 
L 1613.135258 468.966016 
L 1613.757203 468.966016 
L 1613.964519 466.429795 
L 1614.586464 466.429795 
L 1614.79378 464.85381 
L 1615.415725 464.85381 
L 1615.62304 462.182031 
L 1616.244986 462.182031 
L 1616.452301 458.435035 
L 1617.074247 458.435035 
L 1617.281562 455.508493 
L 1617.903508 455.508493 
L 1618.110823 451.068273 
L 1618.732769 451.068273 
L 1618.940084 449.246635 
L 1619.56203 449.246635 
L 1619.769345 447.29159 
L 1620.391291 447.29159 
L 1620.598606 442.86935 
L 1621.220552 442.86935 
L 1621.427867 441.980235 
L 1622.049813 441.980235 
L 1622.257128 440.966239 
L 1622.879074 440.966239 
L 1623.086389 438.438361 
L 1623.708334 438.438361 
L 1623.91565 436.308895 
L 1624.537595 436.308895 
L 1624.744911 433.149932 
L 1625.366856 433.149932 
L 1625.574172 429.836245 
L 1626.196117 429.836245 
L 1626.403432 428.375972 
L 1627.025378 428.375972 
L 1627.232693 425.930915 
L 1627.854639 425.930915 
L 1628.061954 424.664076 
L 1628.6839 424.664076 
L 1628.891215 425.125274 
L 1629.513161 425.125274 
L 1629.720476 421.520702 
L 1630.342422 421.520702 
L 1630.549737 421.363948 
L 1631.171683 421.363948 
L 1631.378998 419.600556 
L 1632.830205 419.600556 
L 1633.03752 417.584229 
L 1633.659466 417.584229 
L 1633.866781 415.939483 
L 1634.488726 415.939483 
L 1634.696042 413.855751 
L 1635.317987 413.855751 
L 1635.525303 413.138999 
L 1636.147248 413.138999 
L 1636.354564 410.376476 
L 1636.976509 410.376476 
L 1637.183824 408.383974 
L 1637.80577 408.383974 
L 1638.013085 406.322802 
L 1638.635031 406.322802 
L 1638.842346 401.808514 
L 1639.464292 401.808514 
L 1639.671607 398.694318 
L 1641.122814 398.69181 
L 1641.330129 397.796337 
L 1641.952075 397.796337 
L 1642.15939 399.15677 
L 1642.781336 399.15677 
L 1642.988651 396.376814 
L 1643.610597 396.376814 
L 1643.817912 398.212762 
L 1644.439858 398.212762 
L 1644.647173 396.014343 
L 1645.269118 396.014343 
L 1645.683749 395.895429 
L 1646.098379 395.895429 
L 1646.305695 396.490985 
L 1647.756901 396.433913 
L 1647.964216 396.924308 
L 1648.586162 396.924308 
L 1648.793477 394.202458 
L 1649.415423 394.202458 
L 1649.622738 392.44568 
L 1650.244684 392.44568 
L 1650.451999 391.746174 
L 1651.073945 391.746174 
L 1651.28126 390.626557 
L 1651.903206 390.626557 
L 1652.110521 389.586283 
L 1652.732467 389.586283 
L 1652.939782 386.921467 
L 1654.390989 386.921467 
L 1654.598304 385.874268 
L 1655.22025 385.874268 
L 1655.427565 384.213652 
L 1656.04951 384.213652 
L 1656.256826 383.534019 
L 1656.878771 383.534019 
L 1657.086087 382.79773 
L 1657.708032 382.79773 
L 1657.915348 381.166273 
L 1658.537293 381.166273 
L 1658.744608 380.173786 
L 1659.366554 380.173786 
L 1659.573869 379.484813 
L 1660.195815 379.484813 
L 1660.40313 378.815835 
L 1661.854337 378.769026 
L 1662.061652 377.468349 
L 1663.512859 377.422393 
L 1663.720174 375.78253 
L 1664.34212 375.78253 
L 1664.549435 374.807731 
L 1665.171381 374.807731 
L 1665.378696 373.820587 
L 1666.000642 373.820587 
L 1666.207957 373.427119 
L 1666.829902 373.427119 
L 1667.037218 372.13489 
L 1667.659163 372.13489 
L 1667.866479 371.172847 
L 1668.488424 371.172847 
L 1668.69574 371.818475 
L 1669.317685 371.818475 
L 1669.525 370.902457 
L 1670.146946 370.902457 
L 1670.354261 368.971655 
L 1670.976207 368.971655 
L 1671.183522 368.053353 
L 1671.805468 368.053353 
L 1672.012783 368.691493 
L 1672.634729 368.691493 
L 1672.842044 367.133834 
L 1673.46399 367.133834 
L 1673.671305 366.487561 
L 1675.122512 366.474954 
L 1675.329827 365.834749 
L 1676.781034 365.82164 
L 1676.988349 363.968768 
L 1678.439555 363.959455 
L 1678.646871 362.733629 
L 1679.268816 362.733629 
L 1679.476132 362.114601 
L 1680.098077 362.114601 
L 1680.305392 361.497681 
L 1680.927338 361.497681 
L 1681.134653 360.881272 
L 1681.756599 360.881272 
L 1681.963914 358.740498 
L 1683.415121 358.740498 
L 1683.622436 357.82372 
L 1684.244382 357.82372 
L 1684.451697 357.215624 
L 1685.902904 357.213676 
L 1686.110219 355.698621 
L 1686.732165 355.698621 
L 1686.93948 355.094201 
L 1687.561425 355.094201 
L 1687.768741 354.491071 
L 1688.390686 354.491071 
L 1688.598002 353.287277 
L 1689.219947 353.287277 
L 1689.427263 351.480238 
L 1690.049208 351.480238 
L 1690.256523 350.586823 
L 1690.878469 350.586823 
L 1691.085784 349.38345 
L 1691.70773 349.38345 
L 1691.915045 347.899301 
L 1692.536991 347.899301 
L 1692.744306 346.42892 
L 1693.366252 346.42892 
L 1693.573567 346.125574 
L 1694.195513 346.125574 
L 1694.402828 346.745436 
L 1695.024774 346.745436 
L 1695.232089 345.249794 
L 1696.683296 345.278849 
L 1696.890611 343.791641 
L 1697.512557 343.791641 
L 1697.719872 342.942852 
L 1699.171078 342.942852 
L 1699.378394 340.872078 
L 1700.000339 340.872078 
L 1700.207655 339.980589 
L 1700.8296 339.980589 
L 1701.036915 338.514929 
L 1701.658861 338.514929 
L 1701.866176 337.627108 
L 1702.488122 337.627108 
L 1702.695437 336.752691 
L 1703.317383 336.752691 
L 1703.524698 334.1371 
L 1704.146644 334.1371 
L 1704.353959 332.673239 
L 1704.975905 332.673239 
L 1705.18322 331.791935 
L 1705.805166 331.791935 
L 1706.012481 330.925749 
L 1706.634427 330.925749 
L 1706.841742 330.334827 
L 1707.463688 330.334827 
L 1707.671003 329.729398 
L 1708.292949 329.729398 
L 1708.500264 328.280223 
L 1709.95147 328.264516 
L 1710.158786 327.406146 
L 1712.439253 327.390223 
L 1712.646568 326.515344 
L 1713.268514 326.515344 
L 1713.475829 325.657616 
L 1714.097775 325.657616 
L 1714.30509 323.91089 
L 1714.927036 323.91089 
L 1715.134351 323.324673 
L 1715.756297 323.324673 
L 1715.963612 321.018544 
L 1716.585558 321.018544 
L 1716.792873 319.888365 
L 1717.414819 319.888365 
L 1717.622134 318.180898 
L 1718.24408 318.180898 
L 1718.451395 316.759812 
L 1719.902601 316.759812 
L 1720.109917 316.179853 
L 1720.731862 316.179853 
L 1720.939178 315.341192 
L 1721.561123 315.341192 
L 1721.768439 314.783136 
L 1722.390384 314.783136 
L 1722.597699 313.090815 
L 1724.048906 313.090815 
L 1724.256221 312.715489 
L 1724.878167 312.715489 
L 1725.085482 311.301886 
L 1725.707428 311.301886 
L 1725.914743 311.85707 
L 1726.536689 311.85707 
L 1726.744004 311.001069 
L 1728.195211 311.098398 
L 1728.402526 310.266831 
L 1729.024472 310.266831 
L 1729.231787 309.814744 
L 1730.682993 309.814744 
L 1730.890309 310.367148 
L 1733.170776 310.341335 
L 1733.378091 309.764089 
L 1734.829298 309.764089 
L 1735.036613 309.187807 
L 1735.658559 309.187807 
L 1735.865874 308.362103 
L 1736.48782 308.362103 
L 1736.695135 307.786581 
L 1737.317081 307.786581 
L 1737.524396 306.362327 
L 1738.146342 306.362327 
L 1738.353657 304.694923 
L 1738.975603 304.694923 
L 1739.182918 303.876088 
L 1739.804864 303.876088 
L 1740.012179 303.057841 
L 1740.634125 303.057841 
L 1740.84144 301.507424 
L 1741.463385 301.507424 
L 1741.670701 301.32212 
L 1742.292646 301.32212 
L 1742.499962 299.235242 
L 1743.121907 299.235242 
L 1743.329223 297.729214 
L 1743.951168 297.729214 
L 1744.158483 297.31419 
L 1744.780429 297.31419 
L 1744.987744 297.855768 
L 1745.60969 297.855768 
L 1745.817005 296.361884 
L 1746.438951 296.361884 
L 1746.646266 295.516379 
L 1747.268212 295.516379 
L 1747.475527 294.975647 
L 1748.097473 294.975647 
L 1748.304788 295.109885 
L 1748.926734 295.109885 
L 1749.134049 294.569153 
L 1749.755995 294.569153 
L 1749.96331 294.166002 
L 1750.585256 294.166002 
L 1750.792571 293.62527 
L 1751.414517 293.62527 
L 1751.621832 293.764508 
L 1752.243777 293.764508 
L 1752.451093 292.82596 
L 1753.902299 292.82596 
L 1754.109615 292.42895 
L 1755.560821 292.42895 
L 1755.768136 291.889429 
L 1757.219343 291.889429 
L 1757.426658 291.350721 
L 1758.048604 291.350721 
L 1758.255919 290.81282 
L 1758.877865 290.81282 
L 1759.08518 290.275719 
L 1760.536387 290.275719 
L 1760.743702 288.66715 
L 1761.365648 288.66715 
L 1761.572963 288.132007 
L 1762.194909 288.132007 
L 1762.402224 286.492051 
L 1763.024169 286.492051 
L 1763.231485 284.855545 
L 1763.85343 284.855545 
L 1764.060746 283.792897 
L 1765.511952 283.792897 
L 1765.719267 283.261573 
L 1767.170474 283.261573 
L 1767.377789 284.4769 
L 1767.999735 284.4769 
L 1768.20705 284.633314 
L 1768.828996 284.633314 
L 1769.036311 285.160951 
L 1769.658257 285.160951 
L 1769.865572 285.687866 
L 1770.487518 285.687866 
L 1770.694833 286.534163 
L 1771.316779 286.534163 
L 1771.524094 286.008675 
L 1772.14604 286.008675 
L 1772.353355 285.121282 
L 1772.975301 285.121282 
L 1773.182616 285.645367 
L 1773.804561 285.645367 
L 1774.011877 284.597889 
L 1774.633822 284.597889 
L 1774.841138 285.120595 
L 1775.463083 285.120595 
L 1775.670399 285.636719 
L 1776.292344 285.636719 
L 1776.499659 286.157733 
L 1777.950866 286.157733 
L 1778.158181 285.118214 
L 1778.780127 285.118214 
L 1778.987442 285.636727 
L 1780.438649 285.636727 
L 1780.645964 285.144489 
L 1781.26791 285.144489 
L 1781.475225 285.662179 
L 1782.097171 285.662179 
L 1782.304486 286.179054 
L 1782.926432 286.179054 
L 1783.133747 285.662986 
L 1784.584953 285.662986 
L 1784.792269 285.148095 
L 1785.414214 285.148095 
L 1785.62153 285.69492 
L 1786.243475 285.69492 
L 1786.45079 284.66825 
L 1787.072736 284.66825 
L 1787.280051 284.192692 
L 1788.731258 284.19346 
L 1788.938573 283.212631 
L 1789.560519 283.212631 
L 1789.767834 283.722491 
L 1790.38978 283.722491 
L 1790.597095 282.704253 
L 1791.219041 282.704253 
L 1791.426356 282.196253 
L 1792.048302 282.196253 
L 1792.255617 280.674453 
L 1792.877563 280.674453 
L 1793.084878 279.712905 
L 1793.706824 279.712905 
L 1793.914139 279.260047 
L 1794.536084 279.260047 
L 1794.7434 278.36353 
L 1795.365345 278.36353 
L 1795.572661 277.415122 
L 1796.194606 277.415122 
L 1796.401922 275.908393 
L 1797.023867 275.908393 
L 1797.231182 276.409593 
L 1798.682389 276.473665 
L 1798.889704 275.974168 
L 1799.51165 275.974168 
L 1799.718965 275.474671 
L 1800.340911 275.474671 
L 1800.548226 274.975174 
L 1801.170172 274.975174 
L 1801.377487 274.47634 
L 1801.999433 274.47634 
L 1802.206748 273.978166 
L 1802.828694 273.978166 
L 1803.036009 272.983785 
L 1803.657955 272.983785 
L 1803.86527 271.990408 
L 1804.487216 271.990408 
L 1804.694531 271.493895 
L 1806.974998 271.568606 
L 1807.182314 271.074009 
L 1807.804259 271.074009 
L 1808.011574 270.580041 
L 1809.462781 270.580041 
L 1809.670096 269.593423 
L 1810.292042 269.593423 
L 1810.499357 268.608738 
L 1811.121303 268.608738 
L 1811.328618 268.199624 
L 1811.950564 268.199624 
L 1812.157879 267.218 
L 1812.779825 267.218 
L 1812.98714 266.238177 
L 1813.609086 266.238177 
L 1813.816401 265.747978 
L 1814.438347 265.747978 
L 1814.645662 265.350806 
L 1816.096868 265.350806 
L 1816.304184 265.838076 
L 1816.926129 265.838076 
L 1817.133445 264.956521 
L 1817.75539 264.956521 
L 1817.962706 264.469824 
L 1818.584651 264.469824 
L 1818.791966 263.592384 
L 1819.413912 263.592384 
L 1819.621227 263.106826 
L 1821.072434 263.106826 
L 1821.279749 262.137402 
L 1821.901695 262.137402 
L 1822.10901 261.267069 
L 1822.730956 261.267069 
L 1822.938271 260.783535 
L 1824.389478 260.783868 
L 1824.596793 260.403507 
L 1826.048 260.40296 
L 1826.255315 260.02577 
L 1827.706521 260.130017 
L 1827.913837 260.716344 
L 1828.535782 260.716344 
L 1828.743098 260.237062 
L 1829.365043 260.237062 
L 1829.572358 259.758106 
L 1830.194304 259.758106 
L 1830.401619 259.279682 
L 1831.023565 259.279682 
L 1831.23088 258.908828 
L 1831.852826 258.908828 
L 1832.060141 259.386725 
L 1833.511348 259.386725 
L 1833.718663 258.908828 
L 1834.340609 258.908828 
L 1834.547924 257.954601 
L 1835.16987 257.954601 
L 1835.377185 256.526046 
L 1836.828392 256.526046 
L 1837.035707 255.57402 
L 1837.657652 255.57402 
L 1837.864968 255.098007 
L 1838.486913 255.098007 
L 1838.694229 255.572001 
L 1839.316174 255.572001 
L 1839.52349 254.150955 
L 1840.145435 254.150955 
L 1840.35275 252.733637 
L 1840.974696 252.733637 
L 1841.182011 253.205216 
L 1841.803957 253.205216 
L 1842.011272 252.733948 
L 1843.462479 252.733948 
L 1843.669794 252.263165 
L 1845.121001 252.263165 
L 1845.328316 251.792381 
L 1845.950262 251.792381 
L 1846.157577 251.32208 
L 1846.779523 251.32208 
L 1846.986838 250.852258 
L 1847.608784 250.852258 
L 1847.816099 250.508388 
L 1848.438044 250.508388 
L 1848.64536 250.039043 
L 1850.096566 250.039043 
L 1850.303882 249.570005 
L 1852.584349 249.570005 
L 1852.791664 248.632234 
L 1854.242871 248.632234 
L 1854.450186 248.163804 
L 1855.072132 248.163804 
L 1855.279447 247.695676 
L 1856.730654 247.695676 
L 1856.937969 247.227547 
L 1860.047697 247.228017 
L 1860.255013 246.760832 
L 1860.876958 246.760832 
L 1861.084274 246.293647 
L 1861.706219 246.293647 
L 1861.913534 244.893564 
L 1863.364741 244.893564 
L 1863.572056 244.561213 
L 1865.023263 244.561213 
L 1865.230578 244.095375 
L 1866.681785 244.095375 
L 1866.8891 243.629998 
L 1868.340307 243.629998 
L 1868.547622 243.164621 
L 1869.169568 243.164621 
L 1869.376883 243.629539 
L 1869.998828 243.629539 
L 1870.206144 243.164913 
L 1870.828089 243.164913 
L 1871.035405 242.700576 
L 1871.65735 242.700576 
L 1871.864666 242.236691 
L 1874.145133 242.236691 
L 1874.352448 242.700125 
L 1874.974394 242.700125 
L 1875.181709 241.77428 
L 1875.803655 241.77428 
L 1876.01097 241.311581 
L 1879.120699 241.311581 
L 1879.328014 240.848883 
L 1879.94996 240.848883 
L 1880.157275 240.386627 
L 1880.77922 240.386627 
L 1880.986536 239.462999 
L 1881.608481 239.462999 
L 1881.815797 240.067967 
L 1882.437742 240.067967 
L 1882.645058 239.607024 
L 1883.267003 239.607024 
L 1883.474318 238.685707 
L 1884.096264 238.685707 
L 1884.303579 237.305008 
L 1885.754786 237.305288 
L 1885.962101 237.452894 
L 1886.584047 237.452894 
L 1886.791362 236.53527 
L 1887.413308 236.53527 
L 1887.620623 236.225748 
L 1888.242569 236.225748 
L 1888.449884 235.309524 
L 1889.07183 235.309524 
L 1889.279145 233.936992 
L 1890.730351 233.936992 
L 1890.937667 233.47999 
L 1891.559612 233.47999 
L 1891.766928 233.936577 
L 1892.388873 233.936577 
L 1892.596189 233.480262 
L 1894.047395 233.480262 
L 1894.25471 233.936167 
L 1894.876656 233.936167 
L 1895.083971 233.480532 
L 1897.364439 233.480125 
L 1897.571754 233.025307 
L 1898.1937 233.025307 
L 1898.401015 233.47972 
L 1899.022961 233.47972 
L 1899.230276 233.02571 
L 1899.852222 233.02571 
L 1900.059537 232.73029 
L 1901.510743 232.73029 
L 1901.718059 232.276547 
L 1903.998526 232.276547 
L 1904.205841 232.595973 
L 1904.827787 232.595973 
L 1905.035102 231.400069 
L 1905.657048 231.400069 
L 1905.864363 230.948566 
L 1906.486309 230.948566 
L 1906.693624 230.046211 
L 1907.31557 230.046211 
L 1907.522885 231.111074 
L 1908.144831 231.111074 
L 1908.352146 229.929316 
L 1908.974092 229.929316 
L 1909.181407 230.263224 
L 1909.803353 230.263224 
L 1910.010668 229.366344 
L 1910.632614 229.366344 
L 1910.839929 228.470465 
L 1911.461875 228.470465 
L 1911.66919 227.575688 
L 1912.291135 227.575688 
L 1912.498451 226.681799 
L 1913.120396 226.681799 
L 1913.327712 225.959695 
L 1913.949657 225.959695 
L 1914.156973 226.406019 
L 1914.778918 226.406019 
L 1914.986233 225.242069 
L 1915.608179 225.242069 
L 1915.815494 225.417183 
L 1917.266701 225.417537 
L 1917.474016 225.862183 
L 1918.095962 225.862183 
L 1918.303277 225.417791 
L 1918.925223 225.417791 
L 1919.132538 224.973751 
L 1919.754484 224.973751 
L 1919.961799 224.086527 
L 1920.583745 224.086527 
L 1920.79106 223.64309 
L 1921.413006 223.64309 
L 1921.620321 223.2 
L 1921.620321 223.2 
" clip-path="url(#pb162c21df8)" style="fill: none; stroke: #0000ff; stroke-width: 1.5; stroke-linecap: square"/>
   </g>
   <g id="patch_15">
    <path d="M 1451.647059 1281.6 
L 1451.647059 172.8 
" style="fill: none; stroke: #000000; stroke-width: 0.8; stroke-linejoin: miter; stroke-linecap: square"/>
   </g>
   <g id="patch_16">
    <path d="M 1944 1281.6 
L 1944 172.8 
" style="fill: none; stroke: #000000; stroke-width: 0.8; stroke-linejoin: miter; stroke-linecap: square"/>
   </g>
   <g id="patch_17">
    <path d="M 1451.647059 1281.6 
L 1944 1281.6 
" style="fill: none; stroke: #000000; stroke-width: 0.8; stroke-linejoin: miter; stroke-linecap: square"/>
   </g>
   <g id="patch_18">
    <path d="M 1451.647059 172.8 
L 1944 172.8 
" style="fill: none; stroke: #000000; stroke-width: 0.8; stroke-linejoin: miter; stroke-linecap: square"/>
   </g>
   <g id="legend_3">
    <g id="patch_19">
     <path d="M 1852.957813 195.478125 
L 1937 195.478125 
Q 1939 195.478125 1939 193.478125 
L 1939 179.8 
Q 1939 177.8 1937 177.8 
L 1852.957813 177.8 
Q 1850.957813 177.8 1850.957813 179.8 
L 1850.957813 193.478125 
Q 1850.957813 195.478125 1852.957813 195.478125 
z
" style="fill: #ffffff; opacity: 0.8; stroke: #cccccc; stroke-linejoin: miter"/>
    </g>
    <g id="line2d_38">
     <path d="M 1854.957813 185.898437 
L 1864.957813 185.898437 
L 1874.957813 185.898437 
" style="fill: none; stroke: #0000ff; stroke-width: 1.5; stroke-linecap: square"/>
    </g>
    <g id="text_35">
     <!-- O3 reward -->
     <g transform="translate(1882.957813 189.398437) scale(0.1 -0.1)">
      <use xlink:href="#DejaVuSans-4f"/>
      <use xlink:href="#DejaVuSans-33" x="78.710938"/>
      <use xlink:href="#DejaVuSans-20" x="142.333984"/>
      <use xlink:href="#DejaVuSans-72" x="174.121094"/>
      <use xlink:href="#DejaVuSans-65" x="212.984375"/>
      <use xlink:href="#DejaVuSans-77" x="274.507812"/>
      <use xlink:href="#DejaVuSans-61" x="356.294922"/>
      <use xlink:href="#DejaVuSans-72" x="417.574219"/>
      <use xlink:href="#DejaVuSans-64" x="456.9375"/>
     </g>
    </g>
   </g>
  </g>
 </g>
 <defs>
  <clipPath id="p7616f13c88">
   <rect x="270" y="172.8" width="492.352941" height="1108.8"/>
  </clipPath>
  <clipPath id="pa3bc1df1b8">
   <rect x="860.823529" y="172.8" width="492.352941" height="1108.8"/>
  </clipPath>
  <clipPath id="pb162c21df8">
   <rect x="1451.647059" y="172.8" width="492.352941" height="1108.8"/>
  </clipPath>
 </defs>
</svg>
