<?xml version="1.0" encoding="utf-8" standalone="no"?>
<!DOCTYPE svg PUBLIC "-//W3C//DTD SVG 1.1//EN"
  "http://www.w3.org/Graphics/SVG/1.1/DTD/svg11.dtd">
<svg xmlns:xlink="http://www.w3.org/1999/xlink" width="2160pt" height="1440pt" viewBox="0 0 2160 1440" xmlns="http://www.w3.org/2000/svg" version="1.1">
 <metadata>
  <rdf:RDF xmlns:dc="http://purl.org/dc/elements/1.1/" xmlns:cc="http://creativecommons.org/ns#" xmlns:rdf="http://www.w3.org/1999/02/22-rdf-syntax-ns#">
   <cc:Work>
    <dc:type rdf:resource="http://purl.org/dc/dcmitype/StillImage"/>
    <dc:date>2023-05-31T20:00:44.054617</dc:date>
    <dc:format>image/svg+xml</dc:format>
    <dc:creator>
     <cc:Agent>
      <dc:title>Matplotlib v3.7.1, https://matplotlib.org/</dc:title>
     </cc:Agent>
    </dc:creator>
   </cc:Work>
  </rdf:RDF>
 </metadata>
 <defs>
  <style type="text/css">*{stroke-linejoin: round; stroke-linecap: butt}</style>
 </defs>
 <g id="figure_1">
  <g id="patch_1">
   <path d="M 0 1440 
L 2160 1440 
L 2160 0 
L 0 0 
z
" style="fill: #ffffff"/>
  </g>
  <g id="axes_1">
   <g id="patch_2">
    <path d="M 270 1281.6 
L 762.352941 1281.6 
L 762.352941 172.8 
L 270 172.8 
z
" style="fill: #ffffff"/>
   </g>
   <g id="matplotlib.axis_1">
    <g id="xtick_1">
     <g id="line2d_1">
      <defs>
       <path id="m2bdc218169" d="M 0 0 
L 0 3.5 
" style="stroke: #000000; stroke-width: 0.8"/>
      </defs>
      <g>
       <use xlink:href="#m2bdc218169" x="292.151198" y="1281.6" style="stroke: #000000; stroke-width: 0.8"/>
      </g>
     </g>
     <g id="text_1">
      <!-- 0 -->
      <g transform="translate(288.969948 1296.198437) scale(0.1 -0.1)">
       <defs>
        <path id="DejaVuSans-30" d="M 2034 4250 
Q 1547 4250 1301 3770 
Q 1056 3291 1056 2328 
Q 1056 1369 1301 889 
Q 1547 409 2034 409 
Q 2525 409 2770 889 
Q 3016 1369 3016 2328 
Q 3016 3291 2770 3770 
Q 2525 4250 2034 4250 
z
M 2034 4750 
Q 2819 4750 3233 4129 
Q 3647 3509 3647 2328 
Q 3647 1150 3233 529 
Q 2819 -91 2034 -91 
Q 1250 -91 836 529 
Q 422 1150 422 2328 
Q 422 3509 836 4129 
Q 1250 4750 2034 4750 
z
" transform="scale(0.015625)"/>
       </defs>
       <use xlink:href="#DejaVuSans-30"/>
      </g>
     </g>
    </g>
    <g id="xtick_2">
     <g id="line2d_2">
      <g>
       <use xlink:href="#m2bdc218169" x="349.27136" y="1281.6" style="stroke: #000000; stroke-width: 0.8"/>
      </g>
     </g>
     <g id="text_2">
      <!-- 250 -->
      <g transform="translate(339.72761 1296.198437) scale(0.1 -0.1)">
       <defs>
        <path id="DejaVuSans-32" d="M 1228 531 
L 3431 531 
L 3431 0 
L 469 0 
L 469 531 
Q 828 903 1448 1529 
Q 2069 2156 2228 2338 
Q 2531 2678 2651 2914 
Q 2772 3150 2772 3378 
Q 2772 3750 2511 3984 
Q 2250 4219 1831 4219 
Q 1534 4219 1204 4116 
Q 875 4013 500 3803 
L 500 4441 
Q 881 4594 1212 4672 
Q 1544 4750 1819 4750 
Q 2544 4750 2975 4387 
Q 3406 4025 3406 3419 
Q 3406 3131 3298 2873 
Q 3191 2616 2906 2266 
Q 2828 2175 2409 1742 
Q 1991 1309 1228 531 
z
" transform="scale(0.015625)"/>
        <path id="DejaVuSans-35" d="M 691 4666 
L 3169 4666 
L 3169 4134 
L 1269 4134 
L 1269 2991 
Q 1406 3038 1543 3061 
Q 1681 3084 1819 3084 
Q 2600 3084 3056 2656 
Q 3513 2228 3513 1497 
Q 3513 744 3044 326 
Q 2575 -91 1722 -91 
Q 1428 -91 1123 -41 
Q 819 9 494 109 
L 494 744 
Q 775 591 1075 516 
Q 1375 441 1709 441 
Q 2250 441 2565 725 
Q 2881 1009 2881 1497 
Q 2881 1984 2565 2268 
Q 2250 2553 1709 2553 
Q 1456 2553 1204 2497 
Q 953 2441 691 2322 
L 691 4666 
z
" transform="scale(0.015625)"/>
       </defs>
       <use xlink:href="#DejaVuSans-32"/>
       <use xlink:href="#DejaVuSans-35" x="63.623047"/>
       <use xlink:href="#DejaVuSans-30" x="127.246094"/>
      </g>
     </g>
    </g>
    <g id="xtick_3">
     <g id="line2d_3">
      <g>
       <use xlink:href="#m2bdc218169" x="406.391521" y="1281.6" style="stroke: #000000; stroke-width: 0.8"/>
      </g>
     </g>
     <g id="text_3">
      <!-- 500 -->
      <g transform="translate(396.847771 1296.198437) scale(0.1 -0.1)">
       <use xlink:href="#DejaVuSans-35"/>
       <use xlink:href="#DejaVuSans-30" x="63.623047"/>
       <use xlink:href="#DejaVuSans-30" x="127.246094"/>
      </g>
     </g>
    </g>
    <g id="xtick_4">
     <g id="line2d_4">
      <g>
       <use xlink:href="#m2bdc218169" x="463.511682" y="1281.6" style="stroke: #000000; stroke-width: 0.8"/>
      </g>
     </g>
     <g id="text_4">
      <!-- 750 -->
      <g transform="translate(453.967932 1296.198437) scale(0.1 -0.1)">
       <defs>
        <path id="DejaVuSans-37" d="M 525 4666 
L 3525 4666 
L 3525 4397 
L 1831 0 
L 1172 0 
L 2766 4134 
L 525 4134 
L 525 4666 
z
" transform="scale(0.015625)"/>
       </defs>
       <use xlink:href="#DejaVuSans-37"/>
       <use xlink:href="#DejaVuSans-35" x="63.623047"/>
       <use xlink:href="#DejaVuSans-30" x="127.246094"/>
      </g>
     </g>
    </g>
    <g id="xtick_5">
     <g id="line2d_5">
      <g>
       <use xlink:href="#m2bdc218169" x="520.631843" y="1281.6" style="stroke: #000000; stroke-width: 0.8"/>
      </g>
     </g>
     <g id="text_5">
      <!-- 1000 -->
      <g transform="translate(507.906843 1296.198437) scale(0.1 -0.1)">
       <defs>
        <path id="DejaVuSans-31" d="M 794 531 
L 1825 531 
L 1825 4091 
L 703 3866 
L 703 4441 
L 1819 4666 
L 2450 4666 
L 2450 531 
L 3481 531 
L 3481 0 
L 794 0 
L 794 531 
z
" transform="scale(0.015625)"/>
       </defs>
       <use xlink:href="#DejaVuSans-31"/>
       <use xlink:href="#DejaVuSans-30" x="63.623047"/>
       <use xlink:href="#DejaVuSans-30" x="127.246094"/>
       <use xlink:href="#DejaVuSans-30" x="190.869141"/>
      </g>
     </g>
    </g>
    <g id="xtick_6">
     <g id="line2d_6">
      <g>
       <use xlink:href="#m2bdc218169" x="577.752004" y="1281.6" style="stroke: #000000; stroke-width: 0.8"/>
      </g>
     </g>
     <g id="text_6">
      <!-- 1250 -->
      <g transform="translate(565.027004 1296.198437) scale(0.1 -0.1)">
       <use xlink:href="#DejaVuSans-31"/>
       <use xlink:href="#DejaVuSans-32" x="63.623047"/>
       <use xlink:href="#DejaVuSans-35" x="127.246094"/>
       <use xlink:href="#DejaVuSans-30" x="190.869141"/>
      </g>
     </g>
    </g>
    <g id="xtick_7">
     <g id="line2d_7">
      <g>
       <use xlink:href="#m2bdc218169" x="634.872165" y="1281.6" style="stroke: #000000; stroke-width: 0.8"/>
      </g>
     </g>
     <g id="text_7">
      <!-- 1500 -->
      <g transform="translate(622.147165 1296.198437) scale(0.1 -0.1)">
       <use xlink:href="#DejaVuSans-31"/>
       <use xlink:href="#DejaVuSans-35" x="63.623047"/>
       <use xlink:href="#DejaVuSans-30" x="127.246094"/>
       <use xlink:href="#DejaVuSans-30" x="190.869141"/>
      </g>
     </g>
    </g>
    <g id="xtick_8">
     <g id="line2d_8">
      <g>
       <use xlink:href="#m2bdc218169" x="691.992327" y="1281.6" style="stroke: #000000; stroke-width: 0.8"/>
      </g>
     </g>
     <g id="text_8">
      <!-- 1750 -->
      <g transform="translate(679.267327 1296.198437) scale(0.1 -0.1)">
       <use xlink:href="#DejaVuSans-31"/>
       <use xlink:href="#DejaVuSans-37" x="63.623047"/>
       <use xlink:href="#DejaVuSans-35" x="127.246094"/>
       <use xlink:href="#DejaVuSans-30" x="190.869141"/>
      </g>
     </g>
    </g>
    <g id="xtick_9">
     <g id="line2d_9">
      <g>
       <use xlink:href="#m2bdc218169" x="749.112488" y="1281.6" style="stroke: #000000; stroke-width: 0.8"/>
      </g>
     </g>
     <g id="text_9">
      <!-- 2000 -->
      <g transform="translate(736.387488 1296.198437) scale(0.1 -0.1)">
       <use xlink:href="#DejaVuSans-32"/>
       <use xlink:href="#DejaVuSans-30" x="63.623047"/>
       <use xlink:href="#DejaVuSans-30" x="127.246094"/>
       <use xlink:href="#DejaVuSans-30" x="190.869141"/>
      </g>
     </g>
    </g>
   </g>
   <g id="matplotlib.axis_2">
    <g id="ytick_1">
     <g id="line2d_10">
      <defs>
       <path id="md18fb2d524" d="M 0 0 
L -3.5 0 
" style="stroke: #000000; stroke-width: 0.8"/>
      </defs>
      <g>
       <use xlink:href="#md18fb2d524" x="270" y="1195.511405" style="stroke: #000000; stroke-width: 0.8"/>
      </g>
     </g>
     <g id="text_10">
      <!-- −35 -->
      <g transform="translate(241.895312 1199.310624) scale(0.1 -0.1)">
       <defs>
        <path id="DejaVuSans-2212" d="M 678 2272 
L 4684 2272 
L 4684 1741 
L 678 1741 
L 678 2272 
z
" transform="scale(0.015625)"/>
        <path id="DejaVuSans-33" d="M 2597 2516 
Q 3050 2419 3304 2112 
Q 3559 1806 3559 1356 
Q 3559 666 3084 287 
Q 2609 -91 1734 -91 
Q 1441 -91 1130 -33 
Q 819 25 488 141 
L 488 750 
Q 750 597 1062 519 
Q 1375 441 1716 441 
Q 2309 441 2620 675 
Q 2931 909 2931 1356 
Q 2931 1769 2642 2001 
Q 2353 2234 1838 2234 
L 1294 2234 
L 1294 2753 
L 1863 2753 
Q 2328 2753 2575 2939 
Q 2822 3125 2822 3475 
Q 2822 3834 2567 4026 
Q 2313 4219 1838 4219 
Q 1578 4219 1281 4162 
Q 984 4106 628 3988 
L 628 4550 
Q 988 4650 1302 4700 
Q 1616 4750 1894 4750 
Q 2613 4750 3031 4423 
Q 3450 4097 3450 3541 
Q 3450 3153 3228 2886 
Q 3006 2619 2597 2516 
z
" transform="scale(0.015625)"/>
       </defs>
       <use xlink:href="#DejaVuSans-2212"/>
       <use xlink:href="#DejaVuSans-33" x="83.789062"/>
       <use xlink:href="#DejaVuSans-35" x="147.412109"/>
      </g>
     </g>
    </g>
    <g id="ytick_2">
     <g id="line2d_11">
      <g>
       <use xlink:href="#md18fb2d524" x="270" y="1057.398989" style="stroke: #000000; stroke-width: 0.8"/>
      </g>
     </g>
     <g id="text_11">
      <!-- −30 -->
      <g transform="translate(241.895312 1061.198208) scale(0.1 -0.1)">
       <use xlink:href="#DejaVuSans-2212"/>
       <use xlink:href="#DejaVuSans-33" x="83.789062"/>
       <use xlink:href="#DejaVuSans-30" x="147.412109"/>
      </g>
     </g>
    </g>
    <g id="ytick_3">
     <g id="line2d_12">
      <g>
       <use xlink:href="#md18fb2d524" x="270" y="919.286574" style="stroke: #000000; stroke-width: 0.8"/>
      </g>
     </g>
     <g id="text_12">
      <!-- −25 -->
      <g transform="translate(241.895312 923.085793) scale(0.1 -0.1)">
       <use xlink:href="#DejaVuSans-2212"/>
       <use xlink:href="#DejaVuSans-32" x="83.789062"/>
       <use xlink:href="#DejaVuSans-35" x="147.412109"/>
      </g>
     </g>
    </g>
    <g id="ytick_4">
     <g id="line2d_13">
      <g>
       <use xlink:href="#md18fb2d524" x="270" y="781.174158" style="stroke: #000000; stroke-width: 0.8"/>
      </g>
     </g>
     <g id="text_13">
      <!-- −20 -->
      <g transform="translate(241.895312 784.973377) scale(0.1 -0.1)">
       <use xlink:href="#DejaVuSans-2212"/>
       <use xlink:href="#DejaVuSans-32" x="83.789062"/>
       <use xlink:href="#DejaVuSans-30" x="147.412109"/>
      </g>
     </g>
    </g>
    <g id="ytick_5">
     <g id="line2d_14">
      <g>
       <use xlink:href="#md18fb2d524" x="270" y="643.061743" style="stroke: #000000; stroke-width: 0.8"/>
      </g>
     </g>
     <g id="text_14">
      <!-- −15 -->
      <g transform="translate(241.895312 646.860962) scale(0.1 -0.1)">
       <use xlink:href="#DejaVuSans-2212"/>
       <use xlink:href="#DejaVuSans-31" x="83.789062"/>
       <use xlink:href="#DejaVuSans-35" x="147.412109"/>
      </g>
     </g>
    </g>
    <g id="ytick_6">
     <g id="line2d_15">
      <g>
       <use xlink:href="#md18fb2d524" x="270" y="504.949328" style="stroke: #000000; stroke-width: 0.8"/>
      </g>
     </g>
     <g id="text_15">
      <!-- −10 -->
      <g transform="translate(241.895312 508.748546) scale(0.1 -0.1)">
       <use xlink:href="#DejaVuSans-2212"/>
       <use xlink:href="#DejaVuSans-31" x="83.789062"/>
       <use xlink:href="#DejaVuSans-30" x="147.412109"/>
      </g>
     </g>
    </g>
    <g id="ytick_7">
     <g id="line2d_16">
      <g>
       <use xlink:href="#md18fb2d524" x="270" y="366.836912" style="stroke: #000000; stroke-width: 0.8"/>
      </g>
     </g>
     <g id="text_16">
      <!-- −5 -->
      <g transform="translate(248.257812 370.636131) scale(0.1 -0.1)">
       <use xlink:href="#DejaVuSans-2212"/>
       <use xlink:href="#DejaVuSans-35" x="83.789062"/>
      </g>
     </g>
    </g>
    <g id="ytick_8">
     <g id="line2d_17">
      <g>
       <use xlink:href="#md18fb2d524" x="270" y="228.724497" style="stroke: #000000; stroke-width: 0.8"/>
      </g>
     </g>
     <g id="text_17">
      <!-- 0 -->
      <g transform="translate(256.6375 232.523715) scale(0.1 -0.1)">
       <use xlink:href="#DejaVuSans-30"/>
      </g>
     </g>
    </g>
   </g>
   <g id="line2d_18">
    <path d="M 292.379679 228.724497 
L 303.803711 228.724497 
L 304.032192 223.2 
L 304.717634 223.2 
L 304.946115 226.882998 
L 305.631557 226.882998 
L 305.860037 233.144094 
L 306.545479 233.144094 
L 306.77396 233.852363 
L 307.459402 233.852363 
L 307.687882 240.874342 
L 308.373324 240.874342 
L 308.601805 243.926456 
L 309.287247 243.926456 
L 309.515727 247.192924 
L 310.201169 247.192924 
L 310.42965 250.061594 
L 311.115092 250.061594 
L 311.343573 253.782496 
L 312.029015 253.782496 
L 312.257495 256.613926 
L 313.85686 256.613926 
L 314.08534 254.269902 
L 315.684705 254.269902 
L 315.913186 257.602493 
L 316.598627 257.602493 
L 316.827108 254.786538 
L 317.51255 254.786538 
L 317.741031 252.514868 
L 319.340395 252.514868 
L 319.568876 253.085349 
L 320.254318 253.085349 
L 320.482798 250.28182 
L 322.082163 250.28182 
L 322.310644 247.489519 
L 322.996086 247.489519 
L 323.224566 244.707912 
L 323.910008 244.707912 
L 324.138489 247.284908 
L 324.823931 247.284908 
L 325.052411 243.099683 
L 326.651776 243.099683 
L 326.880256 239.220971 
L 327.565698 239.220971 
L 327.794179 241.661292 
L 328.479621 241.661292 
L 328.708102 239.220971 
L 329.393544 239.220971 
L 329.622024 242.948773 
L 331.221389 242.948773 
L 331.449869 245.580037 
L 332.135311 245.580037 
L 332.363792 250.163544 
L 333.049234 250.163544 
L 333.277715 249.474682 
L 333.963156 249.474682 
L 334.191637 251.209193 
L 334.877079 251.209193 
L 335.10556 250.547068 
L 335.791002 250.547068 
L 336.019482 249.899713 
L 336.704924 249.899713 
L 336.933405 251.035004 
L 337.618847 251.035004 
L 337.847327 257.535241 
L 338.532769 257.535241 
L 338.76125 255.21843 
L 339.446692 255.21843 
L 339.675173 257.01641 
L 340.360615 257.01641 
L 340.589095 263.432752 
L 341.274537 263.432752 
L 341.503018 265.624203 
L 342.18846 265.624203 
L 342.41694 267.557158 
L 344.930227 267.557158 
L 345.158708 269.700149 
L 345.84415 269.700149 
L 346.072631 273.776094 
L 346.758073 273.776094 
L 346.986553 271.636512 
L 347.671995 271.636512 
L 347.900476 275.719461 
L 348.585918 275.719461 
L 348.814398 279.764859 
L 349.49984 279.764859 
L 349.728321 281.71775 
L 350.413763 281.71775 
L 350.642244 287.892847 
L 351.327685 287.892847 
L 351.556166 292.042236 
L 352.241608 292.042236 
L 352.470089 298.290956 
L 353.155531 298.290956 
L 353.384011 304.434847 
L 354.069453 304.434847 
L 354.297934 308.562283 
L 354.983376 308.562283 
L 355.211856 310.673125 
L 355.897298 310.673125 
L 356.125779 314.800561 
L 356.811221 314.800561 
L 357.039702 312.812298 
L 357.725144 312.812298 
L 357.953624 308.884489 
L 358.639066 308.884489 
L 358.867547 305.002037 
L 359.552989 305.002037 
L 359.781469 303.060811 
L 360.466911 303.060811 
L 360.695392 307.210254 
L 362.294756 307.228818 
L 362.523237 307.584441 
L 363.208679 307.584441 
L 363.43716 314.047938 
L 365.036524 314.04569 
L 365.265005 310.321989 
L 365.950447 310.321989 
L 366.178927 308.462291 
L 366.864369 308.462291 
L 367.09285 304.749038 
L 367.778292 304.749038 
L 368.006773 308.991839 
L 368.692214 308.991839 
L 368.920695 310.847456 
L 370.52006 310.847456 
L 370.74854 312.703073 
L 371.433982 312.703073 
L 371.662463 310.849354 
L 372.347905 310.849354 
L 372.576385 309.571534 
L 373.261827 309.571534 
L 373.490308 305.903976 
L 374.17575 305.903976 
L 374.404231 306.520292 
L 375.089673 306.520292 
L 375.318153 309.646634 
L 376.003595 309.646634 
L 376.232076 310.334789 
L 376.917518 310.334789 
L 377.145998 308.515401 
L 378.745363 308.515401 
L 378.973843 312.832076 
L 379.659285 312.832076 
L 379.887766 311.038038 
L 380.573208 311.038038 
L 380.801689 309.24543 
L 381.487131 309.24543 
L 381.715611 309.994216 
L 382.401053 309.994216 
L 382.629534 310.758271 
L 383.314976 310.758271 
L 383.543456 313.319078 
L 384.228898 313.319078 
L 384.457379 317.678845 
L 385.142821 317.678845 
L 385.371302 324.622256 
L 386.056743 324.622256 
L 386.285224 328.982021 
L 386.970666 328.982021 
L 387.199147 335.115305 
L 387.884589 335.115305 
L 388.113069 342.061337 
L 388.798511 342.061337 
L 389.026992 348.181816 
L 389.712434 348.181816 
L 389.940914 356.925189 
L 390.626356 356.925189 
L 390.854837 363.923244 
L 391.540279 363.923244 
L 391.76876 365.68739 
L 392.454202 365.68739 
L 392.682682 372.702718 
L 393.368124 372.702718 
L 393.596605 373.567527 
L 394.282047 373.567527 
L 394.510527 378.836923 
L 396.109892 378.836923 
L 396.338372 381.471235 
L 397.937737 381.476104 
L 398.166218 384.113455 
L 398.85166 384.113455 
L 399.08014 382.367074 
L 400.679505 382.366085 
L 400.907985 385.022412 
L 401.593427 385.022412 
L 401.821908 389.420799 
L 402.50735 389.420799 
L 402.735831 385.954755 
L 403.421272 385.954755 
L 403.649753 386.910366 
L 404.335195 386.910366 
L 404.563676 383.465637 
L 405.249118 383.465637 
L 405.477598 378.31933 
L 406.16304 378.31933 
L 406.391521 381.021236 
L 407.076963 381.021236 
L 407.305443 375.889282 
L 407.990885 375.889282 
L 408.219366 380.310303 
L 408.904808 380.310303 
L 409.133289 379.606296 
L 411.646576 379.606296 
L 411.875056 377.908286 
L 412.560498 377.908286 
L 412.788979 374.516176 
L 413.474421 374.516176 
L 413.702901 371.126471 
L 414.388343 371.126471 
L 414.616824 364.35867 
L 415.302266 364.35867 
L 415.530747 357.62127 
L 416.216189 357.62127 
L 416.444669 352.583016 
L 417.130111 352.583016 
L 417.358592 347.557182 
L 418.044034 347.557182 
L 418.272514 345.884825 
L 418.957956 345.884825 
L 419.186437 340.875988 
L 419.871879 340.875988 
L 420.10036 337.540597 
L 421.699724 337.541954 
L 421.928205 335.877251 
L 422.613647 335.877251 
L 422.842127 330.888769 
L 423.527569 330.888769 
L 423.75605 335.362302 
L 424.441492 335.362302 
L 424.669972 330.382799 
L 425.355414 330.382799 
L 425.583895 336.024514 
L 426.269337 336.024514 
L 426.497818 346.640092 
L 427.183259 346.640092 
L 427.41174 344.984533 
L 428.097182 344.984533 
L 428.325663 344.502192 
L 429.011105 344.502192 
L 429.239585 337.893109 
L 429.925027 337.893109 
L 430.153508 340.730658 
L 430.83895 340.730658 
L 431.06743 348.057168 
L 431.752872 348.057168 
L 431.981353 354.945391 
L 432.666795 354.945391 
L 432.895276 359.434381 
L 433.580718 359.434381 
L 433.809198 367.205693 
L 434.49464 367.205693 
L 434.723121 374.550917 
L 435.408563 374.550917 
L 435.637043 379.043959 
L 436.322485 379.043959 
L 436.550966 381.903215 
L 437.236408 381.903215 
L 437.464889 382.720129 
L 438.15033 382.720129 
L 438.378811 390.082323 
L 439.064253 390.082323 
L 439.292734 396.214286 
L 439.978176 396.214286 
L 440.206656 397.451643 
L 440.892098 397.451643 
L 441.120579 400.321223 
L 441.806021 400.321223 
L 442.034501 408.939959 
L 442.719943 408.939959 
L 442.948424 416.319762 
L 443.633866 416.319762 
L 443.862347 429.469136 
L 444.547788 429.469136 
L 444.776269 445.523501 
L 445.461711 445.523501 
L 445.690192 451.301051 
L 446.375634 451.301051 
L 446.604114 463.21962 
L 447.289556 463.21962 
L 447.518037 473.177088 
L 448.203479 473.177088 
L 448.431959 471.556482 
L 449.117401 471.556482 
L 449.345882 468.318094 
L 450.031324 468.318094 
L 450.259805 465.081116 
L 451.859169 465.080684 
L 452.08765 463.463481 
L 452.773092 463.463481 
L 453.001572 461.845849 
L 453.687014 461.845849 
L 453.915495 458.613266 
L 454.600937 458.613266 
L 454.829417 456.671205 
L 455.514859 456.671205 
L 455.74334 456.346412 
L 456.428782 456.346412 
L 456.657263 463.452992 
L 457.342705 463.452992 
L 457.571185 461.839684 
L 458.256627 461.839684 
L 458.485108 464.748625 
L 459.17055 464.748625 
L 459.39903 470.569054 
L 460.084472 470.569054 
L 460.312953 470.255276 
L 460.998395 470.255276 
L 461.226876 473.168021 
L 461.912317 473.168021 
L 462.140798 477.079651 
L 462.82624 477.079651 
L 463.054721 478.386256 
L 463.740163 478.386256 
L 463.968643 481.001987 
L 464.654085 481.001987 
L 464.882566 482.609457 
L 465.568008 482.609457 
L 465.796488 480.706774 
L 466.48193 480.706774 
L 466.710411 480.413512 
L 467.395853 480.413512 
L 467.624334 484.941037 
L 468.309776 484.941037 
L 468.538256 480.122222 
L 469.223698 480.122222 
L 469.452179 481.438486 
L 470.137621 481.438486 
L 470.366101 488.603763 
L 471.051543 488.603763 
L 471.280024 486.998907 
L 471.965466 486.998907 
L 472.193946 491.244365 
L 472.879388 491.244365 
L 473.107869 495.494347 
L 473.793311 495.494347 
L 474.021792 499.746074 
L 474.707234 499.746074 
L 474.935714 513.342095 
L 475.621156 513.342095 
L 475.849637 514.944725 
L 476.535079 514.944725 
L 476.763559 521.080664 
L 477.449001 521.080664 
L 477.677482 520.811682 
L 478.362924 520.811682 
L 478.591405 522.412854 
L 480.190769 522.412854 
L 480.41925 525.614591 
L 481.104692 525.614591 
L 481.333172 525.3496 
L 482.018614 525.3496 
L 482.247095 523.486304 
L 482.932537 523.486304 
L 483.161017 523.225557 
L 483.846459 523.225557 
L 484.07494 524.566883 
L 484.760382 524.566883 
L 484.988863 527.250315 
L 485.674305 527.250315 
L 485.902785 525.652762 
L 486.588227 525.652762 
L 486.816708 525.399193 
L 487.50215 525.399193 
L 487.73063 531.282821 
L 488.416072 531.282821 
L 488.644553 533.975772 
L 489.329995 533.975772 
L 489.558475 535.323222 
L 490.243917 535.323222 
L 490.472398 532.133447 
L 491.15784 532.133447 
L 491.386321 534.836443 
L 492.071763 534.836443 
L 492.300243 531.649317 
L 492.985685 531.649317 
L 493.214166 531.173514 
L 493.899608 531.173514 
L 494.128088 540.020849 
L 495.727453 540.020849 
L 495.955934 542.972223 
L 496.641375 542.972223 
L 496.869856 544.33308 
L 498.469221 544.333856 
L 498.697701 544.107718 
L 499.383143 544.107718 
L 499.611624 551.606714 
L 500.297066 551.606714 
L 500.525546 548.427497 
L 501.210988 548.427497 
L 501.439469 546.837889 
L 502.124911 546.837889 
L 502.353392 548.204803 
L 503.038834 548.204803 
L 503.267314 545.026461 
L 504.866679 545.026461 
L 505.095159 543.437388 
L 505.780601 543.437388 
L 506.009082 541.848508 
L 506.694524 541.848508 
L 506.923004 537.082911 
L 507.608446 537.082911 
L 507.836927 533.906595 
L 508.522369 533.906595 
L 508.75085 529.14251 
L 509.436292 529.14251 
L 509.664772 525.966888 
L 510.350214 525.966888 
L 510.578695 522.791948 
L 511.264137 522.791948 
L 511.492617 518.030772 
L 512.178059 518.030772 
L 512.40654 534.639382 
L 513.091982 534.639382 
L 513.320463 543.737741 
L 514.005904 543.737741 
L 514.234385 554.422897 
L 514.919827 554.422897 
L 515.148308 558.972624 
L 515.83375 558.972624 
L 516.06223 563.522351 
L 516.747672 563.522351 
L 516.976153 575.585441 
L 517.661595 575.585441 
L 517.890075 584.685311 
L 518.575517 584.685311 
L 518.803998 595.370236 
L 519.48944 595.370236 
L 519.717921 609.018864 
L 520.403363 609.018864 
L 520.631843 613.568477 
L 521.317285 613.568477 
L 521.545766 611.983892 
L 522.231208 611.983892 
L 522.459688 608.815224 
L 523.14513 608.815224 
L 523.373611 610.399359 
L 524.059053 610.399359 
L 524.287533 608.815389 
L 524.972975 608.815389 
L 525.201456 607.231583 
L 525.886898 607.231583 
L 526.115379 605.647777 
L 526.800821 605.647777 
L 527.029301 608.614026 
L 527.714743 608.614026 
L 527.943224 607.03022 
L 529.542588 607.030381 
L 529.771069 606.830758 
L 530.456511 606.830758 
L 530.684992 612.964465 
L 531.370433 612.964465 
L 531.598914 614.349152 
L 532.284356 614.349152 
L 532.512837 623.253841 
L 533.198279 623.253841 
L 533.426759 624.836633 
L 534.112201 624.836633 
L 534.340682 626.222653 
L 535.026124 626.222653 
L 535.254604 636.713079 
L 535.940046 636.713079 
L 536.168527 644.235403 
L 536.853969 644.235403 
L 537.08245 644.040782 
L 537.767892 644.040782 
L 537.996372 647.011382 
L 538.681814 647.011382 
L 538.910295 648.593693 
L 539.595737 648.593693 
L 539.824217 645.429216 
L 540.509659 645.429216 
L 540.73814 648.400807 
L 541.423582 648.400807 
L 541.652062 652.76279 
L 542.337504 652.76279 
L 542.565985 651.180732 
L 543.251427 651.180732 
L 543.479908 650.988956 
L 545.079272 650.98885 
L 545.307753 652.570553 
L 545.993195 652.570553 
L 546.221675 655.543962 
L 546.907117 655.543962 
L 547.135598 655.354316 
L 547.82104 655.354316 
L 548.049521 653.772755 
L 548.734962 653.772755 
L 548.963443 656.746933 
L 549.648885 656.746933 
L 549.877366 664.277402 
L 550.562808 664.277402 
L 550.791288 665.671121 
L 551.47673 665.671121 
L 551.705211 670.227478 
L 552.390653 670.227478 
L 552.619133 671.808522 
L 553.304575 671.808522 
L 553.533056 673.389464 
L 554.218498 673.389464 
L 554.446979 676.364878 
L 556.046343 676.364878 
L 556.274824 677.945684 
L 556.960266 677.945684 
L 557.188746 679.34056 
L 557.874188 679.34056 
L 558.102669 679.155028 
L 558.788111 679.155028 
L 559.016591 682.130976 
L 559.702033 682.130976 
L 559.930514 681.946438 
L 560.615956 681.946438 
L 560.844437 684.922589 
L 561.529879 684.922589 
L 561.758359 692.548272 
L 562.443801 692.548272 
L 562.672282 695.708469 
L 564.271646 695.708594 
L 564.500127 701.664284 
L 565.185569 701.664284 
L 565.41405 698.505056 
L 566.099491 698.505056 
L 566.327972 701.483432 
L 567.013414 701.483432 
L 567.241895 707.620793 
L 567.927337 707.620793 
L 568.155817 706.041481 
L 569.755182 706.041481 
L 569.983662 709.020198 
L 570.669104 709.020198 
L 570.897585 710.59931 
L 571.583027 710.59931 
L 571.811508 716.736274 
L 572.496949 716.736274 
L 572.72543 719.715567 
L 573.410872 719.715567 
L 573.639353 724.273891 
L 574.324795 724.273891 
L 574.553275 727.253538 
L 575.238717 727.253538 
L 575.467198 734.792321 
L 576.15264 734.792321 
L 576.38112 731.635193 
L 577.066562 731.635193 
L 577.295043 730.056743 
L 577.980485 730.056743 
L 578.208966 728.478293 
L 578.894408 728.478293 
L 579.122888 729.880831 
L 579.80833 729.880831 
L 580.036811 731.459071 
L 581.636175 731.459071 
L 581.864656 729.880831 
L 583.46402 729.880831 
L 583.692501 726.724683 
L 584.377943 726.724683 
L 584.606424 726.55049 
L 585.291866 726.55049 
L 585.520346 727.954749 
L 586.205788 727.954749 
L 586.434269 729.359115 
L 587.119711 729.359115 
L 587.348191 735.323124 
L 588.033633 735.323124 
L 588.262114 736.900506 
L 588.947556 736.900506 
L 589.176037 738.477888 
L 589.861478 738.477888 
L 590.089959 740.05527 
L 590.775401 740.05527 
L 591.003882 744.443319 
L 592.603246 744.443319 
L 592.831727 749.00357 
L 593.517169 749.00357 
L 593.745649 752.157439 
L 594.431091 752.157439 
L 594.659572 761.278291 
L 595.345014 761.278291 
L 595.573495 768.991758 
L 596.258937 768.991758 
L 596.487417 770.399539 
L 597.172859 770.399539 
L 597.40134 774.960198 
L 598.086782 774.960198 
L 598.315262 774.792168 
L 599.000704 774.792168 
L 599.229185 777.776927 
L 599.914627 777.776927 
L 600.143108 779.353131 
L 600.828549 779.353131 
L 601.05703 786.899319 
L 601.742472 786.899319 
L 601.970953 791.46066 
L 602.656395 791.46066 
L 602.884875 796.022088 
L 604.48424 796.022088 
L 604.71272 797.597908 
L 606.312085 797.597908 
L 606.540566 800.583425 
L 608.13993 800.583425 
L 608.368411 802.159245 
L 609.967775 802.159245 
L 610.196256 806.720956 
L 610.881698 806.720956 
L 611.110178 805.145231 
L 611.79562 805.145231 
L 612.024101 803.569602 
L 612.709543 803.569602 
L 612.938024 812.693667 
L 613.623466 812.693667 
L 613.851946 811.118225 
L 614.537388 811.118225 
L 614.765869 815.680391 
L 615.451311 815.680391 
L 615.679791 814.105043 
L 616.365233 814.105043 
L 616.593714 821.654486 
L 617.279156 821.654486 
L 617.507636 827.792098 
L 619.107001 827.792098 
L 619.335482 833.929528 
L 620.020924 833.929528 
L 620.249404 838.492063 
L 620.934846 838.492063 
L 621.163327 843.054686 
L 621.848769 843.054686 
L 622.077249 846.042678 
L 622.762691 846.042678 
L 622.991172 849.191676 
L 623.676614 849.191676 
L 623.905095 853.754299 
L 624.590536 853.754299 
L 624.819017 858.317009 
L 625.504459 858.317009 
L 625.73294 861.305612 
L 628.246227 861.305525 
L 628.474707 859.731419 
L 633.729762 859.731419 
L 633.958243 862.720194 
L 634.643685 862.720194 
L 634.872165 862.560927 
L 635.557607 862.560927 
L 635.786088 867.124065 
L 636.47153 867.124065 
L 636.700011 871.687289 
L 637.385453 871.687289 
L 637.613933 874.676665 
L 638.299375 874.676665 
L 638.527856 877.666295 
L 639.213298 877.666295 
L 639.441778 880.656011 
L 640.12722 880.656011 
L 640.355701 882.072215 
L 641.041143 882.072215 
L 641.269624 886.636035 
L 641.955065 886.636035 
L 642.183546 892.616805 
L 643.782911 892.616805 
L 644.011391 894.033835 
L 644.696833 894.033835 
L 644.925314 895.607354 
L 645.610756 895.607354 
L 645.839236 898.598073 
L 646.524678 898.598073 
L 646.753159 900.171431 
L 647.438601 900.171431 
L 647.667082 901.589042 
L 648.352524 901.589042 
L 648.581004 909.144745 
L 649.266446 909.144745 
L 649.494927 913.709403 
L 650.180369 913.709403 
L 650.408849 922.838954 
L 651.094291 922.838954 
L 651.322772 925.830813 
L 652.008214 925.830813 
L 652.236694 930.395784 
L 652.922136 930.395784 
L 653.150617 936.533546 
L 653.836059 936.533546 
L 654.06454 941.098588 
L 655.663904 941.098588 
L 655.892385 945.663719 
L 657.491749 945.663719 
L 657.72023 948.656448 
L 658.405672 948.656448 
L 658.634153 947.08388 
L 659.319594 947.08388 
L 659.548075 950.076772 
L 660.233517 950.076772 
L 660.461998 951.649264 
L 661.14744 951.649264 
L 661.37592 954.642307 
L 662.061362 954.642307 
L 662.289843 953.069815 
L 662.975285 953.069815 
L 663.203765 962.201123 
L 663.889207 962.201123 
L 664.117688 962.049955 
L 664.80313 962.049955 
L 665.031611 974.175898 
L 665.717053 974.175898 
L 665.945533 980.164201 
L 666.630975 980.164201 
L 666.859456 981.586496 
L 667.544898 981.586496 
L 667.773378 990.719735 
L 668.45882 990.719735 
L 668.687301 995.137727 
L 669.372743 995.137727 
L 669.601223 996.709531 
L 670.286665 996.709531 
L 670.515146 1001.276433 
L 671.200588 1001.276433 
L 671.429069 1004.271744 
L 672.114511 1004.271744 
L 672.342991 1008.838874 
L 673.028433 1008.838874 
L 673.256914 1017.973366 
L 673.942356 1017.973366 
L 674.170836 1023.965326 
L 674.856278 1023.965326 
L 675.084759 1030.104201 
L 675.770201 1030.104201 
L 675.998682 1037.668279 
L 676.684123 1037.668279 
L 676.912604 1046.803949 
L 677.598046 1046.803949 
L 677.826527 1045.232864 
L 678.511969 1045.232864 
L 678.740449 1052.797864 
L 679.425891 1052.797864 
L 679.654372 1051.226847 
L 681.253736 1051.226847 
L 681.482217 1054.36868 
L 683.081582 1054.36868 
L 683.310062 1057.95469 
L 684.909427 1057.95469 
L 685.137907 1059.560318 
L 685.823349 1059.560318 
L 686.05183 1062.558038 
L 686.737272 1062.558038 
L 686.965752 1060.95241 
L 687.651194 1060.95241 
L 687.879675 1063.950391 
L 688.565117 1063.950391 
L 688.793598 1068.554021 
L 689.47904 1068.554021 
L 689.70752 1074.763018 
L 690.392962 1074.763018 
L 690.621443 1079.366775 
L 691.306885 1079.366775 
L 691.535365 1076.156554 
L 694.048652 1076.156554 
L 694.277133 1074.551444 
L 694.962575 1074.551444 
L 695.191056 1076.156427 
L 695.876498 1076.156427 
L 696.104978 1080.760184 
L 697.704343 1080.760184 
L 697.932823 1085.364066 
L 698.618265 1085.364066 
L 698.846746 1092.148414 
L 699.532188 1092.148414 
L 699.760669 1099.786638 
L 700.446111 1099.786638 
L 700.674591 1104.425122 
L 701.360033 1104.425122 
L 701.588514 1106.062766 
L 702.273956 1106.062766 
L 702.502436 1104.425122 
L 703.187878 1104.425122 
L 703.416359 1106.062584 
L 704.101801 1106.062584 
L 704.330281 1107.699972 
L 705.015723 1107.699972 
L 705.244204 1109.06339 
L 705.929646 1109.06339 
L 706.158127 1115.066084 
L 706.843569 1115.066084 
L 707.072049 1118.067969 
L 708.671414 1118.06779 
L 708.899894 1122.706883 
L 709.585336 1122.706883 
L 709.813817 1125.709271 
L 711.413181 1125.709271 
L 711.641662 1124.072418 
L 714.154949 1124.072418 
L 714.38343 1128.711629 
L 715.068872 1128.711629 
L 715.297352 1127.074953 
L 715.982794 1127.074953 
L 716.211275 1133.080595 
L 716.896717 1133.080595 
L 717.125198 1140.723728 
L 717.81064 1140.723728 
L 718.03912 1146.999937 
L 718.724562 1146.999937 
L 718.953043 1150.004156 
L 719.638485 1150.004156 
L 719.866965 1153.008347 
L 720.552407 1153.008347 
L 720.780888 1157.648593 
L 721.46633 1157.648593 
L 721.69481 1160.653272 
L 722.380252 1160.653272 
L 722.608733 1160.387126 
L 723.294175 1160.387126 
L 723.522656 1166.397733 
L 724.208098 1166.397733 
L 724.436578 1177.314777 
L 725.12202 1177.314777 
L 725.350501 1178.9497 
L 726.035943 1178.9497 
L 726.264423 1182.79138 
L 726.949865 1182.79138 
L 727.178346 1184.099409 
L 727.863788 1184.099409 
L 728.092269 1187.368603 
L 728.77771 1187.368603 
L 729.006191 1191.946118 
L 729.691633 1191.946118 
L 729.920114 1193.255383 
L 730.605556 1193.255383 
L 730.834036 1202.412384 
L 731.519478 1202.412384 
L 731.747959 1208.625055 
L 732.433401 1208.625055 
L 732.661881 1209.936329 
L 733.347323 1209.936329 
L 733.575804 1216.149146 
L 734.261246 1216.149146 
L 734.489727 1217.461121 
L 736.089091 1217.461121 
L 736.317572 1224.986757 
L 737.003014 1224.986757 
L 737.231494 1226.620113 
L 738.830859 1226.620113 
L 739.059339 1229.566711 
L 739.744781 1229.566711 
L 739.973262 1231.2 
L 739.973262 1231.2 
" clip-path="url(#p8e328a9f69)" style="fill: none; stroke: #0000ff; stroke-width: 1.5; stroke-linecap: square"/>
   </g>
   <g id="patch_3">
    <path d="M 270 1281.6 
L 270 172.8 
" style="fill: none; stroke: #000000; stroke-width: 0.8; stroke-linejoin: miter; stroke-linecap: square"/>
   </g>
   <g id="patch_4">
    <path d="M 762.352941 1281.6 
L 762.352941 172.8 
" style="fill: none; stroke: #000000; stroke-width: 0.8; stroke-linejoin: miter; stroke-linecap: square"/>
   </g>
   <g id="patch_5">
    <path d="M 270 1281.6 
L 762.352941 1281.6 
" style="fill: none; stroke: #000000; stroke-width: 0.8; stroke-linejoin: miter; stroke-linecap: square"/>
   </g>
   <g id="patch_6">
    <path d="M 270 172.8 
L 762.352941 172.8 
" style="fill: none; stroke: #000000; stroke-width: 0.8; stroke-linejoin: miter; stroke-linecap: square"/>
   </g>
   <g id="legend_1">
    <g id="patch_7">
     <path d="M 671.310754 195.478125 
L 755.352941 195.478125 
Q 757.352941 195.478125 757.352941 193.478125 
L 757.352941 179.8 
Q 757.352941 177.8 755.352941 177.8 
L 671.310754 177.8 
Q 669.310754 177.8 669.310754 179.8 
L 669.310754 193.478125 
Q 669.310754 195.478125 671.310754 195.478125 
z
" style="fill: #ffffff; opacity: 0.8; stroke: #cccccc; stroke-linejoin: miter"/>
    </g>
    <g id="line2d_19">
     <path d="M 673.310754 185.898437 
L 683.310754 185.898437 
L 693.310754 185.898437 
" style="fill: none; stroke: #0000ff; stroke-width: 1.5; stroke-linecap: square"/>
    </g>
    <g id="text_18">
     <!-- O1 reward -->
     <g transform="translate(701.310754 189.398437) scale(0.1 -0.1)">
      <defs>
       <path id="DejaVuSans-4f" d="M 2522 4238 
Q 1834 4238 1429 3725 
Q 1025 3213 1025 2328 
Q 1025 1447 1429 934 
Q 1834 422 2522 422 
Q 3209 422 3611 934 
Q 4013 1447 4013 2328 
Q 4013 3213 3611 3725 
Q 3209 4238 2522 4238 
z
M 2522 4750 
Q 3503 4750 4090 4092 
Q 4678 3434 4678 2328 
Q 4678 1225 4090 567 
Q 3503 -91 2522 -91 
Q 1538 -91 948 565 
Q 359 1222 359 2328 
Q 359 3434 948 4092 
Q 1538 4750 2522 4750 
z
" transform="scale(0.015625)"/>
       <path id="DejaVuSans-20" transform="scale(0.015625)"/>
       <path id="DejaVuSans-72" d="M 2631 2963 
Q 2534 3019 2420 3045 
Q 2306 3072 2169 3072 
Q 1681 3072 1420 2755 
Q 1159 2438 1159 1844 
L 1159 0 
L 581 0 
L 581 3500 
L 1159 3500 
L 1159 2956 
Q 1341 3275 1631 3429 
Q 1922 3584 2338 3584 
Q 2397 3584 2469 3576 
Q 2541 3569 2628 3553 
L 2631 2963 
z
" transform="scale(0.015625)"/>
       <path id="DejaVuSans-65" d="M 3597 1894 
L 3597 1613 
L 953 1613 
Q 991 1019 1311 708 
Q 1631 397 2203 397 
Q 2534 397 2845 478 
Q 3156 559 3463 722 
L 3463 178 
Q 3153 47 2828 -22 
Q 2503 -91 2169 -91 
Q 1331 -91 842 396 
Q 353 884 353 1716 
Q 353 2575 817 3079 
Q 1281 3584 2069 3584 
Q 2775 3584 3186 3129 
Q 3597 2675 3597 1894 
z
M 3022 2063 
Q 3016 2534 2758 2815 
Q 2500 3097 2075 3097 
Q 1594 3097 1305 2825 
Q 1016 2553 972 2059 
L 3022 2063 
z
" transform="scale(0.015625)"/>
       <path id="DejaVuSans-77" d="M 269 3500 
L 844 3500 
L 1563 769 
L 2278 3500 
L 2956 3500 
L 3675 769 
L 4391 3500 
L 4966 3500 
L 4050 0 
L 3372 0 
L 2619 2869 
L 1863 0 
L 1184 0 
L 269 3500 
z
" transform="scale(0.015625)"/>
       <path id="DejaVuSans-61" d="M 2194 1759 
Q 1497 1759 1228 1600 
Q 959 1441 959 1056 
Q 959 750 1161 570 
Q 1363 391 1709 391 
Q 2188 391 2477 730 
Q 2766 1069 2766 1631 
L 2766 1759 
L 2194 1759 
z
M 3341 1997 
L 3341 0 
L 2766 0 
L 2766 531 
Q 2569 213 2275 61 
Q 1981 -91 1556 -91 
Q 1019 -91 701 211 
Q 384 513 384 1019 
Q 384 1609 779 1909 
Q 1175 2209 1959 2209 
L 2766 2209 
L 2766 2266 
Q 2766 2663 2505 2880 
Q 2244 3097 1772 3097 
Q 1472 3097 1187 3025 
Q 903 2953 641 2809 
L 641 3341 
Q 956 3463 1253 3523 
Q 1550 3584 1831 3584 
Q 2591 3584 2966 3190 
Q 3341 2797 3341 1997 
z
" transform="scale(0.015625)"/>
       <path id="DejaVuSans-64" d="M 2906 2969 
L 2906 4863 
L 3481 4863 
L 3481 0 
L 2906 0 
L 2906 525 
Q 2725 213 2448 61 
Q 2172 -91 1784 -91 
Q 1150 -91 751 415 
Q 353 922 353 1747 
Q 353 2572 751 3078 
Q 1150 3584 1784 3584 
Q 2172 3584 2448 3432 
Q 2725 3281 2906 2969 
z
M 947 1747 
Q 947 1113 1208 752 
Q 1469 391 1925 391 
Q 2381 391 2643 752 
Q 2906 1113 2906 1747 
Q 2906 2381 2643 2742 
Q 2381 3103 1925 3103 
Q 1469 3103 1208 2742 
Q 947 2381 947 1747 
z
" transform="scale(0.015625)"/>
      </defs>
      <use xlink:href="#DejaVuSans-4f"/>
      <use xlink:href="#DejaVuSans-31" x="78.710938"/>
      <use xlink:href="#DejaVuSans-20" x="142.333984"/>
      <use xlink:href="#DejaVuSans-72" x="174.121094"/>
      <use xlink:href="#DejaVuSans-65" x="212.984375"/>
      <use xlink:href="#DejaVuSans-77" x="274.507812"/>
      <use xlink:href="#DejaVuSans-61" x="356.294922"/>
      <use xlink:href="#DejaVuSans-72" x="417.574219"/>
      <use xlink:href="#DejaVuSans-64" x="456.9375"/>
     </g>
    </g>
   </g>
  </g>
  <g id="axes_2">
   <g id="patch_8">
    <path d="M 860.823529 1281.6 
L 1353.176471 1281.6 
L 1353.176471 172.8 
L 860.823529 172.8 
z
" style="fill: #ffffff"/>
   </g>
   <g id="matplotlib.axis_3">
    <g id="xtick_10">
     <g id="line2d_20">
      <g>
       <use xlink:href="#m2bdc218169" x="882.974728" y="1281.6" style="stroke: #000000; stroke-width: 0.8"/>
      </g>
     </g>
     <g id="text_19">
      <!-- 0 -->
      <g transform="translate(879.793478 1296.198437) scale(0.1 -0.1)">
       <use xlink:href="#DejaVuSans-30"/>
      </g>
     </g>
    </g>
    <g id="xtick_11">
     <g id="line2d_21">
      <g>
       <use xlink:href="#m2bdc218169" x="940.094889" y="1281.6" style="stroke: #000000; stroke-width: 0.8"/>
      </g>
     </g>
     <g id="text_20">
      <!-- 250 -->
      <g transform="translate(930.551139 1296.198437) scale(0.1 -0.1)">
       <use xlink:href="#DejaVuSans-32"/>
       <use xlink:href="#DejaVuSans-35" x="63.623047"/>
       <use xlink:href="#DejaVuSans-30" x="127.246094"/>
      </g>
     </g>
    </g>
    <g id="xtick_12">
     <g id="line2d_22">
      <g>
       <use xlink:href="#m2bdc218169" x="997.21505" y="1281.6" style="stroke: #000000; stroke-width: 0.8"/>
      </g>
     </g>
     <g id="text_21">
      <!-- 500 -->
      <g transform="translate(987.6713 1296.198437) scale(0.1 -0.1)">
       <use xlink:href="#DejaVuSans-35"/>
       <use xlink:href="#DejaVuSans-30" x="63.623047"/>
       <use xlink:href="#DejaVuSans-30" x="127.246094"/>
      </g>
     </g>
    </g>
    <g id="xtick_13">
     <g id="line2d_23">
      <g>
       <use xlink:href="#m2bdc218169" x="1054.335211" y="1281.6" style="stroke: #000000; stroke-width: 0.8"/>
      </g>
     </g>
     <g id="text_22">
      <!-- 750 -->
      <g transform="translate(1044.791461 1296.198437) scale(0.1 -0.1)">
       <use xlink:href="#DejaVuSans-37"/>
       <use xlink:href="#DejaVuSans-35" x="63.623047"/>
       <use xlink:href="#DejaVuSans-30" x="127.246094"/>
      </g>
     </g>
    </g>
    <g id="xtick_14">
     <g id="line2d_24">
      <g>
       <use xlink:href="#m2bdc218169" x="1111.455373" y="1281.6" style="stroke: #000000; stroke-width: 0.8"/>
      </g>
     </g>
     <g id="text_23">
      <!-- 1000 -->
      <g transform="translate(1098.730373 1296.198437) scale(0.1 -0.1)">
       <use xlink:href="#DejaVuSans-31"/>
       <use xlink:href="#DejaVuSans-30" x="63.623047"/>
       <use xlink:href="#DejaVuSans-30" x="127.246094"/>
       <use xlink:href="#DejaVuSans-30" x="190.869141"/>
      </g>
     </g>
    </g>
    <g id="xtick_15">
     <g id="line2d_25">
      <g>
       <use xlink:href="#m2bdc218169" x="1168.575534" y="1281.6" style="stroke: #000000; stroke-width: 0.8"/>
      </g>
     </g>
     <g id="text_24">
      <!-- 1250 -->
      <g transform="translate(1155.850534 1296.198437) scale(0.1 -0.1)">
       <use xlink:href="#DejaVuSans-31"/>
       <use xlink:href="#DejaVuSans-32" x="63.623047"/>
       <use xlink:href="#DejaVuSans-35" x="127.246094"/>
       <use xlink:href="#DejaVuSans-30" x="190.869141"/>
      </g>
     </g>
    </g>
    <g id="xtick_16">
     <g id="line2d_26">
      <g>
       <use xlink:href="#m2bdc218169" x="1225.695695" y="1281.6" style="stroke: #000000; stroke-width: 0.8"/>
      </g>
     </g>
     <g id="text_25">
      <!-- 1500 -->
      <g transform="translate(1212.970695 1296.198437) scale(0.1 -0.1)">
       <use xlink:href="#DejaVuSans-31"/>
       <use xlink:href="#DejaVuSans-35" x="63.623047"/>
       <use xlink:href="#DejaVuSans-30" x="127.246094"/>
       <use xlink:href="#DejaVuSans-30" x="190.869141"/>
      </g>
     </g>
    </g>
    <g id="xtick_17">
     <g id="line2d_27">
      <g>
       <use xlink:href="#m2bdc218169" x="1282.815856" y="1281.6" style="stroke: #000000; stroke-width: 0.8"/>
      </g>
     </g>
     <g id="text_26">
      <!-- 1750 -->
      <g transform="translate(1270.090856 1296.198437) scale(0.1 -0.1)">
       <use xlink:href="#DejaVuSans-31"/>
       <use xlink:href="#DejaVuSans-37" x="63.623047"/>
       <use xlink:href="#DejaVuSans-35" x="127.246094"/>
       <use xlink:href="#DejaVuSans-30" x="190.869141"/>
      </g>
     </g>
    </g>
    <g id="xtick_18">
     <g id="line2d_28">
      <g>
       <use xlink:href="#m2bdc218169" x="1339.936017" y="1281.6" style="stroke: #000000; stroke-width: 0.8"/>
      </g>
     </g>
     <g id="text_27">
      <!-- 2000 -->
      <g transform="translate(1327.211017 1296.198437) scale(0.1 -0.1)">
       <use xlink:href="#DejaVuSans-32"/>
       <use xlink:href="#DejaVuSans-30" x="63.623047"/>
       <use xlink:href="#DejaVuSans-30" x="127.246094"/>
       <use xlink:href="#DejaVuSans-30" x="190.869141"/>
      </g>
     </g>
    </g>
   </g>
   <g id="matplotlib.axis_4">
    <g id="ytick_9">
     <g id="line2d_29">
      <g>
       <use xlink:href="#md18fb2d524" x="860.823529" y="1231.2" style="stroke: #000000; stroke-width: 0.8"/>
      </g>
     </g>
     <g id="text_28">
      <!-- 0 -->
      <g transform="translate(847.461029 1234.999219) scale(0.1 -0.1)">
       <use xlink:href="#DejaVuSans-30"/>
      </g>
     </g>
    </g>
    <g id="ytick_10">
     <g id="line2d_30">
      <g>
       <use xlink:href="#md18fb2d524" x="860.823529" y="1054.52199" style="stroke: #000000; stroke-width: 0.8"/>
      </g>
     </g>
     <g id="text_29">
      <!-- 20 -->
      <g transform="translate(841.098529 1058.321208) scale(0.1 -0.1)">
       <use xlink:href="#DejaVuSans-32"/>
       <use xlink:href="#DejaVuSans-30" x="63.623047"/>
      </g>
     </g>
    </g>
    <g id="ytick_11">
     <g id="line2d_31">
      <g>
       <use xlink:href="#md18fb2d524" x="860.823529" y="877.843979" style="stroke: #000000; stroke-width: 0.8"/>
      </g>
     </g>
     <g id="text_30">
      <!-- 40 -->
      <g transform="translate(841.098529 881.643198) scale(0.1 -0.1)">
       <defs>
        <path id="DejaVuSans-34" d="M 2419 4116 
L 825 1625 
L 2419 1625 
L 2419 4116 
z
M 2253 4666 
L 3047 4666 
L 3047 1625 
L 3713 1625 
L 3713 1100 
L 3047 1100 
L 3047 0 
L 2419 0 
L 2419 1100 
L 313 1100 
L 313 1709 
L 2253 4666 
z
" transform="scale(0.015625)"/>
       </defs>
       <use xlink:href="#DejaVuSans-34"/>
       <use xlink:href="#DejaVuSans-30" x="63.623047"/>
      </g>
     </g>
    </g>
    <g id="ytick_12">
     <g id="line2d_32">
      <g>
       <use xlink:href="#md18fb2d524" x="860.823529" y="701.165969" style="stroke: #000000; stroke-width: 0.8"/>
      </g>
     </g>
     <g id="text_31">
      <!-- 60 -->
      <g transform="translate(841.098529 704.965187) scale(0.1 -0.1)">
       <defs>
        <path id="DejaVuSans-36" d="M 2113 2584 
Q 1688 2584 1439 2293 
Q 1191 2003 1191 1497 
Q 1191 994 1439 701 
Q 1688 409 2113 409 
Q 2538 409 2786 701 
Q 3034 994 3034 1497 
Q 3034 2003 2786 2293 
Q 2538 2584 2113 2584 
z
M 3366 4563 
L 3366 3988 
Q 3128 4100 2886 4159 
Q 2644 4219 2406 4219 
Q 1781 4219 1451 3797 
Q 1122 3375 1075 2522 
Q 1259 2794 1537 2939 
Q 1816 3084 2150 3084 
Q 2853 3084 3261 2657 
Q 3669 2231 3669 1497 
Q 3669 778 3244 343 
Q 2819 -91 2113 -91 
Q 1303 -91 875 529 
Q 447 1150 447 2328 
Q 447 3434 972 4092 
Q 1497 4750 2381 4750 
Q 2619 4750 2861 4703 
Q 3103 4656 3366 4563 
z
" transform="scale(0.015625)"/>
       </defs>
       <use xlink:href="#DejaVuSans-36"/>
       <use xlink:href="#DejaVuSans-30" x="63.623047"/>
      </g>
     </g>
    </g>
    <g id="ytick_13">
     <g id="line2d_33">
      <g>
       <use xlink:href="#md18fb2d524" x="860.823529" y="524.487958" style="stroke: #000000; stroke-width: 0.8"/>
      </g>
     </g>
     <g id="text_32">
      <!-- 80 -->
      <g transform="translate(841.098529 528.287177) scale(0.1 -0.1)">
       <defs>
        <path id="DejaVuSans-38" d="M 2034 2216 
Q 1584 2216 1326 1975 
Q 1069 1734 1069 1313 
Q 1069 891 1326 650 
Q 1584 409 2034 409 
Q 2484 409 2743 651 
Q 3003 894 3003 1313 
Q 3003 1734 2745 1975 
Q 2488 2216 2034 2216 
z
M 1403 2484 
Q 997 2584 770 2862 
Q 544 3141 544 3541 
Q 544 4100 942 4425 
Q 1341 4750 2034 4750 
Q 2731 4750 3128 4425 
Q 3525 4100 3525 3541 
Q 3525 3141 3298 2862 
Q 3072 2584 2669 2484 
Q 3125 2378 3379 2068 
Q 3634 1759 3634 1313 
Q 3634 634 3220 271 
Q 2806 -91 2034 -91 
Q 1263 -91 848 271 
Q 434 634 434 1313 
Q 434 1759 690 2068 
Q 947 2378 1403 2484 
z
M 1172 3481 
Q 1172 3119 1398 2916 
Q 1625 2713 2034 2713 
Q 2441 2713 2670 2916 
Q 2900 3119 2900 3481 
Q 2900 3844 2670 4047 
Q 2441 4250 2034 4250 
Q 1625 4250 1398 4047 
Q 1172 3844 1172 3481 
z
" transform="scale(0.015625)"/>
       </defs>
       <use xlink:href="#DejaVuSans-38"/>
       <use xlink:href="#DejaVuSans-30" x="63.623047"/>
      </g>
     </g>
    </g>
    <g id="ytick_14">
     <g id="line2d_34">
      <g>
       <use xlink:href="#md18fb2d524" x="860.823529" y="347.809948" style="stroke: #000000; stroke-width: 0.8"/>
      </g>
     </g>
     <g id="text_33">
      <!-- 100 -->
      <g transform="translate(834.736029 351.609166) scale(0.1 -0.1)">
       <use xlink:href="#DejaVuSans-31"/>
       <use xlink:href="#DejaVuSans-30" x="63.623047"/>
       <use xlink:href="#DejaVuSans-30" x="127.246094"/>
      </g>
     </g>
    </g>
   </g>
   <g id="line2d_35">
    <path d="M 883.203209 1231.2 
L 893.713318 1231.13469 
L 893.941799 1227.575692 
L 894.627241 1227.575692 
L 894.855721 1228.970553 
L 895.541163 1228.970553 
L 895.769644 1228.141029 
L 896.455086 1228.141029 
L 896.683567 1229.776329 
L 897.369009 1229.776329 
L 897.597489 1222.429284 
L 898.282931 1222.429284 
L 898.511412 1211.292247 
L 899.196854 1211.292247 
L 899.425334 1205.751806 
L 900.110776 1205.751806 
L 900.339257 1191.157789 
L 901.024699 1191.157789 
L 901.253179 1177.707654 
L 905.594312 1177.707654 
L 905.822792 1171.870082 
L 908.336079 1171.870082 
L 908.56456 1165.644207 
L 911.077847 1165.644207 
L 911.306328 1157.161559 
L 911.99177 1157.161559 
L 912.22025 1154.7797 
L 912.905692 1154.7797 
L 913.134173 1152.158747 
L 914.733538 1152.158747 
L 914.962018 1136.07057 
L 915.64746 1136.07057 
L 915.875941 1110.770567 
L 916.561383 1110.770567 
L 916.789863 1104.030887 
L 917.475305 1104.030887 
L 917.703786 1091.052533 
L 918.389228 1091.052533 
L 918.617708 1059.63532 
L 919.30315 1059.63532 
L 919.531631 1037.768891 
L 929.356299 1037.768891 
L 929.584779 1031.321384 
L 932.098067 1031.321384 
L 932.326547 1024.968631 
L 933.011989 1024.968631 
L 933.24047 1018.549457 
L 933.925912 1018.549457 
L 934.154392 1012.065566 
L 935.753757 1012.065566 
L 935.982237 1009.777058 
L 939.409447 1009.777058 
L 939.637928 1007.427049 
L 940.32337 1007.427049 
L 940.55185 991.827163 
L 941.237292 991.827163 
L 941.465773 979.9138 
L 942.151215 979.9138 
L 942.379696 953.511364 
L 943.065137 953.511364 
L 943.293618 930.284486 
L 943.97906 930.284486 
L 944.207541 911.977239 
L 944.892983 911.977239 
L 945.121463 889.464602 
L 945.806905 889.464602 
L 946.035386 862.12192 
L 946.720828 862.12192 
L 946.949308 849.893545 
L 947.63475 849.893545 
L 947.863231 832.957991 
L 950.376518 832.957991 
L 950.604999 829.134633 
L 951.290441 829.134633 
L 951.518921 821.228758 
L 952.204363 821.228758 
L 952.432844 826.684727 
L 953.118286 826.684727 
L 953.346766 829.279778 
L 954.032208 829.279778 
L 954.260689 834.670528 
L 954.946131 834.670528 
L 955.174612 837.453105 
L 955.860054 837.453105 
L 956.088534 839.98159 
L 956.773976 839.98159 
L 957.002457 832.191918 
L 958.601821 832.191918 
L 958.830302 826.894774 
L 959.515744 826.894774 
L 959.744225 824.45433 
L 960.429666 824.45433 
L 960.658147 816.801518 
L 961.343589 816.801518 
L 961.57207 801.705574 
L 962.257512 801.705574 
L 962.485992 794.477728 
L 963.171434 794.477728 
L 963.399915 788.194072 
L 964.085357 788.194072 
L 964.313837 784.126095 
L 964.999279 784.126095 
L 965.22776 777.444482 
L 965.913202 777.444482 
L 966.141683 784.060107 
L 966.827125 784.060107 
L 967.055605 798.880663 
L 967.741047 798.880663 
L 967.969528 794.235259 
L 968.65497 794.235259 
L 968.88345 781.489943 
L 969.568892 781.489943 
L 969.797373 770.675948 
L 970.482815 770.675948 
L 970.711295 772.237565 
L 971.396737 772.237565 
L 971.625218 761.967308 
L 972.31066 761.967308 
L 972.539141 753.141784 
L 973.224583 753.141784 
L 973.453063 751.711275 
L 975.052428 751.65897 
L 975.280908 753.047709 
L 975.96635 753.047709 
L 976.194831 750.330211 
L 976.880273 750.330211 
L 977.108754 741.84729 
L 977.794195 741.84729 
L 978.022676 743.121127 
L 978.708118 743.121127 
L 978.936599 740.235118 
L 979.622041 740.235118 
L 979.850521 731.969745 
L 980.535963 731.969745 
L 980.764444 726.660375 
L 981.449886 726.660375 
L 981.678366 721.393755 
L 982.363808 721.393755 
L 982.592289 718.526042 
L 983.277731 718.526042 
L 983.506212 716.823447 
L 985.105576 716.823447 
L 985.334057 727.120901 
L 986.019499 727.120901 
L 986.247979 732.19287 
L 986.933421 732.19287 
L 987.161902 730.388384 
L 987.847344 730.388384 
L 988.075824 734.260597 
L 988.761266 734.260597 
L 988.989747 735.219889 
L 989.675189 735.219889 
L 989.90367 745.71739 
L 990.589112 745.71739 
L 990.817592 747.72164 
L 991.503034 747.72164 
L 991.731515 756.109308 
L 992.416957 756.109308 
L 992.645437 755.700185 
L 993.330879 755.700185 
L 993.55936 747.529184 
L 994.244802 747.529184 
L 994.473283 742.299809 
L 995.158724 742.299809 
L 995.387205 741.526693 
L 996.072647 741.526693 
L 996.301128 737.142236 
L 996.98657 737.142236 
L 997.21505 729.912125 
L 997.900492 729.912125 
L 998.128973 732.808092 
L 998.814415 732.808092 
L 999.042895 735.699248 
L 999.728337 735.699248 
L 999.956818 735.010747 
L 1000.64226 735.010747 
L 1000.870741 732.109919 
L 1001.556182 732.109919 
L 1001.784663 724.327596 
L 1002.470105 724.327596 
L 1002.698586 719.498834 
L 1004.29795 719.498834 
L 1004.526431 715.364692 
L 1005.211873 715.364692 
L 1005.440353 720.045236 
L 1006.125795 720.045236 
L 1006.354276 728.087204 
L 1007.039718 728.087204 
L 1007.268199 730.466619 
L 1007.953641 730.466619 
L 1008.182121 729.985157 
L 1008.867563 729.985157 
L 1009.096044 729.049651 
L 1009.781486 729.049651 
L 1010.009966 731.077359 
L 1010.695408 731.077359 
L 1010.923889 723.653836 
L 1011.609331 723.653836 
L 1011.837811 705.428373 
L 1012.523253 705.428373 
L 1012.751734 694.684823 
L 1013.437176 694.684823 
L 1013.665657 680.556028 
L 1014.351099 680.556028 
L 1014.579579 666.335724 
L 1015.265021 666.335724 
L 1015.493502 652.866492 
L 1016.178944 652.866492 
L 1016.407424 645.832431 
L 1017.092866 645.832431 
L 1017.321347 635.984754 
L 1018.006789 635.984754 
L 1018.23527 622.714 
L 1018.920711 622.714 
L 1019.149192 616.159493 
L 1019.834634 616.159493 
L 1020.063115 606.432478 
L 1020.748557 606.432478 
L 1020.977037 609.801931 
L 1021.662479 609.801931 
L 1021.89096 603.998807 
L 1022.576402 603.998807 
L 1022.804882 613.375064 
L 1023.490324 613.375064 
L 1023.718805 613.639427 
L 1024.404247 613.639427 
L 1024.632728 613.858276 
L 1025.31817 613.858276 
L 1025.54665 611.058823 
L 1027.146015 611.155984 
L 1027.374495 611.333388 
L 1028.059937 611.333388 
L 1028.288418 620.453051 
L 1028.97386 620.453051 
L 1029.20234 626.384316 
L 1029.887782 626.384316 
L 1030.116263 629.285938 
L 1030.801705 629.285938 
L 1031.030186 626.379546 
L 1031.715628 626.379546 
L 1031.944108 623.355987 
L 1032.62955 623.355987 
L 1032.858031 617.438236 
L 1033.543473 617.438236 
L 1033.771953 611.588068 
L 1035.371318 611.576328 
L 1035.599799 614.520454 
L 1036.28524 614.520454 
L 1036.513721 611.675387 
L 1037.199163 611.675387 
L 1037.427644 608.847141 
L 1039.027008 608.949835 
L 1039.255489 620.461149 
L 1039.940931 620.461149 
L 1040.169411 623.4194 
L 1040.854853 623.4194 
L 1041.083334 615.484663 
L 1041.768776 615.484663 
L 1041.997257 618.487846 
L 1042.682699 618.487846 
L 1042.911179 621.726527 
L 1043.596621 621.726527 
L 1043.825102 618.949793 
L 1044.510544 618.949793 
L 1044.739024 619.207428 
L 1045.424466 619.207428 
L 1045.652947 622.841185 
L 1046.338389 622.841185 
L 1046.566869 623.832873 
L 1048.166234 623.834765 
L 1048.394715 615.686335 
L 1049.080157 615.686335 
L 1049.308637 610.27485 
L 1049.994079 610.27485 
L 1050.22256 607.5718 
L 1050.908002 607.5718 
L 1051.136482 602.174843 
L 1051.821924 602.174843 
L 1052.050405 599.480922 
L 1052.735847 599.480922 
L 1052.964328 596.788751 
L 1053.649769 596.788751 
L 1053.87825 591.409549 
L 1054.563692 591.409549 
L 1054.792173 586.037032 
L 1055.477615 586.037032 
L 1055.706095 580.671014 
L 1056.391537 580.671014 
L 1056.620018 577.990408 
L 1057.30546 577.990408 
L 1057.53394 569.972737 
L 1058.219382 569.972737 
L 1058.447863 564.644904 
L 1059.133305 564.644904 
L 1059.361786 561.983277 
L 1060.96115 561.983277 
L 1061.189631 559.323157 
L 1061.875073 559.323157 
L 1062.103553 551.360408 
L 1062.788995 551.360408 
L 1063.017476 543.426677 
L 1063.702918 543.426677 
L 1063.931398 535.525068 
L 1064.61684 535.525068 
L 1064.845321 530.273692 
L 1065.530763 530.273692 
L 1065.759244 522.422611 
L 1066.444686 522.422611 
L 1066.673166 531.486117 
L 1067.358608 531.486117 
L 1067.587089 538.593379 
L 1068.272531 538.593379 
L 1068.501011 540.582489 
L 1069.186453 540.582489 
L 1069.414934 542.634251 
L 1070.100376 542.634251 
L 1070.328857 549.14827 
L 1071.928221 549.163495 
L 1072.156702 547.13977 
L 1072.842144 547.13977 
L 1073.070624 550.422574 
L 1073.756066 550.422574 
L 1073.984547 547.803579 
L 1074.669989 547.803579 
L 1074.898469 549.46032 
L 1075.583911 549.46032 
L 1075.812392 539.526519 
L 1076.497834 539.526519 
L 1076.726315 529.631414 
L 1077.411757 529.631414 
L 1077.640237 519.771867 
L 1078.325679 519.771867 
L 1078.55416 512.410864 
L 1079.239602 512.410864 
L 1079.468082 505.078162 
L 1080.153524 505.078162 
L 1080.382005 500.201499 
L 1081.067447 500.201499 
L 1081.295927 492.905893 
L 1081.981369 492.905893 
L 1082.20985 490.479339 
L 1082.895292 490.479339 
L 1083.123773 485.635211 
L 1083.809215 485.635211 
L 1084.037695 480.802992 
L 1084.723137 480.802992 
L 1084.951618 481.790146 
L 1085.63706 481.790146 
L 1085.86554 490.0157 
L 1087.464905 490.012926 
L 1087.693386 488.629963 
L 1089.29275 488.629963 
L 1089.521231 484.854716 
L 1092.034518 484.854716 
L 1092.262998 487.250875 
L 1094.776286 487.250875 
L 1095.004766 484.857403 
L 1096.604131 484.857403 
L 1096.832611 485.900571 
L 1097.518053 485.900571 
L 1097.746534 489.340777 
L 1098.431976 489.340777 
L 1098.660456 488.032131 
L 1099.345898 488.032131 
L 1099.574379 493.861584 
L 1100.259821 493.861584 
L 1100.488302 499.503552 
L 1101.173744 499.503552 
L 1101.402224 502.97223 
L 1102.087666 502.97223 
L 1102.316147 506.440939 
L 1103.001589 506.440939 
L 1103.230069 504.081939 
L 1103.915511 504.081939 
L 1104.143992 499.368523 
L 1104.829434 499.368523 
L 1105.057915 494.665048 
L 1105.743356 494.665048 
L 1105.971837 487.622652 
L 1106.657279 487.622652 
L 1106.88576 485.279171 
L 1107.571202 485.279171 
L 1107.799682 482.93813 
L 1108.485124 482.93813 
L 1108.713605 480.599439 
L 1109.399047 480.599439 
L 1109.627527 478.263071 
L 1111.226892 478.263071 
L 1111.455373 473.595962 
L 1112.140815 473.595962 
L 1112.369295 471.265206 
L 1113.054737 471.265206 
L 1113.283218 473.59494 
L 1113.96866 473.59494 
L 1114.19714 474.784308 
L 1114.882582 474.784308 
L 1115.111063 473.654039 
L 1115.796505 473.654039 
L 1116.024985 471.332197 
L 1116.710427 471.332197 
L 1116.938908 473.653041 
L 1117.62435 473.653041 
L 1117.852831 471.334415 
L 1118.538273 471.334415 
L 1118.766753 469.018135 
L 1119.452195 469.018135 
L 1119.680676 462.08261 
L 1120.366118 462.08261 
L 1120.594598 463.313681 
L 1121.28004 463.313681 
L 1121.508521 456.40622 
L 1122.193963 456.40622 
L 1122.422444 447.222493 
L 1123.107885 447.222493 
L 1123.336366 444.931792 
L 1124.021808 444.931792 
L 1124.250289 440.35683 
L 1124.935731 440.35683 
L 1125.164211 433.504164 
L 1125.849653 433.504164 
L 1126.078134 428.945286 
L 1126.763576 428.945286 
L 1126.992056 424.392219 
L 1127.677498 424.392219 
L 1127.905979 415.309307 
L 1128.591421 415.309307 
L 1128.819902 408.51614 
L 1129.505343 408.51614 
L 1129.733824 403.993755 
L 1130.419266 403.993755 
L 1130.647747 400.802992 
L 1131.333189 400.802992 
L 1131.561669 399.87828 
L 1132.247111 399.87828 
L 1132.475592 403.468472 
L 1133.161034 403.468472 
L 1133.389514 401.654996 
L 1134.074956 401.654996 
L 1134.303437 398.510175 
L 1134.988879 398.510175 
L 1135.21736 402.107953 
L 1136.816724 402.107953 
L 1137.045205 401.226283 
L 1137.730647 401.226283 
L 1137.959127 400.349351 
L 1138.644569 400.349351 
L 1138.87305 398.109466 
L 1139.558492 398.109466 
L 1139.786973 395.871331 
L 1142.30026 395.871331 
L 1142.52874 398.107561 
L 1143.214182 398.107561 
L 1143.442663 397.25202 
L 1144.128105 397.25202 
L 1144.356585 396.401952 
L 1145.042027 396.401952 
L 1145.270508 394.170865 
L 1145.95595 394.170865 
L 1146.184431 391.941475 
L 1147.783795 391.941475 
L 1148.012276 394.168999 
L 1148.697718 394.168999 
L 1148.926198 389.717577 
L 1149.61164 389.717577 
L 1149.840121 387.493674 
L 1150.525563 387.493674 
L 1150.754043 383.048493 
L 1152.353408 383.048493 
L 1152.581889 380.828153 
L 1153.267331 380.828153 
L 1153.495811 376.391664 
L 1154.181253 376.391664 
L 1154.409734 374.175507 
L 1155.095176 374.175507 
L 1155.323656 371.961127 
L 1156.009098 371.961127 
L 1156.237579 369.748387 
L 1156.923021 369.748387 
L 1157.151502 365.32791 
L 1157.836943 365.32791 
L 1158.065424 366.754269 
L 1158.750866 366.754269 
L 1158.979347 367.421064 
L 1159.664789 367.421064 
L 1159.893269 366.656382 
L 1160.578711 366.656382 
L 1160.807192 364.455168 
L 1161.492634 364.455168 
L 1161.721114 370.297183 
L 1162.406556 370.297183 
L 1162.635037 372.493332 
L 1163.320479 372.493332 
L 1163.54896 373.952311 
L 1164.234401 373.952311 
L 1164.462882 372.49035 
L 1165.148324 372.49035 
L 1165.376805 378.336094 
L 1166.062247 378.336094 
L 1166.290727 377.614158 
L 1167.890092 377.614158 
L 1168.118572 374.712439 
L 1171.545782 374.712439 
L 1171.774263 376.896805 
L 1173.373627 376.896805 
L 1173.602108 374.713928 
L 1174.28755 374.713928 
L 1174.51603 372.532528 
L 1175.201472 372.532528 
L 1175.429953 371.837908 
L 1176.115395 371.837908 
L 1176.343876 368.972575 
L 1177.029318 368.972575 
L 1177.257798 368.294389 
L 1177.94324 368.294389 
L 1178.171721 370.467257 
L 1178.857163 370.467257 
L 1179.085643 368.295824 
L 1179.771085 368.295824 
L 1179.999566 369.799727 
L 1180.685008 369.799727 
L 1180.913489 364.803836 
L 1181.59893 364.803836 
L 1181.827411 362.637449 
L 1182.512853 362.637449 
L 1182.741334 360.472452 
L 1183.426776 360.472452 
L 1183.655256 358.308239 
L 1184.340698 358.308239 
L 1184.569179 356.145409 
L 1185.254621 356.145409 
L 1185.483101 353.984138 
L 1187.082466 353.984138 
L 1187.310947 357.66944 
L 1187.996389 357.66944 
L 1188.224869 353.352567 
L 1189.824234 353.352567 
L 1190.052714 355.509553 
L 1190.738156 355.509553 
L 1190.966637 351.199972 
L 1191.652079 351.199972 
L 1191.880559 349.047358 
L 1192.566001 349.047358 
L 1192.794482 346.896234 
L 1193.479924 346.896234 
L 1193.708405 344.746446 
L 1194.393847 344.746446 
L 1194.622327 346.298305 
L 1195.307769 346.298305 
L 1195.53625 347.851326 
L 1196.221692 347.851326 
L 1196.450172 345.7051 
L 1198.963459 345.7051 
L 1199.19194 347.850015 
L 1199.877382 347.850015 
L 1200.105863 347.266712 
L 1200.791305 347.266712 
L 1201.019785 350.973766 
L 1201.705227 350.973766 
L 1201.933708 353.112608 
L 1202.61915 353.112608 
L 1202.84763 356.825338 
L 1203.533072 356.825338 
L 1203.761553 352.554296 
L 1204.446995 352.554296 
L 1204.675476 347.736787 
L 1205.360918 347.736787 
L 1205.589398 343.478675 
L 1206.27484 343.478675 
L 1206.503321 341.35153 
L 1207.188763 341.35153 
L 1207.417243 339.225594 
L 1208.102685 339.225594 
L 1208.331166 338.6994 
L 1209.016608 338.6994 
L 1209.245088 333.935137 
L 1209.93053 333.935137 
L 1210.159011 336.055373 
L 1210.844453 336.055373 
L 1211.072934 331.818607 
L 1212.672298 331.818607 
L 1212.900779 331.313209 
L 1214.500143 331.313209 
L 1214.728624 329.198017 
L 1216.327988 329.198017 
L 1216.556469 328.698918 
L 1218.155834 328.698918 
L 1218.384314 326.586224 
L 1219.069756 326.586224 
L 1219.298237 324.474675 
L 1219.983679 324.474675 
L 1220.212159 326.585494 
L 1220.897601 326.585494 
L 1221.126082 324.475806 
L 1221.811524 324.475806 
L 1222.040005 322.36724 
L 1222.725447 322.36724 
L 1222.953927 320.260002 
L 1224.553292 320.260002 
L 1224.781772 319.78652 
L 1228.208982 319.786385 
L 1228.437463 315.589134 
L 1229.122905 315.589134 
L 1229.351385 317.686508 
L 1230.036827 317.686508 
L 1230.265308 313.494962 
L 1230.95075 313.494962 
L 1231.17923 309.308072 
L 1231.864672 309.308072 
L 1232.093153 307.216207 
L 1232.778595 307.216207 
L 1233.007076 306.370834 
L 1233.692517 306.370834 
L 1233.920998 304.282087 
L 1234.60644 304.282087 
L 1234.834921 306.370132 
L 1235.520363 306.370132 
L 1235.748843 310.129262 
L 1236.434285 310.129262 
L 1236.662766 308.043153 
L 1237.348208 308.043153 
L 1237.576688 310.12857 
L 1239.176053 310.12857 
L 1239.404534 312.213298 
L 1241.003898 312.212613 
L 1241.232379 313.897269 
L 1241.917821 313.897269 
L 1242.146301 309.734675 
L 1242.831743 309.734675 
L 1243.060224 307.654894 
L 1244.659588 307.654894 
L 1244.888069 305.57631 
L 1245.573511 305.57631 
L 1245.801992 307.654215 
L 1247.401356 307.654215 
L 1247.629837 305.57731 
L 1248.315279 305.57731 
L 1248.543759 305.200837 
L 1251.970969 305.200837 
L 1252.19945 303.126295 
L 1252.884892 303.126295 
L 1253.113372 304.826886 
L 1253.798814 304.826886 
L 1254.027295 302.753516 
L 1254.712737 302.753516 
L 1254.941217 302.38505 
L 1255.626659 302.38505 
L 1255.85514 300.313834 
L 1257.454505 300.313834 
L 1257.682985 296.174691 
L 1258.368427 296.174691 
L 1258.596908 298.243104 
L 1259.28235 298.243104 
L 1259.51083 295.823299 
L 1260.196272 295.823299 
L 1260.424753 293.761037 
L 1261.110195 293.761037 
L 1261.338675 291.698605 
L 1262.024117 291.698605 
L 1262.252598 291.360275 
L 1262.93804 291.360275 
L 1263.166521 291.026435 
L 1263.851963 291.026435 
L 1264.080443 294.814288 
L 1264.765885 294.814288 
L 1264.994366 292.426976 
L 1266.59373 292.426976 
L 1266.822211 290.370102 
L 1267.507653 290.370102 
L 1267.736134 294.158778 
L 1268.421575 294.158778 
L 1268.650056 292.103646 
L 1269.335498 292.103646 
L 1269.563979 290.049605 
L 1270.249421 290.049605 
L 1270.477901 292.10301 
L 1271.163343 292.10301 
L 1271.391824 291.790487 
L 1272.991188 291.790487 
L 1273.219669 291.482013 
L 1273.905111 291.482013 
L 1274.133592 289.431393 
L 1274.819034 289.431393 
L 1275.047514 287.381848 
L 1276.646879 287.381848 
L 1276.875359 285.333223 
L 1278.474724 285.333223 
L 1278.703204 287.381221 
L 1279.388646 287.381221 
L 1279.617127 285.334281 
L 1280.302569 285.334281 
L 1280.53105 287.380597 
L 1282.130414 287.380597 
L 1282.358895 289.425674 
L 1283.958259 289.426565 
L 1284.18674 285.067933 
L 1284.872182 285.067933 
L 1285.100663 284.7992 
L 1285.786104 284.7992 
L 1286.014585 284.532556 
L 1286.700027 284.532556 
L 1286.928508 282.495824 
L 1288.527872 282.495219 
L 1288.756353 284.272792 
L 1289.441795 284.272792 
L 1289.670275 282.240021 
L 1290.355717 282.240021 
L 1290.584198 279.962037 
L 1291.26964 279.962037 
L 1291.498121 273.874583 
L 1292.183562 273.874583 
L 1292.412043 269.820996 
L 1293.097485 269.820996 
L 1293.325966 267.795461 
L 1294.011408 267.795461 
L 1294.239888 265.770761 
L 1294.92533 265.770761 
L 1295.153811 265.545883 
L 1295.839253 265.545883 
L 1296.067733 265.323161 
L 1296.753175 265.323161 
L 1296.981656 267.345468 
L 1299.494943 267.346428 
L 1299.723424 265.326491 
L 1302.236711 265.325908 
L 1302.465192 263.308436 
L 1303.150633 263.308436 
L 1303.379114 265.120974 
L 1304.064556 265.120974 
L 1304.293037 261.08871 
L 1306.806324 261.089519 
L 1307.034804 257.063495 
L 1307.720246 257.063495 
L 1307.948727 251.031149 
L 1308.634169 251.031149 
L 1308.86265 247.013885 
L 1309.548091 247.013885 
L 1309.776572 243.00019 
L 1311.375937 243.00019 
L 1311.604417 239.740394 
L 1313.203782 239.740394 
L 1313.432262 237.576176 
L 1314.117704 237.576176 
L 1314.346185 235.574629 
L 1315.031627 235.574629 
L 1315.260108 233.573846 
L 1316.859472 233.573276 
L 1317.087953 239.419331 
L 1317.773395 239.419331 
L 1318.001875 237.421761 
L 1318.687317 237.421761 
L 1318.915798 235.424942 
L 1319.60124 235.424942 
L 1319.829721 233.42887 
L 1320.515162 233.42887 
L 1320.743643 235.283569 
L 1321.429085 235.283569 
L 1321.657566 233.28824 
L 1322.343008 233.28824 
L 1322.571488 231.29365 
L 1323.25693 231.29365 
L 1323.485411 233.287682 
L 1324.170853 233.287682 
L 1324.399333 231.294382 
L 1325.998698 231.294382 
L 1326.227179 231.162045 
L 1326.91262 231.162045 
L 1327.141101 229.170327 
L 1327.826543 229.170327 
L 1328.055024 227.179456 
L 1328.740466 227.179456 
L 1328.968946 225.189309 
L 1329.654388 225.189309 
L 1329.882869 223.2 
L 1330.796791 223.2 
L 1330.796791 223.2 
" clip-path="url(#p317c46c0a3)" style="fill: none; stroke: #0000ff; stroke-width: 1.5; stroke-linecap: square"/>
   </g>
   <g id="patch_9">
    <path d="M 860.823529 1281.6 
L 860.823529 172.8 
" style="fill: none; stroke: #000000; stroke-width: 0.8; stroke-linejoin: miter; stroke-linecap: square"/>
   </g>
   <g id="patch_10">
    <path d="M 1353.176471 1281.6 
L 1353.176471 172.8 
" style="fill: none; stroke: #000000; stroke-width: 0.8; stroke-linejoin: miter; stroke-linecap: square"/>
   </g>
   <g id="patch_11">
    <path d="M 860.823529 1281.6 
L 1353.176471 1281.6 
" style="fill: none; stroke: #000000; stroke-width: 0.8; stroke-linejoin: miter; stroke-linecap: square"/>
   </g>
   <g id="patch_12">
    <path d="M 860.823529 172.8 
L 1353.176471 172.8 
" style="fill: none; stroke: #000000; stroke-width: 0.8; stroke-linejoin: miter; stroke-linecap: square"/>
   </g>
   <g id="legend_2">
    <g id="patch_13">
     <path d="M 1262.134283 195.478125 
L 1346.176471 195.478125 
Q 1348.176471 195.478125 1348.176471 193.478125 
L 1348.176471 179.8 
Q 1348.176471 177.8 1346.176471 177.8 
L 1262.134283 177.8 
Q 1260.134283 177.8 1260.134283 179.8 
L 1260.134283 193.478125 
Q 1260.134283 195.478125 1262.134283 195.478125 
z
" style="fill: #ffffff; opacity: 0.8; stroke: #cccccc; stroke-linejoin: miter"/>
    </g>
    <g id="line2d_36">
     <path d="M 1264.134283 185.898437 
L 1274.134283 185.898437 
L 1284.134283 185.898437 
" style="fill: none; stroke: #0000ff; stroke-width: 1.5; stroke-linecap: square"/>
    </g>
    <g id="text_34">
     <!-- O2 reward -->
     <g transform="translate(1292.134283 189.398437) scale(0.1 -0.1)">
      <use xlink:href="#DejaVuSans-4f"/>
      <use xlink:href="#DejaVuSans-32" x="78.710938"/>
      <use xlink:href="#DejaVuSans-20" x="142.333984"/>
      <use xlink:href="#DejaVuSans-72" x="174.121094"/>
      <use xlink:href="#DejaVuSans-65" x="212.984375"/>
      <use xlink:href="#DejaVuSans-77" x="274.507812"/>
      <use xlink:href="#DejaVuSans-61" x="356.294922"/>
      <use xlink:href="#DejaVuSans-72" x="417.574219"/>
      <use xlink:href="#DejaVuSans-64" x="456.9375"/>
     </g>
    </g>
   </g>
  </g>
  <g id="axes_3">
   <g id="patch_14">
    <path d="M 1451.647059 1281.6 
L 1944 1281.6 
L 1944 172.8 
L 1451.647059 172.8 
z
" style="fill: #ffffff"/>
   </g>
   <g id="matplotlib.axis_5">
    <g id="xtick_19">
     <g id="line2d_37">
      <g>
       <use xlink:href="#m2bdc218169" x="1473.798257" y="1281.6" style="stroke: #000000; stroke-width: 0.8"/>
      </g>
     </g>
     <g id="text_35">
      <!-- 0 -->
      <g transform="translate(1470.617007 1296.198437) scale(0.1 -0.1)">
       <use xlink:href="#DejaVuSans-30"/>
      </g>
     </g>
    </g>
    <g id="xtick_20">
     <g id="line2d_38">
      <g>
       <use xlink:href="#m2bdc218169" x="1530.918418" y="1281.6" style="stroke: #000000; stroke-width: 0.8"/>
      </g>
     </g>
     <g id="text_36">
      <!-- 250 -->
      <g transform="translate(1521.374668 1296.198437) scale(0.1 -0.1)">
       <use xlink:href="#DejaVuSans-32"/>
       <use xlink:href="#DejaVuSans-35" x="63.623047"/>
       <use xlink:href="#DejaVuSans-30" x="127.246094"/>
      </g>
     </g>
    </g>
    <g id="xtick_21">
     <g id="line2d_39">
      <g>
       <use xlink:href="#m2bdc218169" x="1588.03858" y="1281.6" style="stroke: #000000; stroke-width: 0.8"/>
      </g>
     </g>
     <g id="text_37">
      <!-- 500 -->
      <g transform="translate(1578.49483 1296.198437) scale(0.1 -0.1)">
       <use xlink:href="#DejaVuSans-35"/>
       <use xlink:href="#DejaVuSans-30" x="63.623047"/>
       <use xlink:href="#DejaVuSans-30" x="127.246094"/>
      </g>
     </g>
    </g>
    <g id="xtick_22">
     <g id="line2d_40">
      <g>
       <use xlink:href="#m2bdc218169" x="1645.158741" y="1281.6" style="stroke: #000000; stroke-width: 0.8"/>
      </g>
     </g>
     <g id="text_38">
      <!-- 750 -->
      <g transform="translate(1635.614991 1296.198437) scale(0.1 -0.1)">
       <use xlink:href="#DejaVuSans-37"/>
       <use xlink:href="#DejaVuSans-35" x="63.623047"/>
       <use xlink:href="#DejaVuSans-30" x="127.246094"/>
      </g>
     </g>
    </g>
    <g id="xtick_23">
     <g id="line2d_41">
      <g>
       <use xlink:href="#m2bdc218169" x="1702.278902" y="1281.6" style="stroke: #000000; stroke-width: 0.8"/>
      </g>
     </g>
     <g id="text_39">
      <!-- 1000 -->
      <g transform="translate(1689.553902 1296.198437) scale(0.1 -0.1)">
       <use xlink:href="#DejaVuSans-31"/>
       <use xlink:href="#DejaVuSans-30" x="63.623047"/>
       <use xlink:href="#DejaVuSans-30" x="127.246094"/>
       <use xlink:href="#DejaVuSans-30" x="190.869141"/>
      </g>
     </g>
    </g>
    <g id="xtick_24">
     <g id="line2d_42">
      <g>
       <use xlink:href="#m2bdc218169" x="1759.399063" y="1281.6" style="stroke: #000000; stroke-width: 0.8"/>
      </g>
     </g>
     <g id="text_40">
      <!-- 1250 -->
      <g transform="translate(1746.674063 1296.198437) scale(0.1 -0.1)">
       <use xlink:href="#DejaVuSans-31"/>
       <use xlink:href="#DejaVuSans-32" x="63.623047"/>
       <use xlink:href="#DejaVuSans-35" x="127.246094"/>
       <use xlink:href="#DejaVuSans-30" x="190.869141"/>
      </g>
     </g>
    </g>
    <g id="xtick_25">
     <g id="line2d_43">
      <g>
       <use xlink:href="#m2bdc218169" x="1816.519224" y="1281.6" style="stroke: #000000; stroke-width: 0.8"/>
      </g>
     </g>
     <g id="text_41">
      <!-- 1500 -->
      <g transform="translate(1803.794224 1296.198437) scale(0.1 -0.1)">
       <use xlink:href="#DejaVuSans-31"/>
       <use xlink:href="#DejaVuSans-35" x="63.623047"/>
       <use xlink:href="#DejaVuSans-30" x="127.246094"/>
       <use xlink:href="#DejaVuSans-30" x="190.869141"/>
      </g>
     </g>
    </g>
    <g id="xtick_26">
     <g id="line2d_44">
      <g>
       <use xlink:href="#m2bdc218169" x="1873.639385" y="1281.6" style="stroke: #000000; stroke-width: 0.8"/>
      </g>
     </g>
     <g id="text_42">
      <!-- 1750 -->
      <g transform="translate(1860.914385 1296.198437) scale(0.1 -0.1)">
       <use xlink:href="#DejaVuSans-31"/>
       <use xlink:href="#DejaVuSans-37" x="63.623047"/>
       <use xlink:href="#DejaVuSans-35" x="127.246094"/>
       <use xlink:href="#DejaVuSans-30" x="190.869141"/>
      </g>
     </g>
    </g>
    <g id="xtick_27">
     <g id="line2d_45">
      <g>
       <use xlink:href="#m2bdc218169" x="1930.759547" y="1281.6" style="stroke: #000000; stroke-width: 0.8"/>
      </g>
     </g>
     <g id="text_43">
      <!-- 2000 -->
      <g transform="translate(1918.034547 1296.198437) scale(0.1 -0.1)">
       <use xlink:href="#DejaVuSans-32"/>
       <use xlink:href="#DejaVuSans-30" x="63.623047"/>
       <use xlink:href="#DejaVuSans-30" x="127.246094"/>
       <use xlink:href="#DejaVuSans-30" x="190.869141"/>
      </g>
     </g>
    </g>
   </g>
   <g id="matplotlib.axis_6">
    <g id="ytick_15">
     <g id="line2d_46">
      <g>
       <use xlink:href="#md18fb2d524" x="1451.647059" y="1231.2" style="stroke: #000000; stroke-width: 0.8"/>
      </g>
     </g>
     <g id="text_44">
      <!-- 0 -->
      <g transform="translate(1438.284559 1234.999219) scale(0.1 -0.1)">
       <use xlink:href="#DejaVuSans-30"/>
      </g>
     </g>
    </g>
    <g id="ytick_16">
     <g id="line2d_47">
      <g>
       <use xlink:href="#md18fb2d524" x="1451.647059" y="998.604667" style="stroke: #000000; stroke-width: 0.8"/>
      </g>
     </g>
     <g id="text_45">
      <!-- 5 -->
      <g transform="translate(1438.284559 1002.403885) scale(0.1 -0.1)">
       <use xlink:href="#DejaVuSans-35"/>
      </g>
     </g>
    </g>
    <g id="ytick_17">
     <g id="line2d_48">
      <g>
       <use xlink:href="#md18fb2d524" x="1451.647059" y="766.009333" style="stroke: #000000; stroke-width: 0.8"/>
      </g>
     </g>
     <g id="text_46">
      <!-- 10 -->
      <g transform="translate(1431.922059 769.808552) scale(0.1 -0.1)">
       <use xlink:href="#DejaVuSans-31"/>
       <use xlink:href="#DejaVuSans-30" x="63.623047"/>
      </g>
     </g>
    </g>
    <g id="ytick_18">
     <g id="line2d_49">
      <g>
       <use xlink:href="#md18fb2d524" x="1451.647059" y="533.414" style="stroke: #000000; stroke-width: 0.8"/>
      </g>
     </g>
     <g id="text_47">
      <!-- 15 -->
      <g transform="translate(1431.922059 537.213219) scale(0.1 -0.1)">
       <use xlink:href="#DejaVuSans-31"/>
       <use xlink:href="#DejaVuSans-35" x="63.623047"/>
      </g>
     </g>
    </g>
    <g id="ytick_19">
     <g id="line2d_50">
      <g>
       <use xlink:href="#md18fb2d524" x="1451.647059" y="300.818667" style="stroke: #000000; stroke-width: 0.8"/>
      </g>
     </g>
     <g id="text_48">
      <!-- 20 -->
      <g transform="translate(1431.922059 304.617885) scale(0.1 -0.1)">
       <use xlink:href="#DejaVuSans-32"/>
       <use xlink:href="#DejaVuSans-30" x="63.623047"/>
      </g>
     </g>
    </g>
   </g>
   <g id="line2d_51">
    <path d="M 1474.026738 1231.2 
L 1483.622925 1231.2 
L 1483.851406 1213.057434 
L 1484.536848 1213.057434 
L 1484.765328 1198.560223 
L 1485.45077 1198.560223 
L 1485.679251 1186.228978 
L 1486.364693 1186.228978 
L 1486.593173 1167.95363 
L 1487.278615 1167.95363 
L 1487.507096 1161.808146 
L 1488.192538 1161.808146 
L 1488.421019 1137.882936 
L 1489.106461 1137.882936 
L 1489.334941 1144.834169 
L 1490.020383 1144.834169 
L 1490.248864 1131.218336 
L 1490.934306 1131.218336 
L 1491.162786 1117.79335 
L 1491.848228 1117.79335 
L 1492.076709 1108.686529 
L 1492.762151 1108.686529 
L 1492.990631 1093.262892 
L 1493.676073 1093.262892 
L 1493.904554 1078.784887 
L 1494.589996 1078.784887 
L 1494.818477 1069.813242 
L 1496.417841 1069.813242 
L 1496.646322 1065.864003 
L 1497.331764 1065.864003 
L 1497.560244 1057.216228 
L 1498.245686 1057.216228 
L 1498.474167 1052.400219 
L 1500.073531 1052.400219 
L 1500.302012 1048.805008 
L 1500.987454 1048.805008 
L 1501.215935 1040.928764 
L 1502.815299 1040.928764 
L 1503.04378 1037.629381 
L 1503.729222 1037.629381 
L 1503.957702 1023.720311 
L 1504.643144 1023.720311 
L 1504.871625 1004.203192 
L 1505.557067 1004.203192 
L 1505.785548 990.530219 
L 1506.47099 990.530219 
L 1506.69947 981.43197 
L 1507.384912 981.43197 
L 1507.613393 956.052559 
L 1508.298835 956.052559 
L 1508.527315 943.425736 
L 1509.212757 943.425736 
L 1509.441238 939.461813 
L 1510.12668 939.461813 
L 1510.35516 927.09903 
L 1511.040602 927.09903 
L 1511.269083 918.865359 
L 1511.954525 918.865359 
L 1512.183006 911.839381 
L 1512.868448 911.839381 
L 1513.096928 899.557069 
L 1513.78237 899.557069 
L 1514.010851 894.552183 
L 1514.696293 894.552183 
L 1514.924773 883.362837 
L 1516.524138 883.28269 
L 1516.752619 886.447269 
L 1517.43806 886.447269 
L 1517.666541 888.407646 
L 1518.351983 888.407646 
L 1518.580464 883.816553 
L 1519.265906 883.816553 
L 1519.494386 885.743037 
L 1520.179828 885.743037 
L 1520.408309 883.045627 
L 1521.093751 883.045627 
L 1521.322231 886.074596 
L 1522.007673 886.074596 
L 1522.236154 883.234072 
L 1523.835519 883.234072 
L 1524.063999 880.339356 
L 1524.749441 880.339356 
L 1524.977922 871.794358 
L 1525.663364 871.794358 
L 1525.891844 864.383914 
L 1526.577286 864.383914 
L 1526.805767 868.904948 
L 1527.491209 868.904948 
L 1527.719689 870.715223 
L 1530.232977 870.715223 
L 1530.461457 862.283315 
L 1531.146899 862.283315 
L 1531.37538 846.419686 
L 1532.060822 846.419686 
L 1532.289302 838.726876 
L 1532.974744 838.726876 
L 1533.203225 833.292156 
L 1533.888667 833.292156 
L 1534.117148 829.729385 
L 1534.802589 829.729385 
L 1535.03107 821.221054 
L 1535.716512 821.221054 
L 1535.944993 815.512671 
L 1536.630435 815.512671 
L 1536.858915 811.08241 
L 1537.544357 811.08241 
L 1537.772838 802.013602 
L 1538.45828 802.013602 
L 1538.68676 796.643108 
L 1539.372202 796.643108 
L 1539.600683 789.233787 
L 1540.286125 789.233787 
L 1540.514606 787.198976 
L 1541.200047 787.198976 
L 1541.428528 778.84135 
L 1542.11397 778.84135 
L 1542.342451 771.916345 
L 1543.027893 771.916345 
L 1543.256373 765.11349 
L 1543.941815 765.11349 
L 1544.170296 758.581401 
L 1545.76966 758.581401 
L 1545.998141 754.040254 
L 1546.683583 754.040254 
L 1546.912064 750.097385 
L 1547.597506 750.097385 
L 1547.825986 751.946039 
L 1548.511428 751.946039 
L 1548.739909 748.454045 
L 1549.425351 748.454045 
L 1549.653831 742.386096 
L 1550.339273 742.386096 
L 1550.567754 738.032094 
L 1551.253196 738.032094 
L 1551.481677 733.641779 
L 1552.167118 733.641779 
L 1552.395599 727.831187 
L 1553.081041 727.831187 
L 1553.309522 715.455598 
L 1553.994964 715.455598 
L 1554.223444 714.071107 
L 1554.908886 714.071107 
L 1555.137367 712.134595 
L 1555.822809 712.134595 
L 1556.051289 704.534134 
L 1556.736731 704.534134 
L 1556.965212 699.097744 
L 1557.650654 699.097744 
L 1557.879135 695.350832 
L 1558.564576 695.350832 
L 1558.793057 688.619495 
L 1559.478499 688.619495 
L 1559.70698 680.949344 
L 1560.392422 680.949344 
L 1560.620902 676.870286 
L 1561.306344 676.870286 
L 1561.534825 676.121422 
L 1562.220267 676.121422 
L 1562.448747 673.948658 
L 1563.134189 673.948658 
L 1563.36267 671.029372 
L 1564.048112 671.029372 
L 1564.276593 666.755441 
L 1564.962035 666.755441 
L 1565.190515 665.359689 
L 1565.875957 665.359689 
L 1566.104438 659.336828 
L 1566.78988 659.336828 
L 1567.01836 657.276323 
L 1567.703802 657.276323 
L 1567.932283 654.148664 
L 1568.617725 654.148664 
L 1568.846206 651.037107 
L 1569.531647 651.037107 
L 1569.760128 647.599607 
L 1571.359493 647.599607 
L 1571.587973 645.560142 
L 1572.273415 645.560142 
L 1572.501896 644.539797 
L 1573.187338 644.539797 
L 1573.415818 640.150332 
L 1575.015183 640.150332 
L 1575.243664 641.161497 
L 1575.929105 641.161497 
L 1576.157586 641.502738 
L 1576.843028 641.502738 
L 1577.071509 639.555894 
L 1577.756951 639.555894 
L 1577.985431 633.292244 
L 1578.670873 633.292244 
L 1578.899354 630.770965 
L 1579.584796 630.770965 
L 1579.813276 631.353569 
L 1580.498718 631.353569 
L 1580.727199 625.217804 
L 1581.412641 625.217804 
L 1581.641122 620.214343 
L 1582.326564 620.214343 
L 1582.555044 619.402254 
L 1583.240486 619.402254 
L 1583.468967 617.062428 
L 1584.154409 617.062428 
L 1584.382889 613.738426 
L 1585.068331 613.738426 
L 1585.296812 613.22638 
L 1585.982254 613.22638 
L 1586.210734 609.727691 
L 1586.896176 609.727691 
L 1587.124657 606.9968 
L 1587.810099 606.9968 
L 1588.03858 602.515448 
L 1588.724022 602.515448 
L 1588.952502 599.86343 
L 1589.637944 599.86343 
L 1589.866425 596.324341 
L 1590.551867 596.324341 
L 1590.780347 593.07534 
L 1591.465789 593.07534 
L 1591.69427 590.526148 
L 1592.379712 590.526148 
L 1592.608193 590.094554 
L 1593.293634 590.094554 
L 1593.522115 586.933759 
L 1594.207557 586.933759 
L 1594.436038 582.55324 
L 1595.12148 582.55324 
L 1595.34996 578.725778 
L 1596.035402 578.725778 
L 1596.263883 573.448044 
L 1596.949325 573.448044 
L 1597.177805 568.676003 
L 1597.863247 568.676003 
L 1598.091728 557.429045 
L 1598.77717 557.429045 
L 1599.005651 549.489894 
L 1599.691093 549.489894 
L 1599.919573 543.616948 
L 1600.605015 543.616948 
L 1600.833496 539.938223 
L 1601.518938 539.938223 
L 1601.747418 534.708058 
L 1602.43286 534.708058 
L 1602.661341 530.954282 
L 1603.346783 530.954282 
L 1603.575263 522.239747 
L 1604.260705 522.239747 
L 1604.489186 517.421812 
L 1605.174628 517.421812 
L 1605.403109 512.553679 
L 1606.088551 512.553679 
L 1606.317031 508.656119 
L 1607.002473 508.656119 
L 1607.230954 503.893972 
L 1607.916396 503.893972 
L 1608.144876 499.374952 
L 1608.830318 499.374952 
L 1609.058799 494.372438 
L 1609.744241 494.372438 
L 1609.972722 489.193484 
L 1610.658163 489.193484 
L 1610.886644 487.561923 
L 1611.572086 487.561923 
L 1611.800567 484.554085 
L 1612.486009 484.554085 
L 1612.714489 483.479586 
L 1613.399931 483.479586 
L 1613.628412 482.18697 
L 1614.313854 482.18697 
L 1614.542334 480.055529 
L 1615.227776 480.055529 
L 1615.456257 476.677703 
L 1616.141699 476.677703 
L 1616.37018 475.41211 
L 1617.055622 475.41211 
L 1617.284102 473.325237 
L 1617.969544 473.325237 
L 1618.198025 471.464227 
L 1619.797389 471.464227 
L 1620.02587 471.259627 
L 1620.711312 471.259627 
L 1620.939792 469.811541 
L 1621.625234 469.811541 
L 1621.853715 469.186901 
L 1622.539157 469.186901 
L 1622.767638 467.759198 
L 1623.45308 467.759198 
L 1623.68156 466.745913 
L 1624.367002 466.745913 
L 1624.595483 464.439697 
L 1625.280925 464.439697 
L 1625.509405 460.605981 
L 1626.194847 460.605981 
L 1626.423328 459.794612 
L 1627.10877 459.794612 
L 1627.337251 455.744322 
L 1628.022692 455.744322 
L 1628.251173 453.164108 
L 1628.936615 453.164108 
L 1629.165096 451.560786 
L 1629.850538 451.560786 
L 1630.079018 448.842662 
L 1630.76446 448.842662 
L 1630.992941 445.030671 
L 1631.678383 445.030671 
L 1631.906863 442.053365 
L 1632.592305 442.053365 
L 1632.820786 437.536125 
L 1633.506228 437.536125 
L 1633.734709 435.682889 
L 1634.420151 435.682889 
L 1634.648631 433.693932 
L 1635.334073 433.693932 
L 1635.562554 429.194984 
L 1636.247996 429.194984 
L 1636.476476 428.290447 
L 1637.161918 428.290447 
L 1637.390399 427.258861 
L 1638.075841 427.258861 
L 1638.304321 424.687134 
L 1638.989763 424.687134 
L 1639.218244 422.520731 
L 1639.903686 422.520731 
L 1640.132167 419.306973 
L 1640.817609 419.306973 
L 1641.046089 415.935807 
L 1641.731531 415.935807 
L 1641.960012 414.450204 
L 1642.645454 414.450204 
L 1642.873934 411.962735 
L 1643.559376 411.962735 
L 1643.787857 410.673921 
L 1644.473299 410.673921 
L 1644.70178 411.143119 
L 1645.387221 411.143119 
L 1645.615702 407.476022 
L 1646.301144 407.476022 
L 1646.529625 407.316549 
L 1647.215067 407.316549 
L 1647.443547 405.52257 
L 1649.042912 405.52257 
L 1649.271392 403.471267 
L 1649.956834 403.471267 
L 1650.185315 401.797992 
L 1650.870757 401.797992 
L 1651.099238 399.678116 
L 1651.78468 399.678116 
L 1652.01316 398.948931 
L 1652.698602 398.948931 
L 1652.927083 396.138489 
L 1653.612525 396.138489 
L 1653.841005 394.111425 
L 1654.526447 394.111425 
L 1654.754928 392.0145 
L 1655.44037 392.0145 
L 1655.66885 387.421907 
L 1656.354292 387.421907 
L 1656.582773 384.253693 
L 1658.182138 384.251141 
L 1658.410618 383.340135 
L 1659.09606 383.340135 
L 1659.324541 384.724166 
L 1660.009983 384.724166 
L 1660.238463 381.895989 
L 1660.923905 381.895989 
L 1661.152386 383.763783 
L 1661.837828 383.763783 
L 1662.066309 381.52723 
L 1662.75175 381.52723 
L 1663.208712 381.406254 
L 1663.665673 381.406254 
L 1663.894154 382.012141 
L 1665.493518 381.954079 
L 1665.721999 382.45298 
L 1666.407441 382.45298 
L 1666.635921 379.683917 
L 1667.321363 379.683917 
L 1667.549844 377.896666 
L 1668.235286 377.896666 
L 1668.463767 377.185026 
L 1669.149209 377.185026 
L 1669.377689 376.045988 
L 1670.063131 376.045988 
L 1670.291612 374.98767 
L 1670.977054 374.98767 
L 1671.205534 372.27663 
L 1672.804899 372.27663 
L 1673.033379 371.211266 
L 1673.718821 371.211266 
L 1673.947302 369.521846 
L 1674.632744 369.521846 
L 1674.861225 368.830424 
L 1675.546667 368.830424 
L 1675.775147 368.081363 
L 1676.460589 368.081363 
L 1676.68907 366.421606 
L 1677.374512 366.421606 
L 1677.602992 365.411904 
L 1678.288434 365.411904 
L 1678.516915 364.71098 
L 1679.202357 364.71098 
L 1679.430838 364.030398 
L 1681.030202 363.982777 
L 1681.258683 362.659539 
L 1682.858047 362.612785 
L 1683.086528 360.944478 
L 1683.77197 360.944478 
L 1684.00045 359.95277 
L 1684.685892 359.95277 
L 1684.914373 358.948502 
L 1685.599815 358.948502 
L 1685.828296 358.548209 
L 1686.513738 358.548209 
L 1686.742218 357.233565 
L 1687.42766 357.233565 
L 1687.656141 356.254835 
L 1688.341583 356.254835 
L 1688.570063 356.911661 
L 1689.255505 356.911661 
L 1689.483986 355.979755 
L 1690.169428 355.979755 
L 1690.397908 354.015461 
L 1691.08335 354.015461 
L 1691.311831 353.08123 
L 1691.997273 353.08123 
L 1692.225754 353.730439 
L 1692.911196 353.730439 
L 1693.139676 352.145761 
L 1693.825118 352.145761 
L 1694.053599 351.488278 
L 1695.652963 351.475452 
L 1695.881444 350.824142 
L 1697.480808 350.810806 
L 1697.709289 348.925794 
L 1699.308654 348.916319 
L 1699.537134 347.669231 
L 1700.222576 347.669231 
L 1700.451057 347.039464 
L 1701.136499 347.039464 
L 1701.364979 346.411844 
L 1702.050421 346.411844 
L 1702.278902 345.784742 
L 1702.964344 345.784742 
L 1703.192825 343.606834 
L 1704.792189 343.606834 
L 1705.02067 342.674155 
L 1705.706112 342.674155 
L 1705.934592 342.05551 
L 1707.533957 342.053528 
L 1707.762437 340.512194 
L 1708.447879 340.512194 
L 1708.67636 339.897289 
L 1709.361802 339.897289 
L 1709.590283 339.283697 
L 1710.275725 339.283697 
L 1710.504205 338.059022 
L 1711.189647 338.059022 
L 1711.418128 336.220638 
L 1712.10357 336.220638 
L 1712.33205 335.311726 
L 1713.017492 335.311726 
L 1713.245973 334.087479 
L 1713.931415 334.087479 
L 1714.159896 332.577586 
L 1714.845337 332.577586 
L 1715.073818 331.081701 
L 1715.75926 331.081701 
L 1715.987741 330.773092 
L 1716.673183 330.773092 
L 1716.901663 331.403706 
L 1717.587105 331.403706 
L 1717.815586 329.882121 
L 1719.41495 329.91168 
L 1719.643431 328.398675 
L 1720.328873 328.398675 
L 1720.557354 327.535163 
L 1722.156718 327.535163 
L 1722.385199 325.428469 
L 1723.070641 325.428469 
L 1723.299121 324.521516 
L 1723.984563 324.521516 
L 1724.213044 323.030433 
L 1724.898486 323.030433 
L 1725.126966 322.127212 
L 1725.812408 322.127212 
L 1726.040889 321.237628 
L 1726.726331 321.237628 
L 1726.954812 318.576666 
L 1727.640254 318.576666 
L 1727.868734 317.087413 
L 1728.554176 317.087413 
L 1728.782657 316.190822 
L 1729.468099 316.190822 
L 1729.696579 315.309612 
L 1730.382021 315.309612 
L 1730.610502 314.708439 
L 1731.295944 314.708439 
L 1731.524424 314.092508 
L 1732.209866 314.092508 
L 1732.438347 312.618197 
L 1734.037712 312.602216 
L 1734.266192 311.728957 
L 1736.779479 311.712758 
L 1737.00796 310.822704 
L 1737.693402 310.822704 
L 1737.921883 309.950098 
L 1738.607324 309.950098 
L 1738.835805 308.173073 
L 1739.521247 308.173073 
L 1739.749728 307.576687 
L 1740.43517 307.576687 
L 1740.66365 305.230556 
L 1741.349092 305.230556 
L 1741.577573 304.080773 
L 1742.263015 304.080773 
L 1742.491495 302.343689 
L 1743.176937 302.343689 
L 1743.405418 300.897953 
L 1745.004783 300.897953 
L 1745.233263 300.307934 
L 1745.918705 300.307934 
L 1746.147186 299.454725 
L 1746.832628 299.454725 
L 1747.061108 298.886989 
L 1747.74655 298.886989 
L 1747.975031 297.165313 
L 1749.574395 297.165313 
L 1749.802876 296.783477 
L 1750.488318 296.783477 
L 1750.716799 295.345353 
L 1751.402241 295.345353 
L 1751.630721 295.910167 
L 1752.316163 295.910167 
L 1752.544644 295.039319 
L 1754.144008 295.138336 
L 1754.372489 294.292344 
L 1755.057931 294.292344 
L 1755.286412 293.832415 
L 1756.885776 293.832415 
L 1757.114257 294.394401 
L 1759.627544 294.368141 
L 1759.856024 293.780882 
L 1761.455389 293.780882 
L 1761.68387 293.194604 
L 1762.369312 293.194604 
L 1762.597792 292.354577 
L 1763.283234 292.354577 
L 1763.511715 291.769072 
L 1764.197157 291.769072 
L 1764.425637 290.320113 
L 1765.111079 290.320113 
L 1765.33956 288.623786 
L 1766.025002 288.623786 
L 1766.253482 287.790748 
L 1766.938924 287.790748 
L 1767.167405 286.958308 
L 1767.852847 286.958308 
L 1768.081328 285.380997 
L 1768.76677 285.380997 
L 1768.99525 285.192479 
L 1769.680692 285.192479 
L 1769.909173 283.069402 
L 1770.594615 283.069402 
L 1770.823095 281.53725 
L 1771.508537 281.53725 
L 1771.737018 281.115027 
L 1772.42246 281.115027 
L 1772.650941 281.665999 
L 1773.336382 281.665999 
L 1773.564863 280.146203 
L 1774.250305 280.146203 
L 1774.478786 279.286031 
L 1775.164228 279.286031 
L 1775.392708 278.73592 
L 1776.07815 278.73592 
L 1776.306631 278.872486 
L 1776.992073 278.872486 
L 1777.220553 278.322375 
L 1777.905995 278.322375 
L 1778.134476 277.91223 
L 1778.819918 277.91223 
L 1779.048399 277.362119 
L 1779.733841 277.362119 
L 1779.962321 277.503772 
L 1780.647763 277.503772 
L 1780.876244 276.548944 
L 1782.475608 276.548944 
L 1782.704089 276.145048 
L 1784.303453 276.145048 
L 1784.531934 275.596169 
L 1786.131299 275.596169 
L 1786.359779 275.048115 
L 1787.045221 275.048115 
L 1787.273702 274.500884 
L 1787.959144 274.500884 
L 1788.187624 273.954466 
L 1789.786989 273.954466 
L 1790.01547 272.317995 
L 1790.700911 272.317995 
L 1790.929392 271.77357 
L 1791.614834 271.77357 
L 1791.843315 270.105168 
L 1792.528757 270.105168 
L 1792.757237 268.440274 
L 1793.442679 268.440274 
L 1793.67116 267.359194 
L 1795.270524 267.359194 
L 1795.499005 266.818654 
L 1797.09837 266.818654 
L 1797.32685 268.055062 
L 1798.012292 268.055062 
L 1798.240773 268.214189 
L 1798.926215 268.214189 
L 1799.154695 268.750979 
L 1799.840137 268.750979 
L 1800.068618 269.287033 
L 1800.75406 269.287033 
L 1800.98254 270.14801 
L 1801.667982 270.14801 
L 1801.896463 269.613407 
L 1802.581905 269.613407 
L 1802.810386 268.710621 
L 1803.495828 268.710621 
L 1803.724308 269.243797 
L 1804.40975 269.243797 
L 1804.638231 268.17815 
L 1805.323673 268.17815 
L 1805.552153 268.709922 
L 1806.237595 268.709922 
L 1806.466076 269.234999 
L 1807.151518 269.234999 
L 1807.379999 269.765051 
L 1808.979363 269.765051 
L 1809.207844 268.7075 
L 1809.893286 268.7075 
L 1810.121766 269.235007 
L 1811.721131 269.235007 
L 1811.949611 268.734231 
L 1812.635053 268.734231 
L 1812.863534 269.2609 
L 1813.548976 269.2609 
L 1813.777457 269.786741 
L 1814.462899 269.786741 
L 1814.691379 269.261722 
L 1816.290744 269.261722 
L 1816.519224 268.737899 
L 1817.204666 268.737899 
L 1817.433147 269.29421 
L 1818.118589 269.29421 
L 1818.347069 268.249731 
L 1819.032511 268.249731 
L 1819.260992 267.765924 
L 1820.860357 267.766705 
L 1821.088837 266.768863 
L 1821.774279 266.768863 
L 1822.00276 267.287567 
L 1822.688202 267.287567 
L 1822.916682 266.251666 
L 1823.602124 266.251666 
L 1823.830605 265.734855 
L 1824.516047 265.734855 
L 1824.744528 264.186658 
L 1825.429969 264.186658 
L 1825.65845 263.208431 
L 1826.343892 263.208431 
L 1826.572373 262.747718 
L 1827.257815 262.747718 
L 1827.486295 261.83565 
L 1828.171737 261.83565 
L 1828.400218 260.87079 
L 1829.08566 260.87079 
L 1829.31414 259.337926 
L 1829.999582 259.337926 
L 1830.228063 259.84782 
L 1831.827428 259.913003 
L 1832.055908 259.404841 
L 1832.74135 259.404841 
L 1832.969831 258.89668 
L 1833.655273 258.89668 
L 1833.883753 258.388519 
L 1834.569195 258.388519 
L 1834.797676 257.881032 
L 1835.483118 257.881032 
L 1835.711598 257.374217 
L 1836.39704 257.374217 
L 1836.625521 256.362588 
L 1837.310963 256.362588 
L 1837.539444 255.351979 
L 1838.224886 255.351979 
L 1838.453366 254.846854 
L 1840.966653 254.92286 
L 1841.195134 254.419684 
L 1841.880576 254.419684 
L 1842.109057 253.917148 
L 1843.708421 253.917148 
L 1843.936902 252.913417 
L 1844.622344 252.913417 
L 1844.850824 251.91165 
L 1845.536266 251.91165 
L 1845.764747 251.49544 
L 1846.450189 251.49544 
L 1846.678669 250.496789 
L 1847.364111 250.496789 
L 1847.592592 249.49997 
L 1848.278034 249.49997 
L 1848.506515 249.001268 
L 1849.191956 249.001268 
L 1849.420437 248.597206 
L 1851.019802 248.597206 
L 1851.248282 249.092929 
L 1851.933724 249.092929 
L 1852.162205 248.196083 
L 1852.847647 248.196083 
L 1853.076127 247.700944 
L 1853.761569 247.700944 
L 1853.99005 246.808283 
L 1854.675492 246.808283 
L 1854.903973 246.314303 
L 1856.503337 246.314303 
L 1856.731818 245.328063 
L 1857.41726 245.328063 
L 1857.64574 244.442633 
L 1858.331182 244.442633 
L 1858.559663 243.950712 
L 1860.159027 243.951051 
L 1860.387508 243.564092 
L 1861.986873 243.563535 
L 1862.215353 243.179803 
L 1863.814718 243.285858 
L 1864.043198 243.882356 
L 1864.72864 243.882356 
L 1864.957121 243.39476 
L 1865.642563 243.39476 
L 1865.871044 242.907496 
L 1866.556485 242.907496 
L 1866.784966 242.420773 
L 1867.470408 242.420773 
L 1867.698889 242.043487 
L 1868.384331 242.043487 
L 1868.612811 242.529673 
L 1870.212176 242.529673 
L 1870.440656 242.043487 
L 1871.126098 242.043487 
L 1871.354579 241.072708 
L 1872.040021 241.072708 
L 1872.268502 239.619373 
L 1873.867866 239.619373 
L 1874.096347 238.650833 
L 1874.781789 238.650833 
L 1875.010269 238.166563 
L 1875.695711 238.166563 
L 1875.924192 238.648779 
L 1876.609634 238.648779 
L 1876.838115 237.203084 
L 1877.523556 237.203084 
L 1877.752037 235.76118 
L 1878.437479 235.76118 
L 1878.66596 236.24094 
L 1879.351402 236.24094 
L 1879.579882 235.761497 
L 1881.179247 235.761497 
L 1881.407727 235.282548 
L 1883.007092 235.282548 
L 1883.235573 234.803598 
L 1883.921014 234.803598 
L 1884.149495 234.325139 
L 1884.834937 234.325139 
L 1885.063418 233.847168 
L 1885.74886 233.847168 
L 1885.97734 233.497332 
L 1886.662782 233.497332 
L 1886.891263 233.019846 
L 1888.490627 233.019846 
L 1888.719108 232.542673 
L 1891.232395 232.542673 
L 1891.460876 231.588635 
L 1893.06024 231.588635 
L 1893.288721 231.11208 
L 1893.974163 231.11208 
L 1894.202643 230.635831 
L 1895.802008 230.635831 
L 1896.030489 230.159582 
L 1899.457698 230.160061 
L 1899.686179 229.684772 
L 1900.371621 229.684772 
L 1900.600102 229.209483 
L 1901.285543 229.209483 
L 1901.514024 227.785114 
L 1903.113389 227.785114 
L 1903.341869 227.446999 
L 1904.941234 227.446999 
L 1905.169714 226.97308 
L 1906.769079 226.97308 
L 1906.99756 226.49963 
L 1908.596924 226.49963 
L 1908.825405 226.026181 
L 1909.510847 226.026181 
L 1909.739327 226.499164 
L 1910.424769 226.499164 
L 1910.65325 226.026477 
L 1911.338692 226.026477 
L 1911.567172 225.554086 
L 1912.252614 225.554086 
L 1912.481095 225.082155 
L 1914.994382 225.082155 
L 1915.222863 225.553628 
L 1915.908305 225.553628 
L 1916.136785 224.611723 
L 1916.822227 224.611723 
L 1917.050708 224.140998 
L 1920.477918 224.140998 
L 1920.706398 223.670274 
L 1921.39184 223.670274 
L 1921.620321 223.2 
L 1921.620321 223.2 
" clip-path="url(#p137cf2ac06)" style="fill: none; stroke: #0000ff; stroke-width: 1.5; stroke-linecap: square"/>
   </g>
   <g id="patch_15">
    <path d="M 1451.647059 1281.6 
L 1451.647059 172.8 
" style="fill: none; stroke: #000000; stroke-width: 0.8; stroke-linejoin: miter; stroke-linecap: square"/>
   </g>
   <g id="patch_16">
    <path d="M 1944 1281.6 
L 1944 172.8 
" style="fill: none; stroke: #000000; stroke-width: 0.8; stroke-linejoin: miter; stroke-linecap: square"/>
   </g>
   <g id="patch_17">
    <path d="M 1451.647059 1281.6 
L 1944 1281.6 
" style="fill: none; stroke: #000000; stroke-width: 0.8; stroke-linejoin: miter; stroke-linecap: square"/>
   </g>
   <g id="patch_18">
    <path d="M 1451.647059 172.8 
L 1944 172.8 
" style="fill: none; stroke: #000000; stroke-width: 0.8; stroke-linejoin: miter; stroke-linecap: square"/>
   </g>
   <g id="legend_3">
    <g id="patch_19">
     <path d="M 1852.957813 195.478125 
L 1937 195.478125 
Q 1939 195.478125 1939 193.478125 
L 1939 179.8 
Q 1939 177.8 1937 177.8 
L 1852.957813 177.8 
Q 1850.957813 177.8 1850.957813 179.8 
L 1850.957813 193.478125 
Q 1850.957813 195.478125 1852.957813 195.478125 
z
" style="fill: #ffffff; opacity: 0.8; stroke: #cccccc; stroke-linejoin: miter"/>
    </g>
    <g id="line2d_52">
     <path d="M 1854.957813 185.898437 
L 1864.957813 185.898437 
L 1874.957813 185.898437 
" style="fill: none; stroke: #0000ff; stroke-width: 1.5; stroke-linecap: square"/>
    </g>
    <g id="text_49">
     <!-- O3 reward -->
     <g transform="translate(1882.957813 189.398437) scale(0.1 -0.1)">
      <use xlink:href="#DejaVuSans-4f"/>
      <use xlink:href="#DejaVuSans-33" x="78.710938"/>
      <use xlink:href="#DejaVuSans-20" x="142.333984"/>
      <use xlink:href="#DejaVuSans-72" x="174.121094"/>
      <use xlink:href="#DejaVuSans-65" x="212.984375"/>
      <use xlink:href="#DejaVuSans-77" x="274.507812"/>
      <use xlink:href="#DejaVuSans-61" x="356.294922"/>
      <use xlink:href="#DejaVuSans-72" x="417.574219"/>
      <use xlink:href="#DejaVuSans-64" x="456.9375"/>
     </g>
    </g>
   </g>
  </g>
 </g>
 <defs>
  <clipPath id="p8e328a9f69">
   <rect x="270" y="172.8" width="492.352941" height="1108.8"/>
  </clipPath>
  <clipPath id="p317c46c0a3">
   <rect x="860.823529" y="172.8" width="492.352941" height="1108.8"/>
  </clipPath>
  <clipPath id="p137cf2ac06">
   <rect x="1451.647059" y="172.8" width="492.352941" height="1108.8"/>
  </clipPath>
 </defs>
</svg>
