<?xml version="1.0" encoding="utf-8" standalone="no"?>
<!DOCTYPE svg PUBLIC "-//W3C//DTD SVG 1.1//EN"
  "http://www.w3.org/Graphics/SVG/1.1/DTD/svg11.dtd">
<svg xmlns:xlink="http://www.w3.org/1999/xlink" width="2160pt" height="1440pt" viewBox="0 0 2160 1440" xmlns="http://www.w3.org/2000/svg" version="1.1">
 <metadata>
  <rdf:RDF xmlns:dc="http://purl.org/dc/elements/1.1/" xmlns:cc="http://creativecommons.org/ns#" xmlns:rdf="http://www.w3.org/1999/02/22-rdf-syntax-ns#">
   <cc:Work>
    <dc:type rdf:resource="http://purl.org/dc/dcmitype/StillImage"/>
    <dc:date>2023-05-31T19:43:52.388978</dc:date>
    <dc:format>image/svg+xml</dc:format>
    <dc:creator>
     <cc:Agent>
      <dc:title>Matplotlib v3.7.1, https://matplotlib.org/</dc:title>
     </cc:Agent>
    </dc:creator>
   </cc:Work>
  </rdf:RDF>
 </metadata>
 <defs>
  <style type="text/css">*{stroke-linejoin: round; stroke-linecap: butt}</style>
 </defs>
 <g id="figure_1">
  <g id="patch_1">
   <path d="M 0 1440 
L 2160 1440 
L 2160 0 
L 0 0 
z
" style="fill: #ffffff"/>
  </g>
  <g id="axes_1">
   <g id="patch_2">
    <path d="M 270 1281.6 
L 762.352941 1281.6 
L 762.352941 172.8 
L 270 172.8 
z
" style="fill: #ffffff"/>
   </g>
   <g id="matplotlib.axis_1">
    <g id="xtick_1">
     <g id="line2d_1">
      <defs>
       <path id="m80990b8655" d="M 0 0 
L 0 3.5 
" style="stroke: #000000; stroke-width: 0.8"/>
      </defs>
      <g>
       <use xlink:href="#m80990b8655" x="292.041618" y="1281.6" style="stroke: #000000; stroke-width: 0.8"/>
      </g>
     </g>
     <g id="text_1">
      <!-- 0 -->
      <g transform="translate(288.860368 1296.198437) scale(0.1 -0.1)">
       <defs>
        <path id="DejaVuSans-30" d="M 2034 4250 
Q 1547 4250 1301 3770 
Q 1056 3291 1056 2328 
Q 1056 1369 1301 889 
Q 1547 409 2034 409 
Q 2525 409 2770 889 
Q 3016 1369 3016 2328 
Q 3016 3291 2770 3770 
Q 2525 4250 2034 4250 
z
M 2034 4750 
Q 2819 4750 3233 4129 
Q 3647 3509 3647 2328 
Q 3647 1150 3233 529 
Q 2819 -91 2034 -91 
Q 1250 -91 836 529 
Q 422 1150 422 2328 
Q 422 3509 836 4129 
Q 1250 4750 2034 4750 
z
" transform="scale(0.015625)"/>
       </defs>
       <use xlink:href="#DejaVuSans-30"/>
      </g>
     </g>
    </g>
    <g id="xtick_2">
     <g id="line2d_2">
      <g>
       <use xlink:href="#m80990b8655" x="359.653941" y="1281.6" style="stroke: #000000; stroke-width: 0.8"/>
      </g>
     </g>
     <g id="text_2">
      <!-- 200 -->
      <g transform="translate(350.110191 1296.198437) scale(0.1 -0.1)">
       <defs>
        <path id="DejaVuSans-32" d="M 1228 531 
L 3431 531 
L 3431 0 
L 469 0 
L 469 531 
Q 828 903 1448 1529 
Q 2069 2156 2228 2338 
Q 2531 2678 2651 2914 
Q 2772 3150 2772 3378 
Q 2772 3750 2511 3984 
Q 2250 4219 1831 4219 
Q 1534 4219 1204 4116 
Q 875 4013 500 3803 
L 500 4441 
Q 881 4594 1212 4672 
Q 1544 4750 1819 4750 
Q 2544 4750 2975 4387 
Q 3406 4025 3406 3419 
Q 3406 3131 3298 2873 
Q 3191 2616 2906 2266 
Q 2828 2175 2409 1742 
Q 1991 1309 1228 531 
z
" transform="scale(0.015625)"/>
       </defs>
       <use xlink:href="#DejaVuSans-32"/>
       <use xlink:href="#DejaVuSans-30" x="63.623047"/>
       <use xlink:href="#DejaVuSans-30" x="127.246094"/>
      </g>
     </g>
    </g>
    <g id="xtick_3">
     <g id="line2d_3">
      <g>
       <use xlink:href="#m80990b8655" x="427.266265" y="1281.6" style="stroke: #000000; stroke-width: 0.8"/>
      </g>
     </g>
     <g id="text_3">
      <!-- 400 -->
      <g transform="translate(417.722515 1296.198437) scale(0.1 -0.1)">
       <defs>
        <path id="DejaVuSans-34" d="M 2419 4116 
L 825 1625 
L 2419 1625 
L 2419 4116 
z
M 2253 4666 
L 3047 4666 
L 3047 1625 
L 3713 1625 
L 3713 1100 
L 3047 1100 
L 3047 0 
L 2419 0 
L 2419 1100 
L 313 1100 
L 313 1709 
L 2253 4666 
z
" transform="scale(0.015625)"/>
       </defs>
       <use xlink:href="#DejaVuSans-34"/>
       <use xlink:href="#DejaVuSans-30" x="63.623047"/>
       <use xlink:href="#DejaVuSans-30" x="127.246094"/>
      </g>
     </g>
    </g>
    <g id="xtick_4">
     <g id="line2d_4">
      <g>
       <use xlink:href="#m80990b8655" x="494.878589" y="1281.6" style="stroke: #000000; stroke-width: 0.8"/>
      </g>
     </g>
     <g id="text_4">
      <!-- 600 -->
      <g transform="translate(485.334839 1296.198437) scale(0.1 -0.1)">
       <defs>
        <path id="DejaVuSans-36" d="M 2113 2584 
Q 1688 2584 1439 2293 
Q 1191 2003 1191 1497 
Q 1191 994 1439 701 
Q 1688 409 2113 409 
Q 2538 409 2786 701 
Q 3034 994 3034 1497 
Q 3034 2003 2786 2293 
Q 2538 2584 2113 2584 
z
M 3366 4563 
L 3366 3988 
Q 3128 4100 2886 4159 
Q 2644 4219 2406 4219 
Q 1781 4219 1451 3797 
Q 1122 3375 1075 2522 
Q 1259 2794 1537 2939 
Q 1816 3084 2150 3084 
Q 2853 3084 3261 2657 
Q 3669 2231 3669 1497 
Q 3669 778 3244 343 
Q 2819 -91 2113 -91 
Q 1303 -91 875 529 
Q 447 1150 447 2328 
Q 447 3434 972 4092 
Q 1497 4750 2381 4750 
Q 2619 4750 2861 4703 
Q 3103 4656 3366 4563 
z
" transform="scale(0.015625)"/>
       </defs>
       <use xlink:href="#DejaVuSans-36"/>
       <use xlink:href="#DejaVuSans-30" x="63.623047"/>
       <use xlink:href="#DejaVuSans-30" x="127.246094"/>
      </g>
     </g>
    </g>
    <g id="xtick_5">
     <g id="line2d_5">
      <g>
       <use xlink:href="#m80990b8655" x="562.490912" y="1281.6" style="stroke: #000000; stroke-width: 0.8"/>
      </g>
     </g>
     <g id="text_5">
      <!-- 800 -->
      <g transform="translate(552.947162 1296.198437) scale(0.1 -0.1)">
       <defs>
        <path id="DejaVuSans-38" d="M 2034 2216 
Q 1584 2216 1326 1975 
Q 1069 1734 1069 1313 
Q 1069 891 1326 650 
Q 1584 409 2034 409 
Q 2484 409 2743 651 
Q 3003 894 3003 1313 
Q 3003 1734 2745 1975 
Q 2488 2216 2034 2216 
z
M 1403 2484 
Q 997 2584 770 2862 
Q 544 3141 544 3541 
Q 544 4100 942 4425 
Q 1341 4750 2034 4750 
Q 2731 4750 3128 4425 
Q 3525 4100 3525 3541 
Q 3525 3141 3298 2862 
Q 3072 2584 2669 2484 
Q 3125 2378 3379 2068 
Q 3634 1759 3634 1313 
Q 3634 634 3220 271 
Q 2806 -91 2034 -91 
Q 1263 -91 848 271 
Q 434 634 434 1313 
Q 434 1759 690 2068 
Q 947 2378 1403 2484 
z
M 1172 3481 
Q 1172 3119 1398 2916 
Q 1625 2713 2034 2713 
Q 2441 2713 2670 2916 
Q 2900 3119 2900 3481 
Q 2900 3844 2670 4047 
Q 2441 4250 2034 4250 
Q 1625 4250 1398 4047 
Q 1172 3844 1172 3481 
z
" transform="scale(0.015625)"/>
       </defs>
       <use xlink:href="#DejaVuSans-38"/>
       <use xlink:href="#DejaVuSans-30" x="63.623047"/>
       <use xlink:href="#DejaVuSans-30" x="127.246094"/>
      </g>
     </g>
    </g>
    <g id="xtick_6">
     <g id="line2d_6">
      <g>
       <use xlink:href="#m80990b8655" x="630.103236" y="1281.6" style="stroke: #000000; stroke-width: 0.8"/>
      </g>
     </g>
     <g id="text_6">
      <!-- 1000 -->
      <g transform="translate(617.378236 1296.198437) scale(0.1 -0.1)">
       <defs>
        <path id="DejaVuSans-31" d="M 794 531 
L 1825 531 
L 1825 4091 
L 703 3866 
L 703 4441 
L 1819 4666 
L 2450 4666 
L 2450 531 
L 3481 531 
L 3481 0 
L 794 0 
L 794 531 
z
" transform="scale(0.015625)"/>
       </defs>
       <use xlink:href="#DejaVuSans-31"/>
       <use xlink:href="#DejaVuSans-30" x="63.623047"/>
       <use xlink:href="#DejaVuSans-30" x="127.246094"/>
       <use xlink:href="#DejaVuSans-30" x="190.869141"/>
      </g>
     </g>
    </g>
    <g id="xtick_7">
     <g id="line2d_7">
      <g>
       <use xlink:href="#m80990b8655" x="697.71556" y="1281.6" style="stroke: #000000; stroke-width: 0.8"/>
      </g>
     </g>
     <g id="text_7">
      <!-- 1200 -->
      <g transform="translate(684.99056 1296.198437) scale(0.1 -0.1)">
       <use xlink:href="#DejaVuSans-31"/>
       <use xlink:href="#DejaVuSans-32" x="63.623047"/>
       <use xlink:href="#DejaVuSans-30" x="127.246094"/>
       <use xlink:href="#DejaVuSans-30" x="190.869141"/>
      </g>
     </g>
    </g>
   </g>
   <g id="matplotlib.axis_2">
    <g id="ytick_1">
     <g id="line2d_8">
      <defs>
       <path id="mecdbc78711" d="M 0 0 
L -3.5 0 
" style="stroke: #000000; stroke-width: 0.8"/>
      </defs>
      <g>
       <use xlink:href="#mecdbc78711" x="270" y="1268.471591" style="stroke: #000000; stroke-width: 0.8"/>
      </g>
     </g>
     <g id="text_8">
      <!-- −20.0 -->
      <g transform="translate(232.354688 1272.27081) scale(0.1 -0.1)">
       <defs>
        <path id="DejaVuSans-2212" d="M 678 2272 
L 4684 2272 
L 4684 1741 
L 678 1741 
L 678 2272 
z
" transform="scale(0.015625)"/>
        <path id="DejaVuSans-2e" d="M 684 794 
L 1344 794 
L 1344 0 
L 684 0 
L 684 794 
z
" transform="scale(0.015625)"/>
       </defs>
       <use xlink:href="#DejaVuSans-2212"/>
       <use xlink:href="#DejaVuSans-32" x="83.789062"/>
       <use xlink:href="#DejaVuSans-30" x="147.412109"/>
       <use xlink:href="#DejaVuSans-2e" x="211.035156"/>
       <use xlink:href="#DejaVuSans-30" x="242.822266"/>
      </g>
     </g>
    </g>
    <g id="ytick_2">
     <g id="line2d_9">
      <g>
       <use xlink:href="#mecdbc78711" x="270" y="1139.106295" style="stroke: #000000; stroke-width: 0.8"/>
      </g>
     </g>
     <g id="text_9">
      <!-- −17.5 -->
      <g transform="translate(232.354688 1142.905514) scale(0.1 -0.1)">
       <defs>
        <path id="DejaVuSans-37" d="M 525 4666 
L 3525 4666 
L 3525 4397 
L 1831 0 
L 1172 0 
L 2766 4134 
L 525 4134 
L 525 4666 
z
" transform="scale(0.015625)"/>
        <path id="DejaVuSans-35" d="M 691 4666 
L 3169 4666 
L 3169 4134 
L 1269 4134 
L 1269 2991 
Q 1406 3038 1543 3061 
Q 1681 3084 1819 3084 
Q 2600 3084 3056 2656 
Q 3513 2228 3513 1497 
Q 3513 744 3044 326 
Q 2575 -91 1722 -91 
Q 1428 -91 1123 -41 
Q 819 9 494 109 
L 494 744 
Q 775 591 1075 516 
Q 1375 441 1709 441 
Q 2250 441 2565 725 
Q 2881 1009 2881 1497 
Q 2881 1984 2565 2268 
Q 2250 2553 1709 2553 
Q 1456 2553 1204 2497 
Q 953 2441 691 2322 
L 691 4666 
z
" transform="scale(0.015625)"/>
       </defs>
       <use xlink:href="#DejaVuSans-2212"/>
       <use xlink:href="#DejaVuSans-31" x="83.789062"/>
       <use xlink:href="#DejaVuSans-37" x="147.412109"/>
       <use xlink:href="#DejaVuSans-2e" x="211.035156"/>
       <use xlink:href="#DejaVuSans-35" x="242.822266"/>
      </g>
     </g>
    </g>
    <g id="ytick_3">
     <g id="line2d_10">
      <g>
       <use xlink:href="#mecdbc78711" x="270" y="1009.740999" style="stroke: #000000; stroke-width: 0.8"/>
      </g>
     </g>
     <g id="text_10">
      <!-- −15.0 -->
      <g transform="translate(232.354688 1013.540218) scale(0.1 -0.1)">
       <use xlink:href="#DejaVuSans-2212"/>
       <use xlink:href="#DejaVuSans-31" x="83.789062"/>
       <use xlink:href="#DejaVuSans-35" x="147.412109"/>
       <use xlink:href="#DejaVuSans-2e" x="211.035156"/>
       <use xlink:href="#DejaVuSans-30" x="242.822266"/>
      </g>
     </g>
    </g>
    <g id="ytick_4">
     <g id="line2d_11">
      <g>
       <use xlink:href="#mecdbc78711" x="270" y="880.375703" style="stroke: #000000; stroke-width: 0.8"/>
      </g>
     </g>
     <g id="text_11">
      <!-- −12.5 -->
      <g transform="translate(232.354688 884.174922) scale(0.1 -0.1)">
       <use xlink:href="#DejaVuSans-2212"/>
       <use xlink:href="#DejaVuSans-31" x="83.789062"/>
       <use xlink:href="#DejaVuSans-32" x="147.412109"/>
       <use xlink:href="#DejaVuSans-2e" x="211.035156"/>
       <use xlink:href="#DejaVuSans-35" x="242.822266"/>
      </g>
     </g>
    </g>
    <g id="ytick_5">
     <g id="line2d_12">
      <g>
       <use xlink:href="#mecdbc78711" x="270" y="751.010407" style="stroke: #000000; stroke-width: 0.8"/>
      </g>
     </g>
     <g id="text_12">
      <!-- −10.0 -->
      <g transform="translate(232.354688 754.809626) scale(0.1 -0.1)">
       <use xlink:href="#DejaVuSans-2212"/>
       <use xlink:href="#DejaVuSans-31" x="83.789062"/>
       <use xlink:href="#DejaVuSans-30" x="147.412109"/>
       <use xlink:href="#DejaVuSans-2e" x="211.035156"/>
       <use xlink:href="#DejaVuSans-30" x="242.822266"/>
      </g>
     </g>
    </g>
    <g id="ytick_6">
     <g id="line2d_13">
      <g>
       <use xlink:href="#mecdbc78711" x="270" y="621.645112" style="stroke: #000000; stroke-width: 0.8"/>
      </g>
     </g>
     <g id="text_13">
      <!-- −7.5 -->
      <g transform="translate(238.717187 625.44433) scale(0.1 -0.1)">
       <use xlink:href="#DejaVuSans-2212"/>
       <use xlink:href="#DejaVuSans-37" x="83.789062"/>
       <use xlink:href="#DejaVuSans-2e" x="147.412109"/>
       <use xlink:href="#DejaVuSans-35" x="179.199219"/>
      </g>
     </g>
    </g>
    <g id="ytick_7">
     <g id="line2d_14">
      <g>
       <use xlink:href="#mecdbc78711" x="270" y="492.279816" style="stroke: #000000; stroke-width: 0.8"/>
      </g>
     </g>
     <g id="text_14">
      <!-- −5.0 -->
      <g transform="translate(238.717187 496.079034) scale(0.1 -0.1)">
       <use xlink:href="#DejaVuSans-2212"/>
       <use xlink:href="#DejaVuSans-35" x="83.789062"/>
       <use xlink:href="#DejaVuSans-2e" x="147.412109"/>
       <use xlink:href="#DejaVuSans-30" x="179.199219"/>
      </g>
     </g>
    </g>
    <g id="ytick_8">
     <g id="line2d_15">
      <g>
       <use xlink:href="#mecdbc78711" x="270" y="362.91452" style="stroke: #000000; stroke-width: 0.8"/>
      </g>
     </g>
     <g id="text_15">
      <!-- −2.5 -->
      <g transform="translate(238.717187 366.713738) scale(0.1 -0.1)">
       <use xlink:href="#DejaVuSans-2212"/>
       <use xlink:href="#DejaVuSans-32" x="83.789062"/>
       <use xlink:href="#DejaVuSans-2e" x="147.412109"/>
       <use xlink:href="#DejaVuSans-35" x="179.199219"/>
      </g>
     </g>
    </g>
    <g id="ytick_9">
     <g id="line2d_16">
      <g>
       <use xlink:href="#mecdbc78711" x="270" y="233.549224" style="stroke: #000000; stroke-width: 0.8"/>
      </g>
     </g>
     <g id="text_16">
      <!-- 0.0 -->
      <g transform="translate(247.096875 237.348442) scale(0.1 -0.1)">
       <use xlink:href="#DejaVuSans-30"/>
       <use xlink:href="#DejaVuSans-2e" x="63.623047"/>
       <use xlink:href="#DejaVuSans-30" x="95.410156"/>
      </g>
     </g>
    </g>
   </g>
   <g id="line2d_17">
    <path d="M 292.379679 233.549224 
L 309.28276 233.549224 
L 309.620822 223.2 
L 310.635007 223.2 
L 310.973068 230.099482 
L 311.987253 230.099482 
L 312.325315 241.828603 
L 313.339499 241.828603 
L 313.677561 243.155426 
L 314.691746 243.155426 
L 315.029808 256.309934 
L 316.043992 256.309934 
L 316.382054 262.027561 
L 317.396239 262.027561 
L 317.734301 268.146744 
L 318.748485 268.146744 
L 319.086547 273.520719 
L 320.100732 273.520719 
L 320.438793 280.491209 
L 321.452978 280.491209 
L 321.79104 285.795421 
L 324.157471 285.795421 
L 324.495533 281.404283 
L 326.861964 281.404283 
L 327.200026 287.647337 
L 328.214211 287.647337 
L 328.552272 282.372114 
L 329.566457 282.372114 
L 329.904519 278.11652 
L 332.27095 278.11652 
L 332.609012 279.185221 
L 333.623197 279.185221 
L 333.961258 273.933276 
L 336.32769 273.933276 
L 336.665751 268.702365 
L 337.679936 268.702365 
L 338.017998 263.491488 
L 339.032182 263.491488 
L 339.370244 268.319061 
L 340.384429 268.319061 
L 340.722491 260.47874 
L 343.088922 260.47874 
L 343.426984 253.212618 
L 344.441168 253.212618 
L 344.77923 257.784155 
L 345.793415 257.784155 
L 346.131476 253.212618 
L 347.145661 253.212618 
L 347.483723 260.196035 
L 349.850154 260.196035 
L 350.188216 265.125269 
L 351.202401 265.125269 
L 351.540462 273.711705 
L 352.554647 273.711705 
L 352.892709 272.421238 
L 353.906894 272.421238 
L 354.244955 275.670555 
L 355.25914 275.670555 
L 355.597202 274.430175 
L 356.611387 274.430175 
L 356.949448 273.217463 
L 357.963633 273.217463 
L 358.301695 275.344241 
L 359.31588 275.344241 
L 359.653941 287.521351 
L 360.668126 287.521351 
L 361.006188 283.181192 
L 362.020373 283.181192 
L 362.358434 286.549408 
L 363.372619 286.549408 
L 363.710681 298.569356 
L 364.724866 298.569356 
L 365.062927 302.674674 
L 366.077112 302.674674 
L 366.415174 306.295743 
L 370.133851 306.295743 
L 370.471913 310.310279 
L 371.486098 310.310279 
L 371.824159 317.945883 
L 372.838344 317.945883 
L 373.176406 313.937733 
L 374.190591 313.937733 
L 374.528652 321.586458 
L 375.542837 321.586458 
L 375.880899 329.164836 
L 376.895084 329.164836 
L 377.233145 332.823252 
L 378.24733 332.823252 
L 378.585392 344.391266 
L 379.599577 344.391266 
L 379.937638 352.164455 
L 380.951823 352.164455 
L 381.289885 363.870391 
L 382.30407 363.870391 
L 382.642131 375.379947 
L 383.656316 375.379947 
L 383.994378 383.11201 
L 385.008563 383.11201 
L 385.346624 387.066321 
L 386.360809 387.066321 
L 386.698871 394.798385 
L 387.713056 394.798385 
L 388.051117 391.073706 
L 389.065302 391.073706 
L 389.403364 383.71561 
L 390.417549 383.71561 
L 390.75561 376.442483 
L 391.769795 376.442483 
L 392.107857 372.80592 
L 393.122041 372.80592 
L 393.460103 380.57921 
L 395.826534 380.613985 
L 396.164596 381.280187 
L 397.178781 381.280187 
L 397.516842 393.388472 
L 399.883274 393.384259 
L 400.221335 386.408526 
L 401.23552 386.408526 
L 401.573582 382.924691 
L 402.587767 382.924691 
L 402.925828 375.968531 
L 403.940013 375.968531 
L 404.278075 383.916713 
L 405.29226 383.916713 
L 405.630321 387.392902 
L 407.996753 387.392902 
L 408.334814 390.869091 
L 409.348999 390.869091 
L 409.687061 387.396458 
L 410.701246 387.396458 
L 411.039307 385.002674 
L 412.053492 385.002674 
L 412.391554 378.132115 
L 413.405739 378.132115 
L 413.7438 379.286681 
L 414.757985 379.286681 
L 415.096047 385.143361 
L 416.110232 385.143361 
L 416.448293 386.432504 
L 417.462478 386.432504 
L 417.80054 383.024184 
L 420.166971 383.024184 
L 420.505033 391.110756 
L 421.519217 391.110756 
L 421.857279 387.749925 
L 422.871464 387.749925 
L 423.209526 384.391772 
L 424.22371 384.391772 
L 424.561772 385.794499 
L 425.575957 385.794499 
L 425.914018 387.225828 
L 426.928203 387.225828 
L 427.266265 392.023074 
L 428.28045 392.023074 
L 428.618511 400.190369 
L 429.632696 400.190369 
L 429.970758 413.197693 
L 430.984943 413.197693 
L 431.323004 421.364987 
L 432.337189 421.364987 
L 432.675251 432.854672 
L 433.689436 432.854672 
L 434.027497 445.866904 
L 435.041682 445.866904 
L 435.379744 457.332602 
L 436.393929 457.332602 
L 436.73199 473.711854 
L 437.746175 473.711854 
L 438.084237 486.821545 
L 439.098422 486.821545 
L 439.436483 490.126378 
L 440.450668 490.126378 
L 440.78873 503.268426 
L 441.802915 503.268426 
L 442.140976 504.888501 
L 443.155161 504.888501 
L 443.493223 514.759836 
L 445.859654 514.759836 
L 446.197716 519.69478 
L 448.564147 519.703902 
L 448.902209 524.644539 
L 449.916393 524.644539 
L 450.254455 521.372985 
L 452.620886 521.371134 
L 452.958948 526.347319 
L 453.973133 526.347319 
L 454.311194 534.586964 
L 455.325379 534.586964 
L 455.663441 528.093908 
L 456.677626 528.093908 
L 457.015687 529.884086 
L 458.029872 529.884086 
L 458.367934 523.430961 
L 459.382119 523.430961 
L 459.72018 513.790213 
L 460.734365 513.790213 
L 461.072427 518.851783 
L 462.086612 518.851783 
L 462.424673 509.237922 
L 463.438858 509.237922 
L 463.77692 517.519968 
L 464.791105 517.519968 
L 465.129166 516.201128 
L 468.847844 516.201128 
L 469.185906 513.02019 
L 470.20009 513.02019 
L 470.538152 506.665636 
L 471.552337 506.665636 
L 471.890399 500.315589 
L 472.904583 500.315589 
L 473.242645 487.637242 
L 474.25683 487.637242 
L 474.594892 475.015847 
L 475.609076 475.015847 
L 475.947138 465.577517 
L 476.961323 465.577517 
L 477.299384 456.162455 
L 478.313569 456.162455 
L 478.651631 453.029573 
L 479.665816 453.029573 
L 480.003877 443.64635 
L 481.018062 443.64635 
L 481.356124 437.398052 
L 483.722555 437.400594 
L 484.060617 434.282051 
L 485.074802 434.282051 
L 485.412863 424.93696 
L 486.427048 424.93696 
L 486.76511 433.31738 
L 487.779295 433.31738 
L 488.117356 423.989111 
L 489.131541 423.989111 
L 489.469603 434.557922 
L 490.483788 434.557922 
L 490.821849 454.444439 
L 491.836034 454.444439 
L 492.174096 451.343025 
L 493.188281 451.343025 
L 493.526342 450.43944 
L 494.540527 450.43944 
L 494.878589 438.058424 
L 495.892773 438.058424 
L 496.230835 443.3741 
L 497.24502 443.3741 
L 497.583082 457.099096 
L 498.597266 457.099096 
L 498.935328 470.003033 
L 499.949513 470.003033 
L 500.287575 478.412408 
L 501.301759 478.412408 
L 501.639821 492.970665 
L 502.654006 492.970665 
L 502.992067 506.730717 
L 504.006252 506.730717 
L 504.344314 515.147684 
L 505.358499 515.147684 
L 505.69656 520.504023 
L 506.710745 520.504023 
L 507.048807 522.034376 
L 508.062992 522.034376 
L 508.401053 535.826218 
L 509.415238 535.826218 
L 509.7533 547.313429 
L 510.767485 547.313429 
L 511.105546 549.631412 
L 512.119731 549.631412 
L 512.457793 555.007092 
L 513.471978 555.007092 
L 513.810039 571.152857 
L 514.824224 571.152857 
L 515.162286 584.977687 
L 516.176471 584.977687 
L 516.514532 609.610848 
L 517.528717 609.610848 
L 517.866779 639.686026 
L 518.880964 639.686026 
L 519.219025 650.509303 
L 520.23321 650.509303 
L 520.571272 672.836756 
L 521.585456 672.836756 
L 521.923518 691.490413 
L 522.937703 691.490413 
L 523.275765 688.454477 
L 524.289949 688.454477 
L 524.628011 682.387896 
L 525.642196 682.387896 
L 525.980258 676.323958 
L 528.346689 676.323149 
L 528.68475 673.293587 
L 529.698935 673.293587 
L 530.036997 670.263225 
L 531.051182 670.263225 
L 531.389243 664.207519 
L 532.403428 664.207519 
L 532.74149 660.569391 
L 533.755675 660.569391 
L 534.093736 659.960945 
L 535.107921 659.960945 
L 535.445983 673.27394 
L 536.460168 673.27394 
L 536.798229 670.251675 
L 537.812414 670.251675 
L 538.150476 675.701092 
L 539.164661 675.701092 
L 539.502722 686.604696 
L 540.516907 686.604696 
L 540.854969 686.016884 
L 541.869154 686.016884 
L 542.207215 691.473427 
L 543.2214 691.473427 
L 543.559462 698.801214 
L 544.573647 698.801214 
L 544.911708 701.24892 
L 545.925893 701.24892 
L 546.263955 706.149057 
L 547.278139 706.149057 
L 547.616201 709.160383 
L 548.630386 709.160383 
L 548.968448 705.596023 
L 549.982632 705.596023 
L 550.320694 705.046647 
L 551.334879 705.046647 
L 551.672941 713.52821 
L 552.687125 713.52821 
L 553.025187 704.500964 
L 554.039372 704.500964 
L 554.377433 706.966764 
L 555.391618 706.966764 
L 555.72968 720.389717 
L 556.743865 720.389717 
L 557.081926 717.383287 
L 558.096111 717.383287 
L 558.434173 725.336444 
L 559.448358 725.336444 
L 559.786419 733.298077 
L 560.800604 733.298077 
L 561.138666 741.26298 
L 562.152851 741.26298 
L 562.490912 766.732859 
L 563.505097 766.732859 
L 563.843159 769.735119 
L 564.857344 769.735119 
L 565.195405 781.229778 
L 566.20959 781.229778 
L 566.547652 780.725885 
L 567.561837 780.725885 
L 567.899898 783.725414 
L 570.26633 783.725414 
L 570.604391 789.723335 
L 571.618576 789.723335 
L 571.956638 789.226918 
L 572.970822 789.226918 
L 573.308884 785.736344 
L 574.323069 785.736344 
L 574.661131 785.247877 
L 575.675315 785.247877 
L 576.013377 787.760627 
L 577.027562 787.760627 
L 577.365624 792.78759 
L 578.379808 792.78759 
L 578.71787 789.794842 
L 579.732055 789.794842 
L 580.070116 789.319822 
L 581.084301 789.319822 
L 581.422363 800.341819 
L 582.436548 800.341819 
L 582.774609 805.386613 
L 583.788794 805.386613 
L 584.126856 807.910837 
L 585.141041 807.910837 
L 585.479102 801.935324 
L 586.493287 801.935324 
L 586.831349 806.998937 
L 587.845534 806.998937 
L 588.183595 801.028389 
L 589.19778 801.028389 
L 589.535842 800.137051 
L 590.550027 800.137051 
L 590.888088 816.711059 
L 593.25452 816.711059 
L 593.592581 822.239966 
L 594.606766 822.239966 
L 594.944828 824.789304 
L 597.311259 824.790757 
L 597.649321 824.367127 
L 598.663506 824.367127 
L 599.001567 838.415246 
L 600.015752 838.415246 
L 600.353814 832.459512 
L 601.367998 832.459512 
L 601.70606 829.481646 
L 602.720245 829.481646 
L 603.058307 832.042331 
L 604.072491 832.042331 
L 604.410553 826.088237 
L 606.776984 826.088237 
L 607.115046 823.111374 
L 608.129231 823.111374 
L 608.467292 820.134873 
L 609.481477 820.134873 
L 609.819539 811.20732 
L 610.833724 811.20732 
L 611.171785 805.257021 
L 612.18597 805.257021 
L 612.524032 796.332302 
L 613.538217 796.332302 
L 613.876278 790.383303 
L 614.890463 790.383303 
L 615.228525 784.435583 
L 616.24271 784.435583 
L 616.580771 775.516313 
L 617.594956 775.516313 
L 617.933018 806.629776 
L 618.947203 806.629776 
L 619.285264 823.674036 
L 620.299449 823.674036 
L 620.637511 843.690894 
L 621.651696 843.690894 
L 621.989757 852.214049 
L 623.003942 852.214049 
L 623.342004 860.737204 
L 624.356189 860.737204 
L 624.69425 883.335393 
L 625.708435 883.335393 
L 626.046497 900.382484 
L 627.060681 900.382484 
L 627.398743 920.398909 
L 628.412928 920.398909 
L 628.75099 945.96734 
L 629.765174 945.96734 
L 630.103236 954.490281 
L 631.117421 954.490281 
L 631.455482 951.521824 
L 632.469667 951.521824 
L 632.807729 945.585855 
L 633.821914 945.585855 
L 634.159975 948.553466 
L 635.17416 948.553466 
L 635.512222 945.586163 
L 636.526407 945.586163 
L 636.864468 942.619166 
L 637.878653 942.619166 
L 638.216715 939.652169 
L 639.2309 939.652169 
L 639.568961 945.208943 
L 640.583146 945.208943 
L 640.921208 942.241947 
L 643.287639 942.242248 
L 643.625701 941.868288 
L 644.639886 941.868288 
L 644.977947 953.358765 
L 645.992132 953.358765 
L 646.330194 955.952746 
L 647.344379 955.952746 
L 647.68244 972.634196 
L 648.696625 972.634196 
L 649.034687 975.599293 
L 650.048872 975.599293 
L 650.386933 978.195771 
L 651.401118 978.195771 
L 651.73918 997.847836 
L 652.753364 997.847836 
L 653.091426 1011.939657 
L 654.105611 1011.939657 
L 654.443673 1011.575065 
L 655.457857 1011.575065 
L 655.795919 1017.139989 
L 656.810104 1017.139989 
L 657.148166 1020.104186 
L 658.16235 1020.104186 
L 658.500412 1014.176066 
L 659.514597 1014.176066 
L 659.852658 1019.742847 
L 660.866843 1019.742847 
L 661.204905 1027.914293 
L 662.21909 1027.914293 
L 662.557151 1024.950572 
L 663.571336 1024.950572 
L 663.909398 1024.591311 
L 666.275829 1024.591113 
L 666.613891 1027.55417 
L 667.628076 1027.55417 
L 667.966137 1033.124357 
L 668.980322 1033.124357 
L 669.318384 1032.769087 
L 670.332569 1032.769087 
L 670.67063 1029.806296 
L 671.684815 1029.806296 
L 672.022877 1035.377923 
L 673.037062 1035.377923 
L 673.375123 1049.485 
L 674.389308 1049.485 
L 674.72737 1052.095901 
L 675.741555 1052.095901 
L 676.079616 1060.631476 
L 677.093801 1060.631476 
L 677.431863 1063.593299 
L 678.446047 1063.593299 
L 678.784109 1066.55493 
L 679.798294 1066.55493 
L 680.136356 1072.128872 
L 682.502787 1072.128872 
L 682.840849 1075.09025 
L 683.855033 1075.09025 
L 684.193095 1077.703317 
L 685.20728 1077.703317 
L 685.545341 1077.355754 
L 686.559526 1077.355754 
L 686.897588 1082.930696 
L 687.911773 1082.930696 
L 688.249834 1082.584995 
L 689.264019 1082.584995 
L 689.602081 1088.160318 
L 690.616266 1088.160318 
L 690.954327 1102.445763 
L 691.968512 1102.445763 
L 692.306574 1108.365867 
L 694.673005 1108.366101 
L 695.011067 1119.523093 
L 696.025252 1119.523093 
L 696.363313 1113.604805 
L 697.377498 1113.604805 
L 697.71556 1119.184297 
L 698.729745 1119.184297 
L 699.067806 1130.68162 
L 700.081991 1130.68162 
L 700.420053 1127.723043 
L 702.786484 1127.723043 
L 703.124546 1133.303173 
L 704.13873 1133.303173 
L 704.476792 1136.261376 
L 705.490977 1136.261376 
L 705.829039 1147.757954 
L 706.843223 1147.757954 
L 707.181285 1153.339164 
L 708.19547 1153.339164 
L 708.533532 1161.878424 
L 709.547716 1161.878424 
L 709.885778 1167.460295 
L 710.899963 1167.460295 
L 711.238024 1181.582949 
L 712.252209 1181.582949 
L 712.590271 1175.668597 
L 713.604456 1175.668597 
L 713.942517 1172.711634 
L 714.956702 1172.711634 
L 715.294764 1169.75467 
L 716.308949 1169.75467 
L 716.64701 1172.382091 
L 717.661195 1172.382091 
L 717.999257 1175.33866 
L 720.365688 1175.33866 
L 720.70375 1172.382091 
L 723.070181 1172.382091 
L 723.408243 1166.469574 
L 724.422428 1166.469574 
L 724.760489 1166.143253 
L 725.774674 1166.143253 
L 726.112736 1168.773897 
L 727.126921 1168.773897 
L 727.464982 1171.404743 
L 728.479167 1171.404743 
L 728.817229 1182.57732 
L 729.831413 1182.57732 
L 730.169475 1185.532282 
L 731.18366 1185.532282 
L 731.521722 1188.487244 
L 732.535906 1188.487244 
L 732.873968 1191.442206 
L 733.888153 1191.442206 
L 734.226215 1199.662485 
L 736.592646 1199.662485 
L 736.930707 1208.205355 
L 737.944892 1208.205355 
L 738.282954 1214.113604 
L 739.297139 1214.113604 
L 739.6352 1231.2 
L 739.973262 1231.2 
L 739.973262 1231.2 
" clip-path="url(#pb51d4dfcdb)" style="fill: none; stroke: #0000ff; stroke-width: 1.5; stroke-linecap: square"/>
   </g>
   <g id="patch_3">
    <path d="M 270 1281.6 
L 270 172.8 
" style="fill: none; stroke: #000000; stroke-width: 0.8; stroke-linejoin: miter; stroke-linecap: square"/>
   </g>
   <g id="patch_4">
    <path d="M 762.352941 1281.6 
L 762.352941 172.8 
" style="fill: none; stroke: #000000; stroke-width: 0.8; stroke-linejoin: miter; stroke-linecap: square"/>
   </g>
   <g id="patch_5">
    <path d="M 270 1281.6 
L 762.352941 1281.6 
" style="fill: none; stroke: #000000; stroke-width: 0.8; stroke-linejoin: miter; stroke-linecap: square"/>
   </g>
   <g id="patch_6">
    <path d="M 270 172.8 
L 762.352941 172.8 
" style="fill: none; stroke: #000000; stroke-width: 0.8; stroke-linejoin: miter; stroke-linecap: square"/>
   </g>
   <g id="legend_1">
    <g id="patch_7">
     <path d="M 671.310754 195.478125 
L 755.352941 195.478125 
Q 757.352941 195.478125 757.352941 193.478125 
L 757.352941 179.8 
Q 757.352941 177.8 755.352941 177.8 
L 671.310754 177.8 
Q 669.310754 177.8 669.310754 179.8 
L 669.310754 193.478125 
Q 669.310754 195.478125 671.310754 195.478125 
z
" style="fill: #ffffff; opacity: 0.8; stroke: #cccccc; stroke-linejoin: miter"/>
    </g>
    <g id="line2d_18">
     <path d="M 673.310754 185.898437 
L 683.310754 185.898437 
L 693.310754 185.898437 
" style="fill: none; stroke: #0000ff; stroke-width: 1.5; stroke-linecap: square"/>
    </g>
    <g id="text_17">
     <!-- O1 reward -->
     <g transform="translate(701.310754 189.398437) scale(0.1 -0.1)">
      <defs>
       <path id="DejaVuSans-4f" d="M 2522 4238 
Q 1834 4238 1429 3725 
Q 1025 3213 1025 2328 
Q 1025 1447 1429 934 
Q 1834 422 2522 422 
Q 3209 422 3611 934 
Q 4013 1447 4013 2328 
Q 4013 3213 3611 3725 
Q 3209 4238 2522 4238 
z
M 2522 4750 
Q 3503 4750 4090 4092 
Q 4678 3434 4678 2328 
Q 4678 1225 4090 567 
Q 3503 -91 2522 -91 
Q 1538 -91 948 565 
Q 359 1222 359 2328 
Q 359 3434 948 4092 
Q 1538 4750 2522 4750 
z
" transform="scale(0.015625)"/>
       <path id="DejaVuSans-20" transform="scale(0.015625)"/>
       <path id="DejaVuSans-72" d="M 2631 2963 
Q 2534 3019 2420 3045 
Q 2306 3072 2169 3072 
Q 1681 3072 1420 2755 
Q 1159 2438 1159 1844 
L 1159 0 
L 581 0 
L 581 3500 
L 1159 3500 
L 1159 2956 
Q 1341 3275 1631 3429 
Q 1922 3584 2338 3584 
Q 2397 3584 2469 3576 
Q 2541 3569 2628 3553 
L 2631 2963 
z
" transform="scale(0.015625)"/>
       <path id="DejaVuSans-65" d="M 3597 1894 
L 3597 1613 
L 953 1613 
Q 991 1019 1311 708 
Q 1631 397 2203 397 
Q 2534 397 2845 478 
Q 3156 559 3463 722 
L 3463 178 
Q 3153 47 2828 -22 
Q 2503 -91 2169 -91 
Q 1331 -91 842 396 
Q 353 884 353 1716 
Q 353 2575 817 3079 
Q 1281 3584 2069 3584 
Q 2775 3584 3186 3129 
Q 3597 2675 3597 1894 
z
M 3022 2063 
Q 3016 2534 2758 2815 
Q 2500 3097 2075 3097 
Q 1594 3097 1305 2825 
Q 1016 2553 972 2059 
L 3022 2063 
z
" transform="scale(0.015625)"/>
       <path id="DejaVuSans-77" d="M 269 3500 
L 844 3500 
L 1563 769 
L 2278 3500 
L 2956 3500 
L 3675 769 
L 4391 3500 
L 4966 3500 
L 4050 0 
L 3372 0 
L 2619 2869 
L 1863 0 
L 1184 0 
L 269 3500 
z
" transform="scale(0.015625)"/>
       <path id="DejaVuSans-61" d="M 2194 1759 
Q 1497 1759 1228 1600 
Q 959 1441 959 1056 
Q 959 750 1161 570 
Q 1363 391 1709 391 
Q 2188 391 2477 730 
Q 2766 1069 2766 1631 
L 2766 1759 
L 2194 1759 
z
M 3341 1997 
L 3341 0 
L 2766 0 
L 2766 531 
Q 2569 213 2275 61 
Q 1981 -91 1556 -91 
Q 1019 -91 701 211 
Q 384 513 384 1019 
Q 384 1609 779 1909 
Q 1175 2209 1959 2209 
L 2766 2209 
L 2766 2266 
Q 2766 2663 2505 2880 
Q 2244 3097 1772 3097 
Q 1472 3097 1187 3025 
Q 903 2953 641 2809 
L 641 3341 
Q 956 3463 1253 3523 
Q 1550 3584 1831 3584 
Q 2591 3584 2966 3190 
Q 3341 2797 3341 1997 
z
" transform="scale(0.015625)"/>
       <path id="DejaVuSans-64" d="M 2906 2969 
L 2906 4863 
L 3481 4863 
L 3481 0 
L 2906 0 
L 2906 525 
Q 2725 213 2448 61 
Q 2172 -91 1784 -91 
Q 1150 -91 751 415 
Q 353 922 353 1747 
Q 353 2572 751 3078 
Q 1150 3584 1784 3584 
Q 2172 3584 2448 3432 
Q 2725 3281 2906 2969 
z
M 947 1747 
Q 947 1113 1208 752 
Q 1469 391 1925 391 
Q 2381 391 2643 752 
Q 2906 1113 2906 1747 
Q 2906 2381 2643 2742 
Q 2381 3103 1925 3103 
Q 1469 3103 1208 2742 
Q 947 2381 947 1747 
z
" transform="scale(0.015625)"/>
      </defs>
      <use xlink:href="#DejaVuSans-4f"/>
      <use xlink:href="#DejaVuSans-31" x="78.710938"/>
      <use xlink:href="#DejaVuSans-20" x="142.333984"/>
      <use xlink:href="#DejaVuSans-72" x="174.121094"/>
      <use xlink:href="#DejaVuSans-65" x="212.984375"/>
      <use xlink:href="#DejaVuSans-77" x="274.507812"/>
      <use xlink:href="#DejaVuSans-61" x="356.294922"/>
      <use xlink:href="#DejaVuSans-72" x="417.574219"/>
      <use xlink:href="#DejaVuSans-64" x="456.9375"/>
     </g>
    </g>
   </g>
  </g>
  <g id="axes_2">
   <g id="patch_8">
    <path d="M 860.823529 1281.6 
L 1353.176471 1281.6 
L 1353.176471 172.8 
L 860.823529 172.8 
z
" style="fill: #ffffff"/>
   </g>
   <g id="matplotlib.axis_3">
    <g id="xtick_8">
     <g id="line2d_19">
      <g>
       <use xlink:href="#m80990b8655" x="882.865147" y="1281.6" style="stroke: #000000; stroke-width: 0.8"/>
      </g>
     </g>
     <g id="text_18">
      <!-- 0 -->
      <g transform="translate(879.683897 1296.198437) scale(0.1 -0.1)">
       <use xlink:href="#DejaVuSans-30"/>
      </g>
     </g>
    </g>
    <g id="xtick_9">
     <g id="line2d_20">
      <g>
       <use xlink:href="#m80990b8655" x="950.477471" y="1281.6" style="stroke: #000000; stroke-width: 0.8"/>
      </g>
     </g>
     <g id="text_19">
      <!-- 200 -->
      <g transform="translate(940.933721 1296.198437) scale(0.1 -0.1)">
       <use xlink:href="#DejaVuSans-32"/>
       <use xlink:href="#DejaVuSans-30" x="63.623047"/>
       <use xlink:href="#DejaVuSans-30" x="127.246094"/>
      </g>
     </g>
    </g>
    <g id="xtick_10">
     <g id="line2d_21">
      <g>
       <use xlink:href="#m80990b8655" x="1018.089794" y="1281.6" style="stroke: #000000; stroke-width: 0.8"/>
      </g>
     </g>
     <g id="text_20">
      <!-- 400 -->
      <g transform="translate(1008.546044 1296.198437) scale(0.1 -0.1)">
       <use xlink:href="#DejaVuSans-34"/>
       <use xlink:href="#DejaVuSans-30" x="63.623047"/>
       <use xlink:href="#DejaVuSans-30" x="127.246094"/>
      </g>
     </g>
    </g>
    <g id="xtick_11">
     <g id="line2d_22">
      <g>
       <use xlink:href="#m80990b8655" x="1085.702118" y="1281.6" style="stroke: #000000; stroke-width: 0.8"/>
      </g>
     </g>
     <g id="text_21">
      <!-- 600 -->
      <g transform="translate(1076.158368 1296.198437) scale(0.1 -0.1)">
       <use xlink:href="#DejaVuSans-36"/>
       <use xlink:href="#DejaVuSans-30" x="63.623047"/>
       <use xlink:href="#DejaVuSans-30" x="127.246094"/>
      </g>
     </g>
    </g>
    <g id="xtick_12">
     <g id="line2d_23">
      <g>
       <use xlink:href="#m80990b8655" x="1153.314442" y="1281.6" style="stroke: #000000; stroke-width: 0.8"/>
      </g>
     </g>
     <g id="text_22">
      <!-- 800 -->
      <g transform="translate(1143.770692 1296.198437) scale(0.1 -0.1)">
       <use xlink:href="#DejaVuSans-38"/>
       <use xlink:href="#DejaVuSans-30" x="63.623047"/>
       <use xlink:href="#DejaVuSans-30" x="127.246094"/>
      </g>
     </g>
    </g>
    <g id="xtick_13">
     <g id="line2d_24">
      <g>
       <use xlink:href="#m80990b8655" x="1220.926765" y="1281.6" style="stroke: #000000; stroke-width: 0.8"/>
      </g>
     </g>
     <g id="text_23">
      <!-- 1000 -->
      <g transform="translate(1208.201765 1296.198437) scale(0.1 -0.1)">
       <use xlink:href="#DejaVuSans-31"/>
       <use xlink:href="#DejaVuSans-30" x="63.623047"/>
       <use xlink:href="#DejaVuSans-30" x="127.246094"/>
       <use xlink:href="#DejaVuSans-30" x="190.869141"/>
      </g>
     </g>
    </g>
    <g id="xtick_14">
     <g id="line2d_25">
      <g>
       <use xlink:href="#m80990b8655" x="1288.539089" y="1281.6" style="stroke: #000000; stroke-width: 0.8"/>
      </g>
     </g>
     <g id="text_24">
      <!-- 1200 -->
      <g transform="translate(1275.814089 1296.198437) scale(0.1 -0.1)">
       <use xlink:href="#DejaVuSans-31"/>
       <use xlink:href="#DejaVuSans-32" x="63.623047"/>
       <use xlink:href="#DejaVuSans-30" x="127.246094"/>
       <use xlink:href="#DejaVuSans-30" x="190.869141"/>
      </g>
     </g>
    </g>
   </g>
   <g id="matplotlib.axis_4">
    <g id="ytick_10">
     <g id="line2d_26">
      <g>
       <use xlink:href="#mecdbc78711" x="860.823529" y="1231.2" style="stroke: #000000; stroke-width: 0.8"/>
      </g>
     </g>
     <g id="text_25">
      <!-- 0 -->
      <g transform="translate(847.461029 1234.999219) scale(0.1 -0.1)">
       <use xlink:href="#DejaVuSans-30"/>
      </g>
     </g>
    </g>
    <g id="ytick_11">
     <g id="line2d_27">
      <g>
       <use xlink:href="#mecdbc78711" x="860.823529" y="1028.18106" style="stroke: #000000; stroke-width: 0.8"/>
      </g>
     </g>
     <g id="text_26">
      <!-- 20 -->
      <g transform="translate(841.098529 1031.980279) scale(0.1 -0.1)">
       <use xlink:href="#DejaVuSans-32"/>
       <use xlink:href="#DejaVuSans-30" x="63.623047"/>
      </g>
     </g>
    </g>
    <g id="ytick_12">
     <g id="line2d_28">
      <g>
       <use xlink:href="#mecdbc78711" x="860.823529" y="825.16212" style="stroke: #000000; stroke-width: 0.8"/>
      </g>
     </g>
     <g id="text_27">
      <!-- 40 -->
      <g transform="translate(841.098529 828.961339) scale(0.1 -0.1)">
       <use xlink:href="#DejaVuSans-34"/>
       <use xlink:href="#DejaVuSans-30" x="63.623047"/>
      </g>
     </g>
    </g>
    <g id="ytick_13">
     <g id="line2d_29">
      <g>
       <use xlink:href="#mecdbc78711" x="860.823529" y="622.14318" style="stroke: #000000; stroke-width: 0.8"/>
      </g>
     </g>
     <g id="text_28">
      <!-- 60 -->
      <g transform="translate(841.098529 625.942398) scale(0.1 -0.1)">
       <use xlink:href="#DejaVuSans-36"/>
       <use xlink:href="#DejaVuSans-30" x="63.623047"/>
      </g>
     </g>
    </g>
    <g id="ytick_14">
     <g id="line2d_30">
      <g>
       <use xlink:href="#mecdbc78711" x="860.823529" y="419.12424" style="stroke: #000000; stroke-width: 0.8"/>
      </g>
     </g>
     <g id="text_29">
      <!-- 80 -->
      <g transform="translate(841.098529 422.923458) scale(0.1 -0.1)">
       <use xlink:href="#DejaVuSans-38"/>
       <use xlink:href="#DejaVuSans-30" x="63.623047"/>
      </g>
     </g>
    </g>
    <g id="ytick_15">
     <g id="line2d_31">
      <g>
       <use xlink:href="#mecdbc78711" x="860.823529" y="216.105299" style="stroke: #000000; stroke-width: 0.8"/>
      </g>
     </g>
     <g id="text_30">
      <!-- 100 -->
      <g transform="translate(834.736029 219.904518) scale(0.1 -0.1)">
       <use xlink:href="#DejaVuSans-31"/>
       <use xlink:href="#DejaVuSans-30" x="63.623047"/>
       <use xlink:href="#DejaVuSans-30" x="127.246094"/>
      </g>
     </g>
    </g>
   </g>
   <g id="line2d_32">
    <path d="M 883.203209 1231.2 
L 898.754043 1231.124952 
L 899.092105 1227.035344 
L 900.106289 1227.035344 
L 900.444351 1228.638164 
L 901.458536 1228.638164 
L 901.796598 1227.684967 
L 902.810782 1227.684967 
L 903.148844 1229.564073 
L 904.163029 1229.564073 
L 904.501091 1221.121658 
L 905.515275 1221.121658 
L 905.853337 1208.3242 
L 906.867522 1208.3242 
L 907.205583 1201.957734 
L 908.219768 1201.957734 
L 908.55783 1185.187895 
L 909.572015 1185.187895 
L 909.910076 1169.732479 
L 916.333247 1169.732479 
L 916.671309 1163.024583 
L 920.389987 1163.024583 
L 920.728048 1155.870492 
L 924.446726 1155.870492 
L 924.784788 1146.123166 
L 925.798972 1146.123166 
L 926.137034 1143.386195 
L 927.151219 1143.386195 
L 927.489281 1140.374484 
L 929.855712 1140.374484 
L 930.193774 1121.887721 
L 931.207958 1121.887721 
L 931.54602 1092.81574 
L 932.560205 1092.81574 
L 932.898266 1085.07124 
L 933.912451 1085.07124 
L 934.250513 1070.157943 
L 935.264698 1070.157943 
L 935.602759 1034.056737 
L 936.616944 1034.056737 
L 936.955006 1008.930241 
L 951.491655 1008.930241 
L 951.829717 1001.521476 
L 955.548395 1001.521476 
L 955.886457 994.22159 
L 956.900641 994.22159 
L 957.238703 986.845382 
L 958.252888 986.845382 
L 958.590949 979.394807 
L 960.957381 979.394807 
L 961.295442 976.765106 
L 966.366367 976.765106 
L 966.704428 974.064733 
L 967.718613 974.064733 
L 968.056675 956.13906 
L 969.07086 956.13906 
L 969.408921 942.449533 
L 970.423106 942.449533 
L 970.761168 912.110757 
L 971.775353 912.110757 
L 972.113414 885.420983 
L 973.127599 885.420983 
L 973.465661 864.384308 
L 974.479846 864.384308 
L 974.817907 838.515262 
L 975.832092 838.515262 
L 976.170154 807.096059 
L 977.184338 807.096059 
L 977.5224 793.044555 
L 978.536585 793.044555 
L 978.874647 773.584079 
L 982.593324 773.584079 
L 982.931386 769.190696 
L 983.945571 769.190696 
L 984.283632 760.106134 
L 985.297817 760.106134 
L 985.635879 766.375534 
L 986.650064 766.375534 
L 986.988125 769.35748 
L 988.00231 769.35748 
L 988.340372 775.551937 
L 989.354557 775.551937 
L 989.692618 778.749369 
L 990.706803 778.749369 
L 991.044865 781.654826 
L 992.05905 781.654826 
L 992.397111 772.703792 
L 994.763543 772.703792 
L 995.101604 766.616896 
L 996.115789 766.616896 
L 996.453851 763.812606 
L 997.468036 763.812606 
L 997.806097 755.018837 
L 998.820282 755.018837 
L 999.158344 737.672237 
L 1000.172529 737.672237 
L 1000.51059 729.366792 
L 1001.524775 729.366792 
L 1001.862837 722.146306 
L 1002.877022 722.146306 
L 1003.215083 717.471834 
L 1004.229268 717.471834 
L 1004.56733 709.794059 
L 1005.581514 709.794059 
L 1005.919576 717.396007 
L 1006.933761 717.396007 
L 1007.271823 734.42616 
L 1008.286007 734.42616 
L 1008.624069 729.088173 
L 1009.638254 729.088173 
L 1009.976315 714.442657 
L 1010.9905 714.442657 
L 1011.328562 702.016404 
L 1012.342747 702.016404 
L 1012.680808 703.810843 
L 1013.694993 703.810843 
L 1014.033055 692.009392 
L 1015.04724 692.009392 
L 1015.385301 681.868071 
L 1016.399486 681.868071 
L 1016.737548 680.224288 
L 1019.103979 680.164184 
L 1019.442041 681.75997 
L 1020.456226 681.75997 
L 1020.794287 678.637321 
L 1021.808472 678.637321 
L 1022.146534 668.889681 
L 1023.160719 668.889681 
L 1023.49878 670.353434 
L 1024.512965 670.353434 
L 1024.851027 667.03715 
L 1025.865212 667.03715 
L 1026.203273 657.539492 
L 1027.217458 657.539492 
L 1027.55552 651.438547 
L 1028.569705 651.438547 
L 1028.907766 645.386728 
L 1029.921951 645.386728 
L 1030.260013 642.091466 
L 1031.274197 642.091466 
L 1031.612259 640.135032 
L 1033.97869 640.135032 
L 1034.316752 651.967734 
L 1035.330937 651.967734 
L 1035.668998 657.795882 
L 1036.683183 657.795882 
L 1037.021245 655.722366 
L 1038.03543 655.722366 
L 1038.373491 660.171887 
L 1039.387676 660.171887 
L 1039.725738 661.274201 
L 1040.739923 661.274201 
L 1041.077984 673.336774 
L 1042.092169 673.336774 
L 1042.430231 675.639837 
L 1043.444416 675.639837 
L 1043.782477 685.278023 
L 1044.796662 685.278023 
L 1045.134724 684.807904 
L 1046.148909 684.807904 
L 1046.48697 675.418688 
L 1047.501155 675.418688 
L 1047.839217 669.409666 
L 1048.853402 669.409666 
L 1049.191463 668.521286 
L 1050.205648 668.521286 
L 1050.54371 663.48315 
L 1051.557895 663.48315 
L 1051.895956 655.175102 
L 1052.910141 655.175102 
L 1053.248203 658.502829 
L 1054.262388 658.502829 
L 1054.600449 661.825027 
L 1055.614634 661.825027 
L 1055.952696 661.033877 
L 1056.96688 661.033877 
L 1057.304942 657.700565 
L 1058.319127 657.700565 
L 1058.657189 648.757974 
L 1059.671373 648.757974 
L 1060.009435 643.209293 
L 1062.375866 643.209293 
L 1062.713928 638.458792 
L 1063.728113 638.458792 
L 1064.066174 643.837158 
L 1065.080359 643.837158 
L 1065.418421 653.078103 
L 1066.432606 653.078103 
L 1066.770667 655.812265 
L 1067.784852 655.812265 
L 1068.122914 655.259021 
L 1069.137099 655.259021 
L 1069.47516 654.184041 
L 1070.489345 654.184041 
L 1070.827407 656.51406 
L 1071.841592 656.51406 
L 1072.179653 647.983764 
L 1073.193838 647.983764 
L 1073.5319 627.041066 
L 1074.546085 627.041066 
L 1074.884146 614.69576 
L 1075.898331 614.69576 
L 1076.236393 598.460502 
L 1077.250578 598.460502 
L 1077.588639 582.120093 
L 1078.602824 582.120093 
L 1078.940886 566.642733 
L 1079.955071 566.642733 
L 1080.293132 558.559964 
L 1081.307317 558.559964 
L 1081.645379 547.244096 
L 1082.659563 547.244096 
L 1082.997625 531.994805 
L 1084.01181 531.994805 
L 1084.349872 524.463086 
L 1085.364056 524.463086 
L 1085.702118 513.28587 
L 1086.716303 513.28587 
L 1087.054365 517.157676 
L 1088.068549 517.157676 
L 1088.406611 510.489363 
L 1089.420796 510.489363 
L 1089.758857 521.263526 
L 1090.773042 521.263526 
L 1091.111104 521.567304 
L 1092.125289 521.567304 
L 1092.46335 521.818781 
L 1093.477535 521.818781 
L 1093.815597 518.601957 
L 1094.829782 518.601957 
L 1095.505905 518.713604 
L 1096.182028 518.713604 
L 1096.52009 518.917457 
L 1097.534275 518.917457 
L 1097.872336 529.396771 
L 1098.886521 529.396771 
L 1099.224583 536.212329 
L 1100.238768 536.212329 
L 1100.576829 539.546554 
L 1101.591014 539.546554 
L 1101.929076 536.206847 
L 1102.943261 536.206847 
L 1103.281322 532.732505 
L 1104.295507 532.732505 
L 1104.633569 525.932477 
L 1105.647754 525.932477 
L 1105.985815 519.210108 
L 1108.352246 519.196618 
L 1108.690308 522.579683 
L 1109.704493 522.579683 
L 1110.042555 519.310445 
L 1111.056739 519.310445 
L 1111.394801 516.060535 
L 1112.408986 516.060535 
L 1112.747048 516.17854 
L 1113.761232 516.17854 
L 1114.099294 529.406076 
L 1115.113479 529.406076 
L 1115.45154 532.805373 
L 1116.465725 532.805373 
L 1116.803787 523.687646 
L 1117.817972 523.687646 
L 1118.156033 527.138573 
L 1119.170218 527.138573 
L 1119.50828 530.86011 
L 1120.522465 530.86011 
L 1120.860526 527.669392 
L 1121.874711 527.669392 
L 1122.212773 527.965438 
L 1123.226958 527.965438 
L 1123.565019 532.140951 
L 1124.579204 532.140951 
L 1124.917266 533.280491 
L 1127.283697 533.282665 
L 1127.621759 523.919385 
L 1128.635944 523.919385 
L 1128.974005 517.701101 
L 1129.98819 517.701101 
L 1130.326252 514.595054 
L 1131.340437 514.595054 
L 1131.678498 508.393464 
L 1132.692683 508.393464 
L 1133.030745 505.297907 
L 1134.044929 505.297907 
L 1134.382991 502.20436 
L 1135.397176 502.20436 
L 1135.735238 496.023173 
L 1136.749422 496.023173 
L 1137.087484 489.849667 
L 1138.101669 489.849667 
L 1138.439731 483.683629 
L 1139.453915 483.683629 
L 1139.791977 480.603371 
L 1140.806162 480.603371 
L 1141.144223 471.390346 
L 1142.158408 471.390346 
L 1142.49647 465.268186 
L 1143.510655 465.268186 
L 1143.848716 462.209737 
L 1146.215148 462.209737 
L 1146.553209 459.15302 
L 1147.567394 459.15302 
L 1147.905456 450.003103 
L 1148.919641 450.003103 
L 1149.257702 440.886532 
L 1150.271887 440.886532 
L 1150.609949 431.806872 
L 1151.624134 431.806872 
L 1151.962195 425.772568 
L 1152.97638 425.772568 
L 1153.314442 416.750969 
L 1154.328627 416.750969 
L 1154.666688 427.165754 
L 1155.680873 427.165754 
L 1156.018935 435.332638 
L 1157.03312 435.332638 
L 1157.371181 437.618304 
L 1158.385366 437.618304 
L 1158.723428 439.975964 
L 1159.737612 439.975964 
L 1160.075674 447.461159 
L 1162.442105 447.478653 
L 1162.780167 445.153211 
L 1163.794352 445.153211 
L 1164.132414 448.925448 
L 1165.146598 448.925448 
L 1165.48466 445.915987 
L 1166.498845 445.915987 
L 1166.836906 447.819732 
L 1167.851091 447.819732 
L 1168.189153 436.4049 
L 1169.203338 436.4049 
L 1169.541399 425.034534 
L 1170.555584 425.034534 
L 1170.893646 413.705026 
L 1171.907831 413.705026 
L 1172.245892 405.246571 
L 1173.260077 405.246571 
L 1173.598139 396.820637 
L 1174.612324 396.820637 
L 1174.950385 391.216911 
L 1175.96457 391.216911 
L 1176.302632 382.833603 
L 1177.316817 382.833603 
L 1177.654878 380.045275 
L 1178.669063 380.045275 
L 1179.007125 374.478935 
L 1180.02131 374.478935 
L 1180.359371 368.926281 
L 1181.373556 368.926281 
L 1181.711618 370.06061 
L 1182.725803 370.06061 
L 1183.063864 379.512512 
L 1185.430295 379.509324 
L 1185.768357 377.920176 
L 1188.134788 377.920176 
L 1188.47285 373.582076 
L 1192.191528 373.582076 
L 1192.529589 376.335479 
L 1196.248267 376.335479 
L 1196.586329 373.585164 
L 1198.95276 373.585164 
L 1199.290822 374.783857 
L 1200.305007 374.783857 
L 1200.643068 378.736964 
L 1201.657253 378.736964 
L 1201.995315 377.233213 
L 1203.0095 377.233213 
L 1203.347561 383.931779 
L 1204.361746 383.931779 
L 1204.699808 390.414908 
L 1205.713993 390.414908 
L 1206.052054 394.400731 
L 1207.066239 394.400731 
L 1207.404301 398.38659 
L 1208.418486 398.38659 
L 1208.756547 395.675887 
L 1209.770732 395.675887 
L 1210.108794 390.259747 
L 1211.122978 390.259747 
L 1211.46104 384.855031 
L 1212.475225 384.855031 
L 1212.813287 376.762684 
L 1213.827471 376.762684 
L 1214.165533 374.069813 
L 1215.179718 374.069813 
L 1215.51778 371.379746 
L 1216.531964 371.379746 
L 1216.870026 368.69238 
L 1217.884211 368.69238 
L 1218.222272 366.007683 
L 1220.588704 366.007683 
L 1220.926765 360.644754 
L 1221.94095 360.644754 
L 1222.279012 357.966506 
L 1223.293197 357.966506 
L 1223.631258 360.64358 
L 1224.645443 360.64358 
L 1224.983505 362.010271 
L 1225.99769 362.010271 
L 1226.335751 360.71149 
L 1227.349936 360.71149 
L 1227.687998 358.043485 
L 1228.702183 358.043485 
L 1229.040244 360.710343 
L 1230.054429 360.710343 
L 1230.392491 358.046033 
L 1231.406676 358.046033 
L 1231.744737 355.384419 
L 1232.758922 355.384419 
L 1233.096984 347.414877 
L 1234.111169 347.414877 
L 1234.44923 348.829487 
L 1235.463415 348.829487 
L 1235.801477 340.892193 
L 1236.815662 340.892193 
L 1237.153723 330.339264 
L 1238.167908 330.339264 
L 1238.50597 327.707042 
L 1239.520154 327.707042 
L 1239.858216 322.449999 
L 1240.872401 322.449999 
L 1241.210463 314.575669 
L 1242.224647 314.575669 
L 1242.562709 309.337108 
L 1243.576894 309.337108 
L 1243.914955 304.105224 
L 1244.92914 304.105224 
L 1245.267202 293.66814 
L 1246.281387 293.66814 
L 1246.619448 285.86218 
L 1247.633633 285.86218 
L 1247.971695 280.665553 
L 1248.98588 280.665553 
L 1249.323941 276.999079 
L 1250.338126 276.999079 
L 1250.676188 275.936501 
L 1251.690373 275.936501 
L 1252.028434 280.061955 
L 1253.042619 280.061955 
L 1253.380681 277.978108 
L 1254.394866 277.978108 
L 1254.732927 274.364426 
L 1255.747112 274.364426 
L 1256.085174 278.498597 
L 1258.451605 278.498597 
L 1258.789667 277.485478 
L 1259.803852 277.485478 
L 1260.141913 276.477805 
L 1261.156098 276.477805 
L 1261.49416 273.903975 
L 1262.508345 273.903975 
L 1262.846406 271.332155 
L 1266.565084 271.332155 
L 1266.903146 273.901786 
L 1267.91733 273.901786 
L 1268.255392 272.918692 
L 1269.269577 272.918692 
L 1269.607638 271.941887 
L 1270.621823 271.941887 
L 1270.959885 269.378167 
L 1271.97407 269.378167 
L 1272.312131 266.816398 
L 1274.678563 266.816398 
L 1275.016624 269.376024 
L 1276.030809 269.376024 
L 1276.368871 264.260939 
L 1277.383056 264.260939 
L 1277.721117 261.705474 
L 1278.735302 261.705474 
L 1279.073364 256.597561 
L 1281.439795 256.597561 
L 1281.777857 254.046191 
L 1282.792042 254.046191 
L 1283.130103 248.948265 
L 1284.144288 248.948265 
L 1284.48235 246.401701 
L 1285.496535 246.401701 
L 1285.834596 243.857179 
L 1286.848781 243.857179 
L 1287.186843 241.314541 
L 1288.201028 241.314541 
L 1288.539089 236.235016 
L 1289.553274 236.235016 
L 1289.891336 237.87403 
L 1290.90552 237.87403 
L 1291.243582 238.640238 
L 1292.257767 238.640238 
L 1292.595829 237.76155 
L 1293.610013 237.76155 
L 1293.948075 235.232156 
L 1294.96226 235.232156 
L 1295.300322 241.945157 
L 1296.314506 241.945157 
L 1296.652568 244.468731 
L 1297.666753 244.468731 
L 1298.004814 246.145229 
L 1299.018999 246.145229 
L 1299.357061 244.465304 
L 1300.371246 244.465304 
L 1300.709307 251.18259 
L 1301.723492 251.18259 
L 1302.061554 250.353021 
L 1304.427985 250.353021 
L 1304.766047 247.018684 
L 1309.836971 247.018684 
L 1310.175033 249.528717 
L 1312.541464 249.528717 
L 1312.879526 247.020396 
L 1313.893711 247.020396 
L 1314.231772 244.51377 
L 1315.245957 244.51377 
L 1315.584019 243.715589 
L 1316.598203 243.715589 
L 1316.936265 240.423064 
L 1317.95045 240.423064 
L 1318.288512 239.643767 
L 1319.302696 239.643767 
L 1319.640758 242.140588 
L 1320.654943 242.140588 
L 1320.993005 239.645416 
L 1322.007189 239.645416 
L 1322.345251 241.373535 
L 1323.359436 241.373535 
L 1323.697497 235.632807 
L 1324.711682 235.632807 
L 1325.049744 233.143433 
L 1326.063929 233.143433 
L 1326.40199 230.655657 
L 1327.416175 230.655657 
L 1327.754237 228.168781 
L 1328.768422 228.168781 
L 1329.106483 225.683495 
L 1330.120668 225.683495 
L 1330.45873 223.2 
L 1330.796791 223.2 
L 1330.796791 223.2 
" clip-path="url(#pd6bedac7bf)" style="fill: none; stroke: #0000ff; stroke-width: 1.5; stroke-linecap: square"/>
   </g>
   <g id="patch_9">
    <path d="M 860.823529 1281.6 
L 860.823529 172.8 
" style="fill: none; stroke: #000000; stroke-width: 0.8; stroke-linejoin: miter; stroke-linecap: square"/>
   </g>
   <g id="patch_10">
    <path d="M 1353.176471 1281.6 
L 1353.176471 172.8 
" style="fill: none; stroke: #000000; stroke-width: 0.8; stroke-linejoin: miter; stroke-linecap: square"/>
   </g>
   <g id="patch_11">
    <path d="M 860.823529 1281.6 
L 1353.176471 1281.6 
" style="fill: none; stroke: #000000; stroke-width: 0.8; stroke-linejoin: miter; stroke-linecap: square"/>
   </g>
   <g id="patch_12">
    <path d="M 860.823529 172.8 
L 1353.176471 172.8 
" style="fill: none; stroke: #000000; stroke-width: 0.8; stroke-linejoin: miter; stroke-linecap: square"/>
   </g>
   <g id="legend_2">
    <g id="patch_13">
     <path d="M 1262.134283 195.478125 
L 1346.176471 195.478125 
Q 1348.176471 195.478125 1348.176471 193.478125 
L 1348.176471 179.8 
Q 1348.176471 177.8 1346.176471 177.8 
L 1262.134283 177.8 
Q 1260.134283 177.8 1260.134283 179.8 
L 1260.134283 193.478125 
Q 1260.134283 195.478125 1262.134283 195.478125 
z
" style="fill: #ffffff; opacity: 0.8; stroke: #cccccc; stroke-linejoin: miter"/>
    </g>
    <g id="line2d_33">
     <path d="M 1264.134283 185.898437 
L 1274.134283 185.898437 
L 1284.134283 185.898437 
" style="fill: none; stroke: #0000ff; stroke-width: 1.5; stroke-linecap: square"/>
    </g>
    <g id="text_31">
     <!-- O2 reward -->
     <g transform="translate(1292.134283 189.398437) scale(0.1 -0.1)">
      <use xlink:href="#DejaVuSans-4f"/>
      <use xlink:href="#DejaVuSans-32" x="78.710938"/>
      <use xlink:href="#DejaVuSans-20" x="142.333984"/>
      <use xlink:href="#DejaVuSans-72" x="174.121094"/>
      <use xlink:href="#DejaVuSans-65" x="212.984375"/>
      <use xlink:href="#DejaVuSans-77" x="274.507812"/>
      <use xlink:href="#DejaVuSans-61" x="356.294922"/>
      <use xlink:href="#DejaVuSans-72" x="417.574219"/>
      <use xlink:href="#DejaVuSans-64" x="456.9375"/>
     </g>
    </g>
   </g>
  </g>
  <g id="axes_3">
   <g id="patch_14">
    <path d="M 1451.647059 1281.6 
L 1944 1281.6 
L 1944 172.8 
L 1451.647059 172.8 
z
" style="fill: #ffffff"/>
   </g>
   <g id="matplotlib.axis_5">
    <g id="xtick_15">
     <g id="line2d_34">
      <g>
       <use xlink:href="#m80990b8655" x="1473.688676" y="1281.6" style="stroke: #000000; stroke-width: 0.8"/>
      </g>
     </g>
     <g id="text_32">
      <!-- 0 -->
      <g transform="translate(1470.507426 1296.198437) scale(0.1 -0.1)">
       <use xlink:href="#DejaVuSans-30"/>
      </g>
     </g>
    </g>
    <g id="xtick_16">
     <g id="line2d_35">
      <g>
       <use xlink:href="#m80990b8655" x="1541.301" y="1281.6" style="stroke: #000000; stroke-width: 0.8"/>
      </g>
     </g>
     <g id="text_33">
      <!-- 200 -->
      <g transform="translate(1531.75725 1296.198437) scale(0.1 -0.1)">
       <use xlink:href="#DejaVuSans-32"/>
       <use xlink:href="#DejaVuSans-30" x="63.623047"/>
       <use xlink:href="#DejaVuSans-30" x="127.246094"/>
      </g>
     </g>
    </g>
    <g id="xtick_17">
     <g id="line2d_36">
      <g>
       <use xlink:href="#m80990b8655" x="1608.913324" y="1281.6" style="stroke: #000000; stroke-width: 0.8"/>
      </g>
     </g>
     <g id="text_34">
      <!-- 400 -->
      <g transform="translate(1599.369574 1296.198437) scale(0.1 -0.1)">
       <use xlink:href="#DejaVuSans-34"/>
       <use xlink:href="#DejaVuSans-30" x="63.623047"/>
       <use xlink:href="#DejaVuSans-30" x="127.246094"/>
      </g>
     </g>
    </g>
    <g id="xtick_18">
     <g id="line2d_37">
      <g>
       <use xlink:href="#m80990b8655" x="1676.525647" y="1281.6" style="stroke: #000000; stroke-width: 0.8"/>
      </g>
     </g>
     <g id="text_35">
      <!-- 600 -->
      <g transform="translate(1666.981897 1296.198437) scale(0.1 -0.1)">
       <use xlink:href="#DejaVuSans-36"/>
       <use xlink:href="#DejaVuSans-30" x="63.623047"/>
       <use xlink:href="#DejaVuSans-30" x="127.246094"/>
      </g>
     </g>
    </g>
    <g id="xtick_19">
     <g id="line2d_38">
      <g>
       <use xlink:href="#m80990b8655" x="1744.137971" y="1281.6" style="stroke: #000000; stroke-width: 0.8"/>
      </g>
     </g>
     <g id="text_36">
      <!-- 800 -->
      <g transform="translate(1734.594221 1296.198437) scale(0.1 -0.1)">
       <use xlink:href="#DejaVuSans-38"/>
       <use xlink:href="#DejaVuSans-30" x="63.623047"/>
       <use xlink:href="#DejaVuSans-30" x="127.246094"/>
      </g>
     </g>
    </g>
    <g id="xtick_20">
     <g id="line2d_39">
      <g>
       <use xlink:href="#m80990b8655" x="1811.750295" y="1281.6" style="stroke: #000000; stroke-width: 0.8"/>
      </g>
     </g>
     <g id="text_37">
      <!-- 1000 -->
      <g transform="translate(1799.025295 1296.198437) scale(0.1 -0.1)">
       <use xlink:href="#DejaVuSans-31"/>
       <use xlink:href="#DejaVuSans-30" x="63.623047"/>
       <use xlink:href="#DejaVuSans-30" x="127.246094"/>
       <use xlink:href="#DejaVuSans-30" x="190.869141"/>
      </g>
     </g>
    </g>
    <g id="xtick_21">
     <g id="line2d_40">
      <g>
       <use xlink:href="#m80990b8655" x="1879.362619" y="1281.6" style="stroke: #000000; stroke-width: 0.8"/>
      </g>
     </g>
     <g id="text_38">
      <!-- 1200 -->
      <g transform="translate(1866.637619 1296.198437) scale(0.1 -0.1)">
       <use xlink:href="#DejaVuSans-31"/>
       <use xlink:href="#DejaVuSans-32" x="63.623047"/>
       <use xlink:href="#DejaVuSans-30" x="127.246094"/>
       <use xlink:href="#DejaVuSans-30" x="190.869141"/>
      </g>
     </g>
    </g>
   </g>
   <g id="matplotlib.axis_6">
    <g id="ytick_16">
     <g id="line2d_41">
      <g>
       <use xlink:href="#mecdbc78711" x="1451.647059" y="1231.2" style="stroke: #000000; stroke-width: 0.8"/>
      </g>
     </g>
     <g id="text_39">
      <!-- 0 -->
      <g transform="translate(1438.284559 1234.999219) scale(0.1 -0.1)">
       <use xlink:href="#DejaVuSans-30"/>
      </g>
     </g>
    </g>
    <g id="ytick_17">
     <g id="line2d_42">
      <g>
       <use xlink:href="#mecdbc78711" x="1451.647059" y="985.042585" style="stroke: #000000; stroke-width: 0.8"/>
      </g>
     </g>
     <g id="text_40">
      <!-- 5 -->
      <g transform="translate(1438.284559 988.841804) scale(0.1 -0.1)">
       <use xlink:href="#DejaVuSans-35"/>
      </g>
     </g>
    </g>
    <g id="ytick_18">
     <g id="line2d_43">
      <g>
       <use xlink:href="#mecdbc78711" x="1451.647059" y="738.88517" style="stroke: #000000; stroke-width: 0.8"/>
      </g>
     </g>
     <g id="text_41">
      <!-- 10 -->
      <g transform="translate(1431.922059 742.684388) scale(0.1 -0.1)">
       <use xlink:href="#DejaVuSans-31"/>
       <use xlink:href="#DejaVuSans-30" x="63.623047"/>
      </g>
     </g>
    </g>
    <g id="ytick_19">
     <g id="line2d_44">
      <g>
       <use xlink:href="#mecdbc78711" x="1451.647059" y="492.727754" style="stroke: #000000; stroke-width: 0.8"/>
      </g>
     </g>
     <g id="text_42">
      <!-- 15 -->
      <g transform="translate(1431.922059 496.526973) scale(0.1 -0.1)">
       <use xlink:href="#DejaVuSans-31"/>
       <use xlink:href="#DejaVuSans-35" x="63.623047"/>
      </g>
     </g>
    </g>
    <g id="ytick_20">
     <g id="line2d_45">
      <g>
       <use xlink:href="#mecdbc78711" x="1451.647059" y="246.570339" style="stroke: #000000; stroke-width: 0.8"/>
      </g>
     </g>
     <g id="text_43">
      <!-- 20 -->
      <g transform="translate(1431.922059 250.369558) scale(0.1 -0.1)">
       <use xlink:href="#DejaVuSans-32"/>
       <use xlink:href="#DejaVuSans-30" x="63.623047"/>
      </g>
     </g>
    </g>
   </g>
   <g id="line2d_46">
    <path d="M 1474.026738 1231.2 
L 1488.225326 1231.2 
L 1488.563388 1211.999585 
L 1489.577572 1211.999585 
L 1489.915634 1196.657075 
L 1490.929819 1196.657075 
L 1491.267881 1183.606824 
L 1492.282065 1183.606824 
L 1492.620127 1164.265885 
L 1493.634312 1164.265885 
L 1493.972373 1157.762072 
L 1494.986558 1157.762072 
L 1495.32462 1132.441839 
L 1496.338805 1132.441839 
L 1496.676866 1139.798382 
L 1497.691051 1139.798382 
L 1498.029113 1125.388642 
L 1499.043298 1125.388642 
L 1499.381359 1111.180877 
L 1500.395544 1111.180877 
L 1500.733606 1101.543059 
L 1501.747791 1101.543059 
L 1502.085852 1085.220107 
L 1503.100037 1085.220107 
L 1503.438099 1069.897923 
L 1504.452284 1069.897923 
L 1504.790345 1060.403163 
L 1507.156777 1060.403163 
L 1507.494838 1056.223654 
L 1508.509023 1056.223654 
L 1508.847085 1047.071647 
L 1509.86127 1047.071647 
L 1510.199331 1041.974828 
L 1512.565762 1041.974828 
L 1512.903824 1038.169988 
L 1513.918009 1038.169988 
L 1514.256071 1029.834499 
L 1516.622502 1029.834499 
L 1516.960564 1026.342737 
L 1517.974748 1026.342737 
L 1518.31281 1011.622663 
L 1519.326995 1011.622663 
L 1519.665056 990.967547 
L 1520.679241 990.967547 
L 1521.017303 976.497335 
L 1522.031488 976.497335 
L 1522.369549 966.868589 
L 1523.383734 966.868589 
L 1523.721796 940.009365 
L 1524.735981 940.009365 
L 1525.074042 926.646302 
L 1526.088227 926.646302 
L 1526.426289 922.451252 
L 1527.440474 922.451252 
L 1527.778535 909.367624 
L 1528.79272 909.367624 
L 1529.130782 900.653867 
L 1530.144967 900.653867 
L 1530.483028 893.218221 
L 1531.497213 893.218221 
L 1531.835275 880.219756 
L 1532.84946 880.219756 
L 1533.187521 874.923048 
L 1534.201706 874.923048 
L 1534.539768 863.081278 
L 1536.906199 862.996458 
L 1537.244261 866.345555 
L 1538.258445 866.345555 
L 1538.596507 868.420237 
L 1539.610692 868.420237 
L 1539.948754 863.561449 
L 1540.962938 863.561449 
L 1541.301 865.600261 
L 1542.315185 865.600261 
L 1542.653247 862.745572 
L 1543.667431 862.745572 
L 1544.005493 865.951153 
L 1545.019678 865.951153 
L 1545.357739 862.945004 
L 1547.724171 862.945004 
L 1548.062232 859.881505 
L 1549.076417 859.881505 
L 1549.414479 850.838268 
L 1550.428664 850.838268 
L 1550.766725 842.995738 
L 1551.78091 842.995738 
L 1552.118972 847.780384 
L 1553.133157 847.780384 
L 1553.471218 849.696212 
L 1557.189896 849.696212 
L 1557.527958 840.772658 
L 1558.542143 840.772658 
L 1558.880204 823.984059 
L 1559.894389 823.984059 
L 1560.232451 815.8427 
L 1561.246636 815.8427 
L 1561.584697 810.091094 
L 1562.598882 810.091094 
L 1562.936944 806.320587 
L 1563.951128 806.320587 
L 1564.28919 797.316155 
L 1565.303375 797.316155 
L 1565.641437 791.274929 
L 1566.655621 791.274929 
L 1566.993683 786.586351 
L 1568.007868 786.586351 
L 1568.34593 776.988761 
L 1569.360114 776.988761 
L 1569.698176 771.305127 
L 1570.712361 771.305127 
L 1571.050422 763.463786 
L 1572.064607 763.463786 
L 1572.402669 761.31033 
L 1573.416854 761.31033 
L 1573.754915 752.46539 
L 1574.7691 752.46539 
L 1575.107162 745.136605 
L 1576.121347 745.136605 
L 1576.459408 737.937092 
L 1577.473593 737.937092 
L 1577.811655 731.024132 
L 1580.178086 731.024132 
L 1580.516148 726.218202 
L 1581.530333 726.218202 
L 1581.868394 722.045433 
L 1582.882579 722.045433 
L 1583.220641 724.001878 
L 1584.234826 724.001878 
L 1584.572887 720.306274 
L 1585.587072 720.306274 
L 1585.925134 713.884517 
L 1586.939319 713.884517 
L 1587.27738 709.276644 
L 1588.291565 709.276644 
L 1588.629627 704.63034 
L 1589.643811 704.63034 
L 1589.981873 698.480946 
L 1590.996058 698.480946 
L 1591.33412 685.383766 
L 1592.348304 685.383766 
L 1592.686366 683.918548 
L 1593.700551 683.918548 
L 1594.038613 681.869123 
L 1595.052797 681.869123 
L 1595.390859 673.825497 
L 1596.405044 673.825497 
L 1596.743105 668.072124 
L 1597.75729 668.072124 
L 1598.095352 664.106738 
L 1599.109537 664.106738 
L 1599.447598 656.982913 
L 1600.461783 656.982913 
L 1600.799845 648.865534 
L 1601.81403 648.865534 
L 1602.152091 644.548636 
L 1603.166276 644.548636 
L 1603.504338 643.756107 
L 1604.518523 643.756107 
L 1604.856584 641.456655 
L 1605.870769 641.456655 
L 1606.208831 638.367152 
L 1607.223016 638.367152 
L 1607.561077 633.844018 
L 1608.575262 633.844018 
L 1608.913324 632.366883 
L 1609.927509 632.366883 
L 1610.26557 625.992843 
L 1611.279755 625.992843 
L 1611.617817 623.812196 
L 1612.632002 623.812196 
L 1612.970063 620.50217 
L 1613.984248 620.50217 
L 1614.32231 617.209185 
L 1615.336494 617.209185 
L 1615.674556 613.571253 
L 1618.040987 613.571253 
L 1618.379049 611.412872 
L 1619.393234 611.412872 
L 1619.731296 610.333032 
L 1620.74548 610.333032 
L 1621.083542 605.687629 
L 1623.449973 605.687629 
L 1623.788035 606.757753 
L 1624.80222 606.757753 
L 1625.140281 607.11889 
L 1626.154466 607.11889 
L 1626.492528 605.05853 
L 1627.506713 605.05853 
L 1627.844774 598.429662 
L 1628.858959 598.429662 
L 1629.197021 595.761373 
L 1630.211206 595.761373 
L 1630.549267 596.377947 
L 1631.563452 596.377947 
L 1631.901514 589.88442 
L 1632.915699 589.88442 
L 1633.25376 584.58922 
L 1634.267945 584.58922 
L 1634.606007 583.729779 
L 1635.620192 583.729779 
L 1635.958253 581.253523 
L 1636.972438 581.253523 
L 1637.3105 577.735707 
L 1638.324685 577.735707 
L 1638.662746 577.193805 
L 1639.676931 577.193805 
L 1640.014993 573.491116 
L 1641.029178 573.491116 
L 1641.367239 570.600993 
L 1642.381424 570.600993 
L 1642.719486 565.858344 
L 1643.73367 565.858344 
L 1644.071732 563.051693 
L 1645.085917 563.051693 
L 1645.423979 559.306248 
L 1646.438163 559.306248 
L 1646.776225 555.867805 
L 1647.79041 555.867805 
L 1648.128471 553.169976 
L 1649.142656 553.169976 
L 1649.480718 552.713216 
L 1650.494903 552.713216 
L 1650.832964 549.368123 
L 1651.847149 549.368123 
L 1652.185211 544.732187 
L 1653.199396 544.732187 
L 1653.537457 540.681555 
L 1654.551642 540.681555 
L 1654.889704 535.096088 
L 1655.903889 535.096088 
L 1656.24195 530.0458 
L 1657.256135 530.0458 
L 1657.594197 518.14306 
L 1658.608382 518.14306 
L 1658.946443 509.740996 
L 1659.960628 509.740996 
L 1660.29869 503.525612 
L 1661.312875 503.525612 
L 1661.650936 499.632389 
L 1662.665121 499.632389 
L 1663.003183 494.097266 
L 1664.017368 494.097266 
L 1664.355429 490.124616 
L 1665.369614 490.124616 
L 1665.707676 480.901957 
L 1666.721861 480.901957 
L 1667.059922 475.8031 
L 1668.074107 475.8031 
L 1668.412169 470.651117 
L 1669.426353 470.651117 
L 1669.764415 466.5263 
L 1670.7786 466.5263 
L 1671.116662 461.486483 
L 1672.130846 461.486483 
L 1672.468908 456.70397 
L 1673.483093 456.70397 
L 1673.821154 451.409772 
L 1674.835339 451.409772 
L 1675.173401 445.928845 
L 1676.187586 445.928845 
L 1676.525647 444.202151 
L 1677.539832 444.202151 
L 1677.877894 441.018934 
L 1678.892079 441.018934 
L 1679.23014 439.881783 
L 1680.244325 439.881783 
L 1680.582387 438.513798 
L 1681.596572 438.513798 
L 1681.934633 436.258078 
L 1682.948818 436.258078 
L 1683.28688 432.683299 
L 1684.301065 432.683299 
L 1684.639126 431.343912 
L 1685.653311 431.343912 
L 1685.991373 429.135358 
L 1687.005558 429.135358 
L 1687.343619 427.165837 
L 1689.710051 427.165837 
L 1690.048112 426.949307 
L 1691.062297 426.949307 
L 1691.400359 425.416787 
L 1692.414544 425.416787 
L 1692.752605 424.755726 
L 1693.76679 424.755726 
L 1694.104852 423.244776 
L 1695.119036 423.244776 
L 1695.457098 422.172409 
L 1696.471283 422.172409 
L 1696.809345 419.731723 
L 1697.823529 419.731723 
L 1698.161591 415.674473 
L 1699.175776 415.674473 
L 1699.513838 414.815794 
L 1700.528022 414.815794 
L 1700.866084 410.529341 
L 1701.880269 410.529341 
L 1702.21833 407.798681 
L 1703.232515 407.798681 
L 1703.570577 406.101874 
L 1704.584762 406.101874 
L 1704.922823 403.225263 
L 1705.937008 403.225263 
L 1706.27507 399.191003 
L 1707.289255 399.191003 
L 1707.627316 396.040098 
L 1708.641501 396.040098 
L 1708.979563 391.259468 
L 1709.993748 391.259468 
L 1710.331809 389.298174 
L 1711.345994 389.298174 
L 1711.684056 387.193246 
L 1712.698241 387.193246 
L 1713.036302 382.431975 
L 1714.050487 382.431975 
L 1714.388549 381.474696 
L 1715.402734 381.474696 
L 1715.740795 380.382961 
L 1716.75498 380.382961 
L 1717.093042 377.661283 
L 1718.107227 377.661283 
L 1718.445288 375.368562 
L 1719.459473 375.368562 
L 1719.797535 371.967417 
L 1720.811719 371.967417 
L 1721.149781 368.399687 
L 1722.163966 368.399687 
L 1722.502028 366.827462 
L 1723.516212 366.827462 
L 1723.854274 364.194954 
L 1724.868459 364.194954 
L 1725.206521 362.830993 
L 1726.220705 362.830993 
L 1726.558767 363.327549 
L 1727.572952 363.327549 
L 1727.911013 359.446632 
L 1728.925198 359.446632 
L 1729.26326 359.277861 
L 1730.277445 359.277861 
L 1730.615506 357.379278 
L 1732.981938 357.379278 
L 1733.319999 355.208369 
L 1734.334184 355.208369 
L 1734.672246 353.437529 
L 1735.686431 353.437529 
L 1736.024492 351.194048 
L 1737.038677 351.194048 
L 1737.376739 350.422346 
L 1738.390924 350.422346 
L 1738.728985 347.448034 
L 1739.74317 347.448034 
L 1740.081232 345.302777 
L 1741.095417 345.302777 
L 1741.433478 343.083585 
L 1742.447663 343.083585 
L 1742.785725 338.223209 
L 1743.79991 338.223209 
L 1744.137971 334.870263 
L 1746.504402 334.867563 
L 1746.842464 333.903438 
L 1747.856649 333.903438 
L 1748.194711 335.368169 
L 1749.208895 335.368169 
L 1749.546957 332.375087 
L 1750.561142 332.375087 
L 1750.899204 334.351789 
L 1751.913388 334.351789 
L 1752.25145 331.984828 
L 1753.265635 331.984828 
L 1753.603696 331.856797 
L 1754.617881 331.856797 
L 1754.955943 332.498012 
L 1757.322374 332.436565 
L 1757.660436 332.964555 
L 1758.674621 332.964555 
L 1759.012682 330.034035 
L 1760.026867 330.034035 
L 1760.364929 328.142573 
L 1761.379114 328.142573 
L 1761.717175 327.389439 
L 1762.73136 327.389439 
L 1763.069422 326.183987 
L 1764.083607 326.183987 
L 1764.421668 325.063961 
L 1765.435853 325.063961 
L 1765.773915 322.194846 
L 1768.140346 322.194846 
L 1768.478408 321.067364 
L 1769.492593 321.067364 
L 1769.830654 319.279437 
L 1770.844839 319.279437 
L 1771.182901 318.5477 
L 1772.197085 318.5477 
L 1772.535147 317.754964 
L 1773.549332 317.754964 
L 1773.887394 315.99843 
L 1774.901578 315.99843 
L 1775.23964 314.929855 
L 1776.253825 314.929855 
L 1776.591887 314.188061 
L 1777.606071 314.188061 
L 1777.944133 313.467797 
L 1780.310564 313.417398 
L 1780.648626 312.017006 
L 1783.015057 311.967526 
L 1783.353119 310.201943 
L 1784.367304 310.201943 
L 1784.705365 309.152411 
L 1785.71955 309.152411 
L 1786.057612 308.089587 
L 1787.071797 308.089587 
L 1787.409858 307.665954 
L 1788.424043 307.665954 
L 1788.762105 306.274657 
L 1789.77629 306.274657 
L 1790.114351 305.238858 
L 1791.128536 305.238858 
L 1791.466598 305.933983 
L 1792.480783 305.933983 
L 1792.818844 304.947739 
L 1793.833029 304.947739 
L 1794.171091 302.868912 
L 1795.185276 302.868912 
L 1795.523337 301.880208 
L 1796.537522 301.880208 
L 1796.875584 302.567272 
L 1797.889768 302.567272 
L 1798.22783 300.890194 
L 1799.242015 300.890194 
L 1799.580077 300.194376 
L 1801.946508 300.180802 
L 1802.28457 299.491515 
L 1804.651001 299.477401 
L 1804.989062 297.482479 
L 1807.355494 297.472451 
L 1807.693555 296.152648 
L 1808.70774 296.152648 
L 1809.045802 295.486162 
L 1810.059987 295.486162 
L 1810.398048 294.821946 
L 1811.412233 294.821946 
L 1811.750295 294.15828 
L 1812.76448 294.15828 
L 1813.102541 291.853383 
L 1815.468973 291.853383 
L 1815.807034 290.866321 
L 1816.821219 290.866321 
L 1817.159281 290.211605 
L 1819.525712 290.209507 
L 1819.863774 288.578301 
L 1820.877959 288.578301 
L 1821.21602 287.927543 
L 1822.230205 287.927543 
L 1822.568267 287.278174 
L 1823.582451 287.278174 
L 1823.920513 285.982091 
L 1824.934698 285.982091 
L 1825.27276 284.036515 
L 1826.286944 284.036515 
L 1826.625006 283.074607 
L 1827.639191 283.074607 
L 1827.977253 281.778977 
L 1828.991437 281.778977 
L 1829.329499 280.181045 
L 1830.343684 280.181045 
L 1830.681745 278.597939 
L 1831.69593 278.597939 
L 1832.033992 278.271336 
L 1833.048177 278.271336 
L 1833.386238 278.938719 
L 1834.400423 278.938719 
L 1834.738485 277.328415 
L 1837.104916 277.359697 
L 1837.442978 275.758473 
L 1838.457163 275.758473 
L 1838.795224 274.844611 
L 1841.161656 274.844611 
L 1841.499717 272.615081 
L 1842.513902 272.615081 
L 1842.851964 271.655246 
L 1843.866149 271.655246 
L 1844.20421 270.077221 
L 1845.218395 270.077221 
L 1845.556457 269.121335 
L 1846.570642 269.121335 
L 1846.908703 268.179881 
L 1847.922888 268.179881 
L 1848.26095 265.363765 
L 1849.275134 265.363765 
L 1849.613196 263.787677 
L 1850.627381 263.787677 
L 1850.965443 262.838809 
L 1851.979627 262.838809 
L 1852.317689 261.906217 
L 1853.331874 261.906217 
L 1853.669936 261.269991 
L 1854.68412 261.269991 
L 1855.022182 260.618147 
L 1856.036367 260.618147 
L 1856.374428 259.057871 
L 1858.74086 259.04096 
L 1859.078921 258.116783 
L 1862.797599 258.099639 
L 1863.135661 257.157688 
L 1864.149846 257.157688 
L 1864.487907 256.234202 
L 1865.502092 256.234202 
L 1865.840154 254.353563 
L 1866.854339 254.353563 
L 1867.1924 253.722404 
L 1868.206585 253.722404 
L 1868.544647 251.239475 
L 1869.558832 251.239475 
L 1869.896893 250.022651 
L 1870.911078 250.022651 
L 1871.24914 248.184282 
L 1872.263325 248.184282 
L 1872.601386 246.654248 
L 1874.967818 246.654248 
L 1875.305879 246.029827 
L 1876.320064 246.029827 
L 1876.658126 245.126869 
L 1877.67231 245.126869 
L 1878.010372 244.52603 
L 1879.024557 244.52603 
L 1879.362619 242.703967 
L 1881.72905 242.703967 
L 1882.067111 242.299867 
L 1883.081296 242.299867 
L 1883.419358 240.777889 
L 1884.433543 240.777889 
L 1884.771604 241.375637 
L 1885.785789 241.375637 
L 1886.123851 240.454011 
L 1888.490282 240.558801 
L 1888.828344 239.663482 
L 1889.842529 239.663482 
L 1890.18059 239.176736 
L 1892.547022 239.176736 
L 1892.885083 239.77149 
L 1896.603761 239.743699 
L 1896.941823 239.122197 
L 1899.308254 239.122197 
L 1899.646316 238.501735 
L 1900.660501 238.501735 
L 1900.998562 237.612729 
L 1902.012747 237.612729 
L 1902.350809 236.993084 
L 1903.364993 236.993084 
L 1903.703055 235.45964 
L 1904.71724 235.45964 
L 1905.055302 233.664404 
L 1906.069486 233.664404 
L 1906.407548 232.782793 
L 1907.421733 232.782793 
L 1907.759794 231.901815 
L 1908.773979 231.901815 
L 1909.112041 230.232535 
L 1910.126226 230.232535 
L 1910.464287 230.033025 
L 1911.478472 230.033025 
L 1911.816534 227.786157 
L 1912.830719 227.786157 
L 1913.16878 226.164669 
L 1914.182965 226.164669 
L 1914.521027 225.717827 
L 1915.535212 225.717827 
L 1915.873273 226.300925 
L 1916.887458 226.300925 
L 1917.22552 224.692513 
L 1918.239705 224.692513 
L 1918.577766 223.782187 
L 1919.591951 223.782187 
L 1919.930013 223.2 
L 1920.944198 223.2 
L 1921.282259 223.344529 
L 1921.620321 223.344529 
L 1921.620321 223.344529 
" clip-path="url(#p80593ab8b1)" style="fill: none; stroke: #0000ff; stroke-width: 1.5; stroke-linecap: square"/>
   </g>
   <g id="patch_15">
    <path d="M 1451.647059 1281.6 
L 1451.647059 172.8 
" style="fill: none; stroke: #000000; stroke-width: 0.8; stroke-linejoin: miter; stroke-linecap: square"/>
   </g>
   <g id="patch_16">
    <path d="M 1944 1281.6 
L 1944 172.8 
" style="fill: none; stroke: #000000; stroke-width: 0.8; stroke-linejoin: miter; stroke-linecap: square"/>
   </g>
   <g id="patch_17">
    <path d="M 1451.647059 1281.6 
L 1944 1281.6 
" style="fill: none; stroke: #000000; stroke-width: 0.8; stroke-linejoin: miter; stroke-linecap: square"/>
   </g>
   <g id="patch_18">
    <path d="M 1451.647059 172.8 
L 1944 172.8 
" style="fill: none; stroke: #000000; stroke-width: 0.8; stroke-linejoin: miter; stroke-linecap: square"/>
   </g>
   <g id="legend_3">
    <g id="patch_19">
     <path d="M 1852.957813 195.478125 
L 1937 195.478125 
Q 1939 195.478125 1939 193.478125 
L 1939 179.8 
Q 1939 177.8 1937 177.8 
L 1852.957813 177.8 
Q 1850.957813 177.8 1850.957813 179.8 
L 1850.957813 193.478125 
Q 1850.957813 195.478125 1852.957813 195.478125 
z
" style="fill: #ffffff; opacity: 0.8; stroke: #cccccc; stroke-linejoin: miter"/>
    </g>
    <g id="line2d_47">
     <path d="M 1854.957813 185.898437 
L 1864.957813 185.898437 
L 1874.957813 185.898437 
" style="fill: none; stroke: #0000ff; stroke-width: 1.5; stroke-linecap: square"/>
    </g>
    <g id="text_44">
     <!-- O3 reward -->
     <g transform="translate(1882.957813 189.398437) scale(0.1 -0.1)">
      <defs>
       <path id="DejaVuSans-33" d="M 2597 2516 
Q 3050 2419 3304 2112 
Q 3559 1806 3559 1356 
Q 3559 666 3084 287 
Q 2609 -91 1734 -91 
Q 1441 -91 1130 -33 
Q 819 25 488 141 
L 488 750 
Q 750 597 1062 519 
Q 1375 441 1716 441 
Q 2309 441 2620 675 
Q 2931 909 2931 1356 
Q 2931 1769 2642 2001 
Q 2353 2234 1838 2234 
L 1294 2234 
L 1294 2753 
L 1863 2753 
Q 2328 2753 2575 2939 
Q 2822 3125 2822 3475 
Q 2822 3834 2567 4026 
Q 2313 4219 1838 4219 
Q 1578 4219 1281 4162 
Q 984 4106 628 3988 
L 628 4550 
Q 988 4650 1302 4700 
Q 1616 4750 1894 4750 
Q 2613 4750 3031 4423 
Q 3450 4097 3450 3541 
Q 3450 3153 3228 2886 
Q 3006 2619 2597 2516 
z
" transform="scale(0.015625)"/>
      </defs>
      <use xlink:href="#DejaVuSans-4f"/>
      <use xlink:href="#DejaVuSans-33" x="78.710938"/>
      <use xlink:href="#DejaVuSans-20" x="142.333984"/>
      <use xlink:href="#DejaVuSans-72" x="174.121094"/>
      <use xlink:href="#DejaVuSans-65" x="212.984375"/>
      <use xlink:href="#DejaVuSans-77" x="274.507812"/>
      <use xlink:href="#DejaVuSans-61" x="356.294922"/>
      <use xlink:href="#DejaVuSans-72" x="417.574219"/>
      <use xlink:href="#DejaVuSans-64" x="456.9375"/>
     </g>
    </g>
   </g>
  </g>
 </g>
 <defs>
  <clipPath id="pb51d4dfcdb">
   <rect x="270" y="172.8" width="492.352941" height="1108.8"/>
  </clipPath>
  <clipPath id="pd6bedac7bf">
   <rect x="860.823529" y="172.8" width="492.352941" height="1108.8"/>
  </clipPath>
  <clipPath id="p80593ab8b1">
   <rect x="1451.647059" y="172.8" width="492.352941" height="1108.8"/>
  </clipPath>
 </defs>
</svg>
