<?xml version="1.0" encoding="utf-8" standalone="no"?>
<!DOCTYPE svg PUBLIC "-//W3C//DTD SVG 1.1//EN"
  "http://www.w3.org/Graphics/SVG/1.1/DTD/svg11.dtd">
<svg xmlns:xlink="http://www.w3.org/1999/xlink" width="2160pt" height="1440pt" viewBox="0 0 2160 1440" xmlns="http://www.w3.org/2000/svg" version="1.1">
 <metadata>
  <rdf:RDF xmlns:dc="http://purl.org/dc/elements/1.1/" xmlns:cc="http://creativecommons.org/ns#" xmlns:rdf="http://www.w3.org/1999/02/22-rdf-syntax-ns#">
   <cc:Work>
    <dc:type rdf:resource="http://purl.org/dc/dcmitype/StillImage"/>
    <dc:date>2023-05-31T19:42:15.371043</dc:date>
    <dc:format>image/svg+xml</dc:format>
    <dc:creator>
     <cc:Agent>
      <dc:title>Matplotlib v3.7.1, https://matplotlib.org/</dc:title>
     </cc:Agent>
    </dc:creator>
   </cc:Work>
  </rdf:RDF>
 </metadata>
 <defs>
  <style type="text/css">*{stroke-linejoin: round; stroke-linecap: butt}</style>
 </defs>
 <g id="figure_1">
  <g id="patch_1">
   <path d="M 0 1440 
L 2160 1440 
L 2160 0 
L 0 0 
z
" style="fill: #ffffff"/>
  </g>
  <g id="axes_1">
   <g id="patch_2">
    <path d="M 270 1281.6 
L 762.352941 1281.6 
L 762.352941 172.8 
L 270 172.8 
z
" style="fill: #ffffff"/>
   </g>
   <g id="matplotlib.axis_1">
    <g id="xtick_1">
     <g id="line2d_1">
      <defs>
       <path id="mb710f92be5" d="M 0 0 
L 0 3.5 
" style="stroke: #000000; stroke-width: 0.8"/>
      </defs>
      <g>
       <use xlink:href="#mb710f92be5" x="292.02557" y="1281.6" style="stroke: #000000; stroke-width: 0.8"/>
      </g>
     </g>
     <g id="text_1">
      <!-- 0 -->
      <g transform="translate(288.84432 1296.198437) scale(0.1 -0.1)">
       <defs>
        <path id="DejaVuSans-30" d="M 2034 4250 
Q 1547 4250 1301 3770 
Q 1056 3291 1056 2328 
Q 1056 1369 1301 889 
Q 1547 409 2034 409 
Q 2525 409 2770 889 
Q 3016 1369 3016 2328 
Q 3016 3291 2770 3770 
Q 2525 4250 2034 4250 
z
M 2034 4750 
Q 2819 4750 3233 4129 
Q 3647 3509 3647 2328 
Q 3647 1150 3233 529 
Q 2819 -91 2034 -91 
Q 1250 -91 836 529 
Q 422 1150 422 2328 
Q 422 3509 836 4129 
Q 1250 4750 2034 4750 
z
" transform="scale(0.015625)"/>
       </defs>
       <use xlink:href="#DejaVuSans-30"/>
      </g>
     </g>
    </g>
    <g id="xtick_2">
     <g id="line2d_2">
      <g>
       <use xlink:href="#mb710f92be5" x="362.84734" y="1281.6" style="stroke: #000000; stroke-width: 0.8"/>
      </g>
     </g>
     <g id="text_2">
      <!-- 200 -->
      <g transform="translate(353.30359 1296.198437) scale(0.1 -0.1)">
       <defs>
        <path id="DejaVuSans-32" d="M 1228 531 
L 3431 531 
L 3431 0 
L 469 0 
L 469 531 
Q 828 903 1448 1529 
Q 2069 2156 2228 2338 
Q 2531 2678 2651 2914 
Q 2772 3150 2772 3378 
Q 2772 3750 2511 3984 
Q 2250 4219 1831 4219 
Q 1534 4219 1204 4116 
Q 875 4013 500 3803 
L 500 4441 
Q 881 4594 1212 4672 
Q 1544 4750 1819 4750 
Q 2544 4750 2975 4387 
Q 3406 4025 3406 3419 
Q 3406 3131 3298 2873 
Q 3191 2616 2906 2266 
Q 2828 2175 2409 1742 
Q 1991 1309 1228 531 
z
" transform="scale(0.015625)"/>
       </defs>
       <use xlink:href="#DejaVuSans-32"/>
       <use xlink:href="#DejaVuSans-30" x="63.623047"/>
       <use xlink:href="#DejaVuSans-30" x="127.246094"/>
      </g>
     </g>
    </g>
    <g id="xtick_3">
     <g id="line2d_3">
      <g>
       <use xlink:href="#mb710f92be5" x="433.669109" y="1281.6" style="stroke: #000000; stroke-width: 0.8"/>
      </g>
     </g>
     <g id="text_3">
      <!-- 400 -->
      <g transform="translate(424.125359 1296.198437) scale(0.1 -0.1)">
       <defs>
        <path id="DejaVuSans-34" d="M 2419 4116 
L 825 1625 
L 2419 1625 
L 2419 4116 
z
M 2253 4666 
L 3047 4666 
L 3047 1625 
L 3713 1625 
L 3713 1100 
L 3047 1100 
L 3047 0 
L 2419 0 
L 2419 1100 
L 313 1100 
L 313 1709 
L 2253 4666 
z
" transform="scale(0.015625)"/>
       </defs>
       <use xlink:href="#DejaVuSans-34"/>
       <use xlink:href="#DejaVuSans-30" x="63.623047"/>
       <use xlink:href="#DejaVuSans-30" x="127.246094"/>
      </g>
     </g>
    </g>
    <g id="xtick_4">
     <g id="line2d_4">
      <g>
       <use xlink:href="#mb710f92be5" x="504.490879" y="1281.6" style="stroke: #000000; stroke-width: 0.8"/>
      </g>
     </g>
     <g id="text_4">
      <!-- 600 -->
      <g transform="translate(494.947129 1296.198437) scale(0.1 -0.1)">
       <defs>
        <path id="DejaVuSans-36" d="M 2113 2584 
Q 1688 2584 1439 2293 
Q 1191 2003 1191 1497 
Q 1191 994 1439 701 
Q 1688 409 2113 409 
Q 2538 409 2786 701 
Q 3034 994 3034 1497 
Q 3034 2003 2786 2293 
Q 2538 2584 2113 2584 
z
M 3366 4563 
L 3366 3988 
Q 3128 4100 2886 4159 
Q 2644 4219 2406 4219 
Q 1781 4219 1451 3797 
Q 1122 3375 1075 2522 
Q 1259 2794 1537 2939 
Q 1816 3084 2150 3084 
Q 2853 3084 3261 2657 
Q 3669 2231 3669 1497 
Q 3669 778 3244 343 
Q 2819 -91 2113 -91 
Q 1303 -91 875 529 
Q 447 1150 447 2328 
Q 447 3434 972 4092 
Q 1497 4750 2381 4750 
Q 2619 4750 2861 4703 
Q 3103 4656 3366 4563 
z
" transform="scale(0.015625)"/>
       </defs>
       <use xlink:href="#DejaVuSans-36"/>
       <use xlink:href="#DejaVuSans-30" x="63.623047"/>
       <use xlink:href="#DejaVuSans-30" x="127.246094"/>
      </g>
     </g>
    </g>
    <g id="xtick_5">
     <g id="line2d_5">
      <g>
       <use xlink:href="#mb710f92be5" x="575.312648" y="1281.6" style="stroke: #000000; stroke-width: 0.8"/>
      </g>
     </g>
     <g id="text_5">
      <!-- 800 -->
      <g transform="translate(565.768898 1296.198437) scale(0.1 -0.1)">
       <defs>
        <path id="DejaVuSans-38" d="M 2034 2216 
Q 1584 2216 1326 1975 
Q 1069 1734 1069 1313 
Q 1069 891 1326 650 
Q 1584 409 2034 409 
Q 2484 409 2743 651 
Q 3003 894 3003 1313 
Q 3003 1734 2745 1975 
Q 2488 2216 2034 2216 
z
M 1403 2484 
Q 997 2584 770 2862 
Q 544 3141 544 3541 
Q 544 4100 942 4425 
Q 1341 4750 2034 4750 
Q 2731 4750 3128 4425 
Q 3525 4100 3525 3541 
Q 3525 3141 3298 2862 
Q 3072 2584 2669 2484 
Q 3125 2378 3379 2068 
Q 3634 1759 3634 1313 
Q 3634 634 3220 271 
Q 2806 -91 2034 -91 
Q 1263 -91 848 271 
Q 434 634 434 1313 
Q 434 1759 690 2068 
Q 947 2378 1403 2484 
z
M 1172 3481 
Q 1172 3119 1398 2916 
Q 1625 2713 2034 2713 
Q 2441 2713 2670 2916 
Q 2900 3119 2900 3481 
Q 2900 3844 2670 4047 
Q 2441 4250 2034 4250 
Q 1625 4250 1398 4047 
Q 1172 3844 1172 3481 
z
" transform="scale(0.015625)"/>
       </defs>
       <use xlink:href="#DejaVuSans-38"/>
       <use xlink:href="#DejaVuSans-30" x="63.623047"/>
       <use xlink:href="#DejaVuSans-30" x="127.246094"/>
      </g>
     </g>
    </g>
    <g id="xtick_6">
     <g id="line2d_6">
      <g>
       <use xlink:href="#mb710f92be5" x="646.134418" y="1281.6" style="stroke: #000000; stroke-width: 0.8"/>
      </g>
     </g>
     <g id="text_6">
      <!-- 1000 -->
      <g transform="translate(633.409418 1296.198437) scale(0.1 -0.1)">
       <defs>
        <path id="DejaVuSans-31" d="M 794 531 
L 1825 531 
L 1825 4091 
L 703 3866 
L 703 4441 
L 1819 4666 
L 2450 4666 
L 2450 531 
L 3481 531 
L 3481 0 
L 794 0 
L 794 531 
z
" transform="scale(0.015625)"/>
       </defs>
       <use xlink:href="#DejaVuSans-31"/>
       <use xlink:href="#DejaVuSans-30" x="63.623047"/>
       <use xlink:href="#DejaVuSans-30" x="127.246094"/>
       <use xlink:href="#DejaVuSans-30" x="190.869141"/>
      </g>
     </g>
    </g>
    <g id="xtick_7">
     <g id="line2d_7">
      <g>
       <use xlink:href="#mb710f92be5" x="716.956187" y="1281.6" style="stroke: #000000; stroke-width: 0.8"/>
      </g>
     </g>
     <g id="text_7">
      <!-- 1200 -->
      <g transform="translate(704.231187 1296.198437) scale(0.1 -0.1)">
       <use xlink:href="#DejaVuSans-31"/>
       <use xlink:href="#DejaVuSans-32" x="63.623047"/>
       <use xlink:href="#DejaVuSans-30" x="127.246094"/>
       <use xlink:href="#DejaVuSans-30" x="190.869141"/>
      </g>
     </g>
    </g>
   </g>
   <g id="matplotlib.axis_2">
    <g id="ytick_1">
     <g id="line2d_8">
      <defs>
       <path id="m3c4c4b9173" d="M 0 0 
L -3.5 0 
" style="stroke: #000000; stroke-width: 0.8"/>
      </defs>
      <g>
       <use xlink:href="#m3c4c4b9173" x="270" y="1186.524261" style="stroke: #000000; stroke-width: 0.8"/>
      </g>
     </g>
     <g id="text_8">
      <!-- −17.5 -->
      <g transform="translate(232.354688 1190.32348) scale(0.1 -0.1)">
       <defs>
        <path id="DejaVuSans-2212" d="M 678 2272 
L 4684 2272 
L 4684 1741 
L 678 1741 
L 678 2272 
z
" transform="scale(0.015625)"/>
        <path id="DejaVuSans-37" d="M 525 4666 
L 3525 4666 
L 3525 4397 
L 1831 0 
L 1172 0 
L 2766 4134 
L 525 4134 
L 525 4666 
z
" transform="scale(0.015625)"/>
        <path id="DejaVuSans-2e" d="M 684 794 
L 1344 794 
L 1344 0 
L 684 0 
L 684 794 
z
" transform="scale(0.015625)"/>
        <path id="DejaVuSans-35" d="M 691 4666 
L 3169 4666 
L 3169 4134 
L 1269 4134 
L 1269 2991 
Q 1406 3038 1543 3061 
Q 1681 3084 1819 3084 
Q 2600 3084 3056 2656 
Q 3513 2228 3513 1497 
Q 3513 744 3044 326 
Q 2575 -91 1722 -91 
Q 1428 -91 1123 -41 
Q 819 9 494 109 
L 494 744 
Q 775 591 1075 516 
Q 1375 441 1709 441 
Q 2250 441 2565 725 
Q 2881 1009 2881 1497 
Q 2881 1984 2565 2268 
Q 2250 2553 1709 2553 
Q 1456 2553 1204 2497 
Q 953 2441 691 2322 
L 691 4666 
z
" transform="scale(0.015625)"/>
       </defs>
       <use xlink:href="#DejaVuSans-2212"/>
       <use xlink:href="#DejaVuSans-31" x="83.789062"/>
       <use xlink:href="#DejaVuSans-37" x="147.412109"/>
       <use xlink:href="#DejaVuSans-2e" x="211.035156"/>
       <use xlink:href="#DejaVuSans-35" x="242.822266"/>
      </g>
     </g>
    </g>
    <g id="ytick_2">
     <g id="line2d_9">
      <g>
       <use xlink:href="#m3c4c4b9173" x="270" y="1050.461512" style="stroke: #000000; stroke-width: 0.8"/>
      </g>
     </g>
     <g id="text_9">
      <!-- −15.0 -->
      <g transform="translate(232.354688 1054.260731) scale(0.1 -0.1)">
       <use xlink:href="#DejaVuSans-2212"/>
       <use xlink:href="#DejaVuSans-31" x="83.789062"/>
       <use xlink:href="#DejaVuSans-35" x="147.412109"/>
       <use xlink:href="#DejaVuSans-2e" x="211.035156"/>
       <use xlink:href="#DejaVuSans-30" x="242.822266"/>
      </g>
     </g>
    </g>
    <g id="ytick_3">
     <g id="line2d_10">
      <g>
       <use xlink:href="#m3c4c4b9173" x="270" y="914.398763" style="stroke: #000000; stroke-width: 0.8"/>
      </g>
     </g>
     <g id="text_10">
      <!-- −12.5 -->
      <g transform="translate(232.354688 918.197982) scale(0.1 -0.1)">
       <use xlink:href="#DejaVuSans-2212"/>
       <use xlink:href="#DejaVuSans-31" x="83.789062"/>
       <use xlink:href="#DejaVuSans-32" x="147.412109"/>
       <use xlink:href="#DejaVuSans-2e" x="211.035156"/>
       <use xlink:href="#DejaVuSans-35" x="242.822266"/>
      </g>
     </g>
    </g>
    <g id="ytick_4">
     <g id="line2d_11">
      <g>
       <use xlink:href="#m3c4c4b9173" x="270" y="778.336015" style="stroke: #000000; stroke-width: 0.8"/>
      </g>
     </g>
     <g id="text_11">
      <!-- −10.0 -->
      <g transform="translate(232.354688 782.135233) scale(0.1 -0.1)">
       <use xlink:href="#DejaVuSans-2212"/>
       <use xlink:href="#DejaVuSans-31" x="83.789062"/>
       <use xlink:href="#DejaVuSans-30" x="147.412109"/>
       <use xlink:href="#DejaVuSans-2e" x="211.035156"/>
       <use xlink:href="#DejaVuSans-30" x="242.822266"/>
      </g>
     </g>
    </g>
    <g id="ytick_5">
     <g id="line2d_12">
      <g>
       <use xlink:href="#m3c4c4b9173" x="270" y="642.273266" style="stroke: #000000; stroke-width: 0.8"/>
      </g>
     </g>
     <g id="text_12">
      <!-- −7.5 -->
      <g transform="translate(238.717187 646.072485) scale(0.1 -0.1)">
       <use xlink:href="#DejaVuSans-2212"/>
       <use xlink:href="#DejaVuSans-37" x="83.789062"/>
       <use xlink:href="#DejaVuSans-2e" x="147.412109"/>
       <use xlink:href="#DejaVuSans-35" x="179.199219"/>
      </g>
     </g>
    </g>
    <g id="ytick_6">
     <g id="line2d_13">
      <g>
       <use xlink:href="#m3c4c4b9173" x="270" y="506.210517" style="stroke: #000000; stroke-width: 0.8"/>
      </g>
     </g>
     <g id="text_13">
      <!-- −5.0 -->
      <g transform="translate(238.717187 510.009736) scale(0.1 -0.1)">
       <use xlink:href="#DejaVuSans-2212"/>
       <use xlink:href="#DejaVuSans-35" x="83.789062"/>
       <use xlink:href="#DejaVuSans-2e" x="147.412109"/>
       <use xlink:href="#DejaVuSans-30" x="179.199219"/>
      </g>
     </g>
    </g>
    <g id="ytick_7">
     <g id="line2d_14">
      <g>
       <use xlink:href="#m3c4c4b9173" x="270" y="370.147769" style="stroke: #000000; stroke-width: 0.8"/>
      </g>
     </g>
     <g id="text_14">
      <!-- −2.5 -->
      <g transform="translate(238.717187 373.946987) scale(0.1 -0.1)">
       <use xlink:href="#DejaVuSans-2212"/>
       <use xlink:href="#DejaVuSans-32" x="83.789062"/>
       <use xlink:href="#DejaVuSans-2e" x="147.412109"/>
       <use xlink:href="#DejaVuSans-35" x="179.199219"/>
      </g>
     </g>
    </g>
    <g id="ytick_8">
     <g id="line2d_15">
      <g>
       <use xlink:href="#m3c4c4b9173" x="270" y="234.08502" style="stroke: #000000; stroke-width: 0.8"/>
      </g>
     </g>
     <g id="text_15">
      <!-- 0.0 -->
      <g transform="translate(247.096875 237.884239) scale(0.1 -0.1)">
       <use xlink:href="#DejaVuSans-30"/>
       <use xlink:href="#DejaVuSans-2e" x="63.623047"/>
       <use xlink:href="#DejaVuSans-30" x="95.410156"/>
      </g>
     </g>
    </g>
   </g>
   <g id="line2d_16">
    <path d="M 292.379679 234.08502 
L 310.085122 234.08502 
L 310.43923 223.2 
L 311.501557 223.2 
L 311.855666 230.45668 
L 312.917992 230.45668 
L 313.272101 242.793036 
L 314.334428 242.793036 
L 314.688537 244.188551 
L 315.750863 244.188551 
L 316.104972 258.024089 
L 317.167298 258.024089 
L 317.521407 264.037727 
L 318.583734 264.037727 
L 318.937843 270.473711 
L 320.000169 270.473711 
L 320.354278 276.125905 
L 321.416605 276.125905 
L 321.770713 283.457269 
L 322.83304 283.457269 
L 323.187149 289.036089 
L 325.665911 289.036089 
L 326.02002 284.417613 
L 328.498782 284.417613 
L 328.85289 290.983881 
L 329.915217 290.983881 
L 330.269326 285.435551 
L 331.331652 285.435551 
L 331.685761 280.959638 
L 334.164523 280.959638 
L 334.518632 282.083667 
L 335.580959 282.083667 
L 335.935067 276.55982 
L 338.413829 276.55982 
L 338.767938 271.058097 
L 339.830265 271.058097 
L 340.184374 265.577445 
L 341.2467 265.577445 
L 341.600809 270.654948 
L 342.663135 270.654948 
L 343.017244 262.408721 
L 345.496006 262.408721 
L 345.850115 254.76642 
L 346.912442 254.76642 
L 347.26655 259.574633 
L 348.328877 259.574633 
L 348.682986 254.76642 
L 349.745312 254.76642 
L 350.099421 262.11138 
L 352.578183 262.11138 
L 352.932292 267.295809 
L 353.994619 267.295809 
L 354.348727 276.326779 
L 355.411054 276.326779 
L 355.765163 274.969502 
L 356.827489 274.969502 
L 357.181598 278.387042 
L 358.243925 278.387042 
L 358.598034 277.082445 
L 359.66036 277.082445 
L 360.014469 275.806949 
L 361.076796 275.806949 
L 361.430904 278.043834 
L 362.493231 278.043834 
L 362.84734 290.851372 
L 363.909666 290.851372 
L 364.263775 286.286516 
L 365.326102 286.286516 
L 365.680211 289.829111 
L 366.742537 289.829111 
L 367.096646 302.471351 
L 368.158972 302.471351 
L 368.513081 306.789208 
L 369.575408 306.789208 
L 369.929517 310.597746 
L 373.824714 310.597746 
L 374.178823 314.82012 
L 375.241149 314.82012 
L 375.595258 322.851032 
L 376.657585 322.851032 
L 377.011694 318.635374 
L 378.07402 318.635374 
L 378.428129 326.680086 
L 379.490456 326.680086 
L 379.844564 334.650808 
L 380.906891 334.650808 
L 381.261 338.498627 
L 382.323326 338.498627 
L 382.677435 350.665536 
L 383.739762 350.665536 
L 384.093871 358.841155 
L 385.156197 358.841155 
L 385.510306 371.153127 
L 386.572633 371.153127 
L 386.926741 383.258551 
L 387.989068 383.258551 
L 388.343177 391.390916 
L 389.405503 391.390916 
L 389.759612 395.549949 
L 390.821939 395.549949 
L 391.176048 403.682314 
L 392.238374 403.682314 
L 392.592483 399.764802 
L 393.654809 399.764802 
L 394.008918 392.025765 
L 395.071245 392.025765 
L 395.425354 384.376097 
L 396.48768 384.376097 
L 396.841789 380.551263 
L 397.904116 380.551263 
L 398.258224 388.726988 
L 400.736986 388.763564 
L 401.091095 389.464257 
L 402.153422 389.464257 
L 402.507531 402.199407 
L 404.986293 402.194977 
L 405.340401 394.858098 
L 406.402728 394.858098 
L 406.756837 391.1939 
L 407.819163 391.1939 
L 408.173272 383.877607 
L 409.235599 383.877607 
L 409.589708 392.23728 
L 410.652034 392.23728 
L 411.006143 395.893437 
L 413.484905 395.893437 
L 413.839014 399.549594 
L 414.90134 399.549594 
L 415.255449 395.897176 
L 416.317776 395.897176 
L 416.671885 393.379462 
L 417.734211 393.379462 
L 418.08832 386.153204 
L 419.150646 386.153204 
L 419.504755 387.367543 
L 420.567082 387.367543 
L 420.921191 393.527434 
L 421.983517 393.527434 
L 422.337626 394.883318 
L 423.399953 394.883318 
L 423.754061 391.298544 
L 426.232823 391.298544 
L 426.586932 399.80377 
L 427.649259 399.80377 
L 428.003368 396.268943 
L 429.065694 396.268943 
L 429.419803 392.736933 
L 430.48213 392.736933 
L 430.836238 394.212282 
L 431.898565 394.212282 
L 432.252674 395.717713 
L 433.315 395.717713 
L 433.669109 400.76332 
L 434.731436 400.76332 
L 435.085545 409.35345 
L 436.147871 409.35345 
L 436.50198 423.034184 
L 437.564307 423.034184 
L 437.918415 431.624312 
L 438.980742 431.624312 
L 439.334851 443.708837 
L 440.397177 443.708837 
L 440.751286 457.394733 
L 441.813613 457.394733 
L 442.167722 469.45403 
L 443.230048 469.45403 
L 443.584157 486.681262 
L 444.646483 486.681262 
L 445.000592 500.469663 
L 446.062919 500.469663 
L 446.417028 503.945592 
L 447.479354 503.945592 
L 447.833463 517.768026 
L 448.89579 517.768026 
L 449.249898 519.471975 
L 450.312225 519.471975 
L 450.666334 529.854365 
L 453.145096 529.854365 
L 453.499205 535.0448 
L 455.977967 535.054393 
L 456.332075 540.250816 
L 457.394402 540.250816 
L 457.748511 536.809888 
L 460.227273 536.80794 
L 460.581382 542.041751 
L 461.643708 542.041751 
L 461.997817 550.707976 
L 463.060144 550.707976 
L 463.414252 543.878764 
L 464.476579 543.878764 
L 464.830688 545.761622 
L 465.893014 545.761622 
L 466.247123 538.974408 
L 467.30945 538.974408 
L 467.663559 528.834543 
L 468.725885 528.834543 
L 469.079994 534.158159 
L 470.14232 534.158159 
L 470.496429 524.046572 
L 471.558756 524.046572 
L 471.912865 532.757394 
L 472.975191 532.757394 
L 473.3293 531.370275 
L 477.224497 531.370275 
L 477.578606 528.024654 
L 478.640933 528.024654 
L 478.995042 521.341115 
L 480.057368 521.341115 
L 480.411477 514.662316 
L 481.473804 514.662316 
L 481.827912 501.32759 
L 482.890239 501.32759 
L 483.244348 488.052765 
L 484.306674 488.052765 
L 484.660783 478.125798 
L 485.72311 478.125798 
L 486.077219 468.223302 
L 487.139545 468.223302 
L 487.493654 464.928225 
L 488.555981 464.928225 
L 488.910089 455.059218 
L 489.972416 455.059218 
L 490.326525 448.487436 
L 492.805287 448.490109 
L 493.159396 445.210114 
L 494.221722 445.210114 
L 494.575831 435.381212 
L 495.638157 435.381212 
L 495.992266 444.1955 
L 497.054593 444.1955 
L 497.408702 434.384291 
L 498.471028 434.384291 
L 498.825137 445.500267 
L 499.887464 445.500267 
L 500.241572 466.416342 
L 501.303899 466.416342 
L 501.658008 463.154363 
L 502.720334 463.154363 
L 503.074443 462.203997 
L 504.13677 462.203997 
L 504.490879 449.181996 
L 505.553205 449.181996 
L 505.907314 454.772873 
L 506.969641 454.772873 
L 507.323749 469.208434 
L 508.386076 469.208434 
L 508.740185 482.780429 
L 509.802511 482.780429 
L 510.15662 491.625171 
L 511.218947 491.625171 
L 511.573056 506.937133 
L 512.635382 506.937133 
L 512.989491 521.409566 
L 514.051818 521.409566 
L 514.405926 530.262292 
L 515.468253 530.262292 
L 515.822362 535.895938 
L 516.884688 535.895938 
L 517.238797 537.50552 
L 518.301124 537.50552 
L 518.655233 552.011388 
L 519.717559 552.011388 
L 520.071668 564.093311 
L 521.133994 564.093311 
L 521.488103 566.5313 
L 522.55043 566.5313 
L 522.904539 572.185288 
L 523.966865 572.185288 
L 524.320974 589.166945 
L 525.383301 589.166945 
L 525.737409 603.707509 
L 526.799736 603.707509 
L 527.153845 629.615969 
L 528.216171 629.615969 
L 528.57028 661.248188 
L 529.632607 661.248188 
L 529.986716 672.631804 
L 531.049042 672.631804 
L 531.403151 696.115186 
L 532.465478 696.115186 
L 532.819586 715.734572 
L 533.881913 715.734572 
L 534.236022 712.541461 
L 535.298348 712.541461 
L 535.652457 706.160803 
L 536.714784 706.160803 
L 537.068893 699.782926 
L 539.547655 699.782075 
L 539.901763 696.595668 
L 540.96409 696.595668 
L 541.318199 693.408418 
L 542.380525 693.408418 
L 542.734634 687.039199 
L 543.796961 687.039199 
L 544.15107 683.212719 
L 545.213396 683.212719 
L 545.567505 682.572773 
L 546.629831 682.572773 
L 546.98394 696.575003 
L 548.046267 696.575003 
L 548.400376 693.39627 
L 549.462702 693.39627 
L 549.816811 699.127813 
L 550.879138 699.127813 
L 551.233246 710.595914 
L 552.295573 710.595914 
L 552.649682 709.97767 
L 553.712008 709.97767 
L 554.066117 715.716708 
L 555.128444 715.716708 
L 555.482553 723.423866 
L 556.544879 723.423866 
L 556.898988 725.998294 
L 557.961315 725.998294 
L 558.315423 731.152119 
L 559.37775 731.152119 
L 559.731859 734.319346 
L 560.794185 734.319346 
L 561.148294 730.570454 
L 562.210621 730.570454 
L 562.56473 729.992635 
L 563.627056 729.992635 
L 563.981165 738.913302 
L 565.043492 738.913302 
L 565.3976 729.418701 
L 566.459927 729.418701 
L 566.814036 732.01216 
L 567.876362 732.01216 
L 568.230471 746.130041 
L 569.292798 746.130041 
L 569.646907 742.967963 
L 570.709233 742.967963 
L 571.063342 751.332869 
L 572.125668 751.332869 
L 572.479777 759.706688 
L 573.542104 759.706688 
L 573.896213 768.083947 
L 574.958539 768.083947 
L 575.312648 794.872443 
L 576.374975 794.872443 
L 576.729083 798.030135 
L 577.79141 798.030135 
L 578.145519 810.119892 
L 579.207845 810.119892 
L 579.561954 809.589911 
L 580.624281 809.589911 
L 580.97839 812.74473 
L 583.457152 812.74473 
L 583.81126 819.053174 
L 584.873587 819.053174 
L 585.227696 818.531056 
L 586.290022 818.531056 
L 586.644131 814.85977 
L 587.706458 814.85977 
L 588.060567 814.346014 
L 589.122893 814.346014 
L 589.477002 816.988854 
L 590.539329 816.988854 
L 590.893437 822.276071 
L 591.955764 822.276071 
L 592.309873 819.128383 
L 593.372199 819.128383 
L 593.726308 818.628771 
L 594.788635 818.628771 
L 595.142744 830.221394 
L 596.20507 830.221394 
L 596.559179 835.527365 
L 597.621505 835.527365 
L 597.975614 838.182273 
L 599.037941 838.182273 
L 599.39205 831.897397 
L 600.454376 831.897397 
L 600.808485 837.223162 
L 601.870812 837.223162 
L 602.22492 830.943509 
L 603.287247 830.943509 
L 603.641356 830.006025 
L 604.703682 830.006025 
L 605.057791 847.438096 
L 607.536553 847.438096 
L 607.890662 853.253244 
L 608.952989 853.253244 
L 609.307097 855.934565 
L 611.785859 855.936093 
L 612.139968 855.490531 
L 613.202295 855.490531 
L 613.556404 870.265944 
L 614.61873 870.265944 
L 614.972839 864.001873 
L 616.035166 864.001873 
L 616.389274 860.869837 
L 617.451601 860.869837 
L 617.80571 863.563094 
L 618.868036 863.563094 
L 619.222145 857.300747 
L 621.700907 857.300747 
L 622.055016 854.169766 
L 623.117342 854.169766 
L 623.471451 851.039167 
L 624.533778 851.039167 
L 624.887887 841.649419 
L 625.950213 841.649419 
L 626.304322 835.391064 
L 627.366649 835.391064 
L 627.720757 826.004298 
L 628.783084 826.004298 
L 629.137193 819.74731 
L 630.199519 819.74731 
L 630.553628 813.491666 
L 631.615955 813.491666 
L 631.970064 804.110631 
L 633.03239 804.110631 
L 633.386499 836.834889 
L 634.448826 836.834889 
L 634.802934 854.761558 
L 635.865261 854.761558 
L 636.21937 875.814722 
L 637.281696 875.814722 
L 637.635805 884.779134 
L 638.698132 884.779134 
L 639.052241 893.743547 
L 640.114567 893.743547 
L 640.468676 917.511681 
L 641.531003 917.511681 
L 641.885111 935.441328 
L 642.947438 935.441328 
L 643.301547 956.494036 
L 644.363873 956.494036 
L 644.717982 983.386186 
L 645.780309 983.386186 
L 646.134418 992.350374 
L 647.196744 992.350374 
L 647.550853 989.228235 
L 648.613179 989.228235 
L 648.967288 982.984951 
L 650.029615 982.984951 
L 650.383724 986.1062 
L 651.44605 986.1062 
L 651.800159 982.985275 
L 652.862486 982.985275 
L 653.216594 979.864672 
L 654.278921 979.864672 
L 654.63303 976.744069 
L 655.695356 976.744069 
L 656.049465 982.588526 
L 657.111792 982.588526 
L 657.465901 979.467923 
L 659.944663 979.46824 
L 660.298771 979.074919 
L 661.361098 979.074919 
L 661.715207 991.160277 
L 662.777533 991.160277 
L 663.131642 993.888553 
L 664.193969 993.888553 
L 664.548078 1011.433629 
L 665.610404 1011.433629 
L 665.964513 1014.552234 
L 667.02684 1014.552234 
L 667.380948 1017.283136 
L 668.443275 1017.283136 
L 668.797384 1037.95262 
L 669.85971 1037.95262 
L 670.213819 1052.773998 
L 671.276146 1052.773998 
L 671.630255 1052.390531 
L 672.692581 1052.390531 
L 673.04669 1058.24356 
L 674.109016 1058.24356 
L 674.463125 1061.361218 
L 675.525452 1061.361218 
L 675.879561 1055.12619 
L 676.941887 1055.12619 
L 677.295996 1060.981172 
L 678.358323 1060.981172 
L 678.712431 1069.575667 
L 679.774758 1069.575667 
L 680.128867 1066.458509 
L 681.191193 1066.458509 
L 681.545302 1066.080649 
L 684.024064 1066.080441 
L 684.378173 1069.196899 
L 685.4405 1069.196899 
L 685.794608 1075.055464 
L 686.856935 1075.055464 
L 687.211044 1074.681801 
L 688.27337 1074.681801 
L 688.627479 1071.565622 
L 689.689806 1071.565622 
L 690.043915 1077.425701 
L 691.106241 1077.425701 
L 691.46035 1092.263125 
L 692.522677 1092.263125 
L 692.876785 1095.009196 
L 693.939112 1095.009196 
L 694.293221 1103.986672 
L 695.355547 1103.986672 
L 695.709656 1107.101834 
L 696.771983 1107.101834 
L 697.126092 1110.216793 
L 698.188418 1110.216793 
L 698.542527 1116.079307 
L 701.021289 1116.079307 
L 701.375398 1119.194 
L 702.437724 1119.194 
L 702.791833 1121.94235 
L 703.85416 1121.94235 
L 704.208268 1121.576793 
L 705.270595 1121.576793 
L 705.624704 1127.440359 
L 706.68703 1127.440359 
L 707.041139 1127.07676 
L 708.103466 1127.07676 
L 708.457575 1132.940727 
L 709.519901 1132.940727 
L 709.87401 1147.965753 
L 710.936337 1147.965753 
L 711.290445 1154.19235 
L 713.769207 1154.192597 
L 714.123316 1165.927204 
L 715.185643 1165.927204 
L 715.539752 1159.702517 
L 716.602078 1159.702517 
L 716.956187 1165.570868 
L 718.018514 1165.570868 
L 718.372622 1177.663426 
L 719.434949 1177.663426 
L 719.789058 1174.551679 
L 722.26782 1174.551679 
L 722.621929 1180.420701 
L 723.684255 1180.420701 
L 724.038364 1183.532055 
L 725.10069 1183.532055 
L 725.454799 1195.62383 
L 726.517126 1195.62383 
L 726.871235 1201.493988 
L 727.933561 1201.493988 
L 728.28767 1210.47534 
L 729.349997 1210.47534 
L 729.704105 1216.346194 
L 730.766432 1216.346194 
L 731.120541 1231.2 
L 732.182867 1231.2 
L 732.536976 1224.979452 
L 733.599303 1224.979452 
L 733.953412 1221.869402 
L 735.015738 1221.869402 
L 735.369847 1218.759352 
L 736.432174 1218.759352 
L 736.786282 1221.522799 
L 737.848609 1221.522799 
L 738.202718 1224.632435 
L 739.973262 1224.632435 
L 739.973262 1224.632435 
" clip-path="url(#p7f41e5e856)" style="fill: none; stroke: #0000ff; stroke-width: 1.5; stroke-linecap: square"/>
   </g>
   <g id="patch_3">
    <path d="M 270 1281.6 
L 270 172.8 
" style="fill: none; stroke: #000000; stroke-width: 0.8; stroke-linejoin: miter; stroke-linecap: square"/>
   </g>
   <g id="patch_4">
    <path d="M 762.352941 1281.6 
L 762.352941 172.8 
" style="fill: none; stroke: #000000; stroke-width: 0.8; stroke-linejoin: miter; stroke-linecap: square"/>
   </g>
   <g id="patch_5">
    <path d="M 270 1281.6 
L 762.352941 1281.6 
" style="fill: none; stroke: #000000; stroke-width: 0.8; stroke-linejoin: miter; stroke-linecap: square"/>
   </g>
   <g id="patch_6">
    <path d="M 270 172.8 
L 762.352941 172.8 
" style="fill: none; stroke: #000000; stroke-width: 0.8; stroke-linejoin: miter; stroke-linecap: square"/>
   </g>
   <g id="legend_1">
    <g id="patch_7">
     <path d="M 671.310754 195.478125 
L 755.352941 195.478125 
Q 757.352941 195.478125 757.352941 193.478125 
L 757.352941 179.8 
Q 757.352941 177.8 755.352941 177.8 
L 671.310754 177.8 
Q 669.310754 177.8 669.310754 179.8 
L 669.310754 193.478125 
Q 669.310754 195.478125 671.310754 195.478125 
z
" style="fill: #ffffff; opacity: 0.8; stroke: #cccccc; stroke-linejoin: miter"/>
    </g>
    <g id="line2d_17">
     <path d="M 673.310754 185.898437 
L 683.310754 185.898437 
L 693.310754 185.898437 
" style="fill: none; stroke: #0000ff; stroke-width: 1.5; stroke-linecap: square"/>
    </g>
    <g id="text_16">
     <!-- O1 reward -->
     <g transform="translate(701.310754 189.398437) scale(0.1 -0.1)">
      <defs>
       <path id="DejaVuSans-4f" d="M 2522 4238 
Q 1834 4238 1429 3725 
Q 1025 3213 1025 2328 
Q 1025 1447 1429 934 
Q 1834 422 2522 422 
Q 3209 422 3611 934 
Q 4013 1447 4013 2328 
Q 4013 3213 3611 3725 
Q 3209 4238 2522 4238 
z
M 2522 4750 
Q 3503 4750 4090 4092 
Q 4678 3434 4678 2328 
Q 4678 1225 4090 567 
Q 3503 -91 2522 -91 
Q 1538 -91 948 565 
Q 359 1222 359 2328 
Q 359 3434 948 4092 
Q 1538 4750 2522 4750 
z
" transform="scale(0.015625)"/>
       <path id="DejaVuSans-20" transform="scale(0.015625)"/>
       <path id="DejaVuSans-72" d="M 2631 2963 
Q 2534 3019 2420 3045 
Q 2306 3072 2169 3072 
Q 1681 3072 1420 2755 
Q 1159 2438 1159 1844 
L 1159 0 
L 581 0 
L 581 3500 
L 1159 3500 
L 1159 2956 
Q 1341 3275 1631 3429 
Q 1922 3584 2338 3584 
Q 2397 3584 2469 3576 
Q 2541 3569 2628 3553 
L 2631 2963 
z
" transform="scale(0.015625)"/>
       <path id="DejaVuSans-65" d="M 3597 1894 
L 3597 1613 
L 953 1613 
Q 991 1019 1311 708 
Q 1631 397 2203 397 
Q 2534 397 2845 478 
Q 3156 559 3463 722 
L 3463 178 
Q 3153 47 2828 -22 
Q 2503 -91 2169 -91 
Q 1331 -91 842 396 
Q 353 884 353 1716 
Q 353 2575 817 3079 
Q 1281 3584 2069 3584 
Q 2775 3584 3186 3129 
Q 3597 2675 3597 1894 
z
M 3022 2063 
Q 3016 2534 2758 2815 
Q 2500 3097 2075 3097 
Q 1594 3097 1305 2825 
Q 1016 2553 972 2059 
L 3022 2063 
z
" transform="scale(0.015625)"/>
       <path id="DejaVuSans-77" d="M 269 3500 
L 844 3500 
L 1563 769 
L 2278 3500 
L 2956 3500 
L 3675 769 
L 4391 3500 
L 4966 3500 
L 4050 0 
L 3372 0 
L 2619 2869 
L 1863 0 
L 1184 0 
L 269 3500 
z
" transform="scale(0.015625)"/>
       <path id="DejaVuSans-61" d="M 2194 1759 
Q 1497 1759 1228 1600 
Q 959 1441 959 1056 
Q 959 750 1161 570 
Q 1363 391 1709 391 
Q 2188 391 2477 730 
Q 2766 1069 2766 1631 
L 2766 1759 
L 2194 1759 
z
M 3341 1997 
L 3341 0 
L 2766 0 
L 2766 531 
Q 2569 213 2275 61 
Q 1981 -91 1556 -91 
Q 1019 -91 701 211 
Q 384 513 384 1019 
Q 384 1609 779 1909 
Q 1175 2209 1959 2209 
L 2766 2209 
L 2766 2266 
Q 2766 2663 2505 2880 
Q 2244 3097 1772 3097 
Q 1472 3097 1187 3025 
Q 903 2953 641 2809 
L 641 3341 
Q 956 3463 1253 3523 
Q 1550 3584 1831 3584 
Q 2591 3584 2966 3190 
Q 3341 2797 3341 1997 
z
" transform="scale(0.015625)"/>
       <path id="DejaVuSans-64" d="M 2906 2969 
L 2906 4863 
L 3481 4863 
L 3481 0 
L 2906 0 
L 2906 525 
Q 2725 213 2448 61 
Q 2172 -91 1784 -91 
Q 1150 -91 751 415 
Q 353 922 353 1747 
Q 353 2572 751 3078 
Q 1150 3584 1784 3584 
Q 2172 3584 2448 3432 
Q 2725 3281 2906 2969 
z
M 947 1747 
Q 947 1113 1208 752 
Q 1469 391 1925 391 
Q 2381 391 2643 752 
Q 2906 1113 2906 1747 
Q 2906 2381 2643 2742 
Q 2381 3103 1925 3103 
Q 1469 3103 1208 2742 
Q 947 2381 947 1747 
z
" transform="scale(0.015625)"/>
      </defs>
      <use xlink:href="#DejaVuSans-4f"/>
      <use xlink:href="#DejaVuSans-31" x="78.710938"/>
      <use xlink:href="#DejaVuSans-20" x="142.333984"/>
      <use xlink:href="#DejaVuSans-72" x="174.121094"/>
      <use xlink:href="#DejaVuSans-65" x="212.984375"/>
      <use xlink:href="#DejaVuSans-77" x="274.507812"/>
      <use xlink:href="#DejaVuSans-61" x="356.294922"/>
      <use xlink:href="#DejaVuSans-72" x="417.574219"/>
      <use xlink:href="#DejaVuSans-64" x="456.9375"/>
     </g>
    </g>
   </g>
  </g>
  <g id="axes_2">
   <g id="patch_8">
    <path d="M 860.823529 1281.6 
L 1353.176471 1281.6 
L 1353.176471 172.8 
L 860.823529 172.8 
z
" style="fill: #ffffff"/>
   </g>
   <g id="matplotlib.axis_3">
    <g id="xtick_8">
     <g id="line2d_18">
      <g>
       <use xlink:href="#mb710f92be5" x="882.8491" y="1281.6" style="stroke: #000000; stroke-width: 0.8"/>
      </g>
     </g>
     <g id="text_17">
      <!-- 0 -->
      <g transform="translate(879.66785 1296.198437) scale(0.1 -0.1)">
       <use xlink:href="#DejaVuSans-30"/>
      </g>
     </g>
    </g>
    <g id="xtick_9">
     <g id="line2d_19">
      <g>
       <use xlink:href="#mb710f92be5" x="953.670869" y="1281.6" style="stroke: #000000; stroke-width: 0.8"/>
      </g>
     </g>
     <g id="text_18">
      <!-- 200 -->
      <g transform="translate(944.127119 1296.198437) scale(0.1 -0.1)">
       <use xlink:href="#DejaVuSans-32"/>
       <use xlink:href="#DejaVuSans-30" x="63.623047"/>
       <use xlink:href="#DejaVuSans-30" x="127.246094"/>
      </g>
     </g>
    </g>
    <g id="xtick_10">
     <g id="line2d_20">
      <g>
       <use xlink:href="#mb710f92be5" x="1024.492639" y="1281.6" style="stroke: #000000; stroke-width: 0.8"/>
      </g>
     </g>
     <g id="text_19">
      <!-- 400 -->
      <g transform="translate(1014.948889 1296.198437) scale(0.1 -0.1)">
       <use xlink:href="#DejaVuSans-34"/>
       <use xlink:href="#DejaVuSans-30" x="63.623047"/>
       <use xlink:href="#DejaVuSans-30" x="127.246094"/>
      </g>
     </g>
    </g>
    <g id="xtick_11">
     <g id="line2d_21">
      <g>
       <use xlink:href="#mb710f92be5" x="1095.314408" y="1281.6" style="stroke: #000000; stroke-width: 0.8"/>
      </g>
     </g>
     <g id="text_20">
      <!-- 600 -->
      <g transform="translate(1085.770658 1296.198437) scale(0.1 -0.1)">
       <use xlink:href="#DejaVuSans-36"/>
       <use xlink:href="#DejaVuSans-30" x="63.623047"/>
       <use xlink:href="#DejaVuSans-30" x="127.246094"/>
      </g>
     </g>
    </g>
    <g id="xtick_12">
     <g id="line2d_22">
      <g>
       <use xlink:href="#mb710f92be5" x="1166.136177" y="1281.6" style="stroke: #000000; stroke-width: 0.8"/>
      </g>
     </g>
     <g id="text_21">
      <!-- 800 -->
      <g transform="translate(1156.592427 1296.198437) scale(0.1 -0.1)">
       <use xlink:href="#DejaVuSans-38"/>
       <use xlink:href="#DejaVuSans-30" x="63.623047"/>
       <use xlink:href="#DejaVuSans-30" x="127.246094"/>
      </g>
     </g>
    </g>
    <g id="xtick_13">
     <g id="line2d_23">
      <g>
       <use xlink:href="#mb710f92be5" x="1236.957947" y="1281.6" style="stroke: #000000; stroke-width: 0.8"/>
      </g>
     </g>
     <g id="text_22">
      <!-- 1000 -->
      <g transform="translate(1224.232947 1296.198437) scale(0.1 -0.1)">
       <use xlink:href="#DejaVuSans-31"/>
       <use xlink:href="#DejaVuSans-30" x="63.623047"/>
       <use xlink:href="#DejaVuSans-30" x="127.246094"/>
       <use xlink:href="#DejaVuSans-30" x="190.869141"/>
      </g>
     </g>
    </g>
    <g id="xtick_14">
     <g id="line2d_24">
      <g>
       <use xlink:href="#mb710f92be5" x="1307.779716" y="1281.6" style="stroke: #000000; stroke-width: 0.8"/>
      </g>
     </g>
     <g id="text_23">
      <!-- 1200 -->
      <g transform="translate(1295.054716 1296.198437) scale(0.1 -0.1)">
       <use xlink:href="#DejaVuSans-31"/>
       <use xlink:href="#DejaVuSans-32" x="63.623047"/>
       <use xlink:href="#DejaVuSans-30" x="127.246094"/>
       <use xlink:href="#DejaVuSans-30" x="190.869141"/>
      </g>
     </g>
    </g>
   </g>
   <g id="matplotlib.axis_4">
    <g id="ytick_9">
     <g id="line2d_25">
      <g>
       <use xlink:href="#m3c4c4b9173" x="860.823529" y="1231.2" style="stroke: #000000; stroke-width: 0.8"/>
      </g>
     </g>
     <g id="text_24">
      <!-- 0 -->
      <g transform="translate(847.461029 1234.999219) scale(0.1 -0.1)">
       <use xlink:href="#DejaVuSans-30"/>
      </g>
     </g>
    </g>
    <g id="ytick_10">
     <g id="line2d_26">
      <g>
       <use xlink:href="#m3c4c4b9173" x="860.823529" y="1025.728415" style="stroke: #000000; stroke-width: 0.8"/>
      </g>
     </g>
     <g id="text_25">
      <!-- 20 -->
      <g transform="translate(841.098529 1029.527634) scale(0.1 -0.1)">
       <use xlink:href="#DejaVuSans-32"/>
       <use xlink:href="#DejaVuSans-30" x="63.623047"/>
      </g>
     </g>
    </g>
    <g id="ytick_11">
     <g id="line2d_27">
      <g>
       <use xlink:href="#m3c4c4b9173" x="860.823529" y="820.25683" style="stroke: #000000; stroke-width: 0.8"/>
      </g>
     </g>
     <g id="text_26">
      <!-- 40 -->
      <g transform="translate(841.098529 824.056048) scale(0.1 -0.1)">
       <use xlink:href="#DejaVuSans-34"/>
       <use xlink:href="#DejaVuSans-30" x="63.623047"/>
      </g>
     </g>
    </g>
    <g id="ytick_12">
     <g id="line2d_28">
      <g>
       <use xlink:href="#m3c4c4b9173" x="860.823529" y="614.785244" style="stroke: #000000; stroke-width: 0.8"/>
      </g>
     </g>
     <g id="text_27">
      <!-- 60 -->
      <g transform="translate(841.098529 618.584463) scale(0.1 -0.1)">
       <use xlink:href="#DejaVuSans-36"/>
       <use xlink:href="#DejaVuSans-30" x="63.623047"/>
      </g>
     </g>
    </g>
    <g id="ytick_13">
     <g id="line2d_29">
      <g>
       <use xlink:href="#m3c4c4b9173" x="860.823529" y="409.313659" style="stroke: #000000; stroke-width: 0.8"/>
      </g>
     </g>
     <g id="text_28">
      <!-- 80 -->
      <g transform="translate(841.098529 413.112878) scale(0.1 -0.1)">
       <use xlink:href="#DejaVuSans-38"/>
       <use xlink:href="#DejaVuSans-30" x="63.623047"/>
      </g>
     </g>
    </g>
    <g id="ytick_14">
     <g id="line2d_30">
      <g>
       <use xlink:href="#m3c4c4b9173" x="860.823529" y="203.842074" style="stroke: #000000; stroke-width: 0.8"/>
      </g>
     </g>
     <g id="text_29">
      <!-- 100 -->
      <g transform="translate(834.736029 207.641293) scale(0.1 -0.1)">
       <use xlink:href="#DejaVuSans-31"/>
       <use xlink:href="#DejaVuSans-30" x="63.623047"/>
       <use xlink:href="#DejaVuSans-30" x="127.246094"/>
      </g>
     </g>
    </g>
   </g>
   <g id="line2d_31">
    <path d="M 883.203209 1231.2 
L 899.492216 1231.124046 
L 899.846324 1226.985031 
L 900.908651 1226.985031 
L 901.26276 1228.607215 
L 902.325086 1228.607215 
L 902.679195 1227.642503 
L 903.741522 1227.642503 
L 904.095631 1229.54431 
L 905.157957 1229.54431 
L 905.512066 1220.999903 
L 906.574392 1220.999903 
L 906.928501 1208.04784 
L 907.990828 1208.04784 
L 908.344937 1201.604462 
L 909.407263 1201.604462 
L 909.761372 1184.632028 
L 910.823699 1184.632028 
L 911.177807 1168.989898 
L 917.905876 1168.989898 
L 918.259984 1162.200965 
L 922.155182 1162.200965 
L 922.509291 1154.960446 
L 926.404488 1154.960446 
L 926.758597 1145.095364 
L 927.820923 1145.095364 
L 928.175032 1142.325328 
L 929.237359 1142.325328 
L 929.591468 1139.277233 
L 932.070229 1139.277233 
L 932.424338 1120.567134 
L 933.486665 1120.567134 
L 933.840774 1091.143938 
L 934.9031 1091.143938 
L 935.257209 1083.305878 
L 936.319536 1083.305878 
L 936.673644 1068.212415 
L 937.735971 1068.212415 
L 938.09008 1031.675076 
L 939.152406 1031.675076 
L 939.506515 1006.245029 
L 954.733196 1006.245029 
L 955.087305 998.74676 
L 958.982502 998.74676 
L 959.336611 991.358685 
L 960.398937 991.358685 
L 960.753046 983.893366 
L 961.815373 983.893366 
L 962.169481 976.352782 
L 964.648243 976.352782 
L 965.002352 973.691311 
L 970.313985 973.691311 
L 970.668094 970.958316 
L 971.73042 970.958316 
L 972.084529 952.816085 
L 973.146856 952.816085 
L 973.500965 938.961177 
L 974.563291 938.961177 
L 974.9174 908.255882 
L 975.979727 908.255882 
L 976.333835 881.243672 
L 977.396162 881.243672 
L 977.750271 859.952856 
L 978.812597 859.952856 
L 979.166706 833.771289 
L 980.229033 833.771289 
L 980.583142 801.972515 
L 981.645468 801.972515 
L 981.999577 787.751256 
L 983.061903 787.751256 
L 983.416012 768.055681 
L 987.31121 768.055681 
L 987.665318 763.609223 
L 988.727645 763.609223 
L 989.081754 754.414911 
L 990.14408 754.414911 
L 990.498189 760.760051 
L 991.560516 760.760051 
L 991.914625 763.778022 
L 992.976951 763.778022 
L 993.33106 770.047313 
L 994.393387 770.047313 
L 994.747495 773.283373 
L 995.809822 773.283373 
L 996.163931 776.223929 
L 997.226257 776.223929 
L 997.580366 767.16476 
L 1000.059128 767.16476 
L 1000.413237 761.004329 
L 1001.475564 761.004329 
L 1001.829672 758.16616 
L 1002.891999 758.16616 
L 1003.246108 749.266155 
L 1004.308434 749.266155 
L 1004.662543 731.709993 
L 1005.72487 731.709993 
L 1006.078979 723.304211 
L 1007.141305 723.304211 
L 1007.495414 715.996495 
L 1008.55774 715.996495 
L 1008.911849 711.265551 
L 1009.974176 711.265551 
L 1010.328285 703.495023 
L 1011.390611 703.495023 
L 1011.74472 711.188809 
L 1012.807047 711.188809 
L 1013.161155 728.424701 
L 1014.223482 728.424701 
L 1014.577591 723.022226 
L 1015.639917 723.022226 
L 1015.994026 708.19978 
L 1017.056353 708.19978 
L 1017.410462 695.623406 
L 1018.472788 695.623406 
L 1018.826897 697.439524 
L 1019.889224 697.439524 
L 1020.243332 685.495501 
L 1021.305659 685.495501 
L 1021.659768 675.231664 
L 1022.722094 675.231664 
L 1023.076203 673.568022 
L 1025.554965 673.507193 
L 1025.909074 675.122257 
L 1026.971401 675.122257 
L 1027.325509 671.961884 
L 1028.387836 671.961884 
L 1028.741945 662.096484 
L 1029.804271 662.096484 
L 1030.15838 663.57792 
L 1031.220707 663.57792 
L 1031.574816 660.221573 
L 1032.637142 660.221573 
L 1032.991251 650.609175 
L 1034.053577 650.609175 
L 1034.407686 644.434526 
L 1035.470013 644.434526 
L 1035.824122 638.309595 
L 1036.886448 638.309595 
L 1037.240557 634.974524 
L 1038.302884 634.974524 
L 1038.656992 632.994454 
L 1041.135754 632.994454 
L 1041.489863 644.970105 
L 1042.55219 644.970105 
L 1042.906299 650.868663 
L 1043.968625 650.868663 
L 1044.322734 648.770096 
L 1045.385061 648.770096 
L 1045.739169 653.273371 
L 1046.801496 653.273371 
L 1047.155605 654.389002 
L 1048.217931 654.389002 
L 1048.57204 666.597301 
L 1049.634367 666.597301 
L 1049.988476 668.928188 
L 1051.050802 668.928188 
L 1051.404911 678.682812 
L 1052.467238 678.682812 
L 1052.821346 678.207013 
L 1053.883673 678.207013 
L 1054.237782 668.704367 
L 1055.300108 668.704367 
L 1055.654217 662.62275 
L 1056.716544 662.62275 
L 1057.070653 661.723639 
L 1058.132979 661.723639 
L 1058.487088 656.624638 
L 1059.549414 656.624638 
L 1059.903523 648.216221 
L 1060.96585 648.216221 
L 1061.319959 651.584149 
L 1062.382285 651.584149 
L 1062.736394 654.946483 
L 1063.798721 654.946483 
L 1064.152829 654.145775 
L 1065.215156 654.145775 
L 1065.569265 650.772194 
L 1066.631591 650.772194 
L 1066.9857 641.721569 
L 1068.048027 641.721569 
L 1068.402136 636.105855 
L 1070.880898 636.105855 
L 1071.235006 631.297963 
L 1072.297333 631.297963 
L 1072.651442 636.741304 
L 1073.713768 636.741304 
L 1074.067877 646.093888 
L 1075.130204 646.093888 
L 1075.484313 648.861082 
L 1076.546639 648.861082 
L 1076.900748 648.301154 
L 1077.963075 648.301154 
L 1078.317183 647.213187 
L 1079.37951 647.213187 
L 1079.733619 649.571355 
L 1080.795945 649.571355 
L 1081.150054 640.938005 
L 1082.212381 640.938005 
L 1082.56649 619.742302 
L 1083.628816 619.742302 
L 1083.982925 607.247853 
L 1085.045251 607.247853 
L 1085.39936 590.816459 
L 1086.461687 590.816459 
L 1086.815796 574.278644 
L 1087.878122 574.278644 
L 1088.232231 558.614304 
L 1089.294558 558.614304 
L 1089.648666 550.433888 
L 1090.710993 550.433888 
L 1091.065102 538.981314 
L 1092.127428 538.981314 
L 1092.481537 523.547799 
L 1093.543864 523.547799 
L 1093.897973 515.92509 
L 1094.960299 515.92509 
L 1095.314408 504.612844 
L 1096.376735 504.612844 
L 1096.730843 508.531424 
L 1097.79317 508.531424 
L 1098.147279 501.782552 
L 1099.209605 501.782552 
L 1099.563714 512.686877 
L 1100.626041 512.686877 
L 1100.98015 512.994325 
L 1102.042476 512.994325 
L 1102.396585 513.24884 
L 1103.458912 513.24884 
L 1103.81302 509.993154 
L 1104.875347 509.993154 
L 1105.583565 510.10615 
L 1106.291782 510.10615 
L 1106.645891 510.312465 
L 1107.708218 510.312465 
L 1108.062327 520.918378 
L 1109.124653 520.918378 
L 1109.478762 527.816274 
L 1110.541088 527.816274 
L 1110.895197 531.19078 
L 1111.957524 531.19078 
L 1112.311633 527.810726 
L 1113.373959 527.810726 
L 1113.728068 524.294411 
L 1114.790395 524.294411 
L 1115.144503 517.412233 
L 1116.20683 517.412233 
L 1116.560939 510.608652 
L 1119.039701 510.594998 
L 1119.39381 514.018934 
L 1120.456136 514.018934 
L 1120.810245 510.710201 
L 1121.872572 510.710201 
L 1122.22668 507.42103 
L 1123.289007 507.42103 
L 1123.643116 507.54046 
L 1124.705442 507.54046 
L 1125.059551 520.927796 
L 1126.121878 520.927796 
L 1126.475987 524.36816 
L 1127.538313 524.36816 
L 1127.892422 515.140282 
L 1128.954749 515.140282 
L 1129.308857 518.6329 
L 1130.371184 518.6329 
L 1130.725293 522.399396 
L 1131.787619 522.399396 
L 1132.141728 519.170131 
L 1133.204055 519.170131 
L 1133.558164 519.469754 
L 1134.62049 519.469754 
L 1134.974599 523.695711 
L 1136.036925 523.695711 
L 1136.391034 524.849017 
L 1138.869796 524.851217 
L 1139.223905 515.374821 
L 1140.286232 515.374821 
L 1140.64034 509.081415 
L 1141.702667 509.081415 
L 1142.056776 505.937843 
L 1143.119102 505.937843 
L 1143.473211 499.661334 
L 1144.535538 499.661334 
L 1144.889647 496.528379 
L 1145.951973 496.528379 
L 1146.306082 493.397459 
L 1147.368409 493.397459 
L 1147.722517 487.141598 
L 1148.784844 487.141598 
L 1149.138953 480.893511 
L 1150.201279 480.893511 
L 1150.555388 474.652982 
L 1151.617715 474.652982 
L 1151.971824 471.535512 
L 1153.03415 471.535512 
L 1153.388259 462.211186 
L 1154.450586 462.211186 
L 1154.804694 456.015065 
L 1155.867021 456.015065 
L 1156.22113 452.919666 
L 1158.699892 452.919666 
L 1159.054001 449.826022 
L 1160.116327 449.826022 
L 1160.470436 440.565566 
L 1161.532762 440.565566 
L 1161.886871 431.338859 
L 1162.949198 431.338859 
L 1163.303307 422.149509 
L 1164.365633 422.149509 
L 1164.719742 416.042306 
L 1165.782069 416.042306 
L 1166.136177 406.911718 
L 1167.198504 406.911718 
L 1167.552613 417.452322 
L 1168.614939 417.452322 
L 1168.969048 425.717869 
L 1170.031375 425.717869 
L 1170.385484 428.031148 
L 1171.44781 428.031148 
L 1171.801919 430.417291 
L 1172.864246 430.417291 
L 1173.218354 437.992913 
L 1175.697116 438.010619 
L 1176.051225 435.657083 
L 1177.113552 435.657083 
L 1177.467661 439.474892 
L 1178.529987 439.474892 
L 1178.884096 436.429074 
L 1179.946423 436.429074 
L 1180.300531 438.355818 
L 1181.362858 438.355818 
L 1181.716967 426.803085 
L 1182.779293 426.803085 
L 1183.133402 415.295355 
L 1184.195729 415.295355 
L 1184.549838 403.828977 
L 1185.612164 403.828977 
L 1185.966273 395.268336 
L 1187.028599 395.268336 
L 1187.382708 386.740609 
L 1188.445035 386.740609 
L 1188.799144 381.069186 
L 1189.86147 381.069186 
L 1190.215579 372.584601 
L 1191.277906 372.584601 
L 1191.632014 369.762587 
L 1192.694341 369.762587 
L 1193.04845 364.129001 
L 1194.110776 364.129001 
L 1194.464885 358.509265 
L 1195.527212 358.509265 
L 1195.881321 359.657298 
L 1196.943647 359.657298 
L 1197.297756 369.223388 
L 1199.776518 369.220161 
L 1200.130627 367.611814 
L 1202.609389 367.611814 
L 1202.963498 363.221307 
L 1206.858695 363.221307 
L 1207.212804 366.007973 
L 1211.108001 366.007973 
L 1211.46211 363.224432 
L 1213.940872 363.224432 
L 1214.294981 364.437607 
L 1215.357307 364.437607 
L 1215.711416 368.43847 
L 1216.773743 368.43847 
L 1217.127851 366.916552 
L 1218.190178 366.916552 
L 1218.544287 373.696043 
L 1219.606613 373.696043 
L 1219.960722 380.257494 
L 1221.023049 380.257494 
L 1221.377158 384.291469 
L 1222.439484 384.291469 
L 1222.793593 388.325481 
L 1223.85592 388.325481 
L 1224.210028 385.58203 
L 1225.272355 385.58203 
L 1225.626464 380.100459 
L 1226.68879 380.100459 
L 1227.042899 374.630448 
L 1228.105226 374.630448 
L 1228.459335 366.440339 
L 1229.521661 366.440339 
L 1229.87577 363.714936 
L 1230.938097 363.714936 
L 1231.292205 360.992371 
L 1232.354532 360.992371 
L 1232.708641 358.272539 
L 1233.770967 358.272539 
L 1234.125076 355.555408 
L 1236.603838 355.555408 
L 1236.957947 350.127691 
L 1238.020273 350.127691 
L 1238.374382 347.417088 
L 1239.436709 347.417088 
L 1239.790818 350.126502 
L 1240.853144 350.126502 
L 1241.207253 351.509704 
L 1242.26958 351.509704 
L 1242.623688 350.195233 
L 1243.686015 350.195233 
L 1244.040124 347.494996 
L 1245.10245 347.494996 
L 1245.456559 350.194072 
L 1246.518886 350.194072 
L 1246.872995 347.497575 
L 1247.935321 347.497575 
L 1248.28943 344.803806 
L 1249.351757 344.803806 
L 1249.705865 336.737985 
L 1250.768192 336.737985 
L 1251.122301 338.169685 
L 1252.184627 338.169685 
L 1252.538736 330.136501 
L 1253.601063 330.136501 
L 1253.955172 319.456084 
L 1255.017498 319.456084 
L 1255.371607 316.792063 
L 1256.433934 316.792063 
L 1256.788042 311.47151 
L 1257.850369 311.47151 
L 1258.204478 303.502051 
L 1259.266804 303.502051 
L 1259.620913 298.200203 
L 1260.68324 298.200203 
L 1261.037349 292.905114 
L 1262.099675 292.905114 
L 1262.453784 282.341941 
L 1263.51611 282.341941 
L 1263.870219 274.441678 
L 1264.932546 274.441678 
L 1265.286655 269.182271 
L 1266.348981 269.182271 
L 1266.70309 265.471503 
L 1267.765417 265.471503 
L 1268.119525 264.396089 
L 1269.181852 264.396089 
L 1269.535961 268.571382 
L 1270.598287 268.571382 
L 1270.952396 266.46236 
L 1272.014723 266.46236 
L 1272.368832 262.805021 
L 1273.431158 262.805021 
L 1273.785267 266.989136 
L 1276.264029 266.989136 
L 1276.618138 265.963778 
L 1277.680464 265.963778 
L 1278.034573 264.943931 
L 1279.0969 264.943931 
L 1279.451009 262.339007 
L 1280.513335 262.339007 
L 1280.867444 259.736118 
L 1284.762641 259.736118 
L 1285.11675 262.336792 
L 1286.179077 262.336792 
L 1286.533186 261.341822 
L 1287.595512 261.341822 
L 1287.949621 260.353216 
L 1289.011947 260.353216 
L 1289.366056 257.758524 
L 1290.428383 257.758524 
L 1290.782492 255.165807 
L 1293.261254 255.165807 
L 1293.615362 257.756355 
L 1294.677689 257.756355 
L 1295.031798 252.579475 
L 1296.094124 252.579475 
L 1296.448233 249.993138 
L 1297.51056 249.993138 
L 1297.864669 244.823517 
L 1300.343431 244.823517 
L 1300.697539 242.241324 
L 1301.759866 242.241324 
L 1302.113975 237.081811 
L 1303.176301 237.081811 
L 1303.53041 234.504482 
L 1304.592737 234.504482 
L 1304.946846 231.92922 
L 1306.009172 231.92922 
L 1306.363281 229.355865 
L 1307.425608 229.355865 
L 1307.779716 224.214975 
L 1308.842043 224.214975 
L 1309.196152 225.87379 
L 1310.258478 225.87379 
L 1310.612587 226.649254 
L 1311.674914 226.649254 
L 1312.029023 225.759951 
L 1313.091349 225.759951 
L 1313.445458 223.2 
L 1314.507784 223.2 
L 1314.861893 229.9941 
L 1315.92422 229.9941 
L 1316.278329 232.54816 
L 1317.340655 232.54816 
L 1317.694764 234.244912 
L 1318.757091 234.244912 
L 1319.111199 232.544692 
L 1320.173526 232.544692 
L 1320.527635 239.343129 
L 1321.589961 239.343129 
L 1321.94407 238.503538 
L 1324.422832 238.503538 
L 1324.776941 235.128919 
L 1330.088574 235.128919 
L 1330.442683 237.669275 
L 1330.796791 237.669275 
L 1330.796791 237.669275 
" clip-path="url(#p51787d34db)" style="fill: none; stroke: #0000ff; stroke-width: 1.5; stroke-linecap: square"/>
   </g>
   <g id="patch_9">
    <path d="M 860.823529 1281.6 
L 860.823529 172.8 
" style="fill: none; stroke: #000000; stroke-width: 0.8; stroke-linejoin: miter; stroke-linecap: square"/>
   </g>
   <g id="patch_10">
    <path d="M 1353.176471 1281.6 
L 1353.176471 172.8 
" style="fill: none; stroke: #000000; stroke-width: 0.8; stroke-linejoin: miter; stroke-linecap: square"/>
   </g>
   <g id="patch_11">
    <path d="M 860.823529 1281.6 
L 1353.176471 1281.6 
" style="fill: none; stroke: #000000; stroke-width: 0.8; stroke-linejoin: miter; stroke-linecap: square"/>
   </g>
   <g id="patch_12">
    <path d="M 860.823529 172.8 
L 1353.176471 172.8 
" style="fill: none; stroke: #000000; stroke-width: 0.8; stroke-linejoin: miter; stroke-linecap: square"/>
   </g>
   <g id="legend_2">
    <g id="patch_13">
     <path d="M 1262.134283 195.478125 
L 1346.176471 195.478125 
Q 1348.176471 195.478125 1348.176471 193.478125 
L 1348.176471 179.8 
Q 1348.176471 177.8 1346.176471 177.8 
L 1262.134283 177.8 
Q 1260.134283 177.8 1260.134283 179.8 
L 1260.134283 193.478125 
Q 1260.134283 195.478125 1262.134283 195.478125 
z
" style="fill: #ffffff; opacity: 0.8; stroke: #cccccc; stroke-linejoin: miter"/>
    </g>
    <g id="line2d_32">
     <path d="M 1264.134283 185.898437 
L 1274.134283 185.898437 
L 1284.134283 185.898437 
" style="fill: none; stroke: #0000ff; stroke-width: 1.5; stroke-linecap: square"/>
    </g>
    <g id="text_30">
     <!-- O2 reward -->
     <g transform="translate(1292.134283 189.398437) scale(0.1 -0.1)">
      <use xlink:href="#DejaVuSans-4f"/>
      <use xlink:href="#DejaVuSans-32" x="78.710938"/>
      <use xlink:href="#DejaVuSans-20" x="142.333984"/>
      <use xlink:href="#DejaVuSans-72" x="174.121094"/>
      <use xlink:href="#DejaVuSans-65" x="212.984375"/>
      <use xlink:href="#DejaVuSans-77" x="274.507812"/>
      <use xlink:href="#DejaVuSans-61" x="356.294922"/>
      <use xlink:href="#DejaVuSans-72" x="417.574219"/>
      <use xlink:href="#DejaVuSans-64" x="456.9375"/>
     </g>
    </g>
   </g>
  </g>
  <g id="axes_3">
   <g id="patch_14">
    <path d="M 1451.647059 1281.6 
L 1944 1281.6 
L 1944 172.8 
L 1451.647059 172.8 
z
" style="fill: #ffffff"/>
   </g>
   <g id="matplotlib.axis_5">
    <g id="xtick_15">
     <g id="line2d_33">
      <g>
       <use xlink:href="#mb710f92be5" x="1473.672629" y="1281.6" style="stroke: #000000; stroke-width: 0.8"/>
      </g>
     </g>
     <g id="text_31">
      <!-- 0 -->
      <g transform="translate(1470.491379 1296.198437) scale(0.1 -0.1)">
       <use xlink:href="#DejaVuSans-30"/>
      </g>
     </g>
    </g>
    <g id="xtick_16">
     <g id="line2d_34">
      <g>
       <use xlink:href="#mb710f92be5" x="1544.494399" y="1281.6" style="stroke: #000000; stroke-width: 0.8"/>
      </g>
     </g>
     <g id="text_32">
      <!-- 200 -->
      <g transform="translate(1534.950649 1296.198437) scale(0.1 -0.1)">
       <use xlink:href="#DejaVuSans-32"/>
       <use xlink:href="#DejaVuSans-30" x="63.623047"/>
       <use xlink:href="#DejaVuSans-30" x="127.246094"/>
      </g>
     </g>
    </g>
    <g id="xtick_17">
     <g id="line2d_35">
      <g>
       <use xlink:href="#mb710f92be5" x="1615.316168" y="1281.6" style="stroke: #000000; stroke-width: 0.8"/>
      </g>
     </g>
     <g id="text_33">
      <!-- 400 -->
      <g transform="translate(1605.772418 1296.198437) scale(0.1 -0.1)">
       <use xlink:href="#DejaVuSans-34"/>
       <use xlink:href="#DejaVuSans-30" x="63.623047"/>
       <use xlink:href="#DejaVuSans-30" x="127.246094"/>
      </g>
     </g>
    </g>
    <g id="xtick_18">
     <g id="line2d_36">
      <g>
       <use xlink:href="#mb710f92be5" x="1686.137937" y="1281.6" style="stroke: #000000; stroke-width: 0.8"/>
      </g>
     </g>
     <g id="text_34">
      <!-- 600 -->
      <g transform="translate(1676.594187 1296.198437) scale(0.1 -0.1)">
       <use xlink:href="#DejaVuSans-36"/>
       <use xlink:href="#DejaVuSans-30" x="63.623047"/>
       <use xlink:href="#DejaVuSans-30" x="127.246094"/>
      </g>
     </g>
    </g>
    <g id="xtick_19">
     <g id="line2d_37">
      <g>
       <use xlink:href="#mb710f92be5" x="1756.959707" y="1281.6" style="stroke: #000000; stroke-width: 0.8"/>
      </g>
     </g>
     <g id="text_35">
      <!-- 800 -->
      <g transform="translate(1747.415957 1296.198437) scale(0.1 -0.1)">
       <use xlink:href="#DejaVuSans-38"/>
       <use xlink:href="#DejaVuSans-30" x="63.623047"/>
       <use xlink:href="#DejaVuSans-30" x="127.246094"/>
      </g>
     </g>
    </g>
    <g id="xtick_20">
     <g id="line2d_38">
      <g>
       <use xlink:href="#mb710f92be5" x="1827.781476" y="1281.6" style="stroke: #000000; stroke-width: 0.8"/>
      </g>
     </g>
     <g id="text_36">
      <!-- 1000 -->
      <g transform="translate(1815.056476 1296.198437) scale(0.1 -0.1)">
       <use xlink:href="#DejaVuSans-31"/>
       <use xlink:href="#DejaVuSans-30" x="63.623047"/>
       <use xlink:href="#DejaVuSans-30" x="127.246094"/>
       <use xlink:href="#DejaVuSans-30" x="190.869141"/>
      </g>
     </g>
    </g>
    <g id="xtick_21">
     <g id="line2d_39">
      <g>
       <use xlink:href="#mb710f92be5" x="1898.603246" y="1281.6" style="stroke: #000000; stroke-width: 0.8"/>
      </g>
     </g>
     <g id="text_37">
      <!-- 1200 -->
      <g transform="translate(1885.878246 1296.198437) scale(0.1 -0.1)">
       <use xlink:href="#DejaVuSans-31"/>
       <use xlink:href="#DejaVuSans-32" x="63.623047"/>
       <use xlink:href="#DejaVuSans-30" x="127.246094"/>
       <use xlink:href="#DejaVuSans-30" x="190.869141"/>
      </g>
     </g>
    </g>
   </g>
   <g id="matplotlib.axis_6">
    <g id="ytick_15">
     <g id="line2d_40">
      <g>
       <use xlink:href="#m3c4c4b9173" x="1451.647059" y="1231.2" style="stroke: #000000; stroke-width: 0.8"/>
      </g>
     </g>
     <g id="text_38">
      <!-- 0.0 -->
      <g transform="translate(1428.743934 1234.999219) scale(0.1 -0.1)">
       <use xlink:href="#DejaVuSans-30"/>
       <use xlink:href="#DejaVuSans-2e" x="63.623047"/>
       <use xlink:href="#DejaVuSans-30" x="95.410156"/>
      </g>
     </g>
    </g>
    <g id="ytick_16">
     <g id="line2d_41">
      <g>
       <use xlink:href="#m3c4c4b9173" x="1451.647059" y="1106.335943" style="stroke: #000000; stroke-width: 0.8"/>
      </g>
     </g>
     <g id="text_39">
      <!-- 2.5 -->
      <g transform="translate(1428.743934 1110.135162) scale(0.1 -0.1)">
       <use xlink:href="#DejaVuSans-32"/>
       <use xlink:href="#DejaVuSans-2e" x="63.623047"/>
       <use xlink:href="#DejaVuSans-35" x="95.410156"/>
      </g>
     </g>
    </g>
    <g id="ytick_17">
     <g id="line2d_42">
      <g>
       <use xlink:href="#m3c4c4b9173" x="1451.647059" y="981.471887" style="stroke: #000000; stroke-width: 0.8"/>
      </g>
     </g>
     <g id="text_40">
      <!-- 5.0 -->
      <g transform="translate(1428.743934 985.271106) scale(0.1 -0.1)">
       <use xlink:href="#DejaVuSans-35"/>
       <use xlink:href="#DejaVuSans-2e" x="63.623047"/>
       <use xlink:href="#DejaVuSans-30" x="95.410156"/>
      </g>
     </g>
    </g>
    <g id="ytick_18">
     <g id="line2d_43">
      <g>
       <use xlink:href="#m3c4c4b9173" x="1451.647059" y="856.60783" style="stroke: #000000; stroke-width: 0.8"/>
      </g>
     </g>
     <g id="text_41">
      <!-- 7.5 -->
      <g transform="translate(1428.743934 860.407049) scale(0.1 -0.1)">
       <use xlink:href="#DejaVuSans-37"/>
       <use xlink:href="#DejaVuSans-2e" x="63.623047"/>
       <use xlink:href="#DejaVuSans-35" x="95.410156"/>
      </g>
     </g>
    </g>
    <g id="ytick_19">
     <g id="line2d_44">
      <g>
       <use xlink:href="#m3c4c4b9173" x="1451.647059" y="731.743774" style="stroke: #000000; stroke-width: 0.8"/>
      </g>
     </g>
     <g id="text_42">
      <!-- 10.0 -->
      <g transform="translate(1422.381434 735.542992) scale(0.1 -0.1)">
       <use xlink:href="#DejaVuSans-31"/>
       <use xlink:href="#DejaVuSans-30" x="63.623047"/>
       <use xlink:href="#DejaVuSans-2e" x="127.246094"/>
       <use xlink:href="#DejaVuSans-30" x="159.033203"/>
      </g>
     </g>
    </g>
    <g id="ytick_20">
     <g id="line2d_45">
      <g>
       <use xlink:href="#m3c4c4b9173" x="1451.647059" y="606.879717" style="stroke: #000000; stroke-width: 0.8"/>
      </g>
     </g>
     <g id="text_43">
      <!-- 12.5 -->
      <g transform="translate(1422.381434 610.678936) scale(0.1 -0.1)">
       <use xlink:href="#DejaVuSans-31"/>
       <use xlink:href="#DejaVuSans-32" x="63.623047"/>
       <use xlink:href="#DejaVuSans-2e" x="127.246094"/>
       <use xlink:href="#DejaVuSans-35" x="159.033203"/>
      </g>
     </g>
    </g>
    <g id="ytick_21">
     <g id="line2d_46">
      <g>
       <use xlink:href="#m3c4c4b9173" x="1451.647059" y="482.015661" style="stroke: #000000; stroke-width: 0.8"/>
      </g>
     </g>
     <g id="text_44">
      <!-- 15.0 -->
      <g transform="translate(1422.381434 485.814879) scale(0.1 -0.1)">
       <use xlink:href="#DejaVuSans-31"/>
       <use xlink:href="#DejaVuSans-35" x="63.623047"/>
       <use xlink:href="#DejaVuSans-2e" x="127.246094"/>
       <use xlink:href="#DejaVuSans-30" x="159.033203"/>
      </g>
     </g>
    </g>
    <g id="ytick_22">
     <g id="line2d_47">
      <g>
       <use xlink:href="#m3c4c4b9173" x="1451.647059" y="357.151604" style="stroke: #000000; stroke-width: 0.8"/>
      </g>
     </g>
     <g id="text_45">
      <!-- 17.5 -->
      <g transform="translate(1422.381434 360.950823) scale(0.1 -0.1)">
       <use xlink:href="#DejaVuSans-31"/>
       <use xlink:href="#DejaVuSans-37" x="63.623047"/>
       <use xlink:href="#DejaVuSans-2e" x="127.246094"/>
       <use xlink:href="#DejaVuSans-35" x="159.033203"/>
      </g>
     </g>
    </g>
    <g id="ytick_23">
     <g id="line2d_48">
      <g>
       <use xlink:href="#m3c4c4b9173" x="1451.647059" y="232.287547" style="stroke: #000000; stroke-width: 0.8"/>
      </g>
     </g>
     <g id="text_46">
      <!-- 20.0 -->
      <g transform="translate(1422.381434 236.086766) scale(0.1 -0.1)">
       <use xlink:href="#DejaVuSans-32"/>
       <use xlink:href="#DejaVuSans-30" x="63.623047"/>
       <use xlink:href="#DejaVuSans-2e" x="127.246094"/>
       <use xlink:href="#DejaVuSans-30" x="159.033203"/>
      </g>
     </g>
    </g>
   </g>
   <g id="line2d_49">
    <path d="M 1474.026738 1231.2 
L 1488.89931 1231.2 
L 1489.253418 1211.721068 
L 1490.315745 1211.721068 
L 1490.669854 1196.156004 
L 1491.73218 1196.156004 
L 1492.086289 1182.91645 
L 1493.148616 1182.91645 
L 1493.502725 1163.294955 
L 1494.565051 1163.294955 
L 1494.91916 1156.6968 
L 1495.981486 1156.6968 
L 1496.335595 1131.009278 
L 1497.397922 1131.009278 
L 1497.752031 1138.472533 
L 1498.814357 1138.472533 
L 1499.168466 1123.853769 
L 1500.230793 1123.853769 
L 1500.584902 1109.43991 
L 1501.647228 1109.43991 
L 1502.001337 1099.662288 
L 1503.063663 1099.662288 
L 1503.417772 1083.102559 
L 1504.480099 1083.102559 
L 1504.834208 1067.558115 
L 1505.896534 1067.558115 
L 1506.250643 1057.925627 
L 1508.729405 1057.925627 
L 1509.083514 1053.685491 
L 1510.14584 1053.685491 
L 1510.499949 1044.400728 
L 1511.562276 1044.400728 
L 1511.916385 1039.229975 
L 1514.395147 1039.229975 
L 1514.749255 1035.369943 
L 1515.811582 1035.369943 
L 1516.165691 1026.913542 
L 1518.644453 1026.913542 
L 1518.998562 1023.371129 
L 1520.060888 1023.371129 
L 1520.414997 1008.437529 
L 1521.477323 1008.437529 
L 1521.831432 987.482795 
L 1522.893759 987.482795 
L 1523.247868 972.802682 
L 1524.310194 972.802682 
L 1524.664303 963.034264 
L 1525.72663 963.034264 
L 1526.080739 935.785426 
L 1527.143065 935.785426 
L 1527.497174 922.228522 
L 1528.5595 922.228522 
L 1528.913609 917.97262 
L 1529.975936 917.97262 
L 1530.330045 904.699204 
L 1531.392371 904.699204 
L 1531.74648 895.859047 
L 1532.808807 895.859047 
L 1533.162915 888.315542 
L 1534.225242 888.315542 
L 1534.579351 875.128525 
L 1535.641677 875.128525 
L 1535.995786 869.754984 
L 1537.058113 869.754984 
L 1537.412222 857.741439 
L 1539.890984 857.655389 
L 1540.245092 861.053068 
L 1541.307419 861.053068 
L 1541.661528 863.157844 
L 1542.723854 863.157844 
L 1543.077963 858.228576 
L 1544.14029 858.228576 
L 1544.494399 860.296962 
L 1545.556725 860.296962 
L 1545.910834 857.400864 
L 1546.97316 857.400864 
L 1547.327269 860.652945 
L 1548.389596 860.652945 
L 1548.743705 857.603189 
L 1551.222467 857.603189 
L 1551.576576 854.495252 
L 1552.638902 854.495252 
L 1552.993011 845.320836 
L 1554.055337 845.320836 
L 1554.409446 837.364544 
L 1555.471773 837.364544 
L 1555.825882 842.218595 
L 1556.888208 842.218595 
L 1557.242317 844.162213 
L 1561.137514 844.162213 
L 1561.491623 835.109217 
L 1562.55395 835.109217 
L 1562.908059 818.077086 
L 1563.970385 818.077086 
L 1564.324494 809.817631 
L 1565.386821 809.817631 
L 1565.740929 803.982593 
L 1566.803256 803.982593 
L 1567.157365 800.157392 
L 1568.219691 800.157392 
L 1568.5738 791.022344 
L 1569.636127 791.022344 
L 1569.990236 784.893486 
L 1571.052562 784.893486 
L 1571.406671 780.136896 
L 1572.468997 780.136896 
L 1572.823106 770.400087 
L 1573.885433 770.400087 
L 1574.239542 764.634007 
L 1575.301868 764.634007 
L 1575.655977 756.678921 
L 1576.718304 756.678921 
L 1577.072413 754.494228 
L 1578.134739 754.494228 
L 1578.488848 745.520986 
L 1579.551174 745.520986 
L 1579.905283 738.085891 
L 1580.96761 738.085891 
L 1581.321719 730.781943 
L 1582.384045 730.781943 
L 1582.738154 723.768706 
L 1585.216916 723.768706 
L 1585.571025 718.893062 
L 1586.633351 718.893062 
L 1586.98746 714.659764 
L 1588.049787 714.659764 
L 1588.403896 716.644589 
L 1589.466222 716.644589 
L 1589.820331 712.895378 
L 1590.882658 712.895378 
L 1591.236766 706.380468 
L 1592.299093 706.380468 
L 1592.653202 701.705754 
L 1593.715528 701.705754 
L 1594.069637 696.992052 
L 1595.131964 696.992052 
L 1595.486073 690.753457 
L 1596.548399 690.753457 
L 1596.902508 677.466292 
L 1597.964834 677.466292 
L 1598.318943 675.97982 
L 1599.38127 675.97982 
L 1599.735379 673.900667 
L 1600.797705 673.900667 
L 1601.151814 665.740362 
L 1602.214141 665.740362 
L 1602.56825 659.903532 
L 1603.630576 659.903532 
L 1603.984685 655.880625 
L 1605.047011 655.880625 
L 1605.40112 648.653464 
L 1606.463447 648.653464 
L 1606.817556 640.418336 
L 1607.879882 640.418336 
L 1608.233991 636.038818 
L 1609.296318 636.038818 
L 1609.650426 635.234793 
L 1610.712753 635.234793 
L 1611.066862 632.901985 
L 1612.129188 632.901985 
L 1612.483297 629.767667 
L 1613.545624 629.767667 
L 1613.899733 625.178922 
L 1614.962059 625.178922 
L 1615.316168 623.680359 
L 1616.378495 623.680359 
L 1616.732603 617.21386 
L 1617.79493 617.21386 
L 1618.149039 615.00158 
L 1619.211365 615.00158 
L 1619.565474 611.64354 
L 1620.627801 611.64354 
L 1620.98191 608.302788 
L 1622.044236 608.302788 
L 1622.398345 604.612085 
L 1624.877107 604.612085 
L 1625.231216 602.422395 
L 1626.293542 602.422395 
L 1626.647651 601.326891 
L 1627.709978 601.326891 
L 1628.064087 596.614103 
L 1630.542848 596.614103 
L 1630.896957 597.699749 
L 1631.959284 597.699749 
L 1632.313393 598.066126 
L 1633.375719 598.066126 
L 1633.729828 595.975878 
L 1634.792155 595.975878 
L 1635.146263 589.250853 
L 1636.20859 589.250853 
L 1636.562699 586.543859 
L 1637.625025 586.543859 
L 1637.979134 587.169377 
L 1639.041461 587.169377 
L 1639.39557 580.581656 
L 1640.457896 580.581656 
L 1640.812005 575.209645 
L 1641.874332 575.209645 
L 1642.22844 574.337738 
L 1643.290767 574.337738 
L 1643.644876 571.825562 
L 1644.707202 571.825562 
L 1645.061311 568.256718 
L 1646.123638 568.256718 
L 1646.477747 567.706954 
L 1647.540073 567.706954 
L 1647.894182 563.950555 
L 1648.956508 563.950555 
L 1649.310617 561.018509 
L 1650.372944 561.018509 
L 1650.727053 556.207064 
L 1651.789379 556.207064 
L 1652.143488 553.3597 
L 1653.205815 553.3597 
L 1653.559924 549.559925 
L 1654.62225 549.559925 
L 1654.976359 546.071605 
L 1656.038685 546.071605 
L 1656.392794 543.334642 
L 1657.455121 543.334642 
L 1657.80923 542.871257 
L 1658.871556 542.871257 
L 1659.225665 539.47764 
L 1660.287992 539.47764 
L 1660.6421 534.774456 
L 1661.704427 534.774456 
L 1662.058536 530.665067 
L 1663.120862 530.665067 
L 1663.474971 524.998579 
L 1664.537298 524.998579 
L 1664.891407 519.875033 
L 1665.953733 519.875033 
L 1666.307842 507.799634 
L 1667.370169 507.799634 
L 1667.724277 499.275692 
L 1668.786604 499.275692 
L 1669.140713 492.970149 
L 1670.203039 492.970149 
L 1670.557148 489.020452 
L 1671.619475 489.020452 
L 1671.973584 483.405038 
L 1673.03591 483.405038 
L 1673.390019 479.374762 
L 1674.452345 479.374762 
L 1674.806454 470.018321 
L 1675.868781 470.018321 
L 1676.22289 464.845501 
L 1677.285216 464.845501 
L 1677.639325 459.618785 
L 1678.701652 459.618785 
L 1679.055761 455.434135 
L 1680.118087 455.434135 
L 1680.472196 450.321211 
L 1681.534522 450.321211 
L 1681.888631 445.469325 
L 1682.950958 445.469325 
L 1683.305067 440.09833 
L 1684.367393 440.09833 
L 1684.721502 434.537897 
L 1685.783829 434.537897 
L 1686.137937 432.786157 
L 1687.200264 432.786157 
L 1687.554373 429.556765 
L 1688.616699 429.556765 
L 1688.970808 428.403119 
L 1690.033135 428.403119 
L 1690.387244 427.01529 
L 1691.44957 427.01529 
L 1691.803679 424.726849 
L 1692.866006 424.726849 
L 1693.220114 421.100215 
L 1694.282441 421.100215 
L 1694.63655 419.741399 
L 1695.698876 419.741399 
L 1696.052985 417.500809 
L 1697.115312 417.500809 
L 1697.469421 415.502718 
L 1699.948182 415.502718 
L 1700.302291 415.283048 
L 1701.364618 415.283048 
L 1701.718727 413.728297 
L 1702.781053 413.728297 
L 1703.135162 413.057647 
L 1704.197489 413.057647 
L 1704.551598 411.52478 
L 1705.613924 411.52478 
L 1705.968033 410.436857 
L 1707.030359 410.436857 
L 1707.384468 407.960767 
L 1708.446795 407.960767 
L 1708.800904 403.844663 
L 1709.86323 403.844663 
L 1710.217339 402.973529 
L 1711.279666 402.973529 
L 1711.633774 398.624898 
L 1712.696101 398.624898 
L 1713.05021 395.854628 
L 1714.112536 395.854628 
L 1714.466645 394.133206 
L 1715.528972 394.133206 
L 1715.883081 391.214868 
L 1716.945407 391.214868 
L 1717.299516 387.122088 
L 1718.361843 387.122088 
L 1718.715951 383.925477 
L 1719.778278 383.925477 
L 1720.132387 379.075501 
L 1721.194713 379.075501 
L 1721.548822 377.085756 
L 1722.611149 377.085756 
L 1722.965258 374.950295 
L 1724.027584 374.950295 
L 1724.381693 370.119958 
L 1725.444019 370.119958 
L 1725.798128 369.148793 
L 1726.860455 369.148793 
L 1727.214564 368.041222 
L 1728.27689 368.041222 
L 1728.630999 365.280064 
L 1729.693326 365.280064 
L 1730.047435 362.954085 
L 1731.109761 362.954085 
L 1731.46387 359.503604 
L 1732.526196 359.503604 
L 1732.880305 355.884121 
L 1733.942632 355.884121 
L 1734.296741 354.28909 
L 1735.359067 354.28909 
L 1735.713176 351.618396 
L 1736.775503 351.618396 
L 1737.129611 350.234649 
L 1738.191938 350.234649 
L 1738.546047 350.738408 
L 1739.608373 350.738408 
L 1739.962482 346.801196 
L 1741.024809 346.801196 
L 1741.378918 346.629976 
L 1742.441244 346.629976 
L 1742.795353 344.703854 
L 1745.274115 344.703854 
L 1745.628224 342.501454 
L 1746.69055 342.501454 
L 1747.044659 340.704926 
L 1748.106986 340.704926 
L 1748.461095 338.428901 
L 1749.523421 338.428901 
L 1749.87753 337.646005 
L 1750.939856 337.646005 
L 1751.293965 334.628548 
L 1752.356292 334.628548 
L 1752.710401 332.452173 
L 1753.772727 332.452173 
L 1754.126836 330.20079 
L 1755.189163 330.20079 
L 1755.543272 325.269911 
L 1756.605598 325.269911 
L 1756.959707 321.868328 
L 1759.438469 321.865589 
L 1759.792578 320.887479 
L 1760.854904 320.887479 
L 1761.209013 322.373457 
L 1762.27134 322.373457 
L 1762.625448 319.336958 
L 1763.687775 319.336958 
L 1764.041884 321.342333 
L 1765.10421 321.342333 
L 1765.458319 318.941037 
L 1766.520646 318.941037 
L 1766.874755 318.811149 
L 1767.937081 318.811149 
L 1768.29119 319.461665 
L 1770.769952 319.399327 
L 1771.124061 319.934977 
L 1772.186387 319.934977 
L 1772.540496 316.961947 
L 1773.602823 316.961947 
L 1773.956932 315.043048 
L 1775.019258 315.043048 
L 1775.373367 314.278989 
L 1776.435693 314.278989 
L 1776.789802 313.056051 
L 1777.852129 313.056051 
L 1778.206238 311.919778 
L 1779.268564 311.919778 
L 1779.622673 309.009045 
L 1782.101435 309.009045 
L 1782.455544 307.865207 
L 1783.51787 307.865207 
L 1783.871979 306.051346 
L 1784.934306 306.051346 
L 1785.288415 305.308994 
L 1786.350741 305.308994 
L 1786.70485 304.504758 
L 1787.767177 304.504758 
L 1788.121285 302.722745 
L 1789.183612 302.722745 
L 1789.537721 301.638669 
L 1790.600047 301.638669 
L 1790.954156 300.886115 
L 1792.016483 300.886115 
L 1792.370592 300.155403 
L 1794.849354 300.104273 
L 1795.203462 298.683567 
L 1797.682224 298.633369 
L 1798.036333 296.842176 
L 1799.09866 296.842176 
L 1799.452769 295.777419 
L 1800.515095 295.777419 
L 1800.869204 294.699178 
L 1801.93153 294.699178 
L 1802.285639 294.2694 
L 1803.347966 294.2694 
L 1803.702075 292.857921 
L 1804.764401 292.857921 
L 1805.11851 291.807098 
L 1806.180837 291.807098 
L 1806.534946 292.512306 
L 1807.597272 292.512306 
L 1807.951381 291.511755 
L 1809.013707 291.511755 
L 1809.367816 289.402773 
L 1810.430143 289.402773 
L 1810.784252 288.399728 
L 1811.846578 288.399728 
L 1812.200687 289.096757 
L 1813.263014 289.096757 
L 1813.617122 287.395353 
L 1814.679449 287.395353 
L 1815.033558 286.689441 
L 1817.51232 286.67567 
L 1817.866429 285.976384 
L 1820.345191 285.962066 
L 1820.699299 283.938206 
L 1823.178061 283.928033 
L 1823.53217 282.589085 
L 1824.594497 282.589085 
L 1824.948606 281.912931 
L 1826.010932 281.912931 
L 1826.365041 281.23908 
L 1827.427367 281.23908 
L 1827.781476 280.565787 
L 1828.843803 280.565787 
L 1829.197912 278.227456 
L 1831.676674 278.227456 
L 1832.030783 277.226076 
L 1833.093109 277.226076 
L 1833.447218 276.561863 
L 1835.92598 276.559734 
L 1836.280089 274.904867 
L 1837.342415 274.904867 
L 1837.696524 274.244668 
L 1838.758851 274.244668 
L 1839.112959 273.58588 
L 1840.175286 273.58588 
L 1840.529395 272.270997 
L 1841.591721 272.270997 
L 1841.94583 270.297199 
L 1843.008157 270.297199 
L 1843.362266 269.321337 
L 1844.424592 269.321337 
L 1844.778701 268.006913 
L 1845.841028 268.006913 
L 1846.195136 266.385802 
L 1847.257463 266.385802 
L 1847.611572 264.779731 
L 1848.673898 264.779731 
L 1849.028007 264.448391 
L 1850.090334 264.448391 
L 1850.444443 265.125455 
L 1851.506769 265.125455 
L 1851.860878 263.491792 
L 1854.33964 263.523528 
L 1854.693749 261.899077 
L 1855.756075 261.899077 
L 1856.110184 260.971959 
L 1858.588946 260.971959 
L 1858.943055 258.710087 
L 1860.005381 258.710087 
L 1860.35949 257.736329 
L 1861.421817 257.736329 
L 1861.775926 256.135414 
L 1862.838252 256.135414 
L 1863.192361 255.165662 
L 1864.254688 255.165662 
L 1864.608796 254.210552 
L 1865.671123 254.210552 
L 1866.025232 251.353586 
L 1867.087558 251.353586 
L 1867.441667 249.754636 
L 1868.503994 249.754636 
L 1868.858103 248.792003 
L 1869.920429 248.792003 
L 1870.274538 247.845883 
L 1871.336865 247.845883 
L 1871.690973 247.200429 
L 1872.7533 247.200429 
L 1873.107409 246.539129 
L 1874.169735 246.539129 
L 1874.523844 244.956221 
L 1877.002606 244.939064 
L 1877.356715 244.001481 
L 1881.251912 243.984089 
L 1881.606021 243.028474 
L 1882.668348 243.028474 
L 1883.022457 242.091592 
L 1884.084783 242.091592 
L 1884.438892 240.183673 
L 1885.501218 240.183673 
L 1885.855327 239.543358 
L 1886.917654 239.543358 
L 1887.271763 237.024413 
L 1888.334089 237.024413 
L 1888.688198 235.789938 
L 1889.750525 235.789938 
L 1890.104633 233.924901 
L 1891.16696 233.924901 
L 1891.521069 232.372673 
L 1893.999831 232.372673 
L 1894.35394 231.739194 
L 1895.416266 231.739194 
L 1895.770375 230.823139 
L 1896.832702 230.823139 
L 1897.18681 230.213584 
L 1898.249137 230.213584 
L 1898.603246 228.36509 
L 1901.082008 228.36509 
L 1901.436117 227.955129 
L 1902.498443 227.955129 
L 1902.852552 226.411074 
L 1903.914878 226.411074 
L 1904.268987 227.017492 
L 1905.331314 227.017492 
L 1905.685423 226.082497 
L 1908.164185 226.188808 
L 1908.518294 225.280501 
L 1909.58062 225.280501 
L 1909.934729 224.786694 
L 1912.413491 224.786694 
L 1912.7676 225.390076 
L 1916.662797 225.361881 
L 1917.016906 224.731365 
L 1919.495668 224.731365 
L 1919.849777 224.101902 
L 1920.912103 224.101902 
L 1921.266212 223.2 
L 1921.620321 223.2 
L 1921.620321 223.2 
" clip-path="url(#pfa22426908)" style="fill: none; stroke: #0000ff; stroke-width: 1.5; stroke-linecap: square"/>
   </g>
   <g id="patch_15">
    <path d="M 1451.647059 1281.6 
L 1451.647059 172.8 
" style="fill: none; stroke: #000000; stroke-width: 0.8; stroke-linejoin: miter; stroke-linecap: square"/>
   </g>
   <g id="patch_16">
    <path d="M 1944 1281.6 
L 1944 172.8 
" style="fill: none; stroke: #000000; stroke-width: 0.8; stroke-linejoin: miter; stroke-linecap: square"/>
   </g>
   <g id="patch_17">
    <path d="M 1451.647059 1281.6 
L 1944 1281.6 
" style="fill: none; stroke: #000000; stroke-width: 0.8; stroke-linejoin: miter; stroke-linecap: square"/>
   </g>
   <g id="patch_18">
    <path d="M 1451.647059 172.8 
L 1944 172.8 
" style="fill: none; stroke: #000000; stroke-width: 0.8; stroke-linejoin: miter; stroke-linecap: square"/>
   </g>
   <g id="legend_3">
    <g id="patch_19">
     <path d="M 1852.957813 195.478125 
L 1937 195.478125 
Q 1939 195.478125 1939 193.478125 
L 1939 179.8 
Q 1939 177.8 1937 177.8 
L 1852.957813 177.8 
Q 1850.957813 177.8 1850.957813 179.8 
L 1850.957813 193.478125 
Q 1850.957813 195.478125 1852.957813 195.478125 
z
" style="fill: #ffffff; opacity: 0.8; stroke: #cccccc; stroke-linejoin: miter"/>
    </g>
    <g id="line2d_50">
     <path d="M 1854.957813 185.898437 
L 1864.957813 185.898437 
L 1874.957813 185.898437 
" style="fill: none; stroke: #0000ff; stroke-width: 1.5; stroke-linecap: square"/>
    </g>
    <g id="text_47">
     <!-- O3 reward -->
     <g transform="translate(1882.957813 189.398437) scale(0.1 -0.1)">
      <defs>
       <path id="DejaVuSans-33" d="M 2597 2516 
Q 3050 2419 3304 2112 
Q 3559 1806 3559 1356 
Q 3559 666 3084 287 
Q 2609 -91 1734 -91 
Q 1441 -91 1130 -33 
Q 819 25 488 141 
L 488 750 
Q 750 597 1062 519 
Q 1375 441 1716 441 
Q 2309 441 2620 675 
Q 2931 909 2931 1356 
Q 2931 1769 2642 2001 
Q 2353 2234 1838 2234 
L 1294 2234 
L 1294 2753 
L 1863 2753 
Q 2328 2753 2575 2939 
Q 2822 3125 2822 3475 
Q 2822 3834 2567 4026 
Q 2313 4219 1838 4219 
Q 1578 4219 1281 4162 
Q 984 4106 628 3988 
L 628 4550 
Q 988 4650 1302 4700 
Q 1616 4750 1894 4750 
Q 2613 4750 3031 4423 
Q 3450 4097 3450 3541 
Q 3450 3153 3228 2886 
Q 3006 2619 2597 2516 
z
" transform="scale(0.015625)"/>
      </defs>
      <use xlink:href="#DejaVuSans-4f"/>
      <use xlink:href="#DejaVuSans-33" x="78.710938"/>
      <use xlink:href="#DejaVuSans-20" x="142.333984"/>
      <use xlink:href="#DejaVuSans-72" x="174.121094"/>
      <use xlink:href="#DejaVuSans-65" x="212.984375"/>
      <use xlink:href="#DejaVuSans-77" x="274.507812"/>
      <use xlink:href="#DejaVuSans-61" x="356.294922"/>
      <use xlink:href="#DejaVuSans-72" x="417.574219"/>
      <use xlink:href="#DejaVuSans-64" x="456.9375"/>
     </g>
    </g>
   </g>
  </g>
 </g>
 <defs>
  <clipPath id="p7f41e5e856">
   <rect x="270" y="172.8" width="492.352941" height="1108.8"/>
  </clipPath>
  <clipPath id="p51787d34db">
   <rect x="860.823529" y="172.8" width="492.352941" height="1108.8"/>
  </clipPath>
  <clipPath id="pfa22426908">
   <rect x="1451.647059" y="172.8" width="492.352941" height="1108.8"/>
  </clipPath>
 </defs>
</svg>
