<?xml version="1.0" encoding="utf-8" standalone="no"?>
<!DOCTYPE svg PUBLIC "-//W3C//DTD SVG 1.1//EN"
  "http://www.w3.org/Graphics/SVG/1.1/DTD/svg11.dtd">
<svg xmlns:xlink="http://www.w3.org/1999/xlink" width="2160pt" height="1440pt" viewBox="0 0 2160 1440" xmlns="http://www.w3.org/2000/svg" version="1.1">
 <metadata>
  <rdf:RDF xmlns:dc="http://purl.org/dc/elements/1.1/" xmlns:cc="http://creativecommons.org/ns#" xmlns:rdf="http://www.w3.org/1999/02/22-rdf-syntax-ns#">
   <cc:Work>
    <dc:type rdf:resource="http://purl.org/dc/dcmitype/StillImage"/>
    <dc:date>2023-05-31T19:27:00.671671</dc:date>
    <dc:format>image/svg+xml</dc:format>
    <dc:creator>
     <cc:Agent>
      <dc:title>Matplotlib v3.7.1, https://matplotlib.org/</dc:title>
     </cc:Agent>
    </dc:creator>
   </cc:Work>
  </rdf:RDF>
 </metadata>
 <defs>
  <style type="text/css">*{stroke-linejoin: round; stroke-linecap: butt}</style>
 </defs>
 <g id="figure_1">
  <g id="patch_1">
   <path d="M 0 1440 
L 2160 1440 
L 2160 0 
L 0 0 
z
" style="fill: #ffffff"/>
  </g>
  <g id="axes_1">
   <g id="patch_2">
    <path d="M 270 1281.6 
L 762.352941 1281.6 
L 762.352941 172.8 
L 270 172.8 
z
" style="fill: #ffffff"/>
   </g>
   <g id="matplotlib.axis_1">
    <g id="xtick_1">
     <g id="line2d_1">
      <defs>
       <path id="m4eb2912394" d="M 0 0 
L 0 3.5 
" style="stroke: #000000; stroke-width: 0.8"/>
      </defs>
      <g>
       <use xlink:href="#m4eb2912394" x="291.690013" y="1281.6" style="stroke: #000000; stroke-width: 0.8"/>
      </g>
     </g>
     <g id="text_1">
      <!-- 0 -->
      <g transform="translate(288.508763 1296.198437) scale(0.1 -0.1)">
       <defs>
        <path id="DejaVuSans-30" d="M 2034 4250 
Q 1547 4250 1301 3770 
Q 1056 3291 1056 2328 
Q 1056 1369 1301 889 
Q 1547 409 2034 409 
Q 2525 409 2770 889 
Q 3016 1369 3016 2328 
Q 3016 3291 2770 3770 
Q 2525 4250 2034 4250 
z
M 2034 4750 
Q 2819 4750 3233 4129 
Q 3647 3509 3647 2328 
Q 3647 1150 3233 529 
Q 2819 -91 2034 -91 
Q 1250 -91 836 529 
Q 422 1150 422 2328 
Q 422 3509 836 4129 
Q 1250 4750 2034 4750 
z
" transform="scale(0.015625)"/>
       </defs>
       <use xlink:href="#DejaVuSans-30"/>
      </g>
     </g>
    </g>
    <g id="xtick_2">
     <g id="line2d_2">
      <g>
       <use xlink:href="#m4eb2912394" x="360.656666" y="1281.6" style="stroke: #000000; stroke-width: 0.8"/>
      </g>
     </g>
     <g id="text_2">
      <!-- 100 -->
      <g transform="translate(351.112916 1296.198437) scale(0.1 -0.1)">
       <defs>
        <path id="DejaVuSans-31" d="M 794 531 
L 1825 531 
L 1825 4091 
L 703 3866 
L 703 4441 
L 1819 4666 
L 2450 4666 
L 2450 531 
L 3481 531 
L 3481 0 
L 794 0 
L 794 531 
z
" transform="scale(0.015625)"/>
       </defs>
       <use xlink:href="#DejaVuSans-31"/>
       <use xlink:href="#DejaVuSans-30" x="63.623047"/>
       <use xlink:href="#DejaVuSans-30" x="127.246094"/>
      </g>
     </g>
    </g>
    <g id="xtick_3">
     <g id="line2d_3">
      <g>
       <use xlink:href="#m4eb2912394" x="429.62332" y="1281.6" style="stroke: #000000; stroke-width: 0.8"/>
      </g>
     </g>
     <g id="text_3">
      <!-- 200 -->
      <g transform="translate(420.07957 1296.198437) scale(0.1 -0.1)">
       <defs>
        <path id="DejaVuSans-32" d="M 1228 531 
L 3431 531 
L 3431 0 
L 469 0 
L 469 531 
Q 828 903 1448 1529 
Q 2069 2156 2228 2338 
Q 2531 2678 2651 2914 
Q 2772 3150 2772 3378 
Q 2772 3750 2511 3984 
Q 2250 4219 1831 4219 
Q 1534 4219 1204 4116 
Q 875 4013 500 3803 
L 500 4441 
Q 881 4594 1212 4672 
Q 1544 4750 1819 4750 
Q 2544 4750 2975 4387 
Q 3406 4025 3406 3419 
Q 3406 3131 3298 2873 
Q 3191 2616 2906 2266 
Q 2828 2175 2409 1742 
Q 1991 1309 1228 531 
z
" transform="scale(0.015625)"/>
       </defs>
       <use xlink:href="#DejaVuSans-32"/>
       <use xlink:href="#DejaVuSans-30" x="63.623047"/>
       <use xlink:href="#DejaVuSans-30" x="127.246094"/>
      </g>
     </g>
    </g>
    <g id="xtick_4">
     <g id="line2d_4">
      <g>
       <use xlink:href="#m4eb2912394" x="498.589974" y="1281.6" style="stroke: #000000; stroke-width: 0.8"/>
      </g>
     </g>
     <g id="text_4">
      <!-- 300 -->
      <g transform="translate(489.046224 1296.198437) scale(0.1 -0.1)">
       <defs>
        <path id="DejaVuSans-33" d="M 2597 2516 
Q 3050 2419 3304 2112 
Q 3559 1806 3559 1356 
Q 3559 666 3084 287 
Q 2609 -91 1734 -91 
Q 1441 -91 1130 -33 
Q 819 25 488 141 
L 488 750 
Q 750 597 1062 519 
Q 1375 441 1716 441 
Q 2309 441 2620 675 
Q 2931 909 2931 1356 
Q 2931 1769 2642 2001 
Q 2353 2234 1838 2234 
L 1294 2234 
L 1294 2753 
L 1863 2753 
Q 2328 2753 2575 2939 
Q 2822 3125 2822 3475 
Q 2822 3834 2567 4026 
Q 2313 4219 1838 4219 
Q 1578 4219 1281 4162 
Q 984 4106 628 3988 
L 628 4550 
Q 988 4650 1302 4700 
Q 1616 4750 1894 4750 
Q 2613 4750 3031 4423 
Q 3450 4097 3450 3541 
Q 3450 3153 3228 2886 
Q 3006 2619 2597 2516 
z
" transform="scale(0.015625)"/>
       </defs>
       <use xlink:href="#DejaVuSans-33"/>
       <use xlink:href="#DejaVuSans-30" x="63.623047"/>
       <use xlink:href="#DejaVuSans-30" x="127.246094"/>
      </g>
     </g>
    </g>
    <g id="xtick_5">
     <g id="line2d_5">
      <g>
       <use xlink:href="#m4eb2912394" x="567.556628" y="1281.6" style="stroke: #000000; stroke-width: 0.8"/>
      </g>
     </g>
     <g id="text_5">
      <!-- 400 -->
      <g transform="translate(558.012878 1296.198437) scale(0.1 -0.1)">
       <defs>
        <path id="DejaVuSans-34" d="M 2419 4116 
L 825 1625 
L 2419 1625 
L 2419 4116 
z
M 2253 4666 
L 3047 4666 
L 3047 1625 
L 3713 1625 
L 3713 1100 
L 3047 1100 
L 3047 0 
L 2419 0 
L 2419 1100 
L 313 1100 
L 313 1709 
L 2253 4666 
z
" transform="scale(0.015625)"/>
       </defs>
       <use xlink:href="#DejaVuSans-34"/>
       <use xlink:href="#DejaVuSans-30" x="63.623047"/>
       <use xlink:href="#DejaVuSans-30" x="127.246094"/>
      </g>
     </g>
    </g>
    <g id="xtick_6">
     <g id="line2d_6">
      <g>
       <use xlink:href="#m4eb2912394" x="636.523281" y="1281.6" style="stroke: #000000; stroke-width: 0.8"/>
      </g>
     </g>
     <g id="text_6">
      <!-- 500 -->
      <g transform="translate(626.979531 1296.198437) scale(0.1 -0.1)">
       <defs>
        <path id="DejaVuSans-35" d="M 691 4666 
L 3169 4666 
L 3169 4134 
L 1269 4134 
L 1269 2991 
Q 1406 3038 1543 3061 
Q 1681 3084 1819 3084 
Q 2600 3084 3056 2656 
Q 3513 2228 3513 1497 
Q 3513 744 3044 326 
Q 2575 -91 1722 -91 
Q 1428 -91 1123 -41 
Q 819 9 494 109 
L 494 744 
Q 775 591 1075 516 
Q 1375 441 1709 441 
Q 2250 441 2565 725 
Q 2881 1009 2881 1497 
Q 2881 1984 2565 2268 
Q 2250 2553 1709 2553 
Q 1456 2553 1204 2497 
Q 953 2441 691 2322 
L 691 4666 
z
" transform="scale(0.015625)"/>
       </defs>
       <use xlink:href="#DejaVuSans-35"/>
       <use xlink:href="#DejaVuSans-30" x="63.623047"/>
       <use xlink:href="#DejaVuSans-30" x="127.246094"/>
      </g>
     </g>
    </g>
    <g id="xtick_7">
     <g id="line2d_7">
      <g>
       <use xlink:href="#m4eb2912394" x="705.489935" y="1281.6" style="stroke: #000000; stroke-width: 0.8"/>
      </g>
     </g>
     <g id="text_7">
      <!-- 600 -->
      <g transform="translate(695.946185 1296.198437) scale(0.1 -0.1)">
       <defs>
        <path id="DejaVuSans-36" d="M 2113 2584 
Q 1688 2584 1439 2293 
Q 1191 2003 1191 1497 
Q 1191 994 1439 701 
Q 1688 409 2113 409 
Q 2538 409 2786 701 
Q 3034 994 3034 1497 
Q 3034 2003 2786 2293 
Q 2538 2584 2113 2584 
z
M 3366 4563 
L 3366 3988 
Q 3128 4100 2886 4159 
Q 2644 4219 2406 4219 
Q 1781 4219 1451 3797 
Q 1122 3375 1075 2522 
Q 1259 2794 1537 2939 
Q 1816 3084 2150 3084 
Q 2853 3084 3261 2657 
Q 3669 2231 3669 1497 
Q 3669 778 3244 343 
Q 2819 -91 2113 -91 
Q 1303 -91 875 529 
Q 447 1150 447 2328 
Q 447 3434 972 4092 
Q 1497 4750 2381 4750 
Q 2619 4750 2861 4703 
Q 3103 4656 3366 4563 
z
" transform="scale(0.015625)"/>
       </defs>
       <use xlink:href="#DejaVuSans-36"/>
       <use xlink:href="#DejaVuSans-30" x="63.623047"/>
       <use xlink:href="#DejaVuSans-30" x="127.246094"/>
      </g>
     </g>
    </g>
   </g>
   <g id="matplotlib.axis_2">
    <g id="ytick_1">
     <g id="line2d_8">
      <defs>
       <path id="m86a77213d3" d="M 0 0 
L -3.5 0 
" style="stroke: #000000; stroke-width: 0.8"/>
      </defs>
      <g>
       <use xlink:href="#m86a77213d3" x="270" y="1213.890629" style="stroke: #000000; stroke-width: 0.8"/>
      </g>
     </g>
     <g id="text_8">
      <!-- −6 -->
      <g transform="translate(248.257812 1217.689848) scale(0.1 -0.1)">
       <defs>
        <path id="DejaVuSans-2212" d="M 678 2272 
L 4684 2272 
L 4684 1741 
L 678 1741 
L 678 2272 
z
" transform="scale(0.015625)"/>
       </defs>
       <use xlink:href="#DejaVuSans-2212"/>
       <use xlink:href="#DejaVuSans-36" x="83.789062"/>
      </g>
     </g>
    </g>
    <g id="ytick_2">
     <g id="line2d_9">
      <g>
       <use xlink:href="#m86a77213d3" x="270" y="1054.101818" style="stroke: #000000; stroke-width: 0.8"/>
      </g>
     </g>
     <g id="text_9">
      <!-- −5 -->
      <g transform="translate(248.257812 1057.901037) scale(0.1 -0.1)">
       <use xlink:href="#DejaVuSans-2212"/>
       <use xlink:href="#DejaVuSans-35" x="83.789062"/>
      </g>
     </g>
    </g>
    <g id="ytick_3">
     <g id="line2d_10">
      <g>
       <use xlink:href="#m86a77213d3" x="270" y="894.313007" style="stroke: #000000; stroke-width: 0.8"/>
      </g>
     </g>
     <g id="text_10">
      <!-- −4 -->
      <g transform="translate(248.257812 898.112226) scale(0.1 -0.1)">
       <use xlink:href="#DejaVuSans-2212"/>
       <use xlink:href="#DejaVuSans-34" x="83.789062"/>
      </g>
     </g>
    </g>
    <g id="ytick_4">
     <g id="line2d_11">
      <g>
       <use xlink:href="#m86a77213d3" x="270" y="734.524196" style="stroke: #000000; stroke-width: 0.8"/>
      </g>
     </g>
     <g id="text_11">
      <!-- −3 -->
      <g transform="translate(248.257812 738.323415) scale(0.1 -0.1)">
       <use xlink:href="#DejaVuSans-2212"/>
       <use xlink:href="#DejaVuSans-33" x="83.789062"/>
      </g>
     </g>
    </g>
    <g id="ytick_5">
     <g id="line2d_12">
      <g>
       <use xlink:href="#m86a77213d3" x="270" y="574.735385" style="stroke: #000000; stroke-width: 0.8"/>
      </g>
     </g>
     <g id="text_12">
      <!-- −2 -->
      <g transform="translate(248.257812 578.534603) scale(0.1 -0.1)">
       <use xlink:href="#DejaVuSans-2212"/>
       <use xlink:href="#DejaVuSans-32" x="83.789062"/>
      </g>
     </g>
    </g>
    <g id="ytick_6">
     <g id="line2d_13">
      <g>
       <use xlink:href="#m86a77213d3" x="270" y="414.946573" style="stroke: #000000; stroke-width: 0.8"/>
      </g>
     </g>
     <g id="text_13">
      <!-- −1 -->
      <g transform="translate(248.257812 418.745792) scale(0.1 -0.1)">
       <use xlink:href="#DejaVuSans-2212"/>
       <use xlink:href="#DejaVuSans-31" x="83.789062"/>
      </g>
     </g>
    </g>
    <g id="ytick_7">
     <g id="line2d_14">
      <g>
       <use xlink:href="#m86a77213d3" x="270" y="255.157762" style="stroke: #000000; stroke-width: 0.8"/>
      </g>
     </g>
     <g id="text_14">
      <!-- 0 -->
      <g transform="translate(256.6375 258.956981) scale(0.1 -0.1)">
       <use xlink:href="#DejaVuSans-30"/>
      </g>
     </g>
    </g>
   </g>
   <g id="line2d_15">
    <path d="M 292.379679 255.157762 
L 326.863006 255.157762 
L 327.552673 223.2 
L 329.621672 223.2 
L 330.311339 244.505175 
L 332.380338 244.505175 
L 333.070005 280.723972 
L 335.139004 280.723972 
L 335.828671 284.821121 
L 337.897671 284.821121 
L 338.587337 325.441427 
L 340.656337 325.441427 
L 341.346003 343.097104 
L 343.415003 343.097104 
L 344.104669 361.992765 
L 346.173669 361.992765 
L 346.863336 378.587265 
L 348.932335 378.587265 
L 349.622002 400.111708 
L 351.691001 400.111708 
L 352.380668 416.490788 
L 357.208334 416.490788 
L 357.898 402.931222 
L 362.725666 402.931222 
L 363.415333 422.209387 
L 365.484332 422.209387 
L 366.173999 405.919825 
L 368.242998 405.919825 
L 368.932665 392.778815 
L 373.760331 392.778815 
L 374.449997 396.078897 
L 376.518997 396.078897 
L 377.208663 379.861215 
L 382.036329 379.861215 
L 382.725996 363.708488 
L 384.794995 363.708488 
L 385.484662 347.617623 
L 387.553661 347.617623 
L 388.243328 362.524867 
L 390.312327 362.524867 
L 391.001994 338.314441 
L 395.82966 338.314441 
L 396.519326 315.877108 
L 398.588326 315.877108 
L 399.277992 329.993729 
L 401.346992 329.993729 
L 402.036659 315.877108 
L 404.105658 315.877108 
L 404.795325 337.441466 
L 409.622991 337.441466 
L 410.312657 352.662637 
L 412.381657 352.662637 
L 413.071323 379.177019 
L 415.140323 379.177019 
L 415.829989 375.192136 
L 417.898989 375.192136 
L 418.588656 385.225828 
L 420.657655 385.225828 
L 421.347322 381.395609 
L 423.416321 381.395609 
L 424.105988 377.65083 
L 426.174987 377.65083 
L 426.864654 384.218189 
L 428.933654 384.218189 
L 429.62332 421.820351 
L 431.69232 421.820351 
L 432.381986 408.418209 
L 434.450986 408.418209 
L 435.140652 418.819053 
L 437.209652 418.819053 
L 437.899319 455.935908 
L 439.968318 455.935908 
L 440.657985 468.612876 
L 442.726984 468.612876 
L 443.416651 479.794512 
L 451.002983 479.794512 
L 451.692649 492.19115 
L 453.761649 492.19115 
L 454.451315 515.769423 
L 456.520315 515.769423 
L 457.209982 503.392505 
L 459.278981 503.392505 
L 459.968648 527.011293 
L 462.037647 527.011293 
L 462.727314 550.412854 
L 464.796314 550.412854 
L 465.48598 561.709819 
L 467.55498 561.709819 
L 468.244646 597.431129 
L 470.313646 597.431129 
L 471.003312 621.434255 
L 473.072312 621.434255 
L 473.761979 657.581461 
L 475.830978 657.581461 
L 476.520645 693.122258 
L 478.589644 693.122258 
L 479.279311 716.998391 
L 481.34831 716.998391 
L 482.037977 729.20906 
L 484.106977 729.20906 
L 484.796643 753.085193 
L 486.865643 753.085193 
L 487.555309 741.583614 
L 489.624309 741.583614 
L 490.313975 718.86227 
L 492.382975 718.86227 
L 493.072642 696.403305 
L 495.141641 696.403305 
L 495.831308 685.173823 
L 497.900307 685.173823 
L 498.589974 709.17726 
L 503.41764 709.284645 
L 504.107306 711.341834 
L 506.176306 711.341834 
L 506.865972 748.731468 
L 511.693638 748.718461 
L 512.383305 727.177828 
L 514.452304 727.177828 
L 515.141971 716.419962 
L 517.21097 716.419962 
L 517.900637 694.939768 
L 519.969637 694.939768 
L 520.659303 719.483263 
L 522.728303 719.483263 
L 523.417969 730.21752 
L 528.245635 730.21752 
L 528.935302 740.951776 
L 531.004301 740.951776 
L 531.693968 730.228499 
L 533.762967 730.228499 
L 534.452634 722.836643 
L 536.521633 722.836643 
L 537.2113 701.620783 
L 539.2803 701.620783 
L 539.969966 705.18601 
L 542.038966 705.18601 
L 542.728632 723.271078 
L 544.797632 723.271078 
L 545.487298 727.251871 
L 547.556298 727.251871 
L 548.245965 716.727191 
L 553.07363 716.727191 
L 553.763297 741.698023 
L 555.832296 741.698023 
L 556.521963 731.319985 
L 558.590963 731.319985 
L 559.280629 720.950216 
L 561.349629 720.950216 
L 562.039295 725.28175 
L 564.108295 725.28175 
L 564.797961 729.701606 
L 566.866961 729.701606 
L 567.556628 744.515204 
L 569.625627 744.515204 
L 570.315294 769.735307 
L 572.384293 769.735307 
L 573.07396 809.901117 
L 575.14296 809.901117 
L 575.832626 835.121216 
L 577.901626 835.121216 
L 578.591292 870.600651 
L 580.660292 870.600651 
L 581.349958 910.78162 
L 583.418958 910.78162 
L 584.108625 946.186987 
L 586.177624 946.186987 
L 586.867291 996.765103 
L 588.93629 996.765103 
L 589.625957 1037.247016 
L 591.694956 1037.247016 
L 592.384623 1047.452136 
L 594.453623 1047.452136 
L 595.143289 1088.033967 
L 597.212289 1088.033967 
L 597.901955 1093.03666 
L 599.970955 1093.03666 
L 600.660621 1123.518731 
L 605.488287 1123.518731 
L 606.177954 1138.757533 
L 611.00562 1138.785699 
L 611.695286 1154.042082 
L 613.764286 1154.042082 
L 614.453952 1143.939725 
L 619.281618 1143.934008 
L 619.971284 1159.300161 
L 622.040284 1159.300161 
L 622.729951 1184.743674 
L 624.79895 1184.743674 
L 625.488617 1164.693519 
L 627.557616 1164.693519 
L 628.247283 1170.221478 
L 630.316283 1170.221478 
L 631.005949 1150.294626 
L 633.074949 1150.294626 
L 633.764615 1120.524593 
L 635.833615 1120.524593 
L 636.523281 1136.15441 
L 638.592281 1136.15441 
L 639.281948 1106.467401 
L 641.350947 1106.467401 
L 642.040614 1132.041847 
L 644.109613 1132.041847 
L 644.79928 1127.96935 
L 652.385612 1127.96935 
L 653.075278 1118.14681 
L 655.144278 1118.14681 
L 655.833944 1098.524342 
L 657.902944 1098.524342 
L 658.592611 1078.915789 
L 660.66161 1078.915789 
L 661.351277 1039.765839 
L 663.420276 1039.765839 
L 664.109943 1000.791752 
L 666.178943 1000.791752 
L 666.868609 971.646774 
L 668.937609 971.646774 
L 669.627275 942.573645 
L 671.696275 942.573645 
L 672.385941 932.899497 
L 674.454941 932.899497 
L 675.144607 903.924688 
L 677.213607 903.924688 
L 677.903274 884.63033 
L 682.730939 884.638179 
L 683.420606 875.008311 
L 685.489606 875.008311 
L 686.179272 846.151248 
L 688.248272 846.151248 
L 688.937938 872.029466 
L 691.006938 872.029466 
L 691.696604 843.224347 
L 693.765604 843.224347 
L 694.455271 875.860184 
L 696.52427 875.860184 
L 697.213937 937.268518 
L 699.282936 937.268518 
L 699.972603 927.691543 
L 702.041602 927.691543 
L 702.731269 924.901328 
L 704.800269 924.901328 
L 705.489935 886.669517 
L 707.558935 886.669517 
L 708.248601 903.083994 
L 710.317601 903.083994 
L 711.007267 945.465933 
L 713.076267 945.465933 
L 713.765934 985.312492 
L 715.834933 985.312492 
L 716.5246 1011.280122 
L 718.593599 1011.280122 
L 719.283266 1056.235117 
L 721.352266 1056.235117 
L 722.041932 1098.725309 
L 724.110932 1098.725309 
L 724.800598 1124.71638 
L 726.869598 1124.71638 
L 727.559264 1141.256425 
L 729.628264 1141.256425 
L 730.317931 1145.982059 
L 732.38693 1145.982059 
L 733.076597 1188.570415 
L 735.145596 1188.570415 
L 735.835263 1224.04221 
L 737.904262 1224.04221 
L 738.593929 1231.2 
L 739.973262 1231.2 
L 739.973262 1231.2 
" clip-path="url(#p4953e5e323)" style="fill: none; stroke: #0000ff; stroke-width: 1.5; stroke-linecap: square"/>
   </g>
   <g id="patch_3">
    <path d="M 270 1281.6 
L 270 172.8 
" style="fill: none; stroke: #000000; stroke-width: 0.8; stroke-linejoin: miter; stroke-linecap: square"/>
   </g>
   <g id="patch_4">
    <path d="M 762.352941 1281.6 
L 762.352941 172.8 
" style="fill: none; stroke: #000000; stroke-width: 0.8; stroke-linejoin: miter; stroke-linecap: square"/>
   </g>
   <g id="patch_5">
    <path d="M 270 1281.6 
L 762.352941 1281.6 
" style="fill: none; stroke: #000000; stroke-width: 0.8; stroke-linejoin: miter; stroke-linecap: square"/>
   </g>
   <g id="patch_6">
    <path d="M 270 172.8 
L 762.352941 172.8 
" style="fill: none; stroke: #000000; stroke-width: 0.8; stroke-linejoin: miter; stroke-linecap: square"/>
   </g>
   <g id="legend_1">
    <g id="patch_7">
     <path d="M 671.310754 195.478125 
L 755.352941 195.478125 
Q 757.352941 195.478125 757.352941 193.478125 
L 757.352941 179.8 
Q 757.352941 177.8 755.352941 177.8 
L 671.310754 177.8 
Q 669.310754 177.8 669.310754 179.8 
L 669.310754 193.478125 
Q 669.310754 195.478125 671.310754 195.478125 
z
" style="fill: #ffffff; opacity: 0.8; stroke: #cccccc; stroke-linejoin: miter"/>
    </g>
    <g id="line2d_16">
     <path d="M 673.310754 185.898437 
L 683.310754 185.898437 
L 693.310754 185.898437 
" style="fill: none; stroke: #0000ff; stroke-width: 1.5; stroke-linecap: square"/>
    </g>
    <g id="text_15">
     <!-- O1 reward -->
     <g transform="translate(701.310754 189.398437) scale(0.1 -0.1)">
      <defs>
       <path id="DejaVuSans-4f" d="M 2522 4238 
Q 1834 4238 1429 3725 
Q 1025 3213 1025 2328 
Q 1025 1447 1429 934 
Q 1834 422 2522 422 
Q 3209 422 3611 934 
Q 4013 1447 4013 2328 
Q 4013 3213 3611 3725 
Q 3209 4238 2522 4238 
z
M 2522 4750 
Q 3503 4750 4090 4092 
Q 4678 3434 4678 2328 
Q 4678 1225 4090 567 
Q 3503 -91 2522 -91 
Q 1538 -91 948 565 
Q 359 1222 359 2328 
Q 359 3434 948 4092 
Q 1538 4750 2522 4750 
z
" transform="scale(0.015625)"/>
       <path id="DejaVuSans-20" transform="scale(0.015625)"/>
       <path id="DejaVuSans-72" d="M 2631 2963 
Q 2534 3019 2420 3045 
Q 2306 3072 2169 3072 
Q 1681 3072 1420 2755 
Q 1159 2438 1159 1844 
L 1159 0 
L 581 0 
L 581 3500 
L 1159 3500 
L 1159 2956 
Q 1341 3275 1631 3429 
Q 1922 3584 2338 3584 
Q 2397 3584 2469 3576 
Q 2541 3569 2628 3553 
L 2631 2963 
z
" transform="scale(0.015625)"/>
       <path id="DejaVuSans-65" d="M 3597 1894 
L 3597 1613 
L 953 1613 
Q 991 1019 1311 708 
Q 1631 397 2203 397 
Q 2534 397 2845 478 
Q 3156 559 3463 722 
L 3463 178 
Q 3153 47 2828 -22 
Q 2503 -91 2169 -91 
Q 1331 -91 842 396 
Q 353 884 353 1716 
Q 353 2575 817 3079 
Q 1281 3584 2069 3584 
Q 2775 3584 3186 3129 
Q 3597 2675 3597 1894 
z
M 3022 2063 
Q 3016 2534 2758 2815 
Q 2500 3097 2075 3097 
Q 1594 3097 1305 2825 
Q 1016 2553 972 2059 
L 3022 2063 
z
" transform="scale(0.015625)"/>
       <path id="DejaVuSans-77" d="M 269 3500 
L 844 3500 
L 1563 769 
L 2278 3500 
L 2956 3500 
L 3675 769 
L 4391 3500 
L 4966 3500 
L 4050 0 
L 3372 0 
L 2619 2869 
L 1863 0 
L 1184 0 
L 269 3500 
z
" transform="scale(0.015625)"/>
       <path id="DejaVuSans-61" d="M 2194 1759 
Q 1497 1759 1228 1600 
Q 959 1441 959 1056 
Q 959 750 1161 570 
Q 1363 391 1709 391 
Q 2188 391 2477 730 
Q 2766 1069 2766 1631 
L 2766 1759 
L 2194 1759 
z
M 3341 1997 
L 3341 0 
L 2766 0 
L 2766 531 
Q 2569 213 2275 61 
Q 1981 -91 1556 -91 
Q 1019 -91 701 211 
Q 384 513 384 1019 
Q 384 1609 779 1909 
Q 1175 2209 1959 2209 
L 2766 2209 
L 2766 2266 
Q 2766 2663 2505 2880 
Q 2244 3097 1772 3097 
Q 1472 3097 1187 3025 
Q 903 2953 641 2809 
L 641 3341 
Q 956 3463 1253 3523 
Q 1550 3584 1831 3584 
Q 2591 3584 2966 3190 
Q 3341 2797 3341 1997 
z
" transform="scale(0.015625)"/>
       <path id="DejaVuSans-64" d="M 2906 2969 
L 2906 4863 
L 3481 4863 
L 3481 0 
L 2906 0 
L 2906 525 
Q 2725 213 2448 61 
Q 2172 -91 1784 -91 
Q 1150 -91 751 415 
Q 353 922 353 1747 
Q 353 2572 751 3078 
Q 1150 3584 1784 3584 
Q 2172 3584 2448 3432 
Q 2725 3281 2906 2969 
z
M 947 1747 
Q 947 1113 1208 752 
Q 1469 391 1925 391 
Q 2381 391 2643 752 
Q 2906 1113 2906 1747 
Q 2906 2381 2643 2742 
Q 2381 3103 1925 3103 
Q 1469 3103 1208 2742 
Q 947 2381 947 1747 
z
" transform="scale(0.015625)"/>
      </defs>
      <use xlink:href="#DejaVuSans-4f"/>
      <use xlink:href="#DejaVuSans-31" x="78.710938"/>
      <use xlink:href="#DejaVuSans-20" x="142.333984"/>
      <use xlink:href="#DejaVuSans-72" x="174.121094"/>
      <use xlink:href="#DejaVuSans-65" x="212.984375"/>
      <use xlink:href="#DejaVuSans-77" x="274.507812"/>
      <use xlink:href="#DejaVuSans-61" x="356.294922"/>
      <use xlink:href="#DejaVuSans-72" x="417.574219"/>
      <use xlink:href="#DejaVuSans-64" x="456.9375"/>
     </g>
    </g>
   </g>
  </g>
  <g id="axes_2">
   <g id="patch_8">
    <path d="M 860.823529 1281.6 
L 1353.176471 1281.6 
L 1353.176471 172.8 
L 860.823529 172.8 
z
" style="fill: #ffffff"/>
   </g>
   <g id="matplotlib.axis_3">
    <g id="xtick_8">
     <g id="line2d_17">
      <g>
       <use xlink:href="#m4eb2912394" x="882.513542" y="1281.6" style="stroke: #000000; stroke-width: 0.8"/>
      </g>
     </g>
     <g id="text_16">
      <!-- 0 -->
      <g transform="translate(879.332292 1296.198437) scale(0.1 -0.1)">
       <use xlink:href="#DejaVuSans-30"/>
      </g>
     </g>
    </g>
    <g id="xtick_9">
     <g id="line2d_18">
      <g>
       <use xlink:href="#m4eb2912394" x="951.480196" y="1281.6" style="stroke: #000000; stroke-width: 0.8"/>
      </g>
     </g>
     <g id="text_17">
      <!-- 100 -->
      <g transform="translate(941.936446 1296.198437) scale(0.1 -0.1)">
       <use xlink:href="#DejaVuSans-31"/>
       <use xlink:href="#DejaVuSans-30" x="63.623047"/>
       <use xlink:href="#DejaVuSans-30" x="127.246094"/>
      </g>
     </g>
    </g>
    <g id="xtick_10">
     <g id="line2d_19">
      <g>
       <use xlink:href="#m4eb2912394" x="1020.44685" y="1281.6" style="stroke: #000000; stroke-width: 0.8"/>
      </g>
     </g>
     <g id="text_18">
      <!-- 200 -->
      <g transform="translate(1010.9031 1296.198437) scale(0.1 -0.1)">
       <use xlink:href="#DejaVuSans-32"/>
       <use xlink:href="#DejaVuSans-30" x="63.623047"/>
       <use xlink:href="#DejaVuSans-30" x="127.246094"/>
      </g>
     </g>
    </g>
    <g id="xtick_11">
     <g id="line2d_20">
      <g>
       <use xlink:href="#m4eb2912394" x="1089.413503" y="1281.6" style="stroke: #000000; stroke-width: 0.8"/>
      </g>
     </g>
     <g id="text_19">
      <!-- 300 -->
      <g transform="translate(1079.869753 1296.198437) scale(0.1 -0.1)">
       <use xlink:href="#DejaVuSans-33"/>
       <use xlink:href="#DejaVuSans-30" x="63.623047"/>
       <use xlink:href="#DejaVuSans-30" x="127.246094"/>
      </g>
     </g>
    </g>
    <g id="xtick_12">
     <g id="line2d_21">
      <g>
       <use xlink:href="#m4eb2912394" x="1158.380157" y="1281.6" style="stroke: #000000; stroke-width: 0.8"/>
      </g>
     </g>
     <g id="text_20">
      <!-- 400 -->
      <g transform="translate(1148.836407 1296.198437) scale(0.1 -0.1)">
       <use xlink:href="#DejaVuSans-34"/>
       <use xlink:href="#DejaVuSans-30" x="63.623047"/>
       <use xlink:href="#DejaVuSans-30" x="127.246094"/>
      </g>
     </g>
    </g>
    <g id="xtick_13">
     <g id="line2d_22">
      <g>
       <use xlink:href="#m4eb2912394" x="1227.346811" y="1281.6" style="stroke: #000000; stroke-width: 0.8"/>
      </g>
     </g>
     <g id="text_21">
      <!-- 500 -->
      <g transform="translate(1217.803061 1296.198437) scale(0.1 -0.1)">
       <use xlink:href="#DejaVuSans-35"/>
       <use xlink:href="#DejaVuSans-30" x="63.623047"/>
       <use xlink:href="#DejaVuSans-30" x="127.246094"/>
      </g>
     </g>
    </g>
    <g id="xtick_14">
     <g id="line2d_23">
      <g>
       <use xlink:href="#m4eb2912394" x="1296.313465" y="1281.6" style="stroke: #000000; stroke-width: 0.8"/>
      </g>
     </g>
     <g id="text_22">
      <!-- 600 -->
      <g transform="translate(1286.769715 1296.198437) scale(0.1 -0.1)">
       <use xlink:href="#DejaVuSans-36"/>
       <use xlink:href="#DejaVuSans-30" x="63.623047"/>
       <use xlink:href="#DejaVuSans-30" x="127.246094"/>
      </g>
     </g>
    </g>
   </g>
   <g id="matplotlib.axis_4">
    <g id="ytick_8">
     <g id="line2d_24">
      <g>
       <use xlink:href="#m86a77213d3" x="860.823529" y="1231.2" style="stroke: #000000; stroke-width: 0.8"/>
      </g>
     </g>
     <g id="text_23">
      <!-- 0 -->
      <g transform="translate(847.461029 1234.999219) scale(0.1 -0.1)">
       <use xlink:href="#DejaVuSans-30"/>
      </g>
     </g>
    </g>
    <g id="ytick_9">
     <g id="line2d_25">
      <g>
       <use xlink:href="#m86a77213d3" x="860.823529" y="1089.226869" style="stroke: #000000; stroke-width: 0.8"/>
      </g>
     </g>
     <g id="text_24">
      <!-- 10 -->
      <g transform="translate(841.098529 1093.026088) scale(0.1 -0.1)">
       <use xlink:href="#DejaVuSans-31"/>
       <use xlink:href="#DejaVuSans-30" x="63.623047"/>
      </g>
     </g>
    </g>
    <g id="ytick_10">
     <g id="line2d_26">
      <g>
       <use xlink:href="#m86a77213d3" x="860.823529" y="947.253738" style="stroke: #000000; stroke-width: 0.8"/>
      </g>
     </g>
     <g id="text_25">
      <!-- 20 -->
      <g transform="translate(841.098529 951.052956) scale(0.1 -0.1)">
       <use xlink:href="#DejaVuSans-32"/>
       <use xlink:href="#DejaVuSans-30" x="63.623047"/>
      </g>
     </g>
    </g>
    <g id="ytick_11">
     <g id="line2d_27">
      <g>
       <use xlink:href="#m86a77213d3" x="860.823529" y="805.280607" style="stroke: #000000; stroke-width: 0.8"/>
      </g>
     </g>
     <g id="text_26">
      <!-- 30 -->
      <g transform="translate(841.098529 809.079825) scale(0.1 -0.1)">
       <use xlink:href="#DejaVuSans-33"/>
       <use xlink:href="#DejaVuSans-30" x="63.623047"/>
      </g>
     </g>
    </g>
    <g id="ytick_12">
     <g id="line2d_28">
      <g>
       <use xlink:href="#m86a77213d3" x="860.823529" y="663.307475" style="stroke: #000000; stroke-width: 0.8"/>
      </g>
     </g>
     <g id="text_27">
      <!-- 40 -->
      <g transform="translate(841.098529 667.106694) scale(0.1 -0.1)">
       <use xlink:href="#DejaVuSans-34"/>
       <use xlink:href="#DejaVuSans-30" x="63.623047"/>
      </g>
     </g>
    </g>
    <g id="ytick_13">
     <g id="line2d_29">
      <g>
       <use xlink:href="#m86a77213d3" x="860.823529" y="521.334344" style="stroke: #000000; stroke-width: 0.8"/>
      </g>
     </g>
     <g id="text_28">
      <!-- 50 -->
      <g transform="translate(841.098529 525.133563) scale(0.1 -0.1)">
       <use xlink:href="#DejaVuSans-35"/>
       <use xlink:href="#DejaVuSans-30" x="63.623047"/>
      </g>
     </g>
    </g>
    <g id="ytick_14">
     <g id="line2d_30">
      <g>
       <use xlink:href="#m86a77213d3" x="860.823529" y="379.361213" style="stroke: #000000; stroke-width: 0.8"/>
      </g>
     </g>
     <g id="text_29">
      <!-- 60 -->
      <g transform="translate(841.098529 383.160432) scale(0.1 -0.1)">
       <use xlink:href="#DejaVuSans-36"/>
       <use xlink:href="#DejaVuSans-30" x="63.623047"/>
      </g>
     </g>
    </g>
    <g id="ytick_15">
     <g id="line2d_31">
      <g>
       <use xlink:href="#m86a77213d3" x="860.823529" y="237.388082" style="stroke: #000000; stroke-width: 0.8"/>
      </g>
     </g>
     <g id="text_30">
      <!-- 70 -->
      <g transform="translate(841.098529 241.187301) scale(0.1 -0.1)">
       <defs>
        <path id="DejaVuSans-37" d="M 525 4666 
L 3525 4666 
L 3525 4397 
L 1831 0 
L 1172 0 
L 2766 4134 
L 525 4134 
L 525 4666 
z
" transform="scale(0.015625)"/>
       </defs>
       <use xlink:href="#DejaVuSans-37"/>
       <use xlink:href="#DejaVuSans-30" x="63.623047"/>
      </g>
     </g>
    </g>
   </g>
   <g id="line2d_32">
    <path d="M 883.203209 1231.2 
L 914.927869 1231.095037 
L 915.617536 1225.37523 
L 917.686535 1225.37523 
L 918.376202 1227.616966 
L 920.445202 1227.616966 
L 921.134868 1226.283806 
L 923.203868 1226.283806 
L 923.893534 1228.911961 
L 925.962534 1228.911961 
L 926.6522 1217.104233 
L 928.7212 1217.104233 
L 929.410867 1199.205458 
L 931.479866 1199.205458 
L 932.169533 1190.301195 
L 934.238532 1190.301195 
L 934.928199 1166.846569 
L 936.997198 1166.846569 
L 937.686865 1145.230323 
L 950.790529 1145.230323 
L 951.480196 1135.848528 
L 959.066528 1135.848528 
L 959.756194 1125.842676 
L 967.342526 1125.842676 
L 968.032193 1112.209875 
L 970.101192 1112.209875 
L 970.790859 1108.381894 
L 972.859858 1108.381894 
L 973.549525 1104.169656 
L 978.377191 1104.169656 
L 979.066857 1078.313707 
L 981.135857 1078.313707 
L 981.825523 1037.653066 
L 983.894523 1037.653066 
L 984.58419 1026.821457 
L 986.653189 1026.821457 
L 987.342856 1005.963428 
L 989.411855 1005.963428 
L 990.101522 955.471575 
L 992.170521 955.471575 
L 992.860188 920.329166 
L 1022.515849 920.329166 
L 1023.205516 909.967122 
L 1030.791848 909.967122 
L 1031.481514 899.757359 
L 1033.550514 899.757359 
L 1034.24018 889.440849 
L 1036.30918 889.440849 
L 1036.998846 879.02033 
L 1041.826512 879.02033 
L 1042.516179 875.342378 
L 1052.861177 875.342378 
L 1053.550843 871.565584 
L 1055.619843 871.565584 
L 1056.309509 846.494387 
L 1058.378509 846.494387 
L 1059.068176 827.347947 
L 1061.137175 827.347947 
L 1061.826842 784.915541 
L 1063.895841 784.915541 
L 1064.585508 747.586701 
L 1066.654508 747.586701 
L 1067.344174 718.164396 
L 1069.413174 718.164396 
L 1070.10284 681.983441 
L 1072.17184 681.983441 
L 1072.861506 638.039929 
L 1074.930506 638.039929 
L 1075.620173 618.38722 
L 1077.689172 618.38722 
L 1078.378839 591.169418 
L 1085.965171 591.169418 
L 1086.654837 585.024747 
L 1088.723837 585.024747 
L 1089.413503 572.318901 
L 1091.482503 572.318901 
L 1092.172169 581.087406 
L 1094.241169 581.087406 
L 1094.930836 585.258015 
L 1096.999835 585.258015 
L 1097.689502 593.921704 
L 1099.758501 593.921704 
L 1100.448168 598.393694 
L 1102.517168 598.393694 
L 1103.206834 602.457322 
L 1105.275834 602.457322 
L 1105.9655 589.938232 
L 1110.793166 589.938232 
L 1111.482832 581.42498 
L 1113.551832 581.42498 
L 1114.241499 577.502845 
L 1116.310498 577.502845 
L 1117.000165 565.203708 
L 1119.069164 565.203708 
L 1119.758831 540.942414 
L 1121.827831 540.942414 
L 1122.517497 529.326255 
L 1124.586497 529.326255 
L 1125.276163 519.227542 
L 1127.345163 519.227542 
L 1128.034829 512.689734 
L 1130.103829 512.689734 
L 1130.793496 501.951449 
L 1132.862495 501.951449 
L 1133.552162 512.583682 
L 1135.621161 512.583682 
L 1136.310828 536.402387 
L 1138.379827 536.402387 
L 1139.069494 528.936574 
L 1141.138494 528.936574 
L 1141.82816 508.453069 
L 1143.89716 508.453069 
L 1144.586826 491.073467 
L 1146.655826 491.073467 
L 1147.345492 493.583205 
L 1149.414492 493.583205 
L 1150.104159 477.077465 
L 1152.173158 477.077465 
L 1152.862825 462.893615 
L 1154.931824 462.893615 
L 1155.621491 460.594587 
L 1160.449157 460.510526 
L 1161.138823 462.742422 
L 1163.207823 462.742422 
L 1163.897489 458.375025 
L 1165.966489 458.375025 
L 1166.656156 444.741785 
L 1168.725155 444.741785 
L 1169.414822 446.789018 
L 1171.483821 446.789018 
L 1172.173488 442.150798 
L 1174.242487 442.150798 
L 1174.932154 428.867188 
L 1177.001154 428.867188 
L 1177.69082 420.334288 
L 1179.75982 420.334288 
L 1180.449486 411.870094 
L 1182.518486 411.870094 
L 1183.208152 407.261277 
L 1185.277152 407.261277 
L 1185.966819 404.52497 
L 1190.794484 404.52497 
L 1191.484151 421.074418 
L 1193.55315 421.074418 
L 1194.242817 429.225781 
L 1196.311817 429.225781 
L 1197.001483 426.32572 
L 1199.070483 426.32572 
L 1199.760149 432.548907 
L 1201.829149 432.548907 
L 1202.518815 434.090625 
L 1204.587815 434.090625 
L 1205.277482 450.961576 
L 1207.346481 450.961576 
L 1208.036148 454.182685 
L 1210.105147 454.182685 
L 1210.794814 467.662841 
L 1212.863814 467.662841 
L 1213.55348 467.005323 
L 1215.62248 467.005323 
L 1216.312146 453.873381 
L 1218.381146 453.873381 
L 1219.070812 445.469045 
L 1221.139812 445.469045 
L 1221.829479 444.22654 
L 1223.898478 444.22654 
L 1224.588145 437.180105 
L 1226.657144 437.180105 
L 1227.346811 425.560306 
L 1229.41581 425.560306 
L 1230.105477 430.21453 
L 1232.174477 430.21453 
L 1232.864143 434.861021 
L 1234.933143 434.861021 
L 1235.622809 433.754503 
L 1237.691809 433.754503 
L 1238.381475 429.092468 
L 1240.450475 429.092468 
L 1241.140142 416.585186 
L 1243.209141 416.585186 
L 1243.898808 408.824692 
L 1248.726473 408.824692 
L 1249.41614 402.180547 
L 1251.48514 402.180547 
L 1252.174806 409.702835 
L 1254.243806 409.702835 
L 1254.933472 422.627402 
L 1257.002472 422.627402 
L 1257.692138 426.451455 
L 1259.761138 426.451455 
L 1260.450805 425.677677 
L 1262.519804 425.677677 
L 1263.209471 424.174189 
L 1265.27847 424.174189 
L 1265.968137 427.432999 
L 1268.037137 427.432999 
L 1268.726803 415.50236 
L 1270.795803 415.50236 
L 1271.485469 386.211493 
L 1273.554469 386.211493 
L 1274.244135 368.945106 
L 1276.313135 368.945106 
L 1277.002802 346.238157 
L 1279.071801 346.238157 
L 1279.761468 323.38414 
L 1281.830467 323.38414 
L 1282.520134 301.737203 
L 1284.589133 301.737203 
L 1285.2788 290.432483 
L 1287.3478 290.432483 
L 1288.037466 274.605889 
L 1290.106466 274.605889 
L 1290.796132 253.277932 
L 1292.865132 253.277932 
L 1293.554798 242.743923 
L 1295.623798 242.743923 
L 1296.313465 227.11125 
L 1298.382464 227.11125 
L 1299.072131 232.526433 
L 1301.14113 232.526433 
L 1301.830797 223.2 
L 1303.899796 223.2 
L 1304.589463 238.268956 
L 1306.658463 238.268956 
L 1307.348129 238.693825 
L 1309.417129 238.693825 
L 1310.106795 239.045546 
L 1312.175795 239.045546 
L 1312.865461 234.546433 
L 1314.934461 234.546433 
L 1315.624128 234.702585 
L 1317.693127 234.702585 
L 1318.382794 234.987698 
L 1320.451793 234.987698 
L 1321.14146 249.644271 
L 1323.21046 249.644271 
L 1323.900126 259.176644 
L 1325.969126 259.176644 
L 1326.658792 263.839956 
L 1328.727792 263.839956 
L 1329.417458 259.168977 
L 1330.796791 259.168977 
L 1330.796791 259.168977 
" clip-path="url(#pf71490cc95)" style="fill: none; stroke: #0000ff; stroke-width: 1.5; stroke-linecap: square"/>
   </g>
   <g id="patch_9">
    <path d="M 860.823529 1281.6 
L 860.823529 172.8 
" style="fill: none; stroke: #000000; stroke-width: 0.8; stroke-linejoin: miter; stroke-linecap: square"/>
   </g>
   <g id="patch_10">
    <path d="M 1353.176471 1281.6 
L 1353.176471 172.8 
" style="fill: none; stroke: #000000; stroke-width: 0.8; stroke-linejoin: miter; stroke-linecap: square"/>
   </g>
   <g id="patch_11">
    <path d="M 860.823529 1281.6 
L 1353.176471 1281.6 
" style="fill: none; stroke: #000000; stroke-width: 0.8; stroke-linejoin: miter; stroke-linecap: square"/>
   </g>
   <g id="patch_12">
    <path d="M 860.823529 172.8 
L 1353.176471 172.8 
" style="fill: none; stroke: #000000; stroke-width: 0.8; stroke-linejoin: miter; stroke-linecap: square"/>
   </g>
   <g id="legend_2">
    <g id="patch_13">
     <path d="M 1262.134283 195.478125 
L 1346.176471 195.478125 
Q 1348.176471 195.478125 1348.176471 193.478125 
L 1348.176471 179.8 
Q 1348.176471 177.8 1346.176471 177.8 
L 1262.134283 177.8 
Q 1260.134283 177.8 1260.134283 179.8 
L 1260.134283 193.478125 
Q 1260.134283 195.478125 1262.134283 195.478125 
z
" style="fill: #ffffff; opacity: 0.8; stroke: #cccccc; stroke-linejoin: miter"/>
    </g>
    <g id="line2d_33">
     <path d="M 1264.134283 185.898437 
L 1274.134283 185.898437 
L 1284.134283 185.898437 
" style="fill: none; stroke: #0000ff; stroke-width: 1.5; stroke-linecap: square"/>
    </g>
    <g id="text_31">
     <!-- O2 reward -->
     <g transform="translate(1292.134283 189.398437) scale(0.1 -0.1)">
      <use xlink:href="#DejaVuSans-4f"/>
      <use xlink:href="#DejaVuSans-32" x="78.710938"/>
      <use xlink:href="#DejaVuSans-20" x="142.333984"/>
      <use xlink:href="#DejaVuSans-72" x="174.121094"/>
      <use xlink:href="#DejaVuSans-65" x="212.984375"/>
      <use xlink:href="#DejaVuSans-77" x="274.507812"/>
      <use xlink:href="#DejaVuSans-61" x="356.294922"/>
      <use xlink:href="#DejaVuSans-72" x="417.574219"/>
      <use xlink:href="#DejaVuSans-64" x="456.9375"/>
     </g>
    </g>
   </g>
  </g>
  <g id="axes_3">
   <g id="patch_14">
    <path d="M 1451.647059 1281.6 
L 1944 1281.6 
L 1944 172.8 
L 1451.647059 172.8 
z
" style="fill: #ffffff"/>
   </g>
   <g id="matplotlib.axis_5">
    <g id="xtick_15">
     <g id="line2d_34">
      <g>
       <use xlink:href="#m4eb2912394" x="1473.337071" y="1281.6" style="stroke: #000000; stroke-width: 0.8"/>
      </g>
     </g>
     <g id="text_32">
      <!-- 0 -->
      <g transform="translate(1470.155821 1296.198437) scale(0.1 -0.1)">
       <use xlink:href="#DejaVuSans-30"/>
      </g>
     </g>
    </g>
    <g id="xtick_16">
     <g id="line2d_35">
      <g>
       <use xlink:href="#m4eb2912394" x="1542.303725" y="1281.6" style="stroke: #000000; stroke-width: 0.8"/>
      </g>
     </g>
     <g id="text_33">
      <!-- 100 -->
      <g transform="translate(1532.759975 1296.198437) scale(0.1 -0.1)">
       <use xlink:href="#DejaVuSans-31"/>
       <use xlink:href="#DejaVuSans-30" x="63.623047"/>
       <use xlink:href="#DejaVuSans-30" x="127.246094"/>
      </g>
     </g>
    </g>
    <g id="xtick_17">
     <g id="line2d_36">
      <g>
       <use xlink:href="#m4eb2912394" x="1611.270379" y="1281.6" style="stroke: #000000; stroke-width: 0.8"/>
      </g>
     </g>
     <g id="text_34">
      <!-- 200 -->
      <g transform="translate(1601.726629 1296.198437) scale(0.1 -0.1)">
       <use xlink:href="#DejaVuSans-32"/>
       <use xlink:href="#DejaVuSans-30" x="63.623047"/>
       <use xlink:href="#DejaVuSans-30" x="127.246094"/>
      </g>
     </g>
    </g>
    <g id="xtick_18">
     <g id="line2d_37">
      <g>
       <use xlink:href="#m4eb2912394" x="1680.237033" y="1281.6" style="stroke: #000000; stroke-width: 0.8"/>
      </g>
     </g>
     <g id="text_35">
      <!-- 300 -->
      <g transform="translate(1670.693283 1296.198437) scale(0.1 -0.1)">
       <use xlink:href="#DejaVuSans-33"/>
       <use xlink:href="#DejaVuSans-30" x="63.623047"/>
       <use xlink:href="#DejaVuSans-30" x="127.246094"/>
      </g>
     </g>
    </g>
    <g id="xtick_19">
     <g id="line2d_38">
      <g>
       <use xlink:href="#m4eb2912394" x="1749.203686" y="1281.6" style="stroke: #000000; stroke-width: 0.8"/>
      </g>
     </g>
     <g id="text_36">
      <!-- 400 -->
      <g transform="translate(1739.659936 1296.198437) scale(0.1 -0.1)">
       <use xlink:href="#DejaVuSans-34"/>
       <use xlink:href="#DejaVuSans-30" x="63.623047"/>
       <use xlink:href="#DejaVuSans-30" x="127.246094"/>
      </g>
     </g>
    </g>
    <g id="xtick_20">
     <g id="line2d_39">
      <g>
       <use xlink:href="#m4eb2912394" x="1818.17034" y="1281.6" style="stroke: #000000; stroke-width: 0.8"/>
      </g>
     </g>
     <g id="text_37">
      <!-- 500 -->
      <g transform="translate(1808.62659 1296.198437) scale(0.1 -0.1)">
       <use xlink:href="#DejaVuSans-35"/>
       <use xlink:href="#DejaVuSans-30" x="63.623047"/>
       <use xlink:href="#DejaVuSans-30" x="127.246094"/>
      </g>
     </g>
    </g>
    <g id="xtick_21">
     <g id="line2d_40">
      <g>
       <use xlink:href="#m4eb2912394" x="1887.136994" y="1281.6" style="stroke: #000000; stroke-width: 0.8"/>
      </g>
     </g>
     <g id="text_38">
      <!-- 600 -->
      <g transform="translate(1877.593244 1296.198437) scale(0.1 -0.1)">
       <use xlink:href="#DejaVuSans-36"/>
       <use xlink:href="#DejaVuSans-30" x="63.623047"/>
       <use xlink:href="#DejaVuSans-30" x="127.246094"/>
      </g>
     </g>
    </g>
   </g>
   <g id="matplotlib.axis_6">
    <g id="ytick_16">
     <g id="line2d_41">
      <g>
       <use xlink:href="#m86a77213d3" x="1451.647059" y="1231.2" style="stroke: #000000; stroke-width: 0.8"/>
      </g>
     </g>
     <g id="text_39">
      <!-- 0.0 -->
      <g transform="translate(1428.743934 1234.999219) scale(0.1 -0.1)">
       <defs>
        <path id="DejaVuSans-2e" d="M 684 794 
L 1344 794 
L 1344 0 
L 684 0 
L 684 794 
z
" transform="scale(0.015625)"/>
       </defs>
       <use xlink:href="#DejaVuSans-30"/>
       <use xlink:href="#DejaVuSans-2e" x="63.623047"/>
       <use xlink:href="#DejaVuSans-30" x="95.410156"/>
      </g>
     </g>
    </g>
    <g id="ytick_17">
     <g id="line2d_42">
      <g>
       <use xlink:href="#m86a77213d3" x="1451.647059" y="1077.360062" style="stroke: #000000; stroke-width: 0.8"/>
      </g>
     </g>
     <g id="text_40">
      <!-- 2.5 -->
      <g transform="translate(1428.743934 1081.159281) scale(0.1 -0.1)">
       <use xlink:href="#DejaVuSans-32"/>
       <use xlink:href="#DejaVuSans-2e" x="63.623047"/>
       <use xlink:href="#DejaVuSans-35" x="95.410156"/>
      </g>
     </g>
    </g>
    <g id="ytick_18">
     <g id="line2d_43">
      <g>
       <use xlink:href="#m86a77213d3" x="1451.647059" y="923.520124" style="stroke: #000000; stroke-width: 0.8"/>
      </g>
     </g>
     <g id="text_41">
      <!-- 5.0 -->
      <g transform="translate(1428.743934 927.319342) scale(0.1 -0.1)">
       <use xlink:href="#DejaVuSans-35"/>
       <use xlink:href="#DejaVuSans-2e" x="63.623047"/>
       <use xlink:href="#DejaVuSans-30" x="95.410156"/>
      </g>
     </g>
    </g>
    <g id="ytick_19">
     <g id="line2d_44">
      <g>
       <use xlink:href="#m86a77213d3" x="1451.647059" y="769.680185" style="stroke: #000000; stroke-width: 0.8"/>
      </g>
     </g>
     <g id="text_42">
      <!-- 7.5 -->
      <g transform="translate(1428.743934 773.479404) scale(0.1 -0.1)">
       <use xlink:href="#DejaVuSans-37"/>
       <use xlink:href="#DejaVuSans-2e" x="63.623047"/>
       <use xlink:href="#DejaVuSans-35" x="95.410156"/>
      </g>
     </g>
    </g>
    <g id="ytick_20">
     <g id="line2d_45">
      <g>
       <use xlink:href="#m86a77213d3" x="1451.647059" y="615.840247" style="stroke: #000000; stroke-width: 0.8"/>
      </g>
     </g>
     <g id="text_43">
      <!-- 10.0 -->
      <g transform="translate(1422.381434 619.639466) scale(0.1 -0.1)">
       <use xlink:href="#DejaVuSans-31"/>
       <use xlink:href="#DejaVuSans-30" x="63.623047"/>
       <use xlink:href="#DejaVuSans-2e" x="127.246094"/>
       <use xlink:href="#DejaVuSans-30" x="159.033203"/>
      </g>
     </g>
    </g>
    <g id="ytick_21">
     <g id="line2d_46">
      <g>
       <use xlink:href="#m86a77213d3" x="1451.647059" y="462.000309" style="stroke: #000000; stroke-width: 0.8"/>
      </g>
     </g>
     <g id="text_44">
      <!-- 12.5 -->
      <g transform="translate(1422.381434 465.799528) scale(0.1 -0.1)">
       <use xlink:href="#DejaVuSans-31"/>
       <use xlink:href="#DejaVuSans-32" x="63.623047"/>
       <use xlink:href="#DejaVuSans-2e" x="127.246094"/>
       <use xlink:href="#DejaVuSans-35" x="159.033203"/>
      </g>
     </g>
    </g>
    <g id="ytick_22">
     <g id="line2d_47">
      <g>
       <use xlink:href="#m86a77213d3" x="1451.647059" y="308.160371" style="stroke: #000000; stroke-width: 0.8"/>
      </g>
     </g>
     <g id="text_45">
      <!-- 15.0 -->
      <g transform="translate(1422.381434 311.95959) scale(0.1 -0.1)">
       <use xlink:href="#DejaVuSans-31"/>
       <use xlink:href="#DejaVuSans-35" x="63.623047"/>
       <use xlink:href="#DejaVuSans-2e" x="127.246094"/>
       <use xlink:href="#DejaVuSans-30" x="159.033203"/>
      </g>
     </g>
    </g>
   </g>
   <g id="line2d_48">
    <path d="M 1474.026738 1231.2 
L 1502.992733 1231.2 
L 1503.682399 1207.200798 
L 1505.751399 1207.200798 
L 1506.441065 1188.023714 
L 1508.510065 1188.023714 
L 1509.199731 1171.711797 
L 1511.268731 1171.711797 
L 1511.958398 1147.536949 
L 1514.027397 1147.536949 
L 1514.717064 1139.40763 
L 1516.786063 1139.40763 
L 1517.47573 1107.759077 
L 1519.544729 1107.759077 
L 1520.234396 1116.95425 
L 1522.303396 1116.95425 
L 1522.993062 1098.943064 
L 1525.062062 1098.943064 
L 1525.751728 1081.184333 
L 1527.820728 1081.184333 
L 1528.510394 1069.137722 
L 1530.579394 1069.137722 
L 1531.269061 1048.735151 
L 1533.33806 1048.735151 
L 1534.027727 1029.583473 
L 1536.096726 1029.583473 
L 1536.786393 1017.715675 
L 1541.614059 1017.715675 
L 1542.303725 1012.491575 
L 1544.372725 1012.491575 
L 1545.062391 1001.052195 
L 1547.131391 1001.052195 
L 1547.821057 994.681521 
L 1552.648723 994.681521 
L 1553.33839 989.925732 
L 1555.407389 989.925732 
L 1556.097056 979.506943 
L 1560.924722 979.506943 
L 1561.614388 975.14248 
L 1563.683388 975.14248 
L 1564.373054 956.743397 
L 1566.442054 956.743397 
L 1567.131721 930.925919 
L 1569.20072 930.925919 
L 1569.890387 912.839148 
L 1571.959386 912.839148 
L 1572.649053 900.803876 
L 1574.718052 900.803876 
L 1575.407719 867.231689 
L 1577.476719 867.231689 
L 1578.166385 850.528778 
L 1580.235385 850.528778 
L 1580.925051 845.285253 
L 1582.994051 845.285253 
L 1583.683717 828.931616 
L 1585.752717 828.931616 
L 1586.442384 818.040018 
L 1588.511383 818.040018 
L 1589.20105 808.74597 
L 1591.270049 808.74597 
L 1591.959716 792.498781 
L 1594.028716 792.498781 
L 1594.718382 785.87826 
L 1596.787382 785.87826 
L 1597.477048 771.076859 
L 1602.304714 770.97084 
L 1602.99438 775.156982 
L 1605.06338 775.156982 
L 1605.753047 777.750192 
L 1607.822046 777.750192 
L 1608.511713 771.67704 
L 1610.580712 771.67704 
L 1611.270379 774.225415 
L 1613.339379 774.225415 
L 1614.029045 770.65725 
L 1616.098045 770.65725 
L 1616.787711 774.664007 
L 1618.856711 774.664007 
L 1619.546377 770.906527 
L 1624.374043 770.906527 
L 1625.06371 767.077363 
L 1627.132709 767.077363 
L 1627.822376 755.773938 
L 1629.891375 755.773938 
L 1630.581042 745.971314 
L 1632.650042 745.971314 
L 1633.339708 751.951792 
L 1635.408708 751.951792 
L 1636.098374 754.346445 
L 1643.684706 754.346445 
L 1644.374373 743.192616 
L 1646.443372 743.192616 
L 1647.133039 722.208019 
L 1649.202039 722.208019 
L 1649.891705 712.031879 
L 1651.960705 712.031879 
L 1652.650371 704.842766 
L 1654.719371 704.842766 
L 1655.409037 700.129891 
L 1657.478037 700.129891 
L 1658.167704 688.874969 
L 1660.236703 688.874969 
L 1660.92637 681.323851 
L 1662.995369 681.323851 
L 1663.685036 675.46345 
L 1665.754035 675.46345 
L 1666.443702 663.467122 
L 1668.512702 663.467122 
L 1669.202368 656.362969 
L 1671.271368 656.362969 
L 1671.961034 646.561831 
L 1674.030034 646.561831 
L 1674.7197 643.870159 
L 1676.7887 643.870159 
L 1677.478367 632.814591 
L 1679.547366 632.814591 
L 1680.237033 623.654112 
L 1682.306032 623.654112 
L 1682.995699 614.655215 
L 1685.064698 614.655215 
L 1685.754365 606.01449 
L 1690.582031 606.01449 
L 1691.271697 600.007407 
L 1693.340697 600.007407 
L 1694.030363 594.791732 
L 1696.099363 594.791732 
L 1696.78903 597.237154 
L 1698.858029 597.237154 
L 1699.547696 592.617903 
L 1701.616695 592.617903 
L 1702.306362 584.591147 
L 1704.375362 584.591147 
L 1705.065028 578.831622 
L 1707.134028 578.831622 
L 1707.823694 573.024061 
L 1709.892694 573.024061 
L 1710.58236 565.337741 
L 1712.65136 565.337741 
L 1713.341027 548.967165 
L 1715.410026 548.967165 
L 1716.099693 547.135743 
L 1718.168692 547.135743 
L 1718.858359 544.574102 
L 1720.927358 544.574102 
L 1721.617025 534.520121 
L 1723.686025 534.520121 
L 1724.375691 527.3288 
L 1726.444691 527.3288 
L 1727.134357 522.37234 
L 1729.203357 522.37234 
L 1729.893023 513.468048 
L 1731.962023 513.468048 
L 1732.65169 503.321881 
L 1734.720689 503.321881 
L 1735.410356 497.926054 
L 1737.479355 497.926054 
L 1738.169022 496.935447 
L 1740.238021 496.935447 
L 1740.927688 494.06129 
L 1742.996688 494.06129 
L 1743.686354 490.199623 
L 1745.755354 490.199623 
L 1746.44502 484.546017 
L 1748.51402 484.546017 
L 1749.203686 482.699699 
L 1751.272686 482.699699 
L 1751.962353 474.732587 
L 1754.031352 474.732587 
L 1754.721019 472.006927 
L 1756.790018 472.006927 
L 1757.479685 467.869622 
L 1759.548685 467.869622 
L 1760.238351 463.753617 
L 1762.307351 463.753617 
L 1762.997017 459.206451 
L 1767.824683 459.206451 
L 1768.51435 456.508623 
L 1770.583349 456.508623 
L 1771.273016 455.158898 
L 1773.342015 455.158898 
L 1774.031682 449.352462 
L 1778.859348 449.352462 
L 1779.549014 450.690043 
L 1781.618014 450.690043 
L 1782.30768 451.141441 
L 1784.37668 451.141441 
L 1785.066346 448.566132 
L 1787.135346 448.566132 
L 1787.825013 440.280501 
L 1789.894012 440.280501 
L 1790.583679 436.945323 
L 1792.652678 436.945323 
L 1793.342345 437.715999 
L 1795.411344 437.715999 
L 1796.101011 429.599535 
L 1798.170011 429.599535 
L 1798.859677 422.980899 
L 1800.928677 422.980899 
L 1801.618343 421.906657 
L 1803.687343 421.906657 
L 1804.377009 418.811507 
L 1806.446009 418.811507 
L 1807.135676 414.414478 
L 1809.204675 414.414478 
L 1809.894342 413.737137 
L 1811.963341 413.737137 
L 1812.653008 409.10903 
L 1814.722008 409.10903 
L 1815.411674 405.496575 
L 1817.480674 405.496575 
L 1818.17034 399.568589 
L 1820.23934 399.568589 
L 1820.929006 396.060468 
L 1822.998006 396.060468 
L 1823.687673 391.378919 
L 1825.756672 391.378919 
L 1826.446339 387.081101 
L 1828.515338 387.081101 
L 1829.205005 383.709 
L 1831.274004 383.709 
L 1831.963671 383.138082 
L 1834.032671 383.138082 
L 1834.722337 378.956945 
L 1836.791337 378.956945 
L 1837.481003 373.162342 
L 1839.550003 373.162342 
L 1840.239669 368.09933 
L 1842.308669 368.09933 
L 1842.998336 361.11788 
L 1845.067335 361.11788 
L 1845.757002 354.805368 
L 1847.826001 354.805368 
L 1848.515668 339.927758 
L 1850.584667 339.927758 
L 1851.274334 329.425755 
L 1853.343334 329.425755 
L 1854.033 321.656952 
L 1856.102 321.656952 
L 1856.791666 316.79069 
L 1858.860666 316.79069 
L 1859.550332 309.872166 
L 1861.619332 309.872166 
L 1862.308999 304.906627 
L 1864.377998 304.906627 
L 1865.067665 293.378935 
L 1867.136664 293.378935 
L 1867.826331 287.005714 
L 1869.895331 287.005714 
L 1870.584997 280.566089 
L 1872.653997 280.566089 
L 1873.343663 275.410351 
L 1875.412663 275.410351 
L 1876.102329 269.110926 
L 1878.171329 269.110926 
L 1878.860996 263.133113 
L 1880.929995 263.133113 
L 1881.619662 256.515728 
L 1883.688661 256.515728 
L 1884.378328 249.664945 
L 1886.447327 249.664945 
L 1887.136994 247.506697 
L 1889.205994 247.506697 
L 1889.89566 243.527894 
L 1891.96466 243.527894 
L 1892.654326 242.106533 
L 1894.723326 242.106533 
L 1895.412992 240.396646 
L 1897.481992 240.396646 
L 1898.171659 237.577151 
L 1900.240658 237.577151 
L 1900.930325 233.108922 
L 1902.999324 233.108922 
L 1903.688991 231.43478 
L 1905.75799 231.43478 
L 1906.447657 228.67424 
L 1908.516657 228.67424 
L 1909.206323 226.212473 
L 1914.033989 226.212473 
L 1914.723655 225.941826 
L 1916.792655 225.941826 
L 1917.482322 224.02628 
L 1919.551321 224.02628 
L 1920.240988 223.2 
L 1921.620321 223.2 
L 1921.620321 223.2 
" clip-path="url(#p783bfbbdcb)" style="fill: none; stroke: #0000ff; stroke-width: 1.5; stroke-linecap: square"/>
   </g>
   <g id="patch_15">
    <path d="M 1451.647059 1281.6 
L 1451.647059 172.8 
" style="fill: none; stroke: #000000; stroke-width: 0.8; stroke-linejoin: miter; stroke-linecap: square"/>
   </g>
   <g id="patch_16">
    <path d="M 1944 1281.6 
L 1944 172.8 
" style="fill: none; stroke: #000000; stroke-width: 0.8; stroke-linejoin: miter; stroke-linecap: square"/>
   </g>
   <g id="patch_17">
    <path d="M 1451.647059 1281.6 
L 1944 1281.6 
" style="fill: none; stroke: #000000; stroke-width: 0.8; stroke-linejoin: miter; stroke-linecap: square"/>
   </g>
   <g id="patch_18">
    <path d="M 1451.647059 172.8 
L 1944 172.8 
" style="fill: none; stroke: #000000; stroke-width: 0.8; stroke-linejoin: miter; stroke-linecap: square"/>
   </g>
   <g id="legend_3">
    <g id="patch_19">
     <path d="M 1852.957813 195.478125 
L 1937 195.478125 
Q 1939 195.478125 1939 193.478125 
L 1939 179.8 
Q 1939 177.8 1937 177.8 
L 1852.957813 177.8 
Q 1850.957813 177.8 1850.957813 179.8 
L 1850.957813 193.478125 
Q 1850.957813 195.478125 1852.957813 195.478125 
z
" style="fill: #ffffff; opacity: 0.8; stroke: #cccccc; stroke-linejoin: miter"/>
    </g>
    <g id="line2d_49">
     <path d="M 1854.957813 185.898437 
L 1864.957813 185.898437 
L 1874.957813 185.898437 
" style="fill: none; stroke: #0000ff; stroke-width: 1.5; stroke-linecap: square"/>
    </g>
    <g id="text_46">
     <!-- O3 reward -->
     <g transform="translate(1882.957813 189.398437) scale(0.1 -0.1)">
      <use xlink:href="#DejaVuSans-4f"/>
      <use xlink:href="#DejaVuSans-33" x="78.710938"/>
      <use xlink:href="#DejaVuSans-20" x="142.333984"/>
      <use xlink:href="#DejaVuSans-72" x="174.121094"/>
      <use xlink:href="#DejaVuSans-65" x="212.984375"/>
      <use xlink:href="#DejaVuSans-77" x="274.507812"/>
      <use xlink:href="#DejaVuSans-61" x="356.294922"/>
      <use xlink:href="#DejaVuSans-72" x="417.574219"/>
      <use xlink:href="#DejaVuSans-64" x="456.9375"/>
     </g>
    </g>
   </g>
  </g>
 </g>
 <defs>
  <clipPath id="p4953e5e323">
   <rect x="270" y="172.8" width="492.352941" height="1108.8"/>
  </clipPath>
  <clipPath id="pf71490cc95">
   <rect x="860.823529" y="172.8" width="492.352941" height="1108.8"/>
  </clipPath>
  <clipPath id="p783bfbbdcb">
   <rect x="1451.647059" y="172.8" width="492.352941" height="1108.8"/>
  </clipPath>
 </defs>
</svg>
