<?xml version="1.0" encoding="utf-8" standalone="no"?>
<!DOCTYPE svg PUBLIC "-//W3C//DTD SVG 1.1//EN"
  "http://www.w3.org/Graphics/SVG/1.1/DTD/svg11.dtd">
<svg xmlns:xlink="http://www.w3.org/1999/xlink" width="2160pt" height="1440pt" viewBox="0 0 2160 1440" xmlns="http://www.w3.org/2000/svg" version="1.1">
 <metadata>
  <rdf:RDF xmlns:dc="http://purl.org/dc/elements/1.1/" xmlns:cc="http://creativecommons.org/ns#" xmlns:rdf="http://www.w3.org/1999/02/22-rdf-syntax-ns#">
   <cc:Work>
    <dc:type rdf:resource="http://purl.org/dc/dcmitype/StillImage"/>
    <dc:date>2023-05-31T19:32:31.367916</dc:date>
    <dc:format>image/svg+xml</dc:format>
    <dc:creator>
     <cc:Agent>
      <dc:title>Matplotlib v3.7.1, https://matplotlib.org/</dc:title>
     </cc:Agent>
    </dc:creator>
   </cc:Work>
  </rdf:RDF>
 </metadata>
 <defs>
  <style type="text/css">*{stroke-linejoin: round; stroke-linecap: butt}</style>
 </defs>
 <g id="figure_1">
  <g id="patch_1">
   <path d="M 0 1440 
L 2160 1440 
L 2160 0 
L 0 0 
z
" style="fill: #ffffff"/>
  </g>
  <g id="axes_1">
   <g id="patch_2">
    <path d="M 270 1281.6 
L 762.352941 1281.6 
L 762.352941 172.8 
L 270 172.8 
z
" style="fill: #ffffff"/>
   </g>
   <g id="matplotlib.axis_1">
    <g id="xtick_1">
     <g id="line2d_1">
      <defs>
       <path id="m1634ba278f" d="M 0 0 
L 0 3.5 
" style="stroke: #000000; stroke-width: 0.8"/>
      </defs>
      <g>
       <use xlink:href="#m1634ba278f" x="291.855565" y="1281.6" style="stroke: #000000; stroke-width: 0.8"/>
      </g>
     </g>
     <g id="text_1">
      <!-- 0 -->
      <g transform="translate(288.674315 1296.198437) scale(0.1 -0.1)">
       <defs>
        <path id="DejaVuSans-30" d="M 2034 4250 
Q 1547 4250 1301 3770 
Q 1056 3291 1056 2328 
Q 1056 1369 1301 889 
Q 1547 409 2034 409 
Q 2525 409 2770 889 
Q 3016 1369 3016 2328 
Q 3016 3291 2770 3770 
Q 2525 4250 2034 4250 
z
M 2034 4750 
Q 2819 4750 3233 4129 
Q 3647 3509 3647 2328 
Q 3647 1150 3233 529 
Q 2819 -91 2034 -91 
Q 1250 -91 836 529 
Q 422 1150 422 2328 
Q 422 3509 836 4129 
Q 1250 4750 2034 4750 
z
" transform="scale(0.015625)"/>
       </defs>
       <use xlink:href="#DejaVuSans-30"/>
      </g>
     </g>
    </g>
    <g id="xtick_2">
     <g id="line2d_2">
      <g>
       <use xlink:href="#m1634ba278f" x="396.678418" y="1281.6" style="stroke: #000000; stroke-width: 0.8"/>
      </g>
     </g>
     <g id="text_2">
      <!-- 200 -->
      <g transform="translate(387.134668 1296.198437) scale(0.1 -0.1)">
       <defs>
        <path id="DejaVuSans-32" d="M 1228 531 
L 3431 531 
L 3431 0 
L 469 0 
L 469 531 
Q 828 903 1448 1529 
Q 2069 2156 2228 2338 
Q 2531 2678 2651 2914 
Q 2772 3150 2772 3378 
Q 2772 3750 2511 3984 
Q 2250 4219 1831 4219 
Q 1534 4219 1204 4116 
Q 875 4013 500 3803 
L 500 4441 
Q 881 4594 1212 4672 
Q 1544 4750 1819 4750 
Q 2544 4750 2975 4387 
Q 3406 4025 3406 3419 
Q 3406 3131 3298 2873 
Q 3191 2616 2906 2266 
Q 2828 2175 2409 1742 
Q 1991 1309 1228 531 
z
" transform="scale(0.015625)"/>
       </defs>
       <use xlink:href="#DejaVuSans-32"/>
       <use xlink:href="#DejaVuSans-30" x="63.623047"/>
       <use xlink:href="#DejaVuSans-30" x="127.246094"/>
      </g>
     </g>
    </g>
    <g id="xtick_3">
     <g id="line2d_3">
      <g>
       <use xlink:href="#m1634ba278f" x="501.501271" y="1281.6" style="stroke: #000000; stroke-width: 0.8"/>
      </g>
     </g>
     <g id="text_3">
      <!-- 400 -->
      <g transform="translate(491.957521 1296.198437) scale(0.1 -0.1)">
       <defs>
        <path id="DejaVuSans-34" d="M 2419 4116 
L 825 1625 
L 2419 1625 
L 2419 4116 
z
M 2253 4666 
L 3047 4666 
L 3047 1625 
L 3713 1625 
L 3713 1100 
L 3047 1100 
L 3047 0 
L 2419 0 
L 2419 1100 
L 313 1100 
L 313 1709 
L 2253 4666 
z
" transform="scale(0.015625)"/>
       </defs>
       <use xlink:href="#DejaVuSans-34"/>
       <use xlink:href="#DejaVuSans-30" x="63.623047"/>
       <use xlink:href="#DejaVuSans-30" x="127.246094"/>
      </g>
     </g>
    </g>
    <g id="xtick_4">
     <g id="line2d_4">
      <g>
       <use xlink:href="#m1634ba278f" x="606.324124" y="1281.6" style="stroke: #000000; stroke-width: 0.8"/>
      </g>
     </g>
     <g id="text_4">
      <!-- 600 -->
      <g transform="translate(596.780374 1296.198437) scale(0.1 -0.1)">
       <defs>
        <path id="DejaVuSans-36" d="M 2113 2584 
Q 1688 2584 1439 2293 
Q 1191 2003 1191 1497 
Q 1191 994 1439 701 
Q 1688 409 2113 409 
Q 2538 409 2786 701 
Q 3034 994 3034 1497 
Q 3034 2003 2786 2293 
Q 2538 2584 2113 2584 
z
M 3366 4563 
L 3366 3988 
Q 3128 4100 2886 4159 
Q 2644 4219 2406 4219 
Q 1781 4219 1451 3797 
Q 1122 3375 1075 2522 
Q 1259 2794 1537 2939 
Q 1816 3084 2150 3084 
Q 2853 3084 3261 2657 
Q 3669 2231 3669 1497 
Q 3669 778 3244 343 
Q 2819 -91 2113 -91 
Q 1303 -91 875 529 
Q 447 1150 447 2328 
Q 447 3434 972 4092 
Q 1497 4750 2381 4750 
Q 2619 4750 2861 4703 
Q 3103 4656 3366 4563 
z
" transform="scale(0.015625)"/>
       </defs>
       <use xlink:href="#DejaVuSans-36"/>
       <use xlink:href="#DejaVuSans-30" x="63.623047"/>
       <use xlink:href="#DejaVuSans-30" x="127.246094"/>
      </g>
     </g>
    </g>
    <g id="xtick_5">
     <g id="line2d_5">
      <g>
       <use xlink:href="#m1634ba278f" x="711.146977" y="1281.6" style="stroke: #000000; stroke-width: 0.8"/>
      </g>
     </g>
     <g id="text_5">
      <!-- 800 -->
      <g transform="translate(701.603227 1296.198437) scale(0.1 -0.1)">
       <defs>
        <path id="DejaVuSans-38" d="M 2034 2216 
Q 1584 2216 1326 1975 
Q 1069 1734 1069 1313 
Q 1069 891 1326 650 
Q 1584 409 2034 409 
Q 2484 409 2743 651 
Q 3003 894 3003 1313 
Q 3003 1734 2745 1975 
Q 2488 2216 2034 2216 
z
M 1403 2484 
Q 997 2584 770 2862 
Q 544 3141 544 3541 
Q 544 4100 942 4425 
Q 1341 4750 2034 4750 
Q 2731 4750 3128 4425 
Q 3525 4100 3525 3541 
Q 3525 3141 3298 2862 
Q 3072 2584 2669 2484 
Q 3125 2378 3379 2068 
Q 3634 1759 3634 1313 
Q 3634 634 3220 271 
Q 2806 -91 2034 -91 
Q 1263 -91 848 271 
Q 434 634 434 1313 
Q 434 1759 690 2068 
Q 947 2378 1403 2484 
z
M 1172 3481 
Q 1172 3119 1398 2916 
Q 1625 2713 2034 2713 
Q 2441 2713 2670 2916 
Q 2900 3119 2900 3481 
Q 2900 3844 2670 4047 
Q 2441 4250 2034 4250 
Q 1625 4250 1398 4047 
Q 1172 3844 1172 3481 
z
" transform="scale(0.015625)"/>
       </defs>
       <use xlink:href="#DejaVuSans-38"/>
       <use xlink:href="#DejaVuSans-30" x="63.623047"/>
       <use xlink:href="#DejaVuSans-30" x="127.246094"/>
      </g>
     </g>
    </g>
   </g>
   <g id="matplotlib.axis_2">
    <g id="ytick_1">
     <g id="line2d_6">
      <defs>
       <path id="mc5da839d1c" d="M 0 0 
L -3.5 0 
" style="stroke: #000000; stroke-width: 0.8"/>
      </defs>
      <g>
       <use xlink:href="#mc5da839d1c" x="270" y="1157.266858" style="stroke: #000000; stroke-width: 0.8"/>
      </g>
     </g>
     <g id="text_6">
      <!-- −10 -->
      <g transform="translate(241.895312 1161.066077) scale(0.1 -0.1)">
       <defs>
        <path id="DejaVuSans-2212" d="M 678 2272 
L 4684 2272 
L 4684 1741 
L 678 1741 
L 678 2272 
z
" transform="scale(0.015625)"/>
        <path id="DejaVuSans-31" d="M 794 531 
L 1825 531 
L 1825 4091 
L 703 3866 
L 703 4441 
L 1819 4666 
L 2450 4666 
L 2450 531 
L 3481 531 
L 3481 0 
L 794 0 
L 794 531 
z
" transform="scale(0.015625)"/>
       </defs>
       <use xlink:href="#DejaVuSans-2212"/>
       <use xlink:href="#DejaVuSans-31" x="83.789062"/>
       <use xlink:href="#DejaVuSans-30" x="147.412109"/>
      </g>
     </g>
    </g>
    <g id="ytick_2">
     <g id="line2d_7">
      <g>
       <use xlink:href="#mc5da839d1c" x="270" y="974.116494" style="stroke: #000000; stroke-width: 0.8"/>
      </g>
     </g>
     <g id="text_7">
      <!-- −8 -->
      <g transform="translate(248.257812 977.915712) scale(0.1 -0.1)">
       <use xlink:href="#DejaVuSans-2212"/>
       <use xlink:href="#DejaVuSans-38" x="83.789062"/>
      </g>
     </g>
    </g>
    <g id="ytick_3">
     <g id="line2d_8">
      <g>
       <use xlink:href="#mc5da839d1c" x="270" y="790.966129" style="stroke: #000000; stroke-width: 0.8"/>
      </g>
     </g>
     <g id="text_8">
      <!-- −6 -->
      <g transform="translate(248.257812 794.765348) scale(0.1 -0.1)">
       <use xlink:href="#DejaVuSans-2212"/>
       <use xlink:href="#DejaVuSans-36" x="83.789062"/>
      </g>
     </g>
    </g>
    <g id="ytick_4">
     <g id="line2d_9">
      <g>
       <use xlink:href="#mc5da839d1c" x="270" y="607.815765" style="stroke: #000000; stroke-width: 0.8"/>
      </g>
     </g>
     <g id="text_9">
      <!-- −4 -->
      <g transform="translate(248.257812 611.614984) scale(0.1 -0.1)">
       <use xlink:href="#DejaVuSans-2212"/>
       <use xlink:href="#DejaVuSans-34" x="83.789062"/>
      </g>
     </g>
    </g>
    <g id="ytick_5">
     <g id="line2d_10">
      <g>
       <use xlink:href="#mc5da839d1c" x="270" y="424.665401" style="stroke: #000000; stroke-width: 0.8"/>
      </g>
     </g>
     <g id="text_10">
      <!-- −2 -->
      <g transform="translate(248.257812 428.464619) scale(0.1 -0.1)">
       <use xlink:href="#DejaVuSans-2212"/>
       <use xlink:href="#DejaVuSans-32" x="83.789062"/>
      </g>
     </g>
    </g>
    <g id="ytick_6">
     <g id="line2d_11">
      <g>
       <use xlink:href="#mc5da839d1c" x="270" y="241.515036" style="stroke: #000000; stroke-width: 0.8"/>
      </g>
     </g>
     <g id="text_11">
      <!-- 0 -->
      <g transform="translate(256.6375 245.314255) scale(0.1 -0.1)">
       <use xlink:href="#DejaVuSans-30"/>
      </g>
     </g>
    </g>
   </g>
   <g id="line2d_12">
    <path d="M 292.379679 241.515036 
L 318.585392 241.515036 
L 319.109507 223.2 
L 320.681849 223.2 
L 321.205964 235.410024 
L 322.778307 235.410024 
L 323.302421 256.167066 
L 324.874764 256.167066 
L 325.398878 258.515147 
L 326.971221 258.515147 
L 327.495335 281.794699 
L 329.067678 281.794699 
L 329.591792 291.913191 
L 331.164135 291.913191 
L 331.688249 302.74232 
L 333.260592 302.74232 
L 333.784706 312.25265 
L 335.357049 312.25265 
L 335.881163 324.588337 
L 337.453506 324.588337 
L 337.97762 333.97521 
L 341.64642 333.97521 
L 342.170534 326.204205 
L 345.839334 326.204205 
L 346.363449 337.252547 
L 347.935791 337.252547 
L 348.459906 327.916977 
L 350.032248 327.916977 
L 350.556363 320.385847 
L 354.225162 320.385847 
L 354.749277 322.277128 
L 356.32162 322.277128 
L 356.845734 312.982753 
L 360.514534 312.982753 
L 361.038648 303.725603 
L 362.610991 303.725603 
L 363.135105 294.503907 
L 364.707448 294.503907 
L 365.231562 303.047268 
L 366.803905 303.047268 
L 367.328019 289.172241 
L 370.996819 289.172241 
L 371.520933 276.313375 
L 373.093276 276.313375 
L 373.61739 284.403629 
L 375.189733 284.403629 
L 375.713847 276.313375 
L 377.28619 276.313375 
L 377.810304 288.671937 
L 381.479104 288.671937 
L 382.003219 297.395211 
L 383.575561 297.395211 
L 384.099676 312.590639 
L 385.672018 312.590639 
L 386.196133 310.306897 
L 387.768475 310.306897 
L 388.29259 316.057219 
L 389.864933 316.057219 
L 390.389047 313.862116 
L 391.96139 313.862116 
L 392.485504 311.715978 
L 394.057847 311.715978 
L 394.581961 315.47974 
L 396.154304 315.47974 
L 396.678418 337.02959 
L 398.250761 337.02959 
L 398.774875 329.348804 
L 400.347218 329.348804 
L 400.871332 335.309542 
L 402.443675 335.309542 
L 402.967789 356.581261 
L 404.540132 356.581261 
L 405.064246 363.846449 
L 406.636589 363.846449 
L 407.160703 370.254659 
L 412.92596 370.254659 
L 413.450075 377.359189 
L 415.022417 377.359189 
L 415.546532 390.871929 
L 417.118874 390.871929 
L 417.642989 383.778701 
L 419.215331 383.778701 
L 419.739446 397.31466 
L 421.311789 397.31466 
L 421.835903 410.726126 
L 423.408246 410.726126 
L 423.93236 417.200432 
L 425.504703 417.200432 
L 426.028817 437.672362 
L 427.60116 437.672362 
L 428.125274 451.428586 
L 429.697617 451.428586 
L 430.221731 472.144598 
L 431.794074 472.144598 
L 432.318188 492.513076 
L 433.890531 492.513076 
L 434.414645 506.196521 
L 435.986988 506.196521 
L 436.511102 513.194471 
L 438.083445 513.194471 
L 438.607559 526.877915 
L 440.179902 526.877915 
L 440.704016 520.286345 
L 442.276359 520.286345 
L 442.800473 507.264712 
L 444.372816 507.264712 
L 444.89693 494.393449 
L 446.469273 494.393449 
L 446.993388 487.957818 
L 448.56573 487.957818 
L 449.089845 501.71422 
L 452.758644 501.775762 
L 453.282759 502.95474 
L 454.855102 502.95474 
L 455.379216 524.382789 
L 459.048016 524.375335 
L 459.57213 512.03037 
L 461.144473 512.03037 
L 461.668587 505.865022 
L 463.24093 505.865022 
L 463.765044 493.554694 
L 465.337387 493.554694 
L 465.861501 507.620604 
L 467.433844 507.620604 
L 467.957958 513.772421 
L 471.626758 513.772421 
L 472.150872 519.924238 
L 473.723215 519.924238 
L 474.247329 513.778713 
L 475.819672 513.778713 
L 476.343786 509.542431 
L 477.916129 509.542431 
L 478.440243 497.383593 
L 480.012586 497.383593 
L 480.536701 499.426829 
L 482.109043 499.426829 
L 482.633158 509.791406 
L 484.2055 509.791406 
L 484.729615 512.072804 
L 486.301957 512.072804 
L 486.826072 506.041095 
L 490.494872 506.041095 
L 491.018986 520.351913 
L 492.591329 520.351913 
L 493.115443 514.404245 
L 494.687786 514.404245 
L 495.2119 508.461317 
L 496.784243 508.461317 
L 497.308357 510.943725 
L 498.8807 510.943725 
L 499.404814 513.47675 
L 500.977157 513.47675 
L 501.501271 521.966443 
L 503.073614 521.966443 
L 503.597728 536.420118 
L 505.170071 536.420118 
L 505.694185 559.439198 
L 507.266528 559.439198 
L 507.790642 573.89287 
L 509.362985 573.89287 
L 509.887099 594.226182 
L 511.459442 594.226182 
L 511.983556 617.253949 
L 513.555899 617.253949 
L 514.080014 637.544812 
L 515.652356 637.544812 
L 516.176471 666.531199 
L 517.748813 666.531199 
L 518.272928 689.731437 
L 519.84527 689.731437 
L 520.369385 695.580005 
L 521.941728 695.580005 
L 522.465842 718.837507 
L 524.038185 718.837507 
L 524.562299 721.704557 
L 526.134642 721.704557 
L 526.658756 739.173873 
L 530.327556 739.173873 
L 530.85167 747.907251 
L 534.52047 747.923393 
L 535.044584 756.666846 
L 536.616927 756.666846 
L 537.141041 750.877172 
L 540.809841 750.873896 
L 541.333955 759.680259 
L 542.906298 759.680259 
L 543.430412 774.26197 
L 545.002755 774.26197 
L 545.526869 762.771199 
L 547.099212 762.771199 
L 547.623327 765.93928 
L 549.195669 765.93928 
L 549.719784 754.519175 
L 551.292126 754.519175 
L 551.816241 737.457928 
L 553.388583 737.457928 
L 553.912698 746.415397 
L 555.485041 746.415397 
L 556.009155 729.401733 
L 557.581498 729.401733 
L 558.105612 744.058482 
L 559.677955 744.058482 
L 560.202069 741.724529 
L 565.967326 741.724529 
L 566.49144 736.095218 
L 568.063783 736.095218 
L 568.587897 724.849555 
L 570.16024 724.849555 
L 570.684354 713.611867 
L 572.256697 713.611867 
L 572.780811 691.174978 
L 574.353154 691.174978 
L 574.877268 668.838876 
L 576.449611 668.838876 
L 576.973725 652.135851 
L 578.546068 652.135851 
L 579.070182 635.474001 
L 580.642525 635.474001 
L 581.16664 629.929734 
L 582.738982 629.929734 
L 583.263097 613.324232 
L 584.835439 613.324232 
L 585.359554 602.26661 
L 589.028354 602.271108 
L 589.552468 596.752218 
L 591.124811 596.752218 
L 591.648925 580.214196 
L 593.221268 580.214196 
L 593.745382 595.045038 
L 595.317725 595.045038 
L 595.841839 578.536786 
L 597.414182 578.536786 
L 597.938296 597.240427 
L 599.510639 597.240427 
L 600.034753 632.433626 
L 601.607096 632.433626 
L 602.13121 626.945049 
L 603.703553 626.945049 
L 604.227667 625.345973 
L 605.80001 625.345973 
L 606.324124 603.435271 
L 607.896467 603.435271 
L 608.420581 612.842429 
L 609.992924 612.842429 
L 610.517038 637.131575 
L 612.089381 637.131575 
L 612.613495 659.967692 
L 614.185838 659.967692 
L 614.709953 674.849775 
L 616.282295 674.849775 
L 616.80641 700.613544 
L 618.378752 700.613544 
L 618.902867 724.964729 
L 620.475209 724.964729 
L 620.999324 739.860247 
L 622.571667 739.860247 
L 623.095781 749.339369 
L 624.668124 749.339369 
L 625.192238 752.047636 
L 626.764581 752.047636 
L 627.288695 776.45508 
L 628.861038 776.45508 
L 629.385152 796.784014 
L 630.957495 796.784014 
L 631.481609 800.886153 
L 633.053952 800.886153 
L 633.578066 810.399501 
L 635.150409 810.399501 
L 635.674523 838.972685 
L 637.246866 838.972685 
L 637.77098 863.438507 
L 639.343323 863.438507 
L 639.867437 907.031849 
L 641.43978 907.031849 
L 641.963894 960.255935 
L 643.536237 960.255935 
L 644.060351 979.409905 
L 645.632694 979.409905 
L 646.156808 1018.922832 
L 647.729151 1018.922832 
L 648.253266 1051.934235 
L 649.825608 1051.934235 
L 650.349723 1046.561535 
L 651.922065 1046.561535 
L 652.44618 1035.825498 
L 654.018522 1035.825498 
L 654.542637 1025.094138 
L 658.211437 1025.092706 
L 658.735551 1019.731287 
L 660.307894 1019.731287 
L 660.832008 1014.368449 
L 662.404351 1014.368449 
L 662.928465 1003.651658 
L 664.500808 1003.651658 
L 665.024922 997.213257 
L 666.597265 997.213257 
L 667.121379 996.136489 
L 668.693722 996.136489 
L 669.217836 1019.696516 
L 670.790179 1019.696516 
L 671.314293 1014.348009 
L 672.886636 1014.348009 
L 673.41075 1023.991851 
L 674.983093 1023.991851 
L 675.507207 1043.287975 
L 677.07955 1043.287975 
L 677.603664 1042.247723 
L 679.176007 1042.247723 
L 679.700121 1051.904176 
L 681.272464 1051.904176 
L 681.796579 1064.872171 
L 683.368921 1064.872171 
L 683.893036 1069.20388 
L 685.465378 1069.20388 
L 685.989493 1077.875659 
L 687.561835 1077.875659 
L 688.08595 1083.204807 
L 689.658293 1083.204807 
L 690.182407 1076.896955 
L 691.75475 1076.896955 
L 692.278864 1075.924723 
L 693.851207 1075.924723 
L 694.375321 1090.934557 
L 695.947664 1090.934557 
L 696.471778 1074.959027 
L 698.044121 1074.959027 
L 698.568235 1079.322757 
L 700.140578 1079.322757 
L 700.664692 1103.077377 
L 702.237035 1103.077377 
L 702.761149 1097.756893 
L 704.333492 1097.756893 
L 704.857606 1111.831607 
L 706.429949 1111.831607 
L 706.954063 1125.921321 
L 708.526406 1125.921321 
L 709.05052 1140.016821 
L 710.622863 1140.016821 
L 711.146977 1185.090903 
L 712.71932 1185.090903 
L 713.243434 1190.404007 
L 714.815777 1190.404007 
L 715.339892 1210.746123 
L 716.912234 1210.746123 
L 717.436349 1209.854383 
L 719.008691 1209.854383 
L 719.532806 1215.162653 
L 723.201606 1215.162653 
L 723.72572 1225.777183 
L 725.298063 1225.777183 
L 725.822177 1224.898672 
L 727.39452 1224.898672 
L 727.918634 1218.7214 
L 729.490977 1218.7214 
L 730.015091 1217.856958 
L 731.587434 1217.856958 
L 732.111548 1222.303776 
L 733.683891 1222.303776 
L 734.208005 1231.2 
L 735.780348 1231.2 
L 736.304462 1225.903729 
L 737.876805 1225.903729 
L 738.400919 1225.063086 
L 739.973262 1225.063086 
L 739.973262 1225.063086 
" clip-path="url(#p1d70dd2027)" style="fill: none; stroke: #0000ff; stroke-width: 1.5; stroke-linecap: square"/>
   </g>
   <g id="patch_3">
    <path d="M 270 1281.6 
L 270 172.8 
" style="fill: none; stroke: #000000; stroke-width: 0.8; stroke-linejoin: miter; stroke-linecap: square"/>
   </g>
   <g id="patch_4">
    <path d="M 762.352941 1281.6 
L 762.352941 172.8 
" style="fill: none; stroke: #000000; stroke-width: 0.8; stroke-linejoin: miter; stroke-linecap: square"/>
   </g>
   <g id="patch_5">
    <path d="M 270 1281.6 
L 762.352941 1281.6 
" style="fill: none; stroke: #000000; stroke-width: 0.8; stroke-linejoin: miter; stroke-linecap: square"/>
   </g>
   <g id="patch_6">
    <path d="M 270 172.8 
L 762.352941 172.8 
" style="fill: none; stroke: #000000; stroke-width: 0.8; stroke-linejoin: miter; stroke-linecap: square"/>
   </g>
   <g id="legend_1">
    <g id="patch_7">
     <path d="M 671.310754 195.478125 
L 755.352941 195.478125 
Q 757.352941 195.478125 757.352941 193.478125 
L 757.352941 179.8 
Q 757.352941 177.8 755.352941 177.8 
L 671.310754 177.8 
Q 669.310754 177.8 669.310754 179.8 
L 669.310754 193.478125 
Q 669.310754 195.478125 671.310754 195.478125 
z
" style="fill: #ffffff; opacity: 0.8; stroke: #cccccc; stroke-linejoin: miter"/>
    </g>
    <g id="line2d_13">
     <path d="M 673.310754 185.898437 
L 683.310754 185.898437 
L 693.310754 185.898437 
" style="fill: none; stroke: #0000ff; stroke-width: 1.5; stroke-linecap: square"/>
    </g>
    <g id="text_12">
     <!-- O1 reward -->
     <g transform="translate(701.310754 189.398437) scale(0.1 -0.1)">
      <defs>
       <path id="DejaVuSans-4f" d="M 2522 4238 
Q 1834 4238 1429 3725 
Q 1025 3213 1025 2328 
Q 1025 1447 1429 934 
Q 1834 422 2522 422 
Q 3209 422 3611 934 
Q 4013 1447 4013 2328 
Q 4013 3213 3611 3725 
Q 3209 4238 2522 4238 
z
M 2522 4750 
Q 3503 4750 4090 4092 
Q 4678 3434 4678 2328 
Q 4678 1225 4090 567 
Q 3503 -91 2522 -91 
Q 1538 -91 948 565 
Q 359 1222 359 2328 
Q 359 3434 948 4092 
Q 1538 4750 2522 4750 
z
" transform="scale(0.015625)"/>
       <path id="DejaVuSans-20" transform="scale(0.015625)"/>
       <path id="DejaVuSans-72" d="M 2631 2963 
Q 2534 3019 2420 3045 
Q 2306 3072 2169 3072 
Q 1681 3072 1420 2755 
Q 1159 2438 1159 1844 
L 1159 0 
L 581 0 
L 581 3500 
L 1159 3500 
L 1159 2956 
Q 1341 3275 1631 3429 
Q 1922 3584 2338 3584 
Q 2397 3584 2469 3576 
Q 2541 3569 2628 3553 
L 2631 2963 
z
" transform="scale(0.015625)"/>
       <path id="DejaVuSans-65" d="M 3597 1894 
L 3597 1613 
L 953 1613 
Q 991 1019 1311 708 
Q 1631 397 2203 397 
Q 2534 397 2845 478 
Q 3156 559 3463 722 
L 3463 178 
Q 3153 47 2828 -22 
Q 2503 -91 2169 -91 
Q 1331 -91 842 396 
Q 353 884 353 1716 
Q 353 2575 817 3079 
Q 1281 3584 2069 3584 
Q 2775 3584 3186 3129 
Q 3597 2675 3597 1894 
z
M 3022 2063 
Q 3016 2534 2758 2815 
Q 2500 3097 2075 3097 
Q 1594 3097 1305 2825 
Q 1016 2553 972 2059 
L 3022 2063 
z
" transform="scale(0.015625)"/>
       <path id="DejaVuSans-77" d="M 269 3500 
L 844 3500 
L 1563 769 
L 2278 3500 
L 2956 3500 
L 3675 769 
L 4391 3500 
L 4966 3500 
L 4050 0 
L 3372 0 
L 2619 2869 
L 1863 0 
L 1184 0 
L 269 3500 
z
" transform="scale(0.015625)"/>
       <path id="DejaVuSans-61" d="M 2194 1759 
Q 1497 1759 1228 1600 
Q 959 1441 959 1056 
Q 959 750 1161 570 
Q 1363 391 1709 391 
Q 2188 391 2477 730 
Q 2766 1069 2766 1631 
L 2766 1759 
L 2194 1759 
z
M 3341 1997 
L 3341 0 
L 2766 0 
L 2766 531 
Q 2569 213 2275 61 
Q 1981 -91 1556 -91 
Q 1019 -91 701 211 
Q 384 513 384 1019 
Q 384 1609 779 1909 
Q 1175 2209 1959 2209 
L 2766 2209 
L 2766 2266 
Q 2766 2663 2505 2880 
Q 2244 3097 1772 3097 
Q 1472 3097 1187 3025 
Q 903 2953 641 2809 
L 641 3341 
Q 956 3463 1253 3523 
Q 1550 3584 1831 3584 
Q 2591 3584 2966 3190 
Q 3341 2797 3341 1997 
z
" transform="scale(0.015625)"/>
       <path id="DejaVuSans-64" d="M 2906 2969 
L 2906 4863 
L 3481 4863 
L 3481 0 
L 2906 0 
L 2906 525 
Q 2725 213 2448 61 
Q 2172 -91 1784 -91 
Q 1150 -91 751 415 
Q 353 922 353 1747 
Q 353 2572 751 3078 
Q 1150 3584 1784 3584 
Q 2172 3584 2448 3432 
Q 2725 3281 2906 2969 
z
M 947 1747 
Q 947 1113 1208 752 
Q 1469 391 1925 391 
Q 2381 391 2643 752 
Q 2906 1113 2906 1747 
Q 2906 2381 2643 2742 
Q 2381 3103 1925 3103 
Q 1469 3103 1208 2742 
Q 947 2381 947 1747 
z
" transform="scale(0.015625)"/>
      </defs>
      <use xlink:href="#DejaVuSans-4f"/>
      <use xlink:href="#DejaVuSans-31" x="78.710938"/>
      <use xlink:href="#DejaVuSans-20" x="142.333984"/>
      <use xlink:href="#DejaVuSans-72" x="174.121094"/>
      <use xlink:href="#DejaVuSans-65" x="212.984375"/>
      <use xlink:href="#DejaVuSans-77" x="274.507812"/>
      <use xlink:href="#DejaVuSans-61" x="356.294922"/>
      <use xlink:href="#DejaVuSans-72" x="417.574219"/>
      <use xlink:href="#DejaVuSans-64" x="456.9375"/>
     </g>
    </g>
   </g>
  </g>
  <g id="axes_2">
   <g id="patch_8">
    <path d="M 860.823529 1281.6 
L 1353.176471 1281.6 
L 1353.176471 172.8 
L 860.823529 172.8 
z
" style="fill: #ffffff"/>
   </g>
   <g id="matplotlib.axis_3">
    <g id="xtick_6">
     <g id="line2d_14">
      <g>
       <use xlink:href="#m1634ba278f" x="882.679094" y="1281.6" style="stroke: #000000; stroke-width: 0.8"/>
      </g>
     </g>
     <g id="text_13">
      <!-- 0 -->
      <g transform="translate(879.497844 1296.198437) scale(0.1 -0.1)">
       <use xlink:href="#DejaVuSans-30"/>
      </g>
     </g>
    </g>
    <g id="xtick_7">
     <g id="line2d_15">
      <g>
       <use xlink:href="#m1634ba278f" x="987.501947" y="1281.6" style="stroke: #000000; stroke-width: 0.8"/>
      </g>
     </g>
     <g id="text_14">
      <!-- 200 -->
      <g transform="translate(977.958197 1296.198437) scale(0.1 -0.1)">
       <use xlink:href="#DejaVuSans-32"/>
       <use xlink:href="#DejaVuSans-30" x="63.623047"/>
       <use xlink:href="#DejaVuSans-30" x="127.246094"/>
      </g>
     </g>
    </g>
    <g id="xtick_8">
     <g id="line2d_16">
      <g>
       <use xlink:href="#m1634ba278f" x="1092.324801" y="1281.6" style="stroke: #000000; stroke-width: 0.8"/>
      </g>
     </g>
     <g id="text_15">
      <!-- 400 -->
      <g transform="translate(1082.781051 1296.198437) scale(0.1 -0.1)">
       <use xlink:href="#DejaVuSans-34"/>
       <use xlink:href="#DejaVuSans-30" x="63.623047"/>
       <use xlink:href="#DejaVuSans-30" x="127.246094"/>
      </g>
     </g>
    </g>
    <g id="xtick_9">
     <g id="line2d_17">
      <g>
       <use xlink:href="#m1634ba278f" x="1197.147654" y="1281.6" style="stroke: #000000; stroke-width: 0.8"/>
      </g>
     </g>
     <g id="text_16">
      <!-- 600 -->
      <g transform="translate(1187.603904 1296.198437) scale(0.1 -0.1)">
       <use xlink:href="#DejaVuSans-36"/>
       <use xlink:href="#DejaVuSans-30" x="63.623047"/>
       <use xlink:href="#DejaVuSans-30" x="127.246094"/>
      </g>
     </g>
    </g>
    <g id="xtick_10">
     <g id="line2d_18">
      <g>
       <use xlink:href="#m1634ba278f" x="1301.970507" y="1281.6" style="stroke: #000000; stroke-width: 0.8"/>
      </g>
     </g>
     <g id="text_17">
      <!-- 800 -->
      <g transform="translate(1292.426757 1296.198437) scale(0.1 -0.1)">
       <use xlink:href="#DejaVuSans-38"/>
       <use xlink:href="#DejaVuSans-30" x="63.623047"/>
       <use xlink:href="#DejaVuSans-30" x="127.246094"/>
      </g>
     </g>
    </g>
   </g>
   <g id="matplotlib.axis_4">
    <g id="ytick_7">
     <g id="line2d_19">
      <g>
       <use xlink:href="#mc5da839d1c" x="860.823529" y="1231.2" style="stroke: #000000; stroke-width: 0.8"/>
      </g>
     </g>
     <g id="text_18">
      <!-- 0 -->
      <g transform="translate(847.461029 1234.999219) scale(0.1 -0.1)">
       <use xlink:href="#DejaVuSans-30"/>
      </g>
     </g>
    </g>
    <g id="ytick_8">
     <g id="line2d_20">
      <g>
       <use xlink:href="#mc5da839d1c" x="860.823529" y="1106.03526" style="stroke: #000000; stroke-width: 0.8"/>
      </g>
     </g>
     <g id="text_19">
      <!-- 10 -->
      <g transform="translate(841.098529 1109.834479) scale(0.1 -0.1)">
       <use xlink:href="#DejaVuSans-31"/>
       <use xlink:href="#DejaVuSans-30" x="63.623047"/>
      </g>
     </g>
    </g>
    <g id="ytick_9">
     <g id="line2d_21">
      <g>
       <use xlink:href="#mc5da839d1c" x="860.823529" y="980.87052" style="stroke: #000000; stroke-width: 0.8"/>
      </g>
     </g>
     <g id="text_20">
      <!-- 20 -->
      <g transform="translate(841.098529 984.669739) scale(0.1 -0.1)">
       <use xlink:href="#DejaVuSans-32"/>
       <use xlink:href="#DejaVuSans-30" x="63.623047"/>
      </g>
     </g>
    </g>
    <g id="ytick_10">
     <g id="line2d_22">
      <g>
       <use xlink:href="#mc5da839d1c" x="860.823529" y="855.70578" style="stroke: #000000; stroke-width: 0.8"/>
      </g>
     </g>
     <g id="text_21">
      <!-- 30 -->
      <g transform="translate(841.098529 859.504999) scale(0.1 -0.1)">
       <defs>
        <path id="DejaVuSans-33" d="M 2597 2516 
Q 3050 2419 3304 2112 
Q 3559 1806 3559 1356 
Q 3559 666 3084 287 
Q 2609 -91 1734 -91 
Q 1441 -91 1130 -33 
Q 819 25 488 141 
L 488 750 
Q 750 597 1062 519 
Q 1375 441 1716 441 
Q 2309 441 2620 675 
Q 2931 909 2931 1356 
Q 2931 1769 2642 2001 
Q 2353 2234 1838 2234 
L 1294 2234 
L 1294 2753 
L 1863 2753 
Q 2328 2753 2575 2939 
Q 2822 3125 2822 3475 
Q 2822 3834 2567 4026 
Q 2313 4219 1838 4219 
Q 1578 4219 1281 4162 
Q 984 4106 628 3988 
L 628 4550 
Q 988 4650 1302 4700 
Q 1616 4750 1894 4750 
Q 2613 4750 3031 4423 
Q 3450 4097 3450 3541 
Q 3450 3153 3228 2886 
Q 3006 2619 2597 2516 
z
" transform="scale(0.015625)"/>
       </defs>
       <use xlink:href="#DejaVuSans-33"/>
       <use xlink:href="#DejaVuSans-30" x="63.623047"/>
      </g>
     </g>
    </g>
    <g id="ytick_11">
     <g id="line2d_23">
      <g>
       <use xlink:href="#mc5da839d1c" x="860.823529" y="730.54104" style="stroke: #000000; stroke-width: 0.8"/>
      </g>
     </g>
     <g id="text_22">
      <!-- 40 -->
      <g transform="translate(841.098529 734.340259) scale(0.1 -0.1)">
       <use xlink:href="#DejaVuSans-34"/>
       <use xlink:href="#DejaVuSans-30" x="63.623047"/>
      </g>
     </g>
    </g>
    <g id="ytick_12">
     <g id="line2d_24">
      <g>
       <use xlink:href="#mc5da839d1c" x="860.823529" y="605.3763" style="stroke: #000000; stroke-width: 0.8"/>
      </g>
     </g>
     <g id="text_23">
      <!-- 50 -->
      <g transform="translate(841.098529 609.175519) scale(0.1 -0.1)">
       <defs>
        <path id="DejaVuSans-35" d="M 691 4666 
L 3169 4666 
L 3169 4134 
L 1269 4134 
L 1269 2991 
Q 1406 3038 1543 3061 
Q 1681 3084 1819 3084 
Q 2600 3084 3056 2656 
Q 3513 2228 3513 1497 
Q 3513 744 3044 326 
Q 2575 -91 1722 -91 
Q 1428 -91 1123 -41 
Q 819 9 494 109 
L 494 744 
Q 775 591 1075 516 
Q 1375 441 1709 441 
Q 2250 441 2565 725 
Q 2881 1009 2881 1497 
Q 2881 1984 2565 2268 
Q 2250 2553 1709 2553 
Q 1456 2553 1204 2497 
Q 953 2441 691 2322 
L 691 4666 
z
" transform="scale(0.015625)"/>
       </defs>
       <use xlink:href="#DejaVuSans-35"/>
       <use xlink:href="#DejaVuSans-30" x="63.623047"/>
      </g>
     </g>
    </g>
    <g id="ytick_13">
     <g id="line2d_25">
      <g>
       <use xlink:href="#mc5da839d1c" x="860.823529" y="480.21156" style="stroke: #000000; stroke-width: 0.8"/>
      </g>
     </g>
     <g id="text_24">
      <!-- 60 -->
      <g transform="translate(841.098529 484.010779) scale(0.1 -0.1)">
       <use xlink:href="#DejaVuSans-36"/>
       <use xlink:href="#DejaVuSans-30" x="63.623047"/>
      </g>
     </g>
    </g>
    <g id="ytick_14">
     <g id="line2d_26">
      <g>
       <use xlink:href="#mc5da839d1c" x="860.823529" y="355.04682" style="stroke: #000000; stroke-width: 0.8"/>
      </g>
     </g>
     <g id="text_25">
      <!-- 70 -->
      <g transform="translate(841.098529 358.846039) scale(0.1 -0.1)">
       <defs>
        <path id="DejaVuSans-37" d="M 525 4666 
L 3525 4666 
L 3525 4397 
L 1831 0 
L 1172 0 
L 2766 4134 
L 525 4134 
L 525 4666 
z
" transform="scale(0.015625)"/>
       </defs>
       <use xlink:href="#DejaVuSans-37"/>
       <use xlink:href="#DejaVuSans-30" x="63.623047"/>
      </g>
     </g>
    </g>
    <g id="ytick_15">
     <g id="line2d_27">
      <g>
       <use xlink:href="#mc5da839d1c" x="860.823529" y="229.88208" style="stroke: #000000; stroke-width: 0.8"/>
      </g>
     </g>
     <g id="text_26">
      <!-- 80 -->
      <g transform="translate(841.098529 233.681299) scale(0.1 -0.1)">
       <use xlink:href="#DejaVuSans-38"/>
       <use xlink:href="#DejaVuSans-30" x="63.623047"/>
      </g>
     </g>
    </g>
   </g>
   <g id="line2d_28">
    <path d="M 883.203209 1231.2 
L 907.312465 1231.107464 
L 907.836579 1226.064833 
L 909.408922 1226.064833 
L 909.933036 1228.041166 
L 911.505379 1228.041166 
L 912.029493 1226.865841 
L 913.601836 1226.865841 
L 914.12595 1229.182845 
L 915.698293 1229.182845 
L 916.222407 1218.77305 
L 917.79475 1218.77305 
L 918.318864 1202.993335 
L 919.891207 1202.993335 
L 920.415321 1195.14326 
L 921.987664 1195.14326 
L 922.511778 1174.465459 
L 924.084121 1174.465459 
L 924.608236 1155.408389 
L 934.566407 1155.408389 
L 935.090521 1147.137318 
L 940.855778 1147.137318 
L 941.379892 1138.316072 
L 947.145149 1138.316072 
L 947.669263 1126.297277 
L 949.241606 1126.297277 
L 949.76572 1122.922496 
L 951.338063 1122.922496 
L 951.862177 1119.208951 
L 955.530977 1119.208951 
L 956.055091 1096.414123 
L 957.627434 1096.414123 
L 958.151549 1060.567349 
L 959.723891 1060.567349 
L 960.248006 1051.01811 
L 961.820348 1051.01811 
L 962.344463 1032.629491 
L 963.916805 1032.629491 
L 964.44092 988.115437 
L 966.013263 988.115437 
L 966.537377 957.133585 
L 989.07429 957.133585 
L 989.598404 947.998317 
L 995.363661 947.998317 
L 995.887776 938.997302 
L 997.460118 938.997302 
L 997.984233 929.902178 
L 999.556576 929.902178 
L 1000.08069 920.715358 
L 1003.74949 920.715358 
L 1004.273604 917.472844 
L 1012.135318 917.472844 
L 1012.659432 914.14319 
L 1014.231775 914.14319 
L 1014.755889 892.040205 
L 1016.328232 892.040205 
L 1016.852346 875.160538 
L 1018.424689 875.160538 
L 1018.948803 837.751763 
L 1020.521146 837.751763 
L 1021.04526 804.842334 
L 1022.617603 804.842334 
L 1023.141717 778.903375 
L 1024.71406 778.903375 
L 1025.238175 747.005933 
L 1026.810517 747.005933 
L 1027.334632 708.264953 
L 1028.906974 708.264953 
L 1029.431089 690.938955 
L 1031.003431 690.938955 
L 1031.527546 666.943505 
L 1037.292803 666.943505 
L 1037.816917 661.52631 
L 1039.38926 661.52631 
L 1039.913374 650.324726 
L 1041.485717 650.324726 
L 1042.009831 658.055116 
L 1043.582174 658.055116 
L 1044.106288 661.731961 
L 1045.678631 661.731961 
L 1046.202745 669.369944 
L 1047.775088 669.369944 
L 1048.299202 673.312489 
L 1049.871545 673.312489 
L 1050.395659 676.895019 
L 1051.968002 676.895019 
L 1052.492116 665.858081 
L 1056.160916 665.858081 
L 1056.68503 658.352725 
L 1058.257373 658.352725 
L 1058.781488 654.894936 
L 1060.35383 654.894936 
L 1060.877945 644.05191 
L 1062.450287 644.05191 
L 1062.974402 622.662944 
L 1064.546744 622.662944 
L 1065.070859 612.422038 
L 1066.643202 612.422038 
L 1067.167316 603.518925 
L 1068.739659 603.518925 
L 1069.263773 597.755137 
L 1070.836116 597.755137 
L 1071.36023 588.288172 
L 1072.932573 588.288172 
L 1073.456687 597.661641 
L 1075.02903 597.661641 
L 1075.553144 618.660417 
L 1077.125487 618.660417 
L 1077.649601 612.078492 
L 1079.221944 612.078492 
L 1079.746058 594.020057 
L 1081.318401 594.020057 
L 1081.842515 578.69805 
L 1083.414858 578.69805 
L 1083.938972 580.910656 
L 1085.511315 580.910656 
L 1086.035429 566.359053 
L 1087.607772 566.359053 
L 1088.131886 553.854448 
L 1089.704229 553.854448 
L 1090.228343 551.827605 
L 1093.897143 551.753496 
L 1094.421258 553.721155 
L 1095.9936 553.721155 
L 1096.517715 549.87082 
L 1098.090057 549.87082 
L 1098.614172 537.851637 
L 1100.186515 537.851637 
L 1100.710629 539.656496 
L 1102.282972 539.656496 
L 1102.807086 535.567402 
L 1104.379429 535.567402 
L 1104.903543 523.856456 
L 1106.475886 523.856456 
L 1107 516.333777 
L 1108.572343 516.333777 
L 1109.096457 508.871671 
L 1110.6688 508.871671 
L 1111.192914 504.808498 
L 1112.765257 504.808498 
L 1113.289371 502.396146 
L 1116.958171 502.396146 
L 1117.482285 516.986282 
L 1119.054628 516.986282 
L 1119.578742 524.172594 
L 1121.151085 524.172594 
L 1121.675199 521.615876 
L 1123.247542 521.615876 
L 1123.771657 527.102291 
L 1125.343999 527.102291 
L 1125.868114 528.461483 
L 1127.440456 528.461483 
L 1127.964571 543.335059 
L 1129.536913 543.335059 
L 1130.061028 546.174817 
L 1131.63337 546.174817 
L 1132.157485 558.059039 
L 1133.729828 558.059039 
L 1134.253942 557.479365 
L 1135.826285 557.479365 
L 1136.350399 545.902132 
L 1137.922742 545.902132 
L 1138.446856 538.492797 
L 1140.019199 538.492797 
L 1140.543313 537.397394 
L 1142.115656 537.397394 
L 1142.63977 531.185195 
L 1144.212113 531.185195 
L 1144.736227 520.94108 
L 1146.30857 520.94108 
L 1146.832684 525.044284 
L 1148.405027 525.044284 
L 1148.929141 529.140671 
L 1150.501484 529.140671 
L 1151.025598 528.165155 
L 1152.597941 528.165155 
L 1153.122055 524.055064 
L 1154.694398 524.055064 
L 1155.218512 513.028537 
L 1156.790855 513.028537 
L 1157.31497 506.186818 
L 1160.983769 506.186818 
L 1161.507884 500.329282 
L 1163.080226 500.329282 
L 1163.604341 506.960997 
L 1165.176683 506.960997 
L 1165.700798 518.355406 
L 1167.273141 518.355406 
L 1167.797255 521.726725 
L 1169.369598 521.726725 
L 1169.893712 521.044555 
L 1171.466055 521.044555 
L 1171.990169 519.719067 
L 1173.562512 519.719067 
L 1174.086626 522.592063 
L 1175.658969 522.592063 
L 1176.183083 512.073908 
L 1177.755426 512.073908 
L 1178.27954 486.250826 
L 1179.851883 486.250826 
L 1180.375997 471.02863 
L 1181.94834 471.02863 
L 1182.472454 451.009987 
L 1184.044797 451.009987 
L 1184.568911 430.861689 
L 1186.141254 430.861689 
L 1186.665368 411.777561 
L 1188.237711 411.777561 
L 1188.761825 401.811223 
L 1190.334168 401.811223 
L 1190.858283 387.85836 
L 1192.430625 387.85836 
L 1192.95474 369.05545 
L 1194.527082 369.05545 
L 1195.051197 359.768576 
L 1196.623539 359.768576 
L 1197.147654 345.986677 
L 1198.719996 345.986677 
L 1199.244111 350.760748 
L 1200.816454 350.760748 
L 1201.340568 342.538485 
L 1202.912911 342.538485 
L 1203.437025 355.823406 
L 1205.009368 355.823406 
L 1205.533482 356.197975 
L 1207.105825 356.197975 
L 1207.629939 356.508055 
L 1209.202282 356.508055 
L 1209.726396 352.541598 
L 1211.298739 352.541598 
L 1211.822853 352.679263 
L 1213.395196 352.679263 
L 1213.91931 352.930621 
L 1215.491653 352.930621 
L 1216.015767 365.851982 
L 1217.58811 365.851982 
L 1218.112224 374.255805 
L 1219.684567 374.255805 
L 1220.208681 378.367021 
L 1221.781024 378.367021 
L 1222.305138 374.249045 
L 1223.877481 374.249045 
L 1224.401596 369.96506 
L 1225.973938 369.96506 
L 1226.498053 361.580386 
L 1228.070395 361.580386 
L 1228.59451 353.291469 
L 1232.263309 353.274835 
L 1232.787424 357.446273 
L 1234.359767 357.446273 
L 1234.883881 353.415188 
L 1236.456224 353.415188 
L 1236.980338 349.407936 
L 1238.552681 349.407936 
L 1239.076795 349.55344 
L 1240.649138 349.55344 
L 1241.173252 365.863456 
L 1242.745595 365.863456 
L 1243.269709 370.054909 
L 1244.842052 370.054909 
L 1245.366166 358.812431 
L 1246.938509 358.812431 
L 1247.462623 363.067545 
L 1249.034966 363.067545 
L 1249.55908 367.656331 
L 1251.131423 367.656331 
L 1251.655537 363.722064 
L 1253.22788 363.722064 
L 1253.751994 364.087099 
L 1255.324337 364.087099 
L 1255.848451 369.235653 
L 1257.420794 369.235653 
L 1257.944909 370.640745 
L 1261.613708 370.643426 
L 1262.137823 359.098173 
L 1263.710165 359.098173 
L 1264.23428 351.430811 
L 1265.806622 351.430811 
L 1266.330737 347.600945 
L 1267.90308 347.600945 
L 1268.427194 339.954168 
L 1269.999537 339.954168 
L 1270.523651 336.137237 
L 1272.095994 336.137237 
L 1272.620108 332.322785 
L 1274.192451 332.322785 
L 1274.716565 324.701164 
L 1276.288908 324.701164 
L 1276.813022 317.089015 
L 1278.385365 317.089015 
L 1278.909479 309.486074 
L 1280.481822 309.486074 
L 1281.005936 305.688008 
L 1282.578279 305.688008 
L 1283.102393 294.328024 
L 1284.674736 294.328024 
L 1285.19885 286.779187 
L 1286.771193 286.779187 
L 1287.295307 283.008011 
L 1290.964107 283.008011 
L 1291.488222 279.238971 
L 1293.060564 279.238971 
L 1293.584679 267.956804 
L 1295.157021 267.956804 
L 1295.681136 256.715751 
L 1297.253478 256.715751 
L 1297.777593 245.520212 
L 1299.349936 245.520212 
L 1299.87405 238.079703 
L 1301.446393 238.079703 
L 1301.970507 226.955755 
L 1303.54285 226.955755 
L 1304.066964 239.79755 
L 1305.639307 239.79755 
L 1306.163421 249.867604 
L 1307.735764 249.867604 
L 1308.259878 252.685911 
L 1309.832221 252.685911 
L 1310.356335 255.592989 
L 1311.928678 255.592989 
L 1312.452792 264.822496 
L 1316.121592 264.844068 
L 1316.645706 261.976715 
L 1318.218049 261.976715 
L 1318.742163 266.628017 
L 1320.314506 266.628017 
L 1320.83862 262.917245 
L 1322.410963 262.917245 
L 1322.935077 265.26463 
L 1324.50742 265.26463 
L 1325.031535 251.189742 
L 1326.603877 251.189742 
L 1327.127992 237.169681 
L 1328.700334 237.169681 
L 1329.224449 223.2 
L 1330.796791 223.2 
L 1330.796791 223.2 
" clip-path="url(#p5ef3ea965b)" style="fill: none; stroke: #0000ff; stroke-width: 1.5; stroke-linecap: square"/>
   </g>
   <g id="patch_9">
    <path d="M 860.823529 1281.6 
L 860.823529 172.8 
" style="fill: none; stroke: #000000; stroke-width: 0.8; stroke-linejoin: miter; stroke-linecap: square"/>
   </g>
   <g id="patch_10">
    <path d="M 1353.176471 1281.6 
L 1353.176471 172.8 
" style="fill: none; stroke: #000000; stroke-width: 0.8; stroke-linejoin: miter; stroke-linecap: square"/>
   </g>
   <g id="patch_11">
    <path d="M 860.823529 1281.6 
L 1353.176471 1281.6 
" style="fill: none; stroke: #000000; stroke-width: 0.8; stroke-linejoin: miter; stroke-linecap: square"/>
   </g>
   <g id="patch_12">
    <path d="M 860.823529 172.8 
L 1353.176471 172.8 
" style="fill: none; stroke: #000000; stroke-width: 0.8; stroke-linejoin: miter; stroke-linecap: square"/>
   </g>
   <g id="legend_2">
    <g id="patch_13">
     <path d="M 1262.134283 195.478125 
L 1346.176471 195.478125 
Q 1348.176471 195.478125 1348.176471 193.478125 
L 1348.176471 179.8 
Q 1348.176471 177.8 1346.176471 177.8 
L 1262.134283 177.8 
Q 1260.134283 177.8 1260.134283 179.8 
L 1260.134283 193.478125 
Q 1260.134283 195.478125 1262.134283 195.478125 
z
" style="fill: #ffffff; opacity: 0.8; stroke: #cccccc; stroke-linejoin: miter"/>
    </g>
    <g id="line2d_29">
     <path d="M 1264.134283 185.898437 
L 1274.134283 185.898437 
L 1284.134283 185.898437 
" style="fill: none; stroke: #0000ff; stroke-width: 1.5; stroke-linecap: square"/>
    </g>
    <g id="text_27">
     <!-- O2 reward -->
     <g transform="translate(1292.134283 189.398437) scale(0.1 -0.1)">
      <use xlink:href="#DejaVuSans-4f"/>
      <use xlink:href="#DejaVuSans-32" x="78.710938"/>
      <use xlink:href="#DejaVuSans-20" x="142.333984"/>
      <use xlink:href="#DejaVuSans-72" x="174.121094"/>
      <use xlink:href="#DejaVuSans-65" x="212.984375"/>
      <use xlink:href="#DejaVuSans-77" x="274.507812"/>
      <use xlink:href="#DejaVuSans-61" x="356.294922"/>
      <use xlink:href="#DejaVuSans-72" x="417.574219"/>
      <use xlink:href="#DejaVuSans-64" x="456.9375"/>
     </g>
    </g>
   </g>
  </g>
  <g id="axes_3">
   <g id="patch_14">
    <path d="M 1451.647059 1281.6 
L 1944 1281.6 
L 1944 172.8 
L 1451.647059 172.8 
z
" style="fill: #ffffff"/>
   </g>
   <g id="matplotlib.axis_5">
    <g id="xtick_11">
     <g id="line2d_30">
      <g>
       <use xlink:href="#m1634ba278f" x="1473.502624" y="1281.6" style="stroke: #000000; stroke-width: 0.8"/>
      </g>
     </g>
     <g id="text_28">
      <!-- 0 -->
      <g transform="translate(1470.321374 1296.198437) scale(0.1 -0.1)">
       <use xlink:href="#DejaVuSans-30"/>
      </g>
     </g>
    </g>
    <g id="xtick_12">
     <g id="line2d_31">
      <g>
       <use xlink:href="#m1634ba278f" x="1578.325477" y="1281.6" style="stroke: #000000; stroke-width: 0.8"/>
      </g>
     </g>
     <g id="text_29">
      <!-- 200 -->
      <g transform="translate(1568.781727 1296.198437) scale(0.1 -0.1)">
       <use xlink:href="#DejaVuSans-32"/>
       <use xlink:href="#DejaVuSans-30" x="63.623047"/>
       <use xlink:href="#DejaVuSans-30" x="127.246094"/>
      </g>
     </g>
    </g>
    <g id="xtick_13">
     <g id="line2d_32">
      <g>
       <use xlink:href="#m1634ba278f" x="1683.14833" y="1281.6" style="stroke: #000000; stroke-width: 0.8"/>
      </g>
     </g>
     <g id="text_30">
      <!-- 400 -->
      <g transform="translate(1673.60458 1296.198437) scale(0.1 -0.1)">
       <use xlink:href="#DejaVuSans-34"/>
       <use xlink:href="#DejaVuSans-30" x="63.623047"/>
       <use xlink:href="#DejaVuSans-30" x="127.246094"/>
      </g>
     </g>
    </g>
    <g id="xtick_14">
     <g id="line2d_33">
      <g>
       <use xlink:href="#m1634ba278f" x="1787.971183" y="1281.6" style="stroke: #000000; stroke-width: 0.8"/>
      </g>
     </g>
     <g id="text_31">
      <!-- 600 -->
      <g transform="translate(1778.427433 1296.198437) scale(0.1 -0.1)">
       <use xlink:href="#DejaVuSans-36"/>
       <use xlink:href="#DejaVuSans-30" x="63.623047"/>
       <use xlink:href="#DejaVuSans-30" x="127.246094"/>
      </g>
     </g>
    </g>
    <g id="xtick_15">
     <g id="line2d_34">
      <g>
       <use xlink:href="#m1634ba278f" x="1892.794036" y="1281.6" style="stroke: #000000; stroke-width: 0.8"/>
      </g>
     </g>
     <g id="text_32">
      <!-- 800 -->
      <g transform="translate(1883.250286 1296.198437) scale(0.1 -0.1)">
       <use xlink:href="#DejaVuSans-38"/>
       <use xlink:href="#DejaVuSans-30" x="63.623047"/>
       <use xlink:href="#DejaVuSans-30" x="127.246094"/>
      </g>
     </g>
    </g>
   </g>
   <g id="matplotlib.axis_6">
    <g id="ytick_16">
     <g id="line2d_35">
      <g>
       <use xlink:href="#mc5da839d1c" x="1451.647059" y="1231.2" style="stroke: #000000; stroke-width: 0.8"/>
      </g>
     </g>
     <g id="text_33">
      <!-- 0.0 -->
      <g transform="translate(1428.743934 1234.999219) scale(0.1 -0.1)">
       <defs>
        <path id="DejaVuSans-2e" d="M 684 794 
L 1344 794 
L 1344 0 
L 684 0 
L 684 794 
z
" transform="scale(0.015625)"/>
       </defs>
       <use xlink:href="#DejaVuSans-30"/>
       <use xlink:href="#DejaVuSans-2e" x="63.623047"/>
       <use xlink:href="#DejaVuSans-30" x="95.410156"/>
      </g>
     </g>
    </g>
    <g id="ytick_17">
     <g id="line2d_36">
      <g>
       <use xlink:href="#mc5da839d1c" x="1451.647059" y="1093.93303" style="stroke: #000000; stroke-width: 0.8"/>
      </g>
     </g>
     <g id="text_34">
      <!-- 2.5 -->
      <g transform="translate(1428.743934 1097.732249) scale(0.1 -0.1)">
       <use xlink:href="#DejaVuSans-32"/>
       <use xlink:href="#DejaVuSans-2e" x="63.623047"/>
       <use xlink:href="#DejaVuSans-35" x="95.410156"/>
      </g>
     </g>
    </g>
    <g id="ytick_18">
     <g id="line2d_37">
      <g>
       <use xlink:href="#mc5da839d1c" x="1451.647059" y="956.66606" style="stroke: #000000; stroke-width: 0.8"/>
      </g>
     </g>
     <g id="text_35">
      <!-- 5.0 -->
      <g transform="translate(1428.743934 960.465278) scale(0.1 -0.1)">
       <use xlink:href="#DejaVuSans-35"/>
       <use xlink:href="#DejaVuSans-2e" x="63.623047"/>
       <use xlink:href="#DejaVuSans-30" x="95.410156"/>
      </g>
     </g>
    </g>
    <g id="ytick_19">
     <g id="line2d_38">
      <g>
       <use xlink:href="#mc5da839d1c" x="1451.647059" y="819.399089" style="stroke: #000000; stroke-width: 0.8"/>
      </g>
     </g>
     <g id="text_36">
      <!-- 7.5 -->
      <g transform="translate(1428.743934 823.198308) scale(0.1 -0.1)">
       <use xlink:href="#DejaVuSans-37"/>
       <use xlink:href="#DejaVuSans-2e" x="63.623047"/>
       <use xlink:href="#DejaVuSans-35" x="95.410156"/>
      </g>
     </g>
    </g>
    <g id="ytick_20">
     <g id="line2d_39">
      <g>
       <use xlink:href="#mc5da839d1c" x="1451.647059" y="682.132119" style="stroke: #000000; stroke-width: 0.8"/>
      </g>
     </g>
     <g id="text_37">
      <!-- 10.0 -->
      <g transform="translate(1422.381434 685.931338) scale(0.1 -0.1)">
       <use xlink:href="#DejaVuSans-31"/>
       <use xlink:href="#DejaVuSans-30" x="63.623047"/>
       <use xlink:href="#DejaVuSans-2e" x="127.246094"/>
       <use xlink:href="#DejaVuSans-30" x="159.033203"/>
      </g>
     </g>
    </g>
    <g id="ytick_21">
     <g id="line2d_40">
      <g>
       <use xlink:href="#mc5da839d1c" x="1451.647059" y="544.865149" style="stroke: #000000; stroke-width: 0.8"/>
      </g>
     </g>
     <g id="text_38">
      <!-- 12.5 -->
      <g transform="translate(1422.381434 548.664368) scale(0.1 -0.1)">
       <use xlink:href="#DejaVuSans-31"/>
       <use xlink:href="#DejaVuSans-32" x="63.623047"/>
       <use xlink:href="#DejaVuSans-2e" x="127.246094"/>
       <use xlink:href="#DejaVuSans-35" x="159.033203"/>
      </g>
     </g>
    </g>
    <g id="ytick_22">
     <g id="line2d_41">
      <g>
       <use xlink:href="#mc5da839d1c" x="1451.647059" y="407.598179" style="stroke: #000000; stroke-width: 0.8"/>
      </g>
     </g>
     <g id="text_39">
      <!-- 15.0 -->
      <g transform="translate(1422.381434 411.397398) scale(0.1 -0.1)">
       <use xlink:href="#DejaVuSans-31"/>
       <use xlink:href="#DejaVuSans-35" x="63.623047"/>
       <use xlink:href="#DejaVuSans-2e" x="127.246094"/>
       <use xlink:href="#DejaVuSans-30" x="159.033203"/>
      </g>
     </g>
    </g>
    <g id="ytick_23">
     <g id="line2d_42">
      <g>
       <use xlink:href="#mc5da839d1c" x="1451.647059" y="270.331209" style="stroke: #000000; stroke-width: 0.8"/>
      </g>
     </g>
     <g id="text_40">
      <!-- 17.5 -->
      <g transform="translate(1422.381434 274.130427) scale(0.1 -0.1)">
       <use xlink:href="#DejaVuSans-31"/>
       <use xlink:href="#DejaVuSans-37" x="63.623047"/>
       <use xlink:href="#DejaVuSans-2e" x="127.246094"/>
       <use xlink:href="#DejaVuSans-35" x="159.033203"/>
      </g>
     </g>
    </g>
   </g>
   <g id="line2d_43">
    <path d="M 1474.026738 1231.2 
L 1496.039537 1231.2 
L 1496.563651 1209.7862 
L 1498.135994 1209.7862 
L 1498.660108 1192.675037 
L 1500.232451 1192.675037 
L 1500.756566 1178.12038 
L 1502.328908 1178.12038 
L 1502.853023 1156.549856 
L 1504.425365 1156.549856 
L 1504.94948 1149.296297 
L 1506.521822 1149.296297 
L 1507.045937 1121.0572 
L 1508.61828 1121.0572 
L 1509.142394 1129.26179 
L 1510.714737 1129.26179 
L 1511.238851 1113.190924 
L 1512.811194 1113.190924 
L 1513.335308 1097.345317 
L 1514.907651 1097.345317 
L 1515.431765 1086.596471 
L 1517.004108 1086.596471 
L 1517.528222 1068.391842 
L 1519.100565 1068.391842 
L 1519.624679 1051.303348 
L 1521.197022 1051.303348 
L 1521.721136 1040.714052 
L 1525.389936 1040.714052 
L 1525.91405 1036.052737 
L 1527.486393 1036.052737 
L 1528.010507 1025.845706 
L 1529.58285 1025.845706 
L 1530.106964 1020.161336 
L 1533.775764 1020.161336 
L 1534.299879 1015.917882 
L 1535.872221 1015.917882 
L 1536.396336 1006.621495 
L 1540.065135 1006.621495 
L 1540.58925 1002.727209 
L 1542.161593 1002.727209 
L 1542.685707 986.310235 
L 1544.25805 986.310235 
L 1544.782164 963.274039 
L 1546.354507 963.274039 
L 1546.878621 947.135731 
L 1548.450964 947.135731 
L 1548.975078 936.397003 
L 1550.547421 936.397003 
L 1551.071535 906.441502 
L 1552.643878 906.441502 
L 1553.167992 891.537972 
L 1554.740335 891.537972 
L 1555.264449 886.859326 
L 1556.836792 886.859326 
L 1557.360906 872.267444 
L 1558.933249 872.267444 
L 1559.457363 862.549182 
L 1561.029706 862.549182 
L 1561.55382 854.25637 
L 1563.126163 854.25637 
L 1563.650277 839.759469 
L 1565.22262 839.759469 
L 1565.746734 833.852167 
L 1567.319077 833.852167 
L 1567.843192 820.645301 
L 1571.511991 820.550704 
L 1572.036106 824.285878 
L 1573.608448 824.285878 
L 1574.132563 826.599725 
L 1575.704906 826.599725 
L 1576.22902 821.180826 
L 1577.801363 821.180826 
L 1578.325477 823.454668 
L 1579.89782 823.454668 
L 1580.421934 820.270896 
L 1581.994277 820.270896 
L 1582.518391 823.84601 
L 1584.090734 823.84601 
L 1584.614848 820.493319 
L 1588.283648 820.493319 
L 1588.807762 817.076666 
L 1590.380105 817.076666 
L 1590.904219 806.990943 
L 1592.476562 806.990943 
L 1593.000676 798.244342 
L 1594.573019 798.244342 
L 1595.097133 803.580552 
L 1596.669476 803.580552 
L 1597.19359 805.717232 
L 1602.958847 805.717232 
L 1603.482962 795.76499 
L 1605.055304 795.76499 
L 1605.579419 777.041035 
L 1607.151761 777.041035 
L 1607.675876 767.961157 
L 1609.248219 767.961157 
L 1609.772333 761.546517 
L 1611.344676 761.546517 
L 1611.86879 757.341354 
L 1613.441133 757.341354 
L 1613.965247 747.29891 
L 1615.53759 747.29891 
L 1616.061704 740.561263 
L 1617.634047 740.561263 
L 1618.158161 735.332195 
L 1619.730504 735.332195 
L 1620.254618 724.628215 
L 1621.826961 724.628215 
L 1622.351075 718.289383 
L 1623.923418 718.289383 
L 1624.447532 709.544108 
L 1626.019875 709.544108 
L 1626.543989 707.142407 
L 1628.116332 707.142407 
L 1628.640446 697.27784 
L 1630.212789 697.27784 
L 1630.736903 689.104207 
L 1632.309246 689.104207 
L 1632.83336 681.074749 
L 1634.405703 681.074749 
L 1634.929818 673.364878 
L 1638.598617 673.364878 
L 1639.122732 668.004929 
L 1640.695074 668.004929 
L 1641.219189 663.351132 
L 1642.791532 663.351132 
L 1643.315646 665.533112 
L 1644.887989 665.533112 
L 1645.412103 661.411487 
L 1646.984446 661.411487 
L 1647.50856 654.249442 
L 1649.080903 654.249442 
L 1649.605017 649.110383 
L 1651.17736 649.110383 
L 1651.701474 643.928462 
L 1653.273817 643.928462 
L 1653.797931 637.070179 
L 1655.370274 637.070179 
L 1655.894388 622.463183 
L 1657.466731 622.463183 
L 1657.990845 620.829058 
L 1659.563188 620.829058 
L 1660.087302 618.543379 
L 1661.659645 618.543379 
L 1662.183759 609.5725 
L 1663.756102 609.5725 
L 1664.280216 603.15589 
L 1665.852559 603.15589 
L 1666.376673 598.733383 
L 1667.949016 598.733383 
L 1668.473131 590.788338 
L 1670.045473 590.788338 
L 1670.569588 581.735204 
L 1672.14193 581.735204 
L 1672.666045 576.920662 
L 1674.238387 576.920662 
L 1674.762502 576.036772 
L 1676.334845 576.036772 
L 1676.858959 573.472244 
L 1678.431302 573.472244 
L 1678.955416 570.026589 
L 1680.527759 570.026589 
L 1681.051873 564.982038 
L 1682.624216 564.982038 
L 1683.14833 563.334621 
L 1684.720673 563.334621 
L 1685.244787 556.225796 
L 1686.81713 556.225796 
L 1687.341244 553.793767 
L 1688.913587 553.793767 
L 1689.437701 550.102169 
L 1691.010044 550.102169 
L 1691.534158 546.429575 
L 1693.106501 546.429575 
L 1693.630615 542.37227 
L 1697.299415 542.37227 
L 1697.823529 539.965075 
L 1699.395872 539.965075 
L 1699.919986 538.760754 
L 1701.492329 538.760754 
L 1702.016444 533.579837 
L 1705.685243 533.579837 
L 1706.209358 534.773323 
L 1707.7817 534.773323 
L 1708.305815 535.176092 
L 1709.878158 535.176092 
L 1710.402272 532.878217 
L 1711.974615 532.878217 
L 1712.498729 525.485187 
L 1714.071072 525.485187 
L 1714.595186 522.509303 
L 1716.167529 522.509303 
L 1716.691643 523.196955 
L 1718.263986 523.196955 
L 1718.7881 515.954867 
L 1720.360443 515.954867 
L 1720.884557 510.049247 
L 1722.4569 510.049247 
L 1722.981014 509.090732 
L 1724.553357 509.090732 
L 1725.077471 506.329018 
L 1726.649814 506.329018 
L 1727.173928 502.405675 
L 1728.746271 502.405675 
L 1729.270385 501.801303 
L 1730.842728 501.801303 
L 1731.366842 497.671776 
L 1732.939185 497.671776 
L 1733.463299 494.448485 
L 1735.035642 494.448485 
L 1735.559757 489.159114 
L 1737.132099 489.159114 
L 1737.656214 486.028918 
L 1739.228556 486.028918 
L 1739.752671 481.851705 
L 1741.325013 481.851705 
L 1741.849128 478.016886 
L 1743.421471 478.016886 
L 1743.945585 475.008056 
L 1745.517928 475.008056 
L 1746.042042 474.498643 
L 1747.614385 474.498643 
L 1748.138499 470.767934 
L 1749.710842 470.767934 
L 1750.234956 465.597576 
L 1751.807299 465.597576 
L 1752.331413 461.079995 
L 1753.903756 461.079995 
L 1754.42787 454.850648 
L 1756.000213 454.850648 
L 1756.524327 449.218173 
L 1758.09667 449.218173 
L 1758.620784 435.943309 
L 1760.193127 435.943309 
L 1760.717241 426.572672 
L 1762.289584 426.572672 
L 1762.813698 419.640791 
L 1764.386041 419.640791 
L 1764.910155 415.298766 
L 1766.482498 415.298766 
L 1767.006612 409.125565 
L 1768.578955 409.125565 
L 1769.10307 404.694956 
L 1770.675412 404.694956 
L 1771.199527 394.409127 
L 1772.771869 394.409127 
L 1773.295984 388.722485 
L 1774.868326 388.722485 
L 1775.392441 382.976592 
L 1776.964784 382.976592 
L 1777.488898 378.376275 
L 1779.061241 378.376275 
L 1779.585355 372.755478 
L 1781.157698 372.755478 
L 1781.681812 367.421647 
L 1783.254155 367.421647 
L 1783.778269 361.517144 
L 1785.350612 361.517144 
L 1785.874726 355.404386 
L 1787.447069 355.404386 
L 1787.971183 353.478643 
L 1789.543526 353.478643 
L 1790.06764 349.928471 
L 1791.639983 349.928471 
L 1792.164097 348.660231 
L 1793.73644 348.660231 
L 1794.260554 347.134548 
L 1795.832897 347.134548 
L 1796.357011 344.618793 
L 1797.929354 344.618793 
L 1798.453468 340.631921 
L 1800.025811 340.631921 
L 1800.549925 339.138132 
L 1802.122268 339.138132 
L 1802.646383 336.674981 
L 1804.218725 336.674981 
L 1804.74284 334.478417 
L 1808.411639 334.478417 
L 1808.935754 334.236926 
L 1810.508097 334.236926 
L 1811.032211 332.52774 
L 1812.604554 332.52774 
L 1813.128668 331.790474 
L 1814.701011 331.790474 
L 1815.225125 330.105345 
L 1816.797468 330.105345 
L 1817.321582 328.909357 
L 1818.893925 328.909357 
L 1819.418039 326.187314 
L 1820.990382 326.187314 
L 1821.514496 321.662352 
L 1823.086839 321.662352 
L 1823.610953 320.704687 
L 1825.183296 320.704687 
L 1825.70741 315.9241 
L 1827.279753 315.9241 
L 1827.803867 312.878655 
L 1829.37621 312.878655 
L 1829.900324 310.986243 
L 1831.472667 310.986243 
L 1831.996781 307.778022 
L 1833.569124 307.778022 
L 1834.093238 303.278701 
L 1835.665581 303.278701 
L 1836.189696 299.764566 
L 1837.762038 299.764566 
L 1838.286153 294.432835 
L 1839.858495 294.432835 
L 1840.38261 292.245447 
L 1841.954952 292.245447 
L 1842.479067 289.897868 
L 1844.05141 289.897868 
L 1844.575524 284.587727 
L 1846.147867 284.587727 
L 1846.671981 283.520095 
L 1848.244324 283.520095 
L 1848.768438 282.302507 
L 1850.340781 282.302507 
L 1850.864895 279.267079 
L 1852.437238 279.267079 
L 1852.961352 276.710058 
L 1854.533695 276.710058 
L 1855.057809 272.916836 
L 1856.630152 272.916836 
L 1857.154266 268.937825 
L 1858.726609 268.937825 
L 1859.250723 267.184357 
L 1860.823066 267.184357 
L 1861.34718 264.248379 
L 1862.919523 264.248379 
L 1863.443637 262.727183 
L 1865.01598 262.727183 
L 1865.540094 263.280981 
L 1867.112437 263.280981 
L 1867.636551 258.95268 
L 1869.208894 258.95268 
L 1869.733009 258.764453 
L 1871.305351 258.764453 
L 1871.829466 256.647007 
L 1875.498265 256.647007 
L 1876.02238 254.225839 
L 1877.594723 254.225839 
L 1878.118837 252.25086 
L 1879.69118 252.25086 
L 1880.215294 249.748755 
L 1881.787637 249.748755 
L 1882.311751 248.888093 
L 1883.884094 248.888093 
L 1884.408208 245.570908 
L 1885.980551 245.570908 
L 1886.504665 243.17835 
L 1888.077008 243.17835 
L 1888.601122 240.703334 
L 1890.173465 240.703334 
L 1890.697579 235.282664 
L 1892.269922 235.282664 
L 1892.794036 231.543198 
L 1896.462836 231.540187 
L 1896.98695 230.464919 
L 1898.559293 230.464919 
L 1899.083407 232.098502 
L 1900.65575 232.098502 
L 1901.179864 228.760383 
L 1902.752207 228.760383 
L 1903.276322 230.964955 
L 1904.848664 230.964955 
L 1905.372779 228.325135 
L 1906.945121 228.325135 
L 1907.469236 228.182345 
L 1909.041578 228.182345 
L 1909.565693 228.897478 
L 1913.234493 228.828948 
L 1913.758607 229.417804 
L 1915.33095 229.417804 
L 1915.855064 226.149459 
L 1917.427407 226.149459 
L 1917.951521 224.039954 
L 1919.523864 224.039954 
L 1920.047978 223.2 
L 1921.620321 223.2 
L 1921.620321 223.2 
" clip-path="url(#p2549193089)" style="fill: none; stroke: #0000ff; stroke-width: 1.5; stroke-linecap: square"/>
   </g>
   <g id="patch_15">
    <path d="M 1451.647059 1281.6 
L 1451.647059 172.8 
" style="fill: none; stroke: #000000; stroke-width: 0.8; stroke-linejoin: miter; stroke-linecap: square"/>
   </g>
   <g id="patch_16">
    <path d="M 1944 1281.6 
L 1944 172.8 
" style="fill: none; stroke: #000000; stroke-width: 0.8; stroke-linejoin: miter; stroke-linecap: square"/>
   </g>
   <g id="patch_17">
    <path d="M 1451.647059 1281.6 
L 1944 1281.6 
" style="fill: none; stroke: #000000; stroke-width: 0.8; stroke-linejoin: miter; stroke-linecap: square"/>
   </g>
   <g id="patch_18">
    <path d="M 1451.647059 172.8 
L 1944 172.8 
" style="fill: none; stroke: #000000; stroke-width: 0.8; stroke-linejoin: miter; stroke-linecap: square"/>
   </g>
   <g id="legend_3">
    <g id="patch_19">
     <path d="M 1852.957813 195.478125 
L 1937 195.478125 
Q 1939 195.478125 1939 193.478125 
L 1939 179.8 
Q 1939 177.8 1937 177.8 
L 1852.957813 177.8 
Q 1850.957813 177.8 1850.957813 179.8 
L 1850.957813 193.478125 
Q 1850.957813 195.478125 1852.957813 195.478125 
z
" style="fill: #ffffff; opacity: 0.8; stroke: #cccccc; stroke-linejoin: miter"/>
    </g>
    <g id="line2d_44">
     <path d="M 1854.957813 185.898437 
L 1864.957813 185.898437 
L 1874.957813 185.898437 
" style="fill: none; stroke: #0000ff; stroke-width: 1.5; stroke-linecap: square"/>
    </g>
    <g id="text_41">
     <!-- O3 reward -->
     <g transform="translate(1882.957813 189.398437) scale(0.1 -0.1)">
      <use xlink:href="#DejaVuSans-4f"/>
      <use xlink:href="#DejaVuSans-33" x="78.710938"/>
      <use xlink:href="#DejaVuSans-20" x="142.333984"/>
      <use xlink:href="#DejaVuSans-72" x="174.121094"/>
      <use xlink:href="#DejaVuSans-65" x="212.984375"/>
      <use xlink:href="#DejaVuSans-77" x="274.507812"/>
      <use xlink:href="#DejaVuSans-61" x="356.294922"/>
      <use xlink:href="#DejaVuSans-72" x="417.574219"/>
      <use xlink:href="#DejaVuSans-64" x="456.9375"/>
     </g>
    </g>
   </g>
  </g>
 </g>
 <defs>
  <clipPath id="p1d70dd2027">
   <rect x="270" y="172.8" width="492.352941" height="1108.8"/>
  </clipPath>
  <clipPath id="p5ef3ea965b">
   <rect x="860.823529" y="172.8" width="492.352941" height="1108.8"/>
  </clipPath>
  <clipPath id="p2549193089">
   <rect x="1451.647059" y="172.8" width="492.352941" height="1108.8"/>
  </clipPath>
 </defs>
</svg>
