<?xml version="1.0" encoding="utf-8" standalone="no"?>
<!DOCTYPE svg PUBLIC "-//W3C//DTD SVG 1.1//EN"
  "http://www.w3.org/Graphics/SVG/1.1/DTD/svg11.dtd">
<svg xmlns:xlink="http://www.w3.org/1999/xlink" width="2160pt" height="1440pt" viewBox="0 0 2160 1440" xmlns="http://www.w3.org/2000/svg" version="1.1">
 <metadata>
  <rdf:RDF xmlns:dc="http://purl.org/dc/elements/1.1/" xmlns:cc="http://creativecommons.org/ns#" xmlns:rdf="http://www.w3.org/1999/02/22-rdf-syntax-ns#">
   <cc:Work>
    <dc:type rdf:resource="http://purl.org/dc/dcmitype/StillImage"/>
    <dc:date>2023-05-31T19:55:18.749327</dc:date>
    <dc:format>image/svg+xml</dc:format>
    <dc:creator>
     <cc:Agent>
      <dc:title>Matplotlib v3.7.1, https://matplotlib.org/</dc:title>
     </cc:Agent>
    </dc:creator>
   </cc:Work>
  </rdf:RDF>
 </metadata>
 <defs>
  <style type="text/css">*{stroke-linejoin: round; stroke-linecap: butt}</style>
 </defs>
 <g id="figure_1">
  <g id="patch_1">
   <path d="M 0 1440 
L 2160 1440 
L 2160 0 
L 0 0 
z
" style="fill: #ffffff"/>
  </g>
  <g id="axes_1">
   <g id="patch_2">
    <path d="M 270 1281.6 
L 762.352941 1281.6 
L 762.352941 172.8 
L 270 172.8 
z
" style="fill: #ffffff"/>
   </g>
   <g id="matplotlib.axis_1">
    <g id="xtick_1">
     <g id="line2d_1">
      <defs>
       <path id="mf6fd91753b" d="M 0 0 
L 0 3.5 
" style="stroke: #000000; stroke-width: 0.8"/>
      </defs>
      <g>
       <use xlink:href="#mf6fd91753b" x="292.126658" y="1281.6" style="stroke: #000000; stroke-width: 0.8"/>
      </g>
     </g>
     <g id="text_1">
      <!-- 0 -->
      <g transform="translate(288.945408 1296.198437) scale(0.1 -0.1)">
       <defs>
        <path id="DejaVuSans-30" d="M 2034 4250 
Q 1547 4250 1301 3770 
Q 1056 3291 1056 2328 
Q 1056 1369 1301 889 
Q 1547 409 2034 409 
Q 2525 409 2770 889 
Q 3016 1369 3016 2328 
Q 3016 3291 2770 3770 
Q 2525 4250 2034 4250 
z
M 2034 4750 
Q 2819 4750 3233 4129 
Q 3647 3509 3647 2328 
Q 3647 1150 3233 529 
Q 2819 -91 2034 -91 
Q 1250 -91 836 529 
Q 422 1150 422 2328 
Q 422 3509 836 4129 
Q 1250 4750 2034 4750 
z
" transform="scale(0.015625)"/>
       </defs>
       <use xlink:href="#DejaVuSans-30"/>
      </g>
     </g>
    </g>
    <g id="xtick_2">
     <g id="line2d_2">
      <g>
       <use xlink:href="#mf6fd91753b" x="355.381828" y="1281.6" style="stroke: #000000; stroke-width: 0.8"/>
      </g>
     </g>
     <g id="text_2">
      <!-- 250 -->
      <g transform="translate(345.838078 1296.198437) scale(0.1 -0.1)">
       <defs>
        <path id="DejaVuSans-32" d="M 1228 531 
L 3431 531 
L 3431 0 
L 469 0 
L 469 531 
Q 828 903 1448 1529 
Q 2069 2156 2228 2338 
Q 2531 2678 2651 2914 
Q 2772 3150 2772 3378 
Q 2772 3750 2511 3984 
Q 2250 4219 1831 4219 
Q 1534 4219 1204 4116 
Q 875 4013 500 3803 
L 500 4441 
Q 881 4594 1212 4672 
Q 1544 4750 1819 4750 
Q 2544 4750 2975 4387 
Q 3406 4025 3406 3419 
Q 3406 3131 3298 2873 
Q 3191 2616 2906 2266 
Q 2828 2175 2409 1742 
Q 1991 1309 1228 531 
z
" transform="scale(0.015625)"/>
        <path id="DejaVuSans-35" d="M 691 4666 
L 3169 4666 
L 3169 4134 
L 1269 4134 
L 1269 2991 
Q 1406 3038 1543 3061 
Q 1681 3084 1819 3084 
Q 2600 3084 3056 2656 
Q 3513 2228 3513 1497 
Q 3513 744 3044 326 
Q 2575 -91 1722 -91 
Q 1428 -91 1123 -41 
Q 819 9 494 109 
L 494 744 
Q 775 591 1075 516 
Q 1375 441 1709 441 
Q 2250 441 2565 725 
Q 2881 1009 2881 1497 
Q 2881 1984 2565 2268 
Q 2250 2553 1709 2553 
Q 1456 2553 1204 2497 
Q 953 2441 691 2322 
L 691 4666 
z
" transform="scale(0.015625)"/>
       </defs>
       <use xlink:href="#DejaVuSans-32"/>
       <use xlink:href="#DejaVuSans-35" x="63.623047"/>
       <use xlink:href="#DejaVuSans-30" x="127.246094"/>
      </g>
     </g>
    </g>
    <g id="xtick_3">
     <g id="line2d_3">
      <g>
       <use xlink:href="#mf6fd91753b" x="418.636998" y="1281.6" style="stroke: #000000; stroke-width: 0.8"/>
      </g>
     </g>
     <g id="text_3">
      <!-- 500 -->
      <g transform="translate(409.093248 1296.198437) scale(0.1 -0.1)">
       <use xlink:href="#DejaVuSans-35"/>
       <use xlink:href="#DejaVuSans-30" x="63.623047"/>
       <use xlink:href="#DejaVuSans-30" x="127.246094"/>
      </g>
     </g>
    </g>
    <g id="xtick_4">
     <g id="line2d_4">
      <g>
       <use xlink:href="#mf6fd91753b" x="481.892168" y="1281.6" style="stroke: #000000; stroke-width: 0.8"/>
      </g>
     </g>
     <g id="text_4">
      <!-- 750 -->
      <g transform="translate(472.348418 1296.198437) scale(0.1 -0.1)">
       <defs>
        <path id="DejaVuSans-37" d="M 525 4666 
L 3525 4666 
L 3525 4397 
L 1831 0 
L 1172 0 
L 2766 4134 
L 525 4134 
L 525 4666 
z
" transform="scale(0.015625)"/>
       </defs>
       <use xlink:href="#DejaVuSans-37"/>
       <use xlink:href="#DejaVuSans-35" x="63.623047"/>
       <use xlink:href="#DejaVuSans-30" x="127.246094"/>
      </g>
     </g>
    </g>
    <g id="xtick_5">
     <g id="line2d_5">
      <g>
       <use xlink:href="#mf6fd91753b" x="545.147338" y="1281.6" style="stroke: #000000; stroke-width: 0.8"/>
      </g>
     </g>
     <g id="text_5">
      <!-- 1000 -->
      <g transform="translate(532.422338 1296.198437) scale(0.1 -0.1)">
       <defs>
        <path id="DejaVuSans-31" d="M 794 531 
L 1825 531 
L 1825 4091 
L 703 3866 
L 703 4441 
L 1819 4666 
L 2450 4666 
L 2450 531 
L 3481 531 
L 3481 0 
L 794 0 
L 794 531 
z
" transform="scale(0.015625)"/>
       </defs>
       <use xlink:href="#DejaVuSans-31"/>
       <use xlink:href="#DejaVuSans-30" x="63.623047"/>
       <use xlink:href="#DejaVuSans-30" x="127.246094"/>
       <use xlink:href="#DejaVuSans-30" x="190.869141"/>
      </g>
     </g>
    </g>
    <g id="xtick_6">
     <g id="line2d_6">
      <g>
       <use xlink:href="#mf6fd91753b" x="608.402508" y="1281.6" style="stroke: #000000; stroke-width: 0.8"/>
      </g>
     </g>
     <g id="text_6">
      <!-- 1250 -->
      <g transform="translate(595.677508 1296.198437) scale(0.1 -0.1)">
       <use xlink:href="#DejaVuSans-31"/>
       <use xlink:href="#DejaVuSans-32" x="63.623047"/>
       <use xlink:href="#DejaVuSans-35" x="127.246094"/>
       <use xlink:href="#DejaVuSans-30" x="190.869141"/>
      </g>
     </g>
    </g>
    <g id="xtick_7">
     <g id="line2d_7">
      <g>
       <use xlink:href="#mf6fd91753b" x="671.657678" y="1281.6" style="stroke: #000000; stroke-width: 0.8"/>
      </g>
     </g>
     <g id="text_7">
      <!-- 1500 -->
      <g transform="translate(658.932678 1296.198437) scale(0.1 -0.1)">
       <use xlink:href="#DejaVuSans-31"/>
       <use xlink:href="#DejaVuSans-35" x="63.623047"/>
       <use xlink:href="#DejaVuSans-30" x="127.246094"/>
       <use xlink:href="#DejaVuSans-30" x="190.869141"/>
      </g>
     </g>
    </g>
    <g id="xtick_8">
     <g id="line2d_8">
      <g>
       <use xlink:href="#mf6fd91753b" x="734.912848" y="1281.6" style="stroke: #000000; stroke-width: 0.8"/>
      </g>
     </g>
     <g id="text_8">
      <!-- 1750 -->
      <g transform="translate(722.187848 1296.198437) scale(0.1 -0.1)">
       <use xlink:href="#DejaVuSans-31"/>
       <use xlink:href="#DejaVuSans-37" x="63.623047"/>
       <use xlink:href="#DejaVuSans-35" x="127.246094"/>
       <use xlink:href="#DejaVuSans-30" x="190.869141"/>
      </g>
     </g>
    </g>
   </g>
   <g id="matplotlib.axis_2">
    <g id="ytick_1">
     <g id="line2d_9">
      <defs>
       <path id="m10901c322c" d="M 0 0 
L -3.5 0 
" style="stroke: #000000; stroke-width: 0.8"/>
      </defs>
      <g>
       <use xlink:href="#m10901c322c" x="270" y="1203.740605" style="stroke: #000000; stroke-width: 0.8"/>
      </g>
     </g>
     <g id="text_9">
      <!-- −30 -->
      <g transform="translate(241.895312 1207.539823) scale(0.1 -0.1)">
       <defs>
        <path id="DejaVuSans-2212" d="M 678 2272 
L 4684 2272 
L 4684 1741 
L 678 1741 
L 678 2272 
z
" transform="scale(0.015625)"/>
        <path id="DejaVuSans-33" d="M 2597 2516 
Q 3050 2419 3304 2112 
Q 3559 1806 3559 1356 
Q 3559 666 3084 287 
Q 2609 -91 1734 -91 
Q 1441 -91 1130 -33 
Q 819 25 488 141 
L 488 750 
Q 750 597 1062 519 
Q 1375 441 1716 441 
Q 2309 441 2620 675 
Q 2931 909 2931 1356 
Q 2931 1769 2642 2001 
Q 2353 2234 1838 2234 
L 1294 2234 
L 1294 2753 
L 1863 2753 
Q 2328 2753 2575 2939 
Q 2822 3125 2822 3475 
Q 2822 3834 2567 4026 
Q 2313 4219 1838 4219 
Q 1578 4219 1281 4162 
Q 984 4106 628 3988 
L 628 4550 
Q 988 4650 1302 4700 
Q 1616 4750 1894 4750 
Q 2613 4750 3031 4423 
Q 3450 4097 3450 3541 
Q 3450 3153 3228 2886 
Q 3006 2619 2597 2516 
z
" transform="scale(0.015625)"/>
       </defs>
       <use xlink:href="#DejaVuSans-2212"/>
       <use xlink:href="#DejaVuSans-33" x="83.789062"/>
       <use xlink:href="#DejaVuSans-30" x="147.412109"/>
      </g>
     </g>
    </g>
    <g id="ytick_2">
     <g id="line2d_10">
      <g>
       <use xlink:href="#m10901c322c" x="270" y="1041.399445" style="stroke: #000000; stroke-width: 0.8"/>
      </g>
     </g>
     <g id="text_10">
      <!-- −25 -->
      <g transform="translate(241.895312 1045.198664) scale(0.1 -0.1)">
       <use xlink:href="#DejaVuSans-2212"/>
       <use xlink:href="#DejaVuSans-32" x="83.789062"/>
       <use xlink:href="#DejaVuSans-35" x="147.412109"/>
      </g>
     </g>
    </g>
    <g id="ytick_3">
     <g id="line2d_11">
      <g>
       <use xlink:href="#m10901c322c" x="270" y="879.058285" style="stroke: #000000; stroke-width: 0.8"/>
      </g>
     </g>
     <g id="text_11">
      <!-- −20 -->
      <g transform="translate(241.895312 882.857504) scale(0.1 -0.1)">
       <use xlink:href="#DejaVuSans-2212"/>
       <use xlink:href="#DejaVuSans-32" x="83.789062"/>
       <use xlink:href="#DejaVuSans-30" x="147.412109"/>
      </g>
     </g>
    </g>
    <g id="ytick_4">
     <g id="line2d_12">
      <g>
       <use xlink:href="#m10901c322c" x="270" y="716.717126" style="stroke: #000000; stroke-width: 0.8"/>
      </g>
     </g>
     <g id="text_12">
      <!-- −15 -->
      <g transform="translate(241.895312 720.516344) scale(0.1 -0.1)">
       <use xlink:href="#DejaVuSans-2212"/>
       <use xlink:href="#DejaVuSans-31" x="83.789062"/>
       <use xlink:href="#DejaVuSans-35" x="147.412109"/>
      </g>
     </g>
    </g>
    <g id="ytick_5">
     <g id="line2d_13">
      <g>
       <use xlink:href="#m10901c322c" x="270" y="554.375966" style="stroke: #000000; stroke-width: 0.8"/>
      </g>
     </g>
     <g id="text_13">
      <!-- −10 -->
      <g transform="translate(241.895312 558.175185) scale(0.1 -0.1)">
       <use xlink:href="#DejaVuSans-2212"/>
       <use xlink:href="#DejaVuSans-31" x="83.789062"/>
       <use xlink:href="#DejaVuSans-30" x="147.412109"/>
      </g>
     </g>
    </g>
    <g id="ytick_6">
     <g id="line2d_14">
      <g>
       <use xlink:href="#m10901c322c" x="270" y="392.034806" style="stroke: #000000; stroke-width: 0.8"/>
      </g>
     </g>
     <g id="text_14">
      <!-- −5 -->
      <g transform="translate(248.257812 395.834025) scale(0.1 -0.1)">
       <use xlink:href="#DejaVuSans-2212"/>
       <use xlink:href="#DejaVuSans-35" x="83.789062"/>
      </g>
     </g>
    </g>
    <g id="ytick_7">
     <g id="line2d_15">
      <g>
       <use xlink:href="#m10901c322c" x="270" y="229.693646" style="stroke: #000000; stroke-width: 0.8"/>
      </g>
     </g>
     <g id="text_15">
      <!-- 0 -->
      <g transform="translate(256.6375 233.492865) scale(0.1 -0.1)">
       <use xlink:href="#DejaVuSans-30"/>
      </g>
     </g>
    </g>
   </g>
   <g id="line2d_16">
    <path d="M 292.379679 229.693646 
L 305.030713 229.693646 
L 305.283734 223.2 
L 306.042796 223.2 
L 306.295817 227.529098 
L 307.054879 227.529098 
L 307.307899 234.888563 
L 308.066961 234.888563 
L 308.319982 235.721082 
L 309.079044 235.721082 
L 309.332065 243.974911 
L 310.091127 243.974911 
L 310.344147 247.56245 
L 311.103209 247.56245 
L 311.35623 251.401948 
L 312.115292 251.401948 
L 312.368313 254.773861 
L 313.127375 254.773861 
L 313.380396 259.147513 
L 314.139458 259.147513 
L 314.392478 262.475654 
L 316.163623 262.475654 
L 316.416644 259.720423 
L 318.187789 259.720423 
L 318.440809 263.637643 
L 319.199871 263.637643 
L 319.452892 260.327691 
L 320.211954 260.327691 
L 320.464975 257.657508 
L 322.236119 257.657508 
L 322.48914 258.328067 
L 323.248202 258.328067 
L 323.501223 255.032721 
L 325.272368 255.032721 
L 325.525388 251.750573 
L 326.28445 251.750573 
L 326.537471 248.480996 
L 327.296533 248.480996 
L 327.549554 251.510068 
L 328.308616 251.510068 
L 328.561636 246.590639 
L 330.332781 246.590639 
L 330.585802 242.031493 
L 331.344864 242.031493 
L 331.597885 244.899915 
L 332.356947 244.899915 
L 332.609967 242.031493 
L 333.369029 242.031493 
L 333.62205 246.413255 
L 335.393195 246.413255 
L 335.646215 249.506115 
L 336.405277 249.506115 
L 336.658298 254.893696 
L 337.41736 254.893696 
L 337.670381 254.083989 
L 338.429443 254.083989 
L 338.682464 256.122782 
L 339.441526 256.122782 
L 339.694546 255.344502 
L 340.453608 255.344502 
L 340.706629 254.583583 
L 341.465691 254.583583 
L 341.718712 255.918035 
L 342.477774 255.918035 
L 342.730794 263.558593 
L 343.489857 263.558593 
L 343.742877 260.83535 
L 344.501939 260.83535 
L 344.75496 262.948745 
L 345.514022 262.948745 
L 345.767043 270.490692 
L 346.526105 270.490692 
L 346.779125 273.066584 
L 347.538187 273.066584 
L 347.791208 275.338633 
L 350.574436 275.338633 
L 350.827456 277.857563 
L 351.586518 277.857563 
L 351.839539 282.648542 
L 352.598601 282.648542 
L 352.851622 280.133619 
L 353.610684 280.133619 
L 353.863704 284.93283 
L 354.622766 284.93283 
L 354.875787 289.687902 
L 355.634849 289.687902 
L 355.88787 291.983385 
L 356.646932 291.983385 
L 356.899953 299.241764 
L 357.659015 299.241764 
L 357.912035 304.119071 
L 358.671097 304.119071 
L 358.924118 311.46399 
L 359.68318 311.46399 
L 359.936201 318.68569 
L 360.695263 318.68569 
L 360.948283 323.537192 
L 361.707345 323.537192 
L 361.960366 326.018335 
L 362.719428 326.018335 
L 362.972449 330.869838 
L 363.731511 330.869838 
L 363.984532 328.532778 
L 364.743594 328.532778 
L 364.996614 323.915923 
L 365.755676 323.915923 
L 366.008697 319.352381 
L 366.767759 319.352381 
L 367.02078 317.07061 
L 367.779842 317.07061 
L 368.032862 321.94798 
L 369.804007 321.9698 
L 370.057028 322.38781 
L 370.81609 322.38781 
L 371.069111 329.985184 
L 372.840255 329.982541 
L 373.093276 325.6056 
L 373.852338 325.6056 
L 374.105359 323.419659 
L 374.864421 323.419659 
L 375.117441 319.054998 
L 375.876504 319.054998 
L 376.129524 324.042105 
L 376.888586 324.042105 
L 377.141607 326.223249 
L 378.912752 326.223249 
L 379.165772 328.404392 
L 379.924834 328.404392 
L 380.177855 326.22548 
L 380.936917 326.22548 
L 381.189938 324.723494 
L 381.949 324.723494 
L 382.202021 320.412545 
L 382.961083 320.412545 
L 383.214103 321.13698 
L 383.973165 321.13698 
L 384.226186 324.811769 
L 384.985248 324.811769 
L 385.238269 325.620645 
L 385.997331 325.620645 
L 386.250351 323.482086 
L 388.021496 323.482086 
L 388.274517 328.556026 
L 389.033579 328.556026 
L 389.2866 326.447264 
L 390.045662 326.447264 
L 390.298682 324.340182 
L 391.057744 324.340182 
L 391.310765 325.220327 
L 392.069827 325.220327 
L 392.322848 326.118418 
L 393.08191 326.118418 
L 393.33493 329.128462 
L 394.093992 329.128462 
L 394.347013 334.253052 
L 395.106075 334.253052 
L 395.359096 342.41453 
L 396.118158 342.41453 
L 396.371179 347.539119 
L 397.130241 347.539119 
L 397.383261 354.74835 
L 398.142323 354.74835 
L 398.395344 362.912908 
L 399.154406 362.912908 
L 399.407427 370.107089 
L 400.166489 370.107089 
L 400.419509 380.384292 
L 401.178572 380.384292 
L 401.431592 388.61 
L 402.190654 388.61 
L 402.443675 390.683626 
L 403.202737 390.683626 
L 403.455758 398.929637 
L 404.21482 398.929637 
L 404.46784 399.946158 
L 405.226902 399.946158 
L 405.479923 406.139952 
L 407.251068 406.139952 
L 407.504089 409.236395 
L 409.275233 409.242118 
L 409.528254 412.342133 
L 410.287316 412.342133 
L 410.540337 410.289388 
L 412.311481 410.288227 
L 412.564502 413.410547 
L 413.323564 413.410547 
L 413.576585 418.580533 
L 414.335647 418.580533 
L 414.588668 414.506448 
L 415.34773 414.506448 
L 415.60075 415.6297 
L 416.359812 415.6297 
L 416.612833 411.58067 
L 417.371895 411.58067 
L 417.624916 405.531559 
L 418.383978 405.531559 
L 418.636998 408.707454 
L 419.39606 408.707454 
L 419.649081 402.675212 
L 420.408143 402.675212 
L 420.661164 407.871803 
L 421.420226 407.871803 
L 421.673247 407.044293 
L 424.456474 407.044293 
L 424.709495 405.048406 
L 425.468557 405.048406 
L 425.721577 401.061225 
L 426.48064 401.061225 
L 426.73366 397.076872 
L 427.492722 397.076872 
L 427.745743 389.121812 
L 428.504805 389.121812 
L 428.757826 381.202486 
L 429.516888 381.202486 
L 429.769908 375.280382 
L 430.52897 375.280382 
L 430.781991 369.372878 
L 431.541053 369.372878 
L 431.794074 367.407143 
L 432.553136 367.407143 
L 432.806157 361.519616 
L 433.565219 361.519616 
L 433.818239 357.599106 
L 435.589384 357.600701 
L 435.842405 355.643963 
L 436.601467 355.643963 
L 436.854487 349.780362 
L 437.613549 349.780362 
L 437.86657 355.038678 
L 438.625632 355.038678 
L 438.878653 349.185632 
L 439.637715 349.185632 
L 439.890736 355.817059 
L 440.649798 355.817059 
L 440.902818 368.294904 
L 441.66188 368.294904 
L 441.914901 366.348914 
L 442.673963 366.348914 
L 442.926984 365.781957 
L 443.686046 365.781957 
L 443.939066 358.013458 
L 444.698128 358.013458 
L 444.951149 361.348792 
L 445.710211 361.348792 
L 445.963232 369.960575 
L 446.722294 369.960575 
L 446.975315 378.057183 
L 447.734377 378.057183 
L 447.987397 383.333666 
L 448.746459 383.333666 
L 448.99948 392.468281 
L 449.758542 392.468281 
L 450.011563 401.102061 
L 450.770625 401.102061 
L 451.023645 406.383307 
L 451.782708 406.383307 
L 452.035728 409.744156 
L 452.79479 409.744156 
L 453.047811 410.70438 
L 453.806873 410.70438 
L 454.059894 419.358106 
L 454.818956 419.358106 
L 455.071976 426.565785 
L 455.831038 426.565785 
L 456.084059 428.02021 
L 456.843121 428.02021 
L 457.096142 431.393193 
L 457.855204 431.393193 
L 458.108225 441.523894 
L 458.867287 441.523894 
L 459.120307 450.198318 
L 459.879369 450.198318 
L 460.13239 465.654457 
L 460.891452 465.654457 
L 461.144473 484.525203 
L 461.903535 484.525203 
L 462.156555 491.316295 
L 462.915617 491.316295 
L 463.168638 505.325712 
L 463.9277 505.325712 
L 464.180721 517.029996 
L 464.939783 517.029996 
L 465.192804 515.12509 
L 465.951866 515.12509 
L 466.204886 511.318599 
L 466.963948 511.318599 
L 467.216969 507.513765 
L 468.988114 507.513258 
L 469.241134 505.612352 
L 470.000196 505.612352 
L 470.253217 503.710943 
L 471.012279 503.710943 
L 471.2653 499.911275 
L 472.024362 499.911275 
L 472.277383 497.628523 
L 473.036445 497.628523 
L 473.289465 497.246752 
L 474.048527 497.246752 
L 474.301548 505.600024 
L 475.06061 505.600024 
L 475.313631 503.703696 
L 476.072693 503.703696 
L 476.325713 507.122947 
L 477.084776 507.122947 
L 477.337796 513.96444 
L 478.096858 513.96444 
L 478.349879 513.595616 
L 479.108941 513.595616 
L 479.361962 517.019338 
L 480.121024 517.019338 
L 480.374044 521.617176 
L 481.133106 521.617176 
L 481.386127 523.152996 
L 482.145189 523.152996 
L 482.39821 526.227599 
L 483.157272 526.227599 
L 483.410293 528.117063 
L 484.169355 528.117063 
L 484.422375 525.880597 
L 485.181437 525.880597 
L 485.434458 525.535889 
L 486.19352 525.535889 
L 486.446541 530.857667 
L 487.205603 530.857667 
L 487.458623 525.193499 
L 488.217685 525.193499 
L 488.470706 526.740671 
L 489.229768 526.740671 
L 489.482789 535.162937 
L 490.241851 535.162937 
L 490.494872 533.276544 
L 491.253934 533.276544 
L 491.506954 538.266773 
L 492.266016 538.266773 
L 492.519037 543.26232 
L 493.278099 543.26232 
L 493.53112 548.259918 
L 494.290182 548.259918 
L 494.543202 564.241057 
L 495.302264 564.241057 
L 495.555285 566.124833 
L 496.314347 566.124833 
L 496.567368 573.337186 
L 497.32643 573.337186 
L 497.579451 573.021017 
L 498.338513 573.021017 
L 498.591533 574.903079 
L 500.362678 574.903079 
L 500.615699 578.666489 
L 501.374761 578.666489 
L 501.627781 578.355011 
L 502.386844 578.355011 
L 502.639864 576.164842 
L 503.398926 576.164842 
L 503.651947 575.858352 
L 504.411009 575.858352 
L 504.66403 577.434984 
L 505.423092 577.434984 
L 505.676112 580.589164 
L 506.435174 580.589164 
L 506.688195 578.711357 
L 507.447257 578.711357 
L 507.700278 578.413304 
L 508.45934 578.413304 
L 508.712361 585.329084 
L 509.471423 585.329084 
L 509.724443 588.494452 
L 510.483505 588.494452 
L 510.736526 590.078283 
L 511.495588 590.078283 
L 511.748609 586.328932 
L 512.507671 586.328932 
L 512.760691 589.506109 
L 513.519753 589.506109 
L 513.772774 585.759874 
L 514.531836 585.759874 
L 514.784857 585.200602 
L 515.543919 585.200602 
L 515.79694 595.600004 
L 517.568084 595.600004 
L 517.821105 599.069131 
L 518.580167 599.069131 
L 518.833188 600.66872 
L 520.604332 600.669631 
L 520.857353 600.403823 
L 521.616415 600.403823 
L 521.869436 609.218351 
L 522.628498 609.218351 
L 522.881519 605.481411 
L 523.640581 605.481411 
L 523.893601 603.612941 
L 524.652663 603.612941 
L 524.905684 605.21965 
L 525.664746 605.21965 
L 525.917767 601.483739 
L 527.688912 601.483739 
L 527.941932 599.615898 
L 528.700994 599.615898 
L 528.954015 597.748285 
L 529.713077 597.748285 
L 529.966098 592.14667 
L 530.72516 592.14667 
L 530.97818 588.41314 
L 531.737242 588.41314 
L 531.990263 582.813302 
L 532.749325 582.813302 
L 533.002346 579.080588 
L 533.761408 579.080588 
L 534.014429 575.348676 
L 534.773491 575.348676 
L 535.026511 569.752258 
L 535.785573 569.752258 
L 536.038594 589.274478 
L 536.797656 589.274478 
L 537.050677 599.968942 
L 537.809739 599.968942 
L 538.062759 612.52857 
L 538.821821 612.52857 
L 539.074842 617.876445 
L 539.833904 617.876445 
L 540.086925 623.22432 
L 540.845987 623.22432 
L 541.099008 637.40361 
L 541.85807 637.40361 
L 542.11109 648.09985 
L 542.870152 648.09985 
L 543.123173 660.659207 
L 543.882235 660.659207 
L 544.135256 676.702183 
L 544.894318 676.702183 
L 545.147338 682.049924 
L 545.9064 682.049924 
L 546.159421 680.187358 
L 546.918483 680.187358 
L 547.171504 676.462819 
L 547.930566 676.462819 
L 548.183587 678.324854 
L 548.942649 678.324854 
L 549.195669 676.463012 
L 549.954731 676.463012 
L 550.207752 674.601363 
L 550.966814 674.601363 
L 551.219835 672.739713 
L 551.978897 672.739713 
L 552.231917 676.226325 
L 552.99098 676.226325 
L 553.244 674.364675 
L 555.015145 674.364864 
L 555.268166 674.130222 
L 556.027228 674.130222 
L 556.280248 681.339951 
L 557.03931 681.339951 
L 557.292331 682.967551 
L 558.051393 682.967551 
L 558.304414 693.434369 
L 559.063476 693.434369 
L 559.316497 695.294826 
L 560.075559 695.294826 
L 560.328579 696.923993 
L 561.087641 696.923993 
L 561.340662 709.25473 
L 562.099724 709.25473 
L 562.352745 718.096679 
L 563.111807 718.096679 
L 563.364827 717.867915 
L 564.123889 717.867915 
L 564.37691 721.35964 
L 565.135972 721.35964 
L 565.388993 723.219533 
L 566.148055 723.219533 
L 566.401076 719.499919 
L 567.160138 719.499919 
L 567.413158 722.99281 
L 568.17222 722.99281 
L 568.425241 728.120004 
L 569.184303 728.120004 
L 569.437324 726.26041 
L 570.196386 726.26041 
L 570.449406 726.034991 
L 572.220551 726.034867 
L 572.473572 727.894044 
L 573.232634 727.894044 
L 573.485655 731.389072 
L 574.244717 731.389072 
L 574.497737 731.166157 
L 575.256799 731.166157 
L 575.50982 729.307146 
L 576.268882 729.307146 
L 576.521903 732.803078 
L 577.280965 732.803078 
L 577.533985 741.654599 
L 578.293048 741.654599 
L 578.546068 743.292815 
L 579.30513 743.292815 
L 579.558151 748.648483 
L 580.317213 748.648483 
L 580.570234 750.506886 
L 581.329296 750.506886 
L 581.582316 752.365169 
L 582.341378 752.365169 
L 582.594399 755.862553 
L 584.365544 755.862553 
L 584.618565 757.720677 
L 585.377627 757.720677 
L 585.630647 759.360252 
L 586.389709 759.360252 
L 586.64273 759.142173 
L 587.401792 759.142173 
L 587.654813 762.640184 
L 588.413875 762.640184 
L 588.666895 762.423273 
L 589.425957 762.423273 
L 589.678978 765.921524 
L 590.43804 765.921524 
L 590.691061 774.884962 
L 591.450123 774.884962 
L 591.703144 778.599546 
L 593.474288 778.599693 
L 593.727309 785.600176 
L 594.486371 785.600176 
L 594.739392 781.886731 
L 595.498454 781.886731 
L 595.751474 785.387597 
L 596.510536 785.387597 
L 596.763557 792.601621 
L 597.522619 792.601621 
L 597.77564 790.745255 
L 599.546785 790.745255 
L 599.799805 794.246522 
L 600.558867 794.246522 
L 600.811888 796.102653 
L 601.57095 796.102653 
L 601.823971 803.316211 
L 602.583033 803.316211 
L 602.836053 806.818154 
L 603.595116 806.818154 
L 603.848136 812.176135 
L 604.607198 812.176135 
L 604.860219 815.678494 
L 605.619281 815.678494 
L 605.872302 824.539788 
L 606.631364 824.539788 
L 606.884384 820.828813 
L 607.643446 820.828813 
L 607.896467 818.973459 
L 608.655529 818.973459 
L 608.90855 817.118105 
L 609.667612 817.118105 
L 609.920633 818.766687 
L 610.679695 818.766687 
L 610.932715 820.621794 
L 612.70386 820.621794 
L 612.956881 818.766687 
L 614.728025 818.766687 
L 614.981046 815.056863 
L 615.740108 815.056863 
L 615.993129 814.852112 
L 616.752191 814.852112 
L 617.005212 816.502717 
L 617.764274 816.502717 
L 618.017294 818.153447 
L 618.776356 818.153447 
L 619.029377 825.163709 
L 619.788439 825.163709 
L 620.04146 827.017807 
L 620.800522 827.017807 
L 621.053542 828.871906 
L 621.812604 828.871906 
L 622.065625 830.726004 
L 622.824687 830.726004 
L 623.077708 835.883839 
L 624.848853 835.883839 
L 625.101873 841.244084 
L 625.860935 841.244084 
L 626.113956 844.95123 
L 626.873018 844.95123 
L 627.126039 855.672132 
L 627.885101 855.672132 
L 628.138121 864.738754 
L 628.897184 864.738754 
L 629.150204 866.393499 
L 629.909266 866.393499 
L 630.162287 871.754224 
L 630.921349 871.754224 
L 631.17437 871.556716 
L 631.933432 871.556716 
L 632.186452 875.065085 
L 632.945514 875.065085 
L 633.198535 876.917799 
L 633.957597 876.917799 
L 634.210618 885.787798 
L 634.96968 885.787798 
L 635.222701 891.149325 
L 635.981763 891.149325 
L 636.234783 896.510953 
L 638.005928 896.510953 
L 638.258949 898.363216 
L 640.030093 898.363216 
L 640.283114 901.872475 
L 642.054259 901.872475 
L 642.30728 903.724738 
L 644.078424 903.724738 
L 644.331445 909.086699 
L 645.090507 909.086699 
L 645.343528 907.234549 
L 646.10259 907.234549 
L 646.35561 905.38251 
L 647.114672 905.38251 
L 647.367693 916.107189 
L 648.126755 916.107189 
L 648.379776 914.255371 
L 649.138838 914.255371 
L 649.391859 919.617868 
L 650.150921 919.617868 
L 650.403941 917.766159 
L 651.163003 917.766159 
L 651.416024 926.639984 
L 652.175086 926.639984 
L 652.428107 933.854303 
L 654.199252 933.854303 
L 654.452272 941.068409 
L 655.211334 941.068409 
L 655.464355 946.431338 
L 656.223417 946.431338 
L 656.476438 951.794371 
L 657.2355 951.794371 
L 657.48852 955.30654 
L 658.247582 955.30654 
L 658.500603 959.00796 
L 659.259665 959.00796 
L 659.512686 964.370993 
L 660.271748 964.370993 
L 660.524769 969.734129 
L 661.283831 969.734129 
L 661.536851 973.247016 
L 664.320079 973.246914 
L 664.573099 971.396665 
L 670.392575 971.396665 
L 670.645596 974.909755 
L 671.404658 974.909755 
L 671.657678 974.722548 
L 672.41674 974.722548 
L 672.669761 980.086186 
L 673.428823 980.086186 
L 673.681844 985.449927 
L 674.440906 985.449927 
L 674.693927 988.963723 
L 675.452989 988.963723 
L 675.706009 992.477816 
L 676.465071 992.477816 
L 676.718092 995.992011 
L 677.477154 995.992011 
L 677.730175 997.656656 
L 678.489237 997.656656 
L 678.742257 1003.021097 
L 679.50132 1003.021097 
L 679.75434 1010.05106 
L 681.525485 1010.05106 
L 681.778506 1011.716676 
L 682.537568 1011.716676 
L 682.790588 1013.566234 
L 683.54965 1013.566234 
L 683.802671 1017.081608 
L 684.561733 1017.081608 
L 684.814754 1018.930976 
L 685.573816 1018.930976 
L 685.826837 1020.597275 
L 686.585899 1020.597275 
L 686.838919 1029.478459 
L 687.597981 1029.478459 
L 687.851002 1034.843884 
L 688.610064 1034.843884 
L 688.863085 1045.575011 
L 689.622147 1045.575011 
L 689.875167 1049.091725 
L 690.634229 1049.091725 
L 690.88725 1054.457518 
L 691.646312 1054.457518 
L 691.899333 1061.672013 
L 692.658395 1061.672013 
L 692.911416 1067.037891 
L 694.68256 1067.037891 
L 694.935581 1072.403873 
L 696.706726 1072.403873 
L 696.959746 1075.921608 
L 697.718808 1075.921608 
L 697.971829 1074.073169 
L 698.730891 1074.073169 
L 698.983912 1077.591097 
L 699.742974 1077.591097 
L 699.995995 1079.439448 
L 700.755057 1079.439448 
L 701.008077 1082.957553 
L 701.767139 1082.957553 
L 702.02016 1081.109203 
L 702.779222 1081.109203 
L 703.032243 1091.842395 
L 703.791305 1091.842395 
L 704.044325 1091.664708 
L 704.803388 1091.664708 
L 705.056408 1105.917877 
L 705.81547 1105.917877 
L 706.068491 1112.956695 
L 706.827553 1112.956695 
L 707.080574 1114.628499 
L 707.839636 1114.628499 
L 708.092656 1125.363962 
L 708.851718 1125.363962 
L 709.104739 1130.556992 
L 709.863801 1130.556992 
L 710.116822 1132.404534 
L 710.875884 1132.404534 
L 711.128905 1137.772597 
L 711.887967 1137.772597 
L 712.140987 1141.293369 
L 712.900049 1141.293369 
L 713.15307 1146.6617 
L 713.912132 1146.6617 
L 714.165153 1157.398635 
L 714.924215 1157.398635 
L 715.177235 1164.44175 
L 715.936297 1164.44175 
L 716.189318 1171.657554 
L 716.94838 1171.657554 
L 717.201401 1180.548581 
L 717.960463 1180.548581 
L 718.213484 1191.286901 
L 718.972546 1191.286901 
L 719.225566 1189.440204 
L 719.984628 1189.440204 
L 720.237649 1198.332315 
L 720.996711 1198.332315 
L 721.249732 1196.485698 
L 723.020876 1196.485698 
L 723.273897 1200.178695 
L 725.045042 1200.178695 
L 725.298063 1204.393791 
L 727.069207 1204.393791 
L 727.322228 1206.28109 
L 728.08129 1206.28109 
L 728.334311 1209.804693 
L 729.093373 1209.804693 
L 729.346393 1207.917394 
L 730.105456 1207.917394 
L 730.358476 1211.441304 
L 731.117538 1211.441304 
L 731.370559 1216.852538 
L 732.129621 1216.852538 
L 732.382642 1224.150765 
L 733.141704 1224.150765 
L 733.394724 1229.562148 
L 734.153786 1229.562148 
L 734.406807 1225.788766 
L 737.190035 1225.788766 
L 737.443055 1223.902076 
L 738.202117 1223.902076 
L 738.455138 1225.788617 
L 739.2142 1225.788617 
L 739.467221 1231.2 
L 739.973262 1231.2 
L 739.973262 1231.2 
" clip-path="url(#pbe1e36fe9c)" style="fill: none; stroke: #0000ff; stroke-width: 1.5; stroke-linecap: square"/>
   </g>
   <g id="patch_3">
    <path d="M 270 1281.6 
L 270 172.8 
" style="fill: none; stroke: #000000; stroke-width: 0.8; stroke-linejoin: miter; stroke-linecap: square"/>
   </g>
   <g id="patch_4">
    <path d="M 762.352941 1281.6 
L 762.352941 172.8 
" style="fill: none; stroke: #000000; stroke-width: 0.8; stroke-linejoin: miter; stroke-linecap: square"/>
   </g>
   <g id="patch_5">
    <path d="M 270 1281.6 
L 762.352941 1281.6 
" style="fill: none; stroke: #000000; stroke-width: 0.8; stroke-linejoin: miter; stroke-linecap: square"/>
   </g>
   <g id="patch_6">
    <path d="M 270 172.8 
L 762.352941 172.8 
" style="fill: none; stroke: #000000; stroke-width: 0.8; stroke-linejoin: miter; stroke-linecap: square"/>
   </g>
   <g id="legend_1">
    <g id="patch_7">
     <path d="M 671.310754 195.478125 
L 755.352941 195.478125 
Q 757.352941 195.478125 757.352941 193.478125 
L 757.352941 179.8 
Q 757.352941 177.8 755.352941 177.8 
L 671.310754 177.8 
Q 669.310754 177.8 669.310754 179.8 
L 669.310754 193.478125 
Q 669.310754 195.478125 671.310754 195.478125 
z
" style="fill: #ffffff; opacity: 0.8; stroke: #cccccc; stroke-linejoin: miter"/>
    </g>
    <g id="line2d_17">
     <path d="M 673.310754 185.898437 
L 683.310754 185.898437 
L 693.310754 185.898437 
" style="fill: none; stroke: #0000ff; stroke-width: 1.5; stroke-linecap: square"/>
    </g>
    <g id="text_16">
     <!-- O1 reward -->
     <g transform="translate(701.310754 189.398437) scale(0.1 -0.1)">
      <defs>
       <path id="DejaVuSans-4f" d="M 2522 4238 
Q 1834 4238 1429 3725 
Q 1025 3213 1025 2328 
Q 1025 1447 1429 934 
Q 1834 422 2522 422 
Q 3209 422 3611 934 
Q 4013 1447 4013 2328 
Q 4013 3213 3611 3725 
Q 3209 4238 2522 4238 
z
M 2522 4750 
Q 3503 4750 4090 4092 
Q 4678 3434 4678 2328 
Q 4678 1225 4090 567 
Q 3503 -91 2522 -91 
Q 1538 -91 948 565 
Q 359 1222 359 2328 
Q 359 3434 948 4092 
Q 1538 4750 2522 4750 
z
" transform="scale(0.015625)"/>
       <path id="DejaVuSans-20" transform="scale(0.015625)"/>
       <path id="DejaVuSans-72" d="M 2631 2963 
Q 2534 3019 2420 3045 
Q 2306 3072 2169 3072 
Q 1681 3072 1420 2755 
Q 1159 2438 1159 1844 
L 1159 0 
L 581 0 
L 581 3500 
L 1159 3500 
L 1159 2956 
Q 1341 3275 1631 3429 
Q 1922 3584 2338 3584 
Q 2397 3584 2469 3576 
Q 2541 3569 2628 3553 
L 2631 2963 
z
" transform="scale(0.015625)"/>
       <path id="DejaVuSans-65" d="M 3597 1894 
L 3597 1613 
L 953 1613 
Q 991 1019 1311 708 
Q 1631 397 2203 397 
Q 2534 397 2845 478 
Q 3156 559 3463 722 
L 3463 178 
Q 3153 47 2828 -22 
Q 2503 -91 2169 -91 
Q 1331 -91 842 396 
Q 353 884 353 1716 
Q 353 2575 817 3079 
Q 1281 3584 2069 3584 
Q 2775 3584 3186 3129 
Q 3597 2675 3597 1894 
z
M 3022 2063 
Q 3016 2534 2758 2815 
Q 2500 3097 2075 3097 
Q 1594 3097 1305 2825 
Q 1016 2553 972 2059 
L 3022 2063 
z
" transform="scale(0.015625)"/>
       <path id="DejaVuSans-77" d="M 269 3500 
L 844 3500 
L 1563 769 
L 2278 3500 
L 2956 3500 
L 3675 769 
L 4391 3500 
L 4966 3500 
L 4050 0 
L 3372 0 
L 2619 2869 
L 1863 0 
L 1184 0 
L 269 3500 
z
" transform="scale(0.015625)"/>
       <path id="DejaVuSans-61" d="M 2194 1759 
Q 1497 1759 1228 1600 
Q 959 1441 959 1056 
Q 959 750 1161 570 
Q 1363 391 1709 391 
Q 2188 391 2477 730 
Q 2766 1069 2766 1631 
L 2766 1759 
L 2194 1759 
z
M 3341 1997 
L 3341 0 
L 2766 0 
L 2766 531 
Q 2569 213 2275 61 
Q 1981 -91 1556 -91 
Q 1019 -91 701 211 
Q 384 513 384 1019 
Q 384 1609 779 1909 
Q 1175 2209 1959 2209 
L 2766 2209 
L 2766 2266 
Q 2766 2663 2505 2880 
Q 2244 3097 1772 3097 
Q 1472 3097 1187 3025 
Q 903 2953 641 2809 
L 641 3341 
Q 956 3463 1253 3523 
Q 1550 3584 1831 3584 
Q 2591 3584 2966 3190 
Q 3341 2797 3341 1997 
z
" transform="scale(0.015625)"/>
       <path id="DejaVuSans-64" d="M 2906 2969 
L 2906 4863 
L 3481 4863 
L 3481 0 
L 2906 0 
L 2906 525 
Q 2725 213 2448 61 
Q 2172 -91 1784 -91 
Q 1150 -91 751 415 
Q 353 922 353 1747 
Q 353 2572 751 3078 
Q 1150 3584 1784 3584 
Q 2172 3584 2448 3432 
Q 2725 3281 2906 2969 
z
M 947 1747 
Q 947 1113 1208 752 
Q 1469 391 1925 391 
Q 2381 391 2643 752 
Q 2906 1113 2906 1747 
Q 2906 2381 2643 2742 
Q 2381 3103 1925 3103 
Q 1469 3103 1208 2742 
Q 947 2381 947 1747 
z
" transform="scale(0.015625)"/>
      </defs>
      <use xlink:href="#DejaVuSans-4f"/>
      <use xlink:href="#DejaVuSans-31" x="78.710938"/>
      <use xlink:href="#DejaVuSans-20" x="142.333984"/>
      <use xlink:href="#DejaVuSans-72" x="174.121094"/>
      <use xlink:href="#DejaVuSans-65" x="212.984375"/>
      <use xlink:href="#DejaVuSans-77" x="274.507812"/>
      <use xlink:href="#DejaVuSans-61" x="356.294922"/>
      <use xlink:href="#DejaVuSans-72" x="417.574219"/>
      <use xlink:href="#DejaVuSans-64" x="456.9375"/>
     </g>
    </g>
   </g>
  </g>
  <g id="axes_2">
   <g id="patch_8">
    <path d="M 860.823529 1281.6 
L 1353.176471 1281.6 
L 1353.176471 172.8 
L 860.823529 172.8 
z
" style="fill: #ffffff"/>
   </g>
   <g id="matplotlib.axis_3">
    <g id="xtick_9">
     <g id="line2d_18">
      <g>
       <use xlink:href="#mf6fd91753b" x="882.950188" y="1281.6" style="stroke: #000000; stroke-width: 0.8"/>
      </g>
     </g>
     <g id="text_17">
      <!-- 0 -->
      <g transform="translate(879.768938 1296.198437) scale(0.1 -0.1)">
       <use xlink:href="#DejaVuSans-30"/>
      </g>
     </g>
    </g>
    <g id="xtick_10">
     <g id="line2d_19">
      <g>
       <use xlink:href="#mf6fd91753b" x="946.205358" y="1281.6" style="stroke: #000000; stroke-width: 0.8"/>
      </g>
     </g>
     <g id="text_18">
      <!-- 250 -->
      <g transform="translate(936.661608 1296.198437) scale(0.1 -0.1)">
       <use xlink:href="#DejaVuSans-32"/>
       <use xlink:href="#DejaVuSans-35" x="63.623047"/>
       <use xlink:href="#DejaVuSans-30" x="127.246094"/>
      </g>
     </g>
    </g>
    <g id="xtick_11">
     <g id="line2d_20">
      <g>
       <use xlink:href="#mf6fd91753b" x="1009.460528" y="1281.6" style="stroke: #000000; stroke-width: 0.8"/>
      </g>
     </g>
     <g id="text_19">
      <!-- 500 -->
      <g transform="translate(999.916778 1296.198437) scale(0.1 -0.1)">
       <use xlink:href="#DejaVuSans-35"/>
       <use xlink:href="#DejaVuSans-30" x="63.623047"/>
       <use xlink:href="#DejaVuSans-30" x="127.246094"/>
      </g>
     </g>
    </g>
    <g id="xtick_12">
     <g id="line2d_21">
      <g>
       <use xlink:href="#mf6fd91753b" x="1072.715698" y="1281.6" style="stroke: #000000; stroke-width: 0.8"/>
      </g>
     </g>
     <g id="text_20">
      <!-- 750 -->
      <g transform="translate(1063.171948 1296.198437) scale(0.1 -0.1)">
       <use xlink:href="#DejaVuSans-37"/>
       <use xlink:href="#DejaVuSans-35" x="63.623047"/>
       <use xlink:href="#DejaVuSans-30" x="127.246094"/>
      </g>
     </g>
    </g>
    <g id="xtick_13">
     <g id="line2d_22">
      <g>
       <use xlink:href="#mf6fd91753b" x="1135.970868" y="1281.6" style="stroke: #000000; stroke-width: 0.8"/>
      </g>
     </g>
     <g id="text_21">
      <!-- 1000 -->
      <g transform="translate(1123.245868 1296.198437) scale(0.1 -0.1)">
       <use xlink:href="#DejaVuSans-31"/>
       <use xlink:href="#DejaVuSans-30" x="63.623047"/>
       <use xlink:href="#DejaVuSans-30" x="127.246094"/>
       <use xlink:href="#DejaVuSans-30" x="190.869141"/>
      </g>
     </g>
    </g>
    <g id="xtick_14">
     <g id="line2d_23">
      <g>
       <use xlink:href="#mf6fd91753b" x="1199.226038" y="1281.6" style="stroke: #000000; stroke-width: 0.8"/>
      </g>
     </g>
     <g id="text_22">
      <!-- 1250 -->
      <g transform="translate(1186.501038 1296.198437) scale(0.1 -0.1)">
       <use xlink:href="#DejaVuSans-31"/>
       <use xlink:href="#DejaVuSans-32" x="63.623047"/>
       <use xlink:href="#DejaVuSans-35" x="127.246094"/>
       <use xlink:href="#DejaVuSans-30" x="190.869141"/>
      </g>
     </g>
    </g>
    <g id="xtick_15">
     <g id="line2d_24">
      <g>
       <use xlink:href="#mf6fd91753b" x="1262.481208" y="1281.6" style="stroke: #000000; stroke-width: 0.8"/>
      </g>
     </g>
     <g id="text_23">
      <!-- 1500 -->
      <g transform="translate(1249.756208 1296.198437) scale(0.1 -0.1)">
       <use xlink:href="#DejaVuSans-31"/>
       <use xlink:href="#DejaVuSans-35" x="63.623047"/>
       <use xlink:href="#DejaVuSans-30" x="127.246094"/>
       <use xlink:href="#DejaVuSans-30" x="190.869141"/>
      </g>
     </g>
    </g>
    <g id="xtick_16">
     <g id="line2d_25">
      <g>
       <use xlink:href="#mf6fd91753b" x="1325.736378" y="1281.6" style="stroke: #000000; stroke-width: 0.8"/>
      </g>
     </g>
     <g id="text_24">
      <!-- 1750 -->
      <g transform="translate(1313.011378 1296.198437) scale(0.1 -0.1)">
       <use xlink:href="#DejaVuSans-31"/>
       <use xlink:href="#DejaVuSans-37" x="63.623047"/>
       <use xlink:href="#DejaVuSans-35" x="127.246094"/>
       <use xlink:href="#DejaVuSans-30" x="190.869141"/>
      </g>
     </g>
    </g>
   </g>
   <g id="matplotlib.axis_4">
    <g id="ytick_8">
     <g id="line2d_26">
      <g>
       <use xlink:href="#m10901c322c" x="860.823529" y="1231.2" style="stroke: #000000; stroke-width: 0.8"/>
      </g>
     </g>
     <g id="text_25">
      <!-- 0 -->
      <g transform="translate(847.461029 1234.999219) scale(0.1 -0.1)">
       <use xlink:href="#DejaVuSans-30"/>
      </g>
     </g>
    </g>
    <g id="ytick_9">
     <g id="line2d_27">
      <g>
       <use xlink:href="#m10901c322c" x="860.823529" y="1043.479276" style="stroke: #000000; stroke-width: 0.8"/>
      </g>
     </g>
     <g id="text_26">
      <!-- 20 -->
      <g transform="translate(841.098529 1047.278495) scale(0.1 -0.1)">
       <use xlink:href="#DejaVuSans-32"/>
       <use xlink:href="#DejaVuSans-30" x="63.623047"/>
      </g>
     </g>
    </g>
    <g id="ytick_10">
     <g id="line2d_28">
      <g>
       <use xlink:href="#m10901c322c" x="860.823529" y="855.758553" style="stroke: #000000; stroke-width: 0.8"/>
      </g>
     </g>
     <g id="text_27">
      <!-- 40 -->
      <g transform="translate(841.098529 859.557771) scale(0.1 -0.1)">
       <defs>
        <path id="DejaVuSans-34" d="M 2419 4116 
L 825 1625 
L 2419 1625 
L 2419 4116 
z
M 2253 4666 
L 3047 4666 
L 3047 1625 
L 3713 1625 
L 3713 1100 
L 3047 1100 
L 3047 0 
L 2419 0 
L 2419 1100 
L 313 1100 
L 313 1709 
L 2253 4666 
z
" transform="scale(0.015625)"/>
       </defs>
       <use xlink:href="#DejaVuSans-34"/>
       <use xlink:href="#DejaVuSans-30" x="63.623047"/>
      </g>
     </g>
    </g>
    <g id="ytick_11">
     <g id="line2d_29">
      <g>
       <use xlink:href="#m10901c322c" x="860.823529" y="668.037829" style="stroke: #000000; stroke-width: 0.8"/>
      </g>
     </g>
     <g id="text_28">
      <!-- 60 -->
      <g transform="translate(841.098529 671.837048) scale(0.1 -0.1)">
       <defs>
        <path id="DejaVuSans-36" d="M 2113 2584 
Q 1688 2584 1439 2293 
Q 1191 2003 1191 1497 
Q 1191 994 1439 701 
Q 1688 409 2113 409 
Q 2538 409 2786 701 
Q 3034 994 3034 1497 
Q 3034 2003 2786 2293 
Q 2538 2584 2113 2584 
z
M 3366 4563 
L 3366 3988 
Q 3128 4100 2886 4159 
Q 2644 4219 2406 4219 
Q 1781 4219 1451 3797 
Q 1122 3375 1075 2522 
Q 1259 2794 1537 2939 
Q 1816 3084 2150 3084 
Q 2853 3084 3261 2657 
Q 3669 2231 3669 1497 
Q 3669 778 3244 343 
Q 2819 -91 2113 -91 
Q 1303 -91 875 529 
Q 447 1150 447 2328 
Q 447 3434 972 4092 
Q 1497 4750 2381 4750 
Q 2619 4750 2861 4703 
Q 3103 4656 3366 4563 
z
" transform="scale(0.015625)"/>
       </defs>
       <use xlink:href="#DejaVuSans-36"/>
       <use xlink:href="#DejaVuSans-30" x="63.623047"/>
      </g>
     </g>
    </g>
    <g id="ytick_12">
     <g id="line2d_30">
      <g>
       <use xlink:href="#m10901c322c" x="860.823529" y="480.317105" style="stroke: #000000; stroke-width: 0.8"/>
      </g>
     </g>
     <g id="text_29">
      <!-- 80 -->
      <g transform="translate(841.098529 484.116324) scale(0.1 -0.1)">
       <defs>
        <path id="DejaVuSans-38" d="M 2034 2216 
Q 1584 2216 1326 1975 
Q 1069 1734 1069 1313 
Q 1069 891 1326 650 
Q 1584 409 2034 409 
Q 2484 409 2743 651 
Q 3003 894 3003 1313 
Q 3003 1734 2745 1975 
Q 2488 2216 2034 2216 
z
M 1403 2484 
Q 997 2584 770 2862 
Q 544 3141 544 3541 
Q 544 4100 942 4425 
Q 1341 4750 2034 4750 
Q 2731 4750 3128 4425 
Q 3525 4100 3525 3541 
Q 3525 3141 3298 2862 
Q 3072 2584 2669 2484 
Q 3125 2378 3379 2068 
Q 3634 1759 3634 1313 
Q 3634 634 3220 271 
Q 2806 -91 2034 -91 
Q 1263 -91 848 271 
Q 434 634 434 1313 
Q 434 1759 690 2068 
Q 947 2378 1403 2484 
z
M 1172 3481 
Q 1172 3119 1398 2916 
Q 1625 2713 2034 2713 
Q 2441 2713 2670 2916 
Q 2900 3119 2900 3481 
Q 2900 3844 2670 4047 
Q 2441 4250 2034 4250 
Q 1625 4250 1398 4047 
Q 1172 3844 1172 3481 
z
" transform="scale(0.015625)"/>
       </defs>
       <use xlink:href="#DejaVuSans-38"/>
       <use xlink:href="#DejaVuSans-30" x="63.623047"/>
      </g>
     </g>
    </g>
    <g id="ytick_13">
     <g id="line2d_31">
      <g>
       <use xlink:href="#m10901c322c" x="860.823529" y="292.596382" style="stroke: #000000; stroke-width: 0.8"/>
      </g>
     </g>
     <g id="text_30">
      <!-- 100 -->
      <g transform="translate(834.736029 296.3956) scale(0.1 -0.1)">
       <use xlink:href="#DejaVuSans-31"/>
       <use xlink:href="#DejaVuSans-30" x="63.623047"/>
       <use xlink:href="#DejaVuSans-30" x="127.246094"/>
      </g>
     </g>
    </g>
   </g>
   <g id="line2d_32">
    <path d="M 883.203209 1231.2 
L 894.84216 1231.130608 
L 895.095181 1227.349166 
L 895.854243 1227.349166 
L 896.107263 1228.831208 
L 896.866325 1228.831208 
L 897.119346 1227.949838 
L 897.878408 1227.949838 
L 898.131429 1229.687346 
L 898.890491 1229.687346 
L 899.143511 1221.881098 
L 899.902573 1221.881098 
L 900.155594 1210.047974 
L 900.914656 1210.047974 
L 901.167677 1204.161245 
L 901.926739 1204.161245 
L 902.17976 1188.655074 
L 902.938822 1188.655074 
L 903.191842 1174.364281 
L 907.999235 1174.364281 
L 908.252256 1168.161849 
L 911.035483 1168.161849 
L 911.288504 1161.546844 
L 914.071732 1161.546844 
L 914.324752 1152.534015 
L 915.083814 1152.534015 
L 915.336835 1150.003285 
L 916.095897 1150.003285 
L 916.348918 1147.218518 
L 918.120062 1147.218518 
L 918.373083 1130.124799 
L 919.132145 1130.124799 
L 919.385166 1103.243498 
L 920.144228 1103.243498 
L 920.397249 1096.082574 
L 921.156311 1096.082574 
L 921.409331 1082.293048 
L 922.168393 1082.293048 
L 922.421414 1048.9122 
L 923.180476 1048.9122 
L 923.433497 1025.679077 
L 934.313386 1025.679077 
L 934.566407 1018.828589 
L 937.349634 1018.828589 
L 937.602655 1012.078776 
L 938.361717 1012.078776 
L 938.614737 1005.258392 
L 939.3738 1005.258392 
L 939.62682 998.369245 
L 941.397965 998.369245 
L 941.650986 995.937701 
L 945.446296 995.937701 
L 945.699317 993.440812 
L 946.458379 993.440812 
L 946.711399 976.865903 
L 947.470461 976.865903 
L 947.723482 964.207932 
L 948.482544 964.207932 
L 948.735565 936.155294 
L 949.494627 936.155294 
L 949.747647 911.476691 
L 950.506709 911.476691 
L 950.75973 892.025206 
L 951.518792 892.025206 
L 951.771813 868.105487 
L 952.530875 868.105487 
L 952.783896 839.053835 
L 953.542958 839.053835 
L 953.795978 826.061163 
L 954.55504 826.061163 
L 954.808061 808.067105 
L 957.591288 808.067105 
L 957.844309 804.00478 
L 958.603371 804.00478 
L 958.856392 795.604773 
L 959.615454 795.604773 
L 959.868475 801.40175 
L 960.627537 801.40175 
L 960.880557 804.158996 
L 961.639619 804.158996 
L 961.89264 809.886678 
L 962.651702 809.886678 
L 962.904723 812.843172 
L 963.663785 812.843172 
L 963.916805 815.529691 
L 964.675868 815.529691 
L 964.928888 807.253151 
L 966.700033 807.253151 
L 966.953054 801.624925 
L 967.712116 801.624925 
L 967.965136 799.031948 
L 968.724198 799.031948 
L 968.977219 790.900822 
L 969.736281 790.900822 
L 969.989302 774.861351 
L 970.748364 774.861351 
L 971.001385 767.181751 
L 971.760447 767.181751 
L 972.013467 760.505355 
L 972.772529 760.505355 
L 973.02555 756.183122 
L 973.784612 756.183122 
L 974.037633 749.083896 
L 974.796695 749.083896 
L 975.049715 756.113009 
L 975.808777 756.113009 
L 976.061798 771.859878 
L 976.82086 771.859878 
L 977.073881 766.924128 
L 977.832943 766.924128 
L 978.085964 753.382205 
L 978.845026 753.382205 
L 979.098046 741.892315 
L 979.857108 741.892315 
L 980.110129 743.551536 
L 980.869191 743.551536 
L 981.122212 732.639368 
L 981.881274 732.639368 
L 982.134294 723.262232 
L 982.893356 723.262232 
L 983.146377 721.742314 
L 984.917522 721.68674 
L 985.170543 723.162277 
L 985.929605 723.162277 
L 986.182625 720.274931 
L 986.941687 720.274931 
L 987.194708 711.261811 
L 987.95377 711.261811 
L 988.206791 712.615265 
L 988.965853 712.615265 
L 989.218873 709.548875 
L 989.977936 709.548875 
L 990.230956 700.7669 
L 990.990018 700.7669 
L 991.243039 695.125684 
L 992.002101 695.125684 
L 992.255122 689.529891 
L 993.014184 689.529891 
L 993.267204 686.48294 
L 994.026266 686.48294 
L 994.279287 684.67393 
L 996.050432 684.67393 
L 996.303453 695.614994 
L 997.062515 695.614994 
L 997.315535 701.003971 
L 998.074597 701.003971 
L 998.327618 699.086701 
L 999.08668 699.086701 
L 999.339701 703.200935 
L 1000.098763 703.200935 
L 1000.351783 704.220185 
L 1001.110845 704.220185 
L 1001.363866 715.373799 
L 1002.122928 715.373799 
L 1002.375949 717.503318 
L 1003.135011 717.503318 
L 1003.388032 726.415232 
L 1004.147094 726.415232 
L 1004.400114 725.980538 
L 1005.159176 725.980538 
L 1005.412197 717.298833 
L 1006.171259 717.298833 
L 1006.42428 711.742613 
L 1007.183342 711.742613 
L 1007.436362 710.921176 
L 1008.195424 710.921176 
L 1008.448445 706.262682 
L 1009.207507 706.262682 
L 1009.460528 698.580675 
L 1010.21959 698.580675 
L 1010.472611 701.657646 
L 1011.231673 701.657646 
L 1011.484693 704.729504 
L 1012.243755 704.729504 
L 1012.496776 703.997971 
L 1013.255838 703.997971 
L 1013.508859 700.915836 
L 1014.267921 700.915836 
L 1014.520941 692.647102 
L 1015.280004 692.647102 
L 1015.533024 687.516534 
L 1017.304169 687.516534 
L 1017.55719 683.124 
L 1018.316252 683.124 
L 1018.569272 688.097087 
L 1019.328334 688.097087 
L 1019.581355 696.641693 
L 1020.340417 696.641693 
L 1020.593438 699.169826 
L 1021.3525 699.169826 
L 1021.605521 698.658271 
L 1022.364583 698.658271 
L 1022.617603 697.664295 
L 1023.376665 697.664295 
L 1023.629686 699.818738 
L 1024.388748 699.818738 
L 1024.641769 691.931231 
L 1025.400831 691.931231 
L 1025.653851 672.566642 
L 1026.412913 672.566642 
L 1026.665934 661.151599 
L 1027.424996 661.151599 
L 1027.678017 646.139727 
L 1028.437079 646.139727 
L 1028.6901 631.030627 
L 1029.449162 631.030627 
L 1029.702182 616.719543 
L 1030.461244 616.719543 
L 1030.714265 609.24584 
L 1031.473327 609.24584 
L 1031.726348 598.782664 
L 1032.48541 598.782664 
L 1032.73843 584.682462 
L 1033.497492 584.682462 
L 1033.750513 577.718286 
L 1034.509575 577.718286 
L 1034.762596 567.383314 
L 1035.521658 567.383314 
L 1035.774679 570.963365 
L 1036.533741 570.963365 
L 1036.786761 564.797534 
L 1037.545823 564.797534 
L 1037.798844 574.759825 
L 1038.557906 574.759825 
L 1038.810927 575.040712 
L 1039.569989 575.040712 
L 1039.823009 575.273239 
L 1040.582072 575.273239 
L 1040.835092 572.298814 
L 1042.606237 572.402048 
L 1042.859258 572.59054 
L 1043.61832 572.59054 
L 1043.87134 582.2802 
L 1044.630402 582.2802 
L 1044.883423 588.582181 
L 1045.642485 588.582181 
L 1045.895506 591.66516 
L 1046.654568 591.66516 
L 1046.907589 588.577112 
L 1047.666651 588.577112 
L 1047.919671 585.364574 
L 1048.678733 585.364574 
L 1048.931754 579.076953 
L 1049.690816 579.076953 
L 1049.943837 572.861139 
L 1051.714981 572.848665 
L 1051.968002 575.976804 
L 1052.727064 575.976804 
L 1052.980085 572.953915 
L 1053.739147 572.953915 
L 1053.992168 569.948898 
L 1055.763312 570.058011 
L 1056.016333 582.288804 
L 1056.775395 582.288804 
L 1057.028416 585.431951 
L 1057.787478 585.431951 
L 1058.040498 577.001278 
L 1058.79956 577.001278 
L 1059.052581 580.192165 
L 1059.811643 580.192165 
L 1060.064664 583.633271 
L 1060.823726 583.633271 
L 1061.076747 580.682985 
L 1061.835809 580.682985 
L 1062.088829 580.956723 
L 1062.847891 580.956723 
L 1063.100912 584.817596 
L 1063.859974 584.817596 
L 1064.112995 585.871267 
L 1065.88414 585.873278 
L 1066.13716 577.215555 
L 1066.896222 577.215555 
L 1067.149243 571.465841 
L 1067.908305 571.465841 
L 1068.161326 568.593846 
L 1068.920388 568.593846 
L 1069.173408 562.859569 
L 1069.93247 562.859569 
L 1070.185491 559.997273 
L 1070.944553 559.997273 
L 1071.197574 557.136836 
L 1071.956636 557.136836 
L 1072.209657 551.421424 
L 1072.968719 551.421424 
L 1073.221739 545.713114 
L 1073.980801 545.713114 
L 1074.233822 540.01171 
L 1074.992884 540.01171 
L 1075.245905 537.16356 
L 1076.004967 537.16356 
L 1076.257987 528.64477 
L 1077.017049 528.64477 
L 1077.27007 522.983938 
L 1078.029132 522.983938 
L 1078.282153 520.155953 
L 1080.053298 520.155953 
L 1080.306318 517.329571 
L 1081.06538 517.329571 
L 1081.318401 508.869134 
L 1082.077463 508.869134 
L 1082.330484 500.43953 
L 1083.089546 500.43953 
L 1083.342566 492.044056 
L 1084.101628 492.044056 
L 1084.354649 486.464458 
L 1085.113711 486.464458 
L 1085.366732 478.12267 
L 1086.125794 478.12267 
L 1086.378815 487.752662 
L 1087.137877 487.752662 
L 1087.390897 495.304141 
L 1088.149959 495.304141 
L 1088.40298 497.417575 
L 1089.162042 497.417575 
L 1089.415063 499.597576 
L 1090.174125 499.597576 
L 1090.427145 506.518734 
L 1092.19829 506.53491 
L 1092.451311 504.384698 
L 1093.210373 504.384698 
L 1093.463394 507.872684 
L 1094.222456 507.872684 
L 1094.475476 505.089997 
L 1095.234538 505.089997 
L 1095.487559 506.850288 
L 1096.246621 506.850288 
L 1096.499642 496.295605 
L 1097.258704 496.295605 
L 1097.511725 485.782037 
L 1098.270787 485.782037 
L 1098.523807 475.306249 
L 1099.282869 475.306249 
L 1099.53589 467.485169 
L 1100.294952 467.485169 
L 1100.547973 459.69416 
L 1101.307035 459.69416 
L 1101.560055 454.512696 
L 1102.319117 454.512696 
L 1102.572138 446.761101 
L 1103.3312 446.761101 
L 1103.584221 444.182883 
L 1104.343283 444.182883 
L 1104.596304 439.035987 
L 1105.355366 439.035987 
L 1105.608386 433.901745 
L 1106.367448 433.901745 
L 1106.620469 434.950598 
L 1107.379531 434.950598 
L 1107.632552 443.690266 
L 1109.403696 443.687318 
L 1109.656717 442.217917 
L 1111.427862 442.217917 
L 1111.680883 438.20671 
L 1114.46411 438.20671 
L 1114.717131 440.752634 
L 1117.500358 440.752634 
L 1117.753379 438.209565 
L 1119.524524 438.209565 
L 1119.777544 439.317932 
L 1120.536606 439.317932 
L 1120.789627 442.973158 
L 1121.548689 442.973158 
L 1121.80171 441.58272 
L 1122.560772 441.58272 
L 1122.813792 447.776525 
L 1123.572855 447.776525 
L 1123.825875 453.771126 
L 1124.584937 453.771126 
L 1124.837958 457.456603 
L 1125.59702 457.456603 
L 1125.850041 461.142113 
L 1126.609103 461.142113 
L 1126.862123 458.635671 
L 1127.621185 458.635671 
L 1127.874206 453.627658 
L 1128.633268 453.627658 
L 1128.886289 448.630206 
L 1129.645351 448.630206 
L 1129.898372 441.147647 
L 1130.657434 441.147647 
L 1130.910454 438.657694 
L 1131.669516 438.657694 
L 1131.922537 436.170333 
L 1132.681599 436.170333 
L 1132.93462 433.68547 
L 1133.693682 433.68547 
L 1133.946702 431.203075 
L 1135.717847 431.203075 
L 1135.970868 426.244262 
L 1136.72993 426.244262 
L 1136.982951 423.76783 
L 1137.742013 423.76783 
L 1137.995033 426.243176 
L 1138.754095 426.243176 
L 1139.007116 427.506882 
L 1139.766178 427.506882 
L 1140.019199 426.305969 
L 1140.778261 426.305969 
L 1141.031281 423.839008 
L 1141.790343 423.839008 
L 1142.043364 426.304908 
L 1142.802426 426.304908 
L 1143.055447 423.841364 
L 1143.814509 423.841364 
L 1144.06753 421.380312 
L 1144.826592 421.380312 
L 1145.079612 414.011304 
L 1145.838674 414.011304 
L 1146.091695 415.319318 
L 1146.850757 415.319318 
L 1147.103778 407.980128 
L 1147.86284 407.980128 
L 1148.11586 398.222401 
L 1148.874923 398.222401 
L 1149.127943 395.788527 
L 1149.887005 395.788527 
L 1150.140026 390.927621 
L 1150.899088 390.927621 
L 1151.152109 383.64665 
L 1151.911171 383.64665 
L 1152.164191 378.802833 
L 1152.923253 378.802833 
L 1153.176274 373.965191 
L 1153.935336 373.965191 
L 1154.188357 364.31458 
L 1154.947419 364.31458 
L 1155.20044 357.096827 
L 1155.959502 357.096827 
L 1156.212522 352.291785 
L 1156.971584 352.291785 
L 1157.224605 348.901593 
L 1157.983667 348.901593 
L 1158.236688 347.919085 
L 1158.99575 347.919085 
L 1159.24877 351.733671 
L 1160.007832 351.733671 
L 1160.260853 349.806848 
L 1161.019915 349.806848 
L 1161.272936 346.46547 
L 1162.031998 346.46547 
L 1162.285019 350.288117 
L 1164.056163 350.288117 
L 1164.309184 349.35134 
L 1165.068246 349.35134 
L 1165.321267 348.419598 
L 1166.080329 348.419598 
L 1166.333349 346.039716 
L 1167.092411 346.039716 
L 1167.345432 343.661693 
L 1170.12866 343.661693 
L 1170.38168 346.037692 
L 1171.140742 346.037692 
L 1171.393763 345.128678 
L 1172.152825 345.128678 
L 1172.405846 344.225479 
L 1173.164908 344.225479 
L 1173.417928 341.854945 
L 1174.176991 341.854945 
L 1174.430011 339.486214 
L 1176.201156 339.486214 
L 1176.454177 341.852963 
L 1177.213239 341.852963 
L 1177.466259 337.123318 
L 1178.225321 337.123318 
L 1178.478342 334.760416 
L 1179.237404 334.760416 
L 1179.490425 330.037404 
L 1181.26157 330.037404 
L 1181.51459 327.678288 
L 1182.273652 327.678288 
L 1182.526673 322.96451 
L 1183.285735 322.96451 
L 1183.538756 320.609839 
L 1184.297818 320.609839 
L 1184.550838 318.257056 
L 1185.3099 318.257056 
L 1185.562921 315.906015 
L 1186.321983 315.906015 
L 1186.575004 311.209251 
L 1187.334066 311.209251 
L 1187.587087 312.724759 
L 1188.346149 312.724759 
L 1188.599169 313.43323 
L 1189.358231 313.43323 
L 1189.611252 312.620754 
L 1190.370314 312.620754 
L 1190.623335 310.28196 
L 1191.382397 310.28196 
L 1191.635417 316.489112 
L 1192.394479 316.489112 
L 1192.6475 318.822525 
L 1193.406562 318.822525 
L 1193.659583 320.372693 
L 1194.418645 320.372693 
L 1194.671666 318.819356 
L 1195.430728 318.819356 
L 1195.683748 325.030471 
L 1196.44281 325.030471 
L 1196.695831 324.263413 
L 1198.466976 324.263413 
L 1198.719996 321.18033 
L 1202.515307 321.18033 
L 1202.768327 323.501223 
L 1204.539472 323.501223 
L 1204.792493 321.181913 
L 1205.551555 321.181913 
L 1205.804576 318.86417 
L 1206.563638 318.86417 
L 1206.816658 318.126135 
L 1207.57572 318.126135 
L 1207.828741 315.081714 
L 1208.587803 315.081714 
L 1208.840824 314.36114 
L 1209.599886 314.36114 
L 1209.852906 316.669816 
L 1210.611968 316.669816 
L 1210.864989 314.362665 
L 1211.624051 314.362665 
L 1211.877072 315.960564 
L 1212.636134 315.960564 
L 1212.889155 310.65242 
L 1213.648217 310.65242 
L 1213.901237 308.35063 
L 1214.660299 308.35063 
L 1214.91332 306.050316 
L 1215.672382 306.050316 
L 1215.925403 303.750836 
L 1216.684465 303.750836 
L 1216.937485 301.452826 
L 1217.696547 301.452826 
L 1217.949568 299.156471 
L 1219.720713 299.156471 
L 1219.973734 303.072111 
L 1220.732796 303.072111 
L 1220.985816 298.485426 
L 1222.756961 298.485426 
L 1223.009982 300.777227 
L 1223.769044 300.777227 
L 1224.022064 296.198289 
L 1224.781127 296.198289 
L 1225.034147 293.911132 
L 1225.793209 293.911132 
L 1226.04623 291.625559 
L 1226.805292 291.625559 
L 1227.058313 289.341405 
L 1227.817375 289.341405 
L 1228.070395 290.990258 
L 1228.829457 290.990258 
L 1229.082478 292.640347 
L 1229.84154 292.640347 
L 1230.094561 290.359977 
L 1232.877788 290.359977 
L 1233.130809 292.638953 
L 1233.889871 292.638953 
L 1234.142892 292.019193 
L 1234.901954 292.019193 
L 1235.154974 295.957945 
L 1235.914036 295.957945 
L 1236.167057 298.230468 
L 1236.926119 298.230468 
L 1237.17914 302.175251 
L 1237.938202 302.175251 
L 1238.191223 297.637261 
L 1238.950285 297.637261 
L 1239.203305 292.518648 
L 1239.962367 292.518648 
L 1240.215388 287.994396 
L 1240.97445 287.994396 
L 1241.227471 285.734301 
L 1241.986533 285.734301 
L 1242.239553 283.475489 
L 1242.998615 283.475489 
L 1243.251636 282.916407 
L 1244.010698 282.916407 
L 1244.263719 277.854368 
L 1245.022781 277.854368 
L 1245.275802 280.107124 
L 1246.034864 280.107124 
L 1246.287884 275.605551 
L 1248.059029 275.605551 
L 1248.31205 275.068565 
L 1250.083195 275.068565 
L 1250.336215 272.82117 
L 1252.10736 272.82117 
L 1252.360381 272.290876 
L 1254.131525 272.290876 
L 1254.384546 270.046135 
L 1255.143608 270.046135 
L 1255.396629 267.80261 
L 1256.155691 267.80261 
L 1256.408712 270.045359 
L 1257.167774 270.045359 
L 1257.420794 267.803811 
L 1258.179856 267.803811 
L 1258.432877 265.563456 
L 1259.191939 265.563456 
L 1259.44496 263.324511 
L 1261.216104 263.324511 
L 1261.469125 262.821436 
L 1265.264435 262.821293 
L 1265.517456 258.361706 
L 1266.276518 258.361706 
L 1266.529539 260.59017 
L 1267.288601 260.59017 
L 1267.541621 256.136644 
L 1268.300683 256.136644 
L 1268.553704 251.688065 
L 1269.312766 251.688065 
L 1269.565787 249.465454 
L 1270.324849 249.465454 
L 1270.57787 248.567244 
L 1271.336932 248.567244 
L 1271.589952 246.347947 
L 1272.349014 246.347947 
L 1272.602035 248.566498 
L 1273.361097 248.566498 
L 1273.614118 252.560582 
L 1274.37318 252.560582 
L 1274.6262 250.344086 
L 1275.385263 250.344086 
L 1275.638283 252.559846 
L 1277.409428 252.559846 
L 1277.662449 254.774874 
L 1279.433593 254.774145 
L 1279.686614 256.564096 
L 1280.445676 256.564096 
L 1280.698697 252.141332 
L 1281.457759 252.141332 
L 1281.71078 249.93156 
L 1283.481924 249.93156 
L 1283.734945 247.723061 
L 1284.494007 247.723061 
L 1284.747028 249.930839 
L 1286.518172 249.930839 
L 1286.771193 247.724123 
L 1287.530255 247.724123 
L 1287.783276 247.32412 
L 1291.578586 247.32412 
L 1291.831607 245.119915 
L 1292.590669 245.119915 
L 1292.843689 246.926797 
L 1293.602751 246.926797 
L 1293.855772 244.723837 
L 1294.614834 244.723837 
L 1294.867855 244.332341 
L 1295.626917 244.332341 
L 1295.879938 242.13167 
L 1297.651082 242.13167 
L 1297.904103 237.733823 
L 1298.663165 237.733823 
L 1298.916186 239.931515 
L 1299.675248 239.931515 
L 1299.928268 237.360468 
L 1300.687331 237.360468 
L 1300.940351 235.16931 
L 1301.699413 235.16931 
L 1301.952434 232.977973 
L 1302.711496 232.977973 
L 1302.964517 232.618497 
L 1303.723579 232.618497 
L 1303.976599 232.263791 
L 1304.735661 232.263791 
L 1304.988682 236.288392 
L 1305.747744 236.288392 
L 1306.000765 233.751869 
L 1307.77191 233.751869 
L 1308.02493 231.566436 
L 1308.783992 231.566436 
L 1309.037013 235.591912 
L 1309.796075 235.591912 
L 1310.049096 233.408329 
L 1310.808158 233.408329 
L 1311.061178 231.225907 
L 1311.82024 231.225907 
L 1312.073261 233.407654 
L 1312.832323 233.407654 
L 1313.085344 233.075598 
L 1314.856489 233.075598 
L 1315.109509 232.747843 
L 1315.868571 232.747843 
L 1316.121592 230.569056 
L 1316.880654 230.569056 
L 1317.133675 228.39141 
L 1318.904819 228.39141 
L 1319.15784 226.214742 
L 1320.928985 226.214742 
L 1321.182006 228.390744 
L 1321.941068 228.390744 
L 1322.194088 226.215866 
L 1322.95315 226.215866 
L 1323.206171 228.390081 
L 1324.977316 228.390081 
L 1325.230336 230.56298 
L 1327.001481 230.563926 
L 1327.254502 225.932871 
L 1328.013564 225.932871 
L 1328.266585 225.647342 
L 1329.025647 225.647342 
L 1329.278667 225.364033 
L 1330.037729 225.364033 
L 1330.29075 223.2 
L 1330.796791 223.2 
L 1330.796791 223.2 
" clip-path="url(#pacca2cfb0c)" style="fill: none; stroke: #0000ff; stroke-width: 1.5; stroke-linecap: square"/>
   </g>
   <g id="patch_9">
    <path d="M 860.823529 1281.6 
L 860.823529 172.8 
" style="fill: none; stroke: #000000; stroke-width: 0.8; stroke-linejoin: miter; stroke-linecap: square"/>
   </g>
   <g id="patch_10">
    <path d="M 1353.176471 1281.6 
L 1353.176471 172.8 
" style="fill: none; stroke: #000000; stroke-width: 0.8; stroke-linejoin: miter; stroke-linecap: square"/>
   </g>
   <g id="patch_11">
    <path d="M 860.823529 1281.6 
L 1353.176471 1281.6 
" style="fill: none; stroke: #000000; stroke-width: 0.8; stroke-linejoin: miter; stroke-linecap: square"/>
   </g>
   <g id="patch_12">
    <path d="M 860.823529 172.8 
L 1353.176471 172.8 
" style="fill: none; stroke: #000000; stroke-width: 0.8; stroke-linejoin: miter; stroke-linecap: square"/>
   </g>
   <g id="legend_2">
    <g id="patch_13">
     <path d="M 1262.134283 195.478125 
L 1346.176471 195.478125 
Q 1348.176471 195.478125 1348.176471 193.478125 
L 1348.176471 179.8 
Q 1348.176471 177.8 1346.176471 177.8 
L 1262.134283 177.8 
Q 1260.134283 177.8 1260.134283 179.8 
L 1260.134283 193.478125 
Q 1260.134283 195.478125 1262.134283 195.478125 
z
" style="fill: #ffffff; opacity: 0.8; stroke: #cccccc; stroke-linejoin: miter"/>
    </g>
    <g id="line2d_33">
     <path d="M 1264.134283 185.898437 
L 1274.134283 185.898437 
L 1284.134283 185.898437 
" style="fill: none; stroke: #0000ff; stroke-width: 1.5; stroke-linecap: square"/>
    </g>
    <g id="text_31">
     <!-- O2 reward -->
     <g transform="translate(1292.134283 189.398437) scale(0.1 -0.1)">
      <use xlink:href="#DejaVuSans-4f"/>
      <use xlink:href="#DejaVuSans-32" x="78.710938"/>
      <use xlink:href="#DejaVuSans-20" x="142.333984"/>
      <use xlink:href="#DejaVuSans-72" x="174.121094"/>
      <use xlink:href="#DejaVuSans-65" x="212.984375"/>
      <use xlink:href="#DejaVuSans-77" x="274.507812"/>
      <use xlink:href="#DejaVuSans-61" x="356.294922"/>
      <use xlink:href="#DejaVuSans-72" x="417.574219"/>
      <use xlink:href="#DejaVuSans-64" x="456.9375"/>
     </g>
    </g>
   </g>
  </g>
  <g id="axes_3">
   <g id="patch_14">
    <path d="M 1451.647059 1281.6 
L 1944 1281.6 
L 1944 172.8 
L 1451.647059 172.8 
z
" style="fill: #ffffff"/>
   </g>
   <g id="matplotlib.axis_5">
    <g id="xtick_17">
     <g id="line2d_34">
      <g>
       <use xlink:href="#mf6fd91753b" x="1473.773717" y="1281.6" style="stroke: #000000; stroke-width: 0.8"/>
      </g>
     </g>
     <g id="text_32">
      <!-- 0 -->
      <g transform="translate(1470.592467 1296.198437) scale(0.1 -0.1)">
       <use xlink:href="#DejaVuSans-30"/>
      </g>
     </g>
    </g>
    <g id="xtick_18">
     <g id="line2d_35">
      <g>
       <use xlink:href="#mf6fd91753b" x="1537.028887" y="1281.6" style="stroke: #000000; stroke-width: 0.8"/>
      </g>
     </g>
     <g id="text_33">
      <!-- 250 -->
      <g transform="translate(1527.485137 1296.198437) scale(0.1 -0.1)">
       <use xlink:href="#DejaVuSans-32"/>
       <use xlink:href="#DejaVuSans-35" x="63.623047"/>
       <use xlink:href="#DejaVuSans-30" x="127.246094"/>
      </g>
     </g>
    </g>
    <g id="xtick_19">
     <g id="line2d_36">
      <g>
       <use xlink:href="#mf6fd91753b" x="1600.284057" y="1281.6" style="stroke: #000000; stroke-width: 0.8"/>
      </g>
     </g>
     <g id="text_34">
      <!-- 500 -->
      <g transform="translate(1590.740307 1296.198437) scale(0.1 -0.1)">
       <use xlink:href="#DejaVuSans-35"/>
       <use xlink:href="#DejaVuSans-30" x="63.623047"/>
       <use xlink:href="#DejaVuSans-30" x="127.246094"/>
      </g>
     </g>
    </g>
    <g id="xtick_20">
     <g id="line2d_37">
      <g>
       <use xlink:href="#mf6fd91753b" x="1663.539227" y="1281.6" style="stroke: #000000; stroke-width: 0.8"/>
      </g>
     </g>
     <g id="text_35">
      <!-- 750 -->
      <g transform="translate(1653.995477 1296.198437) scale(0.1 -0.1)">
       <use xlink:href="#DejaVuSans-37"/>
       <use xlink:href="#DejaVuSans-35" x="63.623047"/>
       <use xlink:href="#DejaVuSans-30" x="127.246094"/>
      </g>
     </g>
    </g>
    <g id="xtick_21">
     <g id="line2d_38">
      <g>
       <use xlink:href="#mf6fd91753b" x="1726.794397" y="1281.6" style="stroke: #000000; stroke-width: 0.8"/>
      </g>
     </g>
     <g id="text_36">
      <!-- 1000 -->
      <g transform="translate(1714.069397 1296.198437) scale(0.1 -0.1)">
       <use xlink:href="#DejaVuSans-31"/>
       <use xlink:href="#DejaVuSans-30" x="63.623047"/>
       <use xlink:href="#DejaVuSans-30" x="127.246094"/>
       <use xlink:href="#DejaVuSans-30" x="190.869141"/>
      </g>
     </g>
    </g>
    <g id="xtick_22">
     <g id="line2d_39">
      <g>
       <use xlink:href="#mf6fd91753b" x="1790.049567" y="1281.6" style="stroke: #000000; stroke-width: 0.8"/>
      </g>
     </g>
     <g id="text_37">
      <!-- 1250 -->
      <g transform="translate(1777.324567 1296.198437) scale(0.1 -0.1)">
       <use xlink:href="#DejaVuSans-31"/>
       <use xlink:href="#DejaVuSans-32" x="63.623047"/>
       <use xlink:href="#DejaVuSans-35" x="127.246094"/>
       <use xlink:href="#DejaVuSans-30" x="190.869141"/>
      </g>
     </g>
    </g>
    <g id="xtick_23">
     <g id="line2d_40">
      <g>
       <use xlink:href="#mf6fd91753b" x="1853.304737" y="1281.6" style="stroke: #000000; stroke-width: 0.8"/>
      </g>
     </g>
     <g id="text_38">
      <!-- 1500 -->
      <g transform="translate(1840.579737 1296.198437) scale(0.1 -0.1)">
       <use xlink:href="#DejaVuSans-31"/>
       <use xlink:href="#DejaVuSans-35" x="63.623047"/>
       <use xlink:href="#DejaVuSans-30" x="127.246094"/>
       <use xlink:href="#DejaVuSans-30" x="190.869141"/>
      </g>
     </g>
    </g>
    <g id="xtick_24">
     <g id="line2d_41">
      <g>
       <use xlink:href="#mf6fd91753b" x="1916.559907" y="1281.6" style="stroke: #000000; stroke-width: 0.8"/>
      </g>
     </g>
     <g id="text_39">
      <!-- 1750 -->
      <g transform="translate(1903.834907 1296.198437) scale(0.1 -0.1)">
       <use xlink:href="#DejaVuSans-31"/>
       <use xlink:href="#DejaVuSans-37" x="63.623047"/>
       <use xlink:href="#DejaVuSans-35" x="127.246094"/>
       <use xlink:href="#DejaVuSans-30" x="190.869141"/>
      </g>
     </g>
    </g>
   </g>
   <g id="matplotlib.axis_6">
    <g id="ytick_14">
     <g id="line2d_42">
      <g>
       <use xlink:href="#m10901c322c" x="1451.647059" y="1231.2" style="stroke: #000000; stroke-width: 0.8"/>
      </g>
     </g>
     <g id="text_40">
      <!-- 0 -->
      <g transform="translate(1438.284559 1234.999219) scale(0.1 -0.1)">
       <use xlink:href="#DejaVuSans-30"/>
      </g>
     </g>
    </g>
    <g id="ytick_15">
     <g id="line2d_43">
      <g>
       <use xlink:href="#m10901c322c" x="1451.647059" y="995.669607" style="stroke: #000000; stroke-width: 0.8"/>
      </g>
     </g>
     <g id="text_41">
      <!-- 5 -->
      <g transform="translate(1438.284559 999.468826) scale(0.1 -0.1)">
       <use xlink:href="#DejaVuSans-35"/>
      </g>
     </g>
    </g>
    <g id="ytick_16">
     <g id="line2d_44">
      <g>
       <use xlink:href="#m10901c322c" x="1451.647059" y="760.139215" style="stroke: #000000; stroke-width: 0.8"/>
      </g>
     </g>
     <g id="text_42">
      <!-- 10 -->
      <g transform="translate(1431.922059 763.938434) scale(0.1 -0.1)">
       <use xlink:href="#DejaVuSans-31"/>
       <use xlink:href="#DejaVuSans-30" x="63.623047"/>
      </g>
     </g>
    </g>
    <g id="ytick_17">
     <g id="line2d_45">
      <g>
       <use xlink:href="#m10901c322c" x="1451.647059" y="524.608822" style="stroke: #000000; stroke-width: 0.8"/>
      </g>
     </g>
     <g id="text_43">
      <!-- 15 -->
      <g transform="translate(1431.922059 528.408041) scale(0.1 -0.1)">
       <use xlink:href="#DejaVuSans-31"/>
       <use xlink:href="#DejaVuSans-35" x="63.623047"/>
      </g>
     </g>
    </g>
    <g id="ytick_18">
     <g id="line2d_46">
      <g>
       <use xlink:href="#m10901c322c" x="1451.647059" y="289.07843" style="stroke: #000000; stroke-width: 0.8"/>
      </g>
     </g>
     <g id="text_44">
      <!-- 20 -->
      <g transform="translate(1431.922059 292.877648) scale(0.1 -0.1)">
       <use xlink:href="#DejaVuSans-32"/>
       <use xlink:href="#DejaVuSans-30" x="63.623047"/>
      </g>
     </g>
    </g>
   </g>
   <g id="line2d_47">
    <path d="M 1474.026738 1231.2 
L 1484.653607 1231.2 
L 1484.906627 1212.828498 
L 1485.665689 1212.828498 
L 1485.91871 1198.14835 
L 1486.677772 1198.14835 
L 1486.930793 1185.661501 
L 1487.689855 1185.661501 
L 1487.942875 1167.155541 
L 1488.701937 1167.155541 
L 1488.954958 1160.932509 
L 1489.71402 1160.932509 
L 1489.967041 1136.705393 
L 1490.726103 1136.705393 
L 1490.979124 1143.744341 
L 1491.738186 1143.744341 
L 1491.991206 1129.956693 
L 1492.750268 1129.956693 
L 1493.003289 1116.362301 
L 1493.762351 1116.362301 
L 1494.015372 1107.140564 
L 1494.774434 1107.140564 
L 1495.027454 1091.5223 
L 1495.786516 1091.5223 
L 1496.039537 1076.8616 
L 1496.798599 1076.8616 
L 1497.05162 1067.776745 
L 1498.822765 1067.776745 
L 1499.075785 1063.777672 
L 1499.834847 1063.777672 
L 1500.087868 1055.020773 
L 1500.84693 1055.020773 
L 1501.099951 1050.143992 
L 1502.871095 1050.143992 
L 1503.124116 1046.503413 
L 1503.883178 1046.503413 
L 1504.136199 1038.527781 
L 1505.907344 1038.527781 
L 1506.160364 1035.186764 
L 1506.919426 1035.186764 
L 1507.172447 1021.10218 
L 1507.931509 1021.10218 
L 1508.18453 1001.338779 
L 1508.943592 1001.338779 
L 1509.196612 987.493271 
L 1509.955675 987.493271 
L 1510.208695 978.280213 
L 1510.967757 978.280213 
L 1511.220778 952.580546 
L 1511.97984 952.580546 
L 1512.232861 939.794389 
L 1512.991923 939.794389 
L 1513.244943 935.780446 
L 1514.004005 935.780446 
L 1514.257026 923.26166 
L 1515.016088 923.26166 
L 1515.269109 914.92409 
L 1516.028171 914.92409 
L 1516.281192 907.809453 
L 1517.040254 907.809453 
L 1517.293274 895.372154 
L 1518.052336 895.372154 
L 1518.305357 890.304113 
L 1519.064419 890.304113 
L 1519.31744 878.973571 
L 1521.088584 878.892413 
L 1521.341605 882.096925 
L 1522.100667 882.096925 
L 1522.353688 884.082039 
L 1523.11275 884.082039 
L 1523.365771 879.433013 
L 1524.124833 879.433013 
L 1524.377853 881.383806 
L 1525.136915 881.383806 
L 1525.389936 878.652359 
L 1526.148998 878.652359 
L 1526.402019 881.71955 
L 1527.161081 881.71955 
L 1527.414101 878.843181 
L 1529.185246 878.843181 
L 1529.438267 875.911938 
L 1530.197329 875.911938 
L 1530.45035 867.259113 
L 1531.209412 867.259113 
L 1531.462432 859.755158 
L 1532.221494 859.755158 
L 1532.474515 864.333243 
L 1533.233577 864.333243 
L 1533.486598 866.166361 
L 1536.269825 866.166361 
L 1536.522846 857.628052 
L 1537.281908 857.628052 
L 1537.534929 841.564245 
L 1538.293991 841.564245 
L 1538.547011 833.774361 
L 1539.306073 833.774361 
L 1539.559094 828.271062 
L 1540.318156 828.271062 
L 1540.571177 824.663333 
L 1541.330239 824.663333 
L 1541.58326 816.047638 
L 1542.342322 816.047638 
L 1542.595342 810.267222 
L 1543.354404 810.267222 
L 1543.607425 805.781057 
L 1544.366487 805.781057 
L 1544.619508 796.597812 
L 1545.37857 796.597812 
L 1545.63159 791.159549 
L 1546.390652 791.159549 
L 1546.643673 783.656732 
L 1547.402735 783.656732 
L 1547.655756 781.596244 
L 1548.414818 781.596244 
L 1548.667839 773.133155 
L 1549.426901 773.133155 
L 1549.679921 766.120765 
L 1550.438983 766.120765 
L 1550.692004 759.232067 
L 1551.451066 759.232067 
L 1551.704087 752.617552 
L 1553.475231 752.617552 
L 1553.728252 748.019101 
L 1554.487314 748.019101 
L 1554.740335 744.026478 
L 1555.499397 744.026478 
L 1555.752418 745.898459 
L 1556.51148 745.898459 
L 1556.7645 742.362401 
L 1557.523562 742.362401 
L 1557.776583 736.217882 
L 1558.535645 736.217882 
L 1558.788666 731.808938 
L 1559.547728 731.808938 
L 1559.800748 727.363223 
L 1560.559811 727.363223 
L 1560.812831 721.479309 
L 1561.571893 721.479309 
L 1561.824914 708.947556 
L 1562.583976 708.947556 
L 1562.836997 707.545593 
L 1563.596059 707.545593 
L 1563.849079 705.584645 
L 1564.608141 705.584645 
L 1564.861162 697.888276 
L 1565.620224 697.888276 
L 1565.873245 692.383286 
L 1566.632307 692.383286 
L 1566.885328 688.589092 
L 1567.64439 688.589092 
L 1567.89741 681.772815 
L 1568.656472 681.772815 
L 1568.909493 674.005876 
L 1569.668555 674.005876 
L 1569.921576 669.875345 
L 1570.680638 669.875345 
L 1570.933658 669.117031 
L 1571.69272 669.117031 
L 1571.945741 666.91685 
L 1572.704803 666.91685 
L 1572.957824 663.960726 
L 1573.716886 663.960726 
L 1573.969907 659.632864 
L 1574.728969 659.632864 
L 1574.981989 658.219499 
L 1575.741051 658.219499 
L 1575.994072 652.120637 
L 1576.753134 652.120637 
L 1577.006155 650.034132 
L 1577.765217 650.034132 
L 1578.018237 646.867005 
L 1578.777299 646.867005 
L 1579.03032 643.716184 
L 1579.789382 643.716184 
L 1580.042403 640.235307 
L 1581.813548 640.235307 
L 1582.066568 638.170107 
L 1582.82563 638.170107 
L 1583.078651 637.136886 
L 1583.837713 637.136886 
L 1584.090734 632.692032 
L 1585.861879 632.692032 
L 1586.114899 633.715957 
L 1586.873961 633.715957 
L 1587.126982 634.061504 
L 1587.886044 634.061504 
L 1588.139065 632.090093 
L 1588.898127 632.090093 
L 1589.151147 625.747404 
L 1589.910209 625.747404 
L 1590.16323 623.194309 
L 1590.922292 623.194309 
L 1591.175313 623.784265 
L 1591.934375 623.784265 
L 1592.187396 617.571074 
L 1592.946458 617.571074 
L 1593.199478 612.504476 
L 1593.95854 612.504476 
L 1594.211561 611.68214 
L 1594.970623 611.68214 
L 1595.223644 609.312788 
L 1595.982706 609.312788 
L 1596.235726 605.946841 
L 1596.994788 605.946841 
L 1597.247809 605.428334 
L 1598.006871 605.428334 
L 1598.259892 601.885496 
L 1599.018954 601.885496 
L 1599.271975 599.120144 
L 1600.031037 599.120144 
L 1600.284057 594.582244 
L 1601.043119 594.582244 
L 1601.29614 591.89676 
L 1602.055202 591.89676 
L 1602.308223 588.313012 
L 1603.067285 588.313012 
L 1603.320305 585.023013 
L 1604.079367 585.023013 
L 1604.332388 582.441653 
L 1605.09145 582.441653 
L 1605.344471 582.004613 
L 1606.103533 582.004613 
L 1606.356554 578.803933 
L 1607.115616 578.803933 
L 1607.368636 574.368137 
L 1608.127698 574.368137 
L 1608.380719 570.492378 
L 1609.139781 570.492378 
L 1609.392802 565.148045 
L 1610.151864 565.148045 
L 1610.404884 560.315787 
L 1611.163947 560.315787 
L 1611.416967 548.926907 
L 1612.176029 548.926907 
L 1612.42905 540.887574 
L 1613.188112 540.887574 
L 1613.441133 534.940518 
L 1614.200195 534.940518 
L 1614.453215 531.215372 
L 1615.212277 531.215372 
L 1615.465298 525.91921 
L 1616.22436 525.91921 
L 1616.477381 522.118066 
L 1617.236443 522.118066 
L 1617.489464 513.293564 
L 1618.248526 513.293564 
L 1618.501546 508.414833 
L 1619.260608 508.414833 
L 1619.513629 503.48527 
L 1620.272691 503.48527 
L 1620.525712 499.538528 
L 1621.284774 499.538528 
L 1621.537794 494.716288 
L 1622.296856 494.716288 
L 1622.549877 490.140245 
L 1623.308939 490.140245 
L 1623.56196 485.074605 
L 1624.321022 485.074605 
L 1624.574043 479.830299 
L 1625.333105 479.830299 
L 1625.586125 478.17815 
L 1626.345187 478.17815 
L 1626.598208 475.132357 
L 1627.35727 475.132357 
L 1627.610291 474.044299 
L 1628.369353 474.044299 
L 1628.622373 472.735372 
L 1629.381435 472.735372 
L 1629.634456 470.577035 
L 1630.393518 470.577035 
L 1630.646539 467.156585 
L 1631.405601 467.156585 
L 1631.658622 465.875022 
L 1632.417684 465.875022 
L 1632.670704 463.761815 
L 1633.429766 463.761815 
L 1633.682787 461.877321 
L 1635.453932 461.877321 
L 1635.706952 461.670139 
L 1636.466015 461.670139 
L 1636.719035 460.20378 
L 1637.478097 460.20378 
L 1637.731118 459.571259 
L 1638.49018 459.571259 
L 1638.743201 458.125539 
L 1639.502263 458.125539 
L 1639.755283 457.099468 
L 1640.514345 457.099468 
L 1640.767366 454.76415 
L 1641.526428 454.76415 
L 1641.779449 450.882058 
L 1642.538511 450.882058 
L 1642.791532 450.06045 
L 1643.550594 450.06045 
L 1643.803614 445.959051 
L 1644.562676 445.959051 
L 1644.815697 443.346278 
L 1645.574759 443.346278 
L 1645.82778 441.722724 
L 1646.586842 441.722724 
L 1646.839862 438.970301 
L 1647.598924 438.970301 
L 1647.851945 435.110207 
L 1648.611007 435.110207 
L 1648.864028 432.095332 
L 1649.62309 432.095332 
L 1649.876111 427.52109 
L 1650.635173 427.52109 
L 1650.888193 425.644468 
L 1651.647255 425.644468 
L 1651.900276 423.630413 
L 1652.659338 423.630413 
L 1652.912359 419.074694 
L 1653.671421 419.074694 
L 1653.924441 418.158742 
L 1654.683503 418.158742 
L 1654.936524 417.11414 
L 1655.695586 417.11414 
L 1655.948607 414.509961 
L 1656.707669 414.509961 
L 1656.96069 412.31622 
L 1657.719752 412.31622 
L 1657.972772 409.061909 
L 1658.731834 409.061909 
L 1658.984855 405.648203 
L 1659.743917 405.648203 
L 1659.996938 404.143854 
L 1660.756 404.143854 
L 1661.00902 401.624996 
L 1661.768083 401.624996 
L 1662.021103 400.319919 
L 1662.780165 400.319919 
L 1663.033186 400.795037 
L 1663.792248 400.795037 
L 1664.045269 397.081666 
L 1664.804331 397.081666 
L 1665.057351 396.920181 
L 1665.816413 396.920181 
L 1666.069434 395.103564 
L 1667.840579 395.103564 
L 1668.0936 393.026376 
L 1668.852662 393.026376 
L 1669.105682 391.331986 
L 1669.864744 391.331986 
L 1670.117765 389.18536 
L 1670.876827 389.18536 
L 1671.129848 388.446974 
L 1671.88891 388.446974 
L 1672.14193 385.601067 
L 1672.900992 385.601067 
L 1673.154013 383.548425 
L 1673.913075 383.548425 
L 1674.166096 381.425039 
L 1674.925158 381.425039 
L 1675.178179 376.774494 
L 1675.937241 376.774494 
L 1676.190261 373.5663 
L 1677.961406 373.563717 
L 1678.214427 372.641215 
L 1678.973489 372.641215 
L 1679.226509 374.042711 
L 1679.985571 374.042711 
L 1680.238592 371.178845 
L 1680.997654 371.178845 
L 1681.250675 373.070209 
L 1682.009737 373.070209 
L 1682.262758 370.805433 
L 1683.02182 370.805433 
L 1683.527861 370.68293 
L 1684.033902 370.68293 
L 1684.286923 371.296463 
L 1686.058068 371.237668 
L 1686.311088 371.742865 
L 1687.070151 371.742865 
L 1687.323171 368.93886 
L 1688.082233 368.93886 
L 1688.335254 367.129056 
L 1689.094316 367.129056 
L 1689.347337 366.408436 
L 1690.106399 366.408436 
L 1690.359419 365.255025 
L 1691.118481 365.255025 
L 1691.371502 364.183352 
L 1692.130564 364.183352 
L 1692.383585 361.438102 
L 1694.15473 361.438102 
L 1694.40775 360.359295 
L 1695.166812 360.359295 
L 1695.419833 358.648556 
L 1696.178895 358.648556 
L 1696.431916 357.948409 
L 1697.190978 357.948409 
L 1697.443998 357.189896 
L 1698.20306 357.189896 
L 1698.456081 355.509195 
L 1699.215143 355.509195 
L 1699.468164 354.486752 
L 1700.227226 354.486752 
L 1700.480247 353.776983 
L 1701.239309 353.776983 
L 1701.492329 353.087813 
L 1703.263474 353.039591 
L 1703.516495 351.699655 
L 1705.287639 351.652311 
L 1705.54066 349.962952 
L 1706.299722 349.962952 
L 1706.552743 348.95873 
L 1707.311805 348.95873 
L 1707.564826 347.94179 
L 1708.323888 347.94179 
L 1708.576908 347.536446 
L 1709.33597 347.536446 
L 1709.588991 346.205213 
L 1710.348053 346.205213 
L 1710.601074 345.214132 
L 1711.360136 345.214132 
L 1711.613156 345.879247 
L 1712.372219 345.879247 
L 1712.625239 344.935581 
L 1713.384301 344.935581 
L 1713.637322 342.9465 
L 1714.396384 342.9465 
L 1714.649405 342.00048 
L 1715.408467 342.00048 
L 1715.661487 342.657882 
L 1716.420549 342.657882 
L 1716.67357 341.053207 
L 1717.432632 341.053207 
L 1717.685653 340.387428 
L 1719.456798 340.37444 
L 1719.709818 339.714911 
L 1721.480963 339.701406 
L 1721.733984 337.792609 
L 1723.505128 337.783014 
L 1723.758149 336.520188 
L 1724.517211 336.520188 
L 1724.770232 335.882476 
L 1725.529294 335.882476 
L 1725.782315 335.246935 
L 1726.541377 335.246935 
L 1726.794397 334.611921 
L 1727.553459 334.611921 
L 1727.80648 332.40653 
L 1729.577625 332.40653 
L 1729.830645 331.462081 
L 1730.589707 331.462081 
L 1730.842728 330.83563 
L 1732.613873 330.833623 
L 1732.866894 329.272839 
L 1733.625956 329.272839 
L 1733.878976 328.650175 
L 1734.638038 328.650175 
L 1734.891059 328.02884 
L 1735.650121 328.02884 
L 1735.903142 326.788711 
L 1736.662204 326.788711 
L 1736.915224 324.927129 
L 1737.674287 324.927129 
L 1737.927307 324.006748 
L 1738.686369 324.006748 
L 1738.93939 322.767052 
L 1739.698452 322.767052 
L 1739.951473 321.238106 
L 1740.710535 321.238106 
L 1740.963555 319.723345 
L 1741.722617 319.723345 
L 1741.975638 319.410842 
L 1742.7347 319.410842 
L 1742.987721 320.049414 
L 1743.746783 320.049414 
L 1743.999804 318.508628 
L 1745.770948 318.53856 
L 1746.023969 317.006463 
L 1746.783031 317.006463 
L 1747.036052 316.132055 
L 1748.807196 316.132055 
L 1749.060217 313.998777 
L 1749.819279 313.998777 
L 1750.0723 313.080379 
L 1750.831362 313.080379 
L 1751.084383 311.570481 
L 1751.843445 311.570481 
L 1752.096465 310.655862 
L 1752.855527 310.655862 
L 1753.108548 309.755052 
L 1753.86761 309.755052 
L 1754.120631 307.060513 
L 1754.879693 307.060513 
L 1755.132713 305.552467 
L 1755.891775 305.552467 
L 1756.144796 304.644563 
L 1756.903858 304.644563 
L 1757.156879 303.752232 
L 1757.915941 303.752232 
L 1758.168962 303.143474 
L 1758.928024 303.143474 
L 1759.181044 302.519771 
L 1759.940106 302.519771 
L 1760.193127 301.026855 
L 1761.964272 301.010673 
L 1762.217292 300.126394 
L 1765.00052 300.109991 
L 1765.253541 299.208705 
L 1766.012603 299.208705 
L 1766.265623 298.325088 
L 1767.024685 298.325088 
L 1767.277706 296.525639 
L 1768.036768 296.525639 
L 1768.289789 295.921728 
L 1769.048851 295.921728 
L 1769.301872 293.545992 
L 1770.060934 293.545992 
L 1770.313954 292.3817 
L 1771.073016 292.3817 
L 1771.326037 290.622696 
L 1772.085099 290.622696 
L 1772.33812 289.158716 
L 1774.109264 289.158716 
L 1774.362285 288.561252 
L 1775.121347 288.561252 
L 1775.374368 287.697277 
L 1776.13343 287.697277 
L 1776.386451 287.122377 
L 1777.145513 287.122377 
L 1777.398533 285.378975 
L 1779.169678 285.378975 
L 1779.422699 284.992321 
L 1780.181761 284.992321 
L 1780.434781 283.53605 
L 1781.193843 283.53605 
L 1781.446864 284.107991 
L 1782.205926 284.107991 
L 1782.458947 283.226154 
L 1784.230092 283.32642 
L 1784.483112 282.469753 
L 1785.242174 282.469753 
L 1785.495195 282.00402 
L 1787.26634 282.00402 
L 1787.51936 282.573098 
L 1790.302588 282.546507 
L 1790.555609 281.951837 
L 1792.326753 281.951837 
L 1792.579774 281.358161 
L 1793.338836 281.358161 
L 1793.591857 280.507534 
L 1794.350919 280.507534 
L 1794.60394 279.91464 
L 1795.363002 279.91464 
L 1795.616022 278.447398 
L 1796.375084 278.447398 
L 1796.628105 276.729665 
L 1797.387167 276.729665 
L 1797.640188 275.886115 
L 1798.39925 275.886115 
L 1798.65227 275.04317 
L 1799.411332 275.04317 
L 1799.664353 273.445956 
L 1800.423415 273.445956 
L 1800.676436 273.255059 
L 1801.435498 273.255059 
L 1801.688519 271.105192 
L 1802.447581 271.105192 
L 1802.700601 269.553706 
L 1803.459663 269.553706 
L 1803.712684 269.126155 
L 1804.471746 269.126155 
L 1804.724767 269.68408 
L 1805.483829 269.68408 
L 1805.736849 268.145105 
L 1806.495911 268.145105 
L 1806.748932 267.274079 
L 1807.507994 267.274079 
L 1807.761015 266.717027 
L 1808.520077 266.717027 
L 1808.773098 266.855316 
L 1809.53216 266.855316 
L 1809.78518 266.298263 
L 1810.544242 266.298263 
L 1810.797263 265.882943 
L 1811.556325 265.882943 
L 1811.809346 265.32589 
L 1812.568408 265.32589 
L 1812.821428 265.469331 
L 1813.580491 265.469331 
L 1813.833511 264.502454 
L 1815.604656 264.502454 
L 1815.857677 264.093461 
L 1817.628821 264.093461 
L 1817.881842 263.537656 
L 1819.652987 263.537656 
L 1819.906008 262.982687 
L 1820.66507 262.982687 
L 1820.91809 262.42855 
L 1821.677152 262.42855 
L 1821.930173 261.875237 
L 1823.701318 261.875237 
L 1823.954338 260.218116 
L 1824.7134 260.218116 
L 1824.966421 259.666821 
L 1825.725483 259.666821 
L 1825.978504 257.977365 
L 1826.737566 257.977365 
L 1826.990587 256.291463 
L 1827.749649 256.291463 
L 1828.002669 255.196741 
L 1829.773814 255.196741 
L 1830.026835 254.649379 
L 1831.797979 254.649379 
L 1832.051 255.90139 
L 1832.810062 255.90139 
L 1833.063083 256.062524 
L 1833.822145 256.062524 
L 1834.075166 256.606088 
L 1834.834228 256.606088 
L 1835.087248 257.148906 
L 1835.84631 257.148906 
L 1836.099331 258.020748 
L 1836.858393 258.020748 
L 1837.111414 257.479399 
L 1837.870476 257.479399 
L 1838.123496 256.565221 
L 1838.882559 256.565221 
L 1839.135579 257.105125 
L 1839.894641 257.105125 
L 1840.147662 256.02603 
L 1840.906724 256.02603 
L 1841.159745 256.564514 
L 1841.918807 256.564514 
L 1842.171827 257.096216 
L 1842.930889 257.096216 
L 1843.18391 257.632956 
L 1844.955055 257.632956 
L 1845.208076 256.562061 
L 1845.967138 256.562061 
L 1846.220158 257.096224 
L 1847.991303 257.096224 
L 1848.244324 256.589129 
L 1849.003386 256.589129 
L 1849.256406 257.122444 
L 1850.015468 257.122444 
L 1850.268489 257.65492 
L 1851.027551 257.65492 
L 1851.280572 257.123276 
L 1853.051717 257.123276 
L 1853.304737 256.592843 
L 1854.063799 256.592843 
L 1854.31682 257.156174 
L 1855.075882 257.156174 
L 1855.328903 256.098515 
L 1856.087965 256.098515 
L 1856.340985 255.608603 
L 1858.11213 255.609394 
L 1858.365151 254.59896 
L 1859.124213 254.59896 
L 1859.377234 255.12421 
L 1860.136296 255.12421 
L 1860.389316 254.075237 
L 1861.148378 254.075237 
L 1861.401399 253.551905 
L 1862.160461 253.551905 
L 1862.413482 251.984171 
L 1863.172544 251.984171 
L 1863.425564 250.9936 
L 1864.184626 250.9936 
L 1864.437647 250.527073 
L 1865.196709 250.527073 
L 1865.44973 249.603496 
L 1866.208792 249.603496 
L 1866.461813 248.626461 
L 1867.220875 248.626461 
L 1867.473895 247.074254 
L 1868.232957 247.074254 
L 1868.485978 247.590582 
L 1870.257123 247.656588 
L 1870.510143 247.142014 
L 1871.269206 247.142014 
L 1871.522226 246.627441 
L 1872.281288 246.627441 
L 1872.534309 246.112867 
L 1873.293371 246.112867 
L 1873.546392 245.598976 
L 1874.305454 245.598976 
L 1874.558474 245.085766 
L 1875.317536 245.085766 
L 1875.570557 244.061371 
L 1876.329619 244.061371 
L 1876.58264 243.03801 
L 1877.341702 243.03801 
L 1877.594723 242.52651 
L 1880.37795 242.603476 
L 1880.630971 242.093951 
L 1881.390033 242.093951 
L 1881.643053 241.585073 
L 1883.414198 241.585073 
L 1883.667219 240.568676 
L 1884.426281 240.568676 
L 1884.679302 239.554269 
L 1885.438364 239.554269 
L 1885.691384 239.132806 
L 1886.450446 239.132806 
L 1886.703467 238.121554 
L 1887.462529 238.121554 
L 1887.71555 237.112156 
L 1888.474612 237.112156 
L 1888.727632 236.607161 
L 1889.486694 236.607161 
L 1889.739715 236.198001 
L 1891.51086 236.198001 
L 1891.763881 236.699978 
L 1892.522943 236.699978 
L 1892.775963 235.791815 
L 1893.535025 235.791815 
L 1893.788046 235.290428 
L 1894.547108 235.290428 
L 1894.800129 234.386504 
L 1895.559191 234.386504 
L 1895.812211 233.88629 
L 1897.583356 233.88629 
L 1897.836377 232.887604 
L 1898.595439 232.887604 
L 1898.84846 231.991002 
L 1899.607522 231.991002 
L 1899.860542 231.492873 
L 1901.631687 231.493217 
L 1901.884708 231.101375 
L 1903.655853 231.100811 
L 1903.908873 230.712236 
L 1905.680018 230.819629 
L 1905.933039 231.423655 
L 1906.692101 231.423655 
L 1906.945121 230.929906 
L 1907.704183 230.929906 
L 1907.957204 230.436493 
L 1908.716266 230.436493 
L 1908.969287 229.943628 
L 1909.728349 229.943628 
L 1909.98137 229.561581 
L 1910.740432 229.561581 
L 1910.993452 230.053903 
L 1912.764597 230.053903 
L 1913.017618 229.561581 
L 1913.77668 229.561581 
L 1914.0297 228.578552 
L 1914.788762 228.578552 
L 1915.041783 227.106878 
L 1916.812928 227.106878 
L 1917.065949 226.126117 
L 1917.825011 226.126117 
L 1918.078031 225.635736 
L 1918.837093 225.635736 
L 1919.090114 226.124036 
L 1919.849176 226.124036 
L 1920.102197 224.660099 
L 1920.861259 224.660099 
L 1921.114279 223.2 
L 1921.620321 223.2 
L 1921.620321 223.2 
" clip-path="url(#p32c77697ed)" style="fill: none; stroke: #0000ff; stroke-width: 1.5; stroke-linecap: square"/>
   </g>
   <g id="patch_15">
    <path d="M 1451.647059 1281.6 
L 1451.647059 172.8 
" style="fill: none; stroke: #000000; stroke-width: 0.8; stroke-linejoin: miter; stroke-linecap: square"/>
   </g>
   <g id="patch_16">
    <path d="M 1944 1281.6 
L 1944 172.8 
" style="fill: none; stroke: #000000; stroke-width: 0.8; stroke-linejoin: miter; stroke-linecap: square"/>
   </g>
   <g id="patch_17">
    <path d="M 1451.647059 1281.6 
L 1944 1281.6 
" style="fill: none; stroke: #000000; stroke-width: 0.8; stroke-linejoin: miter; stroke-linecap: square"/>
   </g>
   <g id="patch_18">
    <path d="M 1451.647059 172.8 
L 1944 172.8 
" style="fill: none; stroke: #000000; stroke-width: 0.8; stroke-linejoin: miter; stroke-linecap: square"/>
   </g>
   <g id="legend_3">
    <g id="patch_19">
     <path d="M 1852.957813 195.478125 
L 1937 195.478125 
Q 1939 195.478125 1939 193.478125 
L 1939 179.8 
Q 1939 177.8 1937 177.8 
L 1852.957813 177.8 
Q 1850.957813 177.8 1850.957813 179.8 
L 1850.957813 193.478125 
Q 1850.957813 195.478125 1852.957813 195.478125 
z
" style="fill: #ffffff; opacity: 0.8; stroke: #cccccc; stroke-linejoin: miter"/>
    </g>
    <g id="line2d_48">
     <path d="M 1854.957813 185.898437 
L 1864.957813 185.898437 
L 1874.957813 185.898437 
" style="fill: none; stroke: #0000ff; stroke-width: 1.5; stroke-linecap: square"/>
    </g>
    <g id="text_45">
     <!-- O3 reward -->
     <g transform="translate(1882.957813 189.398437) scale(0.1 -0.1)">
      <use xlink:href="#DejaVuSans-4f"/>
      <use xlink:href="#DejaVuSans-33" x="78.710938"/>
      <use xlink:href="#DejaVuSans-20" x="142.333984"/>
      <use xlink:href="#DejaVuSans-72" x="174.121094"/>
      <use xlink:href="#DejaVuSans-65" x="212.984375"/>
      <use xlink:href="#DejaVuSans-77" x="274.507812"/>
      <use xlink:href="#DejaVuSans-61" x="356.294922"/>
      <use xlink:href="#DejaVuSans-72" x="417.574219"/>
      <use xlink:href="#DejaVuSans-64" x="456.9375"/>
     </g>
    </g>
   </g>
  </g>
 </g>
 <defs>
  <clipPath id="pbe1e36fe9c">
   <rect x="270" y="172.8" width="492.352941" height="1108.8"/>
  </clipPath>
  <clipPath id="pacca2cfb0c">
   <rect x="860.823529" y="172.8" width="492.352941" height="1108.8"/>
  </clipPath>
  <clipPath id="p32c77697ed">
   <rect x="1451.647059" y="172.8" width="492.352941" height="1108.8"/>
  </clipPath>
 </defs>
</svg>
