<?xml version="1.0" encoding="utf-8" standalone="no"?>
<!DOCTYPE svg PUBLIC "-//W3C//DTD SVG 1.1//EN"
  "http://www.w3.org/Graphics/SVG/1.1/DTD/svg11.dtd">
<svg xmlns:xlink="http://www.w3.org/1999/xlink" width="2160pt" height="1440pt" viewBox="0 0 2160 1440" xmlns="http://www.w3.org/2000/svg" version="1.1">
 <metadata>
  <rdf:RDF xmlns:dc="http://purl.org/dc/elements/1.1/" xmlns:cc="http://creativecommons.org/ns#" xmlns:rdf="http://www.w3.org/1999/02/22-rdf-syntax-ns#">
   <cc:Work>
    <dc:type rdf:resource="http://purl.org/dc/dcmitype/StillImage"/>
    <dc:date>2023-05-31T19:38:07.879856</dc:date>
    <dc:format>image/svg+xml</dc:format>
    <dc:creator>
     <cc:Agent>
      <dc:title>Matplotlib v3.7.1, https://matplotlib.org/</dc:title>
     </cc:Agent>
    </dc:creator>
   </cc:Work>
  </rdf:RDF>
 </metadata>
 <defs>
  <style type="text/css">*{stroke-linejoin: round; stroke-linecap: butt}</style>
 </defs>
 <g id="figure_1">
  <g id="patch_1">
   <path d="M 0 1440 
L 2160 1440 
L 2160 0 
L 0 0 
z
" style="fill: #ffffff"/>
  </g>
  <g id="axes_1">
   <g id="patch_2">
    <path d="M 270 1281.6 
L 762.352941 1281.6 
L 762.352941 172.8 
L 270 172.8 
z
" style="fill: #ffffff"/>
   </g>
   <g id="matplotlib.axis_1">
    <g id="xtick_1">
     <g id="line2d_1">
      <defs>
       <path id="mdcda7e3348" d="M 0 0 
L 0 3.5 
" style="stroke: #000000; stroke-width: 0.8"/>
      </defs>
      <g>
       <use xlink:href="#mdcda7e3348" x="291.96677" y="1281.6" style="stroke: #000000; stroke-width: 0.8"/>
      </g>
     </g>
     <g id="text_1">
      <!-- 0 -->
      <g transform="translate(288.78552 1296.198437) scale(0.1 -0.1)">
       <defs>
        <path id="DejaVuSans-30" d="M 2034 4250 
Q 1547 4250 1301 3770 
Q 1056 3291 1056 2328 
Q 1056 1369 1301 889 
Q 1547 409 2034 409 
Q 2525 409 2770 889 
Q 3016 1369 3016 2328 
Q 3016 3291 2770 3770 
Q 2525 4250 2034 4250 
z
M 2034 4750 
Q 2819 4750 3233 4129 
Q 3647 3509 3647 2328 
Q 3647 1150 3233 529 
Q 2819 -91 2034 -91 
Q 1250 -91 836 529 
Q 422 1150 422 2328 
Q 422 3509 836 4129 
Q 1250 4750 2034 4750 
z
" transform="scale(0.015625)"/>
       </defs>
       <use xlink:href="#DejaVuSans-30"/>
      </g>
     </g>
    </g>
    <g id="xtick_2">
     <g id="line2d_2">
      <g>
       <use xlink:href="#mdcda7e3348" x="374.548612" y="1281.6" style="stroke: #000000; stroke-width: 0.8"/>
      </g>
     </g>
     <g id="text_2">
      <!-- 200 -->
      <g transform="translate(365.004862 1296.198437) scale(0.1 -0.1)">
       <defs>
        <path id="DejaVuSans-32" d="M 1228 531 
L 3431 531 
L 3431 0 
L 469 0 
L 469 531 
Q 828 903 1448 1529 
Q 2069 2156 2228 2338 
Q 2531 2678 2651 2914 
Q 2772 3150 2772 3378 
Q 2772 3750 2511 3984 
Q 2250 4219 1831 4219 
Q 1534 4219 1204 4116 
Q 875 4013 500 3803 
L 500 4441 
Q 881 4594 1212 4672 
Q 1544 4750 1819 4750 
Q 2544 4750 2975 4387 
Q 3406 4025 3406 3419 
Q 3406 3131 3298 2873 
Q 3191 2616 2906 2266 
Q 2828 2175 2409 1742 
Q 1991 1309 1228 531 
z
" transform="scale(0.015625)"/>
       </defs>
       <use xlink:href="#DejaVuSans-32"/>
       <use xlink:href="#DejaVuSans-30" x="63.623047"/>
       <use xlink:href="#DejaVuSans-30" x="127.246094"/>
      </g>
     </g>
    </g>
    <g id="xtick_3">
     <g id="line2d_3">
      <g>
       <use xlink:href="#mdcda7e3348" x="457.130454" y="1281.6" style="stroke: #000000; stroke-width: 0.8"/>
      </g>
     </g>
     <g id="text_3">
      <!-- 400 -->
      <g transform="translate(447.586704 1296.198437) scale(0.1 -0.1)">
       <defs>
        <path id="DejaVuSans-34" d="M 2419 4116 
L 825 1625 
L 2419 1625 
L 2419 4116 
z
M 2253 4666 
L 3047 4666 
L 3047 1625 
L 3713 1625 
L 3713 1100 
L 3047 1100 
L 3047 0 
L 2419 0 
L 2419 1100 
L 313 1100 
L 313 1709 
L 2253 4666 
z
" transform="scale(0.015625)"/>
       </defs>
       <use xlink:href="#DejaVuSans-34"/>
       <use xlink:href="#DejaVuSans-30" x="63.623047"/>
       <use xlink:href="#DejaVuSans-30" x="127.246094"/>
      </g>
     </g>
    </g>
    <g id="xtick_4">
     <g id="line2d_4">
      <g>
       <use xlink:href="#mdcda7e3348" x="539.712296" y="1281.6" style="stroke: #000000; stroke-width: 0.8"/>
      </g>
     </g>
     <g id="text_4">
      <!-- 600 -->
      <g transform="translate(530.168546 1296.198437) scale(0.1 -0.1)">
       <defs>
        <path id="DejaVuSans-36" d="M 2113 2584 
Q 1688 2584 1439 2293 
Q 1191 2003 1191 1497 
Q 1191 994 1439 701 
Q 1688 409 2113 409 
Q 2538 409 2786 701 
Q 3034 994 3034 1497 
Q 3034 2003 2786 2293 
Q 2538 2584 2113 2584 
z
M 3366 4563 
L 3366 3988 
Q 3128 4100 2886 4159 
Q 2644 4219 2406 4219 
Q 1781 4219 1451 3797 
Q 1122 3375 1075 2522 
Q 1259 2794 1537 2939 
Q 1816 3084 2150 3084 
Q 2853 3084 3261 2657 
Q 3669 2231 3669 1497 
Q 3669 778 3244 343 
Q 2819 -91 2113 -91 
Q 1303 -91 875 529 
Q 447 1150 447 2328 
Q 447 3434 972 4092 
Q 1497 4750 2381 4750 
Q 2619 4750 2861 4703 
Q 3103 4656 3366 4563 
z
" transform="scale(0.015625)"/>
       </defs>
       <use xlink:href="#DejaVuSans-36"/>
       <use xlink:href="#DejaVuSans-30" x="63.623047"/>
       <use xlink:href="#DejaVuSans-30" x="127.246094"/>
      </g>
     </g>
    </g>
    <g id="xtick_5">
     <g id="line2d_5">
      <g>
       <use xlink:href="#mdcda7e3348" x="622.294137" y="1281.6" style="stroke: #000000; stroke-width: 0.8"/>
      </g>
     </g>
     <g id="text_5">
      <!-- 800 -->
      <g transform="translate(612.750387 1296.198437) scale(0.1 -0.1)">
       <defs>
        <path id="DejaVuSans-38" d="M 2034 2216 
Q 1584 2216 1326 1975 
Q 1069 1734 1069 1313 
Q 1069 891 1326 650 
Q 1584 409 2034 409 
Q 2484 409 2743 651 
Q 3003 894 3003 1313 
Q 3003 1734 2745 1975 
Q 2488 2216 2034 2216 
z
M 1403 2484 
Q 997 2584 770 2862 
Q 544 3141 544 3541 
Q 544 4100 942 4425 
Q 1341 4750 2034 4750 
Q 2731 4750 3128 4425 
Q 3525 4100 3525 3541 
Q 3525 3141 3298 2862 
Q 3072 2584 2669 2484 
Q 3125 2378 3379 2068 
Q 3634 1759 3634 1313 
Q 3634 634 3220 271 
Q 2806 -91 2034 -91 
Q 1263 -91 848 271 
Q 434 634 434 1313 
Q 434 1759 690 2068 
Q 947 2378 1403 2484 
z
M 1172 3481 
Q 1172 3119 1398 2916 
Q 1625 2713 2034 2713 
Q 2441 2713 2670 2916 
Q 2900 3119 2900 3481 
Q 2900 3844 2670 4047 
Q 2441 4250 2034 4250 
Q 1625 4250 1398 4047 
Q 1172 3844 1172 3481 
z
" transform="scale(0.015625)"/>
       </defs>
       <use xlink:href="#DejaVuSans-38"/>
       <use xlink:href="#DejaVuSans-30" x="63.623047"/>
       <use xlink:href="#DejaVuSans-30" x="127.246094"/>
      </g>
     </g>
    </g>
    <g id="xtick_6">
     <g id="line2d_6">
      <g>
       <use xlink:href="#mdcda7e3348" x="704.875979" y="1281.6" style="stroke: #000000; stroke-width: 0.8"/>
      </g>
     </g>
     <g id="text_6">
      <!-- 1000 -->
      <g transform="translate(692.150979 1296.198437) scale(0.1 -0.1)">
       <defs>
        <path id="DejaVuSans-31" d="M 794 531 
L 1825 531 
L 1825 4091 
L 703 3866 
L 703 4441 
L 1819 4666 
L 2450 4666 
L 2450 531 
L 3481 531 
L 3481 0 
L 794 0 
L 794 531 
z
" transform="scale(0.015625)"/>
       </defs>
       <use xlink:href="#DejaVuSans-31"/>
       <use xlink:href="#DejaVuSans-30" x="63.623047"/>
       <use xlink:href="#DejaVuSans-30" x="127.246094"/>
       <use xlink:href="#DejaVuSans-30" x="190.869141"/>
      </g>
     </g>
    </g>
   </g>
   <g id="matplotlib.axis_2">
    <g id="ytick_1">
     <g id="line2d_7">
      <defs>
       <path id="mdf2dfee35e" d="M 0 0 
L -3.5 0 
" style="stroke: #000000; stroke-width: 0.8"/>
      </defs>
      <g>
       <use xlink:href="#mdf2dfee35e" x="270" y="1152.63826" style="stroke: #000000; stroke-width: 0.8"/>
      </g>
     </g>
     <g id="text_7">
      <!-- −14 -->
      <g transform="translate(241.895312 1156.437478) scale(0.1 -0.1)">
       <defs>
        <path id="DejaVuSans-2212" d="M 678 2272 
L 4684 2272 
L 4684 1741 
L 678 1741 
L 678 2272 
z
" transform="scale(0.015625)"/>
       </defs>
       <use xlink:href="#DejaVuSans-2212"/>
       <use xlink:href="#DejaVuSans-31" x="83.789062"/>
       <use xlink:href="#DejaVuSans-34" x="147.412109"/>
      </g>
     </g>
    </g>
    <g id="ytick_2">
     <g id="line2d_8">
      <g>
       <use xlink:href="#mdf2dfee35e" x="270" y="1021.731462" style="stroke: #000000; stroke-width: 0.8"/>
      </g>
     </g>
     <g id="text_8">
      <!-- −12 -->
      <g transform="translate(241.895312 1025.530681) scale(0.1 -0.1)">
       <use xlink:href="#DejaVuSans-2212"/>
       <use xlink:href="#DejaVuSans-31" x="83.789062"/>
       <use xlink:href="#DejaVuSans-32" x="147.412109"/>
      </g>
     </g>
    </g>
    <g id="ytick_3">
     <g id="line2d_9">
      <g>
       <use xlink:href="#mdf2dfee35e" x="270" y="890.824665" style="stroke: #000000; stroke-width: 0.8"/>
      </g>
     </g>
     <g id="text_9">
      <!-- −10 -->
      <g transform="translate(241.895312 894.623884) scale(0.1 -0.1)">
       <use xlink:href="#DejaVuSans-2212"/>
       <use xlink:href="#DejaVuSans-31" x="83.789062"/>
       <use xlink:href="#DejaVuSans-30" x="147.412109"/>
      </g>
     </g>
    </g>
    <g id="ytick_4">
     <g id="line2d_10">
      <g>
       <use xlink:href="#mdf2dfee35e" x="270" y="759.917868" style="stroke: #000000; stroke-width: 0.8"/>
      </g>
     </g>
     <g id="text_10">
      <!-- −8 -->
      <g transform="translate(248.257812 763.717087) scale(0.1 -0.1)">
       <use xlink:href="#DejaVuSans-2212"/>
       <use xlink:href="#DejaVuSans-38" x="83.789062"/>
      </g>
     </g>
    </g>
    <g id="ytick_5">
     <g id="line2d_11">
      <g>
       <use xlink:href="#mdf2dfee35e" x="270" y="629.011071" style="stroke: #000000; stroke-width: 0.8"/>
      </g>
     </g>
     <g id="text_11">
      <!-- −6 -->
      <g transform="translate(248.257812 632.81029) scale(0.1 -0.1)">
       <use xlink:href="#DejaVuSans-2212"/>
       <use xlink:href="#DejaVuSans-36" x="83.789062"/>
      </g>
     </g>
    </g>
    <g id="ytick_6">
     <g id="line2d_12">
      <g>
       <use xlink:href="#mdf2dfee35e" x="270" y="498.104274" style="stroke: #000000; stroke-width: 0.8"/>
      </g>
     </g>
     <g id="text_12">
      <!-- −4 -->
      <g transform="translate(248.257812 501.903493) scale(0.1 -0.1)">
       <use xlink:href="#DejaVuSans-2212"/>
       <use xlink:href="#DejaVuSans-34" x="83.789062"/>
      </g>
     </g>
    </g>
    <g id="ytick_7">
     <g id="line2d_13">
      <g>
       <use xlink:href="#mdf2dfee35e" x="270" y="367.197477" style="stroke: #000000; stroke-width: 0.8"/>
      </g>
     </g>
     <g id="text_13">
      <!-- −2 -->
      <g transform="translate(248.257812 370.996696) scale(0.1 -0.1)">
       <use xlink:href="#DejaVuSans-2212"/>
       <use xlink:href="#DejaVuSans-32" x="83.789062"/>
      </g>
     </g>
    </g>
    <g id="ytick_8">
     <g id="line2d_14">
      <g>
       <use xlink:href="#mdf2dfee35e" x="270" y="236.29068" style="stroke: #000000; stroke-width: 0.8"/>
      </g>
     </g>
     <g id="text_14">
      <!-- 0 -->
      <g transform="translate(256.6375 240.089898) scale(0.1 -0.1)">
       <use xlink:href="#DejaVuSans-30"/>
      </g>
     </g>
    </g>
   </g>
   <g id="line2d_15">
    <path d="M 292.379679 236.29068 
L 313.02514 236.29068 
L 313.438049 223.2 
L 314.676776 223.2 
L 315.089686 231.92712 
L 316.328413 231.92712 
L 316.741322 246.763223 
L 317.98005 246.763223 
L 318.392959 248.441516 
L 319.631687 248.441516 
L 320.044596 265.080585 
L 321.283324 265.080585 
L 321.696233 272.312781 
L 322.934961 272.312781 
L 323.34787 280.052905 
L 324.586597 280.052905 
L 324.999507 286.850418 
L 326.238234 286.850418 
L 326.651144 295.667355 
L 327.889871 295.667355 
L 328.30278 302.376626 
L 331.193145 302.376626 
L 331.606054 296.822297 
L 334.496418 296.822297 
L 334.909328 304.719104 
L 336.148055 304.719104 
L 336.560965 298.046502 
L 337.799692 298.046502 
L 338.212601 292.663623 
L 341.102966 292.663623 
L 341.515875 294.015417 
L 342.754603 294.015417 
L 343.167512 287.372259 
L 346.057876 287.372259 
L 346.470786 280.755708 
L 347.709513 280.755708 
L 348.122422 274.164496 
L 349.36115 274.164496 
L 349.774059 280.270868 
L 351.012787 280.270868 
L 351.425696 270.353686 
L 354.316061 270.353686 
L 354.72897 261.162806 
L 355.967697 261.162806 
L 356.380607 266.945319 
L 357.619334 266.945319 
L 358.032243 261.162806 
L 359.270971 261.162806 
L 359.68388 269.996094 
L 362.574245 269.996094 
L 362.987154 276.231057 
L 364.225882 276.231057 
L 364.638791 287.091996 
L 365.877518 287.091996 
L 366.290428 285.45969 
L 367.529155 285.45969 
L 367.942064 289.569735 
L 369.180792 289.569735 
L 369.593701 288.000784 
L 370.832429 288.000784 
L 371.245338 286.466831 
L 372.484066 286.466831 
L 372.896975 289.156982 
L 374.135703 289.156982 
L 374.548612 304.559745 
L 375.787339 304.559745 
L 376.200249 299.069901 
L 377.438976 299.069901 
L 377.851885 303.33034 
L 379.090613 303.33034 
L 379.503522 318.53431 
L 380.74225 318.53431 
L 381.155159 323.727106 
L 382.393887 323.727106 
L 382.806796 328.307377 
L 387.348797 328.307377 
L 387.761706 333.385343 
L 389.000434 333.385343 
L 389.413343 343.043579 
L 390.652071 343.043579 
L 391.06498 337.973692 
L 392.303708 337.973692 
L 392.716617 347.648524 
L 393.955345 347.648524 
L 394.368254 357.234375 
L 395.606981 357.234375 
L 396.019891 361.861887 
L 397.258618 361.861887 
L 397.671528 376.494208 
L 398.910255 376.494208 
L 399.323164 386.326474 
L 400.561892 386.326474 
L 400.974801 401.133252 
L 402.213529 401.133252 
L 402.626438 415.691631 
L 403.865166 415.691631 
L 404.278075 425.471878 
L 405.516802 425.471878 
L 405.929712 430.473666 
L 407.168439 430.473666 
L 407.581349 440.253913 
L 408.820076 440.253913 
L 409.232985 435.542585 
L 410.471713 435.542585 
L 410.884622 426.235368 
L 412.12335 426.235368 
L 412.536259 417.035628 
L 413.774987 417.035628 
L 414.187896 412.435758 
L 415.426624 412.435758 
L 415.839533 422.268151 
L 418.729897 422.312139 
L 419.142806 423.154814 
L 420.381534 423.154814 
L 420.794443 438.470521 
L 423.684808 438.465193 
L 424.097717 429.641624 
L 425.336445 429.641624 
L 425.749354 425.234939 
L 426.988081 425.234939 
L 427.400991 416.436127 
L 428.639718 416.436127 
L 429.052627 426.489742 
L 430.291355 426.489742 
L 430.704264 430.886756 
L 433.594629 430.886756 
L 434.007538 435.283769 
L 435.246266 435.283769 
L 435.659175 430.891253 
L 436.897902 430.891253 
L 437.310812 427.863368 
L 438.549539 427.863368 
L 438.962448 419.172834 
L 440.201176 419.172834 
L 440.614085 420.633238 
L 441.852813 420.633238 
L 442.265722 428.041323 
L 443.50445 428.041323 
L 443.917359 429.671954 
L 445.156087 429.671954 
L 445.568996 425.360787 
L 448.45936 425.360787 
L 448.872269 435.58945 
L 450.110997 435.58945 
L 450.523906 431.338352 
L 451.762634 431.338352 
L 452.175543 427.090642 
L 453.414271 427.090642 
L 453.82718 428.864944 
L 455.065908 428.864944 
L 455.478817 430.675425 
L 456.717544 430.675425 
L 457.130454 436.743436 
L 458.369181 436.743436 
L 458.78209 447.074206 
L 460.020818 447.074206 
L 460.433727 463.527103 
L 461.672455 463.527103 
L 462.085364 473.857871 
L 463.324092 473.857871 
L 463.737001 488.391114 
L 464.975729 488.391114 
L 465.388638 504.85022 
L 466.627365 504.85022 
L 467.040275 519.353123 
L 468.279002 519.353123 
L 468.691912 540.071154 
L 469.930639 540.071154 
L 470.343548 556.653534 
L 471.582276 556.653534 
L 471.995185 560.8338 
L 473.233913 560.8338 
L 473.646822 577.457109 
L 474.88555 577.457109 
L 475.298459 579.506334 
L 476.537186 579.506334 
L 476.950096 591.992535 
L 479.84046 591.992535 
L 480.253369 598.23472 
L 483.143734 598.246258 
L 483.556643 604.495645 
L 484.795371 604.495645 
L 485.20828 600.357473 
L 488.098644 600.355131 
L 488.511554 606.649482 
L 489.750281 606.649482 
L 490.16319 617.071766 
L 491.401918 617.071766 
L 491.814827 608.858733 
L 493.053555 608.858733 
L 493.466464 611.12312 
L 494.705192 611.12312 
L 495.118101 602.960595 
L 496.356829 602.960595 
L 496.769738 590.766063 
L 498.008465 590.766063 
L 498.421375 597.168417 
L 499.660102 597.168417 
L 500.073011 585.007894 
L 501.311739 585.007894 
L 501.724648 595.483811 
L 502.963376 595.483811 
L 503.376285 593.815617 
L 507.918286 593.815617 
L 508.331196 589.792065 
L 509.569923 589.792065 
L 509.982832 581.754223 
L 511.22156 581.754223 
L 511.634469 573.722081 
L 512.873197 573.722081 
L 513.286106 557.685305 
L 514.524834 557.685305 
L 514.937743 541.720568 
L 516.176471 541.720568 
L 516.58938 529.782073 
L 517.828107 529.782073 
L 518.241017 517.87301 
L 519.479744 517.87301 
L 519.892653 513.910242 
L 521.131381 513.910242 
L 521.54429 502.041453 
L 522.783018 502.041453 
L 523.195927 494.138013 
L 526.086292 494.141228 
L 526.499201 490.196599 
L 527.737928 490.196599 
L 528.150838 478.376041 
L 529.389565 478.376041 
L 529.802474 488.976392 
L 531.041202 488.976392 
L 531.454111 477.177112 
L 532.692839 477.177112 
L 533.105748 490.545547 
L 534.344476 490.545547 
L 534.757385 515.6999 
L 535.996113 515.6999 
L 536.409022 511.776937 
L 537.647749 511.776937 
L 538.060659 510.633997 
L 539.299386 510.633997 
L 539.712296 494.973314 
L 540.951023 494.973314 
L 541.363932 501.697084 
L 542.60266 501.697084 
L 543.015569 519.057761 
L 544.254297 519.057761 
L 544.667206 535.379885 
L 545.905934 535.379885 
L 546.318843 546.01686 
L 547.55757 546.01686 
L 547.97048 564.431524 
L 549.209207 564.431524 
L 549.622117 581.836544 
L 550.860844 581.836544 
L 551.273753 592.483121 
L 552.512481 592.483121 
L 552.92539 599.258327 
L 554.164118 599.258327 
L 554.577027 601.194062 
L 555.815755 601.194062 
L 556.228664 618.639293 
L 557.467392 618.639293 
L 557.880301 633.169406 
L 559.119028 633.169406 
L 559.531938 636.101412 
L 560.770665 636.101412 
L 561.183574 642.901082 
L 562.422302 642.901082 
L 562.835211 663.323776 
L 564.073939 663.323776 
L 564.486848 680.810733 
L 565.725576 680.810733 
L 566.138485 711.969091 
L 567.377213 711.969091 
L 567.790122 750.011028 
L 569.028849 750.011028 
L 569.441759 763.701336 
L 570.680486 763.701336 
L 571.093395 791.943216 
L 572.332123 791.943216 
L 572.745032 815.53813 
L 573.98376 815.53813 
L 574.396669 811.697991 
L 575.635397 811.697991 
L 576.048306 804.024404 
L 577.287034 804.024404 
L 577.699943 796.35416 
L 580.590307 796.353137 
L 581.003216 792.52106 
L 582.241944 792.52106 
L 582.654853 788.68797 
L 583.893581 788.68797 
L 584.30649 781.028139 
L 585.545218 781.028139 
L 585.958127 776.426289 
L 587.196855 776.426289 
L 587.609764 775.656669 
L 588.848491 775.656669 
L 589.261401 792.496208 
L 590.500128 792.496208 
L 590.913037 788.67336 
L 592.151765 788.67336 
L 592.564674 795.5663 
L 593.803402 795.5663 
L 594.216311 809.358212 
L 595.455039 809.358212 
L 595.867948 808.614692 
L 597.106676 808.614692 
L 597.519585 815.516646 
L 598.758312 815.516646 
L 599.171222 824.785525 
L 600.409949 824.785525 
L 600.822858 827.881616 
L 602.061586 827.881616 
L 602.474495 834.079774 
L 603.713223 834.079774 
L 604.126132 837.888785 
L 605.36486 837.888785 
L 605.777769 833.380245 
L 607.016497 833.380245 
L 607.429406 832.685341 
L 608.668133 832.685341 
L 609.081043 843.413626 
L 610.31977 843.413626 
L 610.73268 831.99511 
L 611.971407 831.99511 
L 612.384316 835.114088 
L 613.623044 835.114088 
L 614.035953 852.092712 
L 615.274681 852.092712 
L 615.68759 848.289893 
L 616.926318 848.289893 
L 617.339227 858.349802 
L 618.577954 858.349802 
L 618.990864 868.42043 
L 620.229591 868.42043 
L 620.642501 878.495195 
L 621.881228 878.495195 
L 622.294137 910.711913 
L 623.532865 910.711913 
L 623.945774 914.509456 
L 625.184502 914.509456 
L 625.597411 929.048992 
L 626.836139 929.048992 
L 627.249048 928.41162 
L 628.487776 928.41162 
L 628.900685 932.205708 
L 631.791049 932.205708 
L 632.203958 939.792448 
L 633.442686 939.792448 
L 633.855595 939.164532 
L 635.094323 939.164532 
L 635.507232 934.749324 
L 636.74596 934.749324 
L 637.158869 934.131464 
L 638.397597 934.131464 
L 638.810506 937.309829 
L 640.049233 937.309829 
L 640.462143 943.668409 
L 641.70087 943.668409 
L 642.113779 939.882897 
L 643.352507 939.882897 
L 643.765416 939.282047 
L 645.004144 939.282047 
L 645.417053 953.223713 
L 646.655781 953.223713 
L 647.06869 959.604847 
L 648.307418 959.604847 
L 648.720327 962.797726 
L 649.959054 962.797726 
L 650.371964 955.23933 
L 651.610691 955.23933 
L 652.0236 961.644268 
L 653.262328 961.644268 
L 653.675237 954.092152 
L 654.913965 954.092152 
L 655.326874 952.964704 
L 656.565602 952.964704 
L 656.978511 973.92908 
L 659.868875 973.92908 
L 660.281785 980.922567 
L 661.520512 980.922567 
L 661.933421 984.147211 
L 664.823786 984.149049 
L 665.236695 983.613201 
L 666.475423 983.613201 
L 666.888332 1001.382595 
L 668.12706 1001.382595 
L 668.539969 993.849218 
L 669.778696 993.849218 
L 670.191606 990.08253 
L 671.430333 990.08253 
L 671.843242 993.321528 
L 673.08197 993.321528 
L 673.494879 985.790226 
L 676.385244 985.790226 
L 676.798153 982.024807 
L 678.036881 982.024807 
L 678.44979 978.259846 
L 679.688517 978.259846 
L 680.101427 966.967429 
L 681.340154 966.967429 
L 681.753064 959.440928 
L 682.991791 959.440928 
L 683.4047 948.152096 
L 684.643428 948.152096 
L 685.056337 940.627239 
L 686.295065 940.627239 
L 686.707974 933.103998 
L 687.946702 933.103998 
L 688.359611 921.822059 
L 689.598338 921.822059 
L 690.011248 961.177318 
L 691.249975 961.177318 
L 691.662885 982.736514 
L 692.901612 982.736514 
L 693.314521 1008.055735 
L 694.553249 1008.055735 
L 694.966158 1018.83663 
L 696.204886 1018.83663 
L 696.617795 1029.617525 
L 697.856523 1029.617525 
L 698.269432 1058.201858 
L 699.50816 1058.201858 
L 699.921069 1079.764636 
L 701.159796 1079.764636 
L 701.572706 1105.083308 
L 702.811433 1105.083308 
L 703.224342 1137.424685 
L 704.46307 1137.424685 
L 704.875979 1148.205309 
L 706.114707 1148.205309 
L 706.527616 1144.450524 
L 707.766344 1144.450524 
L 708.179253 1136.942146 
L 709.417981 1136.942146 
L 709.83089 1140.695863 
L 711.069617 1140.695863 
L 711.482527 1136.942536 
L 712.721254 1136.942536 
L 713.134163 1133.189597 
L 714.372891 1133.189597 
L 714.7858 1129.436658 
L 716.024528 1129.436658 
L 716.437437 1136.465393 
L 717.676165 1136.465393 
L 718.089074 1132.712454 
L 720.979438 1132.712835 
L 721.392348 1132.239815 
L 722.631075 1132.239815 
L 723.043984 1146.77406 
L 724.282712 1146.77406 
L 724.695621 1150.055173 
L 725.934349 1150.055173 
L 726.347258 1171.155454 
L 727.585986 1171.155454 
L 727.998895 1174.90599 
L 729.237623 1174.90599 
L 729.650532 1178.190262 
L 730.889259 1178.190262 
L 731.302169 1203.048057 
L 732.540896 1203.048057 
L 732.953805 1220.872728 
L 734.192533 1220.872728 
L 734.605442 1220.411559 
L 735.84417 1220.411559 
L 736.257079 1227.450602 
L 737.495807 1227.450602 
L 737.908716 1231.2 
L 739.147444 1231.2 
L 739.560353 1223.701551 
L 739.973262 1223.701551 
L 739.973262 1223.701551 
" clip-path="url(#pd1de0412fe)" style="fill: none; stroke: #0000ff; stroke-width: 1.5; stroke-linecap: square"/>
   </g>
   <g id="patch_3">
    <path d="M 270 1281.6 
L 270 172.8 
" style="fill: none; stroke: #000000; stroke-width: 0.8; stroke-linejoin: miter; stroke-linecap: square"/>
   </g>
   <g id="patch_4">
    <path d="M 762.352941 1281.6 
L 762.352941 172.8 
" style="fill: none; stroke: #000000; stroke-width: 0.8; stroke-linejoin: miter; stroke-linecap: square"/>
   </g>
   <g id="patch_5">
    <path d="M 270 1281.6 
L 762.352941 1281.6 
" style="fill: none; stroke: #000000; stroke-width: 0.8; stroke-linejoin: miter; stroke-linecap: square"/>
   </g>
   <g id="patch_6">
    <path d="M 270 172.8 
L 762.352941 172.8 
" style="fill: none; stroke: #000000; stroke-width: 0.8; stroke-linejoin: miter; stroke-linecap: square"/>
   </g>
   <g id="legend_1">
    <g id="patch_7">
     <path d="M 671.310754 195.478125 
L 755.352941 195.478125 
Q 757.352941 195.478125 757.352941 193.478125 
L 757.352941 179.8 
Q 757.352941 177.8 755.352941 177.8 
L 671.310754 177.8 
Q 669.310754 177.8 669.310754 179.8 
L 669.310754 193.478125 
Q 669.310754 195.478125 671.310754 195.478125 
z
" style="fill: #ffffff; opacity: 0.8; stroke: #cccccc; stroke-linejoin: miter"/>
    </g>
    <g id="line2d_16">
     <path d="M 673.310754 185.898437 
L 683.310754 185.898437 
L 693.310754 185.898437 
" style="fill: none; stroke: #0000ff; stroke-width: 1.5; stroke-linecap: square"/>
    </g>
    <g id="text_15">
     <!-- O1 reward -->
     <g transform="translate(701.310754 189.398437) scale(0.1 -0.1)">
      <defs>
       <path id="DejaVuSans-4f" d="M 2522 4238 
Q 1834 4238 1429 3725 
Q 1025 3213 1025 2328 
Q 1025 1447 1429 934 
Q 1834 422 2522 422 
Q 3209 422 3611 934 
Q 4013 1447 4013 2328 
Q 4013 3213 3611 3725 
Q 3209 4238 2522 4238 
z
M 2522 4750 
Q 3503 4750 4090 4092 
Q 4678 3434 4678 2328 
Q 4678 1225 4090 567 
Q 3503 -91 2522 -91 
Q 1538 -91 948 565 
Q 359 1222 359 2328 
Q 359 3434 948 4092 
Q 1538 4750 2522 4750 
z
" transform="scale(0.015625)"/>
       <path id="DejaVuSans-20" transform="scale(0.015625)"/>
       <path id="DejaVuSans-72" d="M 2631 2963 
Q 2534 3019 2420 3045 
Q 2306 3072 2169 3072 
Q 1681 3072 1420 2755 
Q 1159 2438 1159 1844 
L 1159 0 
L 581 0 
L 581 3500 
L 1159 3500 
L 1159 2956 
Q 1341 3275 1631 3429 
Q 1922 3584 2338 3584 
Q 2397 3584 2469 3576 
Q 2541 3569 2628 3553 
L 2631 2963 
z
" transform="scale(0.015625)"/>
       <path id="DejaVuSans-65" d="M 3597 1894 
L 3597 1613 
L 953 1613 
Q 991 1019 1311 708 
Q 1631 397 2203 397 
Q 2534 397 2845 478 
Q 3156 559 3463 722 
L 3463 178 
Q 3153 47 2828 -22 
Q 2503 -91 2169 -91 
Q 1331 -91 842 396 
Q 353 884 353 1716 
Q 353 2575 817 3079 
Q 1281 3584 2069 3584 
Q 2775 3584 3186 3129 
Q 3597 2675 3597 1894 
z
M 3022 2063 
Q 3016 2534 2758 2815 
Q 2500 3097 2075 3097 
Q 1594 3097 1305 2825 
Q 1016 2553 972 2059 
L 3022 2063 
z
" transform="scale(0.015625)"/>
       <path id="DejaVuSans-77" d="M 269 3500 
L 844 3500 
L 1563 769 
L 2278 3500 
L 2956 3500 
L 3675 769 
L 4391 3500 
L 4966 3500 
L 4050 0 
L 3372 0 
L 2619 2869 
L 1863 0 
L 1184 0 
L 269 3500 
z
" transform="scale(0.015625)"/>
       <path id="DejaVuSans-61" d="M 2194 1759 
Q 1497 1759 1228 1600 
Q 959 1441 959 1056 
Q 959 750 1161 570 
Q 1363 391 1709 391 
Q 2188 391 2477 730 
Q 2766 1069 2766 1631 
L 2766 1759 
L 2194 1759 
z
M 3341 1997 
L 3341 0 
L 2766 0 
L 2766 531 
Q 2569 213 2275 61 
Q 1981 -91 1556 -91 
Q 1019 -91 701 211 
Q 384 513 384 1019 
Q 384 1609 779 1909 
Q 1175 2209 1959 2209 
L 2766 2209 
L 2766 2266 
Q 2766 2663 2505 2880 
Q 2244 3097 1772 3097 
Q 1472 3097 1187 3025 
Q 903 2953 641 2809 
L 641 3341 
Q 956 3463 1253 3523 
Q 1550 3584 1831 3584 
Q 2591 3584 2966 3190 
Q 3341 2797 3341 1997 
z
" transform="scale(0.015625)"/>
       <path id="DejaVuSans-64" d="M 2906 2969 
L 2906 4863 
L 3481 4863 
L 3481 0 
L 2906 0 
L 2906 525 
Q 2725 213 2448 61 
Q 2172 -91 1784 -91 
Q 1150 -91 751 415 
Q 353 922 353 1747 
Q 353 2572 751 3078 
Q 1150 3584 1784 3584 
Q 2172 3584 2448 3432 
Q 2725 3281 2906 2969 
z
M 947 1747 
Q 947 1113 1208 752 
Q 1469 391 1925 391 
Q 2381 391 2643 752 
Q 2906 1113 2906 1747 
Q 2906 2381 2643 2742 
Q 2381 3103 1925 3103 
Q 1469 3103 1208 2742 
Q 947 2381 947 1747 
z
" transform="scale(0.015625)"/>
      </defs>
      <use xlink:href="#DejaVuSans-4f"/>
      <use xlink:href="#DejaVuSans-31" x="78.710938"/>
      <use xlink:href="#DejaVuSans-20" x="142.333984"/>
      <use xlink:href="#DejaVuSans-72" x="174.121094"/>
      <use xlink:href="#DejaVuSans-65" x="212.984375"/>
      <use xlink:href="#DejaVuSans-77" x="274.507812"/>
      <use xlink:href="#DejaVuSans-61" x="356.294922"/>
      <use xlink:href="#DejaVuSans-72" x="417.574219"/>
      <use xlink:href="#DejaVuSans-64" x="456.9375"/>
     </g>
    </g>
   </g>
  </g>
  <g id="axes_2">
   <g id="patch_8">
    <path d="M 860.823529 1281.6 
L 1353.176471 1281.6 
L 1353.176471 172.8 
L 860.823529 172.8 
z
" style="fill: #ffffff"/>
   </g>
   <g id="matplotlib.axis_3">
    <g id="xtick_7">
     <g id="line2d_17">
      <g>
       <use xlink:href="#mdcda7e3348" x="882.790299" y="1281.6" style="stroke: #000000; stroke-width: 0.8"/>
      </g>
     </g>
     <g id="text_16">
      <!-- 0 -->
      <g transform="translate(879.609049 1296.198437) scale(0.1 -0.1)">
       <use xlink:href="#DejaVuSans-30"/>
      </g>
     </g>
    </g>
    <g id="xtick_8">
     <g id="line2d_18">
      <g>
       <use xlink:href="#mdcda7e3348" x="965.372141" y="1281.6" style="stroke: #000000; stroke-width: 0.8"/>
      </g>
     </g>
     <g id="text_17">
      <!-- 200 -->
      <g transform="translate(955.828391 1296.198437) scale(0.1 -0.1)">
       <use xlink:href="#DejaVuSans-32"/>
       <use xlink:href="#DejaVuSans-30" x="63.623047"/>
       <use xlink:href="#DejaVuSans-30" x="127.246094"/>
      </g>
     </g>
    </g>
    <g id="xtick_9">
     <g id="line2d_19">
      <g>
       <use xlink:href="#mdcda7e3348" x="1047.953983" y="1281.6" style="stroke: #000000; stroke-width: 0.8"/>
      </g>
     </g>
     <g id="text_18">
      <!-- 400 -->
      <g transform="translate(1038.410233 1296.198437) scale(0.1 -0.1)">
       <use xlink:href="#DejaVuSans-34"/>
       <use xlink:href="#DejaVuSans-30" x="63.623047"/>
       <use xlink:href="#DejaVuSans-30" x="127.246094"/>
      </g>
     </g>
    </g>
    <g id="xtick_10">
     <g id="line2d_20">
      <g>
       <use xlink:href="#mdcda7e3348" x="1130.535825" y="1281.6" style="stroke: #000000; stroke-width: 0.8"/>
      </g>
     </g>
     <g id="text_19">
      <!-- 600 -->
      <g transform="translate(1120.992075 1296.198437) scale(0.1 -0.1)">
       <use xlink:href="#DejaVuSans-36"/>
       <use xlink:href="#DejaVuSans-30" x="63.623047"/>
       <use xlink:href="#DejaVuSans-30" x="127.246094"/>
      </g>
     </g>
    </g>
    <g id="xtick_11">
     <g id="line2d_21">
      <g>
       <use xlink:href="#mdcda7e3348" x="1213.117667" y="1281.6" style="stroke: #000000; stroke-width: 0.8"/>
      </g>
     </g>
     <g id="text_20">
      <!-- 800 -->
      <g transform="translate(1203.573917 1296.198437) scale(0.1 -0.1)">
       <use xlink:href="#DejaVuSans-38"/>
       <use xlink:href="#DejaVuSans-30" x="63.623047"/>
       <use xlink:href="#DejaVuSans-30" x="127.246094"/>
      </g>
     </g>
    </g>
    <g id="xtick_12">
     <g id="line2d_22">
      <g>
       <use xlink:href="#mdcda7e3348" x="1295.699509" y="1281.6" style="stroke: #000000; stroke-width: 0.8"/>
      </g>
     </g>
     <g id="text_21">
      <!-- 1000 -->
      <g transform="translate(1282.974509 1296.198437) scale(0.1 -0.1)">
       <use xlink:href="#DejaVuSans-31"/>
       <use xlink:href="#DejaVuSans-30" x="63.623047"/>
       <use xlink:href="#DejaVuSans-30" x="127.246094"/>
       <use xlink:href="#DejaVuSans-30" x="190.869141"/>
      </g>
     </g>
    </g>
   </g>
   <g id="matplotlib.axis_4">
    <g id="ytick_9">
     <g id="line2d_23">
      <g>
       <use xlink:href="#mdf2dfee35e" x="860.823529" y="1231.2" style="stroke: #000000; stroke-width: 0.8"/>
      </g>
     </g>
     <g id="text_22">
      <!-- 0 -->
      <g transform="translate(847.461029 1234.999219) scale(0.1 -0.1)">
       <use xlink:href="#DejaVuSans-30"/>
      </g>
     </g>
    </g>
    <g id="ytick_10">
     <g id="line2d_24">
      <g>
       <use xlink:href="#mdf2dfee35e" x="860.823529" y="1016.73459" style="stroke: #000000; stroke-width: 0.8"/>
      </g>
     </g>
     <g id="text_23">
      <!-- 20 -->
      <g transform="translate(841.098529 1020.533809) scale(0.1 -0.1)">
       <use xlink:href="#DejaVuSans-32"/>
       <use xlink:href="#DejaVuSans-30" x="63.623047"/>
      </g>
     </g>
    </g>
    <g id="ytick_11">
     <g id="line2d_25">
      <g>
       <use xlink:href="#mdf2dfee35e" x="860.823529" y="802.26918" style="stroke: #000000; stroke-width: 0.8"/>
      </g>
     </g>
     <g id="text_24">
      <!-- 40 -->
      <g transform="translate(841.098529 806.068399) scale(0.1 -0.1)">
       <use xlink:href="#DejaVuSans-34"/>
       <use xlink:href="#DejaVuSans-30" x="63.623047"/>
      </g>
     </g>
    </g>
    <g id="ytick_12">
     <g id="line2d_26">
      <g>
       <use xlink:href="#mdf2dfee35e" x="860.823529" y="587.803771" style="stroke: #000000; stroke-width: 0.8"/>
      </g>
     </g>
     <g id="text_25">
      <!-- 60 -->
      <g transform="translate(841.098529 591.602989) scale(0.1 -0.1)">
       <use xlink:href="#DejaVuSans-36"/>
       <use xlink:href="#DejaVuSans-30" x="63.623047"/>
      </g>
     </g>
    </g>
    <g id="ytick_13">
     <g id="line2d_27">
      <g>
       <use xlink:href="#mdf2dfee35e" x="860.823529" y="373.338361" style="stroke: #000000; stroke-width: 0.8"/>
      </g>
     </g>
     <g id="text_26">
      <!-- 80 -->
      <g transform="translate(841.098529 377.13758) scale(0.1 -0.1)">
       <use xlink:href="#DejaVuSans-38"/>
       <use xlink:href="#DejaVuSans-30" x="63.623047"/>
      </g>
     </g>
    </g>
   </g>
   <g id="line2d_28">
    <path d="M 883.203209 1231.2 
L 902.197032 1231.120721 
L 902.609941 1226.800535 
L 903.848669 1226.800535 
L 904.261578 1228.493725 
L 905.500306 1228.493725 
L 905.913215 1227.486785 
L 907.151943 1227.486785 
L 907.564852 1229.471838 
L 908.80358 1229.471838 
L 909.216489 1220.553428 
L 910.455216 1220.553428 
L 910.868126 1207.034432 
L 912.106853 1207.034432 
L 912.519762 1200.309017 
L 913.75849 1200.309017 
L 914.171399 1182.593673 
L 915.410127 1182.593673 
L 915.823036 1166.266861 
L 923.668311 1166.266861 
L 924.08122 1159.180765 
L 928.623222 1159.180765 
L 929.036131 1151.623317 
L 933.578132 1151.623317 
L 933.991041 1141.326424 
L 935.229769 1141.326424 
L 935.642678 1138.43514 
L 936.881406 1138.43514 
L 937.294315 1135.253624 
L 940.184679 1135.253624 
L 940.597589 1115.724554 
L 941.836316 1115.724554 
L 942.249225 1085.013457 
L 943.487953 1085.013457 
L 943.900862 1076.832312 
L 945.13959 1076.832312 
L 945.552499 1061.078184 
L 946.791227 1061.078184 
L 947.204136 1022.941546 
L 948.442864 1022.941546 
L 948.855773 996.398385 
L 966.610869 996.398385 
L 967.023778 988.571904 
L 971.565779 988.571904 
L 971.978689 980.860442 
L 973.217416 980.860442 
L 973.630325 973.068353 
L 974.869053 973.068353 
L 975.281962 965.197705 
L 978.172327 965.197705 
L 978.585236 962.419738 
L 984.778874 962.419738 
L 985.191783 959.567115 
L 986.430511 959.567115 
L 986.84342 940.630769 
L 988.082148 940.630769 
L 988.495057 926.169409 
L 989.733785 926.169409 
L 990.146694 894.120094 
L 991.385421 894.120094 
L 991.798331 865.925516 
L 993.037058 865.925516 
L 993.449967 843.702766 
L 994.688695 843.702766 
L 995.101604 816.37519 
L 996.340332 816.37519 
L 996.753241 783.184532 
L 997.991969 783.184532 
L 998.404878 768.340785 
L 999.643606 768.340785 
L 1000.056515 747.783103 
L 1004.598516 747.783103 
L 1005.011425 743.142016 
L 1006.250153 743.142016 
L 1006.663062 733.545255 
L 1007.90179 733.545255 
L 1008.314699 740.168131 
L 1009.553427 740.168131 
L 1009.966336 743.318203 
L 1011.205063 743.318203 
L 1011.617973 749.861912 
L 1012.8567 749.861912 
L 1013.269609 753.239619 
L 1014.508337 753.239619 
L 1014.921246 756.308889 
L 1016.159974 756.308889 
L 1016.572883 746.853185 
L 1019.463248 746.853185 
L 1019.876157 740.423102 
L 1021.114884 740.423102 
L 1021.527794 737.460702 
L 1022.766521 737.460702 
L 1023.179431 728.171129 
L 1024.418158 728.171129 
L 1024.831067 709.846506 
L 1026.069795 709.846506 
L 1026.482704 701.072788 
L 1027.721432 701.072788 
L 1028.134341 693.445202 
L 1029.373069 693.445202 
L 1029.785978 688.507177 
L 1031.024705 688.507177 
L 1031.437615 680.39652 
L 1032.676342 680.39652 
L 1033.089252 688.427076 
L 1034.327979 688.427076 
L 1034.740888 706.417411 
L 1035.979616 706.417411 
L 1036.392525 700.778461 
L 1037.631253 700.778461 
L 1038.044162 685.307212 
L 1039.28289 685.307212 
L 1039.695799 672.18035 
L 1040.934527 672.18035 
L 1041.347436 674.075962 
L 1042.586163 674.075962 
L 1042.999073 661.60913 
L 1044.2378 661.60913 
L 1044.650709 650.896028 
L 1045.889437 650.896028 
L 1046.302346 649.159566 
L 1049.192711 649.096074 
L 1049.60562 650.781832 
L 1050.844348 650.781832 
L 1051.257257 647.483125 
L 1052.495984 647.483125 
L 1052.908894 637.1859 
L 1054.147621 637.1859 
L 1054.56053 638.732181 
L 1055.799258 638.732181 
L 1056.212167 635.228921 
L 1057.450895 635.228921 
L 1057.863804 625.195773 
L 1059.102532 625.195773 
L 1059.515441 618.750849 
L 1060.754169 618.750849 
L 1061.167078 612.35782 
L 1062.405805 612.35782 
L 1062.818715 608.876768 
L 1064.057442 608.876768 
L 1064.470351 606.810027 
L 1067.360716 606.810027 
L 1067.773625 619.309871 
L 1069.012353 619.309871 
L 1069.425262 625.466619 
L 1070.66399 625.466619 
L 1071.076899 623.276195 
L 1072.315626 623.276195 
L 1072.728536 627.976586 
L 1073.967263 627.976586 
L 1074.380172 629.141049 
L 1075.6189 629.141049 
L 1076.031809 641.883726 
L 1077.270537 641.883726 
L 1077.683446 644.316639 
L 1078.922174 644.316639 
L 1079.335083 654.498238 
L 1080.573811 654.498238 
L 1080.98672 654.001613 
L 1082.225447 654.001613 
L 1082.638357 644.083021 
L 1083.877084 644.083021 
L 1084.289993 637.735202 
L 1085.528721 637.735202 
L 1085.94163 636.796735 
L 1087.180358 636.796735 
L 1087.593267 631.474542 
L 1088.831995 631.474542 
L 1089.244904 622.698075 
L 1090.483632 622.698075 
L 1090.896541 626.213424 
L 1092.135268 626.213424 
L 1092.548178 629.722932 
L 1093.786905 629.722932 
L 1094.199815 628.887176 
L 1095.438542 628.887176 
L 1095.851451 625.365927 
L 1097.090179 625.365927 
L 1097.503088 615.919142 
L 1098.741816 615.919142 
L 1099.154725 610.057619 
L 1102.045089 610.057619 
L 1102.457999 605.039278 
L 1103.696726 605.039278 
L 1104.109636 610.720883 
L 1105.348363 610.720883 
L 1105.761272 620.482845 
L 1107 620.482845 
L 1107.412909 623.371163 
L 1108.651637 623.371163 
L 1109.064546 622.786726 
L 1110.303274 622.786726 
L 1110.716183 621.651137 
L 1111.954911 621.651137 
L 1112.36782 624.112526 
L 1113.606547 624.112526 
L 1114.019457 615.10128 
L 1115.258184 615.10128 
L 1115.671093 592.977806 
L 1116.909821 592.977806 
L 1117.32273 579.936456 
L 1118.561458 579.936456 
L 1118.974367 562.785833 
L 1120.213095 562.785833 
L 1120.626004 545.52413 
L 1121.864732 545.52413 
L 1122.277641 529.174137 
L 1123.516368 529.174137 
L 1123.929278 520.635651 
L 1125.168005 520.635651 
L 1125.580914 508.68178 
L 1126.819642 508.68178 
L 1127.232551 492.572714 
L 1128.471279 492.572714 
L 1128.884188 484.616347 
L 1130.122916 484.616347 
L 1130.535825 472.808946 
L 1131.774553 472.808946 
L 1132.187462 476.899049 
L 1133.426189 476.899049 
L 1133.839099 469.854768 
L 1135.077826 469.854768 
L 1135.490735 481.236392 
L 1136.729463 481.236392 
L 1137.142372 481.557297 
L 1138.3811 481.557297 
L 1138.794009 481.822953 
L 1140.032737 481.822953 
L 1140.445646 478.42476 
L 1141.684374 478.42476 
L 1142.097283 478.542702 
L 1143.33601 478.542702 
L 1143.74892 478.758049 
L 1144.987647 478.758049 
L 1145.400556 489.8282 
L 1146.639284 489.8282 
L 1147.052193 497.028028 
L 1148.290921 497.028028 
L 1148.70383 500.550241 
L 1149.942558 500.550241 
L 1150.355467 497.022237 
L 1151.594195 497.022237 
L 1152.007104 493.352007 
L 1153.245831 493.352007 
L 1153.658741 486.168584 
L 1154.897468 486.168584 
L 1155.310377 479.067199 
L 1158.200742 479.052949 
L 1158.613651 482.626755 
L 1159.852379 482.626755 
L 1160.265288 479.173193 
L 1161.504016 479.173193 
L 1161.916925 475.74005 
L 1163.155652 475.74005 
L 1163.568562 475.864708 
L 1164.807289 475.864708 
L 1165.220199 489.838029 
L 1166.458926 489.838029 
L 1166.871835 493.428983 
L 1168.110563 493.428983 
L 1168.523472 483.797187 
L 1169.7622 483.797187 
L 1170.175109 487.442682 
L 1171.413837 487.442682 
L 1171.826746 491.374043 
L 1173.065473 491.374043 
L 1173.478383 488.003429 
L 1174.71711 488.003429 
L 1175.13002 488.316167 
L 1176.368747 488.316167 
L 1176.781656 492.727101 
L 1178.020384 492.727101 
L 1178.433293 493.930889 
L 1181.323658 493.933186 
L 1181.736567 484.041991 
L 1182.975295 484.041991 
L 1183.388204 477.473113 
L 1184.626931 477.473113 
L 1185.039841 474.191942 
L 1186.278568 474.191942 
L 1186.691477 467.6407 
L 1187.930205 467.6407 
L 1188.343114 464.370611 
L 1189.581842 464.370611 
L 1189.994751 461.102645 
L 1191.233479 461.102645 
L 1191.646388 454.572955 
L 1192.885116 454.572955 
L 1193.298025 448.051379 
L 1194.536752 448.051379 
L 1194.949662 441.537692 
L 1196.188389 441.537692 
L 1196.601298 438.283765 
L 1197.840026 438.283765 
L 1198.252935 428.551298 
L 1199.491663 428.551298 
L 1199.904572 422.083963 
L 1201.1433 422.083963 
L 1201.556209 418.853074 
L 1204.446573 418.853074 
L 1204.859483 415.624015 
L 1206.09821 415.624015 
L 1206.511119 405.958215 
L 1207.749847 405.958215 
L 1208.162756 396.32764 
L 1209.401484 396.32764 
L 1209.814393 386.736057 
L 1211.053121 386.736057 
L 1211.46603 380.361531 
L 1212.704758 380.361531 
L 1213.117667 370.831283 
L 1214.356394 370.831283 
L 1214.769304 381.833266 
L 1216.008031 381.833266 
L 1216.42094 390.460609 
L 1217.659668 390.460609 
L 1218.072577 392.875145 
L 1219.311305 392.875145 
L 1219.724214 395.365733 
L 1220.962942 395.365733 
L 1221.375851 403.272952 
L 1224.266215 403.291433 
L 1224.679125 400.834879 
L 1225.917852 400.834879 
L 1226.330761 404.8198 
L 1227.569489 404.8198 
L 1227.982398 401.640662 
L 1229.221126 401.640662 
L 1229.634035 403.651742 
L 1230.872763 403.651742 
L 1231.285672 391.593328 
L 1232.5244 391.593328 
L 1232.937309 379.581885 
L 1234.176036 379.581885 
L 1234.588946 367.613605 
L 1235.827673 367.613605 
L 1236.240583 358.678251 
L 1237.47931 358.678251 
L 1237.892219 349.777252 
L 1239.130947 349.777252 
L 1239.543856 343.857582 
L 1240.782584 343.857582 
L 1241.195493 335.001612 
L 1242.434221 335.001612 
L 1242.84713 332.056074 
L 1244.085857 332.056074 
L 1244.498767 326.175897 
L 1245.737494 326.175897 
L 1246.150404 320.310176 
L 1247.389131 320.310176 
L 1247.80204 321.50846 
L 1249.040768 321.50846 
L 1249.453677 331.493273 
L 1252.344042 331.489906 
L 1252.756951 329.811159 
L 1255.647315 329.811159 
L 1256.060225 325.228472 
L 1260.602226 325.228472 
L 1261.015135 328.137115 
L 1265.557136 328.137115 
L 1265.970046 325.231734 
L 1268.86041 325.231734 
L 1269.273319 326.498011 
L 1270.512047 326.498011 
L 1270.924956 330.673999 
L 1272.163684 330.673999 
L 1272.576593 329.085464 
L 1273.815321 329.085464 
L 1274.22823 336.161704 
L 1275.466957 336.161704 
L 1275.879867 343.01036 
L 1277.118594 343.01036 
L 1277.531503 347.220909 
L 1278.770231 347.220909 
L 1279.18314 351.431496 
L 1280.421868 351.431496 
L 1280.834777 348.56796 
L 1282.073505 348.56796 
L 1282.486414 342.846451 
L 1283.725142 342.846451 
L 1284.138051 337.13701 
L 1285.376778 337.13701 
L 1285.789688 328.588406 
L 1287.028415 328.588406 
L 1287.441324 325.743708 
L 1288.680052 325.743708 
L 1289.092961 322.901971 
L 1290.331689 322.901971 
L 1290.744598 320.063088 
L 1291.983326 320.063088 
L 1292.396235 317.227024 
L 1295.286599 317.227024 
L 1295.699509 311.561726 
L 1296.938236 311.561726 
L 1297.351145 308.732476 
L 1298.589873 308.732476 
L 1299.002782 311.560486 
L 1300.24151 311.560486 
L 1300.654419 313.004233 
L 1301.893147 313.004233 
L 1302.306056 311.632225 
L 1303.544784 311.632225 
L 1303.957693 308.813795 
L 1305.19642 308.813795 
L 1305.60933 311.631013 
L 1306.848057 311.631013 
L 1307.260967 308.816487 
L 1308.499694 308.816487 
L 1308.912603 306.004807 
L 1310.151331 306.004807 
L 1310.56424 297.585932 
L 1311.802968 297.585932 
L 1312.215877 299.0803 
L 1313.454605 299.0803 
L 1313.867514 290.695491 
L 1315.106241 290.695491 
L 1315.519151 279.547574 
L 1316.757878 279.547574 
L 1317.170788 276.766944 
L 1318.409515 276.766944 
L 1318.822424 271.213502 
L 1320.061152 271.213502 
L 1320.474061 262.895207 
L 1321.712789 262.895207 
L 1322.125698 257.361289 
L 1323.364426 257.361289 
L 1323.777335 251.834425 
L 1325.016063 251.834425 
L 1325.428972 240.808885 
L 1326.667699 240.808885 
L 1327.080609 232.562814 
L 1328.319336 232.562814 
L 1328.732245 227.073195 
L 1329.970973 227.073195 
L 1330.383882 223.2 
L 1330.796791 223.2 
L 1330.796791 223.2 
" clip-path="url(#p95ad355fd5)" style="fill: none; stroke: #0000ff; stroke-width: 1.5; stroke-linecap: square"/>
   </g>
   <g id="patch_9">
    <path d="M 860.823529 1281.6 
L 860.823529 172.8 
" style="fill: none; stroke: #000000; stroke-width: 0.8; stroke-linejoin: miter; stroke-linecap: square"/>
   </g>
   <g id="patch_10">
    <path d="M 1353.176471 1281.6 
L 1353.176471 172.8 
" style="fill: none; stroke: #000000; stroke-width: 0.8; stroke-linejoin: miter; stroke-linecap: square"/>
   </g>
   <g id="patch_11">
    <path d="M 860.823529 1281.6 
L 1353.176471 1281.6 
" style="fill: none; stroke: #000000; stroke-width: 0.8; stroke-linejoin: miter; stroke-linecap: square"/>
   </g>
   <g id="patch_12">
    <path d="M 860.823529 172.8 
L 1353.176471 172.8 
" style="fill: none; stroke: #000000; stroke-width: 0.8; stroke-linejoin: miter; stroke-linecap: square"/>
   </g>
   <g id="legend_2">
    <g id="patch_13">
     <path d="M 1262.134283 195.478125 
L 1346.176471 195.478125 
Q 1348.176471 195.478125 1348.176471 193.478125 
L 1348.176471 179.8 
Q 1348.176471 177.8 1346.176471 177.8 
L 1262.134283 177.8 
Q 1260.134283 177.8 1260.134283 179.8 
L 1260.134283 193.478125 
Q 1260.134283 195.478125 1262.134283 195.478125 
z
" style="fill: #ffffff; opacity: 0.8; stroke: #cccccc; stroke-linejoin: miter"/>
    </g>
    <g id="line2d_29">
     <path d="M 1264.134283 185.898437 
L 1274.134283 185.898437 
L 1284.134283 185.898437 
" style="fill: none; stroke: #0000ff; stroke-width: 1.5; stroke-linecap: square"/>
    </g>
    <g id="text_27">
     <!-- O2 reward -->
     <g transform="translate(1292.134283 189.398437) scale(0.1 -0.1)">
      <use xlink:href="#DejaVuSans-4f"/>
      <use xlink:href="#DejaVuSans-32" x="78.710938"/>
      <use xlink:href="#DejaVuSans-20" x="142.333984"/>
      <use xlink:href="#DejaVuSans-72" x="174.121094"/>
      <use xlink:href="#DejaVuSans-65" x="212.984375"/>
      <use xlink:href="#DejaVuSans-77" x="274.507812"/>
      <use xlink:href="#DejaVuSans-61" x="356.294922"/>
      <use xlink:href="#DejaVuSans-72" x="417.574219"/>
      <use xlink:href="#DejaVuSans-64" x="456.9375"/>
     </g>
    </g>
   </g>
  </g>
  <g id="axes_3">
   <g id="patch_14">
    <path d="M 1451.647059 1281.6 
L 1944 1281.6 
L 1944 172.8 
L 1451.647059 172.8 
z
" style="fill: #ffffff"/>
   </g>
   <g id="matplotlib.axis_5">
    <g id="xtick_13">
     <g id="line2d_30">
      <g>
       <use xlink:href="#mdcda7e3348" x="1473.613829" y="1281.6" style="stroke: #000000; stroke-width: 0.8"/>
      </g>
     </g>
     <g id="text_28">
      <!-- 0 -->
      <g transform="translate(1470.432579 1296.198437) scale(0.1 -0.1)">
       <use xlink:href="#DejaVuSans-30"/>
      </g>
     </g>
    </g>
    <g id="xtick_14">
     <g id="line2d_31">
      <g>
       <use xlink:href="#mdcda7e3348" x="1556.195671" y="1281.6" style="stroke: #000000; stroke-width: 0.8"/>
      </g>
     </g>
     <g id="text_29">
      <!-- 200 -->
      <g transform="translate(1546.651921 1296.198437) scale(0.1 -0.1)">
       <use xlink:href="#DejaVuSans-32"/>
       <use xlink:href="#DejaVuSans-30" x="63.623047"/>
       <use xlink:href="#DejaVuSans-30" x="127.246094"/>
      </g>
     </g>
    </g>
    <g id="xtick_15">
     <g id="line2d_32">
      <g>
       <use xlink:href="#mdcda7e3348" x="1638.777512" y="1281.6" style="stroke: #000000; stroke-width: 0.8"/>
      </g>
     </g>
     <g id="text_30">
      <!-- 400 -->
      <g transform="translate(1629.233762 1296.198437) scale(0.1 -0.1)">
       <use xlink:href="#DejaVuSans-34"/>
       <use xlink:href="#DejaVuSans-30" x="63.623047"/>
       <use xlink:href="#DejaVuSans-30" x="127.246094"/>
      </g>
     </g>
    </g>
    <g id="xtick_16">
     <g id="line2d_33">
      <g>
       <use xlink:href="#mdcda7e3348" x="1721.359354" y="1281.6" style="stroke: #000000; stroke-width: 0.8"/>
      </g>
     </g>
     <g id="text_31">
      <!-- 600 -->
      <g transform="translate(1711.815604 1296.198437) scale(0.1 -0.1)">
       <use xlink:href="#DejaVuSans-36"/>
       <use xlink:href="#DejaVuSans-30" x="63.623047"/>
       <use xlink:href="#DejaVuSans-30" x="127.246094"/>
      </g>
     </g>
    </g>
    <g id="xtick_17">
     <g id="line2d_34">
      <g>
       <use xlink:href="#mdcda7e3348" x="1803.941196" y="1281.6" style="stroke: #000000; stroke-width: 0.8"/>
      </g>
     </g>
     <g id="text_32">
      <!-- 800 -->
      <g transform="translate(1794.397446 1296.198437) scale(0.1 -0.1)">
       <use xlink:href="#DejaVuSans-38"/>
       <use xlink:href="#DejaVuSans-30" x="63.623047"/>
       <use xlink:href="#DejaVuSans-30" x="127.246094"/>
      </g>
     </g>
    </g>
    <g id="xtick_18">
     <g id="line2d_35">
      <g>
       <use xlink:href="#mdcda7e3348" x="1886.523038" y="1281.6" style="stroke: #000000; stroke-width: 0.8"/>
      </g>
     </g>
     <g id="text_33">
      <!-- 1000 -->
      <g transform="translate(1873.798038 1296.198437) scale(0.1 -0.1)">
       <use xlink:href="#DejaVuSans-31"/>
       <use xlink:href="#DejaVuSans-30" x="63.623047"/>
       <use xlink:href="#DejaVuSans-30" x="127.246094"/>
       <use xlink:href="#DejaVuSans-30" x="190.869141"/>
      </g>
     </g>
    </g>
   </g>
   <g id="matplotlib.axis_6">
    <g id="ytick_14">
     <g id="line2d_36">
      <g>
       <use xlink:href="#mdf2dfee35e" x="1451.647059" y="1231.2" style="stroke: #000000; stroke-width: 0.8"/>
      </g>
     </g>
     <g id="text_34">
      <!-- 0.0 -->
      <g transform="translate(1428.743934 1234.999219) scale(0.1 -0.1)">
       <defs>
        <path id="DejaVuSans-2e" d="M 684 794 
L 1344 794 
L 1344 0 
L 684 0 
L 684 794 
z
" transform="scale(0.015625)"/>
       </defs>
       <use xlink:href="#DejaVuSans-30"/>
       <use xlink:href="#DejaVuSans-2e" x="63.623047"/>
       <use xlink:href="#DejaVuSans-30" x="95.410156"/>
      </g>
     </g>
    </g>
    <g id="ytick_15">
     <g id="line2d_37">
      <g>
       <use xlink:href="#mdf2dfee35e" x="1451.647059" y="1101.474859" style="stroke: #000000; stroke-width: 0.8"/>
      </g>
     </g>
     <g id="text_35">
      <!-- 2.5 -->
      <g transform="translate(1428.743934 1105.274078) scale(0.1 -0.1)">
       <defs>
        <path id="DejaVuSans-35" d="M 691 4666 
L 3169 4666 
L 3169 4134 
L 1269 4134 
L 1269 2991 
Q 1406 3038 1543 3061 
Q 1681 3084 1819 3084 
Q 2600 3084 3056 2656 
Q 3513 2228 3513 1497 
Q 3513 744 3044 326 
Q 2575 -91 1722 -91 
Q 1428 -91 1123 -41 
Q 819 9 494 109 
L 494 744 
Q 775 591 1075 516 
Q 1375 441 1709 441 
Q 2250 441 2565 725 
Q 2881 1009 2881 1497 
Q 2881 1984 2565 2268 
Q 2250 2553 1709 2553 
Q 1456 2553 1204 2497 
Q 953 2441 691 2322 
L 691 4666 
z
" transform="scale(0.015625)"/>
       </defs>
       <use xlink:href="#DejaVuSans-32"/>
       <use xlink:href="#DejaVuSans-2e" x="63.623047"/>
       <use xlink:href="#DejaVuSans-35" x="95.410156"/>
      </g>
     </g>
    </g>
    <g id="ytick_16">
     <g id="line2d_38">
      <g>
       <use xlink:href="#mdf2dfee35e" x="1451.647059" y="971.749719" style="stroke: #000000; stroke-width: 0.8"/>
      </g>
     </g>
     <g id="text_36">
      <!-- 5.0 -->
      <g transform="translate(1428.743934 975.548938) scale(0.1 -0.1)">
       <use xlink:href="#DejaVuSans-35"/>
       <use xlink:href="#DejaVuSans-2e" x="63.623047"/>
       <use xlink:href="#DejaVuSans-30" x="95.410156"/>
      </g>
     </g>
    </g>
    <g id="ytick_17">
     <g id="line2d_39">
      <g>
       <use xlink:href="#mdf2dfee35e" x="1451.647059" y="842.024578" style="stroke: #000000; stroke-width: 0.8"/>
      </g>
     </g>
     <g id="text_37">
      <!-- 7.5 -->
      <g transform="translate(1428.743934 845.823797) scale(0.1 -0.1)">
       <defs>
        <path id="DejaVuSans-37" d="M 525 4666 
L 3525 4666 
L 3525 4397 
L 1831 0 
L 1172 0 
L 2766 4134 
L 525 4134 
L 525 4666 
z
" transform="scale(0.015625)"/>
       </defs>
       <use xlink:href="#DejaVuSans-37"/>
       <use xlink:href="#DejaVuSans-2e" x="63.623047"/>
       <use xlink:href="#DejaVuSans-35" x="95.410156"/>
      </g>
     </g>
    </g>
    <g id="ytick_18">
     <g id="line2d_40">
      <g>
       <use xlink:href="#mdf2dfee35e" x="1451.647059" y="712.299438" style="stroke: #000000; stroke-width: 0.8"/>
      </g>
     </g>
     <g id="text_38">
      <!-- 10.0 -->
      <g transform="translate(1422.381434 716.098656) scale(0.1 -0.1)">
       <use xlink:href="#DejaVuSans-31"/>
       <use xlink:href="#DejaVuSans-30" x="63.623047"/>
       <use xlink:href="#DejaVuSans-2e" x="127.246094"/>
       <use xlink:href="#DejaVuSans-30" x="159.033203"/>
      </g>
     </g>
    </g>
    <g id="ytick_19">
     <g id="line2d_41">
      <g>
       <use xlink:href="#mdf2dfee35e" x="1451.647059" y="582.574297" style="stroke: #000000; stroke-width: 0.8"/>
      </g>
     </g>
     <g id="text_39">
      <!-- 12.5 -->
      <g transform="translate(1422.381434 586.373516) scale(0.1 -0.1)">
       <use xlink:href="#DejaVuSans-31"/>
       <use xlink:href="#DejaVuSans-32" x="63.623047"/>
       <use xlink:href="#DejaVuSans-2e" x="127.246094"/>
       <use xlink:href="#DejaVuSans-35" x="159.033203"/>
      </g>
     </g>
    </g>
    <g id="ytick_20">
     <g id="line2d_42">
      <g>
       <use xlink:href="#mdf2dfee35e" x="1451.647059" y="452.849156" style="stroke: #000000; stroke-width: 0.8"/>
      </g>
     </g>
     <g id="text_40">
      <!-- 15.0 -->
      <g transform="translate(1422.381434 456.648375) scale(0.1 -0.1)">
       <use xlink:href="#DejaVuSans-31"/>
       <use xlink:href="#DejaVuSans-35" x="63.623047"/>
       <use xlink:href="#DejaVuSans-2e" x="127.246094"/>
       <use xlink:href="#DejaVuSans-30" x="159.033203"/>
      </g>
     </g>
    </g>
    <g id="ytick_21">
     <g id="line2d_43">
      <g>
       <use xlink:href="#mdf2dfee35e" x="1451.647059" y="323.124016" style="stroke: #000000; stroke-width: 0.8"/>
      </g>
     </g>
     <g id="text_41">
      <!-- 17.5 -->
      <g transform="translate(1422.381434 326.923235) scale(0.1 -0.1)">
       <use xlink:href="#DejaVuSans-31"/>
       <use xlink:href="#DejaVuSans-37" x="63.623047"/>
       <use xlink:href="#DejaVuSans-2e" x="127.246094"/>
       <use xlink:href="#DejaVuSans-35" x="159.033203"/>
      </g>
     </g>
    </g>
    <g id="ytick_22">
     <g id="line2d_44">
      <g>
       <use xlink:href="#mdf2dfee35e" x="1451.647059" y="193.398875" style="stroke: #000000; stroke-width: 0.8"/>
      </g>
     </g>
     <g id="text_42">
      <!-- 20.0 -->
      <g transform="translate(1422.381434 197.198094) scale(0.1 -0.1)">
       <use xlink:href="#DejaVuSans-32"/>
       <use xlink:href="#DejaVuSans-30" x="63.623047"/>
       <use xlink:href="#DejaVuSans-2e" x="127.246094"/>
       <use xlink:href="#DejaVuSans-30" x="159.033203"/>
      </g>
     </g>
    </g>
   </g>
   <g id="line2d_45">
    <path d="M 1474.026738 1231.2 
L 1491.368925 1231.2 
L 1491.781834 1210.962734 
L 1493.020562 1210.962734 
L 1493.433471 1194.791705 
L 1494.672198 1194.791705 
L 1495.085108 1181.036722 
L 1496.323835 1181.036722 
L 1496.736744 1160.651343 
L 1497.975472 1160.651343 
L 1498.388381 1153.796315 
L 1499.627109 1153.796315 
L 1500.040018 1127.108752 
L 1501.278746 1127.108752 
L 1501.691655 1134.862559 
L 1502.930383 1134.862559 
L 1503.343292 1119.674672 
L 1504.582019 1119.674672 
L 1504.994929 1104.699666 
L 1506.233656 1104.699666 
L 1506.646566 1094.541392 
L 1507.885293 1094.541392 
L 1508.298202 1077.336976 
L 1509.53693 1077.336976 
L 1509.949839 1061.187371 
L 1511.188567 1061.187371 
L 1511.601476 1051.17988 
L 1514.49184 1051.17988 
L 1514.90475 1046.774671 
L 1516.143477 1046.774671 
L 1516.556387 1037.128443 
L 1517.795114 1037.128443 
L 1518.208023 1031.756388 
L 1521.098388 1031.756388 
L 1521.511297 1027.746081 
L 1522.750025 1027.746081 
L 1523.162934 1018.960463 
L 1526.053298 1018.960463 
L 1526.466208 1015.280141 
L 1527.704935 1015.280141 
L 1528.117844 999.765161 
L 1529.356572 999.765161 
L 1529.769481 977.994637 
L 1531.008209 977.994637 
L 1531.421118 962.743013 
L 1532.659846 962.743013 
L 1533.072755 952.594301 
L 1534.311483 952.594301 
L 1534.724392 924.284638 
L 1535.963119 924.284638 
L 1536.376029 910.19995 
L 1537.614756 910.19995 
L 1538.027665 905.778361 
L 1539.266393 905.778361 
L 1539.679302 891.988198 
L 1540.91803 891.988198 
L 1541.330939 882.803885 
L 1542.569667 882.803885 
L 1542.982576 874.966703 
L 1544.221304 874.966703 
L 1544.634213 861.266302 
L 1545.87294 861.266302 
L 1546.28585 855.683563 
L 1547.524577 855.683563 
L 1547.937486 843.20232 
L 1550.827851 843.11292 
L 1551.24076 846.642873 
L 1552.479488 846.642873 
L 1552.892397 848.829591 
L 1554.131125 848.829591 
L 1554.544034 843.708421 
L 1555.782761 843.708421 
L 1556.195671 845.857332 
L 1557.434398 845.857332 
L 1557.847307 842.848486 
L 1559.086035 842.848486 
L 1559.498944 846.227173 
L 1560.737672 846.227173 
L 1561.150581 843.058688 
L 1564.040946 843.058688 
L 1564.453855 839.829755 
L 1565.692582 839.829755 
L 1566.105492 830.29817 
L 1567.344219 830.29817 
L 1567.757128 822.032132 
L 1568.995856 822.032132 
L 1569.408765 827.075155 
L 1570.647493 827.075155 
L 1571.060402 829.09444 
L 1575.602403 829.09444 
L 1576.015313 819.689002 
L 1577.25404 819.689002 
L 1577.66695 801.993794 
L 1578.905677 801.993794 
L 1579.318586 793.412789 
L 1580.557314 793.412789 
L 1580.970223 787.350587 
L 1582.208951 787.350587 
L 1582.62186 783.376467 
L 1583.860588 783.376467 
L 1584.273497 773.885783 
L 1585.512224 773.885783 
L 1585.925134 767.518322 
L 1587.163861 767.518322 
L 1587.576771 762.576553 
L 1588.815498 762.576553 
L 1589.228407 752.46068 
L 1590.467135 752.46068 
L 1590.880044 746.470121 
L 1592.118772 746.470121 
L 1592.531681 738.205336 
L 1593.770409 738.205336 
L 1594.183318 735.93559 
L 1595.422046 735.93559 
L 1595.834955 726.61301 
L 1597.073682 726.61301 
L 1597.486592 718.88846 
L 1598.725319 718.88846 
L 1599.138228 711.300162 
L 1600.376956 711.300162 
L 1600.789865 704.013893 
L 1603.68023 704.013893 
L 1604.093139 698.948435 
L 1605.331867 698.948435 
L 1605.744776 694.550331 
L 1606.983503 694.550331 
L 1607.396413 696.612426 
L 1608.63514 696.612426 
L 1609.048049 692.717255 
L 1610.286777 692.717255 
L 1610.699686 685.948713 
L 1611.938414 685.948713 
L 1612.351323 681.092008 
L 1613.590051 681.092008 
L 1614.00296 676.194796 
L 1615.241688 676.194796 
L 1615.654597 669.713326 
L 1616.893324 669.713326 
L 1617.306234 655.908879 
L 1618.544961 655.908879 
L 1618.95787 654.364537 
L 1620.196598 654.364537 
L 1620.609507 652.20444 
L 1621.848235 652.20444 
L 1622.261144 643.726446 
L 1623.499872 643.726446 
L 1623.912781 637.662383 
L 1625.151509 637.662383 
L 1625.564418 633.48286 
L 1626.803145 633.48286 
L 1627.216055 625.974338 
L 1628.454782 625.974338 
L 1628.867691 617.418608 
L 1630.106419 617.418608 
L 1630.519328 612.868591 
L 1631.758056 612.868591 
L 1632.170965 612.033264 
L 1633.409693 612.033264 
L 1633.822602 609.609638 
L 1635.06133 609.609638 
L 1635.474239 606.353298 
L 1636.712966 606.353298 
L 1637.125876 601.585908 
L 1638.364603 601.585908 
L 1638.777512 600.029005 
L 1640.01624 600.029005 
L 1640.429149 593.310758 
L 1641.667877 593.310758 
L 1642.080786 591.012352 
L 1643.319514 591.012352 
L 1643.732423 587.52358 
L 1644.971151 587.52358 
L 1645.38406 584.052769 
L 1646.622787 584.052769 
L 1647.035697 580.218383 
L 1649.926061 580.218383 
L 1650.33897 577.943447 
L 1651.577698 577.943447 
L 1651.990607 576.805294 
L 1653.229335 576.805294 
L 1653.642244 571.909032 
L 1656.532608 571.909032 
L 1656.945518 573.036944 
L 1658.184245 573.036944 
L 1658.597155 573.417584 
L 1659.835882 573.417584 
L 1660.248791 571.245961 
L 1661.487519 571.245961 
L 1661.900428 564.259124 
L 1663.139156 564.259124 
L 1663.552065 561.446743 
L 1664.790793 561.446743 
L 1665.203702 562.096614 
L 1666.44243 562.096614 
L 1666.855339 555.252426 
L 1668.094066 555.252426 
L 1668.506976 549.671277 
L 1669.745703 549.671277 
L 1670.158612 548.765426 
L 1671.39734 548.765426 
L 1671.810249 546.155448 
L 1673.048977 546.155448 
L 1673.461886 542.447665 
L 1674.700614 542.447665 
L 1675.113523 541.876499 
L 1676.352251 541.876499 
L 1676.76516 537.973859 
L 1678.003887 537.973859 
L 1678.416797 534.927665 
L 1679.655524 534.927665 
L 1680.068433 529.928907 
L 1681.307161 529.928907 
L 1681.72007 526.970692 
L 1682.958798 526.970692 
L 1683.371707 523.022987 
L 1684.610435 523.022987 
L 1685.023344 519.398864 
L 1686.262072 519.398864 
L 1686.674981 516.555347 
L 1687.913708 516.555347 
L 1688.326618 516.073923 
L 1689.565345 516.073923 
L 1689.978254 512.548189 
L 1691.216982 512.548189 
L 1691.629891 507.661905 
L 1692.868619 507.661905 
L 1693.281528 503.392533 
L 1694.520256 503.392533 
L 1694.933165 497.505443 
L 1696.171893 497.505443 
L 1696.584802 492.182432 
L 1697.823529 492.182432 
L 1698.236439 479.636926 
L 1699.475166 479.636926 
L 1699.888075 470.781138 
L 1701.126803 470.781138 
L 1701.539712 464.230114 
L 1702.77844 464.230114 
L 1703.191349 460.126652 
L 1704.430077 460.126652 
L 1704.842986 454.292624 
L 1706.081714 454.292624 
L 1706.494623 450.105445 
L 1707.73335 450.105445 
L 1708.14626 440.384748 
L 1709.384987 440.384748 
L 1709.797896 435.010545 
L 1711.036624 435.010545 
L 1711.449533 429.580348 
L 1712.688261 429.580348 
L 1713.10117 425.232785 
L 1714.339898 425.232785 
L 1714.752807 419.92081 
L 1715.991535 419.92081 
L 1716.404444 414.880035 
L 1717.643171 414.880035 
L 1718.056081 409.299942 
L 1719.294808 409.299942 
L 1719.707718 403.523036 
L 1720.946445 403.523036 
L 1721.359354 401.703099 
L 1722.598082 401.703099 
L 1723.010991 398.347983 
L 1724.249719 398.347983 
L 1724.662628 397.149424 
L 1725.901356 397.149424 
L 1726.314265 395.707566 
L 1727.552992 395.707566 
L 1727.965902 393.330034 
L 1729.204629 393.330034 
L 1729.617539 389.562211 
L 1730.856266 389.562211 
L 1731.269175 388.150495 
L 1732.507903 388.150495 
L 1732.920812 385.822677 
L 1734.15954 385.822677 
L 1734.572449 383.746798 
L 1737.462814 383.746798 
L 1737.875723 383.518575 
L 1739.11445 383.518575 
L 1739.52736 381.903296 
L 1740.766087 381.903296 
L 1741.178996 381.206538 
L 1742.417724 381.206538 
L 1742.830633 379.613994 
L 1744.069361 379.613994 
L 1744.48227 378.483718 
L 1745.720998 378.483718 
L 1746.133907 375.911231 
L 1747.372635 375.911231 
L 1747.785544 371.634883 
L 1749.024271 371.634883 
L 1749.437181 370.729835 
L 1750.675908 370.729835 
L 1751.088817 366.211907 
L 1752.327545 366.211907 
L 1752.740454 363.333787 
L 1753.979182 363.333787 
L 1754.392091 361.545349 
L 1755.630819 361.545349 
L 1756.043728 358.513397 
L 1757.282456 358.513397 
L 1757.695365 354.261282 
L 1758.934092 354.261282 
L 1759.347002 350.940223 
L 1760.585729 350.940223 
L 1760.998638 345.901432 
L 1762.237366 345.901432 
L 1762.650275 343.834225 
L 1763.889003 343.834225 
L 1764.301912 341.615628 
L 1765.54064 341.615628 
L 1765.953549 336.597241 
L 1767.192277 336.597241 
L 1767.605186 335.588268 
L 1768.843913 335.588268 
L 1769.256823 334.437577 
L 1770.49555 334.437577 
L 1770.908459 331.568925 
L 1772.147187 331.568925 
L 1772.560096 329.152393 
L 1773.798824 329.152393 
L 1774.211733 325.567582 
L 1775.450461 325.567582 
L 1775.86337 321.807188 
L 1777.102098 321.807188 
L 1777.515007 320.150061 
L 1778.753734 320.150061 
L 1779.166644 317.375394 
L 1780.405371 317.375394 
L 1780.81828 315.937777 
L 1782.057008 315.937777 
L 1782.469917 316.461147 
L 1783.708645 316.461147 
L 1784.121554 312.370656 
L 1785.360282 312.370656 
L 1785.773191 312.19277 
L 1787.011919 312.19277 
L 1787.424828 310.191662 
L 1790.315192 310.191662 
L 1790.728102 307.90352 
L 1791.966829 307.90352 
L 1792.379738 306.037052 
L 1793.618466 306.037052 
L 1794.031375 303.67242 
L 1795.270103 303.67242 
L 1795.683012 302.859045 
L 1796.92174 302.859045 
L 1797.334649 299.724115 
L 1798.573376 299.724115 
L 1798.986286 297.463011 
L 1800.225013 297.463011 
L 1800.637923 295.123979 
L 1801.87665 295.123979 
L 1802.289559 290.001136 
L 1803.528287 290.001136 
L 1803.941196 286.467127 
L 1806.831561 286.464281 
L 1807.24447 285.448092 
L 1808.483198 285.448092 
L 1808.896107 286.99192 
L 1810.134834 286.99192 
L 1810.547744 283.837207 
L 1811.786471 283.837207 
L 1812.19938 285.920653 
L 1813.438108 285.920653 
L 1813.851017 283.425873 
L 1815.089745 283.425873 
L 1815.502654 283.290929 
L 1816.741382 283.290929 
L 1817.154291 283.96677 
L 1820.044655 283.902005 
L 1820.457565 284.458508 
L 1821.696292 284.458508 
L 1822.109201 281.369735 
L 1823.347929 281.369735 
L 1823.760838 279.376131 
L 1824.999566 279.376131 
L 1825.412475 278.582327 
L 1826.651203 278.582327 
L 1827.064112 277.311779 
L 1828.30284 277.311779 
L 1828.715749 276.131269 
L 1829.954476 276.131269 
L 1830.367386 273.107218 
L 1833.25775 273.107218 
L 1833.670659 271.91885 
L 1834.909387 271.91885 
L 1835.322296 270.034373 
L 1836.561024 270.034373 
L 1836.973933 269.263121 
L 1838.212661 269.263121 
L 1838.62557 268.427575 
L 1839.864297 268.427575 
L 1840.277207 266.576186 
L 1841.515934 266.576186 
L 1841.928843 265.449906 
L 1843.167571 265.449906 
L 1843.58048 264.668055 
L 1844.819208 264.668055 
L 1845.232117 263.908895 
L 1848.122482 263.855775 
L 1848.535391 262.379759 
L 1851.425755 262.327607 
L 1851.838664 260.466681 
L 1853.077392 260.466681 
L 1853.490301 259.360472 
L 1854.729029 259.360472 
L 1855.141938 258.240254 
L 1856.380666 258.240254 
L 1856.793575 257.793744 
L 1858.032303 257.793744 
L 1858.445212 256.327314 
L 1859.683939 256.327314 
L 1860.096849 255.235582 
L 1861.335576 255.235582 
L 1861.748486 255.968244 
L 1862.987213 255.968244 
L 1863.400122 254.928742 
L 1864.63885 254.928742 
L 1865.051759 252.737655 
L 1866.290487 252.737655 
L 1866.703396 251.69556 
L 1867.942124 251.69556 
L 1868.355033 252.419725 
L 1869.59376 252.419725 
L 1870.00667 250.652083 
L 1871.245397 250.652083 
L 1871.658307 249.918689 
L 1874.548671 249.904382 
L 1874.96158 249.177873 
L 1877.851945 249.162997 
L 1878.264854 247.060347 
L 1881.155218 247.049777 
L 1881.568128 245.658703 
L 1882.806855 245.658703 
L 1883.219764 244.956225 
L 1884.458492 244.956225 
L 1884.871401 244.256141 
L 1886.110129 244.256141 
L 1886.523038 243.556636 
L 1887.761766 243.556636 
L 1888.174675 241.127271 
L 1891.065039 241.127271 
L 1891.477949 240.086906 
L 1892.716676 240.086906 
L 1893.129585 239.396834 
L 1896.01995 239.394623 
L 1896.432859 237.67533 
L 1897.671587 237.67533 
L 1898.084496 236.989429 
L 1899.323224 236.989429 
L 1899.736133 236.304993 
L 1900.97486 236.304993 
L 1901.38777 234.938921 
L 1902.626497 234.938921 
L 1903.039406 232.888281 
L 1904.278134 232.888281 
L 1904.691043 231.874428 
L 1905.929771 231.874428 
L 1906.34268 230.508832 
L 1907.581408 230.508832 
L 1907.994317 228.82461 
L 1909.233045 228.82461 
L 1909.645954 227.156013 
L 1910.884681 227.156013 
L 1911.297591 226.811773 
L 1912.536318 226.811773 
L 1912.949227 227.515196 
L 1914.187955 227.515196 
L 1914.600864 225.817933 
L 1917.491229 225.850904 
L 1917.904138 224.163211 
L 1919.142866 224.163211 
L 1919.555775 223.2 
L 1921.620321 223.2 
L 1921.620321 223.2 
" clip-path="url(#pa668adaadd)" style="fill: none; stroke: #0000ff; stroke-width: 1.5; stroke-linecap: square"/>
   </g>
   <g id="patch_15">
    <path d="M 1451.647059 1281.6 
L 1451.647059 172.8 
" style="fill: none; stroke: #000000; stroke-width: 0.8; stroke-linejoin: miter; stroke-linecap: square"/>
   </g>
   <g id="patch_16">
    <path d="M 1944 1281.6 
L 1944 172.8 
" style="fill: none; stroke: #000000; stroke-width: 0.8; stroke-linejoin: miter; stroke-linecap: square"/>
   </g>
   <g id="patch_17">
    <path d="M 1451.647059 1281.6 
L 1944 1281.6 
" style="fill: none; stroke: #000000; stroke-width: 0.8; stroke-linejoin: miter; stroke-linecap: square"/>
   </g>
   <g id="patch_18">
    <path d="M 1451.647059 172.8 
L 1944 172.8 
" style="fill: none; stroke: #000000; stroke-width: 0.8; stroke-linejoin: miter; stroke-linecap: square"/>
   </g>
   <g id="legend_3">
    <g id="patch_19">
     <path d="M 1852.957813 195.478125 
L 1937 195.478125 
Q 1939 195.478125 1939 193.478125 
L 1939 179.8 
Q 1939 177.8 1937 177.8 
L 1852.957813 177.8 
Q 1850.957813 177.8 1850.957813 179.8 
L 1850.957813 193.478125 
Q 1850.957813 195.478125 1852.957813 195.478125 
z
" style="fill: #ffffff; opacity: 0.8; stroke: #cccccc; stroke-linejoin: miter"/>
    </g>
    <g id="line2d_46">
     <path d="M 1854.957813 185.898437 
L 1864.957813 185.898437 
L 1874.957813 185.898437 
" style="fill: none; stroke: #0000ff; stroke-width: 1.5; stroke-linecap: square"/>
    </g>
    <g id="text_43">
     <!-- O3 reward -->
     <g transform="translate(1882.957813 189.398437) scale(0.1 -0.1)">
      <defs>
       <path id="DejaVuSans-33" d="M 2597 2516 
Q 3050 2419 3304 2112 
Q 3559 1806 3559 1356 
Q 3559 666 3084 287 
Q 2609 -91 1734 -91 
Q 1441 -91 1130 -33 
Q 819 25 488 141 
L 488 750 
Q 750 597 1062 519 
Q 1375 441 1716 441 
Q 2309 441 2620 675 
Q 2931 909 2931 1356 
Q 2931 1769 2642 2001 
Q 2353 2234 1838 2234 
L 1294 2234 
L 1294 2753 
L 1863 2753 
Q 2328 2753 2575 2939 
Q 2822 3125 2822 3475 
Q 2822 3834 2567 4026 
Q 2313 4219 1838 4219 
Q 1578 4219 1281 4162 
Q 984 4106 628 3988 
L 628 4550 
Q 988 4650 1302 4700 
Q 1616 4750 1894 4750 
Q 2613 4750 3031 4423 
Q 3450 4097 3450 3541 
Q 3450 3153 3228 2886 
Q 3006 2619 2597 2516 
z
" transform="scale(0.015625)"/>
      </defs>
      <use xlink:href="#DejaVuSans-4f"/>
      <use xlink:href="#DejaVuSans-33" x="78.710938"/>
      <use xlink:href="#DejaVuSans-20" x="142.333984"/>
      <use xlink:href="#DejaVuSans-72" x="174.121094"/>
      <use xlink:href="#DejaVuSans-65" x="212.984375"/>
      <use xlink:href="#DejaVuSans-77" x="274.507812"/>
      <use xlink:href="#DejaVuSans-61" x="356.294922"/>
      <use xlink:href="#DejaVuSans-72" x="417.574219"/>
      <use xlink:href="#DejaVuSans-64" x="456.9375"/>
     </g>
    </g>
   </g>
  </g>
 </g>
 <defs>
  <clipPath id="pd1de0412fe">
   <rect x="270" y="172.8" width="492.352941" height="1108.8"/>
  </clipPath>
  <clipPath id="p95ad355fd5">
   <rect x="860.823529" y="172.8" width="492.352941" height="1108.8"/>
  </clipPath>
  <clipPath id="pa668adaadd">
   <rect x="1451.647059" y="172.8" width="492.352941" height="1108.8"/>
  </clipPath>
 </defs>
</svg>
