<?xml version="1.0" encoding="utf-8" standalone="no"?>
<!DOCTYPE svg PUBLIC "-//W3C//DTD SVG 1.1//EN"
  "http://www.w3.org/Graphics/SVG/1.1/DTD/svg11.dtd">
<svg xmlns:xlink="http://www.w3.org/1999/xlink" width="2160pt" height="1440pt" viewBox="0 0 2160 1440" xmlns="http://www.w3.org/2000/svg" version="1.1">
 <metadata>
  <rdf:RDF xmlns:dc="http://purl.org/dc/elements/1.1/" xmlns:cc="http://creativecommons.org/ns#" xmlns:rdf="http://www.w3.org/1999/02/22-rdf-syntax-ns#">
   <cc:Work>
    <dc:type rdf:resource="http://purl.org/dc/dcmitype/StillImage"/>
    <dc:date>2023-05-31T20:05:00.802479</dc:date>
    <dc:format>image/svg+xml</dc:format>
    <dc:creator>
     <cc:Agent>
      <dc:title>Matplotlib v3.7.1, https://matplotlib.org/</dc:title>
     </cc:Agent>
    </dc:creator>
   </cc:Work>
  </rdf:RDF>
 </metadata>
 <defs>
  <style type="text/css">*{stroke-linejoin: round; stroke-linecap: butt}</style>
 </defs>
 <g id="figure_1">
  <g id="patch_1">
   <path d="M 0 1440 
L 2160 1440 
L 2160 0 
L 0 0 
z
" style="fill: #ffffff"/>
  </g>
  <g id="axes_1">
   <g id="patch_2">
    <path d="M 270 1281.6 
L 762.352941 1281.6 
L 762.352941 172.8 
L 270 172.8 
z
" style="fill: #ffffff"/>
   </g>
   <g id="matplotlib.axis_1">
    <g id="xtick_1">
     <g id="line2d_1">
      <defs>
       <path id="m6d5d63593e" d="M 0 0 
L 0 3.5 
" style="stroke: #000000; stroke-width: 0.8"/>
      </defs>
      <g>
       <use xlink:href="#m6d5d63593e" x="292.168948" y="1281.6" style="stroke: #000000; stroke-width: 0.8"/>
      </g>
     </g>
     <g id="text_1">
      <!-- 0 -->
      <g transform="translate(288.987698 1296.198437) scale(0.1 -0.1)">
       <defs>
        <path id="DejaVuSans-30" d="M 2034 4250 
Q 1547 4250 1301 3770 
Q 1056 3291 1056 2328 
Q 1056 1369 1301 889 
Q 1547 409 2034 409 
Q 2525 409 2770 889 
Q 3016 1369 3016 2328 
Q 3016 3291 2770 3770 
Q 2525 4250 2034 4250 
z
M 2034 4750 
Q 2819 4750 3233 4129 
Q 3647 3509 3647 2328 
Q 3647 1150 3233 529 
Q 2819 -91 2034 -91 
Q 1250 -91 836 529 
Q 422 1150 422 2328 
Q 422 3509 836 4129 
Q 1250 4750 2034 4750 
z
" transform="scale(0.015625)"/>
       </defs>
       <use xlink:href="#DejaVuSans-30"/>
      </g>
     </g>
    </g>
    <g id="xtick_2">
     <g id="line2d_2">
      <g>
       <use xlink:href="#m6d5d63593e" x="397.534669" y="1281.6" style="stroke: #000000; stroke-width: 0.8"/>
      </g>
     </g>
     <g id="text_2">
      <!-- 500 -->
      <g transform="translate(387.990919 1296.198437) scale(0.1 -0.1)">
       <defs>
        <path id="DejaVuSans-35" d="M 691 4666 
L 3169 4666 
L 3169 4134 
L 1269 4134 
L 1269 2991 
Q 1406 3038 1543 3061 
Q 1681 3084 1819 3084 
Q 2600 3084 3056 2656 
Q 3513 2228 3513 1497 
Q 3513 744 3044 326 
Q 2575 -91 1722 -91 
Q 1428 -91 1123 -41 
Q 819 9 494 109 
L 494 744 
Q 775 591 1075 516 
Q 1375 441 1709 441 
Q 2250 441 2565 725 
Q 2881 1009 2881 1497 
Q 2881 1984 2565 2268 
Q 2250 2553 1709 2553 
Q 1456 2553 1204 2497 
Q 953 2441 691 2322 
L 691 4666 
z
" transform="scale(0.015625)"/>
       </defs>
       <use xlink:href="#DejaVuSans-35"/>
       <use xlink:href="#DejaVuSans-30" x="63.623047"/>
       <use xlink:href="#DejaVuSans-30" x="127.246094"/>
      </g>
     </g>
    </g>
    <g id="xtick_3">
     <g id="line2d_3">
      <g>
       <use xlink:href="#m6d5d63593e" x="502.90039" y="1281.6" style="stroke: #000000; stroke-width: 0.8"/>
      </g>
     </g>
     <g id="text_3">
      <!-- 1000 -->
      <g transform="translate(490.17539 1296.198437) scale(0.1 -0.1)">
       <defs>
        <path id="DejaVuSans-31" d="M 794 531 
L 1825 531 
L 1825 4091 
L 703 3866 
L 703 4441 
L 1819 4666 
L 2450 4666 
L 2450 531 
L 3481 531 
L 3481 0 
L 794 0 
L 794 531 
z
" transform="scale(0.015625)"/>
       </defs>
       <use xlink:href="#DejaVuSans-31"/>
       <use xlink:href="#DejaVuSans-30" x="63.623047"/>
       <use xlink:href="#DejaVuSans-30" x="127.246094"/>
       <use xlink:href="#DejaVuSans-30" x="190.869141"/>
      </g>
     </g>
    </g>
    <g id="xtick_4">
     <g id="line2d_4">
      <g>
       <use xlink:href="#m6d5d63593e" x="608.266111" y="1281.6" style="stroke: #000000; stroke-width: 0.8"/>
      </g>
     </g>
     <g id="text_4">
      <!-- 1500 -->
      <g transform="translate(595.541111 1296.198437) scale(0.1 -0.1)">
       <use xlink:href="#DejaVuSans-31"/>
       <use xlink:href="#DejaVuSans-35" x="63.623047"/>
       <use xlink:href="#DejaVuSans-30" x="127.246094"/>
       <use xlink:href="#DejaVuSans-30" x="190.869141"/>
      </g>
     </g>
    </g>
    <g id="xtick_5">
     <g id="line2d_5">
      <g>
       <use xlink:href="#m6d5d63593e" x="713.631832" y="1281.6" style="stroke: #000000; stroke-width: 0.8"/>
      </g>
     </g>
     <g id="text_5">
      <!-- 2000 -->
      <g transform="translate(700.906832 1296.198437) scale(0.1 -0.1)">
       <defs>
        <path id="DejaVuSans-32" d="M 1228 531 
L 3431 531 
L 3431 0 
L 469 0 
L 469 531 
Q 828 903 1448 1529 
Q 2069 2156 2228 2338 
Q 2531 2678 2651 2914 
Q 2772 3150 2772 3378 
Q 2772 3750 2511 3984 
Q 2250 4219 1831 4219 
Q 1534 4219 1204 4116 
Q 875 4013 500 3803 
L 500 4441 
Q 881 4594 1212 4672 
Q 1544 4750 1819 4750 
Q 2544 4750 2975 4387 
Q 3406 4025 3406 3419 
Q 3406 3131 3298 2873 
Q 3191 2616 2906 2266 
Q 2828 2175 2409 1742 
Q 1991 1309 1228 531 
z
" transform="scale(0.015625)"/>
       </defs>
       <use xlink:href="#DejaVuSans-32"/>
       <use xlink:href="#DejaVuSans-30" x="63.623047"/>
       <use xlink:href="#DejaVuSans-30" x="127.246094"/>
       <use xlink:href="#DejaVuSans-30" x="190.869141"/>
      </g>
     </g>
    </g>
   </g>
   <g id="matplotlib.axis_2">
    <g id="ytick_1">
     <g id="line2d_6">
      <defs>
       <path id="mf006bded20" d="M 0 0 
L -3.5 0 
" style="stroke: #000000; stroke-width: 0.8"/>
      </defs>
      <g>
       <use xlink:href="#mf006bded20" x="270" y="1208.782314" style="stroke: #000000; stroke-width: 0.8"/>
      </g>
     </g>
     <g id="text_6">
      <!-- −40 -->
      <g transform="translate(241.895312 1212.581532) scale(0.1 -0.1)">
       <defs>
        <path id="DejaVuSans-2212" d="M 678 2272 
L 4684 2272 
L 4684 1741 
L 678 1741 
L 678 2272 
z
" transform="scale(0.015625)"/>
        <path id="DejaVuSans-34" d="M 2419 4116 
L 825 1625 
L 2419 1625 
L 2419 4116 
z
M 2253 4666 
L 3047 4666 
L 3047 1625 
L 3713 1625 
L 3713 1100 
L 3047 1100 
L 3047 0 
L 2419 0 
L 2419 1100 
L 313 1100 
L 313 1709 
L 2253 4666 
z
" transform="scale(0.015625)"/>
       </defs>
       <use xlink:href="#DejaVuSans-2212"/>
       <use xlink:href="#DejaVuSans-34" x="83.789062"/>
       <use xlink:href="#DejaVuSans-30" x="147.412109"/>
      </g>
     </g>
    </g>
    <g id="ytick_2">
     <g id="line2d_7">
      <g>
       <use xlink:href="#mf006bded20" x="270" y="963.612584" style="stroke: #000000; stroke-width: 0.8"/>
      </g>
     </g>
     <g id="text_7">
      <!-- −30 -->
      <g transform="translate(241.895312 967.411803) scale(0.1 -0.1)">
       <defs>
        <path id="DejaVuSans-33" d="M 2597 2516 
Q 3050 2419 3304 2112 
Q 3559 1806 3559 1356 
Q 3559 666 3084 287 
Q 2609 -91 1734 -91 
Q 1441 -91 1130 -33 
Q 819 25 488 141 
L 488 750 
Q 750 597 1062 519 
Q 1375 441 1716 441 
Q 2309 441 2620 675 
Q 2931 909 2931 1356 
Q 2931 1769 2642 2001 
Q 2353 2234 1838 2234 
L 1294 2234 
L 1294 2753 
L 1863 2753 
Q 2328 2753 2575 2939 
Q 2822 3125 2822 3475 
Q 2822 3834 2567 4026 
Q 2313 4219 1838 4219 
Q 1578 4219 1281 4162 
Q 984 4106 628 3988 
L 628 4550 
Q 988 4650 1302 4700 
Q 1616 4750 1894 4750 
Q 2613 4750 3031 4423 
Q 3450 4097 3450 3541 
Q 3450 3153 3228 2886 
Q 3006 2619 2597 2516 
z
" transform="scale(0.015625)"/>
       </defs>
       <use xlink:href="#DejaVuSans-2212"/>
       <use xlink:href="#DejaVuSans-33" x="83.789062"/>
       <use xlink:href="#DejaVuSans-30" x="147.412109"/>
      </g>
     </g>
    </g>
    <g id="ytick_3">
     <g id="line2d_8">
      <g>
       <use xlink:href="#mf006bded20" x="270" y="718.442854" style="stroke: #000000; stroke-width: 0.8"/>
      </g>
     </g>
     <g id="text_8">
      <!-- −20 -->
      <g transform="translate(241.895312 722.242073) scale(0.1 -0.1)">
       <use xlink:href="#DejaVuSans-2212"/>
       <use xlink:href="#DejaVuSans-32" x="83.789062"/>
       <use xlink:href="#DejaVuSans-30" x="147.412109"/>
      </g>
     </g>
    </g>
    <g id="ytick_4">
     <g id="line2d_9">
      <g>
       <use xlink:href="#mf006bded20" x="270" y="473.273124" style="stroke: #000000; stroke-width: 0.8"/>
      </g>
     </g>
     <g id="text_9">
      <!-- −10 -->
      <g transform="translate(241.895312 477.072343) scale(0.1 -0.1)">
       <use xlink:href="#DejaVuSans-2212"/>
       <use xlink:href="#DejaVuSans-31" x="83.789062"/>
       <use xlink:href="#DejaVuSans-30" x="147.412109"/>
      </g>
     </g>
    </g>
    <g id="ytick_5">
     <g id="line2d_10">
      <g>
       <use xlink:href="#mf006bded20" x="270" y="228.103395" style="stroke: #000000; stroke-width: 0.8"/>
      </g>
     </g>
     <g id="text_10">
      <!-- 0 -->
      <g transform="translate(256.6375 231.902613) scale(0.1 -0.1)">
       <use xlink:href="#DejaVuSans-30"/>
      </g>
     </g>
    </g>
   </g>
   <g id="line2d_11">
    <path d="M 292.379679 228.103395 
L 302.916251 228.103395 
L 303.126983 223.2 
L 303.759177 223.2 
L 303.969908 226.46893 
L 304.602103 226.46893 
L 304.812834 232.02611 
L 305.445029 232.02611 
L 305.65576 232.654751 
L 306.287954 232.654751 
L 306.498686 238.88727 
L 307.13088 238.88727 
L 307.341612 241.596245 
L 307.973806 241.596245 
L 308.184537 244.495474 
L 308.816732 244.495474 
L 309.027463 247.041628 
L 309.659657 247.041628 
L 309.870389 250.344201 
L 310.502583 250.344201 
L 310.713315 252.857302 
L 312.188435 252.857302 
L 312.399166 250.776809 
L 313.874286 250.776809 
L 314.085018 253.734727 
L 314.717212 253.734727 
L 314.927943 251.235361 
L 315.560138 251.235361 
L 315.770869 249.219089 
L 317.245989 249.219089 
L 317.456721 249.725432 
L 318.088915 249.725432 
L 318.299647 247.237095 
L 319.774767 247.237095 
L 319.985498 244.758724 
L 320.617692 244.758724 
L 320.828424 242.289844 
L 321.460618 242.289844 
L 321.67135 244.577116 
L 322.303544 244.577116 
L 322.514275 240.862423 
L 323.989395 240.862423 
L 324.200127 237.419783 
L 324.832321 237.419783 
L 325.043053 239.585747 
L 325.675247 239.585747 
L 325.885978 237.419783 
L 326.518173 237.419783 
L 326.728904 240.72848 
L 328.204024 240.72848 
L 328.414756 243.063919 
L 329.04695 243.063919 
L 329.257682 247.132116 
L 329.889876 247.132116 
L 330.100607 246.520701 
L 330.732802 246.520701 
L 330.943533 248.060206 
L 331.575727 248.060206 
L 331.786459 247.472522 
L 332.418653 247.472522 
L 332.629385 246.897947 
L 333.261579 246.897947 
L 333.47231 247.905601 
L 334.104505 247.905601 
L 334.315236 253.675036 
L 334.94743 253.675036 
L 335.158162 251.618697 
L 335.790356 251.618697 
L 336.001088 253.214536 
L 336.633282 253.214536 
L 336.844013 258.909509 
L 337.476208 258.909509 
L 337.686939 260.854582 
L 338.319134 260.854582 
L 338.529865 262.57022 
L 340.847911 262.57022 
L 341.058642 264.472281 
L 341.690837 264.472281 
L 341.901568 268.089981 
L 342.533762 268.089981 
L 342.744494 266.190946 
L 343.376688 266.190946 
L 343.58742 269.814861 
L 344.219614 269.814861 
L 344.430345 273.405447 
L 345.06254 273.405447 
L 345.273271 275.138781 
L 345.905465 275.138781 
L 346.116197 280.61963 
L 346.748391 280.61963 
L 346.959123 284.302516 
L 347.591317 284.302516 
L 347.802048 289.848712 
L 348.434243 289.848712 
L 348.644974 295.301865 
L 349.277168 295.301865 
L 349.4879 298.965266 
L 350.120094 298.965266 
L 350.330826 300.838793 
L 350.96302 300.838793 
L 351.173751 304.502194 
L 351.805946 304.502194 
L 352.016677 302.737466 
L 352.648872 302.737466 
L 352.859603 299.251248 
L 353.491797 299.251248 
L 353.702529 295.805288 
L 354.334723 295.805288 
L 354.545455 294.082308 
L 355.177649 294.082308 
L 355.38838 297.765242 
L 356.8635 297.781718 
L 357.074232 298.09736 
L 357.706426 298.09736 
L 357.917158 303.834186 
L 359.392278 303.832191 
L 359.603009 300.527134 
L 360.235203 300.527134 
L 360.445935 298.876516 
L 361.078129 298.876516 
L 361.288861 295.580732 
L 361.921055 295.580732 
L 362.131786 299.346529 
L 362.763981 299.346529 
L 362.974712 300.993525 
L 364.449832 300.993525 
L 364.660564 302.64052 
L 365.292758 302.64052 
L 365.50349 300.995209 
L 366.135684 300.995209 
L 366.346415 299.86105 
L 366.97861 299.86105 
L 367.189341 296.605824 
L 367.821535 296.605824 
L 368.032267 297.15285 
L 368.664461 297.15285 
L 368.875193 299.927707 
L 369.507387 299.927707 
L 369.718118 300.538495 
L 370.350313 300.538495 
L 370.561044 298.923655 
L 372.036164 298.923655 
L 372.246896 302.75502 
L 372.87909 302.75502 
L 373.089821 301.16268 
L 373.722016 301.16268 
L 373.932747 299.571609 
L 374.564942 299.571609 
L 374.775673 300.236212 
L 375.407867 300.236212 
L 375.618599 300.914366 
L 376.250793 300.914366 
L 376.461525 303.18727 
L 377.093719 303.18727 
L 377.30445 307.056881 
L 377.936645 307.056881 
L 378.147376 313.219666 
L 378.77957 313.219666 
L 378.990302 317.089277 
L 379.622496 317.089277 
L 379.833228 322.533014 
L 380.465422 322.533014 
L 380.676153 328.698125 
L 381.308348 328.698125 
L 381.519079 334.130498 
L 382.151273 334.130498 
L 382.362005 341.890881 
L 382.994199 341.890881 
L 383.204931 348.102166 
L 383.837125 348.102166 
L 384.047856 349.667975 
L 384.680051 349.667975 
L 384.890782 355.894591 
L 385.522977 355.894591 
L 385.733708 356.662173 
L 386.365902 356.662173 
L 386.576634 361.339147 
L 388.051754 361.339147 
L 388.262485 363.677291 
L 389.737605 363.681612 
L 389.948337 366.022454 
L 390.580531 366.022454 
L 390.791263 364.472413 
L 392.266383 364.471536 
L 392.477114 366.82922 
L 393.109308 366.82922 
L 393.32004 370.73311 
L 393.952234 370.73311 
L 394.162966 367.656743 
L 394.79516 367.656743 
L 395.005891 368.504917 
L 395.638086 368.504917 
L 395.848817 365.447469 
L 396.481012 365.447469 
L 396.691743 360.879745 
L 397.323937 360.879745 
L 397.534669 363.277884 
L 398.166863 363.277884 
L 398.377594 358.722899 
L 399.009789 358.722899 
L 399.22052 362.646879 
L 399.852715 362.646879 
L 400.063446 362.022021 
L 402.381492 362.022021 
L 402.592223 360.514913 
L 403.224418 360.514913 
L 403.435149 357.504167 
L 404.067343 357.504167 
L 404.278075 354.495556 
L 404.910269 354.495556 
L 405.121001 348.488638 
L 405.753195 348.488638 
L 405.963926 342.508704 
L 406.596121 342.508704 
L 406.806852 338.036885 
L 407.439046 338.036885 
L 407.649778 333.57609 
L 408.281972 333.57609 
L 408.492704 332.091751 
L 409.124898 332.091751 
L 409.335629 327.646041 
L 409.967824 327.646041 
L 410.178555 324.685638 
L 411.653675 324.686843 
L 411.864407 323.209297 
L 412.496601 323.209297 
L 412.707333 318.781654 
L 413.339527 318.781654 
L 413.550258 322.752243 
L 414.182453 322.752243 
L 414.393184 318.332569 
L 415.025378 318.332569 
L 415.23611 323.340003 
L 415.868304 323.340003 
L 416.079036 332.762105 
L 416.71123 332.762105 
L 416.921961 331.292676 
L 417.554156 331.292676 
L 417.764887 330.864563 
L 418.397081 330.864563 
L 418.607813 324.998518 
L 419.240007 324.998518 
L 419.450739 327.517051 
L 420.082933 327.517051 
L 420.293664 334.019864 
L 420.925859 334.019864 
L 421.13659 340.133665 
L 421.768785 340.133665 
L 421.979516 344.117972 
L 422.61171 344.117972 
L 422.822442 351.015579 
L 423.454636 351.015579 
L 423.665368 357.535002 
L 424.297562 357.535002 
L 424.508293 361.522906 
L 425.140488 361.522906 
L 425.351219 364.060705 
L 425.983413 364.060705 
L 426.194145 364.785776 
L 426.826339 364.785776 
L 427.037071 371.320261 
L 427.669265 371.320261 
L 427.879996 376.762826 
L 428.512191 376.762826 
L 428.722922 377.861072 
L 429.355116 377.861072 
L 429.565848 380.408034 
L 430.198042 380.408034 
L 430.408774 388.057791 
L 431.040968 388.057791 
L 431.251699 394.607906 
L 431.883894 394.607906 
L 432.094625 406.278937 
L 432.72682 406.278937 
L 432.937551 420.528359 
L 433.569745 420.528359 
L 433.780477 425.656357 
L 434.412671 425.656357 
L 434.623403 436.234959 
L 435.255597 436.234959 
L 435.466328 445.072939 
L 436.098523 445.072939 
L 436.309254 443.634533 
L 436.941448 443.634533 
L 437.15218 440.760226 
L 437.784374 440.760226 
L 437.995106 437.887172 
L 439.470226 437.886789 
L 439.680957 436.451403 
L 440.313151 436.451403 
L 440.523883 435.015636 
L 441.156077 435.015636 
L 441.366809 432.146483 
L 441.999003 432.146483 
L 442.209734 430.422761 
L 442.841929 430.422761 
L 443.05266 430.134484 
L 443.684855 430.134484 
L 443.895586 436.442094 
L 444.52778 436.442094 
L 444.738512 435.010164 
L 445.370706 435.010164 
L 445.581438 437.592063 
L 446.213632 437.592063 
L 446.424363 442.758119 
L 447.056558 442.758119 
L 447.267289 442.479617 
L 447.899483 442.479617 
L 448.110215 445.064892 
L 448.742409 445.064892 
L 448.953141 448.536749 
L 449.585335 448.536749 
L 449.796066 449.696457 
L 450.428261 449.696457 
L 450.638992 452.018109 
L 451.271186 452.018109 
L 451.481918 453.444856 
L 452.114112 453.444856 
L 452.324844 451.756086 
L 452.957038 451.756086 
L 453.167769 451.495795 
L 453.799964 451.495795 
L 454.010695 455.514304 
L 454.64289 455.514304 
L 454.853621 451.237254 
L 455.485815 451.237254 
L 455.696547 452.405534 
L 456.328741 452.405534 
L 456.539472 458.765241 
L 457.171667 458.765241 
L 457.382398 457.340814 
L 458.014593 457.340814 
L 458.225324 461.108968 
L 458.857518 461.108968 
L 459.06825 464.881138 
L 459.700444 464.881138 
L 459.911176 468.654857 
L 460.54337 468.654857 
L 460.754101 480.722319 
L 461.386296 480.722319 
L 461.597027 482.14477 
L 462.229221 482.14477 
L 462.439953 487.590865 
L 463.072147 487.590865 
L 463.282879 487.352124 
L 463.915073 487.352124 
L 464.125804 488.773281 
L 465.600924 488.773281 
L 465.811656 491.615057 
L 466.44385 491.615057 
L 466.654582 491.379857 
L 467.286776 491.379857 
L 467.497507 489.726046 
L 468.129702 489.726046 
L 468.340433 489.494614 
L 468.972628 489.494614 
L 469.183359 490.685139 
L 469.815553 490.685139 
L 470.026285 493.066881 
L 470.658479 493.066881 
L 470.869211 491.648936 
L 471.501405 491.648936 
L 471.712136 491.423875 
L 472.344331 491.423875 
L 472.555062 496.646025 
L 473.187256 496.646025 
L 473.397988 499.036215 
L 474.030182 499.036215 
L 474.240914 500.232176 
L 474.873108 500.232176 
L 475.083839 497.401017 
L 475.716034 497.401017 
L 475.926765 499.800124 
L 476.558959 499.800124 
L 476.769691 496.971317 
L 477.401885 496.971317 
L 477.612617 496.549007 
L 478.244811 496.549007 
L 478.455542 504.401664 
L 479.930663 504.401664 
L 480.141394 507.021224 
L 480.773588 507.021224 
L 480.98432 508.229084 
L 482.45944 508.229772 
L 482.670171 508.029059 
L 483.302366 508.029059 
L 483.513097 514.684966 
L 484.145291 514.684966 
L 484.356023 511.863178 
L 484.988217 511.863178 
L 485.198949 510.452285 
L 485.831143 510.452285 
L 486.041874 511.665521 
L 486.674069 511.665521 
L 486.8848 508.84451 
L 488.35992 508.84451 
L 488.570652 507.434092 
L 489.202846 507.434092 
L 489.413577 506.023845 
L 490.045772 506.023845 
L 490.256503 501.794028 
L 490.888698 501.794028 
L 491.099429 498.974816 
L 491.731623 498.974816 
L 491.942355 494.746342 
L 492.574549 494.746342 
L 492.785281 491.927745 
L 493.417475 491.927745 
L 493.628206 489.109754 
L 494.260401 489.109754 
L 494.471132 484.883863 
L 495.103326 484.883863 
L 495.314058 499.625218 
L 495.946252 499.625218 
L 496.156984 507.700677 
L 496.789178 507.700677 
L 496.999909 517.184534 
L 497.632104 517.184534 
L 497.842835 521.222749 
L 498.475029 521.222749 
L 498.685761 525.260964 
L 499.317955 525.260964 
L 499.528687 535.967839 
L 500.160881 535.967839 
L 500.371612 544.044639 
L 501.003807 544.044639 
L 501.214538 553.52829 
L 501.846733 553.52829 
L 502.057464 565.642446 
L 502.689658 565.642446 
L 502.90039 569.68056 
L 503.532584 569.68056 
L 503.743316 568.274124 
L 504.37551 568.274124 
L 504.586241 565.461701 
L 505.218436 565.461701 
L 505.429167 566.867736 
L 506.061361 566.867736 
L 506.272093 565.461847 
L 506.904287 565.461847 
L 507.115019 564.056103 
L 507.747213 564.056103 
L 507.957944 562.650359 
L 508.590139 562.650359 
L 508.80087 565.283123 
L 509.433064 565.283123 
L 509.643796 563.877379 
L 511.118916 563.877521 
L 511.329647 563.700342 
L 511.961842 563.700342 
L 512.172573 569.144455 
L 512.804768 569.144455 
L 513.015499 570.373466 
L 513.647693 570.373466 
L 513.858425 578.277028 
L 514.490619 578.277028 
L 514.70135 579.681872 
L 515.333545 579.681872 
L 515.544276 580.912066 
L 516.176471 580.912066 
L 516.387202 590.223086 
L 517.019396 590.223086 
L 517.230128 596.899699 
L 517.862322 596.899699 
L 518.073054 596.726958 
L 518.705248 596.726958 
L 518.915979 599.363582 
L 519.548174 599.363582 
L 519.758905 600.768 
L 520.391099 600.768 
L 520.601831 597.959295 
L 521.234025 597.959295 
L 521.444757 600.596799 
L 522.076951 600.596799 
L 522.287682 604.468377 
L 522.919877 604.468377 
L 523.130608 603.064186 
L 523.762803 603.064186 
L 523.973534 602.89397 
L 525.448654 602.893876 
L 525.659385 604.297753 
L 526.29158 604.297753 
L 526.502311 606.936871 
L 527.134506 606.936871 
L 527.345237 606.768547 
L 527.977431 606.768547 
L 528.188163 605.364796 
L 528.820357 605.364796 
L 529.031089 608.004596 
L 529.663283 608.004596 
L 529.874014 614.688437 
L 530.506209 614.688437 
L 530.71694 615.925465 
L 531.349134 615.925465 
L 531.559866 619.969565 
L 532.19206 619.969565 
L 532.402792 621.372857 
L 533.034986 621.372857 
L 533.245717 622.776058 
L 533.877912 622.776058 
L 534.088643 625.416956 
L 535.563763 625.416956 
L 535.774495 626.820037 
L 536.406689 626.820037 
L 536.61742 628.058092 
L 537.249615 628.058092 
L 537.460346 627.893418 
L 538.092541 627.893418 
L 538.303272 630.534789 
L 538.935466 630.534789 
L 539.146198 630.370999 
L 539.778392 630.370999 
L 539.989124 633.01255 
L 540.621318 633.01255 
L 540.832049 639.780901 
L 541.464244 639.780901 
L 541.674975 642.585807 
L 543.150095 642.585918 
L 543.360827 647.872028 
L 543.993021 647.872028 
L 544.203752 645.067982 
L 544.835947 645.067982 
L 545.046678 647.711509 
L 545.678872 647.711509 
L 545.889604 653.158865 
L 546.521798 653.158865 
L 546.73253 651.757111 
L 548.20765 651.757111 
L 548.418381 654.40094 
L 549.050576 654.40094 
L 549.261307 655.802517 
L 549.893501 655.802517 
L 550.104233 661.249521 
L 550.736427 661.249521 
L 550.947159 663.893862 
L 551.579353 663.893862 
L 551.790084 667.939708 
L 552.422279 667.939708 
L 552.63301 670.584362 
L 553.265204 670.584362 
L 553.475936 677.275583 
L 554.10813 677.275583 
L 554.318862 674.473401 
L 554.951056 674.473401 
L 555.161787 673.072411 
L 555.793982 673.072411 
L 556.004713 671.671422 
L 556.636907 671.671422 
L 556.847639 672.916276 
L 557.479833 672.916276 
L 557.690565 674.31708 
L 559.165685 674.31708 
L 559.376416 672.916276 
L 560.851536 672.916276 
L 561.062268 670.114964 
L 561.694462 670.114964 
L 561.905194 669.960356 
L 562.537388 669.960356 
L 562.748119 671.206738 
L 563.380314 671.206738 
L 563.591045 672.453215 
L 564.223239 672.453215 
L 564.433971 677.746709 
L 565.066165 677.746709 
L 565.276897 679.146751 
L 565.909091 679.146751 
L 566.119822 680.546793 
L 566.752017 680.546793 
L 566.962748 681.946835 
L 567.594942 681.946835 
L 567.805674 685.841549 
L 569.280794 685.841549 
L 569.491525 689.889105 
L 570.12372 689.889105 
L 570.334451 692.688395 
L 570.966646 692.688395 
L 571.177377 700.783818 
L 571.809571 700.783818 
L 572.020303 707.630083 
L 572.652497 707.630083 
L 572.863228 708.879592 
L 573.495423 708.879592 
L 573.706154 712.92751 
L 574.338349 712.92751 
L 574.54908 712.778371 
L 575.181274 712.778371 
L 575.392006 715.427563 
L 576.0242 715.427563 
L 576.234932 716.826559 
L 576.867126 716.826559 
L 577.077857 723.524353 
L 577.710052 723.524353 
L 577.920783 727.572877 
L 578.552977 727.572877 
L 578.763709 731.621477 
L 580.238829 731.621477 
L 580.44956 733.020133 
L 581.924681 733.020133 
L 582.135412 735.669997 
L 583.610532 735.669997 
L 583.821263 737.068653 
L 585.296384 737.068653 
L 585.507115 741.117504 
L 586.139309 741.117504 
L 586.350041 739.718934 
L 586.982235 739.718934 
L 587.192967 738.320447 
L 587.825161 738.320447 
L 588.035892 746.418722 
L 588.668087 746.418722 
L 588.878818 745.020403 
L 589.511012 745.020403 
L 589.721744 749.069658 
L 590.353938 749.069658 
L 590.56467 747.671421 
L 591.196864 747.671421 
L 591.407595 754.372104 
L 592.03979 754.372104 
L 592.250521 759.819683 
L 593.725641 759.819683 
L 593.936373 765.267101 
L 594.568567 765.267101 
L 594.779298 769.316684 
L 595.411493 769.316684 
L 595.622224 773.366346 
L 596.254419 773.366346 
L 596.46515 776.018407 
L 597.097344 776.018407 
L 597.308076 778.813373 
L 597.94027 778.813373 
L 598.151002 782.863034 
L 598.783196 782.863034 
L 598.993927 786.912773 
L 599.626122 786.912773 
L 599.836853 789.565377 
L 602.154899 789.5653 
L 602.36563 788.168165 
L 607.212454 788.168165 
L 607.423185 790.820922 
L 608.055379 790.820922 
L 608.266111 790.679561 
L 608.898305 790.679561 
L 609.109037 794.729679 
L 609.741231 794.729679 
L 609.951962 798.779874 
L 610.584157 798.779874 
L 610.794888 801.433164 
L 611.427082 801.433164 
L 611.637814 804.086679 
L 612.270008 804.086679 
L 612.48074 806.740271 
L 613.112934 806.740271 
L 613.323665 807.997255 
L 613.95586 807.997255 
L 614.166591 812.047979 
L 614.798785 812.047979 
L 615.009517 817.35635 
L 616.484637 817.35635 
L 616.695368 818.614067 
L 617.327563 818.614067 
L 617.538294 820.010681 
L 618.170489 820.010681 
L 618.38122 822.665162 
L 619.013414 822.665162 
L 619.224146 824.061632 
L 619.85634 824.061632 
L 620.067072 825.319865 
L 620.699266 825.319865 
L 620.909997 832.026105 
L 621.542192 832.026105 
L 621.752923 836.077572 
L 622.385117 836.077572 
L 622.595849 844.180716 
L 623.228043 844.180716 
L 623.438775 846.83621 
L 624.070969 846.83621 
L 624.2817 850.887955 
L 624.913895 850.887955 
L 625.124626 856.335667 
L 625.75682 856.335667 
L 625.967552 860.387476 
L 627.442672 860.387476 
L 627.653403 864.439364 
L 629.128524 864.439364 
L 629.339255 867.095629 
L 629.971449 867.095629 
L 630.182181 865.699861 
L 630.814375 865.699861 
L 631.025106 868.356271 
L 631.657301 868.356271 
L 631.868032 869.751972 
L 632.500227 869.751972 
L 632.710958 872.408516 
L 633.343152 872.408516 
L 633.553884 871.012815 
L 634.186078 871.012815 
L 634.39681 879.117518 
L 635.029004 879.117518 
L 635.239735 878.983346 
L 635.87193 878.983346 
L 636.082661 889.746007 
L 636.714855 889.746007 
L 636.925587 895.061063 
L 637.557781 895.061063 
L 637.768513 896.323454 
L 638.400707 896.323454 
L 638.611438 904.429871 
L 639.243633 904.429871 
L 639.454364 908.351162 
L 640.086559 908.351162 
L 640.29729 909.746253 
L 640.929484 909.746253 
L 641.140216 913.799713 
L 641.77241 913.799713 
L 641.983141 916.45827 
L 642.615336 916.45827 
L 642.826067 920.511932 
L 643.458262 920.511932 
L 643.668993 928.619461 
L 644.301187 928.619461 
L 644.511919 933.937764 
L 645.144113 933.937764 
L 645.354845 939.386464 
L 645.987039 939.386464 
L 646.19777 946.100136 
L 646.829965 946.100136 
L 647.040696 954.208711 
L 647.67289 954.208711 
L 647.883622 952.814259 
L 648.515816 952.814259 
L 648.726548 959.528749 
L 649.358742 959.528749 
L 649.569473 958.134357 
L 651.044593 958.134357 
L 651.255325 960.922963 
L 652.730445 960.922963 
L 652.941176 964.105809 
L 654.416297 964.105809 
L 654.627028 965.530921 
L 655.259222 965.530921 
L 655.469954 968.191616 
L 656.102148 968.191616 
L 656.31288 966.766504 
L 656.945074 966.766504 
L 657.155805 969.427432 
L 657.788 969.427432 
L 657.998731 973.51349 
L 658.630925 973.51349 
L 658.841657 979.024428 
L 659.473851 979.024428 
L 659.684583 983.110599 
L 660.316777 983.110599 
L 660.527508 980.261294 
L 662.845554 980.261294 
L 663.056286 978.836642 
L 663.68848 978.836642 
L 663.899211 980.261181 
L 664.531406 980.261181 
L 664.742137 984.347352 
L 666.217257 984.347352 
L 666.427989 988.433634 
L 667.060183 988.433634 
L 667.270915 994.455239 
L 667.903109 994.455239 
L 668.11384 1001.234721 
L 668.746035 1001.234721 
L 668.956766 1005.351714 
L 669.58896 1005.351714 
L 669.799692 1006.805243 
L 670.431886 1006.805243 
L 670.642618 1005.351714 
L 671.274812 1005.351714 
L 671.485543 1006.805082 
L 672.117738 1006.805082 
L 672.328469 1008.258383 
L 672.960663 1008.258383 
L 673.171395 1009.468516 
L 673.803589 1009.468516 
L 674.014321 1014.796346 
L 674.646515 1014.796346 
L 674.857246 1017.460738 
L 676.332367 1017.46058 
L 676.543098 1021.578113 
L 677.175292 1021.578113 
L 677.386024 1024.242952 
L 678.861144 1024.242952 
L 679.071875 1022.790126 
L 681.389921 1022.790126 
L 681.600653 1026.907765 
L 682.232847 1026.907765 
L 682.443578 1025.455095 
L 683.075773 1025.455095 
L 683.286504 1030.785541 
L 683.918698 1030.785541 
L 684.12943 1037.569381 
L 684.761624 1037.569381 
L 684.972356 1043.139975 
L 685.60455 1043.139975 
L 685.815281 1045.806439 
L 686.447476 1045.806439 
L 686.658207 1048.472878 
L 687.290402 1048.472878 
L 687.501133 1052.591436 
L 688.133327 1052.591436 
L 688.344059 1055.258307 
L 688.976253 1055.258307 
L 689.186985 1055.022084 
L 689.819179 1055.022084 
L 690.02991 1060.356937 
L 690.662105 1060.356937 
L 690.872836 1070.046611 
L 691.50503 1070.046611 
L 691.715762 1071.497725 
L 692.347956 1071.497725 
L 692.558688 1074.907497 
L 693.190882 1074.907497 
L 693.401613 1076.068468 
L 694.033808 1076.068468 
L 694.244539 1078.970117 
L 694.876733 1078.970117 
L 695.087465 1083.032996 
L 695.719659 1083.032996 
L 695.930391 1084.195065 
L 696.562585 1084.195065 
L 696.773316 1092.322572 
L 697.405511 1092.322572 
L 697.616242 1097.836772 
L 698.248437 1097.836772 
L 698.459168 1099.000624 
L 699.091362 1099.000624 
L 699.302094 1104.514953 
L 699.934288 1104.514953 
L 700.145019 1105.679426 
L 701.62014 1105.679426 
L 701.830871 1112.358978 
L 702.463065 1112.358978 
L 702.673797 1113.808702 
L 704.148917 1113.808702 
L 704.359648 1116.424022 
L 704.991843 1116.424022 
L 705.202574 1117.873686 
L 706.677694 1117.873686 
L 706.888426 1119.039718 
L 707.52062 1119.039718 
L 707.731351 1123.105263 
L 708.363546 1123.105263 
L 708.574277 1125.721517 
L 709.206471 1125.721517 
L 709.417203 1129.505961 
L 710.049397 1129.505961 
L 710.260129 1135.021288 
L 710.892323 1135.021288 
L 711.103054 1143.154271 
L 711.735249 1143.154271 
L 711.94598 1151.287975 
L 712.578175 1151.287975 
L 712.788906 1154.184332 
L 713.4211 1154.184332 
L 713.631832 1155.632243 
L 715.106952 1155.632243 
L 715.317683 1167.831807 
L 715.949878 1167.831807 
L 716.160609 1170.726281 
L 716.792803 1170.726281 
L 717.003535 1174.792687 
L 717.635729 1174.792687 
L 717.846461 1178.858863 
L 718.478655 1178.858863 
L 718.689386 1185.545443 
L 719.321581 1185.545443 
L 719.532312 1193.679331 
L 720.164506 1193.679331 
L 720.375238 1201.813891 
L 721.007432 1201.813891 
L 721.218164 1203.259618 
L 722.693284 1203.259618 
L 722.904015 1208.772265 
L 725.222061 1208.772265 
L 725.432793 1210.217602 
L 726.064987 1210.217602 
L 726.275718 1211.394287 
L 729.43669 1211.394287 
L 729.647421 1214.284469 
L 730.279616 1214.284469 
L 730.490347 1215.461809 
L 731.122541 1215.461809 
L 731.333273 1216.639263 
L 731.965467 1216.639263 
L 732.176199 1215.194254 
L 732.808393 1215.194254 
L 733.019124 1219.261889 
L 733.651319 1219.261889 
L 733.86205 1220.706574 
L 734.494245 1220.706574 
L 734.704976 1219.261889 
L 735.33717 1219.261889 
L 735.547902 1221.885001 
L 736.180096 1221.885001 
L 736.390828 1223.329524 
L 737.865948 1223.329524 
L 738.076679 1225.952749 
L 738.708873 1225.952749 
L 738.919605 1224.508226 
L 739.551799 1224.508226 
L 739.762531 1231.2 
L 739.973262 1231.2 
L 739.973262 1231.2 
" clip-path="url(#p630f4b15f4)" style="fill: none; stroke: #0000ff; stroke-width: 1.5; stroke-linecap: square"/>
   </g>
   <g id="patch_3">
    <path d="M 270 1281.6 
L 270 172.8 
" style="fill: none; stroke: #000000; stroke-width: 0.8; stroke-linejoin: miter; stroke-linecap: square"/>
   </g>
   <g id="patch_4">
    <path d="M 762.352941 1281.6 
L 762.352941 172.8 
" style="fill: none; stroke: #000000; stroke-width: 0.8; stroke-linejoin: miter; stroke-linecap: square"/>
   </g>
   <g id="patch_5">
    <path d="M 270 1281.6 
L 762.352941 1281.6 
" style="fill: none; stroke: #000000; stroke-width: 0.8; stroke-linejoin: miter; stroke-linecap: square"/>
   </g>
   <g id="patch_6">
    <path d="M 270 172.8 
L 762.352941 172.8 
" style="fill: none; stroke: #000000; stroke-width: 0.8; stroke-linejoin: miter; stroke-linecap: square"/>
   </g>
   <g id="legend_1">
    <g id="patch_7">
     <path d="M 671.310754 195.478125 
L 755.352941 195.478125 
Q 757.352941 195.478125 757.352941 193.478125 
L 757.352941 179.8 
Q 757.352941 177.8 755.352941 177.8 
L 671.310754 177.8 
Q 669.310754 177.8 669.310754 179.8 
L 669.310754 193.478125 
Q 669.310754 195.478125 671.310754 195.478125 
z
" style="fill: #ffffff; opacity: 0.8; stroke: #cccccc; stroke-linejoin: miter"/>
    </g>
    <g id="line2d_12">
     <path d="M 673.310754 185.898437 
L 683.310754 185.898437 
L 693.310754 185.898437 
" style="fill: none; stroke: #0000ff; stroke-width: 1.5; stroke-linecap: square"/>
    </g>
    <g id="text_11">
     <!-- O1 reward -->
     <g transform="translate(701.310754 189.398437) scale(0.1 -0.1)">
      <defs>
       <path id="DejaVuSans-4f" d="M 2522 4238 
Q 1834 4238 1429 3725 
Q 1025 3213 1025 2328 
Q 1025 1447 1429 934 
Q 1834 422 2522 422 
Q 3209 422 3611 934 
Q 4013 1447 4013 2328 
Q 4013 3213 3611 3725 
Q 3209 4238 2522 4238 
z
M 2522 4750 
Q 3503 4750 4090 4092 
Q 4678 3434 4678 2328 
Q 4678 1225 4090 567 
Q 3503 -91 2522 -91 
Q 1538 -91 948 565 
Q 359 1222 359 2328 
Q 359 3434 948 4092 
Q 1538 4750 2522 4750 
z
" transform="scale(0.015625)"/>
       <path id="DejaVuSans-20" transform="scale(0.015625)"/>
       <path id="DejaVuSans-72" d="M 2631 2963 
Q 2534 3019 2420 3045 
Q 2306 3072 2169 3072 
Q 1681 3072 1420 2755 
Q 1159 2438 1159 1844 
L 1159 0 
L 581 0 
L 581 3500 
L 1159 3500 
L 1159 2956 
Q 1341 3275 1631 3429 
Q 1922 3584 2338 3584 
Q 2397 3584 2469 3576 
Q 2541 3569 2628 3553 
L 2631 2963 
z
" transform="scale(0.015625)"/>
       <path id="DejaVuSans-65" d="M 3597 1894 
L 3597 1613 
L 953 1613 
Q 991 1019 1311 708 
Q 1631 397 2203 397 
Q 2534 397 2845 478 
Q 3156 559 3463 722 
L 3463 178 
Q 3153 47 2828 -22 
Q 2503 -91 2169 -91 
Q 1331 -91 842 396 
Q 353 884 353 1716 
Q 353 2575 817 3079 
Q 1281 3584 2069 3584 
Q 2775 3584 3186 3129 
Q 3597 2675 3597 1894 
z
M 3022 2063 
Q 3016 2534 2758 2815 
Q 2500 3097 2075 3097 
Q 1594 3097 1305 2825 
Q 1016 2553 972 2059 
L 3022 2063 
z
" transform="scale(0.015625)"/>
       <path id="DejaVuSans-77" d="M 269 3500 
L 844 3500 
L 1563 769 
L 2278 3500 
L 2956 3500 
L 3675 769 
L 4391 3500 
L 4966 3500 
L 4050 0 
L 3372 0 
L 2619 2869 
L 1863 0 
L 1184 0 
L 269 3500 
z
" transform="scale(0.015625)"/>
       <path id="DejaVuSans-61" d="M 2194 1759 
Q 1497 1759 1228 1600 
Q 959 1441 959 1056 
Q 959 750 1161 570 
Q 1363 391 1709 391 
Q 2188 391 2477 730 
Q 2766 1069 2766 1631 
L 2766 1759 
L 2194 1759 
z
M 3341 1997 
L 3341 0 
L 2766 0 
L 2766 531 
Q 2569 213 2275 61 
Q 1981 -91 1556 -91 
Q 1019 -91 701 211 
Q 384 513 384 1019 
Q 384 1609 779 1909 
Q 1175 2209 1959 2209 
L 2766 2209 
L 2766 2266 
Q 2766 2663 2505 2880 
Q 2244 3097 1772 3097 
Q 1472 3097 1187 3025 
Q 903 2953 641 2809 
L 641 3341 
Q 956 3463 1253 3523 
Q 1550 3584 1831 3584 
Q 2591 3584 2966 3190 
Q 3341 2797 3341 1997 
z
" transform="scale(0.015625)"/>
       <path id="DejaVuSans-64" d="M 2906 2969 
L 2906 4863 
L 3481 4863 
L 3481 0 
L 2906 0 
L 2906 525 
Q 2725 213 2448 61 
Q 2172 -91 1784 -91 
Q 1150 -91 751 415 
Q 353 922 353 1747 
Q 353 2572 751 3078 
Q 1150 3584 1784 3584 
Q 2172 3584 2448 3432 
Q 2725 3281 2906 2969 
z
M 947 1747 
Q 947 1113 1208 752 
Q 1469 391 1925 391 
Q 2381 391 2643 752 
Q 2906 1113 2906 1747 
Q 2906 2381 2643 2742 
Q 2381 3103 1925 3103 
Q 1469 3103 1208 2742 
Q 947 2381 947 1747 
z
" transform="scale(0.015625)"/>
      </defs>
      <use xlink:href="#DejaVuSans-4f"/>
      <use xlink:href="#DejaVuSans-31" x="78.710938"/>
      <use xlink:href="#DejaVuSans-20" x="142.333984"/>
      <use xlink:href="#DejaVuSans-72" x="174.121094"/>
      <use xlink:href="#DejaVuSans-65" x="212.984375"/>
      <use xlink:href="#DejaVuSans-77" x="274.507812"/>
      <use xlink:href="#DejaVuSans-61" x="356.294922"/>
      <use xlink:href="#DejaVuSans-72" x="417.574219"/>
      <use xlink:href="#DejaVuSans-64" x="456.9375"/>
     </g>
    </g>
   </g>
  </g>
  <g id="axes_2">
   <g id="patch_8">
    <path d="M 860.823529 1281.6 
L 1353.176471 1281.6 
L 1353.176471 172.8 
L 860.823529 172.8 
z
" style="fill: #ffffff"/>
   </g>
   <g id="matplotlib.axis_3">
    <g id="xtick_6">
     <g id="line2d_13">
      <g>
       <use xlink:href="#m6d5d63593e" x="882.992477" y="1281.6" style="stroke: #000000; stroke-width: 0.8"/>
      </g>
     </g>
     <g id="text_12">
      <!-- 0 -->
      <g transform="translate(879.811227 1296.198437) scale(0.1 -0.1)">
       <use xlink:href="#DejaVuSans-30"/>
      </g>
     </g>
    </g>
    <g id="xtick_7">
     <g id="line2d_14">
      <g>
       <use xlink:href="#m6d5d63593e" x="988.358198" y="1281.6" style="stroke: #000000; stroke-width: 0.8"/>
      </g>
     </g>
     <g id="text_13">
      <!-- 500 -->
      <g transform="translate(978.814448 1296.198437) scale(0.1 -0.1)">
       <use xlink:href="#DejaVuSans-35"/>
       <use xlink:href="#DejaVuSans-30" x="63.623047"/>
       <use xlink:href="#DejaVuSans-30" x="127.246094"/>
      </g>
     </g>
    </g>
    <g id="xtick_8">
     <g id="line2d_15">
      <g>
       <use xlink:href="#m6d5d63593e" x="1093.723919" y="1281.6" style="stroke: #000000; stroke-width: 0.8"/>
      </g>
     </g>
     <g id="text_14">
      <!-- 1000 -->
      <g transform="translate(1080.998919 1296.198437) scale(0.1 -0.1)">
       <use xlink:href="#DejaVuSans-31"/>
       <use xlink:href="#DejaVuSans-30" x="63.623047"/>
       <use xlink:href="#DejaVuSans-30" x="127.246094"/>
       <use xlink:href="#DejaVuSans-30" x="190.869141"/>
      </g>
     </g>
    </g>
    <g id="xtick_9">
     <g id="line2d_16">
      <g>
       <use xlink:href="#m6d5d63593e" x="1199.08964" y="1281.6" style="stroke: #000000; stroke-width: 0.8"/>
      </g>
     </g>
     <g id="text_15">
      <!-- 1500 -->
      <g transform="translate(1186.36464 1296.198437) scale(0.1 -0.1)">
       <use xlink:href="#DejaVuSans-31"/>
       <use xlink:href="#DejaVuSans-35" x="63.623047"/>
       <use xlink:href="#DejaVuSans-30" x="127.246094"/>
       <use xlink:href="#DejaVuSans-30" x="190.869141"/>
      </g>
     </g>
    </g>
    <g id="xtick_10">
     <g id="line2d_17">
      <g>
       <use xlink:href="#m6d5d63593e" x="1304.455361" y="1281.6" style="stroke: #000000; stroke-width: 0.8"/>
      </g>
     </g>
     <g id="text_16">
      <!-- 2000 -->
      <g transform="translate(1291.730361 1296.198437) scale(0.1 -0.1)">
       <use xlink:href="#DejaVuSans-32"/>
       <use xlink:href="#DejaVuSans-30" x="63.623047"/>
       <use xlink:href="#DejaVuSans-30" x="127.246094"/>
       <use xlink:href="#DejaVuSans-30" x="190.869141"/>
      </g>
     </g>
    </g>
   </g>
   <g id="matplotlib.axis_4">
    <g id="ytick_6">
     <g id="line2d_18">
      <g>
       <use xlink:href="#mf006bded20" x="860.823529" y="1231.2" style="stroke: #000000; stroke-width: 0.8"/>
      </g>
     </g>
     <g id="text_17">
      <!-- 0 -->
      <g transform="translate(847.461029 1234.999219) scale(0.1 -0.1)">
       <use xlink:href="#DejaVuSans-30"/>
      </g>
     </g>
    </g>
    <g id="ytick_7">
     <g id="line2d_19">
      <g>
       <use xlink:href="#mf006bded20" x="860.823529" y="1062.217237" style="stroke: #000000; stroke-width: 0.8"/>
      </g>
     </g>
     <g id="text_18">
      <!-- 20 -->
      <g transform="translate(841.098529 1066.016456) scale(0.1 -0.1)">
       <use xlink:href="#DejaVuSans-32"/>
       <use xlink:href="#DejaVuSans-30" x="63.623047"/>
      </g>
     </g>
    </g>
    <g id="ytick_8">
     <g id="line2d_20">
      <g>
       <use xlink:href="#mf006bded20" x="860.823529" y="893.234474" style="stroke: #000000; stroke-width: 0.8"/>
      </g>
     </g>
     <g id="text_19">
      <!-- 40 -->
      <g transform="translate(841.098529 897.033692) scale(0.1 -0.1)">
       <use xlink:href="#DejaVuSans-34"/>
       <use xlink:href="#DejaVuSans-30" x="63.623047"/>
      </g>
     </g>
    </g>
    <g id="ytick_9">
     <g id="line2d_21">
      <g>
       <use xlink:href="#mf006bded20" x="860.823529" y="724.25171" style="stroke: #000000; stroke-width: 0.8"/>
      </g>
     </g>
     <g id="text_20">
      <!-- 60 -->
      <g transform="translate(841.098529 728.050929) scale(0.1 -0.1)">
       <defs>
        <path id="DejaVuSans-36" d="M 2113 2584 
Q 1688 2584 1439 2293 
Q 1191 2003 1191 1497 
Q 1191 994 1439 701 
Q 1688 409 2113 409 
Q 2538 409 2786 701 
Q 3034 994 3034 1497 
Q 3034 2003 2786 2293 
Q 2538 2584 2113 2584 
z
M 3366 4563 
L 3366 3988 
Q 3128 4100 2886 4159 
Q 2644 4219 2406 4219 
Q 1781 4219 1451 3797 
Q 1122 3375 1075 2522 
Q 1259 2794 1537 2939 
Q 1816 3084 2150 3084 
Q 2853 3084 3261 2657 
Q 3669 2231 3669 1497 
Q 3669 778 3244 343 
Q 2819 -91 2113 -91 
Q 1303 -91 875 529 
Q 447 1150 447 2328 
Q 447 3434 972 4092 
Q 1497 4750 2381 4750 
Q 2619 4750 2861 4703 
Q 3103 4656 3366 4563 
z
" transform="scale(0.015625)"/>
       </defs>
       <use xlink:href="#DejaVuSans-36"/>
       <use xlink:href="#DejaVuSans-30" x="63.623047"/>
      </g>
     </g>
    </g>
    <g id="ytick_10">
     <g id="line2d_22">
      <g>
       <use xlink:href="#mf006bded20" x="860.823529" y="555.268947" style="stroke: #000000; stroke-width: 0.8"/>
      </g>
     </g>
     <g id="text_21">
      <!-- 80 -->
      <g transform="translate(841.098529 559.068166) scale(0.1 -0.1)">
       <defs>
        <path id="DejaVuSans-38" d="M 2034 2216 
Q 1584 2216 1326 1975 
Q 1069 1734 1069 1313 
Q 1069 891 1326 650 
Q 1584 409 2034 409 
Q 2484 409 2743 651 
Q 3003 894 3003 1313 
Q 3003 1734 2745 1975 
Q 2488 2216 2034 2216 
z
M 1403 2484 
Q 997 2584 770 2862 
Q 544 3141 544 3541 
Q 544 4100 942 4425 
Q 1341 4750 2034 4750 
Q 2731 4750 3128 4425 
Q 3525 4100 3525 3541 
Q 3525 3141 3298 2862 
Q 3072 2584 2669 2484 
Q 3125 2378 3379 2068 
Q 3634 1759 3634 1313 
Q 3634 634 3220 271 
Q 2806 -91 2034 -91 
Q 1263 -91 848 271 
Q 434 634 434 1313 
Q 434 1759 690 2068 
Q 947 2378 1403 2484 
z
M 1172 3481 
Q 1172 3119 1398 2916 
Q 1625 2713 2034 2713 
Q 2441 2713 2670 2916 
Q 2900 3119 2900 3481 
Q 2900 3844 2670 4047 
Q 2441 4250 2034 4250 
Q 1625 4250 1398 4047 
Q 1172 3844 1172 3481 
z
" transform="scale(0.015625)"/>
       </defs>
       <use xlink:href="#DejaVuSans-38"/>
       <use xlink:href="#DejaVuSans-30" x="63.623047"/>
      </g>
     </g>
    </g>
    <g id="ytick_11">
     <g id="line2d_23">
      <g>
       <use xlink:href="#mf006bded20" x="860.823529" y="386.286184" style="stroke: #000000; stroke-width: 0.8"/>
      </g>
     </g>
     <g id="text_22">
      <!-- 100 -->
      <g transform="translate(834.736029 390.085403) scale(0.1 -0.1)">
       <use xlink:href="#DejaVuSans-31"/>
       <use xlink:href="#DejaVuSans-30" x="63.623047"/>
       <use xlink:href="#DejaVuSans-30" x="127.246094"/>
      </g>
     </g>
    </g>
    <g id="ytick_12">
     <g id="line2d_24">
      <g>
       <use xlink:href="#mf006bded20" x="860.823529" y="217.303421" style="stroke: #000000; stroke-width: 0.8"/>
      </g>
     </g>
     <g id="text_23">
      <!-- 120 -->
      <g transform="translate(834.736029 221.102639) scale(0.1 -0.1)">
       <use xlink:href="#DejaVuSans-31"/>
       <use xlink:href="#DejaVuSans-32" x="63.623047"/>
       <use xlink:href="#DejaVuSans-30" x="127.246094"/>
      </g>
     </g>
    </g>
   </g>
   <g id="line2d_25">
    <path d="M 883.203209 1231.2 
L 892.896855 1231.137534 
L 893.107586 1227.733549 
L 893.739781 1227.733549 
L 893.950512 1229.067657 
L 894.582706 1229.067657 
L 894.793438 1228.274263 
L 895.425632 1228.274263 
L 895.636364 1229.838337 
L 896.268558 1229.838337 
L 896.479289 1222.811294 
L 897.111484 1222.811294 
L 897.322215 1212.159333 
L 897.954409 1212.159333 
L 898.165141 1206.860207 
L 898.797335 1206.860207 
L 899.008067 1192.901836 
L 899.640261 1192.901836 
L 899.850992 1180.037525 
L 903.85489 1180.037525 
L 904.065621 1174.454209 
L 906.383667 1174.454209 
L 906.594399 1168.499503 
L 908.912444 1168.499503 
L 909.123176 1160.386319 
L 909.75537 1160.386319 
L 909.966102 1158.108202 
L 910.598296 1158.108202 
L 910.809027 1155.601405 
L 912.284148 1155.601405 
L 912.494879 1140.213952 
L 913.127073 1140.213952 
L 913.337805 1116.015896 
L 913.969999 1116.015896 
L 914.180731 1109.569764 
L 914.812925 1109.569764 
L 915.023656 1097.156685 
L 915.655851 1097.156685 
L 915.866582 1067.107855 
L 916.498776 1067.107855 
L 916.709508 1046.193823 
L 925.77096 1046.193823 
L 925.981691 1040.027139 
L 928.299737 1040.027139 
L 928.510469 1033.951081 
L 929.142663 1033.951081 
L 929.353394 1027.811495 
L 929.985589 1027.811495 
L 930.19632 1021.610012 
L 931.67144 1021.610012 
L 931.882172 1019.42118 
L 935.043143 1019.42118 
L 935.253875 1017.173526 
L 935.886069 1017.173526 
L 936.096801 1002.253096 
L 936.728995 1002.253096 
L 936.939726 990.858622 
L 937.571921 990.858622 
L 937.782652 965.60615 
L 938.414846 965.60615 
L 938.625578 943.390923 
L 939.257772 943.390923 
L 939.468504 925.881052 
L 940.100698 925.881052 
L 940.311429 904.348958 
L 940.943624 904.348958 
L 941.154355 878.197192 
L 941.786549 878.197192 
L 941.997281 866.501426 
L 942.629475 866.501426 
L 942.840207 850.303504 
L 945.158253 850.303504 
L 945.368984 846.646674 
L 946.001178 846.646674 
L 946.21191 839.085141 
L 946.844104 839.085141 
L 947.054835 844.303474 
L 947.68703 844.303474 
L 947.897761 846.785496 
L 948.529956 846.785496 
L 948.740687 851.941451 
L 949.372881 851.941451 
L 949.583613 854.602832 
L 950.215807 854.602832 
L 950.426539 857.021188 
L 951.058733 857.021188 
L 951.269464 849.570798 
L 952.744584 849.570798 
L 952.955316 844.504372 
L 953.58751 844.504372 
L 953.798242 842.170221 
L 954.430436 842.170221 
L 954.641167 834.85073 
L 955.273362 834.85073 
L 955.484093 820.412292 
L 956.116288 820.412292 
L 956.327019 813.499256 
L 956.959213 813.499256 
L 957.169945 807.489287 
L 957.802139 807.489287 
L 958.01287 803.598491 
L 958.645065 803.598491 
L 958.855796 797.207898 
L 959.487991 797.207898 
L 959.698722 803.535377 
L 960.330916 803.535377 
L 960.541648 817.710421 
L 961.173842 817.710421 
L 961.384574 813.267349 
L 962.016768 813.267349 
L 962.227499 801.077157 
L 962.859694 801.077157 
L 963.070425 790.734168 
L 963.702619 790.734168 
L 963.913351 792.227769 
L 964.545545 792.227769 
L 964.756277 782.404834 
L 965.388471 782.404834 
L 965.599202 773.963708 
L 966.231397 773.963708 
L 966.442128 772.595506 
L 967.917248 772.545479 
L 968.12798 773.87373 
L 968.760174 773.87373 
L 968.970905 771.274595 
L 969.6031 771.274595 
L 969.813831 763.161149 
L 970.446026 763.161149 
L 970.656757 764.379503 
L 971.288951 764.379503 
L 971.499683 761.619195 
L 972.131877 761.619195 
L 972.342609 753.713822 
L 972.974803 753.713822 
L 973.185534 748.635702 
L 973.817729 748.635702 
L 974.02846 743.598472 
L 974.660654 743.598472 
L 974.871386 740.855662 
L 975.50358 740.855662 
L 975.714312 739.227224 
L 977.189432 739.227224 
L 977.400163 749.07617 
L 978.032357 749.07617 
L 978.243089 753.927228 
L 978.875283 753.927228 
L 979.086015 752.201338 
L 979.718209 752.201338 
L 979.92894 755.904895 
L 980.561135 755.904895 
L 980.771866 756.822406 
L 981.404061 756.822406 
L 981.614792 766.862685 
L 982.246986 766.862685 
L 982.457718 768.77964 
L 983.089912 768.77964 
L 983.300644 776.801982 
L 983.932838 776.801982 
L 984.143569 776.410678 
L 984.775764 776.410678 
L 984.986495 768.595566 
L 985.618689 768.595566 
L 985.829421 763.593958 
L 986.461615 763.593958 
L 986.672347 762.854515 
L 987.304541 762.854515 
L 987.515272 758.661025 
L 988.147467 758.661025 
L 988.358198 751.745822 
L 988.990392 751.745822 
L 989.201124 754.515655 
L 989.833318 754.515655 
L 990.04405 757.280886 
L 990.676244 757.280886 
L 990.886975 756.622372 
L 991.51917 756.622372 
L 991.729901 753.847891 
L 992.362096 753.847891 
L 992.572827 746.404528 
L 993.205021 746.404528 
L 993.415753 741.786084 
L 994.890873 741.786084 
L 995.101604 737.832006 
L 995.733799 737.832006 
L 995.94453 742.308687 
L 996.576724 742.308687 
L 996.787456 750.000386 
L 997.41965 750.000386 
L 997.630382 752.276165 
L 998.262576 752.276165 
L 998.473307 751.815673 
L 999.105502 751.815673 
L 999.316233 750.920913 
L 999.948427 750.920913 
L 1000.159159 752.860304 
L 1000.791353 752.860304 
L 1001.002085 745.760114 
L 1001.634279 745.760114 
L 1001.84501 728.328465 
L 1002.477205 728.328465 
L 1002.687936 718.052852 
L 1003.320131 718.052852 
L 1003.530862 704.53944 
L 1004.163056 704.53944 
L 1004.373788 690.938504 
L 1005.005982 690.938504 
L 1005.216713 678.055928 
L 1005.848908 678.055928 
L 1006.059639 671.328237 
L 1006.691834 671.328237 
L 1006.902565 661.909477 
L 1007.534759 661.909477 
L 1007.745491 649.216734 
L 1008.377685 649.216734 
L 1008.588417 642.947709 
L 1009.220611 642.947709 
L 1009.431342 633.644357 
L 1010.063537 633.644357 
L 1010.274268 636.867053 
L 1010.906462 636.867053 
L 1011.117194 631.316684 
L 1011.749388 631.316684 
L 1011.96012 640.284556 
L 1012.592314 640.284556 
L 1012.803045 640.537406 
L 1013.43524 640.537406 
L 1013.645971 640.746723 
L 1014.278166 640.746723 
L 1014.488897 638.0692 
L 1015.964017 638.162129 
L 1016.174748 638.331806 
L 1016.806943 638.331806 
L 1017.017674 647.05426 
L 1017.649869 647.05426 
L 1017.8606 652.727189 
L 1018.492794 652.727189 
L 1018.703526 655.50243 
L 1019.33572 655.50243 
L 1019.546452 652.722626 
L 1020.178646 652.722626 
L 1020.389377 649.830758 
L 1021.021572 649.830758 
L 1021.232303 644.170756 
L 1021.864497 644.170756 
L 1022.075229 638.575394 
L 1023.550349 638.564166 
L 1023.76108 641.380059 
L 1024.393275 641.380059 
L 1024.604006 638.658909 
L 1025.2362 638.658909 
L 1025.446932 635.953848 
L 1026.922052 636.052069 
L 1027.132783 647.062006 
L 1027.764978 647.062006 
L 1027.975709 649.89141 
L 1028.607904 649.89141 
L 1028.818635 642.302272 
L 1029.450829 642.302272 
L 1029.661561 645.17465 
L 1030.293755 645.17465 
L 1030.504487 648.27227 
L 1031.136681 648.27227 
L 1031.347412 645.616477 
L 1031.979607 645.616477 
L 1032.190338 645.862891 
L 1032.822532 645.862891 
L 1033.033264 649.338379 
L 1033.665458 649.338379 
L 1033.87619 650.286874 
L 1035.35131 650.288684 
L 1035.562041 642.49516 
L 1036.194235 642.49516 
L 1036.404967 637.319373 
L 1037.037161 637.319373 
L 1037.247893 634.734055 
L 1037.880087 634.734055 
L 1038.090818 629.572164 
L 1038.723013 629.572164 
L 1038.933744 626.995577 
L 1039.565939 626.995577 
L 1039.77667 624.420664 
L 1040.408864 624.420664 
L 1040.619596 619.275755 
L 1041.25179 619.275755 
L 1041.462522 614.137238 
L 1042.094716 614.137238 
L 1042.305447 609.004939 
L 1042.937642 609.004939 
L 1043.148373 606.441087 
L 1043.780567 606.441087 
L 1043.991299 598.772628 
L 1044.623493 598.772628 
L 1044.834225 593.67685 
L 1045.466419 593.67685 
L 1045.67715 591.13115 
L 1047.15227 591.13115 
L 1047.363002 588.586892 
L 1047.995196 588.586892 
L 1048.205928 580.970962 
L 1048.838122 580.970962 
L 1049.048853 573.382786 
L 1049.681048 573.382786 
L 1049.891779 565.825333 
L 1050.523974 565.825333 
L 1050.734705 560.802682 
L 1051.366899 560.802682 
L 1051.577631 553.293556 
L 1052.209825 553.293556 
L 1052.420557 561.9623 
L 1053.052751 561.9623 
L 1053.263482 568.760003 
L 1053.895677 568.760003 
L 1054.106408 570.662477 
L 1054.738602 570.662477 
L 1054.949334 572.624875 
L 1055.581528 572.624875 
L 1055.79226 578.855175 
L 1057.26738 578.869736 
L 1057.478111 576.934155 
L 1058.110305 576.934155 
L 1058.321037 580.073975 
L 1058.953231 580.073975 
L 1059.163963 577.569051 
L 1059.796157 577.569051 
L 1060.006888 579.153633 
L 1060.639083 579.153633 
L 1060.849814 569.652501 
L 1061.482009 569.652501 
L 1061.69274 560.188379 
L 1062.324934 560.188379 
L 1062.535666 550.758266 
L 1063.16786 550.758266 
L 1063.378591 543.717873 
L 1064.010786 543.717873 
L 1064.221517 536.704549 
L 1064.853712 536.704549 
L 1065.064443 532.04029 
L 1065.696637 532.04029 
L 1065.907369 525.062445 
L 1066.539563 525.062445 
L 1066.750295 522.741581 
L 1067.382489 522.741581 
L 1067.59322 518.108439 
L 1068.225415 518.108439 
L 1068.436146 513.486689 
L 1069.06834 513.486689 
L 1069.279072 514.430847 
L 1069.911266 514.430847 
L 1070.121998 522.298136 
L 1071.597118 522.295483 
L 1071.807849 520.972755 
L 1073.282969 520.972755 
L 1073.493701 517.361939 
L 1075.811747 517.361939 
L 1076.022478 519.653733 
L 1078.340524 519.653733 
L 1078.551255 517.364509 
L 1080.026375 517.364509 
L 1080.237107 518.362241 
L 1080.869301 518.362241 
L 1081.080033 521.652609 
L 1081.712227 521.652609 
L 1081.922958 520.400962 
L 1082.555153 520.400962 
L 1082.765884 525.976512 
L 1083.398078 525.976512 
L 1083.60881 531.372742 
L 1084.241004 531.372742 
L 1084.451736 534.690341 
L 1085.08393 534.690341 
L 1085.294661 538.00797 
L 1085.926856 538.00797 
L 1086.137587 535.751717 
L 1086.769782 535.751717 
L 1086.980513 531.243594 
L 1087.612707 531.243594 
L 1087.823439 526.74498 
L 1088.455633 526.74498 
L 1088.666365 520.009317 
L 1089.298559 520.009317 
L 1089.50929 517.767907 
L 1090.141485 517.767907 
L 1090.352216 515.52883 
L 1090.98441 515.52883 
L 1091.195142 513.292002 
L 1091.827336 513.292002 
L 1092.038068 511.057395 
L 1093.513188 511.057395 
L 1093.723919 506.593562 
L 1094.356113 506.593562 
L 1094.566845 504.364324 
L 1095.199039 504.364324 
L 1095.409771 506.592585 
L 1096.041965 506.592585 
L 1096.252696 507.73015 
L 1096.884891 507.73015 
L 1097.095622 506.64911 
L 1097.727817 506.64911 
L 1097.938548 504.428397 
L 1098.570742 504.428397 
L 1098.781474 506.648155 
L 1099.413668 506.648155 
L 1099.6244 504.430518 
L 1100.256594 504.430518 
L 1100.467325 502.215124 
L 1101.09952 502.215124 
L 1101.310251 495.581677 
L 1101.942445 495.581677 
L 1102.153177 496.759128 
L 1102.785371 496.759128 
L 1102.996103 490.152523 
L 1103.628297 490.152523 
L 1103.839028 481.368795 
L 1104.471223 481.368795 
L 1104.681954 479.177866 
L 1105.314148 479.177866 
L 1105.52488 474.802168 
L 1106.157074 474.802168 
L 1106.367806 468.247971 
L 1107 468.247971 
L 1107.210731 463.887656 
L 1107.842926 463.887656 
L 1108.053657 459.532899 
L 1108.685852 459.532899 
L 1108.896583 450.845595 
L 1109.528777 450.845595 
L 1109.739509 444.348306 
L 1110.371703 444.348306 
L 1110.582435 440.022894 
L 1111.214629 440.022894 
L 1111.42536 436.971106 
L 1112.057555 436.971106 
L 1112.268286 436.08667 
L 1112.90048 436.08667 
L 1113.111212 439.52049 
L 1113.743406 439.52049 
L 1113.954138 437.786 
L 1114.586332 437.786 
L 1114.797063 434.778153 
L 1115.429258 434.778153 
L 1115.639989 438.219229 
L 1117.115109 438.219229 
L 1117.325841 437.37596 
L 1117.958035 437.37596 
L 1118.168766 436.537223 
L 1118.800961 436.537223 
L 1119.011692 434.394897 
L 1119.643887 434.394897 
L 1119.854618 432.254243 
L 1122.172664 432.254243 
L 1122.383395 434.393075 
L 1123.01559 434.393075 
L 1123.226321 433.574797 
L 1123.858515 433.574797 
L 1124.069247 432.761753 
L 1124.701441 432.761753 
L 1124.912173 430.627842 
L 1125.544367 430.627842 
L 1125.755098 428.495554 
L 1127.230218 428.495554 
L 1127.44095 430.626058 
L 1128.073144 430.626058 
L 1128.283876 426.368518 
L 1128.91607 426.368518 
L 1129.126801 424.241477 
L 1129.758996 424.241477 
L 1129.969727 419.989908 
L 1131.444847 419.989908 
L 1131.655579 417.866275 
L 1132.287773 417.866275 
L 1132.498504 413.623018 
L 1133.130699 413.623018 
L 1133.34143 411.503386 
L 1133.973625 411.503386 
L 1134.184356 409.385454 
L 1134.81655 409.385454 
L 1135.027282 407.26909 
L 1135.659476 407.26909 
L 1135.870208 403.041148 
L 1136.502402 403.041148 
L 1136.713133 404.405381 
L 1137.345328 404.405381 
L 1137.556059 405.043134 
L 1138.188253 405.043134 
L 1138.398985 404.311758 
L 1139.031179 404.311758 
L 1139.241911 402.206419 
L 1139.874105 402.206419 
L 1140.084836 407.793983 
L 1140.717031 407.793983 
L 1140.927762 409.894479 
L 1141.559956 409.894479 
L 1141.770688 411.289912 
L 1142.402882 411.289912 
L 1142.613614 409.891626 
L 1143.245808 409.891626 
L 1143.456539 415.482758 
L 1144.088734 415.482758 
L 1144.299465 414.792266 
L 1145.774585 414.792266 
L 1145.985317 412.016932 
L 1149.146288 412.016932 
L 1149.35702 414.106157 
L 1150.83214 414.106157 
L 1151.042871 412.018356 
L 1151.675066 412.018356 
L 1151.885797 409.931967 
L 1152.517991 409.931967 
L 1152.728723 409.267601 
L 1153.360917 409.267601 
L 1153.571649 406.527069 
L 1154.203843 406.527069 
L 1154.414574 405.878422 
L 1155.046769 405.878422 
L 1155.2575 407.956649 
L 1155.889695 407.956649 
L 1156.100426 405.879794 
L 1156.73262 405.879794 
L 1156.943352 407.318194 
L 1157.575546 407.318194 
L 1157.786278 402.5399 
L 1158.418472 402.5399 
L 1158.629203 400.46787 
L 1159.261398 400.46787 
L 1159.472129 398.39717 
L 1160.104323 398.39717 
L 1160.315055 396.32722 
L 1160.947249 396.32722 
L 1161.157981 394.258593 
L 1161.790175 394.258593 
L 1162.000906 392.191456 
L 1163.476026 392.191456 
L 1163.686758 395.716244 
L 1164.318952 395.716244 
L 1164.529684 391.587394 
L 1166.004804 391.587394 
L 1166.215535 393.650432 
L 1166.84773 393.650432 
L 1167.058461 389.528555 
L 1167.690655 389.528555 
L 1167.901387 387.469699 
L 1168.533581 387.469699 
L 1168.744313 385.412268 
L 1169.376507 385.412268 
L 1169.587238 383.356114 
L 1170.219433 383.356114 
L 1170.430164 384.840381 
L 1171.062358 384.840381 
L 1171.27309 386.325761 
L 1171.905284 386.325761 
L 1172.116016 384.273013 
L 1174.434061 384.273013 
L 1174.644793 386.324506 
L 1175.276987 386.324506 
L 1175.487719 385.766609 
L 1176.119913 385.766609 
L 1176.330644 389.312202 
L 1176.962839 389.312202 
L 1177.17357 391.357886 
L 1177.805765 391.357886 
L 1178.016496 394.908907 
L 1178.64869 394.908907 
L 1178.859422 390.823892 
L 1179.491616 390.823892 
L 1179.702348 386.21621 
L 1180.334542 386.21621 
L 1180.545273 382.143561 
L 1181.177468 382.143561 
L 1181.388199 380.109064 
L 1182.020393 380.109064 
L 1182.231125 378.075723 
L 1182.863319 378.075723 
L 1183.074051 377.572448 
L 1183.706245 377.572448 
L 1183.916976 373.015693 
L 1184.549171 373.015693 
L 1184.759902 375.043583 
L 1185.392096 375.043583 
L 1185.602828 370.991349 
L 1187.077948 370.991349 
L 1187.288679 370.507964 
L 1188.7638 370.507964 
L 1188.974531 368.4849 
L 1190.449651 368.4849 
L 1190.660382 368.007539 
L 1192.135503 368.007539 
L 1192.346234 365.986864 
L 1192.978428 365.986864 
L 1193.18916 363.967284 
L 1193.821354 363.967284 
L 1194.032086 365.986166 
L 1194.66428 365.986166 
L 1194.875011 363.968366 
L 1195.507206 363.968366 
L 1195.717937 361.951638 
L 1196.350131 361.951638 
L 1196.560863 359.936182 
L 1198.035983 359.936182 
L 1198.246714 359.483322 
L 1201.407686 359.483194 
L 1201.618417 355.468755 
L 1202.250612 355.468755 
L 1202.461343 357.474777 
L 1203.093538 357.474777 
L 1203.304269 353.465795 
L 1203.936463 353.465795 
L 1204.147195 349.461265 
L 1204.779389 349.461265 
L 1204.990121 347.460512 
L 1205.622315 347.460512 
L 1205.833046 346.65196 
L 1206.465241 346.65196 
L 1206.675972 344.654189 
L 1207.308166 344.654189 
L 1207.518898 346.651288 
L 1208.151092 346.651288 
L 1208.361824 350.246689 
L 1208.994018 350.246689 
L 1209.204749 348.251441 
L 1209.836944 348.251441 
L 1210.047675 350.246027 
L 1211.522795 350.246027 
L 1211.733527 352.239954 
L 1213.208647 352.239299 
L 1213.419378 353.850579 
L 1214.051573 353.850579 
L 1214.262304 349.869288 
L 1214.894498 349.869288 
L 1215.10523 347.880092 
L 1216.58035 347.880092 
L 1216.791081 345.892041 
L 1217.423276 345.892041 
L 1217.634007 347.879442 
L 1219.109127 347.879442 
L 1219.319859 345.892998 
L 1219.952053 345.892998 
L 1220.162784 345.532922 
L 1223.323756 345.532922 
L 1223.534487 343.548737 
L 1224.166682 343.548737 
L 1224.377413 345.175259 
L 1225.009608 345.175259 
L 1225.220339 343.192195 
L 1225.852533 343.192195 
L 1226.063265 342.839777 
L 1226.695459 342.839777 
L 1226.906191 340.858773 
L 1228.381311 340.858773 
L 1228.592042 336.899912 
L 1229.224236 336.899912 
L 1229.434968 338.878234 
L 1230.067162 338.878234 
L 1230.277894 336.563825 
L 1230.910088 336.563825 
L 1231.120819 334.591385 
L 1231.753014 334.591385 
L 1231.963745 332.618783 
L 1232.595939 332.618783 
L 1232.806671 332.295189 
L 1233.438865 332.295189 
L 1233.649597 331.975889 
L 1234.281791 331.975889 
L 1234.492522 335.598761 
L 1235.124717 335.598761 
L 1235.335448 333.315429 
L 1236.810568 333.315429 
L 1237.0213 331.348142 
L 1237.653494 331.348142 
L 1237.864226 334.971802 
L 1238.49642 334.971802 
L 1238.707151 333.006182 
L 1239.339346 333.006182 
L 1239.550077 331.041605 
L 1240.182271 331.041605 
L 1240.393003 333.005574 
L 1241.025197 333.005574 
L 1241.235929 332.706663 
L 1242.711049 332.706663 
L 1242.92178 332.411624 
L 1243.553974 332.411624 
L 1243.764706 330.45032 
L 1244.3969 330.45032 
L 1244.607632 328.490043 
L 1246.082752 328.490043 
L 1246.293483 326.530646 
L 1247.768603 326.530646 
L 1247.979335 328.489443 
L 1248.611529 328.489443 
L 1248.82226 326.531658 
L 1249.454455 326.531658 
L 1249.665186 328.488846 
L 1251.140306 328.488846 
L 1251.351038 330.44485 
L 1252.826158 330.445702 
L 1253.036889 326.27691 
L 1253.669084 326.27691 
L 1253.879815 326.019883 
L 1254.512009 326.019883 
L 1254.722741 325.764853 
L 1255.354935 325.764853 
L 1255.565667 323.81683 
L 1257.040787 323.816252 
L 1257.251518 325.516402 
L 1257.883712 325.516402 
L 1258.094444 323.572169 
L 1258.726638 323.572169 
L 1258.93737 321.393403 
L 1259.569564 321.393403 
L 1259.780295 315.571089 
L 1260.41249 315.571089 
L 1260.623221 311.694057 
L 1261.255416 311.694057 
L 1261.466147 309.756745 
L 1262.098341 309.756745 
L 1262.309073 307.820232 
L 1262.941267 307.820232 
L 1263.151999 307.605148 
L 1263.784193 307.605148 
L 1263.994924 307.392126 
L 1264.627119 307.392126 
L 1264.83785 309.326352 
L 1267.155896 309.327269 
L 1267.366627 307.395312 
L 1269.684673 307.394754 
L 1269.895405 305.465153 
L 1270.527599 305.465153 
L 1270.73833 307.198746 
L 1271.370525 307.198746 
L 1271.581256 303.342108 
L 1273.899302 303.342882 
L 1274.110034 299.492212 
L 1274.742228 299.492212 
L 1274.952959 293.722606 
L 1275.585154 293.722606 
L 1275.795885 289.880315 
L 1276.428079 289.880315 
L 1276.638811 286.041437 
L 1278.113931 286.041437 
L 1278.324662 282.923623 
L 1279.799782 282.923623 
L 1280.010514 280.853668 
L 1280.642708 280.853668 
L 1280.85344 278.939298 
L 1281.485634 278.939298 
L 1281.696365 277.02566 
L 1283.171486 277.025114 
L 1283.382217 282.616543 
L 1284.014411 282.616543 
L 1284.225143 280.705977 
L 1284.857337 280.705977 
L 1285.068069 278.796131 
L 1285.700263 278.796131 
L 1285.910994 276.886998 
L 1286.543189 276.886998 
L 1286.75392 278.660915 
L 1287.386114 278.660915 
L 1287.596846 276.752493 
L 1288.22904 276.752493 
L 1288.439772 274.844778 
L 1289.071966 274.844778 
L 1289.282697 276.75196 
L 1289.914892 276.75196 
L 1290.125623 274.845478 
L 1291.600743 274.845478 
L 1292.022206 274.718905 
L 1292.443669 274.718905 
L 1292.6544 272.813937 
L 1293.286595 272.813937 
L 1293.497326 270.909778 
L 1294.129521 270.909778 
L 1294.340252 269.006313 
L 1294.972446 269.006313 
L 1295.183178 267.103648 
L 1296.658298 267.103648 
L 1296.869029 265.201673 
L 1297.501224 265.201673 
L 1297.711955 267.10312 
L 1298.344149 267.10312 
L 1298.554881 263.194988 
L 1300.872927 263.194463 
L 1301.083658 261.297043 
L 1301.715852 261.297043 
L 1301.926584 257.504438 
L 1302.558778 257.504438 
L 1302.76951 255.609134 
L 1304.24463 255.516527 
L 1304.455361 257.410649 
L 1305.087556 257.410649 
L 1305.298287 255.517185 
L 1305.930481 255.517185 
L 1306.141213 253.624375 
L 1306.773407 253.624375 
L 1306.984138 255.516667 
L 1307.616333 255.516667 
L 1307.827064 257.325461 
L 1308.459259 257.325461 
L 1308.66999 259.13477 
L 1309.302184 259.13477 
L 1309.512916 257.244407 
L 1310.14511 257.244407 
L 1310.355842 255.354692 
L 1311.830962 255.354692 
L 1312.041693 253.465739 
L 1312.673887 253.465739 
L 1312.884619 249.689754 
L 1313.516813 249.689754 
L 1313.727545 247.802833 
L 1314.359739 247.802833 
L 1314.57047 245.91666 
L 1315.202665 245.91666 
L 1315.413396 247.802324 
L 1316.045591 247.802324 
L 1316.256322 245.917405 
L 1316.888516 245.917405 
L 1317.099248 244.033226 
L 1318.574368 244.033226 
L 1318.785099 240.266749 
L 1319.417294 240.266749 
L 1319.628025 236.502751 
L 1320.260219 236.502751 
L 1320.470951 234.621674 
L 1321.103145 234.621674 
L 1321.313877 232.741208 
L 1321.946071 232.741208 
L 1322.156802 232.602852 
L 1322.788997 232.602852 
L 1322.999728 230.724941 
L 1325.317774 230.72554 
L 1325.528505 228.849453 
L 1327.003625 228.850172 
L 1327.214357 226.945349 
L 1327.846551 226.945349 
L 1328.057283 223.2 
L 1328.689477 223.2 
L 1328.900208 228.792248 
L 1329.532403 228.792248 
L 1329.743134 226.902315 
L 1330.375329 226.902315 
L 1330.58606 225.032789 
L 1330.796791 225.032789 
L 1330.796791 225.032789 
" clip-path="url(#pef80f42d37)" style="fill: none; stroke: #0000ff; stroke-width: 1.5; stroke-linecap: square"/>
   </g>
   <g id="patch_9">
    <path d="M 860.823529 1281.6 
L 860.823529 172.8 
" style="fill: none; stroke: #000000; stroke-width: 0.8; stroke-linejoin: miter; stroke-linecap: square"/>
   </g>
   <g id="patch_10">
    <path d="M 1353.176471 1281.6 
L 1353.176471 172.8 
" style="fill: none; stroke: #000000; stroke-width: 0.8; stroke-linejoin: miter; stroke-linecap: square"/>
   </g>
   <g id="patch_11">
    <path d="M 860.823529 1281.6 
L 1353.176471 1281.6 
" style="fill: none; stroke: #000000; stroke-width: 0.8; stroke-linejoin: miter; stroke-linecap: square"/>
   </g>
   <g id="patch_12">
    <path d="M 860.823529 172.8 
L 1353.176471 172.8 
" style="fill: none; stroke: #000000; stroke-width: 0.8; stroke-linejoin: miter; stroke-linecap: square"/>
   </g>
   <g id="legend_2">
    <g id="patch_13">
     <path d="M 1262.134283 195.478125 
L 1346.176471 195.478125 
Q 1348.176471 195.478125 1348.176471 193.478125 
L 1348.176471 179.8 
Q 1348.176471 177.8 1346.176471 177.8 
L 1262.134283 177.8 
Q 1260.134283 177.8 1260.134283 179.8 
L 1260.134283 193.478125 
Q 1260.134283 195.478125 1262.134283 195.478125 
z
" style="fill: #ffffff; opacity: 0.8; stroke: #cccccc; stroke-linejoin: miter"/>
    </g>
    <g id="line2d_26">
     <path d="M 1264.134283 185.898437 
L 1274.134283 185.898437 
L 1284.134283 185.898437 
" style="fill: none; stroke: #0000ff; stroke-width: 1.5; stroke-linecap: square"/>
    </g>
    <g id="text_24">
     <!-- O2 reward -->
     <g transform="translate(1292.134283 189.398437) scale(0.1 -0.1)">
      <use xlink:href="#DejaVuSans-4f"/>
      <use xlink:href="#DejaVuSans-32" x="78.710938"/>
      <use xlink:href="#DejaVuSans-20" x="142.333984"/>
      <use xlink:href="#DejaVuSans-72" x="174.121094"/>
      <use xlink:href="#DejaVuSans-65" x="212.984375"/>
      <use xlink:href="#DejaVuSans-77" x="274.507812"/>
      <use xlink:href="#DejaVuSans-61" x="356.294922"/>
      <use xlink:href="#DejaVuSans-72" x="417.574219"/>
      <use xlink:href="#DejaVuSans-64" x="456.9375"/>
     </g>
    </g>
   </g>
  </g>
  <g id="axes_3">
   <g id="patch_14">
    <path d="M 1451.647059 1281.6 
L 1944 1281.6 
L 1944 172.8 
L 1451.647059 172.8 
z
" style="fill: #ffffff"/>
   </g>
   <g id="matplotlib.axis_5">
    <g id="xtick_11">
     <g id="line2d_27">
      <g>
       <use xlink:href="#m6d5d63593e" x="1473.816007" y="1281.6" style="stroke: #000000; stroke-width: 0.8"/>
      </g>
     </g>
     <g id="text_25">
      <!-- 0 -->
      <g transform="translate(1470.634757 1296.198437) scale(0.1 -0.1)">
       <use xlink:href="#DejaVuSans-30"/>
      </g>
     </g>
    </g>
    <g id="xtick_12">
     <g id="line2d_28">
      <g>
       <use xlink:href="#m6d5d63593e" x="1579.181728" y="1281.6" style="stroke: #000000; stroke-width: 0.8"/>
      </g>
     </g>
     <g id="text_26">
      <!-- 500 -->
      <g transform="translate(1569.637978 1296.198437) scale(0.1 -0.1)">
       <use xlink:href="#DejaVuSans-35"/>
       <use xlink:href="#DejaVuSans-30" x="63.623047"/>
       <use xlink:href="#DejaVuSans-30" x="127.246094"/>
      </g>
     </g>
    </g>
    <g id="xtick_13">
     <g id="line2d_29">
      <g>
       <use xlink:href="#m6d5d63593e" x="1684.547449" y="1281.6" style="stroke: #000000; stroke-width: 0.8"/>
      </g>
     </g>
     <g id="text_27">
      <!-- 1000 -->
      <g transform="translate(1671.822449 1296.198437) scale(0.1 -0.1)">
       <use xlink:href="#DejaVuSans-31"/>
       <use xlink:href="#DejaVuSans-30" x="63.623047"/>
       <use xlink:href="#DejaVuSans-30" x="127.246094"/>
       <use xlink:href="#DejaVuSans-30" x="190.869141"/>
      </g>
     </g>
    </g>
    <g id="xtick_14">
     <g id="line2d_30">
      <g>
       <use xlink:href="#m6d5d63593e" x="1789.91317" y="1281.6" style="stroke: #000000; stroke-width: 0.8"/>
      </g>
     </g>
     <g id="text_28">
      <!-- 1500 -->
      <g transform="translate(1777.18817 1296.198437) scale(0.1 -0.1)">
       <use xlink:href="#DejaVuSans-31"/>
       <use xlink:href="#DejaVuSans-35" x="63.623047"/>
       <use xlink:href="#DejaVuSans-30" x="127.246094"/>
       <use xlink:href="#DejaVuSans-30" x="190.869141"/>
      </g>
     </g>
    </g>
    <g id="xtick_15">
     <g id="line2d_31">
      <g>
       <use xlink:href="#m6d5d63593e" x="1895.278891" y="1281.6" style="stroke: #000000; stroke-width: 0.8"/>
      </g>
     </g>
     <g id="text_29">
      <!-- 2000 -->
      <g transform="translate(1882.553891 1296.198437) scale(0.1 -0.1)">
       <use xlink:href="#DejaVuSans-32"/>
       <use xlink:href="#DejaVuSans-30" x="63.623047"/>
       <use xlink:href="#DejaVuSans-30" x="127.246094"/>
       <use xlink:href="#DejaVuSans-30" x="190.869141"/>
      </g>
     </g>
    </g>
   </g>
   <g id="matplotlib.axis_6">
    <g id="ytick_13">
     <g id="line2d_32">
      <g>
       <use xlink:href="#mf006bded20" x="1451.647059" y="1231.2" style="stroke: #000000; stroke-width: 0.8"/>
      </g>
     </g>
     <g id="text_30">
      <!-- 0 -->
      <g transform="translate(1438.284559 1234.999219) scale(0.1 -0.1)">
       <use xlink:href="#DejaVuSans-30"/>
      </g>
     </g>
    </g>
    <g id="ytick_14">
     <g id="line2d_33">
      <g>
       <use xlink:href="#mf006bded20" x="1451.647059" y="1001.942811" style="stroke: #000000; stroke-width: 0.8"/>
      </g>
     </g>
     <g id="text_31">
      <!-- 5 -->
      <g transform="translate(1438.284559 1005.74203) scale(0.1 -0.1)">
       <use xlink:href="#DejaVuSans-35"/>
      </g>
     </g>
    </g>
    <g id="ytick_15">
     <g id="line2d_34">
      <g>
       <use xlink:href="#mf006bded20" x="1451.647059" y="772.685622" style="stroke: #000000; stroke-width: 0.8"/>
      </g>
     </g>
     <g id="text_32">
      <!-- 10 -->
      <g transform="translate(1431.922059 776.484841) scale(0.1 -0.1)">
       <use xlink:href="#DejaVuSans-31"/>
       <use xlink:href="#DejaVuSans-30" x="63.623047"/>
      </g>
     </g>
    </g>
    <g id="ytick_16">
     <g id="line2d_35">
      <g>
       <use xlink:href="#mf006bded20" x="1451.647059" y="543.428433" style="stroke: #000000; stroke-width: 0.8"/>
      </g>
     </g>
     <g id="text_33">
      <!-- 15 -->
      <g transform="translate(1431.922059 547.227652) scale(0.1 -0.1)">
       <use xlink:href="#DejaVuSans-31"/>
       <use xlink:href="#DejaVuSans-35" x="63.623047"/>
      </g>
     </g>
    </g>
    <g id="ytick_17">
     <g id="line2d_36">
      <g>
       <use xlink:href="#mf006bded20" x="1451.647059" y="314.171244" style="stroke: #000000; stroke-width: 0.8"/>
      </g>
     </g>
     <g id="text_34">
      <!-- 20 -->
      <g transform="translate(1431.922059 317.970463) scale(0.1 -0.1)">
       <use xlink:href="#DejaVuSans-32"/>
       <use xlink:href="#DejaVuSans-30" x="63.623047"/>
      </g>
     </g>
    </g>
   </g>
   <g id="line2d_37">
    <path d="M 1474.026738 1231.2 
L 1482.877459 1231.2 
L 1483.08819 1213.317812 
L 1483.720384 1213.317812 
L 1483.931116 1199.02866 
L 1484.56331 1199.02866 
L 1484.774042 1186.87439 
L 1485.406236 1186.87439 
L 1485.616967 1168.861325 
L 1486.249162 1168.861325 
L 1486.459893 1162.804039 
L 1487.092087 1162.804039 
L 1487.302819 1139.222197 
L 1487.935013 1139.222197 
L 1488.145745 1146.073668 
L 1488.777939 1146.073668 
L 1488.98867 1132.653245 
L 1489.620865 1132.653245 
L 1489.831596 1119.420931 
L 1490.46379 1119.420931 
L 1490.674522 1110.444808 
L 1491.306716 1110.444808 
L 1491.517448 1095.242528 
L 1492.149642 1095.242528 
L 1492.360373 1080.972306 
L 1492.992568 1080.972306 
L 1493.203299 1072.129421 
L 1494.678419 1072.129421 
L 1494.889151 1068.23686 
L 1495.521345 1068.23686 
L 1495.732076 1059.713196 
L 1496.364271 1059.713196 
L 1496.575002 1054.966305 
L 1498.050122 1054.966305 
L 1498.260854 1051.42269 
L 1498.893048 1051.42269 
L 1499.10378 1043.659484 
L 1500.5789 1043.659484 
L 1500.789631 1040.407453 
L 1501.421825 1040.407453 
L 1501.632557 1026.698003 
L 1502.264751 1026.698003 
L 1502.475483 1007.460988 
L 1503.107677 1007.460988 
L 1503.318408 993.984246 
L 1503.950603 993.984246 
L 1504.161334 985.016572 
L 1504.793529 985.016572 
L 1505.00426 960.001399 
L 1505.636454 960.001399 
L 1505.847186 947.555794 
L 1506.47938 947.555794 
L 1506.690111 943.64876 
L 1507.322306 943.64876 
L 1507.533037 931.463403 
L 1508.165232 931.463403 
L 1508.375963 923.3479 
L 1509.008157 923.3479 
L 1509.218889 916.422757 
L 1509.851083 916.422757 
L 1510.061815 904.316717 
L 1510.694009 904.316717 
L 1510.90474 899.38366 
L 1511.536935 899.38366 
L 1511.747666 888.3549 
L 1513.222786 888.275904 
L 1513.433518 891.395065 
L 1514.065712 891.395065 
L 1514.276443 893.327307 
L 1514.908638 893.327307 
L 1515.119369 888.802105 
L 1515.751563 888.802105 
L 1515.962295 890.70094 
L 1516.594489 890.70094 
L 1516.805221 888.042243 
L 1517.437415 888.042243 
L 1517.648146 891.027741 
L 1518.280341 891.027741 
L 1518.491072 888.227983 
L 1519.966192 888.227983 
L 1520.176924 885.374812 
L 1520.809118 885.374812 
L 1521.01985 876.952449 
L 1521.652044 876.952449 
L 1521.862775 869.648358 
L 1522.49497 869.648358 
L 1522.705701 874.104507 
L 1523.337895 874.104507 
L 1523.548627 875.888802 
L 1525.866673 875.888802 
L 1526.077404 867.577906 
L 1526.709598 867.577906 
L 1526.92033 851.941947 
L 1527.552524 851.941947 
L 1527.763256 844.359543 
L 1528.39545 844.359543 
L 1528.606181 839.00282 
L 1529.238376 839.00282 
L 1529.449107 835.491181 
L 1530.081302 835.491181 
L 1530.292033 827.10496 
L 1530.924227 827.10496 
L 1531.134959 821.478501 
L 1531.767153 821.478501 
L 1531.977885 817.111822 
L 1532.610079 817.111822 
L 1532.82081 808.173167 
L 1533.453005 808.173167 
L 1533.663736 802.879749 
L 1534.29593 802.879749 
L 1534.506662 795.576764 
L 1535.138856 795.576764 
L 1535.349588 793.571157 
L 1535.981782 793.571157 
L 1536.192513 785.333477 
L 1536.824708 785.333477 
L 1537.035439 778.507858 
L 1537.667633 778.507858 
L 1537.878365 771.802635 
L 1538.510559 771.802635 
L 1538.721291 765.364293 
L 1540.196411 765.364293 
L 1540.407142 760.88832 
L 1541.039337 760.88832 
L 1541.250068 757.002038 
L 1541.882262 757.002038 
L 1542.092994 758.82416 
L 1542.725188 758.82416 
L 1542.93592 755.382283 
L 1543.568114 755.382283 
L 1543.778845 749.401418 
L 1544.41104 749.401418 
L 1544.621771 745.109905 
L 1545.253965 745.109905 
L 1545.464697 740.782598 
L 1546.096891 740.782598 
L 1546.307623 735.055398 
L 1546.939817 735.055398 
L 1547.150548 722.85742 
L 1547.782743 722.85742 
L 1547.993474 721.492799 
L 1548.625668 721.492799 
L 1548.8364 719.584079 
L 1549.468594 719.584079 
L 1549.679326 712.092698 
L 1550.31152 712.092698 
L 1550.522251 706.734329 
L 1551.154446 706.734329 
L 1551.365177 703.041192 
L 1551.997372 703.041192 
L 1552.208103 696.406461 
L 1552.840297 696.406461 
L 1553.051029 688.84639 
L 1553.683223 688.84639 
L 1553.893955 684.825874 
L 1554.526149 684.825874 
L 1554.73688 684.087757 
L 1555.369075 684.087757 
L 1555.579806 681.946176 
L 1556.212 681.946176 
L 1556.422732 679.068787 
L 1557.054926 679.068787 
L 1557.265658 674.856194 
L 1557.897852 674.856194 
L 1558.108583 673.480473 
L 1558.740778 673.480473 
L 1558.951509 667.544051 
L 1559.583703 667.544051 
L 1559.794435 665.513118 
L 1560.426629 665.513118 
L 1560.637361 662.430346 
L 1561.269555 662.430346 
L 1561.480286 659.363445 
L 1562.112481 659.363445 
L 1562.323212 655.975279 
L 1563.798332 655.975279 
L 1564.009064 653.965085 
L 1564.641258 653.965085 
L 1564.851989 652.959383 
L 1565.484184 652.959383 
L 1565.694915 648.632915 
L 1567.170035 648.632915 
L 1567.380767 649.629568 
L 1568.012961 649.629568 
L 1568.223693 649.965911 
L 1568.855887 649.965911 
L 1569.066618 648.047008 
L 1569.698813 648.047008 
L 1569.909544 641.873252 
L 1570.541738 641.873252 
L 1570.75247 639.388158 
L 1571.384664 639.388158 
L 1571.595396 639.9624 
L 1572.22759 639.9624 
L 1572.438321 633.914694 
L 1573.070516 633.914694 
L 1573.281247 628.983042 
L 1573.913441 628.983042 
L 1574.124173 628.182607 
L 1574.756367 628.182607 
L 1574.967099 625.876361 
L 1575.599293 625.876361 
L 1575.810024 622.600065 
L 1576.442219 622.600065 
L 1576.65295 622.095368 
L 1577.285145 622.095368 
L 1577.495876 618.646891 
L 1578.12807 618.646891 
L 1578.338802 615.955193 
L 1578.970996 615.955193 
L 1579.181728 611.538156 
L 1579.813922 611.538156 
L 1580.024653 608.924199 
L 1580.656848 608.924199 
L 1580.867579 605.435902 
L 1581.499773 605.435902 
L 1581.710505 602.233529 
L 1582.342699 602.233529 
L 1582.553431 599.720923 
L 1583.185625 599.720923 
L 1583.396356 599.295523 
L 1584.028551 599.295523 
L 1584.239282 596.180091 
L 1584.871476 596.180091 
L 1585.082208 591.86244 
L 1585.714402 591.86244 
L 1585.925134 588.089909 
L 1586.557328 588.089909 
L 1586.768059 582.887919 
L 1587.400254 582.887919 
L 1587.610985 578.184365 
L 1588.24318 578.184365 
L 1588.453911 567.098821 
L 1589.086105 567.098821 
L 1589.296837 559.27361 
L 1589.929031 559.27361 
L 1590.139763 553.484951 
L 1590.771957 553.484951 
L 1590.982688 549.859022 
L 1591.614883 549.859022 
L 1591.825614 544.703919 
L 1592.457808 544.703919 
L 1592.66854 541.004016 
L 1593.300734 541.004016 
L 1593.511466 532.414549 
L 1594.14366 532.414549 
L 1594.354391 527.66576 
L 1594.986586 527.66576 
L 1595.197317 522.867493 
L 1595.829511 522.867493 
L 1596.040243 519.025871 
L 1596.672437 519.025871 
L 1596.883169 514.332068 
L 1597.515363 514.332068 
L 1597.726094 509.877904 
L 1598.358289 509.877904 
L 1598.56902 504.947185 
L 1599.201215 504.947185 
L 1599.411946 499.842557 
L 1600.04414 499.842557 
L 1600.254872 498.234412 
L 1600.887066 498.234412 
L 1601.097798 495.269742 
L 1601.729992 495.269742 
L 1601.940723 494.210664 
L 1602.572918 494.210664 
L 1602.783649 492.936599 
L 1603.415843 492.936599 
L 1603.626575 490.835749 
L 1604.258769 490.835749 
L 1604.469501 487.5064 
L 1605.101695 487.5064 
L 1605.312426 486.25897 
L 1605.944621 486.25897 
L 1606.155352 484.202048 
L 1606.787546 484.202048 
L 1606.998278 482.367746 
L 1608.473398 482.367746 
L 1608.684129 482.166082 
L 1609.316324 482.166082 
L 1609.527055 480.738779 
L 1610.15925 480.738779 
L 1610.369981 480.123104 
L 1611.002175 480.123104 
L 1611.212907 478.71589 
L 1611.845101 478.71589 
L 1612.055833 477.717148 
L 1612.688027 477.717148 
L 1612.898758 475.44403 
L 1613.530953 475.44403 
L 1613.741684 471.665335 
L 1614.373878 471.665335 
L 1614.58461 470.86561 
L 1615.216804 470.86561 
L 1615.427536 466.873448 
L 1616.05973 466.873448 
L 1616.270461 464.330265 
L 1616.902656 464.330265 
L 1617.113387 462.749954 
L 1617.745581 462.749954 
L 1617.956313 460.07084 
L 1618.588507 460.07084 
L 1618.799239 456.313557 
L 1619.431433 456.313557 
L 1619.642164 453.378981 
L 1620.274359 453.378981 
L 1620.48509 448.926571 
L 1621.117285 448.926571 
L 1621.328016 447.099932 
L 1621.96021 447.099932 
L 1622.170942 445.13952 
L 1622.803136 445.13952 
L 1623.013867 440.70514 
L 1623.646062 440.70514 
L 1623.856793 439.813584 
L 1624.488988 439.813584 
L 1624.699719 438.796803 
L 1625.331913 438.796803 
L 1625.542645 436.261985 
L 1626.174839 436.261985 
L 1626.385571 434.126674 
L 1627.017765 434.126674 
L 1627.228496 430.959039 
L 1627.860691 430.959039 
L 1628.071422 427.636255 
L 1628.703616 427.636255 
L 1628.914348 426.171973 
L 1629.546542 426.171973 
L 1629.757274 423.720203 
L 1630.389468 423.720203 
L 1630.600199 422.449886 
L 1631.232394 422.449886 
L 1631.443125 422.91235 
L 1632.075319 422.91235 
L 1632.286051 419.297882 
L 1632.918245 419.297882 
L 1633.128977 419.140698 
L 1633.761171 419.140698 
L 1633.971902 417.372466 
L 1635.447023 417.372466 
L 1635.657754 415.350603 
L 1636.289948 415.350603 
L 1636.50068 413.701341 
L 1637.132874 413.701341 
L 1637.343606 411.611889 
L 1637.9758 411.611889 
L 1638.186531 410.893169 
L 1638.818726 410.893169 
L 1639.029457 408.123062 
L 1639.661651 408.123062 
L 1639.872383 406.12509 
L 1640.504577 406.12509 
L 1640.715309 404.058259 
L 1641.347503 404.058259 
L 1641.558234 399.531579 
L 1642.190429 399.531579 
L 1642.40116 396.408833 
L 1643.87628 396.406319 
L 1644.087012 395.508387 
L 1644.719206 395.508387 
L 1644.929937 396.872555 
L 1645.562132 396.872555 
L 1645.772863 394.084967 
L 1646.405058 394.084967 
L 1646.615789 395.925955 
L 1647.247983 395.925955 
L 1647.458715 393.721501 
L 1648.090909 393.721501 
L 1648.512372 393.60226 
L 1648.933835 393.60226 
L 1649.144566 394.199451 
L 1650.619686 394.142223 
L 1650.830418 394.633964 
L 1651.462612 394.633964 
L 1651.673344 391.904642 
L 1652.305538 391.904642 
L 1652.516269 390.143041 
L 1653.148464 390.143041 
L 1653.359195 389.441614 
L 1653.991389 389.441614 
L 1654.202121 388.318924 
L 1654.834315 388.318924 
L 1655.045047 387.275794 
L 1655.677241 387.275794 
L 1655.887972 384.603662 
L 1657.363093 384.603662 
L 1657.573824 383.553588 
L 1658.206018 383.553588 
L 1658.41675 381.888414 
L 1659.048944 381.888414 
L 1659.259676 381.206915 
L 1659.89187 381.206915 
L 1660.102601 380.468605 
L 1660.734796 380.468605 
L 1660.945527 378.832668 
L 1661.577721 378.832668 
L 1661.788453 377.837457 
L 1662.420647 377.837457 
L 1662.631379 377.146592 
L 1663.263573 377.146592 
L 1663.474304 376.475778 
L 1664.949424 376.42884 
L 1665.160156 375.124593 
L 1666.635276 375.07851 
L 1666.846007 373.434146 
L 1667.478202 373.434146 
L 1667.688933 372.45667 
L 1668.321128 372.45667 
L 1668.531859 371.466816 
L 1669.164053 371.466816 
L 1669.374785 371.072268 
L 1670.006979 371.072268 
L 1670.217711 369.776491 
L 1670.849905 369.776491 
L 1671.060636 368.811807 
L 1671.692831 368.811807 
L 1671.903562 369.459207 
L 1672.535756 369.459207 
L 1672.746488 368.540675 
L 1673.378682 368.540675 
L 1673.589414 366.604572 
L 1674.221608 366.604572 
L 1674.432339 365.683749 
L 1675.064534 365.683749 
L 1675.275265 366.323641 
L 1675.907459 366.323641 
L 1676.118191 364.761706 
L 1676.750385 364.761706 
L 1676.961117 364.113659 
L 1678.436237 364.101017 
L 1678.646968 363.459054 
L 1680.122088 363.445909 
L 1680.33282 361.587951 
L 1681.80794 361.578612 
L 1682.018671 360.349421 
L 1682.650866 360.349421 
L 1682.861597 359.728694 
L 1683.493791 359.728694 
L 1683.704523 359.11008 
L 1684.336717 359.11008 
L 1684.547449 358.491979 
L 1685.179643 358.491979 
L 1685.390374 356.345327 
L 1686.865494 356.345327 
L 1687.076226 355.426033 
L 1687.70842 355.426033 
L 1687.919152 354.816268 
L 1689.394272 354.814314 
L 1689.605003 353.2951 
L 1690.237197 353.2951 
L 1690.447929 352.68902 
L 1691.080123 352.68902 
L 1691.290855 352.084234 
L 1691.923049 352.084234 
L 1692.13378 350.877136 
L 1692.765975 350.877136 
L 1692.976706 349.065136 
L 1693.608901 349.065136 
L 1693.819632 348.169268 
L 1694.451826 348.169268 
L 1694.662558 346.962591 
L 1695.294752 346.962591 
L 1695.505484 345.474368 
L 1696.137678 345.474368 
L 1696.348409 343.999951 
L 1696.980604 343.999951 
L 1697.191335 343.695771 
L 1697.823529 343.695771 
L 1698.034261 344.317335 
L 1698.666455 344.317335 
L 1698.877187 342.817588 
L 1700.352307 342.846723 
L 1700.563038 341.355432 
L 1701.195232 341.355432 
L 1701.405964 340.504313 
L 1702.881084 340.504313 
L 1703.091815 338.427853 
L 1703.72401 338.427853 
L 1703.934741 337.533917 
L 1704.566936 337.533917 
L 1704.777667 336.064233 
L 1705.409861 336.064233 
L 1705.620593 335.173974 
L 1706.252787 335.173974 
L 1706.463519 334.297158 
L 1707.095713 334.297158 
L 1707.306444 331.674386 
L 1707.938639 331.674386 
L 1708.14937 330.206506 
L 1708.781564 330.206506 
L 1708.992296 329.322783 
L 1709.62449 329.322783 
L 1709.835222 328.454219 
L 1710.467416 328.454219 
L 1710.678147 327.861674 
L 1711.310342 327.861674 
L 1711.521073 327.254583 
L 1712.153267 327.254583 
L 1712.363999 325.80143 
L 1713.839119 325.785679 
L 1714.04985 324.924953 
L 1716.367896 324.908987 
L 1716.578628 324.031706 
L 1717.210822 324.031706 
L 1717.421554 323.171623 
L 1718.053748 323.171623 
L 1718.264479 321.420102 
L 1718.896674 321.420102 
L 1719.107405 320.832275 
L 1719.739599 320.832275 
L 1719.950331 318.519815 
L 1720.582525 318.519815 
L 1720.793257 317.386534 
L 1721.425451 317.386534 
L 1721.636182 315.674379 
L 1722.268377 315.674379 
L 1722.479108 314.249392 
L 1723.954228 314.249392 
L 1724.16496 313.667841 
L 1724.797154 313.667841 
L 1725.007885 312.826877 
L 1725.64008 312.826877 
L 1725.850811 312.267289 
L 1726.483006 312.267289 
L 1726.693737 310.570322 
L 1728.168857 310.570322 
L 1728.379589 310.193966 
L 1729.011783 310.193966 
L 1729.222514 308.776482 
L 1729.854709 308.776482 
L 1730.06544 309.33319 
L 1730.697634 309.33319 
L 1730.908366 308.47484 
L 1732.383486 308.572435 
L 1732.594217 307.738585 
L 1733.226412 307.738585 
L 1733.437143 307.285257 
L 1734.912263 307.285257 
L 1735.122995 307.839178 
L 1737.441041 307.813295 
L 1737.651772 307.234463 
L 1739.126892 307.234463 
L 1739.337623 306.656599 
L 1739.969818 306.656599 
L 1740.180549 305.828629 
L 1740.812744 305.828629 
L 1741.023475 305.251527 
L 1741.655669 305.251527 
L 1741.866401 303.823363 
L 1742.498595 303.823363 
L 1742.709327 302.151381 
L 1743.341521 302.151381 
L 1743.552252 301.330298 
L 1744.184447 301.330298 
L 1744.395178 300.509805 
L 1745.027372 300.509805 
L 1745.238104 298.955131 
L 1745.870298 298.955131 
L 1746.08103 298.769319 
L 1746.713224 298.769319 
L 1746.923955 296.676712 
L 1747.55615 296.676712 
L 1747.766881 295.166549 
L 1748.399076 295.166549 
L 1748.609807 294.750385 
L 1749.242001 294.750385 
L 1749.452733 295.29345 
L 1750.084927 295.29345 
L 1750.295658 293.795465 
L 1750.927853 293.795465 
L 1751.138584 292.947639 
L 1751.770779 292.947639 
L 1751.98151 292.405423 
L 1752.613704 292.405423 
L 1752.824436 292.540029 
L 1753.45663 292.540029 
L 1753.667362 291.997813 
L 1754.299556 291.997813 
L 1754.510287 291.593554 
L 1755.142482 291.593554 
L 1755.353213 291.051338 
L 1755.985407 291.051338 
L 1756.196139 291.190959 
L 1756.828333 291.190959 
L 1757.039065 290.249833 
L 1758.514185 290.249833 
L 1758.724916 289.851734 
L 1760.200036 289.851734 
L 1760.410768 289.310732 
L 1761.885888 289.310732 
L 1762.096619 288.770545 
L 1762.728814 288.770545 
L 1762.939545 288.231167 
L 1763.571739 288.231167 
L 1763.782471 287.692591 
L 1765.257591 287.692591 
L 1765.468322 286.079606 
L 1766.100517 286.079606 
L 1766.311248 285.542995 
L 1766.943442 285.542995 
L 1767.154174 283.898537 
L 1767.786368 283.898537 
L 1767.9971 282.257537 
L 1768.629294 282.257537 
L 1768.840025 281.191972 
L 1770.315145 281.191972 
L 1770.525877 280.65919 
L 1772.000997 280.65919 
L 1772.211728 281.877854 
L 1772.843923 281.877854 
L 1773.054654 282.034696 
L 1773.686849 282.034696 
L 1773.89758 282.563783 
L 1774.529774 282.563783 
L 1774.740506 283.092143 
L 1775.3727 283.092143 
L 1775.583432 283.940764 
L 1776.215626 283.940764 
L 1776.426357 283.413834 
L 1777.058552 283.413834 
L 1777.269283 282.524004 
L 1777.901477 282.524004 
L 1778.112209 283.049528 
L 1778.744403 283.049528 
L 1778.955135 281.999175 
L 1779.587329 281.999175 
L 1779.79806 282.523316 
L 1780.430255 282.523316 
L 1780.640986 283.040856 
L 1781.27318 283.040856 
L 1781.483912 283.563301 
L 1782.959032 283.563301 
L 1783.169763 282.520928 
L 1783.801958 282.520928 
L 1784.012689 283.040864 
L 1785.487809 283.040864 
L 1785.698541 282.547275 
L 1786.330735 282.547275 
L 1786.541467 283.066386 
L 1787.173661 283.066386 
L 1787.384392 283.58468 
L 1788.016587 283.58468 
L 1788.227318 283.067196 
L 1789.702438 283.067196 
L 1789.91317 282.550891 
L 1790.545364 282.550891 
L 1790.756095 283.099217 
L 1791.38829 283.099217 
L 1791.599021 282.069728 
L 1792.231215 282.069728 
L 1792.441947 281.592865 
L 1793.917067 281.593635 
L 1794.127798 280.610113 
L 1794.759993 280.610113 
L 1794.970724 281.121373 
L 1795.602919 281.121373 
L 1795.81365 280.100339 
L 1796.445844 280.100339 
L 1796.656576 279.590946 
L 1797.28877 279.590946 
L 1797.499501 278.064967 
L 1798.131696 278.064967 
L 1798.342427 277.10078 
L 1798.974622 277.10078 
L 1799.185353 276.646679 
L 1799.817547 276.646679 
L 1800.028279 275.747701 
L 1800.660473 275.747701 
L 1800.871205 274.796688 
L 1801.503399 274.796688 
L 1801.71413 273.285823 
L 1802.346325 273.285823 
L 1802.557056 273.788399 
L 1804.032176 273.852647 
L 1804.242908 273.351778 
L 1804.875102 273.351778 
L 1805.085833 272.85091 
L 1805.718028 272.85091 
L 1805.928759 272.350042 
L 1806.560954 272.350042 
L 1806.771685 271.849839 
L 1807.403879 271.849839 
L 1807.614611 271.350297 
L 1808.246805 271.350297 
L 1808.457536 270.353186 
L 1809.089731 270.353186 
L 1809.300462 269.357082 
L 1809.932657 269.357082 
L 1810.143388 268.859206 
L 1812.461434 268.934122 
L 1812.672165 268.438167 
L 1813.30436 268.438167 
L 1813.515091 267.942843 
L 1814.990211 267.942843 
L 1815.200943 266.953517 
L 1815.833137 266.953517 
L 1816.043868 265.966128 
L 1816.676063 265.966128 
L 1816.886794 265.555891 
L 1817.518988 265.555891 
L 1817.72972 264.571572 
L 1818.361914 264.571572 
L 1818.572646 263.58906 
L 1819.20484 263.58906 
L 1819.415571 263.097515 
L 1820.047766 263.097515 
L 1820.258497 262.699252 
L 1821.733617 262.699252 
L 1821.944349 263.18786 
L 1822.576543 263.18786 
L 1822.787275 262.303885 
L 1823.419469 262.303885 
L 1823.6302 261.815852 
L 1824.262395 261.815852 
L 1824.473126 260.936003 
L 1825.10532 260.936003 
L 1825.316052 260.449112 
L 1826.791172 260.449112 
L 1827.001903 259.477026 
L 1827.634098 259.477026 
L 1827.844829 258.604304 
L 1828.477023 258.604304 
L 1828.687755 258.119442 
L 1830.162875 258.119777 
L 1830.373606 257.738372 
L 1831.848727 257.737822 
L 1832.059458 257.359597 
L 1833.534578 257.46413 
L 1833.74531 258.052067 
L 1834.377504 258.052067 
L 1834.588235 257.57147 
L 1835.22043 257.57147 
L 1835.431161 257.091199 
L 1836.063355 257.091199 
L 1836.274087 256.611461 
L 1836.906281 256.611461 
L 1837.117013 256.239589 
L 1837.749207 256.239589 
L 1837.959938 256.718798 
L 1839.435058 256.718798 
L 1839.64579 256.239589 
L 1840.277984 256.239589 
L 1840.488716 255.282743 
L 1841.12091 255.282743 
L 1841.331641 253.850266 
L 1842.806762 253.850266 
L 1843.017493 252.895626 
L 1843.649687 252.895626 
L 1843.860419 252.418306 
L 1844.492613 252.418306 
L 1844.703345 252.893601 
L 1845.335539 252.893601 
L 1845.54627 251.468655 
L 1846.178465 251.468655 
L 1846.389196 250.047445 
L 1847.02139 250.047445 
L 1847.232122 250.520319 
L 1847.864316 250.520319 
L 1848.075048 250.047757 
L 1849.550168 250.047757 
L 1849.760899 249.575681 
L 1851.236019 249.575681 
L 1851.446751 249.103606 
L 1852.078945 249.103606 
L 1852.289676 248.632013 
L 1852.921871 248.632013 
L 1853.132602 248.160902 
L 1853.764797 248.160902 
L 1853.975528 247.816087 
L 1854.607722 247.816087 
L 1854.818454 247.345454 
L 1856.293574 247.345454 
L 1856.504305 246.875128 
L 1858.822351 246.875128 
L 1859.033083 245.934783 
L 1860.508203 245.934783 
L 1860.718934 245.465067 
L 1861.351128 245.465067 
L 1861.56186 244.995653 
L 1863.03698 244.995653 
L 1863.247711 244.526239 
L 1866.408683 244.526711 
L 1866.619414 244.058243 
L 1867.251609 244.058243 
L 1867.46234 243.589775 
L 1868.094535 243.589775 
L 1868.305266 242.185849 
L 1869.780386 242.185849 
L 1869.991118 241.852586 
L 1871.466238 241.852586 
L 1871.676969 241.385468 
L 1873.152089 241.385468 
L 1873.362821 240.918814 
L 1874.837941 240.918814 
L 1875.048672 240.45216 
L 1875.680866 240.45216 
L 1875.891598 240.918354 
L 1876.523792 240.918354 
L 1876.734524 240.452452 
L 1877.366718 240.452452 
L 1877.577449 239.98684 
L 1878.209644 239.98684 
L 1878.420375 239.521682 
L 1880.738421 239.521682 
L 1880.949153 239.986388 
L 1881.581347 239.986388 
L 1881.792078 239.058001 
L 1882.424273 239.058001 
L 1882.635004 238.594032 
L 1885.795976 238.594032 
L 1886.006707 238.130064 
L 1886.638901 238.130064 
L 1886.849633 237.666539 
L 1887.481827 237.666539 
L 1887.692559 236.740376 
L 1888.324753 236.740376 
L 1888.535484 237.347004 
L 1889.167679 237.347004 
L 1889.37841 236.884796 
L 1890.010605 236.884796 
L 1890.221336 235.960949 
L 1890.85353 235.960949 
L 1891.064262 234.576459 
L 1892.539382 234.57674 
L 1892.750113 234.724752 
L 1893.382308 234.724752 
L 1893.593039 233.804608 
L 1894.225233 233.804608 
L 1894.435965 233.494237 
L 1895.068159 233.494237 
L 1895.278891 232.575497 
L 1895.911085 232.575497 
L 1896.121816 231.199197 
L 1897.596936 231.199197 
L 1897.807668 230.740941 
L 1898.439862 230.740941 
L 1898.650594 231.198782 
L 1899.282788 231.198782 
L 1899.493519 230.741213 
L 1900.96864 230.741213 
L 1901.179371 231.19837 
L 1901.811565 231.19837 
L 1902.022297 230.741485 
L 1904.340343 230.741076 
L 1904.551074 230.285009 
L 1905.183268 230.285009 
L 1905.394 230.74067 
L 1906.026194 230.74067 
L 1906.236926 230.285414 
L 1906.86912 230.285414 
L 1907.079851 229.989183 
L 1908.554971 229.989183 
L 1908.765703 229.534195 
L 1911.083749 229.534195 
L 1911.29448 229.854497 
L 1911.926675 229.854497 
L 1912.137406 228.65531 
L 1912.7696 228.65531 
L 1912.980332 228.202567 
L 1913.612526 228.202567 
L 1913.823258 227.297736 
L 1914.455452 227.297736 
L 1914.666183 228.365521 
L 1915.298378 228.365521 
L 1915.509109 227.180519 
L 1916.141303 227.180519 
L 1916.352035 227.515344 
L 1916.984229 227.515344 
L 1917.194961 226.616001 
L 1917.827155 226.616001 
L 1918.037886 225.717663 
L 1918.670081 225.717663 
L 1918.880812 224.82043 
L 1919.513006 224.82043 
L 1919.723738 223.924087 
L 1920.355932 223.924087 
L 1920.566664 223.2 
L 1921.198858 223.2 
L 1921.409589 223.64755 
L 1921.620321 223.64755 
L 1921.620321 223.64755 
" clip-path="url(#p7a4f844e7a)" style="fill: none; stroke: #0000ff; stroke-width: 1.5; stroke-linecap: square"/>
   </g>
   <g id="patch_15">
    <path d="M 1451.647059 1281.6 
L 1451.647059 172.8 
" style="fill: none; stroke: #000000; stroke-width: 0.8; stroke-linejoin: miter; stroke-linecap: square"/>
   </g>
   <g id="patch_16">
    <path d="M 1944 1281.6 
L 1944 172.8 
" style="fill: none; stroke: #000000; stroke-width: 0.8; stroke-linejoin: miter; stroke-linecap: square"/>
   </g>
   <g id="patch_17">
    <path d="M 1451.647059 1281.6 
L 1944 1281.6 
" style="fill: none; stroke: #000000; stroke-width: 0.8; stroke-linejoin: miter; stroke-linecap: square"/>
   </g>
   <g id="patch_18">
    <path d="M 1451.647059 172.8 
L 1944 172.8 
" style="fill: none; stroke: #000000; stroke-width: 0.8; stroke-linejoin: miter; stroke-linecap: square"/>
   </g>
   <g id="legend_3">
    <g id="patch_19">
     <path d="M 1852.957813 195.478125 
L 1937 195.478125 
Q 1939 195.478125 1939 193.478125 
L 1939 179.8 
Q 1939 177.8 1937 177.8 
L 1852.957813 177.8 
Q 1850.957813 177.8 1850.957813 179.8 
L 1850.957813 193.478125 
Q 1850.957813 195.478125 1852.957813 195.478125 
z
" style="fill: #ffffff; opacity: 0.8; stroke: #cccccc; stroke-linejoin: miter"/>
    </g>
    <g id="line2d_38">
     <path d="M 1854.957813 185.898437 
L 1864.957813 185.898437 
L 1874.957813 185.898437 
" style="fill: none; stroke: #0000ff; stroke-width: 1.5; stroke-linecap: square"/>
    </g>
    <g id="text_35">
     <!-- O3 reward -->
     <g transform="translate(1882.957813 189.398437) scale(0.1 -0.1)">
      <use xlink:href="#DejaVuSans-4f"/>
      <use xlink:href="#DejaVuSans-33" x="78.710938"/>
      <use xlink:href="#DejaVuSans-20" x="142.333984"/>
      <use xlink:href="#DejaVuSans-72" x="174.121094"/>
      <use xlink:href="#DejaVuSans-65" x="212.984375"/>
      <use xlink:href="#DejaVuSans-77" x="274.507812"/>
      <use xlink:href="#DejaVuSans-61" x="356.294922"/>
      <use xlink:href="#DejaVuSans-72" x="417.574219"/>
      <use xlink:href="#DejaVuSans-64" x="456.9375"/>
     </g>
    </g>
   </g>
  </g>
 </g>
 <defs>
  <clipPath id="p630f4b15f4">
   <rect x="270" y="172.8" width="492.352941" height="1108.8"/>
  </clipPath>
  <clipPath id="pef80f42d37">
   <rect x="860.823529" y="172.8" width="492.352941" height="1108.8"/>
  </clipPath>
  <clipPath id="p7a4f844e7a">
   <rect x="1451.647059" y="172.8" width="492.352941" height="1108.8"/>
  </clipPath>
 </defs>
</svg>
