<?xml version="1.0" encoding="utf-8" standalone="no"?>
<!DOCTYPE svg PUBLIC "-//W3C//DTD SVG 1.1//EN"
  "http://www.w3.org/Graphics/SVG/1.1/DTD/svg11.dtd">
<svg xmlns:xlink="http://www.w3.org/1999/xlink" width="2160pt" height="1440pt" viewBox="0 0 2160 1440" xmlns="http://www.w3.org/2000/svg" version="1.1">
 <metadata>
  <rdf:RDF xmlns:dc="http://purl.org/dc/elements/1.1/" xmlns:cc="http://creativecommons.org/ns#" xmlns:rdf="http://www.w3.org/1999/02/22-rdf-syntax-ns#">
   <cc:Work>
    <dc:type rdf:resource="http://purl.org/dc/dcmitype/StillImage"/>
    <dc:date>2023-05-31T19:30:06.864832</dc:date>
    <dc:format>image/svg+xml</dc:format>
    <dc:creator>
     <cc:Agent>
      <dc:title>Matplotlib v3.7.1, https://matplotlib.org/</dc:title>
     </cc:Agent>
    </dc:creator>
   </cc:Work>
  </rdf:RDF>
 </metadata>
 <defs>
  <style type="text/css">*{stroke-linejoin: round; stroke-linecap: butt}</style>
 </defs>
 <g id="figure_1">
  <g id="patch_1">
   <path d="M 0 1440 
L 2160 1440 
L 2160 0 
L 0 0 
z
" style="fill: #ffffff"/>
  </g>
  <g id="axes_1">
   <g id="patch_2">
    <path d="M 270 1281.6 
L 762.352941 1281.6 
L 762.352941 172.8 
L 270 172.8 
z
" style="fill: #ffffff"/>
   </g>
   <g id="matplotlib.axis_1">
    <g id="xtick_1">
     <g id="line2d_1">
      <defs>
       <path id="md741940b95" d="M 0 0 
L 0 3.5 
" style="stroke: #000000; stroke-width: 0.8"/>
      </defs>
      <g>
       <use xlink:href="#md741940b95" x="291.789964" y="1281.6" style="stroke: #000000; stroke-width: 0.8"/>
      </g>
     </g>
     <g id="text_1">
      <!-- 0 -->
      <g transform="translate(288.608714 1296.198437) scale(0.1 -0.1)">
       <defs>
        <path id="DejaVuSans-30" d="M 2034 4250 
Q 1547 4250 1301 3770 
Q 1056 3291 1056 2328 
Q 1056 1369 1301 889 
Q 1547 409 2034 409 
Q 2525 409 2770 889 
Q 3016 1369 3016 2328 
Q 3016 3291 2770 3770 
Q 2525 4250 2034 4250 
z
M 2034 4750 
Q 2819 4750 3233 4129 
Q 3647 3509 3647 2328 
Q 3647 1150 3233 529 
Q 2819 -91 2034 -91 
Q 1250 -91 836 529 
Q 422 1150 422 2328 
Q 422 3509 836 4129 
Q 1250 4750 2034 4750 
z
" transform="scale(0.015625)"/>
       </defs>
       <use xlink:href="#DejaVuSans-30"/>
      </g>
     </g>
    </g>
    <g id="xtick_2">
     <g id="line2d_2">
      <g>
       <use xlink:href="#md741940b95" x="350.761451" y="1281.6" style="stroke: #000000; stroke-width: 0.8"/>
      </g>
     </g>
     <g id="text_2">
      <!-- 100 -->
      <g transform="translate(341.217701 1296.198437) scale(0.1 -0.1)">
       <defs>
        <path id="DejaVuSans-31" d="M 794 531 
L 1825 531 
L 1825 4091 
L 703 3866 
L 703 4441 
L 1819 4666 
L 2450 4666 
L 2450 531 
L 3481 531 
L 3481 0 
L 794 0 
L 794 531 
z
" transform="scale(0.015625)"/>
       </defs>
       <use xlink:href="#DejaVuSans-31"/>
       <use xlink:href="#DejaVuSans-30" x="63.623047"/>
       <use xlink:href="#DejaVuSans-30" x="127.246094"/>
      </g>
     </g>
    </g>
    <g id="xtick_3">
     <g id="line2d_3">
      <g>
       <use xlink:href="#md741940b95" x="409.732937" y="1281.6" style="stroke: #000000; stroke-width: 0.8"/>
      </g>
     </g>
     <g id="text_3">
      <!-- 200 -->
      <g transform="translate(400.189187 1296.198437) scale(0.1 -0.1)">
       <defs>
        <path id="DejaVuSans-32" d="M 1228 531 
L 3431 531 
L 3431 0 
L 469 0 
L 469 531 
Q 828 903 1448 1529 
Q 2069 2156 2228 2338 
Q 2531 2678 2651 2914 
Q 2772 3150 2772 3378 
Q 2772 3750 2511 3984 
Q 2250 4219 1831 4219 
Q 1534 4219 1204 4116 
Q 875 4013 500 3803 
L 500 4441 
Q 881 4594 1212 4672 
Q 1544 4750 1819 4750 
Q 2544 4750 2975 4387 
Q 3406 4025 3406 3419 
Q 3406 3131 3298 2873 
Q 3191 2616 2906 2266 
Q 2828 2175 2409 1742 
Q 1991 1309 1228 531 
z
" transform="scale(0.015625)"/>
       </defs>
       <use xlink:href="#DejaVuSans-32"/>
       <use xlink:href="#DejaVuSans-30" x="63.623047"/>
       <use xlink:href="#DejaVuSans-30" x="127.246094"/>
      </g>
     </g>
    </g>
    <g id="xtick_4">
     <g id="line2d_4">
      <g>
       <use xlink:href="#md741940b95" x="468.704424" y="1281.6" style="stroke: #000000; stroke-width: 0.8"/>
      </g>
     </g>
     <g id="text_4">
      <!-- 300 -->
      <g transform="translate(459.160674 1296.198437) scale(0.1 -0.1)">
       <defs>
        <path id="DejaVuSans-33" d="M 2597 2516 
Q 3050 2419 3304 2112 
Q 3559 1806 3559 1356 
Q 3559 666 3084 287 
Q 2609 -91 1734 -91 
Q 1441 -91 1130 -33 
Q 819 25 488 141 
L 488 750 
Q 750 597 1062 519 
Q 1375 441 1716 441 
Q 2309 441 2620 675 
Q 2931 909 2931 1356 
Q 2931 1769 2642 2001 
Q 2353 2234 1838 2234 
L 1294 2234 
L 1294 2753 
L 1863 2753 
Q 2328 2753 2575 2939 
Q 2822 3125 2822 3475 
Q 2822 3834 2567 4026 
Q 2313 4219 1838 4219 
Q 1578 4219 1281 4162 
Q 984 4106 628 3988 
L 628 4550 
Q 988 4650 1302 4700 
Q 1616 4750 1894 4750 
Q 2613 4750 3031 4423 
Q 3450 4097 3450 3541 
Q 3450 3153 3228 2886 
Q 3006 2619 2597 2516 
z
" transform="scale(0.015625)"/>
       </defs>
       <use xlink:href="#DejaVuSans-33"/>
       <use xlink:href="#DejaVuSans-30" x="63.623047"/>
       <use xlink:href="#DejaVuSans-30" x="127.246094"/>
      </g>
     </g>
    </g>
    <g id="xtick_5">
     <g id="line2d_5">
      <g>
       <use xlink:href="#md741940b95" x="527.67591" y="1281.6" style="stroke: #000000; stroke-width: 0.8"/>
      </g>
     </g>
     <g id="text_5">
      <!-- 400 -->
      <g transform="translate(518.13216 1296.198437) scale(0.1 -0.1)">
       <defs>
        <path id="DejaVuSans-34" d="M 2419 4116 
L 825 1625 
L 2419 1625 
L 2419 4116 
z
M 2253 4666 
L 3047 4666 
L 3047 1625 
L 3713 1625 
L 3713 1100 
L 3047 1100 
L 3047 0 
L 2419 0 
L 2419 1100 
L 313 1100 
L 313 1709 
L 2253 4666 
z
" transform="scale(0.015625)"/>
       </defs>
       <use xlink:href="#DejaVuSans-34"/>
       <use xlink:href="#DejaVuSans-30" x="63.623047"/>
       <use xlink:href="#DejaVuSans-30" x="127.246094"/>
      </g>
     </g>
    </g>
    <g id="xtick_6">
     <g id="line2d_6">
      <g>
       <use xlink:href="#md741940b95" x="586.647397" y="1281.6" style="stroke: #000000; stroke-width: 0.8"/>
      </g>
     </g>
     <g id="text_6">
      <!-- 500 -->
      <g transform="translate(577.103647 1296.198437) scale(0.1 -0.1)">
       <defs>
        <path id="DejaVuSans-35" d="M 691 4666 
L 3169 4666 
L 3169 4134 
L 1269 4134 
L 1269 2991 
Q 1406 3038 1543 3061 
Q 1681 3084 1819 3084 
Q 2600 3084 3056 2656 
Q 3513 2228 3513 1497 
Q 3513 744 3044 326 
Q 2575 -91 1722 -91 
Q 1428 -91 1123 -41 
Q 819 9 494 109 
L 494 744 
Q 775 591 1075 516 
Q 1375 441 1709 441 
Q 2250 441 2565 725 
Q 2881 1009 2881 1497 
Q 2881 1984 2565 2268 
Q 2250 2553 1709 2553 
Q 1456 2553 1204 2497 
Q 953 2441 691 2322 
L 691 4666 
z
" transform="scale(0.015625)"/>
       </defs>
       <use xlink:href="#DejaVuSans-35"/>
       <use xlink:href="#DejaVuSans-30" x="63.623047"/>
       <use xlink:href="#DejaVuSans-30" x="127.246094"/>
      </g>
     </g>
    </g>
    <g id="xtick_7">
     <g id="line2d_7">
      <g>
       <use xlink:href="#md741940b95" x="645.618884" y="1281.6" style="stroke: #000000; stroke-width: 0.8"/>
      </g>
     </g>
     <g id="text_7">
      <!-- 600 -->
      <g transform="translate(636.075134 1296.198437) scale(0.1 -0.1)">
       <defs>
        <path id="DejaVuSans-36" d="M 2113 2584 
Q 1688 2584 1439 2293 
Q 1191 2003 1191 1497 
Q 1191 994 1439 701 
Q 1688 409 2113 409 
Q 2538 409 2786 701 
Q 3034 994 3034 1497 
Q 3034 2003 2786 2293 
Q 2538 2584 2113 2584 
z
M 3366 4563 
L 3366 3988 
Q 3128 4100 2886 4159 
Q 2644 4219 2406 4219 
Q 1781 4219 1451 3797 
Q 1122 3375 1075 2522 
Q 1259 2794 1537 2939 
Q 1816 3084 2150 3084 
Q 2853 3084 3261 2657 
Q 3669 2231 3669 1497 
Q 3669 778 3244 343 
Q 2819 -91 2113 -91 
Q 1303 -91 875 529 
Q 447 1150 447 2328 
Q 447 3434 972 4092 
Q 1497 4750 2381 4750 
Q 2619 4750 2861 4703 
Q 3103 4656 3366 4563 
z
" transform="scale(0.015625)"/>
       </defs>
       <use xlink:href="#DejaVuSans-36"/>
       <use xlink:href="#DejaVuSans-30" x="63.623047"/>
       <use xlink:href="#DejaVuSans-30" x="127.246094"/>
      </g>
     </g>
    </g>
    <g id="xtick_8">
     <g id="line2d_8">
      <g>
       <use xlink:href="#md741940b95" x="704.59037" y="1281.6" style="stroke: #000000; stroke-width: 0.8"/>
      </g>
     </g>
     <g id="text_8">
      <!-- 700 -->
      <g transform="translate(695.04662 1296.198437) scale(0.1 -0.1)">
       <defs>
        <path id="DejaVuSans-37" d="M 525 4666 
L 3525 4666 
L 3525 4397 
L 1831 0 
L 1172 0 
L 2766 4134 
L 525 4134 
L 525 4666 
z
" transform="scale(0.015625)"/>
       </defs>
       <use xlink:href="#DejaVuSans-37"/>
       <use xlink:href="#DejaVuSans-30" x="63.623047"/>
       <use xlink:href="#DejaVuSans-30" x="127.246094"/>
      </g>
     </g>
    </g>
   </g>
   <g id="matplotlib.axis_2">
    <g id="ytick_1">
     <g id="line2d_9">
      <defs>
       <path id="mcb5b31a8c6" d="M 0 0 
L -3.5 0 
" style="stroke: #000000; stroke-width: 0.8"/>
      </defs>
      <g>
       <use xlink:href="#mcb5b31a8c6" x="270" y="1103.339063" style="stroke: #000000; stroke-width: 0.8"/>
      </g>
     </g>
     <g id="text_9">
      <!-- −8 -->
      <g transform="translate(248.257812 1107.138282) scale(0.1 -0.1)">
       <defs>
        <path id="DejaVuSans-2212" d="M 678 2272 
L 4684 2272 
L 4684 1741 
L 678 1741 
L 678 2272 
z
" transform="scale(0.015625)"/>
        <path id="DejaVuSans-38" d="M 2034 2216 
Q 1584 2216 1326 1975 
Q 1069 1734 1069 1313 
Q 1069 891 1326 650 
Q 1584 409 2034 409 
Q 2484 409 2743 651 
Q 3003 894 3003 1313 
Q 3003 1734 2745 1975 
Q 2488 2216 2034 2216 
z
M 1403 2484 
Q 997 2584 770 2862 
Q 544 3141 544 3541 
Q 544 4100 942 4425 
Q 1341 4750 2034 4750 
Q 2731 4750 3128 4425 
Q 3525 4100 3525 3541 
Q 3525 3141 3298 2862 
Q 3072 2584 2669 2484 
Q 3125 2378 3379 2068 
Q 3634 1759 3634 1313 
Q 3634 634 3220 271 
Q 2806 -91 2034 -91 
Q 1263 -91 848 271 
Q 434 634 434 1313 
Q 434 1759 690 2068 
Q 947 2378 1403 2484 
z
M 1172 3481 
Q 1172 3119 1398 2916 
Q 1625 2713 2034 2713 
Q 2441 2713 2670 2916 
Q 2900 3119 2900 3481 
Q 2900 3844 2670 4047 
Q 2441 4250 2034 4250 
Q 1625 4250 1398 4047 
Q 1172 3844 1172 3481 
z
" transform="scale(0.015625)"/>
       </defs>
       <use xlink:href="#DejaVuSans-2212"/>
       <use xlink:href="#DejaVuSans-38" x="83.789062"/>
      </g>
     </g>
    </g>
    <g id="ytick_2">
     <g id="line2d_10">
      <g>
       <use xlink:href="#mcb5b31a8c6" x="270" y="888.670999" style="stroke: #000000; stroke-width: 0.8"/>
      </g>
     </g>
     <g id="text_10">
      <!-- −6 -->
      <g transform="translate(248.257812 892.470218) scale(0.1 -0.1)">
       <use xlink:href="#DejaVuSans-2212"/>
       <use xlink:href="#DejaVuSans-36" x="83.789062"/>
      </g>
     </g>
    </g>
    <g id="ytick_3">
     <g id="line2d_11">
      <g>
       <use xlink:href="#mcb5b31a8c6" x="270" y="674.002935" style="stroke: #000000; stroke-width: 0.8"/>
      </g>
     </g>
     <g id="text_11">
      <!-- −4 -->
      <g transform="translate(248.257812 677.802154) scale(0.1 -0.1)">
       <use xlink:href="#DejaVuSans-2212"/>
       <use xlink:href="#DejaVuSans-34" x="83.789062"/>
      </g>
     </g>
    </g>
    <g id="ytick_4">
     <g id="line2d_12">
      <g>
       <use xlink:href="#mcb5b31a8c6" x="270" y="459.334871" style="stroke: #000000; stroke-width: 0.8"/>
      </g>
     </g>
     <g id="text_12">
      <!-- −2 -->
      <g transform="translate(248.257812 463.134089) scale(0.1 -0.1)">
       <use xlink:href="#DejaVuSans-2212"/>
       <use xlink:href="#DejaVuSans-32" x="83.789062"/>
      </g>
     </g>
    </g>
    <g id="ytick_5">
     <g id="line2d_13">
      <g>
       <use xlink:href="#mcb5b31a8c6" x="270" y="244.666806" style="stroke: #000000; stroke-width: 0.8"/>
      </g>
     </g>
     <g id="text_13">
      <!-- 0 -->
      <g transform="translate(256.6375 248.466025) scale(0.1 -0.1)">
       <use xlink:href="#DejaVuSans-30"/>
      </g>
     </g>
    </g>
   </g>
   <g id="line2d_14">
    <path d="M 292.379679 244.666806 
L 321.865422 244.666806 
L 322.455137 223.2 
L 324.224282 223.2 
L 324.813997 237.511204 
L 326.583141 237.511204 
L 327.172856 261.840252 
L 328.942001 261.840252 
L 329.531716 264.592406 
L 331.30086 264.592406 
L 331.890575 291.878054 
L 333.65972 291.878054 
L 334.249435 303.737802 
L 336.018579 303.737802 
L 336.608294 316.430477 
L 338.377439 316.430477 
L 338.967154 327.577407 
L 340.736298 327.577407 
L 341.326013 342.035899 
L 343.095158 342.035899 
L 343.684872 353.038125 
L 347.812876 353.038125 
L 348.402591 343.929835 
L 352.530595 343.929835 
L 353.12031 356.879447 
L 354.889455 356.879447 
L 355.47917 345.937352 
L 357.248314 345.937352 
L 357.838029 337.110216 
L 361.966033 337.110216 
L 362.555748 339.326961 
L 364.324893 339.326961 
L 364.914608 328.43315 
L 369.042612 328.43315 
L 369.632327 317.58297 
L 371.401471 317.58297 
L 371.991186 306.774344 
L 373.760331 306.774344 
L 374.350045 316.787903 
L 376.11919 316.787903 
L 376.708905 300.525171 
L 380.836909 300.525171 
L 381.426624 285.453468 
L 383.195768 285.453468 
L 383.785483 294.935946 
L 385.554628 294.935946 
L 386.144343 285.453468 
L 387.913487 285.453468 
L 388.503202 299.938772 
L 392.631206 299.938772 
L 393.220921 310.163203 
L 394.990066 310.163203 
L 395.579781 327.973559 
L 397.348925 327.973559 
L 397.93864 325.296815 
L 399.707785 325.296815 
L 400.2975 332.03669 
L 402.066644 332.03669 
L 402.656359 329.46384 
L 404.425504 329.46384 
L 405.015218 326.94838 
L 406.784363 326.94838 
L 407.374078 331.359835 
L 409.143223 331.359835 
L 409.732937 356.618122 
L 411.502082 356.618122 
L 412.091797 347.615577 
L 413.860941 347.615577 
L 414.450656 354.602077 
L 416.219801 354.602077 
L 416.809516 379.534372 
L 418.57866 379.534372 
L 419.168375 388.0498 
L 420.93752 388.0498 
L 421.527235 395.560777 
L 428.014098 395.560777 
L 428.603813 403.8879 
L 430.372958 403.8879 
L 430.962673 419.726 
L 432.731817 419.726 
L 433.321532 411.412123 
L 435.090677 411.412123 
L 435.680391 427.277437 
L 437.449536 427.277437 
L 438.039251 442.996835 
L 439.808396 442.996835 
L 440.39811 450.585282 
L 442.167255 450.585282 
L 442.75697 474.580154 
L 444.526114 474.580154 
L 445.115829 490.703638 
L 446.884974 490.703638 
L 447.474689 514.984595 
L 449.243833 514.984595 
L 449.833548 538.858213 
L 451.602693 538.858213 
L 452.192408 554.896393 
L 453.961552 554.896393 
L 454.551267 563.098596 
L 456.320412 563.098596 
L 456.910127 579.136776 
L 458.679271 579.136776 
L 459.268986 571.410886 
L 461.038131 571.410886 
L 461.627846 556.148406 
L 463.39699 556.148406 
L 463.986705 541.062173 
L 465.75585 541.062173 
L 466.345564 533.519056 
L 468.114709 533.519056 
L 468.704424 549.642749 
L 472.832428 549.714882 
L 473.422143 551.096747 
L 475.191287 551.096747 
L 475.781002 576.212273 
L 479.909006 576.203536 
L 480.498721 561.734169 
L 482.267866 561.734169 
L 482.857581 554.507848 
L 484.626725 554.507848 
L 485.21644 540.07908 
L 486.985585 540.07908 
L 487.5753 556.565542 
L 489.344444 556.565542 
L 489.934159 563.776004 
L 494.062163 563.776004 
L 494.651878 570.986465 
L 496.421023 570.986465 
L 497.010737 563.783379 
L 498.779882 563.783379 
L 499.369597 558.818089 
L 501.138742 558.818089 
L 501.728456 544.56688 
L 503.497601 544.56688 
L 504.087316 546.961729 
L 505.85646 546.961729 
L 506.446175 559.109909 
L 508.21532 559.109909 
L 508.805035 561.783905 
L 510.574179 561.783905 
L 511.163894 554.714221 
L 515.291898 554.714221 
L 515.881613 571.487737 
L 517.650758 571.487737 
L 518.240473 564.516556 
L 520.009617 564.516556 
L 520.599332 557.55093 
L 522.368477 557.55093 
L 522.958192 560.460527 
L 524.727336 560.460527 
L 525.317051 563.429452 
L 527.086196 563.429452 
L 527.67591 573.380106 
L 529.445055 573.380106 
L 530.03477 590.321063 
L 531.803915 590.321063 
L 532.393629 617.301415 
L 534.162774 617.301415 
L 534.752489 634.242369 
L 536.521633 634.242369 
L 537.111348 658.074769 
L 538.880493 658.074769 
L 539.470208 685.065303 
L 541.239352 685.065303 
L 541.829067 708.847949 
L 543.598212 708.847949 
L 544.187927 742.8225 
L 545.957071 742.8225 
L 546.546786 770.015186 
L 548.315931 770.015186 
L 548.905646 776.870213 
L 550.67479 776.870213 
L 551.264505 804.130017 
L 553.03365 804.130017 
L 553.623365 807.490447 
L 555.392509 807.490447 
L 555.982224 827.965996 
L 560.110228 827.965996 
L 560.699943 838.20227 
L 564.827947 838.22119 
L 565.417662 848.469274 
L 567.186806 848.469274 
L 567.776521 841.683275 
L 571.904525 841.679434 
L 572.49424 852.001253 
L 574.263385 852.001253 
L 574.8531 869.09228 
L 576.622244 869.09228 
L 577.211959 855.624103 
L 578.981104 855.624103 
L 579.570819 859.337367 
L 581.339963 859.337367 
L 581.929678 845.952016 
L 583.698823 845.952016 
L 584.288538 825.954761 
L 586.057682 825.954761 
L 586.647397 836.453689 
L 588.416542 836.453689 
L 589.006256 816.512203 
L 590.775401 816.512203 
L 591.365116 833.691181 
L 593.134261 833.691181 
L 593.723975 830.955585 
L 600.210839 830.955585 
L 600.800554 824.357546 
L 602.569698 824.357546 
L 603.159413 811.176657 
L 604.928558 811.176657 
L 605.518273 798.005115 
L 607.287417 798.005115 
L 607.877132 771.707141 
L 609.646277 771.707141 
L 610.235992 745.527298 
L 612.005136 745.527298 
L 612.594851 725.949908 
L 614.363996 725.949908 
L 614.953711 706.420779 
L 616.722855 706.420779 
L 617.31257 699.922419 
L 619.081715 699.922419 
L 619.671429 680.459335 
L 621.440574 680.459335 
L 622.030289 667.498845 
L 626.158293 667.504117 
L 626.748008 661.035501 
L 628.517152 661.035501 
L 629.106867 641.65151 
L 630.876012 641.65151 
L 631.465727 659.034538 
L 633.234871 659.034538 
L 633.824586 639.685439 
L 635.593731 639.685439 
L 636.183446 661.607725 
L 637.95259 661.607725 
L 638.542305 702.857197 
L 640.31145 702.857197 
L 640.901165 696.42411 
L 642.670309 696.42411 
L 643.260024 694.549854 
L 645.029169 694.549854 
L 645.618884 668.868617 
L 647.388028 668.868617 
L 647.977743 679.89462 
L 649.746888 679.89462 
L 650.336602 708.363599 
L 652.105747 708.363599 
L 652.695462 735.129503 
L 654.464607 735.129503 
L 655.054321 752.572591 
L 656.823466 752.572591 
L 657.413181 782.769956 
L 659.182325 782.769956 
L 659.77204 811.311651 
L 661.541185 811.311651 
L 662.1309 828.770486 
L 663.900044 828.770486 
L 664.489759 839.880837 
L 666.258904 839.880837 
L 666.848619 843.05516 
L 668.617763 843.05516 
L 669.207478 871.662795 
L 670.976623 871.662795 
L 671.566338 895.490063 
L 673.335482 895.490063 
L 673.925197 900.298124 
L 675.694342 900.298124 
L 676.284057 911.448592 
L 678.053201 911.448592 
L 678.642916 944.938833 
L 680.412061 944.938833 
L 681.001775 973.614893 
L 682.77092 973.614893 
L 683.360635 1024.710059 
L 685.12978 1024.710059 
L 685.719494 1087.09329 
L 687.488639 1087.09329 
L 688.078354 1109.543399 
L 689.847498 1109.543399 
L 690.437213 1155.855966 
L 692.206358 1155.855966 
L 692.796073 1194.548185 
L 694.565217 1194.548185 
L 695.154932 1188.250916 
L 696.924077 1188.250916 
L 697.513792 1175.667352 
L 699.282936 1175.667352 
L 699.872651 1163.08927 
L 704.000655 1163.087592 
L 704.59037 1156.803545 
L 706.359515 1156.803545 
L 706.94923 1150.517836 
L 708.718374 1150.517836 
L 709.308089 1137.95683 
L 711.077234 1137.95683 
L 711.666948 1130.410467 
L 713.436093 1130.410467 
L 714.025808 1129.148402 
L 715.794953 1129.148402 
L 716.384667 1156.762791 
L 718.153812 1156.762791 
L 718.743527 1150.493878 
L 720.512671 1150.493878 
L 721.102386 1161.797295 
L 722.871531 1161.797295 
L 723.461246 1184.41402 
L 725.23039 1184.41402 
L 725.820105 1183.194756 
L 727.58925 1183.194756 
L 728.178965 1194.512954 
L 729.948109 1194.512954 
L 730.537824 1209.712565 
L 732.306969 1209.712565 
L 732.896684 1214.789703 
L 734.665828 1214.789703 
L 735.255543 1224.953778 
L 737.024688 1224.953778 
L 737.614403 1231.2 
L 739.383547 1231.2 
L 739.973262 1223.806652 
L 739.973262 1223.806652 
" clip-path="url(#pb4f5bd1b98)" style="fill: none; stroke: #0000ff; stroke-width: 1.5; stroke-linecap: square"/>
   </g>
   <g id="patch_3">
    <path d="M 270 1281.6 
L 270 172.8 
" style="fill: none; stroke: #000000; stroke-width: 0.8; stroke-linejoin: miter; stroke-linecap: square"/>
   </g>
   <g id="patch_4">
    <path d="M 762.352941 1281.6 
L 762.352941 172.8 
" style="fill: none; stroke: #000000; stroke-width: 0.8; stroke-linejoin: miter; stroke-linecap: square"/>
   </g>
   <g id="patch_5">
    <path d="M 270 1281.6 
L 762.352941 1281.6 
" style="fill: none; stroke: #000000; stroke-width: 0.8; stroke-linejoin: miter; stroke-linecap: square"/>
   </g>
   <g id="patch_6">
    <path d="M 270 172.8 
L 762.352941 172.8 
" style="fill: none; stroke: #000000; stroke-width: 0.8; stroke-linejoin: miter; stroke-linecap: square"/>
   </g>
   <g id="legend_1">
    <g id="patch_7">
     <path d="M 671.310754 195.478125 
L 755.352941 195.478125 
Q 757.352941 195.478125 757.352941 193.478125 
L 757.352941 179.8 
Q 757.352941 177.8 755.352941 177.8 
L 671.310754 177.8 
Q 669.310754 177.8 669.310754 179.8 
L 669.310754 193.478125 
Q 669.310754 195.478125 671.310754 195.478125 
z
" style="fill: #ffffff; opacity: 0.8; stroke: #cccccc; stroke-linejoin: miter"/>
    </g>
    <g id="line2d_15">
     <path d="M 673.310754 185.898437 
L 683.310754 185.898437 
L 693.310754 185.898437 
" style="fill: none; stroke: #0000ff; stroke-width: 1.5; stroke-linecap: square"/>
    </g>
    <g id="text_14">
     <!-- O1 reward -->
     <g transform="translate(701.310754 189.398437) scale(0.1 -0.1)">
      <defs>
       <path id="DejaVuSans-4f" d="M 2522 4238 
Q 1834 4238 1429 3725 
Q 1025 3213 1025 2328 
Q 1025 1447 1429 934 
Q 1834 422 2522 422 
Q 3209 422 3611 934 
Q 4013 1447 4013 2328 
Q 4013 3213 3611 3725 
Q 3209 4238 2522 4238 
z
M 2522 4750 
Q 3503 4750 4090 4092 
Q 4678 3434 4678 2328 
Q 4678 1225 4090 567 
Q 3503 -91 2522 -91 
Q 1538 -91 948 565 
Q 359 1222 359 2328 
Q 359 3434 948 4092 
Q 1538 4750 2522 4750 
z
" transform="scale(0.015625)"/>
       <path id="DejaVuSans-20" transform="scale(0.015625)"/>
       <path id="DejaVuSans-72" d="M 2631 2963 
Q 2534 3019 2420 3045 
Q 2306 3072 2169 3072 
Q 1681 3072 1420 2755 
Q 1159 2438 1159 1844 
L 1159 0 
L 581 0 
L 581 3500 
L 1159 3500 
L 1159 2956 
Q 1341 3275 1631 3429 
Q 1922 3584 2338 3584 
Q 2397 3584 2469 3576 
Q 2541 3569 2628 3553 
L 2631 2963 
z
" transform="scale(0.015625)"/>
       <path id="DejaVuSans-65" d="M 3597 1894 
L 3597 1613 
L 953 1613 
Q 991 1019 1311 708 
Q 1631 397 2203 397 
Q 2534 397 2845 478 
Q 3156 559 3463 722 
L 3463 178 
Q 3153 47 2828 -22 
Q 2503 -91 2169 -91 
Q 1331 -91 842 396 
Q 353 884 353 1716 
Q 353 2575 817 3079 
Q 1281 3584 2069 3584 
Q 2775 3584 3186 3129 
Q 3597 2675 3597 1894 
z
M 3022 2063 
Q 3016 2534 2758 2815 
Q 2500 3097 2075 3097 
Q 1594 3097 1305 2825 
Q 1016 2553 972 2059 
L 3022 2063 
z
" transform="scale(0.015625)"/>
       <path id="DejaVuSans-77" d="M 269 3500 
L 844 3500 
L 1563 769 
L 2278 3500 
L 2956 3500 
L 3675 769 
L 4391 3500 
L 4966 3500 
L 4050 0 
L 3372 0 
L 2619 2869 
L 1863 0 
L 1184 0 
L 269 3500 
z
" transform="scale(0.015625)"/>
       <path id="DejaVuSans-61" d="M 2194 1759 
Q 1497 1759 1228 1600 
Q 959 1441 959 1056 
Q 959 750 1161 570 
Q 1363 391 1709 391 
Q 2188 391 2477 730 
Q 2766 1069 2766 1631 
L 2766 1759 
L 2194 1759 
z
M 3341 1997 
L 3341 0 
L 2766 0 
L 2766 531 
Q 2569 213 2275 61 
Q 1981 -91 1556 -91 
Q 1019 -91 701 211 
Q 384 513 384 1019 
Q 384 1609 779 1909 
Q 1175 2209 1959 2209 
L 2766 2209 
L 2766 2266 
Q 2766 2663 2505 2880 
Q 2244 3097 1772 3097 
Q 1472 3097 1187 3025 
Q 903 2953 641 2809 
L 641 3341 
Q 956 3463 1253 3523 
Q 1550 3584 1831 3584 
Q 2591 3584 2966 3190 
Q 3341 2797 3341 1997 
z
" transform="scale(0.015625)"/>
       <path id="DejaVuSans-64" d="M 2906 2969 
L 2906 4863 
L 3481 4863 
L 3481 0 
L 2906 0 
L 2906 525 
Q 2725 213 2448 61 
Q 2172 -91 1784 -91 
Q 1150 -91 751 415 
Q 353 922 353 1747 
Q 353 2572 751 3078 
Q 1150 3584 1784 3584 
Q 2172 3584 2448 3432 
Q 2725 3281 2906 2969 
z
M 947 1747 
Q 947 1113 1208 752 
Q 1469 391 1925 391 
Q 2381 391 2643 752 
Q 2906 1113 2906 1747 
Q 2906 2381 2643 2742 
Q 2381 3103 1925 3103 
Q 1469 3103 1208 2742 
Q 947 2381 947 1747 
z
" transform="scale(0.015625)"/>
      </defs>
      <use xlink:href="#DejaVuSans-4f"/>
      <use xlink:href="#DejaVuSans-31" x="78.710938"/>
      <use xlink:href="#DejaVuSans-20" x="142.333984"/>
      <use xlink:href="#DejaVuSans-72" x="174.121094"/>
      <use xlink:href="#DejaVuSans-65" x="212.984375"/>
      <use xlink:href="#DejaVuSans-77" x="274.507812"/>
      <use xlink:href="#DejaVuSans-61" x="356.294922"/>
      <use xlink:href="#DejaVuSans-72" x="417.574219"/>
      <use xlink:href="#DejaVuSans-64" x="456.9375"/>
     </g>
    </g>
   </g>
  </g>
  <g id="axes_2">
   <g id="patch_8">
    <path d="M 860.823529 1281.6 
L 1353.176471 1281.6 
L 1353.176471 172.8 
L 860.823529 172.8 
z
" style="fill: #ffffff"/>
   </g>
   <g id="matplotlib.axis_3">
    <g id="xtick_9">
     <g id="line2d_16">
      <g>
       <use xlink:href="#md741940b95" x="882.613494" y="1281.6" style="stroke: #000000; stroke-width: 0.8"/>
      </g>
     </g>
     <g id="text_15">
      <!-- 0 -->
      <g transform="translate(879.432244 1296.198437) scale(0.1 -0.1)">
       <use xlink:href="#DejaVuSans-30"/>
      </g>
     </g>
    </g>
    <g id="xtick_10">
     <g id="line2d_17">
      <g>
       <use xlink:href="#md741940b95" x="941.58498" y="1281.6" style="stroke: #000000; stroke-width: 0.8"/>
      </g>
     </g>
     <g id="text_16">
      <!-- 100 -->
      <g transform="translate(932.04123 1296.198437) scale(0.1 -0.1)">
       <use xlink:href="#DejaVuSans-31"/>
       <use xlink:href="#DejaVuSans-30" x="63.623047"/>
       <use xlink:href="#DejaVuSans-30" x="127.246094"/>
      </g>
     </g>
    </g>
    <g id="xtick_11">
     <g id="line2d_18">
      <g>
       <use xlink:href="#md741940b95" x="1000.556467" y="1281.6" style="stroke: #000000; stroke-width: 0.8"/>
      </g>
     </g>
     <g id="text_17">
      <!-- 200 -->
      <g transform="translate(991.012717 1296.198437) scale(0.1 -0.1)">
       <use xlink:href="#DejaVuSans-32"/>
       <use xlink:href="#DejaVuSans-30" x="63.623047"/>
       <use xlink:href="#DejaVuSans-30" x="127.246094"/>
      </g>
     </g>
    </g>
    <g id="xtick_12">
     <g id="line2d_19">
      <g>
       <use xlink:href="#md741940b95" x="1059.527953" y="1281.6" style="stroke: #000000; stroke-width: 0.8"/>
      </g>
     </g>
     <g id="text_18">
      <!-- 300 -->
      <g transform="translate(1049.984203 1296.198437) scale(0.1 -0.1)">
       <use xlink:href="#DejaVuSans-33"/>
       <use xlink:href="#DejaVuSans-30" x="63.623047"/>
       <use xlink:href="#DejaVuSans-30" x="127.246094"/>
      </g>
     </g>
    </g>
    <g id="xtick_13">
     <g id="line2d_20">
      <g>
       <use xlink:href="#md741940b95" x="1118.49944" y="1281.6" style="stroke: #000000; stroke-width: 0.8"/>
      </g>
     </g>
     <g id="text_19">
      <!-- 400 -->
      <g transform="translate(1108.95569 1296.198437) scale(0.1 -0.1)">
       <use xlink:href="#DejaVuSans-34"/>
       <use xlink:href="#DejaVuSans-30" x="63.623047"/>
       <use xlink:href="#DejaVuSans-30" x="127.246094"/>
      </g>
     </g>
    </g>
    <g id="xtick_14">
     <g id="line2d_21">
      <g>
       <use xlink:href="#md741940b95" x="1177.470926" y="1281.6" style="stroke: #000000; stroke-width: 0.8"/>
      </g>
     </g>
     <g id="text_20">
      <!-- 500 -->
      <g transform="translate(1167.927176 1296.198437) scale(0.1 -0.1)">
       <use xlink:href="#DejaVuSans-35"/>
       <use xlink:href="#DejaVuSans-30" x="63.623047"/>
       <use xlink:href="#DejaVuSans-30" x="127.246094"/>
      </g>
     </g>
    </g>
    <g id="xtick_15">
     <g id="line2d_22">
      <g>
       <use xlink:href="#md741940b95" x="1236.442413" y="1281.6" style="stroke: #000000; stroke-width: 0.8"/>
      </g>
     </g>
     <g id="text_21">
      <!-- 600 -->
      <g transform="translate(1226.898663 1296.198437) scale(0.1 -0.1)">
       <use xlink:href="#DejaVuSans-36"/>
       <use xlink:href="#DejaVuSans-30" x="63.623047"/>
       <use xlink:href="#DejaVuSans-30" x="127.246094"/>
      </g>
     </g>
    </g>
    <g id="xtick_16">
     <g id="line2d_23">
      <g>
       <use xlink:href="#md741940b95" x="1295.4139" y="1281.6" style="stroke: #000000; stroke-width: 0.8"/>
      </g>
     </g>
     <g id="text_22">
      <!-- 700 -->
      <g transform="translate(1285.87015 1296.198437) scale(0.1 -0.1)">
       <use xlink:href="#DejaVuSans-37"/>
       <use xlink:href="#DejaVuSans-30" x="63.623047"/>
       <use xlink:href="#DejaVuSans-30" x="127.246094"/>
      </g>
     </g>
    </g>
   </g>
   <g id="matplotlib.axis_4">
    <g id="ytick_6">
     <g id="line2d_24">
      <g>
       <use xlink:href="#mcb5b31a8c6" x="860.823529" y="1231.2" style="stroke: #000000; stroke-width: 0.8"/>
      </g>
     </g>
     <g id="text_23">
      <!-- 0 -->
      <g transform="translate(847.461029 1234.999219) scale(0.1 -0.1)">
       <use xlink:href="#DejaVuSans-30"/>
      </g>
     </g>
    </g>
    <g id="ytick_7">
     <g id="line2d_25">
      <g>
       <use xlink:href="#mcb5b31a8c6" x="860.823529" y="1094.879716" style="stroke: #000000; stroke-width: 0.8"/>
      </g>
     </g>
     <g id="text_24">
      <!-- 10 -->
      <g transform="translate(841.098529 1098.678934) scale(0.1 -0.1)">
       <use xlink:href="#DejaVuSans-31"/>
       <use xlink:href="#DejaVuSans-30" x="63.623047"/>
      </g>
     </g>
    </g>
    <g id="ytick_8">
     <g id="line2d_26">
      <g>
       <use xlink:href="#mcb5b31a8c6" x="860.823529" y="958.559431" style="stroke: #000000; stroke-width: 0.8"/>
      </g>
     </g>
     <g id="text_25">
      <!-- 20 -->
      <g transform="translate(841.098529 962.35865) scale(0.1 -0.1)">
       <use xlink:href="#DejaVuSans-32"/>
       <use xlink:href="#DejaVuSans-30" x="63.623047"/>
      </g>
     </g>
    </g>
    <g id="ytick_9">
     <g id="line2d_27">
      <g>
       <use xlink:href="#mcb5b31a8c6" x="860.823529" y="822.239147" style="stroke: #000000; stroke-width: 0.8"/>
      </g>
     </g>
     <g id="text_26">
      <!-- 30 -->
      <g transform="translate(841.098529 826.038366) scale(0.1 -0.1)">
       <use xlink:href="#DejaVuSans-33"/>
       <use xlink:href="#DejaVuSans-30" x="63.623047"/>
      </g>
     </g>
    </g>
    <g id="ytick_10">
     <g id="line2d_28">
      <g>
       <use xlink:href="#mcb5b31a8c6" x="860.823529" y="685.918863" style="stroke: #000000; stroke-width: 0.8"/>
      </g>
     </g>
     <g id="text_27">
      <!-- 40 -->
      <g transform="translate(841.098529 689.718082) scale(0.1 -0.1)">
       <use xlink:href="#DejaVuSans-34"/>
       <use xlink:href="#DejaVuSans-30" x="63.623047"/>
      </g>
     </g>
    </g>
    <g id="ytick_11">
     <g id="line2d_29">
      <g>
       <use xlink:href="#mcb5b31a8c6" x="860.823529" y="549.598579" style="stroke: #000000; stroke-width: 0.8"/>
      </g>
     </g>
     <g id="text_28">
      <!-- 50 -->
      <g transform="translate(841.098529 553.397797) scale(0.1 -0.1)">
       <use xlink:href="#DejaVuSans-35"/>
       <use xlink:href="#DejaVuSans-30" x="63.623047"/>
      </g>
     </g>
    </g>
    <g id="ytick_12">
     <g id="line2d_30">
      <g>
       <use xlink:href="#mcb5b31a8c6" x="860.823529" y="413.278294" style="stroke: #000000; stroke-width: 0.8"/>
      </g>
     </g>
     <g id="text_29">
      <!-- 60 -->
      <g transform="translate(841.098529 417.077513) scale(0.1 -0.1)">
       <use xlink:href="#DejaVuSans-36"/>
       <use xlink:href="#DejaVuSans-30" x="63.623047"/>
      </g>
     </g>
    </g>
    <g id="ytick_13">
     <g id="line2d_31">
      <g>
       <use xlink:href="#mcb5b31a8c6" x="860.823529" y="276.95801" style="stroke: #000000; stroke-width: 0.8"/>
      </g>
     </g>
     <g id="text_30">
      <!-- 70 -->
      <g transform="translate(841.098529 280.757229) scale(0.1 -0.1)">
       <use xlink:href="#DejaVuSans-37"/>
       <use xlink:href="#DejaVuSans-30" x="63.623047"/>
      </g>
     </g>
    </g>
   </g>
   <g id="line2d_32">
    <path d="M 883.203209 1231.2 
L 910.330092 1231.099216 
L 910.919807 1225.607151 
L 912.688952 1225.607151 
L 913.278667 1227.759629 
L 915.047811 1227.759629 
L 915.637526 1226.479551 
L 917.406671 1226.479551 
L 917.996386 1229.003062 
L 919.76553 1229.003062 
L 920.355245 1217.665475 
L 922.12439 1217.665475 
L 922.714105 1200.479363 
L 924.483249 1200.479363 
L 925.072964 1191.929634 
L 926.842109 1191.929634 
L 927.431823 1169.408886 
L 929.200968 1169.408886 
L 929.790683 1148.653318 
L 940.995265 1148.653318 
L 941.58498 1139.645072 
L 948.071844 1139.645072 
L 948.661559 1130.037616 
L 955.148422 1130.037616 
L 955.738137 1116.947623 
L 957.507282 1116.947623 
L 958.096996 1113.272059 
L 959.866141 1113.272059 
L 960.455856 1109.227536 
L 964.58386 1109.227536 
L 965.173575 1084.401076 
L 966.942719 1084.401076 
L 967.532434 1045.359391 
L 969.301579 1045.359391 
L 969.891294 1034.959058 
L 971.660438 1034.959058 
L 972.250153 1014.931518 
L 974.019298 1014.931518 
L 974.609013 966.450065 
L 976.378157 966.450065 
L 976.967872 932.706897 
L 1002.325611 932.706897 
L 1002.915326 922.757431 
L 1009.40219 922.757431 
L 1009.991905 912.954183 
L 1011.761049 912.954183 
L 1012.350764 903.048439 
L 1014.119909 903.048439 
L 1014.709624 893.042826 
L 1018.837628 893.042826 
L 1019.427342 889.511317 
L 1028.273065 889.511317 
L 1028.86278 885.884901 
L 1030.631925 885.884901 
L 1031.22164 861.811947 
L 1032.990784 861.811947 
L 1033.580499 843.427847 
L 1035.349644 843.427847 
L 1035.939359 802.684944 
L 1037.708503 802.684944 
L 1038.298218 766.8424 
L 1040.067363 766.8424 
L 1040.657078 738.591583 
L 1042.426222 738.591583 
L 1043.015937 703.851221 
L 1044.785082 703.851221 
L 1045.374797 661.657377 
L 1047.143941 661.657377 
L 1047.733656 642.787167 
L 1049.502801 642.787167 
L 1050.092515 616.653077 
L 1056.579379 616.653077 
L 1057.169094 610.753065 
L 1058.938238 610.753065 
L 1059.527953 598.553118 
L 1061.297098 598.553118 
L 1061.886813 606.972494 
L 1063.655957 606.972494 
L 1064.245672 610.977044 
L 1066.014817 610.977044 
L 1066.604532 619.295777 
L 1068.373676 619.295777 
L 1068.963391 623.589709 
L 1070.732536 623.589709 
L 1071.322251 627.491539 
L 1073.091395 627.491539 
L 1073.68111 615.470912 
L 1077.809114 615.470912 
L 1078.398829 607.296627 
L 1080.167974 607.296627 
L 1080.757688 603.530657 
L 1082.526833 603.530657 
L 1083.116548 591.721225 
L 1084.885693 591.721225 
L 1085.475407 568.425927 
L 1087.244552 568.425927 
L 1087.834267 557.272281 
L 1089.603411 557.272281 
L 1090.193126 547.575661 
L 1091.962271 547.575661 
L 1092.551986 541.298165 
L 1094.32113 541.298165 
L 1094.910845 530.987438 
L 1096.67999 530.987438 
L 1097.269705 541.196336 
L 1099.038849 541.196336 
L 1099.628564 564.066668 
L 1101.397709 564.066668 
L 1101.987424 556.898115 
L 1103.756568 556.898115 
L 1104.346283 537.230188 
L 1106.115428 537.230188 
L 1106.705143 520.542578 
L 1108.474287 520.542578 
L 1109.064002 522.952387 
L 1110.833147 522.952387 
L 1111.422861 507.103845 
L 1113.192006 507.103845 
L 1113.781721 493.484744 
L 1115.550866 493.484744 
L 1116.14058 491.277255 
L 1120.268584 491.19654 
L 1120.858299 493.339571 
L 1122.627444 493.339571 
L 1123.217159 489.146067 
L 1124.986303 489.146067 
L 1125.576018 476.055652 
L 1127.345163 476.055652 
L 1127.934878 478.021372 
L 1129.704022 478.021372 
L 1130.293737 473.56783 
L 1132.062882 473.56783 
L 1132.652597 460.813124 
L 1134.421741 460.813124 
L 1135.011456 452.619972 
L 1136.780601 452.619972 
L 1137.370316 444.492792 
L 1139.13946 444.492792 
L 1139.729175 440.067481 
L 1141.49832 440.067481 
L 1142.088034 437.440123 
L 1146.216039 437.440123 
L 1146.805753 453.330633 
L 1148.574898 453.330633 
L 1149.164613 461.157439 
L 1150.933757 461.157439 
L 1151.523472 458.372848 
L 1153.292617 458.372848 
L 1153.882332 464.348251 
L 1155.651476 464.348251 
L 1156.241191 465.828582 
L 1158.010336 465.828582 
L 1158.600051 482.027794 
L 1160.369195 482.027794 
L 1160.95891 485.120651 
L 1162.728055 485.120651 
L 1163.31777 498.064077 
L 1165.086914 498.064077 
L 1165.676629 497.432739 
L 1167.445774 497.432739 
L 1168.035489 484.823662 
L 1169.804633 484.823662 
L 1170.394348 476.753956 
L 1172.163493 476.753956 
L 1172.753207 475.560923 
L 1174.522352 475.560923 
L 1175.112067 468.795051 
L 1176.881212 468.795051 
L 1177.470926 457.637909 
L 1179.240071 457.637909 
L 1179.829786 462.106819 
L 1181.59893 462.106819 
L 1182.188645 466.568305 
L 1183.95779 466.568305 
L 1184.547505 465.505844 
L 1186.316649 465.505844 
L 1186.906364 461.029434 
L 1188.675509 461.029434 
L 1189.265224 449.020146 
L 1191.034368 449.020146 
L 1191.624083 441.568646 
L 1195.752087 441.568646 
L 1196.341802 435.189047 
L 1198.110947 435.189047 
L 1198.700662 442.411825 
L 1200.469806 442.411825 
L 1201.059521 454.821783 
L 1202.828666 454.821783 
L 1203.418381 458.493577 
L 1205.187525 458.493577 
L 1205.77724 457.750607 
L 1207.546385 457.750607 
L 1208.136099 456.306983 
L 1209.905244 456.306983 
L 1210.494959 459.436039 
L 1212.264103 459.436039 
L 1212.853818 447.980434 
L 1214.622963 447.980434 
L 1215.212678 419.855821 
L 1216.981822 419.855821 
L 1217.571537 403.276918 
L 1219.340682 403.276918 
L 1219.930397 381.474076 
L 1221.699541 381.474076 
L 1222.289256 359.530022 
L 1224.058401 359.530022 
L 1224.648116 338.744986 
L 1226.41726 338.744986 
L 1227.006975 327.890379 
L 1228.77612 327.890379 
L 1229.365835 312.693941 
L 1231.134979 312.693941 
L 1231.724694 292.215185 
L 1233.493839 292.215185 
L 1234.083554 282.100601 
L 1235.852698 282.100601 
L 1236.442413 267.090364 
L 1238.211558 267.090364 
L 1238.801272 272.289934 
L 1240.570417 272.289934 
L 1241.160132 263.334845 
L 1242.929276 263.334845 
L 1243.518991 277.803811 
L 1245.288136 277.803811 
L 1245.877851 278.211763 
L 1247.646995 278.211763 
L 1248.23671 278.54948 
L 1250.005855 278.54948 
L 1250.59557 274.229505 
L 1252.364714 274.229505 
L 1252.954429 274.379439 
L 1254.723574 274.379439 
L 1255.313289 274.6532 
L 1257.082433 274.6532 
L 1257.672148 288.726203 
L 1259.441293 288.726203 
L 1260.031008 297.879032 
L 1261.800152 297.879032 
L 1262.389867 302.356668 
L 1264.159012 302.356668 
L 1264.748727 297.87167 
L 1266.517871 297.87167 
L 1267.107586 293.205866 
L 1268.876731 293.205866 
L 1269.466445 284.073892 
L 1271.23559 284.073892 
L 1271.825305 275.04621 
L 1275.953309 275.028094 
L 1276.543024 279.571319 
L 1278.312168 279.571319 
L 1278.901883 275.180956 
L 1280.671028 275.180956 
L 1281.260743 270.81655 
L 1283.029887 270.81655 
L 1283.619602 270.975022 
L 1285.388747 270.975022 
L 1285.978462 288.738699 
L 1287.747606 288.738699 
L 1288.337321 293.303723 
L 1290.106466 293.303723 
L 1290.696181 281.059238 
L 1292.465325 281.059238 
L 1293.05504 285.693597 
L 1294.824185 285.693597 
L 1295.4139 290.691367 
L 1297.183044 290.691367 
L 1297.772759 286.406451 
L 1299.541904 286.406451 
L 1300.131618 286.804021 
L 1301.900763 286.804021 
L 1302.490478 292.41145 
L 1304.259622 292.41145 
L 1304.849337 293.941773 
L 1308.977341 293.944693 
L 1309.567056 281.370447 
L 1311.336201 281.370447 
L 1311.925916 273.019718 
L 1313.69506 273.019718 
L 1314.284775 268.848507 
L 1316.05392 268.848507 
L 1316.643635 260.520197 
L 1318.412779 260.520197 
L 1319.002494 256.363075 
L 1320.771639 256.363075 
L 1321.361354 252.208652 
L 1323.130498 252.208652 
L 1323.720213 243.90774 
L 1325.489358 243.90774 
L 1326.079073 235.617143 
L 1327.848217 235.617143 
L 1328.437932 227.336576 
L 1330.207077 227.336576 
L 1330.796791 223.2 
L 1330.796791 223.2 
" clip-path="url(#p024e8e43d0)" style="fill: none; stroke: #0000ff; stroke-width: 1.5; stroke-linecap: square"/>
   </g>
   <g id="patch_9">
    <path d="M 860.823529 1281.6 
L 860.823529 172.8 
" style="fill: none; stroke: #000000; stroke-width: 0.8; stroke-linejoin: miter; stroke-linecap: square"/>
   </g>
   <g id="patch_10">
    <path d="M 1353.176471 1281.6 
L 1353.176471 172.8 
" style="fill: none; stroke: #000000; stroke-width: 0.8; stroke-linejoin: miter; stroke-linecap: square"/>
   </g>
   <g id="patch_11">
    <path d="M 860.823529 1281.6 
L 1353.176471 1281.6 
" style="fill: none; stroke: #000000; stroke-width: 0.8; stroke-linejoin: miter; stroke-linecap: square"/>
   </g>
   <g id="patch_12">
    <path d="M 860.823529 172.8 
L 1353.176471 172.8 
" style="fill: none; stroke: #000000; stroke-width: 0.8; stroke-linejoin: miter; stroke-linecap: square"/>
   </g>
   <g id="legend_2">
    <g id="patch_13">
     <path d="M 1262.134283 195.478125 
L 1346.176471 195.478125 
Q 1348.176471 195.478125 1348.176471 193.478125 
L 1348.176471 179.8 
Q 1348.176471 177.8 1346.176471 177.8 
L 1262.134283 177.8 
Q 1260.134283 177.8 1260.134283 179.8 
L 1260.134283 193.478125 
Q 1260.134283 195.478125 1262.134283 195.478125 
z
" style="fill: #ffffff; opacity: 0.8; stroke: #cccccc; stroke-linejoin: miter"/>
    </g>
    <g id="line2d_33">
     <path d="M 1264.134283 185.898437 
L 1274.134283 185.898437 
L 1284.134283 185.898437 
" style="fill: none; stroke: #0000ff; stroke-width: 1.5; stroke-linecap: square"/>
    </g>
    <g id="text_31">
     <!-- O2 reward -->
     <g transform="translate(1292.134283 189.398437) scale(0.1 -0.1)">
      <use xlink:href="#DejaVuSans-4f"/>
      <use xlink:href="#DejaVuSans-32" x="78.710938"/>
      <use xlink:href="#DejaVuSans-20" x="142.333984"/>
      <use xlink:href="#DejaVuSans-72" x="174.121094"/>
      <use xlink:href="#DejaVuSans-65" x="212.984375"/>
      <use xlink:href="#DejaVuSans-77" x="274.507812"/>
      <use xlink:href="#DejaVuSans-61" x="356.294922"/>
      <use xlink:href="#DejaVuSans-72" x="417.574219"/>
      <use xlink:href="#DejaVuSans-64" x="456.9375"/>
     </g>
    </g>
   </g>
  </g>
  <g id="axes_3">
   <g id="patch_14">
    <path d="M 1451.647059 1281.6 
L 1944 1281.6 
L 1944 172.8 
L 1451.647059 172.8 
z
" style="fill: #ffffff"/>
   </g>
   <g id="matplotlib.axis_5">
    <g id="xtick_17">
     <g id="line2d_34">
      <g>
       <use xlink:href="#md741940b95" x="1473.437023" y="1281.6" style="stroke: #000000; stroke-width: 0.8"/>
      </g>
     </g>
     <g id="text_32">
      <!-- 0 -->
      <g transform="translate(1470.255773 1296.198437) scale(0.1 -0.1)">
       <use xlink:href="#DejaVuSans-30"/>
      </g>
     </g>
    </g>
    <g id="xtick_18">
     <g id="line2d_35">
      <g>
       <use xlink:href="#md741940b95" x="1532.40851" y="1281.6" style="stroke: #000000; stroke-width: 0.8"/>
      </g>
     </g>
     <g id="text_33">
      <!-- 100 -->
      <g transform="translate(1522.86476 1296.198437) scale(0.1 -0.1)">
       <use xlink:href="#DejaVuSans-31"/>
       <use xlink:href="#DejaVuSans-30" x="63.623047"/>
       <use xlink:href="#DejaVuSans-30" x="127.246094"/>
      </g>
     </g>
    </g>
    <g id="xtick_19">
     <g id="line2d_36">
      <g>
       <use xlink:href="#md741940b95" x="1591.379996" y="1281.6" style="stroke: #000000; stroke-width: 0.8"/>
      </g>
     </g>
     <g id="text_34">
      <!-- 200 -->
      <g transform="translate(1581.836246 1296.198437) scale(0.1 -0.1)">
       <use xlink:href="#DejaVuSans-32"/>
       <use xlink:href="#DejaVuSans-30" x="63.623047"/>
       <use xlink:href="#DejaVuSans-30" x="127.246094"/>
      </g>
     </g>
    </g>
    <g id="xtick_20">
     <g id="line2d_37">
      <g>
       <use xlink:href="#md741940b95" x="1650.351483" y="1281.6" style="stroke: #000000; stroke-width: 0.8"/>
      </g>
     </g>
     <g id="text_35">
      <!-- 300 -->
      <g transform="translate(1640.807733 1296.198437) scale(0.1 -0.1)">
       <use xlink:href="#DejaVuSans-33"/>
       <use xlink:href="#DejaVuSans-30" x="63.623047"/>
       <use xlink:href="#DejaVuSans-30" x="127.246094"/>
      </g>
     </g>
    </g>
    <g id="xtick_21">
     <g id="line2d_38">
      <g>
       <use xlink:href="#md741940b95" x="1709.322969" y="1281.6" style="stroke: #000000; stroke-width: 0.8"/>
      </g>
     </g>
     <g id="text_36">
      <!-- 400 -->
      <g transform="translate(1699.779219 1296.198437) scale(0.1 -0.1)">
       <use xlink:href="#DejaVuSans-34"/>
       <use xlink:href="#DejaVuSans-30" x="63.623047"/>
       <use xlink:href="#DejaVuSans-30" x="127.246094"/>
      </g>
     </g>
    </g>
    <g id="xtick_22">
     <g id="line2d_39">
      <g>
       <use xlink:href="#md741940b95" x="1768.294456" y="1281.6" style="stroke: #000000; stroke-width: 0.8"/>
      </g>
     </g>
     <g id="text_37">
      <!-- 500 -->
      <g transform="translate(1758.750706 1296.198437) scale(0.1 -0.1)">
       <use xlink:href="#DejaVuSans-35"/>
       <use xlink:href="#DejaVuSans-30" x="63.623047"/>
       <use xlink:href="#DejaVuSans-30" x="127.246094"/>
      </g>
     </g>
    </g>
    <g id="xtick_23">
     <g id="line2d_40">
      <g>
       <use xlink:href="#md741940b95" x="1827.265942" y="1281.6" style="stroke: #000000; stroke-width: 0.8"/>
      </g>
     </g>
     <g id="text_38">
      <!-- 600 -->
      <g transform="translate(1817.722192 1296.198437) scale(0.1 -0.1)">
       <use xlink:href="#DejaVuSans-36"/>
       <use xlink:href="#DejaVuSans-30" x="63.623047"/>
       <use xlink:href="#DejaVuSans-30" x="127.246094"/>
      </g>
     </g>
    </g>
    <g id="xtick_24">
     <g id="line2d_41">
      <g>
       <use xlink:href="#md741940b95" x="1886.237429" y="1281.6" style="stroke: #000000; stroke-width: 0.8"/>
      </g>
     </g>
     <g id="text_39">
      <!-- 700 -->
      <g transform="translate(1876.693679 1296.198437) scale(0.1 -0.1)">
       <use xlink:href="#DejaVuSans-37"/>
       <use xlink:href="#DejaVuSans-30" x="63.623047"/>
       <use xlink:href="#DejaVuSans-30" x="127.246094"/>
      </g>
     </g>
    </g>
   </g>
   <g id="matplotlib.axis_6">
    <g id="ytick_14">
     <g id="line2d_42">
      <g>
       <use xlink:href="#mcb5b31a8c6" x="1451.647059" y="1231.2" style="stroke: #000000; stroke-width: 0.8"/>
      </g>
     </g>
     <g id="text_40">
      <!-- 0.0 -->
      <g transform="translate(1428.743934 1234.999219) scale(0.1 -0.1)">
       <defs>
        <path id="DejaVuSans-2e" d="M 684 794 
L 1344 794 
L 1344 0 
L 684 0 
L 684 794 
z
" transform="scale(0.015625)"/>
       </defs>
       <use xlink:href="#DejaVuSans-30"/>
       <use xlink:href="#DejaVuSans-2e" x="63.623047"/>
       <use xlink:href="#DejaVuSans-30" x="95.410156"/>
      </g>
     </g>
    </g>
    <g id="ytick_15">
     <g id="line2d_43">
      <g>
       <use xlink:href="#mcb5b31a8c6" x="1451.647059" y="1089.221978" style="stroke: #000000; stroke-width: 0.8"/>
      </g>
     </g>
     <g id="text_41">
      <!-- 2.5 -->
      <g transform="translate(1428.743934 1093.021197) scale(0.1 -0.1)">
       <use xlink:href="#DejaVuSans-32"/>
       <use xlink:href="#DejaVuSans-2e" x="63.623047"/>
       <use xlink:href="#DejaVuSans-35" x="95.410156"/>
      </g>
     </g>
    </g>
    <g id="ytick_16">
     <g id="line2d_44">
      <g>
       <use xlink:href="#mcb5b31a8c6" x="1451.647059" y="947.243957" style="stroke: #000000; stroke-width: 0.8"/>
      </g>
     </g>
     <g id="text_42">
      <!-- 5.0 -->
      <g transform="translate(1428.743934 951.043176) scale(0.1 -0.1)">
       <use xlink:href="#DejaVuSans-35"/>
       <use xlink:href="#DejaVuSans-2e" x="63.623047"/>
       <use xlink:href="#DejaVuSans-30" x="95.410156"/>
      </g>
     </g>
    </g>
    <g id="ytick_17">
     <g id="line2d_45">
      <g>
       <use xlink:href="#mcb5b31a8c6" x="1451.647059" y="805.265935" style="stroke: #000000; stroke-width: 0.8"/>
      </g>
     </g>
     <g id="text_43">
      <!-- 7.5 -->
      <g transform="translate(1428.743934 809.065154) scale(0.1 -0.1)">
       <use xlink:href="#DejaVuSans-37"/>
       <use xlink:href="#DejaVuSans-2e" x="63.623047"/>
       <use xlink:href="#DejaVuSans-35" x="95.410156"/>
      </g>
     </g>
    </g>
    <g id="ytick_18">
     <g id="line2d_46">
      <g>
       <use xlink:href="#mcb5b31a8c6" x="1451.647059" y="663.287914" style="stroke: #000000; stroke-width: 0.8"/>
      </g>
     </g>
     <g id="text_44">
      <!-- 10.0 -->
      <g transform="translate(1422.381434 667.087132) scale(0.1 -0.1)">
       <use xlink:href="#DejaVuSans-31"/>
       <use xlink:href="#DejaVuSans-30" x="63.623047"/>
       <use xlink:href="#DejaVuSans-2e" x="127.246094"/>
       <use xlink:href="#DejaVuSans-30" x="159.033203"/>
      </g>
     </g>
    </g>
    <g id="ytick_19">
     <g id="line2d_47">
      <g>
       <use xlink:href="#mcb5b31a8c6" x="1451.647059" y="521.309892" style="stroke: #000000; stroke-width: 0.8"/>
      </g>
     </g>
     <g id="text_45">
      <!-- 12.5 -->
      <g transform="translate(1422.381434 525.109111) scale(0.1 -0.1)">
       <use xlink:href="#DejaVuSans-31"/>
       <use xlink:href="#DejaVuSans-32" x="63.623047"/>
       <use xlink:href="#DejaVuSans-2e" x="127.246094"/>
       <use xlink:href="#DejaVuSans-35" x="159.033203"/>
      </g>
     </g>
    </g>
    <g id="ytick_20">
     <g id="line2d_48">
      <g>
       <use xlink:href="#mcb5b31a8c6" x="1451.647059" y="379.33187" style="stroke: #000000; stroke-width: 0.8"/>
      </g>
     </g>
     <g id="text_46">
      <!-- 15.0 -->
      <g transform="translate(1422.381434 383.131089) scale(0.1 -0.1)">
       <use xlink:href="#DejaVuSans-31"/>
       <use xlink:href="#DejaVuSans-35" x="63.623047"/>
       <use xlink:href="#DejaVuSans-2e" x="127.246094"/>
       <use xlink:href="#DejaVuSans-30" x="159.033203"/>
      </g>
     </g>
    </g>
    <g id="ytick_21">
     <g id="line2d_49">
      <g>
       <use xlink:href="#mcb5b31a8c6" x="1451.647059" y="237.353849" style="stroke: #000000; stroke-width: 0.8"/>
      </g>
     </g>
     <g id="text_47">
      <!-- 17.5 -->
      <g transform="translate(1422.381434 241.153068) scale(0.1 -0.1)">
       <use xlink:href="#DejaVuSans-31"/>
       <use xlink:href="#DejaVuSans-37" x="63.623047"/>
       <use xlink:href="#DejaVuSans-2e" x="127.246094"/>
       <use xlink:href="#DejaVuSans-35" x="159.033203"/>
      </g>
     </g>
    </g>
   </g>
   <g id="line2d_50">
    <path d="M 1474.026738 1231.2 
L 1498.794762 1231.2 
L 1499.384477 1209.05127 
L 1501.153622 1209.05127 
L 1501.743337 1191.352846 
L 1503.512481 1191.352846 
L 1504.102196 1176.298669 
L 1505.871341 1176.298669 
L 1506.461056 1153.987837 
L 1508.2302 1153.987837 
L 1508.819915 1146.485333 
L 1510.58906 1146.485333 
L 1511.178774 1117.27706 
L 1512.947919 1117.27706 
L 1513.537634 1125.763234 
L 1515.306779 1125.763234 
L 1515.896493 1109.140811 
L 1517.665638 1109.140811 
L 1518.255353 1092.751377 
L 1520.024497 1092.751377 
L 1520.614212 1081.633626 
L 1522.383357 1081.633626 
L 1522.973072 1062.804208 
L 1524.742216 1062.804208 
L 1525.331931 1045.129231 
L 1527.101076 1045.129231 
L 1527.690791 1034.176506 
L 1531.818795 1034.176506 
L 1532.40851 1029.355214 
L 1534.177654 1029.355214 
L 1534.767369 1018.797873 
L 1536.536514 1018.797873 
L 1537.126229 1012.918414 
L 1541.254233 1012.918414 
L 1541.843947 1008.529323 
L 1543.613092 1008.529323 
L 1544.202807 998.91388 
L 1548.330811 998.91388 
L 1548.920526 994.885942 
L 1550.68967 994.885942 
L 1551.279385 977.905531 
L 1553.04853 977.905531 
L 1553.638245 954.078724 
L 1555.407389 954.078724 
L 1555.997104 937.386544 
L 1557.766249 937.386544 
L 1558.355964 926.279259 
L 1560.125108 926.279259 
L 1560.714823 895.295674 
L 1562.483968 895.295674 
L 1563.073683 879.88065 
L 1564.842827 879.88065 
L 1565.432542 875.041431 
L 1567.201687 875.041431 
L 1567.791402 859.94875 
L 1569.560546 859.94875 
L 1570.150261 849.896955 
L 1571.919406 849.896955 
L 1572.509121 841.31953 
L 1574.278265 841.31953 
L 1574.86798 826.32509 
L 1576.637125 826.32509 
L 1577.226839 820.215048 
L 1578.995984 820.215048 
L 1579.585699 806.554918 
L 1583.713703 806.457073 
L 1584.303418 810.32044 
L 1586.072562 810.32044 
L 1586.662277 812.713699 
L 1588.431422 812.713699 
L 1589.021137 807.108821 
L 1590.790281 807.108821 
L 1591.379996 809.460703 
L 1593.149141 809.460703 
L 1593.738856 806.167663 
L 1595.508 806.167663 
L 1596.097715 809.865476 
L 1597.86686 809.865476 
L 1598.456575 806.397719 
L 1602.584579 806.397719 
L 1603.174294 802.863805 
L 1604.943438 802.863805 
L 1605.533153 792.431937 
L 1607.302298 792.431937 
L 1607.892012 783.38515 
L 1609.661157 783.38515 
L 1610.250872 788.9045 
L 1612.020016 788.9045 
L 1612.609731 791.114512 
L 1619.096595 791.114512 
L 1619.68631 780.820705 
L 1621.455454 780.820705 
L 1622.045169 761.454138 
L 1623.814314 761.454138 
L 1624.404029 752.062634 
L 1626.173173 752.062634 
L 1626.762888 745.427842 
L 1628.532033 745.427842 
L 1629.121748 741.078356 
L 1630.890892 741.078356 
L 1631.480607 730.691252 
L 1633.249752 730.691252 
L 1633.839467 723.722367 
L 1635.608611 723.722367 
L 1636.198326 718.313835 
L 1637.967471 718.313835 
L 1638.557185 707.242491 
L 1640.32633 707.242491 
L 1640.916045 700.686107 
L 1642.685189 700.686107 
L 1643.274904 691.640692 
L 1645.044049 691.640692 
L 1645.633764 689.156563 
L 1647.402908 689.156563 
L 1647.992623 678.953441 
L 1649.761768 678.953441 
L 1650.351483 670.499286 
L 1652.120627 670.499286 
L 1652.710342 662.194254 
L 1654.479487 662.194254 
L 1655.069202 654.219777 
L 1659.197206 654.219777 
L 1659.786921 648.675873 
L 1661.556065 648.675873 
L 1662.14578 643.862357 
L 1663.914925 643.862357 
L 1664.50464 646.119222 
L 1666.273784 646.119222 
L 1666.863499 641.856142 
L 1668.632644 641.856142 
L 1669.222358 634.448293 
L 1670.991503 634.448293 
L 1671.581218 629.13286 
L 1673.350362 629.13286 
L 1673.940077 623.773094 
L 1675.709222 623.773094 
L 1676.298937 616.679432 
L 1678.068081 616.679432 
L 1678.657796 601.571118 
L 1680.426941 601.571118 
L 1681.016656 599.880909 
L 1682.7858 599.880909 
L 1683.375515 597.516785 
L 1685.14466 597.516785 
L 1685.734375 588.238022 
L 1687.503519 588.238022 
L 1688.093234 581.601192 
L 1689.862379 581.601192 
L 1690.452094 577.026903 
L 1692.221238 577.026903 
L 1692.810953 568.809181 
L 1694.580098 568.809181 
L 1695.169813 559.44534 
L 1696.938957 559.44534 
L 1697.528672 554.465562 
L 1699.297817 554.465562 
L 1699.887531 553.551336 
L 1701.656676 553.551336 
L 1702.246391 550.898793 
L 1704.015535 550.898793 
L 1704.60525 547.334882 
L 1706.374395 547.334882 
L 1706.96411 542.1172 
L 1708.733254 542.1172 
L 1709.322969 540.413243 
L 1711.092114 540.413243 
L 1711.681829 533.06044 
L 1713.450973 533.06044 
L 1714.040688 530.544944 
L 1715.809833 530.544944 
L 1716.399548 526.726648 
L 1718.168692 526.726648 
L 1718.758407 522.92801 
L 1720.527552 522.92801 
L 1721.117267 518.731456 
L 1725.245271 518.731456 
L 1725.834986 516.241646 
L 1727.60413 516.241646 
L 1728.193845 514.995992 
L 1729.96299 514.995992 
L 1730.552704 509.637264 
L 1734.680709 509.637264 
L 1735.270423 510.871711 
L 1737.039568 510.871711 
L 1737.629283 511.288303 
L 1739.398427 511.288303 
L 1739.988142 508.911565 
L 1741.757287 508.911565 
L 1742.347002 501.264802 
L 1744.116146 501.264802 
L 1744.705861 498.186785 
L 1746.475006 498.186785 
L 1747.064721 498.898038 
L 1748.833865 498.898038 
L 1749.42358 491.407398 
L 1751.192725 491.407398 
L 1751.78244 485.299096 
L 1753.551584 485.299096 
L 1754.141299 484.307684 
L 1755.910444 484.307684 
L 1756.500159 481.451187 
L 1758.269303 481.451187 
L 1758.859018 477.393194 
L 1760.628163 477.393194 
L 1761.217877 476.76808 
L 1762.987022 476.76808 
L 1763.576737 472.496826 
L 1765.345882 472.496826 
L 1765.935596 469.16291 
L 1767.704741 469.16291 
L 1768.294456 463.692006 
L 1770.0636 463.692006 
L 1770.653315 460.45438 
L 1772.42246 460.45438 
L 1773.012175 456.133804 
L 1774.781319 456.133804 
L 1775.371034 452.167373 
L 1777.140179 452.167373 
L 1777.729894 449.055279 
L 1779.499038 449.055279 
L 1780.088753 448.528382 
L 1781.857898 448.528382 
L 1782.447613 444.669634 
L 1784.216757 444.669634 
L 1784.806472 439.321828 
L 1786.575617 439.321828 
L 1787.165332 434.649202 
L 1788.934476 434.649202 
L 1789.524191 428.206061 
L 1791.293336 428.206061 
L 1791.88305 422.380278 
L 1793.652195 422.380278 
L 1794.24191 408.649815 
L 1796.011055 408.649815 
L 1796.600769 398.957575 
L 1798.369914 398.957575 
L 1798.959629 391.78779 
L 1800.728773 391.78779 
L 1801.318488 387.296744 
L 1803.087633 387.296744 
L 1803.677348 380.911677 
L 1805.446492 380.911677 
L 1806.036207 376.329008 
L 1807.805352 376.329008 
L 1808.395067 365.690166 
L 1810.164211 365.690166 
L 1810.753926 359.808356 
L 1812.523071 359.808356 
L 1813.112786 353.865262 
L 1814.88193 353.865262 
L 1815.471645 349.10706 
L 1817.24079 349.10706 
L 1817.830505 343.293355 
L 1819.599649 343.293355 
L 1820.189364 337.776465 
L 1821.958509 337.776465 
L 1822.548223 331.669318 
L 1824.317368 331.669318 
L 1824.907083 325.346768 
L 1826.676228 325.346768 
L 1827.265942 323.354933 
L 1829.035087 323.354933 
L 1829.624802 319.682917 
L 1831.393946 319.682917 
L 1831.983661 318.371152 
L 1833.752806 318.371152 
L 1834.342521 316.793106 
L 1836.111665 316.793106 
L 1836.70138 314.19101 
L 1838.470525 314.19101 
L 1839.06024 310.067307 
L 1840.829384 310.067307 
L 1841.419099 308.52225 
L 1843.188244 308.52225 
L 1843.777959 305.974563 
L 1845.547103 305.974563 
L 1846.136818 303.702612 
L 1850.264822 303.702612 
L 1850.854537 303.452834 
L 1852.623682 303.452834 
L 1853.213396 301.684987 
L 1854.982541 301.684987 
L 1855.572256 300.922418 
L 1857.341401 300.922418 
L 1857.931115 299.179455 
L 1859.70026 299.179455 
L 1860.289975 297.942421 
L 1862.059119 297.942421 
L 1862.648834 295.126955 
L 1864.417979 295.126955 
L 1865.007694 290.446695 
L 1866.776838 290.446695 
L 1867.366553 289.456163 
L 1869.135698 289.456163 
L 1869.725413 284.511505 
L 1871.494557 284.511505 
L 1872.084272 281.361539 
L 1873.853417 281.361539 
L 1874.443132 279.404178 
L 1876.212276 279.404178 
L 1876.801991 276.085851 
L 1878.571136 276.085851 
L 1879.160851 271.432111 
L 1880.929995 271.432111 
L 1881.51971 267.79737 
L 1883.288855 267.79737 
L 1883.878569 262.282652 
L 1885.647714 262.282652 
L 1886.237429 260.020192 
L 1888.006574 260.020192 
L 1888.596288 257.592042 
L 1890.365433 257.592042 
L 1890.955148 252.099655 
L 1892.724292 252.099655 
L 1893.314007 250.995382 
L 1895.083152 250.995382 
L 1895.672867 249.736006 
L 1897.442011 249.736006 
L 1898.031726 246.596402 
L 1899.800871 246.596402 
L 1900.390586 243.951622 
L 1902.15973 243.951622 
L 1902.749445 240.028216 
L 1904.51859 240.028216 
L 1905.108305 235.912644 
L 1906.877449 235.912644 
L 1907.467164 234.098996 
L 1909.236309 234.098996 
L 1909.826024 231.062255 
L 1911.595168 231.062255 
L 1912.184883 229.48885 
L 1913.954028 229.48885 
L 1914.543742 230.061655 
L 1916.312887 230.061655 
L 1916.902602 225.584805 
L 1918.671747 225.584805 
L 1919.261461 225.390118 
L 1921.030606 225.390118 
L 1921.620321 223.2 
L 1921.620321 223.2 
" clip-path="url(#p6391aad0f8)" style="fill: none; stroke: #0000ff; stroke-width: 1.5; stroke-linecap: square"/>
   </g>
   <g id="patch_15">
    <path d="M 1451.647059 1281.6 
L 1451.647059 172.8 
" style="fill: none; stroke: #000000; stroke-width: 0.8; stroke-linejoin: miter; stroke-linecap: square"/>
   </g>
   <g id="patch_16">
    <path d="M 1944 1281.6 
L 1944 172.8 
" style="fill: none; stroke: #000000; stroke-width: 0.8; stroke-linejoin: miter; stroke-linecap: square"/>
   </g>
   <g id="patch_17">
    <path d="M 1451.647059 1281.6 
L 1944 1281.6 
" style="fill: none; stroke: #000000; stroke-width: 0.8; stroke-linejoin: miter; stroke-linecap: square"/>
   </g>
   <g id="patch_18">
    <path d="M 1451.647059 172.8 
L 1944 172.8 
" style="fill: none; stroke: #000000; stroke-width: 0.8; stroke-linejoin: miter; stroke-linecap: square"/>
   </g>
   <g id="legend_3">
    <g id="patch_19">
     <path d="M 1852.957813 195.478125 
L 1937 195.478125 
Q 1939 195.478125 1939 193.478125 
L 1939 179.8 
Q 1939 177.8 1937 177.8 
L 1852.957813 177.8 
Q 1850.957813 177.8 1850.957813 179.8 
L 1850.957813 193.478125 
Q 1850.957813 195.478125 1852.957813 195.478125 
z
" style="fill: #ffffff; opacity: 0.8; stroke: #cccccc; stroke-linejoin: miter"/>
    </g>
    <g id="line2d_51">
     <path d="M 1854.957813 185.898437 
L 1864.957813 185.898437 
L 1874.957813 185.898437 
" style="fill: none; stroke: #0000ff; stroke-width: 1.5; stroke-linecap: square"/>
    </g>
    <g id="text_48">
     <!-- O3 reward -->
     <g transform="translate(1882.957813 189.398437) scale(0.1 -0.1)">
      <use xlink:href="#DejaVuSans-4f"/>
      <use xlink:href="#DejaVuSans-33" x="78.710938"/>
      <use xlink:href="#DejaVuSans-20" x="142.333984"/>
      <use xlink:href="#DejaVuSans-72" x="174.121094"/>
      <use xlink:href="#DejaVuSans-65" x="212.984375"/>
      <use xlink:href="#DejaVuSans-77" x="274.507812"/>
      <use xlink:href="#DejaVuSans-61" x="356.294922"/>
      <use xlink:href="#DejaVuSans-72" x="417.574219"/>
      <use xlink:href="#DejaVuSans-64" x="456.9375"/>
     </g>
    </g>
   </g>
  </g>
 </g>
 <defs>
  <clipPath id="pb4f5bd1b98">
   <rect x="270" y="172.8" width="492.352941" height="1108.8"/>
  </clipPath>
  <clipPath id="p024e8e43d0">
   <rect x="860.823529" y="172.8" width="492.352941" height="1108.8"/>
  </clipPath>
  <clipPath id="p6391aad0f8">
   <rect x="1451.647059" y="172.8" width="492.352941" height="1108.8"/>
  </clipPath>
 </defs>
</svg>
