<?xml version="1.0" encoding="utf-8" standalone="no"?>
<!DOCTYPE svg PUBLIC "-//W3C//DTD SVG 1.1//EN"
  "http://www.w3.org/Graphics/SVG/1.1/DTD/svg11.dtd">
<svg xmlns:xlink="http://www.w3.org/1999/xlink" width="2160pt" height="1440pt" viewBox="0 0 2160 1440" xmlns="http://www.w3.org/2000/svg" version="1.1">
 <metadata>
  <rdf:RDF xmlns:dc="http://purl.org/dc/elements/1.1/" xmlns:cc="http://creativecommons.org/ns#" xmlns:rdf="http://www.w3.org/1999/02/22-rdf-syntax-ns#">
   <cc:Work>
    <dc:type rdf:resource="http://purl.org/dc/dcmitype/StillImage"/>
    <dc:date>2023-05-31T19:55:02.807129</dc:date>
    <dc:format>image/svg+xml</dc:format>
    <dc:creator>
     <cc:Agent>
      <dc:title>Matplotlib v3.7.1, https://matplotlib.org/</dc:title>
     </cc:Agent>
    </dc:creator>
   </cc:Work>
  </rdf:RDF>
 </metadata>
 <defs>
  <style type="text/css">*{stroke-linejoin: round; stroke-linecap: butt}</style>
 </defs>
 <g id="figure_1">
  <g id="patch_1">
   <path d="M 0 1440 
L 2160 1440 
L 2160 0 
L 0 0 
z
" style="fill: #ffffff"/>
  </g>
  <g id="axes_1">
   <g id="patch_2">
    <path d="M 270 1281.6 
L 762.352941 1281.6 
L 762.352941 172.8 
L 270 172.8 
z
" style="fill: #ffffff"/>
   </g>
   <g id="matplotlib.axis_1">
    <g id="xtick_1">
     <g id="line2d_1">
      <defs>
       <path id="m461243ffed" d="M 0 0 
L 0 3.5 
" style="stroke: #000000; stroke-width: 0.8"/>
      </defs>
      <g>
       <use xlink:href="#m461243ffed" x="292.123765" y="1281.6" style="stroke: #000000; stroke-width: 0.8"/>
      </g>
     </g>
     <g id="text_1">
      <!-- 0 -->
      <g transform="translate(288.942515 1296.198437) scale(0.1 -0.1)">
       <defs>
        <path id="DejaVuSans-30" d="M 2034 4250 
Q 1547 4250 1301 3770 
Q 1056 3291 1056 2328 
Q 1056 1369 1301 889 
Q 1547 409 2034 409 
Q 2525 409 2770 889 
Q 3016 1369 3016 2328 
Q 3016 3291 2770 3770 
Q 2525 4250 2034 4250 
z
M 2034 4750 
Q 2819 4750 3233 4129 
Q 3647 3509 3647 2328 
Q 3647 1150 3233 529 
Q 2819 -91 2034 -91 
Q 1250 -91 836 529 
Q 422 1150 422 2328 
Q 422 3509 836 4129 
Q 1250 4750 2034 4750 
z
" transform="scale(0.015625)"/>
       </defs>
       <use xlink:href="#DejaVuSans-30"/>
      </g>
     </g>
    </g>
    <g id="xtick_2">
     <g id="line2d_2">
      <g>
       <use xlink:href="#m461243ffed" x="356.102265" y="1281.6" style="stroke: #000000; stroke-width: 0.8"/>
      </g>
     </g>
     <g id="text_2">
      <!-- 250 -->
      <g transform="translate(346.558515 1296.198437) scale(0.1 -0.1)">
       <defs>
        <path id="DejaVuSans-32" d="M 1228 531 
L 3431 531 
L 3431 0 
L 469 0 
L 469 531 
Q 828 903 1448 1529 
Q 2069 2156 2228 2338 
Q 2531 2678 2651 2914 
Q 2772 3150 2772 3378 
Q 2772 3750 2511 3984 
Q 2250 4219 1831 4219 
Q 1534 4219 1204 4116 
Q 875 4013 500 3803 
L 500 4441 
Q 881 4594 1212 4672 
Q 1544 4750 1819 4750 
Q 2544 4750 2975 4387 
Q 3406 4025 3406 3419 
Q 3406 3131 3298 2873 
Q 3191 2616 2906 2266 
Q 2828 2175 2409 1742 
Q 1991 1309 1228 531 
z
" transform="scale(0.015625)"/>
        <path id="DejaVuSans-35" d="M 691 4666 
L 3169 4666 
L 3169 4134 
L 1269 4134 
L 1269 2991 
Q 1406 3038 1543 3061 
Q 1681 3084 1819 3084 
Q 2600 3084 3056 2656 
Q 3513 2228 3513 1497 
Q 3513 744 3044 326 
Q 2575 -91 1722 -91 
Q 1428 -91 1123 -41 
Q 819 9 494 109 
L 494 744 
Q 775 591 1075 516 
Q 1375 441 1709 441 
Q 2250 441 2565 725 
Q 2881 1009 2881 1497 
Q 2881 1984 2565 2268 
Q 2250 2553 1709 2553 
Q 1456 2553 1204 2497 
Q 953 2441 691 2322 
L 691 4666 
z
" transform="scale(0.015625)"/>
       </defs>
       <use xlink:href="#DejaVuSans-32"/>
       <use xlink:href="#DejaVuSans-35" x="63.623047"/>
       <use xlink:href="#DejaVuSans-30" x="127.246094"/>
      </g>
     </g>
    </g>
    <g id="xtick_3">
     <g id="line2d_3">
      <g>
       <use xlink:href="#m461243ffed" x="420.080764" y="1281.6" style="stroke: #000000; stroke-width: 0.8"/>
      </g>
     </g>
     <g id="text_3">
      <!-- 500 -->
      <g transform="translate(410.537014 1296.198437) scale(0.1 -0.1)">
       <use xlink:href="#DejaVuSans-35"/>
       <use xlink:href="#DejaVuSans-30" x="63.623047"/>
       <use xlink:href="#DejaVuSans-30" x="127.246094"/>
      </g>
     </g>
    </g>
    <g id="xtick_4">
     <g id="line2d_4">
      <g>
       <use xlink:href="#m461243ffed" x="484.059264" y="1281.6" style="stroke: #000000; stroke-width: 0.8"/>
      </g>
     </g>
     <g id="text_4">
      <!-- 750 -->
      <g transform="translate(474.515514 1296.198437) scale(0.1 -0.1)">
       <defs>
        <path id="DejaVuSans-37" d="M 525 4666 
L 3525 4666 
L 3525 4397 
L 1831 0 
L 1172 0 
L 2766 4134 
L 525 4134 
L 525 4666 
z
" transform="scale(0.015625)"/>
       </defs>
       <use xlink:href="#DejaVuSans-37"/>
       <use xlink:href="#DejaVuSans-35" x="63.623047"/>
       <use xlink:href="#DejaVuSans-30" x="127.246094"/>
      </g>
     </g>
    </g>
    <g id="xtick_5">
     <g id="line2d_5">
      <g>
       <use xlink:href="#m461243ffed" x="548.037763" y="1281.6" style="stroke: #000000; stroke-width: 0.8"/>
      </g>
     </g>
     <g id="text_5">
      <!-- 1000 -->
      <g transform="translate(535.312763 1296.198437) scale(0.1 -0.1)">
       <defs>
        <path id="DejaVuSans-31" d="M 794 531 
L 1825 531 
L 1825 4091 
L 703 3866 
L 703 4441 
L 1819 4666 
L 2450 4666 
L 2450 531 
L 3481 531 
L 3481 0 
L 794 0 
L 794 531 
z
" transform="scale(0.015625)"/>
       </defs>
       <use xlink:href="#DejaVuSans-31"/>
       <use xlink:href="#DejaVuSans-30" x="63.623047"/>
       <use xlink:href="#DejaVuSans-30" x="127.246094"/>
       <use xlink:href="#DejaVuSans-30" x="190.869141"/>
      </g>
     </g>
    </g>
    <g id="xtick_6">
     <g id="line2d_6">
      <g>
       <use xlink:href="#m461243ffed" x="612.016263" y="1281.6" style="stroke: #000000; stroke-width: 0.8"/>
      </g>
     </g>
     <g id="text_6">
      <!-- 1250 -->
      <g transform="translate(599.291263 1296.198437) scale(0.1 -0.1)">
       <use xlink:href="#DejaVuSans-31"/>
       <use xlink:href="#DejaVuSans-32" x="63.623047"/>
       <use xlink:href="#DejaVuSans-35" x="127.246094"/>
       <use xlink:href="#DejaVuSans-30" x="190.869141"/>
      </g>
     </g>
    </g>
    <g id="xtick_7">
     <g id="line2d_7">
      <g>
       <use xlink:href="#m461243ffed" x="675.994762" y="1281.6" style="stroke: #000000; stroke-width: 0.8"/>
      </g>
     </g>
     <g id="text_7">
      <!-- 1500 -->
      <g transform="translate(663.269762 1296.198437) scale(0.1 -0.1)">
       <use xlink:href="#DejaVuSans-31"/>
       <use xlink:href="#DejaVuSans-35" x="63.623047"/>
       <use xlink:href="#DejaVuSans-30" x="127.246094"/>
       <use xlink:href="#DejaVuSans-30" x="190.869141"/>
      </g>
     </g>
    </g>
    <g id="xtick_8">
     <g id="line2d_8">
      <g>
       <use xlink:href="#m461243ffed" x="739.973262" y="1281.6" style="stroke: #000000; stroke-width: 0.8"/>
      </g>
     </g>
     <g id="text_8">
      <!-- 1750 -->
      <g transform="translate(727.248262 1296.198437) scale(0.1 -0.1)">
       <use xlink:href="#DejaVuSans-31"/>
       <use xlink:href="#DejaVuSans-37" x="63.623047"/>
       <use xlink:href="#DejaVuSans-35" x="127.246094"/>
       <use xlink:href="#DejaVuSans-30" x="190.869141"/>
      </g>
     </g>
    </g>
   </g>
   <g id="matplotlib.axis_2">
    <g id="ytick_1">
     <g id="line2d_9">
      <defs>
       <path id="mf8c037b670" d="M 0 0 
L -3.5 0 
" style="stroke: #000000; stroke-width: 0.8"/>
      </defs>
      <g>
       <use xlink:href="#mf8c037b670" x="270" y="1205.336432" style="stroke: #000000; stroke-width: 0.8"/>
      </g>
     </g>
     <g id="text_9">
      <!-- −30 -->
      <g transform="translate(241.895312 1209.135651) scale(0.1 -0.1)">
       <defs>
        <path id="DejaVuSans-2212" d="M 678 2272 
L 4684 2272 
L 4684 1741 
L 678 1741 
L 678 2272 
z
" transform="scale(0.015625)"/>
        <path id="DejaVuSans-33" d="M 2597 2516 
Q 3050 2419 3304 2112 
Q 3559 1806 3559 1356 
Q 3559 666 3084 287 
Q 2609 -91 1734 -91 
Q 1441 -91 1130 -33 
Q 819 25 488 141 
L 488 750 
Q 750 597 1062 519 
Q 1375 441 1716 441 
Q 2309 441 2620 675 
Q 2931 909 2931 1356 
Q 2931 1769 2642 2001 
Q 2353 2234 1838 2234 
L 1294 2234 
L 1294 2753 
L 1863 2753 
Q 2328 2753 2575 2939 
Q 2822 3125 2822 3475 
Q 2822 3834 2567 4026 
Q 2313 4219 1838 4219 
Q 1578 4219 1281 4162 
Q 984 4106 628 3988 
L 628 4550 
Q 988 4650 1302 4700 
Q 1616 4750 1894 4750 
Q 2613 4750 3031 4423 
Q 3450 4097 3450 3541 
Q 3450 3153 3228 2886 
Q 3006 2619 2597 2516 
z
" transform="scale(0.015625)"/>
       </defs>
       <use xlink:href="#DejaVuSans-2212"/>
       <use xlink:href="#DejaVuSans-33" x="83.789062"/>
       <use xlink:href="#DejaVuSans-30" x="147.412109"/>
      </g>
     </g>
    </g>
    <g id="ytick_2">
     <g id="line2d_10">
      <g>
       <use xlink:href="#mf8c037b670" x="270" y="1042.731062" style="stroke: #000000; stroke-width: 0.8"/>
      </g>
     </g>
     <g id="text_10">
      <!-- −25 -->
      <g transform="translate(241.895312 1046.530281) scale(0.1 -0.1)">
       <use xlink:href="#DejaVuSans-2212"/>
       <use xlink:href="#DejaVuSans-32" x="83.789062"/>
       <use xlink:href="#DejaVuSans-35" x="147.412109"/>
      </g>
     </g>
    </g>
    <g id="ytick_3">
     <g id="line2d_11">
      <g>
       <use xlink:href="#mf8c037b670" x="270" y="880.125693" style="stroke: #000000; stroke-width: 0.8"/>
      </g>
     </g>
     <g id="text_11">
      <!-- −20 -->
      <g transform="translate(241.895312 883.924912) scale(0.1 -0.1)">
       <use xlink:href="#DejaVuSans-2212"/>
       <use xlink:href="#DejaVuSans-32" x="83.789062"/>
       <use xlink:href="#DejaVuSans-30" x="147.412109"/>
      </g>
     </g>
    </g>
    <g id="ytick_4">
     <g id="line2d_12">
      <g>
       <use xlink:href="#mf8c037b670" x="270" y="717.520323" style="stroke: #000000; stroke-width: 0.8"/>
      </g>
     </g>
     <g id="text_12">
      <!-- −15 -->
      <g transform="translate(241.895312 721.319542) scale(0.1 -0.1)">
       <use xlink:href="#DejaVuSans-2212"/>
       <use xlink:href="#DejaVuSans-31" x="83.789062"/>
       <use xlink:href="#DejaVuSans-35" x="147.412109"/>
      </g>
     </g>
    </g>
    <g id="ytick_5">
     <g id="line2d_13">
      <g>
       <use xlink:href="#mf8c037b670" x="270" y="554.914954" style="stroke: #000000; stroke-width: 0.8"/>
      </g>
     </g>
     <g id="text_13">
      <!-- −10 -->
      <g transform="translate(241.895312 558.714173) scale(0.1 -0.1)">
       <use xlink:href="#DejaVuSans-2212"/>
       <use xlink:href="#DejaVuSans-31" x="83.789062"/>
       <use xlink:href="#DejaVuSans-30" x="147.412109"/>
      </g>
     </g>
    </g>
    <g id="ytick_6">
     <g id="line2d_14">
      <g>
       <use xlink:href="#mf8c037b670" x="270" y="392.309584" style="stroke: #000000; stroke-width: 0.8"/>
      </g>
     </g>
     <g id="text_14">
      <!-- −5 -->
      <g transform="translate(248.257812 396.108803) scale(0.1 -0.1)">
       <use xlink:href="#DejaVuSans-2212"/>
       <use xlink:href="#DejaVuSans-35" x="83.789062"/>
      </g>
     </g>
    </g>
    <g id="ytick_7">
     <g id="line2d_15">
      <g>
       <use xlink:href="#mf8c037b670" x="270" y="229.704215" style="stroke: #000000; stroke-width: 0.8"/>
      </g>
     </g>
     <g id="text_15">
      <!-- 0 -->
      <g transform="translate(256.6375 233.503434) scale(0.1 -0.1)">
       <use xlink:href="#DejaVuSans-30"/>
      </g>
     </g>
    </g>
   </g>
   <g id="line2d_16">
    <path d="M 292.379679 229.704215 
L 305.175379 229.704215 
L 305.431293 223.2 
L 306.199035 223.2 
L 306.454949 227.536143 
L 307.222691 227.536143 
L 307.478605 234.907587 
L 308.246347 234.907587 
L 308.502261 235.74146 
L 309.270003 235.74146 
L 309.525917 244.008722 
L 310.293659 244.008722 
L 310.549573 247.6021 
L 311.317315 247.6021 
L 311.573229 251.447846 
L 312.340971 251.447846 
L 312.596885 254.825248 
L 313.364627 254.825248 
L 313.620541 259.206018 
L 314.388283 259.206018 
L 314.644197 262.539575 
L 316.435595 262.539575 
L 316.691509 259.77986 
L 318.482907 259.77986 
L 318.738821 263.703455 
L 319.506563 263.703455 
L 319.762477 260.388117 
L 320.530219 260.388117 
L 320.786133 257.713588 
L 322.577531 257.713588 
L 322.833445 258.385238 
L 323.601187 258.385238 
L 323.857101 255.084529 
L 325.648499 255.084529 
L 325.904413 251.797039 
L 326.672155 251.797039 
L 326.928069 248.52214 
L 327.695811 248.52214 
L 327.951725 251.556143 
L 328.719467 251.556143 
L 328.975381 246.628707 
L 330.766779 246.628707 
L 331.022693 242.062141 
L 331.790435 242.062141 
L 332.046349 244.935231 
L 332.814091 244.935231 
L 333.070005 242.062141 
L 333.837747 242.062141 
L 334.093661 246.451034 
L 335.885059 246.451034 
L 336.140973 249.548929 
L 336.908715 249.548929 
L 337.164629 254.945278 
L 337.932371 254.945278 
L 338.188285 254.134253 
L 338.956027 254.134253 
L 339.211941 256.176363 
L 339.979683 256.176363 
L 340.235597 255.396817 
L 341.003339 255.396817 
L 341.259253 254.634659 
L 342.026995 254.634659 
L 342.282909 255.971283 
L 343.050651 255.971283 
L 343.306565 263.624277 
L 344.074307 263.624277 
L 344.330221 260.896601 
L 345.097963 260.896601 
L 345.353877 263.013436 
L 346.121619 263.013436 
L 346.377533 270.567657 
L 347.145275 270.567657 
L 347.401189 273.147742 
L 348.168931 273.147742 
L 348.424845 275.423488 
L 351.239899 275.423488 
L 351.495813 277.946518 
L 352.263555 277.946518 
L 352.519469 282.745295 
L 353.287211 282.745295 
L 353.543125 280.226278 
L 354.310867 280.226278 
L 354.566781 285.0333 
L 355.334523 285.0333 
L 355.590437 289.796111 
L 356.358179 289.796111 
L 356.614093 292.09533 
L 357.381835 292.09533 
L 357.637749 299.365522 
L 358.405491 299.365522 
L 358.661405 304.250767 
L 359.429147 304.250767 
L 359.685061 311.607639 
L 360.452803 311.607639 
L 360.708717 318.841092 
L 361.476459 318.841092 
L 361.732373 323.700491 
L 362.500115 323.700491 
L 362.756029 326.185672 
L 363.523771 326.185672 
L 363.779685 331.04507 
L 364.547427 331.04507 
L 364.803341 328.704207 
L 365.571083 328.704207 
L 365.826997 324.079838 
L 366.594739 324.079838 
L 366.850653 319.508869 
L 367.618395 319.508869 
L 367.874309 317.223384 
L 368.642051 317.223384 
L 368.897965 322.108692 
L 370.689363 322.130548 
L 370.945277 322.549238 
L 371.713019 322.549238 
L 371.968933 330.158977 
L 373.760331 330.156329 
L 374.016245 325.772264 
L 374.783987 325.772264 
L 375.039901 323.582766 
L 375.807643 323.582766 
L 376.063557 319.211002 
L 376.831299 319.211002 
L 377.087213 324.206225 
L 377.854955 324.206225 
L 378.110869 326.390919 
L 379.902267 326.390919 
L 380.158181 328.575612 
L 380.925923 328.575612 
L 381.181837 326.393153 
L 381.949579 326.393153 
L 382.205493 324.888723 
L 382.973235 324.888723 
L 383.229149 320.570758 
L 383.996891 320.570758 
L 384.252805 321.296372 
L 385.020547 321.296372 
L 385.27646 324.977142 
L 386.044202 324.977142 
L 386.300116 325.787334 
L 387.067858 325.787334 
L 387.323772 323.645295 
L 389.11517 323.645295 
L 389.371084 328.727492 
L 390.138826 328.727492 
L 390.39474 326.615298 
L 391.162482 326.615298 
L 391.418396 324.504787 
L 392.186138 324.504787 
L 392.442052 325.386364 
L 393.209794 325.386364 
L 393.465708 326.285917 
L 394.23345 326.285917 
L 394.489364 329.30086 
L 395.257106 329.30086 
L 395.51302 334.43379 
L 396.280762 334.43379 
L 396.536676 342.608551 
L 397.304418 342.608551 
L 397.560332 347.74148 
L 398.328074 347.74148 
L 398.583988 354.962445 
L 399.35173 354.962445 
L 399.607644 363.140291 
L 400.375386 363.140291 
L 400.6313 370.34618 
L 401.399042 370.34618 
L 401.654956 380.640109 
L 402.422698 380.640109 
L 402.678612 388.879205 
L 403.446354 388.879205 
L 403.702268 390.956205 
L 404.47001 390.956205 
L 404.725924 399.215637 
L 405.493666 399.215637 
L 405.74958 400.233812 
L 406.517322 400.233812 
L 406.773236 406.437686 
L 408.564634 406.437686 
L 408.820548 409.539168 
L 410.611946 409.544901 
L 410.86786 412.649962 
L 411.635602 412.649962 
L 411.891516 410.593876 
L 413.682914 410.592712 
L 413.938828 413.720114 
L 414.70657 413.720114 
L 414.962484 418.898514 
L 415.730226 418.898514 
L 415.98614 414.817799 
L 416.753882 414.817799 
L 417.009796 415.942879 
L 417.777538 415.942879 
L 418.033452 411.887259 
L 418.801194 411.887259 
L 419.057108 405.828303 
L 419.82485 405.828303 
L 420.080764 409.009367 
L 420.848506 409.009367 
L 421.10442 402.967308 
L 421.872162 402.967308 
L 422.128076 408.172356 
L 422.895818 408.172356 
L 423.151732 407.3435 
L 425.966786 407.3435 
L 426.2227 405.344364 
L 426.990442 405.344364 
L 427.246356 401.350694 
L 428.014098 401.350694 
L 428.270012 397.359856 
L 429.037754 397.359856 
L 429.293668 389.391849 
L 430.06141 389.391849 
L 430.317324 381.459634 
L 431.085066 381.459634 
L 431.34098 375.527892 
L 432.108722 375.527892 
L 432.364636 369.610774 
L 433.132378 369.610774 
L 433.388292 367.641839 
L 434.156034 367.641839 
L 434.411948 361.744731 
L 435.17969 361.744731 
L 435.435604 357.81784 
L 437.227002 357.819438 
L 437.482916 355.859515 
L 438.250658 355.859515 
L 438.506572 349.986371 
L 439.274314 349.986371 
L 439.530228 355.253245 
L 440.29797 355.253245 
L 440.553884 349.390673 
L 441.321626 349.390673 
L 441.57754 356.032893 
L 442.345282 356.032893 
L 442.601196 368.531046 
L 443.368938 368.531046 
L 443.624852 366.581889 
L 444.392594 366.581889 
L 444.648508 366.014009 
L 445.41625 366.014009 
L 445.672164 358.232866 
L 446.439906 358.232866 
L 446.69582 361.573629 
L 447.463562 361.573629 
L 447.719476 370.199428 
L 448.487218 370.199428 
L 448.743132 378.309213 
L 449.510874 378.309213 
L 449.766788 383.594283 
L 450.53453 383.594283 
L 450.790444 392.743765 
L 451.558186 392.743765 
L 451.8141 401.391596 
L 452.581842 401.391596 
L 452.837756 406.681438 
L 453.605498 406.681438 
L 453.861412 410.047756 
L 454.629154 410.047756 
L 454.885068 411.009543 
L 455.65281 411.009543 
L 455.908724 419.677353 
L 456.676466 419.677353 
L 456.93238 426.896762 
L 457.700122 426.896762 
L 457.956036 428.353554 
L 458.723778 428.353554 
L 458.979692 431.732027 
L 459.747434 431.732027 
L 460.003348 441.879215 
L 460.77109 441.879215 
L 461.027004 450.567758 
L 461.794746 450.567758 
L 462.05066 466.049051 
L 462.818402 466.049051 
L 463.074316 484.950509 
L 463.842058 484.950509 
L 464.097972 491.752654 
L 464.865714 491.752654 
L 465.121628 505.784871 
L 465.88937 505.784871 
L 466.145284 517.508203 
L 466.913026 517.508203 
L 467.16894 515.600197 
L 467.936682 515.600197 
L 468.192596 511.787511 
L 468.960338 511.787511 
L 469.216252 507.976485 
L 471.00765 507.975977 
L 471.263564 506.071977 
L 472.031306 506.071977 
L 472.28722 504.167474 
L 473.054962 504.167474 
L 473.310876 500.361622 
L 474.078618 500.361622 
L 474.334532 498.075154 
L 475.102274 498.075154 
L 475.358188 497.692762 
L 476.12593 497.692762 
L 476.381844 506.059629 
L 477.149586 506.059629 
L 477.4055 504.160215 
L 478.173242 504.160215 
L 478.429156 507.585031 
L 479.196898 507.585031 
L 479.452812 514.437659 
L 480.220554 514.437659 
L 480.476468 514.068234 
L 481.24421 514.068234 
L 481.500124 517.497528 
L 482.267866 517.497528 
L 482.52378 522.102849 
L 483.291522 522.102849 
L 483.547436 523.641168 
L 484.315178 523.641168 
L 484.571092 526.720775 
L 485.338834 526.720775 
L 485.594748 528.613314 
L 486.36249 528.613314 
L 486.618404 526.373208 
L 487.386146 526.373208 
L 487.64206 526.02794 
L 488.409802 526.02794 
L 488.665716 531.358379 
L 489.433458 531.358379 
L 489.689372 525.684992 
L 490.457114 525.684992 
L 490.713028 527.234683 
L 491.48077 527.234683 
L 491.736684 535.670656 
L 492.504426 535.670656 
L 492.76034 533.781193 
L 493.528082 533.781193 
L 493.783996 538.779544 
L 494.551738 538.779544 
L 494.807652 543.78322 
L 495.575394 543.78322 
L 495.831308 548.788952 
L 496.59905 548.788952 
L 496.854964 564.796101 
L 497.622706 564.796101 
L 497.87862 566.682942 
L 498.646362 566.682942 
L 498.902276 573.907033 
L 499.670018 573.907033 
L 499.925932 573.59035 
L 500.693674 573.59035 
L 500.949588 575.475474 
L 502.740986 575.475474 
L 502.9969 579.24501 
L 503.764642 579.24501 
L 504.020556 578.933025 
L 504.788298 578.933025 
L 505.044212 576.739291 
L 505.811954 576.739291 
L 506.067868 576.432303 
L 506.83561 576.432303 
L 507.091524 578.0115 
L 507.859266 578.0115 
L 508.11518 581.170814 
L 508.882922 581.170814 
L 509.138836 579.289951 
L 509.906578 579.289951 
L 510.162492 578.991413 
L 510.930234 578.991413 
L 511.186148 585.918448 
L 511.95389 585.918448 
L 512.209804 589.088968 
L 512.977546 589.088968 
L 513.23346 590.675377 
L 514.001202 590.675377 
L 514.257116 586.919924 
L 515.024858 586.919924 
L 515.280772 590.102271 
L 516.048514 590.102271 
L 516.304428 586.349939 
L 517.07217 586.349939 
L 517.328084 585.789757 
L 518.095826 585.789757 
L 518.35174 596.206084 
L 520.143138 596.206084 
L 520.399052 599.680857 
L 521.166794 599.680857 
L 521.422708 601.283049 
L 523.214106 601.283962 
L 523.47002 601.017722 
L 524.237762 601.017722 
L 524.493676 609.846595 
L 525.261418 609.846595 
L 525.517332 606.103573 
L 526.285074 606.103573 
L 526.540988 604.232062 
L 527.30873 604.232062 
L 527.564644 605.841386 
L 528.332386 605.841386 
L 528.5883 602.099395 
L 530.379697 602.099395 
L 530.635611 600.228514 
L 531.403353 600.228514 
L 531.659267 598.357862 
L 532.427009 598.357862 
L 532.682923 592.747129 
L 533.450665 592.747129 
L 533.706579 589.007523 
L 534.474321 589.007523 
L 534.730235 583.398572 
L 535.497977 583.398572 
L 535.753891 579.659783 
L 536.521633 579.659783 
L 536.777547 575.921797 
L 537.545289 575.921797 
L 537.801203 570.316271 
L 538.568945 570.316271 
L 538.824859 589.870263 
L 539.592601 589.870263 
L 539.848515 600.582132 
L 540.616257 600.582132 
L 540.872171 613.162201 
L 541.639913 613.162201 
L 541.895827 618.51878 
L 542.663569 618.51878 
L 542.919483 623.875359 
L 543.687225 623.875359 
L 543.943139 638.077726 
L 544.710881 638.077726 
L 544.966795 648.791374 
L 545.734537 648.791374 
L 545.990451 661.37117 
L 546.758193 661.37117 
L 547.014107 677.440256 
L 547.781849 677.440256 
L 548.037763 682.796701 
L 548.805505 682.796701 
L 549.061419 680.931104 
L 549.829161 680.931104 
L 550.085075 677.200503 
L 550.852817 677.200503 
L 551.108731 679.065569 
L 551.876473 679.065569 
L 552.132387 677.200697 
L 552.900129 677.200697 
L 553.156043 675.336017 
L 553.923785 675.336017 
L 554.179699 673.471338 
L 554.947441 673.471338 
L 555.203355 676.963624 
L 555.971097 676.963624 
L 556.227011 675.098945 
L 558.018409 675.099134 
L 558.274323 674.86411 
L 559.042065 674.86411 
L 559.297979 682.085572 
L 560.065721 682.085572 
L 560.321635 683.715821 
L 561.089377 683.715821 
L 561.345291 694.199674 
L 562.113033 694.199674 
L 562.368947 696.063159 
L 563.136689 696.063159 
L 563.392603 697.694978 
L 564.160345 697.694978 
L 564.416259 710.045783 
L 565.184001 710.045783 
L 565.439915 718.902122 
L 566.207657 718.902122 
L 566.463571 718.672986 
L 567.231313 718.672986 
L 567.487227 722.170394 
L 568.254969 722.170394 
L 568.510883 724.033314 
L 569.278625 724.033314 
L 569.534539 720.307646 
L 570.302281 720.307646 
L 570.558195 723.806221 
L 571.325937 723.806221 
L 571.581851 728.94176 
L 572.349593 728.94176 
L 572.605507 727.07914 
L 573.373249 727.07914 
L 573.629163 726.853354 
L 575.420561 726.853229 
L 575.676475 728.715432 
L 576.444217 728.715432 
L 576.700131 732.216148 
L 577.467873 732.216148 
L 577.723787 731.99287 
L 578.491529 731.99287 
L 578.747443 730.130834 
L 579.515185 730.130834 
L 579.771099 733.632455 
L 580.538841 733.632455 
L 580.794755 742.498382 
L 581.562497 742.498382 
L 581.818411 744.139265 
L 582.586153 744.139265 
L 582.842067 749.503649 
L 583.609809 749.503649 
L 583.865723 751.365077 
L 584.633465 751.365077 
L 584.889379 753.226384 
L 585.657121 753.226384 
L 585.913035 756.72946 
L 587.704433 756.72946 
L 587.960347 758.590608 
L 588.728089 758.590608 
L 588.984003 760.232852 
L 589.751745 760.232852 
L 590.007659 760.014417 
L 590.775401 760.014417 
L 591.031315 763.518122 
L 591.799057 763.518122 
L 592.054971 763.300858 
L 592.822713 763.300858 
L 593.078627 766.804802 
L 593.846369 766.804802 
L 594.102283 775.782828 
L 594.870025 775.782828 
L 595.125939 779.503457 
L 596.917337 779.503605 
L 597.173251 786.51548 
L 597.940993 786.51548 
L 598.196907 782.795992 
L 598.964649 782.795992 
L 599.220563 786.302556 
L 599.988305 786.302556 
L 600.244219 793.528321 
L 601.011961 793.528321 
L 601.267875 791.668933 
L 603.059273 791.668933 
L 603.315187 795.175898 
L 604.082929 795.175898 
L 604.338843 797.035051 
L 605.106585 797.035051 
L 605.362499 804.260348 
L 606.130241 804.260348 
L 606.386155 807.767991 
L 607.153897 807.767991 
L 607.409811 813.134692 
L 608.177553 813.134692 
L 608.433467 816.642751 
L 609.201209 816.642751 
L 609.457123 825.518467 
L 610.224865 825.518467 
L 610.480779 821.801453 
L 611.248521 821.801453 
L 611.504435 819.943079 
L 612.272177 819.943079 
L 612.528091 818.084705 
L 613.295833 818.084705 
L 613.551747 819.73597 
L 614.319489 819.73597 
L 614.575403 821.594096 
L 616.366801 821.594096 
L 616.622715 819.73597 
L 618.414113 819.73597 
L 618.670027 816.020109 
L 619.437769 816.020109 
L 619.693683 815.815024 
L 620.461425 815.815024 
L 620.717339 817.468315 
L 621.485081 817.468315 
L 621.740995 819.121733 
L 622.508737 819.121733 
L 622.764651 826.143403 
L 623.532393 826.143403 
L 623.788307 828.000519 
L 624.556049 828.000519 
L 624.811963 829.857635 
L 625.579705 829.857635 
L 625.835619 831.714751 
L 626.603361 831.714751 
L 626.859275 836.88098 
L 628.650673 836.88098 
L 628.906587 842.249949 
L 629.674329 842.249949 
L 629.930243 845.963128 
L 630.697985 845.963128 
L 630.953899 856.701478 
L 631.721641 856.701478 
L 631.977555 865.782857 
L 632.745297 865.782857 
L 633.001211 867.440295 
L 633.768953 867.440295 
L 634.024867 872.809745 
L 634.792609 872.809745 
L 635.048523 872.611915 
L 635.816265 872.611915 
L 636.072179 876.125994 
L 636.839921 876.125994 
L 637.095835 877.981723 
L 637.863577 877.981723 
L 638.119491 886.866158 
L 638.887233 886.866158 
L 639.143147 892.236411 
L 639.910889 892.236411 
L 640.166803 897.606765 
L 641.958201 897.606765 
L 642.214115 899.462042 
L 644.005513 899.462042 
L 644.261427 902.977013 
L 646.052825 902.977013 
L 646.308739 904.83229 
L 648.100137 904.83229 
L 648.356051 910.202977 
L 649.123793 910.202977 
L 649.379707 908.347813 
L 650.147449 908.347813 
L 650.403363 906.49276 
L 651.171105 906.49276 
L 651.427019 917.234894 
L 652.194761 917.234894 
L 652.450675 915.380062 
L 653.218417 915.380062 
L 653.474331 920.751286 
L 654.242073 920.751286 
L 654.497987 918.896563 
L 655.265729 918.896563 
L 655.521643 927.784831 
L 656.289385 927.784831 
L 656.545299 935.010891 
L 658.336697 935.010891 
L 658.592611 942.236738 
L 659.360353 942.236738 
L 659.616267 947.608395 
L 660.384009 947.608395 
L 660.639923 952.980157 
L 661.407665 952.980157 
L 661.663579 956.498042 
L 662.431321 956.498042 
L 662.687235 960.205485 
L 663.454977 960.205485 
L 663.710891 965.577247 
L 664.478633 965.577247 
L 664.734547 970.949112 
L 665.502289 970.949112 
L 665.758203 974.467715 
L 668.573257 974.467613 
L 668.829171 972.614354 
L 674.715192 972.614354 
L 674.971106 976.13316 
L 675.738848 976.13316 
L 675.994762 975.945649 
L 676.762504 975.945649 
L 677.018418 981.318017 
L 677.78616 981.318017 
L 678.042074 986.690487 
L 678.809816 986.690487 
L 679.06573 990.210001 
L 679.833472 990.210001 
L 680.089386 993.729814 
L 680.857128 993.729814 
L 681.113042 997.249728 
L 681.880784 997.249728 
L 682.136698 998.917082 
L 682.90444 998.917082 
L 683.160354 1004.290254 
L 683.928096 1004.290254 
L 684.18401 1011.331658 
L 685.975408 1011.331658 
L 686.231322 1012.999985 
L 686.999064 1012.999985 
L 687.254978 1014.852553 
L 688.02272 1014.852553 
L 688.278634 1018.373648 
L 689.046376 1018.373648 
L 689.30229 1020.226026 
L 690.070032 1020.226026 
L 690.325946 1021.895037 
L 691.093688 1021.895037 
L 691.349602 1030.790675 
L 692.117344 1030.790675 
L 692.373258 1036.164832 
L 693.141 1036.164832 
L 693.396914 1046.913425 
L 694.164656 1046.913425 
L 694.42057 1050.435861 
L 695.188312 1050.435861 
L 695.444226 1055.810388 
L 696.211968 1055.810388 
L 696.467882 1063.036624 
L 697.235624 1063.036624 
L 697.491538 1068.411235 
L 699.282936 1068.411235 
L 699.53885 1073.78595 
L 701.330248 1073.78595 
L 701.586162 1077.309411 
L 702.353904 1077.309411 
L 702.609818 1075.457963 
L 703.37756 1075.457963 
L 703.633474 1078.981617 
L 704.401216 1078.981617 
L 704.65713 1080.832975 
L 705.424872 1080.832975 
L 705.680786 1084.356806 
L 706.448528 1084.356806 
L 706.704442 1082.505448 
L 707.472184 1082.505448 
L 707.728098 1093.256108 
L 708.49584 1093.256108 
L 708.751754 1093.078132 
L 709.519496 1093.078132 
L 709.77541 1107.354498 
L 710.543152 1107.354498 
L 710.799066 1114.404772 
L 711.566808 1114.404772 
L 711.822722 1116.079297 
L 712.590464 1116.079297 
L 712.846378 1126.832231 
L 713.61412 1126.832231 
L 713.870034 1132.033713 
L 714.637776 1132.033713 
L 714.89369 1133.884262 
L 715.661432 1133.884262 
L 715.917346 1139.261062 
L 716.685088 1139.261062 
L 716.941002 1142.787564 
L 717.708744 1142.787564 
L 717.964658 1148.164631 
L 718.7324 1148.164631 
L 718.988314 1158.919041 
L 719.756056 1158.919041 
L 720.01197 1165.973619 
L 720.779712 1165.973619 
L 721.035626 1173.201167 
L 721.803368 1173.201167 
L 722.059282 1182.106663 
L 722.827024 1182.106663 
L 723.082938 1192.86246 
L 723.85068 1192.86246 
L 724.106594 1191.012758 
L 724.874336 1191.012758 
L 725.13025 1199.91934 
L 725.897992 1199.91934 
L 726.153906 1198.069718 
L 727.945304 1198.069718 
L 728.201218 1201.768726 
L 729.992616 1201.768726 
L 730.24853 1205.990681 
L 732.039928 1205.990681 
L 732.295842 1207.881052 
L 733.063584 1207.881052 
L 733.319498 1211.41039 
L 734.08724 1211.41039 
L 734.343154 1209.520019 
L 735.110896 1209.520019 
L 735.36681 1213.049664 
L 736.134552 1213.049664 
L 736.390466 1218.469705 
L 737.158208 1218.469705 
L 737.414122 1225.77981 
L 738.181864 1225.77981 
L 738.437778 1231.2 
L 739.20552 1231.2 
L 739.461434 1227.420477 
L 739.973262 1227.420477 
L 739.973262 1227.420477 
" clip-path="url(#p5a5904a8ef)" style="fill: none; stroke: #0000ff; stroke-width: 1.5; stroke-linecap: square"/>
   </g>
   <g id="patch_3">
    <path d="M 270 1281.6 
L 270 172.8 
" style="fill: none; stroke: #000000; stroke-width: 0.8; stroke-linejoin: miter; stroke-linecap: square"/>
   </g>
   <g id="patch_4">
    <path d="M 762.352941 1281.6 
L 762.352941 172.8 
" style="fill: none; stroke: #000000; stroke-width: 0.8; stroke-linejoin: miter; stroke-linecap: square"/>
   </g>
   <g id="patch_5">
    <path d="M 270 1281.6 
L 762.352941 1281.6 
" style="fill: none; stroke: #000000; stroke-width: 0.8; stroke-linejoin: miter; stroke-linecap: square"/>
   </g>
   <g id="patch_6">
    <path d="M 270 172.8 
L 762.352941 172.8 
" style="fill: none; stroke: #000000; stroke-width: 0.8; stroke-linejoin: miter; stroke-linecap: square"/>
   </g>
   <g id="legend_1">
    <g id="patch_7">
     <path d="M 671.310754 195.478125 
L 755.352941 195.478125 
Q 757.352941 195.478125 757.352941 193.478125 
L 757.352941 179.8 
Q 757.352941 177.8 755.352941 177.8 
L 671.310754 177.8 
Q 669.310754 177.8 669.310754 179.8 
L 669.310754 193.478125 
Q 669.310754 195.478125 671.310754 195.478125 
z
" style="fill: #ffffff; opacity: 0.8; stroke: #cccccc; stroke-linejoin: miter"/>
    </g>
    <g id="line2d_17">
     <path d="M 673.310754 185.898437 
L 683.310754 185.898437 
L 693.310754 185.898437 
" style="fill: none; stroke: #0000ff; stroke-width: 1.5; stroke-linecap: square"/>
    </g>
    <g id="text_16">
     <!-- O1 reward -->
     <g transform="translate(701.310754 189.398437) scale(0.1 -0.1)">
      <defs>
       <path id="DejaVuSans-4f" d="M 2522 4238 
Q 1834 4238 1429 3725 
Q 1025 3213 1025 2328 
Q 1025 1447 1429 934 
Q 1834 422 2522 422 
Q 3209 422 3611 934 
Q 4013 1447 4013 2328 
Q 4013 3213 3611 3725 
Q 3209 4238 2522 4238 
z
M 2522 4750 
Q 3503 4750 4090 4092 
Q 4678 3434 4678 2328 
Q 4678 1225 4090 567 
Q 3503 -91 2522 -91 
Q 1538 -91 948 565 
Q 359 1222 359 2328 
Q 359 3434 948 4092 
Q 1538 4750 2522 4750 
z
" transform="scale(0.015625)"/>
       <path id="DejaVuSans-20" transform="scale(0.015625)"/>
       <path id="DejaVuSans-72" d="M 2631 2963 
Q 2534 3019 2420 3045 
Q 2306 3072 2169 3072 
Q 1681 3072 1420 2755 
Q 1159 2438 1159 1844 
L 1159 0 
L 581 0 
L 581 3500 
L 1159 3500 
L 1159 2956 
Q 1341 3275 1631 3429 
Q 1922 3584 2338 3584 
Q 2397 3584 2469 3576 
Q 2541 3569 2628 3553 
L 2631 2963 
z
" transform="scale(0.015625)"/>
       <path id="DejaVuSans-65" d="M 3597 1894 
L 3597 1613 
L 953 1613 
Q 991 1019 1311 708 
Q 1631 397 2203 397 
Q 2534 397 2845 478 
Q 3156 559 3463 722 
L 3463 178 
Q 3153 47 2828 -22 
Q 2503 -91 2169 -91 
Q 1331 -91 842 396 
Q 353 884 353 1716 
Q 353 2575 817 3079 
Q 1281 3584 2069 3584 
Q 2775 3584 3186 3129 
Q 3597 2675 3597 1894 
z
M 3022 2063 
Q 3016 2534 2758 2815 
Q 2500 3097 2075 3097 
Q 1594 3097 1305 2825 
Q 1016 2553 972 2059 
L 3022 2063 
z
" transform="scale(0.015625)"/>
       <path id="DejaVuSans-77" d="M 269 3500 
L 844 3500 
L 1563 769 
L 2278 3500 
L 2956 3500 
L 3675 769 
L 4391 3500 
L 4966 3500 
L 4050 0 
L 3372 0 
L 2619 2869 
L 1863 0 
L 1184 0 
L 269 3500 
z
" transform="scale(0.015625)"/>
       <path id="DejaVuSans-61" d="M 2194 1759 
Q 1497 1759 1228 1600 
Q 959 1441 959 1056 
Q 959 750 1161 570 
Q 1363 391 1709 391 
Q 2188 391 2477 730 
Q 2766 1069 2766 1631 
L 2766 1759 
L 2194 1759 
z
M 3341 1997 
L 3341 0 
L 2766 0 
L 2766 531 
Q 2569 213 2275 61 
Q 1981 -91 1556 -91 
Q 1019 -91 701 211 
Q 384 513 384 1019 
Q 384 1609 779 1909 
Q 1175 2209 1959 2209 
L 2766 2209 
L 2766 2266 
Q 2766 2663 2505 2880 
Q 2244 3097 1772 3097 
Q 1472 3097 1187 3025 
Q 903 2953 641 2809 
L 641 3341 
Q 956 3463 1253 3523 
Q 1550 3584 1831 3584 
Q 2591 3584 2966 3190 
Q 3341 2797 3341 1997 
z
" transform="scale(0.015625)"/>
       <path id="DejaVuSans-64" d="M 2906 2969 
L 2906 4863 
L 3481 4863 
L 3481 0 
L 2906 0 
L 2906 525 
Q 2725 213 2448 61 
Q 2172 -91 1784 -91 
Q 1150 -91 751 415 
Q 353 922 353 1747 
Q 353 2572 751 3078 
Q 1150 3584 1784 3584 
Q 2172 3584 2448 3432 
Q 2725 3281 2906 2969 
z
M 947 1747 
Q 947 1113 1208 752 
Q 1469 391 1925 391 
Q 2381 391 2643 752 
Q 2906 1113 2906 1747 
Q 2906 2381 2643 2742 
Q 2381 3103 1925 3103 
Q 1469 3103 1208 2742 
Q 947 2381 947 1747 
z
" transform="scale(0.015625)"/>
      </defs>
      <use xlink:href="#DejaVuSans-4f"/>
      <use xlink:href="#DejaVuSans-31" x="78.710938"/>
      <use xlink:href="#DejaVuSans-20" x="142.333984"/>
      <use xlink:href="#DejaVuSans-72" x="174.121094"/>
      <use xlink:href="#DejaVuSans-65" x="212.984375"/>
      <use xlink:href="#DejaVuSans-77" x="274.507812"/>
      <use xlink:href="#DejaVuSans-61" x="356.294922"/>
      <use xlink:href="#DejaVuSans-72" x="417.574219"/>
      <use xlink:href="#DejaVuSans-64" x="456.9375"/>
     </g>
    </g>
   </g>
  </g>
  <g id="axes_2">
   <g id="patch_8">
    <path d="M 860.823529 1281.6 
L 1353.176471 1281.6 
L 1353.176471 172.8 
L 860.823529 172.8 
z
" style="fill: #ffffff"/>
   </g>
   <g id="matplotlib.axis_3">
    <g id="xtick_9">
     <g id="line2d_18">
      <g>
       <use xlink:href="#m461243ffed" x="882.947295" y="1281.6" style="stroke: #000000; stroke-width: 0.8"/>
      </g>
     </g>
     <g id="text_17">
      <!-- 0 -->
      <g transform="translate(879.766045 1296.198437) scale(0.1 -0.1)">
       <use xlink:href="#DejaVuSans-30"/>
      </g>
     </g>
    </g>
    <g id="xtick_10">
     <g id="line2d_19">
      <g>
       <use xlink:href="#m461243ffed" x="946.925794" y="1281.6" style="stroke: #000000; stroke-width: 0.8"/>
      </g>
     </g>
     <g id="text_18">
      <!-- 250 -->
      <g transform="translate(937.382044 1296.198437) scale(0.1 -0.1)">
       <use xlink:href="#DejaVuSans-32"/>
       <use xlink:href="#DejaVuSans-35" x="63.623047"/>
       <use xlink:href="#DejaVuSans-30" x="127.246094"/>
      </g>
     </g>
    </g>
    <g id="xtick_11">
     <g id="line2d_20">
      <g>
       <use xlink:href="#m461243ffed" x="1010.904294" y="1281.6" style="stroke: #000000; stroke-width: 0.8"/>
      </g>
     </g>
     <g id="text_19">
      <!-- 500 -->
      <g transform="translate(1001.360544 1296.198437) scale(0.1 -0.1)">
       <use xlink:href="#DejaVuSans-35"/>
       <use xlink:href="#DejaVuSans-30" x="63.623047"/>
       <use xlink:href="#DejaVuSans-30" x="127.246094"/>
      </g>
     </g>
    </g>
    <g id="xtick_12">
     <g id="line2d_21">
      <g>
       <use xlink:href="#m461243ffed" x="1074.882793" y="1281.6" style="stroke: #000000; stroke-width: 0.8"/>
      </g>
     </g>
     <g id="text_20">
      <!-- 750 -->
      <g transform="translate(1065.339043 1296.198437) scale(0.1 -0.1)">
       <use xlink:href="#DejaVuSans-37"/>
       <use xlink:href="#DejaVuSans-35" x="63.623047"/>
       <use xlink:href="#DejaVuSans-30" x="127.246094"/>
      </g>
     </g>
    </g>
    <g id="xtick_13">
     <g id="line2d_22">
      <g>
       <use xlink:href="#m461243ffed" x="1138.861293" y="1281.6" style="stroke: #000000; stroke-width: 0.8"/>
      </g>
     </g>
     <g id="text_21">
      <!-- 1000 -->
      <g transform="translate(1126.136293 1296.198437) scale(0.1 -0.1)">
       <use xlink:href="#DejaVuSans-31"/>
       <use xlink:href="#DejaVuSans-30" x="63.623047"/>
       <use xlink:href="#DejaVuSans-30" x="127.246094"/>
       <use xlink:href="#DejaVuSans-30" x="190.869141"/>
      </g>
     </g>
    </g>
    <g id="xtick_14">
     <g id="line2d_23">
      <g>
       <use xlink:href="#m461243ffed" x="1202.839792" y="1281.6" style="stroke: #000000; stroke-width: 0.8"/>
      </g>
     </g>
     <g id="text_22">
      <!-- 1250 -->
      <g transform="translate(1190.114792 1296.198437) scale(0.1 -0.1)">
       <use xlink:href="#DejaVuSans-31"/>
       <use xlink:href="#DejaVuSans-32" x="63.623047"/>
       <use xlink:href="#DejaVuSans-35" x="127.246094"/>
       <use xlink:href="#DejaVuSans-30" x="190.869141"/>
      </g>
     </g>
    </g>
    <g id="xtick_15">
     <g id="line2d_24">
      <g>
       <use xlink:href="#m461243ffed" x="1266.818292" y="1281.6" style="stroke: #000000; stroke-width: 0.8"/>
      </g>
     </g>
     <g id="text_23">
      <!-- 1500 -->
      <g transform="translate(1254.093292 1296.198437) scale(0.1 -0.1)">
       <use xlink:href="#DejaVuSans-31"/>
       <use xlink:href="#DejaVuSans-35" x="63.623047"/>
       <use xlink:href="#DejaVuSans-30" x="127.246094"/>
       <use xlink:href="#DejaVuSans-30" x="190.869141"/>
      </g>
     </g>
    </g>
    <g id="xtick_16">
     <g id="line2d_25">
      <g>
       <use xlink:href="#m461243ffed" x="1330.796791" y="1281.6" style="stroke: #000000; stroke-width: 0.8"/>
      </g>
     </g>
     <g id="text_24">
      <!-- 1750 -->
      <g transform="translate(1318.071791 1296.198437) scale(0.1 -0.1)">
       <use xlink:href="#DejaVuSans-31"/>
       <use xlink:href="#DejaVuSans-37" x="63.623047"/>
       <use xlink:href="#DejaVuSans-35" x="127.246094"/>
       <use xlink:href="#DejaVuSans-30" x="190.869141"/>
      </g>
     </g>
    </g>
   </g>
   <g id="matplotlib.axis_4">
    <g id="ytick_8">
     <g id="line2d_26">
      <g>
       <use xlink:href="#mf8c037b670" x="860.823529" y="1231.2" style="stroke: #000000; stroke-width: 0.8"/>
      </g>
     </g>
     <g id="text_25">
      <!-- 0 -->
      <g transform="translate(847.461029 1234.999219) scale(0.1 -0.1)">
       <use xlink:href="#DejaVuSans-30"/>
      </g>
     </g>
    </g>
    <g id="ytick_9">
     <g id="line2d_27">
      <g>
       <use xlink:href="#mf8c037b670" x="860.823529" y="1042.916154" style="stroke: #000000; stroke-width: 0.8"/>
      </g>
     </g>
     <g id="text_26">
      <!-- 20 -->
      <g transform="translate(841.098529 1046.715373) scale(0.1 -0.1)">
       <use xlink:href="#DejaVuSans-32"/>
       <use xlink:href="#DejaVuSans-30" x="63.623047"/>
      </g>
     </g>
    </g>
    <g id="ytick_10">
     <g id="line2d_28">
      <g>
       <use xlink:href="#mf8c037b670" x="860.823529" y="854.632308" style="stroke: #000000; stroke-width: 0.8"/>
      </g>
     </g>
     <g id="text_27">
      <!-- 40 -->
      <g transform="translate(841.098529 858.431527) scale(0.1 -0.1)">
       <defs>
        <path id="DejaVuSans-34" d="M 2419 4116 
L 825 1625 
L 2419 1625 
L 2419 4116 
z
M 2253 4666 
L 3047 4666 
L 3047 1625 
L 3713 1625 
L 3713 1100 
L 3047 1100 
L 3047 0 
L 2419 0 
L 2419 1100 
L 313 1100 
L 313 1709 
L 2253 4666 
z
" transform="scale(0.015625)"/>
       </defs>
       <use xlink:href="#DejaVuSans-34"/>
       <use xlink:href="#DejaVuSans-30" x="63.623047"/>
      </g>
     </g>
    </g>
    <g id="ytick_11">
     <g id="line2d_29">
      <g>
       <use xlink:href="#mf8c037b670" x="860.823529" y="666.348462" style="stroke: #000000; stroke-width: 0.8"/>
      </g>
     </g>
     <g id="text_28">
      <!-- 60 -->
      <g transform="translate(841.098529 670.147681) scale(0.1 -0.1)">
       <defs>
        <path id="DejaVuSans-36" d="M 2113 2584 
Q 1688 2584 1439 2293 
Q 1191 2003 1191 1497 
Q 1191 994 1439 701 
Q 1688 409 2113 409 
Q 2538 409 2786 701 
Q 3034 994 3034 1497 
Q 3034 2003 2786 2293 
Q 2538 2584 2113 2584 
z
M 3366 4563 
L 3366 3988 
Q 3128 4100 2886 4159 
Q 2644 4219 2406 4219 
Q 1781 4219 1451 3797 
Q 1122 3375 1075 2522 
Q 1259 2794 1537 2939 
Q 1816 3084 2150 3084 
Q 2853 3084 3261 2657 
Q 3669 2231 3669 1497 
Q 3669 778 3244 343 
Q 2819 -91 2113 -91 
Q 1303 -91 875 529 
Q 447 1150 447 2328 
Q 447 3434 972 4092 
Q 1497 4750 2381 4750 
Q 2619 4750 2861 4703 
Q 3103 4656 3366 4563 
z
" transform="scale(0.015625)"/>
       </defs>
       <use xlink:href="#DejaVuSans-36"/>
       <use xlink:href="#DejaVuSans-30" x="63.623047"/>
      </g>
     </g>
    </g>
    <g id="ytick_12">
     <g id="line2d_30">
      <g>
       <use xlink:href="#mf8c037b670" x="860.823529" y="478.064616" style="stroke: #000000; stroke-width: 0.8"/>
      </g>
     </g>
     <g id="text_29">
      <!-- 80 -->
      <g transform="translate(841.098529 481.863835) scale(0.1 -0.1)">
       <defs>
        <path id="DejaVuSans-38" d="M 2034 2216 
Q 1584 2216 1326 1975 
Q 1069 1734 1069 1313 
Q 1069 891 1326 650 
Q 1584 409 2034 409 
Q 2484 409 2743 651 
Q 3003 894 3003 1313 
Q 3003 1734 2745 1975 
Q 2488 2216 2034 2216 
z
M 1403 2484 
Q 997 2584 770 2862 
Q 544 3141 544 3541 
Q 544 4100 942 4425 
Q 1341 4750 2034 4750 
Q 2731 4750 3128 4425 
Q 3525 4100 3525 3541 
Q 3525 3141 3298 2862 
Q 3072 2584 2669 2484 
Q 3125 2378 3379 2068 
Q 3634 1759 3634 1313 
Q 3634 634 3220 271 
Q 2806 -91 2034 -91 
Q 1263 -91 848 271 
Q 434 634 434 1313 
Q 434 1759 690 2068 
Q 947 2378 1403 2484 
z
M 1172 3481 
Q 1172 3119 1398 2916 
Q 1625 2713 2034 2713 
Q 2441 2713 2670 2916 
Q 2900 3119 2900 3481 
Q 2900 3844 2670 4047 
Q 2441 4250 2034 4250 
Q 1625 4250 1398 4047 
Q 1172 3844 1172 3481 
z
" transform="scale(0.015625)"/>
       </defs>
       <use xlink:href="#DejaVuSans-38"/>
       <use xlink:href="#DejaVuSans-30" x="63.623047"/>
      </g>
     </g>
    </g>
    <g id="ytick_13">
     <g id="line2d_31">
      <g>
       <use xlink:href="#mf8c037b670" x="860.823529" y="289.78077" style="stroke: #000000; stroke-width: 0.8"/>
      </g>
     </g>
     <g id="text_30">
      <!-- 100 -->
      <g transform="translate(834.736029 293.579989) scale(0.1 -0.1)">
       <use xlink:href="#DejaVuSans-31"/>
       <use xlink:href="#DejaVuSans-30" x="63.623047"/>
       <use xlink:href="#DejaVuSans-30" x="127.246094"/>
      </g>
     </g>
    </g>
   </g>
   <g id="line2d_32">
    <path d="M 883.203209 1231.2 
L 894.975252 1231.130399 
L 895.231166 1227.337614 
L 895.998908 1227.337614 
L 896.254822 1228.824102 
L 897.022564 1228.824102 
L 897.278478 1227.940088 
L 898.04622 1227.940088 
L 898.302134 1229.682809 
L 899.069876 1229.682809 
L 899.32579 1221.853143 
L 900.093532 1221.853143 
L 900.349446 1209.984523 
L 901.117188 1209.984523 
L 901.373102 1204.080135 
L 902.140844 1204.080135 
L 902.396758 1188.527449 
L 903.1645 1188.527449 
L 903.420414 1174.193786 
L 908.28278 1174.193786 
L 908.538694 1167.972748 
L 911.353748 1167.972748 
L 911.609662 1161.3379 
L 914.424716 1161.3379 
L 914.68063 1152.298034 
L 915.448372 1152.298034 
L 915.704286 1149.759712 
L 916.472028 1149.759712 
L 916.727942 1146.966591 
L 918.51934 1146.966591 
L 918.775254 1129.821595 
L 919.542996 1129.821595 
L 919.79891 1102.859655 
L 920.566652 1102.859655 
L 920.822566 1095.677251 
L 921.590308 1095.677251 
L 921.846222 1081.846359 
L 922.613964 1081.846359 
L 922.869878 1048.365375 
L 923.63762 1048.365375 
L 923.893534 1025.062558 
L 934.897836 1025.062558 
L 935.15375 1018.19152 
L 937.968804 1018.19152 
L 938.224718 1011.421459 
L 938.99246 1011.421459 
L 939.248374 1004.580615 
L 940.016116 1004.580615 
L 940.27203 997.670802 
L 942.063428 997.670802 
L 942.319342 995.231965 
L 946.158052 995.231965 
L 946.413966 992.727585 
L 947.181708 992.727585 
L 947.437622 976.102955 
L 948.205364 976.102955 
L 948.461278 963.407013 
L 949.22902 963.407013 
L 949.484934 935.270222 
L 950.252676 935.270222 
L 950.50859 910.517589 
L 951.276332 910.517589 
L 951.532246 891.007754 
L 952.299988 891.007754 
L 952.555902 867.01628 
L 953.323644 867.01628 
L 953.579558 837.87748 
L 954.3473 837.87748 
L 954.603214 824.845832 
L 955.370956 824.845832 
L 955.62687 806.797796 
L 958.441924 806.797796 
L 958.697838 802.723285 
L 959.46558 802.723285 
L 959.721494 794.298079 
L 960.489236 794.298079 
L 960.74515 800.112446 
L 961.512892 800.112446 
L 961.768806 802.877964 
L 962.536548 802.877964 
L 962.792462 808.622828 
L 963.560204 808.622828 
L 963.816118 811.58819 
L 964.58386 811.58819 
L 964.839774 814.282769 
L 965.607516 814.282769 
L 965.86343 805.9814 
L 967.654828 805.9814 
L 967.910742 800.336291 
L 968.678484 800.336291 
L 968.934398 797.735536 
L 969.70214 797.735536 
L 969.958054 789.580018 
L 970.725796 789.580018 
L 970.98171 773.492432 
L 971.749452 773.492432 
L 972.005366 765.789795 
L 972.773108 765.789795 
L 973.029022 759.093371 
L 973.796764 759.093371 
L 974.052678 754.758172 
L 974.82042 754.758172 
L 975.076334 747.63765 
L 975.844076 747.63765 
L 976.09999 754.687849 
L 976.867732 754.687849 
L 977.123646 770.481955 
L 977.891388 770.481955 
L 978.147302 765.531399 
L 978.915044 765.531399 
L 979.170958 751.948853 
L 979.9387 751.948853 
L 980.194614 740.424496 
L 980.962356 740.424496 
L 981.21827 742.088694 
L 981.986012 742.088694 
L 982.241926 731.143792 
L 983.009668 731.143792 
L 983.265582 721.738527 
L 984.033324 721.738527 
L 984.289238 720.214049 
L 986.080636 720.158308 
L 986.33655 721.638272 
L 987.104292 721.638272 
L 987.360206 718.742264 
L 988.127948 718.742264 
L 988.383862 709.702107 
L 989.151604 709.702107 
L 989.407518 711.059621 
L 990.17526 711.059621 
L 990.431174 707.984032 
L 991.198916 707.984032 
L 991.45483 699.175713 
L 992.222572 699.175713 
L 992.478486 693.517575 
L 993.246228 693.517575 
L 993.502142 687.904996 
L 994.269884 687.904996 
L 994.525798 684.848904 
L 995.29354 684.848904 
L 995.549454 683.034468 
L 997.340852 683.034468 
L 997.596766 694.008353 
L 998.364508 694.008353 
L 998.620422 699.413495 
L 999.388164 699.413495 
L 999.644078 697.490474 
L 1000.41182 697.490474 
L 1000.667734 701.61705 
L 1001.435476 701.61705 
L 1001.69139 702.639357 
L 1002.459132 702.639357 
L 1002.715046 713.82643 
L 1003.482788 713.82643 
L 1003.738702 715.962337 
L 1004.506444 715.962337 
L 1004.762358 724.900985 
L 1005.5301 724.900985 
L 1005.786014 724.464987 
L 1006.553756 724.464987 
L 1006.80967 715.757239 
L 1007.577412 715.757239 
L 1007.833326 710.184351 
L 1008.601068 710.184351 
L 1008.856982 709.36045 
L 1009.624724 709.36045 
L 1009.880638 704.687982 
L 1010.64838 704.687982 
L 1010.904294 696.98293 
L 1011.672036 696.98293 
L 1011.92795 700.069131 
L 1012.695692 700.069131 
L 1012.951606 703.150205 
L 1013.719348 703.150205 
L 1013.975262 702.416476 
L 1014.743004 702.416476 
L 1014.998918 699.325096 
L 1015.76666 699.325096 
L 1016.022574 691.031558 
L 1016.790316 691.031558 
L 1017.04623 685.885599 
L 1018.837628 685.885599 
L 1019.093542 681.479888 
L 1019.861284 681.479888 
L 1020.117198 686.467893 
L 1020.88494 686.467893 
L 1021.140854 695.038131 
L 1021.908596 695.038131 
L 1022.16451 697.573849 
L 1022.932252 697.573849 
L 1023.188166 697.060759 
L 1023.955908 697.060759 
L 1024.211822 696.063801 
L 1024.979564 696.063801 
L 1025.235478 698.224707 
L 1026.00322 698.224707 
L 1026.259134 690.313539 
L 1027.026876 690.313539 
L 1027.28279 670.89086 
L 1028.050532 670.89086 
L 1028.306446 659.441575 
L 1029.074188 659.441575 
L 1029.330102 644.384671 
L 1030.097844 644.384671 
L 1030.353758 629.230247 
L 1031.1215 629.230247 
L 1031.377414 614.876232 
L 1032.145156 614.876232 
L 1032.40107 607.380109 
L 1033.168812 607.380109 
L 1033.424726 596.885546 
L 1034.192468 596.885546 
L 1034.448382 582.743047 
L 1035.216123 582.743047 
L 1035.472037 575.757979 
L 1036.239779 575.757979 
L 1036.495693 565.392005 
L 1037.263435 565.392005 
L 1037.519349 568.982795 
L 1038.287091 568.982795 
L 1038.543005 562.798468 
L 1039.310747 562.798468 
L 1039.566661 572.790643 
L 1040.334403 572.790643 
L 1040.590317 573.072373 
L 1041.358059 573.072373 
L 1041.613973 573.305598 
L 1042.381715 573.305598 
L 1042.637629 570.322251 
L 1044.429027 570.425794 
L 1044.684941 570.614852 
L 1045.452683 570.614852 
L 1045.708597 580.333578 
L 1046.476339 580.333578 
L 1046.732253 586.654464 
L 1047.499995 586.654464 
L 1047.755909 589.746691 
L 1048.523651 589.746691 
L 1048.779565 586.64938 
L 1049.547307 586.64938 
L 1049.803221 583.427205 
L 1050.570963 583.427205 
L 1050.826877 577.120722 
L 1051.594619 577.120722 
L 1051.850533 570.886262 
L 1053.641931 570.873751 
L 1053.897845 574.011273 
L 1054.665587 574.011273 
L 1054.921501 570.979316 
L 1055.689243 570.979316 
L 1055.945157 567.965285 
L 1057.736555 568.074725 
L 1057.992469 580.342208 
L 1058.760211 580.342208 
L 1059.016125 583.494784 
L 1059.783867 583.494784 
L 1060.039781 575.038821 
L 1060.807523 575.038821 
L 1061.063437 578.23928 
L 1061.831179 578.23928 
L 1062.087093 581.690708 
L 1062.854835 581.690708 
L 1063.110749 578.731572 
L 1063.878491 578.731572 
L 1064.134405 579.006132 
L 1064.902147 579.006132 
L 1065.158061 582.878586 
L 1065.925803 582.878586 
L 1066.181717 583.935418 
L 1067.973115 583.937434 
L 1068.229029 575.25374 
L 1068.996771 575.25374 
L 1069.252685 569.486779 
L 1070.020427 569.486779 
L 1070.276341 566.606168 
L 1071.044083 566.606168 
L 1071.299997 560.854689 
L 1072.067739 560.854689 
L 1072.323653 557.983807 
L 1073.091395 557.983807 
L 1073.347309 555.114789 
L 1074.115051 555.114789 
L 1074.370965 549.382232 
L 1075.138707 549.382232 
L 1075.394621 543.656799 
L 1076.162363 543.656799 
L 1076.418277 537.938291 
L 1077.186019 537.938291 
L 1077.441933 535.081598 
L 1078.209675 535.081598 
L 1078.465589 526.537254 
L 1079.233331 526.537254 
L 1079.489245 520.85944 
L 1080.256987 520.85944 
L 1080.512901 518.022972 
L 1082.304299 518.022972 
L 1082.560213 515.188111 
L 1083.327955 515.188111 
L 1083.583869 506.702295 
L 1084.351611 506.702295 
L 1084.607525 498.247404 
L 1085.375267 498.247404 
L 1085.631181 489.826745 
L 1086.398923 489.826745 
L 1086.654837 484.23041 
L 1087.422579 484.23041 
L 1087.678493 475.863597 
L 1088.446235 475.863597 
L 1088.702149 485.522478 
L 1089.469891 485.522478 
L 1089.725805 493.09661 
L 1090.493547 493.09661 
L 1090.749461 495.216383 
L 1091.517203 495.216383 
L 1091.773117 497.402925 
L 1092.540859 497.402925 
L 1092.796773 504.344844 
L 1094.588171 504.361069 
L 1094.844085 502.204407 
L 1095.611827 502.204407 
L 1095.867741 505.702856 
L 1096.635483 505.702856 
L 1096.891397 502.911821 
L 1097.659139 502.911821 
L 1097.915053 504.677392 
L 1098.682795 504.677392 
L 1098.938709 494.091048 
L 1099.706451 494.091048 
L 1099.962365 483.545942 
L 1100.730107 483.545942 
L 1100.986021 473.038728 
L 1101.753763 473.038728 
L 1102.009677 465.194187 
L 1102.777419 465.194187 
L 1103.033333 457.379806 
L 1103.801075 457.379806 
L 1104.056989 452.182799 
L 1104.824731 452.182799 
L 1105.080645 444.407951 
L 1105.848387 444.407951 
L 1106.104301 441.821999 
L 1106.872043 441.821999 
L 1107.127957 436.659663 
L 1107.895699 436.659663 
L 1108.151613 431.51002 
L 1108.919355 431.51002 
L 1109.175269 432.562019 
L 1109.943011 432.562019 
L 1110.198925 441.327904 
L 1111.990323 441.324947 
L 1112.246237 439.851139 
L 1114.037635 439.851139 
L 1114.293549 435.827898 
L 1117.108603 435.827898 
L 1117.364517 438.38146 
L 1120.179571 438.38146 
L 1120.435485 435.830762 
L 1122.226883 435.830762 
L 1122.482797 436.942454 
L 1123.250539 436.942454 
L 1123.506453 440.608645 
L 1124.274195 440.608645 
L 1124.530109 439.214036 
L 1125.297851 439.214036 
L 1125.553765 445.426421 
L 1126.321507 445.426421 
L 1126.577421 451.439004 
L 1127.345163 451.439004 
L 1127.601077 455.135537 
L 1128.368819 455.135537 
L 1128.624733 458.832103 
L 1129.392475 458.832103 
L 1129.648389 456.318142 
L 1130.416131 456.318142 
L 1130.672045 451.295106 
L 1131.439787 451.295106 
L 1131.695701 446.282663 
L 1132.463443 446.282663 
L 1132.719357 438.777658 
L 1133.487099 438.777658 
L 1133.743013 436.280235 
L 1134.510755 436.280235 
L 1134.766669 433.785413 
L 1135.534411 433.785413 
L 1135.790325 431.293096 
L 1136.558067 431.293096 
L 1136.813981 428.803254 
L 1138.605379 428.803254 
L 1138.861293 423.829565 
L 1139.629035 423.829565 
L 1139.884949 421.345705 
L 1140.652691 421.345705 
L 1140.908605 423.828476 
L 1141.676347 423.828476 
L 1141.932261 425.095973 
L 1142.700003 425.095973 
L 1142.955917 423.891458 
L 1143.723659 423.891458 
L 1143.979573 421.417096 
L 1144.747315 421.417096 
L 1145.003229 423.890394 
L 1145.770971 423.890394 
L 1146.026885 421.41946 
L 1146.794627 421.41946 
L 1147.050541 418.951025 
L 1147.818283 418.951025 
L 1148.074197 411.559912 
L 1148.841939 411.559912 
L 1149.097853 412.87185 
L 1149.865595 412.87185 
L 1150.121509 405.510643 
L 1150.889251 405.510643 
L 1151.145165 395.723645 
L 1151.912907 395.723645 
L 1152.168821 393.28247 
L 1152.936563 393.28247 
L 1153.192477 388.406982 
L 1153.960219 388.406982 
L 1154.216133 381.10417 
L 1154.983875 381.10417 
L 1155.239789 376.245823 
L 1156.007531 376.245823 
L 1156.263445 371.393669 
L 1157.031187 371.393669 
L 1157.287101 361.714108 
L 1158.054843 361.714108 
L 1158.310757 354.474703 
L 1159.078499 354.474703 
L 1159.334413 349.655247 
L 1160.102155 349.655247 
L 1160.358069 346.254885 
L 1161.125811 346.254885 
L 1161.381725 345.269429 
L 1162.149467 345.269429 
L 1162.405381 349.095458 
L 1163.173123 349.095458 
L 1163.429037 347.162856 
L 1164.196779 347.162856 
L 1164.452693 343.811455 
L 1165.220435 343.811455 
L 1165.476349 347.645568 
L 1167.267747 347.645568 
L 1167.523661 346.705981 
L 1168.291403 346.705981 
L 1168.547317 345.771445 
L 1169.315059 345.771445 
L 1169.570973 343.384423 
L 1170.338715 343.384423 
L 1170.594629 340.999266 
L 1173.409683 340.999266 
L 1173.665597 343.382393 
L 1174.433339 343.382393 
L 1174.689253 342.470653 
L 1175.456995 342.470653 
L 1175.712909 341.564743 
L 1176.480651 341.564743 
L 1176.736565 339.187098 
L 1177.504307 339.187098 
L 1177.760221 336.811262 
L 1179.551618 336.811262 
L 1179.807532 339.18511 
L 1180.575274 339.18511 
L 1180.831188 334.441278 
L 1181.59893 334.441278 
L 1181.854844 332.071288 
L 1182.622586 332.071288 
L 1182.8785 327.334107 
L 1184.669898 327.334107 
L 1184.925812 324.967915 
L 1185.693554 324.967915 
L 1185.949468 320.239997 
L 1186.71721 320.239997 
L 1186.973124 317.878262 
L 1187.740866 317.878262 
L 1187.99678 315.518421 
L 1188.764522 315.518421 
L 1189.020436 313.160327 
L 1189.788178 313.160327 
L 1190.044092 308.449474 
L 1190.811834 308.449474 
L 1191.067748 309.969528 
L 1191.83549 309.969528 
L 1192.091404 310.680125 
L 1192.859146 310.680125 
L 1193.11506 309.865212 
L 1193.882802 309.865212 
L 1194.138716 307.519402 
L 1194.906458 307.519402 
L 1195.162372 313.745174 
L 1195.930114 313.745174 
L 1196.186028 316.085586 
L 1196.95377 316.085586 
L 1197.209684 317.640404 
L 1197.977426 317.640404 
L 1198.23334 316.082408 
L 1199.001082 316.082408 
L 1199.256996 322.312154 
L 1200.024738 322.312154 
L 1200.280652 321.542795 
L 1202.07205 321.542795 
L 1202.327964 318.450464 
L 1206.166674 318.450464 
L 1206.422588 320.778319 
L 1208.213986 320.778319 
L 1208.4699 318.452052 
L 1209.237642 318.452052 
L 1209.493556 316.127357 
L 1210.261298 316.127357 
L 1210.517212 315.387107 
L 1211.284954 315.387107 
L 1211.540868 312.333554 
L 1212.30861 312.333554 
L 1212.564524 311.610818 
L 1213.332266 311.610818 
L 1213.58818 313.926419 
L 1214.355922 313.926419 
L 1214.611836 311.612347 
L 1215.379578 311.612347 
L 1215.635492 313.21504 
L 1216.403234 313.21504 
L 1216.659148 307.890973 
L 1217.42689 307.890973 
L 1217.682804 305.582278 
L 1218.450546 305.582278 
L 1218.70646 303.275064 
L 1219.474202 303.275064 
L 1219.730116 300.968685 
L 1220.497858 300.968685 
L 1220.753772 298.663781 
L 1221.521514 298.663781 
L 1221.777428 296.360538 
L 1223.568826 296.360538 
L 1223.82474 300.287924 
L 1224.592482 300.287924 
L 1224.848396 295.68748 
L 1226.639794 295.68748 
L 1226.895708 297.986157 
L 1227.66345 297.986157 
L 1227.919364 293.393482 
L 1228.687106 293.393482 
L 1228.94302 291.099465 
L 1229.710762 291.099465 
L 1229.966676 288.807036 
L 1230.734418 288.807036 
L 1230.990332 286.516029 
L 1231.758074 286.516029 
L 1232.013988 288.169829 
L 1232.78173 288.169829 
L 1233.037644 289.824867 
L 1233.805386 289.824867 
L 1234.0613 287.537656 
L 1236.876354 287.537656 
L 1237.132268 289.823469 
L 1237.90001 289.823469 
L 1238.155924 289.20185 
L 1238.923666 289.20185 
L 1239.17958 293.152417 
L 1239.947322 293.152417 
L 1240.203236 295.431757 
L 1240.970978 295.431757 
L 1241.226892 299.388374 
L 1241.994634 299.388374 
L 1242.250548 294.836771 
L 1243.01829 294.836771 
L 1243.274204 289.702804 
L 1244.041946 289.702804 
L 1244.29786 285.16498 
L 1245.065602 285.16498 
L 1245.321516 282.898104 
L 1246.089258 282.898104 
L 1246.345172 280.632517 
L 1247.112914 280.632517 
L 1247.368828 280.071758 
L 1248.13657 280.071758 
L 1248.392484 274.994534 
L 1249.160226 274.994534 
L 1249.41614 277.254047 
L 1250.183882 277.254047 
L 1250.439796 272.738971 
L 1252.231194 272.738971 
L 1252.487108 272.200374 
L 1254.278506 272.200374 
L 1254.53442 269.946237 
L 1256.325818 269.946237 
L 1256.581732 269.414352 
L 1258.37313 269.414352 
L 1258.629044 267.162878 
L 1259.396786 267.162878 
L 1259.6527 264.912623 
L 1260.420442 264.912623 
L 1260.676356 267.162099 
L 1261.444098 267.162099 
L 1261.700012 264.913827 
L 1262.467754 264.913827 
L 1262.723668 262.666751 
L 1263.49141 262.666751 
L 1263.747324 260.421091 
L 1265.538722 260.421091 
L 1265.794636 259.916506 
L 1269.633346 259.916362 
L 1269.88926 255.443398 
L 1270.657002 255.443398 
L 1270.912916 257.678546 
L 1271.680658 257.678546 
L 1271.936572 253.211661 
L 1272.704314 253.211661 
L 1272.960228 248.749737 
L 1273.72797 248.749737 
L 1273.983884 246.520459 
L 1274.751626 246.520459 
L 1275.00754 245.619555 
L 1275.775282 245.619555 
L 1276.031196 243.3936 
L 1276.798938 243.3936 
L 1277.054852 245.618806 
L 1277.822594 245.618806 
L 1278.078508 249.624871 
L 1278.84625 249.624871 
L 1279.102164 247.401727 
L 1279.869906 247.401727 
L 1280.12582 249.624134 
L 1281.917218 249.624134 
L 1282.173132 251.845806 
L 1283.96453 251.845075 
L 1284.220444 253.640395 
L 1284.988186 253.640395 
L 1285.2441 249.204364 
L 1286.011842 249.204364 
L 1286.267756 246.987963 
L 1288.059154 246.987963 
L 1288.315068 244.772839 
L 1289.08281 244.772839 
L 1289.338724 246.987239 
L 1291.130122 246.987239 
L 1291.386036 244.773905 
L 1292.153778 244.773905 
L 1292.409692 244.372701 
L 1296.248402 244.372701 
L 1296.504316 242.161884 
L 1297.272058 242.161884 
L 1297.527972 243.974186 
L 1298.295714 243.974186 
L 1298.551628 241.764618 
L 1299.31937 241.764618 
L 1299.575284 241.371947 
L 1300.343026 241.371947 
L 1300.59894 239.164675 
L 1302.390338 239.164675 
L 1302.646252 234.753635 
L 1303.413994 234.753635 
L 1303.669908 236.957921 
L 1304.43765 236.957921 
L 1304.693564 234.379161 
L 1305.461306 234.379161 
L 1305.71722 232.18143 
L 1306.484962 232.18143 
L 1306.740876 229.983519 
L 1307.508618 229.983519 
L 1307.764532 229.622964 
L 1308.532274 229.622964 
L 1308.788188 229.267195 
L 1309.55593 229.267195 
L 1309.811844 233.303868 
L 1310.579586 233.303868 
L 1310.8355 230.759736 
L 1312.626898 230.759736 
L 1312.882812 228.567747 
L 1313.650554 228.567747 
L 1313.906468 232.605299 
L 1314.67421 232.605299 
L 1314.930124 230.415166 
L 1315.697866 230.415166 
L 1315.95378 228.226197 
L 1316.721522 228.226197 
L 1316.977436 230.414489 
L 1317.745178 230.414489 
L 1318.001092 230.081437 
L 1319.79249 230.081437 
L 1320.048404 229.752699 
L 1320.816146 229.752699 
L 1321.07206 227.567376 
L 1321.839802 227.567376 
L 1322.095716 225.383197 
L 1323.887113 225.383197 
L 1324.143027 223.2 
L 1325.934425 223.2 
L 1326.190339 225.382529 
L 1326.958081 225.382529 
L 1327.213995 223.201127 
L 1327.981737 223.201127 
L 1328.237651 225.381864 
L 1330.029049 225.381864 
L 1330.284963 227.561281 
L 1330.796791 227.561281 
L 1330.796791 227.561281 
" clip-path="url(#p5ce14fbaf7)" style="fill: none; stroke: #0000ff; stroke-width: 1.5; stroke-linecap: square"/>
   </g>
   <g id="patch_9">
    <path d="M 860.823529 1281.6 
L 860.823529 172.8 
" style="fill: none; stroke: #000000; stroke-width: 0.8; stroke-linejoin: miter; stroke-linecap: square"/>
   </g>
   <g id="patch_10">
    <path d="M 1353.176471 1281.6 
L 1353.176471 172.8 
" style="fill: none; stroke: #000000; stroke-width: 0.8; stroke-linejoin: miter; stroke-linecap: square"/>
   </g>
   <g id="patch_11">
    <path d="M 860.823529 1281.6 
L 1353.176471 1281.6 
" style="fill: none; stroke: #000000; stroke-width: 0.8; stroke-linejoin: miter; stroke-linecap: square"/>
   </g>
   <g id="patch_12">
    <path d="M 860.823529 172.8 
L 1353.176471 172.8 
" style="fill: none; stroke: #000000; stroke-width: 0.8; stroke-linejoin: miter; stroke-linecap: square"/>
   </g>
   <g id="legend_2">
    <g id="patch_13">
     <path d="M 1262.134283 195.478125 
L 1346.176471 195.478125 
Q 1348.176471 195.478125 1348.176471 193.478125 
L 1348.176471 179.8 
Q 1348.176471 177.8 1346.176471 177.8 
L 1262.134283 177.8 
Q 1260.134283 177.8 1260.134283 179.8 
L 1260.134283 193.478125 
Q 1260.134283 195.478125 1262.134283 195.478125 
z
" style="fill: #ffffff; opacity: 0.8; stroke: #cccccc; stroke-linejoin: miter"/>
    </g>
    <g id="line2d_33">
     <path d="M 1264.134283 185.898437 
L 1274.134283 185.898437 
L 1284.134283 185.898437 
" style="fill: none; stroke: #0000ff; stroke-width: 1.5; stroke-linecap: square"/>
    </g>
    <g id="text_31">
     <!-- O2 reward -->
     <g transform="translate(1292.134283 189.398437) scale(0.1 -0.1)">
      <use xlink:href="#DejaVuSans-4f"/>
      <use xlink:href="#DejaVuSans-32" x="78.710938"/>
      <use xlink:href="#DejaVuSans-20" x="142.333984"/>
      <use xlink:href="#DejaVuSans-72" x="174.121094"/>
      <use xlink:href="#DejaVuSans-65" x="212.984375"/>
      <use xlink:href="#DejaVuSans-77" x="274.507812"/>
      <use xlink:href="#DejaVuSans-61" x="356.294922"/>
      <use xlink:href="#DejaVuSans-72" x="417.574219"/>
      <use xlink:href="#DejaVuSans-64" x="456.9375"/>
     </g>
    </g>
   </g>
  </g>
  <g id="axes_3">
   <g id="patch_14">
    <path d="M 1451.647059 1281.6 
L 1944 1281.6 
L 1944 172.8 
L 1451.647059 172.8 
z
" style="fill: #ffffff"/>
   </g>
   <g id="matplotlib.axis_5">
    <g id="xtick_17">
     <g id="line2d_34">
      <g>
       <use xlink:href="#m461243ffed" x="1473.770824" y="1281.6" style="stroke: #000000; stroke-width: 0.8"/>
      </g>
     </g>
     <g id="text_32">
      <!-- 0 -->
      <g transform="translate(1470.589574 1296.198437) scale(0.1 -0.1)">
       <use xlink:href="#DejaVuSans-30"/>
      </g>
     </g>
    </g>
    <g id="xtick_18">
     <g id="line2d_35">
      <g>
       <use xlink:href="#m461243ffed" x="1537.749324" y="1281.6" style="stroke: #000000; stroke-width: 0.8"/>
      </g>
     </g>
     <g id="text_33">
      <!-- 250 -->
      <g transform="translate(1528.205574 1296.198437) scale(0.1 -0.1)">
       <use xlink:href="#DejaVuSans-32"/>
       <use xlink:href="#DejaVuSans-35" x="63.623047"/>
       <use xlink:href="#DejaVuSans-30" x="127.246094"/>
      </g>
     </g>
    </g>
    <g id="xtick_19">
     <g id="line2d_36">
      <g>
       <use xlink:href="#m461243ffed" x="1601.727823" y="1281.6" style="stroke: #000000; stroke-width: 0.8"/>
      </g>
     </g>
     <g id="text_34">
      <!-- 500 -->
      <g transform="translate(1592.184073 1296.198437) scale(0.1 -0.1)">
       <use xlink:href="#DejaVuSans-35"/>
       <use xlink:href="#DejaVuSans-30" x="63.623047"/>
       <use xlink:href="#DejaVuSans-30" x="127.246094"/>
      </g>
     </g>
    </g>
    <g id="xtick_20">
     <g id="line2d_37">
      <g>
       <use xlink:href="#m461243ffed" x="1665.706323" y="1281.6" style="stroke: #000000; stroke-width: 0.8"/>
      </g>
     </g>
     <g id="text_35">
      <!-- 750 -->
      <g transform="translate(1656.162573 1296.198437) scale(0.1 -0.1)">
       <use xlink:href="#DejaVuSans-37"/>
       <use xlink:href="#DejaVuSans-35" x="63.623047"/>
       <use xlink:href="#DejaVuSans-30" x="127.246094"/>
      </g>
     </g>
    </g>
    <g id="xtick_21">
     <g id="line2d_38">
      <g>
       <use xlink:href="#m461243ffed" x="1729.684822" y="1281.6" style="stroke: #000000; stroke-width: 0.8"/>
      </g>
     </g>
     <g id="text_36">
      <!-- 1000 -->
      <g transform="translate(1716.959822 1296.198437) scale(0.1 -0.1)">
       <use xlink:href="#DejaVuSans-31"/>
       <use xlink:href="#DejaVuSans-30" x="63.623047"/>
       <use xlink:href="#DejaVuSans-30" x="127.246094"/>
       <use xlink:href="#DejaVuSans-30" x="190.869141"/>
      </g>
     </g>
    </g>
    <g id="xtick_22">
     <g id="line2d_39">
      <g>
       <use xlink:href="#m461243ffed" x="1793.663322" y="1281.6" style="stroke: #000000; stroke-width: 0.8"/>
      </g>
     </g>
     <g id="text_37">
      <!-- 1250 -->
      <g transform="translate(1780.938322 1296.198437) scale(0.1 -0.1)">
       <use xlink:href="#DejaVuSans-31"/>
       <use xlink:href="#DejaVuSans-32" x="63.623047"/>
       <use xlink:href="#DejaVuSans-35" x="127.246094"/>
       <use xlink:href="#DejaVuSans-30" x="190.869141"/>
      </g>
     </g>
    </g>
    <g id="xtick_23">
     <g id="line2d_40">
      <g>
       <use xlink:href="#m461243ffed" x="1857.641821" y="1281.6" style="stroke: #000000; stroke-width: 0.8"/>
      </g>
     </g>
     <g id="text_38">
      <!-- 1500 -->
      <g transform="translate(1844.916821 1296.198437) scale(0.1 -0.1)">
       <use xlink:href="#DejaVuSans-31"/>
       <use xlink:href="#DejaVuSans-35" x="63.623047"/>
       <use xlink:href="#DejaVuSans-30" x="127.246094"/>
       <use xlink:href="#DejaVuSans-30" x="190.869141"/>
      </g>
     </g>
    </g>
    <g id="xtick_24">
     <g id="line2d_41">
      <g>
       <use xlink:href="#m461243ffed" x="1921.620321" y="1281.6" style="stroke: #000000; stroke-width: 0.8"/>
      </g>
     </g>
     <g id="text_39">
      <!-- 1750 -->
      <g transform="translate(1908.895321 1296.198437) scale(0.1 -0.1)">
       <use xlink:href="#DejaVuSans-31"/>
       <use xlink:href="#DejaVuSans-37" x="63.623047"/>
       <use xlink:href="#DejaVuSans-35" x="127.246094"/>
       <use xlink:href="#DejaVuSans-30" x="190.869141"/>
      </g>
     </g>
    </g>
   </g>
   <g id="matplotlib.axis_6">
    <g id="ytick_14">
     <g id="line2d_42">
      <g>
       <use xlink:href="#mf8c037b670" x="1451.647059" y="1231.2" style="stroke: #000000; stroke-width: 0.8"/>
      </g>
     </g>
     <g id="text_40">
      <!-- 0 -->
      <g transform="translate(1438.284559 1234.999219) scale(0.1 -0.1)">
       <use xlink:href="#DejaVuSans-30"/>
      </g>
     </g>
    </g>
    <g id="ytick_15">
     <g id="line2d_43">
      <g>
       <use xlink:href="#mf8c037b670" x="1451.647059" y="994.75317" style="stroke: #000000; stroke-width: 0.8"/>
      </g>
     </g>
     <g id="text_41">
      <!-- 5 -->
      <g transform="translate(1438.284559 998.552389) scale(0.1 -0.1)">
       <use xlink:href="#DejaVuSans-35"/>
      </g>
     </g>
    </g>
    <g id="ytick_16">
     <g id="line2d_44">
      <g>
       <use xlink:href="#mf8c037b670" x="1451.647059" y="758.30634" style="stroke: #000000; stroke-width: 0.8"/>
      </g>
     </g>
     <g id="text_42">
      <!-- 10 -->
      <g transform="translate(1431.922059 762.105559) scale(0.1 -0.1)">
       <use xlink:href="#DejaVuSans-31"/>
       <use xlink:href="#DejaVuSans-30" x="63.623047"/>
      </g>
     </g>
    </g>
    <g id="ytick_17">
     <g id="line2d_45">
      <g>
       <use xlink:href="#mf8c037b670" x="1451.647059" y="521.85951" style="stroke: #000000; stroke-width: 0.8"/>
      </g>
     </g>
     <g id="text_43">
      <!-- 15 -->
      <g transform="translate(1431.922059 525.658729) scale(0.1 -0.1)">
       <use xlink:href="#DejaVuSans-31"/>
       <use xlink:href="#DejaVuSans-35" x="63.623047"/>
      </g>
     </g>
    </g>
    <g id="ytick_18">
     <g id="line2d_46">
      <g>
       <use xlink:href="#mf8c037b670" x="1451.647059" y="285.41268" style="stroke: #000000; stroke-width: 0.8"/>
      </g>
     </g>
     <g id="text_44">
      <!-- 20 -->
      <g transform="translate(1431.922059 289.211899) scale(0.1 -0.1)">
       <use xlink:href="#DejaVuSans-32"/>
       <use xlink:href="#DejaVuSans-30" x="63.623047"/>
      </g>
     </g>
    </g>
   </g>
   <g id="line2d_47">
    <path d="M 1474.026738 1231.2 
L 1484.775126 1231.2 
L 1485.03104 1212.757016 
L 1485.798782 1212.757016 
L 1486.054696 1198.019748 
L 1486.822438 1198.019748 
L 1487.078352 1185.484312 
L 1487.846094 1185.484312 
L 1488.102008 1166.906347 
L 1488.86975 1166.906347 
L 1489.125664 1160.659101 
L 1489.893406 1160.659101 
L 1490.14932 1136.337719 
L 1490.917062 1136.337719 
L 1491.172976 1143.404055 
L 1491.940718 1143.404055 
L 1492.196632 1129.562761 
L 1492.964374 1129.562761 
L 1493.220288 1115.915473 
L 1493.98803 1115.915473 
L 1494.243944 1106.657854 
L 1495.011686 1106.657854 
L 1495.2676 1090.978821 
L 1496.035342 1090.978821 
L 1496.291256 1076.261077 
L 1497.058998 1076.261077 
L 1497.314912 1067.140873 
L 1499.10631 1067.140873 
L 1499.362224 1063.12624 
L 1500.129966 1063.12624 
L 1500.38588 1054.335268 
L 1501.153622 1054.335268 
L 1501.409536 1049.439512 
L 1503.200934 1049.439512 
L 1503.456848 1045.784768 
L 1504.22459 1045.784768 
L 1504.480504 1037.778103 
L 1506.271902 1037.778103 
L 1506.527816 1034.424086 
L 1507.295558 1034.424086 
L 1507.551472 1020.284699 
L 1508.319214 1020.284699 
L 1508.575128 1000.4444 
L 1509.34287 1000.4444 
L 1509.598784 986.545019 
L 1510.366526 986.545019 
L 1510.62244 977.296115 
L 1511.390182 977.296115 
L 1511.646096 951.496451 
L 1512.413838 951.496451 
L 1512.669752 938.660544 
L 1513.437494 938.660544 
L 1513.693408 934.630983 
L 1514.46115 934.630983 
L 1514.717064 922.063486 
L 1515.484806 922.063486 
L 1515.74072 913.693476 
L 1516.508462 913.693476 
L 1516.764376 906.551156 
L 1517.532118 906.551156 
L 1517.788032 894.065464 
L 1518.555774 894.065464 
L 1518.811688 888.977704 
L 1519.57943 888.977704 
L 1519.835344 877.603075 
L 1521.626742 877.521602 
L 1521.882656 880.738581 
L 1522.650398 880.738581 
L 1522.906312 882.73142 
L 1523.674054 882.73142 
L 1523.929968 878.064304 
L 1524.69771 878.064304 
L 1524.953624 880.022688 
L 1525.721366 880.022688 
L 1525.97728 877.280613 
L 1526.745022 877.280613 
L 1527.000936 880.359738 
L 1527.768678 880.359738 
L 1528.024592 877.472178 
L 1529.81599 877.472178 
L 1530.071904 874.52953 
L 1530.839646 874.52953 
L 1531.09556 865.843037 
L 1531.863302 865.843037 
L 1532.119216 858.309884 
L 1532.886958 858.309884 
L 1533.142872 862.905782 
L 1533.910614 862.905782 
L 1534.166528 864.746033 
L 1536.981582 864.746033 
L 1537.237496 856.174502 
L 1538.005238 856.174502 
L 1538.261152 840.048191 
L 1539.028894 840.048191 
L 1539.284808 832.227997 
L 1540.05255 832.227997 
L 1540.308464 826.703284 
L 1541.076206 826.703284 
L 1541.332119 823.081519 
L 1542.099861 823.081519 
L 1542.355775 814.4323 
L 1543.123517 814.4323 
L 1543.379431 808.629393 
L 1544.147173 808.629393 
L 1544.403087 804.125772 
L 1545.170829 804.125772 
L 1545.426743 794.906795 
L 1546.194485 794.906795 
L 1546.450399 789.447372 
L 1547.218141 789.447372 
L 1547.474055 781.915362 
L 1548.241797 781.915362 
L 1548.497711 779.846857 
L 1549.265453 779.846857 
L 1549.521367 771.350839 
L 1550.289109 771.350839 
L 1550.545023 764.311164 
L 1551.312765 764.311164 
L 1551.568679 757.395662 
L 1552.336421 757.395662 
L 1552.592335 750.75541 
L 1554.383733 750.75541 
L 1554.639647 746.139067 
L 1555.407389 746.139067 
L 1555.663303 742.130909 
L 1556.431045 742.130909 
L 1556.686959 744.010174 
L 1557.454701 744.010174 
L 1557.710615 740.460358 
L 1558.478357 740.460358 
L 1558.734271 734.29193 
L 1559.502013 734.29193 
L 1559.757927 729.865832 
L 1560.525669 729.865832 
L 1560.781583 725.402818 
L 1561.549325 725.402818 
L 1561.805239 719.49601 
L 1562.572981 719.49601 
L 1562.828895 706.915496 
L 1563.596637 706.915496 
L 1563.852551 705.508079 
L 1564.620293 705.508079 
L 1564.876207 703.539501 
L 1565.643949 703.539501 
L 1565.899863 695.813185 
L 1566.667605 695.813185 
L 1566.923519 690.286776 
L 1567.691261 690.286776 
L 1567.947175 686.477819 
L 1568.714917 686.477819 
L 1568.970831 679.63502 
L 1569.738573 679.63502 
L 1569.994487 671.83786 
L 1570.762229 671.83786 
L 1571.018143 667.691258 
L 1571.785885 667.691258 
L 1572.041799 666.929993 
L 1572.809541 666.929993 
L 1573.065455 664.721252 
L 1573.833197 664.721252 
L 1574.089111 661.753625 
L 1574.856853 661.753625 
L 1575.112767 657.408924 
L 1575.880509 657.408924 
L 1576.136423 655.990059 
L 1576.904165 655.990059 
L 1577.160079 649.867467 
L 1577.927821 649.867467 
L 1578.183735 647.772843 
L 1578.951477 647.772843 
L 1579.207391 644.593393 
L 1579.975133 644.593393 
L 1580.231047 641.430312 
L 1580.998789 641.430312 
L 1581.254703 637.935892 
L 1583.046101 637.935892 
L 1583.302015 635.862656 
L 1584.069757 635.862656 
L 1584.325671 634.825415 
L 1585.093413 634.825415 
L 1585.349327 630.363266 
L 1587.140725 630.363266 
L 1587.396639 631.391175 
L 1588.164381 631.391175 
L 1588.420295 631.738067 
L 1589.188037 631.738067 
L 1589.443951 629.758985 
L 1590.211693 629.758985 
L 1590.467607 623.391616 
L 1591.235349 623.391616 
L 1591.491263 620.828588 
L 1592.259005 620.828588 
L 1592.514919 621.420839 
L 1593.282661 621.420839 
L 1593.538575 615.183473 
L 1594.306317 615.183473 
L 1594.562231 610.097162 
L 1595.329973 610.097162 
L 1595.585887 609.271625 
L 1596.353629 609.271625 
L 1596.609543 606.893054 
L 1597.377285 606.893054 
L 1597.633199 603.514011 
L 1598.400941 603.514011 
L 1598.656855 602.993486 
L 1599.424597 602.993486 
L 1599.680511 599.436863 
L 1600.448253 599.436863 
L 1600.704167 596.660752 
L 1601.471909 596.660752 
L 1601.727823 592.105194 
L 1602.495565 592.105194 
L 1602.751479 589.409262 
L 1603.519221 589.409262 
L 1603.775135 585.81157 
L 1604.542877 585.81157 
L 1604.798791 582.508769 
L 1605.566533 582.508769 
L 1605.822447 579.917365 
L 1606.590189 579.917365 
L 1606.846103 579.478625 
L 1607.613845 579.478625 
L 1607.869759 576.265491 
L 1608.637501 576.265491 
L 1608.893415 571.812436 
L 1609.661157 571.812436 
L 1609.917071 567.921596 
L 1610.684813 567.921596 
L 1610.940727 562.556469 
L 1611.708469 562.556469 
L 1611.964383 557.705408 
L 1612.732125 557.705408 
L 1612.988039 546.272215 
L 1613.755781 546.272215 
L 1614.011695 538.201601 
L 1614.779437 538.201601 
L 1615.035351 532.231406 
L 1615.803093 532.231406 
L 1616.059007 528.491766 
L 1616.826749 528.491766 
L 1617.082663 523.174996 
L 1617.850405 523.174996 
L 1618.106319 519.359062 
L 1618.874061 519.359062 
L 1619.129975 510.500224 
L 1619.897717 510.500224 
L 1620.153631 505.602511 
L 1620.921373 505.602511 
L 1621.177287 500.653767 
L 1621.945029 500.653767 
L 1622.200943 496.691669 
L 1622.968685 496.691669 
L 1623.224599 491.850666 
L 1623.992341 491.850666 
L 1624.248255 487.256817 
L 1625.015997 487.256817 
L 1625.271911 482.171467 
L 1626.039653 482.171467 
L 1626.295567 476.906755 
L 1627.063309 476.906755 
L 1627.319223 475.248178 
L 1628.086965 475.248178 
L 1628.342879 472.190534 
L 1629.110621 472.190534 
L 1629.366535 471.098242 
L 1630.134277 471.098242 
L 1630.390191 469.784222 
L 1631.157933 469.784222 
L 1631.413847 467.617488 
L 1632.181589 467.617488 
L 1632.437503 464.183729 
L 1633.205245 464.183729 
L 1633.461159 462.897179 
L 1634.228901 462.897179 
L 1634.484815 460.77575 
L 1635.252557 460.77575 
L 1635.508471 458.883924 
L 1637.299869 458.883924 
L 1637.555783 458.675936 
L 1638.323525 458.675936 
L 1638.579439 457.203871 
L 1639.347181 457.203871 
L 1639.603095 456.568888 
L 1640.370837 456.568888 
L 1640.626751 455.117544 
L 1641.394493 455.117544 
L 1641.650407 454.08748 
L 1642.418149 454.08748 
L 1642.674063 451.743076 
L 1643.441805 451.743076 
L 1643.697719 447.845879 
L 1644.465461 447.845879 
L 1644.721375 447.021074 
L 1645.489117 447.021074 
L 1645.745031 442.903716 
L 1646.512773 442.903716 
L 1646.768687 440.280777 
L 1647.536429 440.280777 
L 1647.792343 438.650906 
L 1648.560085 438.650906 
L 1648.815999 435.887773 
L 1649.583741 435.887773 
L 1649.839655 432.01266 
L 1650.607397 432.01266 
L 1650.863311 428.986054 
L 1651.631053 428.986054 
L 1651.886967 424.394014 
L 1652.654709 424.394014 
L 1652.910623 422.51009 
L 1653.678365 422.51009 
L 1653.934279 420.488199 
L 1654.702021 420.488199 
L 1654.957935 415.914753 
L 1655.725677 415.914753 
L 1655.981591 414.995238 
L 1656.749333 414.995238 
L 1657.005247 413.94657 
L 1657.772989 413.94657 
L 1658.028903 411.332259 
L 1658.796645 411.332259 
L 1659.052559 409.129983 
L 1659.820301 409.129983 
L 1660.076215 405.863009 
L 1660.843957 405.863009 
L 1661.099871 402.43602 
L 1661.867613 402.43602 
L 1662.123527 400.925818 
L 1662.891269 400.925818 
L 1663.147183 398.397159 
L 1663.914925 398.397159 
L 1664.170839 397.087004 
L 1664.938581 397.087004 
L 1665.194495 397.563972 
L 1665.962237 397.563972 
L 1666.218151 393.836152 
L 1666.985893 393.836152 
L 1667.241807 393.674038 
L 1668.009549 393.674038 
L 1668.265463 391.850353 
L 1670.056861 391.850353 
L 1670.312775 389.765083 
L 1671.080517 389.765083 
L 1671.336431 388.0641 
L 1672.104173 388.0641 
L 1672.360087 385.909121 
L 1673.127829 385.909121 
L 1673.383743 385.167862 
L 1674.151485 385.167862 
L 1674.407399 382.310882 
L 1675.175141 382.310882 
L 1675.431055 380.250253 
L 1676.198797 380.250253 
L 1676.454711 378.118605 
L 1677.222453 378.118605 
L 1677.478367 373.449965 
L 1678.246109 373.449965 
L 1678.502023 370.229289 
L 1680.293421 370.226695 
L 1680.549335 369.300604 
L 1681.317077 369.300604 
L 1681.572991 370.707553 
L 1682.340733 370.707553 
L 1682.596647 367.832544 
L 1683.364389 367.832544 
L 1683.620303 369.731267 
L 1684.388045 369.731267 
L 1684.643959 367.457679 
L 1685.4117 367.457679 
L 1685.923528 367.3347 
L 1686.435356 367.3347 
L 1686.69127 367.950619 
L 1688.482668 367.891596 
L 1688.738582 368.398758 
L 1689.506324 368.398758 
L 1689.762238 365.583843 
L 1690.52998 365.583843 
L 1690.785894 363.766997 
L 1691.553636 363.766997 
L 1691.80955 363.043573 
L 1692.577292 363.043573 
L 1692.833206 361.885675 
L 1693.600948 361.885675 
L 1693.856862 360.809831 
L 1694.624604 360.809831 
L 1694.880518 358.0539 
L 1696.671916 358.0539 
L 1696.92783 356.970895 
L 1697.695572 356.970895 
L 1697.951486 355.2535 
L 1698.719228 355.2535 
L 1698.975142 354.550629 
L 1699.742884 354.550629 
L 1699.998798 353.789165 
L 1700.76654 353.789165 
L 1701.022454 352.101924 
L 1701.790196 352.101924 
L 1702.04611 351.075503 
L 1702.813852 351.075503 
L 1703.069766 350.362972 
L 1703.837508 350.362972 
L 1704.093422 349.671121 
L 1705.88482 349.622711 
L 1706.140734 348.277562 
L 1707.932132 348.230034 
L 1708.188046 346.534101 
L 1708.955788 346.534101 
L 1709.211702 345.525972 
L 1709.979444 345.525972 
L 1710.235358 344.505075 
L 1711.0031 344.505075 
L 1711.259014 344.098154 
L 1712.026756 344.098154 
L 1712.28267 342.761741 
L 1713.050412 342.761741 
L 1713.306326 341.766804 
L 1714.074068 341.766804 
L 1714.329982 342.434507 
L 1715.097724 342.434507 
L 1715.353638 341.487168 
L 1716.12138 341.487168 
L 1716.377294 339.490348 
L 1717.145036 339.490348 
L 1717.40095 338.540648 
L 1718.168692 338.540648 
L 1718.424606 339.200607 
L 1719.192348 339.200607 
L 1719.448262 337.589688 
L 1720.216004 337.589688 
L 1720.471918 336.921319 
L 1722.263316 336.90828 
L 1722.51923 336.246185 
L 1724.310628 336.232628 
L 1724.566542 334.316403 
L 1726.35794 334.306771 
L 1726.613854 333.039032 
L 1727.381596 333.039032 
L 1727.63751 332.398838 
L 1728.405252 332.398838 
L 1728.661166 331.760825 
L 1729.428908 331.760825 
L 1729.684822 331.123339 
L 1730.452564 331.123339 
L 1730.708478 328.909367 
L 1732.499876 328.909367 
L 1732.75579 327.961244 
L 1733.523532 327.961244 
L 1733.779446 327.332356 
L 1735.570844 327.33034 
L 1735.826758 325.763483 
L 1736.5945 325.763483 
L 1736.850414 325.138397 
L 1737.618156 325.138397 
L 1737.87407 324.514644 
L 1738.641812 324.514644 
L 1738.897726 323.26969 
L 1739.665468 323.26969 
L 1739.921382 321.400865 
L 1740.689124 321.400865 
L 1740.945038 320.476902 
L 1741.71278 320.476902 
L 1741.968694 319.232383 
L 1742.736436 319.232383 
L 1742.99235 317.697488 
L 1743.760092 317.697488 
L 1744.016006 316.176833 
L 1744.783748 316.176833 
L 1745.039662 315.863114 
L 1745.807404 315.863114 
L 1746.063318 316.50417 
L 1746.83106 316.50417 
L 1747.086974 314.95739 
L 1748.878372 314.987438 
L 1749.134286 313.44938 
L 1749.902028 313.44938 
L 1750.157942 312.571569 
L 1751.94934 312.571569 
L 1752.205254 310.429991 
L 1752.972996 310.429991 
L 1753.22891 309.50802 
L 1753.996652 309.50802 
L 1754.252566 307.992246 
L 1755.020308 307.992246 
L 1755.276222 307.074068 
L 1756.043964 307.074068 
L 1756.299878 306.169754 
L 1757.06762 306.169754 
L 1757.323534 303.46473 
L 1758.091276 303.46473 
L 1758.34719 301.950817 
L 1759.114932 301.950817 
L 1759.370846 301.03938 
L 1760.138588 301.03938 
L 1760.394502 300.143577 
L 1761.162244 300.143577 
L 1761.418158 299.53245 
L 1762.1859 299.53245 
L 1762.441814 298.90632 
L 1763.209556 298.90632 
L 1763.46547 297.407596 
L 1765.256868 297.391351 
L 1765.512782 296.503632 
L 1768.327836 296.487164 
L 1768.58375 295.582372 
L 1769.351492 295.582372 
L 1769.607406 294.695316 
L 1770.375148 294.695316 
L 1770.631062 292.888866 
L 1771.398804 292.888866 
L 1771.654718 292.282605 
L 1772.42246 292.282605 
L 1772.678374 289.897625 
L 1773.446116 289.897625 
L 1773.70203 288.728803 
L 1774.469772 288.728803 
L 1774.725686 286.962954 
L 1775.493428 286.962954 
L 1775.749342 285.493279 
L 1777.54074 285.493279 
L 1777.796654 284.89349 
L 1778.564396 284.89349 
L 1778.82031 284.026153 
L 1779.588052 284.026153 
L 1779.843966 283.449016 
L 1780.611708 283.449016 
L 1780.867622 281.698831 
L 1782.65902 281.698831 
L 1782.914934 281.310672 
L 1783.682676 281.310672 
L 1783.93859 279.848735 
L 1784.706332 279.848735 
L 1784.962246 280.422902 
L 1785.729988 280.422902 
L 1785.985902 279.537633 
L 1787.7773 279.638289 
L 1788.033214 278.778289 
L 1788.800956 278.778289 
L 1789.05687 278.310744 
L 1790.848268 278.310744 
L 1791.104182 278.882036 
L 1793.919236 278.855341 
L 1794.17515 278.258357 
L 1795.966548 278.258357 
L 1796.222462 277.662371 
L 1796.990204 277.662371 
L 1797.246118 276.808435 
L 1798.01386 276.808435 
L 1798.269774 276.213235 
L 1799.037516 276.213235 
L 1799.29343 274.740283 
L 1800.061172 274.740283 
L 1800.317086 273.015866 
L 1801.084828 273.015866 
L 1801.340742 272.169034 
L 1802.108484 272.169034 
L 1802.364398 271.32281 
L 1803.13214 271.32281 
L 1803.388054 269.719381 
L 1804.155796 269.719381 
L 1804.41171 269.527741 
L 1805.179452 269.527741 
L 1805.435366 267.369509 
L 1806.203108 267.369509 
L 1806.459022 265.811986 
L 1807.226764 265.811986 
L 1807.482678 265.382772 
L 1808.25042 265.382772 
L 1808.506334 265.942867 
L 1809.274076 265.942867 
L 1809.52999 264.397905 
L 1810.297732 264.397905 
L 1810.553646 263.52349 
L 1811.321388 263.52349 
L 1811.577302 262.96427 
L 1812.345044 262.96427 
L 1812.600958 263.103097 
L 1813.3687 263.103097 
L 1813.624614 262.543877 
L 1814.392356 262.543877 
L 1814.64827 262.126941 
L 1815.416012 262.126941 
L 1815.671926 261.56772 
L 1816.439668 261.56772 
L 1816.695582 261.711719 
L 1817.463324 261.711719 
L 1817.719238 260.74108 
L 1819.510636 260.74108 
L 1819.76655 260.330496 
L 1821.557948 260.330496 
L 1821.813862 259.772528 
L 1823.60526 259.772528 
L 1823.861174 259.215399 
L 1824.628916 259.215399 
L 1824.88483 258.659107 
L 1825.652572 258.659107 
L 1825.908486 258.103641 
L 1827.699884 258.103641 
L 1827.955798 256.440072 
L 1828.72354 256.440072 
L 1828.979453 255.886632 
L 1829.747195 255.886632 
L 1830.003109 254.190602 
L 1830.770851 254.190602 
L 1831.026765 252.498141 
L 1831.794507 252.498141 
L 1832.050421 251.399159 
L 1833.841819 251.399159 
L 1834.097733 250.849668 
L 1835.889131 250.849668 
L 1836.145045 252.10655 
L 1836.912787 252.10655 
L 1837.168701 252.268311 
L 1837.936443 252.268311 
L 1838.192357 252.81399 
L 1838.960099 252.81399 
L 1839.216013 253.35892 
L 1839.983755 253.35892 
L 1840.239669 254.234154 
L 1841.007411 254.234154 
L 1841.263325 253.690699 
L 1842.031067 253.690699 
L 1842.286981 252.772963 
L 1843.054723 252.772963 
L 1843.310637 253.314968 
L 1844.078379 253.314968 
L 1844.334293 252.231675 
L 1845.102035 252.231675 
L 1845.357949 252.772254 
L 1846.125691 252.772254 
L 1846.381605 253.306025 
L 1847.149347 253.306025 
L 1847.405261 253.844853 
L 1849.196659 253.844853 
L 1849.452573 252.769791 
L 1850.220315 252.769791 
L 1850.476229 253.306033 
L 1852.267627 253.306033 
L 1852.523541 252.796964 
L 1853.291283 252.796964 
L 1853.547197 253.332355 
L 1854.314939 253.332355 
L 1854.570853 253.866903 
L 1855.338595 253.866903 
L 1855.594509 253.33319 
L 1857.385907 253.33319 
L 1857.641821 252.800693 
L 1858.409563 252.800693 
L 1858.665477 253.366216 
L 1859.433219 253.366216 
L 1859.689133 252.304442 
L 1860.456875 252.304442 
L 1860.712789 251.812624 
L 1862.504187 251.813418 
L 1862.760101 250.799052 
L 1863.527843 250.799052 
L 1863.783757 251.326345 
L 1864.551499 251.326345 
L 1864.807413 250.273291 
L 1865.575155 250.273291 
L 1865.831069 249.747923 
L 1866.598811 249.747923 
L 1866.854725 248.174089 
L 1867.622467 248.174089 
L 1867.878381 247.179664 
L 1868.646123 247.179664 
L 1868.902037 246.711322 
L 1869.669779 246.711322 
L 1869.925693 245.784151 
L 1870.693435 245.784151 
L 1870.949349 244.803315 
L 1871.717091 244.803315 
L 1871.973005 243.245068 
L 1872.740747 243.245068 
L 1872.996661 243.763405 
L 1874.788059 243.829667 
L 1875.043973 243.313092 
L 1875.811715 243.313092 
L 1876.067629 242.796516 
L 1876.835371 242.796516 
L 1877.091285 242.27994 
L 1877.859027 242.27994 
L 1878.114941 241.76405 
L 1878.882683 241.76405 
L 1879.138597 241.248843 
L 1879.906339 241.248843 
L 1880.162253 240.220462 
L 1880.929995 240.220462 
L 1881.185909 239.193119 
L 1881.953651 239.193119 
L 1882.209565 238.679629 
L 1885.024619 238.756895 
L 1885.280533 238.245387 
L 1886.048275 238.245387 
L 1886.304189 237.734529 
L 1888.095587 237.734529 
L 1888.351501 236.714177 
L 1889.119243 236.714177 
L 1889.375157 235.695823 
L 1890.142899 235.695823 
L 1890.398813 235.272721 
L 1891.166555 235.272721 
L 1891.422469 234.257533 
L 1892.190211 234.257533 
L 1892.446125 233.244208 
L 1893.213867 233.244208 
L 1893.469781 232.737248 
L 1894.237523 232.737248 
L 1894.493437 232.326495 
L 1896.284835 232.326495 
L 1896.540749 232.830426 
L 1897.308491 232.830426 
L 1897.564405 231.918729 
L 1898.332147 231.918729 
L 1898.588061 231.415392 
L 1899.355803 231.415392 
L 1899.611717 230.50795 
L 1900.379459 230.50795 
L 1900.635373 230.00579 
L 1902.426771 230.00579 
L 1902.682685 229.003219 
L 1903.450427 229.003219 
L 1903.706341 228.103128 
L 1904.474083 228.103128 
L 1904.729997 227.60306 
L 1906.521395 227.603405 
L 1906.777309 227.210039 
L 1908.568707 227.209473 
L 1908.824621 226.819386 
L 1910.616019 226.927197 
L 1910.871933 227.533573 
L 1911.639675 227.533573 
L 1911.895589 227.037903 
L 1912.663331 227.037903 
L 1912.919245 226.54257 
L 1913.686987 226.54257 
L 1913.942901 226.047788 
L 1914.710643 226.047788 
L 1914.966557 225.664254 
L 1915.734299 225.664254 
L 1915.990213 226.158491 
L 1917.781611 226.158491 
L 1918.037525 225.664254 
L 1918.805267 225.664254 
L 1919.061181 224.6774 
L 1919.828923 224.6774 
L 1920.084837 223.2 
L 1921.620321 223.2 
L 1921.620321 223.2 
" clip-path="url(#p375f24eb10)" style="fill: none; stroke: #0000ff; stroke-width: 1.5; stroke-linecap: square"/>
   </g>
   <g id="patch_15">
    <path d="M 1451.647059 1281.6 
L 1451.647059 172.8 
" style="fill: none; stroke: #000000; stroke-width: 0.8; stroke-linejoin: miter; stroke-linecap: square"/>
   </g>
   <g id="patch_16">
    <path d="M 1944 1281.6 
L 1944 172.8 
" style="fill: none; stroke: #000000; stroke-width: 0.8; stroke-linejoin: miter; stroke-linecap: square"/>
   </g>
   <g id="patch_17">
    <path d="M 1451.647059 1281.6 
L 1944 1281.6 
" style="fill: none; stroke: #000000; stroke-width: 0.8; stroke-linejoin: miter; stroke-linecap: square"/>
   </g>
   <g id="patch_18">
    <path d="M 1451.647059 172.8 
L 1944 172.8 
" style="fill: none; stroke: #000000; stroke-width: 0.8; stroke-linejoin: miter; stroke-linecap: square"/>
   </g>
   <g id="legend_3">
    <g id="patch_19">
     <path d="M 1852.957813 195.478125 
L 1937 195.478125 
Q 1939 195.478125 1939 193.478125 
L 1939 179.8 
Q 1939 177.8 1937 177.8 
L 1852.957813 177.8 
Q 1850.957813 177.8 1850.957813 179.8 
L 1850.957813 193.478125 
Q 1850.957813 195.478125 1852.957813 195.478125 
z
" style="fill: #ffffff; opacity: 0.8; stroke: #cccccc; stroke-linejoin: miter"/>
    </g>
    <g id="line2d_48">
     <path d="M 1854.957813 185.898437 
L 1864.957813 185.898437 
L 1874.957813 185.898437 
" style="fill: none; stroke: #0000ff; stroke-width: 1.5; stroke-linecap: square"/>
    </g>
    <g id="text_45">
     <!-- O3 reward -->
     <g transform="translate(1882.957813 189.398437) scale(0.1 -0.1)">
      <use xlink:href="#DejaVuSans-4f"/>
      <use xlink:href="#DejaVuSans-33" x="78.710938"/>
      <use xlink:href="#DejaVuSans-20" x="142.333984"/>
      <use xlink:href="#DejaVuSans-72" x="174.121094"/>
      <use xlink:href="#DejaVuSans-65" x="212.984375"/>
      <use xlink:href="#DejaVuSans-77" x="274.507812"/>
      <use xlink:href="#DejaVuSans-61" x="356.294922"/>
      <use xlink:href="#DejaVuSans-72" x="417.574219"/>
      <use xlink:href="#DejaVuSans-64" x="456.9375"/>
     </g>
    </g>
   </g>
  </g>
 </g>
 <defs>
  <clipPath id="p5a5904a8ef">
   <rect x="270" y="172.8" width="492.352941" height="1108.8"/>
  </clipPath>
  <clipPath id="p5ce14fbaf7">
   <rect x="860.823529" y="172.8" width="492.352941" height="1108.8"/>
  </clipPath>
  <clipPath id="p375f24eb10">
   <rect x="1451.647059" y="172.8" width="492.352941" height="1108.8"/>
  </clipPath>
 </defs>
</svg>
