<?xml version="1.0" encoding="utf-8" standalone="no"?>
<!DOCTYPE svg PUBLIC "-//W3C//DTD SVG 1.1//EN"
  "http://www.w3.org/Graphics/SVG/1.1/DTD/svg11.dtd">
<svg xmlns:xlink="http://www.w3.org/1999/xlink" width="2160pt" height="1440pt" viewBox="0 0 2160 1440" xmlns="http://www.w3.org/2000/svg" version="1.1">
 <metadata>
  <rdf:RDF xmlns:dc="http://purl.org/dc/elements/1.1/" xmlns:cc="http://creativecommons.org/ns#" xmlns:rdf="http://www.w3.org/1999/02/22-rdf-syntax-ns#">
   <cc:Work>
    <dc:type rdf:resource="http://purl.org/dc/dcmitype/StillImage"/>
    <dc:date>2023-05-31T20:05:33.479548</dc:date>
    <dc:format>image/svg+xml</dc:format>
    <dc:creator>
     <cc:Agent>
      <dc:title>Matplotlib v3.7.1, https://matplotlib.org/</dc:title>
     </cc:Agent>
    </dc:creator>
   </cc:Work>
  </rdf:RDF>
 </metadata>
 <defs>
  <style type="text/css">*{stroke-linejoin: round; stroke-linecap: butt}</style>
 </defs>
 <g id="figure_1">
  <g id="patch_1">
   <path d="M 0 1440 
L 2160 1440 
L 2160 0 
L 0 0 
z
" style="fill: #ffffff"/>
  </g>
  <g id="axes_1">
   <g id="patch_2">
    <path d="M 270 1281.6 
L 762.352941 1281.6 
L 762.352941 172.8 
L 270 172.8 
z
" style="fill: #ffffff"/>
   </g>
   <g id="matplotlib.axis_1">
    <g id="xtick_1">
     <g id="line2d_1">
      <defs>
       <path id="m51a262d587" d="M 0 0 
L 0 3.5 
" style="stroke: #000000; stroke-width: 0.8"/>
      </defs>
      <g>
       <use xlink:href="#m51a262d587" x="292.169935" y="1281.6" style="stroke: #000000; stroke-width: 0.8"/>
      </g>
     </g>
     <g id="text_1">
      <!-- 0 -->
      <g transform="translate(288.988685 1296.198437) scale(0.1 -0.1)">
       <defs>
        <path id="DejaVuSans-30" d="M 2034 4250 
Q 1547 4250 1301 3770 
Q 1056 3291 1056 2328 
Q 1056 1369 1301 889 
Q 1547 409 2034 409 
Q 2525 409 2770 889 
Q 3016 1369 3016 2328 
Q 3016 3291 2770 3770 
Q 2525 4250 2034 4250 
z
M 2034 4750 
Q 2819 4750 3233 4129 
Q 3647 3509 3647 2328 
Q 3647 1150 3233 529 
Q 2819 -91 2034 -91 
Q 1250 -91 836 529 
Q 422 1150 422 2328 
Q 422 3509 836 4129 
Q 1250 4750 2034 4750 
z
" transform="scale(0.015625)"/>
       </defs>
       <use xlink:href="#DejaVuSans-30"/>
      </g>
     </g>
    </g>
    <g id="xtick_2">
     <g id="line2d_2">
      <g>
       <use xlink:href="#m51a262d587" x="397.041909" y="1281.6" style="stroke: #000000; stroke-width: 0.8"/>
      </g>
     </g>
     <g id="text_2">
      <!-- 500 -->
      <g transform="translate(387.498159 1296.198437) scale(0.1 -0.1)">
       <defs>
        <path id="DejaVuSans-35" d="M 691 4666 
L 3169 4666 
L 3169 4134 
L 1269 4134 
L 1269 2991 
Q 1406 3038 1543 3061 
Q 1681 3084 1819 3084 
Q 2600 3084 3056 2656 
Q 3513 2228 3513 1497 
Q 3513 744 3044 326 
Q 2575 -91 1722 -91 
Q 1428 -91 1123 -41 
Q 819 9 494 109 
L 494 744 
Q 775 591 1075 516 
Q 1375 441 1709 441 
Q 2250 441 2565 725 
Q 2881 1009 2881 1497 
Q 2881 1984 2565 2268 
Q 2250 2553 1709 2553 
Q 1456 2553 1204 2497 
Q 953 2441 691 2322 
L 691 4666 
z
" transform="scale(0.015625)"/>
       </defs>
       <use xlink:href="#DejaVuSans-35"/>
       <use xlink:href="#DejaVuSans-30" x="63.623047"/>
       <use xlink:href="#DejaVuSans-30" x="127.246094"/>
      </g>
     </g>
    </g>
    <g id="xtick_3">
     <g id="line2d_3">
      <g>
       <use xlink:href="#m51a262d587" x="501.913882" y="1281.6" style="stroke: #000000; stroke-width: 0.8"/>
      </g>
     </g>
     <g id="text_3">
      <!-- 1000 -->
      <g transform="translate(489.188882 1296.198437) scale(0.1 -0.1)">
       <defs>
        <path id="DejaVuSans-31" d="M 794 531 
L 1825 531 
L 1825 4091 
L 703 3866 
L 703 4441 
L 1819 4666 
L 2450 4666 
L 2450 531 
L 3481 531 
L 3481 0 
L 794 0 
L 794 531 
z
" transform="scale(0.015625)"/>
       </defs>
       <use xlink:href="#DejaVuSans-31"/>
       <use xlink:href="#DejaVuSans-30" x="63.623047"/>
       <use xlink:href="#DejaVuSans-30" x="127.246094"/>
       <use xlink:href="#DejaVuSans-30" x="190.869141"/>
      </g>
     </g>
    </g>
    <g id="xtick_4">
     <g id="line2d_4">
      <g>
       <use xlink:href="#m51a262d587" x="606.785856" y="1281.6" style="stroke: #000000; stroke-width: 0.8"/>
      </g>
     </g>
     <g id="text_4">
      <!-- 1500 -->
      <g transform="translate(594.060856 1296.198437) scale(0.1 -0.1)">
       <use xlink:href="#DejaVuSans-31"/>
       <use xlink:href="#DejaVuSans-35" x="63.623047"/>
       <use xlink:href="#DejaVuSans-30" x="127.246094"/>
       <use xlink:href="#DejaVuSans-30" x="190.869141"/>
      </g>
     </g>
    </g>
    <g id="xtick_5">
     <g id="line2d_5">
      <g>
       <use xlink:href="#m51a262d587" x="711.657829" y="1281.6" style="stroke: #000000; stroke-width: 0.8"/>
      </g>
     </g>
     <g id="text_5">
      <!-- 2000 -->
      <g transform="translate(698.932829 1296.198437) scale(0.1 -0.1)">
       <defs>
        <path id="DejaVuSans-32" d="M 1228 531 
L 3431 531 
L 3431 0 
L 469 0 
L 469 531 
Q 828 903 1448 1529 
Q 2069 2156 2228 2338 
Q 2531 2678 2651 2914 
Q 2772 3150 2772 3378 
Q 2772 3750 2511 3984 
Q 2250 4219 1831 4219 
Q 1534 4219 1204 4116 
Q 875 4013 500 3803 
L 500 4441 
Q 881 4594 1212 4672 
Q 1544 4750 1819 4750 
Q 2544 4750 2975 4387 
Q 3406 4025 3406 3419 
Q 3406 3131 3298 2873 
Q 3191 2616 2906 2266 
Q 2828 2175 2409 1742 
Q 1991 1309 1228 531 
z
" transform="scale(0.015625)"/>
       </defs>
       <use xlink:href="#DejaVuSans-32"/>
       <use xlink:href="#DejaVuSans-30" x="63.623047"/>
       <use xlink:href="#DejaVuSans-30" x="127.246094"/>
       <use xlink:href="#DejaVuSans-30" x="190.869141"/>
      </g>
     </g>
    </g>
   </g>
   <g id="matplotlib.axis_2">
    <g id="ytick_1">
     <g id="line2d_6">
      <defs>
       <path id="m31bb9cfa80" d="M 0 0 
L -3.5 0 
" style="stroke: #000000; stroke-width: 0.8"/>
      </defs>
      <g>
       <use xlink:href="#m31bb9cfa80" x="270" y="1208.782314" style="stroke: #000000; stroke-width: 0.8"/>
      </g>
     </g>
     <g id="text_6">
      <!-- −40 -->
      <g transform="translate(241.895312 1212.581532) scale(0.1 -0.1)">
       <defs>
        <path id="DejaVuSans-2212" d="M 678 2272 
L 4684 2272 
L 4684 1741 
L 678 1741 
L 678 2272 
z
" transform="scale(0.015625)"/>
        <path id="DejaVuSans-34" d="M 2419 4116 
L 825 1625 
L 2419 1625 
L 2419 4116 
z
M 2253 4666 
L 3047 4666 
L 3047 1625 
L 3713 1625 
L 3713 1100 
L 3047 1100 
L 3047 0 
L 2419 0 
L 2419 1100 
L 313 1100 
L 313 1709 
L 2253 4666 
z
" transform="scale(0.015625)"/>
       </defs>
       <use xlink:href="#DejaVuSans-2212"/>
       <use xlink:href="#DejaVuSans-34" x="83.789062"/>
       <use xlink:href="#DejaVuSans-30" x="147.412109"/>
      </g>
     </g>
    </g>
    <g id="ytick_2">
     <g id="line2d_7">
      <g>
       <use xlink:href="#m31bb9cfa80" x="270" y="963.612584" style="stroke: #000000; stroke-width: 0.8"/>
      </g>
     </g>
     <g id="text_7">
      <!-- −30 -->
      <g transform="translate(241.895312 967.411803) scale(0.1 -0.1)">
       <defs>
        <path id="DejaVuSans-33" d="M 2597 2516 
Q 3050 2419 3304 2112 
Q 3559 1806 3559 1356 
Q 3559 666 3084 287 
Q 2609 -91 1734 -91 
Q 1441 -91 1130 -33 
Q 819 25 488 141 
L 488 750 
Q 750 597 1062 519 
Q 1375 441 1716 441 
Q 2309 441 2620 675 
Q 2931 909 2931 1356 
Q 2931 1769 2642 2001 
Q 2353 2234 1838 2234 
L 1294 2234 
L 1294 2753 
L 1863 2753 
Q 2328 2753 2575 2939 
Q 2822 3125 2822 3475 
Q 2822 3834 2567 4026 
Q 2313 4219 1838 4219 
Q 1578 4219 1281 4162 
Q 984 4106 628 3988 
L 628 4550 
Q 988 4650 1302 4700 
Q 1616 4750 1894 4750 
Q 2613 4750 3031 4423 
Q 3450 4097 3450 3541 
Q 3450 3153 3228 2886 
Q 3006 2619 2597 2516 
z
" transform="scale(0.015625)"/>
       </defs>
       <use xlink:href="#DejaVuSans-2212"/>
       <use xlink:href="#DejaVuSans-33" x="83.789062"/>
       <use xlink:href="#DejaVuSans-30" x="147.412109"/>
      </g>
     </g>
    </g>
    <g id="ytick_3">
     <g id="line2d_8">
      <g>
       <use xlink:href="#m31bb9cfa80" x="270" y="718.442854" style="stroke: #000000; stroke-width: 0.8"/>
      </g>
     </g>
     <g id="text_8">
      <!-- −20 -->
      <g transform="translate(241.895312 722.242073) scale(0.1 -0.1)">
       <use xlink:href="#DejaVuSans-2212"/>
       <use xlink:href="#DejaVuSans-32" x="83.789062"/>
       <use xlink:href="#DejaVuSans-30" x="147.412109"/>
      </g>
     </g>
    </g>
    <g id="ytick_4">
     <g id="line2d_9">
      <g>
       <use xlink:href="#m31bb9cfa80" x="270" y="473.273124" style="stroke: #000000; stroke-width: 0.8"/>
      </g>
     </g>
     <g id="text_9">
      <!-- −10 -->
      <g transform="translate(241.895312 477.072343) scale(0.1 -0.1)">
       <use xlink:href="#DejaVuSans-2212"/>
       <use xlink:href="#DejaVuSans-31" x="83.789062"/>
       <use xlink:href="#DejaVuSans-30" x="147.412109"/>
      </g>
     </g>
    </g>
    <g id="ytick_5">
     <g id="line2d_10">
      <g>
       <use xlink:href="#m31bb9cfa80" x="270" y="228.103395" style="stroke: #000000; stroke-width: 0.8"/>
      </g>
     </g>
     <g id="text_10">
      <!-- 0 -->
      <g transform="translate(256.6375 231.902613) scale(0.1 -0.1)">
       <use xlink:href="#DejaVuSans-30"/>
      </g>
     </g>
    </g>
   </g>
   <g id="line2d_11">
    <path d="M 292.379679 228.103395 
L 302.866876 228.103395 
L 303.07662 223.2 
L 303.705852 223.2 
L 303.915596 226.46893 
L 304.544828 226.46893 
L 304.754572 232.02611 
L 305.383804 232.02611 
L 305.593548 232.654751 
L 306.22278 232.654751 
L 306.432524 238.88727 
L 307.061755 238.88727 
L 307.271499 241.596245 
L 307.900731 241.596245 
L 308.110475 244.495474 
L 308.739707 244.495474 
L 308.949451 247.041628 
L 309.578683 247.041628 
L 309.788427 250.344201 
L 310.417659 250.344201 
L 310.627403 252.857302 
L 312.09561 252.857302 
L 312.305354 250.776809 
L 313.773562 250.776809 
L 313.983306 253.734727 
L 314.612538 253.734727 
L 314.822281 251.235361 
L 315.451513 251.235361 
L 315.661257 249.219089 
L 317.129465 249.219089 
L 317.339209 249.725432 
L 317.968441 249.725432 
L 318.178185 247.237095 
L 319.646392 247.237095 
L 319.856136 244.758724 
L 320.485368 244.758724 
L 320.695112 242.289844 
L 321.324344 242.289844 
L 321.534088 244.577116 
L 322.16332 244.577116 
L 322.373064 240.862423 
L 323.841271 240.862423 
L 324.051015 237.419783 
L 324.680247 237.419783 
L 324.889991 239.585747 
L 325.519223 239.585747 
L 325.728967 237.419783 
L 326.358199 237.419783 
L 326.567943 240.72848 
L 328.03615 240.72848 
L 328.245894 243.063919 
L 328.875126 243.063919 
L 329.08487 247.132116 
L 329.714102 247.132116 
L 329.923846 246.520701 
L 330.553077 246.520701 
L 330.762821 248.060206 
L 331.392053 248.060206 
L 331.601797 247.472522 
L 332.231029 247.472522 
L 332.440773 246.897947 
L 333.070005 246.897947 
L 333.279749 247.905601 
L 333.908981 247.905601 
L 334.118725 253.675036 
L 334.747956 253.675036 
L 334.9577 251.618697 
L 335.586932 251.618697 
L 335.796676 253.214536 
L 336.425908 253.214536 
L 336.635652 258.909509 
L 337.264884 258.909509 
L 337.474628 260.854582 
L 338.10386 260.854582 
L 338.313604 262.57022 
L 340.620787 262.57022 
L 340.830531 264.472281 
L 341.459763 264.472281 
L 341.669507 268.089981 
L 342.298739 268.089981 
L 342.508482 266.190946 
L 343.137714 266.190946 
L 343.347458 269.814861 
L 343.97669 269.814861 
L 344.186434 273.405447 
L 344.815666 273.405447 
L 345.02541 275.138781 
L 345.654642 275.138781 
L 345.864386 280.61963 
L 346.493617 280.61963 
L 346.703361 284.302516 
L 347.332593 284.302516 
L 347.542337 289.848712 
L 348.171569 289.848712 
L 348.381313 295.301865 
L 349.010545 295.301865 
L 349.220289 298.965266 
L 349.849521 298.965266 
L 350.059265 300.838793 
L 350.688496 300.838793 
L 350.89824 304.502194 
L 351.527472 304.502194 
L 351.737216 302.737466 
L 352.366448 302.737466 
L 352.576192 299.251248 
L 353.205424 299.251248 
L 353.415168 295.805288 
L 354.0444 295.805288 
L 354.254144 294.082308 
L 354.883375 294.082308 
L 355.093119 297.765242 
L 356.561327 297.781718 
L 356.771071 298.09736 
L 357.400303 298.09736 
L 357.610047 303.834186 
L 359.078254 303.832191 
L 359.287998 300.527134 
L 359.91723 300.527134 
L 360.126974 298.876516 
L 360.756206 298.876516 
L 360.96595 295.580732 
L 361.595182 295.580732 
L 361.804926 299.346529 
L 362.434157 299.346529 
L 362.643901 300.993525 
L 364.112109 300.993525 
L 364.321853 302.64052 
L 364.951085 302.64052 
L 365.160829 300.995209 
L 365.790061 300.995209 
L 365.999805 299.86105 
L 366.629036 299.86105 
L 366.83878 296.605824 
L 367.468012 296.605824 
L 367.677756 297.15285 
L 368.306988 297.15285 
L 368.516732 299.927707 
L 369.145964 299.927707 
L 369.355708 300.538495 
L 369.98494 300.538495 
L 370.194683 298.923655 
L 371.662891 298.923655 
L 371.872635 302.75502 
L 372.501867 302.75502 
L 372.711611 301.16268 
L 373.340843 301.16268 
L 373.550587 299.571609 
L 374.179818 299.571609 
L 374.389562 300.236212 
L 375.018794 300.236212 
L 375.228538 300.914366 
L 375.85777 300.914366 
L 376.067514 303.18727 
L 376.696746 303.18727 
L 376.90649 307.056881 
L 377.535722 307.056881 
L 377.745466 313.219666 
L 378.374697 313.219666 
L 378.584441 317.089277 
L 379.213673 317.089277 
L 379.423417 322.533014 
L 380.052649 322.533014 
L 380.262393 328.698125 
L 380.891625 328.698125 
L 381.101369 334.130498 
L 381.730601 334.130498 
L 381.940345 341.890881 
L 382.569576 341.890881 
L 382.77932 348.102166 
L 383.408552 348.102166 
L 383.618296 349.667975 
L 384.247528 349.667975 
L 384.457272 355.894591 
L 385.086504 355.894591 
L 385.296248 356.662173 
L 385.92548 356.662173 
L 386.135223 361.339147 
L 387.603431 361.339147 
L 387.813175 363.677291 
L 389.281383 363.681612 
L 389.491127 366.022454 
L 390.120358 366.022454 
L 390.330102 364.472413 
L 391.79831 364.471536 
L 392.008054 366.82922 
L 392.637286 366.82922 
L 392.84703 370.73311 
L 393.476262 370.73311 
L 393.686006 367.656743 
L 394.315237 367.656743 
L 394.524981 368.504917 
L 395.154213 368.504917 
L 395.363957 365.447469 
L 395.993189 365.447469 
L 396.202933 360.879745 
L 396.832165 360.879745 
L 397.041909 363.277884 
L 397.671141 363.277884 
L 397.880884 358.722899 
L 398.510116 358.722899 
L 398.71986 362.646879 
L 399.349092 362.646879 
L 399.558836 362.022021 
L 401.866019 362.022021 
L 402.075763 360.514913 
L 402.704995 360.514913 
L 402.914739 357.504167 
L 403.543971 357.504167 
L 403.753715 354.495556 
L 404.382947 354.495556 
L 404.592691 348.488638 
L 405.221923 348.488638 
L 405.431667 342.508704 
L 406.060898 342.508704 
L 406.270642 338.036885 
L 406.899874 338.036885 
L 407.109618 333.57609 
L 407.73885 333.57609 
L 407.948594 332.091751 
L 408.577826 332.091751 
L 408.78757 327.646041 
L 409.416802 327.646041 
L 409.626546 324.685638 
L 411.094753 324.686843 
L 411.304497 323.209297 
L 411.933729 323.209297 
L 412.143473 318.781654 
L 412.772705 318.781654 
L 412.982449 322.752243 
L 413.611681 322.752243 
L 413.821424 318.332569 
L 414.450656 318.332569 
L 414.6604 323.340003 
L 415.289632 323.340003 
L 415.499376 332.762105 
L 416.128608 332.762105 
L 416.338352 331.292676 
L 416.967584 331.292676 
L 417.177328 330.864563 
L 417.806559 330.864563 
L 418.016303 324.998518 
L 418.645535 324.998518 
L 418.855279 327.517051 
L 419.484511 327.517051 
L 419.694255 334.019864 
L 420.323487 334.019864 
L 420.533231 340.133665 
L 421.162463 340.133665 
L 421.372207 344.117972 
L 422.001438 344.117972 
L 422.211182 351.015579 
L 422.840414 351.015579 
L 423.050158 357.535002 
L 423.67939 357.535002 
L 423.889134 361.522906 
L 424.518366 361.522906 
L 424.72811 364.060705 
L 425.357342 364.060705 
L 425.567085 364.785776 
L 426.196317 364.785776 
L 426.406061 371.320261 
L 427.035293 371.320261 
L 427.245037 376.762826 
L 427.874269 376.762826 
L 428.084013 377.861072 
L 428.713245 377.861072 
L 428.922989 380.408034 
L 429.55222 380.408034 
L 429.761964 388.057791 
L 430.391196 388.057791 
L 430.60094 394.607906 
L 431.230172 394.607906 
L 431.439916 406.278937 
L 432.069148 406.278937 
L 432.278892 420.528359 
L 432.908124 420.528359 
L 433.117868 425.656357 
L 433.747099 425.656357 
L 433.956843 436.234959 
L 434.586075 436.234959 
L 434.795819 445.072939 
L 435.425051 445.072939 
L 435.634795 443.634533 
L 436.264027 443.634533 
L 436.473771 440.760226 
L 437.103003 440.760226 
L 437.312747 437.887172 
L 438.780954 437.886789 
L 438.990698 436.451403 
L 439.61993 436.451403 
L 439.829674 435.015636 
L 440.458906 435.015636 
L 440.66865 432.146483 
L 441.297882 432.146483 
L 441.507625 430.422761 
L 442.136857 430.422761 
L 442.346601 430.134484 
L 442.975833 430.134484 
L 443.185577 436.442094 
L 443.814809 436.442094 
L 444.024553 435.010164 
L 444.653785 435.010164 
L 444.863529 437.592063 
L 445.49276 437.592063 
L 445.702504 442.758119 
L 446.331736 442.758119 
L 446.54148 442.479617 
L 447.170712 442.479617 
L 447.380456 445.064892 
L 448.009688 445.064892 
L 448.219432 448.536749 
L 448.848664 448.536749 
L 449.058408 449.696457 
L 449.687639 449.696457 
L 449.897383 452.018109 
L 450.526615 452.018109 
L 450.736359 453.444856 
L 451.365591 453.444856 
L 451.575335 451.756086 
L 452.204567 451.756086 
L 452.414311 451.495795 
L 453.043543 451.495795 
L 453.253286 455.514304 
L 453.882518 455.514304 
L 454.092262 451.237254 
L 454.721494 451.237254 
L 454.931238 452.405534 
L 455.56047 452.405534 
L 455.770214 458.765241 
L 456.399446 458.765241 
L 456.60919 457.340814 
L 457.238421 457.340814 
L 457.448165 461.108968 
L 458.077397 461.108968 
L 458.287141 464.881138 
L 458.916373 464.881138 
L 459.126117 468.654857 
L 459.755349 468.654857 
L 459.965093 480.722319 
L 460.594325 480.722319 
L 460.804069 482.14477 
L 461.4333 482.14477 
L 461.643044 487.590865 
L 462.272276 487.590865 
L 462.48202 487.352124 
L 463.111252 487.352124 
L 463.320996 488.773281 
L 464.789204 488.773281 
L 464.998948 491.615057 
L 465.628179 491.615057 
L 465.837923 491.379857 
L 466.467155 491.379857 
L 466.676899 489.726046 
L 467.306131 489.726046 
L 467.515875 489.494614 
L 468.145107 489.494614 
L 468.354851 490.685139 
L 468.984083 490.685139 
L 469.193826 493.066881 
L 469.823058 493.066881 
L 470.032802 491.648936 
L 470.662034 491.648936 
L 470.871778 491.423875 
L 471.50101 491.423875 
L 471.710754 496.646025 
L 472.339986 496.646025 
L 472.54973 499.036215 
L 473.178961 499.036215 
L 473.388705 500.232176 
L 474.017937 500.232176 
L 474.227681 497.401017 
L 474.856913 497.401017 
L 475.066657 499.800124 
L 475.695889 499.800124 
L 475.905633 496.971317 
L 476.534865 496.971317 
L 476.744609 496.549007 
L 477.37384 496.549007 
L 477.583584 504.401664 
L 479.051792 504.401664 
L 479.261536 507.021224 
L 479.890768 507.021224 
L 480.100512 508.229084 
L 481.568719 508.229772 
L 481.778463 508.029059 
L 482.407695 508.029059 
L 482.617439 514.684966 
L 483.246671 514.684966 
L 483.456415 511.863178 
L 484.085647 511.863178 
L 484.295391 510.452285 
L 484.924622 510.452285 
L 485.134366 511.665521 
L 485.763598 511.665521 
L 485.973342 508.84451 
L 487.44155 508.84451 
L 487.651294 507.434092 
L 488.280526 507.434092 
L 488.49027 506.023845 
L 489.119501 506.023845 
L 489.329245 501.794028 
L 489.958477 501.794028 
L 490.168221 498.974816 
L 490.797453 498.974816 
L 491.007197 494.746342 
L 491.636429 494.746342 
L 491.846173 491.927745 
L 492.475405 491.927745 
L 492.685149 489.109754 
L 493.31438 489.109754 
L 493.524124 484.883863 
L 494.153356 484.883863 
L 494.3631 499.625218 
L 494.992332 499.625218 
L 495.202076 507.700677 
L 495.831308 507.700677 
L 496.041052 517.184534 
L 496.670284 517.184534 
L 496.880027 521.222749 
L 497.509259 521.222749 
L 497.719003 525.260964 
L 498.348235 525.260964 
L 498.557979 535.967839 
L 499.187211 535.967839 
L 499.396955 544.044639 
L 500.026187 544.044639 
L 500.235931 553.52829 
L 500.865162 553.52829 
L 501.074906 565.642446 
L 501.704138 565.642446 
L 501.913882 569.68056 
L 502.543114 569.68056 
L 502.752858 568.274124 
L 503.38209 568.274124 
L 503.591834 565.461701 
L 504.221066 565.461701 
L 504.43081 566.867736 
L 505.060041 566.867736 
L 505.269785 565.461847 
L 505.899017 565.461847 
L 506.108761 564.056103 
L 506.737993 564.056103 
L 506.947737 562.650359 
L 507.576969 562.650359 
L 507.786713 565.283123 
L 508.415945 565.283123 
L 508.625688 563.877379 
L 510.093896 563.877521 
L 510.30364 563.700342 
L 510.932872 563.700342 
L 511.142616 569.144455 
L 511.771848 569.144455 
L 511.981592 570.373466 
L 512.610823 570.373466 
L 512.820567 578.277028 
L 513.449799 578.277028 
L 513.659543 579.681872 
L 514.288775 579.681872 
L 514.498519 580.912066 
L 515.127751 580.912066 
L 515.337495 590.223086 
L 515.966727 590.223086 
L 516.176471 596.899699 
L 516.805702 596.899699 
L 517.015446 596.726958 
L 517.644678 596.726958 
L 517.854422 599.363582 
L 518.483654 599.363582 
L 518.693398 600.768 
L 519.32263 600.768 
L 519.532374 597.959295 
L 520.161606 597.959295 
L 520.37135 600.596799 
L 521.000581 600.596799 
L 521.210325 604.468377 
L 521.839557 604.468377 
L 522.049301 603.064186 
L 522.678533 603.064186 
L 522.888277 602.89397 
L 524.356485 602.893876 
L 524.566228 604.297753 
L 525.19546 604.297753 
L 525.405204 606.936871 
L 526.034436 606.936871 
L 526.24418 606.768547 
L 526.873412 606.768547 
L 527.083156 605.364796 
L 527.712388 605.364796 
L 527.922132 608.004596 
L 528.551363 608.004596 
L 528.761107 614.688437 
L 529.390339 614.688437 
L 529.600083 615.925465 
L 530.229315 615.925465 
L 530.439059 619.969565 
L 531.068291 619.969565 
L 531.278035 621.372857 
L 531.907267 621.372857 
L 532.117011 622.776058 
L 532.746242 622.776058 
L 532.955986 625.416956 
L 534.424194 625.416956 
L 534.633938 626.820037 
L 535.26317 626.820037 
L 535.472914 628.058092 
L 536.102146 628.058092 
L 536.311889 627.893418 
L 536.941121 627.893418 
L 537.150865 630.534789 
L 537.780097 630.534789 
L 537.989841 630.370999 
L 538.619073 630.370999 
L 538.828817 633.01255 
L 539.458049 633.01255 
L 539.667793 639.780901 
L 540.297024 639.780901 
L 540.506768 642.585807 
L 541.974976 642.585918 
L 542.18472 647.872028 
L 542.813952 647.872028 
L 543.023696 645.067982 
L 543.652928 645.067982 
L 543.862672 647.711509 
L 544.491903 647.711509 
L 544.701647 653.158865 
L 545.330879 653.158865 
L 545.540623 651.757111 
L 547.008831 651.757111 
L 547.218575 654.40094 
L 547.847807 654.40094 
L 548.057551 655.802517 
L 548.686782 655.802517 
L 548.896526 661.249521 
L 549.525758 661.249521 
L 549.735502 663.893862 
L 550.364734 663.893862 
L 550.574478 667.939708 
L 551.20371 667.939708 
L 551.413454 670.584362 
L 552.042686 670.584362 
L 552.252429 677.275583 
L 552.881661 677.275583 
L 553.091405 674.473401 
L 553.720637 674.473401 
L 553.930381 673.072411 
L 554.559613 673.072411 
L 554.769357 671.671422 
L 555.398589 671.671422 
L 555.608333 672.916276 
L 556.237564 672.916276 
L 556.447308 674.31708 
L 557.915516 674.31708 
L 558.12526 672.916276 
L 559.593468 672.916276 
L 559.803212 670.114964 
L 560.432443 670.114964 
L 560.642187 669.960356 
L 561.271419 669.960356 
L 561.481163 671.206738 
L 562.110395 671.206738 
L 562.320139 672.453215 
L 562.949371 672.453215 
L 563.159115 677.746709 
L 563.788347 677.746709 
L 563.998091 679.146751 
L 564.627322 679.146751 
L 564.837066 680.546793 
L 565.466298 680.546793 
L 565.676042 681.946835 
L 566.305274 681.946835 
L 566.515018 685.841549 
L 567.983225 685.841549 
L 568.192969 689.889105 
L 568.822201 689.889105 
L 569.031945 692.688395 
L 569.661177 692.688395 
L 569.870921 700.783818 
L 570.500153 700.783818 
L 570.709897 707.630083 
L 571.339129 707.630083 
L 571.548873 708.879592 
L 572.178104 708.879592 
L 572.387848 712.92751 
L 573.01708 712.92751 
L 573.226824 712.778371 
L 573.856056 712.778371 
L 574.0658 715.427563 
L 574.695032 715.427563 
L 574.904776 716.826559 
L 575.534008 716.826559 
L 575.743752 723.524353 
L 576.372983 723.524353 
L 576.582727 727.572877 
L 577.211959 727.572877 
L 577.421703 731.621477 
L 578.889911 731.621477 
L 579.099655 733.020133 
L 580.567862 733.020133 
L 580.777606 735.669997 
L 582.245814 735.669997 
L 582.455558 737.068653 
L 583.923765 737.068653 
L 584.133509 741.117504 
L 584.762741 741.117504 
L 584.972485 739.718934 
L 585.601717 739.718934 
L 585.811461 738.320447 
L 586.440693 738.320447 
L 586.650437 746.418722 
L 587.279669 746.418722 
L 587.489413 745.020403 
L 588.118644 745.020403 
L 588.328388 749.069658 
L 588.95762 749.069658 
L 589.167364 747.671421 
L 589.796596 747.671421 
L 590.00634 754.372104 
L 590.635572 754.372104 
L 590.845316 759.819683 
L 592.313523 759.819683 
L 592.523267 765.267101 
L 593.152499 765.267101 
L 593.362243 769.316684 
L 593.991475 769.316684 
L 594.201219 773.366346 
L 594.830451 773.366346 
L 595.040195 776.018407 
L 595.669426 776.018407 
L 595.87917 778.813373 
L 596.508402 778.813373 
L 596.718146 782.863034 
L 597.347378 782.863034 
L 597.557122 786.912773 
L 598.186354 786.912773 
L 598.396098 789.565377 
L 600.703281 789.5653 
L 600.913025 788.168165 
L 605.737136 788.168165 
L 605.94688 790.820922 
L 606.576112 790.820922 
L 606.785856 790.679561 
L 607.415088 790.679561 
L 607.624831 794.729679 
L 608.254063 794.729679 
L 608.463807 798.779874 
L 609.093039 798.779874 
L 609.302783 801.433164 
L 609.932015 801.433164 
L 610.141759 804.086679 
L 610.770991 804.086679 
L 610.980735 806.740271 
L 611.609966 806.740271 
L 611.81971 807.997255 
L 612.448942 807.997255 
L 612.658686 812.047979 
L 613.287918 812.047979 
L 613.497662 817.35635 
L 614.96587 817.35635 
L 615.175614 818.614067 
L 615.804845 818.614067 
L 616.014589 820.010681 
L 616.643821 820.010681 
L 616.853565 822.665162 
L 617.482797 822.665162 
L 617.692541 824.061632 
L 618.321773 824.061632 
L 618.531517 825.319865 
L 619.160749 825.319865 
L 619.370493 832.026105 
L 619.999724 832.026105 
L 620.209468 836.077572 
L 620.8387 836.077572 
L 621.048444 844.180716 
L 621.677676 844.180716 
L 621.88742 846.83621 
L 622.516652 846.83621 
L 622.726396 850.887955 
L 623.355628 850.887955 
L 623.565371 856.335667 
L 624.194603 856.335667 
L 624.404347 860.387476 
L 625.872555 860.387476 
L 626.082299 864.439364 
L 627.550506 864.439364 
L 627.76025 867.095629 
L 628.389482 867.095629 
L 628.599226 865.699861 
L 629.228458 865.699861 
L 629.438202 868.356271 
L 630.067434 868.356271 
L 630.277178 869.751972 
L 630.90641 869.751972 
L 631.116154 872.408516 
L 631.745385 872.408516 
L 631.955129 871.012815 
L 632.584361 871.012815 
L 632.794105 879.117518 
L 633.423337 879.117518 
L 633.633081 878.983346 
L 634.262313 878.983346 
L 634.472057 889.746007 
L 635.101289 889.746007 
L 635.311032 895.061063 
L 635.940264 895.061063 
L 636.150008 896.323454 
L 636.77924 896.323454 
L 636.988984 904.429871 
L 637.618216 904.429871 
L 637.82796 908.351162 
L 638.457192 908.351162 
L 638.666936 909.746253 
L 639.296167 909.746253 
L 639.505911 913.799713 
L 640.135143 913.799713 
L 640.344887 916.45827 
L 640.974119 916.45827 
L 641.183863 920.511932 
L 641.813095 920.511932 
L 642.022839 928.619461 
L 642.652071 928.619461 
L 642.861815 933.937764 
L 643.491046 933.937764 
L 643.70079 939.386464 
L 644.330022 939.386464 
L 644.539766 946.100136 
L 645.168998 946.100136 
L 645.378742 954.208711 
L 646.007974 954.208711 
L 646.217718 952.814259 
L 646.84695 952.814259 
L 647.056694 959.528749 
L 647.685925 959.528749 
L 647.895669 958.134357 
L 649.363877 958.134357 
L 649.573621 960.922963 
L 651.041829 960.922963 
L 651.251572 964.105809 
L 652.71978 964.105809 
L 652.929524 965.530921 
L 653.558756 965.530921 
L 653.7685 968.191616 
L 654.397732 968.191616 
L 654.607476 966.766504 
L 655.236707 966.766504 
L 655.446451 969.427432 
L 656.075683 969.427432 
L 656.285427 973.51349 
L 656.914659 973.51349 
L 657.124403 979.024428 
L 657.753635 979.024428 
L 657.963379 983.110599 
L 658.592611 983.110599 
L 658.802355 980.261294 
L 661.109538 980.261294 
L 661.319282 978.836642 
L 661.948514 978.836642 
L 662.158258 980.261181 
L 662.78749 980.261181 
L 662.997233 984.347352 
L 664.465441 984.347352 
L 664.675185 988.433634 
L 665.304417 988.433634 
L 665.514161 994.455239 
L 666.143393 994.455239 
L 666.353137 1001.234721 
L 666.982368 1001.234721 
L 667.192112 1005.351714 
L 667.821344 1005.351714 
L 668.031088 1006.805243 
L 668.66032 1006.805243 
L 668.870064 1005.351714 
L 669.499296 1005.351714 
L 669.70904 1006.805082 
L 670.338272 1006.805082 
L 670.548016 1008.258383 
L 671.177247 1008.258383 
L 671.386991 1009.468516 
L 672.016223 1009.468516 
L 672.225967 1014.796346 
L 672.855199 1014.796346 
L 673.064943 1017.460738 
L 674.533151 1017.46058 
L 674.742895 1021.578113 
L 675.372126 1021.578113 
L 675.58187 1024.242952 
L 677.050078 1024.242952 
L 677.259822 1022.790126 
L 679.567005 1022.790126 
L 679.776749 1026.907765 
L 680.405981 1026.907765 
L 680.615725 1025.455095 
L 681.244957 1025.455095 
L 681.454701 1030.785541 
L 682.083933 1030.785541 
L 682.293677 1037.569381 
L 682.922908 1037.569381 
L 683.132652 1043.139975 
L 683.761884 1043.139975 
L 683.971628 1045.806439 
L 684.60086 1045.806439 
L 684.810604 1048.472878 
L 685.439836 1048.472878 
L 685.64958 1052.591436 
L 686.278812 1052.591436 
L 686.488556 1055.258307 
L 687.117787 1055.258307 
L 687.327531 1055.022084 
L 687.956763 1055.022084 
L 688.166507 1060.356937 
L 688.795739 1060.356937 
L 689.005483 1070.046611 
L 689.634715 1070.046611 
L 689.844459 1071.497725 
L 690.473691 1071.497725 
L 690.683434 1074.907497 
L 691.312666 1074.907497 
L 691.52241 1076.068468 
L 692.151642 1076.068468 
L 692.361386 1078.970117 
L 692.990618 1078.970117 
L 693.200362 1083.032996 
L 693.829594 1083.032996 
L 694.039338 1084.195065 
L 694.668569 1084.195065 
L 694.878313 1092.322572 
L 695.507545 1092.322572 
L 695.717289 1097.836772 
L 696.346521 1097.836772 
L 696.556265 1099.000624 
L 697.185497 1099.000624 
L 697.395241 1104.514953 
L 698.024473 1104.514953 
L 698.234217 1105.679426 
L 699.702424 1105.679426 
L 699.912168 1112.358978 
L 700.5414 1112.358978 
L 700.751144 1113.808702 
L 702.219352 1113.808702 
L 702.429096 1116.424022 
L 703.058327 1116.424022 
L 703.268071 1117.873686 
L 704.736279 1117.873686 
L 704.946023 1119.039718 
L 705.575255 1119.039718 
L 705.784999 1123.105263 
L 706.414231 1123.105263 
L 706.623974 1125.721517 
L 707.253206 1125.721517 
L 707.46295 1129.505961 
L 708.092182 1129.505961 
L 708.301926 1135.021288 
L 708.931158 1135.021288 
L 709.140902 1143.154271 
L 709.770134 1143.154271 
L 709.979878 1151.287975 
L 710.609109 1151.287975 
L 710.818853 1154.184332 
L 711.448085 1154.184332 
L 711.657829 1155.632243 
L 713.126037 1155.632243 
L 713.335781 1167.831807 
L 713.965013 1167.831807 
L 714.174757 1170.726281 
L 714.803988 1170.726281 
L 715.013732 1174.792687 
L 715.642964 1174.792687 
L 715.852708 1178.858863 
L 716.48194 1178.858863 
L 716.691684 1185.545443 
L 717.320916 1185.545443 
L 717.53066 1193.679331 
L 718.159892 1193.679331 
L 718.369635 1201.813891 
L 718.998867 1201.813891 
L 719.208611 1203.259618 
L 720.676819 1203.259618 
L 720.886563 1208.772265 
L 723.193746 1208.772265 
L 723.40349 1210.217602 
L 724.032722 1210.217602 
L 724.242466 1211.394287 
L 727.388625 1211.394287 
L 727.598369 1214.284469 
L 728.227601 1214.284469 
L 728.437345 1215.461809 
L 729.066577 1215.461809 
L 729.276321 1216.639263 
L 729.905553 1216.639263 
L 730.115297 1215.194254 
L 730.744528 1215.194254 
L 730.954272 1219.261889 
L 731.583504 1219.261889 
L 731.793248 1220.706574 
L 732.42248 1220.706574 
L 732.632224 1219.261889 
L 733.261456 1219.261889 
L 733.4712 1221.885001 
L 734.100432 1221.885001 
L 734.310175 1223.329524 
L 735.778383 1223.329524 
L 735.988127 1225.952749 
L 736.617359 1225.952749 
L 736.827103 1224.508226 
L 737.456335 1224.508226 
L 737.666079 1231.2 
L 738.29531 1231.2 
L 738.505054 1229.755636 
L 739.134286 1229.755636 
L 739.34403 1228.311272 
L 739.973262 1228.311272 
L 739.973262 1228.311272 
" clip-path="url(#p3acc89929a)" style="fill: none; stroke: #0000ff; stroke-width: 1.5; stroke-linecap: square"/>
   </g>
   <g id="patch_3">
    <path d="M 270 1281.6 
L 270 172.8 
" style="fill: none; stroke: #000000; stroke-width: 0.8; stroke-linejoin: miter; stroke-linecap: square"/>
   </g>
   <g id="patch_4">
    <path d="M 762.352941 1281.6 
L 762.352941 172.8 
" style="fill: none; stroke: #000000; stroke-width: 0.8; stroke-linejoin: miter; stroke-linecap: square"/>
   </g>
   <g id="patch_5">
    <path d="M 270 1281.6 
L 762.352941 1281.6 
" style="fill: none; stroke: #000000; stroke-width: 0.8; stroke-linejoin: miter; stroke-linecap: square"/>
   </g>
   <g id="patch_6">
    <path d="M 270 172.8 
L 762.352941 172.8 
" style="fill: none; stroke: #000000; stroke-width: 0.8; stroke-linejoin: miter; stroke-linecap: square"/>
   </g>
   <g id="legend_1">
    <g id="patch_7">
     <path d="M 671.310754 195.478125 
L 755.352941 195.478125 
Q 757.352941 195.478125 757.352941 193.478125 
L 757.352941 179.8 
Q 757.352941 177.8 755.352941 177.8 
L 671.310754 177.8 
Q 669.310754 177.8 669.310754 179.8 
L 669.310754 193.478125 
Q 669.310754 195.478125 671.310754 195.478125 
z
" style="fill: #ffffff; opacity: 0.8; stroke: #cccccc; stroke-linejoin: miter"/>
    </g>
    <g id="line2d_12">
     <path d="M 673.310754 185.898437 
L 683.310754 185.898437 
L 693.310754 185.898437 
" style="fill: none; stroke: #0000ff; stroke-width: 1.5; stroke-linecap: square"/>
    </g>
    <g id="text_11">
     <!-- O1 reward -->
     <g transform="translate(701.310754 189.398437) scale(0.1 -0.1)">
      <defs>
       <path id="DejaVuSans-4f" d="M 2522 4238 
Q 1834 4238 1429 3725 
Q 1025 3213 1025 2328 
Q 1025 1447 1429 934 
Q 1834 422 2522 422 
Q 3209 422 3611 934 
Q 4013 1447 4013 2328 
Q 4013 3213 3611 3725 
Q 3209 4238 2522 4238 
z
M 2522 4750 
Q 3503 4750 4090 4092 
Q 4678 3434 4678 2328 
Q 4678 1225 4090 567 
Q 3503 -91 2522 -91 
Q 1538 -91 948 565 
Q 359 1222 359 2328 
Q 359 3434 948 4092 
Q 1538 4750 2522 4750 
z
" transform="scale(0.015625)"/>
       <path id="DejaVuSans-20" transform="scale(0.015625)"/>
       <path id="DejaVuSans-72" d="M 2631 2963 
Q 2534 3019 2420 3045 
Q 2306 3072 2169 3072 
Q 1681 3072 1420 2755 
Q 1159 2438 1159 1844 
L 1159 0 
L 581 0 
L 581 3500 
L 1159 3500 
L 1159 2956 
Q 1341 3275 1631 3429 
Q 1922 3584 2338 3584 
Q 2397 3584 2469 3576 
Q 2541 3569 2628 3553 
L 2631 2963 
z
" transform="scale(0.015625)"/>
       <path id="DejaVuSans-65" d="M 3597 1894 
L 3597 1613 
L 953 1613 
Q 991 1019 1311 708 
Q 1631 397 2203 397 
Q 2534 397 2845 478 
Q 3156 559 3463 722 
L 3463 178 
Q 3153 47 2828 -22 
Q 2503 -91 2169 -91 
Q 1331 -91 842 396 
Q 353 884 353 1716 
Q 353 2575 817 3079 
Q 1281 3584 2069 3584 
Q 2775 3584 3186 3129 
Q 3597 2675 3597 1894 
z
M 3022 2063 
Q 3016 2534 2758 2815 
Q 2500 3097 2075 3097 
Q 1594 3097 1305 2825 
Q 1016 2553 972 2059 
L 3022 2063 
z
" transform="scale(0.015625)"/>
       <path id="DejaVuSans-77" d="M 269 3500 
L 844 3500 
L 1563 769 
L 2278 3500 
L 2956 3500 
L 3675 769 
L 4391 3500 
L 4966 3500 
L 4050 0 
L 3372 0 
L 2619 2869 
L 1863 0 
L 1184 0 
L 269 3500 
z
" transform="scale(0.015625)"/>
       <path id="DejaVuSans-61" d="M 2194 1759 
Q 1497 1759 1228 1600 
Q 959 1441 959 1056 
Q 959 750 1161 570 
Q 1363 391 1709 391 
Q 2188 391 2477 730 
Q 2766 1069 2766 1631 
L 2766 1759 
L 2194 1759 
z
M 3341 1997 
L 3341 0 
L 2766 0 
L 2766 531 
Q 2569 213 2275 61 
Q 1981 -91 1556 -91 
Q 1019 -91 701 211 
Q 384 513 384 1019 
Q 384 1609 779 1909 
Q 1175 2209 1959 2209 
L 2766 2209 
L 2766 2266 
Q 2766 2663 2505 2880 
Q 2244 3097 1772 3097 
Q 1472 3097 1187 3025 
Q 903 2953 641 2809 
L 641 3341 
Q 956 3463 1253 3523 
Q 1550 3584 1831 3584 
Q 2591 3584 2966 3190 
Q 3341 2797 3341 1997 
z
" transform="scale(0.015625)"/>
       <path id="DejaVuSans-64" d="M 2906 2969 
L 2906 4863 
L 3481 4863 
L 3481 0 
L 2906 0 
L 2906 525 
Q 2725 213 2448 61 
Q 2172 -91 1784 -91 
Q 1150 -91 751 415 
Q 353 922 353 1747 
Q 353 2572 751 3078 
Q 1150 3584 1784 3584 
Q 2172 3584 2448 3432 
Q 2725 3281 2906 2969 
z
M 947 1747 
Q 947 1113 1208 752 
Q 1469 391 1925 391 
Q 2381 391 2643 752 
Q 2906 1113 2906 1747 
Q 2906 2381 2643 2742 
Q 2381 3103 1925 3103 
Q 1469 3103 1208 2742 
Q 947 2381 947 1747 
z
" transform="scale(0.015625)"/>
      </defs>
      <use xlink:href="#DejaVuSans-4f"/>
      <use xlink:href="#DejaVuSans-31" x="78.710938"/>
      <use xlink:href="#DejaVuSans-20" x="142.333984"/>
      <use xlink:href="#DejaVuSans-72" x="174.121094"/>
      <use xlink:href="#DejaVuSans-65" x="212.984375"/>
      <use xlink:href="#DejaVuSans-77" x="274.507812"/>
      <use xlink:href="#DejaVuSans-61" x="356.294922"/>
      <use xlink:href="#DejaVuSans-72" x="417.574219"/>
      <use xlink:href="#DejaVuSans-64" x="456.9375"/>
     </g>
    </g>
   </g>
  </g>
  <g id="axes_2">
   <g id="patch_8">
    <path d="M 860.823529 1281.6 
L 1353.176471 1281.6 
L 1353.176471 172.8 
L 860.823529 172.8 
z
" style="fill: #ffffff"/>
   </g>
   <g id="matplotlib.axis_3">
    <g id="xtick_6">
     <g id="line2d_13">
      <g>
       <use xlink:href="#m51a262d587" x="882.993465" y="1281.6" style="stroke: #000000; stroke-width: 0.8"/>
      </g>
     </g>
     <g id="text_12">
      <!-- 0 -->
      <g transform="translate(879.812215 1296.198437) scale(0.1 -0.1)">
       <use xlink:href="#DejaVuSans-30"/>
      </g>
     </g>
    </g>
    <g id="xtick_7">
     <g id="line2d_14">
      <g>
       <use xlink:href="#m51a262d587" x="987.865438" y="1281.6" style="stroke: #000000; stroke-width: 0.8"/>
      </g>
     </g>
     <g id="text_13">
      <!-- 500 -->
      <g transform="translate(978.321688 1296.198437) scale(0.1 -0.1)">
       <use xlink:href="#DejaVuSans-35"/>
       <use xlink:href="#DejaVuSans-30" x="63.623047"/>
       <use xlink:href="#DejaVuSans-30" x="127.246094"/>
      </g>
     </g>
    </g>
    <g id="xtick_8">
     <g id="line2d_15">
      <g>
       <use xlink:href="#m51a262d587" x="1092.737412" y="1281.6" style="stroke: #000000; stroke-width: 0.8"/>
      </g>
     </g>
     <g id="text_14">
      <!-- 1000 -->
      <g transform="translate(1080.012412 1296.198437) scale(0.1 -0.1)">
       <use xlink:href="#DejaVuSans-31"/>
       <use xlink:href="#DejaVuSans-30" x="63.623047"/>
       <use xlink:href="#DejaVuSans-30" x="127.246094"/>
       <use xlink:href="#DejaVuSans-30" x="190.869141"/>
      </g>
     </g>
    </g>
    <g id="xtick_9">
     <g id="line2d_16">
      <g>
       <use xlink:href="#m51a262d587" x="1197.609385" y="1281.6" style="stroke: #000000; stroke-width: 0.8"/>
      </g>
     </g>
     <g id="text_15">
      <!-- 1500 -->
      <g transform="translate(1184.884385 1296.198437) scale(0.1 -0.1)">
       <use xlink:href="#DejaVuSans-31"/>
       <use xlink:href="#DejaVuSans-35" x="63.623047"/>
       <use xlink:href="#DejaVuSans-30" x="127.246094"/>
       <use xlink:href="#DejaVuSans-30" x="190.869141"/>
      </g>
     </g>
    </g>
    <g id="xtick_10">
     <g id="line2d_17">
      <g>
       <use xlink:href="#m51a262d587" x="1302.481359" y="1281.6" style="stroke: #000000; stroke-width: 0.8"/>
      </g>
     </g>
     <g id="text_16">
      <!-- 2000 -->
      <g transform="translate(1289.756359 1296.198437) scale(0.1 -0.1)">
       <use xlink:href="#DejaVuSans-32"/>
       <use xlink:href="#DejaVuSans-30" x="63.623047"/>
       <use xlink:href="#DejaVuSans-30" x="127.246094"/>
       <use xlink:href="#DejaVuSans-30" x="190.869141"/>
      </g>
     </g>
    </g>
   </g>
   <g id="matplotlib.axis_4">
    <g id="ytick_6">
     <g id="line2d_18">
      <g>
       <use xlink:href="#m31bb9cfa80" x="860.823529" y="1231.2" style="stroke: #000000; stroke-width: 0.8"/>
      </g>
     </g>
     <g id="text_17">
      <!-- 0 -->
      <g transform="translate(847.461029 1234.999219) scale(0.1 -0.1)">
       <use xlink:href="#DejaVuSans-30"/>
      </g>
     </g>
    </g>
    <g id="ytick_7">
     <g id="line2d_19">
      <g>
       <use xlink:href="#m31bb9cfa80" x="860.823529" y="1062.538197" style="stroke: #000000; stroke-width: 0.8"/>
      </g>
     </g>
     <g id="text_18">
      <!-- 20 -->
      <g transform="translate(841.098529 1066.337415) scale(0.1 -0.1)">
       <use xlink:href="#DejaVuSans-32"/>
       <use xlink:href="#DejaVuSans-30" x="63.623047"/>
      </g>
     </g>
    </g>
    <g id="ytick_8">
     <g id="line2d_20">
      <g>
       <use xlink:href="#m31bb9cfa80" x="860.823529" y="893.876393" style="stroke: #000000; stroke-width: 0.8"/>
      </g>
     </g>
     <g id="text_19">
      <!-- 40 -->
      <g transform="translate(841.098529 897.675612) scale(0.1 -0.1)">
       <use xlink:href="#DejaVuSans-34"/>
       <use xlink:href="#DejaVuSans-30" x="63.623047"/>
      </g>
     </g>
    </g>
    <g id="ytick_9">
     <g id="line2d_21">
      <g>
       <use xlink:href="#m31bb9cfa80" x="860.823529" y="725.21459" style="stroke: #000000; stroke-width: 0.8"/>
      </g>
     </g>
     <g id="text_20">
      <!-- 60 -->
      <g transform="translate(841.098529 729.013809) scale(0.1 -0.1)">
       <defs>
        <path id="DejaVuSans-36" d="M 2113 2584 
Q 1688 2584 1439 2293 
Q 1191 2003 1191 1497 
Q 1191 994 1439 701 
Q 1688 409 2113 409 
Q 2538 409 2786 701 
Q 3034 994 3034 1497 
Q 3034 2003 2786 2293 
Q 2538 2584 2113 2584 
z
M 3366 4563 
L 3366 3988 
Q 3128 4100 2886 4159 
Q 2644 4219 2406 4219 
Q 1781 4219 1451 3797 
Q 1122 3375 1075 2522 
Q 1259 2794 1537 2939 
Q 1816 3084 2150 3084 
Q 2853 3084 3261 2657 
Q 3669 2231 3669 1497 
Q 3669 778 3244 343 
Q 2819 -91 2113 -91 
Q 1303 -91 875 529 
Q 447 1150 447 2328 
Q 447 3434 972 4092 
Q 1497 4750 2381 4750 
Q 2619 4750 2861 4703 
Q 3103 4656 3366 4563 
z
" transform="scale(0.015625)"/>
       </defs>
       <use xlink:href="#DejaVuSans-36"/>
       <use xlink:href="#DejaVuSans-30" x="63.623047"/>
      </g>
     </g>
    </g>
    <g id="ytick_10">
     <g id="line2d_22">
      <g>
       <use xlink:href="#m31bb9cfa80" x="860.823529" y="556.552787" style="stroke: #000000; stroke-width: 0.8"/>
      </g>
     </g>
     <g id="text_21">
      <!-- 80 -->
      <g transform="translate(841.098529 560.352005) scale(0.1 -0.1)">
       <defs>
        <path id="DejaVuSans-38" d="M 2034 2216 
Q 1584 2216 1326 1975 
Q 1069 1734 1069 1313 
Q 1069 891 1326 650 
Q 1584 409 2034 409 
Q 2484 409 2743 651 
Q 3003 894 3003 1313 
Q 3003 1734 2745 1975 
Q 2488 2216 2034 2216 
z
M 1403 2484 
Q 997 2584 770 2862 
Q 544 3141 544 3541 
Q 544 4100 942 4425 
Q 1341 4750 2034 4750 
Q 2731 4750 3128 4425 
Q 3525 4100 3525 3541 
Q 3525 3141 3298 2862 
Q 3072 2584 2669 2484 
Q 3125 2378 3379 2068 
Q 3634 1759 3634 1313 
Q 3634 634 3220 271 
Q 2806 -91 2034 -91 
Q 1263 -91 848 271 
Q 434 634 434 1313 
Q 434 1759 690 2068 
Q 947 2378 1403 2484 
z
M 1172 3481 
Q 1172 3119 1398 2916 
Q 1625 2713 2034 2713 
Q 2441 2713 2670 2916 
Q 2900 3119 2900 3481 
Q 2900 3844 2670 4047 
Q 2441 4250 2034 4250 
Q 1625 4250 1398 4047 
Q 1172 3844 1172 3481 
z
" transform="scale(0.015625)"/>
       </defs>
       <use xlink:href="#DejaVuSans-38"/>
       <use xlink:href="#DejaVuSans-30" x="63.623047"/>
      </g>
     </g>
    </g>
    <g id="ytick_11">
     <g id="line2d_23">
      <g>
       <use xlink:href="#m31bb9cfa80" x="860.823529" y="387.890983" style="stroke: #000000; stroke-width: 0.8"/>
      </g>
     </g>
     <g id="text_22">
      <!-- 100 -->
      <g transform="translate(834.736029 391.690202) scale(0.1 -0.1)">
       <use xlink:href="#DejaVuSans-31"/>
       <use xlink:href="#DejaVuSans-30" x="63.623047"/>
       <use xlink:href="#DejaVuSans-30" x="127.246094"/>
      </g>
     </g>
    </g>
    <g id="ytick_12">
     <g id="line2d_24">
      <g>
       <use xlink:href="#m31bb9cfa80" x="860.823529" y="219.22918" style="stroke: #000000; stroke-width: 0.8"/>
      </g>
     </g>
     <g id="text_23">
      <!-- 120 -->
      <g transform="translate(834.736029 223.028399) scale(0.1 -0.1)">
       <use xlink:href="#DejaVuSans-31"/>
       <use xlink:href="#DejaVuSans-32" x="63.623047"/>
       <use xlink:href="#DejaVuSans-30" x="127.246094"/>
      </g>
     </g>
    </g>
   </g>
   <g id="line2d_25">
    <path d="M 883.203209 1231.2 
L 892.85143 1231.137653 
L 893.061174 1227.740133 
L 893.690406 1227.740133 
L 893.90015 1229.071707 
L 894.529382 1229.071707 
L 894.739126 1228.27982 
L 895.368357 1228.27982 
L 895.578101 1229.840923 
L 896.207333 1229.840923 
L 896.417077 1222.827228 
L 897.046309 1222.827228 
L 897.256053 1212.195498 
L 897.885285 1212.195498 
L 898.095029 1206.906437 
L 898.724261 1206.906437 
L 898.934005 1192.974578 
L 899.563236 1192.974578 
L 899.77298 1180.134701 
L 903.758115 1180.134701 
L 903.967859 1174.56199 
L 906.275043 1174.56199 
L 906.484787 1168.618594 
L 908.79197 1168.618594 
L 909.001714 1160.520819 
L 909.630946 1160.520819 
L 909.84069 1158.24703 
L 910.469922 1158.24703 
L 910.679666 1155.744994 
L 912.147873 1155.744994 
L 912.357617 1140.386768 
L 912.986849 1140.386768 
L 913.196593 1116.234673 
L 913.825825 1116.234673 
L 914.035569 1109.800784 
L 914.664801 1109.800784 
L 914.874545 1097.411282 
L 915.503776 1097.411282 
L 915.71352 1067.419526 
L 916.342752 1067.419526 
L 916.552496 1046.545217 
L 925.571486 1046.545217 
L 925.78123 1040.390246 
L 928.088413 1040.390246 
L 928.298157 1034.325728 
L 928.927389 1034.325728 
L 929.137133 1028.197804 
L 929.766365 1028.197804 
L 929.976109 1022.008099 
L 931.444316 1022.008099 
L 931.65406 1019.823425 
L 934.80022 1019.823425 
L 935.009963 1017.58004 
L 935.639195 1017.58004 
L 935.848939 1002.68795 
L 936.478171 1002.68795 
L 936.687915 991.315118 
L 937.317147 991.315118 
L 937.526891 966.110609 
L 938.156123 966.110609 
L 938.365867 943.937577 
L 938.995098 943.937577 
L 939.204842 926.460964 
L 939.834074 926.460964 
L 940.043818 904.969767 
L 940.67305 904.969767 
L 940.882794 878.867673 
L 941.512026 878.867673 
L 941.72177 867.194122 
L 942.351002 867.194122 
L 942.560746 851.026966 
L 944.867929 851.026966 
L 945.077673 847.37708 
L 945.706905 847.37708 
L 945.916649 839.82991 
L 946.545881 839.82991 
L 946.755624 845.038331 
L 947.384856 845.038331 
L 947.5946 847.515639 
L 948.223832 847.515639 
L 948.433576 852.661801 
L 949.062808 852.661801 
L 949.272552 855.318128 
L 949.901784 855.318128 
L 950.111528 857.73189 
L 950.740759 857.73189 
L 950.950503 850.295651 
L 952.418711 850.295651 
L 952.628455 845.238848 
L 953.257687 845.238848 
L 953.467431 842.909131 
L 954.096663 842.909131 
L 954.306407 835.603542 
L 954.935638 835.603542 
L 955.145382 821.192528 
L 955.774614 821.192528 
L 955.984358 814.292622 
L 956.61359 814.292622 
L 956.823334 808.294068 
L 957.452566 808.294068 
L 957.66231 804.410662 
L 958.291542 804.410662 
L 958.501286 798.032207 
L 959.130517 798.032207 
L 959.340261 804.347668 
L 959.969493 804.347668 
L 960.179237 818.495788 
L 960.808469 818.495788 
L 961.018213 814.061155 
L 961.647445 814.061155 
L 961.857189 801.894117 
L 962.486421 801.894117 
L 962.696164 791.570773 
L 963.325396 791.570773 
L 963.53514 793.061537 
L 964.164372 793.061537 
L 964.374116 783.25726 
L 965.003348 783.25726 
L 965.213092 774.832167 
L 965.842324 774.832167 
L 966.052068 773.466563 
L 967.520275 773.416631 
L 967.730019 774.74236 
L 968.359251 774.74236 
L 968.568995 772.14816 
L 969.198227 772.14816 
L 969.407971 764.050125 
L 970.037203 764.050125 
L 970.246947 765.266165 
L 970.876178 765.266165 
L 971.085922 762.5111 
L 971.715154 762.5111 
L 971.924898 754.620742 
L 972.55413 754.620742 
L 972.763874 749.552268 
L 973.393106 749.552268 
L 973.60285 744.524605 
L 974.232082 744.524605 
L 974.441825 741.787004 
L 975.071057 741.787004 
L 975.280801 740.16166 
L 976.749009 740.16166 
L 976.958753 749.991899 
L 977.587985 749.991899 
L 977.797729 754.833743 
L 978.42696 754.833743 
L 978.636704 753.111131 
L 979.265936 753.111131 
L 979.47568 756.807654 
L 980.104912 756.807654 
L 980.314656 757.723422 
L 980.943888 757.723422 
L 981.153632 767.744631 
L 981.782864 767.744631 
L 981.992608 769.657944 
L 982.621839 769.657944 
L 982.831583 777.665049 
L 983.460815 777.665049 
L 983.670559 777.274489 
L 984.299791 777.274489 
L 984.509535 769.47422 
L 985.138767 769.47422 
L 985.348511 764.482112 
L 985.977743 764.482112 
L 986.187487 763.744074 
L 986.816718 763.744074 
L 987.026462 759.558548 
L 987.655694 759.558548 
L 987.865438 752.65648 
L 988.49467 752.65648 
L 988.704414 755.421052 
L 989.333646 755.421052 
L 989.54339 758.181031 
L 990.172622 758.181031 
L 990.382365 757.523768 
L 991.011597 757.523768 
L 991.221341 754.754556 
L 991.850573 754.754556 
L 992.060317 747.325331 
L 992.689549 747.325331 
L 992.899293 742.71566 
L 994.3675 742.71566 
L 994.577244 738.769091 
L 995.206476 738.769091 
L 995.41622 743.23727 
L 996.045452 743.23727 
L 996.255196 750.914359 
L 996.884428 750.914359 
L 997.094172 753.185816 
L 997.723404 753.185816 
L 997.933148 752.726198 
L 998.562379 752.726198 
L 998.772123 751.833138 
L 999.401355 751.833138 
L 999.611099 753.768845 
L 1000.240331 753.768845 
L 1000.450075 746.682141 
L 1001.079307 746.682141 
L 1001.289051 729.283601 
L 1001.918283 729.283601 
L 1002.128027 719.027506 
L 1002.757258 719.027506 
L 1002.967002 705.53976 
L 1003.596234 705.53976 
L 1003.805978 691.964657 
L 1004.43521 691.964657 
L 1004.644954 679.10655 
L 1005.274186 679.10655 
L 1005.48393 672.391637 
L 1006.113161 672.391637 
L 1006.322905 662.990767 
L 1006.952137 662.990767 
L 1007.161881 650.322132 
L 1007.791113 650.322132 
L 1008.000857 644.065015 
L 1008.630089 644.065015 
L 1008.839833 634.779332 
L 1009.469065 634.779332 
L 1009.678809 637.995908 
L 1010.30804 637.995908 
L 1010.517784 632.456081 
L 1011.147016 632.456081 
L 1011.35676 641.40692 
L 1011.985992 641.40692 
L 1012.195736 641.659289 
L 1012.824968 641.659289 
L 1013.034712 641.868209 
L 1013.663944 641.868209 
L 1013.873688 639.195772 
L 1015.341895 639.288524 
L 1015.551639 639.457879 
L 1016.180871 639.457879 
L 1016.390615 648.163766 
L 1017.019847 648.163766 
L 1017.229591 653.825919 
L 1017.858823 653.825919 
L 1018.068566 656.595889 
L 1018.697798 656.595889 
L 1018.907542 653.821365 
L 1019.536774 653.821365 
L 1019.746518 650.93499 
L 1020.37575 650.93499 
L 1020.585494 645.285739 
L 1021.214726 645.285739 
L 1021.42447 639.701004 
L 1022.892677 639.689797 
L 1023.102421 642.500342 
L 1023.731653 642.500342 
L 1023.941397 639.784361 
L 1024.570629 639.784361 
L 1024.780373 637.084438 
L 1026.24858 637.182472 
L 1026.458324 648.171497 
L 1027.087556 648.171497 
L 1027.2973 650.995527 
L 1027.926532 650.995527 
L 1028.136276 643.420803 
L 1028.765508 643.420803 
L 1028.975252 646.287726 
L 1029.604484 646.287726 
L 1029.814228 649.379462 
L 1030.443459 649.379462 
L 1030.653203 646.728714 
L 1031.282435 646.728714 
L 1031.492179 646.97466 
L 1032.121411 646.97466 
L 1032.331155 650.443546 
L 1032.960387 650.443546 
L 1033.170131 651.39024 
L 1034.638338 651.392046 
L 1034.848082 643.613325 
L 1035.477314 643.613325 
L 1035.687058 638.447369 
L 1036.31629 638.447369 
L 1036.526034 635.866961 
L 1037.155266 635.866961 
L 1037.36501 630.714874 
L 1037.994241 630.714874 
L 1038.203985 628.143182 
L 1038.833217 628.143182 
L 1039.042961 625.573159 
L 1039.672193 625.573159 
L 1039.881937 620.438022 
L 1040.511169 620.438022 
L 1040.720913 615.309266 
L 1041.350145 615.309266 
L 1041.559889 610.186714 
L 1042.18912 610.186714 
L 1042.398864 607.627732 
L 1043.028096 607.627732 
L 1043.23784 599.973838 
L 1043.867072 599.973838 
L 1044.076816 594.887738 
L 1044.706048 594.887738 
L 1044.915792 592.346874 
L 1046.383999 592.346874 
L 1046.593743 589.807449 
L 1047.222975 589.807449 
L 1047.432719 582.205984 
L 1048.061951 582.205984 
L 1048.271695 574.632221 
L 1048.900927 574.632221 
L 1049.110671 567.089122 
L 1049.739902 567.089122 
L 1049.949646 562.076011 
L 1050.578878 562.076011 
L 1050.788622 554.581148 
L 1051.417854 554.581148 
L 1051.627598 563.233426 
L 1052.25683 563.233426 
L 1052.466574 570.018218 
L 1053.095806 570.018218 
L 1053.30555 571.917079 
L 1053.934781 571.917079 
L 1054.144525 573.875749 
L 1054.773757 573.875749 
L 1054.983501 580.094215 
L 1056.451709 580.108749 
L 1056.661453 578.176844 
L 1057.290685 578.176844 
L 1057.500429 581.310701 
L 1058.12966 581.310701 
L 1058.339404 578.810535 
L 1058.968636 578.810535 
L 1059.17838 580.392107 
L 1059.807612 580.392107 
L 1060.017356 570.909021 
L 1060.646588 570.909021 
L 1060.856332 561.462875 
L 1061.485564 561.462875 
L 1061.695307 552.050673 
L 1062.324539 552.050673 
L 1062.534283 545.023652 
L 1063.163515 545.023652 
L 1063.373259 538.023649 
L 1064.002491 538.023649 
L 1064.212235 533.368249 
L 1064.841467 533.368249 
L 1065.051211 526.403658 
L 1065.680442 526.403658 
L 1065.890186 524.087202 
L 1066.519418 524.087202 
L 1066.729162 519.46286 
L 1067.358394 519.46286 
L 1067.568138 514.849888 
L 1068.19737 514.849888 
L 1068.407114 515.792253 
L 1069.036346 515.792253 
L 1069.24609 523.644599 
L 1070.714297 523.641951 
L 1070.924041 522.321735 
L 1072.392249 522.321735 
L 1072.601993 518.717778 
L 1074.909176 518.717778 
L 1075.11892 521.005219 
L 1077.426103 521.005219 
L 1077.635847 518.720343 
L 1079.104055 518.720343 
L 1079.313799 519.71618 
L 1079.943031 519.71618 
L 1080.152775 523.000298 
L 1080.782007 523.000298 
L 1080.991751 521.751028 
L 1081.620982 521.751028 
L 1081.830726 527.315988 
L 1082.459958 527.315988 
L 1082.669702 532.701969 
L 1083.298934 532.701969 
L 1083.508678 536.013267 
L 1084.13791 536.013267 
L 1084.347654 539.324594 
L 1084.976886 539.324594 
L 1085.18663 537.072626 
L 1085.815861 537.072626 
L 1086.025605 532.573067 
L 1086.654837 532.573067 
L 1086.864581 528.082997 
L 1087.493813 528.082997 
L 1087.703557 521.360127 
L 1088.332789 521.360127 
L 1088.542533 519.122974 
L 1089.171765 519.122974 
L 1089.381508 516.88815 
L 1090.01074 516.88815 
L 1090.220484 514.65557 
L 1090.849716 514.65557 
L 1091.05946 512.425208 
L 1092.527668 512.425208 
L 1092.737412 507.969854 
L 1093.366643 507.969854 
L 1093.576387 505.744849 
L 1094.205619 505.744849 
L 1094.415363 507.968878 
L 1095.044595 507.968878 
L 1095.254339 509.104283 
L 1095.883571 509.104283 
L 1096.093315 508.025296 
L 1096.722547 508.025296 
L 1096.932291 505.808801 
L 1097.561522 505.808801 
L 1097.771266 508.024343 
L 1098.400498 508.024343 
L 1098.610242 505.810918 
L 1099.239474 505.810918 
L 1099.449218 503.599732 
L 1100.07845 503.599732 
L 1100.288194 496.978885 
L 1100.917426 496.978885 
L 1101.127169 498.154099 
L 1101.756401 498.154099 
L 1101.966145 491.560042 
L 1102.595377 491.560042 
L 1102.805121 482.792998 
L 1103.434353 482.792998 
L 1103.644097 480.60623 
L 1104.273329 480.60623 
L 1104.483073 476.238843 
L 1105.112304 476.238843 
L 1105.322048 469.697095 
L 1105.95128 469.697095 
L 1106.161024 465.345061 
L 1106.790256 465.345061 
L 1107 460.998576 
L 1107.629232 460.998576 
L 1107.838976 452.327772 
L 1108.468208 452.327772 
L 1108.677952 445.842824 
L 1109.307183 445.842824 
L 1109.516927 441.525628 
L 1110.146159 441.525628 
L 1110.355903 438.479636 
L 1110.985135 438.479636 
L 1111.194879 437.59688 
L 1111.824111 437.59688 
L 1112.033855 441.024178 
L 1112.663087 441.024178 
L 1112.872831 439.292983 
L 1113.502062 439.292983 
L 1113.711806 436.290848 
L 1114.341038 436.290848 
L 1114.550782 439.725388 
L 1116.01899 439.725388 
L 1116.228734 438.883721 
L 1116.857966 438.883721 
L 1117.067709 438.046577 
L 1117.696941 438.046577 
L 1117.906685 435.90832 
L 1118.535917 435.90832 
L 1118.745661 433.771733 
L 1121.052844 433.771733 
L 1121.262588 435.906501 
L 1121.89182 435.906501 
L 1122.101564 435.089778 
L 1122.730796 435.089778 
L 1122.94054 434.278278 
L 1123.569772 434.278278 
L 1123.779516 432.14842 
L 1124.408748 432.14842 
L 1124.618492 430.020182 
L 1126.086699 430.020182 
L 1126.296443 432.146639 
L 1126.925675 432.146639 
L 1127.135419 427.897186 
L 1127.764651 427.897186 
L 1127.974395 425.774186 
L 1128.603627 425.774186 
L 1128.81337 421.530691 
L 1130.281578 421.530691 
L 1130.491322 419.411092 
L 1131.120554 419.411092 
L 1131.330298 415.175895 
L 1131.95953 415.175895 
L 1132.169274 413.060289 
L 1132.798505 413.060289 
L 1133.008249 410.946379 
L 1133.637481 410.946379 
L 1133.847225 408.834035 
L 1134.476457 408.834035 
L 1134.686201 404.614124 
L 1135.315433 404.614124 
L 1135.525177 405.975766 
L 1136.154409 405.975766 
L 1136.364153 406.612307 
L 1136.993384 406.612307 
L 1137.203128 405.88232 
L 1137.83236 405.88232 
L 1138.042104 403.780979 
L 1138.671336 403.780979 
L 1138.88108 409.357931 
L 1139.510312 409.357931 
L 1139.720056 411.454437 
L 1140.349288 411.454437 
L 1140.559032 412.84722 
L 1141.188263 412.84722 
L 1141.398007 411.45159 
L 1142.027239 411.45159 
L 1142.236983 417.032102 
L 1142.866215 417.032102 
L 1143.075959 416.342922 
L 1144.544167 416.342922 
L 1144.75391 413.572859 
L 1147.90007 413.572859 
L 1148.109814 415.658116 
L 1149.578021 415.658116 
L 1149.787765 413.574281 
L 1150.416997 413.574281 
L 1150.626741 411.491854 
L 1151.255973 411.491854 
L 1151.465717 410.82875 
L 1152.094949 410.82875 
L 1152.304693 408.093424 
L 1152.933924 408.093424 
L 1153.143668 407.446008 
L 1153.7729 407.446008 
L 1153.982644 409.520288 
L 1154.611876 409.520288 
L 1154.82162 407.447378 
L 1155.450852 407.447378 
L 1155.660596 408.883045 
L 1156.289828 408.883045 
L 1156.499571 404.113828 
L 1157.128803 404.113828 
L 1157.338547 402.045733 
L 1157.967779 402.045733 
L 1158.177523 399.978966 
L 1158.806755 399.978966 
L 1159.016499 397.912947 
L 1159.645731 397.912947 
L 1159.855475 395.84825 
L 1160.484706 395.84825 
L 1160.69445 393.785039 
L 1162.162658 393.785039 
L 1162.372402 397.303132 
L 1163.001634 397.303132 
L 1163.211378 393.182124 
L 1164.679585 393.182124 
L 1164.889329 395.241244 
L 1165.518561 395.241244 
L 1165.728305 391.127196 
L 1166.357537 391.127196 
L 1166.567281 389.07225 
L 1167.196513 389.07225 
L 1167.406257 387.018727 
L 1168.035489 387.018727 
L 1168.245233 384.966478 
L 1168.874464 384.966478 
L 1169.084208 386.447927 
L 1169.71344 386.447927 
L 1169.923184 387.930485 
L 1170.552416 387.930485 
L 1170.76216 385.881636 
L 1173.069343 385.881636 
L 1173.279087 387.929233 
L 1173.908319 387.929233 
L 1174.118063 387.372396 
L 1174.747295 387.372396 
L 1174.957039 390.911253 
L 1175.586271 390.911253 
L 1175.796015 392.953052 
L 1176.425246 392.953052 
L 1176.63499 396.497328 
L 1177.264222 396.497328 
L 1177.473966 392.420072 
L 1178.103198 392.420072 
L 1178.312942 387.821142 
L 1178.942174 387.821142 
L 1179.151918 383.756228 
L 1179.78115 383.756228 
L 1179.990894 381.725596 
L 1180.620125 381.725596 
L 1180.829869 379.696117 
L 1181.459101 379.696117 
L 1181.668845 379.193798 
L 1182.298077 379.193798 
L 1182.507821 374.645698 
L 1183.137053 374.645698 
L 1183.346797 376.669736 
L 1183.976029 376.669736 
L 1184.185772 372.625199 
L 1185.65398 372.625199 
L 1185.863724 372.142732 
L 1187.331932 372.142732 
L 1187.541676 370.12351 
L 1189.009883 370.12351 
L 1189.219627 369.647056 
L 1190.687835 369.647056 
L 1190.897579 367.630219 
L 1191.526811 367.630219 
L 1191.736555 365.614475 
L 1192.365786 365.614475 
L 1192.57553 367.629522 
L 1193.204762 367.629522 
L 1193.414506 365.615555 
L 1194.043738 365.615555 
L 1194.253482 363.602658 
L 1194.882714 363.602658 
L 1195.092458 361.591029 
L 1196.560665 361.591029 
L 1196.770409 361.13903 
L 1199.916569 361.138902 
L 1200.126312 357.132088 
L 1200.755544 357.132088 
L 1200.965288 359.1343 
L 1201.59452 359.1343 
L 1201.804264 355.132932 
L 1202.433496 355.132932 
L 1202.64324 351.136009 
L 1203.272472 351.136009 
L 1203.482216 349.139055 
L 1204.111447 349.139055 
L 1204.321191 348.332039 
L 1204.950423 348.332039 
L 1205.160167 346.338062 
L 1205.789399 346.338062 
L 1205.999143 348.331368 
L 1206.628375 348.331368 
L 1206.838119 351.91994 
L 1207.467351 351.91994 
L 1207.677095 349.928482 
L 1208.306326 349.928482 
L 1208.51607 351.919279 
L 1209.984278 351.919279 
L 1210.194022 353.90942 
L 1211.66223 353.908765 
L 1211.871973 355.516986 
L 1212.501205 355.516986 
L 1212.710949 351.543256 
L 1213.340181 351.543256 
L 1213.549925 349.557838 
L 1215.018133 349.557838 
L 1215.227877 347.573564 
L 1215.857108 347.573564 
L 1216.066852 349.55719 
L 1217.53506 349.55719 
L 1217.744804 347.574518 
L 1218.374036 347.574518 
L 1218.58378 347.215126 
L 1221.729939 347.215126 
L 1221.939683 345.23471 
L 1222.568915 345.23471 
L 1222.778659 346.858143 
L 1223.407891 346.858143 
L 1223.617635 344.878846 
L 1224.246866 344.878846 
L 1224.45661 344.527097 
L 1225.085842 344.527097 
L 1225.295586 342.549856 
L 1226.763794 342.549856 
L 1226.973538 338.598514 
L 1227.60277 338.598514 
L 1227.812513 340.573079 
L 1228.441745 340.573079 
L 1228.651489 338.263065 
L 1229.280721 338.263065 
L 1229.490465 336.294371 
L 1230.119697 336.294371 
L 1230.329441 334.325516 
L 1230.958673 334.325516 
L 1231.168417 334.002537 
L 1231.797648 334.002537 
L 1232.007392 333.683844 
L 1232.636624 333.683844 
L 1232.846368 337.299834 
L 1233.4756 337.299834 
L 1233.685344 335.020839 
L 1235.153552 335.020839 
L 1235.363296 333.057289 
L 1235.992527 333.057289 
L 1236.202271 336.674066 
L 1236.831503 336.674066 
L 1237.041247 334.712179 
L 1237.670479 334.712179 
L 1237.880223 332.751334 
L 1238.509455 332.751334 
L 1238.719199 334.711572 
L 1239.348431 334.711572 
L 1239.558175 334.413229 
L 1241.026382 334.413229 
L 1241.236126 334.118751 
L 1241.865358 334.118751 
L 1242.075102 332.161171 
L 1242.704334 332.161171 
L 1242.914078 330.204618 
L 1244.382285 330.204618 
L 1244.592029 328.248943 
L 1246.060237 328.248943 
L 1246.269981 330.204019 
L 1246.899213 330.204019 
L 1247.108957 328.249952 
L 1247.738188 328.249952 
L 1247.947932 330.203424 
L 1249.41614 330.203424 
L 1249.625884 332.155712 
L 1251.094092 332.156563 
L 1251.303836 327.995689 
L 1251.933067 327.995689 
L 1252.142811 327.73915 
L 1252.772043 327.73915 
L 1252.981787 327.484604 
L 1253.611019 327.484604 
L 1253.820763 325.540281 
L 1255.288971 325.539705 
L 1255.498714 327.236626 
L 1256.127946 327.236626 
L 1256.33769 325.296085 
L 1256.966922 325.296085 
L 1257.176666 323.121457 
L 1257.805898 323.121457 
L 1258.015642 317.310202 
L 1258.644874 317.310202 
L 1258.854618 313.440534 
L 1259.483849 313.440534 
L 1259.693593 311.506901 
L 1260.322825 311.506901 
L 1260.532569 309.574066 
L 1261.161801 309.574066 
L 1261.371545 309.359391 
L 1262.000777 309.359391 
L 1262.210521 309.146774 
L 1262.839753 309.146774 
L 1263.049497 311.077326 
L 1265.35668 311.078242 
L 1265.566424 309.149954 
L 1267.873607 309.149397 
L 1268.083351 307.223461 
L 1268.712583 307.223461 
L 1268.922327 308.953761 
L 1269.551559 308.953761 
L 1269.761303 305.104448 
L 1272.068486 305.105221 
L 1272.27823 301.261865 
L 1272.907462 301.261865 
L 1273.117206 295.503217 
L 1273.746438 295.503217 
L 1273.956182 291.668224 
L 1274.585414 291.668224 
L 1274.795158 287.836637 
L 1276.263365 287.836637 
L 1276.473109 284.724745 
L 1277.941317 284.724745 
L 1278.151061 282.658722 
L 1278.780293 282.658722 
L 1278.990037 280.747988 
L 1279.619268 280.747988 
L 1279.829012 278.837984 
L 1281.29722 278.83744 
L 1281.506964 284.418248 
L 1282.136196 284.418248 
L 1282.34594 282.511312 
L 1282.975172 282.511312 
L 1283.184915 280.605093 
L 1283.814147 280.605093 
L 1284.023891 278.699586 
L 1284.653123 278.699586 
L 1284.862867 280.470133 
L 1285.492099 280.470133 
L 1285.701843 278.565337 
L 1286.331075 278.565337 
L 1286.540819 276.661245 
L 1287.17005 276.661245 
L 1287.379794 278.564804 
L 1288.009026 278.564804 
L 1288.21877 276.661944 
L 1289.686978 276.661944 
L 1290.106466 276.535611 
L 1290.525954 276.535611 
L 1290.735698 274.634261 
L 1291.364929 274.634261 
L 1291.574673 272.73372 
L 1292.203905 272.73372 
L 1292.413649 270.833869 
L 1293.042881 270.833869 
L 1293.252625 268.934819 
L 1294.720833 268.934819 
L 1294.930577 267.036455 
L 1295.559808 267.036455 
L 1295.769552 268.934291 
L 1296.398784 268.934291 
L 1296.608528 265.033582 
L 1298.915712 265.033058 
L 1299.125455 263.139242 
L 1299.754687 263.139242 
L 1299.964431 259.353841 
L 1300.593663 259.353841 
L 1300.803407 257.462136 
L 1302.271615 257.369705 
L 1302.481359 259.26023 
L 1303.11059 259.26023 
L 1303.320334 257.370362 
L 1303.949566 257.370362 
L 1304.15931 255.481147 
L 1304.788542 255.481147 
L 1304.998286 257.369845 
L 1305.627518 257.369845 
L 1305.837262 259.175204 
L 1306.466494 259.175204 
L 1306.676238 260.981076 
L 1307.305469 260.981076 
L 1307.515213 259.094304 
L 1308.144445 259.094304 
L 1308.354189 257.208178 
L 1309.822397 257.208178 
L 1310.032141 255.322812 
L 1310.661373 255.322812 
L 1310.871116 251.554 
L 1311.500348 251.554 
L 1311.710092 249.670663 
L 1312.339324 249.670663 
L 1312.549068 247.788072 
L 1313.1783 247.788072 
L 1313.388044 249.670155 
L 1314.017276 249.670155 
L 1314.22702 247.788815 
L 1314.856251 247.788815 
L 1315.065995 245.908216 
L 1316.534203 245.908216 
L 1316.743947 242.148892 
L 1317.373179 242.148892 
L 1317.582923 238.392043 
L 1318.212155 238.392043 
L 1318.421899 236.514539 
L 1319.05113 236.514539 
L 1319.260874 234.637645 
L 1319.890106 234.637645 
L 1320.09985 234.499552 
L 1320.729082 234.499552 
L 1320.938826 232.625208 
L 1323.246009 232.625806 
L 1323.455753 230.753282 
L 1324.923961 230.753999 
L 1325.133705 228.852795 
L 1325.762937 228.852795 
L 1325.972681 225.114559 
L 1326.601913 225.114559 
L 1326.811656 230.696185 
L 1327.440888 230.696185 
L 1327.650632 228.809842 
L 1328.279864 228.809842 
L 1328.489608 226.943867 
L 1329.957816 226.928575 
L 1330.16756 223.2 
L 1330.796791 223.2 
L 1330.796791 223.2 
" clip-path="url(#p6c2d9029b4)" style="fill: none; stroke: #0000ff; stroke-width: 1.5; stroke-linecap: square"/>
   </g>
   <g id="patch_9">
    <path d="M 860.823529 1281.6 
L 860.823529 172.8 
" style="fill: none; stroke: #000000; stroke-width: 0.8; stroke-linejoin: miter; stroke-linecap: square"/>
   </g>
   <g id="patch_10">
    <path d="M 1353.176471 1281.6 
L 1353.176471 172.8 
" style="fill: none; stroke: #000000; stroke-width: 0.8; stroke-linejoin: miter; stroke-linecap: square"/>
   </g>
   <g id="patch_11">
    <path d="M 860.823529 1281.6 
L 1353.176471 1281.6 
" style="fill: none; stroke: #000000; stroke-width: 0.8; stroke-linejoin: miter; stroke-linecap: square"/>
   </g>
   <g id="patch_12">
    <path d="M 860.823529 172.8 
L 1353.176471 172.8 
" style="fill: none; stroke: #000000; stroke-width: 0.8; stroke-linejoin: miter; stroke-linecap: square"/>
   </g>
   <g id="legend_2">
    <g id="patch_13">
     <path d="M 1262.134283 195.478125 
L 1346.176471 195.478125 
Q 1348.176471 195.478125 1348.176471 193.478125 
L 1348.176471 179.8 
Q 1348.176471 177.8 1346.176471 177.8 
L 1262.134283 177.8 
Q 1260.134283 177.8 1260.134283 179.8 
L 1260.134283 193.478125 
Q 1260.134283 195.478125 1262.134283 195.478125 
z
" style="fill: #ffffff; opacity: 0.8; stroke: #cccccc; stroke-linejoin: miter"/>
    </g>
    <g id="line2d_26">
     <path d="M 1264.134283 185.898437 
L 1274.134283 185.898437 
L 1284.134283 185.898437 
" style="fill: none; stroke: #0000ff; stroke-width: 1.5; stroke-linecap: square"/>
    </g>
    <g id="text_24">
     <!-- O2 reward -->
     <g transform="translate(1292.134283 189.398437) scale(0.1 -0.1)">
      <use xlink:href="#DejaVuSans-4f"/>
      <use xlink:href="#DejaVuSans-32" x="78.710938"/>
      <use xlink:href="#DejaVuSans-20" x="142.333984"/>
      <use xlink:href="#DejaVuSans-72" x="174.121094"/>
      <use xlink:href="#DejaVuSans-65" x="212.984375"/>
      <use xlink:href="#DejaVuSans-77" x="274.507812"/>
      <use xlink:href="#DejaVuSans-61" x="356.294922"/>
      <use xlink:href="#DejaVuSans-72" x="417.574219"/>
      <use xlink:href="#DejaVuSans-64" x="456.9375"/>
     </g>
    </g>
   </g>
  </g>
  <g id="axes_3">
   <g id="patch_14">
    <path d="M 1451.647059 1281.6 
L 1944 1281.6 
L 1944 172.8 
L 1451.647059 172.8 
z
" style="fill: #ffffff"/>
   </g>
   <g id="matplotlib.axis_5">
    <g id="xtick_11">
     <g id="line2d_27">
      <g>
       <use xlink:href="#m51a262d587" x="1473.816994" y="1281.6" style="stroke: #000000; stroke-width: 0.8"/>
      </g>
     </g>
     <g id="text_25">
      <!-- 0 -->
      <g transform="translate(1470.635744 1296.198437) scale(0.1 -0.1)">
       <use xlink:href="#DejaVuSans-30"/>
      </g>
     </g>
    </g>
    <g id="xtick_12">
     <g id="line2d_28">
      <g>
       <use xlink:href="#m51a262d587" x="1578.688968" y="1281.6" style="stroke: #000000; stroke-width: 0.8"/>
      </g>
     </g>
     <g id="text_26">
      <!-- 500 -->
      <g transform="translate(1569.145218 1296.198437) scale(0.1 -0.1)">
       <use xlink:href="#DejaVuSans-35"/>
       <use xlink:href="#DejaVuSans-30" x="63.623047"/>
       <use xlink:href="#DejaVuSans-30" x="127.246094"/>
      </g>
     </g>
    </g>
    <g id="xtick_13">
     <g id="line2d_29">
      <g>
       <use xlink:href="#m51a262d587" x="1683.560941" y="1281.6" style="stroke: #000000; stroke-width: 0.8"/>
      </g>
     </g>
     <g id="text_27">
      <!-- 1000 -->
      <g transform="translate(1670.835941 1296.198437) scale(0.1 -0.1)">
       <use xlink:href="#DejaVuSans-31"/>
       <use xlink:href="#DejaVuSans-30" x="63.623047"/>
       <use xlink:href="#DejaVuSans-30" x="127.246094"/>
       <use xlink:href="#DejaVuSans-30" x="190.869141"/>
      </g>
     </g>
    </g>
    <g id="xtick_14">
     <g id="line2d_30">
      <g>
       <use xlink:href="#m51a262d587" x="1788.432915" y="1281.6" style="stroke: #000000; stroke-width: 0.8"/>
      </g>
     </g>
     <g id="text_28">
      <!-- 1500 -->
      <g transform="translate(1775.707915 1296.198437) scale(0.1 -0.1)">
       <use xlink:href="#DejaVuSans-31"/>
       <use xlink:href="#DejaVuSans-35" x="63.623047"/>
       <use xlink:href="#DejaVuSans-30" x="127.246094"/>
       <use xlink:href="#DejaVuSans-30" x="190.869141"/>
      </g>
     </g>
    </g>
    <g id="xtick_15">
     <g id="line2d_31">
      <g>
       <use xlink:href="#m51a262d587" x="1893.304888" y="1281.6" style="stroke: #000000; stroke-width: 0.8"/>
      </g>
     </g>
     <g id="text_29">
      <!-- 2000 -->
      <g transform="translate(1880.579888 1296.198437) scale(0.1 -0.1)">
       <use xlink:href="#DejaVuSans-32"/>
       <use xlink:href="#DejaVuSans-30" x="63.623047"/>
       <use xlink:href="#DejaVuSans-30" x="127.246094"/>
       <use xlink:href="#DejaVuSans-30" x="190.869141"/>
      </g>
     </g>
    </g>
   </g>
   <g id="matplotlib.axis_6">
    <g id="ytick_13">
     <g id="line2d_32">
      <g>
       <use xlink:href="#m31bb9cfa80" x="1451.647059" y="1231.2" style="stroke: #000000; stroke-width: 0.8"/>
      </g>
     </g>
     <g id="text_30">
      <!-- 0 -->
      <g transform="translate(1438.284559 1234.999219) scale(0.1 -0.1)">
       <use xlink:href="#DejaVuSans-30"/>
      </g>
     </g>
    </g>
    <g id="ytick_14">
     <g id="line2d_33">
      <g>
       <use xlink:href="#m31bb9cfa80" x="1451.647059" y="1002.106357" style="stroke: #000000; stroke-width: 0.8"/>
      </g>
     </g>
     <g id="text_31">
      <!-- 5 -->
      <g transform="translate(1438.284559 1005.905576) scale(0.1 -0.1)">
       <use xlink:href="#DejaVuSans-35"/>
      </g>
     </g>
    </g>
    <g id="ytick_15">
     <g id="line2d_34">
      <g>
       <use xlink:href="#m31bb9cfa80" x="1451.647059" y="773.012715" style="stroke: #000000; stroke-width: 0.8"/>
      </g>
     </g>
     <g id="text_32">
      <!-- 10 -->
      <g transform="translate(1431.922059 776.811933) scale(0.1 -0.1)">
       <use xlink:href="#DejaVuSans-31"/>
       <use xlink:href="#DejaVuSans-30" x="63.623047"/>
      </g>
     </g>
    </g>
    <g id="ytick_16">
     <g id="line2d_35">
      <g>
       <use xlink:href="#m31bb9cfa80" x="1451.647059" y="543.919072" style="stroke: #000000; stroke-width: 0.8"/>
      </g>
     </g>
     <g id="text_33">
      <!-- 15 -->
      <g transform="translate(1431.922059 547.718291) scale(0.1 -0.1)">
       <use xlink:href="#DejaVuSans-31"/>
       <use xlink:href="#DejaVuSans-35" x="63.623047"/>
      </g>
     </g>
    </g>
    <g id="ytick_17">
     <g id="line2d_36">
      <g>
       <use xlink:href="#m31bb9cfa80" x="1451.647059" y="314.825429" style="stroke: #000000; stroke-width: 0.8"/>
      </g>
     </g>
     <g id="text_34">
      <!-- 20 -->
      <g transform="translate(1431.922059 318.624648) scale(0.1 -0.1)">
       <use xlink:href="#DejaVuSans-32"/>
       <use xlink:href="#DejaVuSans-30" x="63.623047"/>
      </g>
     </g>
    </g>
   </g>
   <g id="line2d_37">
    <path d="M 1474.026738 1231.2 
L 1482.835984 1231.2 
L 1483.045728 1213.330568 
L 1483.67496 1213.330568 
L 1483.884703 1199.05161 
L 1484.513935 1199.05161 
L 1484.723679 1186.906011 
L 1485.352911 1186.906011 
L 1485.562655 1168.905796 
L 1486.191887 1168.905796 
L 1486.401631 1162.852831 
L 1487.030863 1162.852831 
L 1487.240607 1139.287812 
L 1487.869838 1139.287812 
L 1488.079582 1146.134395 
L 1488.708814 1146.134395 
L 1488.918558 1132.723546 
L 1489.54779 1132.723546 
L 1489.757534 1119.500671 
L 1490.386766 1119.500671 
L 1490.59651 1110.530952 
L 1491.225742 1110.530952 
L 1491.435486 1095.339516 
L 1492.064717 1095.339516 
L 1492.274461 1081.079475 
L 1492.903693 1081.079475 
L 1493.113437 1072.242897 
L 1494.581645 1072.242897 
L 1494.791389 1068.353114 
L 1495.420621 1068.353114 
L 1495.630365 1059.83553 
L 1496.259596 1059.83553 
L 1496.46934 1055.092025 
L 1497.937548 1055.092025 
L 1498.147292 1051.550939 
L 1498.776524 1051.550939 
L 1498.986268 1043.793271 
L 1500.454475 1043.793271 
L 1500.664219 1040.54356 
L 1501.293451 1040.54356 
L 1501.503195 1026.843889 
L 1502.132427 1026.843889 
L 1502.342171 1007.620598 
L 1502.971403 1007.620598 
L 1503.181147 994.15347 
L 1503.810378 994.15347 
L 1504.020122 985.192194 
L 1504.649354 985.192194 
L 1504.859098 960.194866 
L 1505.48833 960.194866 
L 1505.698074 947.758138 
L 1506.327306 947.758138 
L 1506.53705 943.853892 
L 1507.166282 943.853892 
L 1507.376026 931.677228 
L 1508.005257 931.677228 
L 1508.215001 923.567514 
L 1508.844233 923.567514 
L 1509.053977 916.647311 
L 1509.683209 916.647311 
L 1509.892953 904.549907 
L 1510.522185 904.549907 
L 1510.731929 899.62037 
L 1511.361161 899.62037 
L 1511.570904 888.599478 
L 1513.039112 888.520537 
L 1513.248856 891.637473 
L 1513.878088 891.637473 
L 1514.087832 893.568337 
L 1514.717064 893.568337 
L 1514.926808 889.046363 
L 1515.556039 889.046363 
L 1515.765783 890.943843 
L 1516.395015 890.943843 
L 1516.604759 888.287043 
L 1517.233991 888.287043 
L 1517.443735 891.270412 
L 1518.072967 891.270412 
L 1518.282711 888.472651 
L 1519.750918 888.472651 
L 1519.960662 885.621515 
L 1520.589894 885.621515 
L 1520.799638 877.205161 
L 1521.42887 877.205161 
L 1521.638614 869.906279 
L 1522.267846 869.906279 
L 1522.47759 874.35925 
L 1523.106822 874.35925 
L 1523.316566 876.142272 
L 1525.623749 876.142272 
L 1525.833493 867.837305 
L 1526.462725 867.837305 
L 1526.672469 852.212501 
L 1527.301701 852.212501 
L 1527.511444 844.635505 
L 1528.140676 844.635505 
L 1528.35042 839.282604 
L 1528.979652 839.282604 
L 1529.189396 835.77347 
L 1529.818628 835.77347 
L 1530.028372 827.393231 
L 1530.657604 827.393231 
L 1530.867348 821.770786 
L 1531.496579 821.770786 
L 1531.706323 817.407223 
L 1532.335555 817.407223 
L 1532.545299 808.474944 
L 1533.174531 808.474944 
L 1533.384275 803.185302 
L 1534.013507 803.185302 
L 1534.223251 795.887527 
L 1534.852483 795.887527 
L 1535.062227 793.88335 
L 1535.691458 793.88335 
L 1535.901202 785.651547 
L 1536.530434 785.651547 
L 1536.740178 778.830797 
L 1537.36941 778.830797 
L 1537.579154 772.130358 
L 1538.208386 772.130358 
L 1538.41813 765.696609 
L 1539.886337 765.696609 
L 1540.096081 761.223828 
L 1540.725313 761.223828 
L 1540.935057 757.340318 
L 1541.564289 757.340318 
L 1541.774033 759.161141 
L 1542.403265 759.161141 
L 1542.613009 755.721719 
L 1543.24224 755.721719 
L 1543.451984 749.745122 
L 1544.081216 749.745122 
L 1544.29096 745.456669 
L 1544.920192 745.456669 
L 1545.129936 741.132449 
L 1545.759168 741.132449 
L 1545.968912 735.409335 
L 1546.598144 735.409335 
L 1546.807888 723.220059 
L 1547.437119 723.220059 
L 1547.646863 721.856411 
L 1548.276095 721.856411 
L 1548.485839 719.949053 
L 1549.115071 719.949053 
L 1549.324815 712.463016 
L 1549.954047 712.463016 
L 1550.163791 707.10847 
L 1550.793023 707.10847 
L 1551.002767 703.417967 
L 1551.631998 703.417967 
L 1551.841742 696.78797 
L 1552.470974 696.78797 
L 1552.680718 689.233292 
L 1553.30995 689.233292 
L 1553.519694 685.215643 
L 1554.148926 685.215643 
L 1554.35867 684.478053 
L 1554.987902 684.478053 
L 1555.197645 682.338 
L 1555.826877 682.338 
L 1556.036621 679.462663 
L 1556.665853 679.462663 
L 1556.875597 675.253076 
L 1557.504829 675.253076 
L 1557.714573 673.878336 
L 1558.343805 673.878336 
L 1558.553549 667.946149 
L 1559.18278 667.946149 
L 1559.392524 665.916665 
L 1560.021756 665.916665 
L 1560.2315 662.836092 
L 1560.860732 662.836092 
L 1561.070476 659.771379 
L 1561.699708 659.771379 
L 1561.909452 656.38563 
L 1563.377659 656.38563 
L 1563.587403 654.37687 
L 1564.216635 654.37687 
L 1564.426379 653.371885 
L 1565.055611 653.371885 
L 1565.265355 649.048503 
L 1566.733563 649.048503 
L 1566.943306 650.044446 
L 1567.572538 650.044446 
L 1567.782282 650.380549 
L 1568.411514 650.380549 
L 1568.621258 648.463014 
L 1569.25049 648.463014 
L 1569.460234 642.293663 
L 1570.089466 642.293663 
L 1570.29921 639.810341 
L 1570.928441 639.810341 
L 1571.138185 640.384174 
L 1571.767417 640.384174 
L 1571.977161 634.340782 
L 1572.606393 634.340782 
L 1572.816137 629.412648 
L 1573.445369 629.412648 
L 1573.655113 628.612785 
L 1574.284345 628.612785 
L 1574.494089 626.308184 
L 1575.12332 626.308184 
L 1575.333064 623.034225 
L 1575.962296 623.034225 
L 1576.17204 622.529888 
L 1576.801272 622.529888 
L 1577.011016 619.083871 
L 1577.640248 619.083871 
L 1577.849992 616.394093 
L 1578.479224 616.394093 
L 1578.688968 611.980207 
L 1579.318199 611.980207 
L 1579.527943 609.368115 
L 1580.157175 609.368115 
L 1580.366919 605.882306 
L 1580.996151 605.882306 
L 1581.205895 602.682218 
L 1581.835127 602.682218 
L 1582.044871 600.171404 
L 1582.674103 600.171404 
L 1582.883846 599.746308 
L 1583.513078 599.746308 
L 1583.722822 596.633098 
L 1584.352054 596.633098 
L 1584.561798 592.318527 
L 1585.19103 592.318527 
L 1585.400774 588.548688 
L 1586.030006 588.548688 
L 1586.23975 583.350409 
L 1586.868981 583.350409 
L 1587.078725 578.65021 
L 1587.707957 578.65021 
L 1587.917701 567.572574 
L 1588.546933 567.572574 
L 1588.756677 559.752946 
L 1589.385909 559.752946 
L 1589.595653 553.968416 
L 1590.224885 553.968416 
L 1590.434629 550.345073 
L 1591.06386 550.345073 
L 1591.273604 545.193648 
L 1591.902836 545.193648 
L 1592.11258 541.496385 
L 1592.741812 541.496385 
L 1592.951556 532.913045 
L 1593.580788 532.913045 
L 1593.790532 528.167644 
L 1594.419764 528.167644 
L 1594.629507 523.3728 
L 1595.258739 523.3728 
L 1595.468483 519.533918 
L 1596.097715 519.533918 
L 1596.307459 514.843464 
L 1596.936691 514.843464 
L 1597.146435 510.392477 
L 1597.775667 510.392477 
L 1597.985411 505.465276 
L 1598.614642 505.465276 
L 1598.824386 500.364289 
L 1599.453618 500.364289 
L 1599.663362 498.757291 
L 1600.292594 498.757291 
L 1600.502338 495.794736 
L 1601.13157 495.794736 
L 1601.341314 494.736413 
L 1601.970546 494.736413 
L 1602.18029 493.463258 
L 1602.809521 493.463258 
L 1603.019265 491.363906 
L 1603.648497 491.363906 
L 1603.858241 488.036933 
L 1604.487473 488.036933 
L 1604.697217 486.790392 
L 1605.326449 486.790392 
L 1605.536193 484.734937 
L 1606.165425 484.734937 
L 1606.375169 482.901944 
L 1607.843376 482.901944 
L 1608.05312 482.700424 
L 1608.682352 482.700424 
L 1608.892096 481.274139 
L 1609.521328 481.274139 
L 1609.731072 480.658903 
L 1610.360304 480.658903 
L 1610.570047 479.252694 
L 1611.199279 479.252694 
L 1611.409023 478.254664 
L 1612.038255 478.254664 
L 1612.247999 475.983167 
L 1612.877231 475.983167 
L 1613.086975 472.207168 
L 1613.716207 472.207168 
L 1613.925951 471.408013 
L 1614.555182 471.408013 
L 1614.764926 467.4187 
L 1615.394158 467.4187 
L 1615.603902 464.877331 
L 1616.233134 464.877331 
L 1616.442878 463.298147 
L 1617.07211 463.298147 
L 1617.281854 460.620944 
L 1617.911086 460.620944 
L 1618.12083 456.866342 
L 1618.750061 456.866342 
L 1618.959805 453.933859 
L 1619.589037 453.933859 
L 1619.798781 449.484625 
L 1620.428013 449.484625 
L 1620.637757 447.659289 
L 1621.266989 447.659289 
L 1621.476733 445.700276 
L 1622.105965 445.700276 
L 1622.315708 441.269059 
L 1622.94494 441.269059 
L 1623.154684 440.378139 
L 1623.783916 440.378139 
L 1623.99366 439.362084 
L 1624.622892 439.362084 
L 1624.832636 436.829074 
L 1625.461868 436.829074 
L 1625.671612 434.695286 
L 1626.300843 434.695286 
L 1626.510587 431.52991 
L 1627.139819 431.52991 
L 1627.349563 428.209497 
L 1627.978795 428.209497 
L 1628.188539 426.74626 
L 1628.817771 426.74626 
L 1629.027515 424.296239 
L 1629.656747 424.296239 
L 1629.866491 423.026828 
L 1630.495722 423.026828 
L 1630.705466 423.488962 
L 1631.334698 423.488962 
L 1631.544442 419.877073 
L 1632.173674 419.877073 
L 1632.383418 419.720001 
L 1633.01265 419.720001 
L 1633.222394 417.95303 
L 1634.690601 417.95303 
L 1634.900345 415.932609 
L 1635.529577 415.932609 
L 1635.739321 414.284524 
L 1636.368553 414.284524 
L 1636.578297 412.196563 
L 1637.207529 412.196563 
L 1637.417273 411.478356 
L 1638.046505 411.478356 
L 1638.256248 408.710224 
L 1638.88548 408.710224 
L 1639.095224 406.713678 
L 1639.724456 406.713678 
L 1639.9342 404.648322 
L 1640.563432 404.648322 
L 1640.773176 400.12487 
L 1641.402408 400.12487 
L 1641.612152 397.004353 
L 1643.080359 397.001839 
L 1643.290103 396.104548 
L 1643.919335 396.104548 
L 1644.129079 397.467743 
L 1644.758311 397.467743 
L 1644.968055 394.682144 
L 1645.597287 394.682144 
L 1645.807031 396.521819 
L 1646.436262 396.521819 
L 1646.646006 394.318937 
L 1647.275238 394.318937 
L 1647.694726 394.199781 
L 1648.114214 394.199781 
L 1648.323958 394.796547 
L 1649.792166 394.739359 
L 1650.001909 395.230749 
L 1650.631141 395.230749 
L 1650.840885 392.503374 
L 1651.470117 392.503374 
L 1651.679861 390.74303 
L 1652.309093 390.74303 
L 1652.518837 390.042104 
L 1653.148069 390.042104 
L 1653.357813 388.920214 
L 1653.987044 388.920214 
L 1654.196788 387.877828 
L 1654.82602 387.877828 
L 1655.035764 385.207603 
L 1656.503972 385.207603 
L 1656.713716 384.158278 
L 1657.342948 384.158278 
L 1657.552692 382.494291 
L 1658.181923 382.494291 
L 1658.391667 381.813279 
L 1659.020899 381.813279 
L 1659.230643 381.075495 
L 1659.859875 381.075495 
L 1660.069619 379.440726 
L 1660.698851 379.440726 
L 1660.908595 378.446225 
L 1661.537827 378.446225 
L 1661.747571 377.755852 
L 1662.376802 377.755852 
L 1662.586546 377.085517 
L 1664.054754 377.038612 
L 1664.264498 375.735296 
L 1665.732706 375.689245 
L 1665.942449 374.046054 
L 1666.571681 374.046054 
L 1666.781425 373.069276 
L 1667.410657 373.069276 
L 1667.620401 372.080128 
L 1668.249633 372.080128 
L 1668.459377 371.685862 
L 1669.088609 371.685862 
L 1669.298353 370.391009 
L 1669.927584 370.391009 
L 1670.137328 369.427013 
L 1670.76656 369.427013 
L 1670.976304 370.073952 
L 1671.605536 370.073952 
L 1671.81528 369.156075 
L 1672.444512 369.156075 
L 1672.654256 367.221353 
L 1673.283488 367.221353 
L 1673.493232 366.301187 
L 1674.122463 366.301187 
L 1674.332207 366.940623 
L 1674.961439 366.940623 
L 1675.171183 365.379801 
L 1675.800415 365.379801 
L 1676.010159 364.732217 
L 1677.478367 364.719584 
L 1677.688111 364.078079 
L 1679.156318 364.064943 
L 1679.366062 362.208311 
L 1680.83427 362.198978 
L 1681.044014 360.970664 
L 1681.673245 360.970664 
L 1681.882989 360.350379 
L 1682.512221 360.350379 
L 1682.721965 359.732207 
L 1683.351197 359.732207 
L 1683.560941 359.114547 
L 1684.190173 359.114547 
L 1684.399917 356.969427 
L 1685.868124 356.969427 
L 1686.077868 356.050789 
L 1686.7071 356.050789 
L 1686.916844 355.441458 
L 1688.385052 355.439505 
L 1688.594796 353.921376 
L 1689.224028 353.921376 
L 1689.433772 353.315728 
L 1690.063003 353.315728 
L 1690.272747 352.711374 
L 1690.901979 352.711374 
L 1691.111723 351.505136 
L 1691.740955 351.505136 
L 1691.950699 349.694429 
L 1692.579931 349.694429 
L 1692.789675 348.799201 
L 1693.418907 348.799201 
L 1693.62865 347.593384 
L 1694.257882 347.593384 
L 1694.467626 346.106222 
L 1695.096858 346.106222 
L 1695.306602 344.632857 
L 1695.935834 344.632857 
L 1696.145578 344.328895 
L 1696.77481 344.328895 
L 1696.984554 344.950015 
L 1697.613785 344.950015 
L 1697.823529 343.451338 
L 1699.291737 343.480452 
L 1699.501481 341.990225 
L 1700.130713 341.990225 
L 1700.340457 341.139713 
L 1701.808664 341.139713 
L 1702.018408 339.064734 
L 1702.64764 339.064734 
L 1702.857384 338.171436 
L 1703.486616 338.171436 
L 1703.69636 336.702801 
L 1704.325592 336.702801 
L 1704.535336 335.813177 
L 1705.164568 335.813177 
L 1705.374312 334.936986 
L 1706.003543 334.936986 
L 1706.213287 332.316085 
L 1706.842519 332.316085 
L 1707.052263 330.849252 
L 1707.681495 330.849252 
L 1707.891239 329.966159 
L 1708.520471 329.966159 
L 1708.730215 329.098215 
L 1709.359446 329.098215 
L 1709.56919 328.506093 
L 1710.198422 328.506093 
L 1710.408166 327.899435 
L 1711.037398 327.899435 
L 1711.247142 326.447319 
L 1712.71535 326.431579 
L 1712.925094 325.571467 
L 1715.232277 325.555512 
L 1715.442021 324.678857 
L 1716.071253 324.678857 
L 1716.280997 323.819388 
L 1716.910229 323.819388 
L 1717.119973 322.069116 
L 1717.749204 322.069116 
L 1717.958948 321.481709 
L 1718.58818 321.481709 
L 1718.797924 319.170898 
L 1719.427156 319.170898 
L 1719.6369 318.038425 
L 1720.266132 318.038425 
L 1720.475876 316.327493 
L 1721.105108 316.327493 
L 1721.314851 314.903522 
L 1722.783059 314.903522 
L 1722.992803 314.322385 
L 1723.622035 314.322385 
L 1723.831779 313.482022 
L 1724.461011 313.482022 
L 1724.670755 312.922833 
L 1725.299986 312.922833 
L 1725.50973 311.227076 
L 1726.977938 311.227076 
L 1727.187682 310.850989 
L 1727.816914 310.850989 
L 1728.026658 309.434516 
L 1728.65589 309.434516 
L 1728.865634 309.990827 
L 1729.494865 309.990827 
L 1729.704609 309.133089 
L 1731.172817 309.230615 
L 1731.382561 308.397359 
L 1732.011793 308.397359 
L 1732.221537 307.944355 
L 1733.689744 307.944355 
L 1733.899488 308.49788 
L 1736.206672 308.472015 
L 1736.416416 307.893597 
L 1737.884623 307.893597 
L 1738.094367 307.316145 
L 1738.723599 307.316145 
L 1738.933343 306.488766 
L 1739.562575 306.488766 
L 1739.772319 305.912075 
L 1740.401551 305.912075 
L 1740.611295 304.48493 
L 1741.240526 304.48493 
L 1741.45027 302.814141 
L 1742.079502 302.814141 
L 1742.289246 301.993644 
L 1742.918478 301.993644 
L 1743.128222 301.173736 
L 1743.757454 301.173736 
L 1743.967198 299.620171 
L 1744.59643 299.620171 
L 1744.806174 299.434492 
L 1745.435405 299.434492 
L 1745.645149 297.343377 
L 1746.274381 297.343377 
L 1746.484125 295.834292 
L 1747.113357 295.834292 
L 1747.323101 295.418425 
L 1747.952333 295.418425 
L 1748.162077 295.961103 
L 1748.791309 295.961103 
L 1749.001052 294.464186 
L 1749.630284 294.464186 
L 1749.840028 293.616965 
L 1750.46926 293.616965 
L 1750.679004 293.075136 
L 1751.308236 293.075136 
L 1751.51798 293.209645 
L 1752.147212 293.209645 
L 1752.356956 292.667816 
L 1752.986187 292.667816 
L 1753.195931 292.263846 
L 1753.825163 292.263846 
L 1754.034907 291.722017 
L 1754.664139 291.722017 
L 1754.873883 291.861538 
L 1755.503115 291.861538 
L 1755.712859 290.921084 
L 1757.181066 290.921084 
L 1757.39081 290.523269 
L 1758.859018 290.523269 
L 1759.068762 289.982653 
L 1760.53697 289.982653 
L 1760.746714 289.44285 
L 1761.375945 289.44285 
L 1761.585689 288.903857 
L 1762.214921 288.903857 
L 1762.424665 288.365666 
L 1763.892873 288.365666 
L 1764.102617 286.753832 
L 1764.731849 286.753832 
L 1764.941592 286.217603 
L 1765.570824 286.217603 
L 1765.780568 284.574318 
L 1766.4098 284.574318 
L 1766.619544 282.934489 
L 1767.248776 282.934489 
L 1767.45852 281.869684 
L 1768.926727 281.869684 
L 1769.136471 281.337282 
L 1770.604679 281.337282 
L 1770.814423 282.555076 
L 1771.443655 282.555076 
L 1771.653399 282.711807 
L 1772.282631 282.711807 
L 1772.492375 283.240516 
L 1773.121606 283.240516 
L 1773.33135 283.7685 
L 1773.960582 283.7685 
L 1774.170326 284.616515 
L 1774.799558 284.616515 
L 1775.009302 284.089961 
L 1775.638534 284.089961 
L 1775.848278 283.200766 
L 1776.47751 283.200766 
L 1776.687253 283.725915 
L 1777.316485 283.725915 
L 1777.526229 282.676311 
L 1778.155461 282.676311 
L 1778.365205 283.200078 
L 1778.994437 283.200078 
L 1779.204181 283.717249 
L 1779.833413 283.717249 
L 1780.043157 284.239321 
L 1781.511364 284.239321 
L 1781.721108 283.197692 
L 1782.35034 283.197692 
L 1782.560084 283.717257 
L 1784.028292 283.717257 
L 1784.238036 283.22402 
L 1784.867267 283.22402 
L 1785.077011 283.742761 
L 1785.706243 283.742761 
L 1785.915987 284.260685 
L 1786.545219 284.260685 
L 1786.754963 283.74357 
L 1788.223171 283.74357 
L 1788.432915 283.227633 
L 1789.062146 283.227633 
L 1789.27189 283.775569 
L 1789.901122 283.775569 
L 1790.110866 282.746814 
L 1790.740098 282.746814 
L 1790.949842 282.270291 
L 1792.41805 282.271061 
L 1792.627793 281.28824 
L 1793.257025 281.28824 
L 1793.466769 281.799135 
L 1794.096001 281.799135 
L 1794.305745 280.77883 
L 1794.934977 280.77883 
L 1795.144721 280.2698 
L 1795.773953 280.2698 
L 1795.983697 278.74491 
L 1796.612928 278.74491 
L 1796.822672 277.781411 
L 1797.451904 277.781411 
L 1797.661648 277.327633 
L 1798.29088 277.327633 
L 1798.500624 276.429296 
L 1799.129856 276.429296 
L 1799.3396 275.478963 
L 1799.968832 275.478963 
L 1800.178576 273.969175 
L 1800.807807 273.969175 
L 1801.017551 274.471393 
L 1802.485759 274.535594 
L 1802.695503 274.035083 
L 1803.324735 274.035083 
L 1803.534479 273.534572 
L 1804.163711 273.534572 
L 1804.373454 273.034062 
L 1805.002686 273.034062 
L 1805.21243 272.534215 
L 1805.841662 272.534215 
L 1806.051406 272.03503 
L 1806.680638 272.03503 
L 1806.890382 271.03863 
L 1807.519614 271.03863 
L 1807.729358 270.043236 
L 1808.358589 270.043236 
L 1808.568333 269.545716 
L 1810.875517 269.620578 
L 1811.085261 269.124977 
L 1811.714493 269.124977 
L 1811.924237 268.630006 
L 1813.392444 268.630006 
L 1813.602188 267.641386 
L 1814.23142 267.641386 
L 1814.441164 266.654701 
L 1815.070396 266.654701 
L 1815.28014 266.244757 
L 1815.909372 266.244757 
L 1816.119116 265.261141 
L 1816.748347 265.261141 
L 1816.958091 264.279329 
L 1817.587323 264.279329 
L 1817.797067 263.788135 
L 1818.426299 263.788135 
L 1818.636043 263.390156 
L 1820.104251 263.390156 
L 1820.313994 263.878415 
L 1820.943226 263.878415 
L 1821.15297 262.995071 
L 1821.782202 262.995071 
L 1821.991946 262.507386 
L 1822.621178 262.507386 
L 1822.830922 261.628165 
L 1823.460154 261.628165 
L 1823.669898 261.141621 
L 1825.138105 261.141621 
L 1825.347849 260.170229 
L 1825.977081 260.170229 
L 1826.186825 259.298129 
L 1826.816057 259.298129 
L 1827.025801 258.813613 
L 1828.494008 258.813948 
L 1828.703752 258.432815 
L 1830.17196 258.432266 
L 1830.381704 258.054311 
L 1831.849912 258.158769 
L 1832.059655 258.746287 
L 1832.688887 258.746287 
L 1832.898631 258.266032 
L 1833.527863 258.266032 
L 1833.737607 257.786103 
L 1834.366839 257.786103 
L 1834.576583 257.306708 
L 1835.205815 257.306708 
L 1835.415559 256.935102 
L 1836.04479 256.935102 
L 1836.254534 257.413969 
L 1837.722742 257.413969 
L 1837.932486 256.935102 
L 1838.561718 256.935102 
L 1838.771462 255.978938 
L 1839.400694 255.978938 
L 1839.610438 254.547483 
L 1841.078645 254.547483 
L 1841.288389 253.593524 
L 1841.917621 253.593524 
L 1842.127365 253.116544 
L 1842.756597 253.116544 
L 1842.966341 253.591501 
L 1843.595573 253.591501 
L 1843.805317 252.16757 
L 1844.434548 252.16757 
L 1844.644292 250.747374 
L 1845.273524 250.747374 
L 1845.483268 251.219911 
L 1846.1125 251.219911 
L 1846.322244 250.747686 
L 1847.790452 250.747686 
L 1848.000195 250.275947 
L 1849.468403 250.275947 
L 1849.678147 249.804209 
L 1850.307379 249.804209 
L 1850.517123 249.332952 
L 1851.146355 249.332952 
L 1851.356099 248.862177 
L 1851.98533 248.862177 
L 1852.195074 248.517608 
L 1852.824306 248.517608 
L 1853.03405 248.047311 
L 1854.502258 248.047311 
L 1854.712002 247.577321 
L 1857.019185 247.577321 
L 1857.228929 246.637646 
L 1858.697137 246.637646 
L 1858.906881 246.168265 
L 1859.536113 246.168265 
L 1859.745856 245.699187 
L 1861.214064 245.699187 
L 1861.423808 245.230108 
L 1864.569967 245.230579 
L 1864.779711 244.762445 
L 1865.408943 244.762445 
L 1865.618687 244.294312 
L 1866.247919 244.294312 
L 1866.457663 242.891387 
L 1867.92587 242.891387 
L 1868.135614 242.558362 
L 1869.603822 242.558362 
L 1869.813566 242.091577 
L 1871.281774 242.091577 
L 1871.491518 241.625256 
L 1872.959725 241.625256 
L 1873.169469 241.158934 
L 1873.798701 241.158934 
L 1874.008445 241.624796 
L 1874.637677 241.624796 
L 1874.847421 241.159226 
L 1875.476653 241.159226 
L 1875.686396 240.693947 
L 1876.315628 240.693947 
L 1876.525372 240.22912 
L 1878.832556 240.22912 
L 1879.0423 240.693495 
L 1879.671531 240.693495 
L 1879.881275 239.765771 
L 1880.510507 239.765771 
L 1880.720251 239.302133 
L 1883.86641 239.302133 
L 1884.076154 238.838495 
L 1884.705386 238.838495 
L 1884.91513 238.375301 
L 1885.544362 238.375301 
L 1885.754106 237.449798 
L 1886.383338 237.449798 
L 1886.593082 238.055994 
L 1887.222314 238.055994 
L 1887.432057 237.594116 
L 1888.061289 237.594116 
L 1888.271033 236.670928 
L 1888.900265 236.670928 
L 1889.110009 235.287426 
L 1890.578217 235.287707 
L 1890.787961 235.435613 
L 1891.417192 235.435613 
L 1891.626936 234.516125 
L 1892.256168 234.516125 
L 1892.465912 234.205975 
L 1893.095144 234.205975 
L 1893.304888 233.287891 
L 1893.93412 233.287891 
L 1894.143864 231.912573 
L 1895.612071 231.912573 
L 1895.821815 231.454643 
L 1896.451047 231.454643 
L 1896.660791 231.912158 
L 1897.290023 231.912158 
L 1897.499767 231.454916 
L 1898.967975 231.454916 
L 1899.177719 231.911747 
L 1899.80695 231.911747 
L 1900.016694 231.455187 
L 1902.323878 231.454779 
L 1902.533622 230.999037 
L 1903.162854 230.999037 
L 1903.372597 231.454373 
L 1904.001829 231.454373 
L 1904.211573 230.999442 
L 1904.840805 230.999442 
L 1905.050549 230.703421 
L 1906.518757 230.703421 
L 1906.728501 230.248758 
L 1909.035684 230.248758 
L 1909.245428 230.568832 
L 1909.87466 230.568832 
L 1910.084404 229.3705 
L 1910.713636 229.3705 
L 1910.92338 228.918081 
L 1911.552611 228.918081 
L 1911.762355 228.013894 
L 1912.391587 228.013894 
L 1912.601331 229.080919 
L 1913.230563 229.080919 
L 1913.440307 227.896761 
L 1914.069539 227.896761 
L 1914.279283 228.231347 
L 1914.908515 228.231347 
L 1915.118258 227.332647 
L 1915.74749 227.332647 
L 1915.957234 226.434949 
L 1916.586466 226.434949 
L 1916.79621 225.538356 
L 1917.425442 225.538356 
L 1917.635186 224.642653 
L 1918.264418 224.642653 
L 1918.474162 223.919082 
L 1919.103393 223.919082 
L 1919.313137 224.366313 
L 1919.942369 224.366313 
L 1920.152113 223.2 
L 1920.781345 223.2 
L 1920.991089 223.375469 
L 1921.620321 223.375469 
L 1921.620321 223.375469 
" clip-path="url(#pc5c41f9074)" style="fill: none; stroke: #0000ff; stroke-width: 1.5; stroke-linecap: square"/>
   </g>
   <g id="patch_15">
    <path d="M 1451.647059 1281.6 
L 1451.647059 172.8 
" style="fill: none; stroke: #000000; stroke-width: 0.8; stroke-linejoin: miter; stroke-linecap: square"/>
   </g>
   <g id="patch_16">
    <path d="M 1944 1281.6 
L 1944 172.8 
" style="fill: none; stroke: #000000; stroke-width: 0.8; stroke-linejoin: miter; stroke-linecap: square"/>
   </g>
   <g id="patch_17">
    <path d="M 1451.647059 1281.6 
L 1944 1281.6 
" style="fill: none; stroke: #000000; stroke-width: 0.8; stroke-linejoin: miter; stroke-linecap: square"/>
   </g>
   <g id="patch_18">
    <path d="M 1451.647059 172.8 
L 1944 172.8 
" style="fill: none; stroke: #000000; stroke-width: 0.8; stroke-linejoin: miter; stroke-linecap: square"/>
   </g>
   <g id="legend_3">
    <g id="patch_19">
     <path d="M 1852.957813 195.478125 
L 1937 195.478125 
Q 1939 195.478125 1939 193.478125 
L 1939 179.8 
Q 1939 177.8 1937 177.8 
L 1852.957813 177.8 
Q 1850.957813 177.8 1850.957813 179.8 
L 1850.957813 193.478125 
Q 1850.957813 195.478125 1852.957813 195.478125 
z
" style="fill: #ffffff; opacity: 0.8; stroke: #cccccc; stroke-linejoin: miter"/>
    </g>
    <g id="line2d_38">
     <path d="M 1854.957813 185.898437 
L 1864.957813 185.898437 
L 1874.957813 185.898437 
" style="fill: none; stroke: #0000ff; stroke-width: 1.5; stroke-linecap: square"/>
    </g>
    <g id="text_35">
     <!-- O3 reward -->
     <g transform="translate(1882.957813 189.398437) scale(0.1 -0.1)">
      <use xlink:href="#DejaVuSans-4f"/>
      <use xlink:href="#DejaVuSans-33" x="78.710938"/>
      <use xlink:href="#DejaVuSans-20" x="142.333984"/>
      <use xlink:href="#DejaVuSans-72" x="174.121094"/>
      <use xlink:href="#DejaVuSans-65" x="212.984375"/>
      <use xlink:href="#DejaVuSans-77" x="274.507812"/>
      <use xlink:href="#DejaVuSans-61" x="356.294922"/>
      <use xlink:href="#DejaVuSans-72" x="417.574219"/>
      <use xlink:href="#DejaVuSans-64" x="456.9375"/>
     </g>
    </g>
   </g>
  </g>
 </g>
 <defs>
  <clipPath id="p3acc89929a">
   <rect x="270" y="172.8" width="492.352941" height="1108.8"/>
  </clipPath>
  <clipPath id="p6c2d9029b4">
   <rect x="860.823529" y="172.8" width="492.352941" height="1108.8"/>
  </clipPath>
  <clipPath id="pc5c41f9074">
   <rect x="1451.647059" y="172.8" width="492.352941" height="1108.8"/>
  </clipPath>
 </defs>
</svg>
