<?xml version="1.0" encoding="utf-8" standalone="no"?>
<!DOCTYPE svg PUBLIC "-//W3C//DTD SVG 1.1//EN"
  "http://www.w3.org/Graphics/SVG/1.1/DTD/svg11.dtd">
<svg xmlns:xlink="http://www.w3.org/1999/xlink" width="2160pt" height="1440pt" viewBox="0 0 2160 1440" xmlns="http://www.w3.org/2000/svg" version="1.1">
 <metadata>
  <rdf:RDF xmlns:dc="http://purl.org/dc/elements/1.1/" xmlns:cc="http://creativecommons.org/ns#" xmlns:rdf="http://www.w3.org/1999/02/22-rdf-syntax-ns#">
   <cc:Work>
    <dc:type rdf:resource="http://purl.org/dc/dcmitype/StillImage"/>
    <dc:date>2023-05-31T19:36:04.040985</dc:date>
    <dc:format>image/svg+xml</dc:format>
    <dc:creator>
     <cc:Agent>
      <dc:title>Matplotlib v3.7.1, https://matplotlib.org/</dc:title>
     </cc:Agent>
    </dc:creator>
   </cc:Work>
  </rdf:RDF>
 </metadata>
 <defs>
  <style type="text/css">*{stroke-linejoin: round; stroke-linecap: butt}</style>
 </defs>
 <g id="figure_1">
  <g id="patch_1">
   <path d="M 0 1440 
L 2160 1440 
L 2160 0 
L 0 0 
z
" style="fill: #ffffff"/>
  </g>
  <g id="axes_1">
   <g id="patch_2">
    <path d="M 270 1281.6 
L 762.352941 1281.6 
L 762.352941 172.8 
L 270 172.8 
z
" style="fill: #ffffff"/>
   </g>
   <g id="matplotlib.axis_1">
    <g id="xtick_1">
     <g id="line2d_1">
      <defs>
       <path id="m27e0b2ebbd" d="M 0 0 
L 0 3.5 
" style="stroke: #000000; stroke-width: 0.8"/>
      </defs>
      <g>
       <use xlink:href="#m27e0b2ebbd" x="291.931638" y="1281.6" style="stroke: #000000; stroke-width: 0.8"/>
      </g>
     </g>
     <g id="text_1">
      <!-- 0 -->
      <g transform="translate(288.750388 1296.198437) scale(0.1 -0.1)">
       <defs>
        <path id="DejaVuSans-30" d="M 2034 4250 
Q 1547 4250 1301 3770 
Q 1056 3291 1056 2328 
Q 1056 1369 1301 889 
Q 1547 409 2034 409 
Q 2525 409 2770 889 
Q 3016 1369 3016 2328 
Q 3016 3291 2770 3770 
Q 2525 4250 2034 4250 
z
M 2034 4750 
Q 2819 4750 3233 4129 
Q 3647 3509 3647 2328 
Q 3647 1150 3233 529 
Q 2819 -91 2034 -91 
Q 1250 -91 836 529 
Q 422 1150 422 2328 
Q 422 3509 836 4129 
Q 1250 4750 2034 4750 
z
" transform="scale(0.015625)"/>
       </defs>
       <use xlink:href="#DejaVuSans-30"/>
      </g>
     </g>
    </g>
    <g id="xtick_2">
     <g id="line2d_2">
      <g>
       <use xlink:href="#m27e0b2ebbd" x="381.539962" y="1281.6" style="stroke: #000000; stroke-width: 0.8"/>
      </g>
     </g>
     <g id="text_2">
      <!-- 200 -->
      <g transform="translate(371.996212 1296.198437) scale(0.1 -0.1)">
       <defs>
        <path id="DejaVuSans-32" d="M 1228 531 
L 3431 531 
L 3431 0 
L 469 0 
L 469 531 
Q 828 903 1448 1529 
Q 2069 2156 2228 2338 
Q 2531 2678 2651 2914 
Q 2772 3150 2772 3378 
Q 2772 3750 2511 3984 
Q 2250 4219 1831 4219 
Q 1534 4219 1204 4116 
Q 875 4013 500 3803 
L 500 4441 
Q 881 4594 1212 4672 
Q 1544 4750 1819 4750 
Q 2544 4750 2975 4387 
Q 3406 4025 3406 3419 
Q 3406 3131 3298 2873 
Q 3191 2616 2906 2266 
Q 2828 2175 2409 1742 
Q 1991 1309 1228 531 
z
" transform="scale(0.015625)"/>
       </defs>
       <use xlink:href="#DejaVuSans-32"/>
       <use xlink:href="#DejaVuSans-30" x="63.623047"/>
       <use xlink:href="#DejaVuSans-30" x="127.246094"/>
      </g>
     </g>
    </g>
    <g id="xtick_3">
     <g id="line2d_3">
      <g>
       <use xlink:href="#m27e0b2ebbd" x="471.148287" y="1281.6" style="stroke: #000000; stroke-width: 0.8"/>
      </g>
     </g>
     <g id="text_3">
      <!-- 400 -->
      <g transform="translate(461.604537 1296.198437) scale(0.1 -0.1)">
       <defs>
        <path id="DejaVuSans-34" d="M 2419 4116 
L 825 1625 
L 2419 1625 
L 2419 4116 
z
M 2253 4666 
L 3047 4666 
L 3047 1625 
L 3713 1625 
L 3713 1100 
L 3047 1100 
L 3047 0 
L 2419 0 
L 2419 1100 
L 313 1100 
L 313 1709 
L 2253 4666 
z
" transform="scale(0.015625)"/>
       </defs>
       <use xlink:href="#DejaVuSans-34"/>
       <use xlink:href="#DejaVuSans-30" x="63.623047"/>
       <use xlink:href="#DejaVuSans-30" x="127.246094"/>
      </g>
     </g>
    </g>
    <g id="xtick_4">
     <g id="line2d_4">
      <g>
       <use xlink:href="#m27e0b2ebbd" x="560.756612" y="1281.6" style="stroke: #000000; stroke-width: 0.8"/>
      </g>
     </g>
     <g id="text_4">
      <!-- 600 -->
      <g transform="translate(551.212862 1296.198437) scale(0.1 -0.1)">
       <defs>
        <path id="DejaVuSans-36" d="M 2113 2584 
Q 1688 2584 1439 2293 
Q 1191 2003 1191 1497 
Q 1191 994 1439 701 
Q 1688 409 2113 409 
Q 2538 409 2786 701 
Q 3034 994 3034 1497 
Q 3034 2003 2786 2293 
Q 2538 2584 2113 2584 
z
M 3366 4563 
L 3366 3988 
Q 3128 4100 2886 4159 
Q 2644 4219 2406 4219 
Q 1781 4219 1451 3797 
Q 1122 3375 1075 2522 
Q 1259 2794 1537 2939 
Q 1816 3084 2150 3084 
Q 2853 3084 3261 2657 
Q 3669 2231 3669 1497 
Q 3669 778 3244 343 
Q 2819 -91 2113 -91 
Q 1303 -91 875 529 
Q 447 1150 447 2328 
Q 447 3434 972 4092 
Q 1497 4750 2381 4750 
Q 2619 4750 2861 4703 
Q 3103 4656 3366 4563 
z
" transform="scale(0.015625)"/>
       </defs>
       <use xlink:href="#DejaVuSans-36"/>
       <use xlink:href="#DejaVuSans-30" x="63.623047"/>
       <use xlink:href="#DejaVuSans-30" x="127.246094"/>
      </g>
     </g>
    </g>
    <g id="xtick_5">
     <g id="line2d_5">
      <g>
       <use xlink:href="#m27e0b2ebbd" x="650.364937" y="1281.6" style="stroke: #000000; stroke-width: 0.8"/>
      </g>
     </g>
     <g id="text_5">
      <!-- 800 -->
      <g transform="translate(640.821187 1296.198437) scale(0.1 -0.1)">
       <defs>
        <path id="DejaVuSans-38" d="M 2034 2216 
Q 1584 2216 1326 1975 
Q 1069 1734 1069 1313 
Q 1069 891 1326 650 
Q 1584 409 2034 409 
Q 2484 409 2743 651 
Q 3003 894 3003 1313 
Q 3003 1734 2745 1975 
Q 2488 2216 2034 2216 
z
M 1403 2484 
Q 997 2584 770 2862 
Q 544 3141 544 3541 
Q 544 4100 942 4425 
Q 1341 4750 2034 4750 
Q 2731 4750 3128 4425 
Q 3525 4100 3525 3541 
Q 3525 3141 3298 2862 
Q 3072 2584 2669 2484 
Q 3125 2378 3379 2068 
Q 3634 1759 3634 1313 
Q 3634 634 3220 271 
Q 2806 -91 2034 -91 
Q 1263 -91 848 271 
Q 434 634 434 1313 
Q 434 1759 690 2068 
Q 947 2378 1403 2484 
z
M 1172 3481 
Q 1172 3119 1398 2916 
Q 1625 2713 2034 2713 
Q 2441 2713 2670 2916 
Q 2900 3119 2900 3481 
Q 2900 3844 2670 4047 
Q 2441 4250 2034 4250 
Q 1625 4250 1398 4047 
Q 1172 3844 1172 3481 
z
" transform="scale(0.015625)"/>
       </defs>
       <use xlink:href="#DejaVuSans-38"/>
       <use xlink:href="#DejaVuSans-30" x="63.623047"/>
       <use xlink:href="#DejaVuSans-30" x="127.246094"/>
      </g>
     </g>
    </g>
    <g id="xtick_6">
     <g id="line2d_6">
      <g>
       <use xlink:href="#m27e0b2ebbd" x="739.973262" y="1281.6" style="stroke: #000000; stroke-width: 0.8"/>
      </g>
     </g>
     <g id="text_6">
      <!-- 1000 -->
      <g transform="translate(727.248262 1296.198437) scale(0.1 -0.1)">
       <defs>
        <path id="DejaVuSans-31" d="M 794 531 
L 1825 531 
L 1825 4091 
L 703 3866 
L 703 4441 
L 1819 4666 
L 2450 4666 
L 2450 531 
L 3481 531 
L 3481 0 
L 794 0 
L 794 531 
z
" transform="scale(0.015625)"/>
       </defs>
       <use xlink:href="#DejaVuSans-31"/>
       <use xlink:href="#DejaVuSans-30" x="63.623047"/>
       <use xlink:href="#DejaVuSans-30" x="127.246094"/>
       <use xlink:href="#DejaVuSans-30" x="190.869141"/>
      </g>
     </g>
    </g>
   </g>
   <g id="matplotlib.axis_2">
    <g id="ytick_1">
     <g id="line2d_7">
      <defs>
       <path id="mfe91581638" d="M 0 0 
L -3.5 0 
" style="stroke: #000000; stroke-width: 0.8"/>
      </defs>
      <g>
       <use xlink:href="#mfe91581638" x="270" y="1236.03069" style="stroke: #000000; stroke-width: 0.8"/>
      </g>
     </g>
     <g id="text_7">
      <!-- −14 -->
      <g transform="translate(241.895312 1239.829909) scale(0.1 -0.1)">
       <defs>
        <path id="DejaVuSans-2212" d="M 678 2272 
L 4684 2272 
L 4684 1741 
L 678 1741 
L 678 2272 
z
" transform="scale(0.015625)"/>
       </defs>
       <use xlink:href="#DejaVuSans-2212"/>
       <use xlink:href="#DejaVuSans-31" x="83.789062"/>
       <use xlink:href="#DejaVuSans-34" x="147.412109"/>
      </g>
     </g>
    </g>
    <g id="ytick_2">
     <g id="line2d_8">
      <g>
       <use xlink:href="#mfe91581638" x="270" y="1093.37848" style="stroke: #000000; stroke-width: 0.8"/>
      </g>
     </g>
     <g id="text_8">
      <!-- −12 -->
      <g transform="translate(241.895312 1097.177699) scale(0.1 -0.1)">
       <use xlink:href="#DejaVuSans-2212"/>
       <use xlink:href="#DejaVuSans-31" x="83.789062"/>
       <use xlink:href="#DejaVuSans-32" x="147.412109"/>
      </g>
     </g>
    </g>
    <g id="ytick_3">
     <g id="line2d_9">
      <g>
       <use xlink:href="#mfe91581638" x="270" y="950.72627" style="stroke: #000000; stroke-width: 0.8"/>
      </g>
     </g>
     <g id="text_9">
      <!-- −10 -->
      <g transform="translate(241.895312 954.525489) scale(0.1 -0.1)">
       <use xlink:href="#DejaVuSans-2212"/>
       <use xlink:href="#DejaVuSans-31" x="83.789062"/>
       <use xlink:href="#DejaVuSans-30" x="147.412109"/>
      </g>
     </g>
    </g>
    <g id="ytick_4">
     <g id="line2d_10">
      <g>
       <use xlink:href="#mfe91581638" x="270" y="808.07406" style="stroke: #000000; stroke-width: 0.8"/>
      </g>
     </g>
     <g id="text_10">
      <!-- −8 -->
      <g transform="translate(248.257812 811.873279) scale(0.1 -0.1)">
       <use xlink:href="#DejaVuSans-2212"/>
       <use xlink:href="#DejaVuSans-38" x="83.789062"/>
      </g>
     </g>
    </g>
    <g id="ytick_5">
     <g id="line2d_11">
      <g>
       <use xlink:href="#mfe91581638" x="270" y="665.421851" style="stroke: #000000; stroke-width: 0.8"/>
      </g>
     </g>
     <g id="text_11">
      <!-- −6 -->
      <g transform="translate(248.257812 669.221069) scale(0.1 -0.1)">
       <use xlink:href="#DejaVuSans-2212"/>
       <use xlink:href="#DejaVuSans-36" x="83.789062"/>
      </g>
     </g>
    </g>
    <g id="ytick_6">
     <g id="line2d_12">
      <g>
       <use xlink:href="#mfe91581638" x="270" y="522.769641" style="stroke: #000000; stroke-width: 0.8"/>
      </g>
     </g>
     <g id="text_12">
      <!-- −4 -->
      <g transform="translate(248.257812 526.568859) scale(0.1 -0.1)">
       <use xlink:href="#DejaVuSans-2212"/>
       <use xlink:href="#DejaVuSans-34" x="83.789062"/>
      </g>
     </g>
    </g>
    <g id="ytick_7">
     <g id="line2d_13">
      <g>
       <use xlink:href="#mfe91581638" x="270" y="380.117431" style="stroke: #000000; stroke-width: 0.8"/>
      </g>
     </g>
     <g id="text_13">
      <!-- −2 -->
      <g transform="translate(248.257812 383.91665) scale(0.1 -0.1)">
       <use xlink:href="#DejaVuSans-2212"/>
       <use xlink:href="#DejaVuSans-32" x="83.789062"/>
      </g>
     </g>
    </g>
    <g id="ytick_8">
     <g id="line2d_14">
      <g>
       <use xlink:href="#mfe91581638" x="270" y="237.465221" style="stroke: #000000; stroke-width: 0.8"/>
      </g>
     </g>
     <g id="text_14">
      <!-- 0 -->
      <g transform="translate(256.6375 241.26444) scale(0.1 -0.1)">
       <use xlink:href="#DejaVuSans-30"/>
      </g>
     </g>
    </g>
   </g>
   <g id="line2d_15">
    <path d="M 292.379679 237.465221 
L 314.78176 237.465221 
L 315.229802 223.2 
L 316.573927 223.2 
L 317.021968 232.710147 
L 318.366093 232.710147 
L 318.814135 248.877398 
L 320.15826 248.877398 
L 320.606301 250.706272 
L 321.950426 250.706272 
L 322.398468 268.838256 
L 323.742593 268.838256 
L 324.190634 276.719351 
L 325.534759 276.719351 
L 325.982801 285.153946 
L 327.326926 285.153946 
L 327.774967 292.561355 
L 329.119092 292.561355 
L 329.567134 302.169378 
L 330.911259 302.169378 
L 331.3593 309.480628 
L 334.495592 309.480628 
L 334.943633 303.427945 
L 338.079925 303.427945 
L 338.527966 312.033281 
L 339.872091 312.033281 
L 340.320133 304.76199 
L 341.664258 304.76199 
L 342.112299 298.896141 
L 345.248591 298.896141 
L 345.696632 300.369223 
L 347.040757 300.369223 
L 347.488799 293.130017 
L 350.62509 293.130017 
L 351.073132 285.919806 
L 352.417257 285.919806 
L 352.865298 278.737208 
L 354.209423 278.737208 
L 354.657465 285.391464 
L 356.00159 285.391464 
L 356.449631 274.584478 
L 359.585923 274.584478 
L 360.033964 264.568961 
L 361.378089 264.568961 
L 361.826131 270.870301 
L 363.170256 270.870301 
L 363.618297 264.568961 
L 364.962422 264.568961 
L 365.410464 274.194802 
L 368.546755 274.194802 
L 368.994797 280.989188 
L 370.338922 280.989188 
L 370.786963 292.824607 
L 372.131088 292.824607 
L 372.57913 291.045846 
L 373.923255 291.045846 
L 374.371296 295.524658 
L 375.715421 295.524658 
L 376.163463 293.814936 
L 377.507588 293.814936 
L 377.955629 292.143351 
L 379.299754 292.143351 
L 379.747796 295.074871 
L 381.091921 295.074871 
L 381.539962 311.859624 
L 382.884087 311.859624 
L 383.332129 305.877212 
L 384.676254 305.877212 
L 385.124295 310.519913 
L 386.46842 310.519913 
L 386.916462 327.088036 
L 388.260587 327.088036 
L 388.708628 332.746748 
L 390.052753 332.746748 
L 390.500795 337.737977 
L 395.429253 337.737977 
L 395.877294 343.271555 
L 397.221419 343.271555 
L 397.669461 353.796362 
L 399.013586 353.796362 
L 399.461627 348.271586 
L 400.805752 348.271586 
L 401.253794 358.814478 
L 402.597919 358.814478 
L 403.04596 369.260404 
L 404.390085 369.260404 
L 404.838127 374.303114 
L 406.182252 374.303114 
L 406.630293 390.248297 
L 407.974418 390.248297 
L 408.42246 400.962749 
L 409.766585 400.962749 
L 410.214626 417.098042 
L 411.558751 417.098042 
L 412.006793 432.962649 
L 413.350918 432.962649 
L 413.798959 443.620414 
L 415.143084 443.620414 
L 415.591126 449.070979 
L 416.935251 449.070979 
L 417.383292 459.728745 
L 418.727417 459.728745 
L 419.175459 454.5947 
L 420.519584 454.5947 
L 420.967625 444.452407 
L 422.31175 444.452407 
L 422.759792 434.427234 
L 424.103917 434.427234 
L 424.551958 429.414647 
L 425.896083 429.414647 
L 426.344125 440.129238 
L 429.480416 440.177172 
L 429.928458 441.095455 
L 431.272583 441.095455 
L 431.720624 457.78534 
L 434.856916 457.779534 
L 435.304957 448.164284 
L 436.649082 448.164284 
L 437.097124 443.362216 
L 438.441249 443.362216 
L 438.88929 433.773944 
L 440.233415 433.773944 
L 440.681457 444.729604 
L 442.025582 444.729604 
L 442.473623 449.521133 
L 445.609915 449.521133 
L 446.057956 454.312662 
L 447.402081 454.312662 
L 447.850123 449.526034 
L 449.194248 449.526034 
L 449.642289 446.226477 
L 450.986414 446.226477 
L 451.434456 436.756198 
L 452.778581 436.756198 
L 453.226622 438.347634 
L 454.570747 438.347634 
L 455.018789 446.420399 
L 456.362914 446.420399 
L 456.810955 448.197335 
L 458.15508 448.197335 
L 458.603122 443.499356 
L 461.739413 443.499356 
L 462.187455 454.64577 
L 463.53158 454.64577 
L 463.979621 450.013249 
L 465.323746 450.013249 
L 465.771788 445.384419 
L 467.115913 445.384419 
L 467.563954 447.317917 
L 468.908079 447.317917 
L 469.356121 449.290841 
L 470.700246 449.290841 
L 471.148287 455.903296 
L 472.492412 455.903296 
L 472.940454 467.160978 
L 474.284579 467.160978 
L 474.73262 485.090086 
L 476.076745 485.090086 
L 476.524787 496.347766 
L 477.868912 496.347766 
L 478.316953 512.184982 
L 479.661078 512.184982 
L 480.10912 530.120856 
L 481.453245 530.120856 
L 481.901286 545.92501 
L 483.245411 545.92501 
L 483.693453 568.501935 
L 485.037578 568.501935 
L 485.485619 586.572144 
L 486.829744 586.572144 
L 487.277786 591.127478 
L 488.621911 591.127478 
L 489.069952 609.242288 
L 490.414077 609.242288 
L 490.862119 611.475377 
L 492.206244 611.475377 
L 492.654285 625.081883 
L 495.790577 625.081883 
L 496.238618 631.884138 
L 499.37491 631.896711 
L 499.822951 638.706815 
L 501.167076 638.706815 
L 501.615118 634.197352 
L 504.751409 634.1948 
L 505.199451 641.053902 
L 506.543576 641.053902 
L 506.991617 652.41131 
L 508.335742 652.41131 
L 508.783784 643.461375 
L 510.127909 643.461375 
L 510.57595 645.928931 
L 511.920075 645.928931 
L 512.368117 637.034036 
L 513.712242 637.034036 
L 514.160283 623.745367 
L 515.504408 623.745367 
L 515.95245 630.722163 
L 517.296575 630.722163 
L 517.744616 617.470555 
L 519.088741 617.470555 
L 519.536783 628.886409 
L 520.880908 628.886409 
L 521.328949 627.068538 
L 526.257407 627.068538 
L 526.705449 622.683979 
L 528.049574 622.683979 
L 528.497615 613.924954 
L 529.84174 613.924954 
L 530.289782 605.17214 
L 531.633907 605.17214 
L 532.081948 587.696489 
L 533.426073 587.696489 
L 533.874115 570.29934 
L 535.21824 570.29934 
L 535.666281 557.289682 
L 537.010406 557.289682 
L 537.458448 544.312096 
L 538.802573 544.312096 
L 539.250614 539.993776 
L 540.594739 539.993776 
L 541.042781 527.060077 
L 542.386906 527.060077 
L 542.834947 518.447513 
L 545.971239 518.451017 
L 546.41928 514.152462 
L 547.763405 514.152462 
L 548.211447 501.271323 
L 549.555572 501.271323 
L 550.003613 512.822773 
L 551.347738 512.822773 
L 551.79578 499.964821 
L 553.139905 499.964821 
L 553.587946 514.532719 
L 554.932071 514.532719 
L 555.380113 541.944008 
L 556.724238 541.944008 
L 557.172279 537.669063 
L 558.516404 537.669063 
L 558.964446 536.423574 
L 560.308571 536.423574 
L 560.756612 519.35776 
L 562.100737 519.35776 
L 562.548779 526.684811 
L 563.892904 526.684811 
L 564.340945 545.603148 
L 565.68507 545.603148 
L 566.133112 563.389749 
L 567.477237 563.389749 
L 567.925278 574.98111 
L 569.269403 574.98111 
L 569.717445 595.048002 
L 571.06157 595.048002 
L 571.509611 614.014661 
L 572.853736 614.014661 
L 573.301778 625.616486 
L 574.645903 625.616486 
L 575.093944 632.999587 
L 576.438069 632.999587 
L 576.886111 635.109003 
L 578.230236 635.109003 
L 578.678277 654.11948 
L 580.022402 654.11948 
L 580.470444 669.953286 
L 581.814569 669.953286 
L 582.26261 673.148361 
L 583.606735 673.148361 
L 584.054777 680.558121 
L 585.398902 680.558121 
L 585.846943 702.813211 
L 587.191068 702.813211 
L 587.63911 721.869158 
L 588.983235 721.869158 
L 589.431276 755.823153 
L 590.775401 755.823153 
L 591.223443 797.278344 
L 592.567568 797.278344 
L 593.015609 812.196994 
L 594.359734 812.196994 
L 594.807776 842.972834 
L 596.151901 842.972834 
L 596.599942 868.684766 
L 597.944067 868.684766 
L 598.392109 864.500075 
L 599.736234 864.500075 
L 600.184275 856.137988 
L 601.5284 856.137988 
L 601.976442 847.779543 
L 605.112733 847.778428 
L 605.560775 843.602524 
L 606.9049 843.602524 
L 607.352941 839.425516 
L 608.697066 839.425516 
L 609.145108 831.078418 
L 610.489233 831.078418 
L 610.937274 826.063674 
L 612.281399 826.063674 
L 612.729441 825.225001 
L 614.073566 825.225001 
L 614.521607 843.575442 
L 615.865732 843.575442 
L 616.313774 839.409595 
L 617.657899 839.409595 
L 618.10594 846.920994 
L 619.450065 846.920994 
L 619.898107 861.950364 
L 621.242232 861.950364 
L 621.690273 861.140133 
L 623.034398 861.140133 
L 623.48244 868.661354 
L 624.826565 868.661354 
L 625.274606 878.761869 
L 626.618731 878.761869 
L 627.066773 882.135752 
L 628.410898 882.135752 
L 628.858939 888.89003 
L 630.203064 888.89003 
L 630.651106 893.040799 
L 631.995231 893.040799 
L 632.443272 888.127737 
L 633.787397 888.127737 
L 634.235439 887.370484 
L 635.579564 887.370484 
L 636.027605 899.061348 
L 637.37173 899.061348 
L 637.819772 886.618323 
L 639.163897 886.618323 
L 639.611938 890.017146 
L 640.956063 890.017146 
L 641.404105 908.519152 
L 642.74823 908.519152 
L 643.196271 904.375131 
L 644.540396 904.375131 
L 644.988438 915.337649 
L 646.332563 915.337649 
L 646.780604 926.311849 
L 648.124729 926.311849 
L 648.572771 937.290557 
L 649.916896 937.290557 
L 650.364937 972.397871 
L 651.709062 972.397871 
L 652.157104 976.536143 
L 653.501229 976.536143 
L 653.94927 992.380216 
L 655.293395 992.380216 
L 655.741437 991.685657 
L 657.085561 991.685657 
L 657.533603 995.820164 
L 660.669894 995.820164 
L 661.117936 1004.087613 
L 662.462061 1004.087613 
L 662.910103 1003.403358 
L 664.254227 1003.403358 
L 664.702269 998.592002 
L 666.046394 998.592002 
L 666.494436 997.918705 
L 667.83856 997.918705 
L 668.286602 1001.382245 
L 669.630727 1001.382245 
L 670.078769 1008.311338 
L 671.422893 1008.311338 
L 671.870935 1004.186177 
L 673.21506 1004.186177 
L 673.663102 1003.531417 
L 675.007226 1003.531417 
L 675.455268 1018.723978 
L 676.799393 1018.723978 
L 677.247435 1025.677649 
L 678.591559 1025.677649 
L 679.039601 1029.157004 
L 680.383726 1029.157004 
L 680.831768 1020.920442 
L 682.175892 1020.920442 
L 682.623934 1027.900053 
L 683.968059 1027.900053 
L 684.416101 1019.670336 
L 685.760225 1019.670336 
L 686.208267 1018.441729 
L 687.552392 1018.441729 
L 688.000434 1041.287102 
L 691.136725 1041.287102 
L 691.584767 1048.908069 
L 692.928891 1048.908069 
L 693.376933 1052.422039 
L 696.513224 1052.424042 
L 696.961266 1051.840116 
L 698.305391 1051.840116 
L 698.753433 1071.203841 
L 700.097557 1071.203841 
L 700.545599 1062.994544 
L 701.889724 1062.994544 
L 702.337766 1058.889896 
L 703.68189 1058.889896 
L 704.129932 1062.419508 
L 705.474057 1062.419508 
L 705.922099 1054.212471 
L 709.05839 1054.212471 
L 709.506432 1050.109205 
L 710.850556 1050.109205 
L 711.298598 1046.006439 
L 712.642723 1046.006439 
L 713.090765 1033.700828 
L 714.434889 1033.700828 
L 714.882931 1025.499022 
L 716.227056 1025.499022 
L 716.675098 1013.197317 
L 718.019222 1013.197317 
L 718.467264 1004.997303 
L 719.811389 1004.997303 
L 720.259431 996.799052 
L 721.603555 996.799052 
L 722.051597 984.504858 
L 723.395722 984.504858 
L 723.843764 1027.391207 
L 725.187888 1027.391207 
L 725.63593 1050.88477 
L 726.980055 1050.88477 
L 727.428097 1078.475719 
L 728.772221 1078.475719 
L 729.220263 1090.223914 
L 730.564388 1090.223914 
L 731.01243 1101.972108 
L 732.356554 1101.972108 
L 732.804596 1133.121127 
L 734.148721 1133.121127 
L 734.596763 1156.618591 
L 735.940887 1156.618591 
L 736.388929 1184.208943 
L 737.733054 1184.208943 
L 738.181096 1219.452101 
L 739.52522 1219.452101 
L 739.973262 1231.2 
L 739.973262 1231.2 
" clip-path="url(#pb1c3d93d58)" style="fill: none; stroke: #0000ff; stroke-width: 1.5; stroke-linecap: square"/>
   </g>
   <g id="patch_3">
    <path d="M 270 1281.6 
L 270 172.8 
" style="fill: none; stroke: #000000; stroke-width: 0.8; stroke-linejoin: miter; stroke-linecap: square"/>
   </g>
   <g id="patch_4">
    <path d="M 762.352941 1281.6 
L 762.352941 172.8 
" style="fill: none; stroke: #000000; stroke-width: 0.8; stroke-linejoin: miter; stroke-linecap: square"/>
   </g>
   <g id="patch_5">
    <path d="M 270 1281.6 
L 762.352941 1281.6 
" style="fill: none; stroke: #000000; stroke-width: 0.8; stroke-linejoin: miter; stroke-linecap: square"/>
   </g>
   <g id="patch_6">
    <path d="M 270 172.8 
L 762.352941 172.8 
" style="fill: none; stroke: #000000; stroke-width: 0.8; stroke-linejoin: miter; stroke-linecap: square"/>
   </g>
   <g id="legend_1">
    <g id="patch_7">
     <path d="M 671.310754 195.478125 
L 755.352941 195.478125 
Q 757.352941 195.478125 757.352941 193.478125 
L 757.352941 179.8 
Q 757.352941 177.8 755.352941 177.8 
L 671.310754 177.8 
Q 669.310754 177.8 669.310754 179.8 
L 669.310754 193.478125 
Q 669.310754 195.478125 671.310754 195.478125 
z
" style="fill: #ffffff; opacity: 0.8; stroke: #cccccc; stroke-linejoin: miter"/>
    </g>
    <g id="line2d_16">
     <path d="M 673.310754 185.898437 
L 683.310754 185.898437 
L 693.310754 185.898437 
" style="fill: none; stroke: #0000ff; stroke-width: 1.5; stroke-linecap: square"/>
    </g>
    <g id="text_15">
     <!-- O1 reward -->
     <g transform="translate(701.310754 189.398437) scale(0.1 -0.1)">
      <defs>
       <path id="DejaVuSans-4f" d="M 2522 4238 
Q 1834 4238 1429 3725 
Q 1025 3213 1025 2328 
Q 1025 1447 1429 934 
Q 1834 422 2522 422 
Q 3209 422 3611 934 
Q 4013 1447 4013 2328 
Q 4013 3213 3611 3725 
Q 3209 4238 2522 4238 
z
M 2522 4750 
Q 3503 4750 4090 4092 
Q 4678 3434 4678 2328 
Q 4678 1225 4090 567 
Q 3503 -91 2522 -91 
Q 1538 -91 948 565 
Q 359 1222 359 2328 
Q 359 3434 948 4092 
Q 1538 4750 2522 4750 
z
" transform="scale(0.015625)"/>
       <path id="DejaVuSans-20" transform="scale(0.015625)"/>
       <path id="DejaVuSans-72" d="M 2631 2963 
Q 2534 3019 2420 3045 
Q 2306 3072 2169 3072 
Q 1681 3072 1420 2755 
Q 1159 2438 1159 1844 
L 1159 0 
L 581 0 
L 581 3500 
L 1159 3500 
L 1159 2956 
Q 1341 3275 1631 3429 
Q 1922 3584 2338 3584 
Q 2397 3584 2469 3576 
Q 2541 3569 2628 3553 
L 2631 2963 
z
" transform="scale(0.015625)"/>
       <path id="DejaVuSans-65" d="M 3597 1894 
L 3597 1613 
L 953 1613 
Q 991 1019 1311 708 
Q 1631 397 2203 397 
Q 2534 397 2845 478 
Q 3156 559 3463 722 
L 3463 178 
Q 3153 47 2828 -22 
Q 2503 -91 2169 -91 
Q 1331 -91 842 396 
Q 353 884 353 1716 
Q 353 2575 817 3079 
Q 1281 3584 2069 3584 
Q 2775 3584 3186 3129 
Q 3597 2675 3597 1894 
z
M 3022 2063 
Q 3016 2534 2758 2815 
Q 2500 3097 2075 3097 
Q 1594 3097 1305 2825 
Q 1016 2553 972 2059 
L 3022 2063 
z
" transform="scale(0.015625)"/>
       <path id="DejaVuSans-77" d="M 269 3500 
L 844 3500 
L 1563 769 
L 2278 3500 
L 2956 3500 
L 3675 769 
L 4391 3500 
L 4966 3500 
L 4050 0 
L 3372 0 
L 2619 2869 
L 1863 0 
L 1184 0 
L 269 3500 
z
" transform="scale(0.015625)"/>
       <path id="DejaVuSans-61" d="M 2194 1759 
Q 1497 1759 1228 1600 
Q 959 1441 959 1056 
Q 959 750 1161 570 
Q 1363 391 1709 391 
Q 2188 391 2477 730 
Q 2766 1069 2766 1631 
L 2766 1759 
L 2194 1759 
z
M 3341 1997 
L 3341 0 
L 2766 0 
L 2766 531 
Q 2569 213 2275 61 
Q 1981 -91 1556 -91 
Q 1019 -91 701 211 
Q 384 513 384 1019 
Q 384 1609 779 1909 
Q 1175 2209 1959 2209 
L 2766 2209 
L 2766 2266 
Q 2766 2663 2505 2880 
Q 2244 3097 1772 3097 
Q 1472 3097 1187 3025 
Q 903 2953 641 2809 
L 641 3341 
Q 956 3463 1253 3523 
Q 1550 3584 1831 3584 
Q 2591 3584 2966 3190 
Q 3341 2797 3341 1997 
z
" transform="scale(0.015625)"/>
       <path id="DejaVuSans-64" d="M 2906 2969 
L 2906 4863 
L 3481 4863 
L 3481 0 
L 2906 0 
L 2906 525 
Q 2725 213 2448 61 
Q 2172 -91 1784 -91 
Q 1150 -91 751 415 
Q 353 922 353 1747 
Q 353 2572 751 3078 
Q 1150 3584 1784 3584 
Q 2172 3584 2448 3432 
Q 2725 3281 2906 2969 
z
M 947 1747 
Q 947 1113 1208 752 
Q 1469 391 1925 391 
Q 2381 391 2643 752 
Q 2906 1113 2906 1747 
Q 2906 2381 2643 2742 
Q 2381 3103 1925 3103 
Q 1469 3103 1208 2742 
Q 947 2381 947 1747 
z
" transform="scale(0.015625)"/>
      </defs>
      <use xlink:href="#DejaVuSans-4f"/>
      <use xlink:href="#DejaVuSans-31" x="78.710938"/>
      <use xlink:href="#DejaVuSans-20" x="142.333984"/>
      <use xlink:href="#DejaVuSans-72" x="174.121094"/>
      <use xlink:href="#DejaVuSans-65" x="212.984375"/>
      <use xlink:href="#DejaVuSans-77" x="274.507812"/>
      <use xlink:href="#DejaVuSans-61" x="356.294922"/>
      <use xlink:href="#DejaVuSans-72" x="417.574219"/>
      <use xlink:href="#DejaVuSans-64" x="456.9375"/>
     </g>
    </g>
   </g>
  </g>
  <g id="axes_2">
   <g id="patch_8">
    <path d="M 860.823529 1281.6 
L 1353.176471 1281.6 
L 1353.176471 172.8 
L 860.823529 172.8 
z
" style="fill: #ffffff"/>
   </g>
   <g id="matplotlib.axis_3">
    <g id="xtick_7">
     <g id="line2d_17">
      <g>
       <use xlink:href="#m27e0b2ebbd" x="882.755167" y="1281.6" style="stroke: #000000; stroke-width: 0.8"/>
      </g>
     </g>
     <g id="text_16">
      <!-- 0 -->
      <g transform="translate(879.573917 1296.198437) scale(0.1 -0.1)">
       <use xlink:href="#DejaVuSans-30"/>
      </g>
     </g>
    </g>
    <g id="xtick_8">
     <g id="line2d_18">
      <g>
       <use xlink:href="#m27e0b2ebbd" x="972.363492" y="1281.6" style="stroke: #000000; stroke-width: 0.8"/>
      </g>
     </g>
     <g id="text_17">
      <!-- 200 -->
      <g transform="translate(962.819742 1296.198437) scale(0.1 -0.1)">
       <use xlink:href="#DejaVuSans-32"/>
       <use xlink:href="#DejaVuSans-30" x="63.623047"/>
       <use xlink:href="#DejaVuSans-30" x="127.246094"/>
      </g>
     </g>
    </g>
    <g id="xtick_9">
     <g id="line2d_19">
      <g>
       <use xlink:href="#m27e0b2ebbd" x="1061.971817" y="1281.6" style="stroke: #000000; stroke-width: 0.8"/>
      </g>
     </g>
     <g id="text_18">
      <!-- 400 -->
      <g transform="translate(1052.428067 1296.198437) scale(0.1 -0.1)">
       <use xlink:href="#DejaVuSans-34"/>
       <use xlink:href="#DejaVuSans-30" x="63.623047"/>
       <use xlink:href="#DejaVuSans-30" x="127.246094"/>
      </g>
     </g>
    </g>
    <g id="xtick_10">
     <g id="line2d_20">
      <g>
       <use xlink:href="#m27e0b2ebbd" x="1151.580142" y="1281.6" style="stroke: #000000; stroke-width: 0.8"/>
      </g>
     </g>
     <g id="text_19">
      <!-- 600 -->
      <g transform="translate(1142.036392 1296.198437) scale(0.1 -0.1)">
       <use xlink:href="#DejaVuSans-36"/>
       <use xlink:href="#DejaVuSans-30" x="63.623047"/>
       <use xlink:href="#DejaVuSans-30" x="127.246094"/>
      </g>
     </g>
    </g>
    <g id="xtick_11">
     <g id="line2d_21">
      <g>
       <use xlink:href="#m27e0b2ebbd" x="1241.188467" y="1281.6" style="stroke: #000000; stroke-width: 0.8"/>
      </g>
     </g>
     <g id="text_20">
      <!-- 800 -->
      <g transform="translate(1231.644717 1296.198437) scale(0.1 -0.1)">
       <use xlink:href="#DejaVuSans-38"/>
       <use xlink:href="#DejaVuSans-30" x="63.623047"/>
       <use xlink:href="#DejaVuSans-30" x="127.246094"/>
      </g>
     </g>
    </g>
    <g id="xtick_12">
     <g id="line2d_22">
      <g>
       <use xlink:href="#m27e0b2ebbd" x="1330.796791" y="1281.6" style="stroke: #000000; stroke-width: 0.8"/>
      </g>
     </g>
     <g id="text_21">
      <!-- 1000 -->
      <g transform="translate(1318.071791 1296.198437) scale(0.1 -0.1)">
       <use xlink:href="#DejaVuSans-31"/>
       <use xlink:href="#DejaVuSans-30" x="63.623047"/>
       <use xlink:href="#DejaVuSans-30" x="127.246094"/>
       <use xlink:href="#DejaVuSans-30" x="190.869141"/>
      </g>
     </g>
    </g>
   </g>
   <g id="matplotlib.axis_4">
    <g id="ytick_9">
     <g id="line2d_23">
      <g>
       <use xlink:href="#mfe91581638" x="860.823529" y="1231.2" style="stroke: #000000; stroke-width: 0.8"/>
      </g>
     </g>
     <g id="text_22">
      <!-- 0 -->
      <g transform="translate(847.461029 1234.999219) scale(0.1 -0.1)">
       <use xlink:href="#DejaVuSans-30"/>
      </g>
     </g>
    </g>
    <g id="ytick_10">
     <g id="line2d_24">
      <g>
       <use xlink:href="#mfe91581638" x="860.823529" y="996.128082" style="stroke: #000000; stroke-width: 0.8"/>
      </g>
     </g>
     <g id="text_23">
      <!-- 20 -->
      <g transform="translate(841.098529 999.927301) scale(0.1 -0.1)">
       <use xlink:href="#DejaVuSans-32"/>
       <use xlink:href="#DejaVuSans-30" x="63.623047"/>
      </g>
     </g>
    </g>
    <g id="ytick_11">
     <g id="line2d_25">
      <g>
       <use xlink:href="#mfe91581638" x="860.823529" y="761.056164" style="stroke: #000000; stroke-width: 0.8"/>
      </g>
     </g>
     <g id="text_24">
      <!-- 40 -->
      <g transform="translate(841.098529 764.855382) scale(0.1 -0.1)">
       <use xlink:href="#DejaVuSans-34"/>
       <use xlink:href="#DejaVuSans-30" x="63.623047"/>
      </g>
     </g>
    </g>
    <g id="ytick_12">
     <g id="line2d_26">
      <g>
       <use xlink:href="#mfe91581638" x="860.823529" y="525.984245" style="stroke: #000000; stroke-width: 0.8"/>
      </g>
     </g>
     <g id="text_25">
      <!-- 60 -->
      <g transform="translate(841.098529 529.783464) scale(0.1 -0.1)">
       <use xlink:href="#DejaVuSans-36"/>
       <use xlink:href="#DejaVuSans-30" x="63.623047"/>
      </g>
     </g>
    </g>
    <g id="ytick_13">
     <g id="line2d_27">
      <g>
       <use xlink:href="#mfe91581638" x="860.823529" y="290.912327" style="stroke: #000000; stroke-width: 0.8"/>
      </g>
     </g>
     <g id="text_26">
      <!-- 80 -->
      <g transform="translate(841.098529 294.711546) scale(0.1 -0.1)">
       <use xlink:href="#DejaVuSans-38"/>
       <use xlink:href="#DejaVuSans-30" x="63.623047"/>
      </g>
     </g>
    </g>
   </g>
   <g id="line2d_28">
    <path d="M 883.203209 1231.2 
L 903.813123 1231.113104 
L 904.261165 1226.377821 
L 905.60529 1226.377821 
L 906.053331 1228.233697 
L 907.397456 1228.233697 
L 907.845498 1227.130008 
L 909.189623 1227.130008 
L 909.637664 1229.305791 
L 910.981789 1229.305791 
L 911.429831 1219.530472 
L 912.773956 1219.530472 
L 913.221997 1204.712529 
L 914.566122 1204.712529 
L 915.014164 1197.340915 
L 916.358289 1197.340915 
L 916.80633 1177.923425 
L 918.150455 1177.923425 
L 918.598497 1160.027882 
L 927.111288 1160.027882 
L 927.559329 1152.260932 
L 932.487787 1152.260932 
L 932.935829 1143.97734 
L 937.864287 1143.97734 
L 938.312328 1132.691089 
L 939.656453 1132.691089 
L 940.104495 1129.522001 
L 941.44862 1129.522001 
L 941.896661 1126.034796 
L 945.032953 1126.034796 
L 945.480994 1104.629311 
L 946.825119 1104.629311 
L 947.273161 1070.967395 
L 948.617286 1070.967395 
L 949.065327 1062.000181 
L 950.409452 1062.000181 
L 950.857494 1044.732347 
L 952.201619 1044.732347 
L 952.64966 1002.931421 
L 953.993785 1002.931421 
L 954.441827 973.837911 
L 973.707617 973.837911 
L 974.155658 965.259437 
L 979.084116 965.259437 
L 979.532158 956.807033 
L 980.876283 956.807033 
L 981.324324 948.266256 
L 982.668449 948.266256 
L 983.116491 939.639372 
L 986.252782 939.639372 
L 986.700824 936.594489 
L 993.421448 936.594489 
L 993.86949 933.467777 
L 995.213615 933.467777 
L 995.661656 912.711967 
L 997.005781 912.711967 
L 997.453823 896.861115 
L 998.797948 896.861115 
L 999.245989 861.732401 
L 1000.590114 861.732401 
L 1001.038156 830.828799 
L 1002.382281 830.828799 
L 1002.830322 806.470818 
L 1004.174447 806.470818 
L 1004.622489 776.517523 
L 1005.966614 776.517523 
L 1006.414655 740.137802 
L 1007.75878 740.137802 
L 1008.206822 723.867822 
L 1009.550947 723.867822 
L 1009.998988 701.334893 
L 1014.927446 701.334893 
L 1015.375488 696.247876 
L 1016.719613 696.247876 
L 1017.167654 685.729028 
L 1018.511779 685.729028 
L 1018.959821 692.988251 
L 1020.303946 692.988251 
L 1020.751987 696.440992 
L 1022.096112 696.440992 
L 1022.544154 703.613441 
L 1023.888279 703.613441 
L 1024.33632 707.315688 
L 1025.680445 707.315688 
L 1026.128487 710.679863 
L 1027.472612 710.679863 
L 1027.920653 700.315625 
L 1031.056945 700.315625 
L 1031.504986 693.26772 
L 1032.849111 693.26772 
L 1033.297153 690.020683 
L 1034.641278 690.020683 
L 1035.089319 679.838539 
L 1036.433444 679.838539 
L 1036.881486 659.753229 
L 1038.225611 659.753229 
L 1038.673652 650.136505 
L 1040.017777 650.136505 
L 1040.465819 641.776036 
L 1041.809944 641.776036 
L 1042.257985 636.36355 
L 1043.60211 636.36355 
L 1044.050152 627.473596 
L 1045.394277 627.473596 
L 1045.842318 636.275753 
L 1047.186443 636.275753 
L 1047.634485 655.994655 
L 1048.97861 655.994655 
L 1049.426651 649.813898 
L 1050.770776 649.813898 
L 1051.218818 632.856123 
L 1052.562943 632.856123 
L 1053.010984 618.467991 
L 1054.355109 618.467991 
L 1054.803151 620.545739 
L 1056.147276 620.545739 
L 1056.595317 606.881055 
L 1057.939442 606.881055 
L 1058.387484 595.138605 
L 1059.731609 595.138605 
L 1060.17965 593.235298 
L 1063.315942 593.165706 
L 1063.763983 595.013436 
L 1065.108108 595.013436 
L 1065.55615 591.397778 
L 1066.900275 591.397778 
L 1067.348316 580.111164 
L 1068.692441 580.111164 
L 1069.140483 581.806017 
L 1070.484608 581.806017 
L 1070.932649 577.966152 
L 1072.276774 577.966152 
L 1072.724816 566.968988 
L 1074.068941 566.968988 
L 1074.516982 559.904816 
L 1075.861107 559.904816 
L 1076.309149 552.897524 
L 1077.653274 552.897524 
L 1078.101315 549.082002 
L 1079.44544 549.082002 
L 1079.893482 546.816682 
L 1083.029773 546.816682 
L 1083.477815 560.517551 
L 1084.82194 560.517551 
L 1085.269981 567.265858 
L 1086.614106 567.265858 
L 1087.062148 564.864971 
L 1088.406273 564.864971 
L 1088.854314 570.01699 
L 1090.198439 570.01699 
L 1090.646481 571.293339 
L 1091.990606 571.293339 
L 1092.438647 585.260372 
L 1093.782772 585.260372 
L 1094.230814 587.927047 
L 1095.574939 587.927047 
L 1096.02298 599.086926 
L 1097.367105 599.086926 
L 1097.815147 598.542584 
L 1099.159272 598.542584 
L 1099.607313 587.670982 
L 1100.951438 587.670982 
L 1101.39948 580.713245 
L 1102.743605 580.713245 
L 1103.191646 579.684607 
L 1104.535771 579.684607 
L 1104.983813 573.851041 
L 1106.327938 573.851041 
L 1106.775979 564.231304 
L 1108.120104 564.231304 
L 1108.568146 568.084418 
L 1109.912271 568.084418 
L 1110.360312 571.931131 
L 1111.704437 571.931131 
L 1112.152479 571.015072 
L 1113.496604 571.015072 
L 1113.944645 567.155491 
L 1115.28877 567.155491 
L 1115.736812 556.801029 
L 1117.080937 556.801029 
L 1117.528978 550.376313 
L 1120.66527 550.376313 
L 1121.113311 544.875794 
L 1122.457436 544.875794 
L 1122.905478 551.103306 
L 1124.249603 551.103306 
L 1124.697644 561.803227 
L 1126.041769 561.803227 
L 1126.489811 564.969064 
L 1127.833936 564.969064 
L 1128.281977 564.328473 
L 1129.626102 564.328473 
L 1130.074144 563.083773 
L 1131.418269 563.083773 
L 1131.86631 565.781659 
L 1133.210435 565.781659 
L 1133.658477 555.904585 
L 1135.002602 555.904585 
L 1135.450643 531.655419 
L 1136.794768 531.655419 
L 1137.24281 517.361014 
L 1138.586935 517.361014 
L 1139.034976 498.562506 
L 1140.379101 498.562506 
L 1140.827143 479.642245 
L 1142.171268 479.642245 
L 1142.619309 461.721293 
L 1143.963434 461.721293 
L 1144.411476 452.362402 
L 1145.755601 452.362402 
L 1146.203642 439.259965 
L 1147.547767 439.259965 
L 1147.995809 421.603091 
L 1149.339934 421.603091 
L 1149.787975 412.882251 
L 1151.1321 412.882251 
L 1151.580142 399.940357 
L 1152.924267 399.940357 
L 1153.372308 404.42345 
L 1154.716433 404.42345 
L 1155.164475 396.702332 
L 1156.5086 396.702332 
L 1156.956641 409.177539 
L 1158.300766 409.177539 
L 1158.748808 409.529278 
L 1160.092933 409.529278 
L 1160.540974 409.820459 
L 1161.885099 409.820459 
L 1162.333141 406.095757 
L 1163.677266 406.095757 
L 1164.125307 406.225031 
L 1165.469432 406.225031 
L 1165.917474 406.461069 
L 1167.261598 406.461069 
L 1167.70964 418.594874 
L 1169.053765 418.594874 
L 1169.501807 426.486484 
L 1170.845931 426.486484 
L 1171.293973 430.347123 
L 1172.638098 430.347123 
L 1173.08614 426.480137 
L 1174.430264 426.480137 
L 1174.878306 422.45726 
L 1176.222431 422.45726 
L 1176.670473 414.583632 
L 1178.014597 414.583632 
L 1178.462639 406.799924 
L 1181.59893 406.784304 
L 1182.046972 410.701493 
L 1183.391097 410.701493 
L 1183.839139 406.916102 
L 1185.183263 406.916102 
L 1185.631305 403.153091 
L 1186.97543 403.153091 
L 1187.423472 403.289727 
L 1188.767596 403.289727 
L 1189.215638 418.605649 
L 1190.559763 418.605649 
L 1191.007805 422.541633 
L 1192.351929 422.541633 
L 1192.799971 411.984383 
L 1194.144096 411.984383 
L 1194.592138 415.980149 
L 1195.936262 415.980149 
L 1196.384304 420.289248 
L 1197.728429 420.289248 
L 1198.176471 416.594774 
L 1199.520595 416.594774 
L 1199.968637 416.937561 
L 1201.312762 416.937561 
L 1201.760804 421.772311 
L 1203.104928 421.772311 
L 1203.55297 423.091763 
L 1206.689261 423.09428 
L 1207.137303 412.252709 
L 1208.481428 412.252709 
L 1208.92947 405.052673 
L 1210.273594 405.052673 
L 1210.721636 401.456237 
L 1212.065761 401.456237 
L 1212.513803 394.27553 
L 1213.857927 394.27553 
L 1214.305969 390.691241 
L 1215.650094 390.691241 
L 1216.098136 387.109279 
L 1217.44226 387.109279 
L 1217.890302 379.952195 
L 1219.234427 379.952195 
L 1219.682469 372.804006 
L 1221.026593 372.804006 
L 1221.474635 365.664464 
L 1222.81876 365.664464 
L 1223.266802 362.097889 
L 1224.610926 362.097889 
L 1225.058968 351.430296 
L 1226.403093 351.430296 
L 1226.851135 344.341559 
L 1228.195259 344.341559 
L 1228.643301 340.800236 
L 1231.779592 340.800236 
L 1232.227634 337.260919 
L 1233.571759 337.260919 
L 1234.019801 326.666399 
L 1235.363925 326.666399 
L 1235.811967 316.110488 
L 1237.156092 316.110488 
L 1237.604134 305.597316 
L 1238.948258 305.597316 
L 1239.3963 298.610305 
L 1240.740425 298.610305 
L 1241.188467 288.164361 
L 1242.532591 288.164361 
L 1242.980633 300.22345 
L 1244.324758 300.22345 
L 1244.7728 309.679735 
L 1246.116924 309.679735 
L 1246.564966 312.326266 
L 1247.909091 312.326266 
L 1248.357133 315.056158 
L 1249.701257 315.056158 
L 1250.149299 323.723127 
L 1253.28559 323.743384 
L 1253.733632 321.050797 
L 1255.077757 321.050797 
L 1255.525799 325.418601 
L 1256.869923 325.418601 
L 1257.317965 321.934001 
L 1258.66209 321.934001 
L 1259.110132 324.138313 
L 1260.454256 324.138313 
L 1260.902298 310.921288 
L 1262.246423 310.921288 
L 1262.694465 297.755749 
L 1264.038589 297.755749 
L 1264.486631 284.637519 
L 1265.830756 284.637519 
L 1266.278798 274.843628 
L 1267.622922 274.843628 
L 1268.070964 265.087393 
L 1269.415089 265.087393 
L 1269.863131 258.598942 
L 1271.207255 258.598942 
L 1271.655297 248.892063 
L 1272.999422 248.892063 
L 1273.447464 245.663508 
L 1274.791588 245.663508 
L 1275.23963 239.218345 
L 1276.583755 239.218345 
L 1277.031797 232.789028 
L 1278.375921 232.789028 
L 1278.823963 234.102447 
L 1280.168088 234.102447 
L 1280.616129 245.046632 
L 1283.752421 245.042941 
L 1284.200462 243.202895 
L 1287.336754 243.202895 
L 1287.784795 238.179889 
L 1292.713253 238.179889 
L 1293.161295 241.368004 
L 1298.089753 241.368004 
L 1298.537794 238.183465 
L 1301.674086 238.183465 
L 1302.122127 239.571409 
L 1303.466252 239.571409 
L 1303.914294 244.148639 
L 1305.258419 244.148639 
L 1305.70646 242.407473 
L 1307.050585 242.407473 
L 1307.498627 250.163621 
L 1308.842752 250.163621 
L 1309.290793 257.670317 
L 1310.634918 257.670317 
L 1311.08296 262.285429 
L 1312.427085 262.285429 
L 1312.875126 266.900582 
L 1314.219251 266.900582 
L 1314.667293 263.761908 
L 1316.011418 263.761908 
L 1316.459459 257.490659 
L 1317.803584 257.490659 
L 1318.251626 251.232637 
L 1319.595751 251.232637 
L 1320.043792 241.862657 
L 1321.387917 241.862657 
L 1321.835959 238.744631 
L 1323.180084 238.744631 
L 1323.628125 235.629851 
L 1324.97225 235.629851 
L 1325.420292 232.518199 
L 1326.764417 232.518199 
L 1327.212458 229.409637 
L 1330.34875 229.409637 
L 1330.796791 223.2 
L 1330.796791 223.2 
" clip-path="url(#p94a3e934c9)" style="fill: none; stroke: #0000ff; stroke-width: 1.5; stroke-linecap: square"/>
   </g>
   <g id="patch_9">
    <path d="M 860.823529 1281.6 
L 860.823529 172.8 
" style="fill: none; stroke: #000000; stroke-width: 0.8; stroke-linejoin: miter; stroke-linecap: square"/>
   </g>
   <g id="patch_10">
    <path d="M 1353.176471 1281.6 
L 1353.176471 172.8 
" style="fill: none; stroke: #000000; stroke-width: 0.8; stroke-linejoin: miter; stroke-linecap: square"/>
   </g>
   <g id="patch_11">
    <path d="M 860.823529 1281.6 
L 1353.176471 1281.6 
" style="fill: none; stroke: #000000; stroke-width: 0.8; stroke-linejoin: miter; stroke-linecap: square"/>
   </g>
   <g id="patch_12">
    <path d="M 860.823529 172.8 
L 1353.176471 172.8 
" style="fill: none; stroke: #000000; stroke-width: 0.8; stroke-linejoin: miter; stroke-linecap: square"/>
   </g>
   <g id="legend_2">
    <g id="patch_13">
     <path d="M 1262.134283 195.478125 
L 1346.176471 195.478125 
Q 1348.176471 195.478125 1348.176471 193.478125 
L 1348.176471 179.8 
Q 1348.176471 177.8 1346.176471 177.8 
L 1262.134283 177.8 
Q 1260.134283 177.8 1260.134283 179.8 
L 1260.134283 193.478125 
Q 1260.134283 195.478125 1262.134283 195.478125 
z
" style="fill: #ffffff; opacity: 0.8; stroke: #cccccc; stroke-linejoin: miter"/>
    </g>
    <g id="line2d_29">
     <path d="M 1264.134283 185.898437 
L 1274.134283 185.898437 
L 1284.134283 185.898437 
" style="fill: none; stroke: #0000ff; stroke-width: 1.5; stroke-linecap: square"/>
    </g>
    <g id="text_27">
     <!-- O2 reward -->
     <g transform="translate(1292.134283 189.398437) scale(0.1 -0.1)">
      <use xlink:href="#DejaVuSans-4f"/>
      <use xlink:href="#DejaVuSans-32" x="78.710938"/>
      <use xlink:href="#DejaVuSans-20" x="142.333984"/>
      <use xlink:href="#DejaVuSans-72" x="174.121094"/>
      <use xlink:href="#DejaVuSans-65" x="212.984375"/>
      <use xlink:href="#DejaVuSans-77" x="274.507812"/>
      <use xlink:href="#DejaVuSans-61" x="356.294922"/>
      <use xlink:href="#DejaVuSans-72" x="417.574219"/>
      <use xlink:href="#DejaVuSans-64" x="456.9375"/>
     </g>
    </g>
   </g>
  </g>
  <g id="axes_3">
   <g id="patch_14">
    <path d="M 1451.647059 1281.6 
L 1944 1281.6 
L 1944 172.8 
L 1451.647059 172.8 
z
" style="fill: #ffffff"/>
   </g>
   <g id="matplotlib.axis_5">
    <g id="xtick_13">
     <g id="line2d_30">
      <g>
       <use xlink:href="#m27e0b2ebbd" x="1473.578696" y="1281.6" style="stroke: #000000; stroke-width: 0.8"/>
      </g>
     </g>
     <g id="text_28">
      <!-- 0 -->
      <g transform="translate(1470.397446 1296.198437) scale(0.1 -0.1)">
       <use xlink:href="#DejaVuSans-30"/>
      </g>
     </g>
    </g>
    <g id="xtick_14">
     <g id="line2d_31">
      <g>
       <use xlink:href="#m27e0b2ebbd" x="1563.187021" y="1281.6" style="stroke: #000000; stroke-width: 0.8"/>
      </g>
     </g>
     <g id="text_29">
      <!-- 200 -->
      <g transform="translate(1553.643271 1296.198437) scale(0.1 -0.1)">
       <use xlink:href="#DejaVuSans-32"/>
       <use xlink:href="#DejaVuSans-30" x="63.623047"/>
       <use xlink:href="#DejaVuSans-30" x="127.246094"/>
      </g>
     </g>
    </g>
    <g id="xtick_15">
     <g id="line2d_32">
      <g>
       <use xlink:href="#m27e0b2ebbd" x="1652.795346" y="1281.6" style="stroke: #000000; stroke-width: 0.8"/>
      </g>
     </g>
     <g id="text_30">
      <!-- 400 -->
      <g transform="translate(1643.251596 1296.198437) scale(0.1 -0.1)">
       <use xlink:href="#DejaVuSans-34"/>
       <use xlink:href="#DejaVuSans-30" x="63.623047"/>
       <use xlink:href="#DejaVuSans-30" x="127.246094"/>
      </g>
     </g>
    </g>
    <g id="xtick_16">
     <g id="line2d_33">
      <g>
       <use xlink:href="#m27e0b2ebbd" x="1742.403671" y="1281.6" style="stroke: #000000; stroke-width: 0.8"/>
      </g>
     </g>
     <g id="text_31">
      <!-- 600 -->
      <g transform="translate(1732.859921 1296.198437) scale(0.1 -0.1)">
       <use xlink:href="#DejaVuSans-36"/>
       <use xlink:href="#DejaVuSans-30" x="63.623047"/>
       <use xlink:href="#DejaVuSans-30" x="127.246094"/>
      </g>
     </g>
    </g>
    <g id="xtick_17">
     <g id="line2d_34">
      <g>
       <use xlink:href="#m27e0b2ebbd" x="1832.011996" y="1281.6" style="stroke: #000000; stroke-width: 0.8"/>
      </g>
     </g>
     <g id="text_32">
      <!-- 800 -->
      <g transform="translate(1822.468246 1296.198437) scale(0.1 -0.1)">
       <use xlink:href="#DejaVuSans-38"/>
       <use xlink:href="#DejaVuSans-30" x="63.623047"/>
       <use xlink:href="#DejaVuSans-30" x="127.246094"/>
      </g>
     </g>
    </g>
    <g id="xtick_18">
     <g id="line2d_35">
      <g>
       <use xlink:href="#m27e0b2ebbd" x="1921.620321" y="1281.6" style="stroke: #000000; stroke-width: 0.8"/>
      </g>
     </g>
     <g id="text_33">
      <!-- 1000 -->
      <g transform="translate(1908.895321 1296.198437) scale(0.1 -0.1)">
       <use xlink:href="#DejaVuSans-31"/>
       <use xlink:href="#DejaVuSans-30" x="63.623047"/>
       <use xlink:href="#DejaVuSans-30" x="127.246094"/>
       <use xlink:href="#DejaVuSans-30" x="190.869141"/>
      </g>
     </g>
    </g>
   </g>
   <g id="matplotlib.axis_6">
    <g id="ytick_14">
     <g id="line2d_36">
      <g>
       <use xlink:href="#mfe91581638" x="1451.647059" y="1231.2" style="stroke: #000000; stroke-width: 0.8"/>
      </g>
     </g>
     <g id="text_34">
      <!-- 0.0 -->
      <g transform="translate(1428.743934 1234.999219) scale(0.1 -0.1)">
       <defs>
        <path id="DejaVuSans-2e" d="M 684 794 
L 1344 794 
L 1344 0 
L 684 0 
L 684 794 
z
" transform="scale(0.015625)"/>
       </defs>
       <use xlink:href="#DejaVuSans-30"/>
       <use xlink:href="#DejaVuSans-2e" x="63.623047"/>
       <use xlink:href="#DejaVuSans-30" x="95.410156"/>
      </g>
     </g>
    </g>
    <g id="ytick_15">
     <g id="line2d_37">
      <g>
       <use xlink:href="#mfe91581638" x="1451.647059" y="1098.801053" style="stroke: #000000; stroke-width: 0.8"/>
      </g>
     </g>
     <g id="text_35">
      <!-- 2.5 -->
      <g transform="translate(1428.743934 1102.600271) scale(0.1 -0.1)">
       <defs>
        <path id="DejaVuSans-35" d="M 691 4666 
L 3169 4666 
L 3169 4134 
L 1269 4134 
L 1269 2991 
Q 1406 3038 1543 3061 
Q 1681 3084 1819 3084 
Q 2600 3084 3056 2656 
Q 3513 2228 3513 1497 
Q 3513 744 3044 326 
Q 2575 -91 1722 -91 
Q 1428 -91 1123 -41 
Q 819 9 494 109 
L 494 744 
Q 775 591 1075 516 
Q 1375 441 1709 441 
Q 2250 441 2565 725 
Q 2881 1009 2881 1497 
Q 2881 1984 2565 2268 
Q 2250 2553 1709 2553 
Q 1456 2553 1204 2497 
Q 953 2441 691 2322 
L 691 4666 
z
" transform="scale(0.015625)"/>
       </defs>
       <use xlink:href="#DejaVuSans-32"/>
       <use xlink:href="#DejaVuSans-2e" x="63.623047"/>
       <use xlink:href="#DejaVuSans-35" x="95.410156"/>
      </g>
     </g>
    </g>
    <g id="ytick_16">
     <g id="line2d_38">
      <g>
       <use xlink:href="#mfe91581638" x="1451.647059" y="966.402105" style="stroke: #000000; stroke-width: 0.8"/>
      </g>
     </g>
     <g id="text_36">
      <!-- 5.0 -->
      <g transform="translate(1428.743934 970.201324) scale(0.1 -0.1)">
       <use xlink:href="#DejaVuSans-35"/>
       <use xlink:href="#DejaVuSans-2e" x="63.623047"/>
       <use xlink:href="#DejaVuSans-30" x="95.410156"/>
      </g>
     </g>
    </g>
    <g id="ytick_17">
     <g id="line2d_39">
      <g>
       <use xlink:href="#mfe91581638" x="1451.647059" y="834.003158" style="stroke: #000000; stroke-width: 0.8"/>
      </g>
     </g>
     <g id="text_37">
      <!-- 7.5 -->
      <g transform="translate(1428.743934 837.802377) scale(0.1 -0.1)">
       <defs>
        <path id="DejaVuSans-37" d="M 525 4666 
L 3525 4666 
L 3525 4397 
L 1831 0 
L 1172 0 
L 2766 4134 
L 525 4134 
L 525 4666 
z
" transform="scale(0.015625)"/>
       </defs>
       <use xlink:href="#DejaVuSans-37"/>
       <use xlink:href="#DejaVuSans-2e" x="63.623047"/>
       <use xlink:href="#DejaVuSans-35" x="95.410156"/>
      </g>
     </g>
    </g>
    <g id="ytick_18">
     <g id="line2d_40">
      <g>
       <use xlink:href="#mfe91581638" x="1451.647059" y="701.604211" style="stroke: #000000; stroke-width: 0.8"/>
      </g>
     </g>
     <g id="text_38">
      <!-- 10.0 -->
      <g transform="translate(1422.381434 705.40343) scale(0.1 -0.1)">
       <use xlink:href="#DejaVuSans-31"/>
       <use xlink:href="#DejaVuSans-30" x="63.623047"/>
       <use xlink:href="#DejaVuSans-2e" x="127.246094"/>
       <use xlink:href="#DejaVuSans-30" x="159.033203"/>
      </g>
     </g>
    </g>
    <g id="ytick_19">
     <g id="line2d_41">
      <g>
       <use xlink:href="#mfe91581638" x="1451.647059" y="569.205264" style="stroke: #000000; stroke-width: 0.8"/>
      </g>
     </g>
     <g id="text_39">
      <!-- 12.5 -->
      <g transform="translate(1422.381434 573.004482) scale(0.1 -0.1)">
       <use xlink:href="#DejaVuSans-31"/>
       <use xlink:href="#DejaVuSans-32" x="63.623047"/>
       <use xlink:href="#DejaVuSans-2e" x="127.246094"/>
       <use xlink:href="#DejaVuSans-35" x="159.033203"/>
      </g>
     </g>
    </g>
    <g id="ytick_20">
     <g id="line2d_42">
      <g>
       <use xlink:href="#mfe91581638" x="1451.647059" y="436.806316" style="stroke: #000000; stroke-width: 0.8"/>
      </g>
     </g>
     <g id="text_40">
      <!-- 15.0 -->
      <g transform="translate(1422.381434 440.605535) scale(0.1 -0.1)">
       <use xlink:href="#DejaVuSans-31"/>
       <use xlink:href="#DejaVuSans-35" x="63.623047"/>
       <use xlink:href="#DejaVuSans-2e" x="127.246094"/>
       <use xlink:href="#DejaVuSans-30" x="159.033203"/>
      </g>
     </g>
    </g>
    <g id="ytick_21">
     <g id="line2d_43">
      <g>
       <use xlink:href="#mfe91581638" x="1451.647059" y="304.407369" style="stroke: #000000; stroke-width: 0.8"/>
      </g>
     </g>
     <g id="text_41">
      <!-- 17.5 -->
      <g transform="translate(1422.381434 308.206588) scale(0.1 -0.1)">
       <use xlink:href="#DejaVuSans-31"/>
       <use xlink:href="#DejaVuSans-37" x="63.623047"/>
       <use xlink:href="#DejaVuSans-2e" x="127.246094"/>
       <use xlink:href="#DejaVuSans-35" x="159.033203"/>
      </g>
     </g>
    </g>
   </g>
   <g id="line2d_44">
    <path d="M 1474.026738 1231.2 
L 1492.844486 1231.2 
L 1493.292528 1210.545617 
L 1494.636653 1210.545617 
L 1495.084694 1194.041282 
L 1496.428819 1194.041282 
L 1496.876861 1180.002791 
L 1498.220986 1180.002791 
L 1498.669027 1159.197242 
L 1500.013152 1159.197242 
L 1500.461194 1152.200922 
L 1501.805319 1152.200922 
L 1502.25336 1124.963294 
L 1503.597485 1124.963294 
L 1504.045527 1132.876917 
L 1505.389652 1132.876917 
L 1505.837693 1117.375987 
L 1507.181818 1117.375987 
L 1507.62986 1102.092327 
L 1508.973985 1102.092327 
L 1509.422026 1091.724677 
L 1510.766151 1091.724677 
L 1511.214193 1074.165655 
L 1512.558318 1074.165655 
L 1513.006359 1057.683186 
L 1514.350484 1057.683186 
L 1514.798526 1047.469428 
L 1517.934817 1047.469428 
L 1518.382859 1042.973421 
L 1519.726984 1042.973421 
L 1520.175025 1033.128372 
L 1521.51915 1033.128372 
L 1521.967192 1027.645592 
L 1525.103483 1027.645592 
L 1525.551525 1023.552627 
L 1526.89565 1023.552627 
L 1527.343691 1014.585926 
L 1530.479983 1014.585926 
L 1530.928024 1010.829747 
L 1532.272149 1010.829747 
L 1532.720191 994.994983 
L 1534.064316 994.994983 
L 1534.512357 972.77574 
L 1535.856482 972.77574 
L 1536.304524 957.20976 
L 1537.648649 957.20976 
L 1538.09669 946.851869 
L 1539.440815 946.851869 
L 1539.888857 917.958707 
L 1541.232982 917.958707 
L 1541.681023 903.583715 
L 1543.025148 903.583715 
L 1543.47319 899.070991 
L 1544.817315 899.070991 
L 1545.265356 884.996594 
L 1546.609481 884.996594 
L 1547.057523 875.62298 
L 1548.401648 875.62298 
L 1548.849689 867.624264 
L 1550.193814 867.624264 
L 1550.641856 853.641479 
L 1551.985981 853.641479 
L 1552.434022 847.943673 
L 1553.778147 847.943673 
L 1554.226189 835.205175 
L 1557.36248 835.113932 
L 1557.810522 838.716642 
L 1559.154647 838.716642 
L 1559.602688 840.948431 
L 1560.946813 840.948431 
L 1561.394855 835.721707 
L 1562.73898 835.721707 
L 1563.187021 837.91491 
L 1564.531146 837.91491 
L 1564.979188 834.844047 
L 1566.323313 834.844047 
L 1566.771354 838.292374 
L 1568.115479 838.292374 
L 1568.563521 835.058582 
L 1571.699812 835.058582 
L 1572.147854 831.763097 
L 1573.491979 831.763097 
L 1573.94002 822.035053 
L 1575.284145 822.035053 
L 1575.732187 813.598641 
L 1577.076312 813.598641 
L 1577.524353 818.745608 
L 1578.868478 818.745608 
L 1579.31652 820.806513 
L 1584.244978 820.806513 
L 1584.693019 811.207216 
L 1586.037144 811.207216 
L 1586.485186 793.147286 
L 1587.829311 793.147286 
L 1588.277352 784.389416 
L 1589.621477 784.389416 
L 1590.069519 778.202264 
L 1591.413644 778.202264 
L 1591.861685 774.146232 
L 1593.20581 774.146232 
L 1593.653852 764.459932 
L 1594.997977 764.459932 
L 1595.446018 757.96123 
L 1596.790143 757.96123 
L 1597.238185 752.917604 
L 1598.58231 752.917604 
L 1599.030351 742.59323 
L 1600.374476 742.59323 
L 1600.822518 736.479197 
L 1602.166643 736.479197 
L 1602.614684 728.044064 
L 1603.958809 728.044064 
L 1604.406851 725.727536 
L 1605.750976 725.727536 
L 1606.199017 716.212805 
L 1607.543142 716.212805 
L 1607.991184 708.329041 
L 1609.335309 708.329041 
L 1609.78335 700.584339 
L 1611.127475 700.584339 
L 1611.575517 693.14789 
L 1614.711808 693.14789 
L 1615.15985 687.978026 
L 1616.503975 687.978026 
L 1616.952016 683.489271 
L 1618.296141 683.489271 
L 1618.744183 685.593869 
L 1620.088308 685.593869 
L 1620.536349 681.618413 
L 1621.880474 681.618413 
L 1622.328516 674.710363 
L 1623.672641 674.710363 
L 1624.120682 669.753555 
L 1625.464807 669.753555 
L 1625.912849 664.755405 
L 1627.256974 664.755405 
L 1627.705015 658.140343 
L 1629.04914 658.140343 
L 1629.497182 644.051369 
L 1630.841307 644.051369 
L 1631.289348 642.475195 
L 1632.633473 642.475195 
L 1633.081515 640.270576 
L 1634.42564 640.270576 
L 1634.873681 631.617839 
L 1636.217806 631.617839 
L 1636.665848 625.428787 
L 1638.009973 625.428787 
L 1638.458014 621.163119 
L 1639.802139 621.163119 
L 1640.250181 613.499837 
L 1641.594306 613.499837 
L 1642.042347 604.767762 
L 1643.386472 604.767762 
L 1643.834514 600.123963 
L 1645.178639 600.123963 
L 1645.62668 599.271419 
L 1646.970805 599.271419 
L 1647.418847 596.797839 
L 1648.762972 596.797839 
L 1649.211013 593.474381 
L 1650.555138 593.474381 
L 1651.00318 588.608729 
L 1652.347305 588.608729 
L 1652.795346 587.019736 
L 1654.139471 587.019736 
L 1654.587513 580.163017 
L 1655.931638 580.163017 
L 1656.379679 577.817238 
L 1657.723804 577.817238 
L 1658.171846 574.256558 
L 1659.515971 574.256558 
L 1659.964012 570.714209 
L 1661.308137 570.714209 
L 1661.756179 566.800792 
L 1664.89247 566.800792 
L 1665.340512 564.478965 
L 1666.684637 564.478965 
L 1667.132678 563.317354 
L 1668.476803 563.317354 
L 1668.924845 558.320173 
L 1672.061136 558.320173 
L 1672.509178 559.471333 
L 1673.853303 559.471333 
L 1674.301344 559.859818 
L 1675.645469 559.859818 
L 1676.093511 557.643436 
L 1677.437635 557.643436 
L 1677.885677 550.51259 
L 1679.229802 550.51259 
L 1679.677844 547.642243 
L 1681.021968 547.642243 
L 1681.47001 548.305508 
L 1682.814135 548.305508 
L 1683.262177 541.320253 
L 1684.606301 541.320253 
L 1685.054343 535.624069 
L 1686.398468 535.624069 
L 1686.84651 534.699547 
L 1688.190634 534.699547 
L 1688.638676 532.035774 
L 1689.982801 532.035774 
L 1690.430843 528.251569 
L 1691.774967 528.251569 
L 1692.223009 527.66863 
L 1693.567134 527.66863 
L 1694.015176 523.685552 
L 1695.3593 523.685552 
L 1695.807342 520.576572 
L 1697.151467 520.576572 
L 1697.599509 515.474782 
L 1698.943633 515.474782 
L 1699.391675 512.455595 
L 1700.7358 512.455595 
L 1701.183842 508.426523 
L 1702.527966 508.426523 
L 1702.976008 504.727701 
L 1704.320133 504.727701 
L 1704.768175 501.825576 
L 1706.112299 501.825576 
L 1706.560341 501.334229 
L 1707.904466 501.334229 
L 1708.352508 497.735825 
L 1709.696632 497.735825 
L 1710.144674 492.748829 
L 1711.488799 492.748829 
L 1711.936841 488.391459 
L 1713.280965 488.391459 
L 1713.729007 482.383028 
L 1715.073132 482.383028 
L 1715.521174 476.950303 
L 1716.865298 476.950303 
L 1717.31334 464.146217 
L 1718.657465 464.146217 
L 1719.105507 455.1079 
L 1720.449631 455.1079 
L 1720.897673 448.421851 
L 1722.241798 448.421851 
L 1722.68984 444.23381 
L 1724.033964 444.23381 
L 1724.482006 438.279536 
L 1725.826131 438.279536 
L 1726.274173 434.006053 
L 1727.618297 434.006053 
L 1728.066339 424.085 
L 1729.410464 424.085 
L 1729.858506 418.600028 
L 1731.20263 418.600028 
L 1731.650672 413.057907 
L 1732.994797 413.057907 
L 1733.442839 408.620735 
L 1734.786963 408.620735 
L 1735.235005 403.199273 
L 1736.57913 403.199273 
L 1737.027172 398.054601 
L 1738.371296 398.054601 
L 1738.819338 392.359495 
L 1740.163463 392.359495 
L 1740.611505 386.463519 
L 1741.955629 386.463519 
L 1742.403671 384.606071 
L 1743.747796 384.606071 
L 1744.195838 381.181801 
L 1745.539962 381.181801 
L 1745.988004 379.958539 
L 1747.332129 379.958539 
L 1747.780171 378.486962 
L 1749.124295 378.486962 
L 1749.572337 376.060426 
L 1750.916462 376.060426 
L 1751.364504 372.214944 
L 1752.708628 372.214944 
L 1753.15667 370.77413 
L 1754.500795 370.77413 
L 1754.948837 368.398332 
L 1756.292961 368.398332 
L 1756.741003 366.279667 
L 1759.877294 366.279667 
L 1760.325336 366.04674 
L 1761.669461 366.04674 
L 1762.117503 364.398168 
L 1763.461627 364.398168 
L 1763.909669 363.687048 
L 1765.253794 363.687048 
L 1765.701836 362.061681 
L 1767.04596 362.061681 
L 1767.494002 360.908108 
L 1768.838127 360.908108 
L 1769.286169 358.282599 
L 1770.630293 358.282599 
L 1771.078335 353.91811 
L 1772.42246 353.91811 
L 1772.870502 352.994407 
L 1774.214626 352.994407 
L 1774.662668 348.383359 
L 1776.006793 348.383359 
L 1776.454835 345.445917 
L 1777.798959 345.445917 
L 1778.247001 343.620617 
L 1779.591126 343.620617 
L 1780.039168 340.526173 
L 1781.383292 340.526173 
L 1781.831334 336.186415 
L 1783.175459 336.186415 
L 1783.623501 332.796905 
L 1784.967625 332.796905 
L 1785.415667 327.654258 
L 1786.759792 327.654258 
L 1787.207834 325.544443 
L 1788.551958 325.544443 
L 1789 323.280118 
L 1790.344125 323.280118 
L 1790.792166 318.158295 
L 1792.136291 318.158295 
L 1792.584333 317.128526 
L 1793.928458 317.128526 
L 1794.376499 315.954118 
L 1795.720624 315.954118 
L 1796.168666 313.026339 
L 1797.512791 313.026339 
L 1797.960832 310.56 
L 1799.304957 310.56 
L 1799.752999 306.9013 
L 1801.097124 306.9013 
L 1801.545165 303.0634 
L 1802.88929 303.0634 
L 1803.337332 301.372117 
L 1804.681457 301.372117 
L 1805.129498 298.540261 
L 1806.473623 298.540261 
L 1806.921665 297.073012 
L 1808.26579 297.073012 
L 1808.713831 297.60717 
L 1810.057956 297.60717 
L 1810.505998 293.432368 
L 1811.850123 293.432368 
L 1812.298164 293.250816 
L 1813.642289 293.250816 
L 1814.090331 291.208462 
L 1817.226622 291.208462 
L 1817.674664 288.873159 
L 1819.018789 288.873159 
L 1819.46683 286.96822 
L 1820.810955 286.96822 
L 1821.258997 284.55485 
L 1822.603122 284.55485 
L 1823.051163 283.72471 
L 1824.395288 283.72471 
L 1824.84333 280.525165 
L 1826.187455 280.525165 
L 1826.635496 278.217457 
L 1827.979621 278.217457 
L 1828.427663 275.830215 
L 1829.771788 275.830215 
L 1830.219829 270.601783 
L 1831.563954 270.601783 
L 1832.011996 266.994933 
L 1835.148287 266.992028 
L 1835.596329 265.954894 
L 1836.940454 265.954894 
L 1837.388495 267.530543 
L 1838.73262 267.530543 
L 1839.180662 264.310808 
L 1840.524787 264.310808 
L 1840.972828 266.437196 
L 1842.316953 266.437196 
L 1842.764995 263.890995 
L 1844.10912 263.890995 
L 1844.557161 263.753269 
L 1845.901286 263.753269 
L 1846.349328 264.443041 
L 1849.485619 264.37694 
L 1849.933661 264.944914 
L 1851.277786 264.944914 
L 1851.725827 261.792477 
L 1853.069952 261.792477 
L 1853.517994 259.757783 
L 1854.862119 259.757783 
L 1855.31016 258.947617 
L 1856.654285 258.947617 
L 1857.102327 257.650881 
L 1858.446452 257.650881 
L 1858.894493 256.446039 
L 1860.238618 256.446039 
L 1860.68666 253.359659 
L 1863.822951 253.359659 
L 1864.270993 252.146797 
L 1865.615118 252.146797 
L 1866.063159 250.223478 
L 1867.407284 250.223478 
L 1867.855326 249.43633 
L 1869.199451 249.43633 
L 1869.647492 248.583563 
L 1870.991617 248.583563 
L 1871.439659 246.694014 
L 1872.783784 246.694014 
L 1873.231825 245.54452 
L 1874.57595 245.54452 
L 1875.023992 244.746553 
L 1876.368117 244.746553 
L 1876.816158 243.971746 
L 1879.95245 243.917532 
L 1880.400491 242.411093 
L 1883.536783 242.357866 
L 1883.984824 240.458583 
L 1885.328949 240.458583 
L 1885.776991 239.329574 
L 1887.121116 239.329574 
L 1887.569157 238.186267 
L 1888.913282 238.186267 
L 1889.361324 237.730555 
L 1890.705449 237.730555 
L 1891.15349 236.233899 
L 1892.497615 236.233899 
L 1892.945657 235.119665 
L 1894.289782 235.119665 
L 1894.737823 235.867428 
L 1896.081948 235.867428 
L 1896.52999 234.8065 
L 1897.874115 234.8065 
L 1898.322156 232.570252 
L 1899.666281 232.570252 
L 1900.114323 231.506678 
L 1901.458448 231.506678 
L 1901.906489 232.24577 
L 1903.250614 232.24577 
L 1903.698656 230.441694 
L 1905.042781 230.441694 
L 1905.490822 229.693184 
L 1908.627114 229.678582 
L 1909.075155 228.937098 
L 1912.211447 228.921916 
L 1912.659488 226.775927 
L 1915.79578 226.76514 
L 1916.243821 225.345393 
L 1917.587946 225.345393 
L 1918.035988 224.628437 
L 1919.380113 224.628437 
L 1919.828154 223.913923 
L 1921.172279 223.913923 
L 1921.620321 223.2 
L 1921.620321 223.2 
" clip-path="url(#padb8c0070e)" style="fill: none; stroke: #0000ff; stroke-width: 1.5; stroke-linecap: square"/>
   </g>
   <g id="patch_15">
    <path d="M 1451.647059 1281.6 
L 1451.647059 172.8 
" style="fill: none; stroke: #000000; stroke-width: 0.8; stroke-linejoin: miter; stroke-linecap: square"/>
   </g>
   <g id="patch_16">
    <path d="M 1944 1281.6 
L 1944 172.8 
" style="fill: none; stroke: #000000; stroke-width: 0.8; stroke-linejoin: miter; stroke-linecap: square"/>
   </g>
   <g id="patch_17">
    <path d="M 1451.647059 1281.6 
L 1944 1281.6 
" style="fill: none; stroke: #000000; stroke-width: 0.8; stroke-linejoin: miter; stroke-linecap: square"/>
   </g>
   <g id="patch_18">
    <path d="M 1451.647059 172.8 
L 1944 172.8 
" style="fill: none; stroke: #000000; stroke-width: 0.8; stroke-linejoin: miter; stroke-linecap: square"/>
   </g>
   <g id="legend_3">
    <g id="patch_19">
     <path d="M 1852.957813 195.478125 
L 1937 195.478125 
Q 1939 195.478125 1939 193.478125 
L 1939 179.8 
Q 1939 177.8 1937 177.8 
L 1852.957813 177.8 
Q 1850.957813 177.8 1850.957813 179.8 
L 1850.957813 193.478125 
Q 1850.957813 195.478125 1852.957813 195.478125 
z
" style="fill: #ffffff; opacity: 0.8; stroke: #cccccc; stroke-linejoin: miter"/>
    </g>
    <g id="line2d_45">
     <path d="M 1854.957813 185.898437 
L 1864.957813 185.898437 
L 1874.957813 185.898437 
" style="fill: none; stroke: #0000ff; stroke-width: 1.5; stroke-linecap: square"/>
    </g>
    <g id="text_42">
     <!-- O3 reward -->
     <g transform="translate(1882.957813 189.398437) scale(0.1 -0.1)">
      <defs>
       <path id="DejaVuSans-33" d="M 2597 2516 
Q 3050 2419 3304 2112 
Q 3559 1806 3559 1356 
Q 3559 666 3084 287 
Q 2609 -91 1734 -91 
Q 1441 -91 1130 -33 
Q 819 25 488 141 
L 488 750 
Q 750 597 1062 519 
Q 1375 441 1716 441 
Q 2309 441 2620 675 
Q 2931 909 2931 1356 
Q 2931 1769 2642 2001 
Q 2353 2234 1838 2234 
L 1294 2234 
L 1294 2753 
L 1863 2753 
Q 2328 2753 2575 2939 
Q 2822 3125 2822 3475 
Q 2822 3834 2567 4026 
Q 2313 4219 1838 4219 
Q 1578 4219 1281 4162 
Q 984 4106 628 3988 
L 628 4550 
Q 988 4650 1302 4700 
Q 1616 4750 1894 4750 
Q 2613 4750 3031 4423 
Q 3450 4097 3450 3541 
Q 3450 3153 3228 2886 
Q 3006 2619 2597 2516 
z
" transform="scale(0.015625)"/>
      </defs>
      <use xlink:href="#DejaVuSans-4f"/>
      <use xlink:href="#DejaVuSans-33" x="78.710938"/>
      <use xlink:href="#DejaVuSans-20" x="142.333984"/>
      <use xlink:href="#DejaVuSans-72" x="174.121094"/>
      <use xlink:href="#DejaVuSans-65" x="212.984375"/>
      <use xlink:href="#DejaVuSans-77" x="274.507812"/>
      <use xlink:href="#DejaVuSans-61" x="356.294922"/>
      <use xlink:href="#DejaVuSans-72" x="417.574219"/>
      <use xlink:href="#DejaVuSans-64" x="456.9375"/>
     </g>
    </g>
   </g>
  </g>
 </g>
 <defs>
  <clipPath id="pb1c3d93d58">
   <rect x="270" y="172.8" width="492.352941" height="1108.8"/>
  </clipPath>
  <clipPath id="p94a3e934c9">
   <rect x="860.823529" y="172.8" width="492.352941" height="1108.8"/>
  </clipPath>
  <clipPath id="padb8c0070e">
   <rect x="1451.647059" y="172.8" width="492.352941" height="1108.8"/>
  </clipPath>
 </defs>
</svg>
