<?xml version="1.0" encoding="utf-8" standalone="no"?>
<!DOCTYPE svg PUBLIC "-//W3C//DTD SVG 1.1//EN"
  "http://www.w3.org/Graphics/SVG/1.1/DTD/svg11.dtd">
<svg xmlns:xlink="http://www.w3.org/1999/xlink" width="2160pt" height="1440pt" viewBox="0 0 2160 1440" xmlns="http://www.w3.org/2000/svg" version="1.1">
 <metadata>
  <rdf:RDF xmlns:dc="http://purl.org/dc/elements/1.1/" xmlns:cc="http://creativecommons.org/ns#" xmlns:rdf="http://www.w3.org/1999/02/22-rdf-syntax-ns#">
   <cc:Work>
    <dc:type rdf:resource="http://purl.org/dc/dcmitype/StillImage"/>
    <dc:date>2023-05-31T19:26:21.485392</dc:date>
    <dc:format>image/svg+xml</dc:format>
    <dc:creator>
     <cc:Agent>
      <dc:title>Matplotlib v3.7.1, https://matplotlib.org/</dc:title>
     </cc:Agent>
    </dc:creator>
   </cc:Work>
  </rdf:RDF>
 </metadata>
 <defs>
  <style type="text/css">*{stroke-linejoin: round; stroke-linecap: butt}</style>
 </defs>
 <g id="figure_1">
  <g id="patch_1">
   <path d="M 0 1440 
L 2160 1440 
L 2160 0 
L 0 0 
z
" style="fill: #ffffff"/>
  </g>
  <g id="axes_1">
   <g id="patch_2">
    <path d="M 270 1281.6 
L 762.352941 1281.6 
L 762.352941 172.8 
L 270 172.8 
z
" style="fill: #ffffff"/>
   </g>
   <g id="matplotlib.axis_1">
    <g id="xtick_1">
     <g id="line2d_1">
      <defs>
       <path id="m3deb7e05f6" d="M 0 0 
L 0 3.5 
" style="stroke: #000000; stroke-width: 0.8"/>
      </defs>
      <g>
       <use xlink:href="#m3deb7e05f6" x="291.668084" y="1281.6" style="stroke: #000000; stroke-width: 0.8"/>
      </g>
     </g>
     <g id="text_1">
      <!-- 0 -->
      <g transform="translate(288.486834 1296.198437) scale(0.1 -0.1)">
       <defs>
        <path id="DejaVuSans-30" d="M 2034 4250 
Q 1547 4250 1301 3770 
Q 1056 3291 1056 2328 
Q 1056 1369 1301 889 
Q 1547 409 2034 409 
Q 2525 409 2770 889 
Q 3016 1369 3016 2328 
Q 3016 3291 2770 3770 
Q 2525 4250 2034 4250 
z
M 2034 4750 
Q 2819 4750 3233 4129 
Q 3647 3509 3647 2328 
Q 3647 1150 3233 529 
Q 2819 -91 2034 -91 
Q 1250 -91 836 529 
Q 422 1150 422 2328 
Q 422 3509 836 4129 
Q 1250 4750 2034 4750 
z
" transform="scale(0.015625)"/>
       </defs>
       <use xlink:href="#DejaVuSans-30"/>
      </g>
     </g>
    </g>
    <g id="xtick_2">
     <g id="line2d_2">
      <g>
       <use xlink:href="#m3deb7e05f6" x="362.827636" y="1281.6" style="stroke: #000000; stroke-width: 0.8"/>
      </g>
     </g>
     <g id="text_2">
      <!-- 100 -->
      <g transform="translate(353.283886 1296.198437) scale(0.1 -0.1)">
       <defs>
        <path id="DejaVuSans-31" d="M 794 531 
L 1825 531 
L 1825 4091 
L 703 3866 
L 703 4441 
L 1819 4666 
L 2450 4666 
L 2450 531 
L 3481 531 
L 3481 0 
L 794 0 
L 794 531 
z
" transform="scale(0.015625)"/>
       </defs>
       <use xlink:href="#DejaVuSans-31"/>
       <use xlink:href="#DejaVuSans-30" x="63.623047"/>
       <use xlink:href="#DejaVuSans-30" x="127.246094"/>
      </g>
     </g>
    </g>
    <g id="xtick_3">
     <g id="line2d_3">
      <g>
       <use xlink:href="#m3deb7e05f6" x="433.987188" y="1281.6" style="stroke: #000000; stroke-width: 0.8"/>
      </g>
     </g>
     <g id="text_3">
      <!-- 200 -->
      <g transform="translate(424.443438 1296.198437) scale(0.1 -0.1)">
       <defs>
        <path id="DejaVuSans-32" d="M 1228 531 
L 3431 531 
L 3431 0 
L 469 0 
L 469 531 
Q 828 903 1448 1529 
Q 2069 2156 2228 2338 
Q 2531 2678 2651 2914 
Q 2772 3150 2772 3378 
Q 2772 3750 2511 3984 
Q 2250 4219 1831 4219 
Q 1534 4219 1204 4116 
Q 875 4013 500 3803 
L 500 4441 
Q 881 4594 1212 4672 
Q 1544 4750 1819 4750 
Q 2544 4750 2975 4387 
Q 3406 4025 3406 3419 
Q 3406 3131 3298 2873 
Q 3191 2616 2906 2266 
Q 2828 2175 2409 1742 
Q 1991 1309 1228 531 
z
" transform="scale(0.015625)"/>
       </defs>
       <use xlink:href="#DejaVuSans-32"/>
       <use xlink:href="#DejaVuSans-30" x="63.623047"/>
       <use xlink:href="#DejaVuSans-30" x="127.246094"/>
      </g>
     </g>
    </g>
    <g id="xtick_4">
     <g id="line2d_4">
      <g>
       <use xlink:href="#m3deb7e05f6" x="505.14674" y="1281.6" style="stroke: #000000; stroke-width: 0.8"/>
      </g>
     </g>
     <g id="text_4">
      <!-- 300 -->
      <g transform="translate(495.60299 1296.198437) scale(0.1 -0.1)">
       <defs>
        <path id="DejaVuSans-33" d="M 2597 2516 
Q 3050 2419 3304 2112 
Q 3559 1806 3559 1356 
Q 3559 666 3084 287 
Q 2609 -91 1734 -91 
Q 1441 -91 1130 -33 
Q 819 25 488 141 
L 488 750 
Q 750 597 1062 519 
Q 1375 441 1716 441 
Q 2309 441 2620 675 
Q 2931 909 2931 1356 
Q 2931 1769 2642 2001 
Q 2353 2234 1838 2234 
L 1294 2234 
L 1294 2753 
L 1863 2753 
Q 2328 2753 2575 2939 
Q 2822 3125 2822 3475 
Q 2822 3834 2567 4026 
Q 2313 4219 1838 4219 
Q 1578 4219 1281 4162 
Q 984 4106 628 3988 
L 628 4550 
Q 988 4650 1302 4700 
Q 1616 4750 1894 4750 
Q 2613 4750 3031 4423 
Q 3450 4097 3450 3541 
Q 3450 3153 3228 2886 
Q 3006 2619 2597 2516 
z
" transform="scale(0.015625)"/>
       </defs>
       <use xlink:href="#DejaVuSans-33"/>
       <use xlink:href="#DejaVuSans-30" x="63.623047"/>
       <use xlink:href="#DejaVuSans-30" x="127.246094"/>
      </g>
     </g>
    </g>
    <g id="xtick_5">
     <g id="line2d_5">
      <g>
       <use xlink:href="#m3deb7e05f6" x="576.306292" y="1281.6" style="stroke: #000000; stroke-width: 0.8"/>
      </g>
     </g>
     <g id="text_5">
      <!-- 400 -->
      <g transform="translate(566.762542 1296.198437) scale(0.1 -0.1)">
       <defs>
        <path id="DejaVuSans-34" d="M 2419 4116 
L 825 1625 
L 2419 1625 
L 2419 4116 
z
M 2253 4666 
L 3047 4666 
L 3047 1625 
L 3713 1625 
L 3713 1100 
L 3047 1100 
L 3047 0 
L 2419 0 
L 2419 1100 
L 313 1100 
L 313 1709 
L 2253 4666 
z
" transform="scale(0.015625)"/>
       </defs>
       <use xlink:href="#DejaVuSans-34"/>
       <use xlink:href="#DejaVuSans-30" x="63.623047"/>
       <use xlink:href="#DejaVuSans-30" x="127.246094"/>
      </g>
     </g>
    </g>
    <g id="xtick_6">
     <g id="line2d_6">
      <g>
       <use xlink:href="#m3deb7e05f6" x="647.465844" y="1281.6" style="stroke: #000000; stroke-width: 0.8"/>
      </g>
     </g>
     <g id="text_6">
      <!-- 500 -->
      <g transform="translate(637.922094 1296.198437) scale(0.1 -0.1)">
       <defs>
        <path id="DejaVuSans-35" d="M 691 4666 
L 3169 4666 
L 3169 4134 
L 1269 4134 
L 1269 2991 
Q 1406 3038 1543 3061 
Q 1681 3084 1819 3084 
Q 2600 3084 3056 2656 
Q 3513 2228 3513 1497 
Q 3513 744 3044 326 
Q 2575 -91 1722 -91 
Q 1428 -91 1123 -41 
Q 819 9 494 109 
L 494 744 
Q 775 591 1075 516 
Q 1375 441 1709 441 
Q 2250 441 2565 725 
Q 2881 1009 2881 1497 
Q 2881 1984 2565 2268 
Q 2250 2553 1709 2553 
Q 1456 2553 1204 2497 
Q 953 2441 691 2322 
L 691 4666 
z
" transform="scale(0.015625)"/>
       </defs>
       <use xlink:href="#DejaVuSans-35"/>
       <use xlink:href="#DejaVuSans-30" x="63.623047"/>
       <use xlink:href="#DejaVuSans-30" x="127.246094"/>
      </g>
     </g>
    </g>
    <g id="xtick_7">
     <g id="line2d_7">
      <g>
       <use xlink:href="#m3deb7e05f6" x="718.625396" y="1281.6" style="stroke: #000000; stroke-width: 0.8"/>
      </g>
     </g>
     <g id="text_7">
      <!-- 600 -->
      <g transform="translate(709.081646 1296.198437) scale(0.1 -0.1)">
       <defs>
        <path id="DejaVuSans-36" d="M 2113 2584 
Q 1688 2584 1439 2293 
Q 1191 2003 1191 1497 
Q 1191 994 1439 701 
Q 1688 409 2113 409 
Q 2538 409 2786 701 
Q 3034 994 3034 1497 
Q 3034 2003 2786 2293 
Q 2538 2584 2113 2584 
z
M 3366 4563 
L 3366 3988 
Q 3128 4100 2886 4159 
Q 2644 4219 2406 4219 
Q 1781 4219 1451 3797 
Q 1122 3375 1075 2522 
Q 1259 2794 1537 2939 
Q 1816 3084 2150 3084 
Q 2853 3084 3261 2657 
Q 3669 2231 3669 1497 
Q 3669 778 3244 343 
Q 2819 -91 2113 -91 
Q 1303 -91 875 529 
Q 447 1150 447 2328 
Q 447 3434 972 4092 
Q 1497 4750 2381 4750 
Q 2619 4750 2861 4703 
Q 3103 4656 3366 4563 
z
" transform="scale(0.015625)"/>
       </defs>
       <use xlink:href="#DejaVuSans-36"/>
       <use xlink:href="#DejaVuSans-30" x="63.623047"/>
       <use xlink:href="#DejaVuSans-30" x="127.246094"/>
      </g>
     </g>
    </g>
   </g>
   <g id="matplotlib.axis_2">
    <g id="ytick_1">
     <g id="line2d_8">
      <defs>
       <path id="m973cde317d" d="M 0 0 
L -3.5 0 
" style="stroke: #000000; stroke-width: 0.8"/>
      </defs>
      <g>
       <use xlink:href="#m973cde317d" x="270" y="1261.755171" style="stroke: #000000; stroke-width: 0.8"/>
      </g>
     </g>
     <g id="text_8">
      <!-- −6 -->
      <g transform="translate(248.257812 1265.554389) scale(0.1 -0.1)">
       <defs>
        <path id="DejaVuSans-2212" d="M 678 2272 
L 4684 2272 
L 4684 1741 
L 678 1741 
L 678 2272 
z
" transform="scale(0.015625)"/>
       </defs>
       <use xlink:href="#DejaVuSans-2212"/>
       <use xlink:href="#DejaVuSans-36" x="83.789062"/>
      </g>
     </g>
    </g>
    <g id="ytick_2">
     <g id="line2d_9">
      <g>
       <use xlink:href="#m973cde317d" x="270" y="1094.246272" style="stroke: #000000; stroke-width: 0.8"/>
      </g>
     </g>
     <g id="text_9">
      <!-- −5 -->
      <g transform="translate(248.257812 1098.045491) scale(0.1 -0.1)">
       <use xlink:href="#DejaVuSans-2212"/>
       <use xlink:href="#DejaVuSans-35" x="83.789062"/>
      </g>
     </g>
    </g>
    <g id="ytick_3">
     <g id="line2d_10">
      <g>
       <use xlink:href="#m973cde317d" x="270" y="926.737374" style="stroke: #000000; stroke-width: 0.8"/>
      </g>
     </g>
     <g id="text_10">
      <!-- −4 -->
      <g transform="translate(248.257812 930.536592) scale(0.1 -0.1)">
       <use xlink:href="#DejaVuSans-2212"/>
       <use xlink:href="#DejaVuSans-34" x="83.789062"/>
      </g>
     </g>
    </g>
    <g id="ytick_4">
     <g id="line2d_11">
      <g>
       <use xlink:href="#m973cde317d" x="270" y="759.228475" style="stroke: #000000; stroke-width: 0.8"/>
      </g>
     </g>
     <g id="text_11">
      <!-- −3 -->
      <g transform="translate(248.257812 763.027694) scale(0.1 -0.1)">
       <use xlink:href="#DejaVuSans-2212"/>
       <use xlink:href="#DejaVuSans-33" x="83.789062"/>
      </g>
     </g>
    </g>
    <g id="ytick_5">
     <g id="line2d_12">
      <g>
       <use xlink:href="#m973cde317d" x="270" y="591.719577" style="stroke: #000000; stroke-width: 0.8"/>
      </g>
     </g>
     <g id="text_12">
      <!-- −2 -->
      <g transform="translate(248.257812 595.518795) scale(0.1 -0.1)">
       <use xlink:href="#DejaVuSans-2212"/>
       <use xlink:href="#DejaVuSans-32" x="83.789062"/>
      </g>
     </g>
    </g>
    <g id="ytick_6">
     <g id="line2d_13">
      <g>
       <use xlink:href="#m973cde317d" x="270" y="424.210678" style="stroke: #000000; stroke-width: 0.8"/>
      </g>
     </g>
     <g id="text_13">
      <!-- −1 -->
      <g transform="translate(248.257812 428.009897) scale(0.1 -0.1)">
       <use xlink:href="#DejaVuSans-2212"/>
       <use xlink:href="#DejaVuSans-31" x="83.789062"/>
      </g>
     </g>
    </g>
    <g id="ytick_7">
     <g id="line2d_14">
      <g>
       <use xlink:href="#m973cde317d" x="270" y="256.70178" style="stroke: #000000; stroke-width: 0.8"/>
      </g>
     </g>
     <g id="text_14">
      <!-- 0 -->
      <g transform="translate(256.6375 260.500998) scale(0.1 -0.1)">
       <use xlink:href="#DejaVuSans-30"/>
      </g>
     </g>
    </g>
   </g>
   <g id="line2d_15">
    <path d="M 292.379679 256.70178 
L 327.959455 256.70178 
L 328.671051 223.2 
L 330.805837 223.2 
L 331.517433 245.53452 
L 333.652219 245.53452 
L 334.363815 283.503203 
L 336.498601 283.503203 
L 337.210197 287.798303 
L 339.344984 287.798303 
L 340.056579 330.381152 
L 342.191366 330.381152 
L 342.902961 348.889851 
L 345.037748 348.889851 
L 345.749343 368.698443 
L 347.88413 368.698443 
L 348.595725 386.094695 
L 350.730512 386.094695 
L 351.442107 408.659077 
L 353.576894 408.659077 
L 354.288489 425.8295 
L 359.269658 425.8295 
L 359.981254 411.614814 
L 364.962422 411.614814 
L 365.674018 431.82439 
L 367.808804 431.82439 
L 368.5204 414.747809 
L 370.655186 414.747809 
L 371.366782 400.9719 
L 376.347951 400.9719 
L 377.059546 404.431423 
L 379.194333 404.431423 
L 379.905928 387.430195 
L 384.887097 387.430195 
L 385.598692 370.49706 
L 387.733479 370.49706 
L 388.445075 353.628775 
L 390.579861 353.628775 
L 391.291457 369.256253 
L 393.426243 369.256253 
L 394.137839 343.876117 
L 399.119007 343.876117 
L 399.830603 320.354739 
L 401.965389 320.354739 
L 402.676985 335.153395 
L 404.811772 335.153395 
L 405.523367 320.354739 
L 407.658154 320.354739 
L 408.369749 342.960964 
L 413.350918 342.960964 
L 414.062513 358.917536 
L 416.1973 358.917536 
L 416.908895 386.712943 
L 419.043682 386.712943 
L 419.755277 382.535532 
L 421.890064 382.535532 
L 422.60166 393.053995 
L 424.736446 393.053995 
L 425.448042 389.038722 
L 427.582828 389.038722 
L 428.294424 385.113016 
L 430.42921 385.113016 
L 431.140806 391.997673 
L 433.275592 391.997673 
L 433.987188 431.416558 
L 436.121974 431.416558 
L 436.83357 417.3669 
L 438.968357 417.3669 
L 439.679952 428.270253 
L 441.814739 428.270253 
L 442.526334 467.180384 
L 444.661121 467.180384 
L 445.372716 480.469832 
L 447.507503 480.469832 
L 448.219098 492.191701 
L 456.046649 492.191701 
L 456.758245 505.187274 
L 458.893031 505.187274 
L 459.604627 529.904715 
L 461.739413 529.904715 
L 462.451009 516.929815 
L 464.585795 516.929815 
L 465.297391 541.689728 
L 467.432177 541.689728 
L 468.143773 566.22192 
L 470.278559 566.22192 
L 470.990155 578.06469 
L 473.124942 578.06469 
L 473.836537 615.511851 
L 475.971324 615.511851 
L 476.682919 640.674671 
L 478.817706 640.674671 
L 479.529301 678.568304 
L 481.664088 678.568304 
L 482.375683 715.82623 
L 484.51047 715.82623 
L 485.222065 740.855923 
L 487.356852 740.855923 
L 488.068447 753.656542 
L 490.203234 753.656542 
L 490.91483 778.686235 
L 493.049616 778.686235 
L 493.761212 766.628964 
L 495.895998 766.628964 
L 496.607594 742.809854 
L 498.74238 742.809854 
L 499.453976 719.2658 
L 501.588762 719.2658 
L 502.300358 707.493772 
L 504.435144 707.493772 
L 505.14674 732.656919 
L 507.281527 732.656919 
L 507.993122 732.769492 
L 510.127909 732.769492 
L 510.839504 734.926074 
L 512.974291 734.926074 
L 513.685886 774.122162 
L 518.667055 774.108526 
L 519.37865 751.527173 
L 521.513437 751.527173 
L 522.225033 740.249548 
L 524.359819 740.249548 
L 525.071415 717.731553 
L 527.206201 717.731553 
L 527.917797 743.46085 
L 530.052583 743.46085 
L 530.764179 754.713725 
L 535.745347 754.713725 
L 536.456943 765.9666 
L 538.59173 765.9666 
L 539.303325 754.725235 
L 541.438112 754.725235 
L 542.149707 746.976246 
L 544.284494 746.976246 
L 544.996089 724.735356 
L 547.130876 724.735356 
L 547.842471 728.472835 
L 549.977258 728.472835 
L 550.688853 747.43167 
L 552.82364 747.43167 
L 553.535235 751.604793 
L 555.670022 751.604793 
L 556.381618 740.57162 
L 561.362786 740.57162 
L 562.074382 766.748901 
L 564.209168 766.748901 
L 564.920764 755.869455 
L 567.05555 755.869455 
L 567.767146 744.998677 
L 569.901932 744.998677 
L 570.613528 749.539487 
L 572.748315 749.539487 
L 573.45991 754.172885 
L 575.594697 754.172885 
L 576.306292 769.702192 
L 578.441079 769.702192 
L 579.152674 796.140787 
L 581.287461 796.140787 
L 581.999056 838.247181 
L 584.133843 838.247181 
L 584.845438 864.685772 
L 586.980225 864.685772 
L 587.69182 901.879372 
L 589.826607 901.879372 
L 590.538203 944.001656 
L 592.672989 944.001656 
L 593.384585 981.117609 
L 595.519371 981.117609 
L 596.230967 1034.139373 
L 598.365753 1034.139373 
L 599.077349 1076.577142 
L 601.212135 1076.577142 
L 601.923731 1087.275314 
L 604.058517 1087.275314 
L 604.770113 1129.81783 
L 606.9049 1129.81783 
L 607.616495 1135.062224 
L 609.751282 1135.062224 
L 610.462877 1167.017016 
L 615.444046 1167.017016 
L 616.155641 1182.99207 
L 621.13681 1183.021597 
L 621.848405 1199.015082 
L 623.983192 1199.015082 
L 624.694788 1188.424636 
L 629.675956 1188.418643 
L 630.387552 1204.527201 
L 632.522338 1204.527201 
L 633.233934 1231.2 
L 635.36872 1231.2 
L 636.080316 1210.181135 
L 638.215102 1210.181135 
L 638.926698 1215.976174 
L 641.061485 1215.976174 
L 641.77308 1195.08657 
L 643.907867 1195.08657 
L 644.619462 1163.878218 
L 646.754249 1163.878218 
L 647.465844 1180.263178 
L 649.600631 1180.263178 
L 650.312226 1149.141862 
L 652.447013 1149.141862 
L 653.158608 1175.95192 
L 655.293395 1175.95192 
L 656.004991 1171.682663 
L 663.832541 1171.682663 
L 664.544137 1161.385553 
L 666.678923 1161.385553 
L 667.390519 1140.81504 
L 669.525305 1140.81504 
L 670.236901 1120.259112 
L 672.371688 1120.259112 
L 673.083283 1079.21766 
L 675.21807 1079.21766 
L 675.929665 1038.360566 
L 678.064452 1038.360566 
L 678.776047 1007.807469 
L 680.910834 1007.807469 
L 681.622429 977.329691 
L 683.757216 977.329691 
L 684.468811 967.188144 
L 686.603598 967.188144 
L 687.315193 936.813436 
L 689.44998 936.813436 
L 690.161576 916.586884 
L 695.142744 916.595113 
L 695.85434 906.499984 
L 697.989126 906.499984 
L 698.700722 876.248712 
L 700.835508 876.248712 
L 701.547104 903.377219 
L 703.68189 903.377219 
L 704.393486 873.1804 
L 706.528273 873.1804 
L 707.239868 907.393015 
L 709.374655 907.393015 
L 710.08625 971.768251 
L 712.221037 971.768251 
L 712.932632 961.728571 
L 715.067419 961.728571 
L 715.779014 958.803549 
L 717.913801 958.803549 
L 718.625396 918.724594 
L 720.760183 918.724594 
L 721.471778 935.932125 
L 723.606565 935.932125 
L 724.318161 980.361718 
L 726.452947 980.361718 
L 727.164543 1022.133437 
L 729.299329 1022.133437 
L 730.010925 1049.355674 
L 732.145711 1049.355674 
L 732.857307 1096.48264 
L 734.992093 1096.48264 
L 735.703689 1141.025716 
L 737.838475 1141.025716 
L 738.550071 1168.272528 
L 739.973262 1168.272528 
L 739.973262 1168.272528 
" clip-path="url(#p2dd41f45fd)" style="fill: none; stroke: #0000ff; stroke-width: 1.5; stroke-linecap: square"/>
   </g>
   <g id="patch_3">
    <path d="M 270 1281.6 
L 270 172.8 
" style="fill: none; stroke: #000000; stroke-width: 0.8; stroke-linejoin: miter; stroke-linecap: square"/>
   </g>
   <g id="patch_4">
    <path d="M 762.352941 1281.6 
L 762.352941 172.8 
" style="fill: none; stroke: #000000; stroke-width: 0.8; stroke-linejoin: miter; stroke-linecap: square"/>
   </g>
   <g id="patch_5">
    <path d="M 270 1281.6 
L 762.352941 1281.6 
" style="fill: none; stroke: #000000; stroke-width: 0.8; stroke-linejoin: miter; stroke-linecap: square"/>
   </g>
   <g id="patch_6">
    <path d="M 270 172.8 
L 762.352941 172.8 
" style="fill: none; stroke: #000000; stroke-width: 0.8; stroke-linejoin: miter; stroke-linecap: square"/>
   </g>
   <g id="legend_1">
    <g id="patch_7">
     <path d="M 671.310754 195.478125 
L 755.352941 195.478125 
Q 757.352941 195.478125 757.352941 193.478125 
L 757.352941 179.8 
Q 757.352941 177.8 755.352941 177.8 
L 671.310754 177.8 
Q 669.310754 177.8 669.310754 179.8 
L 669.310754 193.478125 
Q 669.310754 195.478125 671.310754 195.478125 
z
" style="fill: #ffffff; opacity: 0.8; stroke: #cccccc; stroke-linejoin: miter"/>
    </g>
    <g id="line2d_16">
     <path d="M 673.310754 185.898437 
L 683.310754 185.898437 
L 693.310754 185.898437 
" style="fill: none; stroke: #0000ff; stroke-width: 1.5; stroke-linecap: square"/>
    </g>
    <g id="text_15">
     <!-- O1 reward -->
     <g transform="translate(701.310754 189.398437) scale(0.1 -0.1)">
      <defs>
       <path id="DejaVuSans-4f" d="M 2522 4238 
Q 1834 4238 1429 3725 
Q 1025 3213 1025 2328 
Q 1025 1447 1429 934 
Q 1834 422 2522 422 
Q 3209 422 3611 934 
Q 4013 1447 4013 2328 
Q 4013 3213 3611 3725 
Q 3209 4238 2522 4238 
z
M 2522 4750 
Q 3503 4750 4090 4092 
Q 4678 3434 4678 2328 
Q 4678 1225 4090 567 
Q 3503 -91 2522 -91 
Q 1538 -91 948 565 
Q 359 1222 359 2328 
Q 359 3434 948 4092 
Q 1538 4750 2522 4750 
z
" transform="scale(0.015625)"/>
       <path id="DejaVuSans-20" transform="scale(0.015625)"/>
       <path id="DejaVuSans-72" d="M 2631 2963 
Q 2534 3019 2420 3045 
Q 2306 3072 2169 3072 
Q 1681 3072 1420 2755 
Q 1159 2438 1159 1844 
L 1159 0 
L 581 0 
L 581 3500 
L 1159 3500 
L 1159 2956 
Q 1341 3275 1631 3429 
Q 1922 3584 2338 3584 
Q 2397 3584 2469 3576 
Q 2541 3569 2628 3553 
L 2631 2963 
z
" transform="scale(0.015625)"/>
       <path id="DejaVuSans-65" d="M 3597 1894 
L 3597 1613 
L 953 1613 
Q 991 1019 1311 708 
Q 1631 397 2203 397 
Q 2534 397 2845 478 
Q 3156 559 3463 722 
L 3463 178 
Q 3153 47 2828 -22 
Q 2503 -91 2169 -91 
Q 1331 -91 842 396 
Q 353 884 353 1716 
Q 353 2575 817 3079 
Q 1281 3584 2069 3584 
Q 2775 3584 3186 3129 
Q 3597 2675 3597 1894 
z
M 3022 2063 
Q 3016 2534 2758 2815 
Q 2500 3097 2075 3097 
Q 1594 3097 1305 2825 
Q 1016 2553 972 2059 
L 3022 2063 
z
" transform="scale(0.015625)"/>
       <path id="DejaVuSans-77" d="M 269 3500 
L 844 3500 
L 1563 769 
L 2278 3500 
L 2956 3500 
L 3675 769 
L 4391 3500 
L 4966 3500 
L 4050 0 
L 3372 0 
L 2619 2869 
L 1863 0 
L 1184 0 
L 269 3500 
z
" transform="scale(0.015625)"/>
       <path id="DejaVuSans-61" d="M 2194 1759 
Q 1497 1759 1228 1600 
Q 959 1441 959 1056 
Q 959 750 1161 570 
Q 1363 391 1709 391 
Q 2188 391 2477 730 
Q 2766 1069 2766 1631 
L 2766 1759 
L 2194 1759 
z
M 3341 1997 
L 3341 0 
L 2766 0 
L 2766 531 
Q 2569 213 2275 61 
Q 1981 -91 1556 -91 
Q 1019 -91 701 211 
Q 384 513 384 1019 
Q 384 1609 779 1909 
Q 1175 2209 1959 2209 
L 2766 2209 
L 2766 2266 
Q 2766 2663 2505 2880 
Q 2244 3097 1772 3097 
Q 1472 3097 1187 3025 
Q 903 2953 641 2809 
L 641 3341 
Q 956 3463 1253 3523 
Q 1550 3584 1831 3584 
Q 2591 3584 2966 3190 
Q 3341 2797 3341 1997 
z
" transform="scale(0.015625)"/>
       <path id="DejaVuSans-64" d="M 2906 2969 
L 2906 4863 
L 3481 4863 
L 3481 0 
L 2906 0 
L 2906 525 
Q 2725 213 2448 61 
Q 2172 -91 1784 -91 
Q 1150 -91 751 415 
Q 353 922 353 1747 
Q 353 2572 751 3078 
Q 1150 3584 1784 3584 
Q 2172 3584 2448 3432 
Q 2725 3281 2906 2969 
z
M 947 1747 
Q 947 1113 1208 752 
Q 1469 391 1925 391 
Q 2381 391 2643 752 
Q 2906 1113 2906 1747 
Q 2906 2381 2643 2742 
Q 2381 3103 1925 3103 
Q 1469 3103 1208 2742 
Q 947 2381 947 1747 
z
" transform="scale(0.015625)"/>
      </defs>
      <use xlink:href="#DejaVuSans-4f"/>
      <use xlink:href="#DejaVuSans-31" x="78.710938"/>
      <use xlink:href="#DejaVuSans-20" x="142.333984"/>
      <use xlink:href="#DejaVuSans-72" x="174.121094"/>
      <use xlink:href="#DejaVuSans-65" x="212.984375"/>
      <use xlink:href="#DejaVuSans-77" x="274.507812"/>
      <use xlink:href="#DejaVuSans-61" x="356.294922"/>
      <use xlink:href="#DejaVuSans-72" x="417.574219"/>
      <use xlink:href="#DejaVuSans-64" x="456.9375"/>
     </g>
    </g>
   </g>
  </g>
  <g id="axes_2">
   <g id="patch_8">
    <path d="M 860.823529 1281.6 
L 1353.176471 1281.6 
L 1353.176471 172.8 
L 860.823529 172.8 
z
" style="fill: #ffffff"/>
   </g>
   <g id="matplotlib.axis_3">
    <g id="xtick_8">
     <g id="line2d_17">
      <g>
       <use xlink:href="#m3deb7e05f6" x="882.491613" y="1281.6" style="stroke: #000000; stroke-width: 0.8"/>
      </g>
     </g>
     <g id="text_16">
      <!-- 0 -->
      <g transform="translate(879.310363 1296.198437) scale(0.1 -0.1)">
       <use xlink:href="#DejaVuSans-30"/>
      </g>
     </g>
    </g>
    <g id="xtick_9">
     <g id="line2d_18">
      <g>
       <use xlink:href="#m3deb7e05f6" x="953.651165" y="1281.6" style="stroke: #000000; stroke-width: 0.8"/>
      </g>
     </g>
     <g id="text_17">
      <!-- 100 -->
      <g transform="translate(944.107415 1296.198437) scale(0.1 -0.1)">
       <use xlink:href="#DejaVuSans-31"/>
       <use xlink:href="#DejaVuSans-30" x="63.623047"/>
       <use xlink:href="#DejaVuSans-30" x="127.246094"/>
      </g>
     </g>
    </g>
    <g id="xtick_10">
     <g id="line2d_19">
      <g>
       <use xlink:href="#m3deb7e05f6" x="1024.810717" y="1281.6" style="stroke: #000000; stroke-width: 0.8"/>
      </g>
     </g>
     <g id="text_18">
      <!-- 200 -->
      <g transform="translate(1015.266967 1296.198437) scale(0.1 -0.1)">
       <use xlink:href="#DejaVuSans-32"/>
       <use xlink:href="#DejaVuSans-30" x="63.623047"/>
       <use xlink:href="#DejaVuSans-30" x="127.246094"/>
      </g>
     </g>
    </g>
    <g id="xtick_11">
     <g id="line2d_20">
      <g>
       <use xlink:href="#m3deb7e05f6" x="1095.970269" y="1281.6" style="stroke: #000000; stroke-width: 0.8"/>
      </g>
     </g>
     <g id="text_19">
      <!-- 300 -->
      <g transform="translate(1086.426519 1296.198437) scale(0.1 -0.1)">
       <use xlink:href="#DejaVuSans-33"/>
       <use xlink:href="#DejaVuSans-30" x="63.623047"/>
       <use xlink:href="#DejaVuSans-30" x="127.246094"/>
      </g>
     </g>
    </g>
    <g id="xtick_12">
     <g id="line2d_21">
      <g>
       <use xlink:href="#m3deb7e05f6" x="1167.129822" y="1281.6" style="stroke: #000000; stroke-width: 0.8"/>
      </g>
     </g>
     <g id="text_20">
      <!-- 400 -->
      <g transform="translate(1157.586072 1296.198437) scale(0.1 -0.1)">
       <use xlink:href="#DejaVuSans-34"/>
       <use xlink:href="#DejaVuSans-30" x="63.623047"/>
       <use xlink:href="#DejaVuSans-30" x="127.246094"/>
      </g>
     </g>
    </g>
    <g id="xtick_13">
     <g id="line2d_22">
      <g>
       <use xlink:href="#m3deb7e05f6" x="1238.289374" y="1281.6" style="stroke: #000000; stroke-width: 0.8"/>
      </g>
     </g>
     <g id="text_21">
      <!-- 500 -->
      <g transform="translate(1228.745624 1296.198437) scale(0.1 -0.1)">
       <use xlink:href="#DejaVuSans-35"/>
       <use xlink:href="#DejaVuSans-30" x="63.623047"/>
       <use xlink:href="#DejaVuSans-30" x="127.246094"/>
      </g>
     </g>
    </g>
    <g id="xtick_14">
     <g id="line2d_23">
      <g>
       <use xlink:href="#m3deb7e05f6" x="1309.448926" y="1281.6" style="stroke: #000000; stroke-width: 0.8"/>
      </g>
     </g>
     <g id="text_22">
      <!-- 600 -->
      <g transform="translate(1299.905176 1296.198437) scale(0.1 -0.1)">
       <use xlink:href="#DejaVuSans-36"/>
       <use xlink:href="#DejaVuSans-30" x="63.623047"/>
       <use xlink:href="#DejaVuSans-30" x="127.246094"/>
      </g>
     </g>
    </g>
   </g>
   <g id="matplotlib.axis_4">
    <g id="ytick_8">
     <g id="line2d_24">
      <g>
       <use xlink:href="#m973cde317d" x="860.823529" y="1231.2" style="stroke: #000000; stroke-width: 0.8"/>
      </g>
     </g>
     <g id="text_23">
      <!-- 0 -->
      <g transform="translate(847.461029 1234.999219) scale(0.1 -0.1)">
       <use xlink:href="#DejaVuSans-30"/>
      </g>
     </g>
    </g>
    <g id="ytick_9">
     <g id="line2d_25">
      <g>
       <use xlink:href="#m973cde317d" x="860.823529" y="1089.226869" style="stroke: #000000; stroke-width: 0.8"/>
      </g>
     </g>
     <g id="text_24">
      <!-- 10 -->
      <g transform="translate(841.098529 1093.026088) scale(0.1 -0.1)">
       <use xlink:href="#DejaVuSans-31"/>
       <use xlink:href="#DejaVuSans-30" x="63.623047"/>
      </g>
     </g>
    </g>
    <g id="ytick_10">
     <g id="line2d_26">
      <g>
       <use xlink:href="#m973cde317d" x="860.823529" y="947.253738" style="stroke: #000000; stroke-width: 0.8"/>
      </g>
     </g>
     <g id="text_25">
      <!-- 20 -->
      <g transform="translate(841.098529 951.052956) scale(0.1 -0.1)">
       <use xlink:href="#DejaVuSans-32"/>
       <use xlink:href="#DejaVuSans-30" x="63.623047"/>
      </g>
     </g>
    </g>
    <g id="ytick_11">
     <g id="line2d_27">
      <g>
       <use xlink:href="#m973cde317d" x="860.823529" y="805.280607" style="stroke: #000000; stroke-width: 0.8"/>
      </g>
     </g>
     <g id="text_26">
      <!-- 30 -->
      <g transform="translate(841.098529 809.079825) scale(0.1 -0.1)">
       <use xlink:href="#DejaVuSans-33"/>
       <use xlink:href="#DejaVuSans-30" x="63.623047"/>
      </g>
     </g>
    </g>
    <g id="ytick_12">
     <g id="line2d_28">
      <g>
       <use xlink:href="#m973cde317d" x="860.823529" y="663.307475" style="stroke: #000000; stroke-width: 0.8"/>
      </g>
     </g>
     <g id="text_27">
      <!-- 40 -->
      <g transform="translate(841.098529 667.106694) scale(0.1 -0.1)">
       <use xlink:href="#DejaVuSans-34"/>
       <use xlink:href="#DejaVuSans-30" x="63.623047"/>
      </g>
     </g>
    </g>
    <g id="ytick_13">
     <g id="line2d_29">
      <g>
       <use xlink:href="#m973cde317d" x="860.823529" y="521.334344" style="stroke: #000000; stroke-width: 0.8"/>
      </g>
     </g>
     <g id="text_28">
      <!-- 50 -->
      <g transform="translate(841.098529 525.133563) scale(0.1 -0.1)">
       <use xlink:href="#DejaVuSans-35"/>
       <use xlink:href="#DejaVuSans-30" x="63.623047"/>
      </g>
     </g>
    </g>
    <g id="ytick_14">
     <g id="line2d_30">
      <g>
       <use xlink:href="#m973cde317d" x="860.823529" y="379.361213" style="stroke: #000000; stroke-width: 0.8"/>
      </g>
     </g>
     <g id="text_29">
      <!-- 60 -->
      <g transform="translate(841.098529 383.160432) scale(0.1 -0.1)">
       <use xlink:href="#DejaVuSans-36"/>
       <use xlink:href="#DejaVuSans-30" x="63.623047"/>
      </g>
     </g>
    </g>
    <g id="ytick_15">
     <g id="line2d_31">
      <g>
       <use xlink:href="#m973cde317d" x="860.823529" y="237.388082" style="stroke: #000000; stroke-width: 0.8"/>
      </g>
     </g>
     <g id="text_30">
      <!-- 70 -->
      <g transform="translate(841.098529 241.187301) scale(0.1 -0.1)">
       <defs>
        <path id="DejaVuSans-37" d="M 525 4666 
L 3525 4666 
L 3525 4397 
L 1831 0 
L 1172 0 
L 2766 4134 
L 525 4134 
L 525 4666 
z
" transform="scale(0.015625)"/>
       </defs>
       <use xlink:href="#DejaVuSans-37"/>
       <use xlink:href="#DejaVuSans-30" x="63.623047"/>
      </g>
     </g>
    </g>
   </g>
   <g id="line2d_32">
    <path d="M 883.203209 1231.2 
L 915.936603 1231.095037 
L 916.648198 1225.37523 
L 918.782985 1225.37523 
L 919.49458 1227.616966 
L 921.629367 1227.616966 
L 922.340962 1226.283806 
L 924.475749 1226.283806 
L 925.187344 1228.911961 
L 927.322131 1228.911961 
L 928.033726 1217.104233 
L 930.168513 1217.104233 
L 930.880108 1199.205458 
L 933.014895 1199.205458 
L 933.726491 1190.301195 
L 935.861277 1190.301195 
L 936.572873 1166.846569 
L 938.707659 1166.846569 
L 939.419255 1145.230323 
L 952.93957 1145.230323 
L 953.651165 1135.848528 
L 961.478716 1135.848528 
L 962.190311 1125.842676 
L 970.017862 1125.842676 
L 970.729458 1112.209875 
L 972.864244 1112.209875 
L 973.57584 1108.381894 
L 975.710626 1108.381894 
L 976.422222 1104.169656 
L 981.40339 1104.169656 
L 982.114986 1078.313707 
L 984.249773 1078.313707 
L 984.961368 1037.653066 
L 987.096155 1037.653066 
L 987.80775 1026.821457 
L 989.942537 1026.821457 
L 990.654132 1005.963428 
L 992.788919 1005.963428 
L 993.500514 955.471575 
L 995.635301 955.471575 
L 996.346896 920.329166 
L 1026.945504 920.329166 
L 1027.657099 909.967122 
L 1035.48465 909.967122 
L 1036.196246 899.757359 
L 1038.331032 899.757359 
L 1039.042628 889.440849 
L 1041.177414 889.440849 
L 1041.88901 879.02033 
L 1046.870178 879.02033 
L 1047.581774 875.342378 
L 1058.255707 875.342378 
L 1058.967302 871.565584 
L 1061.102089 871.565584 
L 1061.813684 846.494387 
L 1063.948471 846.494387 
L 1064.660066 827.347947 
L 1066.794853 827.347947 
L 1067.506449 784.915541 
L 1069.641235 784.915541 
L 1070.352831 747.586701 
L 1072.487617 747.586701 
L 1073.199213 718.164396 
L 1075.333999 718.164396 
L 1076.045595 681.983441 
L 1078.180381 681.983441 
L 1078.891977 638.039929 
L 1081.026763 638.039929 
L 1081.738359 618.38722 
L 1083.873146 618.38722 
L 1084.584741 591.169418 
L 1092.412292 591.169418 
L 1093.123887 585.024747 
L 1095.258674 585.024747 
L 1095.970269 572.318901 
L 1098.105056 572.318901 
L 1098.816652 581.087406 
L 1100.951438 581.087406 
L 1101.663034 585.258015 
L 1103.79782 585.258015 
L 1104.509416 593.921704 
L 1106.644202 593.921704 
L 1107.355798 598.393694 
L 1109.490584 598.393694 
L 1110.20218 602.457322 
L 1112.336966 602.457322 
L 1113.048562 589.938232 
L 1118.029731 589.938232 
L 1118.741326 581.42498 
L 1120.876113 581.42498 
L 1121.587708 577.502845 
L 1123.722495 577.502845 
L 1124.43409 565.203708 
L 1126.568877 565.203708 
L 1127.280472 540.942414 
L 1129.415259 540.942414 
L 1130.126854 529.326255 
L 1132.261641 529.326255 
L 1132.973237 519.227542 
L 1135.108023 519.227542 
L 1135.819619 512.689734 
L 1137.954405 512.689734 
L 1138.666001 501.951449 
L 1140.800787 501.951449 
L 1141.512383 512.583682 
L 1143.647169 512.583682 
L 1144.358765 536.402387 
L 1146.493551 536.402387 
L 1147.205147 528.936574 
L 1149.339934 528.936574 
L 1150.051529 508.453069 
L 1152.186316 508.453069 
L 1152.897911 491.073467 
L 1155.032698 491.073467 
L 1155.744293 493.583205 
L 1157.87908 493.583205 
L 1158.590675 477.077465 
L 1160.725462 477.077465 
L 1161.437057 462.893615 
L 1163.571844 462.893615 
L 1164.283439 460.594587 
L 1169.264608 460.510526 
L 1169.976204 462.742422 
L 1172.11099 462.742422 
L 1172.822586 458.375025 
L 1174.957372 458.375025 
L 1175.668968 444.741785 
L 1177.803754 444.741785 
L 1178.51535 446.789018 
L 1180.650136 446.789018 
L 1181.361732 442.150798 
L 1183.496519 442.150798 
L 1184.208114 428.867188 
L 1186.342901 428.867188 
L 1187.054496 420.334288 
L 1189.189283 420.334288 
L 1189.900878 411.870094 
L 1192.035665 411.870094 
L 1192.74726 407.261277 
L 1194.882047 407.261277 
L 1195.593642 404.52497 
L 1200.574811 404.52497 
L 1201.286407 421.074418 
L 1203.421193 421.074418 
L 1204.132789 429.225781 
L 1206.267575 429.225781 
L 1206.979171 426.32572 
L 1209.113957 426.32572 
L 1209.825553 432.548907 
L 1211.960339 432.548907 
L 1212.671935 434.090625 
L 1214.806721 434.090625 
L 1215.518317 450.961576 
L 1217.653104 450.961576 
L 1218.364699 454.182685 
L 1220.499486 454.182685 
L 1221.211081 467.662841 
L 1223.345868 467.662841 
L 1224.057463 467.005323 
L 1226.19225 467.005323 
L 1226.903845 453.873381 
L 1229.038632 453.873381 
L 1229.750227 445.469045 
L 1231.885014 445.469045 
L 1232.59661 444.22654 
L 1234.731396 444.22654 
L 1235.442992 437.180105 
L 1237.577778 437.180105 
L 1238.289374 425.560306 
L 1240.42416 425.560306 
L 1241.135756 430.21453 
L 1243.270542 430.21453 
L 1243.982138 434.861021 
L 1246.116924 434.861021 
L 1246.82852 433.754503 
L 1248.963306 433.754503 
L 1249.674902 429.092468 
L 1251.809689 429.092468 
L 1252.521284 416.585186 
L 1254.656071 416.585186 
L 1255.367666 408.824692 
L 1260.348835 408.824692 
L 1261.06043 402.180547 
L 1263.195217 402.180547 
L 1263.906812 409.702835 
L 1266.041599 409.702835 
L 1266.753195 422.627402 
L 1268.887981 422.627402 
L 1269.599577 426.451455 
L 1271.734363 426.451455 
L 1272.445959 425.677677 
L 1274.580745 425.677677 
L 1275.292341 424.174189 
L 1277.427127 424.174189 
L 1278.138723 427.432999 
L 1280.273509 427.432999 
L 1280.985105 415.50236 
L 1283.119892 415.50236 
L 1283.831487 386.211493 
L 1285.966274 386.211493 
L 1286.677869 368.945106 
L 1288.812656 368.945106 
L 1289.524251 346.238157 
L 1291.659038 346.238157 
L 1292.370633 323.38414 
L 1294.50542 323.38414 
L 1295.217015 301.737203 
L 1297.351802 301.737203 
L 1298.063397 290.432483 
L 1300.198184 290.432483 
L 1300.90978 274.605889 
L 1303.044566 274.605889 
L 1303.756162 253.277932 
L 1305.890948 253.277932 
L 1306.602544 242.743923 
L 1308.73733 242.743923 
L 1309.448926 227.11125 
L 1311.583712 227.11125 
L 1312.295308 232.526433 
L 1314.430094 232.526433 
L 1315.14169 223.2 
L 1317.276477 223.2 
L 1317.988072 238.268956 
L 1320.122859 238.268956 
L 1320.834454 238.693825 
L 1322.969241 238.693825 
L 1323.680836 239.045546 
L 1325.815623 239.045546 
L 1326.527218 234.546433 
L 1328.662005 234.546433 
L 1329.3736 234.702585 
L 1330.796791 234.702585 
L 1330.796791 234.702585 
" clip-path="url(#pfc48ffe1c8)" style="fill: none; stroke: #0000ff; stroke-width: 1.5; stroke-linecap: square"/>
   </g>
   <g id="patch_9">
    <path d="M 860.823529 1281.6 
L 860.823529 172.8 
" style="fill: none; stroke: #000000; stroke-width: 0.8; stroke-linejoin: miter; stroke-linecap: square"/>
   </g>
   <g id="patch_10">
    <path d="M 1353.176471 1281.6 
L 1353.176471 172.8 
" style="fill: none; stroke: #000000; stroke-width: 0.8; stroke-linejoin: miter; stroke-linecap: square"/>
   </g>
   <g id="patch_11">
    <path d="M 860.823529 1281.6 
L 1353.176471 1281.6 
" style="fill: none; stroke: #000000; stroke-width: 0.8; stroke-linejoin: miter; stroke-linecap: square"/>
   </g>
   <g id="patch_12">
    <path d="M 860.823529 172.8 
L 1353.176471 172.8 
" style="fill: none; stroke: #000000; stroke-width: 0.8; stroke-linejoin: miter; stroke-linecap: square"/>
   </g>
   <g id="legend_2">
    <g id="patch_13">
     <path d="M 1262.134283 195.478125 
L 1346.176471 195.478125 
Q 1348.176471 195.478125 1348.176471 193.478125 
L 1348.176471 179.8 
Q 1348.176471 177.8 1346.176471 177.8 
L 1262.134283 177.8 
Q 1260.134283 177.8 1260.134283 179.8 
L 1260.134283 193.478125 
Q 1260.134283 195.478125 1262.134283 195.478125 
z
" style="fill: #ffffff; opacity: 0.8; stroke: #cccccc; stroke-linejoin: miter"/>
    </g>
    <g id="line2d_33">
     <path d="M 1264.134283 185.898437 
L 1274.134283 185.898437 
L 1284.134283 185.898437 
" style="fill: none; stroke: #0000ff; stroke-width: 1.5; stroke-linecap: square"/>
    </g>
    <g id="text_31">
     <!-- O2 reward -->
     <g transform="translate(1292.134283 189.398437) scale(0.1 -0.1)">
      <use xlink:href="#DejaVuSans-4f"/>
      <use xlink:href="#DejaVuSans-32" x="78.710938"/>
      <use xlink:href="#DejaVuSans-20" x="142.333984"/>
      <use xlink:href="#DejaVuSans-72" x="174.121094"/>
      <use xlink:href="#DejaVuSans-65" x="212.984375"/>
      <use xlink:href="#DejaVuSans-77" x="274.507812"/>
      <use xlink:href="#DejaVuSans-61" x="356.294922"/>
      <use xlink:href="#DejaVuSans-72" x="417.574219"/>
      <use xlink:href="#DejaVuSans-64" x="456.9375"/>
     </g>
    </g>
   </g>
  </g>
  <g id="axes_3">
   <g id="patch_14">
    <path d="M 1451.647059 1281.6 
L 1944 1281.6 
L 1944 172.8 
L 1451.647059 172.8 
z
" style="fill: #ffffff"/>
   </g>
   <g id="matplotlib.axis_5">
    <g id="xtick_15">
     <g id="line2d_34">
      <g>
       <use xlink:href="#m3deb7e05f6" x="1473.315142" y="1281.6" style="stroke: #000000; stroke-width: 0.8"/>
      </g>
     </g>
     <g id="text_32">
      <!-- 0 -->
      <g transform="translate(1470.133892 1296.198437) scale(0.1 -0.1)">
       <use xlink:href="#DejaVuSans-30"/>
      </g>
     </g>
    </g>
    <g id="xtick_16">
     <g id="line2d_35">
      <g>
       <use xlink:href="#m3deb7e05f6" x="1544.474695" y="1281.6" style="stroke: #000000; stroke-width: 0.8"/>
      </g>
     </g>
     <g id="text_33">
      <!-- 100 -->
      <g transform="translate(1534.930945 1296.198437) scale(0.1 -0.1)">
       <use xlink:href="#DejaVuSans-31"/>
       <use xlink:href="#DejaVuSans-30" x="63.623047"/>
       <use xlink:href="#DejaVuSans-30" x="127.246094"/>
      </g>
     </g>
    </g>
    <g id="xtick_17">
     <g id="line2d_36">
      <g>
       <use xlink:href="#m3deb7e05f6" x="1615.634247" y="1281.6" style="stroke: #000000; stroke-width: 0.8"/>
      </g>
     </g>
     <g id="text_34">
      <!-- 200 -->
      <g transform="translate(1606.090497 1296.198437) scale(0.1 -0.1)">
       <use xlink:href="#DejaVuSans-32"/>
       <use xlink:href="#DejaVuSans-30" x="63.623047"/>
       <use xlink:href="#DejaVuSans-30" x="127.246094"/>
      </g>
     </g>
    </g>
    <g id="xtick_18">
     <g id="line2d_37">
      <g>
       <use xlink:href="#m3deb7e05f6" x="1686.793799" y="1281.6" style="stroke: #000000; stroke-width: 0.8"/>
      </g>
     </g>
     <g id="text_35">
      <!-- 300 -->
      <g transform="translate(1677.250049 1296.198437) scale(0.1 -0.1)">
       <use xlink:href="#DejaVuSans-33"/>
       <use xlink:href="#DejaVuSans-30" x="63.623047"/>
       <use xlink:href="#DejaVuSans-30" x="127.246094"/>
      </g>
     </g>
    </g>
    <g id="xtick_19">
     <g id="line2d_38">
      <g>
       <use xlink:href="#m3deb7e05f6" x="1757.953351" y="1281.6" style="stroke: #000000; stroke-width: 0.8"/>
      </g>
     </g>
     <g id="text_36">
      <!-- 400 -->
      <g transform="translate(1748.409601 1296.198437) scale(0.1 -0.1)">
       <use xlink:href="#DejaVuSans-34"/>
       <use xlink:href="#DejaVuSans-30" x="63.623047"/>
       <use xlink:href="#DejaVuSans-30" x="127.246094"/>
      </g>
     </g>
    </g>
    <g id="xtick_20">
     <g id="line2d_39">
      <g>
       <use xlink:href="#m3deb7e05f6" x="1829.112903" y="1281.6" style="stroke: #000000; stroke-width: 0.8"/>
      </g>
     </g>
     <g id="text_37">
      <!-- 500 -->
      <g transform="translate(1819.569153 1296.198437) scale(0.1 -0.1)">
       <use xlink:href="#DejaVuSans-35"/>
       <use xlink:href="#DejaVuSans-30" x="63.623047"/>
       <use xlink:href="#DejaVuSans-30" x="127.246094"/>
      </g>
     </g>
    </g>
    <g id="xtick_21">
     <g id="line2d_40">
      <g>
       <use xlink:href="#m3deb7e05f6" x="1900.272455" y="1281.6" style="stroke: #000000; stroke-width: 0.8"/>
      </g>
     </g>
     <g id="text_38">
      <!-- 600 -->
      <g transform="translate(1890.728705 1296.198437) scale(0.1 -0.1)">
       <use xlink:href="#DejaVuSans-36"/>
       <use xlink:href="#DejaVuSans-30" x="63.623047"/>
       <use xlink:href="#DejaVuSans-30" x="127.246094"/>
      </g>
     </g>
    </g>
   </g>
   <g id="matplotlib.axis_6">
    <g id="ytick_16">
     <g id="line2d_41">
      <g>
       <use xlink:href="#m973cde317d" x="1451.647059" y="1231.2" style="stroke: #000000; stroke-width: 0.8"/>
      </g>
     </g>
     <g id="text_39">
      <!-- 0 -->
      <g transform="translate(1438.284559 1234.999219) scale(0.1 -0.1)">
       <use xlink:href="#DejaVuSans-30"/>
      </g>
     </g>
    </g>
    <g id="ytick_17">
     <g id="line2d_42">
      <g>
       <use xlink:href="#m973cde317d" x="1451.647059" y="1107.456021" style="stroke: #000000; stroke-width: 0.8"/>
      </g>
     </g>
     <g id="text_40">
      <!-- 2 -->
      <g transform="translate(1438.284559 1111.25524) scale(0.1 -0.1)">
       <use xlink:href="#DejaVuSans-32"/>
      </g>
     </g>
    </g>
    <g id="ytick_18">
     <g id="line2d_43">
      <g>
       <use xlink:href="#m973cde317d" x="1451.647059" y="983.712043" style="stroke: #000000; stroke-width: 0.8"/>
      </g>
     </g>
     <g id="text_41">
      <!-- 4 -->
      <g transform="translate(1438.284559 987.511262) scale(0.1 -0.1)">
       <use xlink:href="#DejaVuSans-34"/>
      </g>
     </g>
    </g>
    <g id="ytick_19">
     <g id="line2d_44">
      <g>
       <use xlink:href="#m973cde317d" x="1451.647059" y="859.968064" style="stroke: #000000; stroke-width: 0.8"/>
      </g>
     </g>
     <g id="text_42">
      <!-- 6 -->
      <g transform="translate(1438.284559 863.767283) scale(0.1 -0.1)">
       <use xlink:href="#DejaVuSans-36"/>
      </g>
     </g>
    </g>
    <g id="ytick_20">
     <g id="line2d_45">
      <g>
       <use xlink:href="#m973cde317d" x="1451.647059" y="736.224086" style="stroke: #000000; stroke-width: 0.8"/>
      </g>
     </g>
     <g id="text_43">
      <!-- 8 -->
      <g transform="translate(1438.284559 740.023305) scale(0.1 -0.1)">
       <defs>
        <path id="DejaVuSans-38" d="M 2034 2216 
Q 1584 2216 1326 1975 
Q 1069 1734 1069 1313 
Q 1069 891 1326 650 
Q 1584 409 2034 409 
Q 2484 409 2743 651 
Q 3003 894 3003 1313 
Q 3003 1734 2745 1975 
Q 2488 2216 2034 2216 
z
M 1403 2484 
Q 997 2584 770 2862 
Q 544 3141 544 3541 
Q 544 4100 942 4425 
Q 1341 4750 2034 4750 
Q 2731 4750 3128 4425 
Q 3525 4100 3525 3541 
Q 3525 3141 3298 2862 
Q 3072 2584 2669 2484 
Q 3125 2378 3379 2068 
Q 3634 1759 3634 1313 
Q 3634 634 3220 271 
Q 2806 -91 2034 -91 
Q 1263 -91 848 271 
Q 434 634 434 1313 
Q 434 1759 690 2068 
Q 947 2378 1403 2484 
z
M 1172 3481 
Q 1172 3119 1398 2916 
Q 1625 2713 2034 2713 
Q 2441 2713 2670 2916 
Q 2900 3119 2900 3481 
Q 2900 3844 2670 4047 
Q 2441 4250 2034 4250 
Q 1625 4250 1398 4047 
Q 1172 3844 1172 3481 
z
" transform="scale(0.015625)"/>
       </defs>
       <use xlink:href="#DejaVuSans-38"/>
      </g>
     </g>
    </g>
    <g id="ytick_21">
     <g id="line2d_46">
      <g>
       <use xlink:href="#m973cde317d" x="1451.647059" y="612.480107" style="stroke: #000000; stroke-width: 0.8"/>
      </g>
     </g>
     <g id="text_44">
      <!-- 10 -->
      <g transform="translate(1431.922059 616.279326) scale(0.1 -0.1)">
       <use xlink:href="#DejaVuSans-31"/>
       <use xlink:href="#DejaVuSans-30" x="63.623047"/>
      </g>
     </g>
    </g>
    <g id="ytick_22">
     <g id="line2d_47">
      <g>
       <use xlink:href="#m973cde317d" x="1451.647059" y="488.736129" style="stroke: #000000; stroke-width: 0.8"/>
      </g>
     </g>
     <g id="text_45">
      <!-- 12 -->
      <g transform="translate(1431.922059 492.535347) scale(0.1 -0.1)">
       <use xlink:href="#DejaVuSans-31"/>
       <use xlink:href="#DejaVuSans-32" x="63.623047"/>
      </g>
     </g>
    </g>
    <g id="ytick_23">
     <g id="line2d_48">
      <g>
       <use xlink:href="#m973cde317d" x="1451.647059" y="364.99215" style="stroke: #000000; stroke-width: 0.8"/>
      </g>
     </g>
     <g id="text_46">
      <!-- 14 -->
      <g transform="translate(1431.922059 368.791369) scale(0.1 -0.1)">
       <use xlink:href="#DejaVuSans-31"/>
       <use xlink:href="#DejaVuSans-34" x="63.623047"/>
      </g>
     </g>
    </g>
    <g id="ytick_24">
     <g id="line2d_49">
      <g>
       <use xlink:href="#m973cde317d" x="1451.647059" y="241.248172" style="stroke: #000000; stroke-width: 0.8"/>
      </g>
     </g>
     <g id="text_47">
      <!-- 16 -->
      <g transform="translate(1431.922059 245.04739) scale(0.1 -0.1)">
       <use xlink:href="#DejaVuSans-31"/>
       <use xlink:href="#DejaVuSans-36" x="63.623047"/>
      </g>
     </g>
    </g>
   </g>
   <g id="line2d_50">
    <path d="M 1474.026738 1231.2 
L 1503.91375 1231.2 
L 1504.625345 1207.069752 
L 1506.760132 1207.069752 
L 1507.471727 1187.787952 
L 1509.606514 1187.787952 
L 1510.31811 1171.386964 
L 1512.452896 1171.386964 
L 1513.164492 1147.080111 
L 1515.299278 1147.080111 
L 1516.010874 1138.906402 
L 1518.14566 1138.906402 
L 1518.857256 1107.085034 
L 1520.992042 1107.085034 
L 1521.703638 1116.330417 
L 1523.838424 1116.330417 
L 1524.55002 1098.220882 
L 1526.684807 1098.220882 
L 1527.396402 1080.36518 
L 1529.531189 1080.36518 
L 1530.242784 1068.252789 
L 1532.377571 1068.252789 
L 1533.089166 1047.738811 
L 1535.223953 1047.738811 
L 1535.935548 1028.482557 
L 1538.070335 1028.482557 
L 1538.78193 1016.549955 
L 1543.763099 1016.549955 
L 1544.474695 1011.297329 
L 1546.609481 1011.297329 
L 1547.321077 999.795485 
L 1549.455863 999.795485 
L 1550.167459 993.390024 
L 1555.148627 993.390024 
L 1555.860223 988.608267 
L 1557.995009 988.608267 
L 1558.706605 978.132586 
L 1563.687774 978.132586 
L 1564.399369 973.744291 
L 1566.534156 973.744291 
L 1567.245751 955.244741 
L 1569.380538 955.244741 
L 1570.092133 929.286288 
L 1572.22692 929.286288 
L 1572.938515 911.100755 
L 1575.073302 911.100755 
L 1575.784898 898.999765 
L 1577.919684 898.999765 
L 1578.63128 865.244259 
L 1580.766066 865.244259 
L 1581.477662 848.450142 
L 1583.612448 848.450142 
L 1584.324044 843.177986 
L 1586.45883 843.177986 
L 1587.170426 826.73505 
L 1589.305212 826.73505 
L 1590.016808 815.783979 
L 1592.151595 815.783979 
L 1592.86319 806.439182 
L 1594.997977 806.439182 
L 1595.709572 790.103276 
L 1597.844359 790.103276 
L 1598.555954 783.446603 
L 1600.690741 783.446603 
L 1601.402336 768.564381 
L 1606.383505 768.457783 
L 1607.0951 772.666783 
L 1609.229887 772.666783 
L 1609.941483 775.274153 
L 1612.076269 775.274153 
L 1612.787865 769.167839 
L 1614.922651 769.167839 
L 1615.634247 771.730129 
L 1617.769033 771.730129 
L 1618.480629 768.14248 
L 1620.615415 768.14248 
L 1621.327011 772.171116 
L 1623.461797 772.171116 
L 1624.173393 768.393118 
L 1629.154562 768.393118 
L 1629.866157 764.543046 
L 1632.000944 764.543046 
L 1632.712539 753.177898 
L 1634.847326 753.177898 
L 1635.558921 743.321748 
L 1637.693708 743.321748 
L 1638.405303 749.334882 
L 1640.54009 749.334882 
L 1641.251685 751.742611 
L 1649.079236 751.742611 
L 1649.790832 740.527877 
L 1651.925618 740.527877 
L 1652.637214 719.428695 
L 1654.772 719.428695 
L 1655.483596 709.196988 
L 1657.618382 709.196988 
L 1658.329978 701.96862 
L 1660.464765 701.96862 
L 1661.17636 697.23001 
L 1663.311147 697.23001 
L 1664.022742 685.913632 
L 1666.157529 685.913632 
L 1666.869124 678.321281 
L 1669.003911 678.321281 
L 1669.715506 672.428879 
L 1671.850293 672.428879 
L 1672.561888 660.367046 
L 1674.696675 660.367046 
L 1675.40827 653.224101 
L 1677.543057 653.224101 
L 1678.254653 643.369444 
L 1680.389439 643.369444 
L 1681.101035 640.663075 
L 1683.235821 640.663075 
L 1683.947417 629.547139 
L 1686.082203 629.547139 
L 1686.793799 620.336639 
L 1688.928585 620.336639 
L 1689.640181 611.288604 
L 1691.774967 611.288604 
L 1692.486563 602.600697 
L 1697.467732 602.600697 
L 1698.179327 596.560812 
L 1700.314114 596.560812 
L 1701.025709 591.316658 
L 1703.160496 591.316658 
L 1703.872091 593.775433 
L 1706.006878 593.775433 
L 1706.718473 589.130959 
L 1708.85326 589.130959 
L 1709.564856 581.060373 
L 1711.699642 581.060373 
L 1712.411238 575.269399 
L 1714.546024 575.269399 
L 1715.25762 569.430125 
L 1717.392406 569.430125 
L 1718.104002 561.701835 
L 1720.238788 561.701835 
L 1720.950384 545.241868 
L 1723.08517 545.241868 
L 1723.796766 543.400445 
L 1725.931553 543.400445 
L 1726.643148 540.824817 
L 1728.777935 540.824817 
L 1729.48953 530.715937 
L 1731.624317 530.715937 
L 1732.335912 523.485348 
L 1734.470699 523.485348 
L 1735.182294 518.501823 
L 1737.317081 518.501823 
L 1738.028676 509.54891 
L 1740.163463 509.54891 
L 1740.875058 499.34734 
L 1743.009845 499.34734 
L 1743.721441 493.92205 
L 1745.856227 493.92205 
L 1746.567823 492.926034 
L 1748.702609 492.926034 
L 1749.414205 490.036182 
L 1751.548991 490.036182 
L 1752.260587 486.153429 
L 1754.395373 486.153429 
L 1755.106969 480.468951 
L 1757.241755 480.468951 
L 1757.953351 478.612552 
L 1760.088138 478.612552 
L 1760.799733 470.601936 
L 1762.93452 470.601936 
L 1763.646115 467.861392 
L 1765.780902 467.861392 
L 1766.492497 463.701496 
L 1768.627284 463.701496 
L 1769.338879 459.563016 
L 1771.473666 459.563016 
L 1772.185261 454.991021 
L 1777.16643 454.991021 
L 1777.878026 452.278461 
L 1780.012812 452.278461 
L 1780.724408 450.921366 
L 1782.859194 450.921366 
L 1783.57079 445.083224 
L 1788.551958 445.083224 
L 1789.263554 446.428109 
L 1791.39834 446.428109 
L 1792.109936 446.881971 
L 1794.244723 446.881971 
L 1794.956318 444.2926 
L 1797.091105 444.2926 
L 1797.8027 435.961726 
L 1799.937487 435.961726 
L 1800.649082 432.608337 
L 1802.783869 432.608337 
L 1803.495464 433.383221 
L 1805.630251 433.383221 
L 1806.341846 425.222438 
L 1808.476633 425.222438 
L 1809.188228 418.56766 
L 1811.323015 418.56766 
L 1812.034611 417.487553 
L 1814.169397 417.487553 
L 1814.880993 414.375502 
L 1817.015779 414.375502 
L 1817.727375 409.954463 
L 1819.862161 409.954463 
L 1820.573757 409.273424 
L 1822.708543 409.273424 
L 1823.420139 404.620045 
L 1825.554925 404.620045 
L 1826.266521 400.987864 
L 1828.401308 400.987864 
L 1829.112903 395.027509 
L 1831.24769 395.027509 
L 1831.959285 391.500232 
L 1834.094072 391.500232 
L 1834.805667 386.793119 
L 1836.940454 386.793119 
L 1837.652049 382.471834 
L 1839.786836 382.471834 
L 1840.498431 379.081319 
L 1842.633218 379.081319 
L 1843.344814 378.507284 
L 1845.4796 378.507284 
L 1846.191196 374.303316 
L 1848.325982 374.303316 
L 1849.037578 368.477072 
L 1851.172364 368.477072 
L 1851.88396 363.386414 
L 1854.018746 363.386414 
L 1854.730342 356.366842 
L 1856.865128 356.366842 
L 1857.576724 350.01986 
L 1859.711511 350.01986 
L 1860.423106 335.061013 
L 1862.557893 335.061013 
L 1863.269488 324.501663 
L 1865.404275 324.501663 
L 1866.11587 316.690439 
L 1868.250657 316.690439 
L 1868.962252 311.797606 
L 1871.097039 311.797606 
L 1871.808634 304.841304 
L 1873.943421 304.841304 
L 1874.655016 299.84865 
L 1876.789803 299.84865 
L 1877.501399 288.258012 
L 1879.636185 288.258012 
L 1880.347781 281.84999 
L 1882.482567 281.84999 
L 1883.194163 275.375202 
L 1885.328949 275.375202 
L 1886.040545 270.191312 
L 1888.175331 270.191312 
L 1888.886927 263.857488 
L 1891.021713 263.857488 
L 1891.733309 257.847034 
L 1893.868096 257.847034 
L 1894.579691 251.193515 
L 1896.714478 251.193515 
L 1897.426073 244.305324 
L 1899.56086 244.305324 
L 1900.272455 242.135291 
L 1902.407242 242.135291 
L 1903.118837 238.134761 
L 1905.253624 238.134761 
L 1905.965219 236.705639 
L 1908.100006 236.705639 
L 1908.811601 234.986415 
L 1910.946388 234.986415 
L 1911.657984 232.151525 
L 1913.79277 232.151525 
L 1914.504366 227.658898 
L 1916.639152 227.658898 
L 1917.350748 225.975614 
L 1919.485534 225.975614 
L 1920.19713 223.2 
L 1921.620321 223.2 
L 1921.620321 223.2 
" clip-path="url(#pf70f06ecdf)" style="fill: none; stroke: #0000ff; stroke-width: 1.5; stroke-linecap: square"/>
   </g>
   <g id="patch_15">
    <path d="M 1451.647059 1281.6 
L 1451.647059 172.8 
" style="fill: none; stroke: #000000; stroke-width: 0.8; stroke-linejoin: miter; stroke-linecap: square"/>
   </g>
   <g id="patch_16">
    <path d="M 1944 1281.6 
L 1944 172.8 
" style="fill: none; stroke: #000000; stroke-width: 0.8; stroke-linejoin: miter; stroke-linecap: square"/>
   </g>
   <g id="patch_17">
    <path d="M 1451.647059 1281.6 
L 1944 1281.6 
" style="fill: none; stroke: #000000; stroke-width: 0.8; stroke-linejoin: miter; stroke-linecap: square"/>
   </g>
   <g id="patch_18">
    <path d="M 1451.647059 172.8 
L 1944 172.8 
" style="fill: none; stroke: #000000; stroke-width: 0.8; stroke-linejoin: miter; stroke-linecap: square"/>
   </g>
   <g id="legend_3">
    <g id="patch_19">
     <path d="M 1852.957813 195.478125 
L 1937 195.478125 
Q 1939 195.478125 1939 193.478125 
L 1939 179.8 
Q 1939 177.8 1937 177.8 
L 1852.957813 177.8 
Q 1850.957813 177.8 1850.957813 179.8 
L 1850.957813 193.478125 
Q 1850.957813 195.478125 1852.957813 195.478125 
z
" style="fill: #ffffff; opacity: 0.8; stroke: #cccccc; stroke-linejoin: miter"/>
    </g>
    <g id="line2d_51">
     <path d="M 1854.957813 185.898437 
L 1864.957813 185.898437 
L 1874.957813 185.898437 
" style="fill: none; stroke: #0000ff; stroke-width: 1.5; stroke-linecap: square"/>
    </g>
    <g id="text_48">
     <!-- O3 reward -->
     <g transform="translate(1882.957813 189.398437) scale(0.1 -0.1)">
      <use xlink:href="#DejaVuSans-4f"/>
      <use xlink:href="#DejaVuSans-33" x="78.710938"/>
      <use xlink:href="#DejaVuSans-20" x="142.333984"/>
      <use xlink:href="#DejaVuSans-72" x="174.121094"/>
      <use xlink:href="#DejaVuSans-65" x="212.984375"/>
      <use xlink:href="#DejaVuSans-77" x="274.507812"/>
      <use xlink:href="#DejaVuSans-61" x="356.294922"/>
      <use xlink:href="#DejaVuSans-72" x="417.574219"/>
      <use xlink:href="#DejaVuSans-64" x="456.9375"/>
     </g>
    </g>
   </g>
  </g>
 </g>
 <defs>
  <clipPath id="p2dd41f45fd">
   <rect x="270" y="172.8" width="492.352941" height="1108.8"/>
  </clipPath>
  <clipPath id="pfc48ffe1c8">
   <rect x="860.823529" y="172.8" width="492.352941" height="1108.8"/>
  </clipPath>
  <clipPath id="pf70f06ecdf">
   <rect x="1451.647059" y="172.8" width="492.352941" height="1108.8"/>
  </clipPath>
 </defs>
</svg>
