<?xml version="1.0" encoding="utf-8" standalone="no"?>
<!DOCTYPE svg PUBLIC "-//W3C//DTD SVG 1.1//EN"
  "http://www.w3.org/Graphics/SVG/1.1/DTD/svg11.dtd">
<svg xmlns:xlink="http://www.w3.org/1999/xlink" width="2160pt" height="1440pt" viewBox="0 0 2160 1440" xmlns="http://www.w3.org/2000/svg" version="1.1">
 <metadata>
  <rdf:RDF xmlns:dc="http://purl.org/dc/elements/1.1/" xmlns:cc="http://creativecommons.org/ns#" xmlns:rdf="http://www.w3.org/1999/02/22-rdf-syntax-ns#">
   <cc:Work>
    <dc:type rdf:resource="http://purl.org/dc/dcmitype/StillImage"/>
    <dc:date>2023-05-31T19:53:38.454451</dc:date>
    <dc:format>image/svg+xml</dc:format>
    <dc:creator>
     <cc:Agent>
      <dc:title>Matplotlib v3.7.1, https://matplotlib.org/</dc:title>
     </cc:Agent>
    </dc:creator>
   </cc:Work>
  </rdf:RDF>
 </metadata>
 <defs>
  <style type="text/css">*{stroke-linejoin: round; stroke-linecap: butt}</style>
 </defs>
 <g id="figure_1">
  <g id="patch_1">
   <path d="M 0 1440 
L 2160 1440 
L 2160 0 
L 0 0 
z
" style="fill: #ffffff"/>
  </g>
  <g id="axes_1">
   <g id="patch_2">
    <path d="M 270 1281.6 
L 762.352941 1281.6 
L 762.352941 172.8 
L 270 172.8 
z
" style="fill: #ffffff"/>
   </g>
   <g id="matplotlib.axis_1">
    <g id="xtick_1">
     <g id="line2d_1">
      <defs>
       <path id="m43b959eaf2" d="M 0 0 
L 0 3.5 
" style="stroke: #000000; stroke-width: 0.8"/>
      </defs>
      <g>
       <use xlink:href="#m43b959eaf2" x="292.116234" y="1281.6" style="stroke: #000000; stroke-width: 0.8"/>
      </g>
     </g>
     <g id="text_1">
      <!-- 0 -->
      <g transform="translate(288.934984 1296.198437) scale(0.1 -0.1)">
       <defs>
        <path id="DejaVuSans-30" d="M 2034 4250 
Q 1547 4250 1301 3770 
Q 1056 3291 1056 2328 
Q 1056 1369 1301 889 
Q 1547 409 2034 409 
Q 2525 409 2770 889 
Q 3016 1369 3016 2328 
Q 3016 3291 2770 3770 
Q 2525 4250 2034 4250 
z
M 2034 4750 
Q 2819 4750 3233 4129 
Q 3647 3509 3647 2328 
Q 3647 1150 3233 529 
Q 2819 -91 2034 -91 
Q 1250 -91 836 529 
Q 422 1150 422 2328 
Q 422 3509 836 4129 
Q 1250 4750 2034 4750 
z
" transform="scale(0.015625)"/>
       </defs>
       <use xlink:href="#DejaVuSans-30"/>
      </g>
     </g>
    </g>
    <g id="xtick_2">
     <g id="line2d_2">
      <g>
       <use xlink:href="#m43b959eaf2" x="357.977562" y="1281.6" style="stroke: #000000; stroke-width: 0.8"/>
      </g>
     </g>
     <g id="text_2">
      <!-- 250 -->
      <g transform="translate(348.433812 1296.198437) scale(0.1 -0.1)">
       <defs>
        <path id="DejaVuSans-32" d="M 1228 531 
L 3431 531 
L 3431 0 
L 469 0 
L 469 531 
Q 828 903 1448 1529 
Q 2069 2156 2228 2338 
Q 2531 2678 2651 2914 
Q 2772 3150 2772 3378 
Q 2772 3750 2511 3984 
Q 2250 4219 1831 4219 
Q 1534 4219 1204 4116 
Q 875 4013 500 3803 
L 500 4441 
Q 881 4594 1212 4672 
Q 1544 4750 1819 4750 
Q 2544 4750 2975 4387 
Q 3406 4025 3406 3419 
Q 3406 3131 3298 2873 
Q 3191 2616 2906 2266 
Q 2828 2175 2409 1742 
Q 1991 1309 1228 531 
z
" transform="scale(0.015625)"/>
        <path id="DejaVuSans-35" d="M 691 4666 
L 3169 4666 
L 3169 4134 
L 1269 4134 
L 1269 2991 
Q 1406 3038 1543 3061 
Q 1681 3084 1819 3084 
Q 2600 3084 3056 2656 
Q 3513 2228 3513 1497 
Q 3513 744 3044 326 
Q 2575 -91 1722 -91 
Q 1428 -91 1123 -41 
Q 819 9 494 109 
L 494 744 
Q 775 591 1075 516 
Q 1375 441 1709 441 
Q 2250 441 2565 725 
Q 2881 1009 2881 1497 
Q 2881 1984 2565 2268 
Q 2250 2553 1709 2553 
Q 1456 2553 1204 2497 
Q 953 2441 691 2322 
L 691 4666 
z
" transform="scale(0.015625)"/>
       </defs>
       <use xlink:href="#DejaVuSans-32"/>
       <use xlink:href="#DejaVuSans-35" x="63.623047"/>
       <use xlink:href="#DejaVuSans-30" x="127.246094"/>
      </g>
     </g>
    </g>
    <g id="xtick_3">
     <g id="line2d_3">
      <g>
       <use xlink:href="#m43b959eaf2" x="423.838889" y="1281.6" style="stroke: #000000; stroke-width: 0.8"/>
      </g>
     </g>
     <g id="text_3">
      <!-- 500 -->
      <g transform="translate(414.295139 1296.198437) scale(0.1 -0.1)">
       <use xlink:href="#DejaVuSans-35"/>
       <use xlink:href="#DejaVuSans-30" x="63.623047"/>
       <use xlink:href="#DejaVuSans-30" x="127.246094"/>
      </g>
     </g>
    </g>
    <g id="xtick_4">
     <g id="line2d_4">
      <g>
       <use xlink:href="#m43b959eaf2" x="489.700217" y="1281.6" style="stroke: #000000; stroke-width: 0.8"/>
      </g>
     </g>
     <g id="text_4">
      <!-- 750 -->
      <g transform="translate(480.156467 1296.198437) scale(0.1 -0.1)">
       <defs>
        <path id="DejaVuSans-37" d="M 525 4666 
L 3525 4666 
L 3525 4397 
L 1831 0 
L 1172 0 
L 2766 4134 
L 525 4134 
L 525 4666 
z
" transform="scale(0.015625)"/>
       </defs>
       <use xlink:href="#DejaVuSans-37"/>
       <use xlink:href="#DejaVuSans-35" x="63.623047"/>
       <use xlink:href="#DejaVuSans-30" x="127.246094"/>
      </g>
     </g>
    </g>
    <g id="xtick_5">
     <g id="line2d_5">
      <g>
       <use xlink:href="#m43b959eaf2" x="555.561545" y="1281.6" style="stroke: #000000; stroke-width: 0.8"/>
      </g>
     </g>
     <g id="text_5">
      <!-- 1000 -->
      <g transform="translate(542.836545 1296.198437) scale(0.1 -0.1)">
       <defs>
        <path id="DejaVuSans-31" d="M 794 531 
L 1825 531 
L 1825 4091 
L 703 3866 
L 703 4441 
L 1819 4666 
L 2450 4666 
L 2450 531 
L 3481 531 
L 3481 0 
L 794 0 
L 794 531 
z
" transform="scale(0.015625)"/>
       </defs>
       <use xlink:href="#DejaVuSans-31"/>
       <use xlink:href="#DejaVuSans-30" x="63.623047"/>
       <use xlink:href="#DejaVuSans-30" x="127.246094"/>
       <use xlink:href="#DejaVuSans-30" x="190.869141"/>
      </g>
     </g>
    </g>
    <g id="xtick_6">
     <g id="line2d_6">
      <g>
       <use xlink:href="#m43b959eaf2" x="621.422872" y="1281.6" style="stroke: #000000; stroke-width: 0.8"/>
      </g>
     </g>
     <g id="text_6">
      <!-- 1250 -->
      <g transform="translate(608.697872 1296.198437) scale(0.1 -0.1)">
       <use xlink:href="#DejaVuSans-31"/>
       <use xlink:href="#DejaVuSans-32" x="63.623047"/>
       <use xlink:href="#DejaVuSans-35" x="127.246094"/>
       <use xlink:href="#DejaVuSans-30" x="190.869141"/>
      </g>
     </g>
    </g>
    <g id="xtick_7">
     <g id="line2d_7">
      <g>
       <use xlink:href="#m43b959eaf2" x="687.2842" y="1281.6" style="stroke: #000000; stroke-width: 0.8"/>
      </g>
     </g>
     <g id="text_7">
      <!-- 1500 -->
      <g transform="translate(674.5592 1296.198437) scale(0.1 -0.1)">
       <use xlink:href="#DejaVuSans-31"/>
       <use xlink:href="#DejaVuSans-35" x="63.623047"/>
       <use xlink:href="#DejaVuSans-30" x="127.246094"/>
       <use xlink:href="#DejaVuSans-30" x="190.869141"/>
      </g>
     </g>
    </g>
    <g id="xtick_8">
     <g id="line2d_8">
      <g>
       <use xlink:href="#m43b959eaf2" x="753.145528" y="1281.6" style="stroke: #000000; stroke-width: 0.8"/>
      </g>
     </g>
     <g id="text_8">
      <!-- 1750 -->
      <g transform="translate(740.420528 1296.198437) scale(0.1 -0.1)">
       <use xlink:href="#DejaVuSans-31"/>
       <use xlink:href="#DejaVuSans-37" x="63.623047"/>
       <use xlink:href="#DejaVuSans-35" x="127.246094"/>
       <use xlink:href="#DejaVuSans-30" x="190.869141"/>
      </g>
     </g>
    </g>
   </g>
   <g id="matplotlib.axis_2">
    <g id="ytick_1">
     <g id="line2d_9">
      <defs>
       <path id="m66fef50e22" d="M 0 0 
L -3.5 0 
" style="stroke: #000000; stroke-width: 0.8"/>
      </defs>
      <g>
       <use xlink:href="#m66fef50e22" x="270" y="1236.790581" style="stroke: #000000; stroke-width: 0.8"/>
      </g>
     </g>
     <g id="text_9">
      <!-- −30 -->
      <g transform="translate(241.895312 1240.5898) scale(0.1 -0.1)">
       <defs>
        <path id="DejaVuSans-2212" d="M 678 2272 
L 4684 2272 
L 4684 1741 
L 678 1741 
L 678 2272 
z
" transform="scale(0.015625)"/>
        <path id="DejaVuSans-33" d="M 2597 2516 
Q 3050 2419 3304 2112 
Q 3559 1806 3559 1356 
Q 3559 666 3084 287 
Q 2609 -91 1734 -91 
Q 1441 -91 1130 -33 
Q 819 25 488 141 
L 488 750 
Q 750 597 1062 519 
Q 1375 441 1716 441 
Q 2309 441 2620 675 
Q 2931 909 2931 1356 
Q 2931 1769 2642 2001 
Q 2353 2234 1838 2234 
L 1294 2234 
L 1294 2753 
L 1863 2753 
Q 2328 2753 2575 2939 
Q 2822 3125 2822 3475 
Q 2822 3834 2567 4026 
Q 2313 4219 1838 4219 
Q 1578 4219 1281 4162 
Q 984 4106 628 3988 
L 628 4550 
Q 988 4650 1302 4700 
Q 1616 4750 1894 4750 
Q 2613 4750 3031 4423 
Q 3450 4097 3450 3541 
Q 3450 3153 3228 2886 
Q 3006 2619 2597 2516 
z
" transform="scale(0.015625)"/>
       </defs>
       <use xlink:href="#DejaVuSans-2212"/>
       <use xlink:href="#DejaVuSans-33" x="83.789062"/>
       <use xlink:href="#DejaVuSans-30" x="147.412109"/>
      </g>
     </g>
    </g>
    <g id="ytick_2">
     <g id="line2d_10">
      <g>
       <use xlink:href="#m66fef50e22" x="270" y="1068.977571" style="stroke: #000000; stroke-width: 0.8"/>
      </g>
     </g>
     <g id="text_10">
      <!-- −25 -->
      <g transform="translate(241.895312 1072.77679) scale(0.1 -0.1)">
       <use xlink:href="#DejaVuSans-2212"/>
       <use xlink:href="#DejaVuSans-32" x="83.789062"/>
       <use xlink:href="#DejaVuSans-35" x="147.412109"/>
      </g>
     </g>
    </g>
    <g id="ytick_3">
     <g id="line2d_11">
      <g>
       <use xlink:href="#m66fef50e22" x="270" y="901.164561" style="stroke: #000000; stroke-width: 0.8"/>
      </g>
     </g>
     <g id="text_11">
      <!-- −20 -->
      <g transform="translate(241.895312 904.963779) scale(0.1 -0.1)">
       <use xlink:href="#DejaVuSans-2212"/>
       <use xlink:href="#DejaVuSans-32" x="83.789062"/>
       <use xlink:href="#DejaVuSans-30" x="147.412109"/>
      </g>
     </g>
    </g>
    <g id="ytick_4">
     <g id="line2d_12">
      <g>
       <use xlink:href="#m66fef50e22" x="270" y="733.351551" style="stroke: #000000; stroke-width: 0.8"/>
      </g>
     </g>
     <g id="text_12">
      <!-- −15 -->
      <g transform="translate(241.895312 737.150769) scale(0.1 -0.1)">
       <use xlink:href="#DejaVuSans-2212"/>
       <use xlink:href="#DejaVuSans-31" x="83.789062"/>
       <use xlink:href="#DejaVuSans-35" x="147.412109"/>
      </g>
     </g>
    </g>
    <g id="ytick_5">
     <g id="line2d_13">
      <g>
       <use xlink:href="#m66fef50e22" x="270" y="565.538541" style="stroke: #000000; stroke-width: 0.8"/>
      </g>
     </g>
     <g id="text_13">
      <!-- −10 -->
      <g transform="translate(241.895312 569.337759) scale(0.1 -0.1)">
       <use xlink:href="#DejaVuSans-2212"/>
       <use xlink:href="#DejaVuSans-31" x="83.789062"/>
       <use xlink:href="#DejaVuSans-30" x="147.412109"/>
      </g>
     </g>
    </g>
    <g id="ytick_6">
     <g id="line2d_14">
      <g>
       <use xlink:href="#m66fef50e22" x="270" y="397.72553" style="stroke: #000000; stroke-width: 0.8"/>
      </g>
     </g>
     <g id="text_14">
      <!-- −5 -->
      <g transform="translate(248.257812 401.524749) scale(0.1 -0.1)">
       <use xlink:href="#DejaVuSans-2212"/>
       <use xlink:href="#DejaVuSans-35" x="83.789062"/>
      </g>
     </g>
    </g>
    <g id="ytick_7">
     <g id="line2d_15">
      <g>
       <use xlink:href="#m66fef50e22" x="270" y="229.91252" style="stroke: #000000; stroke-width: 0.8"/>
      </g>
     </g>
     <g id="text_15">
      <!-- 0 -->
      <g transform="translate(256.6375 233.711739) scale(0.1 -0.1)">
       <use xlink:href="#DejaVuSans-30"/>
      </g>
     </g>
    </g>
   </g>
   <g id="line2d_16">
    <path d="M 292.379679 229.91252 
L 305.551945 229.91252 
L 305.81539 223.2 
L 306.605726 223.2 
L 306.869171 227.675014 
L 307.659507 227.675014 
L 307.922952 235.282537 
L 308.713288 235.282537 
L 308.976734 236.143116 
L 309.76707 236.143116 
L 310.030515 244.675148 
L 310.820851 244.675148 
L 311.084296 248.383608 
L 311.874632 248.383608 
L 312.138077 252.352519 
L 312.928413 252.352519 
L 313.191859 255.838086 
L 313.982195 255.838086 
L 314.24564 260.359155 
L 315.035976 260.359155 
L 315.299421 263.799475 
L 317.143538 263.799475 
L 317.406984 260.951376 
L 319.251101 260.951376 
L 319.514546 265.000629 
L 320.304882 265.000629 
L 320.568327 261.579113 
L 321.358663 261.579113 
L 321.622109 258.818929 
L 323.466226 258.818929 
L 323.729671 259.51209 
L 324.520007 259.51209 
L 324.783452 256.105671 
L 326.62757 256.105671 
L 326.891015 252.712895 
L 327.681351 252.712895 
L 327.944796 249.333114 
L 328.735132 249.333114 
L 328.998577 252.464284 
L 329.788913 252.464284 
L 330.052359 247.379041 
L 331.896476 247.379041 
L 332.159921 242.666225 
L 332.950257 242.666225 
L 333.213702 245.631329 
L 334.004038 245.631329 
L 334.267484 242.666225 
L 335.057819 242.666225 
L 335.321265 247.195678 
L 337.165382 247.195678 
L 337.428827 250.392786 
L 338.219163 250.392786 
L 338.482609 255.96196 
L 339.272944 255.96196 
L 339.53639 255.124961 
L 340.326726 255.124961 
L 340.590171 257.232473 
L 341.380507 257.232473 
L 341.643952 256.42796 
L 342.434288 256.42796 
L 342.697733 255.641394 
L 343.488069 255.641394 
L 343.751515 257.020825 
L 344.541851 257.020825 
L 344.805296 264.918915 
L 345.595632 264.918915 
L 345.859077 262.103882 
L 346.649413 262.103882 
L 346.912858 264.288511 
L 347.703194 264.288511 
L 347.96664 272.084666 
L 348.756976 272.084666 
L 349.020421 274.747381 
L 349.810757 274.747381 
L 350.074202 277.096011 
L 352.972101 277.096011 
L 353.235546 279.699844 
L 354.025882 279.699844 
L 354.289327 284.652307 
L 355.079663 284.652307 
L 355.343108 282.052616 
L 356.133444 282.052616 
L 356.39689 287.013589 
L 357.187226 287.013589 
L 357.450671 291.928935 
L 358.241007 291.928935 
L 358.504452 294.301789 
L 359.294788 294.301789 
L 359.558233 301.804818 
L 360.348569 301.804818 
L 360.612015 306.846519 
L 361.402351 306.846519 
L 361.665796 314.439005 
L 362.456132 314.439005 
L 362.719577 321.904118 
L 363.509913 321.904118 
L 363.773358 326.919145 
L 364.563694 326.919145 
L 364.82714 329.483917 
L 365.617476 329.483917 
L 365.880921 334.498943 
L 366.671257 334.498943 
L 366.934702 332.083111 
L 367.725038 332.083111 
L 367.988483 327.310641 
L 368.778819 327.310641 
L 369.042265 322.593281 
L 369.8326 322.593281 
L 370.096046 320.234601 
L 370.886382 320.234601 
L 371.149827 325.276367 
L 372.993944 325.298923 
L 373.25739 325.731022 
L 374.047725 325.731022 
L 374.311171 333.584472 
L 376.155288 333.58174 
L 376.418733 329.05727 
L 377.209069 329.05727 
L 377.472515 326.79765 
L 378.26285 326.79765 
L 378.526296 322.285875 
L 379.316632 322.285875 
L 379.580077 327.441076 
L 380.370413 327.441076 
L 380.633858 329.695737 
L 382.477975 329.695737 
L 382.741421 331.950398 
L 383.531757 331.950398 
L 383.795202 329.698043 
L 384.585538 329.698043 
L 384.848983 328.145432 
L 385.639319 328.145432 
L 385.902764 323.689178 
L 386.6931 323.689178 
L 386.956546 324.438031 
L 387.746882 324.438031 
L 388.010327 328.236682 
L 388.800663 328.236682 
L 389.064108 329.072822 
L 389.854444 329.072822 
L 390.117889 326.862181 
L 391.962007 326.862181 
L 392.225452 332.107142 
L 393.015788 332.107142 
L 393.279233 329.927303 
L 394.069569 329.927303 
L 394.333014 327.7492 
L 395.12335 327.7492 
L 395.386796 328.659011 
L 396.177132 328.659011 
L 396.440577 329.587373 
L 397.230913 329.587373 
L 397.494358 332.698873 
L 398.284694 332.698873 
L 398.548139 337.996192 
L 399.338475 337.996192 
L 399.601921 346.432759 
L 400.392257 346.432759 
L 400.655702 351.730077 
L 401.446038 351.730077 
L 401.709483 359.182302 
L 402.499819 359.182302 
L 402.763264 367.622054 
L 403.5536 367.622054 
L 403.817046 375.058721 
L 404.607382 375.058721 
L 404.870827 385.682326 
L 405.661163 385.682326 
L 405.924608 394.185289 
L 406.714944 394.185289 
L 406.978389 396.328808 
L 407.768725 396.328808 
L 408.032171 404.852758 
L 408.822506 404.852758 
L 409.085952 405.903541 
L 409.876288 405.903541 
L 410.139733 412.306102 
L 411.98385 412.306102 
L 412.247296 415.506913 
L 414.091413 415.51283 
L 414.354858 418.717334 
L 415.145194 418.717334 
L 415.408639 416.595399 
L 417.252756 416.594198 
L 417.516202 419.821759 
L 418.306538 419.821759 
L 418.569983 425.166004 
L 419.360319 425.166004 
L 419.623764 420.954599 
L 420.4141 420.954599 
L 420.677545 422.115711 
L 421.467881 422.115711 
L 421.731327 417.930205 
L 422.521663 417.930205 
L 422.785108 411.677203 
L 423.575444 411.677203 
L 423.838889 414.960144 
L 424.629225 414.960144 
L 424.89267 408.724581 
L 425.683006 408.724581 
L 425.946452 414.096327 
L 426.736788 414.096327 
L 427.000233 413.240926 
L 429.898131 413.240926 
L 430.161577 411.177765 
L 430.951913 411.177765 
L 431.215358 407.056193 
L 432.005694 407.056193 
L 432.269139 402.937544 
L 433.059475 402.937544 
L 433.32292 394.714351 
L 434.113256 394.714351 
L 434.376702 386.528097 
L 435.167038 386.528097 
L 435.430483 380.406384 
L 436.220819 380.406384 
L 436.484264 374.299762 
L 437.2746 374.299762 
L 437.538045 372.26777 
L 438.328381 372.26777 
L 438.591827 366.1818 
L 439.382163 366.1818 
L 439.645608 362.129145 
L 441.489725 362.130794 
L 441.75317 360.108102 
L 442.543506 360.108102 
L 442.806952 354.046864 
L 443.597287 354.046864 
L 443.860733 359.482415 
L 444.651069 359.482415 
L 444.914514 353.432087 
L 445.70485 353.432087 
L 445.968295 360.287033 
L 446.758631 360.287033 
L 447.022077 373.185455 
L 447.812412 373.185455 
L 448.075858 371.173873 
L 448.866194 371.173873 
L 449.129639 370.587807 
L 449.919975 370.587807 
L 450.18342 362.557463 
L 450.973756 362.557463 
L 451.237201 366.005217 
L 452.027537 366.005217 
L 452.290983 374.907268 
L 453.081319 374.907268 
L 453.344764 383.276779 
L 454.1351 383.276779 
L 454.398545 388.731111 
L 455.188881 388.731111 
L 455.452326 398.173616 
L 456.242662 398.173616 
L 456.506108 407.098405 
L 457.296444 407.098405 
L 457.559889 412.557661 
L 458.350225 412.557661 
L 458.61367 416.03179 
L 459.404006 416.03179 
L 459.667451 417.024378 
L 460.457787 417.024378 
L 460.721233 425.969786 
L 461.511569 425.969786 
L 461.775014 433.420406 
L 462.56535 433.420406 
L 462.828795 434.923853 
L 463.619131 434.923853 
L 463.882576 438.410527 
L 464.672912 438.410527 
L 464.936358 448.882691 
L 465.726694 448.882691 
L 465.990139 457.849495 
L 466.780475 457.849495 
L 467.04392 473.826596 
L 467.834256 473.826596 
L 468.097701 493.333397 
L 468.888037 493.333397 
L 469.151483 500.353389 
L 469.941819 500.353389 
L 470.205264 514.835005 
L 470.9956 514.835005 
L 471.259045 526.933792 
L 472.049381 526.933792 
L 472.312826 524.96468 
L 473.103162 524.96468 
L 473.366608 521.029887 
L 474.156944 521.029887 
L 474.420389 517.096809 
L 476.264506 517.096284 
L 476.527951 515.131306 
L 477.318287 515.131306 
L 477.581733 513.165809 
L 478.372069 513.165809 
L 478.635514 509.23807 
L 479.42585 509.23807 
L 479.689295 506.878375 
L 480.479631 506.878375 
L 480.743076 506.483737 
L 481.533412 506.483737 
L 481.796858 515.118563 
L 482.587193 515.118563 
L 482.850639 513.158318 
L 483.640975 513.158318 
L 483.90442 516.692817 
L 484.694756 516.692817 
L 484.958201 523.764909 
L 485.748537 523.764909 
L 486.011983 523.383654 
L 486.802318 523.383654 
L 487.065764 526.922775 
L 487.8561 526.922775 
L 488.119545 531.675587 
L 488.909881 531.675587 
L 489.173326 533.263173 
L 489.963662 533.263173 
L 490.227107 536.441408 
L 491.017443 536.441408 
L 491.280889 538.394558 
L 492.071225 538.394558 
L 492.33467 536.08271 
L 493.125006 536.08271 
L 493.388451 535.726384 
L 494.178787 535.726384 
L 494.442232 541.227537 
L 495.232568 541.227537 
L 495.496014 535.372453 
L 496.28635 535.372453 
L 496.549795 536.971774 
L 497.340131 536.971774 
L 497.603576 545.67792 
L 498.393912 545.67792 
L 498.657357 543.727945 
L 499.447693 543.727945 
L 499.711139 548.886374 
L 500.501475 548.886374 
L 500.76492 554.050299 
L 501.555256 554.050299 
L 501.818701 559.216346 
L 502.609037 559.216346 
L 502.872482 575.736144 
L 503.662818 575.736144 
L 503.926264 577.683414 
L 504.7166 577.683414 
L 504.980045 585.138865 
L 505.770381 585.138865 
L 506.033826 584.812039 
L 506.824162 584.812039 
L 507.087607 586.757538 
L 508.931725 586.757538 
L 509.19517 590.647798 
L 509.985506 590.647798 
L 510.248951 590.325821 
L 511.039287 590.325821 
L 511.302732 588.06183 
L 512.093068 588.06183 
L 512.356514 587.745009 
L 513.14685 587.745009 
L 513.410295 589.374783 
L 514.200631 589.374783 
L 514.464076 592.635278 
L 515.254412 592.635278 
L 515.517857 590.694177 
L 516.308193 590.694177 
L 516.571639 590.386079 
L 517.361974 590.386079 
L 517.62542 597.53496 
L 518.415756 597.53496 
L 518.679201 600.80702 
L 519.469537 600.80702 
L 519.732982 602.444236 
L 520.523318 602.444236 
L 520.786764 598.56851 
L 521.577099 598.56851 
L 521.840545 601.852776 
L 522.630881 601.852776 
L 522.894326 597.980271 
L 523.684662 597.980271 
L 523.948107 597.402148 
L 524.738443 597.402148 
L 525.001888 608.152071 
L 526.846006 608.152071 
L 527.109451 611.738128 
L 527.899787 611.738128 
L 528.163232 613.391632 
L 530.007349 613.392574 
L 530.270795 613.117807 
L 531.061131 613.117807 
L 531.324576 622.229436 
L 532.114912 622.229436 
L 532.378357 618.36654 
L 533.168693 618.36654 
L 533.432138 616.435091 
L 534.222474 616.435091 
L 534.48592 618.095955 
L 535.276256 618.095955 
L 535.539701 614.234122 
L 537.383818 614.234122 
L 537.647263 612.303325 
L 538.437599 612.303325 
L 538.701045 610.372762 
L 539.491381 610.372762 
L 539.754826 604.582339 
L 540.545162 604.582339 
L 540.808607 600.722967 
L 541.598943 600.722967 
L 541.862388 594.934382 
L 542.652724 594.934382 
L 542.91617 591.075854 
L 543.706506 591.075854 
L 543.969951 587.218155 
L 544.760287 587.218155 
L 545.023732 581.433104 
L 545.814068 581.433104 
L 546.077513 601.613338 
L 546.867849 601.613338 
L 547.131295 612.668267 
L 547.921631 612.668267 
L 548.185076 625.651229 
L 548.975412 625.651229 
L 549.238857 631.179359 
L 550.029193 631.179359 
L 550.292638 636.707489 
L 551.082974 636.707489 
L 551.34642 651.364704 
L 552.136755 651.364704 
L 552.400201 662.421471 
L 553.190537 662.421471 
L 553.453982 675.404151 
L 554.244318 675.404151 
L 554.507763 691.987869 
L 555.298099 691.987869 
L 555.561545 697.51586 
L 556.35188 697.51586 
L 556.615326 695.590515 
L 557.405662 695.590515 
L 557.669107 691.740437 
L 558.459443 691.740437 
L 558.722888 693.665234 
L 559.513224 693.665234 
L 559.77667 691.740637 
L 560.567005 691.740637 
L 560.830451 689.816239 
L 561.620787 689.816239 
L 561.884232 687.891841 
L 562.674568 687.891841 
L 562.938013 691.495972 
L 563.728349 691.495972 
L 563.991794 689.571574 
L 565.835912 689.571769 
L 566.099357 689.329219 
L 566.889693 689.329219 
L 567.153138 696.781957 
L 567.943474 696.781957 
L 568.206919 698.464417 
L 568.997255 698.464417 
L 569.260701 709.284028 
L 570.051037 709.284028 
L 570.314482 711.207194 
L 571.104818 711.207194 
L 571.368263 712.891273 
L 572.158599 712.891273 
L 572.422044 725.637629 
L 573.21238 725.637629 
L 573.475826 734.777603 
L 574.266162 734.777603 
L 574.529607 734.541128 
L 575.319943 734.541128 
L 575.583388 738.150545 
L 576.373724 738.150545 
L 576.637169 740.073128 
L 577.427505 740.073128 
L 577.690951 736.228141 
L 578.481287 736.228141 
L 578.744732 739.838762 
L 579.535068 739.838762 
L 579.798513 745.138774 
L 580.588849 745.138774 
L 580.852294 743.2165 
L 581.64263 743.2165 
L 581.906076 742.983483 
L 583.750193 742.983355 
L 584.013638 744.905197 
L 584.803974 744.905197 
L 585.067419 748.518028 
L 585.857755 748.518028 
L 586.121201 748.287599 
L 586.911537 748.287599 
L 587.174982 746.365929 
L 587.965318 746.365929 
L 588.228763 749.979694 
L 589.019099 749.979694 
L 589.282544 759.129563 
L 590.07288 759.129563 
L 590.336326 760.822997 
L 591.126661 760.822997 
L 591.390107 766.359183 
L 592.180443 766.359183 
L 592.443888 768.280225 
L 593.234224 768.280225 
L 593.497669 770.201142 
L 594.288005 770.201142 
L 594.551451 773.816409 
L 596.395568 773.816409 
L 596.659013 775.737162 
L 597.449349 775.737162 
L 597.712794 777.432001 
L 598.50313 777.432001 
L 598.766575 777.206571 
L 599.556911 777.206571 
L 599.820357 780.822486 
L 600.610693 780.822486 
L 600.874138 780.598264 
L 601.664474 780.598264 
L 601.927919 784.214426 
L 602.718255 784.214426 
L 602.9817 793.479985 
L 603.772036 793.479985 
L 604.035482 797.319772 
L 605.879599 797.319924 
L 606.143044 804.556364 
L 606.93338 804.556364 
L 607.196825 800.717755 
L 607.987161 800.717755 
L 608.250607 804.33662 
L 609.040943 804.33662 
L 609.304388 811.7938 
L 610.094724 811.7938 
L 610.358169 809.874863 
L 612.202286 809.874863 
L 612.465732 813.494143 
L 613.256068 813.494143 
L 613.519513 815.412837 
L 614.309849 815.412837 
L 614.573294 822.869533 
L 615.36363 822.869533 
L 615.627075 826.489513 
L 616.417411 826.489513 
L 616.680857 832.028089 
L 617.471193 832.028089 
L 617.734638 835.648498 
L 618.524974 835.648498 
L 618.788419 844.80847 
L 619.578755 844.80847 
L 619.8422 840.972414 
L 620.632536 840.972414 
L 620.895982 839.054523 
L 621.686318 839.054523 
L 621.949763 837.136633 
L 622.740099 837.136633 
L 623.003544 838.840781 
L 623.79388 838.840781 
L 624.057325 840.758416 
L 625.901442 840.758416 
L 626.164888 838.840781 
L 628.009005 838.840781 
L 628.27245 835.005915 
L 629.062786 835.005915 
L 629.326232 834.794263 
L 630.116567 834.794263 
L 630.380013 836.500502 
L 631.170349 836.500502 
L 631.433794 838.206872 
L 632.22413 838.206872 
L 632.487575 845.453421 
L 633.277911 845.453421 
L 633.541357 847.370013 
L 634.331692 847.370013 
L 634.595138 849.286605 
L 635.385474 849.286605 
L 635.648919 851.203198 
L 636.439255 851.203198 
L 636.7027 856.534882 
L 638.546817 856.534882 
L 638.810263 862.075799 
L 639.600599 862.075799 
L 639.864044 865.907897 
L 640.65438 865.907897 
L 640.917825 876.990156 
L 641.708161 876.990156 
L 641.971606 886.362377 
L 642.761942 886.362377 
L 643.025388 888.072897 
L 643.815724 888.072897 
L 644.079169 893.61431 
L 644.869505 893.61431 
L 645.13295 893.410145 
L 645.923286 893.410145 
L 646.186731 897.036766 
L 646.977067 897.036766 
L 647.240513 898.951928 
L 648.030849 898.951928 
L 648.294294 908.120897 
L 649.08463 908.120897 
L 649.348075 913.663139 
L 650.138411 913.663139 
L 650.401856 919.205486 
L 652.245974 919.205486 
L 652.509419 921.120181 
L 654.353536 921.120181 
L 654.616981 924.747723 
L 656.461099 924.747723 
L 656.724544 926.662417 
L 658.568661 926.662417 
L 658.832106 932.205108 
L 659.622442 932.205108 
L 659.885888 930.29053 
L 660.676224 930.29053 
L 660.939669 928.376067 
L 661.730005 928.376067 
L 661.99345 939.46223 
L 662.783786 939.46223 
L 663.047231 937.547995 
L 663.837567 937.547995 
L 664.101013 943.091239 
L 664.891348 943.091239 
L 665.154794 941.177117 
L 665.94513 941.177117 
L 666.208575 950.350042 
L 666.998911 950.350042 
L 667.262356 957.807526 
L 669.106473 957.807526 
L 669.369919 965.26479 
L 670.160255 965.26479 
L 670.4237 970.808481 
L 671.214036 970.808481 
L 671.477481 976.35228 
L 672.267817 976.35228 
L 672.531262 979.98283 
L 673.321598 979.98283 
L 673.585044 983.809009 
L 674.37538 983.809009 
L 674.638825 989.352808 
L 675.429161 989.352808 
L 675.692606 994.896713 
L 676.482942 994.896713 
L 676.746387 998.528005 
L 679.644286 998.527899 
L 679.907731 996.615287 
L 685.966973 996.615287 
L 686.230419 1000.246787 
L 687.020755 1000.246787 
L 687.2842 1000.053271 
L 688.074536 1000.053271 
L 688.337981 1005.597695 
L 689.128317 1005.597695 
L 689.391762 1011.142225 
L 690.182098 1011.142225 
L 690.445544 1014.774457 
L 691.23588 1014.774457 
L 691.499325 1018.406996 
L 692.289661 1018.406996 
L 692.553106 1022.03964 
L 693.343442 1022.03964 
L 693.606887 1023.760393 
L 694.397223 1023.760393 
L 694.660669 1029.305647 
L 695.451005 1029.305647 
L 695.71445 1036.572561 
L 697.558567 1036.572561 
L 697.822012 1038.294318 
L 698.612348 1038.294318 
L 698.875794 1040.206217 
L 699.666129 1040.206217 
L 699.929575 1043.84008 
L 700.719911 1043.84008 
L 700.983356 1045.751783 
L 701.773692 1045.751783 
L 702.037137 1047.474246 
L 702.827473 1047.474246 
L 703.090919 1056.654777 
L 703.881254 1056.654777 
L 704.1447 1062.201049 
L 704.935036 1062.201049 
L 705.198481 1073.293878 
L 705.988817 1073.293878 
L 706.252262 1076.929126 
L 707.042598 1076.929126 
L 707.306044 1082.475778 
L 708.096379 1082.475778 
L 708.359825 1089.933444 
L 709.150161 1089.933444 
L 709.413606 1095.480183 
L 711.257723 1095.480183 
L 711.521168 1101.02703 
L 713.365286 1101.02703 
L 713.628731 1104.663334 
L 714.419067 1104.663334 
L 714.682512 1102.752592 
L 715.472848 1102.752592 
L 715.736293 1106.389095 
L 716.526629 1106.389095 
L 716.790075 1108.299745 
L 717.580411 1108.299745 
L 717.843856 1111.936431 
L 718.634192 1111.936431 
L 718.897637 1110.025781 
L 719.687973 1110.025781 
L 719.951418 1121.120744 
L 720.741754 1121.120744 
L 721.0052 1120.937069 
L 721.795536 1120.937069 
L 722.058981 1135.670653 
L 722.849317 1135.670653 
L 723.112762 1142.94672 
L 723.903098 1142.94672 
L 724.166543 1144.674874 
L 724.956879 1144.674874 
L 725.220325 1155.772185 
L 726.010661 1155.772185 
L 726.274106 1161.140251 
L 727.064442 1161.140251 
L 727.327887 1163.050066 
L 728.118223 1163.050066 
L 728.381668 1168.599064 
L 729.172004 1168.599064 
L 729.43545 1172.238507 
L 730.225786 1172.238507 
L 730.489231 1177.787781 
L 731.279567 1177.787781 
L 731.543012 1188.886614 
L 732.333348 1188.886614 
L 732.596793 1196.167124 
L 733.387129 1196.167124 
L 733.650575 1203.626143 
L 734.440911 1203.626143 
L 734.704356 1212.816849 
L 735.494692 1212.816849 
L 735.758137 1223.917114 
L 736.548473 1223.917114 
L 736.811918 1222.008173 
L 737.602254 1222.008173 
L 737.8657 1231.2 
L 738.656035 1231.2 
L 738.919481 1229.291141 
L 739.973262 1229.291141 
L 739.973262 1229.291141 
" clip-path="url(#p17b8b8e8e2)" style="fill: none; stroke: #0000ff; stroke-width: 1.5; stroke-linecap: square"/>
   </g>
   <g id="patch_3">
    <path d="M 270 1281.6 
L 270 172.8 
" style="fill: none; stroke: #000000; stroke-width: 0.8; stroke-linejoin: miter; stroke-linecap: square"/>
   </g>
   <g id="patch_4">
    <path d="M 762.352941 1281.6 
L 762.352941 172.8 
" style="fill: none; stroke: #000000; stroke-width: 0.8; stroke-linejoin: miter; stroke-linecap: square"/>
   </g>
   <g id="patch_5">
    <path d="M 270 1281.6 
L 762.352941 1281.6 
" style="fill: none; stroke: #000000; stroke-width: 0.8; stroke-linejoin: miter; stroke-linecap: square"/>
   </g>
   <g id="patch_6">
    <path d="M 270 172.8 
L 762.352941 172.8 
" style="fill: none; stroke: #000000; stroke-width: 0.8; stroke-linejoin: miter; stroke-linecap: square"/>
   </g>
   <g id="legend_1">
    <g id="patch_7">
     <path d="M 671.310754 195.478125 
L 755.352941 195.478125 
Q 757.352941 195.478125 757.352941 193.478125 
L 757.352941 179.8 
Q 757.352941 177.8 755.352941 177.8 
L 671.310754 177.8 
Q 669.310754 177.8 669.310754 179.8 
L 669.310754 193.478125 
Q 669.310754 195.478125 671.310754 195.478125 
z
" style="fill: #ffffff; opacity: 0.8; stroke: #cccccc; stroke-linejoin: miter"/>
    </g>
    <g id="line2d_17">
     <path d="M 673.310754 185.898437 
L 683.310754 185.898437 
L 693.310754 185.898437 
" style="fill: none; stroke: #0000ff; stroke-width: 1.5; stroke-linecap: square"/>
    </g>
    <g id="text_16">
     <!-- O1 reward -->
     <g transform="translate(701.310754 189.398437) scale(0.1 -0.1)">
      <defs>
       <path id="DejaVuSans-4f" d="M 2522 4238 
Q 1834 4238 1429 3725 
Q 1025 3213 1025 2328 
Q 1025 1447 1429 934 
Q 1834 422 2522 422 
Q 3209 422 3611 934 
Q 4013 1447 4013 2328 
Q 4013 3213 3611 3725 
Q 3209 4238 2522 4238 
z
M 2522 4750 
Q 3503 4750 4090 4092 
Q 4678 3434 4678 2328 
Q 4678 1225 4090 567 
Q 3503 -91 2522 -91 
Q 1538 -91 948 565 
Q 359 1222 359 2328 
Q 359 3434 948 4092 
Q 1538 4750 2522 4750 
z
" transform="scale(0.015625)"/>
       <path id="DejaVuSans-20" transform="scale(0.015625)"/>
       <path id="DejaVuSans-72" d="M 2631 2963 
Q 2534 3019 2420 3045 
Q 2306 3072 2169 3072 
Q 1681 3072 1420 2755 
Q 1159 2438 1159 1844 
L 1159 0 
L 581 0 
L 581 3500 
L 1159 3500 
L 1159 2956 
Q 1341 3275 1631 3429 
Q 1922 3584 2338 3584 
Q 2397 3584 2469 3576 
Q 2541 3569 2628 3553 
L 2631 2963 
z
" transform="scale(0.015625)"/>
       <path id="DejaVuSans-65" d="M 3597 1894 
L 3597 1613 
L 953 1613 
Q 991 1019 1311 708 
Q 1631 397 2203 397 
Q 2534 397 2845 478 
Q 3156 559 3463 722 
L 3463 178 
Q 3153 47 2828 -22 
Q 2503 -91 2169 -91 
Q 1331 -91 842 396 
Q 353 884 353 1716 
Q 353 2575 817 3079 
Q 1281 3584 2069 3584 
Q 2775 3584 3186 3129 
Q 3597 2675 3597 1894 
z
M 3022 2063 
Q 3016 2534 2758 2815 
Q 2500 3097 2075 3097 
Q 1594 3097 1305 2825 
Q 1016 2553 972 2059 
L 3022 2063 
z
" transform="scale(0.015625)"/>
       <path id="DejaVuSans-77" d="M 269 3500 
L 844 3500 
L 1563 769 
L 2278 3500 
L 2956 3500 
L 3675 769 
L 4391 3500 
L 4966 3500 
L 4050 0 
L 3372 0 
L 2619 2869 
L 1863 0 
L 1184 0 
L 269 3500 
z
" transform="scale(0.015625)"/>
       <path id="DejaVuSans-61" d="M 2194 1759 
Q 1497 1759 1228 1600 
Q 959 1441 959 1056 
Q 959 750 1161 570 
Q 1363 391 1709 391 
Q 2188 391 2477 730 
Q 2766 1069 2766 1631 
L 2766 1759 
L 2194 1759 
z
M 3341 1997 
L 3341 0 
L 2766 0 
L 2766 531 
Q 2569 213 2275 61 
Q 1981 -91 1556 -91 
Q 1019 -91 701 211 
Q 384 513 384 1019 
Q 384 1609 779 1909 
Q 1175 2209 1959 2209 
L 2766 2209 
L 2766 2266 
Q 2766 2663 2505 2880 
Q 2244 3097 1772 3097 
Q 1472 3097 1187 3025 
Q 903 2953 641 2809 
L 641 3341 
Q 956 3463 1253 3523 
Q 1550 3584 1831 3584 
Q 2591 3584 2966 3190 
Q 3341 2797 3341 1997 
z
" transform="scale(0.015625)"/>
       <path id="DejaVuSans-64" d="M 2906 2969 
L 2906 4863 
L 3481 4863 
L 3481 0 
L 2906 0 
L 2906 525 
Q 2725 213 2448 61 
Q 2172 -91 1784 -91 
Q 1150 -91 751 415 
Q 353 922 353 1747 
Q 353 2572 751 3078 
Q 1150 3584 1784 3584 
Q 2172 3584 2448 3432 
Q 2725 3281 2906 2969 
z
M 947 1747 
Q 947 1113 1208 752 
Q 1469 391 1925 391 
Q 2381 391 2643 752 
Q 2906 1113 2906 1747 
Q 2906 2381 2643 2742 
Q 2381 3103 1925 3103 
Q 1469 3103 1208 2742 
Q 947 2381 947 1747 
z
" transform="scale(0.015625)"/>
      </defs>
      <use xlink:href="#DejaVuSans-4f"/>
      <use xlink:href="#DejaVuSans-31" x="78.710938"/>
      <use xlink:href="#DejaVuSans-20" x="142.333984"/>
      <use xlink:href="#DejaVuSans-72" x="174.121094"/>
      <use xlink:href="#DejaVuSans-65" x="212.984375"/>
      <use xlink:href="#DejaVuSans-77" x="274.507812"/>
      <use xlink:href="#DejaVuSans-61" x="356.294922"/>
      <use xlink:href="#DejaVuSans-72" x="417.574219"/>
      <use xlink:href="#DejaVuSans-64" x="456.9375"/>
     </g>
    </g>
   </g>
  </g>
  <g id="axes_2">
   <g id="patch_8">
    <path d="M 860.823529 1281.6 
L 1353.176471 1281.6 
L 1353.176471 172.8 
L 860.823529 172.8 
z
" style="fill: #ffffff"/>
   </g>
   <g id="matplotlib.axis_3">
    <g id="xtick_9">
     <g id="line2d_18">
      <g>
       <use xlink:href="#m43b959eaf2" x="882.939763" y="1281.6" style="stroke: #000000; stroke-width: 0.8"/>
      </g>
     </g>
     <g id="text_17">
      <!-- 0 -->
      <g transform="translate(879.758513 1296.198437) scale(0.1 -0.1)">
       <use xlink:href="#DejaVuSans-30"/>
      </g>
     </g>
    </g>
    <g id="xtick_10">
     <g id="line2d_19">
      <g>
       <use xlink:href="#m43b959eaf2" x="948.801091" y="1281.6" style="stroke: #000000; stroke-width: 0.8"/>
      </g>
     </g>
     <g id="text_18">
      <!-- 250 -->
      <g transform="translate(939.257341 1296.198437) scale(0.1 -0.1)">
       <use xlink:href="#DejaVuSans-32"/>
       <use xlink:href="#DejaVuSans-35" x="63.623047"/>
       <use xlink:href="#DejaVuSans-30" x="127.246094"/>
      </g>
     </g>
    </g>
    <g id="xtick_11">
     <g id="line2d_20">
      <g>
       <use xlink:href="#m43b959eaf2" x="1014.662419" y="1281.6" style="stroke: #000000; stroke-width: 0.8"/>
      </g>
     </g>
     <g id="text_19">
      <!-- 500 -->
      <g transform="translate(1005.118669 1296.198437) scale(0.1 -0.1)">
       <use xlink:href="#DejaVuSans-35"/>
       <use xlink:href="#DejaVuSans-30" x="63.623047"/>
       <use xlink:href="#DejaVuSans-30" x="127.246094"/>
      </g>
     </g>
    </g>
    <g id="xtick_12">
     <g id="line2d_21">
      <g>
       <use xlink:href="#m43b959eaf2" x="1080.523746" y="1281.6" style="stroke: #000000; stroke-width: 0.8"/>
      </g>
     </g>
     <g id="text_20">
      <!-- 750 -->
      <g transform="translate(1070.979996 1296.198437) scale(0.1 -0.1)">
       <use xlink:href="#DejaVuSans-37"/>
       <use xlink:href="#DejaVuSans-35" x="63.623047"/>
       <use xlink:href="#DejaVuSans-30" x="127.246094"/>
      </g>
     </g>
    </g>
    <g id="xtick_13">
     <g id="line2d_22">
      <g>
       <use xlink:href="#m43b959eaf2" x="1146.385074" y="1281.6" style="stroke: #000000; stroke-width: 0.8"/>
      </g>
     </g>
     <g id="text_21">
      <!-- 1000 -->
      <g transform="translate(1133.660074 1296.198437) scale(0.1 -0.1)">
       <use xlink:href="#DejaVuSans-31"/>
       <use xlink:href="#DejaVuSans-30" x="63.623047"/>
       <use xlink:href="#DejaVuSans-30" x="127.246094"/>
       <use xlink:href="#DejaVuSans-30" x="190.869141"/>
      </g>
     </g>
    </g>
    <g id="xtick_14">
     <g id="line2d_23">
      <g>
       <use xlink:href="#m43b959eaf2" x="1212.246402" y="1281.6" style="stroke: #000000; stroke-width: 0.8"/>
      </g>
     </g>
     <g id="text_22">
      <!-- 1250 -->
      <g transform="translate(1199.521402 1296.198437) scale(0.1 -0.1)">
       <use xlink:href="#DejaVuSans-31"/>
       <use xlink:href="#DejaVuSans-32" x="63.623047"/>
       <use xlink:href="#DejaVuSans-35" x="127.246094"/>
       <use xlink:href="#DejaVuSans-30" x="190.869141"/>
      </g>
     </g>
    </g>
    <g id="xtick_15">
     <g id="line2d_24">
      <g>
       <use xlink:href="#m43b959eaf2" x="1278.107729" y="1281.6" style="stroke: #000000; stroke-width: 0.8"/>
      </g>
     </g>
     <g id="text_23">
      <!-- 1500 -->
      <g transform="translate(1265.382729 1296.198437) scale(0.1 -0.1)">
       <use xlink:href="#DejaVuSans-31"/>
       <use xlink:href="#DejaVuSans-35" x="63.623047"/>
       <use xlink:href="#DejaVuSans-30" x="127.246094"/>
       <use xlink:href="#DejaVuSans-30" x="190.869141"/>
      </g>
     </g>
    </g>
    <g id="xtick_16">
     <g id="line2d_25">
      <g>
       <use xlink:href="#m43b959eaf2" x="1343.969057" y="1281.6" style="stroke: #000000; stroke-width: 0.8"/>
      </g>
     </g>
     <g id="text_24">
      <!-- 1750 -->
      <g transform="translate(1331.244057 1296.198437) scale(0.1 -0.1)">
       <use xlink:href="#DejaVuSans-31"/>
       <use xlink:href="#DejaVuSans-37" x="63.623047"/>
       <use xlink:href="#DejaVuSans-35" x="127.246094"/>
       <use xlink:href="#DejaVuSans-30" x="190.869141"/>
      </g>
     </g>
    </g>
   </g>
   <g id="matplotlib.axis_4">
    <g id="ytick_8">
     <g id="line2d_26">
      <g>
       <use xlink:href="#m66fef50e22" x="860.823529" y="1231.2" style="stroke: #000000; stroke-width: 0.8"/>
      </g>
     </g>
     <g id="text_25">
      <!-- 0 -->
      <g transform="translate(847.461029 1234.999219) scale(0.1 -0.1)">
       <use xlink:href="#DejaVuSans-30"/>
      </g>
     </g>
    </g>
    <g id="ytick_9">
     <g id="line2d_27">
      <g>
       <use xlink:href="#m66fef50e22" x="860.823529" y="1041.972608" style="stroke: #000000; stroke-width: 0.8"/>
      </g>
     </g>
     <g id="text_26">
      <!-- 20 -->
      <g transform="translate(841.098529 1045.771827) scale(0.1 -0.1)">
       <use xlink:href="#DejaVuSans-32"/>
       <use xlink:href="#DejaVuSans-30" x="63.623047"/>
      </g>
     </g>
    </g>
    <g id="ytick_10">
     <g id="line2d_28">
      <g>
       <use xlink:href="#m66fef50e22" x="860.823529" y="852.745216" style="stroke: #000000; stroke-width: 0.8"/>
      </g>
     </g>
     <g id="text_27">
      <!-- 40 -->
      <g transform="translate(841.098529 856.544435) scale(0.1 -0.1)">
       <defs>
        <path id="DejaVuSans-34" d="M 2419 4116 
L 825 1625 
L 2419 1625 
L 2419 4116 
z
M 2253 4666 
L 3047 4666 
L 3047 1625 
L 3713 1625 
L 3713 1100 
L 3047 1100 
L 3047 0 
L 2419 0 
L 2419 1100 
L 313 1100 
L 313 1709 
L 2253 4666 
z
" transform="scale(0.015625)"/>
       </defs>
       <use xlink:href="#DejaVuSans-34"/>
       <use xlink:href="#DejaVuSans-30" x="63.623047"/>
      </g>
     </g>
    </g>
    <g id="ytick_11">
     <g id="line2d_29">
      <g>
       <use xlink:href="#m66fef50e22" x="860.823529" y="663.517824" style="stroke: #000000; stroke-width: 0.8"/>
      </g>
     </g>
     <g id="text_28">
      <!-- 60 -->
      <g transform="translate(841.098529 667.317043) scale(0.1 -0.1)">
       <defs>
        <path id="DejaVuSans-36" d="M 2113 2584 
Q 1688 2584 1439 2293 
Q 1191 2003 1191 1497 
Q 1191 994 1439 701 
Q 1688 409 2113 409 
Q 2538 409 2786 701 
Q 3034 994 3034 1497 
Q 3034 2003 2786 2293 
Q 2538 2584 2113 2584 
z
M 3366 4563 
L 3366 3988 
Q 3128 4100 2886 4159 
Q 2644 4219 2406 4219 
Q 1781 4219 1451 3797 
Q 1122 3375 1075 2522 
Q 1259 2794 1537 2939 
Q 1816 3084 2150 3084 
Q 2853 3084 3261 2657 
Q 3669 2231 3669 1497 
Q 3669 778 3244 343 
Q 2819 -91 2113 -91 
Q 1303 -91 875 529 
Q 447 1150 447 2328 
Q 447 3434 972 4092 
Q 1497 4750 2381 4750 
Q 2619 4750 2861 4703 
Q 3103 4656 3366 4563 
z
" transform="scale(0.015625)"/>
       </defs>
       <use xlink:href="#DejaVuSans-36"/>
       <use xlink:href="#DejaVuSans-30" x="63.623047"/>
      </g>
     </g>
    </g>
    <g id="ytick_12">
     <g id="line2d_30">
      <g>
       <use xlink:href="#m66fef50e22" x="860.823529" y="474.290433" style="stroke: #000000; stroke-width: 0.8"/>
      </g>
     </g>
     <g id="text_29">
      <!-- 80 -->
      <g transform="translate(841.098529 478.089651) scale(0.1 -0.1)">
       <defs>
        <path id="DejaVuSans-38" d="M 2034 2216 
Q 1584 2216 1326 1975 
Q 1069 1734 1069 1313 
Q 1069 891 1326 650 
Q 1584 409 2034 409 
Q 2484 409 2743 651 
Q 3003 894 3003 1313 
Q 3003 1734 2745 1975 
Q 2488 2216 2034 2216 
z
M 1403 2484 
Q 997 2584 770 2862 
Q 544 3141 544 3541 
Q 544 4100 942 4425 
Q 1341 4750 2034 4750 
Q 2731 4750 3128 4425 
Q 3525 4100 3525 3541 
Q 3525 3141 3298 2862 
Q 3072 2584 2669 2484 
Q 3125 2378 3379 2068 
Q 3634 1759 3634 1313 
Q 3634 634 3220 271 
Q 2806 -91 2034 -91 
Q 1263 -91 848 271 
Q 434 634 434 1313 
Q 434 1759 690 2068 
Q 947 2378 1403 2484 
z
M 1172 3481 
Q 1172 3119 1398 2916 
Q 1625 2713 2034 2713 
Q 2441 2713 2670 2916 
Q 2900 3119 2900 3481 
Q 2900 3844 2670 4047 
Q 2441 4250 2034 4250 
Q 1625 4250 1398 4047 
Q 1172 3844 1172 3481 
z
" transform="scale(0.015625)"/>
       </defs>
       <use xlink:href="#DejaVuSans-38"/>
       <use xlink:href="#DejaVuSans-30" x="63.623047"/>
      </g>
     </g>
    </g>
    <g id="ytick_13">
     <g id="line2d_31">
      <g>
       <use xlink:href="#m66fef50e22" x="860.823529" y="285.063041" style="stroke: #000000; stroke-width: 0.8"/>
      </g>
     </g>
     <g id="text_30">
      <!-- 100 -->
      <g transform="translate(834.736029 288.86226) scale(0.1 -0.1)">
       <use xlink:href="#DejaVuSans-31"/>
       <use xlink:href="#DejaVuSans-30" x="63.623047"/>
       <use xlink:href="#DejaVuSans-30" x="127.246094"/>
      </g>
     </g>
    </g>
   </g>
   <g id="line2d_32">
    <path d="M 883.203209 1231.2 
L 895.321693 1231.130051 
L 895.585138 1227.318258 
L 896.375474 1227.318258 
L 896.638919 1228.812196 
L 897.429255 1228.812196 
L 897.692701 1227.923752 
L 898.483037 1227.923752 
L 898.746482 1229.675206 
L 899.536818 1229.675206 
L 899.800263 1221.806303 
L 900.590599 1221.806303 
L 900.854044 1209.878206 
L 901.64438 1209.878206 
L 901.907826 1203.944229 
L 902.698162 1203.944229 
L 902.961607 1188.313604 
L 903.751943 1188.313604 
L 904.015388 1173.908111 
L 909.020849 1173.908111 
L 909.284294 1167.655898 
L 912.182193 1167.655898 
L 912.445638 1160.9878 
L 915.343536 1160.9878 
L 915.606982 1151.902633 
L 916.397318 1151.902633 
L 916.660763 1149.351591 
L 917.451099 1149.351591 
L 917.714544 1146.544472 
L 919.558661 1146.544472 
L 919.822107 1129.313558 
L 920.612443 1129.313558 
L 920.875888 1102.216504 
L 921.666224 1102.216504 
L 921.929669 1094.998106 
L 922.720005 1094.998106 
L 922.98345 1081.097904 
L 923.773786 1081.097904 
L 924.037232 1047.449137 
L 924.827568 1047.449137 
L 925.091013 1024.029542 
L 936.419161 1024.029542 
L 936.682607 1017.124072 
L 939.580505 1017.124072 
L 939.84395 1010.320084 
L 940.634286 1010.320084 
L 940.897732 1003.444958 
L 941.688068 1003.444958 
L 941.951513 996.500519 
L 943.79563 996.500519 
L 944.059075 994.049459 
L 948.010755 994.049459 
L 948.2742 991.532529 
L 949.064536 991.532529 
L 949.327982 974.824589 
L 950.118317 974.824589 
L 950.381763 962.065023 
L 951.172099 962.065023 
L 951.435544 933.787231 
L 952.22588 933.787231 
L 952.489325 908.910555 
L 953.279661 908.910555 
L 953.543107 889.30295 
L 954.333442 889.30295 
L 954.596888 865.191248 
L 955.387224 865.191248 
L 955.650669 835.906425 
L 956.441005 835.906425 
L 956.70445 822.809472 
L 957.494786 822.809472 
L 957.758231 804.670992 
L 960.65613 804.670992 
L 960.919575 800.576062 
L 961.709911 800.576062 
L 961.973356 792.108635 
L 962.763692 792.108635 
L 963.027138 797.95214 
L 963.817474 797.95214 
L 964.080919 800.731516 
L 964.871255 800.731516 
L 965.1347 806.505169 
L 965.925036 806.505169 
L 966.188481 809.485392 
L 966.978817 809.485392 
L 967.242263 812.193474 
L 968.032599 812.193474 
L 968.296044 803.850505 
L 970.140161 803.850505 
L 970.403606 798.177106 
L 971.193942 798.177106 
L 971.457388 795.563318 
L 972.247724 795.563318 
L 972.511169 787.36693 
L 973.301505 787.36693 
L 973.56495 771.198725 
L 974.355286 771.198725 
L 974.618731 763.457487 
L 975.409067 763.457487 
L 975.672513 756.727506 
L 976.462849 756.727506 
L 976.726294 752.370582 
L 977.51663 752.370582 
L 977.780075 745.214376 
L 978.570411 745.214376 
L 978.833856 752.299906 
L 979.624192 752.299906 
L 979.887638 768.173161 
L 980.677974 768.173161 
L 980.941419 763.197796 
L 981.731755 763.197796 
L 981.9952 749.547184 
L 982.785536 749.547184 
L 983.048981 737.965075 
L 983.839317 737.965075 
L 984.102763 739.637613 
L 984.893098 739.637613 
L 985.156544 728.637863 
L 985.94688 728.637863 
L 986.210325 719.185465 
L 987.000661 719.185465 
L 987.264106 717.653348 
L 989.108223 717.597328 
L 989.371669 719.084708 
L 990.162005 719.084708 
L 990.42545 716.174188 
L 991.215786 716.174188 
L 991.479231 707.088727 
L 992.269567 707.088727 
L 992.533012 708.453044 
L 993.323348 708.453044 
L 993.586794 705.362043 
L 994.37713 705.362043 
L 994.640575 696.509583 
L 995.430911 696.509583 
L 995.694356 690.82309 
L 996.484692 690.82309 
L 996.748137 685.182384 
L 997.538473 685.182384 
L 997.801919 682.110978 
L 998.592255 682.110978 
L 998.8557 680.287449 
L 1000.699817 680.287449 
L 1000.963262 691.316327 
L 1001.753598 691.316327 
L 1002.017044 696.748556 
L 1002.80738 696.748556 
L 1003.070825 694.815899 
L 1003.861161 694.815899 
L 1004.124606 698.963153 
L 1004.914942 698.963153 
L 1005.178387 699.990584 
L 1005.968723 699.990584 
L 1006.232169 711.233719 
L 1007.022505 711.233719 
L 1007.28595 713.38033 
L 1008.076286 713.38033 
L 1008.339731 722.363772 
L 1009.130067 722.363772 
L 1009.393512 721.925589 
L 1010.183848 721.925589 
L 1010.447294 713.174204 
L 1011.23763 713.174204 
L 1011.501075 707.573388 
L 1012.291411 707.573388 
L 1012.554856 706.745358 
L 1013.345192 706.745358 
L 1013.608637 702.049475 
L 1014.398973 702.049475 
L 1014.662419 694.305811 
L 1015.452755 694.305811 
L 1015.7162 697.407478 
L 1016.506536 697.407478 
L 1016.769981 700.503992 
L 1017.560317 700.503992 
L 1017.823762 699.766586 
L 1018.614098 699.766586 
L 1018.877544 696.659714 
L 1019.66788 696.659714 
L 1019.931325 688.324614 
L 1020.721661 688.324614 
L 1020.985106 683.152868 
L 1022.829223 683.152868 
L 1023.092669 678.725079 
L 1023.883004 678.725079 
L 1024.14645 683.73808 
L 1024.936786 683.73808 
L 1025.200231 692.351266 
L 1025.990567 692.351266 
L 1026.254012 694.899691 
L 1027.044348 694.899691 
L 1027.307794 694.38403 
L 1028.098129 694.38403 
L 1028.361575 693.382076 
L 1029.151911 693.382076 
L 1029.415356 695.553811 
L 1030.205692 695.553811 
L 1030.469137 687.602998 
L 1031.259473 687.602998 
L 1031.522918 668.082986 
L 1032.313254 668.082986 
L 1032.5767 656.576325 
L 1033.367036 656.576325 
L 1033.630481 641.443966 
L 1034.420817 641.443966 
L 1034.684262 626.213599 
L 1035.474598 626.213599 
L 1035.738043 611.787652 
L 1036.528379 611.787652 
L 1036.791825 604.253964 
L 1037.582161 604.253964 
L 1037.845606 593.706809 
L 1038.635942 593.706809 
L 1038.899387 579.493438 
L 1039.689723 579.493438 
L 1039.953168 572.473366 
L 1040.743504 572.473366 
L 1041.00695 562.055445 
L 1041.797286 562.055445 
L 1042.060731 565.66423 
L 1042.851067 565.66423 
L 1043.114512 559.448911 
L 1043.904848 559.448911 
L 1044.168293 569.49116 
L 1044.958629 569.49116 
L 1045.222075 569.774302 
L 1046.012411 569.774302 
L 1046.275856 570.008695 
L 1047.066192 570.008695 
L 1047.329637 567.010398 
L 1049.173754 567.11446 
L 1049.4372 567.304465 
L 1050.227536 567.304465 
L 1050.490981 577.071895 
L 1051.281317 577.071895 
L 1051.544762 583.424456 
L 1052.335098 583.424456 
L 1052.598543 586.532179 
L 1053.388879 586.532179 
L 1053.652325 583.419346 
L 1054.442661 583.419346 
L 1054.706106 580.181025 
L 1055.496442 580.181025 
L 1055.759887 573.842938 
L 1056.550223 573.842938 
L 1056.813668 567.577235 
L 1058.657785 567.564662 
L 1058.921231 570.717907 
L 1059.711567 570.717907 
L 1059.975012 567.670756 
L 1060.765348 567.670756 
L 1061.028793 564.641621 
L 1062.87291 564.751609 
L 1063.136356 577.080568 
L 1063.926692 577.080568 
L 1064.190137 580.248943 
L 1064.980473 580.248943 
L 1065.243918 571.750604 
L 1066.034254 571.750604 
L 1066.297699 574.967101 
L 1067.088035 574.967101 
L 1067.351481 578.435825 
L 1068.141817 578.435825 
L 1068.405262 575.461861 
L 1069.195598 575.461861 
L 1069.459043 575.737796 
L 1070.249379 575.737796 
L 1070.512824 579.629657 
L 1071.30316 579.629657 
L 1071.566606 580.691784 
L 1073.410723 580.693811 
L 1073.674168 571.9666 
L 1074.464504 571.9666 
L 1074.727949 566.170739 
L 1075.518285 566.170739 
L 1075.781731 563.275692 
L 1076.572067 563.275692 
L 1076.835512 557.495391 
L 1077.625848 557.495391 
L 1077.889293 554.610123 
L 1078.679629 554.610123 
L 1078.943074 551.726727 
L 1079.73341 551.726727 
L 1079.996856 545.965443 
L 1080.787192 545.965443 
L 1081.050637 540.211317 
L 1081.840973 540.211317 
L 1082.104418 534.464153 
L 1082.894754 534.464153 
L 1083.158199 531.593144 
L 1083.948535 531.593144 
L 1084.211981 523.005981 
L 1085.002317 523.005981 
L 1085.265762 517.299714 
L 1086.056098 517.299714 
L 1086.319543 514.449032 
L 1088.16366 514.449032 
L 1088.427106 511.599965 
L 1089.217442 511.599965 
L 1089.480887 503.071624 
L 1090.271223 503.071624 
L 1090.534668 494.574362 
L 1091.325004 494.574362 
L 1091.588449 486.111505 
L 1092.378785 486.111505 
L 1092.642231 480.487125 
L 1093.432566 480.487125 
L 1093.696012 472.078384 
L 1094.486348 472.078384 
L 1094.749793 481.785669 
L 1095.540129 481.785669 
L 1095.803574 489.397757 
L 1096.59391 489.397757 
L 1096.857356 491.528152 
L 1097.647691 491.528152 
L 1097.911137 493.725651 
L 1098.701473 493.725651 
L 1098.964918 500.702359 
L 1100.809035 500.718665 
L 1101.072481 498.551195 
L 1101.862816 498.551195 
L 1102.126262 502.067176 
L 1102.916598 502.067176 
L 1103.180043 499.262154 
L 1103.970379 499.262154 
L 1104.233824 501.036574 
L 1105.02416 501.036574 
L 1105.287605 490.397178 
L 1106.077941 490.397178 
L 1106.341387 479.799227 
L 1107.131723 479.799227 
L 1107.395168 469.239359 
L 1108.185504 469.239359 
L 1108.448949 461.355506 
L 1109.239285 461.355506 
L 1109.50273 453.501965 
L 1110.293066 453.501965 
L 1110.556512 448.278914 
L 1111.346848 448.278914 
L 1111.610293 440.465104 
L 1112.400629 440.465104 
L 1112.664074 437.866193 
L 1113.45441 437.866193 
L 1113.717855 432.677987 
L 1114.508191 432.677987 
L 1114.771637 427.502538 
L 1115.561973 427.502538 
L 1115.825418 428.559809 
L 1116.615754 428.559809 
L 1116.879199 437.369622 
L 1118.723316 437.366651 
L 1118.986762 435.885456 
L 1120.830879 435.885456 
L 1121.094324 431.842054 
L 1123.992223 431.842054 
L 1124.255668 434.408412 
L 1127.153566 434.408412 
L 1127.417012 431.844933 
L 1129.261129 431.844933 
L 1129.524574 432.962196 
L 1130.31491 432.962196 
L 1130.578355 436.646759 
L 1131.368691 436.646759 
L 1131.632137 435.245161 
L 1132.422472 435.245161 
L 1132.685918 441.488678 
L 1133.476254 441.488678 
L 1133.739699 447.531392 
L 1134.530035 447.531392 
L 1134.79348 451.24645 
L 1135.583816 451.24645 
L 1135.847262 454.96154 
L 1136.637597 454.96154 
L 1136.901043 452.434981 
L 1137.691379 452.434981 
L 1137.954824 447.386772 
L 1138.74516 447.386772 
L 1139.008605 442.349211 
L 1139.798941 442.349211 
L 1140.062386 434.806596 
L 1140.852722 434.806596 
L 1141.116168 432.296658 
L 1141.906504 432.296658 
L 1142.169949 429.789334 
L 1142.960285 429.789334 
L 1143.22373 427.284526 
L 1144.014066 427.284526 
L 1144.277511 424.782207 
L 1146.121629 424.782207 
L 1146.385074 419.783594 
L 1147.17541 419.783594 
L 1147.438855 417.287286 
L 1148.229191 417.287286 
L 1148.492636 419.7825 
L 1149.282972 419.7825 
L 1149.546418 421.056348 
L 1150.336754 421.056348 
L 1150.600199 419.845797 
L 1151.390535 419.845797 
L 1151.65398 417.359036 
L 1152.444316 417.359036 
L 1152.707761 419.844728 
L 1153.498097 419.844728 
L 1153.761543 417.361411 
L 1154.551879 417.361411 
L 1154.815324 414.880606 
L 1155.60566 414.880606 
L 1155.869105 407.452454 
L 1156.659441 407.452454 
L 1156.922886 408.770966 
L 1157.713222 408.770966 
L 1157.976668 401.372871 
L 1158.767004 401.372871 
L 1159.030449 391.536826 
L 1159.820785 391.536826 
L 1160.08423 389.083418 
L 1160.874566 389.083418 
L 1161.138011 384.183498 
L 1161.928347 384.183498 
L 1162.191793 376.844089 
L 1162.982129 376.844089 
L 1163.245574 371.961396 
L 1164.03591 371.961396 
L 1164.299355 367.084926 
L 1165.089691 367.084926 
L 1165.353136 357.356858 
L 1166.143472 357.356858 
L 1166.406918 350.081174 
L 1167.197253 350.081174 
L 1167.460699 345.237566 
L 1168.251035 345.237566 
L 1168.51448 341.820164 
L 1169.304816 341.820164 
L 1169.568261 340.82977 
L 1170.358597 340.82977 
L 1170.622043 344.674973 
L 1171.412378 344.674973 
L 1171.675824 342.732686 
L 1172.46616 342.732686 
L 1172.729605 339.364489 
L 1173.519941 339.364489 
L 1173.783386 343.217816 
L 1175.627503 343.217816 
L 1175.890949 342.273521 
L 1176.681285 342.273521 
L 1176.94473 341.334301 
L 1177.735066 341.334301 
L 1177.998511 338.935318 
L 1178.788847 338.935318 
L 1179.052292 336.538208 
L 1181.950191 336.538208 
L 1182.213636 338.933277 
L 1183.003972 338.933277 
L 1183.267417 338.016968 
L 1184.057753 338.016968 
L 1184.321199 337.106519 
L 1185.111535 337.106519 
L 1185.37498 334.716959 
L 1186.165316 334.716959 
L 1186.428761 332.329217 
L 1188.272878 332.329217 
L 1188.536324 334.714961 
L 1189.32666 334.714961 
L 1189.590105 329.947356 
L 1190.380441 329.947356 
L 1190.643886 327.565489 
L 1191.434222 327.565489 
L 1191.697667 322.804569 
L 1193.541785 322.804569 
L 1193.80523 320.426519 
L 1194.595566 320.426519 
L 1194.859011 315.674908 
L 1195.649347 315.674908 
L 1195.912792 313.301337 
L 1196.703128 313.301337 
L 1196.966574 310.929671 
L 1197.75691 310.929671 
L 1198.020355 308.55976 
L 1198.810691 308.55976 
L 1199.074136 303.825299 
L 1199.864472 303.825299 
L 1200.127917 305.352971 
L 1200.918253 305.352971 
L 1201.181699 306.067128 
L 1201.972035 306.067128 
L 1202.23548 305.248132 
L 1203.025816 305.248132 
L 1203.289261 302.890566 
L 1204.079597 302.890566 
L 1204.343042 309.147537 
L 1205.133378 309.147537 
L 1205.396824 311.499678 
L 1206.187159 311.499678 
L 1206.450605 313.062288 
L 1207.240941 313.062288 
L 1207.504386 311.496484 
L 1208.294722 311.496484 
L 1208.558167 317.75745 
L 1209.348503 317.75745 
L 1209.611949 316.984235 
L 1211.456066 316.984235 
L 1211.719511 313.876408 
L 1215.671191 313.876408 
L 1215.934636 316.215928 
L 1217.778753 316.215928 
L 1218.042198 313.878003 
L 1218.832534 313.878003 
L 1219.09598 311.541658 
L 1219.886316 311.541658 
L 1220.149761 310.797699 
L 1220.940097 310.797699 
L 1221.203542 307.728843 
L 1221.993878 307.728843 
L 1222.257323 307.002486 
L 1223.047659 307.002486 
L 1223.311105 309.329691 
L 1224.101441 309.329691 
L 1224.364886 307.004023 
L 1225.155222 307.004023 
L 1225.418667 308.614747 
L 1226.209003 308.614747 
L 1226.472448 303.264 
L 1227.262784 303.264 
L 1227.52623 300.943735 
L 1228.316566 300.943735 
L 1228.580011 298.624958 
L 1229.370347 298.624958 
L 1229.633792 296.307022 
L 1230.424128 296.307022 
L 1230.687573 293.990568 
L 1231.477909 293.990568 
L 1231.741355 291.675782 
L 1233.585472 291.675782 
L 1233.848917 295.622849 
L 1234.639253 295.622849 
L 1234.902698 290.999351 
L 1236.746816 290.999351 
L 1237.010261 293.309547 
L 1237.800597 293.309547 
L 1238.064042 288.693858 
L 1238.854378 288.693858 
L 1239.117823 286.388344 
L 1239.908159 286.388344 
L 1240.171605 284.084427 
L 1240.96194 284.084427 
L 1241.225386 281.781939 
L 1242.015722 281.781939 
L 1242.279167 283.444027 
L 1243.069503 283.444027 
L 1243.332948 285.107359 
L 1244.123284 285.107359 
L 1244.38673 282.808686 
L 1247.284628 282.808686 
L 1247.548073 285.105954 
L 1248.338409 285.105954 
L 1248.601855 284.48122 
L 1249.39219 284.48122 
L 1249.655636 288.451584 
L 1250.445972 288.451584 
L 1250.709417 290.742347 
L 1251.499753 290.742347 
L 1251.763198 294.718791 
L 1252.553534 294.718791 
L 1252.816979 290.144379 
L 1253.607315 290.144379 
L 1253.870761 284.984684 
L 1254.661097 284.984684 
L 1254.924542 280.424119 
L 1255.714878 280.424119 
L 1255.978323 278.145884 
L 1256.768659 278.145884 
L 1257.032104 275.868943 
L 1257.82244 275.868943 
L 1258.085886 275.305374 
L 1258.876222 275.305374 
L 1259.139667 270.202707 
L 1259.930003 270.202707 
L 1260.193448 272.473543 
L 1260.983784 272.473543 
L 1261.247229 267.93584 
L 1263.091347 267.93584 
L 1263.354792 267.394544 
L 1265.198909 267.394544 
L 1265.462354 265.129111 
L 1267.306472 265.129111 
L 1267.569917 264.594561 
L 1269.414034 264.594561 
L 1269.677479 262.331803 
L 1270.467815 262.331803 
L 1270.731261 260.070272 
L 1271.521597 260.070272 
L 1271.785042 262.331021 
L 1272.575378 262.331021 
L 1272.838823 260.071483 
L 1273.629159 260.071483 
L 1273.892604 257.813146 
L 1274.68294 257.813146 
L 1274.946386 255.556231 
L 1276.790503 255.556231 
L 1277.053948 255.049118 
L 1281.005628 255.048974 
L 1281.269073 250.553594 
L 1282.059409 250.553594 
L 1282.322854 252.799944 
L 1283.11319 252.799944 
L 1283.376636 248.310673 
L 1284.166971 248.310673 
L 1284.430417 243.82639 
L 1285.220753 243.82639 
L 1285.484198 241.58594 
L 1286.274534 241.58594 
L 1286.537979 240.680521 
L 1287.328315 240.680521 
L 1287.59176 238.443411 
L 1288.382096 238.443411 
L 1288.645542 240.679768 
L 1289.435878 240.679768 
L 1289.699323 244.705909 
L 1290.489659 244.705909 
L 1290.753104 242.471624 
L 1291.54344 242.471624 
L 1291.806885 244.705168 
L 1293.651003 244.705168 
L 1293.914448 246.937973 
L 1295.758565 246.937239 
L 1296.02201 248.741556 
L 1296.812346 248.741556 
L 1297.075792 244.283294 
L 1297.866128 244.283294 
L 1298.129573 242.055787 
L 1299.97369 242.055787 
L 1300.237135 239.829562 
L 1301.027471 239.829562 
L 1301.290917 242.055059 
L 1303.135034 242.055059 
L 1303.398479 239.830633 
L 1304.188815 239.830633 
L 1304.45226 239.427419 
L 1308.40394 239.427419 
L 1308.667385 237.205523 
L 1309.457721 237.205523 
L 1309.721167 239.026907 
L 1310.511503 239.026907 
L 1310.774948 236.806266 
L 1311.565284 236.806266 
L 1311.828729 236.411627 
L 1312.619065 236.411627 
L 1312.88251 234.193294 
L 1314.726627 234.193294 
L 1314.990073 229.760149 
L 1315.780409 229.760149 
L 1316.043854 231.975481 
L 1316.83419 231.975481 
L 1317.097635 229.383798 
L 1317.887971 229.383798 
L 1318.151417 227.175053 
L 1318.941752 227.175053 
L 1319.205198 224.966128 
L 1319.995534 224.966128 
L 1320.258979 224.603767 
L 1321.049315 224.603767 
L 1321.31276 224.246214 
L 1322.103096 224.246214 
L 1322.366542 228.303117 
L 1323.156877 228.303117 
L 1323.420323 225.746235 
L 1325.26444 225.746235 
L 1325.527885 223.543262 
L 1326.318221 223.543262 
L 1326.581666 227.601047 
L 1327.372002 227.601047 
L 1327.635448 225.399939 
L 1328.425784 225.399939 
L 1328.689229 223.2 
L 1329.479565 223.2 
L 1329.74301 225.399258 
L 1330.533346 225.399258 
L 1330.796791 225.064537 
L 1330.796791 225.064537 
" clip-path="url(#pfc769af873)" style="fill: none; stroke: #0000ff; stroke-width: 1.5; stroke-linecap: square"/>
   </g>
   <g id="patch_9">
    <path d="M 860.823529 1281.6 
L 860.823529 172.8 
" style="fill: none; stroke: #000000; stroke-width: 0.8; stroke-linejoin: miter; stroke-linecap: square"/>
   </g>
   <g id="patch_10">
    <path d="M 1353.176471 1281.6 
L 1353.176471 172.8 
" style="fill: none; stroke: #000000; stroke-width: 0.8; stroke-linejoin: miter; stroke-linecap: square"/>
   </g>
   <g id="patch_11">
    <path d="M 860.823529 1281.6 
L 1353.176471 1281.6 
" style="fill: none; stroke: #000000; stroke-width: 0.8; stroke-linejoin: miter; stroke-linecap: square"/>
   </g>
   <g id="patch_12">
    <path d="M 860.823529 172.8 
L 1353.176471 172.8 
" style="fill: none; stroke: #000000; stroke-width: 0.8; stroke-linejoin: miter; stroke-linecap: square"/>
   </g>
   <g id="legend_2">
    <g id="patch_13">
     <path d="M 1262.134283 195.478125 
L 1346.176471 195.478125 
Q 1348.176471 195.478125 1348.176471 193.478125 
L 1348.176471 179.8 
Q 1348.176471 177.8 1346.176471 177.8 
L 1262.134283 177.8 
Q 1260.134283 177.8 1260.134283 179.8 
L 1260.134283 193.478125 
Q 1260.134283 195.478125 1262.134283 195.478125 
z
" style="fill: #ffffff; opacity: 0.8; stroke: #cccccc; stroke-linejoin: miter"/>
    </g>
    <g id="line2d_33">
     <path d="M 1264.134283 185.898437 
L 1274.134283 185.898437 
L 1284.134283 185.898437 
" style="fill: none; stroke: #0000ff; stroke-width: 1.5; stroke-linecap: square"/>
    </g>
    <g id="text_31">
     <!-- O2 reward -->
     <g transform="translate(1292.134283 189.398437) scale(0.1 -0.1)">
      <use xlink:href="#DejaVuSans-4f"/>
      <use xlink:href="#DejaVuSans-32" x="78.710938"/>
      <use xlink:href="#DejaVuSans-20" x="142.333984"/>
      <use xlink:href="#DejaVuSans-72" x="174.121094"/>
      <use xlink:href="#DejaVuSans-65" x="212.984375"/>
      <use xlink:href="#DejaVuSans-77" x="274.507812"/>
      <use xlink:href="#DejaVuSans-61" x="356.294922"/>
      <use xlink:href="#DejaVuSans-72" x="417.574219"/>
      <use xlink:href="#DejaVuSans-64" x="456.9375"/>
     </g>
    </g>
   </g>
  </g>
  <g id="axes_3">
   <g id="patch_14">
    <path d="M 1451.647059 1281.6 
L 1944 1281.6 
L 1944 172.8 
L 1451.647059 172.8 
z
" style="fill: #ffffff"/>
   </g>
   <g id="matplotlib.axis_5">
    <g id="xtick_17">
     <g id="line2d_34">
      <g>
       <use xlink:href="#m43b959eaf2" x="1473.763293" y="1281.6" style="stroke: #000000; stroke-width: 0.8"/>
      </g>
     </g>
     <g id="text_32">
      <!-- 0 -->
      <g transform="translate(1470.582043 1296.198437) scale(0.1 -0.1)">
       <use xlink:href="#DejaVuSans-30"/>
      </g>
     </g>
    </g>
    <g id="xtick_18">
     <g id="line2d_35">
      <g>
       <use xlink:href="#m43b959eaf2" x="1539.62462" y="1281.6" style="stroke: #000000; stroke-width: 0.8"/>
      </g>
     </g>
     <g id="text_33">
      <!-- 250 -->
      <g transform="translate(1530.08087 1296.198437) scale(0.1 -0.1)">
       <use xlink:href="#DejaVuSans-32"/>
       <use xlink:href="#DejaVuSans-35" x="63.623047"/>
       <use xlink:href="#DejaVuSans-30" x="127.246094"/>
      </g>
     </g>
    </g>
    <g id="xtick_19">
     <g id="line2d_36">
      <g>
       <use xlink:href="#m43b959eaf2" x="1605.485948" y="1281.6" style="stroke: #000000; stroke-width: 0.8"/>
      </g>
     </g>
     <g id="text_34">
      <!-- 500 -->
      <g transform="translate(1595.942198 1296.198437) scale(0.1 -0.1)">
       <use xlink:href="#DejaVuSans-35"/>
       <use xlink:href="#DejaVuSans-30" x="63.623047"/>
       <use xlink:href="#DejaVuSans-30" x="127.246094"/>
      </g>
     </g>
    </g>
    <g id="xtick_20">
     <g id="line2d_37">
      <g>
       <use xlink:href="#m43b959eaf2" x="1671.347276" y="1281.6" style="stroke: #000000; stroke-width: 0.8"/>
      </g>
     </g>
     <g id="text_35">
      <!-- 750 -->
      <g transform="translate(1661.803526 1296.198437) scale(0.1 -0.1)">
       <use xlink:href="#DejaVuSans-37"/>
       <use xlink:href="#DejaVuSans-35" x="63.623047"/>
       <use xlink:href="#DejaVuSans-30" x="127.246094"/>
      </g>
     </g>
    </g>
    <g id="xtick_21">
     <g id="line2d_38">
      <g>
       <use xlink:href="#m43b959eaf2" x="1737.208603" y="1281.6" style="stroke: #000000; stroke-width: 0.8"/>
      </g>
     </g>
     <g id="text_36">
      <!-- 1000 -->
      <g transform="translate(1724.483603 1296.198437) scale(0.1 -0.1)">
       <use xlink:href="#DejaVuSans-31"/>
       <use xlink:href="#DejaVuSans-30" x="63.623047"/>
       <use xlink:href="#DejaVuSans-30" x="127.246094"/>
       <use xlink:href="#DejaVuSans-30" x="190.869141"/>
      </g>
     </g>
    </g>
    <g id="xtick_22">
     <g id="line2d_39">
      <g>
       <use xlink:href="#m43b959eaf2" x="1803.069931" y="1281.6" style="stroke: #000000; stroke-width: 0.8"/>
      </g>
     </g>
     <g id="text_37">
      <!-- 1250 -->
      <g transform="translate(1790.344931 1296.198437) scale(0.1 -0.1)">
       <use xlink:href="#DejaVuSans-31"/>
       <use xlink:href="#DejaVuSans-32" x="63.623047"/>
       <use xlink:href="#DejaVuSans-35" x="127.246094"/>
       <use xlink:href="#DejaVuSans-30" x="190.869141"/>
      </g>
     </g>
    </g>
    <g id="xtick_23">
     <g id="line2d_40">
      <g>
       <use xlink:href="#m43b959eaf2" x="1868.931259" y="1281.6" style="stroke: #000000; stroke-width: 0.8"/>
      </g>
     </g>
     <g id="text_38">
      <!-- 1500 -->
      <g transform="translate(1856.206259 1296.198437) scale(0.1 -0.1)">
       <use xlink:href="#DejaVuSans-31"/>
       <use xlink:href="#DejaVuSans-35" x="63.623047"/>
       <use xlink:href="#DejaVuSans-30" x="127.246094"/>
       <use xlink:href="#DejaVuSans-30" x="190.869141"/>
      </g>
     </g>
    </g>
    <g id="xtick_24">
     <g id="line2d_41">
      <g>
       <use xlink:href="#m43b959eaf2" x="1934.792586" y="1281.6" style="stroke: #000000; stroke-width: 0.8"/>
      </g>
     </g>
     <g id="text_39">
      <!-- 1750 -->
      <g transform="translate(1922.067586 1296.198437) scale(0.1 -0.1)">
       <use xlink:href="#DejaVuSans-31"/>
       <use xlink:href="#DejaVuSans-37" x="63.623047"/>
       <use xlink:href="#DejaVuSans-35" x="127.246094"/>
       <use xlink:href="#DejaVuSans-30" x="190.869141"/>
      </g>
     </g>
    </g>
   </g>
   <g id="matplotlib.axis_6">
    <g id="ytick_14">
     <g id="line2d_42">
      <g>
       <use xlink:href="#m66fef50e22" x="1451.647059" y="1231.2" style="stroke: #000000; stroke-width: 0.8"/>
      </g>
     </g>
     <g id="text_40">
      <!-- 0 -->
      <g transform="translate(1438.284559 1234.999219) scale(0.1 -0.1)">
       <use xlink:href="#DejaVuSans-30"/>
      </g>
     </g>
    </g>
    <g id="ytick_15">
     <g id="line2d_43">
      <g>
       <use xlink:href="#m66fef50e22" x="1451.647059" y="993.90111" style="stroke: #000000; stroke-width: 0.8"/>
      </g>
     </g>
     <g id="text_41">
      <!-- 5 -->
      <g transform="translate(1438.284559 997.700329) scale(0.1 -0.1)">
       <use xlink:href="#DejaVuSans-35"/>
      </g>
     </g>
    </g>
    <g id="ytick_16">
     <g id="line2d_44">
      <g>
       <use xlink:href="#m66fef50e22" x="1451.647059" y="756.60222" style="stroke: #000000; stroke-width: 0.8"/>
      </g>
     </g>
     <g id="text_42">
      <!-- 10 -->
      <g transform="translate(1431.922059 760.401439) scale(0.1 -0.1)">
       <use xlink:href="#DejaVuSans-31"/>
       <use xlink:href="#DejaVuSans-30" x="63.623047"/>
      </g>
     </g>
    </g>
    <g id="ytick_17">
     <g id="line2d_45">
      <g>
       <use xlink:href="#m66fef50e22" x="1451.647059" y="519.30333" style="stroke: #000000; stroke-width: 0.8"/>
      </g>
     </g>
     <g id="text_43">
      <!-- 15 -->
      <g transform="translate(1431.922059 523.102549) scale(0.1 -0.1)">
       <use xlink:href="#DejaVuSans-31"/>
       <use xlink:href="#DejaVuSans-35" x="63.623047"/>
      </g>
     </g>
    </g>
    <g id="ytick_18">
     <g id="line2d_46">
      <g>
       <use xlink:href="#m66fef50e22" x="1451.647059" y="282.00444" style="stroke: #000000; stroke-width: 0.8"/>
      </g>
     </g>
     <g id="text_44">
      <!-- 20 -->
      <g transform="translate(1431.922059 285.803659) scale(0.1 -0.1)">
       <use xlink:href="#DejaVuSans-32"/>
       <use xlink:href="#DejaVuSans-30" x="63.623047"/>
      </g>
     </g>
    </g>
   </g>
   <g id="line2d_47">
    <path d="M 1474.026738 1231.2 
L 1485.091441 1231.2 
L 1485.354886 1212.690554 
L 1486.145222 1212.690554 
L 1486.408668 1197.900179 
L 1487.199004 1197.900179 
L 1487.462449 1185.319571 
L 1488.252785 1185.319571 
L 1488.51623 1166.674659 
L 1489.306566 1166.674659 
L 1489.570011 1160.4049 
L 1490.360347 1160.4049 
L 1490.623793 1135.995873 
L 1491.414128 1135.995873 
L 1491.677574 1143.087674 
L 1492.46791 1143.087674 
L 1492.731355 1129.196501 
L 1493.521691 1129.196501 
L 1493.785136 1115.500034 
L 1494.575472 1115.500034 
L 1494.838918 1106.209054 
L 1495.629253 1106.209054 
L 1495.892699 1090.47352 
L 1496.683035 1090.47352 
L 1496.94648 1075.702739 
L 1497.736816 1075.702739 
L 1498.000261 1066.54967 
L 1499.844378 1066.54967 
L 1500.107824 1062.520569 
L 1500.89816 1062.520569 
L 1501.161605 1053.697918 
L 1501.951941 1053.697918 
L 1502.215386 1048.78452 
L 1504.059503 1048.78452 
L 1504.322949 1045.116605 
L 1505.113285 1045.116605 
L 1505.37673 1037.081087 
L 1507.220847 1037.081087 
L 1507.484292 1033.714984 
L 1508.274628 1033.714984 
L 1508.538074 1019.524645 
L 1509.32841 1019.524645 
L 1509.591855 999.612849 
L 1510.382191 999.612849 
L 1510.645636 985.663381 
L 1511.435972 985.663381 
L 1511.699417 976.381146 
L 1512.489753 976.381146 
L 1512.753199 950.488511 
L 1513.543535 950.488511 
L 1513.80698 937.606348 
L 1514.597316 937.606348 
L 1514.860761 933.562267 
L 1515.651097 933.562267 
L 1515.914542 920.949482 
L 1516.704878 920.949482 
L 1516.968324 912.549309 
L 1517.75866 912.549309 
L 1518.022105 905.381251 
L 1518.812441 905.381251 
L 1519.075886 892.850566 
L 1519.866222 892.850566 
L 1520.129667 887.744471 
L 1520.920003 887.744471 
L 1521.183449 876.328853 
L 1523.027566 876.247086 
L 1523.291011 879.475658 
L 1524.081347 879.475658 
L 1524.344792 881.475678 
L 1525.135128 881.475678 
L 1525.398574 876.791744 
L 1526.188909 876.791744 
L 1526.452355 878.757185 
L 1527.242691 878.757185 
L 1527.506136 876.005229 
L 1528.296472 876.005229 
L 1528.559917 879.09545 
L 1529.350253 879.09545 
L 1529.613699 876.197484 
L 1531.457816 876.197484 
L 1531.721261 873.244232 
L 1532.511597 873.244232 
L 1532.775042 864.526436 
L 1533.565378 864.526436 
L 1533.828823 856.966137 
L 1534.619159 856.966137 
L 1534.882605 861.578597 
L 1535.672941 861.578597 
L 1535.936386 863.425479 
L 1538.834284 863.425479 
L 1539.09773 854.82306 
L 1539.888066 854.82306 
L 1540.151511 838.638636 
L 1540.941847 838.638636 
L 1541.205292 830.790262 
L 1541.995628 830.790262 
L 1542.259073 825.24564 
L 1543.049409 825.24564 
L 1543.312855 821.610823 
L 1544.103191 821.610823 
L 1544.366636 812.930436 
L 1545.156972 812.930436 
L 1545.420417 807.106617 
L 1546.210753 807.106617 
L 1546.474198 802.586767 
L 1547.264534 802.586767 
L 1547.52798 793.334569 
L 1548.318316 793.334569 
L 1548.581761 787.855473 
L 1549.372097 787.855473 
L 1549.635542 780.29632 
L 1550.425878 780.29632 
L 1550.689323 778.220361 
L 1551.479659 778.220361 
L 1551.743105 769.693726 
L 1552.533441 769.693726 
L 1552.796886 762.628684 
L 1553.587222 762.628684 
L 1553.850667 755.688261 
L 1554.641003 755.688261 
L 1554.904448 749.02408 
L 1556.748566 749.02408 
L 1557.012011 744.391102 
L 1557.802347 744.391102 
L 1558.065792 740.368499 
L 1558.856128 740.368499 
L 1559.119573 742.254537 
L 1559.909909 742.254537 
L 1560.173355 738.691928 
L 1560.963691 738.691928 
L 1561.227136 732.501272 
L 1562.017472 732.501272 
L 1562.280917 728.059224 
L 1563.071253 728.059224 
L 1563.334698 723.580127 
L 1564.125034 723.580127 
L 1564.38848 717.652033 
L 1565.178815 717.652033 
L 1565.442261 705.026185 
L 1566.232597 705.026185 
L 1566.496042 703.613696 
L 1567.286378 703.613696 
L 1567.549823 701.638024 
L 1568.340159 701.638024 
L 1568.603605 693.883865 
L 1569.39394 693.883865 
L 1569.657386 688.337541 
L 1570.447722 688.337541 
L 1570.711167 684.514858 
L 1571.501503 684.514858 
L 1571.764948 677.6474 
L 1572.555284 677.6474 
L 1572.818729 669.822143 
L 1573.609065 669.822143 
L 1573.872511 665.660598 
L 1574.662847 665.660598 
L 1574.926292 664.89659 
L 1575.716628 664.89659 
L 1575.980073 662.679889 
L 1576.770409 662.679889 
L 1577.033854 659.701568 
L 1577.82419 659.701568 
L 1578.087636 655.34121 
L 1578.877972 655.34121 
L 1579.141417 653.917232 
L 1579.931753 653.917232 
L 1580.195198 647.772577 
L 1580.985534 647.772577 
L 1581.248979 645.670405 
L 1582.039315 645.670405 
L 1582.302761 642.479498 
L 1583.093097 642.479498 
L 1583.356542 639.305018 
L 1584.146878 639.305018 
L 1584.410323 635.798005 
L 1586.25444 635.798005 
L 1586.517886 633.717298 
L 1587.308222 633.717298 
L 1587.571667 632.676319 
L 1588.362003 632.676319 
L 1588.625448 628.198091 
L 1590.469565 628.198091 
L 1590.733011 629.229704 
L 1591.523347 629.229704 
L 1591.786792 629.577845 
L 1592.577128 629.577845 
L 1592.840573 627.591632 
L 1593.630909 627.591632 
L 1593.894354 621.201318 
L 1594.68469 621.201318 
L 1594.948136 618.629054 
L 1595.738472 618.629054 
L 1596.001917 619.223439 
L 1596.792253 619.223439 
L 1597.055698 612.963596 
L 1597.846034 612.963596 
L 1598.109479 607.858955 
L 1598.899815 607.858955 
L 1599.163261 607.030444 
L 1599.953596 607.030444 
L 1600.217042 604.643301 
L 1601.007378 604.643301 
L 1601.270823 601.252082 
L 1602.061159 601.252082 
L 1602.324604 600.729681 
L 1603.11494 600.729681 
L 1603.378386 597.160241 
L 1604.168721 597.160241 
L 1604.432167 594.374126 
L 1605.222503 594.374126 
L 1605.485948 589.802152 
L 1606.276284 589.802152 
L 1606.539729 587.096505 
L 1607.330065 587.096505 
L 1607.59351 583.485848 
L 1608.383846 583.485848 
L 1608.647292 580.171145 
L 1609.437628 580.171145 
L 1609.701073 577.570403 
L 1610.491409 577.570403 
L 1610.754854 577.130081 
L 1611.54519 577.130081 
L 1611.808635 573.905369 
L 1612.598971 573.905369 
L 1612.862417 569.436267 
L 1613.652753 569.436267 
L 1613.916198 565.531406 
L 1614.706534 565.531406 
L 1614.969979 560.146945 
L 1615.760315 560.146945 
L 1616.02376 555.278403 
L 1616.814096 555.278403 
L 1617.077542 543.804009 
L 1617.867878 543.804009 
L 1618.131323 535.704312 
L 1618.921659 535.704312 
L 1619.185104 529.712603 
L 1619.97544 529.712603 
L 1620.238885 525.959486 
L 1621.029221 525.959486 
L 1621.292667 520.623557 
L 1622.083003 520.623557 
L 1622.346448 516.793872 
L 1623.136784 516.793872 
L 1623.400229 507.90311 
L 1624.190565 507.90311 
L 1624.45401 502.987747 
L 1625.244346 502.987747 
L 1625.507792 498.02117 
L 1626.298128 498.02117 
L 1626.561573 494.044794 
L 1627.351909 494.044794 
L 1627.615354 489.186346 
L 1628.40569 489.186346 
L 1628.669135 484.575943 
L 1629.459471 484.575943 
L 1629.722917 479.472268 
L 1630.513253 479.472268 
L 1630.776698 474.188584 
L 1631.567034 474.188584 
L 1631.830479 472.52403 
L 1632.620815 472.52403 
L 1632.88426 469.455367 
L 1633.674596 469.455367 
L 1633.938042 468.359139 
L 1634.728377 468.359139 
L 1634.991823 467.040384 
L 1635.782159 467.040384 
L 1636.045604 464.865842 
L 1636.83594 464.865842 
L 1637.099385 461.419709 
L 1637.889721 461.419709 
L 1638.153167 460.128523 
L 1638.943502 460.128523 
L 1639.206948 457.999449 
L 1639.997284 457.999449 
L 1640.260729 456.100805 
L 1642.104846 456.100805 
L 1642.368292 455.892068 
L 1643.158627 455.892068 
L 1643.422073 454.414698 
L 1644.212409 454.414698 
L 1644.475854 453.777427 
L 1645.26619 453.777427 
L 1645.529635 452.320853 
L 1646.319971 452.320853 
L 1646.583416 451.287077 
L 1647.373752 451.287077 
L 1647.637198 448.934224 
L 1648.427534 448.934224 
L 1648.690979 445.022983 
L 1649.481315 445.022983 
L 1649.74476 444.195206 
L 1650.535096 444.195206 
L 1650.798541 440.063011 
L 1651.588877 440.063011 
L 1651.852323 437.43062 
L 1652.642659 437.43062 
L 1652.906104 435.794876 
L 1653.69644 435.794876 
L 1653.959885 433.021786 
L 1654.750221 433.021786 
L 1655.013666 429.132708 
L 1655.804002 429.132708 
L 1656.067448 426.095195 
L 1656.857784 426.095195 
L 1657.121229 421.486607 
L 1657.911565 421.486607 
L 1658.17501 419.595895 
L 1658.965346 419.595895 
L 1659.228791 417.566717 
L 1660.019127 417.566717 
L 1660.282573 412.976791 
L 1661.072909 412.976791 
L 1661.336354 412.053962 
L 1662.12669 412.053962 
L 1662.390135 411.001516 
L 1663.180471 411.001516 
L 1663.443916 408.377784 
L 1664.234252 408.377784 
L 1664.497698 406.167571 
L 1665.288034 406.167571 
L 1665.551479 402.888824 
L 1666.341815 402.888824 
L 1666.60526 399.449486 
L 1667.395596 399.449486 
L 1667.659041 397.933841 
L 1668.449377 397.933841 
L 1668.712823 395.39607 
L 1669.503159 395.39607 
L 1669.766604 394.081194 
L 1670.55694 394.081194 
L 1670.820385 394.55988 
L 1671.610721 394.55988 
L 1671.874166 390.818627 
L 1672.664502 390.818627 
L 1672.927948 390.65593 
L 1673.718283 390.65593 
L 1673.981729 388.825672 
L 1675.825846 388.825672 
L 1676.089291 386.732888 
L 1676.879627 386.732888 
L 1677.143073 385.025775 
L 1677.933408 385.025775 
L 1678.196854 382.863031 
L 1678.98719 382.863031 
L 1679.250635 382.1191 
L 1680.040971 382.1191 
L 1680.304416 379.251825 
L 1681.094752 379.251825 
L 1681.358197 377.18377 
L 1682.148533 377.18377 
L 1682.411979 375.044441 
L 1683.202315 375.044441 
L 1683.46576 370.358977 
L 1684.256096 370.358977 
L 1684.519541 367.126694 
L 1686.363658 367.124091 
L 1686.627104 366.194663 
L 1687.41744 366.194663 
L 1687.680885 367.606682 
L 1688.471221 367.606682 
L 1688.734666 364.721313 
L 1689.525002 364.721313 
L 1689.788447 366.626878 
L 1690.578783 366.626878 
L 1690.842229 364.345097 
L 1691.632565 364.345097 
L 1691.89601 364.221674 
L 1692.686346 364.221674 
L 1692.949791 364.839814 
L 1694.793908 364.780578 
L 1695.057354 365.289568 
L 1695.84769 365.289568 
L 1696.111135 362.464509 
L 1696.901471 362.464509 
L 1697.164916 360.641115 
L 1697.955252 360.641115 
L 1698.218697 359.915085 
L 1699.009033 359.915085 
L 1699.272479 358.753013 
L 1700.062815 358.753013 
L 1700.32626 357.673293 
L 1701.116596 357.673293 
L 1701.380041 354.907431 
L 1703.224158 354.907431 
L 1703.487604 353.820523 
L 1704.27794 353.820523 
L 1704.541385 352.096939 
L 1705.331721 352.096939 
L 1705.595166 351.391535 
L 1706.385502 351.391535 
L 1706.648947 350.627327 
L 1707.439283 350.627327 
L 1707.702729 348.934006 
L 1708.493064 348.934006 
L 1708.75651 347.903886 
L 1709.546846 347.903886 
L 1709.810291 347.188787 
L 1710.600627 347.188787 
L 1710.864072 346.494443 
L 1712.708189 346.445859 
L 1712.971635 345.095862 
L 1714.815752 345.048163 
L 1715.079197 343.346119 
L 1715.869533 343.346119 
L 1716.132979 342.334357 
L 1716.923314 342.334357 
L 1717.18676 341.309781 
L 1717.977096 341.309781 
L 1718.240541 340.901393 
L 1719.030877 340.901393 
L 1719.294322 339.560164 
L 1720.084658 339.560164 
L 1720.348103 338.561642 
L 1721.138439 338.561642 
L 1721.401885 339.231751 
L 1722.192221 339.231751 
L 1722.455666 338.280999 
L 1723.246002 338.280999 
L 1723.509447 336.276983 
L 1724.299783 336.276983 
L 1724.563228 335.32386 
L 1725.353564 335.32386 
L 1725.61701 335.986198 
L 1726.407346 335.986198 
L 1726.670791 334.369474 
L 1727.461127 334.369474 
L 1727.724572 333.698696 
L 1729.568689 333.685611 
L 1729.832135 333.021129 
L 1731.676252 333.007523 
L 1731.939697 331.084393 
L 1733.783814 331.074726 
L 1734.04726 329.802419 
L 1734.837596 329.802419 
L 1735.101041 329.159918 
L 1735.891377 329.159918 
L 1736.154822 328.519605 
L 1736.945158 328.519605 
L 1737.208603 327.879823 
L 1737.998939 327.879823 
L 1738.262385 325.657873 
L 1740.106502 325.657873 
L 1740.369947 324.706332 
L 1741.160283 324.706332 
L 1741.423728 324.075178 
L 1743.267846 324.073155 
L 1743.531291 322.500652 
L 1744.321627 322.500652 
L 1744.585072 321.873313 
L 1745.375408 321.873313 
L 1745.638853 321.247313 
L 1746.429189 321.247313 
L 1746.692635 319.997873 
L 1747.48297 319.997873 
L 1747.746416 318.122312 
L 1748.536752 318.122312 
L 1748.800197 317.19502 
L 1749.590533 317.19502 
L 1749.853978 315.946017 
L 1750.644314 315.946017 
L 1750.90776 314.40559 
L 1751.698095 314.40559 
L 1751.961541 312.879455 
L 1752.751877 312.879455 
L 1753.015322 312.564606 
L 1753.805658 312.564606 
L 1754.069103 313.207972 
L 1754.859439 313.207972 
L 1755.122884 311.655618 
L 1756.967002 311.685775 
L 1757.230447 310.142174 
L 1758.020783 310.142174 
L 1758.284228 309.2612 
L 1760.128345 309.2612 
L 1760.391791 307.111904 
L 1761.182127 307.111904 
L 1761.445572 306.186611 
L 1762.235908 306.186611 
L 1762.499353 304.665375 
L 1763.289689 304.665375 
L 1763.553134 303.743888 
L 1764.34347 303.743888 
L 1764.606916 302.836315 
L 1765.397252 302.836315 
L 1765.660697 300.121543 
L 1766.451033 300.121543 
L 1766.714478 298.602174 
L 1767.504814 298.602174 
L 1767.768259 297.687453 
L 1768.558595 297.687453 
L 1768.822041 296.788422 
L 1769.612377 296.788422 
L 1769.875822 296.175093 
L 1770.666158 296.175093 
L 1770.929603 295.546706 
L 1771.719939 295.546706 
L 1771.983384 294.042581 
L 1773.827502 294.026278 
L 1774.090947 293.13536 
L 1776.988845 293.118833 
L 1777.252291 292.21078 
L 1778.042627 292.21078 
L 1778.306072 291.320528 
L 1779.096408 291.320528 
L 1779.359853 289.507568 
L 1780.150189 289.507568 
L 1780.413634 288.899122 
L 1781.20397 288.899122 
L 1781.467416 286.505547 
L 1782.257751 286.505547 
L 1782.521197 285.332514 
L 1783.311533 285.332514 
L 1783.574978 283.560302 
L 1784.365314 283.560302 
L 1784.628759 282.08533 
L 1786.472876 282.08533 
L 1786.736322 281.483379 
L 1787.526658 281.483379 
L 1787.790103 280.612917 
L 1788.580439 280.612917 
L 1788.843884 280.0337 
L 1789.63422 280.0337 
L 1789.897666 278.277208 
L 1791.741783 278.277208 
L 1792.005228 277.887651 
L 1792.795564 277.887651 
L 1793.059009 276.420445 
L 1793.849345 276.420445 
L 1794.11279 276.996681 
L 1794.903126 276.996681 
L 1795.166572 276.108222 
L 1797.010689 276.209241 
L 1797.274134 275.346142 
L 1798.06447 275.346142 
L 1798.327915 274.876912 
L 1800.172033 274.876912 
L 1800.435478 275.450263 
L 1803.333376 275.423472 
L 1803.596822 274.824337 
L 1805.440939 274.824337 
L 1805.704384 274.226203 
L 1806.49472 274.226203 
L 1806.758165 273.36919 
L 1807.548501 273.36919 
L 1807.811947 272.771844 
L 1808.602283 272.771844 
L 1808.865728 271.293584 
L 1809.656064 271.293584 
L 1809.919509 269.562954 
L 1810.709845 269.562954 
L 1810.97329 268.71307 
L 1811.763626 268.71307 
L 1812.027072 267.863796 
L 1812.817408 267.863796 
L 1813.080853 266.254589 
L 1813.871189 266.254589 
L 1814.134634 266.062259 
L 1814.92497 266.062259 
L 1815.188415 263.896249 
L 1815.978751 263.896249 
L 1816.242197 262.333114 
L 1817.032533 262.333114 
L 1817.295978 261.902352 
L 1818.086314 261.902352 
L 1818.349759 262.464467 
L 1819.140095 262.464467 
L 1819.40354 260.913937 
L 1820.193876 260.913937 
L 1820.457322 260.036371 
L 1821.247657 260.036371 
L 1821.511103 259.475135 
L 1822.301439 259.475135 
L 1822.564884 259.614463 
L 1823.35522 259.614463 
L 1823.618665 259.053227 
L 1824.409001 259.053227 
L 1824.672447 258.634789 
L 1825.462782 258.634789 
L 1825.726228 258.073553 
L 1826.516564 258.073553 
L 1826.780009 258.218071 
L 1827.570345 258.218071 
L 1827.83379 257.243934 
L 1829.677907 257.243934 
L 1829.941353 256.83187 
L 1831.78547 256.83187 
L 1832.048915 256.271891 
L 1833.893032 256.271891 
L 1834.156478 255.712756 
L 1834.946814 255.712756 
L 1835.210259 255.154458 
L 1836.000595 255.154458 
L 1836.26404 254.596991 
L 1838.108157 254.596991 
L 1838.371603 252.927427 
L 1839.161939 252.927427 
L 1839.425384 252.371992 
L 1840.21572 252.371992 
L 1840.479165 250.669851 
L 1841.269501 250.669851 
L 1841.532946 248.97129 
L 1842.323282 248.97129 
L 1842.586728 247.868348 
L 1844.430845 247.868348 
L 1844.69429 247.316877 
L 1846.538407 247.316877 
L 1846.801853 248.578288 
L 1847.592189 248.578288 
L 1847.855634 248.740633 
L 1848.64597 248.740633 
L 1848.909415 249.288278 
L 1849.699751 249.288278 
L 1849.963196 249.835172 
L 1850.753532 249.835172 
L 1851.016978 250.71356 
L 1851.807314 250.71356 
L 1852.070759 250.168146 
L 1852.861095 250.168146 
L 1853.12454 249.247104 
L 1853.914876 249.247104 
L 1854.178321 249.791062 
L 1854.968657 249.791062 
L 1855.232103 248.703865 
L 1856.022438 248.703865 
L 1856.285884 249.246391 
L 1857.07622 249.246391 
L 1857.339665 249.782086 
L 1858.130001 249.782086 
L 1858.393446 250.322856 
L 1860.237563 250.322856 
L 1860.501009 249.24392 
L 1861.291345 249.24392 
L 1861.55479 249.782094 
L 1863.398907 249.782094 
L 1863.662353 249.271191 
L 1864.452688 249.271191 
L 1864.716134 249.808511 
L 1865.50647 249.808511 
L 1865.769915 250.344985 
L 1866.560251 250.344985 
L 1866.823696 249.809349 
L 1868.667813 249.809349 
L 1868.931259 249.274933 
L 1869.721595 249.274933 
L 1869.98504 249.842494 
L 1870.775376 249.842494 
L 1871.038821 248.776893 
L 1871.829157 248.776893 
L 1872.092602 248.283303 
L 1873.93672 248.2841 
L 1874.200165 247.266079 
L 1874.990501 247.266079 
L 1875.253946 247.795272 
L 1876.044282 247.795272 
L 1876.307727 246.738424 
L 1877.098063 246.738424 
L 1877.361509 246.211162 
L 1878.151845 246.211162 
L 1878.41529 244.631657 
L 1879.205626 244.631657 
L 1879.469071 243.633648 
L 1880.259407 243.633648 
L 1880.522852 243.163618 
L 1881.313188 243.163618 
L 1881.576634 242.233107 
L 1882.36697 242.233107 
L 1882.630415 241.248735 
L 1883.420751 241.248735 
L 1883.684196 239.684874 
L 1884.474532 239.684874 
L 1884.737977 240.205079 
L 1886.582095 240.271579 
L 1886.84554 239.753142 
L 1887.635876 239.753142 
L 1887.899321 239.234705 
L 1888.689657 239.234705 
L 1888.953102 238.716268 
L 1889.743438 238.716268 
L 1890.006884 238.198518 
L 1890.79722 238.198518 
L 1891.060665 237.681454 
L 1891.851001 237.681454 
L 1892.114446 236.649368 
L 1892.904782 236.649368 
L 1893.168227 235.618323 
L 1893.958563 235.618323 
L 1894.222009 235.102983 
L 1897.119907 235.180526 
L 1897.383352 234.667175 
L 1898.173688 234.667175 
L 1898.437134 234.154476 
L 1900.281251 234.154476 
L 1900.544696 233.130448 
L 1901.335032 233.130448 
L 1901.598477 232.108424 
L 1902.388813 232.108424 
L 1902.652258 231.683797 
L 1903.442594 231.683797 
L 1903.70604 230.664951 
L 1904.496376 230.664951 
L 1904.759821 229.647974 
L 1905.550157 229.647974 
L 1905.813602 229.139188 
L 1906.603938 229.139188 
L 1906.867383 228.726955 
L 1908.711501 228.726955 
L 1908.974946 229.232701 
L 1909.765282 229.232701 
L 1910.028727 228.317719 
L 1910.819063 228.317719 
L 1911.082508 227.812568 
L 1911.872844 227.812568 
L 1912.13629 226.901856 
L 1912.926626 226.901856 
L 1913.190071 226.397886 
L 1915.034188 226.397886 
L 1915.297633 225.391702 
L 1916.087969 225.391702 
L 1916.351415 224.488367 
L 1917.141751 224.488367 
L 1917.405196 223.986498 
L 1919.249313 223.986844 
L 1919.512758 223.592061 
L 1921.356876 223.591492 
L 1921.620321 223.2 
L 1921.620321 223.2 
" clip-path="url(#p76153a7674)" style="fill: none; stroke: #0000ff; stroke-width: 1.5; stroke-linecap: square"/>
   </g>
   <g id="patch_15">
    <path d="M 1451.647059 1281.6 
L 1451.647059 172.8 
" style="fill: none; stroke: #000000; stroke-width: 0.8; stroke-linejoin: miter; stroke-linecap: square"/>
   </g>
   <g id="patch_16">
    <path d="M 1944 1281.6 
L 1944 172.8 
" style="fill: none; stroke: #000000; stroke-width: 0.8; stroke-linejoin: miter; stroke-linecap: square"/>
   </g>
   <g id="patch_17">
    <path d="M 1451.647059 1281.6 
L 1944 1281.6 
" style="fill: none; stroke: #000000; stroke-width: 0.8; stroke-linejoin: miter; stroke-linecap: square"/>
   </g>
   <g id="patch_18">
    <path d="M 1451.647059 172.8 
L 1944 172.8 
" style="fill: none; stroke: #000000; stroke-width: 0.8; stroke-linejoin: miter; stroke-linecap: square"/>
   </g>
   <g id="legend_3">
    <g id="patch_19">
     <path d="M 1852.957813 195.478125 
L 1937 195.478125 
Q 1939 195.478125 1939 193.478125 
L 1939 179.8 
Q 1939 177.8 1937 177.8 
L 1852.957813 177.8 
Q 1850.957813 177.8 1850.957813 179.8 
L 1850.957813 193.478125 
Q 1850.957813 195.478125 1852.957813 195.478125 
z
" style="fill: #ffffff; opacity: 0.8; stroke: #cccccc; stroke-linejoin: miter"/>
    </g>
    <g id="line2d_48">
     <path d="M 1854.957813 185.898437 
L 1864.957813 185.898437 
L 1874.957813 185.898437 
" style="fill: none; stroke: #0000ff; stroke-width: 1.5; stroke-linecap: square"/>
    </g>
    <g id="text_45">
     <!-- O3 reward -->
     <g transform="translate(1882.957813 189.398437) scale(0.1 -0.1)">
      <use xlink:href="#DejaVuSans-4f"/>
      <use xlink:href="#DejaVuSans-33" x="78.710938"/>
      <use xlink:href="#DejaVuSans-20" x="142.333984"/>
      <use xlink:href="#DejaVuSans-72" x="174.121094"/>
      <use xlink:href="#DejaVuSans-65" x="212.984375"/>
      <use xlink:href="#DejaVuSans-77" x="274.507812"/>
      <use xlink:href="#DejaVuSans-61" x="356.294922"/>
      <use xlink:href="#DejaVuSans-72" x="417.574219"/>
      <use xlink:href="#DejaVuSans-64" x="456.9375"/>
     </g>
    </g>
   </g>
  </g>
 </g>
 <defs>
  <clipPath id="p17b8b8e8e2">
   <rect x="270" y="172.8" width="492.352941" height="1108.8"/>
  </clipPath>
  <clipPath id="pfc769af873">
   <rect x="860.823529" y="172.8" width="492.352941" height="1108.8"/>
  </clipPath>
  <clipPath id="p76153a7674">
   <rect x="1451.647059" y="172.8" width="492.352941" height="1108.8"/>
  </clipPath>
 </defs>
</svg>
