<?xml version="1.0" encoding="utf-8" standalone="no"?>
<!DOCTYPE svg PUBLIC "-//W3C//DTD SVG 1.1//EN"
  "http://www.w3.org/Graphics/SVG/1.1/DTD/svg11.dtd">
<svg xmlns:xlink="http://www.w3.org/1999/xlink" width="2160pt" height="1440pt" viewBox="0 0 2160 1440" xmlns="http://www.w3.org/2000/svg" version="1.1">
 <metadata>
  <rdf:RDF xmlns:dc="http://purl.org/dc/elements/1.1/" xmlns:cc="http://creativecommons.org/ns#" xmlns:rdf="http://www.w3.org/1999/02/22-rdf-syntax-ns#">
   <cc:Work>
    <dc:type rdf:resource="http://purl.org/dc/dcmitype/StillImage"/>
    <dc:date>2023-05-31T19:47:49.751956</dc:date>
    <dc:format>image/svg+xml</dc:format>
    <dc:creator>
     <cc:Agent>
      <dc:title>Matplotlib v3.7.1, https://matplotlib.org/</dc:title>
     </cc:Agent>
    </dc:creator>
   </cc:Work>
  </rdf:RDF>
 </metadata>
 <defs>
  <style type="text/css">*{stroke-linejoin: round; stroke-linecap: butt}</style>
 </defs>
 <g id="figure_1">
  <g id="patch_1">
   <path d="M 0 1440 
L 2160 1440 
L 2160 0 
L 0 0 
z
" style="fill: #ffffff"/>
  </g>
  <g id="axes_1">
   <g id="patch_2">
    <path d="M 270 1281.6 
L 762.352941 1281.6 
L 762.352941 172.8 
L 270 172.8 
z
" style="fill: #ffffff"/>
   </g>
   <g id="matplotlib.axis_1">
    <g id="xtick_1">
     <g id="line2d_1">
      <defs>
       <path id="md9c83a899a" d="M 0 0 
L 0 3.5 
" style="stroke: #000000; stroke-width: 0.8"/>
      </defs>
      <g>
       <use xlink:href="#md9c83a899a" x="292.077047" y="1281.6" style="stroke: #000000; stroke-width: 0.8"/>
      </g>
     </g>
     <g id="text_1">
      <!-- 0 -->
      <g transform="translate(288.895797 1296.198437) scale(0.1 -0.1)">
       <defs>
        <path id="DejaVuSans-30" d="M 2034 4250 
Q 1547 4250 1301 3770 
Q 1056 3291 1056 2328 
Q 1056 1369 1301 889 
Q 1547 409 2034 409 
Q 2525 409 2770 889 
Q 3016 1369 3016 2328 
Q 3016 3291 2770 3770 
Q 2525 4250 2034 4250 
z
M 2034 4750 
Q 2819 4750 3233 4129 
Q 3647 3509 3647 2328 
Q 3647 1150 3233 529 
Q 2819 -91 2034 -91 
Q 1250 -91 836 529 
Q 422 1150 422 2328 
Q 422 3509 836 4129 
Q 1250 4750 2034 4750 
z
" transform="scale(0.015625)"/>
       </defs>
       <use xlink:href="#DejaVuSans-30"/>
      </g>
     </g>
    </g>
    <g id="xtick_2">
     <g id="line2d_2">
      <g>
       <use xlink:href="#md9c83a899a" x="352.603562" y="1281.6" style="stroke: #000000; stroke-width: 0.8"/>
      </g>
     </g>
     <g id="text_2">
      <!-- 200 -->
      <g transform="translate(343.059812 1296.198437) scale(0.1 -0.1)">
       <defs>
        <path id="DejaVuSans-32" d="M 1228 531 
L 3431 531 
L 3431 0 
L 469 0 
L 469 531 
Q 828 903 1448 1529 
Q 2069 2156 2228 2338 
Q 2531 2678 2651 2914 
Q 2772 3150 2772 3378 
Q 2772 3750 2511 3984 
Q 2250 4219 1831 4219 
Q 1534 4219 1204 4116 
Q 875 4013 500 3803 
L 500 4441 
Q 881 4594 1212 4672 
Q 1544 4750 1819 4750 
Q 2544 4750 2975 4387 
Q 3406 4025 3406 3419 
Q 3406 3131 3298 2873 
Q 3191 2616 2906 2266 
Q 2828 2175 2409 1742 
Q 1991 1309 1228 531 
z
" transform="scale(0.015625)"/>
       </defs>
       <use xlink:href="#DejaVuSans-32"/>
       <use xlink:href="#DejaVuSans-30" x="63.623047"/>
       <use xlink:href="#DejaVuSans-30" x="127.246094"/>
      </g>
     </g>
    </g>
    <g id="xtick_3">
     <g id="line2d_3">
      <g>
       <use xlink:href="#md9c83a899a" x="413.130078" y="1281.6" style="stroke: #000000; stroke-width: 0.8"/>
      </g>
     </g>
     <g id="text_3">
      <!-- 400 -->
      <g transform="translate(403.586328 1296.198437) scale(0.1 -0.1)">
       <defs>
        <path id="DejaVuSans-34" d="M 2419 4116 
L 825 1625 
L 2419 1625 
L 2419 4116 
z
M 2253 4666 
L 3047 4666 
L 3047 1625 
L 3713 1625 
L 3713 1100 
L 3047 1100 
L 3047 0 
L 2419 0 
L 2419 1100 
L 313 1100 
L 313 1709 
L 2253 4666 
z
" transform="scale(0.015625)"/>
       </defs>
       <use xlink:href="#DejaVuSans-34"/>
       <use xlink:href="#DejaVuSans-30" x="63.623047"/>
       <use xlink:href="#DejaVuSans-30" x="127.246094"/>
      </g>
     </g>
    </g>
    <g id="xtick_4">
     <g id="line2d_4">
      <g>
       <use xlink:href="#md9c83a899a" x="473.656593" y="1281.6" style="stroke: #000000; stroke-width: 0.8"/>
      </g>
     </g>
     <g id="text_4">
      <!-- 600 -->
      <g transform="translate(464.112843 1296.198437) scale(0.1 -0.1)">
       <defs>
        <path id="DejaVuSans-36" d="M 2113 2584 
Q 1688 2584 1439 2293 
Q 1191 2003 1191 1497 
Q 1191 994 1439 701 
Q 1688 409 2113 409 
Q 2538 409 2786 701 
Q 3034 994 3034 1497 
Q 3034 2003 2786 2293 
Q 2538 2584 2113 2584 
z
M 3366 4563 
L 3366 3988 
Q 3128 4100 2886 4159 
Q 2644 4219 2406 4219 
Q 1781 4219 1451 3797 
Q 1122 3375 1075 2522 
Q 1259 2794 1537 2939 
Q 1816 3084 2150 3084 
Q 2853 3084 3261 2657 
Q 3669 2231 3669 1497 
Q 3669 778 3244 343 
Q 2819 -91 2113 -91 
Q 1303 -91 875 529 
Q 447 1150 447 2328 
Q 447 3434 972 4092 
Q 1497 4750 2381 4750 
Q 2619 4750 2861 4703 
Q 3103 4656 3366 4563 
z
" transform="scale(0.015625)"/>
       </defs>
       <use xlink:href="#DejaVuSans-36"/>
       <use xlink:href="#DejaVuSans-30" x="63.623047"/>
       <use xlink:href="#DejaVuSans-30" x="127.246094"/>
      </g>
     </g>
    </g>
    <g id="xtick_5">
     <g id="line2d_5">
      <g>
       <use xlink:href="#md9c83a899a" x="534.183109" y="1281.6" style="stroke: #000000; stroke-width: 0.8"/>
      </g>
     </g>
     <g id="text_5">
      <!-- 800 -->
      <g transform="translate(524.639359 1296.198437) scale(0.1 -0.1)">
       <defs>
        <path id="DejaVuSans-38" d="M 2034 2216 
Q 1584 2216 1326 1975 
Q 1069 1734 1069 1313 
Q 1069 891 1326 650 
Q 1584 409 2034 409 
Q 2484 409 2743 651 
Q 3003 894 3003 1313 
Q 3003 1734 2745 1975 
Q 2488 2216 2034 2216 
z
M 1403 2484 
Q 997 2584 770 2862 
Q 544 3141 544 3541 
Q 544 4100 942 4425 
Q 1341 4750 2034 4750 
Q 2731 4750 3128 4425 
Q 3525 4100 3525 3541 
Q 3525 3141 3298 2862 
Q 3072 2584 2669 2484 
Q 3125 2378 3379 2068 
Q 3634 1759 3634 1313 
Q 3634 634 3220 271 
Q 2806 -91 2034 -91 
Q 1263 -91 848 271 
Q 434 634 434 1313 
Q 434 1759 690 2068 
Q 947 2378 1403 2484 
z
M 1172 3481 
Q 1172 3119 1398 2916 
Q 1625 2713 2034 2713 
Q 2441 2713 2670 2916 
Q 2900 3119 2900 3481 
Q 2900 3844 2670 4047 
Q 2441 4250 2034 4250 
Q 1625 4250 1398 4047 
Q 1172 3844 1172 3481 
z
" transform="scale(0.015625)"/>
       </defs>
       <use xlink:href="#DejaVuSans-38"/>
       <use xlink:href="#DejaVuSans-30" x="63.623047"/>
       <use xlink:href="#DejaVuSans-30" x="127.246094"/>
      </g>
     </g>
    </g>
    <g id="xtick_6">
     <g id="line2d_6">
      <g>
       <use xlink:href="#md9c83a899a" x="594.709625" y="1281.6" style="stroke: #000000; stroke-width: 0.8"/>
      </g>
     </g>
     <g id="text_6">
      <!-- 1000 -->
      <g transform="translate(581.984625 1296.198437) scale(0.1 -0.1)">
       <defs>
        <path id="DejaVuSans-31" d="M 794 531 
L 1825 531 
L 1825 4091 
L 703 3866 
L 703 4441 
L 1819 4666 
L 2450 4666 
L 2450 531 
L 3481 531 
L 3481 0 
L 794 0 
L 794 531 
z
" transform="scale(0.015625)"/>
       </defs>
       <use xlink:href="#DejaVuSans-31"/>
       <use xlink:href="#DejaVuSans-30" x="63.623047"/>
       <use xlink:href="#DejaVuSans-30" x="127.246094"/>
       <use xlink:href="#DejaVuSans-30" x="190.869141"/>
      </g>
     </g>
    </g>
    <g id="xtick_7">
     <g id="line2d_7">
      <g>
       <use xlink:href="#md9c83a899a" x="655.23614" y="1281.6" style="stroke: #000000; stroke-width: 0.8"/>
      </g>
     </g>
     <g id="text_7">
      <!-- 1200 -->
      <g transform="translate(642.51114 1296.198437) scale(0.1 -0.1)">
       <use xlink:href="#DejaVuSans-31"/>
       <use xlink:href="#DejaVuSans-32" x="63.623047"/>
       <use xlink:href="#DejaVuSans-30" x="127.246094"/>
       <use xlink:href="#DejaVuSans-30" x="190.869141"/>
      </g>
     </g>
    </g>
    <g id="xtick_8">
     <g id="line2d_8">
      <g>
       <use xlink:href="#md9c83a899a" x="715.762656" y="1281.6" style="stroke: #000000; stroke-width: 0.8"/>
      </g>
     </g>
     <g id="text_8">
      <!-- 1400 -->
      <g transform="translate(703.037656 1296.198437) scale(0.1 -0.1)">
       <use xlink:href="#DejaVuSans-31"/>
       <use xlink:href="#DejaVuSans-34" x="63.623047"/>
       <use xlink:href="#DejaVuSans-30" x="127.246094"/>
       <use xlink:href="#DejaVuSans-30" x="190.869141"/>
      </g>
     </g>
    </g>
   </g>
   <g id="matplotlib.axis_2">
    <g id="ytick_1">
     <g id="line2d_9">
      <defs>
       <path id="ma0e0530876" d="M 0 0 
L -3.5 0 
" style="stroke: #000000; stroke-width: 0.8"/>
      </defs>
      <g>
       <use xlink:href="#ma0e0530876" x="270" y="1104.618281" style="stroke: #000000; stroke-width: 0.8"/>
      </g>
     </g>
     <g id="text_9">
      <!-- −20 -->
      <g transform="translate(241.895312 1108.4175) scale(0.1 -0.1)">
       <defs>
        <path id="DejaVuSans-2212" d="M 678 2272 
L 4684 2272 
L 4684 1741 
L 678 1741 
L 678 2272 
z
" transform="scale(0.015625)"/>
       </defs>
       <use xlink:href="#DejaVuSans-2212"/>
       <use xlink:href="#DejaVuSans-32" x="83.789062"/>
       <use xlink:href="#DejaVuSans-30" x="147.412109"/>
      </g>
     </g>
    </g>
    <g id="ytick_2">
     <g id="line2d_10">
      <g>
       <use xlink:href="#ma0e0530876" x="270" y="886.445439" style="stroke: #000000; stroke-width: 0.8"/>
      </g>
     </g>
     <g id="text_10">
      <!-- −15 -->
      <g transform="translate(241.895312 890.244658) scale(0.1 -0.1)">
       <defs>
        <path id="DejaVuSans-35" d="M 691 4666 
L 3169 4666 
L 3169 4134 
L 1269 4134 
L 1269 2991 
Q 1406 3038 1543 3061 
Q 1681 3084 1819 3084 
Q 2600 3084 3056 2656 
Q 3513 2228 3513 1497 
Q 3513 744 3044 326 
Q 2575 -91 1722 -91 
Q 1428 -91 1123 -41 
Q 819 9 494 109 
L 494 744 
Q 775 591 1075 516 
Q 1375 441 1709 441 
Q 2250 441 2565 725 
Q 2881 1009 2881 1497 
Q 2881 1984 2565 2268 
Q 2250 2553 1709 2553 
Q 1456 2553 1204 2497 
Q 953 2441 691 2322 
L 691 4666 
z
" transform="scale(0.015625)"/>
       </defs>
       <use xlink:href="#DejaVuSans-2212"/>
       <use xlink:href="#DejaVuSans-31" x="83.789062"/>
       <use xlink:href="#DejaVuSans-35" x="147.412109"/>
      </g>
     </g>
    </g>
    <g id="ytick_3">
     <g id="line2d_11">
      <g>
       <use xlink:href="#ma0e0530876" x="270" y="668.272597" style="stroke: #000000; stroke-width: 0.8"/>
      </g>
     </g>
     <g id="text_11">
      <!-- −10 -->
      <g transform="translate(241.895312 672.071816) scale(0.1 -0.1)">
       <use xlink:href="#DejaVuSans-2212"/>
       <use xlink:href="#DejaVuSans-31" x="83.789062"/>
       <use xlink:href="#DejaVuSans-30" x="147.412109"/>
      </g>
     </g>
    </g>
    <g id="ytick_4">
     <g id="line2d_12">
      <g>
       <use xlink:href="#ma0e0530876" x="270" y="450.099756" style="stroke: #000000; stroke-width: 0.8"/>
      </g>
     </g>
     <g id="text_12">
      <!-- −5 -->
      <g transform="translate(248.257812 453.898974) scale(0.1 -0.1)">
       <use xlink:href="#DejaVuSans-2212"/>
       <use xlink:href="#DejaVuSans-35" x="83.789062"/>
      </g>
     </g>
    </g>
    <g id="ytick_5">
     <g id="line2d_13">
      <g>
       <use xlink:href="#ma0e0530876" x="270" y="231.926914" style="stroke: #000000; stroke-width: 0.8"/>
      </g>
     </g>
     <g id="text_13">
      <!-- 0 -->
      <g transform="translate(256.6375 235.726132) scale(0.1 -0.1)">
       <use xlink:href="#DejaVuSans-30"/>
      </g>
     </g>
    </g>
   </g>
   <g id="line2d_14">
    <path d="M 292.379679 231.926914 
L 307.511308 231.926914 
L 307.813941 223.2 
L 308.721838 223.2 
L 309.024471 229.017942 
L 309.932369 229.017942 
L 310.235001 238.908445 
L 311.142899 238.908445 
L 311.445532 240.02728 
L 312.353429 240.02728 
L 312.656062 251.11973 
L 313.56396 251.11973 
L 313.866592 255.941081 
L 314.77449 255.941081 
L 315.077122 261.101042 
L 315.98502 261.101042 
L 316.287653 265.63261 
L 317.195551 265.63261 
L 317.498183 271.510429 
L 318.406081 271.510429 
L 318.708713 275.983171 
L 320.827141 275.983171 
L 321.129774 272.280372 
L 323.248202 272.280372 
L 323.550835 277.544786 
L 324.458732 277.544786 
L 324.761365 273.096489 
L 325.669263 273.096489 
L 325.971895 269.507988 
L 328.090323 269.507988 
L 328.392956 270.409163 
L 329.300854 270.409163 
L 329.603486 265.980495 
L 331.721914 265.980495 
L 332.024547 261.569565 
L 332.932445 261.569565 
L 333.235077 257.175528 
L 334.142975 257.175528 
L 334.445607 261.246346 
L 335.353505 261.246346 
L 335.656138 254.635048 
L 337.774566 254.635048 
L 338.077198 248.50794 
L 338.985096 248.50794 
L 339.287729 252.362857 
L 340.195626 252.362857 
L 340.498259 248.50794 
L 341.406157 248.50794 
L 341.708789 254.396659 
L 343.827217 254.396659 
L 344.12985 258.553203 
L 345.037748 258.553203 
L 345.34038 265.793658 
L 346.248278 265.793658 
L 346.550911 264.70548 
L 347.458808 264.70548 
L 347.761441 267.445445 
L 348.669339 267.445445 
L 348.971971 266.399502 
L 349.879869 266.399502 
L 350.182502 265.376891 
L 351.090399 265.376891 
L 351.393032 267.170283 
L 352.30093 267.170283 
L 352.603562 277.438549 
L 353.51146 277.438549 
L 353.814092 273.778739 
L 354.72199 273.778739 
L 355.024623 276.618965 
L 355.932521 276.618965 
L 356.235153 286.754706 
L 357.143051 286.754706 
L 357.445683 290.216488 
L 358.353581 290.216488 
L 358.656214 293.26993 
L 361.985172 293.26993 
L 362.287805 296.65516 
L 363.195702 296.65516 
L 363.498335 303.093832 
L 364.406233 303.093832 
L 364.708865 299.713987 
L 365.616763 299.713987 
L 365.919396 306.163723 
L 366.827293 306.163723 
L 367.129926 312.554139 
L 368.037824 312.554139 
L 368.340456 315.639075 
L 369.248354 315.639075 
L 369.550987 325.393725 
L 370.458884 325.393725 
L 370.761517 331.948414 
L 371.669415 331.948414 
L 371.972047 341.819366 
L 372.879945 341.819366 
L 373.182577 351.524723 
L 374.090475 351.524723 
L 374.393108 358.044734 
L 375.301006 358.044734 
L 375.603638 361.37918 
L 376.511536 361.37918 
L 376.814168 367.899191 
L 377.722066 367.899191 
L 378.024699 364.75838 
L 378.932596 364.75838 
L 379.235229 358.553715 
L 380.143127 358.553715 
L 380.445759 352.4207 
L 381.353657 352.4207 
L 381.65629 349.354192 
L 382.564187 349.354192 
L 382.86682 355.908966 
L 384.985248 355.938291 
L 385.287881 356.500061 
L 386.195778 356.500061 
L 386.498411 366.710291 
L 388.616839 366.706739 
L 388.919472 360.824498 
L 389.827369 360.824498 
L 390.130002 357.886778 
L 391.0379 357.886778 
L 391.340532 352.021042 
L 392.24843 352.021042 
L 392.551062 358.723294 
L 393.45896 358.723294 
L 393.761593 361.654567 
L 395.880021 361.654567 
L 396.182653 364.58584 
L 397.090551 364.58584 
L 397.393184 361.657565 
L 398.301081 361.657565 
L 398.603714 359.639023 
L 399.511612 359.639023 
L 399.814244 353.84547 
L 400.722142 353.84547 
L 401.024775 354.81905 
L 401.932672 354.81905 
L 402.235305 359.757657 
L 403.143203 359.757657 
L 403.445835 360.844718 
L 404.353733 360.844718 
L 404.656366 357.970675 
L 406.774794 357.970675 
L 407.077426 364.789622 
L 407.985324 364.789622 
L 408.287957 361.955624 
L 409.195854 361.955624 
L 409.498487 359.123884 
L 410.406385 359.123884 
L 410.709017 360.306724 
L 411.616915 360.306724 
L 411.919547 361.513683 
L 412.827445 361.513683 
L 413.130078 365.558928 
L 414.037976 365.558928 
L 414.340608 372.445946 
L 415.248506 372.445946 
L 415.551138 383.414284 
L 416.459036 383.414284 
L 416.761669 390.3013 
L 417.669566 390.3013 
L 417.972199 399.9899 
L 418.880097 399.9899 
L 419.182729 410.962378 
L 420.090627 410.962378 
L 420.39326 420.630752 
L 421.301157 420.630752 
L 421.60379 434.442446 
L 422.511688 434.442446 
L 422.81432 445.497105 
L 423.722218 445.497105 
L 424.024851 448.283883 
L 424.932748 448.283883 
L 425.235381 459.365828 
L 426.143279 459.365828 
L 426.445911 460.731946 
L 427.353809 460.731946 
L 427.656442 469.055883 
L 429.77487 469.055883 
L 430.077502 473.217241 
L 432.19593 473.224933 
L 432.498563 477.391092 
L 433.406461 477.391092 
L 433.709093 474.632376 
L 435.827521 474.630815 
L 436.130154 478.82695 
L 437.038051 478.82695 
L 437.340684 485.774976 
L 438.248582 485.774976 
L 438.551214 480.299749 
L 439.459112 480.299749 
L 439.761745 481.809305 
L 440.669642 481.809305 
L 440.972275 476.36775 
L 441.880173 476.36775 
L 442.182805 468.238254 
L 443.090703 468.238254 
L 443.393336 472.50639 
L 444.301233 472.50639 
L 444.603866 464.399565 
L 445.511764 464.399565 
L 445.814396 471.383345 
L 446.722294 471.383345 
L 447.024927 470.271242 
L 450.353885 470.271242 
L 450.656517 467.588937 
L 451.564415 467.588937 
L 451.867048 462.230503 
L 452.774945 462.230503 
L 453.077578 456.875868 
L 453.985476 456.875868 
L 454.288108 446.184937 
L 455.196006 446.184937 
L 455.498639 435.542029 
L 456.406536 435.542029 
L 456.709169 427.583221 
L 457.617067 427.583221 
L 457.919699 419.644033 
L 458.827597 419.644033 
L 459.13023 417.002251 
L 460.038127 417.002251 
L 460.34076 409.089911 
L 461.248658 409.089911 
L 461.55129 403.821076 
L 463.669718 403.823219 
L 463.972351 401.193528 
L 464.880249 401.193528 
L 465.182881 393.313343 
L 466.090779 393.313343 
L 466.393412 400.380076 
L 467.301309 400.380076 
L 467.603942 392.514075 
L 468.51184 392.514075 
L 468.814472 401.426155 
L 469.72237 401.426155 
L 470.025002 418.195328 
L 470.9329 418.195328 
L 471.235533 415.580081 
L 472.14343 415.580081 
L 472.446063 414.818139 
L 473.353961 414.818139 
L 473.656593 404.37793 
L 474.564491 404.37793 
L 474.867124 408.860338 
L 475.775021 408.860338 
L 476.077654 420.433849 
L 476.985552 420.433849 
L 477.288184 431.315008 
L 478.196082 431.315008 
L 478.498715 438.406157 
L 479.406612 438.406157 
L 479.709245 450.682309 
L 480.617143 450.682309 
L 480.919775 462.285382 
L 481.827673 462.285382 
L 482.130306 469.382933 
L 483.038203 469.382933 
L 483.340836 473.89963 
L 484.248734 473.89963 
L 484.551366 475.19009 
L 485.459264 475.19009 
L 485.761896 486.819968 
L 486.669794 486.819968 
L 486.972427 496.506482 
L 487.880325 496.506482 
L 488.182957 498.461106 
L 489.090855 498.461106 
L 489.393487 502.994112 
L 490.301385 502.994112 
L 490.604018 516.60892 
L 491.511915 516.60892 
L 491.814548 528.266616 
L 492.722446 528.266616 
L 493.025078 549.038364 
L 493.932976 549.038364 
L 494.235609 574.399057 
L 495.143506 574.399057 
L 495.446139 583.525713 
L 496.354037 583.525713 
L 496.656669 602.353189 
L 497.564567 602.353189 
L 497.8672 618.08276 
L 498.775097 618.08276 
L 499.07773 615.522727 
L 499.985628 615.522727 
L 500.28826 610.407123 
L 501.196158 610.407123 
L 501.498791 605.293748 
L 503.617219 605.293066 
L 503.919851 602.738408 
L 504.827749 602.738408 
L 505.130381 600.183075 
L 506.038279 600.183075 
L 506.340912 595.076642 
L 507.24881 595.076642 
L 507.551442 592.008815 
L 508.45934 592.008815 
L 508.761972 591.495747 
L 509.66987 591.495747 
L 509.972503 602.721841 
L 510.8804 602.721841 
L 511.183033 600.173336 
L 512.090931 600.173336 
L 512.393563 604.768521 
L 513.301461 604.768521 
L 513.604094 613.962912 
L 514.511991 613.962912 
L 514.814624 613.467243 
L 515.722522 613.467243 
L 516.025154 618.068437 
L 516.933052 618.068437 
L 517.235685 624.247544 
L 518.143582 624.247544 
L 518.446215 626.311556 
L 519.354113 626.311556 
L 519.656745 630.443563 
L 520.564643 630.443563 
L 520.867276 632.982844 
L 521.775173 632.982844 
L 522.077806 629.977222 
L 522.985704 629.977222 
L 523.288336 629.513964 
L 524.196234 629.513964 
L 524.498866 636.665985 
L 525.406764 636.665985 
L 525.709397 629.05382 
L 526.617295 629.05382 
L 526.919927 631.133089 
L 527.827825 631.133089 
L 528.130457 642.451905 
L 529.038355 642.451905 
L 529.340988 639.916753 
L 530.248885 639.916753 
L 530.551518 646.6232 
L 531.459416 646.6232 
L 531.762048 653.336793 
L 532.669946 653.336793 
L 532.972579 660.053144 
L 533.880476 660.053144 
L 534.183109 681.530449 
L 535.091007 681.530449 
L 535.393639 684.062085 
L 536.301537 684.062085 
L 536.60417 693.75488 
L 537.512067 693.75488 
L 537.8147 693.329975 
L 538.722598 693.329975 
L 539.02523 695.859308 
L 541.143658 695.859308 
L 541.446291 700.917015 
L 542.354189 700.917015 
L 542.656821 700.498414 
L 543.564719 700.498414 
L 543.867351 697.555011 
L 544.775249 697.555011 
L 545.077882 697.143115 
L 545.98578 697.143115 
L 546.288412 699.261975 
L 547.19631 699.261975 
L 547.498942 703.500928 
L 548.40684 703.500928 
L 548.709473 700.977313 
L 549.61737 700.977313 
L 549.920003 700.576755 
L 550.827901 700.576755 
L 551.130533 709.87098 
L 552.038431 709.87098 
L 552.341064 714.124969 
L 553.248961 714.124969 
L 553.551594 716.253504 
L 554.459492 716.253504 
L 554.762124 711.214693 
L 555.670022 711.214693 
L 555.972655 715.48455 
L 556.880552 715.48455 
L 557.183185 710.449926 
L 558.091083 710.449926 
L 558.393715 709.698311 
L 559.301613 709.698311 
L 559.604246 723.674232 
L 561.722674 723.674232 
L 562.025306 728.336446 
L 562.933204 728.336446 
L 563.235836 730.486158 
L 565.354265 730.487384 
L 565.656897 730.13016 
L 566.564795 730.13016 
L 566.867427 741.976143 
L 567.775325 741.976143 
L 568.077958 736.954011 
L 568.985855 736.954011 
L 569.288488 734.442944 
L 570.196386 734.442944 
L 570.499018 736.602226 
L 571.406916 736.602226 
L 571.709549 731.581476 
L 573.827977 731.581476 
L 574.130609 729.071255 
L 575.038507 729.071255 
L 575.34114 726.561341 
L 576.249037 726.561341 
L 576.55167 719.033241 
L 577.459568 719.033241 
L 577.7622 714.015692 
L 578.670098 714.015692 
L 578.972731 706.489982 
L 579.880628 706.489982 
L 580.183261 701.473529 
L 581.091159 701.473529 
L 581.393791 696.458153 
L 582.301689 696.458153 
L 582.604321 688.937039 
L 583.512219 688.937039 
L 583.814852 715.173258 
L 584.72275 715.173258 
L 585.025382 729.545716 
L 585.93328 729.545716 
L 586.235912 746.424798 
L 587.14381 746.424798 
L 587.446443 753.611892 
L 588.35434 753.611892 
L 588.656973 760.798985 
L 589.564871 760.798985 
L 589.867503 779.854757 
L 590.775401 779.854757 
L 591.078034 794.229602 
L 591.985931 794.229602 
L 592.288564 811.108319 
L 593.196462 811.108319 
L 593.499094 832.668727 
L 594.406992 832.668727 
L 594.709625 839.85564 
L 595.617522 839.85564 
L 595.920155 837.352509 
L 596.828053 837.352509 
L 597.130685 832.347042 
L 598.038583 832.347042 
L 598.341216 834.849461 
L 599.249113 834.849461 
L 599.551746 832.347302 
L 600.459644 832.347302 
L 600.762276 829.845402 
L 601.670174 829.845402 
L 601.972806 827.343502 
L 602.880704 827.343502 
L 603.183337 832.029214 
L 604.091235 832.029214 
L 604.393867 829.527314 
L 606.512295 829.527568 
L 606.814928 829.212229 
L 607.722825 829.212229 
L 608.025458 838.901497 
L 608.933356 838.901497 
L 609.235988 841.088854 
L 610.143886 841.088854 
L 610.446519 855.155376 
L 611.354416 855.155376 
L 611.657049 857.655674 
L 612.564947 857.655674 
L 612.867579 859.845137 
L 613.775477 859.845137 
L 614.07811 876.416609 
L 614.986007 876.416609 
L 615.28864 888.299442 
L 616.196538 888.299442 
L 616.49917 887.992003 
L 617.407068 887.992003 
L 617.709701 892.684588 
L 618.617598 892.684588 
L 618.920231 895.184127 
L 619.828129 895.184127 
L 620.130761 890.18528 
L 621.038659 890.18528 
L 621.341291 894.87943 
L 622.249189 894.87943 
L 622.551822 901.769948 
L 623.459719 901.769948 
L 623.762352 899.27081 
L 624.67025 899.27081 
L 624.972882 898.967865 
L 627.09131 898.967699 
L 627.393943 901.466276 
L 628.301841 901.466276 
L 628.604473 906.163299 
L 629.512371 906.163299 
L 629.815004 905.86372 
L 630.722901 905.86372 
L 631.025534 903.365366 
L 631.933432 903.365366 
L 632.236064 908.063604 
L 633.143962 908.063604 
L 633.446595 919.959302 
L 634.354492 919.959302 
L 634.657125 922.160927 
L 635.565023 922.160927 
L 635.867655 929.358494 
L 636.775553 929.358494 
L 637.078186 931.856031 
L 637.986083 931.856031 
L 638.288716 934.353406 
L 639.196614 934.353406 
L 639.499246 939.053596 
L 641.617674 939.053596 
L 641.920307 941.550758 
L 642.828204 941.550758 
L 643.130837 943.754209 
L 644.038735 943.754209 
L 644.341367 943.461129 
L 645.249265 943.461129 
L 645.551898 948.162161 
L 646.459795 948.162161 
L 646.762428 947.870651 
L 647.670326 947.870651 
L 647.972958 952.572005 
L 648.880856 952.572005 
L 649.183489 964.618112 
L 650.091386 964.618112 
L 650.394019 969.610199 
L 652.512447 969.610397 
L 652.81508 979.018455 
L 653.722977 979.018455 
L 654.02561 974.027899 
L 654.933508 974.027899 
L 655.23614 978.732768 
L 656.144038 978.732768 
L 656.44667 988.427809 
L 657.354568 988.427809 
L 657.657201 985.933008 
L 659.775629 985.933008 
L 660.078261 990.638416 
L 660.986159 990.638416 
L 661.288792 993.132901 
L 662.196689 993.132901 
L 662.499322 1002.827314 
L 663.40722 1002.827314 
L 663.709852 1007.533631 
L 664.61775 1007.533631 
L 664.920383 1014.734306 
L 665.82828 1014.734306 
L 666.130913 1019.441181 
L 667.038811 1019.441181 
L 667.341443 1031.350014 
L 668.249341 1031.350014 
L 668.551974 1026.362776 
L 669.459871 1026.362776 
L 669.762504 1023.869337 
L 670.670402 1023.869337 
L 670.973034 1021.375898 
L 671.880932 1021.375898 
L 672.183565 1023.591452 
L 673.091462 1023.591452 
L 673.394095 1026.08456 
L 675.512523 1026.08456 
L 675.815155 1023.591452 
L 677.933584 1023.591452 
L 678.236216 1018.605762 
L 679.144114 1018.605762 
L 679.446746 1018.330594 
L 680.354644 1018.330594 
L 680.657277 1020.548867 
L 681.565174 1020.548867 
L 681.867807 1022.76731 
L 682.775705 1022.76731 
L 683.078337 1032.188511 
L 683.986235 1032.188511 
L 684.288868 1034.680263 
L 685.196765 1034.680263 
L 685.499398 1037.172015 
L 686.407296 1037.172015 
L 686.709928 1039.663767 
L 687.617826 1039.663767 
L 687.920459 1046.595462 
L 690.038887 1046.595462 
L 690.341519 1053.799181 
L 691.249417 1053.799181 
L 691.55205 1058.781272 
L 692.459947 1058.781272 
L 692.76258 1073.189261 
L 693.670478 1073.189261 
L 693.97311 1085.374038 
L 694.881008 1085.374038 
L 695.18364 1087.597876 
L 696.091538 1087.597876 
L 696.394171 1094.802239 
L 697.302069 1094.802239 
L 697.604701 1094.536804 
L 698.512599 1094.536804 
L 698.815231 1099.251757 
L 699.723129 1099.251757 
L 700.025762 1101.741648 
L 700.933659 1101.741648 
L 701.236292 1113.662179 
L 702.14419 1113.662179 
L 702.446822 1120.86762 
L 703.35472 1120.86762 
L 703.657353 1128.073197 
L 705.775781 1128.073197 
L 706.078413 1130.562482 
L 708.196841 1130.562482 
L 708.499474 1135.27863 
L 710.617902 1135.27863 
L 710.920535 1137.767915 
L 713.038963 1137.767915 
L 713.341595 1144.973939 
L 714.249493 1144.973939 
L 714.552125 1142.484805 
L 715.460023 1142.484805 
L 715.762656 1139.995822 
L 716.670554 1139.995822 
L 716.973186 1154.408887 
L 717.881084 1154.408887 
L 718.183716 1151.920199 
L 719.091614 1151.920199 
L 719.394247 1159.126943 
L 720.302144 1159.126943 
L 720.604777 1156.638402 
L 721.512675 1156.638402 
L 721.815307 1168.564076 
L 722.723205 1168.564076 
L 723.025838 1178.259512 
L 725.144266 1178.259512 
L 725.446898 1187.954663 
L 726.354796 1187.954663 
L 726.657429 1195.161988 
L 727.565326 1195.161988 
L 727.867959 1202.369453 
L 728.775857 1202.369453 
L 729.078489 1207.089512 
L 729.986387 1207.089512 
L 730.28902 1212.063908 
L 731.196917 1212.063908 
L 731.49955 1219.271373 
L 732.407448 1219.271373 
L 732.71008 1226.478976 
L 733.617978 1226.478976 
L 733.92061 1231.2 
L 737.249569 1231.199863 
L 737.552201 1228.713285 
L 739.973262 1228.713285 
L 739.973262 1228.713285 
" clip-path="url(#p3f3d73fd81)" style="fill: none; stroke: #0000ff; stroke-width: 1.5; stroke-linecap: square"/>
   </g>
   <g id="patch_3">
    <path d="M 270 1281.6 
L 270 172.8 
" style="fill: none; stroke: #000000; stroke-width: 0.8; stroke-linejoin: miter; stroke-linecap: square"/>
   </g>
   <g id="patch_4">
    <path d="M 762.352941 1281.6 
L 762.352941 172.8 
" style="fill: none; stroke: #000000; stroke-width: 0.8; stroke-linejoin: miter; stroke-linecap: square"/>
   </g>
   <g id="patch_5">
    <path d="M 270 1281.6 
L 762.352941 1281.6 
" style="fill: none; stroke: #000000; stroke-width: 0.8; stroke-linejoin: miter; stroke-linecap: square"/>
   </g>
   <g id="patch_6">
    <path d="M 270 172.8 
L 762.352941 172.8 
" style="fill: none; stroke: #000000; stroke-width: 0.8; stroke-linejoin: miter; stroke-linecap: square"/>
   </g>
   <g id="legend_1">
    <g id="patch_7">
     <path d="M 671.310754 195.478125 
L 755.352941 195.478125 
Q 757.352941 195.478125 757.352941 193.478125 
L 757.352941 179.8 
Q 757.352941 177.8 755.352941 177.8 
L 671.310754 177.8 
Q 669.310754 177.8 669.310754 179.8 
L 669.310754 193.478125 
Q 669.310754 195.478125 671.310754 195.478125 
z
" style="fill: #ffffff; opacity: 0.8; stroke: #cccccc; stroke-linejoin: miter"/>
    </g>
    <g id="line2d_15">
     <path d="M 673.310754 185.898437 
L 683.310754 185.898437 
L 693.310754 185.898437 
" style="fill: none; stroke: #0000ff; stroke-width: 1.5; stroke-linecap: square"/>
    </g>
    <g id="text_14">
     <!-- O1 reward -->
     <g transform="translate(701.310754 189.398437) scale(0.1 -0.1)">
      <defs>
       <path id="DejaVuSans-4f" d="M 2522 4238 
Q 1834 4238 1429 3725 
Q 1025 3213 1025 2328 
Q 1025 1447 1429 934 
Q 1834 422 2522 422 
Q 3209 422 3611 934 
Q 4013 1447 4013 2328 
Q 4013 3213 3611 3725 
Q 3209 4238 2522 4238 
z
M 2522 4750 
Q 3503 4750 4090 4092 
Q 4678 3434 4678 2328 
Q 4678 1225 4090 567 
Q 3503 -91 2522 -91 
Q 1538 -91 948 565 
Q 359 1222 359 2328 
Q 359 3434 948 4092 
Q 1538 4750 2522 4750 
z
" transform="scale(0.015625)"/>
       <path id="DejaVuSans-20" transform="scale(0.015625)"/>
       <path id="DejaVuSans-72" d="M 2631 2963 
Q 2534 3019 2420 3045 
Q 2306 3072 2169 3072 
Q 1681 3072 1420 2755 
Q 1159 2438 1159 1844 
L 1159 0 
L 581 0 
L 581 3500 
L 1159 3500 
L 1159 2956 
Q 1341 3275 1631 3429 
Q 1922 3584 2338 3584 
Q 2397 3584 2469 3576 
Q 2541 3569 2628 3553 
L 2631 2963 
z
" transform="scale(0.015625)"/>
       <path id="DejaVuSans-65" d="M 3597 1894 
L 3597 1613 
L 953 1613 
Q 991 1019 1311 708 
Q 1631 397 2203 397 
Q 2534 397 2845 478 
Q 3156 559 3463 722 
L 3463 178 
Q 3153 47 2828 -22 
Q 2503 -91 2169 -91 
Q 1331 -91 842 396 
Q 353 884 353 1716 
Q 353 2575 817 3079 
Q 1281 3584 2069 3584 
Q 2775 3584 3186 3129 
Q 3597 2675 3597 1894 
z
M 3022 2063 
Q 3016 2534 2758 2815 
Q 2500 3097 2075 3097 
Q 1594 3097 1305 2825 
Q 1016 2553 972 2059 
L 3022 2063 
z
" transform="scale(0.015625)"/>
       <path id="DejaVuSans-77" d="M 269 3500 
L 844 3500 
L 1563 769 
L 2278 3500 
L 2956 3500 
L 3675 769 
L 4391 3500 
L 4966 3500 
L 4050 0 
L 3372 0 
L 2619 2869 
L 1863 0 
L 1184 0 
L 269 3500 
z
" transform="scale(0.015625)"/>
       <path id="DejaVuSans-61" d="M 2194 1759 
Q 1497 1759 1228 1600 
Q 959 1441 959 1056 
Q 959 750 1161 570 
Q 1363 391 1709 391 
Q 2188 391 2477 730 
Q 2766 1069 2766 1631 
L 2766 1759 
L 2194 1759 
z
M 3341 1997 
L 3341 0 
L 2766 0 
L 2766 531 
Q 2569 213 2275 61 
Q 1981 -91 1556 -91 
Q 1019 -91 701 211 
Q 384 513 384 1019 
Q 384 1609 779 1909 
Q 1175 2209 1959 2209 
L 2766 2209 
L 2766 2266 
Q 2766 2663 2505 2880 
Q 2244 3097 1772 3097 
Q 1472 3097 1187 3025 
Q 903 2953 641 2809 
L 641 3341 
Q 956 3463 1253 3523 
Q 1550 3584 1831 3584 
Q 2591 3584 2966 3190 
Q 3341 2797 3341 1997 
z
" transform="scale(0.015625)"/>
       <path id="DejaVuSans-64" d="M 2906 2969 
L 2906 4863 
L 3481 4863 
L 3481 0 
L 2906 0 
L 2906 525 
Q 2725 213 2448 61 
Q 2172 -91 1784 -91 
Q 1150 -91 751 415 
Q 353 922 353 1747 
Q 353 2572 751 3078 
Q 1150 3584 1784 3584 
Q 2172 3584 2448 3432 
Q 2725 3281 2906 2969 
z
M 947 1747 
Q 947 1113 1208 752 
Q 1469 391 1925 391 
Q 2381 391 2643 752 
Q 2906 1113 2906 1747 
Q 2906 2381 2643 2742 
Q 2381 3103 1925 3103 
Q 1469 3103 1208 2742 
Q 947 2381 947 1747 
z
" transform="scale(0.015625)"/>
      </defs>
      <use xlink:href="#DejaVuSans-4f"/>
      <use xlink:href="#DejaVuSans-31" x="78.710938"/>
      <use xlink:href="#DejaVuSans-20" x="142.333984"/>
      <use xlink:href="#DejaVuSans-72" x="174.121094"/>
      <use xlink:href="#DejaVuSans-65" x="212.984375"/>
      <use xlink:href="#DejaVuSans-77" x="274.507812"/>
      <use xlink:href="#DejaVuSans-61" x="356.294922"/>
      <use xlink:href="#DejaVuSans-72" x="417.574219"/>
      <use xlink:href="#DejaVuSans-64" x="456.9375"/>
     </g>
    </g>
   </g>
  </g>
  <g id="axes_2">
   <g id="patch_8">
    <path d="M 860.823529 1281.6 
L 1353.176471 1281.6 
L 1353.176471 172.8 
L 860.823529 172.8 
z
" style="fill: #ffffff"/>
   </g>
   <g id="matplotlib.axis_3">
    <g id="xtick_9">
     <g id="line2d_16">
      <g>
       <use xlink:href="#md9c83a899a" x="882.900576" y="1281.6" style="stroke: #000000; stroke-width: 0.8"/>
      </g>
     </g>
     <g id="text_15">
      <!-- 0 -->
      <g transform="translate(879.719326 1296.198437) scale(0.1 -0.1)">
       <use xlink:href="#DejaVuSans-30"/>
      </g>
     </g>
    </g>
    <g id="xtick_10">
     <g id="line2d_17">
      <g>
       <use xlink:href="#md9c83a899a" x="943.427092" y="1281.6" style="stroke: #000000; stroke-width: 0.8"/>
      </g>
     </g>
     <g id="text_16">
      <!-- 200 -->
      <g transform="translate(933.883342 1296.198437) scale(0.1 -0.1)">
       <use xlink:href="#DejaVuSans-32"/>
       <use xlink:href="#DejaVuSans-30" x="63.623047"/>
       <use xlink:href="#DejaVuSans-30" x="127.246094"/>
      </g>
     </g>
    </g>
    <g id="xtick_11">
     <g id="line2d_18">
      <g>
       <use xlink:href="#md9c83a899a" x="1003.953607" y="1281.6" style="stroke: #000000; stroke-width: 0.8"/>
      </g>
     </g>
     <g id="text_17">
      <!-- 400 -->
      <g transform="translate(994.409857 1296.198437) scale(0.1 -0.1)">
       <use xlink:href="#DejaVuSans-34"/>
       <use xlink:href="#DejaVuSans-30" x="63.623047"/>
       <use xlink:href="#DejaVuSans-30" x="127.246094"/>
      </g>
     </g>
    </g>
    <g id="xtick_12">
     <g id="line2d_19">
      <g>
       <use xlink:href="#md9c83a899a" x="1064.480123" y="1281.6" style="stroke: #000000; stroke-width: 0.8"/>
      </g>
     </g>
     <g id="text_18">
      <!-- 600 -->
      <g transform="translate(1054.936373 1296.198437) scale(0.1 -0.1)">
       <use xlink:href="#DejaVuSans-36"/>
       <use xlink:href="#DejaVuSans-30" x="63.623047"/>
       <use xlink:href="#DejaVuSans-30" x="127.246094"/>
      </g>
     </g>
    </g>
    <g id="xtick_13">
     <g id="line2d_20">
      <g>
       <use xlink:href="#md9c83a899a" x="1125.006638" y="1281.6" style="stroke: #000000; stroke-width: 0.8"/>
      </g>
     </g>
     <g id="text_19">
      <!-- 800 -->
      <g transform="translate(1115.462888 1296.198437) scale(0.1 -0.1)">
       <use xlink:href="#DejaVuSans-38"/>
       <use xlink:href="#DejaVuSans-30" x="63.623047"/>
       <use xlink:href="#DejaVuSans-30" x="127.246094"/>
      </g>
     </g>
    </g>
    <g id="xtick_14">
     <g id="line2d_21">
      <g>
       <use xlink:href="#md9c83a899a" x="1185.533154" y="1281.6" style="stroke: #000000; stroke-width: 0.8"/>
      </g>
     </g>
     <g id="text_20">
      <!-- 1000 -->
      <g transform="translate(1172.808154 1296.198437) scale(0.1 -0.1)">
       <use xlink:href="#DejaVuSans-31"/>
       <use xlink:href="#DejaVuSans-30" x="63.623047"/>
       <use xlink:href="#DejaVuSans-30" x="127.246094"/>
       <use xlink:href="#DejaVuSans-30" x="190.869141"/>
      </g>
     </g>
    </g>
    <g id="xtick_15">
     <g id="line2d_22">
      <g>
       <use xlink:href="#md9c83a899a" x="1246.05967" y="1281.6" style="stroke: #000000; stroke-width: 0.8"/>
      </g>
     </g>
     <g id="text_21">
      <!-- 1200 -->
      <g transform="translate(1233.33467 1296.198437) scale(0.1 -0.1)">
       <use xlink:href="#DejaVuSans-31"/>
       <use xlink:href="#DejaVuSans-32" x="63.623047"/>
       <use xlink:href="#DejaVuSans-30" x="127.246094"/>
       <use xlink:href="#DejaVuSans-30" x="190.869141"/>
      </g>
     </g>
    </g>
    <g id="xtick_16">
     <g id="line2d_23">
      <g>
       <use xlink:href="#md9c83a899a" x="1306.586185" y="1281.6" style="stroke: #000000; stroke-width: 0.8"/>
      </g>
     </g>
     <g id="text_22">
      <!-- 1400 -->
      <g transform="translate(1293.861185 1296.198437) scale(0.1 -0.1)">
       <use xlink:href="#DejaVuSans-31"/>
       <use xlink:href="#DejaVuSans-34" x="63.623047"/>
       <use xlink:href="#DejaVuSans-30" x="127.246094"/>
       <use xlink:href="#DejaVuSans-30" x="190.869141"/>
      </g>
     </g>
    </g>
   </g>
   <g id="matplotlib.axis_4">
    <g id="ytick_6">
     <g id="line2d_24">
      <g>
       <use xlink:href="#ma0e0530876" x="860.823529" y="1231.2" style="stroke: #000000; stroke-width: 0.8"/>
      </g>
     </g>
     <g id="text_23">
      <!-- 0 -->
      <g transform="translate(847.461029 1234.999219) scale(0.1 -0.1)">
       <use xlink:href="#DejaVuSans-30"/>
      </g>
     </g>
    </g>
    <g id="ytick_7">
     <g id="line2d_25">
      <g>
       <use xlink:href="#ma0e0530876" x="860.823529" y="1034.788331" style="stroke: #000000; stroke-width: 0.8"/>
      </g>
     </g>
     <g id="text_24">
      <!-- 20 -->
      <g transform="translate(841.098529 1038.58755) scale(0.1 -0.1)">
       <use xlink:href="#DejaVuSans-32"/>
       <use xlink:href="#DejaVuSans-30" x="63.623047"/>
      </g>
     </g>
    </g>
    <g id="ytick_8">
     <g id="line2d_26">
      <g>
       <use xlink:href="#ma0e0530876" x="860.823529" y="838.376662" style="stroke: #000000; stroke-width: 0.8"/>
      </g>
     </g>
     <g id="text_25">
      <!-- 40 -->
      <g transform="translate(841.098529 842.17588) scale(0.1 -0.1)">
       <use xlink:href="#DejaVuSans-34"/>
       <use xlink:href="#DejaVuSans-30" x="63.623047"/>
      </g>
     </g>
    </g>
    <g id="ytick_9">
     <g id="line2d_27">
      <g>
       <use xlink:href="#ma0e0530876" x="860.823529" y="641.964992" style="stroke: #000000; stroke-width: 0.8"/>
      </g>
     </g>
     <g id="text_26">
      <!-- 60 -->
      <g transform="translate(841.098529 645.764211) scale(0.1 -0.1)">
       <use xlink:href="#DejaVuSans-36"/>
       <use xlink:href="#DejaVuSans-30" x="63.623047"/>
      </g>
     </g>
    </g>
    <g id="ytick_10">
     <g id="line2d_28">
      <g>
       <use xlink:href="#ma0e0530876" x="860.823529" y="445.553323" style="stroke: #000000; stroke-width: 0.8"/>
      </g>
     </g>
     <g id="text_27">
      <!-- 80 -->
      <g transform="translate(841.098529 449.352542) scale(0.1 -0.1)">
       <use xlink:href="#DejaVuSans-38"/>
       <use xlink:href="#DejaVuSans-30" x="63.623047"/>
      </g>
     </g>
    </g>
    <g id="ytick_11">
     <g id="line2d_29">
      <g>
       <use xlink:href="#ma0e0530876" x="860.823529" y="249.141654" style="stroke: #000000; stroke-width: 0.8"/>
      </g>
     </g>
     <g id="text_28">
      <!-- 100 -->
      <g transform="translate(834.736029 252.940873) scale(0.1 -0.1)">
       <use xlink:href="#DejaVuSans-31"/>
       <use xlink:href="#DejaVuSans-30" x="63.623047"/>
       <use xlink:href="#DejaVuSans-30" x="127.246094"/>
      </g>
     </g>
    </g>
   </g>
   <g id="line2d_30">
    <path d="M 883.203209 1231.2 
L 897.124307 1231.127395 
L 897.42694 1227.170883 
L 898.334837 1227.170883 
L 898.63747 1228.721539 
L 899.545368 1228.721539 
L 899.848 1227.799364 
L 900.755898 1227.799364 
L 901.058531 1229.617315 
L 901.966428 1229.617315 
L 902.269061 1221.449658 
L 903.176959 1221.449658 
L 903.479591 1209.068695 
L 904.387489 1209.068695 
L 904.690122 1202.909426 
L 905.598019 1202.909426 
L 905.900652 1186.685363 
L 906.80855 1186.685363 
L 907.111182 1171.732946 
L 912.861201 1171.732946 
L 913.163834 1165.243359 
L 916.492792 1165.243359 
L 916.795425 1158.322098 
L 920.124383 1158.322098 
L 920.427016 1148.891999 
L 921.334913 1148.891999 
L 921.637546 1146.244104 
L 922.545444 1146.244104 
L 922.848076 1143.330409 
L 924.966504 1143.330409 
L 925.269137 1125.445299 
L 926.177035 1125.445299 
L 926.479667 1097.319469 
L 927.387565 1097.319469 
L 927.690198 1089.827015 
L 928.598095 1089.827015 
L 928.900728 1075.399072 
L 929.808626 1075.399072 
L 930.111258 1040.472784 
L 931.019156 1040.472784 
L 931.321788 1016.164032 
L 944.334989 1016.164032 
L 944.637622 1008.996385 
L 947.96658 1008.996385 
L 948.269213 1001.934075 
L 949.177111 1001.934075 
L 949.479743 994.797926 
L 950.387641 994.797926 
L 950.690273 987.589831 
L 952.808702 987.589831 
L 953.111334 985.045714 
L 957.650823 985.045714 
L 957.953455 982.433225 
L 958.861353 982.433225 
L 959.163986 965.090945 
L 960.071883 965.090945 
L 960.374516 951.846945 
L 961.282414 951.846945 
L 961.585046 922.495547 
L 962.492944 922.495547 
L 962.795577 896.674394 
L 963.703474 896.674394 
L 964.006107 876.32236 
L 964.914005 876.32236 
L 965.216637 851.295224 
L 966.124535 851.295224 
L 966.427168 820.898562 
L 967.335065 820.898562 
L 967.637698 807.304366 
L 968.545596 807.304366 
L 968.848228 788.477233 
L 972.177186 788.477233 
L 972.479819 784.226833 
L 973.387717 784.226833 
L 973.690349 775.437929 
L 974.598247 775.437929 
L 974.90088 781.503291 
L 975.808777 781.503291 
L 976.11141 784.388189 
L 977.019308 784.388189 
L 977.32194 790.381047 
L 978.229838 790.381047 
L 978.532471 793.474418 
L 979.440368 793.474418 
L 979.743001 796.285316 
L 980.650899 796.285316 
L 980.953531 787.625595 
L 983.071959 787.625595 
L 983.374592 781.736798 
L 984.28249 781.736798 
L 984.585122 779.023774 
L 985.49302 779.023774 
L 985.795653 770.516199 
L 986.70355 770.516199 
L 987.006183 753.734146 
L 987.914081 753.734146 
L 988.216713 745.699001 
L 989.124611 745.699001 
L 989.427243 738.713507 
L 990.335141 738.713507 
L 990.637774 734.191166 
L 991.545671 734.191166 
L 991.848304 726.763266 
L 992.756202 726.763266 
L 993.058834 734.117808 
L 993.966732 734.117808 
L 994.269365 750.593713 
L 995.177262 750.593713 
L 995.479895 745.429451 
L 996.387793 745.429451 
L 996.690425 731.260575 
L 997.598323 731.260575 
L 997.900956 719.238735 
L 998.808853 719.238735 
L 999.111486 720.974773 
L 1000.019384 720.974773 
L 1000.322016 709.557402 
L 1001.229914 709.557402 
L 1001.532547 699.746131 
L 1002.440444 699.746131 
L 1002.743077 698.155845 
L 1004.861505 698.097698 
L 1005.164137 699.641548 
L 1006.072035 699.641548 
L 1006.374668 696.620526 
L 1007.282566 696.620526 
L 1007.585198 687.190124 
L 1008.493096 687.190124 
L 1008.795728 688.606239 
L 1009.703626 688.606239 
L 1010.006259 685.397884 
L 1010.914156 685.397884 
L 1011.216789 676.209328 
L 1012.124687 676.209328 
L 1012.427319 670.30694 
L 1013.335217 670.30694 
L 1013.63785 664.452077 
L 1014.545747 664.452077 
L 1014.84838 661.26406 
L 1015.756278 661.26406 
L 1016.05891 659.371298 
L 1018.177338 659.371298 
L 1018.479971 670.818903 
L 1019.387869 670.818903 
L 1019.690501 676.457374 
L 1020.598399 676.457374 
L 1020.901032 674.451341 
L 1021.808929 674.451341 
L 1022.111562 678.756052 
L 1023.01946 678.756052 
L 1023.322092 679.82249 
L 1024.22999 679.82249 
L 1024.532622 691.492486 
L 1025.44052 691.492486 
L 1025.743153 693.720596 
L 1026.651051 693.720596 
L 1026.953683 703.045106 
L 1027.861581 703.045106 
L 1028.164213 702.590287 
L 1029.072111 702.590287 
L 1029.374744 693.506644 
L 1030.282641 693.506644 
L 1030.585274 687.693186 
L 1031.493172 687.693186 
L 1031.795804 686.833719 
L 1032.703702 686.833719 
L 1033.006335 681.95955 
L 1033.914232 681.95955 
L 1034.216865 673.921887 
L 1035.124763 673.921887 
L 1035.427395 677.141313 
L 1036.335293 677.141313 
L 1036.637926 680.35539 
L 1037.545823 680.35539 
L 1037.848456 679.589988 
L 1038.756354 679.589988 
L 1039.058986 676.365159 
L 1039.966884 676.365159 
L 1040.269517 667.713606 
L 1041.177414 667.713606 
L 1041.480047 662.345507 
L 1043.598475 662.345507 
L 1043.901107 657.749611 
L 1044.809005 657.749611 
L 1045.111638 662.952938 
L 1046.019536 662.952938 
L 1046.322168 671.893135 
L 1047.230066 671.893135 
L 1047.532698 674.538314 
L 1048.440596 674.538314 
L 1048.743229 674.003076 
L 1049.651126 674.003076 
L 1049.953759 672.963081 
L 1050.861657 672.963081 
L 1051.164289 675.217269 
L 1052.072187 675.217269 
L 1052.37482 666.964592 
L 1053.282717 666.964592 
L 1053.58535 646.703477 
L 1054.493248 646.703477 
L 1054.79588 634.759949 
L 1055.703778 634.759949 
L 1056.006411 619.05307 
L 1056.914308 619.05307 
L 1057.216941 603.24446 
L 1058.124839 603.24446 
L 1058.427471 588.270813 
L 1059.335369 588.270813 
L 1059.638002 580.451098 
L 1060.545899 580.451098 
L 1060.848532 569.503506 
L 1061.75643 569.503506 
L 1062.059062 554.750505 
L 1062.96696 554.750505 
L 1063.269592 547.463906 
L 1064.17749 547.463906 
L 1064.480123 536.650454 
L 1065.388021 536.650454 
L 1065.690653 540.396252 
L 1066.598551 540.396252 
L 1066.901183 533.944959 
L 1067.809081 533.944959 
L 1068.111714 544.368477 
L 1069.019611 544.368477 
L 1069.322244 544.662368 
L 1070.230142 544.662368 
L 1070.532774 544.905661 
L 1071.440672 544.905661 
L 1071.743305 541.793529 
L 1073.861733 541.901542 
L 1074.164365 542.098761 
L 1075.072263 542.098761 
L 1075.374896 552.237024 
L 1076.282793 552.237024 
L 1076.585426 558.830769 
L 1077.493324 558.830769 
L 1077.795956 562.056482 
L 1078.703854 562.056482 
L 1079.006487 558.825466 
L 1079.914384 558.825466 
L 1080.217017 555.464197 
L 1081.124915 555.464197 
L 1081.427547 548.885476 
L 1082.335445 548.885476 
L 1082.638077 542.381887 
L 1084.756506 542.368836 
L 1085.059138 545.641799 
L 1085.967036 545.641799 
L 1086.269668 542.478958 
L 1087.177566 542.478958 
L 1087.480199 539.334818 
L 1088.388096 539.334818 
L 1088.993362 539.448982 
L 1089.598627 539.448982 
L 1089.901259 552.246026 
L 1090.809157 552.246026 
L 1091.11179 555.534693 
L 1092.019687 555.534693 
L 1092.32232 546.713703 
L 1093.230218 546.713703 
L 1093.53285 550.05232 
L 1094.440748 550.05232 
L 1094.743381 553.652738 
L 1095.651278 553.652738 
L 1095.953911 550.565863 
L 1096.861809 550.565863 
L 1097.164441 550.852275 
L 1098.072339 550.852275 
L 1098.374972 554.891895 
L 1099.282869 554.891895 
L 1099.585502 555.994348 
L 1101.70393 555.996452 
L 1102.006562 546.9379 
L 1102.91446 546.9379 
L 1103.217093 540.921991 
L 1104.124991 540.921991 
L 1104.427623 537.91703 
L 1105.335521 537.91703 
L 1105.638153 531.917272 
L 1106.546051 531.917272 
L 1106.848684 528.92246 
L 1107.756581 528.92246 
L 1108.059214 525.929593 
L 1108.967112 525.929593 
L 1109.269744 519.949573 
L 1110.177642 519.949573 
L 1110.480275 513.976984 
L 1111.388172 513.976984 
L 1111.690805 508.011621 
L 1112.598703 508.011621 
L 1112.901335 505.03161 
L 1113.809233 505.03161 
L 1114.111866 496.118424 
L 1115.019763 496.118424 
L 1115.322396 490.195511 
L 1116.230294 490.195511 
L 1116.532926 487.236599 
L 1118.651354 487.236599 
L 1118.953987 484.279363 
L 1119.861885 484.279363 
L 1120.164517 475.427231 
L 1121.072415 475.427231 
L 1121.375047 466.60736 
L 1122.282945 466.60736 
L 1122.585578 457.823198 
L 1123.493476 457.823198 
L 1123.796108 451.985281 
L 1124.704006 451.985281 
L 1125.006638 443.257291 
L 1125.914536 443.257291 
L 1126.217169 453.333126 
L 1127.125066 453.333126 
L 1127.427699 461.234217 
L 1128.335597 461.234217 
L 1128.638229 463.445496 
L 1129.546127 463.445496 
L 1129.84876 465.726426 
L 1130.756657 465.726426 
L 1131.05929 472.968014 
L 1133.177718 472.984939 
L 1133.480351 470.735179 
L 1134.388248 470.735179 
L 1134.690881 474.384648 
L 1135.598779 474.384648 
L 1135.901411 471.47313 
L 1136.809309 471.47313 
L 1137.111942 473.314918 
L 1138.019839 473.314918 
L 1138.322472 462.271583 
L 1139.23037 462.271583 
L 1139.533002 451.271266 
L 1140.4409 451.271266 
L 1140.743532 440.310478 
L 1141.65143 440.310478 
L 1141.954063 432.127304 
L 1142.86196 432.127304 
L 1143.164593 423.975593 
L 1144.072491 423.975593 
L 1144.375123 418.554241 
L 1145.283021 418.554241 
L 1145.585654 410.443769 
L 1146.493551 410.443769 
L 1146.796184 407.746187 
L 1147.704082 407.746187 
L 1148.006714 402.361004 
L 1148.914612 402.361004 
L 1149.217245 396.989062 
L 1150.125142 396.989062 
L 1150.427775 398.086474 
L 1151.335673 398.086474 
L 1151.638305 407.230763 
L 1153.756733 407.227679 
L 1154.059366 405.690249 
L 1156.177794 405.690249 
L 1156.480427 401.493334 
L 1159.809385 401.493334 
L 1160.112017 404.157127 
L 1163.440976 404.157127 
L 1163.743608 401.496321 
L 1165.862036 401.496321 
L 1166.164669 402.656003 
L 1167.072567 402.656003 
L 1167.375199 406.480455 
L 1168.283097 406.480455 
L 1168.58573 405.025644 
L 1169.493627 405.025644 
L 1169.79626 411.506204 
L 1170.704158 411.506204 
L 1171.00679 417.778339 
L 1171.914688 417.778339 
L 1172.217321 421.634444 
L 1173.125218 421.634444 
L 1173.427851 425.490582 
L 1174.335749 425.490582 
L 1174.638381 422.868099 
L 1175.546279 422.868099 
L 1175.848911 417.628228 
L 1176.756809 417.628228 
L 1177.059442 412.399409 
L 1177.96734 412.399409 
L 1178.269972 404.570428 
L 1179.17787 404.570428 
L 1179.480502 401.965197 
L 1180.3884 401.965197 
L 1180.691033 399.362679 
L 1181.59893 399.362679 
L 1181.901563 396.762773 
L 1182.809461 396.762773 
L 1183.112093 394.16545 
L 1185.230521 394.16545 
L 1185.533154 388.977058 
L 1186.441052 388.977058 
L 1186.743684 386.385974 
L 1187.651582 386.385974 
L 1187.954215 388.975922 
L 1188.862112 388.975922 
L 1189.164745 390.298134 
L 1190.072643 390.298134 
L 1190.375275 389.041622 
L 1191.283173 389.041622 
L 1191.585806 386.460447 
L 1192.493703 386.460447 
L 1192.796336 389.040512 
L 1193.704234 389.040512 
L 1194.006866 386.462913 
L 1194.914764 386.462913 
L 1195.217396 383.887921 
L 1196.125294 383.887921 
L 1196.427927 376.177748 
L 1197.335825 376.177748 
L 1197.638457 377.54632 
L 1198.546355 377.54632 
L 1198.848987 369.867346 
L 1199.756885 369.867346 
L 1200.059518 359.657863 
L 1200.967415 359.657863 
L 1201.270048 357.111307 
L 1202.177946 357.111307 
L 1202.480578 352.025355 
L 1203.388476 352.025355 
L 1203.691109 344.407295 
L 1204.599006 344.407295 
L 1204.901639 339.339224 
L 1205.809537 339.339224 
L 1206.112169 334.277612 
L 1207.020067 334.277612 
L 1207.3227 324.180204 
L 1208.230597 324.180204 
L 1208.53323 316.62829 
L 1209.441128 316.62829 
L 1209.74376 311.600787 
L 1210.651658 311.600787 
L 1210.954291 308.053639 
L 1211.862188 308.053639 
L 1212.164821 307.025644 
L 1213.072719 307.025644 
L 1213.375351 311.016834 
L 1214.283249 311.016834 
L 1214.585881 309.000806 
L 1215.493779 309.000806 
L 1215.796412 305.504731 
L 1216.70431 305.504731 
L 1217.006942 309.504355 
L 1219.12537 309.504355 
L 1219.428003 308.524209 
L 1220.3359 308.524209 
L 1220.638533 307.54933 
L 1221.546431 307.54933 
L 1221.849063 305.059266 
L 1222.756961 305.059266 
L 1223.059594 302.571146 
L 1226.388552 302.571146 
L 1226.691185 305.057148 
L 1227.599082 305.057148 
L 1227.901715 304.106049 
L 1228.809613 304.106049 
L 1229.112245 303.161034 
L 1230.020143 303.161034 
L 1230.322776 300.680751 
L 1231.230673 300.680751 
L 1231.533306 298.202355 
L 1233.651734 298.202355 
L 1233.954366 300.678677 
L 1234.862264 300.678677 
L 1235.164897 295.730063 
L 1236.072795 295.730063 
L 1236.375427 293.257766 
L 1237.283325 293.257766 
L 1237.585957 288.316091 
L 1239.704385 288.316091 
L 1240.007018 285.847755 
L 1240.914916 285.847755 
L 1241.217548 280.915742 
L 1242.125446 280.915742 
L 1242.428079 278.452056 
L 1243.335976 278.452056 
L 1243.638609 275.990346 
L 1244.546507 275.990346 
L 1244.849139 273.530458 
L 1245.757037 273.530458 
L 1246.05967 268.616247 
L 1246.967567 268.616247 
L 1247.2702 270.201919 
L 1248.178098 270.201919 
L 1248.48073 270.94319 
L 1249.388628 270.94319 
L 1249.691261 270.093099 
L 1250.599158 270.093099 
L 1250.901791 267.646025 
L 1251.809689 267.646025 
L 1252.112321 274.140551 
L 1253.020219 274.140551 
L 1253.322851 276.581994 
L 1254.230749 276.581994 
L 1254.533382 278.203931 
L 1255.44128 278.203931 
L 1255.743912 276.578679 
L 1256.65181 276.578679 
L 1256.954442 283.077351 
L 1257.86234 283.077351 
L 1258.164973 282.27478 
L 1260.283401 282.27478 
L 1260.586033 279.04896 
L 1265.125522 279.04896 
L 1265.428155 281.477303 
L 1267.546583 281.477303 
L 1267.849215 279.050615 
L 1268.757113 279.050615 
L 1269.059746 276.625568 
L 1269.967643 276.625568 
L 1270.270276 275.853364 
L 1271.178174 275.853364 
L 1271.480806 272.667995 
L 1272.388704 272.667995 
L 1272.691336 271.91406 
L 1273.599234 271.91406 
L 1273.901867 274.329621 
L 1274.809765 274.329621 
L 1275.112397 271.915655 
L 1276.020295 271.915655 
L 1276.322927 273.587532 
L 1277.230825 273.587532 
L 1277.533458 268.033637 
L 1278.441355 268.033637 
L 1278.743988 265.62528 
L 1279.651886 265.62528 
L 1279.954518 263.218468 
L 1280.862416 263.218468 
L 1281.165049 260.812528 
L 1282.072946 260.812528 
L 1282.375579 258.408126 
L 1283.283477 258.408126 
L 1283.586109 256.005457 
L 1285.704537 256.005457 
L 1286.00717 260.10238 
L 1286.915068 260.10238 
L 1287.2177 255.303344 
L 1289.336128 255.303344 
L 1289.638761 257.70125 
L 1290.546659 257.70125 
L 1290.849291 252.91032 
L 1291.757189 252.91032 
L 1292.059821 250.517274 
L 1292.967719 250.517274 
L 1293.270352 248.125885 
L 1294.17825 248.125885 
L 1294.480882 245.735981 
L 1295.38878 245.735981 
L 1295.691412 247.461172 
L 1296.59931 247.461172 
L 1296.901943 249.187654 
L 1297.80984 249.187654 
L 1298.112473 246.80171 
L 1301.441431 246.80171 
L 1301.744064 249.186196 
L 1302.651962 249.186196 
L 1302.954594 248.537743 
L 1303.862492 248.537743 
L 1304.165125 252.658848 
L 1305.073022 252.658848 
L 1305.375655 255.036583 
L 1306.283553 255.036583 
L 1306.586185 259.163998 
L 1307.494083 259.163998 
L 1307.796716 254.415912 
L 1308.704613 254.415912 
L 1309.007246 249.060322 
L 1309.915144 249.060322 
L 1310.217776 244.326609 
L 1311.125674 244.326609 
L 1311.428306 241.961878 
L 1312.336204 241.961878 
L 1312.638837 239.598489 
L 1313.546734 239.598489 
L 1313.849367 239.013524 
L 1314.757265 239.013524 
L 1315.059897 233.717126 
L 1315.967795 233.717126 
L 1316.270428 236.074178 
L 1317.178325 236.074178 
L 1317.480958 231.364196 
L 1319.599386 231.364196 
L 1319.902019 230.802348 
L 1322.020447 230.802348 
L 1322.323079 228.450905 
L 1324.441507 228.450905 
L 1324.74414 227.89606 
L 1326.862568 227.89606 
L 1327.165201 225.547394 
L 1328.073098 225.547394 
L 1328.375731 223.2 
L 1329.283629 223.2 
L 1329.586261 225.546582 
L 1330.494159 225.546582 
L 1330.796791 223.201257 
L 1330.796791 223.201257 
" clip-path="url(#p65ae550bb9)" style="fill: none; stroke: #0000ff; stroke-width: 1.5; stroke-linecap: square"/>
   </g>
   <g id="patch_9">
    <path d="M 860.823529 1281.6 
L 860.823529 172.8 
" style="fill: none; stroke: #000000; stroke-width: 0.8; stroke-linejoin: miter; stroke-linecap: square"/>
   </g>
   <g id="patch_10">
    <path d="M 1353.176471 1281.6 
L 1353.176471 172.8 
" style="fill: none; stroke: #000000; stroke-width: 0.8; stroke-linejoin: miter; stroke-linecap: square"/>
   </g>
   <g id="patch_11">
    <path d="M 860.823529 1281.6 
L 1353.176471 1281.6 
" style="fill: none; stroke: #000000; stroke-width: 0.8; stroke-linejoin: miter; stroke-linecap: square"/>
   </g>
   <g id="patch_12">
    <path d="M 860.823529 172.8 
L 1353.176471 172.8 
" style="fill: none; stroke: #000000; stroke-width: 0.8; stroke-linejoin: miter; stroke-linecap: square"/>
   </g>
   <g id="legend_2">
    <g id="patch_13">
     <path d="M 1262.134283 195.478125 
L 1346.176471 195.478125 
Q 1348.176471 195.478125 1348.176471 193.478125 
L 1348.176471 179.8 
Q 1348.176471 177.8 1346.176471 177.8 
L 1262.134283 177.8 
Q 1260.134283 177.8 1260.134283 179.8 
L 1260.134283 193.478125 
Q 1260.134283 195.478125 1262.134283 195.478125 
z
" style="fill: #ffffff; opacity: 0.8; stroke: #cccccc; stroke-linejoin: miter"/>
    </g>
    <g id="line2d_31">
     <path d="M 1264.134283 185.898437 
L 1274.134283 185.898437 
L 1284.134283 185.898437 
" style="fill: none; stroke: #0000ff; stroke-width: 1.5; stroke-linecap: square"/>
    </g>
    <g id="text_29">
     <!-- O2 reward -->
     <g transform="translate(1292.134283 189.398437) scale(0.1 -0.1)">
      <use xlink:href="#DejaVuSans-4f"/>
      <use xlink:href="#DejaVuSans-32" x="78.710938"/>
      <use xlink:href="#DejaVuSans-20" x="142.333984"/>
      <use xlink:href="#DejaVuSans-72" x="174.121094"/>
      <use xlink:href="#DejaVuSans-65" x="212.984375"/>
      <use xlink:href="#DejaVuSans-77" x="274.507812"/>
      <use xlink:href="#DejaVuSans-61" x="356.294922"/>
      <use xlink:href="#DejaVuSans-72" x="417.574219"/>
      <use xlink:href="#DejaVuSans-64" x="456.9375"/>
     </g>
    </g>
   </g>
  </g>
  <g id="axes_3">
   <g id="patch_14">
    <path d="M 1451.647059 1281.6 
L 1944 1281.6 
L 1944 172.8 
L 1451.647059 172.8 
z
" style="fill: #ffffff"/>
   </g>
   <g id="matplotlib.axis_5">
    <g id="xtick_17">
     <g id="line2d_32">
      <g>
       <use xlink:href="#md9c83a899a" x="1473.724105" y="1281.6" style="stroke: #000000; stroke-width: 0.8"/>
      </g>
     </g>
     <g id="text_30">
      <!-- 0 -->
      <g transform="translate(1470.542855 1296.198437) scale(0.1 -0.1)">
       <use xlink:href="#DejaVuSans-30"/>
      </g>
     </g>
    </g>
    <g id="xtick_18">
     <g id="line2d_33">
      <g>
       <use xlink:href="#md9c83a899a" x="1534.250621" y="1281.6" style="stroke: #000000; stroke-width: 0.8"/>
      </g>
     </g>
     <g id="text_31">
      <!-- 200 -->
      <g transform="translate(1524.706871 1296.198437) scale(0.1 -0.1)">
       <use xlink:href="#DejaVuSans-32"/>
       <use xlink:href="#DejaVuSans-30" x="63.623047"/>
       <use xlink:href="#DejaVuSans-30" x="127.246094"/>
      </g>
     </g>
    </g>
    <g id="xtick_19">
     <g id="line2d_34">
      <g>
       <use xlink:href="#md9c83a899a" x="1594.777137" y="1281.6" style="stroke: #000000; stroke-width: 0.8"/>
      </g>
     </g>
     <g id="text_32">
      <!-- 400 -->
      <g transform="translate(1585.233387 1296.198437) scale(0.1 -0.1)">
       <use xlink:href="#DejaVuSans-34"/>
       <use xlink:href="#DejaVuSans-30" x="63.623047"/>
       <use xlink:href="#DejaVuSans-30" x="127.246094"/>
      </g>
     </g>
    </g>
    <g id="xtick_20">
     <g id="line2d_35">
      <g>
       <use xlink:href="#md9c83a899a" x="1655.303652" y="1281.6" style="stroke: #000000; stroke-width: 0.8"/>
      </g>
     </g>
     <g id="text_33">
      <!-- 600 -->
      <g transform="translate(1645.759902 1296.198437) scale(0.1 -0.1)">
       <use xlink:href="#DejaVuSans-36"/>
       <use xlink:href="#DejaVuSans-30" x="63.623047"/>
       <use xlink:href="#DejaVuSans-30" x="127.246094"/>
      </g>
     </g>
    </g>
    <g id="xtick_21">
     <g id="line2d_36">
      <g>
       <use xlink:href="#md9c83a899a" x="1715.830168" y="1281.6" style="stroke: #000000; stroke-width: 0.8"/>
      </g>
     </g>
     <g id="text_34">
      <!-- 800 -->
      <g transform="translate(1706.286418 1296.198437) scale(0.1 -0.1)">
       <use xlink:href="#DejaVuSans-38"/>
       <use xlink:href="#DejaVuSans-30" x="63.623047"/>
       <use xlink:href="#DejaVuSans-30" x="127.246094"/>
      </g>
     </g>
    </g>
    <g id="xtick_22">
     <g id="line2d_37">
      <g>
       <use xlink:href="#md9c83a899a" x="1776.356683" y="1281.6" style="stroke: #000000; stroke-width: 0.8"/>
      </g>
     </g>
     <g id="text_35">
      <!-- 1000 -->
      <g transform="translate(1763.631683 1296.198437) scale(0.1 -0.1)">
       <use xlink:href="#DejaVuSans-31"/>
       <use xlink:href="#DejaVuSans-30" x="63.623047"/>
       <use xlink:href="#DejaVuSans-30" x="127.246094"/>
       <use xlink:href="#DejaVuSans-30" x="190.869141"/>
      </g>
     </g>
    </g>
    <g id="xtick_23">
     <g id="line2d_38">
      <g>
       <use xlink:href="#md9c83a899a" x="1836.883199" y="1281.6" style="stroke: #000000; stroke-width: 0.8"/>
      </g>
     </g>
     <g id="text_36">
      <!-- 1200 -->
      <g transform="translate(1824.158199 1296.198437) scale(0.1 -0.1)">
       <use xlink:href="#DejaVuSans-31"/>
       <use xlink:href="#DejaVuSans-32" x="63.623047"/>
       <use xlink:href="#DejaVuSans-30" x="127.246094"/>
       <use xlink:href="#DejaVuSans-30" x="190.869141"/>
      </g>
     </g>
    </g>
    <g id="xtick_24">
     <g id="line2d_39">
      <g>
       <use xlink:href="#md9c83a899a" x="1897.409715" y="1281.6" style="stroke: #000000; stroke-width: 0.8"/>
      </g>
     </g>
     <g id="text_37">
      <!-- 1400 -->
      <g transform="translate(1884.684715 1296.198437) scale(0.1 -0.1)">
       <use xlink:href="#DejaVuSans-31"/>
       <use xlink:href="#DejaVuSans-34" x="63.623047"/>
       <use xlink:href="#DejaVuSans-30" x="127.246094"/>
       <use xlink:href="#DejaVuSans-30" x="190.869141"/>
      </g>
     </g>
    </g>
   </g>
   <g id="matplotlib.axis_6">
    <g id="ytick_12">
     <g id="line2d_40">
      <g>
       <use xlink:href="#ma0e0530876" x="1451.647059" y="1231.2" style="stroke: #000000; stroke-width: 0.8"/>
      </g>
     </g>
     <g id="text_38">
      <!-- 0 -->
      <g transform="translate(1438.284559 1234.999219) scale(0.1 -0.1)">
       <use xlink:href="#DejaVuSans-30"/>
      </g>
     </g>
    </g>
    <g id="ytick_13">
     <g id="line2d_41">
      <g>
       <use xlink:href="#ma0e0530876" x="1451.647059" y="988.084456" style="stroke: #000000; stroke-width: 0.8"/>
      </g>
     </g>
     <g id="text_39">
      <!-- 5 -->
      <g transform="translate(1438.284559 991.883674) scale(0.1 -0.1)">
       <use xlink:href="#DejaVuSans-35"/>
      </g>
     </g>
    </g>
    <g id="ytick_14">
     <g id="line2d_42">
      <g>
       <use xlink:href="#ma0e0530876" x="1451.647059" y="744.968911" style="stroke: #000000; stroke-width: 0.8"/>
      </g>
     </g>
     <g id="text_40">
      <!-- 10 -->
      <g transform="translate(1431.922059 748.76813) scale(0.1 -0.1)">
       <use xlink:href="#DejaVuSans-31"/>
       <use xlink:href="#DejaVuSans-30" x="63.623047"/>
      </g>
     </g>
    </g>
    <g id="ytick_15">
     <g id="line2d_43">
      <g>
       <use xlink:href="#ma0e0530876" x="1451.647059" y="501.853367" style="stroke: #000000; stroke-width: 0.8"/>
      </g>
     </g>
     <g id="text_41">
      <!-- 15 -->
      <g transform="translate(1431.922059 505.652586) scale(0.1 -0.1)">
       <use xlink:href="#DejaVuSans-31"/>
       <use xlink:href="#DejaVuSans-35" x="63.623047"/>
      </g>
     </g>
    </g>
    <g id="ytick_16">
     <g id="line2d_44">
      <g>
       <use xlink:href="#ma0e0530876" x="1451.647059" y="258.737823" style="stroke: #000000; stroke-width: 0.8"/>
      </g>
     </g>
     <g id="text_42">
      <!-- 20 -->
      <g transform="translate(1431.922059 262.537041) scale(0.1 -0.1)">
       <use xlink:href="#DejaVuSans-32"/>
       <use xlink:href="#DejaVuSans-30" x="63.623047"/>
      </g>
     </g>
    </g>
   </g>
   <g id="line2d_45">
    <path d="M 1474.026738 1231.2 
L 1486.737306 1231.2 
L 1487.039939 1212.236852 
L 1487.947837 1212.236852 
L 1488.250469 1197.083936 
L 1489.158367 1197.083936 
L 1489.460999 1184.194953 
L 1490.368897 1184.194953 
L 1490.67153 1165.093018 
L 1491.579427 1165.093018 
L 1491.88206 1158.669575 
L 1492.789958 1158.669575 
L 1493.09259 1133.662236 
L 1494.000488 1133.662236 
L 1494.303121 1140.927871 
L 1495.211018 1140.927871 
L 1495.513651 1126.696198 
L 1496.421549 1126.696198 
L 1496.724181 1112.664004 
L 1497.632079 1112.664004 
L 1497.934712 1103.145284 
L 1498.842609 1103.145284 
L 1499.145242 1087.024042 
L 1500.05314 1087.024042 
L 1500.355772 1071.891201 
L 1501.26367 1071.891201 
L 1501.566303 1062.513772 
L 1503.684731 1062.513772 
L 1503.987363 1058.38591 
L 1504.895261 1058.38591 
L 1505.197894 1049.346999 
L 1506.105791 1049.346999 
L 1506.408424 1044.313164 
L 1508.526852 1044.313164 
L 1508.829484 1040.555342 
L 1509.737382 1040.555342 
L 1510.040015 1032.322858 
L 1512.158443 1032.322858 
L 1512.461075 1028.874245 
L 1513.368973 1028.874245 
L 1513.671606 1014.336073 
L 1514.579503 1014.336073 
L 1514.882136 993.9362 
L 1515.790034 993.9362 
L 1516.092666 979.644804 
L 1517.000564 979.644804 
L 1517.303197 970.135044 
L 1518.211094 970.135044 
L 1518.513727 943.60773 
L 1519.421625 943.60773 
L 1519.724257 930.4098 
L 1520.632155 930.4098 
L 1520.934788 926.26659 
L 1521.842685 926.26659 
L 1522.145318 913.344642 
L 1523.053216 913.344642 
L 1523.355848 904.738565 
L 1524.263746 904.738565 
L 1524.566378 897.394804 
L 1525.474276 897.394804 
L 1525.776909 884.556967 
L 1526.684807 884.556967 
L 1526.987439 879.325712 
L 1527.895337 879.325712 
L 1528.197969 867.630276 
L 1530.316397 867.546504 
L 1530.61903 870.854215 
L 1531.526928 870.854215 
L 1531.82956 872.903259 
L 1532.737458 872.903259 
L 1533.040091 868.104513 
L 1533.947988 868.104513 
L 1534.250621 870.118131 
L 1535.158519 870.118131 
L 1535.461151 867.298718 
L 1536.369049 867.298718 
L 1536.671682 870.464687 
L 1537.579579 870.464687 
L 1537.882212 867.495686 
L 1540.00064 867.495686 
L 1540.303273 864.470044 
L 1541.21117 864.470044 
L 1541.513803 855.538558 
L 1542.421701 855.538558 
L 1542.724333 847.792942 
L 1543.632231 847.792942 
L 1543.934863 852.518462 
L 1544.842761 852.518462 
L 1545.145394 854.410615 
L 1548.474352 854.410615 
L 1548.776985 845.597334 
L 1549.684882 845.597334 
L 1549.987515 829.016198 
L 1550.895413 829.016198 
L 1551.198045 820.975445 
L 1552.105943 820.975445 
L 1552.408576 815.294914 
L 1553.316473 815.294914 
L 1553.619106 811.571001 
L 1554.527004 811.571001 
L 1554.829636 802.677841 
L 1555.737534 802.677841 
L 1556.040167 796.711269 
L 1556.948064 796.711269 
L 1557.250697 792.080629 
L 1558.158595 792.080629 
L 1558.461227 782.601641 
L 1559.369125 782.601641 
L 1559.671758 776.988241 
L 1560.579655 776.988241 
L 1560.882288 769.243799 
L 1561.790186 769.243799 
L 1562.092818 767.116955 
L 1563.000716 767.116955 
L 1563.303348 758.381316 
L 1564.211246 758.381316 
L 1564.513879 751.143095 
L 1565.421777 751.143095 
L 1565.724409 744.032549 
L 1566.632307 744.032549 
L 1566.934939 737.205016 
L 1569.053367 737.205016 
L 1569.356 732.458475 
L 1570.263898 732.458475 
L 1570.56653 728.337271 
L 1571.474428 728.337271 
L 1571.777061 730.269539 
L 1572.684958 730.269539 
L 1572.987591 726.619604 
L 1573.895489 726.619604 
L 1574.198121 720.277202 
L 1575.106019 720.277202 
L 1575.408652 715.726271 
L 1576.316549 715.726271 
L 1576.619182 711.137383 
L 1577.52708 711.137383 
L 1577.829712 705.06398 
L 1578.73761 705.06398 
L 1579.040243 692.128648 
L 1579.94814 692.128648 
L 1580.250773 690.681536 
L 1581.158671 690.681536 
L 1581.461303 688.657436 
L 1582.369201 688.657436 
L 1582.671833 680.713208 
L 1583.579731 680.713208 
L 1583.882364 675.030933 
L 1584.790262 675.030933 
L 1585.092894 671.114549 
L 1586.000792 671.114549 
L 1586.303424 664.078756 
L 1587.211322 664.078756 
L 1587.513955 656.061686 
L 1588.421852 656.061686 
L 1588.724485 651.798134 
L 1589.632383 651.798134 
L 1589.935015 651.015399 
L 1590.842913 651.015399 
L 1591.145546 648.744362 
L 1592.053443 648.744362 
L 1592.356076 645.693037 
L 1593.263974 645.693037 
L 1593.566606 641.225798 
L 1594.474504 641.225798 
L 1594.777137 639.766916 
L 1595.685034 639.766916 
L 1595.987667 633.471643 
L 1596.895565 633.471643 
L 1597.198197 631.317943 
L 1598.106095 631.317943 
L 1598.408728 628.04882 
L 1599.316625 628.04882 
L 1599.619258 624.796528 
L 1600.527156 624.796528 
L 1600.829788 621.203552 
L 1602.948216 621.203552 
L 1603.250849 619.071843 
L 1604.158747 619.071843 
L 1604.461379 618.005347 
L 1605.369277 618.005347 
L 1605.671909 613.417349 
L 1607.790337 613.417349 
L 1608.09297 614.474249 
L 1609.000868 614.474249 
L 1609.3035 614.830924 
L 1610.211398 614.830924 
L 1610.514031 612.796024 
L 1611.421928 612.796024 
L 1611.724561 606.249071 
L 1612.632459 606.249071 
L 1612.935091 603.613756 
L 1613.842989 603.613756 
L 1614.145622 604.222711 
L 1615.053519 604.222711 
L 1615.356152 597.809427 
L 1616.26405 597.809427 
L 1616.566682 592.579662 
L 1617.47458 592.579662 
L 1617.777213 591.730842 
L 1618.68511 591.730842 
L 1618.987743 589.285186 
L 1619.895641 589.285186 
L 1620.198273 585.810841 
L 1621.106171 585.810841 
L 1621.408803 585.275635 
L 1622.316701 585.275635 
L 1622.619334 581.618702 
L 1623.527232 581.618702 
L 1623.829864 578.764293 
L 1624.737762 578.764293 
L 1625.040394 574.080251 
L 1625.948292 574.080251 
L 1626.250925 571.308283 
L 1627.158822 571.308283 
L 1627.461455 567.609122 
L 1628.369353 567.609122 
L 1628.671985 564.21317 
L 1629.579883 564.21317 
L 1629.882516 561.548678 
L 1630.790413 561.548678 
L 1631.093046 561.097564 
L 1632.000944 561.097564 
L 1632.303576 557.793807 
L 1633.211474 557.793807 
L 1633.514107 553.215159 
L 1634.422004 553.215159 
L 1634.724637 549.214582 
L 1635.632535 549.214582 
L 1635.935167 543.698137 
L 1636.843065 543.698137 
L 1637.145698 538.710258 
L 1638.053595 538.710258 
L 1638.356228 526.954605 
L 1639.264126 526.954605 
L 1639.566758 518.656368 
L 1640.474656 518.656368 
L 1640.777288 512.517791 
L 1641.685186 512.517791 
L 1641.987819 508.672678 
L 1642.895717 508.672678 
L 1643.198349 503.205955 
L 1644.106247 503.205955 
L 1644.408879 499.282397 
L 1645.316777 499.282397 
L 1645.61941 490.173706 
L 1646.527307 490.173706 
L 1646.82994 485.137858 
L 1647.737838 485.137858 
L 1648.04047 480.04954 
L 1648.948368 480.04954 
L 1649.251001 475.975695 
L 1650.158898 475.975695 
L 1650.461531 470.998157 
L 1651.369429 470.998157 
L 1651.672061 466.274744 
L 1652.579959 466.274744 
L 1652.882592 461.045968 
L 1653.790489 461.045968 
L 1654.093122 455.632771 
L 1655.00102 455.632771 
L 1655.303652 453.927415 
L 1656.21155 453.927415 
L 1656.514183 450.783534 
L 1657.42208 450.783534 
L 1657.724713 449.660435 
L 1658.632611 449.660435 
L 1658.935243 448.309355 
L 1659.843141 448.309355 
L 1660.145773 446.08151 
L 1661.053671 446.08151 
L 1661.356304 442.550906 
L 1662.264201 442.550906 
L 1662.566834 441.22807 
L 1663.474732 441.22807 
L 1663.777364 439.046809 
L 1664.685262 439.046809 
L 1664.987895 437.101626 
L 1667.106323 437.101626 
L 1667.408955 436.887772 
L 1668.316853 436.887772 
L 1668.619486 435.374189 
L 1669.527383 435.374189 
L 1669.830016 434.721298 
L 1670.737914 434.721298 
L 1671.040546 433.229019 
L 1671.948444 433.229019 
L 1672.251077 432.169904 
L 1673.158974 432.169904 
L 1673.461607 429.759378 
L 1674.369505 429.759378 
L 1674.672137 425.752265 
L 1675.580035 425.752265 
L 1675.882668 424.904198 
L 1676.790565 424.904198 
L 1677.093198 420.670714 
L 1678.001096 420.670714 
L 1678.303728 417.973798 
L 1679.211626 417.973798 
L 1679.514258 416.297959 
L 1680.422156 416.297959 
L 1680.724789 413.456895 
L 1681.632686 413.456895 
L 1681.935319 409.472489 
L 1682.843217 409.472489 
L 1683.145849 406.360521 
L 1684.053747 406.360521 
L 1684.35638 401.638967 
L 1685.264277 401.638967 
L 1685.56691 399.701909 
L 1686.474808 399.701909 
L 1686.77744 397.622993 
L 1687.685338 397.622993 
L 1687.987971 392.920559 
L 1688.895868 392.920559 
L 1689.198501 391.97511 
L 1690.106399 391.97511 
L 1690.409031 390.896866 
L 1691.316929 390.896866 
L 1691.619562 388.208821 
L 1692.527459 388.208821 
L 1692.830092 385.944432 
L 1693.73799 385.944432 
L 1694.040622 382.585316 
L 1694.94852 382.585316 
L 1695.251152 379.061674 
L 1696.15905 379.061674 
L 1696.461683 377.508877 
L 1697.369581 377.508877 
L 1697.672213 374.908901 
L 1698.580111 374.908901 
L 1698.882743 373.561794 
L 1699.790641 373.561794 
L 1700.093274 374.052214 
L 1701.001171 374.052214 
L 1701.303804 370.219256 
L 1702.211702 370.219256 
L 1702.514334 370.05257 
L 1703.422232 370.05257 
L 1703.724865 368.177449 
L 1705.843293 368.177449 
L 1706.145925 366.033367 
L 1707.053823 366.033367 
L 1707.356456 364.284409 
L 1708.264353 364.284409 
L 1708.566986 362.068652 
L 1709.474884 362.068652 
L 1709.777516 361.306487 
L 1710.685414 361.306487 
L 1710.988047 358.368929 
L 1711.895944 358.368929 
L 1712.198577 356.250182 
L 1713.106475 356.250182 
L 1713.409107 354.058413 
L 1714.317005 354.058413 
L 1714.619637 349.2581 
L 1715.527535 349.2581 
L 1715.830168 345.946588 
L 1717.948596 345.943921 
L 1718.251228 344.99171 
L 1719.159126 344.99171 
L 1719.461759 346.438341 
L 1720.369656 346.438341 
L 1720.672289 343.482246 
L 1721.580187 343.482246 
L 1721.882819 345.43452 
L 1722.790717 345.43452 
L 1723.09335 343.096808 
L 1724.001247 343.096808 
L 1724.30388 342.97036 
L 1725.211778 342.97036 
L 1725.51441 343.603651 
L 1727.632838 343.542963 
L 1727.935471 344.064429 
L 1728.843369 344.064429 
L 1729.146001 341.170123 
L 1730.053899 341.170123 
L 1730.356532 339.302035 
L 1731.264429 339.302035 
L 1731.567062 338.558207 
L 1732.47496 338.558207 
L 1732.777592 337.367651 
L 1733.68549 337.367651 
L 1733.988122 336.261465 
L 1734.89602 336.261465 
L 1735.198653 333.427806 
L 1737.317081 333.427806 
L 1737.619713 332.314256 
L 1738.527611 332.314256 
L 1738.830244 330.548424 
L 1739.738141 330.548424 
L 1740.040774 329.825729 
L 1740.948672 329.825729 
L 1741.251304 329.042789 
L 1742.159202 329.042789 
L 1742.461835 327.307962 
L 1743.369732 327.307962 
L 1743.672365 326.252591 
L 1744.580263 326.252591 
L 1744.882895 325.519964 
L 1745.790793 325.519964 
L 1746.093426 324.8086 
L 1748.211854 324.758825 
L 1748.514486 323.375737 
L 1750.632914 323.326869 
L 1750.935547 321.583104 
L 1751.843445 321.583104 
L 1752.146077 320.546542 
L 1753.053975 320.546542 
L 1753.356607 319.496852 
L 1754.264505 319.496852 
L 1754.567138 319.078454 
L 1755.475036 319.078454 
L 1755.777668 317.704349 
L 1756.685566 317.704349 
L 1756.988198 316.68135 
L 1757.896096 316.68135 
L 1758.198729 317.367885 
L 1759.106626 317.367885 
L 1759.409259 316.393829 
L 1760.317157 316.393829 
L 1760.619789 314.340691 
L 1761.527687 314.340691 
L 1761.83032 313.364205 
L 1762.738217 313.364205 
L 1763.04085 314.042778 
L 1763.948748 314.042778 
L 1764.25138 312.386424 
L 1765.159278 312.386424 
L 1765.461911 311.699204 
L 1767.580339 311.685798 
L 1767.882971 311.005029 
L 1770.001399 310.99109 
L 1770.304032 309.02082 
L 1772.42246 309.010916 
L 1772.725092 307.707422 
L 1773.63299 307.707422 
L 1773.935623 307.049172 
L 1774.843521 307.049172 
L 1775.146153 306.393164 
L 1776.054051 306.393164 
L 1776.356683 305.737699 
L 1777.264581 305.737699 
L 1777.567214 303.461285 
L 1779.685642 303.461285 
L 1779.988274 302.486421 
L 1780.896172 302.486421 
L 1781.198805 301.839795 
L 1783.317233 301.837723 
L 1783.619865 300.226675 
L 1784.527763 300.226675 
L 1784.830396 299.583958 
L 1785.738293 299.583958 
L 1786.040926 298.942613 
L 1786.948824 298.942613 
L 1787.251456 297.662547 
L 1788.159354 297.662547 
L 1788.461987 295.741014 
L 1789.369884 295.741014 
L 1789.672517 294.790992 
L 1790.580415 294.790992 
L 1790.883047 293.511373 
L 1791.790945 293.511373 
L 1792.093577 291.933187 
L 1793.001475 291.933187 
L 1793.304108 290.369644 
L 1794.212006 290.369644 
L 1794.514638 290.047077 
L 1795.422536 290.047077 
L 1795.725168 290.706213 
L 1796.633066 290.706213 
L 1796.935699 289.115808 
L 1799.054127 289.146704 
L 1799.356759 287.565266 
L 1800.264657 287.565266 
L 1800.56729 286.662698 
L 1802.685718 286.662698 
L 1802.98835 284.460718 
L 1803.896248 284.460718 
L 1804.198881 283.512745 
L 1805.106778 283.512745 
L 1805.409411 281.95422 
L 1806.317309 281.95422 
L 1806.619941 281.010146 
L 1807.527839 281.010146 
L 1807.830472 280.080327 
L 1808.738369 280.080327 
L 1809.041002 277.299011 
L 1809.9489 277.299011 
L 1810.251532 275.742399 
L 1811.15943 275.742399 
L 1811.462062 274.805256 
L 1812.36996 274.805256 
L 1812.672593 273.884188 
L 1813.580491 273.884188 
L 1813.883123 273.255825 
L 1814.791021 273.255825 
L 1815.093653 272.612036 
L 1816.001551 272.612036 
L 1816.304184 271.071041 
L 1818.422612 271.054338 
L 1818.725244 270.141582 
L 1822.054203 270.124651 
L 1822.356835 269.194339 
L 1823.264733 269.194339 
L 1823.567366 268.282266 
L 1824.475263 268.282266 
L 1824.777896 266.424866 
L 1825.685794 266.424866 
L 1825.988426 265.801506 
L 1826.896324 265.801506 
L 1827.198957 263.349261 
L 1828.106854 263.349261 
L 1828.409487 262.147473 
L 1829.317385 262.147473 
L 1829.620017 260.331821 
L 1830.527915 260.331821 
L 1830.830547 258.820695 
L 1832.948975 258.820695 
L 1833.251608 258.20399 
L 1834.159506 258.20399 
L 1834.462138 257.31219 
L 1835.370036 257.31219 
L 1835.672669 256.718776 
L 1836.580566 256.718776 
L 1836.883199 254.919229 
L 1839.001627 254.919229 
L 1839.30426 254.520123 
L 1840.212157 254.520123 
L 1840.51479 253.016953 
L 1841.422688 253.016953 
L 1841.72532 253.607313 
L 1842.633218 253.607313 
L 1842.935851 252.697077 
L 1845.054279 252.800572 
L 1845.356911 251.916316 
L 1846.264809 251.916316 
L 1846.567442 251.435585 
L 1848.68587 251.435585 
L 1848.988502 252.02299 
L 1852.31746 251.995542 
L 1852.620093 251.381721 
L 1854.738521 251.381721 
L 1855.041154 250.768926 
L 1855.949051 250.768926 
L 1856.251684 249.890905 
L 1857.159582 249.890905 
L 1857.462214 249.278918 
L 1858.370112 249.278918 
L 1858.672745 247.764423 
L 1859.580642 247.764423 
L 1859.883275 245.991371 
L 1860.791173 245.991371 
L 1861.093805 245.120655 
L 1862.001703 245.120655 
L 1862.304336 244.250564 
L 1863.212233 244.250564 
L 1863.514866 242.601912 
L 1864.422764 242.601912 
L 1864.725396 242.404868 
L 1865.633294 242.404868 
L 1865.935927 240.185765 
L 1866.843824 240.185765 
L 1867.146457 238.584314 
L 1868.054355 238.584314 
L 1868.356987 238.142994 
L 1869.264885 238.142994 
L 1869.567517 238.718886 
L 1870.475415 238.718886 
L 1870.778048 237.13035 
L 1871.685945 237.13035 
L 1871.988578 236.231273 
L 1872.896476 236.231273 
L 1873.199108 235.656281 
L 1874.107006 235.656281 
L 1874.409639 235.799023 
L 1875.317536 235.799023 
L 1875.620169 235.224031 
L 1876.528067 235.224031 
L 1876.830699 234.795336 
L 1877.738597 234.795336 
L 1878.04123 234.220343 
L 1878.949127 234.220343 
L 1879.25176 234.368403 
L 1880.159658 234.368403 
L 1880.46229 233.370388 
L 1882.580718 233.370388 
L 1882.883351 232.948224 
L 1885.001779 232.948224 
L 1885.304411 232.374519 
L 1887.42284 232.374519 
L 1887.725472 231.801678 
L 1888.63337 231.801678 
L 1888.936002 231.229695 
L 1889.8439 231.229695 
L 1890.146533 230.658563 
L 1892.264961 230.658563 
L 1892.567593 228.948075 
L 1893.475491 228.948075 
L 1893.778124 228.379026 
L 1894.686021 228.379026 
L 1894.988654 226.635162 
L 1895.896552 226.635162 
L 1896.199184 224.894966 
L 1897.107082 224.894966 
L 1897.409715 223.764989 
L 1899.528143 223.764989 
L 1899.830775 223.2 
L 1901.949203 223.2 
L 1902.251836 224.492331 
L 1903.159734 224.492331 
L 1903.462366 224.658655 
L 1904.370264 224.658655 
L 1904.672896 225.219724 
L 1905.580794 225.219724 
L 1905.883427 225.780023 
L 1906.791325 225.780023 
L 1907.093957 226.679942 
L 1908.001855 226.679942 
L 1908.304487 226.12116 
L 1909.212385 226.12116 
L 1909.515018 225.17754 
L 1910.422915 225.17754 
L 1910.725548 225.734832 
L 1911.633446 225.734832 
L 1911.936078 224.620986 
L 1912.843976 224.620986 
L 1913.146609 225.17681 
L 1914.054506 225.17681 
L 1914.357139 225.725636 
L 1915.265037 225.725636 
L 1915.567669 226.279662 
L 1917.686097 226.279662 
L 1917.98873 225.174279 
L 1918.896628 225.174279 
L 1919.19926 225.725644 
L 1921.317688 225.725644 
L 1921.620321 225.202218 
L 1921.620321 225.202218 
" clip-path="url(#pffe596b4b0)" style="fill: none; stroke: #0000ff; stroke-width: 1.5; stroke-linecap: square"/>
   </g>
   <g id="patch_15">
    <path d="M 1451.647059 1281.6 
L 1451.647059 172.8 
" style="fill: none; stroke: #000000; stroke-width: 0.8; stroke-linejoin: miter; stroke-linecap: square"/>
   </g>
   <g id="patch_16">
    <path d="M 1944 1281.6 
L 1944 172.8 
" style="fill: none; stroke: #000000; stroke-width: 0.8; stroke-linejoin: miter; stroke-linecap: square"/>
   </g>
   <g id="patch_17">
    <path d="M 1451.647059 1281.6 
L 1944 1281.6 
" style="fill: none; stroke: #000000; stroke-width: 0.8; stroke-linejoin: miter; stroke-linecap: square"/>
   </g>
   <g id="patch_18">
    <path d="M 1451.647059 172.8 
L 1944 172.8 
" style="fill: none; stroke: #000000; stroke-width: 0.8; stroke-linejoin: miter; stroke-linecap: square"/>
   </g>
   <g id="legend_3">
    <g id="patch_19">
     <path d="M 1852.957813 195.478125 
L 1937 195.478125 
Q 1939 195.478125 1939 193.478125 
L 1939 179.8 
Q 1939 177.8 1937 177.8 
L 1852.957813 177.8 
Q 1850.957813 177.8 1850.957813 179.8 
L 1850.957813 193.478125 
Q 1850.957813 195.478125 1852.957813 195.478125 
z
" style="fill: #ffffff; opacity: 0.8; stroke: #cccccc; stroke-linejoin: miter"/>
    </g>
    <g id="line2d_46">
     <path d="M 1854.957813 185.898437 
L 1864.957813 185.898437 
L 1874.957813 185.898437 
" style="fill: none; stroke: #0000ff; stroke-width: 1.5; stroke-linecap: square"/>
    </g>
    <g id="text_43">
     <!-- O3 reward -->
     <g transform="translate(1882.957813 189.398437) scale(0.1 -0.1)">
      <defs>
       <path id="DejaVuSans-33" d="M 2597 2516 
Q 3050 2419 3304 2112 
Q 3559 1806 3559 1356 
Q 3559 666 3084 287 
Q 2609 -91 1734 -91 
Q 1441 -91 1130 -33 
Q 819 25 488 141 
L 488 750 
Q 750 597 1062 519 
Q 1375 441 1716 441 
Q 2309 441 2620 675 
Q 2931 909 2931 1356 
Q 2931 1769 2642 2001 
Q 2353 2234 1838 2234 
L 1294 2234 
L 1294 2753 
L 1863 2753 
Q 2328 2753 2575 2939 
Q 2822 3125 2822 3475 
Q 2822 3834 2567 4026 
Q 2313 4219 1838 4219 
Q 1578 4219 1281 4162 
Q 984 4106 628 3988 
L 628 4550 
Q 988 4650 1302 4700 
Q 1616 4750 1894 4750 
Q 2613 4750 3031 4423 
Q 3450 4097 3450 3541 
Q 3450 3153 3228 2886 
Q 3006 2619 2597 2516 
z
" transform="scale(0.015625)"/>
      </defs>
      <use xlink:href="#DejaVuSans-4f"/>
      <use xlink:href="#DejaVuSans-33" x="78.710938"/>
      <use xlink:href="#DejaVuSans-20" x="142.333984"/>
      <use xlink:href="#DejaVuSans-72" x="174.121094"/>
      <use xlink:href="#DejaVuSans-65" x="212.984375"/>
      <use xlink:href="#DejaVuSans-77" x="274.507812"/>
      <use xlink:href="#DejaVuSans-61" x="356.294922"/>
      <use xlink:href="#DejaVuSans-72" x="417.574219"/>
      <use xlink:href="#DejaVuSans-64" x="456.9375"/>
     </g>
    </g>
   </g>
  </g>
 </g>
 <defs>
  <clipPath id="p3f3d73fd81">
   <rect x="270" y="172.8" width="492.352941" height="1108.8"/>
  </clipPath>
  <clipPath id="p65ae550bb9">
   <rect x="860.823529" y="172.8" width="492.352941" height="1108.8"/>
  </clipPath>
  <clipPath id="pffe596b4b0">
   <rect x="1451.647059" y="172.8" width="492.352941" height="1108.8"/>
  </clipPath>
 </defs>
</svg>
