<?xml version="1.0" encoding="utf-8" standalone="no"?>
<!DOCTYPE svg PUBLIC "-//W3C//DTD SVG 1.1//EN"
  "http://www.w3.org/Graphics/SVG/1.1/DTD/svg11.dtd">
<svg xmlns:xlink="http://www.w3.org/1999/xlink" width="2160pt" height="1440pt" viewBox="0 0 2160 1440" xmlns="http://www.w3.org/2000/svg" version="1.1">
 <metadata>
  <rdf:RDF xmlns:dc="http://purl.org/dc/elements/1.1/" xmlns:cc="http://creativecommons.org/ns#" xmlns:rdf="http://www.w3.org/1999/02/22-rdf-syntax-ns#">
   <cc:Work>
    <dc:type rdf:resource="http://purl.org/dc/dcmitype/StillImage"/>
    <dc:date>2023-05-31T19:40:59.078232</dc:date>
    <dc:format>image/svg+xml</dc:format>
    <dc:creator>
     <cc:Agent>
      <dc:title>Matplotlib v3.7.1, https://matplotlib.org/</dc:title>
     </cc:Agent>
    </dc:creator>
   </cc:Work>
  </rdf:RDF>
 </metadata>
 <defs>
  <style type="text/css">*{stroke-linejoin: round; stroke-linecap: butt}</style>
 </defs>
 <g id="figure_1">
  <g id="patch_1">
   <path d="M 0 1440 
L 2160 1440 
L 2160 0 
L 0 0 
z
" style="fill: #ffffff"/>
  </g>
  <g id="axes_1">
   <g id="patch_2">
    <path d="M 270 1281.6 
L 762.352941 1281.6 
L 762.352941 172.8 
L 270 172.8 
z
" style="fill: #ffffff"/>
   </g>
   <g id="matplotlib.axis_1">
    <g id="xtick_1">
     <g id="line2d_1">
      <defs>
       <path id="mae3cac7005" d="M 0 0 
L 0 3.5 
" style="stroke: #000000; stroke-width: 0.8"/>
      </defs>
      <g>
       <use xlink:href="#mae3cac7005" x="292.010986" y="1281.6" style="stroke: #000000; stroke-width: 0.8"/>
      </g>
     </g>
     <g id="text_1">
      <!-- 0 -->
      <g transform="translate(288.829736 1296.198437) scale(0.1 -0.1)">
       <defs>
        <path id="DejaVuSans-30" d="M 2034 4250 
Q 1547 4250 1301 3770 
Q 1056 3291 1056 2328 
Q 1056 1369 1301 889 
Q 1547 409 2034 409 
Q 2525 409 2770 889 
Q 3016 1369 3016 2328 
Q 3016 3291 2770 3770 
Q 2525 4250 2034 4250 
z
M 2034 4750 
Q 2819 4750 3233 4129 
Q 3647 3509 3647 2328 
Q 3647 1150 3233 529 
Q 2819 -91 2034 -91 
Q 1250 -91 836 529 
Q 422 1150 422 2328 
Q 422 3509 836 4129 
Q 1250 4750 2034 4750 
z
" transform="scale(0.015625)"/>
       </defs>
       <use xlink:href="#DejaVuSans-30"/>
      </g>
     </g>
    </g>
    <g id="xtick_2">
     <g id="line2d_2">
      <g>
       <use xlink:href="#mae3cac7005" x="365.749632" y="1281.6" style="stroke: #000000; stroke-width: 0.8"/>
      </g>
     </g>
     <g id="text_2">
      <!-- 200 -->
      <g transform="translate(356.205882 1296.198437) scale(0.1 -0.1)">
       <defs>
        <path id="DejaVuSans-32" d="M 1228 531 
L 3431 531 
L 3431 0 
L 469 0 
L 469 531 
Q 828 903 1448 1529 
Q 2069 2156 2228 2338 
Q 2531 2678 2651 2914 
Q 2772 3150 2772 3378 
Q 2772 3750 2511 3984 
Q 2250 4219 1831 4219 
Q 1534 4219 1204 4116 
Q 875 4013 500 3803 
L 500 4441 
Q 881 4594 1212 4672 
Q 1544 4750 1819 4750 
Q 2544 4750 2975 4387 
Q 3406 4025 3406 3419 
Q 3406 3131 3298 2873 
Q 3191 2616 2906 2266 
Q 2828 2175 2409 1742 
Q 1991 1309 1228 531 
z
" transform="scale(0.015625)"/>
       </defs>
       <use xlink:href="#DejaVuSans-32"/>
       <use xlink:href="#DejaVuSans-30" x="63.623047"/>
       <use xlink:href="#DejaVuSans-30" x="127.246094"/>
      </g>
     </g>
    </g>
    <g id="xtick_3">
     <g id="line2d_3">
      <g>
       <use xlink:href="#mae3cac7005" x="439.488278" y="1281.6" style="stroke: #000000; stroke-width: 0.8"/>
      </g>
     </g>
     <g id="text_3">
      <!-- 400 -->
      <g transform="translate(429.944528 1296.198437) scale(0.1 -0.1)">
       <defs>
        <path id="DejaVuSans-34" d="M 2419 4116 
L 825 1625 
L 2419 1625 
L 2419 4116 
z
M 2253 4666 
L 3047 4666 
L 3047 1625 
L 3713 1625 
L 3713 1100 
L 3047 1100 
L 3047 0 
L 2419 0 
L 2419 1100 
L 313 1100 
L 313 1709 
L 2253 4666 
z
" transform="scale(0.015625)"/>
       </defs>
       <use xlink:href="#DejaVuSans-34"/>
       <use xlink:href="#DejaVuSans-30" x="63.623047"/>
       <use xlink:href="#DejaVuSans-30" x="127.246094"/>
      </g>
     </g>
    </g>
    <g id="xtick_4">
     <g id="line2d_4">
      <g>
       <use xlink:href="#mae3cac7005" x="513.226925" y="1281.6" style="stroke: #000000; stroke-width: 0.8"/>
      </g>
     </g>
     <g id="text_4">
      <!-- 600 -->
      <g transform="translate(503.683175 1296.198437) scale(0.1 -0.1)">
       <defs>
        <path id="DejaVuSans-36" d="M 2113 2584 
Q 1688 2584 1439 2293 
Q 1191 2003 1191 1497 
Q 1191 994 1439 701 
Q 1688 409 2113 409 
Q 2538 409 2786 701 
Q 3034 994 3034 1497 
Q 3034 2003 2786 2293 
Q 2538 2584 2113 2584 
z
M 3366 4563 
L 3366 3988 
Q 3128 4100 2886 4159 
Q 2644 4219 2406 4219 
Q 1781 4219 1451 3797 
Q 1122 3375 1075 2522 
Q 1259 2794 1537 2939 
Q 1816 3084 2150 3084 
Q 2853 3084 3261 2657 
Q 3669 2231 3669 1497 
Q 3669 778 3244 343 
Q 2819 -91 2113 -91 
Q 1303 -91 875 529 
Q 447 1150 447 2328 
Q 447 3434 972 4092 
Q 1497 4750 2381 4750 
Q 2619 4750 2861 4703 
Q 3103 4656 3366 4563 
z
" transform="scale(0.015625)"/>
       </defs>
       <use xlink:href="#DejaVuSans-36"/>
       <use xlink:href="#DejaVuSans-30" x="63.623047"/>
       <use xlink:href="#DejaVuSans-30" x="127.246094"/>
      </g>
     </g>
    </g>
    <g id="xtick_5">
     <g id="line2d_5">
      <g>
       <use xlink:href="#mae3cac7005" x="586.965571" y="1281.6" style="stroke: #000000; stroke-width: 0.8"/>
      </g>
     </g>
     <g id="text_5">
      <!-- 800 -->
      <g transform="translate(577.421821 1296.198437) scale(0.1 -0.1)">
       <defs>
        <path id="DejaVuSans-38" d="M 2034 2216 
Q 1584 2216 1326 1975 
Q 1069 1734 1069 1313 
Q 1069 891 1326 650 
Q 1584 409 2034 409 
Q 2484 409 2743 651 
Q 3003 894 3003 1313 
Q 3003 1734 2745 1975 
Q 2488 2216 2034 2216 
z
M 1403 2484 
Q 997 2584 770 2862 
Q 544 3141 544 3541 
Q 544 4100 942 4425 
Q 1341 4750 2034 4750 
Q 2731 4750 3128 4425 
Q 3525 4100 3525 3541 
Q 3525 3141 3298 2862 
Q 3072 2584 2669 2484 
Q 3125 2378 3379 2068 
Q 3634 1759 3634 1313 
Q 3634 634 3220 271 
Q 2806 -91 2034 -91 
Q 1263 -91 848 271 
Q 434 634 434 1313 
Q 434 1759 690 2068 
Q 947 2378 1403 2484 
z
M 1172 3481 
Q 1172 3119 1398 2916 
Q 1625 2713 2034 2713 
Q 2441 2713 2670 2916 
Q 2900 3119 2900 3481 
Q 2900 3844 2670 4047 
Q 2441 4250 2034 4250 
Q 1625 4250 1398 4047 
Q 1172 3844 1172 3481 
z
" transform="scale(0.015625)"/>
       </defs>
       <use xlink:href="#DejaVuSans-38"/>
       <use xlink:href="#DejaVuSans-30" x="63.623047"/>
       <use xlink:href="#DejaVuSans-30" x="127.246094"/>
      </g>
     </g>
    </g>
    <g id="xtick_6">
     <g id="line2d_6">
      <g>
       <use xlink:href="#mae3cac7005" x="660.704217" y="1281.6" style="stroke: #000000; stroke-width: 0.8"/>
      </g>
     </g>
     <g id="text_6">
      <!-- 1000 -->
      <g transform="translate(647.979217 1296.198437) scale(0.1 -0.1)">
       <defs>
        <path id="DejaVuSans-31" d="M 794 531 
L 1825 531 
L 1825 4091 
L 703 3866 
L 703 4441 
L 1819 4666 
L 2450 4666 
L 2450 531 
L 3481 531 
L 3481 0 
L 794 0 
L 794 531 
z
" transform="scale(0.015625)"/>
       </defs>
       <use xlink:href="#DejaVuSans-31"/>
       <use xlink:href="#DejaVuSans-30" x="63.623047"/>
       <use xlink:href="#DejaVuSans-30" x="127.246094"/>
       <use xlink:href="#DejaVuSans-30" x="190.869141"/>
      </g>
     </g>
    </g>
    <g id="xtick_7">
     <g id="line2d_7">
      <g>
       <use xlink:href="#mae3cac7005" x="734.442864" y="1281.6" style="stroke: #000000; stroke-width: 0.8"/>
      </g>
     </g>
     <g id="text_7">
      <!-- 1200 -->
      <g transform="translate(721.717864 1296.198437) scale(0.1 -0.1)">
       <use xlink:href="#DejaVuSans-31"/>
       <use xlink:href="#DejaVuSans-32" x="63.623047"/>
       <use xlink:href="#DejaVuSans-30" x="127.246094"/>
       <use xlink:href="#DejaVuSans-30" x="190.869141"/>
      </g>
     </g>
    </g>
   </g>
   <g id="matplotlib.axis_2">
    <g id="ytick_1">
     <g id="line2d_8">
      <defs>
       <path id="mcdb4ed41b5" d="M 0 0 
L -3.5 0 
" style="stroke: #000000; stroke-width: 0.8"/>
      </defs>
      <g>
       <use xlink:href="#mcdb4ed41b5" x="270" y="1240.557846" style="stroke: #000000; stroke-width: 0.8"/>
      </g>
     </g>
     <g id="text_8">
      <!-- −17.5 -->
      <g transform="translate(232.354688 1244.357065) scale(0.1 -0.1)">
       <defs>
        <path id="DejaVuSans-2212" d="M 678 2272 
L 4684 2272 
L 4684 1741 
L 678 1741 
L 678 2272 
z
" transform="scale(0.015625)"/>
        <path id="DejaVuSans-37" d="M 525 4666 
L 3525 4666 
L 3525 4397 
L 1831 0 
L 1172 0 
L 2766 4134 
L 525 4134 
L 525 4666 
z
" transform="scale(0.015625)"/>
        <path id="DejaVuSans-2e" d="M 684 794 
L 1344 794 
L 1344 0 
L 684 0 
L 684 794 
z
" transform="scale(0.015625)"/>
        <path id="DejaVuSans-35" d="M 691 4666 
L 3169 4666 
L 3169 4134 
L 1269 4134 
L 1269 2991 
Q 1406 3038 1543 3061 
Q 1681 3084 1819 3084 
Q 2600 3084 3056 2656 
Q 3513 2228 3513 1497 
Q 3513 744 3044 326 
Q 2575 -91 1722 -91 
Q 1428 -91 1123 -41 
Q 819 9 494 109 
L 494 744 
Q 775 591 1075 516 
Q 1375 441 1709 441 
Q 2250 441 2565 725 
Q 2881 1009 2881 1497 
Q 2881 1984 2565 2268 
Q 2250 2553 1709 2553 
Q 1456 2553 1204 2497 
Q 953 2441 691 2322 
L 691 4666 
z
" transform="scale(0.015625)"/>
       </defs>
       <use xlink:href="#DejaVuSans-2212"/>
       <use xlink:href="#DejaVuSans-31" x="83.789062"/>
       <use xlink:href="#DejaVuSans-37" x="147.412109"/>
       <use xlink:href="#DejaVuSans-2e" x="211.035156"/>
       <use xlink:href="#DejaVuSans-35" x="242.822266"/>
      </g>
     </g>
    </g>
    <g id="ytick_2">
     <g id="line2d_9">
      <g>
       <use xlink:href="#mcdb4ed41b5" x="270" y="1096.863235" style="stroke: #000000; stroke-width: 0.8"/>
      </g>
     </g>
     <g id="text_9">
      <!-- −15.0 -->
      <g transform="translate(232.354688 1100.662454) scale(0.1 -0.1)">
       <use xlink:href="#DejaVuSans-2212"/>
       <use xlink:href="#DejaVuSans-31" x="83.789062"/>
       <use xlink:href="#DejaVuSans-35" x="147.412109"/>
       <use xlink:href="#DejaVuSans-2e" x="211.035156"/>
       <use xlink:href="#DejaVuSans-30" x="242.822266"/>
      </g>
     </g>
    </g>
    <g id="ytick_3">
     <g id="line2d_10">
      <g>
       <use xlink:href="#mcdb4ed41b5" x="270" y="953.168624" style="stroke: #000000; stroke-width: 0.8"/>
      </g>
     </g>
     <g id="text_10">
      <!-- −12.5 -->
      <g transform="translate(232.354688 956.967843) scale(0.1 -0.1)">
       <use xlink:href="#DejaVuSans-2212"/>
       <use xlink:href="#DejaVuSans-31" x="83.789062"/>
       <use xlink:href="#DejaVuSans-32" x="147.412109"/>
       <use xlink:href="#DejaVuSans-2e" x="211.035156"/>
       <use xlink:href="#DejaVuSans-35" x="242.822266"/>
      </g>
     </g>
    </g>
    <g id="ytick_4">
     <g id="line2d_11">
      <g>
       <use xlink:href="#mcdb4ed41b5" x="270" y="809.474013" style="stroke: #000000; stroke-width: 0.8"/>
      </g>
     </g>
     <g id="text_11">
      <!-- −10.0 -->
      <g transform="translate(232.354688 813.273232) scale(0.1 -0.1)">
       <use xlink:href="#DejaVuSans-2212"/>
       <use xlink:href="#DejaVuSans-31" x="83.789062"/>
       <use xlink:href="#DejaVuSans-30" x="147.412109"/>
       <use xlink:href="#DejaVuSans-2e" x="211.035156"/>
       <use xlink:href="#DejaVuSans-30" x="242.822266"/>
      </g>
     </g>
    </g>
    <g id="ytick_5">
     <g id="line2d_12">
      <g>
       <use xlink:href="#mcdb4ed41b5" x="270" y="665.779402" style="stroke: #000000; stroke-width: 0.8"/>
      </g>
     </g>
     <g id="text_12">
      <!-- −7.5 -->
      <g transform="translate(238.717187 669.578621) scale(0.1 -0.1)">
       <use xlink:href="#DejaVuSans-2212"/>
       <use xlink:href="#DejaVuSans-37" x="83.789062"/>
       <use xlink:href="#DejaVuSans-2e" x="147.412109"/>
       <use xlink:href="#DejaVuSans-35" x="179.199219"/>
      </g>
     </g>
    </g>
    <g id="ytick_6">
     <g id="line2d_13">
      <g>
       <use xlink:href="#mcdb4ed41b5" x="270" y="522.084791" style="stroke: #000000; stroke-width: 0.8"/>
      </g>
     </g>
     <g id="text_13">
      <!-- −5.0 -->
      <g transform="translate(238.717187 525.88401) scale(0.1 -0.1)">
       <use xlink:href="#DejaVuSans-2212"/>
       <use xlink:href="#DejaVuSans-35" x="83.789062"/>
       <use xlink:href="#DejaVuSans-2e" x="147.412109"/>
       <use xlink:href="#DejaVuSans-30" x="179.199219"/>
      </g>
     </g>
    </g>
    <g id="ytick_7">
     <g id="line2d_14">
      <g>
       <use xlink:href="#mcdb4ed41b5" x="270" y="378.39018" style="stroke: #000000; stroke-width: 0.8"/>
      </g>
     </g>
     <g id="text_14">
      <!-- −2.5 -->
      <g transform="translate(238.717187 382.189399) scale(0.1 -0.1)">
       <use xlink:href="#DejaVuSans-2212"/>
       <use xlink:href="#DejaVuSans-32" x="83.789062"/>
       <use xlink:href="#DejaVuSans-2e" x="147.412109"/>
       <use xlink:href="#DejaVuSans-35" x="179.199219"/>
      </g>
     </g>
    </g>
    <g id="ytick_8">
     <g id="line2d_15">
      <g>
       <use xlink:href="#mcdb4ed41b5" x="270" y="234.695569" style="stroke: #000000; stroke-width: 0.8"/>
      </g>
     </g>
     <g id="text_15">
      <!-- 0.0 -->
      <g transform="translate(247.096875 238.494788) scale(0.1 -0.1)">
       <use xlink:href="#DejaVuSans-30"/>
       <use xlink:href="#DejaVuSans-2e" x="63.623047"/>
       <use xlink:href="#DejaVuSans-30" x="95.410156"/>
      </g>
     </g>
    </g>
   </g>
   <g id="line2d_16">
    <path d="M 292.379679 234.695569 
L 310.814341 234.695569 
L 311.183034 223.2 
L 312.289114 223.2 
L 312.657807 230.863713 
L 313.763887 230.863713 
L 314.13258 243.892024 
L 315.238659 243.892024 
L 315.607353 245.365815 
L 316.713432 245.365815 
L 317.082126 259.977399 
L 318.188205 259.977399 
L 318.556899 266.328346 
L 319.662978 266.328346 
L 320.031671 273.125329 
L 321.137751 273.125329 
L 321.506444 279.094558 
L 322.612524 279.094558 
L 322.981217 286.837144 
L 324.087297 286.837144 
L 324.45599 292.728885 
L 327.036843 292.728885 
L 327.405536 287.851355 
L 329.986389 287.851355 
L 330.355082 294.78593 
L 331.461162 294.78593 
L 331.829855 288.92639 
L 332.935935 288.92639 
L 333.304628 284.19942 
L 335.88548 284.19942 
L 336.254174 285.386497 
L 337.360253 285.386497 
L 337.728947 279.552813 
L 340.309799 279.552813 
L 340.678492 273.742494 
L 341.784572 273.742494 
L 342.153265 267.954427 
L 343.259345 267.954427 
L 343.628038 273.316732 
L 344.734118 273.316732 
L 345.102811 264.607968 
L 347.683664 264.607968 
L 348.052357 256.537005 
L 349.158437 256.537005 
L 349.52713 261.614913 
L 350.63321 261.614913 
L 351.001903 256.537005 
L 352.107983 256.537005 
L 352.476676 264.293949 
L 355.057528 264.293949 
L 355.426222 269.769176 
L 356.532301 269.769176 
L 356.900995 279.3067 
L 358.007074 279.3067 
L 358.375768 277.873292 
L 359.481847 277.873292 
L 359.85054 281.482525 
L 360.95662 281.482525 
L 361.325313 280.104752 
L 362.431393 280.104752 
L 362.800086 278.757712 
L 363.906166 278.757712 
L 364.274859 281.120066 
L 365.380939 281.120066 
L 365.749632 294.645989 
L 366.855712 294.645989 
L 367.224405 289.825087 
L 368.330485 289.825087 
L 368.699178 293.566388 
L 369.805258 293.566388 
L 370.173951 306.917741 
L 371.280031 306.917741 
L 371.648724 311.47779 
L 372.754804 311.47779 
L 373.123497 315.499951 
L 377.179122 315.499951 
L 377.547816 319.959162 
L 378.653895 319.959162 
L 379.022589 328.440534 
L 380.128668 328.440534 
L 380.497361 323.988416 
L 381.603441 323.988416 
L 381.972134 332.484362 
L 383.078214 332.484362 
L 383.446907 340.902168 
L 384.552987 340.902168 
L 384.92168 344.965814 
L 386.02776 344.965814 
L 386.396453 357.815174 
L 387.502533 357.815174 
L 387.871226 366.44937 
L 388.977306 366.44937 
L 389.345999 379.451929 
L 390.452079 379.451929 
L 390.820772 392.236356 
L 391.926852 392.236356 
L 392.295545 400.824872 
L 393.401625 400.824872 
L 393.770318 405.217187 
L 394.876397 405.217187 
L 395.245091 413.805703 
L 396.35117 413.805703 
L 396.719864 409.668455 
L 397.825943 409.668455 
L 398.194637 401.49533 
L 399.300716 401.49533 
L 399.669409 393.416586 
L 400.775489 393.416586 
L 401.144182 389.377214 
L 402.250262 389.377214 
L 402.618955 398.011522 
L 405.199808 398.05015 
L 405.568501 398.790144 
L 406.674581 398.790144 
L 407.043274 412.239619 
L 409.624127 412.23494 
L 409.99282 404.48653 
L 411.0989 404.48653 
L 411.467593 400.616804 
L 412.573673 400.616804 
L 412.942366 392.890135 
L 414.048445 392.890135 
L 414.417139 401.718708 
L 415.523218 401.718708 
L 415.891912 405.579942 
L 418.472764 405.579942 
L 418.841458 409.441175 
L 419.947537 409.441175 
L 420.31623 405.583891 
L 421.42231 405.583891 
L 421.791003 402.924957 
L 422.897083 402.924957 
L 423.265776 395.293372 
L 424.371856 395.293372 
L 424.740549 396.575824 
L 425.846629 396.575824 
L 426.215322 403.081228 
L 427.321402 403.081228 
L 427.690095 404.513165 
L 428.796175 404.513165 
L 429.164868 400.727318 
L 431.745721 400.727318 
L 432.114414 409.709609 
L 433.220494 409.709609 
L 433.589187 405.976511 
L 434.695266 405.976511 
L 435.06396 402.246388 
L 436.170039 402.246388 
L 436.538733 403.80449 
L 437.644812 403.80449 
L 438.013506 405.394362 
L 439.119585 405.394362 
L 439.488278 410.722981 
L 440.594358 410.722981 
L 440.963051 419.794937 
L 442.069131 419.794937 
L 442.437824 434.243034 
L 443.543904 434.243034 
L 443.912597 443.314989 
L 445.018677 443.314989 
L 445.38737 456.077344 
L 446.49345 456.077344 
L 446.862143 470.530893 
L 447.968223 470.530893 
L 448.336916 483.266604 
L 449.442996 483.266604 
L 449.811689 501.460125 
L 450.917769 501.460125 
L 451.286462 516.021928 
L 452.392542 516.021928 
L 452.761235 519.692825 
L 453.867314 519.692825 
L 454.236008 534.290569 
L 455.342087 534.290569 
L 455.710781 536.090094 
L 456.81686 536.090094 
L 457.185554 547.05484 
L 459.766406 547.05484 
L 460.135099 552.53641 
L 462.715952 552.546542 
L 463.084645 558.034435 
L 464.190725 558.034435 
L 464.559418 554.400503 
L 467.140271 554.398446 
L 467.508964 559.925826 
L 468.615044 559.925826 
L 468.983737 569.078145 
L 470.089817 569.078145 
L 470.45851 561.865878 
L 471.56459 561.865878 
L 471.933283 563.854347 
L 473.039363 563.854347 
L 473.408056 556.686433 
L 474.514135 556.686433 
L 474.882829 545.977815 
L 475.988908 545.977815 
L 476.357602 551.600037 
L 477.463681 551.600037 
L 477.832375 540.921284 
L 478.938454 540.921284 
L 479.307147 550.120702 
L 480.413227 550.120702 
L 480.78192 548.655778 
L 484.837546 548.655778 
L 485.206239 545.122499 
L 486.312319 545.122499 
L 486.681012 538.064076 
L 487.787092 538.064076 
L 488.155785 531.010657 
L 489.261865 531.010657 
L 489.630558 516.927977 
L 490.736638 516.927977 
L 491.105331 502.908556 
L 492.211411 502.908556 
L 492.580104 492.424778 
L 493.686183 492.424778 
L 494.054877 481.966844 
L 495.160956 481.966844 
L 495.52965 478.486944 
L 496.635729 478.486944 
L 497.004423 468.064377 
L 498.110502 468.064377 
L 498.479195 461.123978 
L 501.060048 461.126801 
L 501.428741 457.662829 
L 502.534821 457.662829 
L 502.903514 447.282616 
L 504.009594 447.282616 
L 504.378287 456.591305 
L 505.484367 456.591305 
L 505.85306 446.229777 
L 506.95914 446.229777 
L 507.327833 457.969257 
L 508.433913 457.969257 
L 508.802606 480.05853 
L 509.908686 480.05853 
L 510.277379 476.613584 
L 511.383459 476.613584 
L 511.752152 475.609912 
L 512.858232 475.609912 
L 513.226925 461.857497 
L 514.333004 461.857497 
L 514.701698 467.76197 
L 515.807777 467.76197 
L 516.176471 483.007233 
L 517.28255 483.007233 
L 517.651244 497.340491 
L 518.757323 497.340491 
L 519.126016 506.681342 
L 520.232096 506.681342 
L 520.600789 522.852163 
L 521.706869 522.852163 
L 522.075562 538.136366 
L 523.181642 538.136366 
L 523.550335 547.485648 
L 524.656415 547.485648 
L 525.025108 553.43529 
L 526.131188 553.43529 
L 526.499881 555.135154 
L 527.605961 555.135154 
L 527.974654 570.454667 
L 529.080734 570.454667 
L 529.449427 583.214274 
L 530.555507 583.214274 
L 530.9242 585.789012 
L 532.03028 585.789012 
L 532.398973 591.760136 
L 533.505052 591.760136 
L 533.873746 609.694307 
L 534.979825 609.694307 
L 535.348519 625.050463 
L 536.454598 625.050463 
L 536.823292 652.412148 
L 537.929371 652.412148 
L 538.298064 685.818641 
L 539.404144 685.818641 
L 539.772837 697.840773 
L 540.878917 697.840773 
L 541.24761 722.641355 
L 542.35369 722.641355 
L 542.722383 743.361208 
L 543.828463 743.361208 
L 544.197156 739.988993 
L 545.303236 739.988993 
L 545.671929 733.250439 
L 546.778009 733.250439 
L 547.146702 726.514822 
L 549.727555 726.513923 
L 550.096248 723.148788 
L 551.202328 723.148788 
L 551.571021 719.782764 
L 552.6771 719.782764 
L 553.045794 713.05629 
L 554.151873 713.05629 
L 554.520567 709.015179 
L 555.626646 709.015179 
L 555.99534 708.339338 
L 557.101419 708.339338 
L 557.470113 723.126964 
L 558.576192 723.126964 
L 558.944885 719.769934 
L 560.050965 719.769934 
L 560.419658 725.822963 
L 561.525738 725.822963 
L 561.894431 737.934319 
L 563.000511 737.934319 
L 563.369204 737.281397 
L 564.475284 737.281397 
L 564.843977 743.342342 
L 565.950057 743.342342 
L 566.31875 751.4818 
L 567.42483 751.4818 
L 567.793523 754.20063 
L 568.899603 754.20063 
L 569.268296 759.643536 
L 570.374376 759.643536 
L 570.743069 762.988416 
L 571.849149 762.988416 
L 572.217842 759.029246 
L 573.323921 759.029246 
L 573.692615 758.419017 
L 574.798694 758.419017 
L 575.167388 767.84005 
L 576.273467 767.84005 
L 576.642161 757.81289 
L 577.74824 757.81289 
L 578.116933 760.551818 
L 579.223013 760.551818 
L 579.591706 775.461582 
L 580.697786 775.461582 
L 581.066479 772.12214 
L 582.172559 772.12214 
L 582.541252 780.95624 
L 583.647332 780.95624 
L 584.016025 789.799753 
L 585.122105 789.799753 
L 585.490798 798.646899 
L 586.596878 798.646899 
L 586.965571 826.937982 
L 588.071651 826.937982 
L 588.440344 830.272791 
L 589.546424 830.272791 
L 589.915117 843.040672 
L 591.021197 843.040672 
L 591.38989 842.480964 
L 592.495969 842.480964 
L 592.864663 845.812739 
L 595.445515 845.812739 
L 595.814209 852.475028 
L 596.920288 852.475028 
L 597.288981 851.923624 
L 598.395061 851.923624 
L 598.763754 848.046413 
L 599.869834 848.046413 
L 600.238527 847.50384 
L 601.344607 847.50384 
L 601.7133 850.294919 
L 602.81938 850.294919 
L 603.188073 855.8787 
L 604.294153 855.8787 
L 604.662846 852.554456 
L 605.768926 852.554456 
L 606.137619 852.02682 
L 607.243699 852.02682 
L 607.612392 864.269682 
L 608.718472 864.269682 
L 609.087165 869.873269 
L 610.193245 869.873269 
L 610.561938 872.677093 
L 611.668018 872.677093 
L 612.036711 866.039694 
L 613.14279 866.039694 
L 613.511484 871.664184 
L 614.617563 871.664184 
L 614.986257 865.032301 
L 616.092336 865.032301 
L 616.46103 864.042233 
L 617.567109 864.042233 
L 617.935802 882.452082 
L 620.516655 882.452082 
L 620.885348 888.593406 
L 621.991428 888.593406 
L 622.360121 891.425124 
L 624.940974 891.426738 
L 625.309667 890.956184 
L 626.415747 890.956184 
L 626.78444 906.560361 
L 627.89052 906.560361 
L 628.259213 899.944934 
L 629.365293 899.944934 
L 629.733986 896.63722 
L 630.840066 896.63722 
L 631.208759 899.481543 
L 632.314838 899.481543 
L 632.683532 892.867936 
L 635.264384 892.867936 
L 635.633078 889.561337 
L 636.739157 889.561337 
L 637.10785 886.25514 
L 638.21393 886.25514 
L 638.582623 876.338714 
L 639.688703 876.338714 
L 640.057396 869.729323 
L 641.163476 869.729323 
L 641.532169 859.816046 
L 642.638249 859.816046 
L 643.006942 853.208099 
L 644.113022 853.208099 
L 644.481715 846.601572 
L 645.587795 846.601572 
L 645.956488 836.694347 
L 647.062568 836.694347 
L 647.431261 871.254133 
L 648.537341 871.254133 
L 648.906034 890.186322 
L 650.012114 890.186322 
L 650.380807 912.420374 
L 651.486887 912.420374 
L 651.85558 921.887607 
L 652.961659 921.887607 
L 653.330353 931.354841 
L 654.436432 931.354841 
L 654.805126 956.456148 
L 655.911205 956.456148 
L 656.279899 975.391482 
L 657.385978 975.391482 
L 657.754671 997.625052 
L 658.860751 997.625052 
L 659.229444 1026.025603 
L 660.335524 1026.025603 
L 660.704217 1035.492599 
L 661.810297 1035.492599 
L 662.17899 1032.195337 
L 663.28507 1032.195337 
L 663.653763 1025.601862 
L 664.759843 1025.601862 
L 665.128536 1028.898185 
L 666.234616 1028.898185 
L 666.603309 1025.602204 
L 667.709389 1025.602204 
L 668.078082 1022.306564 
L 669.184162 1022.306564 
L 669.552855 1019.010924 
L 670.658935 1019.010924 
L 671.027628 1025.183202 
L 672.133707 1025.183202 
L 672.502401 1021.887562 
L 675.083253 1021.887896 
L 675.451947 1021.472514 
L 676.558026 1021.472514 
L 676.926719 1034.235749 
L 678.032799 1034.235749 
L 678.401492 1037.117056 
L 679.507572 1037.117056 
L 679.876265 1055.646249 
L 680.982345 1055.646249 
L 681.351038 1058.939778 
L 682.457118 1058.939778 
L 682.825811 1061.823859 
L 683.931891 1061.823859 
L 684.300584 1083.65271 
L 685.406664 1083.65271 
L 685.775357 1099.305429 
L 686.881437 1099.305429 
L 687.25013 1098.900454 
L 688.35621 1098.900454 
L 688.724903 1105.081783 
L 689.830983 1105.081783 
L 690.199676 1108.374314 
L 691.305755 1108.374314 
L 691.674449 1101.789557 
L 692.780528 1101.789557 
L 693.149222 1107.97295 
L 694.255301 1107.97295 
L 694.623995 1117.049517 
L 695.730074 1117.049517 
L 696.098767 1113.757516 
L 697.204847 1113.757516 
L 697.57354 1113.358461 
L 700.154393 1113.358241 
L 700.523086 1116.649504 
L 701.629166 1116.649504 
L 701.997859 1122.83668 
L 703.103939 1122.83668 
L 703.472632 1122.442058 
L 704.578712 1122.442058 
L 704.947405 1119.15109 
L 706.053485 1119.15109 
L 706.422178 1125.339866 
L 707.528258 1125.339866 
L 707.896951 1141.009531 
L 709.003031 1141.009531 
L 709.371724 1143.909632 
L 710.477804 1143.909632 
L 710.846497 1153.390662 
L 711.952576 1153.390662 
L 712.32127 1156.680555 
L 713.427349 1156.680555 
L 713.796043 1159.970234 
L 714.902122 1159.970234 
L 715.270816 1166.161581 
L 717.851668 1166.161581 
L 718.220361 1169.45098 
L 719.326441 1169.45098 
L 719.695134 1172.353487 
L 720.801214 1172.353487 
L 721.169907 1171.967425 
L 722.275987 1171.967425 
L 722.64468 1178.159883 
L 723.75076 1178.159883 
L 724.119453 1177.77589 
L 725.225533 1177.77589 
L 725.594226 1183.968771 
L 726.700306 1183.968771 
L 727.068999 1199.836562 
L 728.175079 1199.836562 
L 728.543772 1206.412413 
L 731.124624 1206.412674 
L 731.493318 1218.805484 
L 732.599397 1218.805484 
L 732.968091 1212.23165 
L 734.07417 1212.23165 
L 734.442864 1218.429161 
L 735.548943 1218.429161 
L 735.917636 1231.2 
L 737.023716 1231.2 
L 737.392409 1227.913712 
L 739.973262 1227.913712 
L 739.973262 1227.913712 
" clip-path="url(#p4c7b0f9b15)" style="fill: none; stroke: #0000ff; stroke-width: 1.5; stroke-linecap: square"/>
   </g>
   <g id="patch_3">
    <path d="M 270 1281.6 
L 270 172.8 
" style="fill: none; stroke: #000000; stroke-width: 0.8; stroke-linejoin: miter; stroke-linecap: square"/>
   </g>
   <g id="patch_4">
    <path d="M 762.352941 1281.6 
L 762.352941 172.8 
" style="fill: none; stroke: #000000; stroke-width: 0.8; stroke-linejoin: miter; stroke-linecap: square"/>
   </g>
   <g id="patch_5">
    <path d="M 270 1281.6 
L 762.352941 1281.6 
" style="fill: none; stroke: #000000; stroke-width: 0.8; stroke-linejoin: miter; stroke-linecap: square"/>
   </g>
   <g id="patch_6">
    <path d="M 270 172.8 
L 762.352941 172.8 
" style="fill: none; stroke: #000000; stroke-width: 0.8; stroke-linejoin: miter; stroke-linecap: square"/>
   </g>
   <g id="legend_1">
    <g id="patch_7">
     <path d="M 671.310754 195.478125 
L 755.352941 195.478125 
Q 757.352941 195.478125 757.352941 193.478125 
L 757.352941 179.8 
Q 757.352941 177.8 755.352941 177.8 
L 671.310754 177.8 
Q 669.310754 177.8 669.310754 179.8 
L 669.310754 193.478125 
Q 669.310754 195.478125 671.310754 195.478125 
z
" style="fill: #ffffff; opacity: 0.8; stroke: #cccccc; stroke-linejoin: miter"/>
    </g>
    <g id="line2d_17">
     <path d="M 673.310754 185.898437 
L 683.310754 185.898437 
L 693.310754 185.898437 
" style="fill: none; stroke: #0000ff; stroke-width: 1.5; stroke-linecap: square"/>
    </g>
    <g id="text_16">
     <!-- O1 reward -->
     <g transform="translate(701.310754 189.398437) scale(0.1 -0.1)">
      <defs>
       <path id="DejaVuSans-4f" d="M 2522 4238 
Q 1834 4238 1429 3725 
Q 1025 3213 1025 2328 
Q 1025 1447 1429 934 
Q 1834 422 2522 422 
Q 3209 422 3611 934 
Q 4013 1447 4013 2328 
Q 4013 3213 3611 3725 
Q 3209 4238 2522 4238 
z
M 2522 4750 
Q 3503 4750 4090 4092 
Q 4678 3434 4678 2328 
Q 4678 1225 4090 567 
Q 3503 -91 2522 -91 
Q 1538 -91 948 565 
Q 359 1222 359 2328 
Q 359 3434 948 4092 
Q 1538 4750 2522 4750 
z
" transform="scale(0.015625)"/>
       <path id="DejaVuSans-20" transform="scale(0.015625)"/>
       <path id="DejaVuSans-72" d="M 2631 2963 
Q 2534 3019 2420 3045 
Q 2306 3072 2169 3072 
Q 1681 3072 1420 2755 
Q 1159 2438 1159 1844 
L 1159 0 
L 581 0 
L 581 3500 
L 1159 3500 
L 1159 2956 
Q 1341 3275 1631 3429 
Q 1922 3584 2338 3584 
Q 2397 3584 2469 3576 
Q 2541 3569 2628 3553 
L 2631 2963 
z
" transform="scale(0.015625)"/>
       <path id="DejaVuSans-65" d="M 3597 1894 
L 3597 1613 
L 953 1613 
Q 991 1019 1311 708 
Q 1631 397 2203 397 
Q 2534 397 2845 478 
Q 3156 559 3463 722 
L 3463 178 
Q 3153 47 2828 -22 
Q 2503 -91 2169 -91 
Q 1331 -91 842 396 
Q 353 884 353 1716 
Q 353 2575 817 3079 
Q 1281 3584 2069 3584 
Q 2775 3584 3186 3129 
Q 3597 2675 3597 1894 
z
M 3022 2063 
Q 3016 2534 2758 2815 
Q 2500 3097 2075 3097 
Q 1594 3097 1305 2825 
Q 1016 2553 972 2059 
L 3022 2063 
z
" transform="scale(0.015625)"/>
       <path id="DejaVuSans-77" d="M 269 3500 
L 844 3500 
L 1563 769 
L 2278 3500 
L 2956 3500 
L 3675 769 
L 4391 3500 
L 4966 3500 
L 4050 0 
L 3372 0 
L 2619 2869 
L 1863 0 
L 1184 0 
L 269 3500 
z
" transform="scale(0.015625)"/>
       <path id="DejaVuSans-61" d="M 2194 1759 
Q 1497 1759 1228 1600 
Q 959 1441 959 1056 
Q 959 750 1161 570 
Q 1363 391 1709 391 
Q 2188 391 2477 730 
Q 2766 1069 2766 1631 
L 2766 1759 
L 2194 1759 
z
M 3341 1997 
L 3341 0 
L 2766 0 
L 2766 531 
Q 2569 213 2275 61 
Q 1981 -91 1556 -91 
Q 1019 -91 701 211 
Q 384 513 384 1019 
Q 384 1609 779 1909 
Q 1175 2209 1959 2209 
L 2766 2209 
L 2766 2266 
Q 2766 2663 2505 2880 
Q 2244 3097 1772 3097 
Q 1472 3097 1187 3025 
Q 903 2953 641 2809 
L 641 3341 
Q 956 3463 1253 3523 
Q 1550 3584 1831 3584 
Q 2591 3584 2966 3190 
Q 3341 2797 3341 1997 
z
" transform="scale(0.015625)"/>
       <path id="DejaVuSans-64" d="M 2906 2969 
L 2906 4863 
L 3481 4863 
L 3481 0 
L 2906 0 
L 2906 525 
Q 2725 213 2448 61 
Q 2172 -91 1784 -91 
Q 1150 -91 751 415 
Q 353 922 353 1747 
Q 353 2572 751 3078 
Q 1150 3584 1784 3584 
Q 2172 3584 2448 3432 
Q 2725 3281 2906 2969 
z
M 947 1747 
Q 947 1113 1208 752 
Q 1469 391 1925 391 
Q 2381 391 2643 752 
Q 2906 1113 2906 1747 
Q 2906 2381 2643 2742 
Q 2381 3103 1925 3103 
Q 1469 3103 1208 2742 
Q 947 2381 947 1747 
z
" transform="scale(0.015625)"/>
      </defs>
      <use xlink:href="#DejaVuSans-4f"/>
      <use xlink:href="#DejaVuSans-31" x="78.710938"/>
      <use xlink:href="#DejaVuSans-20" x="142.333984"/>
      <use xlink:href="#DejaVuSans-72" x="174.121094"/>
      <use xlink:href="#DejaVuSans-65" x="212.984375"/>
      <use xlink:href="#DejaVuSans-77" x="274.507812"/>
      <use xlink:href="#DejaVuSans-61" x="356.294922"/>
      <use xlink:href="#DejaVuSans-72" x="417.574219"/>
      <use xlink:href="#DejaVuSans-64" x="456.9375"/>
     </g>
    </g>
   </g>
  </g>
  <g id="axes_2">
   <g id="patch_8">
    <path d="M 860.823529 1281.6 
L 1353.176471 1281.6 
L 1353.176471 172.8 
L 860.823529 172.8 
z
" style="fill: #ffffff"/>
   </g>
   <g id="matplotlib.axis_3">
    <g id="xtick_8">
     <g id="line2d_18">
      <g>
       <use xlink:href="#mae3cac7005" x="882.834515" y="1281.6" style="stroke: #000000; stroke-width: 0.8"/>
      </g>
     </g>
     <g id="text_17">
      <!-- 0 -->
      <g transform="translate(879.653265 1296.198437) scale(0.1 -0.1)">
       <use xlink:href="#DejaVuSans-30"/>
      </g>
     </g>
    </g>
    <g id="xtick_9">
     <g id="line2d_19">
      <g>
       <use xlink:href="#mae3cac7005" x="956.573162" y="1281.6" style="stroke: #000000; stroke-width: 0.8"/>
      </g>
     </g>
     <g id="text_18">
      <!-- 200 -->
      <g transform="translate(947.029412 1296.198437) scale(0.1 -0.1)">
       <use xlink:href="#DejaVuSans-32"/>
       <use xlink:href="#DejaVuSans-30" x="63.623047"/>
       <use xlink:href="#DejaVuSans-30" x="127.246094"/>
      </g>
     </g>
    </g>
    <g id="xtick_10">
     <g id="line2d_20">
      <g>
       <use xlink:href="#mae3cac7005" x="1030.311808" y="1281.6" style="stroke: #000000; stroke-width: 0.8"/>
      </g>
     </g>
     <g id="text_19">
      <!-- 400 -->
      <g transform="translate(1020.768058 1296.198437) scale(0.1 -0.1)">
       <use xlink:href="#DejaVuSans-34"/>
       <use xlink:href="#DejaVuSans-30" x="63.623047"/>
       <use xlink:href="#DejaVuSans-30" x="127.246094"/>
      </g>
     </g>
    </g>
    <g id="xtick_11">
     <g id="line2d_21">
      <g>
       <use xlink:href="#mae3cac7005" x="1104.050454" y="1281.6" style="stroke: #000000; stroke-width: 0.8"/>
      </g>
     </g>
     <g id="text_20">
      <!-- 600 -->
      <g transform="translate(1094.506704 1296.198437) scale(0.1 -0.1)">
       <use xlink:href="#DejaVuSans-36"/>
       <use xlink:href="#DejaVuSans-30" x="63.623047"/>
       <use xlink:href="#DejaVuSans-30" x="127.246094"/>
      </g>
     </g>
    </g>
    <g id="xtick_12">
     <g id="line2d_22">
      <g>
       <use xlink:href="#mae3cac7005" x="1177.7891" y="1281.6" style="stroke: #000000; stroke-width: 0.8"/>
      </g>
     </g>
     <g id="text_21">
      <!-- 800 -->
      <g transform="translate(1168.24535 1296.198437) scale(0.1 -0.1)">
       <use xlink:href="#DejaVuSans-38"/>
       <use xlink:href="#DejaVuSans-30" x="63.623047"/>
       <use xlink:href="#DejaVuSans-30" x="127.246094"/>
      </g>
     </g>
    </g>
    <g id="xtick_13">
     <g id="line2d_23">
      <g>
       <use xlink:href="#mae3cac7005" x="1251.527747" y="1281.6" style="stroke: #000000; stroke-width: 0.8"/>
      </g>
     </g>
     <g id="text_22">
      <!-- 1000 -->
      <g transform="translate(1238.802747 1296.198437) scale(0.1 -0.1)">
       <use xlink:href="#DejaVuSans-31"/>
       <use xlink:href="#DejaVuSans-30" x="63.623047"/>
       <use xlink:href="#DejaVuSans-30" x="127.246094"/>
       <use xlink:href="#DejaVuSans-30" x="190.869141"/>
      </g>
     </g>
    </g>
    <g id="xtick_14">
     <g id="line2d_24">
      <g>
       <use xlink:href="#mae3cac7005" x="1325.266393" y="1281.6" style="stroke: #000000; stroke-width: 0.8"/>
      </g>
     </g>
     <g id="text_23">
      <!-- 1200 -->
      <g transform="translate(1312.541393 1296.198437) scale(0.1 -0.1)">
       <use xlink:href="#DejaVuSans-31"/>
       <use xlink:href="#DejaVuSans-32" x="63.623047"/>
       <use xlink:href="#DejaVuSans-30" x="127.246094"/>
       <use xlink:href="#DejaVuSans-30" x="190.869141"/>
      </g>
     </g>
    </g>
   </g>
   <g id="matplotlib.axis_4">
    <g id="ytick_9">
     <g id="line2d_25">
      <g>
       <use xlink:href="#mcdb4ed41b5" x="860.823529" y="1231.2" style="stroke: #000000; stroke-width: 0.8"/>
      </g>
     </g>
     <g id="text_24">
      <!-- 0 -->
      <g transform="translate(847.461029 1234.999219) scale(0.1 -0.1)">
       <use xlink:href="#DejaVuSans-30"/>
      </g>
     </g>
    </g>
    <g id="ytick_10">
     <g id="line2d_26">
      <g>
       <use xlink:href="#mcdb4ed41b5" x="860.823529" y="1025.521313" style="stroke: #000000; stroke-width: 0.8"/>
      </g>
     </g>
     <g id="text_25">
      <!-- 20 -->
      <g transform="translate(841.098529 1029.320532) scale(0.1 -0.1)">
       <use xlink:href="#DejaVuSans-32"/>
       <use xlink:href="#DejaVuSans-30" x="63.623047"/>
      </g>
     </g>
    </g>
    <g id="ytick_11">
     <g id="line2d_27">
      <g>
       <use xlink:href="#mcdb4ed41b5" x="860.823529" y="819.842626" style="stroke: #000000; stroke-width: 0.8"/>
      </g>
     </g>
     <g id="text_26">
      <!-- 40 -->
      <g transform="translate(841.098529 823.641845) scale(0.1 -0.1)">
       <use xlink:href="#DejaVuSans-34"/>
       <use xlink:href="#DejaVuSans-30" x="63.623047"/>
      </g>
     </g>
    </g>
    <g id="ytick_12">
     <g id="line2d_28">
      <g>
       <use xlink:href="#mcdb4ed41b5" x="860.823529" y="614.163939" style="stroke: #000000; stroke-width: 0.8"/>
      </g>
     </g>
     <g id="text_27">
      <!-- 60 -->
      <g transform="translate(841.098529 617.963157) scale(0.1 -0.1)">
       <use xlink:href="#DejaVuSans-36"/>
       <use xlink:href="#DejaVuSans-30" x="63.623047"/>
      </g>
     </g>
    </g>
    <g id="ytick_13">
     <g id="line2d_29">
      <g>
       <use xlink:href="#mcdb4ed41b5" x="860.823529" y="408.485252" style="stroke: #000000; stroke-width: 0.8"/>
      </g>
     </g>
     <g id="text_28">
      <!-- 80 -->
      <g transform="translate(841.098529 412.28447) scale(0.1 -0.1)">
       <use xlink:href="#DejaVuSans-38"/>
       <use xlink:href="#DejaVuSans-30" x="63.623047"/>
      </g>
     </g>
    </g>
    <g id="ytick_14">
     <g id="line2d_30">
      <g>
       <use xlink:href="#mcdb4ed41b5" x="860.823529" y="202.806565" style="stroke: #000000; stroke-width: 0.8"/>
      </g>
     </g>
     <g id="text_29">
      <!-- 100 -->
      <g transform="translate(834.736029 206.605783) scale(0.1 -0.1)">
       <use xlink:href="#DejaVuSans-31"/>
       <use xlink:href="#DejaVuSans-30" x="63.623047"/>
       <use xlink:href="#DejaVuSans-30" x="127.246094"/>
      </g>
     </g>
    </g>
   </g>
   <g id="line2d_31">
    <path d="M 883.203209 1231.2 
L 900.163097 1231.123969 
L 900.53179 1226.980783 
L 901.63787 1226.980783 
L 902.006563 1228.604602 
L 903.112643 1228.604602 
L 903.481336 1227.638917 
L 904.587416 1227.638917 
L 904.956109 1229.542641 
L 906.062189 1229.542641 
L 906.430882 1220.989622 
L 907.536962 1220.989622 
L 907.905655 1208.024504 
L 909.011735 1208.024504 
L 909.380428 1201.574632 
L 910.486508 1201.574632 
L 910.855201 1184.585091 
L 911.961281 1184.585091 
L 912.329974 1168.927194 
L 919.335145 1168.927194 
L 919.703838 1162.131418 
L 923.759464 1162.131418 
L 924.128157 1154.883601 
L 928.183783 1154.883601 
L 928.552476 1145.008576 
L 929.658556 1145.008576 
L 930.027249 1142.235748 
L 931.133329 1142.235748 
L 931.502022 1139.184581 
L 934.082874 1139.184581 
L 934.451568 1120.455623 
L 935.557647 1120.455623 
L 935.926341 1091.00277 
L 937.03242 1091.00277 
L 937.401114 1083.15681 
L 938.507193 1083.15681 
L 938.875886 1068.048134 
L 939.981966 1068.048134 
L 940.350659 1031.473968 
L 941.456739 1031.473968 
L 941.825432 1006.018289 
L 957.679241 1006.018289 
L 958.047935 998.512462 
L 962.10356 998.512462 
L 962.472253 991.116941 
L 963.578333 991.116941 
L 963.947026 983.644097 
L 965.053106 983.644097 
L 965.421799 976.095912 
L 968.002652 976.095912 
L 968.371345 973.431759 
L 973.901743 973.431759 
L 974.270437 970.696009 
L 975.376516 970.696009 
L 975.74521 952.535492 
L 976.851289 952.535492 
L 977.219983 938.666619 
L 978.326062 938.666619 
L 978.694755 907.930376 
L 979.800835 907.930376 
L 980.169528 880.890939 
L 981.275608 880.890939 
L 981.644301 859.578663 
L 982.750381 859.578663 
L 983.119074 833.370707 
L 984.225154 833.370707 
L 984.593847 801.539882 
L 985.699927 801.539882 
L 986.06862 787.304289 
L 987.1747 787.304289 
L 987.543393 767.588862 
L 991.599019 767.588862 
L 991.967712 763.137922 
L 993.073792 763.137922 
L 993.442485 753.934343 
L 994.548564 753.934343 
L 994.917258 760.285878 
L 996.023337 760.285878 
L 996.392031 763.306891 
L 997.49811 763.306891 
L 997.866804 769.582501 
L 998.972883 769.582501 
L 999.341576 772.821823 
L 1000.447656 772.821823 
L 1000.816349 775.765343 
L 1001.922429 775.765343 
L 1002.291122 766.697043 
L 1004.871975 766.697043 
L 1005.240668 760.530403 
L 1006.346748 760.530403 
L 1006.715441 757.689373 
L 1007.821521 757.689373 
L 1008.190214 748.780397 
L 1009.296294 748.780397 
L 1009.664987 731.20654 
L 1010.771067 731.20654 
L 1011.13976 722.792285 
L 1012.24584 722.792285 
L 1012.614533 715.477203 
L 1013.720612 715.477203 
L 1014.089306 710.741491 
L 1015.195385 710.741491 
L 1015.564079 702.963131 
L 1016.670158 702.963131 
L 1017.038852 710.664672 
L 1018.144931 710.664672 
L 1018.513624 727.917936 
L 1019.619704 727.917936 
L 1019.988397 722.510016 
L 1021.094477 722.510016 
L 1021.46317 707.67263 
L 1022.56925 707.67263 
L 1022.937943 695.08358 
L 1024.044023 695.08358 
L 1024.412716 696.901528 
L 1025.518796 696.901528 
L 1025.887489 684.945467 
L 1026.993569 684.945467 
L 1027.362262 674.671285 
L 1028.468342 674.671285 
L 1028.837035 673.005966 
L 1031.417888 672.945075 
L 1031.786581 674.561767 
L 1032.89266 674.561767 
L 1033.261354 671.398209 
L 1034.367433 671.398209 
L 1034.736127 661.522865 
L 1035.842206 661.522865 
L 1036.2109 663.005794 
L 1037.316979 663.005794 
L 1037.685673 659.646064 
L 1038.791752 659.646064 
L 1039.160445 650.023977 
L 1040.266525 650.023977 
L 1040.635218 643.843105 
L 1041.741298 643.843105 
L 1042.109991 637.712 
L 1043.216071 637.712 
L 1043.584764 634.373568 
L 1044.690844 634.373568 
L 1045.059537 632.391502 
L 1047.64039 632.391502 
L 1048.009083 644.379224 
L 1049.115163 644.379224 
L 1049.483856 650.283727 
L 1050.589936 650.283727 
L 1050.958629 648.183045 
L 1052.064709 648.183045 
L 1052.433402 652.690859 
L 1053.539481 652.690859 
L 1053.908175 653.807614 
L 1055.014254 653.807614 
L 1055.382948 666.028219 
L 1056.489027 666.028219 
L 1056.857721 668.361455 
L 1057.9638 668.361455 
L 1058.332493 678.125911 
L 1059.438573 678.125911 
L 1059.807266 677.649632 
L 1060.913346 677.649632 
L 1061.282039 668.137408 
L 1062.388119 668.137408 
L 1062.756812 662.049662 
L 1063.862892 662.049662 
L 1064.231585 661.149644 
L 1065.337665 661.149644 
L 1065.706358 656.045504 
L 1066.812438 656.045504 
L 1067.181131 647.628611 
L 1068.287211 647.628611 
L 1068.655904 650.999935 
L 1069.761984 650.999935 
L 1070.130677 654.365657 
L 1071.236757 654.365657 
L 1071.60545 653.564142 
L 1072.711529 653.564142 
L 1073.080223 650.18716 
L 1074.186302 650.18716 
L 1074.554996 641.127413 
L 1075.661075 641.127413 
L 1076.029769 635.506039 
L 1078.610621 635.506039 
L 1078.979314 630.693301 
L 1080.085394 630.693301 
L 1080.454087 636.142129 
L 1081.560167 636.142129 
L 1081.92886 645.50414 
L 1083.03494 645.50414 
L 1083.403633 648.274122 
L 1084.509713 648.274122 
L 1084.878406 647.71363 
L 1085.984486 647.71363 
L 1086.353179 646.624567 
L 1087.459259 646.624567 
L 1087.827952 648.985111 
L 1088.934032 648.985111 
L 1089.302725 640.34306 
L 1090.408805 640.34306 
L 1090.777498 619.125992 
L 1091.883578 619.125992 
L 1092.252271 606.61895 
L 1093.35835 606.61895 
L 1093.727044 590.170995 
L 1094.833123 590.170995 
L 1095.201817 573.61651 
L 1096.307896 573.61651 
L 1096.67659 557.936382 
L 1097.782669 557.936382 
L 1098.151362 549.74772 
L 1099.257442 549.74772 
L 1099.626135 538.283603 
L 1100.732215 538.283603 
L 1101.100908 522.834532 
L 1102.206988 522.834532 
L 1102.575681 515.20414 
L 1103.681761 515.20414 
L 1104.050454 503.880492 
L 1105.156534 503.880492 
L 1105.525227 507.803022 
L 1106.631307 507.803022 
L 1107 501.047347 
L 1108.10608 501.047347 
L 1108.474773 511.962663 
L 1109.580853 511.962663 
L 1109.949546 512.27042 
L 1111.055626 512.27042 
L 1111.424319 512.525192 
L 1112.530398 512.525192 
L 1112.899092 509.266225 
L 1114.005171 509.266225 
L 1114.742558 509.379334 
L 1115.479944 509.379334 
L 1115.848638 509.585858 
L 1116.954717 509.585858 
L 1117.32341 520.202461 
L 1118.42949 520.202461 
L 1118.798183 527.10731 
L 1119.904263 527.10731 
L 1120.272956 530.485216 
L 1121.379036 530.485216 
L 1121.747729 527.101756 
L 1122.853809 527.101756 
L 1123.222502 523.581897 
L 1124.328582 523.581897 
L 1124.697275 516.692781 
L 1125.803355 516.692781 
L 1126.172048 509.882343 
L 1128.752901 509.868676 
L 1129.121594 513.296062 
L 1130.227674 513.296062 
L 1130.596367 509.983994 
L 1131.702447 509.983994 
L 1132.07114 506.691508 
L 1133.177219 506.691508 
L 1133.545913 506.811058 
L 1134.651992 506.811058 
L 1135.020686 520.211888 
L 1136.126765 520.211888 
L 1136.495459 523.655719 
L 1137.601538 523.655719 
L 1137.970231 514.418541 
L 1139.076311 514.418541 
L 1139.445004 517.914679 
L 1140.551084 517.914679 
L 1140.919777 521.684971 
L 1142.025857 521.684971 
L 1142.39455 518.452452 
L 1143.50063 518.452452 
L 1143.869323 518.752377 
L 1144.975403 518.752377 
L 1145.344096 522.982593 
L 1146.450176 522.982593 
L 1146.818869 524.137062 
L 1149.399722 524.139264 
L 1149.768415 514.653316 
L 1150.874495 514.653316 
L 1151.243188 508.353567 
L 1152.349267 508.353567 
L 1152.717961 505.206827 
L 1153.82404 505.206827 
L 1154.192734 498.923991 
L 1155.298813 498.923991 
L 1155.667507 495.787878 
L 1156.773586 495.787878 
L 1157.142279 492.653803 
L 1158.248359 492.653803 
L 1158.617052 486.391636 
L 1159.723132 486.391636 
L 1160.091825 480.137251 
L 1161.197905 480.137251 
L 1161.566598 473.890432 
L 1162.672678 473.890432 
L 1163.041371 470.76982 
L 1164.147451 470.76982 
L 1164.516144 461.436095 
L 1165.622224 461.436095 
L 1165.990917 455.233729 
L 1167.096997 455.233729 
L 1167.46569 452.135211 
L 1170.046543 452.135211 
L 1170.415236 449.038448 
L 1171.521315 449.038448 
L 1171.890009 439.768659 
L 1172.996088 439.768659 
L 1173.364782 430.532652 
L 1174.470861 430.532652 
L 1174.839555 421.334039 
L 1175.945634 421.334039 
L 1176.314327 415.22068 
L 1177.420407 415.22068 
L 1177.7891 406.080889 
L 1178.89518 406.080889 
L 1179.263873 416.632118 
L 1180.369953 416.632118 
L 1180.738646 424.905996 
L 1181.844726 424.905996 
L 1182.213419 427.221606 
L 1183.319499 427.221606 
L 1183.688192 429.610154 
L 1184.794272 429.610154 
L 1185.162965 437.193412 
L 1187.743818 437.211136 
L 1188.112511 434.855228 
L 1189.218591 434.855228 
L 1189.587284 438.676885 
L 1190.693364 438.676885 
L 1191.062057 435.627997 
L 1192.168136 435.627997 
L 1192.53683 437.556683 
L 1193.642909 437.556683 
L 1194.011603 425.992306 
L 1195.117682 425.992306 
L 1195.486376 414.472977 
L 1196.592455 414.472977 
L 1196.961148 402.995041 
L 1198.067228 402.995041 
L 1198.435921 394.425772 
L 1199.542001 394.425772 
L 1199.910694 385.88945 
L 1201.016774 385.88945 
L 1201.385467 380.21231 
L 1202.491547 380.21231 
L 1202.86024 371.719173 
L 1203.96632 371.719173 
L 1204.335013 368.894314 
L 1205.441093 368.894314 
L 1205.809786 363.25505 
L 1206.915866 363.25505 
L 1207.284559 357.62965 
L 1208.390639 357.62965 
L 1208.759332 358.77884 
L 1209.865412 358.77884 
L 1210.234105 368.354572 
L 1212.814957 368.351342 
L 1213.183651 366.741374 
L 1215.764503 366.741374 
L 1216.133196 362.346441 
L 1220.188822 362.346441 
L 1220.557515 365.135917 
L 1224.613141 365.135917 
L 1224.981834 362.34957 
L 1227.562687 362.34957 
L 1227.93138 363.563967 
L 1229.03746 363.563967 
L 1229.406153 367.568863 
L 1230.512233 367.568863 
L 1230.880926 366.045411 
L 1231.987005 366.045411 
L 1232.355699 372.831735 
L 1233.461778 372.831735 
L 1233.830472 379.399799 
L 1234.936551 379.399799 
L 1235.305245 383.437841 
L 1236.411324 383.437841 
L 1236.780017 387.475919 
L 1237.886097 387.475919 
L 1238.25479 384.729703 
L 1239.36087 384.729703 
L 1239.729563 379.242606 
L 1240.835643 379.242606 
L 1241.204336 373.767083 
L 1242.310416 373.767083 
L 1242.679109 365.568718 
L 1243.785189 365.568718 
L 1244.153882 362.840568 
L 1245.259962 362.840568 
L 1245.628655 360.115259 
L 1246.734735 360.115259 
L 1247.103428 357.392685 
L 1248.209508 357.392685 
L 1248.578201 354.672816 
L 1251.159053 354.672816 
L 1251.527747 349.239627 
L 1252.633826 349.239627 
L 1253.00252 346.526292 
L 1254.108599 346.526292 
L 1254.477293 349.238438 
L 1255.583372 349.238438 
L 1255.952065 350.623034 
L 1257.058145 350.623034 
L 1257.426838 349.307238 
L 1258.532918 349.307238 
L 1258.901611 346.604279 
L 1260.007691 346.604279 
L 1260.376384 349.306076 
L 1261.482464 349.306076 
L 1261.851157 346.606861 
L 1262.957237 346.606861 
L 1263.32593 343.910377 
L 1264.43201 343.910377 
L 1264.800703 335.836426 
L 1265.906783 335.836426 
L 1266.275476 337.269569 
L 1267.381556 337.269569 
L 1267.750249 329.228289 
L 1268.856329 329.228289 
L 1269.225022 318.537106 
L 1270.331101 318.537106 
L 1270.699795 315.8704 
L 1271.805874 315.8704 
L 1272.174568 310.544484 
L 1273.280647 310.544484 
L 1273.649341 302.566992 
L 1274.75542 302.566992 
L 1275.124114 297.259801 
L 1276.230193 297.259801 
L 1276.598886 291.959374 
L 1277.704966 291.959374 
L 1278.073659 281.385554 
L 1279.179739 281.385554 
L 1279.548432 273.477328 
L 1280.654512 273.477328 
L 1281.023205 268.21262 
L 1282.129285 268.21262 
L 1282.497978 264.498112 
L 1283.604058 264.498112 
L 1283.972751 263.421614 
L 1285.078831 263.421614 
L 1285.447524 267.601115 
L 1286.553604 267.601115 
L 1286.922297 265.489967 
L 1288.028377 265.489967 
L 1288.39707 261.828942 
L 1289.50315 261.828942 
L 1289.871843 266.017275 
L 1292.452695 266.017275 
L 1292.821389 264.990884 
L 1293.927468 264.990884 
L 1294.296162 263.970009 
L 1295.402241 263.970009 
L 1295.770934 261.362459 
L 1296.877014 261.362459 
L 1297.245707 258.756946 
L 1301.301333 258.756946 
L 1301.670026 261.360241 
L 1302.776106 261.360241 
L 1303.144799 260.364269 
L 1304.250879 260.364269 
L 1304.619572 259.374666 
L 1305.725652 259.374666 
L 1306.094345 256.777359 
L 1307.200425 256.777359 
L 1307.569118 254.182028 
L 1310.14997 254.182028 
L 1310.518664 256.775187 
L 1311.624743 256.775187 
L 1311.993437 251.59309 
L 1313.099516 251.59309 
L 1313.46821 249.004146 
L 1314.574289 249.004146 
L 1314.942982 243.829314 
L 1317.523835 243.829314 
L 1317.892528 241.244519 
L 1318.998608 241.244519 
L 1319.367301 236.079805 
L 1320.473381 236.079805 
L 1320.842074 233.499879 
L 1321.948154 233.499879 
L 1322.316847 230.922021 
L 1323.422927 230.922021 
L 1323.79162 228.346072 
L 1324.8977 228.346072 
L 1325.266393 223.2 
L 1326.372473 223.2 
L 1326.741166 224.860487 
L 1327.847246 224.860487 
L 1328.215939 225.636733 
L 1329.322019 225.636733 
L 1329.690712 224.746533 
L 1330.796791 224.746533 
L 1330.796791 224.746533 
" clip-path="url(#pa8d092b990)" style="fill: none; stroke: #0000ff; stroke-width: 1.5; stroke-linecap: square"/>
   </g>
   <g id="patch_9">
    <path d="M 860.823529 1281.6 
L 860.823529 172.8 
" style="fill: none; stroke: #000000; stroke-width: 0.8; stroke-linejoin: miter; stroke-linecap: square"/>
   </g>
   <g id="patch_10">
    <path d="M 1353.176471 1281.6 
L 1353.176471 172.8 
" style="fill: none; stroke: #000000; stroke-width: 0.8; stroke-linejoin: miter; stroke-linecap: square"/>
   </g>
   <g id="patch_11">
    <path d="M 860.823529 1281.6 
L 1353.176471 1281.6 
" style="fill: none; stroke: #000000; stroke-width: 0.8; stroke-linejoin: miter; stroke-linecap: square"/>
   </g>
   <g id="patch_12">
    <path d="M 860.823529 172.8 
L 1353.176471 172.8 
" style="fill: none; stroke: #000000; stroke-width: 0.8; stroke-linejoin: miter; stroke-linecap: square"/>
   </g>
   <g id="legend_2">
    <g id="patch_13">
     <path d="M 1262.134283 195.478125 
L 1346.176471 195.478125 
Q 1348.176471 195.478125 1348.176471 193.478125 
L 1348.176471 179.8 
Q 1348.176471 177.8 1346.176471 177.8 
L 1262.134283 177.8 
Q 1260.134283 177.8 1260.134283 179.8 
L 1260.134283 193.478125 
Q 1260.134283 195.478125 1262.134283 195.478125 
z
" style="fill: #ffffff; opacity: 0.8; stroke: #cccccc; stroke-linejoin: miter"/>
    </g>
    <g id="line2d_32">
     <path d="M 1264.134283 185.898437 
L 1274.134283 185.898437 
L 1284.134283 185.898437 
" style="fill: none; stroke: #0000ff; stroke-width: 1.5; stroke-linecap: square"/>
    </g>
    <g id="text_30">
     <!-- O2 reward -->
     <g transform="translate(1292.134283 189.398437) scale(0.1 -0.1)">
      <use xlink:href="#DejaVuSans-4f"/>
      <use xlink:href="#DejaVuSans-32" x="78.710938"/>
      <use xlink:href="#DejaVuSans-20" x="142.333984"/>
      <use xlink:href="#DejaVuSans-72" x="174.121094"/>
      <use xlink:href="#DejaVuSans-65" x="212.984375"/>
      <use xlink:href="#DejaVuSans-77" x="274.507812"/>
      <use xlink:href="#DejaVuSans-61" x="356.294922"/>
      <use xlink:href="#DejaVuSans-72" x="417.574219"/>
      <use xlink:href="#DejaVuSans-64" x="456.9375"/>
     </g>
    </g>
   </g>
  </g>
  <g id="axes_3">
   <g id="patch_14">
    <path d="M 1451.647059 1281.6 
L 1944 1281.6 
L 1944 172.8 
L 1451.647059 172.8 
z
" style="fill: #ffffff"/>
   </g>
   <g id="matplotlib.axis_5">
    <g id="xtick_15">
     <g id="line2d_33">
      <g>
       <use xlink:href="#mae3cac7005" x="1473.658045" y="1281.6" style="stroke: #000000; stroke-width: 0.8"/>
      </g>
     </g>
     <g id="text_31">
      <!-- 0 -->
      <g transform="translate(1470.476795 1296.198437) scale(0.1 -0.1)">
       <use xlink:href="#DejaVuSans-30"/>
      </g>
     </g>
    </g>
    <g id="xtick_16">
     <g id="line2d_34">
      <g>
       <use xlink:href="#mae3cac7005" x="1547.396691" y="1281.6" style="stroke: #000000; stroke-width: 0.8"/>
      </g>
     </g>
     <g id="text_32">
      <!-- 200 -->
      <g transform="translate(1537.852941 1296.198437) scale(0.1 -0.1)">
       <use xlink:href="#DejaVuSans-32"/>
       <use xlink:href="#DejaVuSans-30" x="63.623047"/>
       <use xlink:href="#DejaVuSans-30" x="127.246094"/>
      </g>
     </g>
    </g>
    <g id="xtick_17">
     <g id="line2d_35">
      <g>
       <use xlink:href="#mae3cac7005" x="1621.135337" y="1281.6" style="stroke: #000000; stroke-width: 0.8"/>
      </g>
     </g>
     <g id="text_33">
      <!-- 400 -->
      <g transform="translate(1611.591587 1296.198437) scale(0.1 -0.1)">
       <use xlink:href="#DejaVuSans-34"/>
       <use xlink:href="#DejaVuSans-30" x="63.623047"/>
       <use xlink:href="#DejaVuSans-30" x="127.246094"/>
      </g>
     </g>
    </g>
    <g id="xtick_18">
     <g id="line2d_36">
      <g>
       <use xlink:href="#mae3cac7005" x="1694.873984" y="1281.6" style="stroke: #000000; stroke-width: 0.8"/>
      </g>
     </g>
     <g id="text_34">
      <!-- 600 -->
      <g transform="translate(1685.330234 1296.198437) scale(0.1 -0.1)">
       <use xlink:href="#DejaVuSans-36"/>
       <use xlink:href="#DejaVuSans-30" x="63.623047"/>
       <use xlink:href="#DejaVuSans-30" x="127.246094"/>
      </g>
     </g>
    </g>
    <g id="xtick_19">
     <g id="line2d_37">
      <g>
       <use xlink:href="#mae3cac7005" x="1768.61263" y="1281.6" style="stroke: #000000; stroke-width: 0.8"/>
      </g>
     </g>
     <g id="text_35">
      <!-- 800 -->
      <g transform="translate(1759.06888 1296.198437) scale(0.1 -0.1)">
       <use xlink:href="#DejaVuSans-38"/>
       <use xlink:href="#DejaVuSans-30" x="63.623047"/>
       <use xlink:href="#DejaVuSans-30" x="127.246094"/>
      </g>
     </g>
    </g>
    <g id="xtick_20">
     <g id="line2d_38">
      <g>
       <use xlink:href="#mae3cac7005" x="1842.351276" y="1281.6" style="stroke: #000000; stroke-width: 0.8"/>
      </g>
     </g>
     <g id="text_36">
      <!-- 1000 -->
      <g transform="translate(1829.626276 1296.198437) scale(0.1 -0.1)">
       <use xlink:href="#DejaVuSans-31"/>
       <use xlink:href="#DejaVuSans-30" x="63.623047"/>
       <use xlink:href="#DejaVuSans-30" x="127.246094"/>
       <use xlink:href="#DejaVuSans-30" x="190.869141"/>
      </g>
     </g>
    </g>
    <g id="xtick_21">
     <g id="line2d_39">
      <g>
       <use xlink:href="#mae3cac7005" x="1916.089922" y="1281.6" style="stroke: #000000; stroke-width: 0.8"/>
      </g>
     </g>
     <g id="text_37">
      <!-- 1200 -->
      <g transform="translate(1903.364922 1296.198437) scale(0.1 -0.1)">
       <use xlink:href="#DejaVuSans-31"/>
       <use xlink:href="#DejaVuSans-32" x="63.623047"/>
       <use xlink:href="#DejaVuSans-30" x="127.246094"/>
       <use xlink:href="#DejaVuSans-30" x="190.869141"/>
      </g>
     </g>
    </g>
   </g>
   <g id="matplotlib.axis_6">
    <g id="ytick_15">
     <g id="line2d_40">
      <g>
       <use xlink:href="#mcdb4ed41b5" x="1451.647059" y="1231.2" style="stroke: #000000; stroke-width: 0.8"/>
      </g>
     </g>
     <g id="text_38">
      <!-- 0.0 -->
      <g transform="translate(1428.743934 1234.999219) scale(0.1 -0.1)">
       <use xlink:href="#DejaVuSans-30"/>
       <use xlink:href="#DejaVuSans-2e" x="63.623047"/>
       <use xlink:href="#DejaVuSans-30" x="95.410156"/>
      </g>
     </g>
    </g>
    <g id="ytick_16">
     <g id="line2d_41">
      <g>
       <use xlink:href="#mcdb4ed41b5" x="1451.647059" y="1105.936907" style="stroke: #000000; stroke-width: 0.8"/>
      </g>
     </g>
     <g id="text_39">
      <!-- 2.5 -->
      <g transform="translate(1428.743934 1109.736125) scale(0.1 -0.1)">
       <use xlink:href="#DejaVuSans-32"/>
       <use xlink:href="#DejaVuSans-2e" x="63.623047"/>
       <use xlink:href="#DejaVuSans-35" x="95.410156"/>
      </g>
     </g>
    </g>
    <g id="ytick_17">
     <g id="line2d_42">
      <g>
       <use xlink:href="#mcdb4ed41b5" x="1451.647059" y="980.673813" style="stroke: #000000; stroke-width: 0.8"/>
      </g>
     </g>
     <g id="text_40">
      <!-- 5.0 -->
      <g transform="translate(1428.743934 984.473032) scale(0.1 -0.1)">
       <use xlink:href="#DejaVuSans-35"/>
       <use xlink:href="#DejaVuSans-2e" x="63.623047"/>
       <use xlink:href="#DejaVuSans-30" x="95.410156"/>
      </g>
     </g>
    </g>
    <g id="ytick_18">
     <g id="line2d_43">
      <g>
       <use xlink:href="#mcdb4ed41b5" x="1451.647059" y="855.41072" style="stroke: #000000; stroke-width: 0.8"/>
      </g>
     </g>
     <g id="text_41">
      <!-- 7.5 -->
      <g transform="translate(1428.743934 859.209939) scale(0.1 -0.1)">
       <use xlink:href="#DejaVuSans-37"/>
       <use xlink:href="#DejaVuSans-2e" x="63.623047"/>
       <use xlink:href="#DejaVuSans-35" x="95.410156"/>
      </g>
     </g>
    </g>
    <g id="ytick_19">
     <g id="line2d_44">
      <g>
       <use xlink:href="#mcdb4ed41b5" x="1451.647059" y="730.147627" style="stroke: #000000; stroke-width: 0.8"/>
      </g>
     </g>
     <g id="text_42">
      <!-- 10.0 -->
      <g transform="translate(1422.381434 733.946845) scale(0.1 -0.1)">
       <use xlink:href="#DejaVuSans-31"/>
       <use xlink:href="#DejaVuSans-30" x="63.623047"/>
       <use xlink:href="#DejaVuSans-2e" x="127.246094"/>
       <use xlink:href="#DejaVuSans-30" x="159.033203"/>
      </g>
     </g>
    </g>
    <g id="ytick_20">
     <g id="line2d_45">
      <g>
       <use xlink:href="#mcdb4ed41b5" x="1451.647059" y="604.884533" style="stroke: #000000; stroke-width: 0.8"/>
      </g>
     </g>
     <g id="text_43">
      <!-- 12.5 -->
      <g transform="translate(1422.381434 608.683752) scale(0.1 -0.1)">
       <use xlink:href="#DejaVuSans-31"/>
       <use xlink:href="#DejaVuSans-32" x="63.623047"/>
       <use xlink:href="#DejaVuSans-2e" x="127.246094"/>
       <use xlink:href="#DejaVuSans-35" x="159.033203"/>
      </g>
     </g>
    </g>
    <g id="ytick_21">
     <g id="line2d_46">
      <g>
       <use xlink:href="#mcdb4ed41b5" x="1451.647059" y="479.62144" style="stroke: #000000; stroke-width: 0.8"/>
      </g>
     </g>
     <g id="text_44">
      <!-- 15.0 -->
      <g transform="translate(1422.381434 483.420659) scale(0.1 -0.1)">
       <use xlink:href="#DejaVuSans-31"/>
       <use xlink:href="#DejaVuSans-35" x="63.623047"/>
       <use xlink:href="#DejaVuSans-2e" x="127.246094"/>
       <use xlink:href="#DejaVuSans-30" x="159.033203"/>
      </g>
     </g>
    </g>
    <g id="ytick_22">
     <g id="line2d_47">
      <g>
       <use xlink:href="#mcdb4ed41b5" x="1451.647059" y="354.358347" style="stroke: #000000; stroke-width: 0.8"/>
      </g>
     </g>
     <g id="text_45">
      <!-- 17.5 -->
      <g transform="translate(1422.381434 358.157565) scale(0.1 -0.1)">
       <use xlink:href="#DejaVuSans-31"/>
       <use xlink:href="#DejaVuSans-37" x="63.623047"/>
       <use xlink:href="#DejaVuSans-2e" x="127.246094"/>
       <use xlink:href="#DejaVuSans-35" x="159.033203"/>
      </g>
     </g>
    </g>
    <g id="ytick_23">
     <g id="line2d_48">
      <g>
       <use xlink:href="#mcdb4ed41b5" x="1451.647059" y="229.095253" style="stroke: #000000; stroke-width: 0.8"/>
      </g>
     </g>
     <g id="text_46">
      <!-- 20.0 -->
      <g transform="translate(1422.381434 232.894472) scale(0.1 -0.1)">
       <use xlink:href="#DejaVuSans-32"/>
       <use xlink:href="#DejaVuSans-30" x="63.623047"/>
       <use xlink:href="#DejaVuSans-2e" x="127.246094"/>
       <use xlink:href="#DejaVuSans-30" x="159.033203"/>
      </g>
     </g>
    </g>
   </g>
   <g id="line2d_49">
    <path d="M 1474.026738 1231.2 
L 1489.511854 1231.2 
L 1489.880547 1211.658818 
L 1490.986627 1211.658818 
L 1491.35532 1196.044011 
L 1492.4614 1196.044011 
L 1492.830093 1182.762147 
L 1493.936172 1182.762147 
L 1494.304866 1163.077946 
L 1495.410945 1163.077946 
L 1495.779639 1156.458705 
L 1496.885718 1156.458705 
L 1497.254412 1130.689092 
L 1498.360491 1130.689092 
L 1498.729184 1138.176198 
L 1499.835264 1138.176198 
L 1500.203957 1123.510715 
L 1501.310037 1123.510715 
L 1501.67873 1109.050793 
L 1502.78481 1109.050793 
L 1503.153503 1099.241924 
L 1504.259583 1099.241924 
L 1504.628276 1082.629273 
L 1505.734356 1082.629273 
L 1506.103049 1067.035154 
L 1507.209129 1067.035154 
L 1507.577822 1057.371882 
L 1510.158675 1057.371882 
L 1510.527368 1053.118195 
L 1511.633448 1053.118195 
L 1512.002141 1043.80376 
L 1513.10822 1043.80376 
L 1513.476914 1038.616483 
L 1516.057766 1038.616483 
L 1516.42646 1034.744116 
L 1517.532539 1034.744116 
L 1517.901233 1026.260689 
L 1520.482085 1026.260689 
L 1520.850778 1022.706956 
L 1521.956858 1022.706956 
L 1522.325551 1007.725631 
L 1523.431631 1007.725631 
L 1523.800324 986.703931 
L 1524.906404 986.703931 
L 1525.275097 971.976904 
L 1526.381177 971.976904 
L 1526.74987 962.177268 
L 1527.85595 962.177268 
L 1528.224643 934.841349 
L 1529.330723 934.841349 
L 1529.699416 921.241121 
L 1530.805496 921.241121 
L 1531.174189 916.971617 
L 1532.280269 916.971617 
L 1532.648962 903.655783 
L 1533.755041 903.655783 
L 1534.123735 894.787375 
L 1535.229814 894.787375 
L 1535.598508 887.219762 
L 1536.704587 887.219762 
L 1537.073281 873.990602 
L 1538.17936 873.990602 
L 1538.548053 868.599889 
L 1539.654133 868.599889 
L 1540.022826 856.547952 
L 1542.603679 856.461627 
L 1542.972372 859.870163 
L 1544.078452 859.870163 
L 1544.447145 861.981667 
L 1545.553225 861.981667 
L 1545.921918 857.036645 
L 1547.027998 857.036645 
L 1547.396691 859.111642 
L 1548.502771 859.111642 
L 1548.871464 856.206288 
L 1549.977544 856.206288 
L 1550.346237 859.468762 
L 1551.452317 859.468762 
L 1551.82101 856.40926 
L 1554.401862 856.40926 
L 1554.770556 853.29139 
L 1555.876635 853.29139 
L 1556.245329 844.087655 
L 1557.351408 844.087655 
L 1557.720101 836.105937 
L 1558.826181 836.105937 
L 1559.194874 840.9755 
L 1560.300954 840.9755 
L 1560.669647 842.925329 
L 1564.725273 842.925329 
L 1565.093966 833.843402 
L 1566.200046 833.843402 
L 1566.568739 816.756841 
L 1567.674819 816.756841 
L 1568.043512 808.47099 
L 1569.149592 808.47099 
L 1569.518285 802.617305 
L 1570.624365 802.617305 
L 1570.993058 798.779879 
L 1572.099138 798.779879 
L 1572.467831 789.615638 
L 1573.57391 789.615638 
L 1573.942604 783.467193 
L 1575.048683 783.467193 
L 1575.417377 778.695402 
L 1576.523456 778.695402 
L 1576.89215 768.927476 
L 1577.998229 768.927476 
L 1578.366922 763.142969 
L 1579.473002 763.142969 
L 1579.841695 755.162461 
L 1580.947775 755.162461 
L 1581.316468 752.970786 
L 1582.422548 752.970786 
L 1582.791241 743.968867 
L 1583.897321 743.968867 
L 1584.266014 736.510012 
L 1585.372094 736.510012 
L 1585.740787 729.182722 
L 1586.846867 729.182722 
L 1587.21556 722.147073 
L 1589.796413 722.147073 
L 1590.165106 717.255847 
L 1591.271186 717.255847 
L 1591.639879 713.009021 
L 1592.745958 713.009021 
L 1593.114652 715.000188 
L 1594.220731 715.000188 
L 1594.589425 711.238996 
L 1595.695504 711.238996 
L 1596.064198 704.703265 
L 1597.170277 704.703265 
L 1597.53897 700.013613 
L 1598.64505 700.013613 
L 1599.013743 695.284846 
L 1600.119823 695.284846 
L 1600.488516 689.026314 
L 1601.594596 689.026314 
L 1601.963289 675.696687 
L 1603.069369 675.696687 
L 1603.438062 674.205465 
L 1604.544142 674.205465 
L 1604.912835 672.119666 
L 1606.018915 672.119666 
L 1606.387608 663.933283 
L 1607.493688 663.933283 
L 1607.862381 658.0778 
L 1608.968461 658.0778 
L 1609.337154 654.042037 
L 1610.443234 654.042037 
L 1610.811927 646.791779 
L 1611.918007 646.791779 
L 1612.2867 638.530334 
L 1613.392779 638.530334 
L 1613.761473 634.13682 
L 1614.867552 634.13682 
L 1615.236246 633.330225 
L 1616.342325 633.330225 
L 1616.711019 630.989963 
L 1617.817098 630.989963 
L 1618.185791 627.845627 
L 1619.291871 627.845627 
L 1619.660564 623.242218 
L 1620.766644 623.242218 
L 1621.135337 621.738866 
L 1622.241417 621.738866 
L 1622.61011 615.251701 
L 1623.71619 615.251701 
L 1624.084883 613.032352 
L 1625.190963 613.032352 
L 1625.559656 609.66358 
L 1626.665736 609.66358 
L 1627.034429 606.312152 
L 1628.140509 606.312152 
L 1628.509202 602.609654 
L 1631.090055 602.609654 
L 1631.458748 600.412966 
L 1632.564827 600.412966 
L 1632.933521 599.313962 
L 1634.0396 599.313962 
L 1634.408294 594.586112 
L 1636.989146 594.586112 
L 1637.357839 595.675229 
L 1638.463919 595.675229 
L 1638.832612 596.042776 
L 1639.938692 596.042776 
L 1640.307385 593.945849 
L 1641.413465 593.945849 
L 1641.782158 587.199332 
L 1642.888238 587.199332 
L 1643.256931 584.483687 
L 1644.363011 584.483687 
L 1644.731704 585.111204 
L 1645.837784 585.111204 
L 1646.206477 578.50243 
L 1647.312557 578.50243 
L 1647.68125 573.113251 
L 1648.78733 573.113251 
L 1649.156023 572.238558 
L 1650.262103 572.238558 
L 1650.630796 569.718353 
L 1651.736875 569.718353 
L 1652.105569 566.138104 
L 1653.211648 566.138104 
L 1653.580342 565.586583 
L 1654.686421 565.586583 
L 1655.055115 561.81818 
L 1656.161194 561.81818 
L 1656.529887 558.876763 
L 1657.635967 558.876763 
L 1658.00466 554.049942 
L 1659.11074 554.049942 
L 1659.479433 551.193479 
L 1660.585513 551.193479 
L 1660.954206 547.38156 
L 1662.060286 547.38156 
L 1662.428979 543.882093 
L 1663.535059 543.882093 
L 1663.903752 541.136382 
L 1665.009832 541.136382 
L 1665.378525 540.671517 
L 1666.484605 540.671517 
L 1666.853298 537.267055 
L 1667.959378 537.267055 
L 1668.328071 532.548841 
L 1669.434151 532.548841 
L 1669.802844 528.426318 
L 1670.908924 528.426318 
L 1671.277617 522.741722 
L 1672.383696 522.741722 
L 1672.75239 517.601802 
L 1673.858469 517.601802 
L 1674.227163 505.487813 
L 1675.333242 505.487813 
L 1675.701936 496.93663 
L 1676.808015 496.93663 
L 1677.176708 490.610936 
L 1678.282788 490.610936 
L 1678.651481 486.648617 
L 1679.757561 486.648617 
L 1680.126254 481.015258 
L 1681.232334 481.015258 
L 1681.601027 476.972102 
L 1682.707107 476.972102 
L 1683.0758 467.58576 
L 1684.18188 467.58576 
L 1684.550573 462.396409 
L 1685.656653 462.396409 
L 1686.025346 457.152989 
L 1687.131426 457.152989 
L 1687.500119 452.954966 
L 1688.606199 452.954966 
L 1688.974892 447.825703 
L 1690.080972 447.825703 
L 1690.449665 442.95831 
L 1691.555744 442.95831 
L 1691.924438 437.570151 
L 1693.030517 437.570151 
L 1693.399211 431.991949 
L 1694.50529 431.991949 
L 1694.873984 430.23461 
L 1695.980063 430.23461 
L 1696.348756 426.994898 
L 1697.454836 426.994898 
L 1697.823529 425.837565 
L 1698.929609 425.837565 
L 1699.298302 424.445301 
L 1700.404382 424.445301 
L 1700.773075 422.149547 
L 1701.879155 422.149547 
L 1702.247848 418.511323 
L 1703.353928 418.511323 
L 1703.722621 417.148165 
L 1704.828701 417.148165 
L 1705.197394 414.900414 
L 1706.303474 414.900414 
L 1706.672167 412.895938 
L 1709.25302 412.895938 
L 1709.621713 412.675565 
L 1710.727793 412.675565 
L 1711.096486 411.115846 
L 1712.202565 411.115846 
L 1712.571259 410.443052 
L 1713.677338 410.443052 
L 1714.046032 408.905287 
L 1715.152111 408.905287 
L 1715.520805 407.813887 
L 1716.626884 407.813887 
L 1716.995577 405.329884 
L 1718.101657 405.329884 
L 1718.47035 401.200626 
L 1719.57643 401.200626 
L 1719.945123 400.326708 
L 1721.051203 400.326708 
L 1721.419896 395.96418 
L 1722.525976 395.96418 
L 1722.894669 393.185056 
L 1724.000749 393.185056 
L 1724.369442 391.458134 
L 1725.475522 391.458134 
L 1725.844215 388.530469 
L 1726.950295 388.530469 
L 1727.318988 384.42461 
L 1728.425068 384.42461 
L 1728.793761 381.217783 
L 1729.899841 381.217783 
L 1730.268534 376.352307 
L 1731.374613 376.352307 
L 1731.743307 374.356204 
L 1732.849386 374.356204 
L 1733.21808 372.213918 
L 1734.324159 372.213918 
L 1734.692853 367.368145 
L 1735.798932 367.368145 
L 1736.167625 366.393876 
L 1737.273705 366.393876 
L 1737.642398 365.282765 
L 1738.748478 365.282765 
L 1739.117171 362.512783 
L 1740.223251 362.512783 
L 1740.591944 360.179371 
L 1741.698024 360.179371 
L 1742.066717 356.717863 
L 1743.172797 356.717863 
L 1743.54149 353.086813 
L 1744.64757 353.086813 
L 1745.016263 351.486685 
L 1746.122343 351.486685 
L 1746.491036 348.807455 
L 1747.597116 348.807455 
L 1747.965809 347.419287 
L 1749.071889 347.419287 
L 1749.440582 347.924655 
L 1750.546661 347.924655 
L 1750.915355 343.974861 
L 1752.021434 343.974861 
L 1752.390128 343.803094 
L 1753.496207 343.803094 
L 1753.864901 341.870816 
L 1756.445753 341.870816 
L 1756.814446 339.661378 
L 1757.920526 339.661378 
L 1758.289219 337.859109 
L 1759.395299 337.859109 
L 1759.763992 335.575811 
L 1760.870072 335.575811 
L 1761.238765 334.790413 
L 1762.344845 334.790413 
L 1762.713538 331.763313 
L 1763.819618 331.763313 
L 1764.188311 329.579982 
L 1765.294391 329.579982 
L 1765.663084 327.321404 
L 1766.769164 327.321404 
L 1767.137857 322.374767 
L 1768.243937 322.374767 
L 1768.61263 318.962314 
L 1771.193482 318.959566 
L 1771.562176 317.97833 
L 1772.668255 317.97833 
L 1773.036949 319.469057 
L 1774.143028 319.469057 
L 1774.511722 316.422854 
L 1775.617801 316.422854 
L 1775.986494 318.434637 
L 1777.092574 318.434637 
L 1777.461267 316.025668 
L 1778.567347 316.025668 
L 1778.93604 315.895365 
L 1780.04212 315.895365 
L 1780.410813 316.54796 
L 1782.991666 316.485422 
L 1783.360359 317.022784 
L 1784.466439 317.022784 
L 1784.835132 314.040253 
L 1785.941212 314.040253 
L 1786.309905 312.115222 
L 1787.415985 312.115222 
L 1787.784678 311.348721 
L 1788.890758 311.348721 
L 1789.259451 310.121875 
L 1790.36553 310.121875 
L 1790.734224 308.98197 
L 1791.840303 308.98197 
L 1792.208997 306.061935 
L 1794.789849 306.061935 
L 1795.158542 304.914442 
L 1796.264622 304.914442 
L 1796.633315 303.094784 
L 1797.739395 303.094784 
L 1798.108088 302.35006 
L 1799.214168 302.35006 
L 1799.582861 301.543254 
L 1800.688941 301.543254 
L 1801.057634 299.755546 
L 1802.163714 299.755546 
L 1802.532407 298.668006 
L 1803.638487 298.668006 
L 1804.00718 297.913046 
L 1805.11326 297.913046 
L 1805.481953 297.179999 
L 1808.062806 297.128706 
L 1808.431499 295.703459 
L 1811.012351 295.653101 
L 1811.381045 293.856183 
L 1812.487124 293.856183 
L 1812.855818 292.788024 
L 1813.961897 292.788024 
L 1814.330591 291.706337 
L 1815.43667 291.706337 
L 1815.805363 291.275186 
L 1816.911443 291.275186 
L 1817.280136 289.859196 
L 1818.386216 289.859196 
L 1818.754909 288.805014 
L 1819.860989 288.805014 
L 1820.229682 289.512476 
L 1821.335762 289.512476 
L 1821.704455 288.508728 
L 1822.810535 288.508728 
L 1823.179228 286.393007 
L 1824.285308 286.393007 
L 1824.654001 285.386755 
L 1825.760081 285.386755 
L 1826.128774 286.086013 
L 1827.234854 286.086013 
L 1827.603547 284.379171 
L 1828.709627 284.379171 
L 1829.07832 283.671003 
L 1831.659172 283.657188 
L 1832.027866 282.955668 
L 1834.608718 282.941303 
L 1834.977411 280.910976 
L 1837.558264 280.90077 
L 1837.926957 279.557543 
L 1839.033037 279.557543 
L 1839.40173 278.879228 
L 1840.50781 278.879228 
L 1840.876503 278.203224 
L 1841.982583 278.203224 
L 1842.351276 277.527779 
L 1843.457356 277.527779 
L 1843.826049 275.181975 
L 1846.406902 275.181975 
L 1846.775595 274.177395 
L 1847.881675 274.177395 
L 1848.250368 273.511059 
L 1850.83122 273.508924 
L 1851.199914 271.848768 
L 1852.305993 271.848768 
L 1852.674687 271.18646 
L 1853.780766 271.18646 
L 1854.14946 270.525566 
L 1855.255539 270.525566 
L 1855.624232 269.20648 
L 1856.730312 269.20648 
L 1857.099005 267.226375 
L 1858.205085 267.226375 
L 1858.573778 266.247394 
L 1859.679858 266.247394 
L 1860.048551 264.92877 
L 1861.154631 264.92877 
L 1861.523324 263.302478 
L 1862.629404 263.302478 
L 1862.998097 261.691275 
L 1864.104177 261.691275 
L 1864.47287 261.358875 
L 1865.57895 261.358875 
L 1865.947643 262.038104 
L 1867.053723 262.038104 
L 1867.422416 260.39922 
L 1870.003268 260.431057 
L 1870.371962 258.801414 
L 1871.478041 258.801414 
L 1871.846735 257.871334 
L 1874.427587 257.871334 
L 1874.79628 255.602234 
L 1875.90236 255.602234 
L 1876.271053 254.625364 
L 1877.377133 254.625364 
L 1877.745826 253.019333 
L 1878.851906 253.019333 
L 1879.220599 252.046481 
L 1880.326679 252.046481 
L 1880.695372 251.088319 
L 1881.801452 251.088319 
L 1882.170145 248.222223 
L 1883.276225 248.222223 
L 1883.644918 246.618163 
L 1884.750998 246.618163 
L 1885.119691 245.652454 
L 1886.225771 245.652454 
L 1886.594464 244.70331 
L 1887.700544 244.70331 
L 1888.069237 244.055793 
L 1889.175316 244.055793 
L 1889.54401 243.39238 
L 1890.650089 243.39238 
L 1891.018783 241.804413 
L 1893.599635 241.787201 
L 1893.968329 240.846622 
L 1898.023954 240.829174 
L 1898.392647 239.870505 
L 1899.498727 239.870505 
L 1899.86742 238.93063 
L 1900.9735 238.93063 
L 1901.342193 237.016613 
L 1902.448273 237.016613 
L 1902.816966 236.374252 
L 1903.923046 236.374252 
L 1904.291739 233.847257 
L 1905.397819 233.847257 
L 1905.766512 232.608837 
L 1906.872592 232.608837 
L 1907.241285 230.73784 
L 1908.347365 230.73784 
L 1908.716058 229.180651 
L 1911.29691 229.180651 
L 1911.665604 228.545148 
L 1912.771683 228.545148 
L 1913.140377 227.626165 
L 1914.246456 227.626165 
L 1914.615149 227.014662 
L 1915.721229 227.014662 
L 1916.089922 225.160261 
L 1918.670775 225.160261 
L 1919.039468 224.74899 
L 1920.145548 224.74899 
L 1920.514241 223.2 
L 1921.620321 223.2 
L 1921.620321 223.2 
" clip-path="url(#pcff3c1f543)" style="fill: none; stroke: #0000ff; stroke-width: 1.5; stroke-linecap: square"/>
   </g>
   <g id="patch_15">
    <path d="M 1451.647059 1281.6 
L 1451.647059 172.8 
" style="fill: none; stroke: #000000; stroke-width: 0.8; stroke-linejoin: miter; stroke-linecap: square"/>
   </g>
   <g id="patch_16">
    <path d="M 1944 1281.6 
L 1944 172.8 
" style="fill: none; stroke: #000000; stroke-width: 0.8; stroke-linejoin: miter; stroke-linecap: square"/>
   </g>
   <g id="patch_17">
    <path d="M 1451.647059 1281.6 
L 1944 1281.6 
" style="fill: none; stroke: #000000; stroke-width: 0.8; stroke-linejoin: miter; stroke-linecap: square"/>
   </g>
   <g id="patch_18">
    <path d="M 1451.647059 172.8 
L 1944 172.8 
" style="fill: none; stroke: #000000; stroke-width: 0.8; stroke-linejoin: miter; stroke-linecap: square"/>
   </g>
   <g id="legend_3">
    <g id="patch_19">
     <path d="M 1852.957813 195.478125 
L 1937 195.478125 
Q 1939 195.478125 1939 193.478125 
L 1939 179.8 
Q 1939 177.8 1937 177.8 
L 1852.957813 177.8 
Q 1850.957813 177.8 1850.957813 179.8 
L 1850.957813 193.478125 
Q 1850.957813 195.478125 1852.957813 195.478125 
z
" style="fill: #ffffff; opacity: 0.8; stroke: #cccccc; stroke-linejoin: miter"/>
    </g>
    <g id="line2d_50">
     <path d="M 1854.957813 185.898437 
L 1864.957813 185.898437 
L 1874.957813 185.898437 
" style="fill: none; stroke: #0000ff; stroke-width: 1.5; stroke-linecap: square"/>
    </g>
    <g id="text_47">
     <!-- O3 reward -->
     <g transform="translate(1882.957813 189.398437) scale(0.1 -0.1)">
      <defs>
       <path id="DejaVuSans-33" d="M 2597 2516 
Q 3050 2419 3304 2112 
Q 3559 1806 3559 1356 
Q 3559 666 3084 287 
Q 2609 -91 1734 -91 
Q 1441 -91 1130 -33 
Q 819 25 488 141 
L 488 750 
Q 750 597 1062 519 
Q 1375 441 1716 441 
Q 2309 441 2620 675 
Q 2931 909 2931 1356 
Q 2931 1769 2642 2001 
Q 2353 2234 1838 2234 
L 1294 2234 
L 1294 2753 
L 1863 2753 
Q 2328 2753 2575 2939 
Q 2822 3125 2822 3475 
Q 2822 3834 2567 4026 
Q 2313 4219 1838 4219 
Q 1578 4219 1281 4162 
Q 984 4106 628 3988 
L 628 4550 
Q 988 4650 1302 4700 
Q 1616 4750 1894 4750 
Q 2613 4750 3031 4423 
Q 3450 4097 3450 3541 
Q 3450 3153 3228 2886 
Q 3006 2619 2597 2516 
z
" transform="scale(0.015625)"/>
      </defs>
      <use xlink:href="#DejaVuSans-4f"/>
      <use xlink:href="#DejaVuSans-33" x="78.710938"/>
      <use xlink:href="#DejaVuSans-20" x="142.333984"/>
      <use xlink:href="#DejaVuSans-72" x="174.121094"/>
      <use xlink:href="#DejaVuSans-65" x="212.984375"/>
      <use xlink:href="#DejaVuSans-77" x="274.507812"/>
      <use xlink:href="#DejaVuSans-61" x="356.294922"/>
      <use xlink:href="#DejaVuSans-72" x="417.574219"/>
      <use xlink:href="#DejaVuSans-64" x="456.9375"/>
     </g>
    </g>
   </g>
  </g>
 </g>
 <defs>
  <clipPath id="p4c7b0f9b15">
   <rect x="270" y="172.8" width="492.352941" height="1108.8"/>
  </clipPath>
  <clipPath id="pa8d092b990">
   <rect x="860.823529" y="172.8" width="492.352941" height="1108.8"/>
  </clipPath>
  <clipPath id="pcff3c1f543">
   <rect x="1451.647059" y="172.8" width="492.352941" height="1108.8"/>
  </clipPath>
 </defs>
</svg>
