<?xml version="1.0" encoding="utf-8" standalone="no"?>
<!DOCTYPE svg PUBLIC "-//W3C//DTD SVG 1.1//EN"
  "http://www.w3.org/Graphics/SVG/1.1/DTD/svg11.dtd">
<svg xmlns:xlink="http://www.w3.org/1999/xlink" width="2160pt" height="1440pt" viewBox="0 0 2160 1440" xmlns="http://www.w3.org/2000/svg" version="1.1">
 <metadata>
  <rdf:RDF xmlns:dc="http://purl.org/dc/elements/1.1/" xmlns:cc="http://creativecommons.org/ns#" xmlns:rdf="http://www.w3.org/1999/02/22-rdf-syntax-ns#">
   <cc:Work>
    <dc:type rdf:resource="http://purl.org/dc/dcmitype/StillImage"/>
    <dc:date>2023-05-31T19:56:45.731419</dc:date>
    <dc:format>image/svg+xml</dc:format>
    <dc:creator>
     <cc:Agent>
      <dc:title>Matplotlib v3.7.1, https://matplotlib.org/</dc:title>
     </cc:Agent>
    </dc:creator>
   </cc:Work>
  </rdf:RDF>
 </metadata>
 <defs>
  <style type="text/css">*{stroke-linejoin: round; stroke-linecap: butt}</style>
 </defs>
 <g id="figure_1">
  <g id="patch_1">
   <path d="M 0 1440 
L 2160 1440 
L 2160 0 
L 0 0 
z
" style="fill: #ffffff"/>
  </g>
  <g id="axes_1">
   <g id="patch_2">
    <path d="M 270 1281.6 
L 762.352941 1281.6 
L 762.352941 172.8 
L 270 172.8 
z
" style="fill: #ffffff"/>
   </g>
   <g id="matplotlib.axis_1">
    <g id="xtick_1">
     <g id="line2d_1">
      <defs>
       <path id="m845c30f70e" d="M 0 0 
L 0 3.5 
" style="stroke: #000000; stroke-width: 0.8"/>
      </defs>
      <g>
       <use xlink:href="#m845c30f70e" x="292.133613" y="1281.6" style="stroke: #000000; stroke-width: 0.8"/>
      </g>
     </g>
     <g id="text_1">
      <!-- 0 -->
      <g transform="translate(288.952363 1296.198437) scale(0.1 -0.1)">
       <defs>
        <path id="DejaVuSans-30" d="M 2034 4250 
Q 1547 4250 1301 3770 
Q 1056 3291 1056 2328 
Q 1056 1369 1301 889 
Q 1547 409 2034 409 
Q 2525 409 2770 889 
Q 3016 1369 3016 2328 
Q 3016 3291 2770 3770 
Q 2525 4250 2034 4250 
z
M 2034 4750 
Q 2819 4750 3233 4129 
Q 3647 3509 3647 2328 
Q 3647 1150 3233 529 
Q 2819 -91 2034 -91 
Q 1250 -91 836 529 
Q 422 1150 422 2328 
Q 422 3509 836 4129 
Q 1250 4750 2034 4750 
z
" transform="scale(0.015625)"/>
       </defs>
       <use xlink:href="#DejaVuSans-30"/>
      </g>
     </g>
    </g>
    <g id="xtick_2">
     <g id="line2d_2">
      <g>
       <use xlink:href="#m845c30f70e" x="353.650049" y="1281.6" style="stroke: #000000; stroke-width: 0.8"/>
      </g>
     </g>
     <g id="text_2">
      <!-- 250 -->
      <g transform="translate(344.106299 1296.198437) scale(0.1 -0.1)">
       <defs>
        <path id="DejaVuSans-32" d="M 1228 531 
L 3431 531 
L 3431 0 
L 469 0 
L 469 531 
Q 828 903 1448 1529 
Q 2069 2156 2228 2338 
Q 2531 2678 2651 2914 
Q 2772 3150 2772 3378 
Q 2772 3750 2511 3984 
Q 2250 4219 1831 4219 
Q 1534 4219 1204 4116 
Q 875 4013 500 3803 
L 500 4441 
Q 881 4594 1212 4672 
Q 1544 4750 1819 4750 
Q 2544 4750 2975 4387 
Q 3406 4025 3406 3419 
Q 3406 3131 3298 2873 
Q 3191 2616 2906 2266 
Q 2828 2175 2409 1742 
Q 1991 1309 1228 531 
z
" transform="scale(0.015625)"/>
        <path id="DejaVuSans-35" d="M 691 4666 
L 3169 4666 
L 3169 4134 
L 1269 4134 
L 1269 2991 
Q 1406 3038 1543 3061 
Q 1681 3084 1819 3084 
Q 2600 3084 3056 2656 
Q 3513 2228 3513 1497 
Q 3513 744 3044 326 
Q 2575 -91 1722 -91 
Q 1428 -91 1123 -41 
Q 819 9 494 109 
L 494 744 
Q 775 591 1075 516 
Q 1375 441 1709 441 
Q 2250 441 2565 725 
Q 2881 1009 2881 1497 
Q 2881 1984 2565 2268 
Q 2250 2553 1709 2553 
Q 1456 2553 1204 2497 
Q 953 2441 691 2322 
L 691 4666 
z
" transform="scale(0.015625)"/>
       </defs>
       <use xlink:href="#DejaVuSans-32"/>
       <use xlink:href="#DejaVuSans-35" x="63.623047"/>
       <use xlink:href="#DejaVuSans-30" x="127.246094"/>
      </g>
     </g>
    </g>
    <g id="xtick_3">
     <g id="line2d_3">
      <g>
       <use xlink:href="#m845c30f70e" x="415.166484" y="1281.6" style="stroke: #000000; stroke-width: 0.8"/>
      </g>
     </g>
     <g id="text_3">
      <!-- 500 -->
      <g transform="translate(405.622734 1296.198437) scale(0.1 -0.1)">
       <use xlink:href="#DejaVuSans-35"/>
       <use xlink:href="#DejaVuSans-30" x="63.623047"/>
       <use xlink:href="#DejaVuSans-30" x="127.246094"/>
      </g>
     </g>
    </g>
    <g id="xtick_4">
     <g id="line2d_4">
      <g>
       <use xlink:href="#m845c30f70e" x="476.682919" y="1281.6" style="stroke: #000000; stroke-width: 0.8"/>
      </g>
     </g>
     <g id="text_4">
      <!-- 750 -->
      <g transform="translate(467.139169 1296.198437) scale(0.1 -0.1)">
       <defs>
        <path id="DejaVuSans-37" d="M 525 4666 
L 3525 4666 
L 3525 4397 
L 1831 0 
L 1172 0 
L 2766 4134 
L 525 4134 
L 525 4666 
z
" transform="scale(0.015625)"/>
       </defs>
       <use xlink:href="#DejaVuSans-37"/>
       <use xlink:href="#DejaVuSans-35" x="63.623047"/>
       <use xlink:href="#DejaVuSans-30" x="127.246094"/>
      </g>
     </g>
    </g>
    <g id="xtick_5">
     <g id="line2d_5">
      <g>
       <use xlink:href="#m845c30f70e" x="538.199354" y="1281.6" style="stroke: #000000; stroke-width: 0.8"/>
      </g>
     </g>
     <g id="text_5">
      <!-- 1000 -->
      <g transform="translate(525.474354 1296.198437) scale(0.1 -0.1)">
       <defs>
        <path id="DejaVuSans-31" d="M 794 531 
L 1825 531 
L 1825 4091 
L 703 3866 
L 703 4441 
L 1819 4666 
L 2450 4666 
L 2450 531 
L 3481 531 
L 3481 0 
L 794 0 
L 794 531 
z
" transform="scale(0.015625)"/>
       </defs>
       <use xlink:href="#DejaVuSans-31"/>
       <use xlink:href="#DejaVuSans-30" x="63.623047"/>
       <use xlink:href="#DejaVuSans-30" x="127.246094"/>
       <use xlink:href="#DejaVuSans-30" x="190.869141"/>
      </g>
     </g>
    </g>
    <g id="xtick_6">
     <g id="line2d_6">
      <g>
       <use xlink:href="#m845c30f70e" x="599.71579" y="1281.6" style="stroke: #000000; stroke-width: 0.8"/>
      </g>
     </g>
     <g id="text_6">
      <!-- 1250 -->
      <g transform="translate(586.99079 1296.198437) scale(0.1 -0.1)">
       <use xlink:href="#DejaVuSans-31"/>
       <use xlink:href="#DejaVuSans-32" x="63.623047"/>
       <use xlink:href="#DejaVuSans-35" x="127.246094"/>
       <use xlink:href="#DejaVuSans-30" x="190.869141"/>
      </g>
     </g>
    </g>
    <g id="xtick_7">
     <g id="line2d_7">
      <g>
       <use xlink:href="#m845c30f70e" x="661.232225" y="1281.6" style="stroke: #000000; stroke-width: 0.8"/>
      </g>
     </g>
     <g id="text_7">
      <!-- 1500 -->
      <g transform="translate(648.507225 1296.198437) scale(0.1 -0.1)">
       <use xlink:href="#DejaVuSans-31"/>
       <use xlink:href="#DejaVuSans-35" x="63.623047"/>
       <use xlink:href="#DejaVuSans-30" x="127.246094"/>
       <use xlink:href="#DejaVuSans-30" x="190.869141"/>
      </g>
     </g>
    </g>
    <g id="xtick_8">
     <g id="line2d_8">
      <g>
       <use xlink:href="#m845c30f70e" x="722.74866" y="1281.6" style="stroke: #000000; stroke-width: 0.8"/>
      </g>
     </g>
     <g id="text_8">
      <!-- 1750 -->
      <g transform="translate(710.02366 1296.198437) scale(0.1 -0.1)">
       <use xlink:href="#DejaVuSans-31"/>
       <use xlink:href="#DejaVuSans-37" x="63.623047"/>
       <use xlink:href="#DejaVuSans-35" x="127.246094"/>
       <use xlink:href="#DejaVuSans-30" x="190.869141"/>
      </g>
     </g>
    </g>
   </g>
   <g id="matplotlib.axis_2">
    <g id="ytick_1">
     <g id="line2d_9">
      <defs>
       <path id="mcbe8d62cfa" d="M 0 0 
L -3.5 0 
" style="stroke: #000000; stroke-width: 0.8"/>
      </defs>
      <g>
       <use xlink:href="#mcbe8d62cfa" x="270" y="1162.861057" style="stroke: #000000; stroke-width: 0.8"/>
      </g>
     </g>
     <g id="text_9">
      <!-- −30 -->
      <g transform="translate(241.895312 1166.660276) scale(0.1 -0.1)">
       <defs>
        <path id="DejaVuSans-2212" d="M 678 2272 
L 4684 2272 
L 4684 1741 
L 678 1741 
L 678 2272 
z
" transform="scale(0.015625)"/>
        <path id="DejaVuSans-33" d="M 2597 2516 
Q 3050 2419 3304 2112 
Q 3559 1806 3559 1356 
Q 3559 666 3084 287 
Q 2609 -91 1734 -91 
Q 1441 -91 1130 -33 
Q 819 25 488 141 
L 488 750 
Q 750 597 1062 519 
Q 1375 441 1716 441 
Q 2309 441 2620 675 
Q 2931 909 2931 1356 
Q 2931 1769 2642 2001 
Q 2353 2234 1838 2234 
L 1294 2234 
L 1294 2753 
L 1863 2753 
Q 2328 2753 2575 2939 
Q 2822 3125 2822 3475 
Q 2822 3834 2567 4026 
Q 2313 4219 1838 4219 
Q 1578 4219 1281 4162 
Q 984 4106 628 3988 
L 628 4550 
Q 988 4650 1302 4700 
Q 1616 4750 1894 4750 
Q 2613 4750 3031 4423 
Q 3450 4097 3450 3541 
Q 3450 3153 3228 2886 
Q 3006 2619 2597 2516 
z
" transform="scale(0.015625)"/>
       </defs>
       <use xlink:href="#DejaVuSans-2212"/>
       <use xlink:href="#DejaVuSans-33" x="83.789062"/>
       <use xlink:href="#DejaVuSans-30" x="147.412109"/>
      </g>
     </g>
    </g>
    <g id="ytick_2">
     <g id="line2d_10">
      <g>
       <use xlink:href="#mcbe8d62cfa" x="270" y="1007.288034" style="stroke: #000000; stroke-width: 0.8"/>
      </g>
     </g>
     <g id="text_10">
      <!-- −25 -->
      <g transform="translate(241.895312 1011.087253) scale(0.1 -0.1)">
       <use xlink:href="#DejaVuSans-2212"/>
       <use xlink:href="#DejaVuSans-32" x="83.789062"/>
       <use xlink:href="#DejaVuSans-35" x="147.412109"/>
      </g>
     </g>
    </g>
    <g id="ytick_3">
     <g id="line2d_11">
      <g>
       <use xlink:href="#mcbe8d62cfa" x="270" y="851.715012" style="stroke: #000000; stroke-width: 0.8"/>
      </g>
     </g>
     <g id="text_11">
      <!-- −20 -->
      <g transform="translate(241.895312 855.51423) scale(0.1 -0.1)">
       <use xlink:href="#DejaVuSans-2212"/>
       <use xlink:href="#DejaVuSans-32" x="83.789062"/>
       <use xlink:href="#DejaVuSans-30" x="147.412109"/>
      </g>
     </g>
    </g>
    <g id="ytick_4">
     <g id="line2d_12">
      <g>
       <use xlink:href="#mcbe8d62cfa" x="270" y="696.141989" style="stroke: #000000; stroke-width: 0.8"/>
      </g>
     </g>
     <g id="text_12">
      <!-- −15 -->
      <g transform="translate(241.895312 699.941208) scale(0.1 -0.1)">
       <use xlink:href="#DejaVuSans-2212"/>
       <use xlink:href="#DejaVuSans-31" x="83.789062"/>
       <use xlink:href="#DejaVuSans-35" x="147.412109"/>
      </g>
     </g>
    </g>
    <g id="ytick_5">
     <g id="line2d_13">
      <g>
       <use xlink:href="#mcbe8d62cfa" x="270" y="540.568966" style="stroke: #000000; stroke-width: 0.8"/>
      </g>
     </g>
     <g id="text_13">
      <!-- −10 -->
      <g transform="translate(241.895312 544.368185) scale(0.1 -0.1)">
       <use xlink:href="#DejaVuSans-2212"/>
       <use xlink:href="#DejaVuSans-31" x="83.789062"/>
       <use xlink:href="#DejaVuSans-30" x="147.412109"/>
      </g>
     </g>
    </g>
    <g id="ytick_6">
     <g id="line2d_14">
      <g>
       <use xlink:href="#mcbe8d62cfa" x="270" y="384.995944" style="stroke: #000000; stroke-width: 0.8"/>
      </g>
     </g>
     <g id="text_14">
      <!-- −5 -->
      <g transform="translate(248.257812 388.795162) scale(0.1 -0.1)">
       <use xlink:href="#DejaVuSans-2212"/>
       <use xlink:href="#DejaVuSans-35" x="83.789062"/>
      </g>
     </g>
    </g>
    <g id="ytick_7">
     <g id="line2d_15">
      <g>
       <use xlink:href="#mcbe8d62cfa" x="270" y="229.422921" style="stroke: #000000; stroke-width: 0.8"/>
      </g>
     </g>
     <g id="text_15">
      <!-- 0 -->
      <g transform="translate(256.6375 233.22214) scale(0.1 -0.1)">
       <use xlink:href="#DejaVuSans-30"/>
      </g>
     </g>
    </g>
   </g>
   <g id="line2d_16">
    <path d="M 292.379679 229.422921 
L 304.682966 229.422921 
L 304.929032 223.2 
L 305.667229 223.2 
L 305.913295 227.348614 
L 306.651492 227.348614 
L 306.897558 234.401258 
L 307.635755 234.401258 
L 307.881821 235.199068 
L 308.620018 235.199068 
L 308.866084 243.108788 
L 309.604281 243.108788 
L 309.850347 246.54676 
L 310.588544 246.54676 
L 310.83461 250.226185 
L 311.572807 250.226185 
L 311.818873 253.457521 
L 312.55707 253.457521 
L 312.803136 257.648832 
L 313.541333 257.648832 
L 313.787399 260.83822 
L 315.509859 260.83822 
L 315.755925 258.197857 
L 317.478385 258.197857 
L 317.72445 261.951764 
L 318.462648 261.951764 
L 318.708713 258.779807 
L 319.446911 258.779807 
L 319.692976 256.220946 
L 321.415437 256.220946 
L 321.661502 256.863549 
L 322.3997 256.863549 
L 322.645765 253.705589 
L 324.368225 253.705589 
L 324.614291 250.560276 
L 325.352488 250.560276 
L 325.598554 247.42701 
L 326.336751 247.42701 
L 326.582817 250.329798 
L 327.321014 250.329798 
L 327.56708 245.615464 
L 329.28954 245.615464 
L 329.535606 241.246392 
L 330.273803 241.246392 
L 330.519869 243.995227 
L 331.258066 243.995227 
L 331.504132 241.246392 
L 332.242329 241.246392 
L 332.488395 245.445475 
L 334.210855 245.445475 
L 334.456921 248.409392 
L 335.195118 248.409392 
L 335.441184 253.57236 
L 336.179381 253.57236 
L 336.425447 252.79641 
L 337.163644 252.79641 
L 337.40971 254.750204 
L 338.147907 254.750204 
L 338.393973 254.004371 
L 339.13217 254.004371 
L 339.378236 253.275175 
L 340.116433 253.275175 
L 340.362499 254.553993 
L 341.100696 254.553993 
L 341.346762 261.87601 
L 342.084959 261.87601 
L 342.331025 259.266301 
L 343.069222 259.266301 
L 343.315288 261.291587 
L 344.053485 261.291587 
L 344.29955 268.519104 
L 345.037748 268.519104 
L 345.283813 270.987605 
L 346.022011 270.987605 
L 346.268076 273.16493 
L 348.9748 273.16493 
L 349.220865 275.578844 
L 349.959063 275.578844 
L 350.205128 280.170083 
L 350.943326 280.170083 
L 351.189391 277.760009 
L 351.927588 277.760009 
L 352.173654 282.359137 
L 352.911851 282.359137 
L 353.157917 286.915967 
L 353.896114 286.915967 
L 354.14218 289.115749 
L 354.880377 289.115749 
L 355.126443 296.07152 
L 355.86464 296.07152 
L 356.110706 300.745488 
L 356.848903 300.745488 
L 357.094969 307.784191 
L 357.833166 307.784191 
L 358.079232 314.704812 
L 358.817429 314.704812 
L 359.063495 319.354052 
L 359.801692 319.354052 
L 360.047758 321.731754 
L 360.785955 321.731754 
L 361.032021 326.380993 
L 361.770218 326.380993 
L 362.016284 324.141368 
L 362.754481 324.141368 
L 363.000547 319.716993 
L 363.738744 319.716993 
L 363.98481 315.343709 
L 364.723007 315.343709 
L 364.969073 313.157067 
L 365.70727 313.157067 
L 365.953336 317.831095 
L 367.675796 317.852006 
L 367.921862 318.252589 
L 368.660059 318.252589 
L 368.906125 325.533221 
L 370.628585 325.530689 
L 370.874651 321.336226 
L 371.612848 321.336226 
L 371.858913 319.241418 
L 372.597111 319.241418 
L 372.843176 315.058724 
L 373.581374 315.058724 
L 373.827439 319.837914 
L 374.565637 319.837914 
L 374.811702 321.928124 
L 376.534163 321.928124 
L 376.780228 324.018334 
L 377.518426 324.018334 
L 377.764491 321.930262 
L 378.502688 321.930262 
L 378.748754 320.490896 
L 379.486951 320.490896 
L 379.733017 316.359673 
L 380.471214 316.359673 
L 380.71728 317.053906 
L 381.455477 317.053906 
L 381.701543 320.57549 
L 382.43974 320.57549 
L 382.685806 321.350643 
L 383.424003 321.350643 
L 383.670069 319.301243 
L 385.392529 319.301243 
L 385.638595 324.163646 
L 386.376792 324.163646 
L 386.622858 322.1428 
L 387.361055 322.1428 
L 387.607121 320.123564 
L 388.345318 320.123564 
L 388.591384 320.967015 
L 389.329581 320.967015 
L 389.575647 321.827664 
L 390.313844 321.827664 
L 390.55991 324.712217 
L 391.298107 324.712217 
L 391.544173 329.623158 
L 392.28237 329.623158 
L 392.528436 337.444377 
L 393.266633 337.444377 
L 393.512699 342.355318 
L 394.250896 342.355318 
L 394.496962 349.263991 
L 395.235159 349.263991 
L 395.481225 357.088162 
L 396.219422 357.088162 
L 396.465488 363.982412 
L 397.203685 363.982412 
L 397.449751 373.831149 
L 398.187948 373.831149 
L 398.434014 381.713921 
L 399.172211 381.713921 
L 399.418276 383.701095 
L 400.156474 383.701095 
L 400.402539 391.603324 
L 401.140737 391.603324 
L 401.386802 392.577464 
L 402.125 392.577464 
L 402.371065 398.513034 
L 404.093526 398.513034 
L 404.339591 401.480384 
L 406.062051 401.485868 
L 406.308117 404.456642 
L 407.046314 404.456642 
L 407.29238 402.489477 
L 409.01484 402.488364 
L 409.260906 405.480512 
L 409.999103 405.480512 
L 410.245169 410.434957 
L 410.983366 410.434957 
L 411.229432 406.530724 
L 411.967629 406.530724 
L 412.213695 407.607147 
L 412.951892 407.607147 
L 413.197958 403.726925 
L 413.936155 403.726925 
L 414.182221 397.930005 
L 414.920418 397.930005 
L 415.166484 400.973495 
L 415.904681 400.973495 
L 416.150747 395.192743 
L 416.888944 395.192743 
L 417.13501 400.172683 
L 417.873207 400.172683 
L 418.119273 399.379673 
L 420.825996 399.379673 
L 421.072062 397.466996 
L 421.810259 397.466996 
L 422.056325 393.646044 
L 422.794522 393.646044 
L 423.040588 389.827802 
L 423.778785 389.827802 
L 424.024851 382.204394 
L 424.763048 382.204394 
L 425.009114 374.615232 
L 425.747311 374.615232 
L 425.993377 368.940025 
L 426.731574 368.940025 
L 426.977639 363.27881 
L 427.715837 363.27881 
L 427.961902 361.395028 
L 428.7001 361.395028 
L 428.946165 355.752957 
L 429.684363 355.752957 
L 429.930428 351.995896 
L 431.652889 351.997425 
L 431.898954 350.122265 
L 432.637152 350.122265 
L 432.883217 344.503122 
L 433.621414 344.503122 
L 433.86748 349.542215 
L 434.605677 349.542215 
L 434.851743 343.933187 
L 435.58994 343.933187 
L 435.836006 350.288145 
L 436.574203 350.288145 
L 436.820269 362.245778 
L 437.558466 362.245778 
L 437.804532 360.380918 
L 438.542729 360.380918 
L 438.788795 359.837598 
L 439.526992 359.837598 
L 439.773058 352.392974 
L 440.511255 352.392974 
L 440.757321 355.589255 
L 441.495518 355.589255 
L 441.741584 363.842006 
L 442.479781 363.842006 
L 442.725847 371.601059 
L 443.464044 371.601059 
L 443.71011 376.657562 
L 444.448307 376.657562 
L 444.694373 385.411347 
L 445.43257 385.411347 
L 445.678636 393.685177 
L 446.416833 393.685177 
L 446.662899 398.746244 
L 447.401096 398.746244 
L 447.647162 401.966976 
L 448.385359 401.966976 
L 448.631425 402.887167 
L 449.369622 402.887167 
L 449.615688 411.180112 
L 450.353885 411.180112 
L 450.599951 418.087297 
L 451.338148 418.087297 
L 451.584214 419.481086 
L 452.322411 419.481086 
L 452.568477 422.713447 
L 453.306674 422.713447 
L 453.55274 432.42179 
L 454.290937 432.42179 
L 454.537002 440.734571 
L 455.2752 440.734571 
L 455.521265 455.546331 
L 456.259463 455.546331 
L 456.505528 473.630339 
L 457.243726 473.630339 
L 457.489791 480.138306 
L 458.227989 480.138306 
L 458.474054 493.563658 
L 459.212252 493.563658 
L 459.458317 504.77998 
L 460.196515 504.77998 
L 460.44258 502.954492 
L 461.180777 502.954492 
L 461.426843 499.306696 
L 462.16504 499.306696 
L 462.411106 495.66049 
L 464.133566 495.660003 
L 464.379632 493.838348 
L 465.117829 493.838348 
L 465.363895 492.01621 
L 466.102092 492.01621 
L 466.348158 488.374954 
L 467.086355 488.374954 
L 467.332421 486.187371 
L 468.070618 486.187371 
L 468.316684 485.821516 
L 469.054881 485.821516 
L 469.300947 493.826534 
L 470.039144 493.826534 
L 470.28521 492.009265 
L 471.023407 492.009265 
L 471.269473 495.285965 
L 472.00767 495.285965 
L 472.253736 501.842231 
L 472.991933 501.842231 
L 473.237999 501.488783 
L 473.976196 501.488783 
L 474.222262 504.769767 
L 474.960459 504.769767 
L 475.206525 509.175918 
L 475.944722 509.175918 
L 476.190788 510.647707 
L 476.928985 510.647707 
L 477.175051 513.594128 
L 477.913248 513.594128 
L 478.159314 515.404819 
L 478.897511 515.404819 
L 479.143577 513.261592 
L 479.881774 513.261592 
L 480.12784 512.931256 
L 480.866037 512.931256 
L 481.112102 518.031164 
L 481.8503 518.031164 
L 482.096365 512.60314 
L 482.834563 512.60314 
L 483.080628 514.08581 
L 483.818826 514.08581 
L 484.064891 522.156944 
L 484.803089 522.156944 
L 485.049154 520.349197 
L 485.787352 520.349197 
L 486.033417 525.131379 
L 486.771615 525.131379 
L 487.01768 529.918657 
L 487.755878 529.918657 
L 488.001943 534.707902 
L 488.74014 534.707902 
L 488.986206 550.022774 
L 489.724403 550.022774 
L 489.970469 551.828014 
L 490.708666 551.828014 
L 490.954732 558.739678 
L 491.692929 558.739678 
L 491.938995 558.43669 
L 492.677192 558.43669 
L 492.923258 560.240287 
L 494.645718 560.240287 
L 494.891784 563.846798 
L 495.629981 563.846798 
L 495.876047 563.548305 
L 496.614244 563.548305 
L 496.86031 561.449446 
L 497.598507 561.449446 
L 497.844573 561.155734 
L 498.58277 561.155734 
L 498.828836 562.666635 
L 499.567033 562.666635 
L 499.813099 565.689315 
L 500.551296 565.689315 
L 500.797362 563.889795 
L 501.535559 563.889795 
L 501.781625 563.604168 
L 502.519822 563.604168 
L 502.765888 570.231623 
L 503.504085 570.231623 
L 503.750151 573.265025 
L 504.488348 573.265025 
L 504.734414 574.782825 
L 505.472611 574.782825 
L 505.718677 571.189787 
L 506.456874 571.189787 
L 506.70294 574.234505 
L 507.441137 574.234505 
L 507.687203 570.644453 
L 508.4254 570.644453 
L 508.671465 570.108498 
L 509.409663 570.108498 
L 509.655728 580.074341 
L 511.378189 580.074341 
L 511.624254 583.398837 
L 512.362452 583.398837 
L 512.608517 584.931737 
L 514.330978 584.932611 
L 514.577043 584.677885 
L 515.31524 584.677885 
L 515.561306 593.124927 
L 516.299503 593.124927 
L 516.545569 589.543783 
L 517.283766 589.543783 
L 517.529832 587.753212 
L 518.268029 587.753212 
L 518.514095 589.292935 
L 519.252292 589.292935 
L 519.498358 585.712777 
L 521.220818 585.712777 
L 521.466884 583.922809 
L 522.205081 583.922809 
L 522.451147 582.133058 
L 523.189344 582.133058 
L 523.43541 576.764978 
L 524.173607 576.764978 
L 524.419673 573.187103 
L 525.15787 573.187103 
L 525.403936 567.820727 
L 526.142133 567.820727 
L 526.388199 564.243633 
L 527.126396 564.243633 
L 527.372462 560.667307 
L 528.110659 560.667307 
L 528.356725 555.304208 
L 529.094922 555.304208 
L 529.340988 574.012531 
L 530.079185 574.012531 
L 530.325251 584.261133 
L 531.063448 584.261133 
L 531.309514 596.29714 
L 532.047711 596.29714 
L 532.293777 601.422058 
L 533.031974 601.422058 
L 533.27804 606.546976 
L 534.016237 606.546976 
L 534.262303 620.13512 
L 535.0005 620.13512 
L 535.246566 630.385425 
L 535.984763 630.385425 
L 536.230828 642.421171 
L 536.969026 642.421171 
L 537.215091 657.795302 
L 537.953289 657.795302 
L 538.199354 662.920091 
L 538.937552 662.920091 
L 539.183617 661.135178 
L 539.921815 661.135178 
L 540.16788 657.565918 
L 540.906078 657.565918 
L 541.152143 659.350323 
L 541.890341 659.350323 
L 542.136406 657.566103 
L 542.874603 657.566103 
L 543.120669 655.782067 
L 543.858866 655.782067 
L 544.104932 653.998031 
L 544.843129 653.998031 
L 545.089195 657.339283 
L 545.827392 657.339283 
L 546.073458 655.555247 
L 547.795918 655.555428 
L 548.041984 655.330569 
L 548.780181 655.330569 
L 549.026247 662.239718 
L 549.764444 662.239718 
L 550.01051 663.799462 
L 550.748707 663.799462 
L 550.994773 673.82991 
L 551.73297 673.82991 
L 551.979036 675.612803 
L 552.717233 675.612803 
L 552.963299 677.174049 
L 553.701496 677.174049 
L 553.947562 688.990707 
L 554.685759 688.990707 
L 554.931825 697.464027 
L 555.670022 697.464027 
L 555.916088 697.244801 
L 556.654285 697.244801 
L 556.900351 700.590953 
L 557.638548 700.590953 
L 557.884614 702.373306 
L 558.622811 702.373306 
L 558.868877 698.808766 
L 559.607074 698.808766 
L 559.85314 702.156035 
L 560.591337 702.156035 
L 560.837403 707.069472 
L 561.5756 707.069472 
L 561.821666 705.287406 
L 562.559863 705.287406 
L 562.805929 705.071385 
L 564.528389 705.071266 
L 564.774454 706.852932 
L 565.512652 706.852932 
L 565.758717 710.20225 
L 566.496915 710.20225 
L 566.74298 709.988628 
L 567.481178 709.988628 
L 567.727243 708.207121 
L 568.465441 708.207121 
L 568.711506 711.557304 
L 569.449704 711.557304 
L 569.695769 720.039798 
L 570.433966 720.039798 
L 570.680032 721.609716 
L 571.418229 721.609716 
L 571.664295 726.742102 
L 572.402492 726.742102 
L 572.648558 728.523027 
L 573.386755 728.523027 
L 573.632821 730.303836 
L 574.371018 730.303836 
L 574.617084 733.655411 
L 576.339544 733.655411 
L 576.58561 735.436068 
L 577.323807 735.436068 
L 577.569873 737.007289 
L 578.30807 737.007289 
L 578.554136 736.798301 
L 579.292333 736.798301 
L 579.538399 740.150478 
L 580.276596 740.150478 
L 580.522662 739.94261 
L 581.260859 739.94261 
L 581.506925 743.295015 
L 582.245122 743.295015 
L 582.491188 751.884761 
L 583.229385 751.884761 
L 583.475451 755.44448 
L 585.197911 755.444621 
L 585.443977 762.153248 
L 586.182174 762.153248 
L 586.42824 758.59462 
L 587.166437 758.59462 
L 587.412503 761.949532 
L 588.1507 761.949532 
L 588.396766 768.862798 
L 589.134963 768.862798 
L 589.381029 767.083825 
L 591.103489 767.083825 
L 591.349554 770.43912 
L 592.087752 770.43912 
L 592.333817 772.217869 
L 593.072015 772.217869 
L 593.31808 779.130687 
L 594.056278 779.130687 
L 594.302343 782.486631 
L 595.040541 782.486631 
L 595.286606 787.621233 
L 596.024804 787.621233 
L 596.270869 790.977576 
L 597.009067 790.977576 
L 597.255132 799.469436 
L 597.993329 799.469436 
L 598.239395 795.913174 
L 598.977592 795.913174 
L 599.223658 794.135172 
L 599.961855 794.135172 
L 600.207921 792.357169 
L 600.946118 792.357169 
L 601.192184 793.93702 
L 601.930381 793.93702 
L 602.176447 795.714786 
L 603.898907 795.714786 
L 604.144973 793.93702 
L 605.867433 793.93702 
L 606.113499 790.381862 
L 606.851696 790.381862 
L 607.097762 790.185647 
L 607.835959 790.185647 
L 608.082025 791.767437 
L 608.820222 791.767437 
L 609.066288 793.349347 
L 609.804485 793.349347 
L 610.050551 800.067345 
L 610.788748 800.067345 
L 611.034814 801.844144 
L 611.773011 801.844144 
L 612.019077 803.620944 
L 612.757274 803.620944 
L 613.00334 805.397743 
L 613.741537 805.397743 
L 613.987603 810.340543 
L 615.710063 810.340543 
L 615.956129 815.477316 
L 616.694326 815.477316 
L 616.940392 819.029907 
L 617.678589 819.029907 
L 617.924654 829.303846 
L 618.662852 829.303846 
L 618.908917 837.992474 
L 619.647115 837.992474 
L 619.89318 839.578231 
L 620.631378 839.578231 
L 620.877443 844.715463 
L 621.615641 844.715463 
L 621.861706 844.526189 
L 622.599904 844.526189 
L 622.845969 847.888292 
L 623.584167 847.888292 
L 623.830232 849.663764 
L 624.56843 849.663764 
L 624.814495 858.163965 
L 625.552692 858.163965 
L 625.798758 863.301966 
L 626.536955 863.301966 
L 626.783021 868.440064 
L 628.505481 868.440064 
L 628.751547 870.215104 
L 630.474007 870.215104 
L 630.720073 873.578059 
L 632.442533 873.578059 
L 632.688599 875.353099 
L 634.411059 875.353099 
L 634.657125 880.491516 
L 635.395322 880.491516 
L 635.641388 878.716583 
L 636.379585 878.716583 
L 636.625651 876.941758 
L 637.363848 876.941758 
L 637.609914 887.219316 
L 638.348111 887.219316 
L 638.594177 885.444702 
L 639.332374 885.444702 
L 639.57844 890.583632 
L 640.316637 890.583632 
L 640.562703 888.809122 
L 641.3009 888.809122 
L 641.546966 897.31299 
L 642.285163 897.31299 
L 642.531229 904.226538 
L 644.253689 904.226538 
L 644.499755 911.139882 
L 645.237952 911.139882 
L 645.484017 916.279226 
L 646.222215 916.279226 
L 646.46828 921.41867 
L 647.206478 921.41867 
L 647.452543 924.784414 
L 648.190741 924.784414 
L 648.436806 928.331518 
L 649.175004 928.331518 
L 649.421069 933.470962 
L 650.159267 933.470962 
L 650.405332 938.610505 
L 651.14353 938.610505 
L 651.389595 941.976936 
L 654.096318 941.976839 
L 654.342384 940.203729 
L 660.001896 940.203729 
L 660.247962 943.570354 
L 660.986159 943.570354 
L 661.232225 943.390953 
L 661.970422 943.390953 
L 662.216488 948.530976 
L 662.954685 948.530976 
L 663.200751 953.671098 
L 663.938948 953.671098 
L 664.185014 957.038401 
L 664.923211 957.038401 
L 665.169277 960.405988 
L 665.907474 960.405988 
L 666.15354 963.773674 
L 666.891737 963.773674 
L 667.137803 965.368918 
L 667.876 965.368918 
L 668.122066 970.509712 
L 668.860263 970.509712 
L 669.106329 977.246589 
L 670.828789 977.246589 
L 671.074855 978.842764 
L 671.813052 978.842764 
L 672.059118 980.615213 
L 672.797315 980.615213 
L 673.04338 983.984028 
L 673.781578 983.984028 
L 674.027643 985.756295 
L 674.765841 985.756295 
L 675.011906 987.353124 
L 675.750104 987.353124 
L 675.996169 995.864044 
L 676.734367 995.864044 
L 676.980432 1001.00578 
L 677.71863 1001.00578 
L 677.964695 1011.289518 
L 678.702893 1011.289518 
L 678.948958 1014.659617 
L 679.687155 1014.659617 
L 679.933221 1019.801706 
L 680.671418 1019.801706 
L 680.917484 1026.715423 
L 681.655681 1026.715423 
L 681.901747 1031.857592 
L 683.624207 1031.857592 
L 683.870273 1036.999862 
L 685.592733 1036.999862 
L 685.838799 1040.37094 
L 686.576996 1040.37094 
L 686.823062 1038.599564 
L 687.561259 1038.599564 
L 687.807325 1041.970827 
L 688.545522 1041.970827 
L 688.791588 1043.742118 
L 689.529785 1043.742118 
L 689.775851 1047.113551 
L 690.514048 1047.113551 
L 690.760114 1045.342259 
L 691.498311 1045.342259 
L 691.744377 1055.627976 
L 692.482574 1055.627976 
L 692.72864 1055.457697 
L 693.466837 1055.457697 
L 693.712903 1069.11664 
L 694.4511 1069.11664 
L 694.697166 1075.862003 
L 695.435363 1075.862003 
L 695.681429 1077.464109 
L 696.419626 1077.464109 
L 696.665692 1087.752001 
L 697.403889 1087.752001 
L 697.649955 1092.72853 
L 698.388152 1092.72853 
L 698.634218 1094.499046 
L 699.372415 1094.499046 
L 699.618481 1099.64331 
L 700.356678 1099.64331 
L 700.602743 1103.017298 
L 701.340941 1103.017298 
L 701.587006 1108.161819 
L 702.325204 1108.161819 
L 702.571269 1118.451122 
L 703.309467 1118.451122 
L 703.555532 1125.200604 
L 704.29373 1125.200604 
L 704.539795 1132.115576 
L 705.277993 1132.115576 
L 705.524058 1140.635928 
L 706.262256 1140.635928 
L 706.508321 1150.926558 
L 707.246518 1150.926558 
L 707.492584 1149.156852 
L 708.230781 1149.156852 
L 708.476847 1157.678243 
L 709.215044 1157.678243 
L 709.46111 1155.908613 
L 711.18357 1155.908613 
L 711.429636 1159.447647 
L 713.152096 1159.447647 
L 713.398162 1163.487011 
L 715.120622 1163.487011 
L 715.366688 1165.295628 
L 716.104885 1165.295628 
L 716.350951 1168.672328 
L 717.089148 1168.672328 
L 717.335214 1166.863712 
L 718.073411 1166.863712 
L 718.319477 1170.240708 
L 719.057674 1170.240708 
L 719.30374 1175.426343 
L 720.041937 1175.426343 
L 720.288003 1182.420301 
L 721.0262 1182.420301 
L 721.272266 1187.606079 
L 722.010463 1187.606079 
L 722.256529 1183.990013 
L 724.963252 1183.990013 
L 725.209318 1182.18198 
L 725.947515 1182.18198 
L 726.193581 1183.989869 
L 726.931778 1183.989869 
L 727.177843 1189.175648 
L 728.900304 1189.175648 
L 729.146369 1194.361567 
L 729.884567 1194.361567 
L 730.130632 1202.003614 
L 730.86883 1202.003614 
L 731.114895 1210.607486 
L 731.853093 1210.607486 
L 732.099158 1215.832381 
L 732.837356 1215.832381 
L 733.083421 1217.677062 
L 733.821619 1217.677062 
L 734.067684 1215.832381 
L 734.805881 1215.832381 
L 735.051947 1217.676857 
L 735.790144 1217.676857 
L 736.03621 1219.521249 
L 736.774407 1219.521249 
L 737.020473 1221.057034 
L 737.75867 1221.057034 
L 738.004736 1227.818607 
L 738.742933 1227.818607 
L 738.988999 1231.2 
L 739.973262 1231.199799 
L 739.973262 1231.199799 
" clip-path="url(#p5f78c92ca3)" style="fill: none; stroke: #0000ff; stroke-width: 1.5; stroke-linecap: square"/>
   </g>
   <g id="patch_3">
    <path d="M 270 1281.6 
L 270 172.8 
" style="fill: none; stroke: #000000; stroke-width: 0.8; stroke-linejoin: miter; stroke-linecap: square"/>
   </g>
   <g id="patch_4">
    <path d="M 762.352941 1281.6 
L 762.352941 172.8 
" style="fill: none; stroke: #000000; stroke-width: 0.8; stroke-linejoin: miter; stroke-linecap: square"/>
   </g>
   <g id="patch_5">
    <path d="M 270 1281.6 
L 762.352941 1281.6 
" style="fill: none; stroke: #000000; stroke-width: 0.8; stroke-linejoin: miter; stroke-linecap: square"/>
   </g>
   <g id="patch_6">
    <path d="M 270 172.8 
L 762.352941 172.8 
" style="fill: none; stroke: #000000; stroke-width: 0.8; stroke-linejoin: miter; stroke-linecap: square"/>
   </g>
   <g id="legend_1">
    <g id="patch_7">
     <path d="M 671.310754 195.478125 
L 755.352941 195.478125 
Q 757.352941 195.478125 757.352941 193.478125 
L 757.352941 179.8 
Q 757.352941 177.8 755.352941 177.8 
L 671.310754 177.8 
Q 669.310754 177.8 669.310754 179.8 
L 669.310754 193.478125 
Q 669.310754 195.478125 671.310754 195.478125 
z
" style="fill: #ffffff; opacity: 0.8; stroke: #cccccc; stroke-linejoin: miter"/>
    </g>
    <g id="line2d_17">
     <path d="M 673.310754 185.898437 
L 683.310754 185.898437 
L 693.310754 185.898437 
" style="fill: none; stroke: #0000ff; stroke-width: 1.5; stroke-linecap: square"/>
    </g>
    <g id="text_16">
     <!-- O1 reward -->
     <g transform="translate(701.310754 189.398437) scale(0.1 -0.1)">
      <defs>
       <path id="DejaVuSans-4f" d="M 2522 4238 
Q 1834 4238 1429 3725 
Q 1025 3213 1025 2328 
Q 1025 1447 1429 934 
Q 1834 422 2522 422 
Q 3209 422 3611 934 
Q 4013 1447 4013 2328 
Q 4013 3213 3611 3725 
Q 3209 4238 2522 4238 
z
M 2522 4750 
Q 3503 4750 4090 4092 
Q 4678 3434 4678 2328 
Q 4678 1225 4090 567 
Q 3503 -91 2522 -91 
Q 1538 -91 948 565 
Q 359 1222 359 2328 
Q 359 3434 948 4092 
Q 1538 4750 2522 4750 
z
" transform="scale(0.015625)"/>
       <path id="DejaVuSans-20" transform="scale(0.015625)"/>
       <path id="DejaVuSans-72" d="M 2631 2963 
Q 2534 3019 2420 3045 
Q 2306 3072 2169 3072 
Q 1681 3072 1420 2755 
Q 1159 2438 1159 1844 
L 1159 0 
L 581 0 
L 581 3500 
L 1159 3500 
L 1159 2956 
Q 1341 3275 1631 3429 
Q 1922 3584 2338 3584 
Q 2397 3584 2469 3576 
Q 2541 3569 2628 3553 
L 2631 2963 
z
" transform="scale(0.015625)"/>
       <path id="DejaVuSans-65" d="M 3597 1894 
L 3597 1613 
L 953 1613 
Q 991 1019 1311 708 
Q 1631 397 2203 397 
Q 2534 397 2845 478 
Q 3156 559 3463 722 
L 3463 178 
Q 3153 47 2828 -22 
Q 2503 -91 2169 -91 
Q 1331 -91 842 396 
Q 353 884 353 1716 
Q 353 2575 817 3079 
Q 1281 3584 2069 3584 
Q 2775 3584 3186 3129 
Q 3597 2675 3597 1894 
z
M 3022 2063 
Q 3016 2534 2758 2815 
Q 2500 3097 2075 3097 
Q 1594 3097 1305 2825 
Q 1016 2553 972 2059 
L 3022 2063 
z
" transform="scale(0.015625)"/>
       <path id="DejaVuSans-77" d="M 269 3500 
L 844 3500 
L 1563 769 
L 2278 3500 
L 2956 3500 
L 3675 769 
L 4391 3500 
L 4966 3500 
L 4050 0 
L 3372 0 
L 2619 2869 
L 1863 0 
L 1184 0 
L 269 3500 
z
" transform="scale(0.015625)"/>
       <path id="DejaVuSans-61" d="M 2194 1759 
Q 1497 1759 1228 1600 
Q 959 1441 959 1056 
Q 959 750 1161 570 
Q 1363 391 1709 391 
Q 2188 391 2477 730 
Q 2766 1069 2766 1631 
L 2766 1759 
L 2194 1759 
z
M 3341 1997 
L 3341 0 
L 2766 0 
L 2766 531 
Q 2569 213 2275 61 
Q 1981 -91 1556 -91 
Q 1019 -91 701 211 
Q 384 513 384 1019 
Q 384 1609 779 1909 
Q 1175 2209 1959 2209 
L 2766 2209 
L 2766 2266 
Q 2766 2663 2505 2880 
Q 2244 3097 1772 3097 
Q 1472 3097 1187 3025 
Q 903 2953 641 2809 
L 641 3341 
Q 956 3463 1253 3523 
Q 1550 3584 1831 3584 
Q 2591 3584 2966 3190 
Q 3341 2797 3341 1997 
z
" transform="scale(0.015625)"/>
       <path id="DejaVuSans-64" d="M 2906 2969 
L 2906 4863 
L 3481 4863 
L 3481 0 
L 2906 0 
L 2906 525 
Q 2725 213 2448 61 
Q 2172 -91 1784 -91 
Q 1150 -91 751 415 
Q 353 922 353 1747 
Q 353 2572 751 3078 
Q 1150 3584 1784 3584 
Q 2172 3584 2448 3432 
Q 2725 3281 2906 2969 
z
M 947 1747 
Q 947 1113 1208 752 
Q 1469 391 1925 391 
Q 2381 391 2643 752 
Q 2906 1113 2906 1747 
Q 2906 2381 2643 2742 
Q 2381 3103 1925 3103 
Q 1469 3103 1208 2742 
Q 947 2381 947 1747 
z
" transform="scale(0.015625)"/>
      </defs>
      <use xlink:href="#DejaVuSans-4f"/>
      <use xlink:href="#DejaVuSans-31" x="78.710938"/>
      <use xlink:href="#DejaVuSans-20" x="142.333984"/>
      <use xlink:href="#DejaVuSans-72" x="174.121094"/>
      <use xlink:href="#DejaVuSans-65" x="212.984375"/>
      <use xlink:href="#DejaVuSans-77" x="274.507812"/>
      <use xlink:href="#DejaVuSans-61" x="356.294922"/>
      <use xlink:href="#DejaVuSans-72" x="417.574219"/>
      <use xlink:href="#DejaVuSans-64" x="456.9375"/>
     </g>
    </g>
   </g>
  </g>
  <g id="axes_2">
   <g id="patch_8">
    <path d="M 860.823529 1281.6 
L 1353.176471 1281.6 
L 1353.176471 172.8 
L 860.823529 172.8 
z
" style="fill: #ffffff"/>
   </g>
   <g id="matplotlib.axis_3">
    <g id="xtick_9">
     <g id="line2d_18">
      <g>
       <use xlink:href="#m845c30f70e" x="882.957143" y="1281.6" style="stroke: #000000; stroke-width: 0.8"/>
      </g>
     </g>
     <g id="text_17">
      <!-- 0 -->
      <g transform="translate(879.775893 1296.198437) scale(0.1 -0.1)">
       <use xlink:href="#DejaVuSans-30"/>
      </g>
     </g>
    </g>
    <g id="xtick_10">
     <g id="line2d_19">
      <g>
       <use xlink:href="#m845c30f70e" x="944.473578" y="1281.6" style="stroke: #000000; stroke-width: 0.8"/>
      </g>
     </g>
     <g id="text_18">
      <!-- 250 -->
      <g transform="translate(934.929828 1296.198437) scale(0.1 -0.1)">
       <use xlink:href="#DejaVuSans-32"/>
       <use xlink:href="#DejaVuSans-35" x="63.623047"/>
       <use xlink:href="#DejaVuSans-30" x="127.246094"/>
      </g>
     </g>
    </g>
    <g id="xtick_11">
     <g id="line2d_20">
      <g>
       <use xlink:href="#m845c30f70e" x="1005.990013" y="1281.6" style="stroke: #000000; stroke-width: 0.8"/>
      </g>
     </g>
     <g id="text_19">
      <!-- 500 -->
      <g transform="translate(996.446263 1296.198437) scale(0.1 -0.1)">
       <use xlink:href="#DejaVuSans-35"/>
       <use xlink:href="#DejaVuSans-30" x="63.623047"/>
       <use xlink:href="#DejaVuSans-30" x="127.246094"/>
      </g>
     </g>
    </g>
    <g id="xtick_12">
     <g id="line2d_21">
      <g>
       <use xlink:href="#m845c30f70e" x="1067.506449" y="1281.6" style="stroke: #000000; stroke-width: 0.8"/>
      </g>
     </g>
     <g id="text_20">
      <!-- 750 -->
      <g transform="translate(1057.962699 1296.198437) scale(0.1 -0.1)">
       <use xlink:href="#DejaVuSans-37"/>
       <use xlink:href="#DejaVuSans-35" x="63.623047"/>
       <use xlink:href="#DejaVuSans-30" x="127.246094"/>
      </g>
     </g>
    </g>
    <g id="xtick_13">
     <g id="line2d_22">
      <g>
       <use xlink:href="#m845c30f70e" x="1129.022884" y="1281.6" style="stroke: #000000; stroke-width: 0.8"/>
      </g>
     </g>
     <g id="text_21">
      <!-- 1000 -->
      <g transform="translate(1116.297884 1296.198437) scale(0.1 -0.1)">
       <use xlink:href="#DejaVuSans-31"/>
       <use xlink:href="#DejaVuSans-30" x="63.623047"/>
       <use xlink:href="#DejaVuSans-30" x="127.246094"/>
       <use xlink:href="#DejaVuSans-30" x="190.869141"/>
      </g>
     </g>
    </g>
    <g id="xtick_14">
     <g id="line2d_23">
      <g>
       <use xlink:href="#m845c30f70e" x="1190.539319" y="1281.6" style="stroke: #000000; stroke-width: 0.8"/>
      </g>
     </g>
     <g id="text_22">
      <!-- 1250 -->
      <g transform="translate(1177.814319 1296.198437) scale(0.1 -0.1)">
       <use xlink:href="#DejaVuSans-31"/>
       <use xlink:href="#DejaVuSans-32" x="63.623047"/>
       <use xlink:href="#DejaVuSans-35" x="127.246094"/>
       <use xlink:href="#DejaVuSans-30" x="190.869141"/>
      </g>
     </g>
    </g>
    <g id="xtick_15">
     <g id="line2d_24">
      <g>
       <use xlink:href="#m845c30f70e" x="1252.055754" y="1281.6" style="stroke: #000000; stroke-width: 0.8"/>
      </g>
     </g>
     <g id="text_23">
      <!-- 1500 -->
      <g transform="translate(1239.330754 1296.198437) scale(0.1 -0.1)">
       <use xlink:href="#DejaVuSans-31"/>
       <use xlink:href="#DejaVuSans-35" x="63.623047"/>
       <use xlink:href="#DejaVuSans-30" x="127.246094"/>
       <use xlink:href="#DejaVuSans-30" x="190.869141"/>
      </g>
     </g>
    </g>
    <g id="xtick_16">
     <g id="line2d_25">
      <g>
       <use xlink:href="#m845c30f70e" x="1313.57219" y="1281.6" style="stroke: #000000; stroke-width: 0.8"/>
      </g>
     </g>
     <g id="text_24">
      <!-- 1750 -->
      <g transform="translate(1300.84719 1296.198437) scale(0.1 -0.1)">
       <use xlink:href="#DejaVuSans-31"/>
       <use xlink:href="#DejaVuSans-37" x="63.623047"/>
       <use xlink:href="#DejaVuSans-35" x="127.246094"/>
       <use xlink:href="#DejaVuSans-30" x="190.869141"/>
      </g>
     </g>
    </g>
   </g>
   <g id="matplotlib.axis_4">
    <g id="ytick_8">
     <g id="line2d_26">
      <g>
       <use xlink:href="#mcbe8d62cfa" x="860.823529" y="1231.2" style="stroke: #000000; stroke-width: 0.8"/>
      </g>
     </g>
     <g id="text_25">
      <!-- 0 -->
      <g transform="translate(847.461029 1234.999219) scale(0.1 -0.1)">
       <use xlink:href="#DejaVuSans-30"/>
      </g>
     </g>
    </g>
    <g id="ytick_9">
     <g id="line2d_27">
      <g>
       <use xlink:href="#mcbe8d62cfa" x="860.823529" y="1046.816829" style="stroke: #000000; stroke-width: 0.8"/>
      </g>
     </g>
     <g id="text_26">
      <!-- 20 -->
      <g transform="translate(841.098529 1050.616048) scale(0.1 -0.1)">
       <use xlink:href="#DejaVuSans-32"/>
       <use xlink:href="#DejaVuSans-30" x="63.623047"/>
      </g>
     </g>
    </g>
    <g id="ytick_10">
     <g id="line2d_28">
      <g>
       <use xlink:href="#mcbe8d62cfa" x="860.823529" y="862.433658" style="stroke: #000000; stroke-width: 0.8"/>
      </g>
     </g>
     <g id="text_27">
      <!-- 40 -->
      <g transform="translate(841.098529 866.232876) scale(0.1 -0.1)">
       <defs>
        <path id="DejaVuSans-34" d="M 2419 4116 
L 825 1625 
L 2419 1625 
L 2419 4116 
z
M 2253 4666 
L 3047 4666 
L 3047 1625 
L 3713 1625 
L 3713 1100 
L 3047 1100 
L 3047 0 
L 2419 0 
L 2419 1100 
L 313 1100 
L 313 1709 
L 2253 4666 
z
" transform="scale(0.015625)"/>
       </defs>
       <use xlink:href="#DejaVuSans-34"/>
       <use xlink:href="#DejaVuSans-30" x="63.623047"/>
      </g>
     </g>
    </g>
    <g id="ytick_11">
     <g id="line2d_29">
      <g>
       <use xlink:href="#mcbe8d62cfa" x="860.823529" y="678.050487" style="stroke: #000000; stroke-width: 0.8"/>
      </g>
     </g>
     <g id="text_28">
      <!-- 60 -->
      <g transform="translate(841.098529 681.849705) scale(0.1 -0.1)">
       <defs>
        <path id="DejaVuSans-36" d="M 2113 2584 
Q 1688 2584 1439 2293 
Q 1191 2003 1191 1497 
Q 1191 994 1439 701 
Q 1688 409 2113 409 
Q 2538 409 2786 701 
Q 3034 994 3034 1497 
Q 3034 2003 2786 2293 
Q 2538 2584 2113 2584 
z
M 3366 4563 
L 3366 3988 
Q 3128 4100 2886 4159 
Q 2644 4219 2406 4219 
Q 1781 4219 1451 3797 
Q 1122 3375 1075 2522 
Q 1259 2794 1537 2939 
Q 1816 3084 2150 3084 
Q 2853 3084 3261 2657 
Q 3669 2231 3669 1497 
Q 3669 778 3244 343 
Q 2819 -91 2113 -91 
Q 1303 -91 875 529 
Q 447 1150 447 2328 
Q 447 3434 972 4092 
Q 1497 4750 2381 4750 
Q 2619 4750 2861 4703 
Q 3103 4656 3366 4563 
z
" transform="scale(0.015625)"/>
       </defs>
       <use xlink:href="#DejaVuSans-36"/>
       <use xlink:href="#DejaVuSans-30" x="63.623047"/>
      </g>
     </g>
    </g>
    <g id="ytick_12">
     <g id="line2d_30">
      <g>
       <use xlink:href="#mcbe8d62cfa" x="860.823529" y="493.667315" style="stroke: #000000; stroke-width: 0.8"/>
      </g>
     </g>
     <g id="text_29">
      <!-- 80 -->
      <g transform="translate(841.098529 497.466534) scale(0.1 -0.1)">
       <defs>
        <path id="DejaVuSans-38" d="M 2034 2216 
Q 1584 2216 1326 1975 
Q 1069 1734 1069 1313 
Q 1069 891 1326 650 
Q 1584 409 2034 409 
Q 2484 409 2743 651 
Q 3003 894 3003 1313 
Q 3003 1734 2745 1975 
Q 2488 2216 2034 2216 
z
M 1403 2484 
Q 997 2584 770 2862 
Q 544 3141 544 3541 
Q 544 4100 942 4425 
Q 1341 4750 2034 4750 
Q 2731 4750 3128 4425 
Q 3525 4100 3525 3541 
Q 3525 3141 3298 2862 
Q 3072 2584 2669 2484 
Q 3125 2378 3379 2068 
Q 3634 1759 3634 1313 
Q 3634 634 3220 271 
Q 2806 -91 2034 -91 
Q 1263 -91 848 271 
Q 434 634 434 1313 
Q 434 1759 690 2068 
Q 947 2378 1403 2484 
z
M 1172 3481 
Q 1172 3119 1398 2916 
Q 1625 2713 2034 2713 
Q 2441 2713 2670 2916 
Q 2900 3119 2900 3481 
Q 2900 3844 2670 4047 
Q 2441 4250 2034 4250 
Q 1625 4250 1398 4047 
Q 1172 3844 1172 3481 
z
" transform="scale(0.015625)"/>
       </defs>
       <use xlink:href="#DejaVuSans-38"/>
       <use xlink:href="#DejaVuSans-30" x="63.623047"/>
      </g>
     </g>
    </g>
    <g id="ytick_13">
     <g id="line2d_31">
      <g>
       <use xlink:href="#mcbe8d62cfa" x="860.823529" y="309.284144" style="stroke: #000000; stroke-width: 0.8"/>
      </g>
     </g>
     <g id="text_30">
      <!-- 100 -->
      <g transform="translate(834.736029 313.083363) scale(0.1 -0.1)">
       <use xlink:href="#DejaVuSans-31"/>
       <use xlink:href="#DejaVuSans-30" x="63.623047"/>
       <use xlink:href="#DejaVuSans-30" x="127.246094"/>
      </g>
     </g>
    </g>
   </g>
   <g id="line2d_32">
    <path d="M 883.203209 1231.2 
L 894.522233 1231.131841 
L 894.768298 1227.417631 
L 895.506496 1227.417631 
L 895.752561 1228.873323 
L 896.490759 1228.873323 
L 896.736824 1228.007623 
L 897.475022 1228.007623 
L 897.721087 1229.71424 
L 898.459284 1229.71424 
L 898.70535 1222.046782 
L 899.443547 1222.046782 
L 899.689613 1210.424044 
L 900.42781 1210.424044 
L 900.673876 1204.641977 
L 901.412073 1204.641977 
L 901.658139 1189.411496 
L 902.396336 1189.411496 
L 902.642402 1175.374783 
L 907.317651 1175.374783 
L 907.563717 1169.282626 
L 910.27044 1169.282626 
L 910.516506 1162.785232 
L 913.223229 1162.785232 
L 913.469295 1153.932645 
L 914.207492 1153.932645 
L 914.453558 1151.44691 
L 915.191755 1151.44691 
L 915.437821 1148.711654 
L 917.160281 1148.711654 
L 917.406347 1131.921851 
L 918.144544 1131.921851 
L 918.39061 1105.518481 
L 919.128807 1105.518481 
L 919.374872 1098.484875 
L 920.11307 1098.484875 
L 920.359135 1084.940517 
L 921.097333 1084.940517 
L 921.343398 1052.153159 
L 922.081596 1052.153159 
L 922.327661 1029.333105 
L 932.908488 1029.333105 
L 933.154554 1022.604415 
L 935.861277 1022.604415 
L 936.107343 1015.974609 
L 936.84554 1015.974609 
L 937.091606 1009.275487 
L 937.829803 1009.275487 
L 938.075869 1002.508825 
L 939.798329 1002.508825 
L 940.044395 1000.120512 
L 943.735381 1000.120512 
L 943.981447 997.668016 
L 944.719644 997.668016 
L 944.96571 981.387798 
L 945.703907 981.387798 
L 945.949973 968.954878 
L 946.68817 968.954878 
L 946.934235 941.400997 
L 947.672433 941.400997 
L 947.918498 917.161164 
L 948.656696 917.161164 
L 948.902761 898.055514 
L 949.640959 898.055514 
L 949.887024 874.561071 
L 950.625222 874.561071 
L 950.871287 846.025939 
L 951.609485 846.025939 
L 951.85555 833.264268 
L 952.593748 833.264268 
L 952.839813 815.590133 
L 955.546536 815.590133 
L 955.792602 811.600033 
L 956.530799 811.600033 
L 956.776865 803.349373 
L 957.515062 803.349373 
L 957.761128 809.043284 
L 958.499325 809.043284 
L 958.745391 811.751508 
L 959.483588 811.751508 
L 959.729654 817.377355 
L 960.467851 817.377355 
L 960.713917 820.281284 
L 961.452114 820.281284 
L 961.69818 822.92004 
L 962.436377 822.92004 
L 962.682443 814.790651 
L 964.404903 814.790651 
L 964.650969 809.262491 
L 965.389166 809.262491 
L 965.635232 806.715615 
L 966.373429 806.715615 
L 966.619495 798.729055 
L 967.357692 798.729055 
L 967.603758 782.974756 
L 968.341955 782.974756 
L 968.588021 775.431694 
L 969.326218 775.431694 
L 969.572284 768.874 
L 970.310481 768.874 
L 970.556547 764.628613 
L 971.294744 764.628613 
L 971.54081 757.655607 
L 972.279007 757.655607 
L 972.525073 764.559747 
L 973.26327 764.559747 
L 973.509336 780.026647 
L 974.247533 780.026647 
L 974.493598 775.178651 
L 975.231796 775.178651 
L 975.477861 761.877495 
L 976.216059 761.877495 
L 976.462124 750.591888 
L 977.200322 750.591888 
L 977.446387 752.221609 
L 978.184585 752.221609 
L 978.43065 741.503452 
L 979.168848 741.503452 
L 979.414913 732.293036 
L 980.153111 732.293036 
L 980.399176 730.800141 
L 982.121636 730.745555 
L 982.367702 732.194858 
L 983.105899 732.194858 
L 983.351965 729.358847 
L 984.090162 729.358847 
L 984.336228 720.505975 
L 985.074425 720.505975 
L 985.320491 721.835364 
L 986.058688 721.835364 
L 986.304754 718.823493 
L 987.042951 718.823493 
L 987.289017 710.197656 
L 988.027214 710.197656 
L 988.27328 704.656737 
L 989.011477 704.656737 
L 989.257543 699.160434 
L 989.99574 699.160434 
L 990.241806 696.167655 
L 990.980003 696.167655 
L 991.226069 694.390808 
L 992.948529 694.390808 
L 993.194595 705.137348 
L 993.932792 705.137348 
L 994.178858 710.430512 
L 994.917055 710.430512 
L 995.163121 708.54733 
L 995.901318 708.54733 
L 996.147384 712.588415 
L 996.885581 712.588415 
L 997.131647 713.589544 
L 997.869844 713.589544 
L 998.11591 724.544854 
L 998.854107 724.544854 
L 999.100173 726.636512 
L 999.83837 726.636512 
L 1000.084436 735.389978 
L 1000.822633 735.389978 
L 1001.068698 734.963012 
L 1001.806896 734.963012 
L 1002.052961 726.435662 
L 1002.791159 726.435662 
L 1003.037224 720.978228 
L 1003.775422 720.978228 
L 1004.021487 720.171396 
L 1004.759685 720.171396 
L 1005.00575 715.595727 
L 1005.743948 715.595727 
L 1005.990013 708.050301 
L 1006.728211 708.050301 
L 1006.974276 711.072565 
L 1007.712474 711.072565 
L 1007.958539 714.089808 
L 1008.696736 714.089808 
L 1008.942802 713.37128 
L 1009.680999 713.37128 
L 1009.927065 710.343944 
L 1010.665262 710.343944 
L 1010.911328 702.222223 
L 1011.649525 702.222223 
L 1011.895591 697.182873 
L 1013.618051 697.182873 
L 1013.864117 692.868435 
L 1014.602314 692.868435 
L 1014.84838 697.753104 
L 1015.586577 697.753104 
L 1015.832643 706.145792 
L 1016.57084 706.145792 
L 1016.816906 708.628977 
L 1017.555103 708.628977 
L 1017.801169 708.126517 
L 1018.539366 708.126517 
L 1018.785432 707.150213 
L 1019.523629 707.150213 
L 1019.769695 709.266352 
L 1020.507892 709.266352 
L 1020.753958 701.51908 
L 1021.492155 701.51908 
L 1021.738221 682.49878 
L 1022.476418 682.49878 
L 1022.722484 671.28669 
L 1023.460681 671.28669 
L 1023.706747 656.541719 
L 1024.444944 656.541719 
L 1024.69101 641.701249 
L 1025.429207 641.701249 
L 1025.675273 627.644607 
L 1026.41347 627.644607 
L 1026.659536 620.303781 
L 1027.397733 620.303781 
L 1027.643799 610.026633 
L 1028.381996 610.026633 
L 1028.628061 596.177124 
L 1029.366259 596.177124 
L 1029.612324 589.336766 
L 1030.350522 589.336766 
L 1030.596587 579.185544 
L 1031.334785 579.185544 
L 1031.58085 582.701944 
L 1032.319048 582.701944 
L 1032.565113 576.645737 
L 1033.303311 576.645737 
L 1033.549376 586.430905 
L 1034.287574 586.430905 
L 1034.533639 586.706798 
L 1035.271836 586.706798 
L 1035.517902 586.935191 
L 1036.256099 586.935191 
L 1036.502165 584.01365 
L 1038.224625 584.115048 
L 1038.470691 584.300189 
L 1039.208888 584.300189 
L 1039.454954 593.817572 
L 1040.193151 593.817572 
L 1040.439217 600.007508 
L 1041.177414 600.007508 
L 1041.42348 603.035674 
L 1042.161677 603.035674 
L 1042.407743 600.002529 
L 1043.14594 600.002529 
L 1043.392006 596.847109 
L 1044.130203 596.847109 
L 1044.376269 590.671277 
L 1045.114466 590.671277 
L 1045.360532 584.565976 
L 1047.082992 584.553724 
L 1047.329058 587.626247 
L 1048.067255 587.626247 
L 1048.313321 584.657103 
L 1049.051518 584.657103 
L 1049.297584 581.705513 
L 1051.020044 581.812686 
L 1051.26611 593.826023 
L 1052.004307 593.826023 
L 1052.250373 596.913288 
L 1052.98857 596.913288 
L 1053.234636 588.632507 
L 1053.972833 588.632507 
L 1054.218899 591.766662 
L 1054.957096 591.766662 
L 1055.203162 595.146587 
L 1055.941359 595.146587 
L 1056.187424 592.248755 
L 1056.925622 592.248755 
L 1057.171687 592.517627 
L 1057.909885 592.517627 
L 1058.15595 596.309856 
L 1058.894148 596.309856 
L 1059.140213 597.344793 
L 1060.862674 597.346768 
L 1061.108739 588.842973 
L 1061.846937 588.842973 
L 1062.093002 583.195486 
L 1062.831199 583.195486 
L 1063.077265 580.374553 
L 1063.815462 580.374553 
L 1064.061528 574.742228 
L 1064.799725 574.742228 
L 1065.045791 571.930822 
L 1065.783988 571.930822 
L 1066.030054 569.121241 
L 1066.768251 569.121241 
L 1067.014317 563.507445 
L 1067.752514 563.507445 
L 1067.99858 557.900626 
L 1068.736777 557.900626 
L 1068.982843 552.300589 
L 1069.72104 552.300589 
L 1069.967106 549.503078 
L 1070.705303 549.503078 
L 1070.951369 541.135746 
L 1071.689566 541.135746 
L 1071.935632 535.575559 
L 1072.673829 535.575559 
L 1072.919895 532.797855 
L 1074.642355 532.797855 
L 1074.888421 530.021724 
L 1075.626618 530.021724 
L 1075.872684 521.711708 
L 1076.610881 521.711708 
L 1076.856947 513.431976 
L 1077.595144 513.431976 
L 1077.84121 505.185768 
L 1078.579407 505.185768 
L 1078.825473 499.705373 
L 1079.56367 499.705373 
L 1079.809736 491.511895 
L 1080.547933 491.511895 
L 1080.793999 500.970673 
L 1081.532196 500.970673 
L 1081.778262 508.387892 
L 1082.516459 508.387892 
L 1082.762525 510.46375 
L 1083.500722 510.46375 
L 1083.746787 512.604993 
L 1084.484985 512.604993 
L 1084.73105 519.403097 
L 1086.453511 519.418985 
L 1086.699576 517.307003 
L 1087.437774 517.307003 
L 1087.683839 520.732974 
L 1088.422037 520.732974 
L 1088.668102 517.999761 
L 1089.4063 517.999761 
L 1089.652365 519.728755 
L 1090.390562 519.728755 
L 1090.636628 509.361728 
L 1091.374825 509.361728 
L 1091.620891 499.035085 
L 1092.359088 499.035085 
L 1092.605154 488.745549 
L 1093.343351 488.745549 
L 1093.589417 481.063523 
L 1094.327614 481.063523 
L 1094.57368 473.411033 
L 1095.311877 473.411033 
L 1095.557943 468.321692 
L 1096.29614 468.321692 
L 1096.542206 460.707915 
L 1097.280403 460.707915 
L 1097.526469 458.175536 
L 1098.264666 458.175536 
L 1098.510732 453.120149 
L 1099.248929 453.120149 
L 1099.494995 448.077191 
L 1100.233192 448.077191 
L 1100.479258 449.107396 
L 1101.217455 449.107396 
L 1101.463521 457.691677 
L 1103.185981 457.688782 
L 1103.432047 456.245507 
L 1105.154507 456.245507 
L 1105.400573 452.305616 
L 1108.107296 452.305616 
L 1108.353362 454.806275 
L 1111.060085 454.806275 
L 1111.30615 452.30842 
L 1113.028611 452.30842 
L 1113.274676 453.397081 
L 1114.012874 453.397081 
L 1114.258939 456.987319 
L 1114.997137 456.987319 
L 1115.243202 455.621602 
L 1115.9814 455.621602 
L 1116.227465 461.705285 
L 1116.965663 461.705285 
L 1117.211728 467.593307 
L 1117.949925 467.593307 
L 1118.195991 471.213259 
L 1118.934188 471.213259 
L 1119.180254 474.833242 
L 1119.918451 474.833242 
L 1120.164517 472.371363 
L 1120.902714 472.371363 
L 1121.14878 467.452389 
L 1121.886977 467.452389 
L 1122.133043 462.543789 
L 1122.87124 462.543789 
L 1123.117306 455.194265 
L 1123.855503 455.194265 
L 1124.101569 452.748581 
L 1124.839766 452.748581 
L 1125.085832 450.305444 
L 1125.824029 450.305444 
L 1126.070095 447.86476 
L 1126.808292 447.86476 
L 1127.054358 445.4265 
L 1128.776818 445.4265 
L 1129.022884 440.555852 
L 1129.761081 440.555852 
L 1130.007147 438.12345 
L 1130.745344 438.12345 
L 1130.99141 440.554786 
L 1131.729607 440.554786 
L 1131.975673 441.796024 
L 1132.71387 441.796024 
L 1132.959936 440.616462 
L 1133.698133 440.616462 
L 1133.944199 438.193362 
L 1134.682396 438.193362 
L 1134.928462 440.615421 
L 1135.666659 440.615421 
L 1135.912725 438.195677 
L 1136.650922 438.195677 
L 1136.896988 435.778381 
L 1137.635185 435.778381 
L 1137.88125 428.540388 
L 1138.619448 428.540388 
L 1138.865513 429.825147 
L 1139.603711 429.825147 
L 1139.849776 422.616443 
L 1140.587974 422.616443 
L 1140.834039 413.032201 
L 1141.572237 413.032201 
L 1141.818302 410.6416 
L 1142.5565 410.6416 
L 1142.802565 405.867118 
L 1143.540763 405.867118 
L 1143.786828 398.715598 
L 1144.525026 398.715598 
L 1144.771091 393.957901 
L 1145.509288 393.957901 
L 1145.755354 389.20627 
L 1146.493551 389.20627 
L 1146.739617 379.72724 
L 1147.477814 379.72724 
L 1147.72388 372.637814 
L 1148.462077 372.637814 
L 1148.708143 367.918202 
L 1149.44634 367.918202 
L 1149.692406 364.588285 
L 1150.430603 364.588285 
L 1150.676669 363.623246 
L 1151.414866 363.623246 
L 1151.660932 367.370011 
L 1152.399129 367.370011 
L 1152.645195 365.477446 
L 1153.383392 365.477446 
L 1153.629458 362.195476 
L 1154.367655 362.195476 
L 1154.613721 365.950158 
L 1156.336181 365.950158 
L 1156.582247 365.030037 
L 1157.320444 365.030037 
L 1157.56651 364.114861 
L 1158.304707 364.114861 
L 1158.550773 361.777291 
L 1159.28897 361.777291 
L 1159.535036 359.441548 
L 1162.241759 359.441548 
L 1162.487825 361.775303 
L 1163.226022 361.775303 
L 1163.472088 360.882451 
L 1164.210285 360.882451 
L 1164.456351 359.99531 
L 1165.194548 359.99531 
L 1165.440613 357.666922 
L 1166.178811 357.666922 
L 1166.424876 355.340306 
L 1168.147337 355.340306 
L 1168.393402 357.664975 
L 1169.1316 357.664975 
L 1169.377665 353.019421 
L 1170.115863 353.019421 
L 1170.361928 350.69853 
L 1171.100126 350.69853 
L 1171.346191 346.059489 
L 1173.068651 346.059489 
L 1173.314717 343.742318 
L 1174.052914 343.742318 
L 1174.29898 339.112348 
L 1175.037177 339.112348 
L 1175.283243 336.799541 
L 1176.02144 336.799541 
L 1176.267506 334.488589 
L 1177.005703 334.488589 
L 1177.251769 332.179348 
L 1177.989966 332.179348 
L 1178.236032 327.566089 
L 1178.974229 327.566089 
L 1179.220295 329.054652 
L 1179.958492 329.054652 
L 1180.204558 329.750527 
L 1180.942755 329.750527 
L 1181.188821 328.952497 
L 1181.927018 328.952497 
L 1182.173084 326.655285 
L 1182.911281 326.655285 
L 1183.157347 332.752078 
L 1183.895544 332.752078 
L 1184.14161 335.044004 
L 1184.879807 335.044004 
L 1185.125873 336.566611 
L 1185.86407 336.566611 
L 1186.110136 335.040892 
L 1186.848333 335.040892 
L 1187.094399 341.141576 
L 1187.832596 341.141576 
L 1188.078662 340.388156 
L 1189.801122 340.388156 
L 1190.047188 337.359889 
L 1193.738174 337.359889 
L 1193.984239 339.639517 
L 1195.7067 339.639517 
L 1195.952765 337.361443 
L 1196.690963 337.361443 
L 1196.937028 335.084909 
L 1197.675226 335.084909 
L 1197.921291 334.359995 
L 1198.659489 334.359995 
L 1198.905554 331.369702 
L 1199.643751 331.369702 
L 1199.889817 330.66194 
L 1200.628014 330.66194 
L 1200.87408 332.929569 
L 1201.612277 332.929569 
L 1201.858343 330.663437 
L 1202.59654 330.663437 
L 1202.842606 332.232927 
L 1203.580803 332.232927 
L 1203.826869 327.019159 
L 1204.565066 327.019159 
L 1204.811132 324.758293 
L 1205.549329 324.758293 
L 1205.795395 322.498877 
L 1206.533592 322.498877 
L 1206.779658 320.24028 
L 1207.517855 320.24028 
L 1207.763921 317.983127 
L 1208.502118 317.983127 
L 1208.748184 315.727599 
L 1210.470644 315.727599 
L 1210.71671 319.573622 
L 1211.454907 319.573622 
L 1211.700973 315.068485 
L 1213.423433 315.068485 
L 1213.669499 317.31954 
L 1214.407696 317.31954 
L 1214.653762 312.822012 
L 1215.391959 312.822012 
L 1215.638025 310.57552 
L 1216.376222 310.57552 
L 1216.622288 308.330583 
L 1217.360485 308.330583 
L 1217.606551 306.087039 
L 1218.344748 306.087039 
L 1218.590814 307.706577 
L 1219.329011 307.706577 
L 1219.575077 309.327328 
L 1220.313274 309.327328 
L 1220.559339 307.087501 
L 1223.266063 307.087501 
L 1223.512128 309.325959 
L 1224.250326 309.325959 
L 1224.496391 308.717218 
L 1225.234589 308.717218 
L 1225.480654 312.585941 
L 1226.218852 312.585941 
L 1226.464917 314.81806 
L 1227.203114 314.81806 
L 1227.44918 318.692707 
L 1228.187377 318.692707 
L 1228.433443 314.235401 
L 1229.17164 314.235401 
L 1229.417706 309.207793 
L 1230.155903 309.207793 
L 1230.401969 304.763979 
L 1231.140166 304.763979 
L 1231.386232 302.544067 
L 1232.124429 302.544067 
L 1232.370495 300.325415 
L 1233.108692 300.325415 
L 1233.354758 299.776274 
L 1234.092955 299.776274 
L 1234.339021 294.804235 
L 1235.077218 294.804235 
L 1235.323284 297.016938 
L 1236.061481 297.016938 
L 1236.307547 292.5954 
L 1238.030007 292.5954 
L 1238.276073 292.067961 
L 1239.998533 292.067961 
L 1240.244599 289.860523 
L 1241.967059 289.860523 
L 1242.213125 289.339658 
L 1243.935585 289.339658 
L 1244.181651 287.134827 
L 1244.919848 287.134827 
L 1245.165914 284.93119 
L 1245.904111 284.93119 
L 1246.150177 287.134064 
L 1246.888374 287.134064 
L 1247.13444 284.93237 
L 1247.872637 284.93237 
L 1248.118702 282.731846 
L 1248.8569 282.731846 
L 1249.102965 280.532709 
L 1250.825426 280.532709 
L 1251.071491 280.038578 
L 1254.762477 280.038438 
L 1255.008543 275.658139 
L 1255.74674 275.658139 
L 1255.992806 277.846982 
L 1256.731003 277.846982 
L 1256.977069 273.472637 
L 1257.715266 273.472637 
L 1257.961332 269.103151 
L 1258.699529 269.103151 
L 1258.945595 266.920057 
L 1259.683792 266.920057 
L 1259.929858 266.037817 
L 1260.668055 266.037817 
L 1260.914121 263.857977 
L 1261.652318 263.857977 
L 1261.898384 266.037084 
L 1262.636581 266.037084 
L 1262.882647 269.960155 
L 1263.620844 269.960155 
L 1263.86691 267.783068 
L 1264.605107 267.783068 
L 1264.851173 269.959433 
L 1266.573633 269.959433 
L 1266.819699 272.135079 
L 1268.542159 272.134363 
L 1268.788225 273.89249 
L 1269.526422 273.89249 
L 1269.772488 269.548359 
L 1270.510685 269.548359 
L 1270.756751 267.377876 
L 1272.479211 267.377876 
L 1272.725277 265.208642 
L 1273.463474 265.208642 
L 1273.70954 267.377167 
L 1275.432 267.377167 
L 1275.678065 265.209686 
L 1276.416263 265.209686 
L 1276.662328 264.816794 
L 1280.353315 264.816794 
L 1280.59938 262.651779 
L 1281.337578 262.651779 
L 1281.583643 264.426535 
L 1282.32184 264.426535 
L 1282.567906 262.262743 
L 1283.306103 262.262743 
L 1283.552169 261.878207 
L 1284.290366 261.878207 
L 1284.536432 259.716662 
L 1286.258892 259.716662 
L 1286.504958 255.397006 
L 1287.243155 255.397006 
L 1287.489221 257.555625 
L 1288.227418 257.555625 
L 1288.473484 255.03029 
L 1289.211681 255.03029 
L 1289.457747 252.878089 
L 1290.195944 252.878089 
L 1290.44201 250.725713 
L 1291.180207 250.725713 
L 1291.426273 250.372628 
L 1292.16447 250.372628 
L 1292.410536 250.024228 
L 1293.148733 250.024228 
L 1293.394799 253.977274 
L 1294.132996 253.977274 
L 1294.379062 251.485849 
L 1296.101522 251.485849 
L 1296.347588 249.339271 
L 1297.085785 249.339271 
L 1297.331851 253.293177 
L 1298.070048 253.293177 
L 1298.316114 251.148417 
L 1299.054311 251.148417 
L 1299.300377 249.004797 
L 1300.038574 249.004797 
L 1300.28464 251.147754 
L 1301.022837 251.147754 
L 1301.268903 250.821602 
L 1302.991363 250.821602 
L 1303.237428 250.499674 
L 1303.975626 250.499674 
L 1304.221691 248.359624 
L 1304.959889 248.359624 
L 1305.205954 246.220696 
L 1306.928415 246.220696 
L 1307.17448 244.082728 
L 1308.89694 244.082728 
L 1309.143006 246.220042 
L 1309.881203 246.220042 
L 1310.127269 244.083831 
L 1310.865466 244.083831 
L 1311.111532 246.21939 
L 1312.833992 246.21939 
L 1313.080058 248.353656 
L 1314.802518 248.354586 
L 1315.048584 243.805868 
L 1315.786781 243.805868 
L 1316.032847 243.525415 
L 1316.771044 243.525415 
L 1317.01711 243.247143 
L 1317.755307 243.247143 
L 1318.001373 241.121585 
L 1319.723833 241.120955 
L 1319.969899 242.97605 
L 1320.708096 242.97605 
L 1320.954162 240.854627 
L 1321.692359 240.854627 
L 1321.938425 238.477297 
L 1322.676622 238.477297 
L 1322.922688 232.124361 
L 1323.660885 232.124361 
L 1323.906951 227.893992 
L 1324.645148 227.893992 
L 1324.891214 225.780121 
L 1325.629411 225.780121 
L 1325.875477 223.667121 
L 1326.613674 223.667121 
L 1326.85974 223.432436 
L 1327.597937 223.432436 
L 1327.844003 223.2 
L 1328.5822 223.2 
L 1328.828266 225.310503 
L 1330.796791 225.311505 
L 1330.796791 225.311505 
" clip-path="url(#p86735b11e0)" style="fill: none; stroke: #0000ff; stroke-width: 1.5; stroke-linecap: square"/>
   </g>
   <g id="patch_9">
    <path d="M 860.823529 1281.6 
L 860.823529 172.8 
" style="fill: none; stroke: #000000; stroke-width: 0.8; stroke-linejoin: miter; stroke-linecap: square"/>
   </g>
   <g id="patch_10">
    <path d="M 1353.176471 1281.6 
L 1353.176471 172.8 
" style="fill: none; stroke: #000000; stroke-width: 0.8; stroke-linejoin: miter; stroke-linecap: square"/>
   </g>
   <g id="patch_11">
    <path d="M 860.823529 1281.6 
L 1353.176471 1281.6 
" style="fill: none; stroke: #000000; stroke-width: 0.8; stroke-linejoin: miter; stroke-linecap: square"/>
   </g>
   <g id="patch_12">
    <path d="M 860.823529 172.8 
L 1353.176471 172.8 
" style="fill: none; stroke: #000000; stroke-width: 0.8; stroke-linejoin: miter; stroke-linecap: square"/>
   </g>
   <g id="legend_2">
    <g id="patch_13">
     <path d="M 1262.134283 195.478125 
L 1346.176471 195.478125 
Q 1348.176471 195.478125 1348.176471 193.478125 
L 1348.176471 179.8 
Q 1348.176471 177.8 1346.176471 177.8 
L 1262.134283 177.8 
Q 1260.134283 177.8 1260.134283 179.8 
L 1260.134283 193.478125 
Q 1260.134283 195.478125 1262.134283 195.478125 
z
" style="fill: #ffffff; opacity: 0.8; stroke: #cccccc; stroke-linejoin: miter"/>
    </g>
    <g id="line2d_33">
     <path d="M 1264.134283 185.898437 
L 1274.134283 185.898437 
L 1284.134283 185.898437 
" style="fill: none; stroke: #0000ff; stroke-width: 1.5; stroke-linecap: square"/>
    </g>
    <g id="text_31">
     <!-- O2 reward -->
     <g transform="translate(1292.134283 189.398437) scale(0.1 -0.1)">
      <use xlink:href="#DejaVuSans-4f"/>
      <use xlink:href="#DejaVuSans-32" x="78.710938"/>
      <use xlink:href="#DejaVuSans-20" x="142.333984"/>
      <use xlink:href="#DejaVuSans-72" x="174.121094"/>
      <use xlink:href="#DejaVuSans-65" x="212.984375"/>
      <use xlink:href="#DejaVuSans-77" x="274.507812"/>
      <use xlink:href="#DejaVuSans-61" x="356.294922"/>
      <use xlink:href="#DejaVuSans-72" x="417.574219"/>
      <use xlink:href="#DejaVuSans-64" x="456.9375"/>
     </g>
    </g>
   </g>
  </g>
  <g id="axes_3">
   <g id="patch_14">
    <path d="M 1451.647059 1281.6 
L 1944 1281.6 
L 1944 172.8 
L 1451.647059 172.8 
z
" style="fill: #ffffff"/>
   </g>
   <g id="matplotlib.axis_5">
    <g id="xtick_17">
     <g id="line2d_34">
      <g>
       <use xlink:href="#m845c30f70e" x="1473.780672" y="1281.6" style="stroke: #000000; stroke-width: 0.8"/>
      </g>
     </g>
     <g id="text_32">
      <!-- 0 -->
      <g transform="translate(1470.599422 1296.198437) scale(0.1 -0.1)">
       <use xlink:href="#DejaVuSans-30"/>
      </g>
     </g>
    </g>
    <g id="xtick_18">
     <g id="line2d_35">
      <g>
       <use xlink:href="#m845c30f70e" x="1535.297107" y="1281.6" style="stroke: #000000; stroke-width: 0.8"/>
      </g>
     </g>
     <g id="text_33">
      <!-- 250 -->
      <g transform="translate(1525.753357 1296.198437) scale(0.1 -0.1)">
       <use xlink:href="#DejaVuSans-32"/>
       <use xlink:href="#DejaVuSans-35" x="63.623047"/>
       <use xlink:href="#DejaVuSans-30" x="127.246094"/>
      </g>
     </g>
    </g>
    <g id="xtick_19">
     <g id="line2d_36">
      <g>
       <use xlink:href="#m845c30f70e" x="1596.813543" y="1281.6" style="stroke: #000000; stroke-width: 0.8"/>
      </g>
     </g>
     <g id="text_34">
      <!-- 500 -->
      <g transform="translate(1587.269793 1296.198437) scale(0.1 -0.1)">
       <use xlink:href="#DejaVuSans-35"/>
       <use xlink:href="#DejaVuSans-30" x="63.623047"/>
       <use xlink:href="#DejaVuSans-30" x="127.246094"/>
      </g>
     </g>
    </g>
    <g id="xtick_20">
     <g id="line2d_37">
      <g>
       <use xlink:href="#m845c30f70e" x="1658.329978" y="1281.6" style="stroke: #000000; stroke-width: 0.8"/>
      </g>
     </g>
     <g id="text_35">
      <!-- 750 -->
      <g transform="translate(1648.786228 1296.198437) scale(0.1 -0.1)">
       <use xlink:href="#DejaVuSans-37"/>
       <use xlink:href="#DejaVuSans-35" x="63.623047"/>
       <use xlink:href="#DejaVuSans-30" x="127.246094"/>
      </g>
     </g>
    </g>
    <g id="xtick_21">
     <g id="line2d_38">
      <g>
       <use xlink:href="#m845c30f70e" x="1719.846413" y="1281.6" style="stroke: #000000; stroke-width: 0.8"/>
      </g>
     </g>
     <g id="text_36">
      <!-- 1000 -->
      <g transform="translate(1707.121413 1296.198437) scale(0.1 -0.1)">
       <use xlink:href="#DejaVuSans-31"/>
       <use xlink:href="#DejaVuSans-30" x="63.623047"/>
       <use xlink:href="#DejaVuSans-30" x="127.246094"/>
       <use xlink:href="#DejaVuSans-30" x="190.869141"/>
      </g>
     </g>
    </g>
    <g id="xtick_22">
     <g id="line2d_39">
      <g>
       <use xlink:href="#m845c30f70e" x="1781.362848" y="1281.6" style="stroke: #000000; stroke-width: 0.8"/>
      </g>
     </g>
     <g id="text_37">
      <!-- 1250 -->
      <g transform="translate(1768.637848 1296.198437) scale(0.1 -0.1)">
       <use xlink:href="#DejaVuSans-31"/>
       <use xlink:href="#DejaVuSans-32" x="63.623047"/>
       <use xlink:href="#DejaVuSans-35" x="127.246094"/>
       <use xlink:href="#DejaVuSans-30" x="190.869141"/>
      </g>
     </g>
    </g>
    <g id="xtick_23">
     <g id="line2d_40">
      <g>
       <use xlink:href="#m845c30f70e" x="1842.879284" y="1281.6" style="stroke: #000000; stroke-width: 0.8"/>
      </g>
     </g>
     <g id="text_38">
      <!-- 1500 -->
      <g transform="translate(1830.154284 1296.198437) scale(0.1 -0.1)">
       <use xlink:href="#DejaVuSans-31"/>
       <use xlink:href="#DejaVuSans-35" x="63.623047"/>
       <use xlink:href="#DejaVuSans-30" x="127.246094"/>
       <use xlink:href="#DejaVuSans-30" x="190.869141"/>
      </g>
     </g>
    </g>
    <g id="xtick_24">
     <g id="line2d_41">
      <g>
       <use xlink:href="#m845c30f70e" x="1904.395719" y="1281.6" style="stroke: #000000; stroke-width: 0.8"/>
      </g>
     </g>
     <g id="text_39">
      <!-- 1750 -->
      <g transform="translate(1891.670719 1296.198437) scale(0.1 -0.1)">
       <use xlink:href="#DejaVuSans-31"/>
       <use xlink:href="#DejaVuSans-37" x="63.623047"/>
       <use xlink:href="#DejaVuSans-35" x="127.246094"/>
       <use xlink:href="#DejaVuSans-30" x="190.869141"/>
      </g>
     </g>
    </g>
   </g>
   <g id="matplotlib.axis_6">
    <g id="ytick_14">
     <g id="line2d_42">
      <g>
       <use xlink:href="#mcbe8d62cfa" x="1451.647059" y="1231.2" style="stroke: #000000; stroke-width: 0.8"/>
      </g>
     </g>
     <g id="text_40">
      <!-- 0 -->
      <g transform="translate(1438.284559 1234.999219) scale(0.1 -0.1)">
       <use xlink:href="#DejaVuSans-30"/>
      </g>
     </g>
    </g>
    <g id="ytick_15">
     <g id="line2d_43">
      <g>
       <use xlink:href="#mcbe8d62cfa" x="1451.647059" y="996.428683" style="stroke: #000000; stroke-width: 0.8"/>
      </g>
     </g>
     <g id="text_41">
      <!-- 5 -->
      <g transform="translate(1438.284559 1000.227902) scale(0.1 -0.1)">
       <use xlink:href="#DejaVuSans-35"/>
      </g>
     </g>
    </g>
    <g id="ytick_16">
     <g id="line2d_44">
      <g>
       <use xlink:href="#mcbe8d62cfa" x="1451.647059" y="761.657366" style="stroke: #000000; stroke-width: 0.8"/>
      </g>
     </g>
     <g id="text_42">
      <!-- 10 -->
      <g transform="translate(1431.922059 765.456585) scale(0.1 -0.1)">
       <use xlink:href="#DejaVuSans-31"/>
       <use xlink:href="#DejaVuSans-30" x="63.623047"/>
      </g>
     </g>
    </g>
    <g id="ytick_17">
     <g id="line2d_45">
      <g>
       <use xlink:href="#mcbe8d62cfa" x="1451.647059" y="526.886049" style="stroke: #000000; stroke-width: 0.8"/>
      </g>
     </g>
     <g id="text_43">
      <!-- 15 -->
      <g transform="translate(1431.922059 530.685268) scale(0.1 -0.1)">
       <use xlink:href="#DejaVuSans-31"/>
       <use xlink:href="#DejaVuSans-35" x="63.623047"/>
      </g>
     </g>
    </g>
    <g id="ytick_18">
     <g id="line2d_46">
      <g>
       <use xlink:href="#mcbe8d62cfa" x="1451.647059" y="292.114732" style="stroke: #000000; stroke-width: 0.8"/>
      </g>
     </g>
     <g id="text_44">
      <!-- 20 -->
      <g transform="translate(1431.922059 295.913951) scale(0.1 -0.1)">
       <use xlink:href="#DejaVuSans-32"/>
       <use xlink:href="#DejaVuSans-30" x="63.623047"/>
      </g>
     </g>
    </g>
   </g>
   <g id="line2d_47">
    <path d="M 1474.026738 1231.2 
L 1484.361499 1231.2 
L 1484.607565 1212.887707 
L 1485.345762 1212.887707 
L 1485.591828 1198.25487 
L 1486.330025 1198.25487 
L 1486.576091 1185.808264 
L 1487.314288 1185.808264 
L 1487.560354 1167.361946 
L 1488.298551 1167.361946 
L 1488.544617 1161.158969 
L 1489.282814 1161.158969 
L 1489.52888 1137.009933 
L 1490.267077 1137.009933 
L 1490.513143 1144.026196 
L 1491.25134 1144.026196 
L 1491.497406 1130.282984 
L 1492.235603 1130.282984 
L 1492.481669 1116.732404 
L 1493.219866 1116.732404 
L 1493.465932 1107.540387 
L 1494.204129 1107.540387 
L 1494.450194 1091.972458 
L 1495.188392 1091.972458 
L 1495.434457 1077.359008 
L 1496.172655 1077.359008 
L 1496.41872 1068.303431 
L 1498.141181 1068.303431 
L 1498.387246 1064.317247 
L 1499.125444 1064.317247 
L 1499.371509 1055.588569 
L 1500.109707 1055.588569 
L 1500.355772 1050.727506 
L 1502.078232 1050.727506 
L 1502.324298 1047.09866 
L 1503.062495 1047.09866 
L 1503.308561 1039.148732 
L 1505.031021 1039.148732 
L 1505.277087 1035.818482 
L 1506.015284 1035.818482 
L 1506.26135 1021.77929 
L 1506.999547 1021.77929 
L 1507.245613 1002.079584 
L 1507.98381 1002.079584 
L 1508.229876 988.278697 
L 1508.968073 988.278697 
L 1509.214139 979.095332 
L 1509.952336 979.095332 
L 1510.198402 953.47849 
L 1510.936599 953.47849 
L 1511.182665 940.733541 
L 1511.920862 940.733541 
L 1512.166928 936.732535 
L 1512.905125 936.732535 
L 1513.151191 924.254094 
L 1513.889388 924.254094 
L 1514.135454 915.943395 
L 1514.873651 915.943395 
L 1515.119717 908.851688 
L 1515.857914 908.851688 
L 1516.10398 896.454471 
L 1516.842177 896.454471 
L 1517.088243 891.402764 
L 1517.82644 891.402764 
L 1518.072506 880.108739 
L 1519.794966 880.027843 
L 1520.041032 883.222026 
L 1520.779229 883.222026 
L 1521.025294 885.200743 
L 1521.763492 885.200743 
L 1522.009557 880.5667 
L 1522.747755 880.5667 
L 1522.99382 882.511206 
L 1523.732018 882.511206 
L 1523.978083 879.788562 
L 1524.716281 879.788562 
L 1524.962346 882.845868 
L 1525.700544 882.845868 
L 1525.946609 879.978769 
L 1527.66907 879.978769 
L 1527.915135 877.056973 
L 1528.653332 877.056973 
L 1528.899398 868.432035 
L 1529.637595 868.432035 
L 1529.883661 860.952264 
L 1530.621858 860.952264 
L 1530.867924 865.515594 
L 1531.606121 865.515594 
L 1531.852187 867.342804 
L 1534.55891 867.342804 
L 1534.804976 858.832013 
L 1535.543173 858.832013 
L 1535.789239 842.819976 
L 1536.527436 842.819976 
L 1536.773502 835.055199 
L 1537.511699 835.055199 
L 1537.757765 829.569635 
L 1538.495962 829.569635 
L 1538.742028 825.973534 
L 1539.480225 825.973534 
L 1539.726291 817.385606 
L 1540.464488 817.385606 
L 1540.710554 811.623819 
L 1541.448751 811.623819 
L 1541.694817 807.152112 
L 1542.433014 807.152112 
L 1542.67908 797.998463 
L 1543.417277 797.998463 
L 1543.663343 792.577727 
L 1544.40154 792.577727 
L 1544.647606 785.09909 
L 1545.385803 785.09909 
L 1545.631869 783.045243 
L 1546.370066 783.045243 
L 1546.616132 774.609429 
L 1547.354329 774.609429 
L 1547.600395 767.619639 
L 1548.338592 767.619639 
L 1548.584657 760.753142 
L 1549.322855 760.753142 
L 1549.56892 754.159944 
L 1551.291381 754.159944 
L 1551.537446 749.576313 
L 1552.275644 749.576313 
L 1552.521709 745.596558 
L 1553.259907 745.596558 
L 1553.505972 747.462506 
L 1554.24417 747.462506 
L 1554.490235 743.937844 
L 1555.228432 743.937844 
L 1555.474498 737.813127 
L 1556.212695 737.813127 
L 1556.458761 733.418393 
L 1557.196958 733.418393 
L 1557.443024 728.987005 
L 1558.181221 728.987005 
L 1558.427287 723.122054 
L 1559.165484 723.122054 
L 1559.41155 710.630689 
L 1560.149747 710.630689 
L 1560.395813 709.233245 
L 1561.13401 709.233245 
L 1561.380076 707.278617 
L 1562.118273 707.278617 
L 1562.364339 699.607051 
L 1563.102536 699.607051 
L 1563.348602 694.119803 
L 1564.086799 694.119803 
L 1564.332865 690.337837 
L 1565.071062 690.337837 
L 1565.317128 683.543528 
L 1566.055325 683.543528 
L 1566.301391 675.801621 
L 1567.039588 675.801621 
L 1567.285654 671.684402 
L 1568.023851 671.684402 
L 1568.269917 670.928532 
L 1569.008114 670.928532 
L 1569.25418 668.735442 
L 1569.992377 668.735442 
L 1570.238443 665.788845 
L 1570.97664 665.788845 
L 1571.222706 661.47493 
L 1571.960903 661.47493 
L 1572.206969 660.06612 
L 1572.945166 660.06612 
L 1573.191232 653.986914 
L 1573.929429 653.986914 
L 1574.175495 651.907133 
L 1574.913692 651.907133 
L 1575.159758 648.750214 
L 1575.897955 648.750214 
L 1576.14402 645.609547 
L 1576.882218 645.609547 
L 1577.128283 642.139889 
L 1578.850744 642.139889 
L 1579.096809 640.081345 
L 1579.835007 640.081345 
L 1580.081072 639.051453 
L 1580.81927 639.051453 
L 1581.065335 634.620924 
L 1582.787795 634.620924 
L 1583.033861 635.641549 
L 1583.772058 635.641549 
L 1584.018124 635.985983 
L 1584.756321 635.985983 
L 1585.002387 634.020925 
L 1585.740584 634.020925 
L 1585.98665 627.698677 
L 1586.724847 627.698677 
L 1586.970913 625.153811 
L 1587.70911 625.153811 
L 1587.955176 625.741866 
L 1588.693373 625.741866 
L 1588.939439 619.548699 
L 1589.677636 619.548699 
L 1589.923702 614.49843 
L 1590.661899 614.49843 
L 1590.907965 613.678743 
L 1591.646162 613.678743 
L 1591.892228 611.317027 
L 1592.630425 611.317027 
L 1592.876491 607.961929 
L 1593.614688 607.961929 
L 1593.860754 607.445092 
L 1594.598951 607.445092 
L 1594.845017 603.913673 
L 1595.583214 603.913673 
L 1595.82928 601.157233 
L 1596.567477 601.157233 
L 1596.813543 596.633957 
L 1597.55174 596.633957 
L 1597.797806 593.957129 
L 1598.536003 593.957129 
L 1598.782069 590.384931 
L 1599.520266 590.384931 
L 1599.766332 587.105534 
L 1600.504529 587.105534 
L 1600.750595 584.532494 
L 1601.488792 584.532494 
L 1601.734858 584.096862 
L 1602.473055 584.096862 
L 1602.719121 580.906498 
L 1603.457318 580.906498 
L 1603.703383 576.484998 
L 1604.441581 576.484998 
L 1604.687646 572.621729 
L 1605.425844 572.621729 
L 1605.671909 567.29462 
L 1606.410107 567.29462 
L 1606.656172 562.477936 
L 1607.39437 562.477936 
L 1607.640435 551.12576 
L 1608.378633 551.12576 
L 1608.624698 543.112337 
L 1609.362896 543.112337 
L 1609.608961 537.184448 
L 1610.347158 537.184448 
L 1610.593224 533.471307 
L 1611.331421 533.471307 
L 1611.577487 528.192213 
L 1612.315684 528.192213 
L 1612.56175 524.40332 
L 1613.299947 524.40332 
L 1613.546013 515.607258 
L 1614.28421 515.607258 
L 1614.530276 510.74425 
L 1615.268473 510.74425 
L 1615.514539 505.830574 
L 1616.252736 505.830574 
L 1616.498802 501.896553 
L 1617.236999 501.896553 
L 1617.483065 497.089854 
L 1618.221262 497.089854 
L 1618.467328 492.528558 
L 1619.205525 492.528558 
L 1619.451591 487.479244 
L 1620.189788 487.479244 
L 1620.435854 482.251839 
L 1621.174051 482.251839 
L 1621.420117 480.605015 
L 1622.158314 480.605015 
L 1622.40438 477.569038 
L 1623.142577 477.569038 
L 1623.388643 476.484487 
L 1624.12684 476.484487 
L 1624.372906 475.179778 
L 1625.111103 475.179778 
L 1625.357169 473.028398 
L 1626.095366 473.028398 
L 1626.341432 469.618971 
L 1627.079629 469.618971 
L 1627.325695 468.341538 
L 1628.063892 468.341538 
L 1628.309958 466.235142 
L 1629.048155 466.235142 
L 1629.294221 464.356721 
L 1631.016681 464.356721 
L 1631.262746 464.150207 
L 1632.000944 464.150207 
L 1632.247009 462.688574 
L 1632.985207 462.688574 
L 1633.231272 462.058091 
L 1633.96947 462.058091 
L 1634.215535 460.617031 
L 1634.953733 460.617031 
L 1635.199798 459.594266 
L 1635.937996 459.594266 
L 1636.184061 457.266475 
L 1636.922259 457.266475 
L 1637.168324 453.396894 
L 1637.906521 453.396894 
L 1638.152587 452.577934 
L 1638.890784 452.577934 
L 1639.13685 448.489753 
L 1639.875047 448.489753 
L 1640.121113 445.8854 
L 1640.85931 445.8854 
L 1641.105376 444.267079 
L 1641.843573 444.267079 
L 1642.089639 441.523527 
L 1642.827836 441.523527 
L 1643.073902 437.675873 
L 1643.812099 437.675873 
L 1644.058165 434.670714 
L 1644.796362 434.670714 
L 1645.042428 430.111214 
L 1645.780625 430.111214 
L 1646.026691 428.24064 
L 1646.764888 428.24064 
L 1647.010954 426.233077 
L 1647.749151 426.233077 
L 1647.995217 421.69204 
L 1648.733414 421.69204 
L 1648.97948 420.77904 
L 1649.717677 420.77904 
L 1649.963743 419.737804 
L 1650.70194 419.737804 
L 1650.948006 417.142018 
L 1651.686203 417.142018 
L 1651.932269 414.955348 
L 1652.670466 414.955348 
L 1652.916532 411.711524 
L 1653.654729 411.711524 
L 1653.900795 408.30882 
L 1654.638992 408.30882 
L 1654.885058 406.809319 
L 1655.623255 406.809319 
L 1655.869321 404.298579 
L 1656.607518 404.298579 
L 1656.853584 402.997708 
L 1657.591781 402.997708 
L 1657.837846 403.471296 
L 1658.576044 403.471296 
L 1658.822109 399.769892 
L 1659.560307 399.769892 
L 1659.806372 399.608927 
L 1660.54457 399.608927 
L 1660.790635 397.798165 
L 1662.513096 397.798165 
L 1662.759161 395.727672 
L 1663.497359 395.727672 
L 1663.743424 394.038742 
L 1664.481622 394.038742 
L 1664.727687 391.899034 
L 1665.465884 391.899034 
L 1665.71195 391.163028 
L 1666.450147 391.163028 
L 1666.696213 388.326293 
L 1667.43441 388.326293 
L 1667.680476 386.280266 
L 1668.418673 386.280266 
L 1668.664739 384.163723 
L 1669.402936 384.163723 
L 1669.649002 379.528166 
L 1670.387199 379.528166 
L 1670.633265 376.330312 
L 1672.355725 376.327737 
L 1672.601791 375.408208 
L 1673.339988 375.408208 
L 1673.586054 376.805187 
L 1674.324251 376.805187 
L 1674.570317 373.950551 
L 1675.308514 373.950551 
L 1675.55458 375.83582 
L 1676.292777 375.83582 
L 1676.538843 373.578343 
L 1677.27704 373.578343 
L 1677.769172 373.456235 
L 1678.261303 373.456235 
L 1678.507369 374.06779 
L 1680.229829 374.009185 
L 1680.475895 374.512753 
L 1681.214092 374.512753 
L 1681.460158 371.717785 
L 1682.198355 371.717785 
L 1682.444421 369.913814 
L 1683.182618 369.913814 
L 1683.428684 369.195516 
L 1684.166881 369.195516 
L 1684.412947 368.045823 
L 1685.151144 368.045823 
L 1685.397209 366.977603 
L 1686.135407 366.977603 
L 1686.381472 364.241201 
L 1688.103933 364.241201 
L 1688.349998 363.165871 
L 1689.088196 363.165871 
L 1689.334261 361.460645 
L 1690.072459 361.460645 
L 1690.318524 360.762755 
L 1691.056722 360.762755 
L 1691.302787 360.006687 
L 1692.040984 360.006687 
L 1692.28705 358.331402 
L 1693.025247 358.331402 
L 1693.271313 357.312254 
L 1694.00951 357.312254 
L 1694.255576 356.604772 
L 1694.993773 356.604772 
L 1695.239839 355.917824 
L 1696.962299 355.869757 
L 1697.208365 354.53414 
L 1698.930825 354.486948 
L 1699.176891 352.803034 
L 1699.915088 352.803034 
L 1700.161154 351.802048 
L 1700.899351 351.802048 
L 1701.145417 350.788386 
L 1701.883614 350.788386 
L 1702.12968 350.384348 
L 1702.867877 350.384348 
L 1703.113943 349.057405 
L 1703.85214 349.057405 
L 1704.098206 348.069518 
L 1704.836403 348.069518 
L 1705.082469 348.73249 
L 1705.820666 348.73249 
L 1706.066732 347.791865 
L 1706.804929 347.791865 
L 1707.050995 345.809195 
L 1707.789192 345.809195 
L 1708.035258 344.866224 
L 1708.773455 344.866224 
L 1709.019521 345.521507 
L 1709.757718 345.521507 
L 1710.003784 343.922003 
L 1710.741981 343.922003 
L 1710.988047 343.25837 
L 1712.710507 343.245424 
L 1712.956572 342.58802 
L 1714.679033 342.574559 
L 1714.925098 340.671913 
L 1716.647559 340.662349 
L 1716.893624 339.403594 
L 1717.631822 339.403594 
L 1717.877887 338.767936 
L 1718.616085 338.767936 
L 1718.86215 338.134444 
L 1719.600347 338.134444 
L 1719.846413 337.501476 
L 1720.58461 337.501476 
L 1720.830676 335.303193 
L 1722.553136 335.303193 
L 1722.799202 334.361788 
L 1723.537399 334.361788 
L 1723.783465 333.737356 
L 1725.505925 333.735355 
L 1725.751991 332.179601 
L 1726.490188 332.179601 
L 1726.736254 331.558944 
L 1727.474451 331.558944 
L 1727.720517 330.939611 
L 1728.458714 330.939611 
L 1728.70478 329.70348 
L 1729.442977 329.70348 
L 1729.689043 327.847897 
L 1730.42724 327.847897 
L 1730.673306 326.930482 
L 1731.411503 326.930482 
L 1731.657569 325.694782 
L 1732.395766 325.694782 
L 1732.641832 324.170763 
L 1733.380029 324.170763 
L 1733.626095 322.660884 
L 1734.364292 322.660884 
L 1734.610358 322.349388 
L 1735.348555 322.349388 
L 1735.594621 322.985902 
L 1736.332818 322.985902 
L 1736.578884 321.450082 
L 1738.301344 321.479918 
L 1738.54741 319.952758 
L 1739.285607 319.952758 
L 1739.531673 319.081168 
L 1741.254133 319.081168 
L 1741.500198 316.954765 
L 1742.238396 316.954765 
L 1742.484461 316.039327 
L 1743.222659 316.039327 
L 1743.468724 314.534295 
L 1744.206922 314.534295 
L 1744.452987 313.622623 
L 1745.191185 313.622623 
L 1745.43725 312.724717 
L 1746.175448 312.724717 
L 1746.421513 310.038862 
L 1747.15971 310.038862 
L 1747.405776 308.535676 
L 1748.143973 308.535676 
L 1748.390039 307.630698 
L 1749.128236 307.630698 
L 1749.374302 306.741243 
L 1750.112499 306.741243 
L 1750.358565 306.134447 
L 1751.096762 306.134447 
L 1751.342828 305.512754 
L 1752.081025 305.512754 
L 1752.327091 304.024649 
L 1754.049551 304.00852 
L 1754.295617 303.127091 
L 1757.00234 303.11074 
L 1757.248406 302.212359 
L 1757.986603 302.212359 
L 1758.232669 301.33159 
L 1758.970866 301.33159 
L 1759.216932 299.53794 
L 1759.955129 299.53794 
L 1760.201195 298.935975 
L 1760.939392 298.935975 
L 1761.185458 296.567896 
L 1761.923655 296.567896 
L 1762.169721 295.407356 
L 1762.907918 295.407356 
L 1763.153984 293.654021 
L 1763.892181 293.654021 
L 1764.138247 292.19476 
L 1765.860707 292.19476 
L 1766.106773 291.599221 
L 1766.84497 291.599221 
L 1767.091036 290.73803 
L 1767.829233 290.73803 
L 1768.075298 290.164983 
L 1768.813496 290.164983 
L 1769.059561 288.4272 
L 1770.782022 288.4272 
L 1771.028087 288.041792 
L 1771.766285 288.041792 
L 1772.01235 286.590214 
L 1772.750548 286.590214 
L 1772.996613 287.160312 
L 1773.734811 287.160312 
L 1773.980876 286.281317 
L 1775.703336 286.38126 
L 1775.949402 285.527354 
L 1776.687599 285.527354 
L 1776.933665 285.063122 
L 1778.656125 285.063122 
L 1778.902191 285.630366 
L 1781.608914 285.60386 
L 1781.85498 285.011107 
L 1783.57744 285.011107 
L 1783.823506 284.419344 
L 1784.561703 284.419344 
L 1784.807769 283.571459 
L 1785.545966 283.571459 
L 1785.792032 282.980476 
L 1786.530229 282.980476 
L 1786.776295 281.517962 
L 1787.514492 281.517962 
L 1787.760558 279.805765 
L 1788.498755 279.805765 
L 1788.744821 278.964934 
L 1789.483018 278.964934 
L 1789.729084 278.124706 
L 1790.467281 278.124706 
L 1790.713347 276.532639 
L 1791.451544 276.532639 
L 1791.69761 276.342358 
L 1792.435807 276.342358 
L 1792.681873 274.199419 
L 1793.42007 274.199419 
L 1793.666136 272.652933 
L 1794.404333 272.652933 
L 1794.650398 272.22676 
L 1795.388596 272.22676 
L 1795.634661 272.782887 
L 1796.372859 272.782887 
L 1796.618924 271.248872 
L 1797.357122 271.248872 
L 1797.603187 270.380654 
L 1798.341385 270.380654 
L 1798.58745 269.825396 
L 1799.325648 269.825396 
L 1799.571713 269.96324 
L 1800.309911 269.96324 
L 1800.555976 269.407982 
L 1801.294174 269.407982 
L 1801.540239 268.994 
L 1802.278436 268.994 
L 1802.524502 268.438743 
L 1803.262699 268.438743 
L 1803.508765 268.581721 
L 1804.246962 268.581721 
L 1804.493028 267.61796 
L 1806.215488 267.61796 
L 1806.461554 267.210286 
L 1808.184014 267.210286 
L 1808.43008 266.656272 
L 1810.15254 266.656272 
L 1810.398606 266.103091 
L 1811.136803 266.103091 
L 1811.382869 265.55074 
L 1812.121066 265.55074 
L 1812.367132 264.999211 
L 1814.089592 264.999211 
L 1814.335658 263.34743 
L 1815.073855 263.34743 
L 1815.319921 262.797912 
L 1816.058118 262.797912 
L 1816.304184 261.113901 
L 1817.042381 261.113901 
L 1817.288447 259.433432 
L 1818.026644 259.433432 
L 1818.27271 258.342238 
L 1819.99517 258.342238 
L 1820.241236 257.796641 
L 1821.963696 257.796641 
L 1822.209761 259.044616 
L 1822.947959 259.044616 
L 1823.194024 259.205231 
L 1823.932222 259.205231 
L 1824.178287 259.747043 
L 1824.916485 259.747043 
L 1825.16255 260.288112 
L 1825.900748 260.288112 
L 1826.146813 261.157144 
L 1826.885011 261.157144 
L 1827.131076 260.61754 
L 1827.869274 260.61754 
L 1828.115339 259.706308 
L 1828.853536 259.706308 
L 1829.099602 260.244472 
L 1829.837799 260.244472 
L 1830.083865 259.168855 
L 1830.822062 259.168855 
L 1831.068128 259.705603 
L 1831.806325 259.705603 
L 1832.052391 260.235591 
L 1832.790588 260.235591 
L 1833.036654 260.770602 
L 1834.759114 260.770602 
L 1835.00518 259.703158 
L 1835.743377 259.703158 
L 1835.989443 260.235599 
L 1837.711903 260.235599 
L 1837.957969 259.730139 
L 1838.696166 259.730139 
L 1838.942232 260.261735 
L 1839.680429 260.261735 
L 1839.926495 260.792496 
L 1840.664692 260.792496 
L 1840.910758 260.262564 
L 1842.633218 260.262564 
L 1842.879284 259.733841 
L 1843.617481 259.733841 
L 1843.863547 260.295356 
L 1844.601744 260.295356 
L 1844.84781 259.241106 
L 1845.586007 259.241106 
L 1845.832073 258.752773 
L 1847.554533 258.753562 
L 1847.800599 257.746384 
L 1848.538796 257.746384 
L 1848.784862 258.269941 
L 1849.523059 258.269941 
L 1849.769124 257.224349 
L 1850.507322 257.224349 
L 1850.753387 256.702703 
L 1851.491585 256.702703 
L 1851.73765 255.140022 
L 1852.475848 255.140022 
L 1852.721913 254.152644 
L 1853.460111 254.152644 
L 1853.706176 253.68762 
L 1854.444374 253.68762 
L 1854.690439 252.76702 
L 1855.428637 252.76702 
L 1855.674702 251.793134 
L 1856.412899 251.793134 
L 1856.658965 250.245929 
L 1857.397162 250.245929 
L 1857.643228 250.760593 
L 1859.365688 250.826386 
L 1859.611754 250.313471 
L 1860.349951 250.313471 
L 1860.596017 249.800555 
L 1861.334214 249.800555 
L 1861.58028 249.28764 
L 1862.318477 249.28764 
L 1862.564543 248.775406 
L 1863.30274 248.775406 
L 1863.548806 248.263849 
L 1864.287003 248.263849 
L 1864.533069 247.242756 
L 1865.271266 247.242756 
L 1865.517332 246.222693 
L 1866.255529 246.222693 
L 1866.501595 245.712842 
L 1869.208318 245.78956 
L 1869.454384 245.281676 
L 1870.192581 245.281676 
L 1870.438647 244.774438 
L 1872.161107 244.774438 
L 1872.407173 243.761317 
L 1873.14537 243.761317 
L 1873.391436 242.750179 
L 1874.129633 242.750179 
L 1874.375699 242.330075 
L 1875.113896 242.330075 
L 1875.359962 241.322081 
L 1876.098159 241.322081 
L 1876.344225 240.315937 
L 1877.082422 240.315937 
L 1877.328487 239.81257 
L 1878.066685 239.81257 
L 1878.31275 239.404728 
L 1880.035211 239.404728 
L 1880.281276 239.905088 
L 1881.019474 239.905088 
L 1881.265539 238.999851 
L 1882.003737 238.999851 
L 1882.249802 238.50008 
L 1882.988 238.50008 
L 1883.234065 237.599069 
L 1883.972262 237.599069 
L 1884.218328 237.100467 
L 1885.940788 237.100467 
L 1886.186854 236.105001 
L 1886.925051 236.105001 
L 1887.171117 235.211288 
L 1887.909314 235.211288 
L 1888.15538 234.714764 
L 1889.87784 234.715106 
L 1890.123906 234.324528 
L 1891.846366 234.323965 
L 1892.092432 233.936643 
L 1893.814892 234.04369 
L 1894.060958 234.645769 
L 1894.799155 234.645769 
L 1895.045221 234.153611 
L 1895.783418 234.153611 
L 1896.029484 233.661789 
L 1896.767681 233.661789 
L 1897.013747 233.170512 
L 1897.751944 233.170512 
L 1897.99801 232.789696 
L 1898.736207 232.789696 
L 1898.982273 233.280431 
L 1900.704733 233.280431 
L 1900.950799 232.789696 
L 1901.688996 232.789696 
L 1901.935062 231.809836 
L 1902.673259 231.809836 
L 1902.919325 230.342905 
L 1904.641785 230.342905 
L 1904.88785 229.365304 
L 1905.626048 229.365304 
L 1905.872113 228.876503 
L 1906.610311 228.876503 
L 1906.856376 229.36323 
L 1907.594574 229.36323 
L 1907.840639 227.904011 
L 1908.578837 227.904011 
L 1908.824902 226.448618 
L 1909.5631 226.448618 
L 1909.809165 226.932866 
L 1910.547363 226.932866 
L 1910.793428 226.448937 
L 1912.515888 226.448937 
L 1912.761954 225.965507 
L 1914.484414 225.965507 
L 1914.73048 225.482077 
L 1915.468677 225.482077 
L 1915.714743 224.999142 
L 1916.45294 224.999142 
L 1916.699006 224.516699 
L 1917.437203 224.516699 
L 1917.683269 224.163591 
L 1918.421466 224.163591 
L 1918.667532 223.681638 
L 1920.389992 223.681638 
L 1920.636058 223.2 
L 1921.620321 223.2 
L 1921.620321 223.2 
" clip-path="url(#p4047845915)" style="fill: none; stroke: #0000ff; stroke-width: 1.5; stroke-linecap: square"/>
   </g>
   <g id="patch_15">
    <path d="M 1451.647059 1281.6 
L 1451.647059 172.8 
" style="fill: none; stroke: #000000; stroke-width: 0.8; stroke-linejoin: miter; stroke-linecap: square"/>
   </g>
   <g id="patch_16">
    <path d="M 1944 1281.6 
L 1944 172.8 
" style="fill: none; stroke: #000000; stroke-width: 0.8; stroke-linejoin: miter; stroke-linecap: square"/>
   </g>
   <g id="patch_17">
    <path d="M 1451.647059 1281.6 
L 1944 1281.6 
" style="fill: none; stroke: #000000; stroke-width: 0.8; stroke-linejoin: miter; stroke-linecap: square"/>
   </g>
   <g id="patch_18">
    <path d="M 1451.647059 172.8 
L 1944 172.8 
" style="fill: none; stroke: #000000; stroke-width: 0.8; stroke-linejoin: miter; stroke-linecap: square"/>
   </g>
   <g id="legend_3">
    <g id="patch_19">
     <path d="M 1852.957813 195.478125 
L 1937 195.478125 
Q 1939 195.478125 1939 193.478125 
L 1939 179.8 
Q 1939 177.8 1937 177.8 
L 1852.957813 177.8 
Q 1850.957813 177.8 1850.957813 179.8 
L 1850.957813 193.478125 
Q 1850.957813 195.478125 1852.957813 195.478125 
z
" style="fill: #ffffff; opacity: 0.8; stroke: #cccccc; stroke-linejoin: miter"/>
    </g>
    <g id="line2d_48">
     <path d="M 1854.957813 185.898437 
L 1864.957813 185.898437 
L 1874.957813 185.898437 
" style="fill: none; stroke: #0000ff; stroke-width: 1.5; stroke-linecap: square"/>
    </g>
    <g id="text_45">
     <!-- O3 reward -->
     <g transform="translate(1882.957813 189.398437) scale(0.1 -0.1)">
      <use xlink:href="#DejaVuSans-4f"/>
      <use xlink:href="#DejaVuSans-33" x="78.710938"/>
      <use xlink:href="#DejaVuSans-20" x="142.333984"/>
      <use xlink:href="#DejaVuSans-72" x="174.121094"/>
      <use xlink:href="#DejaVuSans-65" x="212.984375"/>
      <use xlink:href="#DejaVuSans-77" x="274.507812"/>
      <use xlink:href="#DejaVuSans-61" x="356.294922"/>
      <use xlink:href="#DejaVuSans-72" x="417.574219"/>
      <use xlink:href="#DejaVuSans-64" x="456.9375"/>
     </g>
    </g>
   </g>
  </g>
 </g>
 <defs>
  <clipPath id="p5f78c92ca3">
   <rect x="270" y="172.8" width="492.352941" height="1108.8"/>
  </clipPath>
  <clipPath id="p86735b11e0">
   <rect x="860.823529" y="172.8" width="492.352941" height="1108.8"/>
  </clipPath>
  <clipPath id="p4047845915">
   <rect x="1451.647059" y="172.8" width="492.352941" height="1108.8"/>
  </clipPath>
 </defs>
</svg>
