<?xml version="1.0" encoding="utf-8" standalone="no"?>
<!DOCTYPE svg PUBLIC "-//W3C//DTD SVG 1.1//EN"
  "http://www.w3.org/Graphics/SVG/1.1/DTD/svg11.dtd">
<svg xmlns:xlink="http://www.w3.org/1999/xlink" width="2160pt" height="1440pt" viewBox="0 0 2160 1440" xmlns="http://www.w3.org/2000/svg" version="1.1">
 <metadata>
  <rdf:RDF xmlns:dc="http://purl.org/dc/elements/1.1/" xmlns:cc="http://creativecommons.org/ns#" xmlns:rdf="http://www.w3.org/1999/02/22-rdf-syntax-ns#">
   <cc:Work>
    <dc:type rdf:resource="http://purl.org/dc/dcmitype/StillImage"/>
    <dc:date>2023-05-31T19:47:07.425170</dc:date>
    <dc:format>image/svg+xml</dc:format>
    <dc:creator>
     <cc:Agent>
      <dc:title>Matplotlib v3.7.1, https://matplotlib.org/</dc:title>
     </cc:Agent>
    </dc:creator>
   </cc:Work>
  </rdf:RDF>
 </metadata>
 <defs>
  <style type="text/css">*{stroke-linejoin: round; stroke-linecap: butt}</style>
 </defs>
 <g id="figure_1">
  <g id="patch_1">
   <path d="M 0 1440 
L 2160 1440 
L 2160 0 
L 0 0 
z
" style="fill: #ffffff"/>
  </g>
  <g id="axes_1">
   <g id="patch_2">
    <path d="M 270 1281.6 
L 762.352941 1281.6 
L 762.352941 172.8 
L 270 172.8 
z
" style="fill: #ffffff"/>
   </g>
   <g id="matplotlib.axis_1">
    <g id="xtick_1">
     <g id="line2d_1">
      <defs>
       <path id="m89d5b839bb" d="M 0 0 
L 0 3.5 
" style="stroke: #000000; stroke-width: 0.8"/>
      </defs>
      <g>
       <use xlink:href="#m89d5b839bb" x="292.072898" y="1281.6" style="stroke: #000000; stroke-width: 0.8"/>
      </g>
     </g>
     <g id="text_1">
      <!-- 0 -->
      <g transform="translate(288.891648 1296.198437) scale(0.1 -0.1)">
       <defs>
        <path id="DejaVuSans-30" d="M 2034 4250 
Q 1547 4250 1301 3770 
Q 1056 3291 1056 2328 
Q 1056 1369 1301 889 
Q 1547 409 2034 409 
Q 2525 409 2770 889 
Q 3016 1369 3016 2328 
Q 3016 3291 2770 3770 
Q 2525 4250 2034 4250 
z
M 2034 4750 
Q 2819 4750 3233 4129 
Q 3647 3509 3647 2328 
Q 3647 1150 3233 529 
Q 2819 -91 2034 -91 
Q 1250 -91 836 529 
Q 422 1150 422 2328 
Q 422 3509 836 4129 
Q 1250 4750 2034 4750 
z
" transform="scale(0.015625)"/>
       </defs>
       <use xlink:href="#DejaVuSans-30"/>
      </g>
     </g>
    </g>
    <g id="xtick_2">
     <g id="line2d_2">
      <g>
       <use xlink:href="#m89d5b839bb" x="353.429112" y="1281.6" style="stroke: #000000; stroke-width: 0.8"/>
      </g>
     </g>
     <g id="text_2">
      <!-- 200 -->
      <g transform="translate(343.885362 1296.198437) scale(0.1 -0.1)">
       <defs>
        <path id="DejaVuSans-32" d="M 1228 531 
L 3431 531 
L 3431 0 
L 469 0 
L 469 531 
Q 828 903 1448 1529 
Q 2069 2156 2228 2338 
Q 2531 2678 2651 2914 
Q 2772 3150 2772 3378 
Q 2772 3750 2511 3984 
Q 2250 4219 1831 4219 
Q 1534 4219 1204 4116 
Q 875 4013 500 3803 
L 500 4441 
Q 881 4594 1212 4672 
Q 1544 4750 1819 4750 
Q 2544 4750 2975 4387 
Q 3406 4025 3406 3419 
Q 3406 3131 3298 2873 
Q 3191 2616 2906 2266 
Q 2828 2175 2409 1742 
Q 1991 1309 1228 531 
z
" transform="scale(0.015625)"/>
       </defs>
       <use xlink:href="#DejaVuSans-32"/>
       <use xlink:href="#DejaVuSans-30" x="63.623047"/>
       <use xlink:href="#DejaVuSans-30" x="127.246094"/>
      </g>
     </g>
    </g>
    <g id="xtick_3">
     <g id="line2d_3">
      <g>
       <use xlink:href="#m89d5b839bb" x="414.785327" y="1281.6" style="stroke: #000000; stroke-width: 0.8"/>
      </g>
     </g>
     <g id="text_3">
      <!-- 400 -->
      <g transform="translate(405.241577 1296.198437) scale(0.1 -0.1)">
       <defs>
        <path id="DejaVuSans-34" d="M 2419 4116 
L 825 1625 
L 2419 1625 
L 2419 4116 
z
M 2253 4666 
L 3047 4666 
L 3047 1625 
L 3713 1625 
L 3713 1100 
L 3047 1100 
L 3047 0 
L 2419 0 
L 2419 1100 
L 313 1100 
L 313 1709 
L 2253 4666 
z
" transform="scale(0.015625)"/>
       </defs>
       <use xlink:href="#DejaVuSans-34"/>
       <use xlink:href="#DejaVuSans-30" x="63.623047"/>
       <use xlink:href="#DejaVuSans-30" x="127.246094"/>
      </g>
     </g>
    </g>
    <g id="xtick_4">
     <g id="line2d_4">
      <g>
       <use xlink:href="#m89d5b839bb" x="476.141541" y="1281.6" style="stroke: #000000; stroke-width: 0.8"/>
      </g>
     </g>
     <g id="text_4">
      <!-- 600 -->
      <g transform="translate(466.597791 1296.198437) scale(0.1 -0.1)">
       <defs>
        <path id="DejaVuSans-36" d="M 2113 2584 
Q 1688 2584 1439 2293 
Q 1191 2003 1191 1497 
Q 1191 994 1439 701 
Q 1688 409 2113 409 
Q 2538 409 2786 701 
Q 3034 994 3034 1497 
Q 3034 2003 2786 2293 
Q 2538 2584 2113 2584 
z
M 3366 4563 
L 3366 3988 
Q 3128 4100 2886 4159 
Q 2644 4219 2406 4219 
Q 1781 4219 1451 3797 
Q 1122 3375 1075 2522 
Q 1259 2794 1537 2939 
Q 1816 3084 2150 3084 
Q 2853 3084 3261 2657 
Q 3669 2231 3669 1497 
Q 3669 778 3244 343 
Q 2819 -91 2113 -91 
Q 1303 -91 875 529 
Q 447 1150 447 2328 
Q 447 3434 972 4092 
Q 1497 4750 2381 4750 
Q 2619 4750 2861 4703 
Q 3103 4656 3366 4563 
z
" transform="scale(0.015625)"/>
       </defs>
       <use xlink:href="#DejaVuSans-36"/>
       <use xlink:href="#DejaVuSans-30" x="63.623047"/>
       <use xlink:href="#DejaVuSans-30" x="127.246094"/>
      </g>
     </g>
    </g>
    <g id="xtick_5">
     <g id="line2d_5">
      <g>
       <use xlink:href="#m89d5b839bb" x="537.497755" y="1281.6" style="stroke: #000000; stroke-width: 0.8"/>
      </g>
     </g>
     <g id="text_5">
      <!-- 800 -->
      <g transform="translate(527.954005 1296.198437) scale(0.1 -0.1)">
       <defs>
        <path id="DejaVuSans-38" d="M 2034 2216 
Q 1584 2216 1326 1975 
Q 1069 1734 1069 1313 
Q 1069 891 1326 650 
Q 1584 409 2034 409 
Q 2484 409 2743 651 
Q 3003 894 3003 1313 
Q 3003 1734 2745 1975 
Q 2488 2216 2034 2216 
z
M 1403 2484 
Q 997 2584 770 2862 
Q 544 3141 544 3541 
Q 544 4100 942 4425 
Q 1341 4750 2034 4750 
Q 2731 4750 3128 4425 
Q 3525 4100 3525 3541 
Q 3525 3141 3298 2862 
Q 3072 2584 2669 2484 
Q 3125 2378 3379 2068 
Q 3634 1759 3634 1313 
Q 3634 634 3220 271 
Q 2806 -91 2034 -91 
Q 1263 -91 848 271 
Q 434 634 434 1313 
Q 434 1759 690 2068 
Q 947 2378 1403 2484 
z
M 1172 3481 
Q 1172 3119 1398 2916 
Q 1625 2713 2034 2713 
Q 2441 2713 2670 2916 
Q 2900 3119 2900 3481 
Q 2900 3844 2670 4047 
Q 2441 4250 2034 4250 
Q 1625 4250 1398 4047 
Q 1172 3844 1172 3481 
z
" transform="scale(0.015625)"/>
       </defs>
       <use xlink:href="#DejaVuSans-38"/>
       <use xlink:href="#DejaVuSans-30" x="63.623047"/>
       <use xlink:href="#DejaVuSans-30" x="127.246094"/>
      </g>
     </g>
    </g>
    <g id="xtick_6">
     <g id="line2d_6">
      <g>
       <use xlink:href="#m89d5b839bb" x="598.853969" y="1281.6" style="stroke: #000000; stroke-width: 0.8"/>
      </g>
     </g>
     <g id="text_6">
      <!-- 1000 -->
      <g transform="translate(586.128969 1296.198437) scale(0.1 -0.1)">
       <defs>
        <path id="DejaVuSans-31" d="M 794 531 
L 1825 531 
L 1825 4091 
L 703 3866 
L 703 4441 
L 1819 4666 
L 2450 4666 
L 2450 531 
L 3481 531 
L 3481 0 
L 794 0 
L 794 531 
z
" transform="scale(0.015625)"/>
       </defs>
       <use xlink:href="#DejaVuSans-31"/>
       <use xlink:href="#DejaVuSans-30" x="63.623047"/>
       <use xlink:href="#DejaVuSans-30" x="127.246094"/>
       <use xlink:href="#DejaVuSans-30" x="190.869141"/>
      </g>
     </g>
    </g>
    <g id="xtick_7">
     <g id="line2d_7">
      <g>
       <use xlink:href="#m89d5b839bb" x="660.210184" y="1281.6" style="stroke: #000000; stroke-width: 0.8"/>
      </g>
     </g>
     <g id="text_7">
      <!-- 1200 -->
      <g transform="translate(647.485184 1296.198437) scale(0.1 -0.1)">
       <use xlink:href="#DejaVuSans-31"/>
       <use xlink:href="#DejaVuSans-32" x="63.623047"/>
       <use xlink:href="#DejaVuSans-30" x="127.246094"/>
       <use xlink:href="#DejaVuSans-30" x="190.869141"/>
      </g>
     </g>
    </g>
    <g id="xtick_8">
     <g id="line2d_8">
      <g>
       <use xlink:href="#m89d5b839bb" x="721.566398" y="1281.6" style="stroke: #000000; stroke-width: 0.8"/>
      </g>
     </g>
     <g id="text_8">
      <!-- 1400 -->
      <g transform="translate(708.841398 1296.198437) scale(0.1 -0.1)">
       <use xlink:href="#DejaVuSans-31"/>
       <use xlink:href="#DejaVuSans-34" x="63.623047"/>
       <use xlink:href="#DejaVuSans-30" x="127.246094"/>
       <use xlink:href="#DejaVuSans-30" x="190.869141"/>
      </g>
     </g>
    </g>
   </g>
   <g id="matplotlib.axis_2">
    <g id="ytick_1">
     <g id="line2d_9">
      <defs>
       <path id="m1b734a194d" d="M 0 0 
L -3.5 0 
" style="stroke: #000000; stroke-width: 0.8"/>
      </defs>
      <g>
       <use xlink:href="#m1b734a194d" x="270" y="1104.618281" style="stroke: #000000; stroke-width: 0.8"/>
      </g>
     </g>
     <g id="text_9">
      <!-- −20 -->
      <g transform="translate(241.895312 1108.4175) scale(0.1 -0.1)">
       <defs>
        <path id="DejaVuSans-2212" d="M 678 2272 
L 4684 2272 
L 4684 1741 
L 678 1741 
L 678 2272 
z
" transform="scale(0.015625)"/>
       </defs>
       <use xlink:href="#DejaVuSans-2212"/>
       <use xlink:href="#DejaVuSans-32" x="83.789062"/>
       <use xlink:href="#DejaVuSans-30" x="147.412109"/>
      </g>
     </g>
    </g>
    <g id="ytick_2">
     <g id="line2d_10">
      <g>
       <use xlink:href="#m1b734a194d" x="270" y="886.445439" style="stroke: #000000; stroke-width: 0.8"/>
      </g>
     </g>
     <g id="text_10">
      <!-- −15 -->
      <g transform="translate(241.895312 890.244658) scale(0.1 -0.1)">
       <defs>
        <path id="DejaVuSans-35" d="M 691 4666 
L 3169 4666 
L 3169 4134 
L 1269 4134 
L 1269 2991 
Q 1406 3038 1543 3061 
Q 1681 3084 1819 3084 
Q 2600 3084 3056 2656 
Q 3513 2228 3513 1497 
Q 3513 744 3044 326 
Q 2575 -91 1722 -91 
Q 1428 -91 1123 -41 
Q 819 9 494 109 
L 494 744 
Q 775 591 1075 516 
Q 1375 441 1709 441 
Q 2250 441 2565 725 
Q 2881 1009 2881 1497 
Q 2881 1984 2565 2268 
Q 2250 2553 1709 2553 
Q 1456 2553 1204 2497 
Q 953 2441 691 2322 
L 691 4666 
z
" transform="scale(0.015625)"/>
       </defs>
       <use xlink:href="#DejaVuSans-2212"/>
       <use xlink:href="#DejaVuSans-31" x="83.789062"/>
       <use xlink:href="#DejaVuSans-35" x="147.412109"/>
      </g>
     </g>
    </g>
    <g id="ytick_3">
     <g id="line2d_11">
      <g>
       <use xlink:href="#m1b734a194d" x="270" y="668.272597" style="stroke: #000000; stroke-width: 0.8"/>
      </g>
     </g>
     <g id="text_11">
      <!-- −10 -->
      <g transform="translate(241.895312 672.071816) scale(0.1 -0.1)">
       <use xlink:href="#DejaVuSans-2212"/>
       <use xlink:href="#DejaVuSans-31" x="83.789062"/>
       <use xlink:href="#DejaVuSans-30" x="147.412109"/>
      </g>
     </g>
    </g>
    <g id="ytick_4">
     <g id="line2d_12">
      <g>
       <use xlink:href="#m1b734a194d" x="270" y="450.099756" style="stroke: #000000; stroke-width: 0.8"/>
      </g>
     </g>
     <g id="text_12">
      <!-- −5 -->
      <g transform="translate(248.257812 453.898974) scale(0.1 -0.1)">
       <use xlink:href="#DejaVuSans-2212"/>
       <use xlink:href="#DejaVuSans-35" x="83.789062"/>
      </g>
     </g>
    </g>
    <g id="ytick_5">
     <g id="line2d_13">
      <g>
       <use xlink:href="#m1b734a194d" x="270" y="231.926914" style="stroke: #000000; stroke-width: 0.8"/>
      </g>
     </g>
     <g id="text_13">
      <!-- 0 -->
      <g transform="translate(256.6375 235.726132) scale(0.1 -0.1)">
       <use xlink:href="#DejaVuSans-30"/>
      </g>
     </g>
    </g>
   </g>
   <g id="line2d_14">
    <path d="M 292.379679 231.926914 
L 307.718733 231.926914 
L 308.025514 223.2 
L 308.945857 223.2 
L 309.252638 229.017942 
L 310.172981 229.017942 
L 310.479762 238.908445 
L 311.400106 238.908445 
L 311.706887 240.02728 
L 312.62723 240.02728 
L 312.934011 251.11973 
L 313.854354 251.11973 
L 314.161135 255.941081 
L 315.081478 255.941081 
L 315.388259 261.101042 
L 316.308603 261.101042 
L 316.615384 265.63261 
L 317.535727 265.63261 
L 317.842508 271.510429 
L 318.762851 271.510429 
L 319.069632 275.983171 
L 321.2171 275.983171 
L 321.523881 272.280372 
L 323.671348 272.280372 
L 323.978129 277.544786 
L 324.898473 277.544786 
L 325.205254 273.096489 
L 326.125597 273.096489 
L 326.432378 269.507988 
L 328.579846 269.507988 
L 328.886627 270.409163 
L 329.80697 270.409163 
L 330.113751 265.980495 
L 332.261218 265.980495 
L 332.567999 261.569565 
L 333.488343 261.569565 
L 333.795124 257.175528 
L 334.715467 257.175528 
L 335.022248 261.246346 
L 335.942591 261.246346 
L 336.249372 254.635048 
L 338.39684 254.635048 
L 338.703621 248.50794 
L 339.623964 248.50794 
L 339.930745 252.362857 
L 340.851088 252.362857 
L 341.157869 248.50794 
L 342.078213 248.50794 
L 342.384994 254.396659 
L 344.532461 254.396659 
L 344.839242 258.553203 
L 345.759586 258.553203 
L 346.066367 265.793658 
L 346.98671 265.793658 
L 347.293491 264.70548 
L 348.213834 264.70548 
L 348.520615 267.445445 
L 349.440958 267.445445 
L 349.747739 266.399502 
L 350.668083 266.399502 
L 350.974864 265.376891 
L 351.895207 265.376891 
L 352.201988 267.170283 
L 353.122331 267.170283 
L 353.429112 277.438549 
L 354.349456 277.438549 
L 354.656237 273.778739 
L 355.57658 273.778739 
L 355.883361 276.618965 
L 356.803704 276.618965 
L 357.110485 286.754706 
L 358.030828 286.754706 
L 358.337609 290.216488 
L 359.257953 290.216488 
L 359.564734 293.26993 
L 362.939326 293.26993 
L 363.246107 296.65516 
L 364.16645 296.65516 
L 364.473231 303.093832 
L 365.393574 303.093832 
L 365.700355 299.713987 
L 366.620698 299.713987 
L 366.927479 306.163723 
L 367.847823 306.163723 
L 368.154604 312.554139 
L 369.074947 312.554139 
L 369.381728 315.639075 
L 370.302071 315.639075 
L 370.608852 325.393725 
L 371.529196 325.393725 
L 371.835977 331.948414 
L 372.75632 331.948414 
L 373.063101 341.819366 
L 373.983444 341.819366 
L 374.290225 351.524723 
L 375.210568 351.524723 
L 375.517349 358.044734 
L 376.437693 358.044734 
L 376.744474 361.37918 
L 377.664817 361.37918 
L 377.971598 367.899191 
L 378.891941 367.899191 
L 379.198722 364.75838 
L 380.119066 364.75838 
L 380.425847 358.553715 
L 381.34619 358.553715 
L 381.652971 352.4207 
L 382.573314 352.4207 
L 382.880095 349.354192 
L 383.800438 349.354192 
L 384.107219 355.908966 
L 386.254687 355.938291 
L 386.561468 356.500061 
L 387.481811 356.500061 
L 387.788592 366.710291 
L 389.93606 366.706739 
L 390.242841 360.824498 
L 391.163184 360.824498 
L 391.469965 357.886778 
L 392.390308 357.886778 
L 392.697089 352.021042 
L 393.617433 352.021042 
L 393.924214 358.723294 
L 394.844557 358.723294 
L 395.151338 361.654567 
L 397.298805 361.654567 
L 397.605587 364.58584 
L 398.52593 364.58584 
L 398.832711 361.657565 
L 399.753054 361.657565 
L 400.059835 359.639023 
L 400.980178 359.639023 
L 401.286959 353.84547 
L 402.207303 353.84547 
L 402.514084 354.81905 
L 403.434427 354.81905 
L 403.741208 359.757657 
L 404.661551 359.757657 
L 404.968332 360.844718 
L 405.888675 360.844718 
L 406.195457 357.970675 
L 408.342924 357.970675 
L 408.649705 364.789622 
L 409.570048 364.789622 
L 409.876829 361.955624 
L 410.797173 361.955624 
L 411.103954 359.123884 
L 412.024297 359.123884 
L 412.331078 360.306724 
L 413.251421 360.306724 
L 413.558202 361.513683 
L 414.478545 361.513683 
L 414.785327 365.558928 
L 415.70567 365.558928 
L 416.012451 372.445946 
L 416.932794 372.445946 
L 417.239575 383.414284 
L 418.159918 383.414284 
L 418.466699 390.3013 
L 419.387043 390.3013 
L 419.693824 399.9899 
L 420.614167 399.9899 
L 420.920948 410.962378 
L 421.841291 410.962378 
L 422.148072 420.630752 
L 423.068415 420.630752 
L 423.375197 434.442446 
L 424.29554 434.442446 
L 424.602321 445.497105 
L 425.522664 445.497105 
L 425.829445 448.283883 
L 426.749788 448.283883 
L 427.056569 459.365828 
L 427.976913 459.365828 
L 428.283694 460.731946 
L 429.204037 460.731946 
L 429.510818 469.055883 
L 431.658285 469.055883 
L 431.965067 473.217241 
L 434.112534 473.224933 
L 434.419315 477.391092 
L 435.339658 477.391092 
L 435.646439 474.632376 
L 437.793907 474.630815 
L 438.100688 478.82695 
L 439.021031 478.82695 
L 439.327812 485.774976 
L 440.248155 485.774976 
L 440.554937 480.299749 
L 441.47528 480.299749 
L 441.782061 481.809305 
L 442.702404 481.809305 
L 443.009185 476.36775 
L 443.929528 476.36775 
L 444.236309 468.238254 
L 445.156653 468.238254 
L 445.463434 472.50639 
L 446.383777 472.50639 
L 446.690558 464.399565 
L 447.610901 464.399565 
L 447.917682 471.383345 
L 448.838025 471.383345 
L 449.144807 470.271242 
L 452.519398 470.271242 
L 452.826179 467.588937 
L 453.746523 467.588937 
L 454.053304 462.230503 
L 454.973647 462.230503 
L 455.280428 456.875868 
L 456.200771 456.875868 
L 456.507552 446.184937 
L 457.427895 446.184937 
L 457.734677 435.542029 
L 458.65502 435.542029 
L 458.961801 427.583221 
L 459.882144 427.583221 
L 460.188925 419.644033 
L 461.109268 419.644033 
L 461.416049 417.002251 
L 462.336393 417.002251 
L 462.643174 409.089911 
L 463.563517 409.089911 
L 463.870298 403.821076 
L 466.017765 403.823219 
L 466.324547 401.193528 
L 467.24489 401.193528 
L 467.551671 393.313343 
L 468.472014 393.313343 
L 468.778795 400.380076 
L 469.699138 400.380076 
L 470.005919 392.514075 
L 470.926263 392.514075 
L 471.233044 401.426155 
L 472.153387 401.426155 
L 472.460168 418.195328 
L 473.380511 418.195328 
L 473.687292 415.580081 
L 474.607635 415.580081 
L 474.914417 414.818139 
L 475.83476 414.818139 
L 476.141541 404.37793 
L 477.061884 404.37793 
L 477.368665 408.860338 
L 478.289008 408.860338 
L 478.595789 420.433849 
L 479.516133 420.433849 
L 479.822914 431.315008 
L 480.743257 431.315008 
L 481.050038 438.406157 
L 481.970381 438.406157 
L 482.277162 450.682309 
L 483.197505 450.682309 
L 483.504287 462.285382 
L 484.42463 462.285382 
L 484.731411 469.382933 
L 485.651754 469.382933 
L 485.958535 473.89963 
L 486.878878 473.89963 
L 487.185659 475.19009 
L 488.106003 475.19009 
L 488.412784 486.819968 
L 489.333127 486.819968 
L 489.639908 496.506482 
L 490.560251 496.506482 
L 490.867032 498.461106 
L 491.787375 498.461106 
L 492.094156 502.994112 
L 493.0145 502.994112 
L 493.321281 516.60892 
L 494.241624 516.60892 
L 494.548405 528.266616 
L 495.468748 528.266616 
L 495.775529 549.038364 
L 496.695873 549.038364 
L 497.002654 574.399057 
L 497.922997 574.399057 
L 498.229778 583.525713 
L 499.150121 583.525713 
L 499.456902 602.353189 
L 500.377245 602.353189 
L 500.684026 618.08276 
L 501.60437 618.08276 
L 501.911151 615.522727 
L 502.831494 615.522727 
L 503.138275 610.407123 
L 504.058618 610.407123 
L 504.365399 605.293748 
L 506.512867 605.293066 
L 506.819648 602.738408 
L 507.739991 602.738408 
L 508.046772 600.183075 
L 508.967115 600.183075 
L 509.273896 595.076642 
L 510.19424 595.076642 
L 510.501021 592.008815 
L 511.421364 592.008815 
L 511.728145 591.495747 
L 512.648488 591.495747 
L 512.955269 602.721841 
L 513.875613 602.721841 
L 514.182394 600.173336 
L 515.102737 600.173336 
L 515.409518 604.768521 
L 516.329861 604.768521 
L 516.636642 613.962912 
L 517.556985 613.962912 
L 517.863766 613.467243 
L 518.78411 613.467243 
L 519.090891 618.068437 
L 520.011234 618.068437 
L 520.318015 624.247544 
L 521.238358 624.247544 
L 521.545139 626.311556 
L 522.465483 626.311556 
L 522.772264 630.443563 
L 523.692607 630.443563 
L 523.999388 632.982844 
L 524.919731 632.982844 
L 525.226512 629.977222 
L 526.146855 629.977222 
L 526.453636 629.513964 
L 527.37398 629.513964 
L 527.680761 636.665985 
L 528.601104 636.665985 
L 528.907885 629.05382 
L 529.828228 629.05382 
L 530.135009 631.133089 
L 531.055353 631.133089 
L 531.362134 642.451905 
L 532.282477 642.451905 
L 532.589258 639.916753 
L 533.509601 639.916753 
L 533.816382 646.6232 
L 534.736725 646.6232 
L 535.043506 653.336793 
L 535.96385 653.336793 
L 536.270631 660.053144 
L 537.190974 660.053144 
L 537.497755 681.530449 
L 538.418098 681.530449 
L 538.724879 684.062085 
L 539.645223 684.062085 
L 539.952004 693.75488 
L 540.872347 693.75488 
L 541.179128 693.329975 
L 542.099471 693.329975 
L 542.406252 695.859308 
L 544.55372 695.859308 
L 544.860501 700.917015 
L 545.780844 700.917015 
L 546.087625 700.498414 
L 547.007968 700.498414 
L 547.314749 697.555011 
L 548.235093 697.555011 
L 548.541874 697.143115 
L 549.462217 697.143115 
L 549.768998 699.261975 
L 550.689341 699.261975 
L 550.996122 703.500928 
L 551.916465 703.500928 
L 552.223246 700.977313 
L 553.14359 700.977313 
L 553.450371 700.576755 
L 554.370714 700.576755 
L 554.677495 709.87098 
L 555.597838 709.87098 
L 555.904619 714.124969 
L 556.824963 714.124969 
L 557.131744 716.253504 
L 558.052087 716.253504 
L 558.358868 711.214693 
L 559.279211 711.214693 
L 559.585992 715.48455 
L 560.506335 715.48455 
L 560.813116 710.449926 
L 561.73346 710.449926 
L 562.040241 709.698311 
L 562.960584 709.698311 
L 563.267365 723.674232 
L 565.414833 723.674232 
L 565.721614 728.336446 
L 566.641957 728.336446 
L 566.948738 730.486158 
L 569.096205 730.487384 
L 569.402986 730.13016 
L 570.32333 730.13016 
L 570.630111 741.976143 
L 571.550454 741.976143 
L 571.857235 736.954011 
L 572.777578 736.954011 
L 573.084359 734.442944 
L 574.004703 734.442944 
L 574.311484 736.602226 
L 575.231827 736.602226 
L 575.538608 731.581476 
L 577.686075 731.581476 
L 577.992856 729.071255 
L 578.9132 729.071255 
L 579.219981 726.561341 
L 580.140324 726.561341 
L 580.447105 719.033241 
L 581.367448 719.033241 
L 581.674229 714.015692 
L 582.594573 714.015692 
L 582.901354 706.489982 
L 583.821697 706.489982 
L 584.128478 701.473529 
L 585.048821 701.473529 
L 585.355602 696.458153 
L 586.275945 696.458153 
L 586.582726 688.937039 
L 587.50307 688.937039 
L 587.809851 715.173258 
L 588.730194 715.173258 
L 589.036975 729.545716 
L 589.957318 729.545716 
L 590.264099 746.424798 
L 591.184442 746.424798 
L 591.491224 753.611892 
L 592.411567 753.611892 
L 592.718348 760.798985 
L 593.638691 760.798985 
L 593.945472 779.854757 
L 594.865815 779.854757 
L 595.172596 794.229602 
L 596.09294 794.229602 
L 596.399721 811.108319 
L 597.320064 811.108319 
L 597.626845 832.668727 
L 598.547188 832.668727 
L 598.853969 839.85564 
L 599.774312 839.85564 
L 600.081094 837.352509 
L 601.001437 837.352509 
L 601.308218 832.347042 
L 602.228561 832.347042 
L 602.535342 834.849461 
L 603.455685 834.849461 
L 603.762466 832.347302 
L 604.68281 832.347302 
L 604.989591 829.845402 
L 605.909934 829.845402 
L 606.216715 827.343502 
L 607.137058 827.343502 
L 607.443839 832.029214 
L 608.364182 832.029214 
L 608.670964 829.527314 
L 610.818431 829.527568 
L 611.125212 829.212229 
L 612.045555 829.212229 
L 612.352336 838.901497 
L 613.27268 838.901497 
L 613.579461 841.088854 
L 614.499804 841.088854 
L 614.806585 855.155376 
L 615.726928 855.155376 
L 616.033709 857.655674 
L 616.954052 857.655674 
L 617.260834 859.845137 
L 618.181177 859.845137 
L 618.487958 876.416609 
L 619.408301 876.416609 
L 619.715082 888.299442 
L 620.635425 888.299442 
L 620.942206 887.992003 
L 621.86255 887.992003 
L 622.169331 892.684588 
L 623.089674 892.684588 
L 623.396455 895.184127 
L 624.316798 895.184127 
L 624.623579 890.18528 
L 625.543922 890.18528 
L 625.850704 894.87943 
L 626.771047 894.87943 
L 627.077828 901.769948 
L 627.998171 901.769948 
L 628.304952 899.27081 
L 629.225295 899.27081 
L 629.532076 898.967865 
L 631.679544 898.967699 
L 631.986325 901.466276 
L 632.906668 901.466276 
L 633.213449 906.163299 
L 634.133792 906.163299 
L 634.440574 905.86372 
L 635.360917 905.86372 
L 635.667698 903.365366 
L 636.588041 903.365366 
L 636.894822 908.063604 
L 637.815165 908.063604 
L 638.121946 919.959302 
L 639.04229 919.959302 
L 639.349071 922.160927 
L 640.269414 922.160927 
L 640.576195 929.358494 
L 641.496538 929.358494 
L 641.803319 931.856031 
L 642.723662 931.856031 
L 643.030444 934.353406 
L 643.950787 934.353406 
L 644.257568 939.053596 
L 646.405035 939.053596 
L 646.711816 941.550758 
L 647.63216 941.550758 
L 647.938941 943.754209 
L 648.859284 943.754209 
L 649.166065 943.461129 
L 650.086408 943.461129 
L 650.393189 948.162161 
L 651.313532 948.162161 
L 651.620314 947.870651 
L 652.540657 947.870651 
L 652.847438 952.572005 
L 653.767781 952.572005 
L 654.074562 964.618112 
L 654.994905 964.618112 
L 655.301686 969.610199 
L 657.449154 969.610397 
L 657.755935 979.018455 
L 658.676278 979.018455 
L 658.983059 974.027899 
L 659.903402 974.027899 
L 660.210184 978.732768 
L 661.130527 978.732768 
L 661.437308 988.427809 
L 662.357651 988.427809 
L 662.664432 985.933008 
L 664.8119 985.933008 
L 665.118681 990.638416 
L 666.039024 990.638416 
L 666.345805 993.132901 
L 667.266148 993.132901 
L 667.572929 1002.827314 
L 668.493272 1002.827314 
L 668.800054 1007.533631 
L 669.720397 1007.533631 
L 670.027178 1014.734306 
L 670.947521 1014.734306 
L 671.254302 1019.441181 
L 672.174645 1019.441181 
L 672.481426 1031.350014 
L 673.40177 1031.350014 
L 673.708551 1026.362776 
L 674.628894 1026.362776 
L 674.935675 1023.869337 
L 675.856018 1023.869337 
L 676.162799 1021.375898 
L 677.083142 1021.375898 
L 677.389924 1023.591452 
L 678.310267 1023.591452 
L 678.617048 1026.08456 
L 680.764515 1026.08456 
L 681.071296 1023.591452 
L 683.218764 1023.591452 
L 683.525545 1018.605762 
L 684.445888 1018.605762 
L 684.752669 1018.330594 
L 685.673012 1018.330594 
L 685.979794 1020.548867 
L 686.900137 1020.548867 
L 687.206918 1022.76731 
L 688.127261 1022.76731 
L 688.434042 1032.188511 
L 689.354385 1032.188511 
L 689.661166 1034.680263 
L 690.58151 1034.680263 
L 690.888291 1037.172015 
L 691.808634 1037.172015 
L 692.115415 1039.663767 
L 693.035758 1039.663767 
L 693.342539 1046.595462 
L 695.490007 1046.595462 
L 695.796788 1053.799181 
L 696.717131 1053.799181 
L 697.023912 1058.781272 
L 697.944255 1058.781272 
L 698.251036 1073.189261 
L 699.17138 1073.189261 
L 699.478161 1085.374038 
L 700.398504 1085.374038 
L 700.705285 1087.597876 
L 701.625628 1087.597876 
L 701.932409 1094.802239 
L 702.852752 1094.802239 
L 703.159533 1094.536804 
L 704.079877 1094.536804 
L 704.386658 1099.251757 
L 705.307001 1099.251757 
L 705.613782 1101.741648 
L 706.534125 1101.741648 
L 706.840906 1113.662179 
L 707.76125 1113.662179 
L 708.068031 1120.86762 
L 708.988374 1120.86762 
L 709.295155 1128.073197 
L 711.442622 1128.073197 
L 711.749403 1130.562482 
L 713.896871 1130.562482 
L 714.203652 1135.27863 
L 716.35112 1135.27863 
L 716.657901 1137.767915 
L 718.805368 1137.767915 
L 719.112149 1144.973939 
L 720.032492 1144.973939 
L 720.339273 1142.484805 
L 721.259617 1142.484805 
L 721.566398 1139.995822 
L 722.486741 1139.995822 
L 722.793522 1154.408887 
L 723.713865 1154.408887 
L 724.020646 1151.920199 
L 724.94099 1151.920199 
L 725.247771 1159.126943 
L 726.168114 1159.126943 
L 726.474895 1156.638402 
L 727.395238 1156.638402 
L 727.702019 1168.564076 
L 728.622362 1168.564076 
L 728.929143 1178.259512 
L 731.076611 1178.259512 
L 731.383392 1187.954663 
L 732.303735 1187.954663 
L 732.610516 1195.161988 
L 733.53086 1195.161988 
L 733.837641 1202.369453 
L 734.757984 1202.369453 
L 735.064765 1207.089512 
L 735.985108 1207.089512 
L 736.291889 1212.063908 
L 737.212232 1212.063908 
L 737.519013 1219.271373 
L 738.439357 1219.271373 
L 738.746138 1226.478976 
L 739.666481 1226.478976 
L 739.973262 1231.2 
L 739.973262 1231.2 
" clip-path="url(#pdcb0f4dd14)" style="fill: none; stroke: #0000ff; stroke-width: 1.5; stroke-linecap: square"/>
   </g>
   <g id="patch_3">
    <path d="M 270 1281.6 
L 270 172.8 
" style="fill: none; stroke: #000000; stroke-width: 0.8; stroke-linejoin: miter; stroke-linecap: square"/>
   </g>
   <g id="patch_4">
    <path d="M 762.352941 1281.6 
L 762.352941 172.8 
" style="fill: none; stroke: #000000; stroke-width: 0.8; stroke-linejoin: miter; stroke-linecap: square"/>
   </g>
   <g id="patch_5">
    <path d="M 270 1281.6 
L 762.352941 1281.6 
" style="fill: none; stroke: #000000; stroke-width: 0.8; stroke-linejoin: miter; stroke-linecap: square"/>
   </g>
   <g id="patch_6">
    <path d="M 270 172.8 
L 762.352941 172.8 
" style="fill: none; stroke: #000000; stroke-width: 0.8; stroke-linejoin: miter; stroke-linecap: square"/>
   </g>
   <g id="legend_1">
    <g id="patch_7">
     <path d="M 671.310754 195.478125 
L 755.352941 195.478125 
Q 757.352941 195.478125 757.352941 193.478125 
L 757.352941 179.8 
Q 757.352941 177.8 755.352941 177.8 
L 671.310754 177.8 
Q 669.310754 177.8 669.310754 179.8 
L 669.310754 193.478125 
Q 669.310754 195.478125 671.310754 195.478125 
z
" style="fill: #ffffff; opacity: 0.8; stroke: #cccccc; stroke-linejoin: miter"/>
    </g>
    <g id="line2d_15">
     <path d="M 673.310754 185.898437 
L 683.310754 185.898437 
L 693.310754 185.898437 
" style="fill: none; stroke: #0000ff; stroke-width: 1.5; stroke-linecap: square"/>
    </g>
    <g id="text_14">
     <!-- O1 reward -->
     <g transform="translate(701.310754 189.398437) scale(0.1 -0.1)">
      <defs>
       <path id="DejaVuSans-4f" d="M 2522 4238 
Q 1834 4238 1429 3725 
Q 1025 3213 1025 2328 
Q 1025 1447 1429 934 
Q 1834 422 2522 422 
Q 3209 422 3611 934 
Q 4013 1447 4013 2328 
Q 4013 3213 3611 3725 
Q 3209 4238 2522 4238 
z
M 2522 4750 
Q 3503 4750 4090 4092 
Q 4678 3434 4678 2328 
Q 4678 1225 4090 567 
Q 3503 -91 2522 -91 
Q 1538 -91 948 565 
Q 359 1222 359 2328 
Q 359 3434 948 4092 
Q 1538 4750 2522 4750 
z
" transform="scale(0.015625)"/>
       <path id="DejaVuSans-20" transform="scale(0.015625)"/>
       <path id="DejaVuSans-72" d="M 2631 2963 
Q 2534 3019 2420 3045 
Q 2306 3072 2169 3072 
Q 1681 3072 1420 2755 
Q 1159 2438 1159 1844 
L 1159 0 
L 581 0 
L 581 3500 
L 1159 3500 
L 1159 2956 
Q 1341 3275 1631 3429 
Q 1922 3584 2338 3584 
Q 2397 3584 2469 3576 
Q 2541 3569 2628 3553 
L 2631 2963 
z
" transform="scale(0.015625)"/>
       <path id="DejaVuSans-65" d="M 3597 1894 
L 3597 1613 
L 953 1613 
Q 991 1019 1311 708 
Q 1631 397 2203 397 
Q 2534 397 2845 478 
Q 3156 559 3463 722 
L 3463 178 
Q 3153 47 2828 -22 
Q 2503 -91 2169 -91 
Q 1331 -91 842 396 
Q 353 884 353 1716 
Q 353 2575 817 3079 
Q 1281 3584 2069 3584 
Q 2775 3584 3186 3129 
Q 3597 2675 3597 1894 
z
M 3022 2063 
Q 3016 2534 2758 2815 
Q 2500 3097 2075 3097 
Q 1594 3097 1305 2825 
Q 1016 2553 972 2059 
L 3022 2063 
z
" transform="scale(0.015625)"/>
       <path id="DejaVuSans-77" d="M 269 3500 
L 844 3500 
L 1563 769 
L 2278 3500 
L 2956 3500 
L 3675 769 
L 4391 3500 
L 4966 3500 
L 4050 0 
L 3372 0 
L 2619 2869 
L 1863 0 
L 1184 0 
L 269 3500 
z
" transform="scale(0.015625)"/>
       <path id="DejaVuSans-61" d="M 2194 1759 
Q 1497 1759 1228 1600 
Q 959 1441 959 1056 
Q 959 750 1161 570 
Q 1363 391 1709 391 
Q 2188 391 2477 730 
Q 2766 1069 2766 1631 
L 2766 1759 
L 2194 1759 
z
M 3341 1997 
L 3341 0 
L 2766 0 
L 2766 531 
Q 2569 213 2275 61 
Q 1981 -91 1556 -91 
Q 1019 -91 701 211 
Q 384 513 384 1019 
Q 384 1609 779 1909 
Q 1175 2209 1959 2209 
L 2766 2209 
L 2766 2266 
Q 2766 2663 2505 2880 
Q 2244 3097 1772 3097 
Q 1472 3097 1187 3025 
Q 903 2953 641 2809 
L 641 3341 
Q 956 3463 1253 3523 
Q 1550 3584 1831 3584 
Q 2591 3584 2966 3190 
Q 3341 2797 3341 1997 
z
" transform="scale(0.015625)"/>
       <path id="DejaVuSans-64" d="M 2906 2969 
L 2906 4863 
L 3481 4863 
L 3481 0 
L 2906 0 
L 2906 525 
Q 2725 213 2448 61 
Q 2172 -91 1784 -91 
Q 1150 -91 751 415 
Q 353 922 353 1747 
Q 353 2572 751 3078 
Q 1150 3584 1784 3584 
Q 2172 3584 2448 3432 
Q 2725 3281 2906 2969 
z
M 947 1747 
Q 947 1113 1208 752 
Q 1469 391 1925 391 
Q 2381 391 2643 752 
Q 2906 1113 2906 1747 
Q 2906 2381 2643 2742 
Q 2381 3103 1925 3103 
Q 1469 3103 1208 2742 
Q 947 2381 947 1747 
z
" transform="scale(0.015625)"/>
      </defs>
      <use xlink:href="#DejaVuSans-4f"/>
      <use xlink:href="#DejaVuSans-31" x="78.710938"/>
      <use xlink:href="#DejaVuSans-20" x="142.333984"/>
      <use xlink:href="#DejaVuSans-72" x="174.121094"/>
      <use xlink:href="#DejaVuSans-65" x="212.984375"/>
      <use xlink:href="#DejaVuSans-77" x="274.507812"/>
      <use xlink:href="#DejaVuSans-61" x="356.294922"/>
      <use xlink:href="#DejaVuSans-72" x="417.574219"/>
      <use xlink:href="#DejaVuSans-64" x="456.9375"/>
     </g>
    </g>
   </g>
  </g>
  <g id="axes_2">
   <g id="patch_8">
    <path d="M 860.823529 1281.6 
L 1353.176471 1281.6 
L 1353.176471 172.8 
L 860.823529 172.8 
z
" style="fill: #ffffff"/>
   </g>
   <g id="matplotlib.axis_3">
    <g id="xtick_9">
     <g id="line2d_16">
      <g>
       <use xlink:href="#m89d5b839bb" x="882.896427" y="1281.6" style="stroke: #000000; stroke-width: 0.8"/>
      </g>
     </g>
     <g id="text_15">
      <!-- 0 -->
      <g transform="translate(879.715177 1296.198437) scale(0.1 -0.1)">
       <use xlink:href="#DejaVuSans-30"/>
      </g>
     </g>
    </g>
    <g id="xtick_10">
     <g id="line2d_17">
      <g>
       <use xlink:href="#m89d5b839bb" x="944.252642" y="1281.6" style="stroke: #000000; stroke-width: 0.8"/>
      </g>
     </g>
     <g id="text_16">
      <!-- 200 -->
      <g transform="translate(934.708892 1296.198437) scale(0.1 -0.1)">
       <use xlink:href="#DejaVuSans-32"/>
       <use xlink:href="#DejaVuSans-30" x="63.623047"/>
       <use xlink:href="#DejaVuSans-30" x="127.246094"/>
      </g>
     </g>
    </g>
    <g id="xtick_11">
     <g id="line2d_18">
      <g>
       <use xlink:href="#m89d5b839bb" x="1005.608856" y="1281.6" style="stroke: #000000; stroke-width: 0.8"/>
      </g>
     </g>
     <g id="text_17">
      <!-- 400 -->
      <g transform="translate(996.065106 1296.198437) scale(0.1 -0.1)">
       <use xlink:href="#DejaVuSans-34"/>
       <use xlink:href="#DejaVuSans-30" x="63.623047"/>
       <use xlink:href="#DejaVuSans-30" x="127.246094"/>
      </g>
     </g>
    </g>
    <g id="xtick_12">
     <g id="line2d_19">
      <g>
       <use xlink:href="#m89d5b839bb" x="1066.96507" y="1281.6" style="stroke: #000000; stroke-width: 0.8"/>
      </g>
     </g>
     <g id="text_18">
      <!-- 600 -->
      <g transform="translate(1057.42132 1296.198437) scale(0.1 -0.1)">
       <use xlink:href="#DejaVuSans-36"/>
       <use xlink:href="#DejaVuSans-30" x="63.623047"/>
       <use xlink:href="#DejaVuSans-30" x="127.246094"/>
      </g>
     </g>
    </g>
    <g id="xtick_13">
     <g id="line2d_20">
      <g>
       <use xlink:href="#m89d5b839bb" x="1128.321284" y="1281.6" style="stroke: #000000; stroke-width: 0.8"/>
      </g>
     </g>
     <g id="text_19">
      <!-- 800 -->
      <g transform="translate(1118.777534 1296.198437) scale(0.1 -0.1)">
       <use xlink:href="#DejaVuSans-38"/>
       <use xlink:href="#DejaVuSans-30" x="63.623047"/>
       <use xlink:href="#DejaVuSans-30" x="127.246094"/>
      </g>
     </g>
    </g>
    <g id="xtick_14">
     <g id="line2d_21">
      <g>
       <use xlink:href="#m89d5b839bb" x="1189.677499" y="1281.6" style="stroke: #000000; stroke-width: 0.8"/>
      </g>
     </g>
     <g id="text_20">
      <!-- 1000 -->
      <g transform="translate(1176.952499 1296.198437) scale(0.1 -0.1)">
       <use xlink:href="#DejaVuSans-31"/>
       <use xlink:href="#DejaVuSans-30" x="63.623047"/>
       <use xlink:href="#DejaVuSans-30" x="127.246094"/>
       <use xlink:href="#DejaVuSans-30" x="190.869141"/>
      </g>
     </g>
    </g>
    <g id="xtick_15">
     <g id="line2d_22">
      <g>
       <use xlink:href="#m89d5b839bb" x="1251.033713" y="1281.6" style="stroke: #000000; stroke-width: 0.8"/>
      </g>
     </g>
     <g id="text_21">
      <!-- 1200 -->
      <g transform="translate(1238.308713 1296.198437) scale(0.1 -0.1)">
       <use xlink:href="#DejaVuSans-31"/>
       <use xlink:href="#DejaVuSans-32" x="63.623047"/>
       <use xlink:href="#DejaVuSans-30" x="127.246094"/>
       <use xlink:href="#DejaVuSans-30" x="190.869141"/>
      </g>
     </g>
    </g>
    <g id="xtick_16">
     <g id="line2d_23">
      <g>
       <use xlink:href="#m89d5b839bb" x="1312.389927" y="1281.6" style="stroke: #000000; stroke-width: 0.8"/>
      </g>
     </g>
     <g id="text_22">
      <!-- 1400 -->
      <g transform="translate(1299.664927 1296.198437) scale(0.1 -0.1)">
       <use xlink:href="#DejaVuSans-31"/>
       <use xlink:href="#DejaVuSans-34" x="63.623047"/>
       <use xlink:href="#DejaVuSans-30" x="127.246094"/>
       <use xlink:href="#DejaVuSans-30" x="190.869141"/>
      </g>
     </g>
    </g>
   </g>
   <g id="matplotlib.axis_4">
    <g id="ytick_6">
     <g id="line2d_24">
      <g>
       <use xlink:href="#m1b734a194d" x="860.823529" y="1231.2" style="stroke: #000000; stroke-width: 0.8"/>
      </g>
     </g>
     <g id="text_23">
      <!-- 0 -->
      <g transform="translate(847.461029 1234.999219) scale(0.1 -0.1)">
       <use xlink:href="#DejaVuSans-30"/>
      </g>
     </g>
    </g>
    <g id="ytick_7">
     <g id="line2d_25">
      <g>
       <use xlink:href="#m1b734a194d" x="860.823529" y="1033.869007" style="stroke: #000000; stroke-width: 0.8"/>
      </g>
     </g>
     <g id="text_24">
      <!-- 20 -->
      <g transform="translate(841.098529 1037.668226) scale(0.1 -0.1)">
       <use xlink:href="#DejaVuSans-32"/>
       <use xlink:href="#DejaVuSans-30" x="63.623047"/>
      </g>
     </g>
    </g>
    <g id="ytick_8">
     <g id="line2d_26">
      <g>
       <use xlink:href="#m1b734a194d" x="860.823529" y="836.538014" style="stroke: #000000; stroke-width: 0.8"/>
      </g>
     </g>
     <g id="text_25">
      <!-- 40 -->
      <g transform="translate(841.098529 840.337233) scale(0.1 -0.1)">
       <use xlink:href="#DejaVuSans-34"/>
       <use xlink:href="#DejaVuSans-30" x="63.623047"/>
      </g>
     </g>
    </g>
    <g id="ytick_9">
     <g id="line2d_27">
      <g>
       <use xlink:href="#m1b734a194d" x="860.823529" y="639.207021" style="stroke: #000000; stroke-width: 0.8"/>
      </g>
     </g>
     <g id="text_26">
      <!-- 60 -->
      <g transform="translate(841.098529 643.00624) scale(0.1 -0.1)">
       <use xlink:href="#DejaVuSans-36"/>
       <use xlink:href="#DejaVuSans-30" x="63.623047"/>
      </g>
     </g>
    </g>
    <g id="ytick_10">
     <g id="line2d_28">
      <g>
       <use xlink:href="#m1b734a194d" x="860.823529" y="441.876029" style="stroke: #000000; stroke-width: 0.8"/>
      </g>
     </g>
     <g id="text_27">
      <!-- 80 -->
      <g transform="translate(841.098529 445.675247) scale(0.1 -0.1)">
       <use xlink:href="#DejaVuSans-38"/>
       <use xlink:href="#DejaVuSans-30" x="63.623047"/>
      </g>
     </g>
    </g>
    <g id="ytick_11">
     <g id="line2d_29">
      <g>
       <use xlink:href="#m1b734a194d" x="860.823529" y="244.545036" style="stroke: #000000; stroke-width: 0.8"/>
      </g>
     </g>
     <g id="text_28">
      <!-- 100 -->
      <g transform="translate(834.736029 248.344254) scale(0.1 -0.1)">
       <use xlink:href="#DejaVuSans-31"/>
       <use xlink:href="#DejaVuSans-30" x="63.623047"/>
       <use xlink:href="#DejaVuSans-30" x="127.246094"/>
      </g>
     </g>
    </g>
   </g>
   <g id="line2d_30">
    <path d="M 883.203209 1231.2 
L 897.315138 1231.127055 
L 897.621919 1227.152024 
L 898.542262 1227.152024 
L 898.849043 1228.709939 
L 899.769386 1228.709939 
L 900.076167 1227.783447 
L 900.996511 1227.783447 
L 901.303292 1229.609907 
L 902.223635 1229.609907 
L 902.530416 1221.404021 
L 903.450759 1221.404021 
L 903.75754 1208.965107 
L 904.677884 1208.965107 
L 904.984665 1202.77701 
L 905.905008 1202.77701 
L 906.211789 1186.477008 
L 907.132132 1186.477008 
L 907.438913 1171.454604 
L 913.267754 1171.454604 
L 913.574535 1164.934642 
L 916.949126 1164.934642 
L 917.255907 1157.980986 
L 920.630499 1157.980986 
L 920.93728 1148.506749 
L 921.857624 1148.506749 
L 922.164405 1145.84646 
L 923.084748 1145.84646 
L 923.391529 1142.919127 
L 925.538996 1142.919127 
L 925.845777 1124.950304 
L 926.766121 1124.950304 
L 927.072902 1096.692828 
L 927.993245 1096.692828 
L 928.300026 1089.165305 
L 929.220369 1089.165305 
L 929.52715 1074.669831 
L 930.447494 1074.669831 
L 930.754275 1039.580067 
L 931.674618 1039.580067 
L 931.981399 1015.157535 
L 945.172985 1015.157535 
L 945.479766 1007.95634 
L 948.854358 1007.95634 
L 949.161139 1000.860974 
L 950.081482 1000.860974 
L 950.388263 993.691423 
L 951.308606 993.691423 
L 951.615387 986.44959 
L 953.762855 986.44959 
L 954.069636 983.893565 
L 958.671352 983.893565 
L 958.978133 981.268848 
L 959.898476 981.268848 
L 960.205257 963.845396 
L 961.125601 963.845396 
L 961.432382 950.539406 
L 962.352725 950.539406 
L 962.659506 921.050627 
L 963.579849 921.050627 
L 963.88663 895.108615 
L 964.806973 895.108615 
L 965.113755 874.661321 
L 966.034098 874.661321 
L 966.340879 849.517044 
L 967.261222 849.517044 
L 967.568003 818.978107 
L 968.488346 818.978107 
L 968.795127 805.320281 
L 969.715471 805.320281 
L 970.022252 786.405027 
L 973.396843 786.405027 
L 973.703625 782.134733 
L 974.623968 782.134733 
L 974.930749 773.304691 
L 975.851092 773.304691 
L 976.157873 779.398442 
L 977.078216 779.398442 
L 977.384997 782.296844 
L 978.305341 782.296844 
L 978.612122 788.317752 
L 979.532465 788.317752 
L 979.839246 791.425602 
L 980.759589 791.425602 
L 981.06637 794.249657 
L 981.986713 794.249657 
L 982.293495 785.549403 
L 984.440962 785.549403 
L 984.747743 779.633042 
L 985.668086 779.633042 
L 985.974867 776.907319 
L 986.895211 776.907319 
L 987.201992 768.359924 
L 988.122335 768.359924 
L 988.429116 751.499321 
L 989.349459 751.499321 
L 989.65624 743.426568 
L 990.576583 743.426568 
L 990.883365 736.408377 
L 991.803708 736.408377 
L 992.110489 731.864869 
L 993.030832 731.864869 
L 993.337613 724.402201 
L 994.257956 724.402201 
L 994.564737 731.791167 
L 995.485081 731.791167 
L 995.791862 748.344189 
L 996.712205 748.344189 
L 997.018986 743.155755 
L 997.939329 743.155755 
L 998.24611 728.92056 
L 999.166453 728.92056 
L 999.473235 716.842451 
L 1000.393578 716.842451 
L 1000.700359 718.586615 
L 1001.620702 718.586615 
L 1001.927483 707.115804 
L 1002.847826 707.115804 
L 1003.154607 697.258611 
L 1004.074951 697.258611 
L 1004.381732 695.660881 
L 1006.529199 695.602461 
L 1006.83598 697.153538 
L 1007.756323 697.153538 
L 1008.063105 694.118376 
L 1008.983448 694.118376 
L 1009.290229 684.643834 
L 1010.210572 684.643834 
L 1010.517353 686.066577 
L 1011.437696 686.066577 
L 1011.744477 682.843205 
L 1012.664821 682.843205 
L 1012.971602 673.611641 
L 1013.891945 673.611641 
L 1014.198726 667.681626 
L 1015.119069 667.681626 
L 1015.42585 661.799359 
L 1016.346193 661.799359 
L 1016.652975 658.59642 
L 1017.573318 658.59642 
L 1017.880099 656.694799 
L 1020.027566 656.694799 
L 1020.334347 668.195986 
L 1021.254691 668.195986 
L 1021.561472 673.860848 
L 1022.481815 673.860848 
L 1022.788596 671.845425 
L 1023.708939 671.845425 
L 1024.01572 676.170285 
L 1024.936063 676.170285 
L 1025.242845 677.241715 
L 1026.163188 677.241715 
L 1026.469969 688.966333 
L 1027.390312 688.966333 
L 1027.697093 691.204872 
L 1028.617436 691.204872 
L 1028.924217 700.573027 
L 1029.844561 700.573027 
L 1030.151342 700.116079 
L 1031.071685 700.116079 
L 1031.378466 690.989919 
L 1032.298809 690.989919 
L 1032.60559 685.14925 
L 1033.525933 685.14925 
L 1033.832715 684.28576 
L 1034.753058 684.28576 
L 1035.059839 679.388777 
L 1035.980182 679.388777 
L 1036.286963 671.313494 
L 1037.207306 671.313494 
L 1037.514087 674.547988 
L 1038.434431 674.547988 
L 1038.741212 677.777109 
L 1039.661555 677.777109 
L 1039.968336 677.008125 
L 1040.888679 677.008125 
L 1041.19546 673.768201 
L 1042.115803 673.768201 
L 1042.422585 665.076154 
L 1043.342928 665.076154 
L 1043.649709 659.682929 
L 1045.797176 659.682929 
L 1046.103957 655.065522 
L 1047.024301 655.065522 
L 1047.331082 660.293203 
L 1048.251425 660.293203 
L 1048.558206 669.275246 
L 1049.478549 669.275246 
L 1049.78533 671.932806 
L 1050.705673 671.932806 
L 1051.012455 671.395062 
L 1051.932798 671.395062 
L 1052.239579 670.350199 
L 1053.159922 670.350199 
L 1053.466703 672.614939 
L 1054.387046 672.614939 
L 1054.693827 664.323634 
L 1055.614171 664.323634 
L 1055.920952 643.967685 
L 1056.841295 643.967685 
L 1057.148076 631.968255 
L 1058.068419 631.968255 
L 1058.3752 616.187857 
L 1059.295543 616.187857 
L 1059.602324 600.305254 
L 1060.522668 600.305254 
L 1060.829449 585.261521 
L 1061.749792 585.261521 
L 1062.056573 577.405206 
L 1062.976916 577.405206 
L 1063.283697 566.406372 
L 1064.204041 566.406372 
L 1064.510822 551.584318 
L 1065.431165 551.584318 
L 1065.737946 544.263614 
L 1066.658289 544.263614 
L 1066.96507 533.399549 
L 1067.885413 533.399549 
L 1068.192194 537.162878 
L 1069.112538 537.162878 
L 1069.419319 530.681391 
L 1070.339662 530.681391 
L 1070.646443 541.153696 
L 1071.566786 541.153696 
L 1071.873567 541.448963 
L 1072.793911 541.448963 
L 1073.100692 541.693395 
L 1074.021035 541.693395 
L 1074.327816 538.566696 
L 1076.475283 538.675215 
L 1076.782064 538.873356 
L 1077.702408 538.873356 
L 1078.009189 549.059073 
L 1078.929532 549.059073 
L 1079.236313 555.683681 
L 1080.156656 555.683681 
L 1080.463437 558.924491 
L 1081.383781 558.924491 
L 1081.690562 555.678352 
L 1082.610905 555.678352 
L 1082.917686 552.301351 
L 1083.838029 552.301351 
L 1084.14481 545.691837 
L 1085.065153 545.691837 
L 1085.371934 539.157808 
L 1087.519402 539.144696 
L 1087.826183 542.432978 
L 1088.746526 542.432978 
L 1089.053307 539.255334 
L 1089.973651 539.255334 
L 1090.280432 536.096477 
L 1091.200775 536.096477 
L 1091.814337 536.211175 
L 1092.427899 536.211175 
L 1092.73468 549.068117 
L 1093.655023 549.068117 
L 1093.961804 552.372177 
L 1094.882148 552.372177 
L 1095.188929 543.5099 
L 1096.109272 543.5099 
L 1096.416053 546.864143 
L 1097.336396 546.864143 
L 1097.643177 550.481414 
L 1098.563521 550.481414 
L 1098.870302 547.38009 
L 1099.790645 547.38009 
L 1100.097426 547.667842 
L 1101.017769 547.667842 
L 1101.32455 551.72637 
L 1102.244893 551.72637 
L 1102.551674 552.833983 
L 1104.699142 552.836097 
L 1105.005923 543.735146 
L 1105.926266 543.735146 
L 1106.233047 537.691079 
L 1107.153391 537.691079 
L 1107.460172 534.672053 
L 1108.380515 534.672053 
L 1108.687296 528.644212 
L 1109.607639 528.644212 
L 1109.91442 525.635383 
L 1110.834763 525.635383 
L 1111.141544 522.628507 
L 1112.061888 522.628507 
L 1112.368669 516.620497 
L 1113.289012 516.620497 
L 1113.595793 510.619953 
L 1114.516136 510.619953 
L 1114.822917 504.626669 
L 1115.743261 504.626669 
L 1116.050042 501.63271 
L 1116.970385 501.63271 
L 1117.277166 492.677804 
L 1118.197509 492.677804 
L 1118.50429 486.727168 
L 1119.424633 486.727168 
L 1119.731414 483.754407 
L 1121.878882 483.754407 
L 1122.185663 480.783329 
L 1123.106006 480.783329 
L 1123.412787 471.889765 
L 1124.333131 471.889765 
L 1124.639912 463.028611 
L 1125.560255 463.028611 
L 1125.867036 454.203334 
L 1126.787379 454.203334 
L 1127.09416 448.338092 
L 1128.014503 448.338092 
L 1128.321284 439.56925 
L 1129.241628 439.56925 
L 1129.548409 449.692245 
L 1130.468752 449.692245 
L 1130.775533 457.630319 
L 1131.695876 457.630319 
L 1132.002657 459.851948 
L 1132.923001 459.851948 
L 1133.229782 462.143554 
L 1134.150125 462.143554 
L 1134.456906 469.419037 
L 1136.604373 469.436041 
L 1136.911154 467.17575 
L 1137.831498 467.17575 
L 1138.138279 470.842302 
L 1139.058622 470.842302 
L 1139.365403 467.917156 
L 1140.285746 467.917156 
L 1140.592527 469.767564 
L 1141.512871 469.767564 
L 1141.819652 458.67254 
L 1142.739995 458.67254 
L 1143.046776 447.620735 
L 1143.967119 447.620735 
L 1144.2739 436.608644 
L 1145.194243 436.608644 
L 1145.501024 428.387168 
L 1146.421368 428.387168 
L 1146.728149 420.197302 
L 1147.648492 420.197302 
L 1147.955273 414.750575 
L 1148.875616 414.750575 
L 1149.182397 406.602141 
L 1150.102741 406.602141 
L 1150.409522 403.891933 
L 1151.329865 403.891933 
L 1151.636646 398.481544 
L 1152.556989 398.481544 
L 1152.86377 393.084457 
L 1153.784113 393.084457 
L 1154.090894 394.187006 
L 1155.011238 394.187006 
L 1155.318019 403.374096 
L 1157.465486 403.370998 
L 1157.772267 401.826372 
L 1159.919735 401.826372 
L 1160.226516 397.609812 
L 1163.601108 397.609812 
L 1163.907889 400.286074 
L 1167.28248 400.286074 
L 1167.589262 397.612814 
L 1169.736729 397.612814 
L 1170.04351 398.777923 
L 1170.963853 398.777923 
L 1171.270634 402.620277 
L 1172.190978 402.620277 
L 1172.497759 401.158656 
L 1173.418102 401.158656 
L 1173.724883 407.669549 
L 1174.645226 407.669549 
L 1174.952007 413.971041 
L 1175.87235 413.971041 
L 1176.179132 417.845195 
L 1177.099475 417.845195 
L 1177.406256 421.719382 
L 1178.326599 421.719382 
L 1178.63338 419.084624 
L 1179.553723 419.084624 
L 1179.860504 413.820228 
L 1180.780848 413.820228 
L 1181.087629 408.566934 
L 1182.007972 408.566934 
L 1182.314753 400.70131 
L 1183.235096 400.70131 
L 1183.541877 398.083884 
L 1184.46222 398.083884 
L 1184.769002 395.469184 
L 1185.689345 395.469184 
L 1185.996126 392.85711 
L 1186.916469 392.85711 
L 1187.22325 390.24763 
L 1189.370718 390.24763 
L 1189.677499 385.034953 
L 1190.597842 385.034953 
L 1190.904623 382.431741 
L 1191.824966 382.431741 
L 1192.131747 385.033811 
L 1193.05209 385.033811 
L 1193.358872 386.362212 
L 1194.279215 386.362212 
L 1194.585996 385.099819 
L 1195.506339 385.099819 
L 1195.81312 382.506563 
L 1196.733463 382.506563 
L 1197.040244 385.098704 
L 1197.960588 385.098704 
L 1198.267369 382.50904 
L 1199.187712 382.50904 
L 1199.494493 379.921996 
L 1200.414836 379.921996 
L 1200.721617 372.175735 
L 1201.64196 372.175735 
L 1201.948742 373.550712 
L 1202.869085 373.550712 
L 1203.175866 365.835796 
L 1204.096209 365.835796 
L 1204.40299 355.578526 
L 1205.323333 355.578526 
L 1205.630114 353.020052 
L 1206.550458 353.020052 
L 1206.857239 347.910294 
L 1207.777582 347.910294 
L 1208.084363 340.256577 
L 1209.004706 340.256577 
L 1209.311487 335.164784 
L 1210.23183 335.164784 
L 1210.538612 330.079481 
L 1211.458955 330.079481 
L 1211.765736 319.934811 
L 1212.686079 319.934811 
L 1212.99286 312.347549 
L 1213.913203 312.347549 
L 1214.219984 307.296515 
L 1215.140328 307.296515 
L 1215.447109 303.732764 
L 1216.367452 303.732764 
L 1216.674233 302.699957 
L 1217.594576 302.699957 
L 1217.901357 306.709829 
L 1218.8217 306.709829 
L 1219.128482 304.684364 
L 1220.048825 304.684364 
L 1220.355606 301.171926 
L 1221.275949 301.171926 
L 1221.58273 305.19027 
L 1223.730198 305.19027 
L 1224.036979 304.205536 
L 1224.957322 304.205536 
L 1225.264103 303.226095 
L 1226.184446 303.226095 
L 1226.491227 300.724375 
L 1227.41157 300.724375 
L 1227.718352 298.22461 
L 1231.092943 298.22461 
L 1231.399724 300.722247 
L 1232.320068 300.722247 
L 1232.626849 299.766698 
L 1233.547192 299.766698 
L 1233.853973 298.817259 
L 1234.774316 298.817259 
L 1235.081097 296.325367 
L 1236.00144 296.325367 
L 1236.308222 293.83537 
L 1238.455689 293.83537 
L 1238.76247 296.323283 
L 1239.682813 296.323283 
L 1239.989594 291.351506 
L 1240.909938 291.351506 
L 1241.216719 288.867637 
L 1242.137062 288.867637 
L 1242.443843 283.902832 
L 1244.59131 283.902832 
L 1244.898092 281.422943 
L 1245.818435 281.422943 
L 1246.125216 276.467846 
L 1247.045559 276.467846 
L 1247.35234 273.992628 
L 1248.272683 273.992628 
L 1248.579464 271.519396 
L 1249.499808 271.519396 
L 1249.806589 269.047994 
L 1250.726932 269.047994 
L 1251.033713 264.110781 
L 1251.954056 264.110781 
L 1252.260837 265.703875 
L 1253.18118 265.703875 
L 1253.487962 266.448616 
L 1254.408305 266.448616 
L 1254.715086 265.594546 
L 1255.635429 265.594546 
L 1255.94221 263.136019 
L 1256.862553 263.136019 
L 1257.169334 269.660943 
L 1258.089678 269.660943 
L 1258.396459 272.113813 
L 1259.316802 272.113813 
L 1259.623583 273.743341 
L 1260.543926 273.743341 
L 1260.850707 272.110483 
L 1261.77105 272.110483 
L 1262.077831 278.639572 
L 1262.998175 278.639572 
L 1263.304956 277.833245 
L 1265.452423 277.833245 
L 1265.759204 274.592326 
L 1270.36092 274.592326 
L 1270.667701 277.032035 
L 1272.815169 277.032035 
L 1273.12195 274.593989 
L 1274.042293 274.593989 
L 1274.349074 272.157591 
L 1275.269418 272.157591 
L 1275.576199 271.381772 
L 1276.496542 271.381772 
L 1276.803323 268.181494 
L 1277.723666 268.181494 
L 1278.030447 267.42403 
L 1278.95079 267.42403 
L 1279.257571 269.850898 
L 1280.177915 269.850898 
L 1280.484696 267.425633 
L 1281.405039 267.425633 
L 1281.71182 269.105336 
L 1282.632163 269.105336 
L 1282.938944 263.525445 
L 1283.859288 263.525445 
L 1284.166069 261.105815 
L 1285.086412 261.105815 
L 1285.393193 258.687738 
L 1286.313536 258.687738 
L 1286.620317 256.270537 
L 1287.54066 256.270537 
L 1287.847441 253.854881 
L 1288.767785 253.854881 
L 1289.074566 251.440965 
L 1291.222033 251.440965 
L 1291.528814 255.557065 
L 1292.449158 255.557065 
L 1292.755939 250.735567 
L 1294.903406 250.735567 
L 1295.210187 253.144696 
L 1296.13053 253.144696 
L 1296.437311 248.331341 
L 1297.357655 248.331341 
L 1297.664436 245.927095 
L 1298.584779 245.927095 
L 1298.89156 243.524513 
L 1299.811903 243.524513 
L 1300.118684 241.123422 
L 1301.039028 241.123422 
L 1301.345809 242.856688 
L 1302.266152 242.856688 
L 1302.572933 244.591252 
L 1303.493276 244.591252 
L 1303.800057 242.194139 
L 1307.174649 242.194139 
L 1307.48143 244.589787 
L 1308.401773 244.589787 
L 1308.708554 243.938298 
L 1309.628898 243.938298 
L 1309.935679 248.078692 
L 1310.856022 248.078692 
L 1311.162803 250.467556 
L 1312.083146 250.467556 
L 1312.389927 254.61429 
L 1313.31027 254.61429 
L 1313.617051 249.843981 
L 1314.537395 249.843981 
L 1314.844176 244.463323 
L 1315.764519 244.463323 
L 1316.0713 239.707454 
L 1316.991643 239.707454 
L 1317.298424 237.331654 
L 1318.218768 237.331654 
L 1318.525549 234.957204 
L 1319.445892 234.957204 
L 1319.752673 234.3695 
L 1320.673016 234.3695 
L 1320.979797 229.048312 
L 1321.90014 229.048312 
L 1322.206921 231.416397 
L 1323.127265 231.416397 
L 1323.434046 226.684368 
L 1325.581513 226.684368 
L 1325.888294 226.119891 
L 1328.035762 226.119891 
L 1328.342543 223.757442 
L 1330.49001 223.757442 
L 1330.796791 223.2 
L 1330.796791 223.2 
" clip-path="url(#pb7d390b55a)" style="fill: none; stroke: #0000ff; stroke-width: 1.5; stroke-linecap: square"/>
   </g>
   <g id="patch_9">
    <path d="M 860.823529 1281.6 
L 860.823529 172.8 
" style="fill: none; stroke: #000000; stroke-width: 0.8; stroke-linejoin: miter; stroke-linecap: square"/>
   </g>
   <g id="patch_10">
    <path d="M 1353.176471 1281.6 
L 1353.176471 172.8 
" style="fill: none; stroke: #000000; stroke-width: 0.8; stroke-linejoin: miter; stroke-linecap: square"/>
   </g>
   <g id="patch_11">
    <path d="M 860.823529 1281.6 
L 1353.176471 1281.6 
" style="fill: none; stroke: #000000; stroke-width: 0.8; stroke-linejoin: miter; stroke-linecap: square"/>
   </g>
   <g id="patch_12">
    <path d="M 860.823529 172.8 
L 1353.176471 172.8 
" style="fill: none; stroke: #000000; stroke-width: 0.8; stroke-linejoin: miter; stroke-linecap: square"/>
   </g>
   <g id="legend_2">
    <g id="patch_13">
     <path d="M 1262.134283 195.478125 
L 1346.176471 195.478125 
Q 1348.176471 195.478125 1348.176471 193.478125 
L 1348.176471 179.8 
Q 1348.176471 177.8 1346.176471 177.8 
L 1262.134283 177.8 
Q 1260.134283 177.8 1260.134283 179.8 
L 1260.134283 193.478125 
Q 1260.134283 195.478125 1262.134283 195.478125 
z
" style="fill: #ffffff; opacity: 0.8; stroke: #cccccc; stroke-linejoin: miter"/>
    </g>
    <g id="line2d_31">
     <path d="M 1264.134283 185.898437 
L 1274.134283 185.898437 
L 1284.134283 185.898437 
" style="fill: none; stroke: #0000ff; stroke-width: 1.5; stroke-linecap: square"/>
    </g>
    <g id="text_29">
     <!-- O2 reward -->
     <g transform="translate(1292.134283 189.398437) scale(0.1 -0.1)">
      <use xlink:href="#DejaVuSans-4f"/>
      <use xlink:href="#DejaVuSans-32" x="78.710938"/>
      <use xlink:href="#DejaVuSans-20" x="142.333984"/>
      <use xlink:href="#DejaVuSans-72" x="174.121094"/>
      <use xlink:href="#DejaVuSans-65" x="212.984375"/>
      <use xlink:href="#DejaVuSans-77" x="274.507812"/>
      <use xlink:href="#DejaVuSans-61" x="356.294922"/>
      <use xlink:href="#DejaVuSans-72" x="417.574219"/>
      <use xlink:href="#DejaVuSans-64" x="456.9375"/>
     </g>
    </g>
   </g>
  </g>
  <g id="axes_3">
   <g id="patch_14">
    <path d="M 1451.647059 1281.6 
L 1944 1281.6 
L 1944 172.8 
L 1451.647059 172.8 
z
" style="fill: #ffffff"/>
   </g>
   <g id="matplotlib.axis_5">
    <g id="xtick_17">
     <g id="line2d_32">
      <g>
       <use xlink:href="#m89d5b839bb" x="1473.719957" y="1281.6" style="stroke: #000000; stroke-width: 0.8"/>
      </g>
     </g>
     <g id="text_30">
      <!-- 0 -->
      <g transform="translate(1470.538707 1296.198437) scale(0.1 -0.1)">
       <use xlink:href="#DejaVuSans-30"/>
      </g>
     </g>
    </g>
    <g id="xtick_18">
     <g id="line2d_33">
      <g>
       <use xlink:href="#m89d5b839bb" x="1535.076171" y="1281.6" style="stroke: #000000; stroke-width: 0.8"/>
      </g>
     </g>
     <g id="text_31">
      <!-- 200 -->
      <g transform="translate(1525.532421 1296.198437) scale(0.1 -0.1)">
       <use xlink:href="#DejaVuSans-32"/>
       <use xlink:href="#DejaVuSans-30" x="63.623047"/>
       <use xlink:href="#DejaVuSans-30" x="127.246094"/>
      </g>
     </g>
    </g>
    <g id="xtick_19">
     <g id="line2d_34">
      <g>
       <use xlink:href="#m89d5b839bb" x="1596.432385" y="1281.6" style="stroke: #000000; stroke-width: 0.8"/>
      </g>
     </g>
     <g id="text_32">
      <!-- 400 -->
      <g transform="translate(1586.888635 1296.198437) scale(0.1 -0.1)">
       <use xlink:href="#DejaVuSans-34"/>
       <use xlink:href="#DejaVuSans-30" x="63.623047"/>
       <use xlink:href="#DejaVuSans-30" x="127.246094"/>
      </g>
     </g>
    </g>
    <g id="xtick_20">
     <g id="line2d_35">
      <g>
       <use xlink:href="#m89d5b839bb" x="1657.7886" y="1281.6" style="stroke: #000000; stroke-width: 0.8"/>
      </g>
     </g>
     <g id="text_33">
      <!-- 600 -->
      <g transform="translate(1648.24485 1296.198437) scale(0.1 -0.1)">
       <use xlink:href="#DejaVuSans-36"/>
       <use xlink:href="#DejaVuSans-30" x="63.623047"/>
       <use xlink:href="#DejaVuSans-30" x="127.246094"/>
      </g>
     </g>
    </g>
    <g id="xtick_21">
     <g id="line2d_36">
      <g>
       <use xlink:href="#m89d5b839bb" x="1719.144814" y="1281.6" style="stroke: #000000; stroke-width: 0.8"/>
      </g>
     </g>
     <g id="text_34">
      <!-- 800 -->
      <g transform="translate(1709.601064 1296.198437) scale(0.1 -0.1)">
       <use xlink:href="#DejaVuSans-38"/>
       <use xlink:href="#DejaVuSans-30" x="63.623047"/>
       <use xlink:href="#DejaVuSans-30" x="127.246094"/>
      </g>
     </g>
    </g>
    <g id="xtick_22">
     <g id="line2d_37">
      <g>
       <use xlink:href="#m89d5b839bb" x="1780.501028" y="1281.6" style="stroke: #000000; stroke-width: 0.8"/>
      </g>
     </g>
     <g id="text_35">
      <!-- 1000 -->
      <g transform="translate(1767.776028 1296.198437) scale(0.1 -0.1)">
       <use xlink:href="#DejaVuSans-31"/>
       <use xlink:href="#DejaVuSans-30" x="63.623047"/>
       <use xlink:href="#DejaVuSans-30" x="127.246094"/>
       <use xlink:href="#DejaVuSans-30" x="190.869141"/>
      </g>
     </g>
    </g>
    <g id="xtick_23">
     <g id="line2d_38">
      <g>
       <use xlink:href="#m89d5b839bb" x="1841.857242" y="1281.6" style="stroke: #000000; stroke-width: 0.8"/>
      </g>
     </g>
     <g id="text_36">
      <!-- 1200 -->
      <g transform="translate(1829.132242 1296.198437) scale(0.1 -0.1)">
       <use xlink:href="#DejaVuSans-31"/>
       <use xlink:href="#DejaVuSans-32" x="63.623047"/>
       <use xlink:href="#DejaVuSans-30" x="127.246094"/>
       <use xlink:href="#DejaVuSans-30" x="190.869141"/>
      </g>
     </g>
    </g>
    <g id="xtick_24">
     <g id="line2d_39">
      <g>
       <use xlink:href="#m89d5b839bb" x="1903.213457" y="1281.6" style="stroke: #000000; stroke-width: 0.8"/>
      </g>
     </g>
     <g id="text_37">
      <!-- 1400 -->
      <g transform="translate(1890.488457 1296.198437) scale(0.1 -0.1)">
       <use xlink:href="#DejaVuSans-31"/>
       <use xlink:href="#DejaVuSans-34" x="63.623047"/>
       <use xlink:href="#DejaVuSans-30" x="127.246094"/>
       <use xlink:href="#DejaVuSans-30" x="190.869141"/>
      </g>
     </g>
    </g>
   </g>
   <g id="matplotlib.axis_6">
    <g id="ytick_12">
     <g id="line2d_40">
      <g>
       <use xlink:href="#m1b734a194d" x="1451.647059" y="1231.2" style="stroke: #000000; stroke-width: 0.8"/>
      </g>
     </g>
     <g id="text_38">
      <!-- 0 -->
      <g transform="translate(1438.284559 1234.999219) scale(0.1 -0.1)">
       <use xlink:href="#DejaVuSans-30"/>
      </g>
     </g>
    </g>
    <g id="ytick_13">
     <g id="line2d_41">
      <g>
       <use xlink:href="#m1b734a194d" x="1451.647059" y="988.084456" style="stroke: #000000; stroke-width: 0.8"/>
      </g>
     </g>
     <g id="text_39">
      <!-- 5 -->
      <g transform="translate(1438.284559 991.883674) scale(0.1 -0.1)">
       <use xlink:href="#DejaVuSans-35"/>
      </g>
     </g>
    </g>
    <g id="ytick_14">
     <g id="line2d_42">
      <g>
       <use xlink:href="#m1b734a194d" x="1451.647059" y="744.968911" style="stroke: #000000; stroke-width: 0.8"/>
      </g>
     </g>
     <g id="text_40">
      <!-- 10 -->
      <g transform="translate(1431.922059 748.76813) scale(0.1 -0.1)">
       <use xlink:href="#DejaVuSans-31"/>
       <use xlink:href="#DejaVuSans-30" x="63.623047"/>
      </g>
     </g>
    </g>
    <g id="ytick_15">
     <g id="line2d_43">
      <g>
       <use xlink:href="#m1b734a194d" x="1451.647059" y="501.853367" style="stroke: #000000; stroke-width: 0.8"/>
      </g>
     </g>
     <g id="text_41">
      <!-- 15 -->
      <g transform="translate(1431.922059 505.652586) scale(0.1 -0.1)">
       <use xlink:href="#DejaVuSans-31"/>
       <use xlink:href="#DejaVuSans-35" x="63.623047"/>
      </g>
     </g>
    </g>
    <g id="ytick_16">
     <g id="line2d_44">
      <g>
       <use xlink:href="#m1b734a194d" x="1451.647059" y="258.737823" style="stroke: #000000; stroke-width: 0.8"/>
      </g>
     </g>
     <g id="text_42">
      <!-- 20 -->
      <g transform="translate(1431.922059 262.537041) scale(0.1 -0.1)">
       <use xlink:href="#DejaVuSans-32"/>
       <use xlink:href="#DejaVuSans-30" x="63.623047"/>
      </g>
     </g>
    </g>
   </g>
   <g id="line2d_45">
    <path d="M 1474.026738 1231.2 
L 1486.911543 1231.2 
L 1487.218324 1212.236852 
L 1488.138667 1212.236852 
L 1488.445448 1197.083936 
L 1489.365792 1197.083936 
L 1489.672573 1184.194953 
L 1490.592916 1184.194953 
L 1490.899697 1165.093018 
L 1491.82004 1165.093018 
L 1492.126821 1158.669575 
L 1493.047164 1158.669575 
L 1493.353945 1133.662236 
L 1494.274289 1133.662236 
L 1494.58107 1140.927871 
L 1495.501413 1140.927871 
L 1495.808194 1126.696198 
L 1496.728537 1126.696198 
L 1497.035318 1112.664004 
L 1497.955662 1112.664004 
L 1498.262443 1103.145284 
L 1499.182786 1103.145284 
L 1499.489567 1087.024042 
L 1500.40991 1087.024042 
L 1500.716691 1071.891201 
L 1501.637034 1071.891201 
L 1501.943815 1062.513772 
L 1504.091283 1062.513772 
L 1504.398064 1058.38591 
L 1505.318407 1058.38591 
L 1505.625188 1049.346999 
L 1506.545532 1049.346999 
L 1506.852313 1044.313164 
L 1508.99978 1044.313164 
L 1509.306561 1040.555342 
L 1510.226904 1040.555342 
L 1510.533685 1032.322858 
L 1512.681153 1032.322858 
L 1512.987934 1028.874245 
L 1513.908277 1028.874245 
L 1514.215058 1014.336073 
L 1515.135402 1014.336073 
L 1515.442183 993.9362 
L 1516.362526 993.9362 
L 1516.669307 979.644804 
L 1517.58965 979.644804 
L 1517.896431 970.135044 
L 1518.816774 970.135044 
L 1519.123555 943.60773 
L 1520.043899 943.60773 
L 1520.35068 930.4098 
L 1521.271023 930.4098 
L 1521.577804 926.26659 
L 1522.498147 926.26659 
L 1522.804928 913.344642 
L 1523.725272 913.344642 
L 1524.032053 904.738565 
L 1524.952396 904.738565 
L 1525.259177 897.394804 
L 1526.17952 897.394804 
L 1526.486301 884.556967 
L 1527.406644 884.556967 
L 1527.713425 879.325712 
L 1528.633769 879.325712 
L 1528.94055 867.630276 
L 1531.088017 867.546504 
L 1531.394798 870.854215 
L 1532.315141 870.854215 
L 1532.621923 872.903259 
L 1533.542266 872.903259 
L 1533.849047 868.104513 
L 1534.76939 868.104513 
L 1535.076171 870.118131 
L 1535.996514 870.118131 
L 1536.303295 867.298718 
L 1537.223639 867.298718 
L 1537.53042 870.464687 
L 1538.450763 870.464687 
L 1538.757544 867.495686 
L 1540.905011 867.495686 
L 1541.211793 864.470044 
L 1542.132136 864.470044 
L 1542.438917 855.538558 
L 1543.35926 855.538558 
L 1543.666041 847.792942 
L 1544.586384 847.792942 
L 1544.893165 852.518462 
L 1545.813509 852.518462 
L 1546.12029 854.410615 
L 1549.494881 854.410615 
L 1549.801663 845.597334 
L 1550.722006 845.597334 
L 1551.028787 829.016198 
L 1551.94913 829.016198 
L 1552.255911 820.975445 
L 1553.176254 820.975445 
L 1553.483035 815.294914 
L 1554.403379 815.294914 
L 1554.71016 811.571001 
L 1555.630503 811.571001 
L 1555.937284 802.677841 
L 1556.857627 802.677841 
L 1557.164408 796.711269 
L 1558.084751 796.711269 
L 1558.391533 792.080629 
L 1559.311876 792.080629 
L 1559.618657 782.601641 
L 1560.539 782.601641 
L 1560.845781 776.988241 
L 1561.766124 776.988241 
L 1562.072905 769.243799 
L 1562.993249 769.243799 
L 1563.30003 767.116955 
L 1564.220373 767.116955 
L 1564.527154 758.381316 
L 1565.447497 758.381316 
L 1565.754278 751.143095 
L 1566.674621 751.143095 
L 1566.981403 744.032549 
L 1567.901746 744.032549 
L 1568.208527 737.205016 
L 1570.355994 737.205016 
L 1570.662775 732.458475 
L 1571.583119 732.458475 
L 1571.8899 728.337271 
L 1572.810243 728.337271 
L 1573.117024 730.269539 
L 1574.037367 730.269539 
L 1574.344148 726.619604 
L 1575.264491 726.619604 
L 1575.571273 720.277202 
L 1576.491616 720.277202 
L 1576.798397 715.726271 
L 1577.71874 715.726271 
L 1578.025521 711.137383 
L 1578.945864 711.137383 
L 1579.252645 705.06398 
L 1580.172989 705.06398 
L 1580.47977 692.128648 
L 1581.400113 692.128648 
L 1581.706894 690.681536 
L 1582.627237 690.681536 
L 1582.934018 688.657436 
L 1583.854361 688.657436 
L 1584.161143 680.713208 
L 1585.081486 680.713208 
L 1585.388267 675.030933 
L 1586.30861 675.030933 
L 1586.615391 671.114549 
L 1587.535734 671.114549 
L 1587.842515 664.078756 
L 1588.762859 664.078756 
L 1589.06964 656.061686 
L 1589.989983 656.061686 
L 1590.296764 651.798134 
L 1591.217107 651.798134 
L 1591.523888 651.015399 
L 1592.444231 651.015399 
L 1592.751013 648.744362 
L 1593.671356 648.744362 
L 1593.978137 645.693037 
L 1594.89848 645.693037 
L 1595.205261 641.225798 
L 1596.125604 641.225798 
L 1596.432385 639.766916 
L 1597.352729 639.766916 
L 1597.65951 633.471643 
L 1598.579853 633.471643 
L 1598.886634 631.317943 
L 1599.806977 631.317943 
L 1600.113758 628.04882 
L 1601.034101 628.04882 
L 1601.340883 624.796528 
L 1602.261226 624.796528 
L 1602.568007 621.203552 
L 1604.715474 621.203552 
L 1605.022255 619.071843 
L 1605.942599 619.071843 
L 1606.24938 618.005347 
L 1607.169723 618.005347 
L 1607.476504 613.417349 
L 1609.623971 613.417349 
L 1609.930753 614.474249 
L 1610.851096 614.474249 
L 1611.157877 614.830924 
L 1612.07822 614.830924 
L 1612.385001 612.796024 
L 1613.305344 612.796024 
L 1613.612125 606.249071 
L 1614.532469 606.249071 
L 1614.83925 603.613756 
L 1615.759593 603.613756 
L 1616.066374 604.222711 
L 1616.986717 604.222711 
L 1617.293498 597.809427 
L 1618.213841 597.809427 
L 1618.520623 592.579662 
L 1619.440966 592.579662 
L 1619.747747 591.730842 
L 1620.66809 591.730842 
L 1620.974871 589.285186 
L 1621.895214 589.285186 
L 1622.201995 585.810841 
L 1623.122339 585.810841 
L 1623.42912 585.275635 
L 1624.349463 585.275635 
L 1624.656244 581.618702 
L 1625.576587 581.618702 
L 1625.883368 578.764293 
L 1626.803711 578.764293 
L 1627.110492 574.080251 
L 1628.030836 574.080251 
L 1628.337617 571.308283 
L 1629.25796 571.308283 
L 1629.564741 567.609122 
L 1630.485084 567.609122 
L 1630.791865 564.21317 
L 1631.712209 564.21317 
L 1632.01899 561.548678 
L 1632.939333 561.548678 
L 1633.246114 561.097564 
L 1634.166457 561.097564 
L 1634.473238 557.793807 
L 1635.393581 557.793807 
L 1635.700362 553.215159 
L 1636.620706 553.215159 
L 1636.927487 549.214582 
L 1637.84783 549.214582 
L 1638.154611 543.698137 
L 1639.074954 543.698137 
L 1639.381735 538.710258 
L 1640.302079 538.710258 
L 1640.60886 526.954605 
L 1641.529203 526.954605 
L 1641.835984 518.656368 
L 1642.756327 518.656368 
L 1643.063108 512.517791 
L 1643.983451 512.517791 
L 1644.290232 508.672678 
L 1645.210576 508.672678 
L 1645.517357 503.205955 
L 1646.4377 503.205955 
L 1646.744481 499.282397 
L 1647.664824 499.282397 
L 1647.971605 490.173706 
L 1648.891949 490.173706 
L 1649.19873 485.137858 
L 1650.119073 485.137858 
L 1650.425854 480.04954 
L 1651.346197 480.04954 
L 1651.652978 475.975695 
L 1652.573321 475.975695 
L 1652.880102 470.998157 
L 1653.800446 470.998157 
L 1654.107227 466.274744 
L 1655.02757 466.274744 
L 1655.334351 461.045968 
L 1656.254694 461.045968 
L 1656.561475 455.632771 
L 1657.481819 455.632771 
L 1657.7886 453.927415 
L 1658.708943 453.927415 
L 1659.015724 450.783534 
L 1659.936067 450.783534 
L 1660.242848 449.660435 
L 1661.163191 449.660435 
L 1661.469972 448.309355 
L 1662.390316 448.309355 
L 1662.697097 446.08151 
L 1663.61744 446.08151 
L 1663.924221 442.550906 
L 1664.844564 442.550906 
L 1665.151345 441.22807 
L 1666.071689 441.22807 
L 1666.37847 439.046809 
L 1667.298813 439.046809 
L 1667.605594 437.101626 
L 1669.753061 437.101626 
L 1670.059842 436.887772 
L 1670.980186 436.887772 
L 1671.286967 435.374189 
L 1672.20731 435.374189 
L 1672.514091 434.721298 
L 1673.434434 434.721298 
L 1673.741215 433.229019 
L 1674.661559 433.229019 
L 1674.96834 432.169904 
L 1675.888683 432.169904 
L 1676.195464 429.759378 
L 1677.115807 429.759378 
L 1677.422588 425.752265 
L 1678.342931 425.752265 
L 1678.649712 424.904198 
L 1679.570056 424.904198 
L 1679.876837 420.670714 
L 1680.79718 420.670714 
L 1681.103961 417.973798 
L 1682.024304 417.973798 
L 1682.331085 416.297959 
L 1683.251429 416.297959 
L 1683.55821 413.456895 
L 1684.478553 413.456895 
L 1684.785334 409.472489 
L 1685.705677 409.472489 
L 1686.012458 406.360521 
L 1686.932801 406.360521 
L 1687.239582 401.638967 
L 1688.159926 401.638967 
L 1688.466707 399.701909 
L 1689.38705 399.701909 
L 1689.693831 397.622993 
L 1690.614174 397.622993 
L 1690.920955 392.920559 
L 1691.841299 392.920559 
L 1692.14808 391.97511 
L 1693.068423 391.97511 
L 1693.375204 390.896866 
L 1694.295547 390.896866 
L 1694.602328 388.208821 
L 1695.522671 388.208821 
L 1695.829452 385.944432 
L 1696.749796 385.944432 
L 1697.056577 382.585316 
L 1697.97692 382.585316 
L 1698.283701 379.061674 
L 1699.204044 379.061674 
L 1699.510825 377.508877 
L 1700.431169 377.508877 
L 1700.73795 374.908901 
L 1701.658293 374.908901 
L 1701.965074 373.561794 
L 1702.885417 373.561794 
L 1703.192198 374.052214 
L 1704.112541 374.052214 
L 1704.419322 370.219256 
L 1705.339666 370.219256 
L 1705.646447 370.05257 
L 1706.56679 370.05257 
L 1706.873571 368.177449 
L 1709.021039 368.177449 
L 1709.32782 366.033367 
L 1710.248163 366.033367 
L 1710.554944 364.284409 
L 1711.475287 364.284409 
L 1711.782068 362.068652 
L 1712.702411 362.068652 
L 1713.009192 361.306487 
L 1713.929536 361.306487 
L 1714.236317 358.368929 
L 1715.15666 358.368929 
L 1715.463441 356.250182 
L 1716.383784 356.250182 
L 1716.690565 354.058413 
L 1717.610909 354.058413 
L 1717.91769 349.2581 
L 1718.838033 349.2581 
L 1719.144814 345.946588 
L 1721.292281 345.943921 
L 1721.599062 344.99171 
L 1722.519406 344.99171 
L 1722.826187 346.438341 
L 1723.74653 346.438341 
L 1724.053311 343.482246 
L 1724.973654 343.482246 
L 1725.280435 345.43452 
L 1726.200778 345.43452 
L 1726.50756 343.096808 
L 1727.427903 343.096808 
L 1727.734684 342.97036 
L 1728.655027 342.97036 
L 1728.961808 343.603651 
L 1731.109276 343.542963 
L 1731.416057 344.064429 
L 1732.3364 344.064429 
L 1732.643181 341.170123 
L 1733.563524 341.170123 
L 1733.870305 339.302035 
L 1734.790648 339.302035 
L 1735.09743 338.558207 
L 1736.017773 338.558207 
L 1736.324554 337.367651 
L 1737.244897 337.367651 
L 1737.551678 336.261465 
L 1738.472021 336.261465 
L 1738.778802 333.427806 
L 1740.92627 333.427806 
L 1741.233051 332.314256 
L 1742.153394 332.314256 
L 1742.460175 330.548424 
L 1743.380518 330.548424 
L 1743.6873 329.825729 
L 1744.607643 329.825729 
L 1744.914424 329.042789 
L 1745.834767 329.042789 
L 1746.141548 327.307962 
L 1747.061891 327.307962 
L 1747.368672 326.252591 
L 1748.289016 326.252591 
L 1748.595797 325.519964 
L 1749.51614 325.519964 
L 1749.822921 324.8086 
L 1751.970388 324.758825 
L 1752.27717 323.375737 
L 1754.424637 323.326869 
L 1754.731418 321.583104 
L 1755.651761 321.583104 
L 1755.958542 320.546542 
L 1756.878886 320.546542 
L 1757.185667 319.496852 
L 1758.10601 319.496852 
L 1758.412791 319.078454 
L 1759.333134 319.078454 
L 1759.639915 317.704349 
L 1760.560258 317.704349 
L 1760.86704 316.68135 
L 1761.787383 316.68135 
L 1762.094164 317.367885 
L 1763.014507 317.367885 
L 1763.321288 316.393829 
L 1764.241631 316.393829 
L 1764.548412 314.340691 
L 1765.468756 314.340691 
L 1765.775537 313.364205 
L 1766.69588 313.364205 
L 1767.002661 314.042778 
L 1767.923004 314.042778 
L 1768.229785 312.386424 
L 1769.150128 312.386424 
L 1769.45691 311.699204 
L 1771.604377 311.685798 
L 1771.911158 311.005029 
L 1774.058626 310.99109 
L 1774.365407 309.02082 
L 1776.512874 309.010916 
L 1776.819655 307.707422 
L 1777.739998 307.707422 
L 1778.04678 307.049172 
L 1778.967123 307.049172 
L 1779.273904 306.393164 
L 1780.194247 306.393164 
L 1780.501028 305.737699 
L 1781.421371 305.737699 
L 1781.728152 303.461285 
L 1783.87562 303.461285 
L 1784.182401 302.486421 
L 1785.102744 302.486421 
L 1785.409525 301.839795 
L 1787.556993 301.837723 
L 1787.863774 300.226675 
L 1788.784117 300.226675 
L 1789.090898 299.583958 
L 1790.011241 299.583958 
L 1790.318022 298.942613 
L 1791.238366 298.942613 
L 1791.545147 297.662547 
L 1792.46549 297.662547 
L 1792.772271 295.741014 
L 1793.692614 295.741014 
L 1793.999395 294.790992 
L 1794.919738 294.790992 
L 1795.22652 293.511373 
L 1796.146863 293.511373 
L 1796.453644 291.933187 
L 1797.373987 291.933187 
L 1797.680768 290.369644 
L 1798.601111 290.369644 
L 1798.907892 290.047077 
L 1799.828236 290.047077 
L 1800.135017 290.706213 
L 1801.05536 290.706213 
L 1801.362141 289.115808 
L 1803.509608 289.146704 
L 1803.81639 287.565266 
L 1804.736733 287.565266 
L 1805.043514 286.662698 
L 1807.190981 286.662698 
L 1807.497762 284.460718 
L 1808.418106 284.460718 
L 1808.724887 283.512745 
L 1809.64523 283.512745 
L 1809.952011 281.95422 
L 1810.872354 281.95422 
L 1811.179135 281.010146 
L 1812.099478 281.010146 
L 1812.40626 280.080327 
L 1813.326603 280.080327 
L 1813.633384 277.299011 
L 1814.553727 277.299011 
L 1814.860508 275.742399 
L 1815.780851 275.742399 
L 1816.087632 274.805256 
L 1817.007976 274.805256 
L 1817.314757 273.884188 
L 1818.2351 273.884188 
L 1818.541881 273.255825 
L 1819.462224 273.255825 
L 1819.769005 272.612036 
L 1820.689348 272.612036 
L 1820.99613 271.071041 
L 1823.143597 271.054338 
L 1823.450378 270.141582 
L 1826.82497 270.124651 
L 1827.131751 269.194339 
L 1828.052094 269.194339 
L 1828.358875 268.282266 
L 1829.279218 268.282266 
L 1829.585999 266.424866 
L 1830.506343 266.424866 
L 1830.813124 265.801506 
L 1831.733467 265.801506 
L 1832.040248 263.349261 
L 1832.960591 263.349261 
L 1833.267372 262.147473 
L 1834.187716 262.147473 
L 1834.494497 260.331821 
L 1835.41484 260.331821 
L 1835.721621 258.820695 
L 1837.869088 258.820695 
L 1838.175869 258.20399 
L 1839.096213 258.20399 
L 1839.402994 257.31219 
L 1840.323337 257.31219 
L 1840.630118 256.718776 
L 1841.550461 256.718776 
L 1841.857242 254.919229 
L 1844.00471 254.919229 
L 1844.311491 254.520123 
L 1845.231834 254.520123 
L 1845.538615 253.016953 
L 1846.458958 253.016953 
L 1846.765739 253.607313 
L 1847.686083 253.607313 
L 1847.992864 252.697077 
L 1850.140331 252.800572 
L 1850.447112 251.916316 
L 1851.367456 251.916316 
L 1851.674237 251.435585 
L 1853.821704 251.435585 
L 1854.128485 252.02299 
L 1857.503077 251.995542 
L 1857.809858 251.381721 
L 1859.957326 251.381721 
L 1860.264107 250.768926 
L 1861.18445 250.768926 
L 1861.491231 249.890905 
L 1862.411574 249.890905 
L 1862.718355 249.278918 
L 1863.638698 249.278918 
L 1863.945479 247.764423 
L 1864.865823 247.764423 
L 1865.172604 245.991371 
L 1866.092947 245.991371 
L 1866.399728 245.120655 
L 1867.320071 245.120655 
L 1867.626852 244.250564 
L 1868.547196 244.250564 
L 1868.853977 242.601912 
L 1869.77432 242.601912 
L 1870.081101 242.404868 
L 1871.001444 242.404868 
L 1871.308225 240.185765 
L 1872.228568 240.185765 
L 1872.535349 238.584314 
L 1873.455693 238.584314 
L 1873.762474 238.142994 
L 1874.682817 238.142994 
L 1874.989598 238.718886 
L 1875.909941 238.718886 
L 1876.216722 237.13035 
L 1877.137066 237.13035 
L 1877.443847 236.231273 
L 1878.36419 236.231273 
L 1878.670971 235.656281 
L 1879.591314 235.656281 
L 1879.898095 235.799023 
L 1880.818438 235.799023 
L 1881.125219 235.224031 
L 1882.045563 235.224031 
L 1882.352344 234.795336 
L 1883.272687 234.795336 
L 1883.579468 234.220343 
L 1884.499811 234.220343 
L 1884.806592 234.368403 
L 1885.726936 234.368403 
L 1886.033717 233.370388 
L 1888.181184 233.370388 
L 1888.487965 232.948224 
L 1890.635433 232.948224 
L 1890.942214 232.374519 
L 1893.089681 232.374519 
L 1893.396462 231.801678 
L 1894.316806 231.801678 
L 1894.623587 231.229695 
L 1895.54393 231.229695 
L 1895.850711 230.658563 
L 1897.998178 230.658563 
L 1898.304959 228.948075 
L 1899.225303 228.948075 
L 1899.532084 228.379026 
L 1900.452427 228.379026 
L 1900.759208 226.635162 
L 1901.679551 226.635162 
L 1901.986332 224.894966 
L 1902.906676 224.894966 
L 1903.213457 223.764989 
L 1905.360924 223.764989 
L 1905.667705 223.2 
L 1907.815173 223.2 
L 1908.121954 224.492331 
L 1909.042297 224.492331 
L 1909.349078 224.658655 
L 1910.269421 224.658655 
L 1910.576202 225.219724 
L 1911.496546 225.219724 
L 1911.803327 225.780023 
L 1912.72367 225.780023 
L 1913.030451 226.679942 
L 1913.950794 226.679942 
L 1914.257575 226.12116 
L 1915.177918 226.12116 
L 1915.484699 225.17754 
L 1916.405043 225.17754 
L 1916.711824 225.734832 
L 1917.632167 225.734832 
L 1917.938948 224.620986 
L 1918.859291 224.620986 
L 1919.166072 225.17681 
L 1920.086415 225.17681 
L 1920.393197 225.725636 
L 1921.31354 225.725636 
L 1921.620321 226.279662 
L 1921.620321 226.279662 
" clip-path="url(#p263857f212)" style="fill: none; stroke: #0000ff; stroke-width: 1.5; stroke-linecap: square"/>
   </g>
   <g id="patch_15">
    <path d="M 1451.647059 1281.6 
L 1451.647059 172.8 
" style="fill: none; stroke: #000000; stroke-width: 0.8; stroke-linejoin: miter; stroke-linecap: square"/>
   </g>
   <g id="patch_16">
    <path d="M 1944 1281.6 
L 1944 172.8 
" style="fill: none; stroke: #000000; stroke-width: 0.8; stroke-linejoin: miter; stroke-linecap: square"/>
   </g>
   <g id="patch_17">
    <path d="M 1451.647059 1281.6 
L 1944 1281.6 
" style="fill: none; stroke: #000000; stroke-width: 0.8; stroke-linejoin: miter; stroke-linecap: square"/>
   </g>
   <g id="patch_18">
    <path d="M 1451.647059 172.8 
L 1944 172.8 
" style="fill: none; stroke: #000000; stroke-width: 0.8; stroke-linejoin: miter; stroke-linecap: square"/>
   </g>
   <g id="legend_3">
    <g id="patch_19">
     <path d="M 1852.957813 195.478125 
L 1937 195.478125 
Q 1939 195.478125 1939 193.478125 
L 1939 179.8 
Q 1939 177.8 1937 177.8 
L 1852.957813 177.8 
Q 1850.957813 177.8 1850.957813 179.8 
L 1850.957813 193.478125 
Q 1850.957813 195.478125 1852.957813 195.478125 
z
" style="fill: #ffffff; opacity: 0.8; stroke: #cccccc; stroke-linejoin: miter"/>
    </g>
    <g id="line2d_46">
     <path d="M 1854.957813 185.898437 
L 1864.957813 185.898437 
L 1874.957813 185.898437 
" style="fill: none; stroke: #0000ff; stroke-width: 1.5; stroke-linecap: square"/>
    </g>
    <g id="text_43">
     <!-- O3 reward -->
     <g transform="translate(1882.957813 189.398437) scale(0.1 -0.1)">
      <defs>
       <path id="DejaVuSans-33" d="M 2597 2516 
Q 3050 2419 3304 2112 
Q 3559 1806 3559 1356 
Q 3559 666 3084 287 
Q 2609 -91 1734 -91 
Q 1441 -91 1130 -33 
Q 819 25 488 141 
L 488 750 
Q 750 597 1062 519 
Q 1375 441 1716 441 
Q 2309 441 2620 675 
Q 2931 909 2931 1356 
Q 2931 1769 2642 2001 
Q 2353 2234 1838 2234 
L 1294 2234 
L 1294 2753 
L 1863 2753 
Q 2328 2753 2575 2939 
Q 2822 3125 2822 3475 
Q 2822 3834 2567 4026 
Q 2313 4219 1838 4219 
Q 1578 4219 1281 4162 
Q 984 4106 628 3988 
L 628 4550 
Q 988 4650 1302 4700 
Q 1616 4750 1894 4750 
Q 2613 4750 3031 4423 
Q 3450 4097 3450 3541 
Q 3450 3153 3228 2886 
Q 3006 2619 2597 2516 
z
" transform="scale(0.015625)"/>
      </defs>
      <use xlink:href="#DejaVuSans-4f"/>
      <use xlink:href="#DejaVuSans-33" x="78.710938"/>
      <use xlink:href="#DejaVuSans-20" x="142.333984"/>
      <use xlink:href="#DejaVuSans-72" x="174.121094"/>
      <use xlink:href="#DejaVuSans-65" x="212.984375"/>
      <use xlink:href="#DejaVuSans-77" x="274.507812"/>
      <use xlink:href="#DejaVuSans-61" x="356.294922"/>
      <use xlink:href="#DejaVuSans-72" x="417.574219"/>
      <use xlink:href="#DejaVuSans-64" x="456.9375"/>
     </g>
    </g>
   </g>
  </g>
 </g>
 <defs>
  <clipPath id="pdcb0f4dd14">
   <rect x="270" y="172.8" width="492.352941" height="1108.8"/>
  </clipPath>
  <clipPath id="pb7d390b55a">
   <rect x="860.823529" y="172.8" width="492.352941" height="1108.8"/>
  </clipPath>
  <clipPath id="p263857f212">
   <rect x="1451.647059" y="172.8" width="492.352941" height="1108.8"/>
  </clipPath>
 </defs>
</svg>
