<?xml version="1.0" encoding="utf-8" standalone="no"?>
<!DOCTYPE svg PUBLIC "-//W3C//DTD SVG 1.1//EN"
  "http://www.w3.org/Graphics/SVG/1.1/DTD/svg11.dtd">
<svg xmlns:xlink="http://www.w3.org/1999/xlink" width="2160pt" height="1440pt" viewBox="0 0 2160 1440" xmlns="http://www.w3.org/2000/svg" version="1.1">
 <metadata>
  <rdf:RDF xmlns:dc="http://purl.org/dc/elements/1.1/" xmlns:cc="http://creativecommons.org/ns#" xmlns:rdf="http://www.w3.org/1999/02/22-rdf-syntax-ns#">
   <cc:Work>
    <dc:type rdf:resource="http://purl.org/dc/dcmitype/StillImage"/>
    <dc:date>2023-05-31T19:30:11.374986</dc:date>
    <dc:format>image/svg+xml</dc:format>
    <dc:creator>
     <cc:Agent>
      <dc:title>Matplotlib v3.7.1, https://matplotlib.org/</dc:title>
     </cc:Agent>
    </dc:creator>
   </cc:Work>
  </rdf:RDF>
 </metadata>
 <defs>
  <style type="text/css">*{stroke-linejoin: round; stroke-linecap: butt}</style>
 </defs>
 <g id="figure_1">
  <g id="patch_1">
   <path d="M 0 1440 
L 2160 1440 
L 2160 0 
L 0 0 
z
" style="fill: #ffffff"/>
  </g>
  <g id="axes_1">
   <g id="patch_2">
    <path d="M 270 1281.6 
L 762.352941 1281.6 
L 762.352941 172.8 
L 270 172.8 
z
" style="fill: #ffffff"/>
   </g>
   <g id="matplotlib.axis_1">
    <g id="xtick_1">
     <g id="line2d_1">
      <defs>
       <path id="m720046ca22" d="M 0 0 
L 0 3.5 
" style="stroke: #000000; stroke-width: 0.8"/>
      </defs>
      <g>
       <use xlink:href="#m720046ca22" x="291.797633" y="1281.6" style="stroke: #000000; stroke-width: 0.8"/>
      </g>
     </g>
     <g id="text_1">
      <!-- 0 -->
      <g transform="translate(288.616383 1296.198437) scale(0.1 -0.1)">
       <defs>
        <path id="DejaVuSans-30" d="M 2034 4250 
Q 1547 4250 1301 3770 
Q 1056 3291 1056 2328 
Q 1056 1369 1301 889 
Q 1547 409 2034 409 
Q 2525 409 2770 889 
Q 3016 1369 3016 2328 
Q 3016 3291 2770 3770 
Q 2525 4250 2034 4250 
z
M 2034 4750 
Q 2819 4750 3233 4129 
Q 3647 3509 3647 2328 
Q 3647 1150 3233 529 
Q 2819 -91 2034 -91 
Q 1250 -91 836 529 
Q 422 1150 422 2328 
Q 422 3509 836 4129 
Q 1250 4750 2034 4750 
z
" transform="scale(0.015625)"/>
       </defs>
       <use xlink:href="#DejaVuSans-30"/>
      </g>
     </g>
    </g>
    <g id="xtick_2">
     <g id="line2d_2">
      <g>
       <use xlink:href="#m720046ca22" x="350.00226" y="1281.6" style="stroke: #000000; stroke-width: 0.8"/>
      </g>
     </g>
     <g id="text_2">
      <!-- 100 -->
      <g transform="translate(340.45851 1296.198437) scale(0.1 -0.1)">
       <defs>
        <path id="DejaVuSans-31" d="M 794 531 
L 1825 531 
L 1825 4091 
L 703 3866 
L 703 4441 
L 1819 4666 
L 2450 4666 
L 2450 531 
L 3481 531 
L 3481 0 
L 794 0 
L 794 531 
z
" transform="scale(0.015625)"/>
       </defs>
       <use xlink:href="#DejaVuSans-31"/>
       <use xlink:href="#DejaVuSans-30" x="63.623047"/>
       <use xlink:href="#DejaVuSans-30" x="127.246094"/>
      </g>
     </g>
    </g>
    <g id="xtick_3">
     <g id="line2d_3">
      <g>
       <use xlink:href="#m720046ca22" x="408.206887" y="1281.6" style="stroke: #000000; stroke-width: 0.8"/>
      </g>
     </g>
     <g id="text_3">
      <!-- 200 -->
      <g transform="translate(398.663137 1296.198437) scale(0.1 -0.1)">
       <defs>
        <path id="DejaVuSans-32" d="M 1228 531 
L 3431 531 
L 3431 0 
L 469 0 
L 469 531 
Q 828 903 1448 1529 
Q 2069 2156 2228 2338 
Q 2531 2678 2651 2914 
Q 2772 3150 2772 3378 
Q 2772 3750 2511 3984 
Q 2250 4219 1831 4219 
Q 1534 4219 1204 4116 
Q 875 4013 500 3803 
L 500 4441 
Q 881 4594 1212 4672 
Q 1544 4750 1819 4750 
Q 2544 4750 2975 4387 
Q 3406 4025 3406 3419 
Q 3406 3131 3298 2873 
Q 3191 2616 2906 2266 
Q 2828 2175 2409 1742 
Q 1991 1309 1228 531 
z
" transform="scale(0.015625)"/>
       </defs>
       <use xlink:href="#DejaVuSans-32"/>
       <use xlink:href="#DejaVuSans-30" x="63.623047"/>
       <use xlink:href="#DejaVuSans-30" x="127.246094"/>
      </g>
     </g>
    </g>
    <g id="xtick_4">
     <g id="line2d_4">
      <g>
       <use xlink:href="#m720046ca22" x="466.411514" y="1281.6" style="stroke: #000000; stroke-width: 0.8"/>
      </g>
     </g>
     <g id="text_4">
      <!-- 300 -->
      <g transform="translate(456.867764 1296.198437) scale(0.1 -0.1)">
       <defs>
        <path id="DejaVuSans-33" d="M 2597 2516 
Q 3050 2419 3304 2112 
Q 3559 1806 3559 1356 
Q 3559 666 3084 287 
Q 2609 -91 1734 -91 
Q 1441 -91 1130 -33 
Q 819 25 488 141 
L 488 750 
Q 750 597 1062 519 
Q 1375 441 1716 441 
Q 2309 441 2620 675 
Q 2931 909 2931 1356 
Q 2931 1769 2642 2001 
Q 2353 2234 1838 2234 
L 1294 2234 
L 1294 2753 
L 1863 2753 
Q 2328 2753 2575 2939 
Q 2822 3125 2822 3475 
Q 2822 3834 2567 4026 
Q 2313 4219 1838 4219 
Q 1578 4219 1281 4162 
Q 984 4106 628 3988 
L 628 4550 
Q 988 4650 1302 4700 
Q 1616 4750 1894 4750 
Q 2613 4750 3031 4423 
Q 3450 4097 3450 3541 
Q 3450 3153 3228 2886 
Q 3006 2619 2597 2516 
z
" transform="scale(0.015625)"/>
       </defs>
       <use xlink:href="#DejaVuSans-33"/>
       <use xlink:href="#DejaVuSans-30" x="63.623047"/>
       <use xlink:href="#DejaVuSans-30" x="127.246094"/>
      </g>
     </g>
    </g>
    <g id="xtick_5">
     <g id="line2d_5">
      <g>
       <use xlink:href="#m720046ca22" x="524.616142" y="1281.6" style="stroke: #000000; stroke-width: 0.8"/>
      </g>
     </g>
     <g id="text_5">
      <!-- 400 -->
      <g transform="translate(515.072392 1296.198437) scale(0.1 -0.1)">
       <defs>
        <path id="DejaVuSans-34" d="M 2419 4116 
L 825 1625 
L 2419 1625 
L 2419 4116 
z
M 2253 4666 
L 3047 4666 
L 3047 1625 
L 3713 1625 
L 3713 1100 
L 3047 1100 
L 3047 0 
L 2419 0 
L 2419 1100 
L 313 1100 
L 313 1709 
L 2253 4666 
z
" transform="scale(0.015625)"/>
       </defs>
       <use xlink:href="#DejaVuSans-34"/>
       <use xlink:href="#DejaVuSans-30" x="63.623047"/>
       <use xlink:href="#DejaVuSans-30" x="127.246094"/>
      </g>
     </g>
    </g>
    <g id="xtick_6">
     <g id="line2d_6">
      <g>
       <use xlink:href="#m720046ca22" x="582.820769" y="1281.6" style="stroke: #000000; stroke-width: 0.8"/>
      </g>
     </g>
     <g id="text_6">
      <!-- 500 -->
      <g transform="translate(573.277019 1296.198437) scale(0.1 -0.1)">
       <defs>
        <path id="DejaVuSans-35" d="M 691 4666 
L 3169 4666 
L 3169 4134 
L 1269 4134 
L 1269 2991 
Q 1406 3038 1543 3061 
Q 1681 3084 1819 3084 
Q 2600 3084 3056 2656 
Q 3513 2228 3513 1497 
Q 3513 744 3044 326 
Q 2575 -91 1722 -91 
Q 1428 -91 1123 -41 
Q 819 9 494 109 
L 494 744 
Q 775 591 1075 516 
Q 1375 441 1709 441 
Q 2250 441 2565 725 
Q 2881 1009 2881 1497 
Q 2881 1984 2565 2268 
Q 2250 2553 1709 2553 
Q 1456 2553 1204 2497 
Q 953 2441 691 2322 
L 691 4666 
z
" transform="scale(0.015625)"/>
       </defs>
       <use xlink:href="#DejaVuSans-35"/>
       <use xlink:href="#DejaVuSans-30" x="63.623047"/>
       <use xlink:href="#DejaVuSans-30" x="127.246094"/>
      </g>
     </g>
    </g>
    <g id="xtick_7">
     <g id="line2d_7">
      <g>
       <use xlink:href="#m720046ca22" x="641.025396" y="1281.6" style="stroke: #000000; stroke-width: 0.8"/>
      </g>
     </g>
     <g id="text_7">
      <!-- 600 -->
      <g transform="translate(631.481646 1296.198437) scale(0.1 -0.1)">
       <defs>
        <path id="DejaVuSans-36" d="M 2113 2584 
Q 1688 2584 1439 2293 
Q 1191 2003 1191 1497 
Q 1191 994 1439 701 
Q 1688 409 2113 409 
Q 2538 409 2786 701 
Q 3034 994 3034 1497 
Q 3034 2003 2786 2293 
Q 2538 2584 2113 2584 
z
M 3366 4563 
L 3366 3988 
Q 3128 4100 2886 4159 
Q 2644 4219 2406 4219 
Q 1781 4219 1451 3797 
Q 1122 3375 1075 2522 
Q 1259 2794 1537 2939 
Q 1816 3084 2150 3084 
Q 2853 3084 3261 2657 
Q 3669 2231 3669 1497 
Q 3669 778 3244 343 
Q 2819 -91 2113 -91 
Q 1303 -91 875 529 
Q 447 1150 447 2328 
Q 447 3434 972 4092 
Q 1497 4750 2381 4750 
Q 2619 4750 2861 4703 
Q 3103 4656 3366 4563 
z
" transform="scale(0.015625)"/>
       </defs>
       <use xlink:href="#DejaVuSans-36"/>
       <use xlink:href="#DejaVuSans-30" x="63.623047"/>
       <use xlink:href="#DejaVuSans-30" x="127.246094"/>
      </g>
     </g>
    </g>
    <g id="xtick_8">
     <g id="line2d_8">
      <g>
       <use xlink:href="#m720046ca22" x="699.230023" y="1281.6" style="stroke: #000000; stroke-width: 0.8"/>
      </g>
     </g>
     <g id="text_8">
      <!-- 700 -->
      <g transform="translate(689.686273 1296.198437) scale(0.1 -0.1)">
       <defs>
        <path id="DejaVuSans-37" d="M 525 4666 
L 3525 4666 
L 3525 4397 
L 1831 0 
L 1172 0 
L 2766 4134 
L 525 4134 
L 525 4666 
z
" transform="scale(0.015625)"/>
       </defs>
       <use xlink:href="#DejaVuSans-37"/>
       <use xlink:href="#DejaVuSans-30" x="63.623047"/>
       <use xlink:href="#DejaVuSans-30" x="127.246094"/>
      </g>
     </g>
    </g>
    <g id="xtick_9">
     <g id="line2d_9">
      <g>
       <use xlink:href="#m720046ca22" x="757.43465" y="1281.6" style="stroke: #000000; stroke-width: 0.8"/>
      </g>
     </g>
     <g id="text_9">
      <!-- 800 -->
      <g transform="translate(747.8909 1296.198437) scale(0.1 -0.1)">
       <defs>
        <path id="DejaVuSans-38" d="M 2034 2216 
Q 1584 2216 1326 1975 
Q 1069 1734 1069 1313 
Q 1069 891 1326 650 
Q 1584 409 2034 409 
Q 2484 409 2743 651 
Q 3003 894 3003 1313 
Q 3003 1734 2745 1975 
Q 2488 2216 2034 2216 
z
M 1403 2484 
Q 997 2584 770 2862 
Q 544 3141 544 3541 
Q 544 4100 942 4425 
Q 1341 4750 2034 4750 
Q 2731 4750 3128 4425 
Q 3525 4100 3525 3541 
Q 3525 3141 3298 2862 
Q 3072 2584 2669 2484 
Q 3125 2378 3379 2068 
Q 3634 1759 3634 1313 
Q 3634 634 3220 271 
Q 2806 -91 2034 -91 
Q 1263 -91 848 271 
Q 434 634 434 1313 
Q 434 1759 690 2068 
Q 947 2378 1403 2484 
z
M 1172 3481 
Q 1172 3119 1398 2916 
Q 1625 2713 2034 2713 
Q 2441 2713 2670 2916 
Q 2900 3119 2900 3481 
Q 2900 3844 2670 4047 
Q 2441 4250 2034 4250 
Q 1625 4250 1398 4047 
Q 1172 3844 1172 3481 
z
" transform="scale(0.015625)"/>
       </defs>
       <use xlink:href="#DejaVuSans-38"/>
       <use xlink:href="#DejaVuSans-30" x="63.623047"/>
       <use xlink:href="#DejaVuSans-30" x="127.246094"/>
      </g>
     </g>
    </g>
   </g>
   <g id="matplotlib.axis_2">
    <g id="ytick_1">
     <g id="line2d_10">
      <defs>
       <path id="m492da6ccdd" d="M 0 0 
L -3.5 0 
" style="stroke: #000000; stroke-width: 0.8"/>
      </defs>
      <g>
       <use xlink:href="#m492da6ccdd" x="270" y="1095.498815" style="stroke: #000000; stroke-width: 0.8"/>
      </g>
     </g>
     <g id="text_10">
      <!-- −8 -->
      <g transform="translate(248.257812 1099.298034) scale(0.1 -0.1)">
       <defs>
        <path id="DejaVuSans-2212" d="M 678 2272 
L 4684 2272 
L 4684 1741 
L 678 1741 
L 678 2272 
z
" transform="scale(0.015625)"/>
       </defs>
       <use xlink:href="#DejaVuSans-2212"/>
       <use xlink:href="#DejaVuSans-38" x="83.789062"/>
      </g>
     </g>
    </g>
    <g id="ytick_2">
     <g id="line2d_11">
      <g>
       <use xlink:href="#m492da6ccdd" x="270" y="882.743006" style="stroke: #000000; stroke-width: 0.8"/>
      </g>
     </g>
     <g id="text_11">
      <!-- −6 -->
      <g transform="translate(248.257812 886.542225) scale(0.1 -0.1)">
       <use xlink:href="#DejaVuSans-2212"/>
       <use xlink:href="#DejaVuSans-36" x="83.789062"/>
      </g>
     </g>
    </g>
    <g id="ytick_3">
     <g id="line2d_12">
      <g>
       <use xlink:href="#m492da6ccdd" x="270" y="669.987198" style="stroke: #000000; stroke-width: 0.8"/>
      </g>
     </g>
     <g id="text_12">
      <!-- −4 -->
      <g transform="translate(248.257812 673.786417) scale(0.1 -0.1)">
       <use xlink:href="#DejaVuSans-2212"/>
       <use xlink:href="#DejaVuSans-34" x="83.789062"/>
      </g>
     </g>
    </g>
    <g id="ytick_4">
     <g id="line2d_13">
      <g>
       <use xlink:href="#m492da6ccdd" x="270" y="457.231389" style="stroke: #000000; stroke-width: 0.8"/>
      </g>
     </g>
     <g id="text_13">
      <!-- −2 -->
      <g transform="translate(248.257812 461.030608) scale(0.1 -0.1)">
       <use xlink:href="#DejaVuSans-2212"/>
       <use xlink:href="#DejaVuSans-32" x="83.789062"/>
      </g>
     </g>
    </g>
    <g id="ytick_5">
     <g id="line2d_14">
      <g>
       <use xlink:href="#m492da6ccdd" x="270" y="244.475581" style="stroke: #000000; stroke-width: 0.8"/>
      </g>
     </g>
     <g id="text_14">
      <!-- 0 -->
      <g transform="translate(256.6375 248.2748) scale(0.1 -0.1)">
       <use xlink:href="#DejaVuSans-30"/>
      </g>
     </g>
    </g>
   </g>
   <g id="line2d_15">
    <path d="M 292.379679 244.475581 
L 321.481993 244.475581 
L 322.064039 223.2 
L 323.810178 223.2 
L 324.392224 237.383721 
L 326.138363 237.383721 
L 326.720409 261.496046 
L 328.466548 261.496046 
L 329.048594 264.223684 
L 330.794733 264.223684 
L 331.376779 291.266272 
L 333.122918 291.266272 
L 333.704964 303.020374 
L 335.451103 303.020374 
L 336.03315 315.599983 
L 337.779288 315.599983 
L 338.361335 326.647616 
L 340.107473 326.647616 
L 340.68952 340.977313 
L 342.435659 340.977313 
L 343.017705 351.881531 
L 347.092029 351.881531 
L 347.674075 342.854378 
L 351.748399 342.854378 
L 352.330445 355.688635 
L 354.076584 355.688635 
L 354.65863 344.844012 
L 356.404769 344.844012 
L 356.986815 336.095508 
L 361.061139 336.095508 
L 361.643185 338.292506 
L 363.389324 338.292506 
L 363.971371 327.495737 
L 368.045694 327.495737 
L 368.627741 316.74221 
L 370.37388 316.74221 
L 370.955926 306.029867 
L 372.702065 306.029867 
L 373.284111 315.954225 
L 375.03025 315.954225 
L 375.612296 299.836361 
L 379.68662 299.836361 
L 380.268666 284.898916 
L 382.014805 284.898916 
L 382.596851 294.296925 
L 384.34299 294.296925 
L 384.925036 284.898916 
L 386.671175 284.898916 
L 387.253221 299.255186 
L 391.327545 299.255186 
L 391.909592 309.388538 
L 393.65573 309.388538 
L 394.237777 327.04024 
L 395.983915 327.04024 
L 396.565962 324.387341 
L 398.312101 324.387341 
L 398.894147 331.067177 
L 400.640286 331.067177 
L 401.222332 328.517245 
L 402.968471 328.517245 
L 403.550517 326.024193 
L 405.296656 326.024193 
L 405.878702 330.396351 
L 407.624841 330.396351 
L 408.206887 355.429638 
L 409.953026 355.429638 
L 410.535072 346.507287 
L 412.281211 346.507287 
L 412.863257 353.431552 
L 414.609396 353.431552 
L 415.191442 378.14175 
L 416.937581 378.14175 
L 417.519628 386.581324 
L 419.265766 386.581324 
L 419.847813 394.025393 
L 426.250322 394.025393 
L 426.832368 402.278338 
L 428.578507 402.278338 
L 429.160553 417.975353 
L 430.906692 417.975353 
L 431.488738 409.735536 
L 433.234877 409.735536 
L 433.816923 425.459522 
L 435.563062 425.459522 
L 436.145108 441.038893 
L 437.891247 441.038893 
L 438.473293 448.559741 
L 440.219432 448.559741 
L 440.801478 472.340869 
L 442.547617 472.340869 
L 443.129663 488.320725 
L 444.875802 488.320725 
L 445.457849 512.385388 
L 447.203987 512.385388 
L 447.786034 536.046341 
L 449.532172 536.046341 
L 450.114219 551.941653 
L 451.860358 551.941653 
L 452.442404 560.070792 
L 454.188543 560.070792 
L 454.770589 575.966104 
L 456.516728 575.966104 
L 457.098774 568.309035 
L 458.844913 568.309035 
L 459.426959 553.182513 
L 461.173098 553.182513 
L 461.755144 538.230668 
L 463.501283 538.230668 
L 464.083329 530.754745 
L 465.829468 530.754745 
L 466.411514 546.734808 
L 470.485838 546.806299 
L 471.067885 548.175854 
L 472.814023 548.175854 
L 473.39607 573.067652 
L 477.470394 573.058993 
L 478.05244 558.718518 
L 479.798579 558.718518 
L 480.380625 551.55657 
L 482.126764 551.55657 
L 482.70881 537.256332 
L 484.454949 537.256332 
L 485.036995 553.595934 
L 486.783134 553.595934 
L 487.36518 560.742164 
L 491.439504 560.742164 
L 492.02155 567.888395 
L 493.767689 567.888395 
L 494.349735 560.749474 
L 496.095874 560.749474 
L 496.67792 555.828415 
L 498.424059 555.828415 
L 499.006106 541.704155 
L 500.752244 541.704155 
L 501.334291 544.077671 
L 503.080429 544.077671 
L 503.662476 556.117636 
L 505.408615 556.117636 
L 505.990661 558.767812 
L 507.7368 558.767812 
L 508.318846 551.761104 
L 512.39317 551.761104 
L 512.975216 568.385202 
L 514.721355 568.385202 
L 515.303401 561.47612 
L 517.04954 561.47612 
L 517.631586 554.572543 
L 519.377725 554.572543 
L 519.959771 557.456222 
L 521.70591 557.456222 
L 522.287956 560.3987 
L 524.034095 560.3987 
L 524.616142 570.260714 
L 526.36228 570.260714 
L 526.944327 587.050761 
L 528.690465 587.050761 
L 529.272512 613.790773 
L 531.018651 613.790773 
L 531.600697 630.580818 
L 533.346836 630.580818 
L 533.928882 654.200919 
L 535.675021 654.200919 
L 536.257067 680.951022 
L 538.003206 680.951022 
L 538.585252 704.521814 
L 540.331391 704.521814 
L 540.913437 738.193721 
L 542.659576 738.193721 
L 543.241622 765.144176 
L 544.987761 765.144176 
L 545.569807 771.938138 
L 547.315946 771.938138 
L 547.897992 798.955112 
L 549.644131 798.955112 
L 550.226177 802.285608 
L 551.972316 802.285608 
L 552.554363 822.578762 
L 556.628686 822.578762 
L 557.210733 832.723851 
L 561.285057 832.742603 
L 561.867103 842.899397 
L 563.613242 842.899397 
L 564.195288 836.173847 
L 568.269612 836.170041 
L 568.851658 846.399913 
L 570.597797 846.399913 
L 571.179843 863.338694 
L 572.925982 863.338694 
L 573.508028 849.990491 
L 575.254167 849.990491 
L 575.836213 853.670678 
L 577.582352 853.670678 
L 578.164399 840.404563 
L 579.910537 840.404563 
L 580.492584 820.585442 
L 582.238722 820.585442 
L 582.820769 830.990846 
L 584.566908 830.990846 
L 585.148954 811.226998 
L 586.895093 811.226998 
L 587.477139 828.252946 
L 589.223278 828.252946 
L 589.805324 825.541719 
L 596.207833 825.541719 
L 596.789879 819.002455 
L 598.536018 819.002455 
L 599.118064 805.938981 
L 600.864203 805.938981 
L 601.446249 792.88477 
L 603.192388 792.88477 
L 603.774434 766.821058 
L 605.520573 766.821058 
L 606.10262 740.874425 
L 607.848758 740.874425 
L 608.430805 721.471429 
L 610.176943 721.471429 
L 610.75899 702.116265 
L 612.505129 702.116265 
L 613.087175 695.675792 
L 614.833314 695.675792 
L 615.41536 676.386084 
L 617.161499 676.386084 
L 617.743545 663.541046 
L 621.817869 663.546272 
L 622.399915 657.135277 
L 624.146054 657.135277 
L 624.7281 637.923958 
L 626.474239 637.923958 
L 627.056285 655.152139 
L 628.802424 655.152139 
L 629.38447 635.975401 
L 631.130609 635.975401 
L 631.712656 657.702404 
L 633.458794 657.702404 
L 634.040841 698.584427 
L 635.786979 698.584427 
L 636.369026 692.208646 
L 638.115164 692.208646 
L 638.697211 690.351086 
L 640.44335 690.351086 
L 641.025396 664.898616 
L 642.771535 664.898616 
L 643.353581 675.8264 
L 645.09972 675.8264 
L 645.681766 704.041779 
L 647.427905 704.041779 
L 648.009951 730.569253 
L 649.75609 730.569253 
L 650.338136 747.856959 
L 652.084275 747.856959 
L 652.666321 777.785326 
L 654.41246 777.785326 
L 654.994506 806.072773 
L 656.740645 806.072773 
L 657.322691 823.376085 
L 659.06883 823.376085 
L 659.650877 834.387465 
L 661.397015 834.387465 
L 661.979062 837.533512 
L 663.7252 837.533512 
L 664.307247 865.886311 
L 666.053386 865.886311 
L 666.635432 889.501326 
L 668.381571 889.501326 
L 668.963617 894.266558 
L 670.709756 894.266558 
L 671.291802 905.317697 
L 673.037941 905.317697 
L 673.619987 938.509609 
L 675.366126 938.509609 
L 675.948172 966.930223 
L 677.694311 966.930223 
L 678.276357 1017.570235 
L 680.022496 1017.570235 
L 680.604542 1079.397759 
L 682.350681 1079.397759 
L 682.932727 1101.647882 
L 684.678866 1101.647882 
L 685.260912 1147.547899 
L 687.007051 1147.547899 
L 687.589098 1185.895449 
L 689.335236 1185.895449 
L 689.917283 1179.654276 
L 691.663421 1179.654276 
L 692.245468 1167.182806 
L 693.991607 1167.182806 
L 694.573653 1154.716769 
L 698.647977 1154.715106 
L 699.230023 1148.487037 
L 700.976162 1148.487037 
L 701.558208 1142.257321 
L 703.304347 1142.257321 
L 703.886393 1129.808208 
L 705.632532 1129.808208 
L 706.214578 1122.329067 
L 707.960717 1122.329067 
L 708.542763 1121.078245 
L 710.288902 1121.078245 
L 710.870948 1148.446646 
L 712.617087 1148.446646 
L 713.199134 1142.233577 
L 714.945272 1142.233577 
L 715.527319 1153.436303 
L 717.273457 1153.436303 
L 717.855504 1175.851559 
L 719.601643 1175.851559 
L 720.183689 1174.643156 
L 721.929828 1174.643156 
L 722.511874 1185.860531 
L 724.258013 1185.860531 
L 724.840059 1200.924745 
L 726.586198 1200.924745 
L 727.168244 1205.956656 
L 728.914383 1205.956656 
L 729.496429 1216.03019 
L 731.242568 1216.03019 
L 731.824614 1222.220771 
L 733.570753 1222.220771 
L 734.152799 1214.893283 
L 735.898938 1214.893283 
L 736.480984 1213.763893 
L 738.227123 1213.763893 
L 738.809169 1231.2 
L 739.973262 1231.2 
L 739.973262 1231.2 
" clip-path="url(#p8fcaa900ea)" style="fill: none; stroke: #0000ff; stroke-width: 1.5; stroke-linecap: square"/>
   </g>
   <g id="patch_3">
    <path d="M 270 1281.6 
L 270 172.8 
" style="fill: none; stroke: #000000; stroke-width: 0.8; stroke-linejoin: miter; stroke-linecap: square"/>
   </g>
   <g id="patch_4">
    <path d="M 762.352941 1281.6 
L 762.352941 172.8 
" style="fill: none; stroke: #000000; stroke-width: 0.8; stroke-linejoin: miter; stroke-linecap: square"/>
   </g>
   <g id="patch_5">
    <path d="M 270 1281.6 
L 762.352941 1281.6 
" style="fill: none; stroke: #000000; stroke-width: 0.8; stroke-linejoin: miter; stroke-linecap: square"/>
   </g>
   <g id="patch_6">
    <path d="M 270 172.8 
L 762.352941 172.8 
" style="fill: none; stroke: #000000; stroke-width: 0.8; stroke-linejoin: miter; stroke-linecap: square"/>
   </g>
   <g id="legend_1">
    <g id="patch_7">
     <path d="M 671.310754 195.478125 
L 755.352941 195.478125 
Q 757.352941 195.478125 757.352941 193.478125 
L 757.352941 179.8 
Q 757.352941 177.8 755.352941 177.8 
L 671.310754 177.8 
Q 669.310754 177.8 669.310754 179.8 
L 669.310754 193.478125 
Q 669.310754 195.478125 671.310754 195.478125 
z
" style="fill: #ffffff; opacity: 0.8; stroke: #cccccc; stroke-linejoin: miter"/>
    </g>
    <g id="line2d_16">
     <path d="M 673.310754 185.898437 
L 683.310754 185.898437 
L 693.310754 185.898437 
" style="fill: none; stroke: #0000ff; stroke-width: 1.5; stroke-linecap: square"/>
    </g>
    <g id="text_15">
     <!-- O1 reward -->
     <g transform="translate(701.310754 189.398437) scale(0.1 -0.1)">
      <defs>
       <path id="DejaVuSans-4f" d="M 2522 4238 
Q 1834 4238 1429 3725 
Q 1025 3213 1025 2328 
Q 1025 1447 1429 934 
Q 1834 422 2522 422 
Q 3209 422 3611 934 
Q 4013 1447 4013 2328 
Q 4013 3213 3611 3725 
Q 3209 4238 2522 4238 
z
M 2522 4750 
Q 3503 4750 4090 4092 
Q 4678 3434 4678 2328 
Q 4678 1225 4090 567 
Q 3503 -91 2522 -91 
Q 1538 -91 948 565 
Q 359 1222 359 2328 
Q 359 3434 948 4092 
Q 1538 4750 2522 4750 
z
" transform="scale(0.015625)"/>
       <path id="DejaVuSans-20" transform="scale(0.015625)"/>
       <path id="DejaVuSans-72" d="M 2631 2963 
Q 2534 3019 2420 3045 
Q 2306 3072 2169 3072 
Q 1681 3072 1420 2755 
Q 1159 2438 1159 1844 
L 1159 0 
L 581 0 
L 581 3500 
L 1159 3500 
L 1159 2956 
Q 1341 3275 1631 3429 
Q 1922 3584 2338 3584 
Q 2397 3584 2469 3576 
Q 2541 3569 2628 3553 
L 2631 2963 
z
" transform="scale(0.015625)"/>
       <path id="DejaVuSans-65" d="M 3597 1894 
L 3597 1613 
L 953 1613 
Q 991 1019 1311 708 
Q 1631 397 2203 397 
Q 2534 397 2845 478 
Q 3156 559 3463 722 
L 3463 178 
Q 3153 47 2828 -22 
Q 2503 -91 2169 -91 
Q 1331 -91 842 396 
Q 353 884 353 1716 
Q 353 2575 817 3079 
Q 1281 3584 2069 3584 
Q 2775 3584 3186 3129 
Q 3597 2675 3597 1894 
z
M 3022 2063 
Q 3016 2534 2758 2815 
Q 2500 3097 2075 3097 
Q 1594 3097 1305 2825 
Q 1016 2553 972 2059 
L 3022 2063 
z
" transform="scale(0.015625)"/>
       <path id="DejaVuSans-77" d="M 269 3500 
L 844 3500 
L 1563 769 
L 2278 3500 
L 2956 3500 
L 3675 769 
L 4391 3500 
L 4966 3500 
L 4050 0 
L 3372 0 
L 2619 2869 
L 1863 0 
L 1184 0 
L 269 3500 
z
" transform="scale(0.015625)"/>
       <path id="DejaVuSans-61" d="M 2194 1759 
Q 1497 1759 1228 1600 
Q 959 1441 959 1056 
Q 959 750 1161 570 
Q 1363 391 1709 391 
Q 2188 391 2477 730 
Q 2766 1069 2766 1631 
L 2766 1759 
L 2194 1759 
z
M 3341 1997 
L 3341 0 
L 2766 0 
L 2766 531 
Q 2569 213 2275 61 
Q 1981 -91 1556 -91 
Q 1019 -91 701 211 
Q 384 513 384 1019 
Q 384 1609 779 1909 
Q 1175 2209 1959 2209 
L 2766 2209 
L 2766 2266 
Q 2766 2663 2505 2880 
Q 2244 3097 1772 3097 
Q 1472 3097 1187 3025 
Q 903 2953 641 2809 
L 641 3341 
Q 956 3463 1253 3523 
Q 1550 3584 1831 3584 
Q 2591 3584 2966 3190 
Q 3341 2797 3341 1997 
z
" transform="scale(0.015625)"/>
       <path id="DejaVuSans-64" d="M 2906 2969 
L 2906 4863 
L 3481 4863 
L 3481 0 
L 2906 0 
L 2906 525 
Q 2725 213 2448 61 
Q 2172 -91 1784 -91 
Q 1150 -91 751 415 
Q 353 922 353 1747 
Q 353 2572 751 3078 
Q 1150 3584 1784 3584 
Q 2172 3584 2448 3432 
Q 2725 3281 2906 2969 
z
M 947 1747 
Q 947 1113 1208 752 
Q 1469 391 1925 391 
Q 2381 391 2643 752 
Q 2906 1113 2906 1747 
Q 2906 2381 2643 2742 
Q 2381 3103 1925 3103 
Q 1469 3103 1208 2742 
Q 947 2381 947 1747 
z
" transform="scale(0.015625)"/>
      </defs>
      <use xlink:href="#DejaVuSans-4f"/>
      <use xlink:href="#DejaVuSans-31" x="78.710938"/>
      <use xlink:href="#DejaVuSans-20" x="142.333984"/>
      <use xlink:href="#DejaVuSans-72" x="174.121094"/>
      <use xlink:href="#DejaVuSans-65" x="212.984375"/>
      <use xlink:href="#DejaVuSans-77" x="274.507812"/>
      <use xlink:href="#DejaVuSans-61" x="356.294922"/>
      <use xlink:href="#DejaVuSans-72" x="417.574219"/>
      <use xlink:href="#DejaVuSans-64" x="456.9375"/>
     </g>
    </g>
   </g>
  </g>
  <g id="axes_2">
   <g id="patch_8">
    <path d="M 860.823529 1281.6 
L 1353.176471 1281.6 
L 1353.176471 172.8 
L 860.823529 172.8 
z
" style="fill: #ffffff"/>
   </g>
   <g id="matplotlib.axis_3">
    <g id="xtick_10">
     <g id="line2d_17">
      <g>
       <use xlink:href="#m720046ca22" x="882.621162" y="1281.6" style="stroke: #000000; stroke-width: 0.8"/>
      </g>
     </g>
     <g id="text_16">
      <!-- 0 -->
      <g transform="translate(879.439912 1296.198437) scale(0.1 -0.1)">
       <use xlink:href="#DejaVuSans-30"/>
      </g>
     </g>
    </g>
    <g id="xtick_11">
     <g id="line2d_18">
      <g>
       <use xlink:href="#m720046ca22" x="940.825789" y="1281.6" style="stroke: #000000; stroke-width: 0.8"/>
      </g>
     </g>
     <g id="text_17">
      <!-- 100 -->
      <g transform="translate(931.282039 1296.198437) scale(0.1 -0.1)">
       <use xlink:href="#DejaVuSans-31"/>
       <use xlink:href="#DejaVuSans-30" x="63.623047"/>
       <use xlink:href="#DejaVuSans-30" x="127.246094"/>
      </g>
     </g>
    </g>
    <g id="xtick_12">
     <g id="line2d_19">
      <g>
       <use xlink:href="#m720046ca22" x="999.030417" y="1281.6" style="stroke: #000000; stroke-width: 0.8"/>
      </g>
     </g>
     <g id="text_18">
      <!-- 200 -->
      <g transform="translate(989.486667 1296.198437) scale(0.1 -0.1)">
       <use xlink:href="#DejaVuSans-32"/>
       <use xlink:href="#DejaVuSans-30" x="63.623047"/>
       <use xlink:href="#DejaVuSans-30" x="127.246094"/>
      </g>
     </g>
    </g>
    <g id="xtick_13">
     <g id="line2d_20">
      <g>
       <use xlink:href="#m720046ca22" x="1057.235044" y="1281.6" style="stroke: #000000; stroke-width: 0.8"/>
      </g>
     </g>
     <g id="text_19">
      <!-- 300 -->
      <g transform="translate(1047.691294 1296.198437) scale(0.1 -0.1)">
       <use xlink:href="#DejaVuSans-33"/>
       <use xlink:href="#DejaVuSans-30" x="63.623047"/>
       <use xlink:href="#DejaVuSans-30" x="127.246094"/>
      </g>
     </g>
    </g>
    <g id="xtick_14">
     <g id="line2d_21">
      <g>
       <use xlink:href="#m720046ca22" x="1115.439671" y="1281.6" style="stroke: #000000; stroke-width: 0.8"/>
      </g>
     </g>
     <g id="text_20">
      <!-- 400 -->
      <g transform="translate(1105.895921 1296.198437) scale(0.1 -0.1)">
       <use xlink:href="#DejaVuSans-34"/>
       <use xlink:href="#DejaVuSans-30" x="63.623047"/>
       <use xlink:href="#DejaVuSans-30" x="127.246094"/>
      </g>
     </g>
    </g>
    <g id="xtick_15">
     <g id="line2d_22">
      <g>
       <use xlink:href="#m720046ca22" x="1173.644298" y="1281.6" style="stroke: #000000; stroke-width: 0.8"/>
      </g>
     </g>
     <g id="text_21">
      <!-- 500 -->
      <g transform="translate(1164.100548 1296.198437) scale(0.1 -0.1)">
       <use xlink:href="#DejaVuSans-35"/>
       <use xlink:href="#DejaVuSans-30" x="63.623047"/>
       <use xlink:href="#DejaVuSans-30" x="127.246094"/>
      </g>
     </g>
    </g>
    <g id="xtick_16">
     <g id="line2d_23">
      <g>
       <use xlink:href="#m720046ca22" x="1231.848925" y="1281.6" style="stroke: #000000; stroke-width: 0.8"/>
      </g>
     </g>
     <g id="text_22">
      <!-- 600 -->
      <g transform="translate(1222.305175 1296.198437) scale(0.1 -0.1)">
       <use xlink:href="#DejaVuSans-36"/>
       <use xlink:href="#DejaVuSans-30" x="63.623047"/>
       <use xlink:href="#DejaVuSans-30" x="127.246094"/>
      </g>
     </g>
    </g>
    <g id="xtick_17">
     <g id="line2d_24">
      <g>
       <use xlink:href="#m720046ca22" x="1290.053552" y="1281.6" style="stroke: #000000; stroke-width: 0.8"/>
      </g>
     </g>
     <g id="text_23">
      <!-- 700 -->
      <g transform="translate(1280.509802 1296.198437) scale(0.1 -0.1)">
       <use xlink:href="#DejaVuSans-37"/>
       <use xlink:href="#DejaVuSans-30" x="63.623047"/>
       <use xlink:href="#DejaVuSans-30" x="127.246094"/>
      </g>
     </g>
    </g>
    <g id="xtick_18">
     <g id="line2d_25">
      <g>
       <use xlink:href="#m720046ca22" x="1348.25818" y="1281.6" style="stroke: #000000; stroke-width: 0.8"/>
      </g>
     </g>
     <g id="text_24">
      <!-- 800 -->
      <g transform="translate(1338.71443 1296.198437) scale(0.1 -0.1)">
       <use xlink:href="#DejaVuSans-38"/>
       <use xlink:href="#DejaVuSans-30" x="63.623047"/>
       <use xlink:href="#DejaVuSans-30" x="127.246094"/>
      </g>
     </g>
    </g>
   </g>
   <g id="matplotlib.axis_4">
    <g id="ytick_6">
     <g id="line2d_26">
      <g>
       <use xlink:href="#m492da6ccdd" x="860.823529" y="1231.2" style="stroke: #000000; stroke-width: 0.8"/>
      </g>
     </g>
     <g id="text_25">
      <!-- 0 -->
      <g transform="translate(847.461029 1234.999219) scale(0.1 -0.1)">
       <use xlink:href="#DejaVuSans-30"/>
      </g>
     </g>
    </g>
    <g id="ytick_7">
     <g id="line2d_27">
      <g>
       <use xlink:href="#m492da6ccdd" x="860.823529" y="1097.609067" style="stroke: #000000; stroke-width: 0.8"/>
      </g>
     </g>
     <g id="text_26">
      <!-- 10 -->
      <g transform="translate(841.098529 1101.408285) scale(0.1 -0.1)">
       <use xlink:href="#DejaVuSans-31"/>
       <use xlink:href="#DejaVuSans-30" x="63.623047"/>
      </g>
     </g>
    </g>
    <g id="ytick_8">
     <g id="line2d_28">
      <g>
       <use xlink:href="#m492da6ccdd" x="860.823529" y="964.018133" style="stroke: #000000; stroke-width: 0.8"/>
      </g>
     </g>
     <g id="text_27">
      <!-- 20 -->
      <g transform="translate(841.098529 967.817352) scale(0.1 -0.1)">
       <use xlink:href="#DejaVuSans-32"/>
       <use xlink:href="#DejaVuSans-30" x="63.623047"/>
      </g>
     </g>
    </g>
    <g id="ytick_9">
     <g id="line2d_29">
      <g>
       <use xlink:href="#m492da6ccdd" x="860.823529" y="830.4272" style="stroke: #000000; stroke-width: 0.8"/>
      </g>
     </g>
     <g id="text_28">
      <!-- 30 -->
      <g transform="translate(841.098529 834.226419) scale(0.1 -0.1)">
       <use xlink:href="#DejaVuSans-33"/>
       <use xlink:href="#DejaVuSans-30" x="63.623047"/>
      </g>
     </g>
    </g>
    <g id="ytick_10">
     <g id="line2d_30">
      <g>
       <use xlink:href="#m492da6ccdd" x="860.823529" y="696.836267" style="stroke: #000000; stroke-width: 0.8"/>
      </g>
     </g>
     <g id="text_29">
      <!-- 40 -->
      <g transform="translate(841.098529 700.635486) scale(0.1 -0.1)">
       <use xlink:href="#DejaVuSans-34"/>
       <use xlink:href="#DejaVuSans-30" x="63.623047"/>
      </g>
     </g>
    </g>
    <g id="ytick_11">
     <g id="line2d_31">
      <g>
       <use xlink:href="#m492da6ccdd" x="860.823529" y="563.245334" style="stroke: #000000; stroke-width: 0.8"/>
      </g>
     </g>
     <g id="text_30">
      <!-- 50 -->
      <g transform="translate(841.098529 567.044552) scale(0.1 -0.1)">
       <use xlink:href="#DejaVuSans-35"/>
       <use xlink:href="#DejaVuSans-30" x="63.623047"/>
      </g>
     </g>
    </g>
    <g id="ytick_12">
     <g id="line2d_32">
      <g>
       <use xlink:href="#m492da6ccdd" x="860.823529" y="429.6544" style="stroke: #000000; stroke-width: 0.8"/>
      </g>
     </g>
     <g id="text_31">
      <!-- 60 -->
      <g transform="translate(841.098529 433.453619) scale(0.1 -0.1)">
       <use xlink:href="#DejaVuSans-36"/>
       <use xlink:href="#DejaVuSans-30" x="63.623047"/>
      </g>
     </g>
    </g>
    <g id="ytick_13">
     <g id="line2d_33">
      <g>
       <use xlink:href="#m492da6ccdd" x="860.823529" y="296.063467" style="stroke: #000000; stroke-width: 0.8"/>
      </g>
     </g>
     <g id="text_32">
      <!-- 70 -->
      <g transform="translate(841.098529 299.862686) scale(0.1 -0.1)">
       <use xlink:href="#DejaVuSans-37"/>
       <use xlink:href="#DejaVuSans-30" x="63.623047"/>
      </g>
     </g>
    </g>
   </g>
   <g id="line2d_34">
    <path d="M 883.203209 1231.2 
L 909.977337 1231.101234 
L 910.559383 1225.719129 
L 912.305522 1225.719129 
L 912.887568 1227.828511 
L 914.633707 1227.828511 
L 915.215753 1226.574062 
L 916.961892 1226.574062 
L 917.543939 1229.047049 
L 919.290077 1229.047049 
L 919.872124 1217.936458 
L 921.618262 1217.936458 
L 922.200309 1201.094439 
L 923.946448 1201.094439 
L 924.528494 1192.71589 
L 926.274633 1192.71589 
L 926.856679 1170.646043 
L 928.602818 1170.646043 
L 929.184864 1150.306035 
L 940.243743 1150.306035 
L 940.825789 1141.478149 
L 947.228298 1141.478149 
L 947.810345 1132.063049 
L 954.212854 1132.063049 
L 954.7949 1119.235139 
L 956.541039 1119.235139 
L 957.123085 1115.633165 
L 958.869224 1115.633165 
L 959.45127 1111.669621 
L 963.525594 1111.669621 
L 964.10764 1087.340226 
L 965.853779 1087.340226 
L 966.435825 1049.080219 
L 968.181964 1049.080219 
L 968.76401 1038.888116 
L 970.510149 1038.888116 
L 971.092196 1019.26156 
L 972.838334 1019.26156 
L 973.420381 971.750784 
L 975.166519 971.750784 
L 975.748566 938.683208 
L 1000.776555 938.683208 
L 1001.358602 928.932947 
L 1007.761111 928.932947 
L 1008.343157 919.325976 
L 1010.089296 919.325976 
L 1010.671342 909.61856 
L 1012.417481 909.61856 
L 1012.999527 899.813276 
L 1017.073851 899.813276 
L 1017.655897 896.352473 
L 1026.386591 896.352473 
L 1026.968638 892.798664 
L 1028.714776 892.798664 
L 1029.296823 869.207689 
L 1031.042962 869.207689 
L 1031.625008 851.191668 
L 1033.371147 851.191668 
L 1033.953193 811.264503 
L 1035.699332 811.264503 
L 1036.281378 776.139585 
L 1038.027517 776.139585 
L 1038.609563 748.454394 
L 1040.355702 748.454394 
L 1040.937748 714.40959 
L 1042.683887 714.40959 
L 1043.265933 673.060535 
L 1045.012072 673.060535 
L 1045.594118 654.568137 
L 1047.340257 654.568137 
L 1047.922303 628.957294 
L 1054.324812 628.957294 
L 1054.906859 623.175409 
L 1056.652998 623.175409 
L 1057.235044 611.219725 
L 1058.981183 611.219725 
L 1059.563229 619.470531 
L 1061.309368 619.470531 
L 1061.891414 623.394904 
L 1063.637553 623.394904 
L 1064.219599 631.547082 
L 1065.965738 631.547082 
L 1066.547784 635.755043 
L 1068.293923 635.755043 
L 1068.875969 639.578752 
L 1070.622108 639.578752 
L 1071.204154 627.798797 
L 1075.278478 627.798797 
L 1075.860524 619.788174 
L 1077.606663 619.788174 
L 1078.18871 616.097605 
L 1079.934848 616.097605 
L 1080.516895 604.524617 
L 1082.263033 604.524617 
L 1082.84508 581.695729 
L 1084.591219 581.695729 
L 1085.173265 570.765396 
L 1086.919404 570.765396 
L 1087.50145 561.262918 
L 1089.247589 561.262918 
L 1089.829635 555.111107 
L 1091.575774 555.111107 
L 1092.15782 545.006818 
L 1093.903959 545.006818 
L 1094.486005 555.011317 
L 1096.232144 555.011317 
L 1096.81419 577.423748 
L 1098.560329 577.423748 
L 1099.142375 570.398722 
L 1100.888514 570.398722 
L 1101.47056 551.124578 
L 1103.216699 551.124578 
L 1103.798746 534.771081 
L 1105.544884 534.771081 
L 1106.126931 537.132642 
L 1107.873069 537.132642 
L 1108.455116 521.601413 
L 1110.201254 521.601413 
L 1110.783301 508.254988 
L 1112.52944 508.254988 
L 1113.111486 506.091696 
L 1117.18581 506.012598 
L 1117.767856 508.112722 
L 1119.513995 508.112722 
L 1120.096041 504.003178 
L 1121.84218 504.003178 
L 1122.424226 491.174855 
L 1124.170365 491.174855 
L 1124.752411 493.101218 
L 1126.49855 493.101218 
L 1127.080596 488.736842 
L 1128.826735 488.736842 
L 1129.408781 476.237506 
L 1131.15492 476.237506 
L 1131.736967 468.208395 
L 1133.483105 468.208395 
L 1134.065152 460.243933 
L 1135.81129 460.243933 
L 1136.393337 455.907224 
L 1138.139476 455.907224 
L 1138.721522 453.332471 
L 1142.795846 453.332471 
L 1143.377892 468.904827 
L 1145.124031 468.904827 
L 1145.706077 476.574927 
L 1147.452216 476.574927 
L 1148.034262 473.846088 
L 1149.780401 473.846088 
L 1150.362447 479.701854 
L 1152.108586 479.701854 
L 1152.690632 481.152547 
L 1154.436771 481.152547 
L 1155.018817 497.027425 
L 1156.764956 497.027425 
L 1157.347002 500.058358 
L 1159.093141 500.058358 
L 1159.675188 512.742635 
L 1161.421326 512.742635 
L 1162.003373 512.123938 
L 1163.749511 512.123938 
L 1164.331558 499.767315 
L 1166.077697 499.767315 
L 1166.659743 491.859178 
L 1168.405882 491.859178 
L 1168.987928 490.690031 
L 1170.734067 490.690031 
L 1171.316113 484.059623 
L 1173.062252 484.059623 
L 1173.644298 473.125865 
L 1175.390437 473.125865 
L 1175.972483 477.5053 
L 1177.718622 477.5053 
L 1178.300668 481.877459 
L 1180.046807 481.877459 
L 1180.628853 480.836271 
L 1182.374992 480.836271 
L 1182.957038 476.449485 
L 1184.703177 476.449485 
L 1185.285224 464.680642 
L 1187.031362 464.680642 
L 1187.613409 457.378333 
L 1191.687733 457.378333 
L 1192.269779 451.126464 
L 1194.015918 451.126464 
L 1194.597964 458.204631 
L 1196.344103 458.204631 
L 1196.926149 470.366122 
L 1198.672288 470.366122 
L 1199.254334 473.9644 
L 1201.000473 473.9644 
L 1201.582519 473.236306 
L 1203.328658 473.236306 
L 1203.910704 471.821585 
L 1205.656843 471.821585 
L 1206.238889 474.887993 
L 1207.985028 474.887993 
L 1208.567074 463.661747 
L 1210.313213 463.661747 
L 1210.895259 436.100235 
L 1212.641398 436.100235 
L 1213.223445 419.853268 
L 1214.969583 419.853268 
L 1215.55163 398.486953 
L 1217.297768 398.486953 
L 1217.879815 376.982255 
L 1219.625954 376.982255 
L 1220.208 356.613368 
L 1221.954139 356.613368 
L 1222.536185 345.976088 
L 1224.282324 345.976088 
L 1224.86437 331.083907 
L 1226.610509 331.083907 
L 1227.192555 311.015169 
L 1228.938694 311.015169 
L 1229.52074 301.103095 
L 1231.266879 301.103095 
L 1231.848925 286.393387 
L 1233.595064 286.393387 
L 1234.17711 291.488853 
L 1235.923249 291.488853 
L 1236.505295 282.71306 
L 1238.251434 282.71306 
L 1238.833481 296.892333 
L 1240.579619 296.892333 
L 1241.161666 297.292118 
L 1242.907804 297.292118 
L 1243.489851 297.623073 
L 1245.23599 297.623073 
L 1245.818036 293.389591 
L 1247.564175 293.389591 
L 1248.146221 293.536523 
L 1249.89236 293.536523 
L 1250.474406 293.804803 
L 1252.220545 293.804803 
L 1252.802591 307.596041 
L 1254.54873 307.596041 
L 1255.130776 316.565616 
L 1256.876915 316.565616 
L 1257.458961 320.953603 
L 1259.2051 320.953603 
L 1259.787146 316.558402 
L 1261.533285 316.558402 
L 1262.115331 311.986015 
L 1263.86147 311.986015 
L 1264.443516 303.036878 
L 1266.189655 303.036878 
L 1266.771702 294.189944 
L 1270.846025 294.172191 
L 1271.428072 298.624453 
L 1273.174211 298.624453 
L 1273.756257 294.321992 
L 1275.502396 294.321992 
L 1276.084442 290.044968 
L 1277.830581 290.044968 
L 1278.412627 290.200268 
L 1280.158766 290.200268 
L 1280.740812 307.608287 
L 1282.486951 307.608287 
L 1283.068997 312.081912 
L 1284.815136 312.081912 
L 1285.397182 300.082582 
L 1287.143321 300.082582 
L 1287.725367 304.624154 
L 1289.471506 304.624154 
L 1290.053552 309.52186 
L 1291.799691 309.52186 
L 1292.381738 305.322735 
L 1294.127876 305.322735 
L 1294.709923 305.712345 
L 1296.456061 305.712345 
L 1297.038108 311.207504 
L 1298.784247 311.207504 
L 1299.366293 312.707188 
L 1303.440617 312.710049 
L 1304.022663 300.38756 
L 1305.768802 300.38756 
L 1306.350848 292.204025 
L 1308.096987 292.204025 
L 1308.679033 288.11633 
L 1310.425172 288.11633 
L 1311.007218 279.954765 
L 1312.753357 279.954765 
L 1313.335403 275.880875 
L 1315.081542 275.880875 
L 1315.663588 271.809631 
L 1317.409727 271.809631 
L 1317.991773 263.674917 
L 1319.737912 263.674917 
L 1320.319959 255.550311 
L 1322.066097 255.550311 
L 1322.648144 247.435534 
L 1324.394282 247.435534 
L 1324.976329 243.381779 
L 1326.722468 243.381779 
L 1327.304514 231.257032 
L 1329.050653 231.257032 
L 1329.632699 223.2 
L 1330.796791 223.2 
L 1330.796791 223.2 
" clip-path="url(#p23215818a8)" style="fill: none; stroke: #0000ff; stroke-width: 1.5; stroke-linecap: square"/>
   </g>
   <g id="patch_9">
    <path d="M 860.823529 1281.6 
L 860.823529 172.8 
" style="fill: none; stroke: #000000; stroke-width: 0.8; stroke-linejoin: miter; stroke-linecap: square"/>
   </g>
   <g id="patch_10">
    <path d="M 1353.176471 1281.6 
L 1353.176471 172.8 
" style="fill: none; stroke: #000000; stroke-width: 0.8; stroke-linejoin: miter; stroke-linecap: square"/>
   </g>
   <g id="patch_11">
    <path d="M 860.823529 1281.6 
L 1353.176471 1281.6 
" style="fill: none; stroke: #000000; stroke-width: 0.8; stroke-linejoin: miter; stroke-linecap: square"/>
   </g>
   <g id="patch_12">
    <path d="M 860.823529 172.8 
L 1353.176471 172.8 
" style="fill: none; stroke: #000000; stroke-width: 0.8; stroke-linejoin: miter; stroke-linecap: square"/>
   </g>
   <g id="legend_2">
    <g id="patch_13">
     <path d="M 1262.134283 195.478125 
L 1346.176471 195.478125 
Q 1348.176471 195.478125 1348.176471 193.478125 
L 1348.176471 179.8 
Q 1348.176471 177.8 1346.176471 177.8 
L 1262.134283 177.8 
Q 1260.134283 177.8 1260.134283 179.8 
L 1260.134283 193.478125 
Q 1260.134283 195.478125 1262.134283 195.478125 
z
" style="fill: #ffffff; opacity: 0.8; stroke: #cccccc; stroke-linejoin: miter"/>
    </g>
    <g id="line2d_35">
     <path d="M 1264.134283 185.898437 
L 1274.134283 185.898437 
L 1284.134283 185.898437 
" style="fill: none; stroke: #0000ff; stroke-width: 1.5; stroke-linecap: square"/>
    </g>
    <g id="text_33">
     <!-- O2 reward -->
     <g transform="translate(1292.134283 189.398437) scale(0.1 -0.1)">
      <use xlink:href="#DejaVuSans-4f"/>
      <use xlink:href="#DejaVuSans-32" x="78.710938"/>
      <use xlink:href="#DejaVuSans-20" x="142.333984"/>
      <use xlink:href="#DejaVuSans-72" x="174.121094"/>
      <use xlink:href="#DejaVuSans-65" x="212.984375"/>
      <use xlink:href="#DejaVuSans-77" x="274.507812"/>
      <use xlink:href="#DejaVuSans-61" x="356.294922"/>
      <use xlink:href="#DejaVuSans-72" x="417.574219"/>
      <use xlink:href="#DejaVuSans-64" x="456.9375"/>
     </g>
    </g>
   </g>
  </g>
  <g id="axes_3">
   <g id="patch_14">
    <path d="M 1451.647059 1281.6 
L 1944 1281.6 
L 1944 172.8 
L 1451.647059 172.8 
z
" style="fill: #ffffff"/>
   </g>
   <g id="matplotlib.axis_5">
    <g id="xtick_19">
     <g id="line2d_36">
      <g>
       <use xlink:href="#m720046ca22" x="1473.444692" y="1281.6" style="stroke: #000000; stroke-width: 0.8"/>
      </g>
     </g>
     <g id="text_34">
      <!-- 0 -->
      <g transform="translate(1470.263442 1296.198437) scale(0.1 -0.1)">
       <use xlink:href="#DejaVuSans-30"/>
      </g>
     </g>
    </g>
    <g id="xtick_20">
     <g id="line2d_37">
      <g>
       <use xlink:href="#m720046ca22" x="1531.649319" y="1281.6" style="stroke: #000000; stroke-width: 0.8"/>
      </g>
     </g>
     <g id="text_35">
      <!-- 100 -->
      <g transform="translate(1522.105569 1296.198437) scale(0.1 -0.1)">
       <use xlink:href="#DejaVuSans-31"/>
       <use xlink:href="#DejaVuSans-30" x="63.623047"/>
       <use xlink:href="#DejaVuSans-30" x="127.246094"/>
      </g>
     </g>
    </g>
    <g id="xtick_21">
     <g id="line2d_38">
      <g>
       <use xlink:href="#m720046ca22" x="1589.853946" y="1281.6" style="stroke: #000000; stroke-width: 0.8"/>
      </g>
     </g>
     <g id="text_36">
      <!-- 200 -->
      <g transform="translate(1580.310196 1296.198437) scale(0.1 -0.1)">
       <use xlink:href="#DejaVuSans-32"/>
       <use xlink:href="#DejaVuSans-30" x="63.623047"/>
       <use xlink:href="#DejaVuSans-30" x="127.246094"/>
      </g>
     </g>
    </g>
    <g id="xtick_22">
     <g id="line2d_39">
      <g>
       <use xlink:href="#m720046ca22" x="1648.058573" y="1281.6" style="stroke: #000000; stroke-width: 0.8"/>
      </g>
     </g>
     <g id="text_37">
      <!-- 300 -->
      <g transform="translate(1638.514823 1296.198437) scale(0.1 -0.1)">
       <use xlink:href="#DejaVuSans-33"/>
       <use xlink:href="#DejaVuSans-30" x="63.623047"/>
       <use xlink:href="#DejaVuSans-30" x="127.246094"/>
      </g>
     </g>
    </g>
    <g id="xtick_23">
     <g id="line2d_40">
      <g>
       <use xlink:href="#m720046ca22" x="1706.2632" y="1281.6" style="stroke: #000000; stroke-width: 0.8"/>
      </g>
     </g>
     <g id="text_38">
      <!-- 400 -->
      <g transform="translate(1696.71945 1296.198437) scale(0.1 -0.1)">
       <use xlink:href="#DejaVuSans-34"/>
       <use xlink:href="#DejaVuSans-30" x="63.623047"/>
       <use xlink:href="#DejaVuSans-30" x="127.246094"/>
      </g>
     </g>
    </g>
    <g id="xtick_24">
     <g id="line2d_41">
      <g>
       <use xlink:href="#m720046ca22" x="1764.467828" y="1281.6" style="stroke: #000000; stroke-width: 0.8"/>
      </g>
     </g>
     <g id="text_39">
      <!-- 500 -->
      <g transform="translate(1754.924078 1296.198437) scale(0.1 -0.1)">
       <use xlink:href="#DejaVuSans-35"/>
       <use xlink:href="#DejaVuSans-30" x="63.623047"/>
       <use xlink:href="#DejaVuSans-30" x="127.246094"/>
      </g>
     </g>
    </g>
    <g id="xtick_25">
     <g id="line2d_42">
      <g>
       <use xlink:href="#m720046ca22" x="1822.672455" y="1281.6" style="stroke: #000000; stroke-width: 0.8"/>
      </g>
     </g>
     <g id="text_40">
      <!-- 600 -->
      <g transform="translate(1813.128705 1296.198437) scale(0.1 -0.1)">
       <use xlink:href="#DejaVuSans-36"/>
       <use xlink:href="#DejaVuSans-30" x="63.623047"/>
       <use xlink:href="#DejaVuSans-30" x="127.246094"/>
      </g>
     </g>
    </g>
    <g id="xtick_26">
     <g id="line2d_43">
      <g>
       <use xlink:href="#m720046ca22" x="1880.877082" y="1281.6" style="stroke: #000000; stroke-width: 0.8"/>
      </g>
     </g>
     <g id="text_41">
      <!-- 700 -->
      <g transform="translate(1871.333332 1296.198437) scale(0.1 -0.1)">
       <use xlink:href="#DejaVuSans-37"/>
       <use xlink:href="#DejaVuSans-30" x="63.623047"/>
       <use xlink:href="#DejaVuSans-30" x="127.246094"/>
      </g>
     </g>
    </g>
    <g id="xtick_27">
     <g id="line2d_44">
      <g>
       <use xlink:href="#m720046ca22" x="1939.081709" y="1281.6" style="stroke: #000000; stroke-width: 0.8"/>
      </g>
     </g>
     <g id="text_42">
      <!-- 800 -->
      <g transform="translate(1929.537959 1296.198437) scale(0.1 -0.1)">
       <use xlink:href="#DejaVuSans-38"/>
       <use xlink:href="#DejaVuSans-30" x="63.623047"/>
       <use xlink:href="#DejaVuSans-30" x="127.246094"/>
      </g>
     </g>
    </g>
   </g>
   <g id="matplotlib.axis_6">
    <g id="ytick_14">
     <g id="line2d_45">
      <g>
       <use xlink:href="#m492da6ccdd" x="1451.647059" y="1231.2" style="stroke: #000000; stroke-width: 0.8"/>
      </g>
     </g>
     <g id="text_43">
      <!-- 0.0 -->
      <g transform="translate(1428.743934 1234.999219) scale(0.1 -0.1)">
       <defs>
        <path id="DejaVuSans-2e" d="M 684 794 
L 1344 794 
L 1344 0 
L 684 0 
L 684 794 
z
" transform="scale(0.015625)"/>
       </defs>
       <use xlink:href="#DejaVuSans-30"/>
       <use xlink:href="#DejaVuSans-2e" x="63.623047"/>
       <use xlink:href="#DejaVuSans-30" x="95.410156"/>
      </g>
     </g>
    </g>
    <g id="ytick_15">
     <g id="line2d_46">
      <g>
       <use xlink:href="#m492da6ccdd" x="1451.647059" y="1089.573833" style="stroke: #000000; stroke-width: 0.8"/>
      </g>
     </g>
     <g id="text_44">
      <!-- 2.5 -->
      <g transform="translate(1428.743934 1093.373051) scale(0.1 -0.1)">
       <use xlink:href="#DejaVuSans-32"/>
       <use xlink:href="#DejaVuSans-2e" x="63.623047"/>
       <use xlink:href="#DejaVuSans-35" x="95.410156"/>
      </g>
     </g>
    </g>
    <g id="ytick_16">
     <g id="line2d_47">
      <g>
       <use xlink:href="#m492da6ccdd" x="1451.647059" y="947.947665" style="stroke: #000000; stroke-width: 0.8"/>
      </g>
     </g>
     <g id="text_45">
      <!-- 5.0 -->
      <g transform="translate(1428.743934 951.746884) scale(0.1 -0.1)">
       <use xlink:href="#DejaVuSans-35"/>
       <use xlink:href="#DejaVuSans-2e" x="63.623047"/>
       <use xlink:href="#DejaVuSans-30" x="95.410156"/>
      </g>
     </g>
    </g>
    <g id="ytick_17">
     <g id="line2d_48">
      <g>
       <use xlink:href="#m492da6ccdd" x="1451.647059" y="806.321498" style="stroke: #000000; stroke-width: 0.8"/>
      </g>
     </g>
     <g id="text_46">
      <!-- 7.5 -->
      <g transform="translate(1428.743934 810.120717) scale(0.1 -0.1)">
       <use xlink:href="#DejaVuSans-37"/>
       <use xlink:href="#DejaVuSans-2e" x="63.623047"/>
       <use xlink:href="#DejaVuSans-35" x="95.410156"/>
      </g>
     </g>
    </g>
    <g id="ytick_18">
     <g id="line2d_49">
      <g>
       <use xlink:href="#m492da6ccdd" x="1451.647059" y="664.695331" style="stroke: #000000; stroke-width: 0.8"/>
      </g>
     </g>
     <g id="text_47">
      <!-- 10.0 -->
      <g transform="translate(1422.381434 668.49455) scale(0.1 -0.1)">
       <use xlink:href="#DejaVuSans-31"/>
       <use xlink:href="#DejaVuSans-30" x="63.623047"/>
       <use xlink:href="#DejaVuSans-2e" x="127.246094"/>
       <use xlink:href="#DejaVuSans-30" x="159.033203"/>
      </g>
     </g>
    </g>
    <g id="ytick_19">
     <g id="line2d_50">
      <g>
       <use xlink:href="#m492da6ccdd" x="1451.647059" y="523.069163" style="stroke: #000000; stroke-width: 0.8"/>
      </g>
     </g>
     <g id="text_48">
      <!-- 12.5 -->
      <g transform="translate(1422.381434 526.868382) scale(0.1 -0.1)">
       <use xlink:href="#DejaVuSans-31"/>
       <use xlink:href="#DejaVuSans-32" x="63.623047"/>
       <use xlink:href="#DejaVuSans-2e" x="127.246094"/>
       <use xlink:href="#DejaVuSans-35" x="159.033203"/>
      </g>
     </g>
    </g>
    <g id="ytick_20">
     <g id="line2d_51">
      <g>
       <use xlink:href="#m492da6ccdd" x="1451.647059" y="381.442996" style="stroke: #000000; stroke-width: 0.8"/>
      </g>
     </g>
     <g id="text_49">
      <!-- 15.0 -->
      <g transform="translate(1422.381434 385.242215) scale(0.1 -0.1)">
       <use xlink:href="#DejaVuSans-31"/>
       <use xlink:href="#DejaVuSans-35" x="63.623047"/>
       <use xlink:href="#DejaVuSans-2e" x="127.246094"/>
       <use xlink:href="#DejaVuSans-30" x="159.033203"/>
      </g>
     </g>
    </g>
    <g id="ytick_21">
     <g id="line2d_52">
      <g>
       <use xlink:href="#m492da6ccdd" x="1451.647059" y="239.816829" style="stroke: #000000; stroke-width: 0.8"/>
      </g>
     </g>
     <g id="text_50">
      <!-- 17.5 -->
      <g transform="translate(1422.381434 243.616048) scale(0.1 -0.1)">
       <use xlink:href="#DejaVuSans-31"/>
       <use xlink:href="#DejaVuSans-37" x="63.623047"/>
       <use xlink:href="#DejaVuSans-2e" x="127.246094"/>
       <use xlink:href="#DejaVuSans-35" x="159.033203"/>
      </g>
     </g>
    </g>
   </g>
   <g id="line2d_53">
    <path d="M 1474.026738 1231.2 
L 1498.472681 1231.2 
L 1499.054728 1209.10616 
L 1500.800866 1209.10616 
L 1501.382913 1191.451597 
L 1503.129052 1191.451597 
L 1503.711098 1176.434727 
L 1505.457237 1176.434727 
L 1506.039283 1154.179186 
L 1507.785422 1154.179186 
L 1508.367468 1146.695275 
L 1510.113607 1146.695275 
L 1510.695653 1117.559387 
L 1512.441792 1117.559387 
L 1513.023838 1126.024531 
L 1514.769977 1126.024531 
L 1515.352023 1109.443302 
L 1517.098162 1109.443302 
L 1517.680208 1093.094485 
L 1519.426347 1093.094485 
L 1520.008393 1082.004286 
L 1521.754532 1082.004286 
L 1522.336579 1063.221532 
L 1524.082717 1063.221532 
L 1524.664764 1045.590357 
L 1526.410902 1045.590357 
L 1526.992949 1034.664776 
L 1531.067273 1034.664776 
L 1531.649319 1029.855431 
L 1533.395458 1029.855431 
L 1533.977504 1019.324255 
L 1535.723643 1019.324255 
L 1536.305689 1013.459366 
L 1540.380013 1013.459366 
L 1540.962059 1009.081152 
L 1542.708198 1009.081152 
L 1543.290244 999.489539 
L 1547.364568 999.489539 
L 1547.946614 995.471582 
L 1549.692753 995.471582 
L 1550.2748 978.533253 
L 1552.020938 978.533253 
L 1552.602985 954.765495 
L 1554.349123 954.765495 
L 1554.93117 938.114682 
L 1556.677309 938.114682 
L 1557.259355 927.034923 
L 1559.005494 927.034923 
L 1559.58754 896.128123 
L 1561.333679 896.128123 
L 1561.915725 880.751301 
L 1563.661864 880.751301 
L 1564.24391 875.924074 
L 1565.990049 875.924074 
L 1566.572095 860.868796 
L 1568.318234 860.868796 
L 1568.90028 850.841912 
L 1570.646419 850.841912 
L 1571.228465 842.285744 
L 1572.974604 842.285744 
L 1573.55665 827.328464 
L 1575.302789 827.328464 
L 1575.884836 821.233563 
L 1577.630974 821.233563 
L 1578.213021 807.607286 
L 1582.287344 807.509684 
L 1582.869391 811.363477 
L 1584.61553 811.363477 
L 1585.197576 813.750805 
L 1586.943715 813.750805 
L 1587.525761 808.159817 
L 1589.2719 808.159817 
L 1589.853946 810.50587 
L 1591.600085 810.50587 
L 1592.182131 807.220991 
L 1593.92827 807.220991 
L 1594.510316 810.90964 
L 1596.256455 810.90964 
L 1596.838501 807.450477 
L 1600.912825 807.450477 
L 1601.494871 803.925321 
L 1603.24101 803.925321 
L 1603.823057 793.519305 
L 1605.569195 793.519305 
L 1606.151242 784.494938 
L 1607.89738 784.494938 
L 1608.479427 790.00061 
L 1610.225566 790.00061 
L 1610.807612 792.205145 
L 1617.210121 792.205145 
L 1617.792167 781.936849 
L 1619.538306 781.936849 
L 1620.120352 762.618276 
L 1621.866491 762.618276 
L 1622.448537 753.250047 
L 1624.194676 753.250047 
L 1624.776722 746.631698 
L 1626.522861 746.631698 
L 1627.104907 742.29299 
L 1628.851046 742.29299 
L 1629.433092 731.931628 
L 1631.179231 731.931628 
L 1631.761278 724.980014 
L 1633.507416 724.980014 
L 1634.089463 719.584885 
L 1635.835601 719.584885 
L 1636.417648 708.540978 
L 1638.163787 708.540978 
L 1638.745833 702.000843 
L 1640.491972 702.000843 
L 1641.074018 692.977844 
L 1642.820157 692.977844 
L 1643.402203 690.499872 
L 1645.148342 690.499872 
L 1645.730388 680.322035 
L 1647.476527 680.322035 
L 1648.058573 671.888832 
L 1649.804712 671.888832 
L 1650.386758 663.604381 
L 1652.132897 663.604381 
L 1652.714943 655.649667 
L 1656.789267 655.649667 
L 1657.371314 650.119503 
L 1659.117452 650.119503 
L 1659.699499 645.317915 
L 1661.445637 645.317915 
L 1662.027684 647.569188 
L 1663.773823 647.569188 
L 1664.355869 643.316672 
L 1666.102008 643.316672 
L 1666.684054 635.927182 
L 1668.430193 635.927182 
L 1669.012239 630.624921 
L 1670.758378 630.624921 
L 1671.340424 625.278438 
L 1673.086563 625.278438 
L 1673.668609 618.202356 
L 1675.414748 618.202356 
L 1675.996794 603.131484 
L 1677.742933 603.131484 
L 1678.324979 601.445464 
L 1680.071118 601.445464 
L 1680.653164 599.087198 
L 1682.399303 599.087198 
L 1682.981349 589.831431 
L 1684.727488 589.831431 
L 1685.309535 583.211048 
L 1687.055673 583.211048 
L 1687.63772 578.648095 
L 1689.383858 578.648095 
L 1689.965905 570.450738 
L 1691.712044 570.450738 
L 1692.29409 561.110103 
L 1694.040229 561.110103 
L 1694.622275 556.142666 
L 1696.368414 556.142666 
L 1696.95046 555.230706 
L 1698.696599 555.230706 
L 1699.278645 552.584736 
L 1701.024784 552.584736 
L 1701.60683 549.029657 
L 1703.352969 549.029657 
L 1703.935015 543.824906 
L 1705.681154 543.824906 
L 1706.2632 542.125172 
L 1708.009339 542.125172 
L 1708.591385 534.790591 
L 1710.337524 534.790591 
L 1710.919571 532.281329 
L 1712.665709 532.281329 
L 1713.247756 528.472495 
L 1714.993894 528.472495 
L 1715.575941 524.683271 
L 1717.32208 524.683271 
L 1717.904126 520.497118 
L 1721.97845 520.497118 
L 1722.560496 518.013477 
L 1724.306635 518.013477 
L 1724.888681 516.77091 
L 1726.63482 516.77091 
L 1727.216866 511.425463 
L 1731.29119 511.425463 
L 1731.873236 512.656851 
L 1733.619375 512.656851 
L 1734.201421 513.07241 
L 1735.94756 513.07241 
L 1736.529606 510.701562 
L 1738.275745 510.701562 
L 1738.857792 503.07375 
L 1740.60393 503.07375 
L 1741.185977 500.003361 
L 1742.932115 500.003361 
L 1743.514162 500.712851 
L 1745.260301 500.712851 
L 1745.842347 493.240775 
L 1747.588486 493.240775 
L 1748.170532 487.14761 
L 1749.916671 487.14761 
L 1750.498717 486.158656 
L 1752.244856 486.158656 
L 1752.826902 483.309238 
L 1754.573041 483.309238 
L 1755.155087 479.261301 
L 1756.901226 479.261301 
L 1757.483272 478.637736 
L 1759.229411 478.637736 
L 1759.811457 474.377067 
L 1761.557596 474.377067 
L 1762.139642 471.051414 
L 1763.885781 471.051414 
L 1764.467828 465.594068 
L 1766.213966 465.594068 
L 1766.796013 462.364466 
L 1768.542151 462.364466 
L 1769.124198 458.054597 
L 1770.870337 458.054597 
L 1771.452383 454.097995 
L 1773.198522 454.097995 
L 1773.780568 450.993614 
L 1775.526707 450.993614 
L 1776.108753 450.468023 
L 1777.854892 450.468023 
L 1778.436938 446.618838 
L 1780.183077 446.618838 
L 1780.765123 441.284284 
L 1782.511262 441.284284 
L 1783.093308 436.623239 
L 1784.839447 436.623239 
L 1785.421493 430.196065 
L 1787.167632 430.196065 
L 1787.749678 424.38472 
L 1789.495817 424.38472 
L 1790.077863 410.688284 
L 1791.824002 410.688284 
L 1792.406049 401.020063 
L 1794.152187 401.020063 
L 1794.734234 393.868047 
L 1796.480372 393.868047 
L 1797.062419 389.388131 
L 1798.808558 389.388131 
L 1799.390604 383.018888 
L 1801.136743 383.018888 
L 1801.718789 378.447576 
L 1803.464928 378.447576 
L 1804.046974 367.835099 
L 1805.793113 367.835099 
L 1806.375159 361.967865 
L 1808.121298 361.967865 
L 1808.703344 356.0395 
L 1810.449483 356.0395 
L 1811.031529 351.29309 
L 1812.777668 351.29309 
L 1813.359714 345.493793 
L 1815.105853 345.493793 
L 1815.687899 339.990575 
L 1817.434038 339.990575 
L 1818.016085 333.898562 
L 1819.762223 333.898562 
L 1820.34427 327.591681 
L 1822.090408 327.591681 
L 1822.672455 325.604782 
L 1824.418593 325.604782 
L 1825.00064 321.941867 
L 1826.746779 321.941867 
L 1827.328825 320.633352 
L 1829.074964 320.633352 
L 1829.65701 319.059217 
L 1831.403149 319.059217 
L 1831.985195 316.46357 
L 1833.731334 316.46357 
L 1834.31338 312.350086 
L 1836.059519 312.350086 
L 1836.641565 310.808859 
L 1838.387704 310.808859 
L 1838.96975 308.267485 
L 1840.715889 308.267485 
L 1841.297935 306.001165 
L 1845.372259 306.001165 
L 1845.954306 305.752005 
L 1847.700444 305.752005 
L 1848.282491 303.98854 
L 1850.028629 303.98854 
L 1850.610676 303.22786 
L 1852.356815 303.22786 
L 1852.938861 301.489216 
L 1854.685 301.489216 
L 1855.267046 300.255248 
L 1857.013185 300.255248 
L 1857.595231 297.44676 
L 1859.34137 297.44676 
L 1859.923416 292.778099 
L 1861.669555 292.778099 
L 1862.251601 291.790021 
L 1863.99774 291.790021 
L 1864.579786 286.857617 
L 1866.325925 286.857617 
L 1866.907971 283.715458 
L 1868.65411 283.715458 
L 1869.236156 281.762948 
L 1870.982295 281.762948 
L 1871.564341 278.452844 
L 1873.31048 278.452844 
L 1873.892527 273.810637 
L 1875.638665 273.810637 
L 1876.220712 270.184904 
L 1877.96685 270.184904 
L 1878.548897 264.683853 
L 1880.295036 264.683853 
L 1880.877082 262.426999 
L 1882.623221 262.426999 
L 1883.205267 260.004868 
L 1884.951406 260.004868 
L 1885.533452 254.526092 
L 1887.279591 254.526092 
L 1887.861637 253.424555 
L 1889.607776 253.424555 
L 1890.189822 252.1683 
L 1891.935961 252.1683 
L 1892.518007 249.036477 
L 1894.264146 249.036477 
L 1894.846192 246.398252 
L 1896.592331 246.398252 
L 1897.174377 242.484568 
L 1898.920516 242.484568 
L 1899.502563 238.379195 
L 1901.248701 238.379195 
L 1901.830748 236.570042 
L 1903.576886 236.570042 
L 1904.158933 233.540827 
L 1905.905072 233.540827 
L 1906.487118 231.971322 
L 1908.233257 231.971322 
L 1908.815303 232.542707 
L 1910.561442 232.542707 
L 1911.143488 228.076952 
L 1912.889627 228.076952 
L 1913.471673 227.882747 
L 1915.217812 227.882747 
L 1915.799858 225.698056 
L 1919.874182 225.698056 
L 1920.456228 223.2 
L 1921.620321 223.2 
L 1921.620321 223.2 
" clip-path="url(#pa6fdca67c7)" style="fill: none; stroke: #0000ff; stroke-width: 1.5; stroke-linecap: square"/>
   </g>
   <g id="patch_15">
    <path d="M 1451.647059 1281.6 
L 1451.647059 172.8 
" style="fill: none; stroke: #000000; stroke-width: 0.8; stroke-linejoin: miter; stroke-linecap: square"/>
   </g>
   <g id="patch_16">
    <path d="M 1944 1281.6 
L 1944 172.8 
" style="fill: none; stroke: #000000; stroke-width: 0.8; stroke-linejoin: miter; stroke-linecap: square"/>
   </g>
   <g id="patch_17">
    <path d="M 1451.647059 1281.6 
L 1944 1281.6 
" style="fill: none; stroke: #000000; stroke-width: 0.8; stroke-linejoin: miter; stroke-linecap: square"/>
   </g>
   <g id="patch_18">
    <path d="M 1451.647059 172.8 
L 1944 172.8 
" style="fill: none; stroke: #000000; stroke-width: 0.8; stroke-linejoin: miter; stroke-linecap: square"/>
   </g>
   <g id="legend_3">
    <g id="patch_19">
     <path d="M 1852.957813 195.478125 
L 1937 195.478125 
Q 1939 195.478125 1939 193.478125 
L 1939 179.8 
Q 1939 177.8 1937 177.8 
L 1852.957813 177.8 
Q 1850.957813 177.8 1850.957813 179.8 
L 1850.957813 193.478125 
Q 1850.957813 195.478125 1852.957813 195.478125 
z
" style="fill: #ffffff; opacity: 0.8; stroke: #cccccc; stroke-linejoin: miter"/>
    </g>
    <g id="line2d_54">
     <path d="M 1854.957813 185.898437 
L 1864.957813 185.898437 
L 1874.957813 185.898437 
" style="fill: none; stroke: #0000ff; stroke-width: 1.5; stroke-linecap: square"/>
    </g>
    <g id="text_51">
     <!-- O3 reward -->
     <g transform="translate(1882.957813 189.398437) scale(0.1 -0.1)">
      <use xlink:href="#DejaVuSans-4f"/>
      <use xlink:href="#DejaVuSans-33" x="78.710938"/>
      <use xlink:href="#DejaVuSans-20" x="142.333984"/>
      <use xlink:href="#DejaVuSans-72" x="174.121094"/>
      <use xlink:href="#DejaVuSans-65" x="212.984375"/>
      <use xlink:href="#DejaVuSans-77" x="274.507812"/>
      <use xlink:href="#DejaVuSans-61" x="356.294922"/>
      <use xlink:href="#DejaVuSans-72" x="417.574219"/>
      <use xlink:href="#DejaVuSans-64" x="456.9375"/>
     </g>
    </g>
   </g>
  </g>
 </g>
 <defs>
  <clipPath id="p8fcaa900ea">
   <rect x="270" y="172.8" width="492.352941" height="1108.8"/>
  </clipPath>
  <clipPath id="p23215818a8">
   <rect x="860.823529" y="172.8" width="492.352941" height="1108.8"/>
  </clipPath>
  <clipPath id="pa6fdca67c7">
   <rect x="1451.647059" y="172.8" width="492.352941" height="1108.8"/>
  </clipPath>
 </defs>
</svg>
