<?xml version="1.0" encoding="utf-8" standalone="no"?>
<!DOCTYPE svg PUBLIC "-//W3C//DTD SVG 1.1//EN"
  "http://www.w3.org/Graphics/SVG/1.1/DTD/svg11.dtd">
<svg xmlns:xlink="http://www.w3.org/1999/xlink" width="2160pt" height="1440pt" viewBox="0 0 2160 1440" xmlns="http://www.w3.org/2000/svg" version="1.1">
 <metadata>
  <rdf:RDF xmlns:dc="http://purl.org/dc/elements/1.1/" xmlns:cc="http://creativecommons.org/ns#" xmlns:rdf="http://www.w3.org/1999/02/22-rdf-syntax-ns#">
   <cc:Work>
    <dc:type rdf:resource="http://purl.org/dc/dcmitype/StillImage"/>
    <dc:date>2023-05-31T19:24:31.453376</dc:date>
    <dc:format>image/svg+xml</dc:format>
    <dc:creator>
     <cc:Agent>
      <dc:title>Matplotlib v3.7.1, https://matplotlib.org/</dc:title>
     </cc:Agent>
    </dc:creator>
   </cc:Work>
  </rdf:RDF>
 </metadata>
 <defs>
  <style type="text/css">*{stroke-linejoin: round; stroke-linecap: butt}</style>
 </defs>
 <g id="figure_1">
  <g id="patch_1">
   <path d="M 0 1440 
L 2160 1440 
L 2160 0 
L 0 0 
z
" style="fill: #ffffff"/>
  </g>
  <g id="axes_1">
   <g id="patch_2">
    <path d="M 270 1281.6 
L 762.352941 1281.6 
L 762.352941 172.8 
L 270 172.8 
z
" style="fill: #ffffff"/>
   </g>
   <g id="matplotlib.axis_1">
    <g id="xtick_1">
     <g id="line2d_1">
      <defs>
       <path id="m882b00b46d" d="M 0 0 
L 0 3.5 
" style="stroke: #000000; stroke-width: 0.8"/>
      </defs>
      <g>
       <use xlink:href="#m882b00b46d" x="291.56439" y="1281.6" style="stroke: #000000; stroke-width: 0.8"/>
      </g>
     </g>
     <g id="text_1">
      <!-- 0 -->
      <g transform="translate(288.38314 1296.198437) scale(0.1 -0.1)">
       <defs>
        <path id="DejaVuSans-30" d="M 2034 4250 
Q 1547 4250 1301 3770 
Q 1056 3291 1056 2328 
Q 1056 1369 1301 889 
Q 1547 409 2034 409 
Q 2525 409 2770 889 
Q 3016 1369 3016 2328 
Q 3016 3291 2770 3770 
Q 2525 4250 2034 4250 
z
M 2034 4750 
Q 2819 4750 3233 4129 
Q 3647 3509 3647 2328 
Q 3647 1150 3233 529 
Q 2819 -91 2034 -91 
Q 1250 -91 836 529 
Q 422 1150 422 2328 
Q 422 3509 836 4129 
Q 1250 4750 2034 4750 
z
" transform="scale(0.015625)"/>
       </defs>
       <use xlink:href="#DejaVuSans-30"/>
      </g>
     </g>
    </g>
    <g id="xtick_2">
     <g id="line2d_2">
      <g>
       <use xlink:href="#m882b00b46d" x="373.093276" y="1281.6" style="stroke: #000000; stroke-width: 0.8"/>
      </g>
     </g>
     <g id="text_2">
      <!-- 100 -->
      <g transform="translate(363.549526 1296.198437) scale(0.1 -0.1)">
       <defs>
        <path id="DejaVuSans-31" d="M 794 531 
L 1825 531 
L 1825 4091 
L 703 3866 
L 703 4441 
L 1819 4666 
L 2450 4666 
L 2450 531 
L 3481 531 
L 3481 0 
L 794 0 
L 794 531 
z
" transform="scale(0.015625)"/>
       </defs>
       <use xlink:href="#DejaVuSans-31"/>
       <use xlink:href="#DejaVuSans-30" x="63.623047"/>
       <use xlink:href="#DejaVuSans-30" x="127.246094"/>
      </g>
     </g>
    </g>
    <g id="xtick_3">
     <g id="line2d_3">
      <g>
       <use xlink:href="#m882b00b46d" x="454.622162" y="1281.6" style="stroke: #000000; stroke-width: 0.8"/>
      </g>
     </g>
     <g id="text_3">
      <!-- 200 -->
      <g transform="translate(445.078412 1296.198437) scale(0.1 -0.1)">
       <defs>
        <path id="DejaVuSans-32" d="M 1228 531 
L 3431 531 
L 3431 0 
L 469 0 
L 469 531 
Q 828 903 1448 1529 
Q 2069 2156 2228 2338 
Q 2531 2678 2651 2914 
Q 2772 3150 2772 3378 
Q 2772 3750 2511 3984 
Q 2250 4219 1831 4219 
Q 1534 4219 1204 4116 
Q 875 4013 500 3803 
L 500 4441 
Q 881 4594 1212 4672 
Q 1544 4750 1819 4750 
Q 2544 4750 2975 4387 
Q 3406 4025 3406 3419 
Q 3406 3131 3298 2873 
Q 3191 2616 2906 2266 
Q 2828 2175 2409 1742 
Q 1991 1309 1228 531 
z
" transform="scale(0.015625)"/>
       </defs>
       <use xlink:href="#DejaVuSans-32"/>
       <use xlink:href="#DejaVuSans-30" x="63.623047"/>
       <use xlink:href="#DejaVuSans-30" x="127.246094"/>
      </g>
     </g>
    </g>
    <g id="xtick_4">
     <g id="line2d_4">
      <g>
       <use xlink:href="#m882b00b46d" x="536.151048" y="1281.6" style="stroke: #000000; stroke-width: 0.8"/>
      </g>
     </g>
     <g id="text_4">
      <!-- 300 -->
      <g transform="translate(526.607298 1296.198437) scale(0.1 -0.1)">
       <defs>
        <path id="DejaVuSans-33" d="M 2597 2516 
Q 3050 2419 3304 2112 
Q 3559 1806 3559 1356 
Q 3559 666 3084 287 
Q 2609 -91 1734 -91 
Q 1441 -91 1130 -33 
Q 819 25 488 141 
L 488 750 
Q 750 597 1062 519 
Q 1375 441 1716 441 
Q 2309 441 2620 675 
Q 2931 909 2931 1356 
Q 2931 1769 2642 2001 
Q 2353 2234 1838 2234 
L 1294 2234 
L 1294 2753 
L 1863 2753 
Q 2328 2753 2575 2939 
Q 2822 3125 2822 3475 
Q 2822 3834 2567 4026 
Q 2313 4219 1838 4219 
Q 1578 4219 1281 4162 
Q 984 4106 628 3988 
L 628 4550 
Q 988 4650 1302 4700 
Q 1616 4750 1894 4750 
Q 2613 4750 3031 4423 
Q 3450 4097 3450 3541 
Q 3450 3153 3228 2886 
Q 3006 2619 2597 2516 
z
" transform="scale(0.015625)"/>
       </defs>
       <use xlink:href="#DejaVuSans-33"/>
       <use xlink:href="#DejaVuSans-30" x="63.623047"/>
       <use xlink:href="#DejaVuSans-30" x="127.246094"/>
      </g>
     </g>
    </g>
    <g id="xtick_5">
     <g id="line2d_5">
      <g>
       <use xlink:href="#m882b00b46d" x="617.679933" y="1281.6" style="stroke: #000000; stroke-width: 0.8"/>
      </g>
     </g>
     <g id="text_5">
      <!-- 400 -->
      <g transform="translate(608.136183 1296.198437) scale(0.1 -0.1)">
       <defs>
        <path id="DejaVuSans-34" d="M 2419 4116 
L 825 1625 
L 2419 1625 
L 2419 4116 
z
M 2253 4666 
L 3047 4666 
L 3047 1625 
L 3713 1625 
L 3713 1100 
L 3047 1100 
L 3047 0 
L 2419 0 
L 2419 1100 
L 313 1100 
L 313 1709 
L 2253 4666 
z
" transform="scale(0.015625)"/>
       </defs>
       <use xlink:href="#DejaVuSans-34"/>
       <use xlink:href="#DejaVuSans-30" x="63.623047"/>
       <use xlink:href="#DejaVuSans-30" x="127.246094"/>
      </g>
     </g>
    </g>
    <g id="xtick_6">
     <g id="line2d_6">
      <g>
       <use xlink:href="#m882b00b46d" x="699.208819" y="1281.6" style="stroke: #000000; stroke-width: 0.8"/>
      </g>
     </g>
     <g id="text_6">
      <!-- 500 -->
      <g transform="translate(689.665069 1296.198437) scale(0.1 -0.1)">
       <defs>
        <path id="DejaVuSans-35" d="M 691 4666 
L 3169 4666 
L 3169 4134 
L 1269 4134 
L 1269 2991 
Q 1406 3038 1543 3061 
Q 1681 3084 1819 3084 
Q 2600 3084 3056 2656 
Q 3513 2228 3513 1497 
Q 3513 744 3044 326 
Q 2575 -91 1722 -91 
Q 1428 -91 1123 -41 
Q 819 9 494 109 
L 494 744 
Q 775 591 1075 516 
Q 1375 441 1709 441 
Q 2250 441 2565 725 
Q 2881 1009 2881 1497 
Q 2881 1984 2565 2268 
Q 2250 2553 1709 2553 
Q 1456 2553 1204 2497 
Q 953 2441 691 2322 
L 691 4666 
z
" transform="scale(0.015625)"/>
       </defs>
       <use xlink:href="#DejaVuSans-35"/>
       <use xlink:href="#DejaVuSans-30" x="63.623047"/>
       <use xlink:href="#DejaVuSans-30" x="127.246094"/>
      </g>
     </g>
    </g>
   </g>
   <g id="matplotlib.axis_2">
    <g id="ytick_1">
     <g id="line2d_7">
      <defs>
       <path id="m9892976238" d="M 0 0 
L -3.5 0 
" style="stroke: #000000; stroke-width: 0.8"/>
      </defs>
      <g>
       <use xlink:href="#m9892976238" x="270" y="1261.755171" style="stroke: #000000; stroke-width: 0.8"/>
      </g>
     </g>
     <g id="text_7">
      <!-- −6 -->
      <g transform="translate(248.257812 1265.554389) scale(0.1 -0.1)">
       <defs>
        <path id="DejaVuSans-2212" d="M 678 2272 
L 4684 2272 
L 4684 1741 
L 678 1741 
L 678 2272 
z
" transform="scale(0.015625)"/>
        <path id="DejaVuSans-36" d="M 2113 2584 
Q 1688 2584 1439 2293 
Q 1191 2003 1191 1497 
Q 1191 994 1439 701 
Q 1688 409 2113 409 
Q 2538 409 2786 701 
Q 3034 994 3034 1497 
Q 3034 2003 2786 2293 
Q 2538 2584 2113 2584 
z
M 3366 4563 
L 3366 3988 
Q 3128 4100 2886 4159 
Q 2644 4219 2406 4219 
Q 1781 4219 1451 3797 
Q 1122 3375 1075 2522 
Q 1259 2794 1537 2939 
Q 1816 3084 2150 3084 
Q 2853 3084 3261 2657 
Q 3669 2231 3669 1497 
Q 3669 778 3244 343 
Q 2819 -91 2113 -91 
Q 1303 -91 875 529 
Q 447 1150 447 2328 
Q 447 3434 972 4092 
Q 1497 4750 2381 4750 
Q 2619 4750 2861 4703 
Q 3103 4656 3366 4563 
z
" transform="scale(0.015625)"/>
       </defs>
       <use xlink:href="#DejaVuSans-2212"/>
       <use xlink:href="#DejaVuSans-36" x="83.789062"/>
      </g>
     </g>
    </g>
    <g id="ytick_2">
     <g id="line2d_8">
      <g>
       <use xlink:href="#m9892976238" x="270" y="1094.246272" style="stroke: #000000; stroke-width: 0.8"/>
      </g>
     </g>
     <g id="text_8">
      <!-- −5 -->
      <g transform="translate(248.257812 1098.045491) scale(0.1 -0.1)">
       <use xlink:href="#DejaVuSans-2212"/>
       <use xlink:href="#DejaVuSans-35" x="83.789062"/>
      </g>
     </g>
    </g>
    <g id="ytick_3">
     <g id="line2d_9">
      <g>
       <use xlink:href="#m9892976238" x="270" y="926.737374" style="stroke: #000000; stroke-width: 0.8"/>
      </g>
     </g>
     <g id="text_9">
      <!-- −4 -->
      <g transform="translate(248.257812 930.536592) scale(0.1 -0.1)">
       <use xlink:href="#DejaVuSans-2212"/>
       <use xlink:href="#DejaVuSans-34" x="83.789062"/>
      </g>
     </g>
    </g>
    <g id="ytick_4">
     <g id="line2d_10">
      <g>
       <use xlink:href="#m9892976238" x="270" y="759.228475" style="stroke: #000000; stroke-width: 0.8"/>
      </g>
     </g>
     <g id="text_10">
      <!-- −3 -->
      <g transform="translate(248.257812 763.027694) scale(0.1 -0.1)">
       <use xlink:href="#DejaVuSans-2212"/>
       <use xlink:href="#DejaVuSans-33" x="83.789062"/>
      </g>
     </g>
    </g>
    <g id="ytick_5">
     <g id="line2d_11">
      <g>
       <use xlink:href="#m9892976238" x="270" y="591.719577" style="stroke: #000000; stroke-width: 0.8"/>
      </g>
     </g>
     <g id="text_11">
      <!-- −2 -->
      <g transform="translate(248.257812 595.518795) scale(0.1 -0.1)">
       <use xlink:href="#DejaVuSans-2212"/>
       <use xlink:href="#DejaVuSans-32" x="83.789062"/>
      </g>
     </g>
    </g>
    <g id="ytick_6">
     <g id="line2d_12">
      <g>
       <use xlink:href="#m9892976238" x="270" y="424.210678" style="stroke: #000000; stroke-width: 0.8"/>
      </g>
     </g>
     <g id="text_12">
      <!-- −1 -->
      <g transform="translate(248.257812 428.009897) scale(0.1 -0.1)">
       <use xlink:href="#DejaVuSans-2212"/>
       <use xlink:href="#DejaVuSans-31" x="83.789062"/>
      </g>
     </g>
    </g>
    <g id="ytick_7">
     <g id="line2d_13">
      <g>
       <use xlink:href="#m9892976238" x="270" y="256.70178" style="stroke: #000000; stroke-width: 0.8"/>
      </g>
     </g>
     <g id="text_13">
      <!-- 0 -->
      <g transform="translate(256.6375 260.500998) scale(0.1 -0.1)">
       <use xlink:href="#DejaVuSans-30"/>
      </g>
     </g>
    </g>
   </g>
   <g id="line2d_14">
    <path d="M 292.379679 256.70178 
L 333.144122 256.70178 
L 333.959411 223.2 
L 336.405277 223.2 
L 337.220566 245.53452 
L 339.666433 245.53452 
L 340.481722 283.503203 
L 342.927588 283.503203 
L 343.742877 287.798303 
L 346.188744 287.798303 
L 347.004033 330.381152 
L 349.449899 330.381152 
L 350.265188 348.889851 
L 352.711055 348.889851 
L 353.526343 368.698443 
L 355.97221 368.698443 
L 356.787499 386.094695 
L 359.233365 386.094695 
L 360.048654 408.659077 
L 362.494521 408.659077 
L 363.30981 425.8295 
L 369.016832 425.8295 
L 369.832121 411.614814 
L 375.539143 411.614814 
L 376.354431 431.82439 
L 378.800298 431.82439 
L 379.615587 414.747809 
L 382.061453 414.747809 
L 382.876742 400.9719 
L 388.583764 400.9719 
L 389.399053 404.431423 
L 391.84492 404.431423 
L 392.660209 387.430195 
L 398.367231 387.430195 
L 399.18252 370.49706 
L 401.628386 370.49706 
L 402.443675 353.628775 
L 404.889542 353.628775 
L 405.70483 369.256253 
L 408.150697 369.256253 
L 408.965986 343.876117 
L 414.673008 343.876117 
L 415.488297 320.354739 
L 417.934163 320.354739 
L 418.749452 335.153395 
L 421.195319 335.153395 
L 422.010608 320.354739 
L 424.456474 320.354739 
L 425.271763 342.960964 
L 430.978785 342.960964 
L 431.794074 358.917536 
L 434.23994 358.917536 
L 435.055229 386.712943 
L 437.501096 386.712943 
L 438.316385 382.535532 
L 440.762251 382.535532 
L 441.57754 393.053995 
L 444.023407 393.053995 
L 444.838696 389.038722 
L 447.284562 389.038722 
L 448.099851 385.113016 
L 450.545718 385.113016 
L 451.361006 391.997673 
L 453.806873 391.997673 
L 454.622162 431.416558 
L 457.068028 431.416558 
L 457.883317 417.3669 
L 460.329184 417.3669 
L 461.144473 428.270253 
L 463.590339 428.270253 
L 464.405628 467.180384 
L 466.851495 467.180384 
L 467.666784 480.469832 
L 470.11265 480.469832 
L 470.927939 492.191701 
L 479.896116 492.191701 
L 480.711405 505.187274 
L 483.157272 505.187274 
L 483.972561 529.904715 
L 486.418427 529.904715 
L 487.233716 516.929815 
L 489.679583 516.929815 
L 490.494872 541.689728 
L 492.940738 541.689728 
L 493.756027 566.22192 
L 496.201894 566.22192 
L 497.017182 578.06469 
L 499.463049 578.06469 
L 500.278338 615.511851 
L 502.724204 615.511851 
L 503.539493 640.674671 
L 505.98536 640.674671 
L 506.800649 678.568304 
L 509.246515 678.568304 
L 510.061804 715.82623 
L 512.507671 715.82623 
L 513.32296 740.855923 
L 515.768826 740.855923 
L 516.584115 753.656542 
L 519.029982 753.656542 
L 519.84527 778.686235 
L 522.291137 778.686235 
L 523.106426 766.628964 
L 525.552292 766.628964 
L 526.367581 742.809854 
L 528.813448 742.809854 
L 529.628737 719.2658 
L 532.074603 719.2658 
L 532.889892 707.493772 
L 535.335759 707.493772 
L 536.151048 732.656919 
L 538.596914 732.656919 
L 539.412203 732.769492 
L 541.85807 732.769492 
L 542.673358 734.926074 
L 545.119225 734.926074 
L 545.934514 774.122162 
L 551.641536 774.108526 
L 552.456825 751.527173 
L 554.902691 751.527173 
L 555.71798 740.249548 
L 558.163847 740.249548 
L 558.979136 717.731553 
L 561.425002 717.731553 
L 562.240291 743.46085 
L 564.686158 743.46085 
L 565.501446 754.713725 
L 571.208468 754.713725 
L 572.023757 765.9666 
L 574.469624 765.9666 
L 575.284913 754.725235 
L 577.730779 754.725235 
L 578.546068 746.976246 
L 580.991935 746.976246 
L 581.807224 724.735356 
L 584.25309 724.735356 
L 585.068379 728.472835 
L 587.514246 728.472835 
L 588.329534 747.43167 
L 590.775401 747.43167 
L 591.59069 751.604793 
L 594.036557 751.604793 
L 594.851845 740.57162 
L 600.558867 740.57162 
L 601.374156 766.748901 
L 603.820023 766.748901 
L 604.635312 755.869455 
L 607.081178 755.869455 
L 607.896467 744.998677 
L 610.342334 744.998677 
L 611.157623 749.539487 
L 613.603489 749.539487 
L 614.418778 754.172885 
L 616.864645 754.172885 
L 617.679933 769.702192 
L 620.1258 769.702192 
L 620.941089 796.140787 
L 623.386955 796.140787 
L 624.202244 838.247181 
L 626.648111 838.247181 
L 627.4634 864.685772 
L 629.909266 864.685772 
L 630.724555 901.879372 
L 633.170422 901.879372 
L 633.985711 944.001656 
L 636.431577 944.001656 
L 637.246866 981.117609 
L 639.692733 981.117609 
L 640.508021 1034.139373 
L 642.953888 1034.139373 
L 643.769177 1076.577142 
L 646.215043 1076.577142 
L 647.030332 1087.275314 
L 649.476199 1087.275314 
L 650.291488 1129.81783 
L 652.737354 1129.81783 
L 653.552643 1135.062224 
L 655.99851 1135.062224 
L 656.813799 1167.017016 
L 662.520821 1167.017016 
L 663.336109 1182.99207 
L 669.043131 1183.021597 
L 669.85842 1199.015082 
L 672.304287 1199.015082 
L 673.119576 1188.424636 
L 678.826598 1188.418643 
L 679.641887 1204.527201 
L 682.087753 1204.527201 
L 682.903042 1231.2 
L 685.348909 1231.2 
L 686.164197 1210.181135 
L 688.610064 1210.181135 
L 689.425353 1215.976174 
L 691.871219 1215.976174 
L 692.686508 1195.08657 
L 695.132375 1195.08657 
L 695.947664 1163.878218 
L 698.39353 1163.878218 
L 699.208819 1180.263178 
L 701.654686 1180.263178 
L 702.469975 1149.141862 
L 704.915841 1149.141862 
L 705.73113 1175.95192 
L 708.176997 1175.95192 
L 708.992285 1171.682663 
L 717.960463 1171.682663 
L 718.775752 1161.385553 
L 721.221618 1161.385553 
L 722.036907 1140.81504 
L 724.482774 1140.81504 
L 725.298063 1120.259112 
L 727.743929 1120.259112 
L 728.559218 1079.21766 
L 731.005085 1079.21766 
L 731.820373 1038.360566 
L 734.26624 1038.360566 
L 735.081529 1007.807469 
L 737.527395 1007.807469 
L 738.342684 977.329691 
L 739.973262 977.329691 
L 739.973262 977.329691 
" clip-path="url(#p804f7750f9)" style="fill: none; stroke: #0000ff; stroke-width: 1.5; stroke-linecap: square"/>
   </g>
   <g id="patch_3">
    <path d="M 270 1281.6 
L 270 172.8 
" style="fill: none; stroke: #000000; stroke-width: 0.8; stroke-linejoin: miter; stroke-linecap: square"/>
   </g>
   <g id="patch_4">
    <path d="M 762.352941 1281.6 
L 762.352941 172.8 
" style="fill: none; stroke: #000000; stroke-width: 0.8; stroke-linejoin: miter; stroke-linecap: square"/>
   </g>
   <g id="patch_5">
    <path d="M 270 1281.6 
L 762.352941 1281.6 
" style="fill: none; stroke: #000000; stroke-width: 0.8; stroke-linejoin: miter; stroke-linecap: square"/>
   </g>
   <g id="patch_6">
    <path d="M 270 172.8 
L 762.352941 172.8 
" style="fill: none; stroke: #000000; stroke-width: 0.8; stroke-linejoin: miter; stroke-linecap: square"/>
   </g>
   <g id="legend_1">
    <g id="patch_7">
     <path d="M 671.310754 195.478125 
L 755.352941 195.478125 
Q 757.352941 195.478125 757.352941 193.478125 
L 757.352941 179.8 
Q 757.352941 177.8 755.352941 177.8 
L 671.310754 177.8 
Q 669.310754 177.8 669.310754 179.8 
L 669.310754 193.478125 
Q 669.310754 195.478125 671.310754 195.478125 
z
" style="fill: #ffffff; opacity: 0.8; stroke: #cccccc; stroke-linejoin: miter"/>
    </g>
    <g id="line2d_15">
     <path d="M 673.310754 185.898437 
L 683.310754 185.898437 
L 693.310754 185.898437 
" style="fill: none; stroke: #0000ff; stroke-width: 1.5; stroke-linecap: square"/>
    </g>
    <g id="text_14">
     <!-- O1 reward -->
     <g transform="translate(701.310754 189.398437) scale(0.1 -0.1)">
      <defs>
       <path id="DejaVuSans-4f" d="M 2522 4238 
Q 1834 4238 1429 3725 
Q 1025 3213 1025 2328 
Q 1025 1447 1429 934 
Q 1834 422 2522 422 
Q 3209 422 3611 934 
Q 4013 1447 4013 2328 
Q 4013 3213 3611 3725 
Q 3209 4238 2522 4238 
z
M 2522 4750 
Q 3503 4750 4090 4092 
Q 4678 3434 4678 2328 
Q 4678 1225 4090 567 
Q 3503 -91 2522 -91 
Q 1538 -91 948 565 
Q 359 1222 359 2328 
Q 359 3434 948 4092 
Q 1538 4750 2522 4750 
z
" transform="scale(0.015625)"/>
       <path id="DejaVuSans-20" transform="scale(0.015625)"/>
       <path id="DejaVuSans-72" d="M 2631 2963 
Q 2534 3019 2420 3045 
Q 2306 3072 2169 3072 
Q 1681 3072 1420 2755 
Q 1159 2438 1159 1844 
L 1159 0 
L 581 0 
L 581 3500 
L 1159 3500 
L 1159 2956 
Q 1341 3275 1631 3429 
Q 1922 3584 2338 3584 
Q 2397 3584 2469 3576 
Q 2541 3569 2628 3553 
L 2631 2963 
z
" transform="scale(0.015625)"/>
       <path id="DejaVuSans-65" d="M 3597 1894 
L 3597 1613 
L 953 1613 
Q 991 1019 1311 708 
Q 1631 397 2203 397 
Q 2534 397 2845 478 
Q 3156 559 3463 722 
L 3463 178 
Q 3153 47 2828 -22 
Q 2503 -91 2169 -91 
Q 1331 -91 842 396 
Q 353 884 353 1716 
Q 353 2575 817 3079 
Q 1281 3584 2069 3584 
Q 2775 3584 3186 3129 
Q 3597 2675 3597 1894 
z
M 3022 2063 
Q 3016 2534 2758 2815 
Q 2500 3097 2075 3097 
Q 1594 3097 1305 2825 
Q 1016 2553 972 2059 
L 3022 2063 
z
" transform="scale(0.015625)"/>
       <path id="DejaVuSans-77" d="M 269 3500 
L 844 3500 
L 1563 769 
L 2278 3500 
L 2956 3500 
L 3675 769 
L 4391 3500 
L 4966 3500 
L 4050 0 
L 3372 0 
L 2619 2869 
L 1863 0 
L 1184 0 
L 269 3500 
z
" transform="scale(0.015625)"/>
       <path id="DejaVuSans-61" d="M 2194 1759 
Q 1497 1759 1228 1600 
Q 959 1441 959 1056 
Q 959 750 1161 570 
Q 1363 391 1709 391 
Q 2188 391 2477 730 
Q 2766 1069 2766 1631 
L 2766 1759 
L 2194 1759 
z
M 3341 1997 
L 3341 0 
L 2766 0 
L 2766 531 
Q 2569 213 2275 61 
Q 1981 -91 1556 -91 
Q 1019 -91 701 211 
Q 384 513 384 1019 
Q 384 1609 779 1909 
Q 1175 2209 1959 2209 
L 2766 2209 
L 2766 2266 
Q 2766 2663 2505 2880 
Q 2244 3097 1772 3097 
Q 1472 3097 1187 3025 
Q 903 2953 641 2809 
L 641 3341 
Q 956 3463 1253 3523 
Q 1550 3584 1831 3584 
Q 2591 3584 2966 3190 
Q 3341 2797 3341 1997 
z
" transform="scale(0.015625)"/>
       <path id="DejaVuSans-64" d="M 2906 2969 
L 2906 4863 
L 3481 4863 
L 3481 0 
L 2906 0 
L 2906 525 
Q 2725 213 2448 61 
Q 2172 -91 1784 -91 
Q 1150 -91 751 415 
Q 353 922 353 1747 
Q 353 2572 751 3078 
Q 1150 3584 1784 3584 
Q 2172 3584 2448 3432 
Q 2725 3281 2906 2969 
z
M 947 1747 
Q 947 1113 1208 752 
Q 1469 391 1925 391 
Q 2381 391 2643 752 
Q 2906 1113 2906 1747 
Q 2906 2381 2643 2742 
Q 2381 3103 1925 3103 
Q 1469 3103 1208 2742 
Q 947 2381 947 1747 
z
" transform="scale(0.015625)"/>
      </defs>
      <use xlink:href="#DejaVuSans-4f"/>
      <use xlink:href="#DejaVuSans-31" x="78.710938"/>
      <use xlink:href="#DejaVuSans-20" x="142.333984"/>
      <use xlink:href="#DejaVuSans-72" x="174.121094"/>
      <use xlink:href="#DejaVuSans-65" x="212.984375"/>
      <use xlink:href="#DejaVuSans-77" x="274.507812"/>
      <use xlink:href="#DejaVuSans-61" x="356.294922"/>
      <use xlink:href="#DejaVuSans-72" x="417.574219"/>
      <use xlink:href="#DejaVuSans-64" x="456.9375"/>
     </g>
    </g>
   </g>
  </g>
  <g id="axes_2">
   <g id="patch_8">
    <path d="M 860.823529 1281.6 
L 1353.176471 1281.6 
L 1353.176471 172.8 
L 860.823529 172.8 
z
" style="fill: #ffffff"/>
   </g>
   <g id="matplotlib.axis_3">
    <g id="xtick_7">
     <g id="line2d_16">
      <g>
       <use xlink:href="#m882b00b46d" x="882.38792" y="1281.6" style="stroke: #000000; stroke-width: 0.8"/>
      </g>
     </g>
     <g id="text_15">
      <!-- 0 -->
      <g transform="translate(879.20667 1296.198437) scale(0.1 -0.1)">
       <use xlink:href="#DejaVuSans-30"/>
      </g>
     </g>
    </g>
    <g id="xtick_8">
     <g id="line2d_17">
      <g>
       <use xlink:href="#m882b00b46d" x="963.916805" y="1281.6" style="stroke: #000000; stroke-width: 0.8"/>
      </g>
     </g>
     <g id="text_16">
      <!-- 100 -->
      <g transform="translate(954.373055 1296.198437) scale(0.1 -0.1)">
       <use xlink:href="#DejaVuSans-31"/>
       <use xlink:href="#DejaVuSans-30" x="63.623047"/>
       <use xlink:href="#DejaVuSans-30" x="127.246094"/>
      </g>
     </g>
    </g>
    <g id="xtick_9">
     <g id="line2d_18">
      <g>
       <use xlink:href="#m882b00b46d" x="1045.445691" y="1281.6" style="stroke: #000000; stroke-width: 0.8"/>
      </g>
     </g>
     <g id="text_17">
      <!-- 200 -->
      <g transform="translate(1035.901941 1296.198437) scale(0.1 -0.1)">
       <use xlink:href="#DejaVuSans-32"/>
       <use xlink:href="#DejaVuSans-30" x="63.623047"/>
       <use xlink:href="#DejaVuSans-30" x="127.246094"/>
      </g>
     </g>
    </g>
    <g id="xtick_10">
     <g id="line2d_19">
      <g>
       <use xlink:href="#m882b00b46d" x="1126.974577" y="1281.6" style="stroke: #000000; stroke-width: 0.8"/>
      </g>
     </g>
     <g id="text_18">
      <!-- 300 -->
      <g transform="translate(1117.430827 1296.198437) scale(0.1 -0.1)">
       <use xlink:href="#DejaVuSans-33"/>
       <use xlink:href="#DejaVuSans-30" x="63.623047"/>
       <use xlink:href="#DejaVuSans-30" x="127.246094"/>
      </g>
     </g>
    </g>
    <g id="xtick_11">
     <g id="line2d_20">
      <g>
       <use xlink:href="#m882b00b46d" x="1208.503463" y="1281.6" style="stroke: #000000; stroke-width: 0.8"/>
      </g>
     </g>
     <g id="text_19">
      <!-- 400 -->
      <g transform="translate(1198.959713 1296.198437) scale(0.1 -0.1)">
       <use xlink:href="#DejaVuSans-34"/>
       <use xlink:href="#DejaVuSans-30" x="63.623047"/>
       <use xlink:href="#DejaVuSans-30" x="127.246094"/>
      </g>
     </g>
    </g>
    <g id="xtick_12">
     <g id="line2d_21">
      <g>
       <use xlink:href="#m882b00b46d" x="1290.032349" y="1281.6" style="stroke: #000000; stroke-width: 0.8"/>
      </g>
     </g>
     <g id="text_20">
      <!-- 500 -->
      <g transform="translate(1280.488599 1296.198437) scale(0.1 -0.1)">
       <use xlink:href="#DejaVuSans-35"/>
       <use xlink:href="#DejaVuSans-30" x="63.623047"/>
       <use xlink:href="#DejaVuSans-30" x="127.246094"/>
      </g>
     </g>
    </g>
   </g>
   <g id="matplotlib.axis_4">
    <g id="ytick_8">
     <g id="line2d_22">
      <g>
       <use xlink:href="#m9892976238" x="860.823529" y="1231.2" style="stroke: #000000; stroke-width: 0.8"/>
      </g>
     </g>
     <g id="text_21">
      <!-- 0 -->
      <g transform="translate(847.461029 1234.999219) scale(0.1 -0.1)">
       <use xlink:href="#DejaVuSans-30"/>
      </g>
     </g>
    </g>
    <g id="ytick_9">
     <g id="line2d_23">
      <g>
       <use xlink:href="#m9892976238" x="860.823529" y="1058.575684" style="stroke: #000000; stroke-width: 0.8"/>
      </g>
     </g>
     <g id="text_22">
      <!-- 10 -->
      <g transform="translate(841.098529 1062.374903) scale(0.1 -0.1)">
       <use xlink:href="#DejaVuSans-31"/>
       <use xlink:href="#DejaVuSans-30" x="63.623047"/>
      </g>
     </g>
    </g>
    <g id="ytick_10">
     <g id="line2d_24">
      <g>
       <use xlink:href="#m9892976238" x="860.823529" y="885.951368" style="stroke: #000000; stroke-width: 0.8"/>
      </g>
     </g>
     <g id="text_23">
      <!-- 20 -->
      <g transform="translate(841.098529 889.750586) scale(0.1 -0.1)">
       <use xlink:href="#DejaVuSans-32"/>
       <use xlink:href="#DejaVuSans-30" x="63.623047"/>
      </g>
     </g>
    </g>
    <g id="ytick_11">
     <g id="line2d_25">
      <g>
       <use xlink:href="#m9892976238" x="860.823529" y="713.327051" style="stroke: #000000; stroke-width: 0.8"/>
      </g>
     </g>
     <g id="text_24">
      <!-- 30 -->
      <g transform="translate(841.098529 717.12627) scale(0.1 -0.1)">
       <use xlink:href="#DejaVuSans-33"/>
       <use xlink:href="#DejaVuSans-30" x="63.623047"/>
      </g>
     </g>
    </g>
    <g id="ytick_12">
     <g id="line2d_26">
      <g>
       <use xlink:href="#m9892976238" x="860.823529" y="540.702735" style="stroke: #000000; stroke-width: 0.8"/>
      </g>
     </g>
     <g id="text_25">
      <!-- 40 -->
      <g transform="translate(841.098529 544.501954) scale(0.1 -0.1)">
       <use xlink:href="#DejaVuSans-34"/>
       <use xlink:href="#DejaVuSans-30" x="63.623047"/>
      </g>
     </g>
    </g>
    <g id="ytick_13">
     <g id="line2d_27">
      <g>
       <use xlink:href="#m9892976238" x="860.823529" y="368.078419" style="stroke: #000000; stroke-width: 0.8"/>
      </g>
     </g>
     <g id="text_26">
      <!-- 50 -->
      <g transform="translate(841.098529 371.877638) scale(0.1 -0.1)">
       <use xlink:href="#DejaVuSans-35"/>
       <use xlink:href="#DejaVuSans-30" x="63.623047"/>
      </g>
     </g>
    </g>
    <g id="ytick_14">
     <g id="line2d_28">
      <g>
       <use xlink:href="#m9892976238" x="860.823529" y="195.454103" style="stroke: #000000; stroke-width: 0.8"/>
      </g>
     </g>
     <g id="text_27">
      <!-- 60 -->
      <g transform="translate(841.098529 199.253321) scale(0.1 -0.1)">
       <use xlink:href="#DejaVuSans-36"/>
       <use xlink:href="#DejaVuSans-30" x="63.623047"/>
      </g>
     </g>
    </g>
   </g>
   <g id="line2d_29">
    <path d="M 883.203209 1231.2 
L 917.445341 1231.2 
L 918.260629 1231.072376 
L 920.706496 1231.072376 
L 921.521785 1224.117696 
L 923.967651 1224.117696 
L 924.78294 1226.84341 
L 927.228807 1226.84341 
L 928.044096 1225.222428 
L 930.489962 1225.222428 
L 931.305251 1228.417987 
L 933.751118 1228.417987 
L 934.566407 1214.061038 
L 937.012273 1214.061038 
L 937.827562 1192.29802 
L 940.273429 1192.29802 
L 941.088717 1181.471377 
L 943.534584 1181.471377 
L 944.349873 1152.953032 
L 946.795739 1152.953032 
L 947.611028 1126.669962 
L 963.101517 1126.669962 
L 963.916805 1115.262692 
L 972.884983 1115.262692 
L 973.700272 1103.096633 
L 982.668449 1103.096633 
L 983.483738 1086.520589 
L 985.929605 1086.520589 
L 986.744893 1081.866169 
L 989.19076 1081.866169 
L 990.006049 1076.744533 
L 995.713071 1076.744533 
L 996.52836 1045.306433 
L 998.974226 1045.306433 
L 999.789515 995.867392 
L 1002.235382 995.867392 
L 1003.050671 982.697302 
L 1005.496537 982.697302 
L 1006.311826 957.336143 
L 1008.757693 957.336143 
L 1009.572982 895.943389 
L 1012.018848 895.943389 
L 1012.834137 853.213935 
L 1047.891558 853.213935 
L 1048.706847 840.614785 
L 1057.675024 840.614785 
L 1058.490313 828.200793 
L 1060.93618 828.200793 
L 1061.751468 815.657008 
L 1064.197335 815.657008 
L 1065.012624 802.986758 
L 1070.719646 802.986758 
L 1071.534935 798.514758 
L 1083.764268 798.514758 
L 1084.579556 793.922576 
L 1087.025423 793.922576 
L 1087.840712 763.43865 
L 1090.286578 763.43865 
L 1091.101867 740.158604 
L 1093.547734 740.158604 
L 1094.363023 688.565285 
L 1096.808889 688.565285 
L 1097.624178 643.177362 
L 1100.070045 643.177362 
L 1100.885334 607.40295 
L 1103.3312 607.40295 
L 1104.146489 563.410735 
L 1106.592356 563.410735 
L 1107.407644 509.98007 
L 1109.853511 509.98007 
L 1110.6688 486.084454 
L 1113.114666 486.084454 
L 1113.929955 452.990485 
L 1122.898133 452.990485 
L 1123.713422 445.519215 
L 1126.159288 445.519215 
L 1126.974577 430.070249 
L 1129.420444 430.070249 
L 1130.235732 440.731824 
L 1132.681599 440.731824 
L 1133.496888 445.802843 
L 1135.942754 445.802843 
L 1136.758043 456.336973 
L 1139.20391 456.336973 
L 1140.019199 461.77444 
L 1142.465065 461.77444 
L 1143.280354 466.715383 
L 1145.726221 466.715383 
L 1146.54151 451.493493 
L 1152.248532 451.493493 
L 1153.06382 441.142279 
L 1155.509687 441.142279 
L 1156.324976 436.373377 
L 1158.770842 436.373377 
L 1159.586131 421.418926 
L 1162.031998 421.418926 
L 1162.847287 391.919758 
L 1165.293153 391.919758 
L 1166.108442 377.795737 
L 1168.554309 377.795737 
L 1169.369598 365.51677 
L 1171.815464 365.51677 
L 1172.630753 357.567487 
L 1175.07662 357.567487 
L 1175.891908 344.510867 
L 1178.337775 344.510867 
L 1179.153064 357.438539 
L 1181.59893 357.438539 
L 1182.414219 386.399566 
L 1184.860086 386.399566 
L 1185.675375 377.321926 
L 1188.121241 377.321926 
L 1188.93653 352.41615 
L 1191.382397 352.41615 
L 1192.197686 331.284392 
L 1194.643552 331.284392 
L 1195.458841 334.335967 
L 1197.904708 334.335967 
L 1198.719996 314.266733 
L 1201.165863 314.266733 
L 1201.981152 297.020671 
L 1204.427018 297.020671 
L 1205.242307 294.225296 
L 1210.949329 294.123086 
L 1211.764618 296.836837 
L 1214.210485 296.836837 
L 1215.025774 291.526543 
L 1217.47164 291.526543 
L 1218.286929 274.949965 
L 1220.732796 274.949965 
L 1221.548085 277.439184 
L 1223.993951 277.439184 
L 1224.80924 271.799599 
L 1227.255107 271.799599 
L 1228.070395 255.648134 
L 1230.516262 255.648134 
L 1231.331551 245.273029 
L 1233.777417 245.273029 
L 1234.592706 234.981465 
L 1237.038573 234.981465 
L 1237.853862 229.377631 
L 1240.299728 229.377631 
L 1241.115017 226.05057 
L 1246.822039 226.05057 
L 1247.637328 246.172949 
L 1250.083195 246.172949 
L 1250.898483 256.084145 
L 1253.34435 256.084145 
L 1254.159639 252.557978 
L 1256.605505 252.557978 
L 1257.420794 260.124715 
L 1259.866661 260.124715 
L 1260.68195 261.99928 
L 1263.127816 261.99928 
L 1263.943105 282.512573 
L 1266.388972 282.512573 
L 1267.204261 286.429101 
L 1269.650127 286.429101 
L 1270.465416 302.819546 
L 1272.911283 302.819546 
L 1273.726571 302.020073 
L 1276.172438 302.020073 
L 1276.987727 286.053021 
L 1279.433593 286.053021 
L 1280.248882 275.834237 
L 1282.694749 275.834237 
L 1283.510038 274.323482 
L 1285.955904 274.323482 
L 1286.771193 265.755762 
L 1289.21706 265.755762 
L 1290.032349 251.627314 
L 1292.478215 251.627314 
L 1293.293504 257.286359 
L 1295.739371 257.286359 
L 1296.554659 262.936001 
L 1299.000526 262.936001 
L 1299.815815 261.590592 
L 1302.261681 261.590592 
L 1303.07697 255.92205 
L 1305.522837 255.92205 
L 1306.338126 240.714518 
L 1308.783992 240.714518 
L 1309.599281 231.278577 
L 1315.306303 231.278577 
L 1316.121592 223.2 
L 1318.567459 223.2 
L 1319.382747 232.346307 
L 1321.828614 232.346307 
L 1322.643903 248.061213 
L 1325.089769 248.061213 
L 1325.905058 252.710858 
L 1328.350925 252.710858 
L 1329.166214 251.770026 
L 1330.796791 251.770026 
L 1330.796791 251.770026 
" clip-path="url(#p1ff3c5b7f2)" style="fill: none; stroke: #0000ff; stroke-width: 1.5; stroke-linecap: square"/>
   </g>
   <g id="patch_9">
    <path d="M 860.823529 1281.6 
L 860.823529 172.8 
" style="fill: none; stroke: #000000; stroke-width: 0.8; stroke-linejoin: miter; stroke-linecap: square"/>
   </g>
   <g id="patch_10">
    <path d="M 1353.176471 1281.6 
L 1353.176471 172.8 
" style="fill: none; stroke: #000000; stroke-width: 0.8; stroke-linejoin: miter; stroke-linecap: square"/>
   </g>
   <g id="patch_11">
    <path d="M 860.823529 1281.6 
L 1353.176471 1281.6 
" style="fill: none; stroke: #000000; stroke-width: 0.8; stroke-linejoin: miter; stroke-linecap: square"/>
   </g>
   <g id="patch_12">
    <path d="M 860.823529 172.8 
L 1353.176471 172.8 
" style="fill: none; stroke: #000000; stroke-width: 0.8; stroke-linejoin: miter; stroke-linecap: square"/>
   </g>
   <g id="legend_2">
    <g id="patch_13">
     <path d="M 1262.134283 195.478125 
L 1346.176471 195.478125 
Q 1348.176471 195.478125 1348.176471 193.478125 
L 1348.176471 179.8 
Q 1348.176471 177.8 1346.176471 177.8 
L 1262.134283 177.8 
Q 1260.134283 177.8 1260.134283 179.8 
L 1260.134283 193.478125 
Q 1260.134283 195.478125 1262.134283 195.478125 
z
" style="fill: #ffffff; opacity: 0.8; stroke: #cccccc; stroke-linejoin: miter"/>
    </g>
    <g id="line2d_30">
     <path d="M 1264.134283 185.898437 
L 1274.134283 185.898437 
L 1284.134283 185.898437 
" style="fill: none; stroke: #0000ff; stroke-width: 1.5; stroke-linecap: square"/>
    </g>
    <g id="text_28">
     <!-- O2 reward -->
     <g transform="translate(1292.134283 189.398437) scale(0.1 -0.1)">
      <use xlink:href="#DejaVuSans-4f"/>
      <use xlink:href="#DejaVuSans-32" x="78.710938"/>
      <use xlink:href="#DejaVuSans-20" x="142.333984"/>
      <use xlink:href="#DejaVuSans-72" x="174.121094"/>
      <use xlink:href="#DejaVuSans-65" x="212.984375"/>
      <use xlink:href="#DejaVuSans-77" x="274.507812"/>
      <use xlink:href="#DejaVuSans-61" x="356.294922"/>
      <use xlink:href="#DejaVuSans-72" x="417.574219"/>
      <use xlink:href="#DejaVuSans-64" x="456.9375"/>
     </g>
    </g>
   </g>
  </g>
  <g id="axes_3">
   <g id="patch_14">
    <path d="M 1451.647059 1281.6 
L 1944 1281.6 
L 1944 172.8 
L 1451.647059 172.8 
z
" style="fill: #ffffff"/>
   </g>
   <g id="matplotlib.axis_5">
    <g id="xtick_13">
     <g id="line2d_31">
      <g>
       <use xlink:href="#m882b00b46d" x="1473.211449" y="1281.6" style="stroke: #000000; stroke-width: 0.8"/>
      </g>
     </g>
     <g id="text_29">
      <!-- 0 -->
      <g transform="translate(1470.030199 1296.198437) scale(0.1 -0.1)">
       <use xlink:href="#DejaVuSans-30"/>
      </g>
     </g>
    </g>
    <g id="xtick_14">
     <g id="line2d_32">
      <g>
       <use xlink:href="#m882b00b46d" x="1554.740335" y="1281.6" style="stroke: #000000; stroke-width: 0.8"/>
      </g>
     </g>
     <g id="text_30">
      <!-- 100 -->
      <g transform="translate(1545.196585 1296.198437) scale(0.1 -0.1)">
       <use xlink:href="#DejaVuSans-31"/>
       <use xlink:href="#DejaVuSans-30" x="63.623047"/>
       <use xlink:href="#DejaVuSans-30" x="127.246094"/>
      </g>
     </g>
    </g>
    <g id="xtick_15">
     <g id="line2d_33">
      <g>
       <use xlink:href="#m882b00b46d" x="1636.269221" y="1281.6" style="stroke: #000000; stroke-width: 0.8"/>
      </g>
     </g>
     <g id="text_31">
      <!-- 200 -->
      <g transform="translate(1626.725471 1296.198437) scale(0.1 -0.1)">
       <use xlink:href="#DejaVuSans-32"/>
       <use xlink:href="#DejaVuSans-30" x="63.623047"/>
       <use xlink:href="#DejaVuSans-30" x="127.246094"/>
      </g>
     </g>
    </g>
    <g id="xtick_16">
     <g id="line2d_34">
      <g>
       <use xlink:href="#m882b00b46d" x="1717.798106" y="1281.6" style="stroke: #000000; stroke-width: 0.8"/>
      </g>
     </g>
     <g id="text_32">
      <!-- 300 -->
      <g transform="translate(1708.254356 1296.198437) scale(0.1 -0.1)">
       <use xlink:href="#DejaVuSans-33"/>
       <use xlink:href="#DejaVuSans-30" x="63.623047"/>
       <use xlink:href="#DejaVuSans-30" x="127.246094"/>
      </g>
     </g>
    </g>
    <g id="xtick_17">
     <g id="line2d_35">
      <g>
       <use xlink:href="#m882b00b46d" x="1799.326992" y="1281.6" style="stroke: #000000; stroke-width: 0.8"/>
      </g>
     </g>
     <g id="text_33">
      <!-- 400 -->
      <g transform="translate(1789.783242 1296.198437) scale(0.1 -0.1)">
       <use xlink:href="#DejaVuSans-34"/>
       <use xlink:href="#DejaVuSans-30" x="63.623047"/>
       <use xlink:href="#DejaVuSans-30" x="127.246094"/>
      </g>
     </g>
    </g>
    <g id="xtick_18">
     <g id="line2d_36">
      <g>
       <use xlink:href="#m882b00b46d" x="1880.855878" y="1281.6" style="stroke: #000000; stroke-width: 0.8"/>
      </g>
     </g>
     <g id="text_34">
      <!-- 500 -->
      <g transform="translate(1871.312128 1296.198437) scale(0.1 -0.1)">
       <use xlink:href="#DejaVuSans-35"/>
       <use xlink:href="#DejaVuSans-30" x="63.623047"/>
       <use xlink:href="#DejaVuSans-30" x="127.246094"/>
      </g>
     </g>
    </g>
   </g>
   <g id="matplotlib.axis_6">
    <g id="ytick_15">
     <g id="line2d_37">
      <g>
       <use xlink:href="#m9892976238" x="1451.647059" y="1231.2" style="stroke: #000000; stroke-width: 0.8"/>
      </g>
     </g>
     <g id="text_35">
      <!-- 0 -->
      <g transform="translate(1438.284559 1234.999219) scale(0.1 -0.1)">
       <use xlink:href="#DejaVuSans-30"/>
      </g>
     </g>
    </g>
    <g id="ytick_16">
     <g id="line2d_38">
      <g>
       <use xlink:href="#m9892976238" x="1451.647059" y="1093.630617" style="stroke: #000000; stroke-width: 0.8"/>
      </g>
     </g>
     <g id="text_36">
      <!-- 2 -->
      <g transform="translate(1438.284559 1097.429836) scale(0.1 -0.1)">
       <use xlink:href="#DejaVuSans-32"/>
      </g>
     </g>
    </g>
    <g id="ytick_17">
     <g id="line2d_39">
      <g>
       <use xlink:href="#m9892976238" x="1451.647059" y="956.061235" style="stroke: #000000; stroke-width: 0.8"/>
      </g>
     </g>
     <g id="text_37">
      <!-- 4 -->
      <g transform="translate(1438.284559 959.860454) scale(0.1 -0.1)">
       <use xlink:href="#DejaVuSans-34"/>
      </g>
     </g>
    </g>
    <g id="ytick_18">
     <g id="line2d_40">
      <g>
       <use xlink:href="#m9892976238" x="1451.647059" y="818.491852" style="stroke: #000000; stroke-width: 0.8"/>
      </g>
     </g>
     <g id="text_38">
      <!-- 6 -->
      <g transform="translate(1438.284559 822.291071) scale(0.1 -0.1)">
       <use xlink:href="#DejaVuSans-36"/>
      </g>
     </g>
    </g>
    <g id="ytick_19">
     <g id="line2d_41">
      <g>
       <use xlink:href="#m9892976238" x="1451.647059" y="680.92247" style="stroke: #000000; stroke-width: 0.8"/>
      </g>
     </g>
     <g id="text_39">
      <!-- 8 -->
      <g transform="translate(1438.284559 684.721688) scale(0.1 -0.1)">
       <defs>
        <path id="DejaVuSans-38" d="M 2034 2216 
Q 1584 2216 1326 1975 
Q 1069 1734 1069 1313 
Q 1069 891 1326 650 
Q 1584 409 2034 409 
Q 2484 409 2743 651 
Q 3003 894 3003 1313 
Q 3003 1734 2745 1975 
Q 2488 2216 2034 2216 
z
M 1403 2484 
Q 997 2584 770 2862 
Q 544 3141 544 3541 
Q 544 4100 942 4425 
Q 1341 4750 2034 4750 
Q 2731 4750 3128 4425 
Q 3525 4100 3525 3541 
Q 3525 3141 3298 2862 
Q 3072 2584 2669 2484 
Q 3125 2378 3379 2068 
Q 3634 1759 3634 1313 
Q 3634 634 3220 271 
Q 2806 -91 2034 -91 
Q 1263 -91 848 271 
Q 434 634 434 1313 
Q 434 1759 690 2068 
Q 947 2378 1403 2484 
z
M 1172 3481 
Q 1172 3119 1398 2916 
Q 1625 2713 2034 2713 
Q 2441 2713 2670 2916 
Q 2900 3119 2900 3481 
Q 2900 3844 2670 4047 
Q 2441 4250 2034 4250 
Q 1625 4250 1398 4047 
Q 1172 3844 1172 3481 
z
" transform="scale(0.015625)"/>
       </defs>
       <use xlink:href="#DejaVuSans-38"/>
      </g>
     </g>
    </g>
    <g id="ytick_20">
     <g id="line2d_42">
      <g>
       <use xlink:href="#m9892976238" x="1451.647059" y="543.353087" style="stroke: #000000; stroke-width: 0.8"/>
      </g>
     </g>
     <g id="text_40">
      <!-- 10 -->
      <g transform="translate(1431.922059 547.152306) scale(0.1 -0.1)">
       <use xlink:href="#DejaVuSans-31"/>
       <use xlink:href="#DejaVuSans-30" x="63.623047"/>
      </g>
     </g>
    </g>
    <g id="ytick_21">
     <g id="line2d_43">
      <g>
       <use xlink:href="#m9892976238" x="1451.647059" y="405.783704" style="stroke: #000000; stroke-width: 0.8"/>
      </g>
     </g>
     <g id="text_41">
      <!-- 12 -->
      <g transform="translate(1431.922059 409.582923) scale(0.1 -0.1)">
       <use xlink:href="#DejaVuSans-31"/>
       <use xlink:href="#DejaVuSans-32" x="63.623047"/>
      </g>
     </g>
    </g>
    <g id="ytick_22">
     <g id="line2d_44">
      <g>
       <use xlink:href="#m9892976238" x="1451.647059" y="268.214322" style="stroke: #000000; stroke-width: 0.8"/>
      </g>
     </g>
     <g id="text_42">
      <!-- 14 -->
      <g transform="translate(1431.922059 272.01354) scale(0.1 -0.1)">
       <use xlink:href="#DejaVuSans-31"/>
       <use xlink:href="#DejaVuSans-34" x="63.623047"/>
      </g>
     </g>
    </g>
   </g>
   <g id="line2d_45">
    <path d="M 1474.026738 1231.2 
L 1508.26887 1231.2 
L 1509.084159 1204.373779 
L 1511.530025 1204.373779 
L 1512.345314 1182.937703 
L 1514.791181 1182.937703 
L 1515.60647 1164.704301 
L 1518.052336 1164.704301 
L 1518.867625 1137.681743 
L 1521.313492 1137.681743 
L 1522.128781 1128.594819 
L 1524.574647 1128.594819 
L 1525.389936 1093.218181 
L 1527.835803 1093.218181 
L 1528.651091 1103.496513 
L 1531.096958 1103.496513 
L 1531.912247 1083.363674 
L 1534.358113 1083.363674 
L 1535.173402 1063.513028 
L 1537.619269 1063.513028 
L 1538.434558 1050.047369 
L 1540.880424 1050.047369 
L 1541.695713 1027.24145 
L 1544.14158 1027.24145 
L 1544.956869 1005.833773 
L 1547.402735 1005.833773 
L 1548.218024 992.567991 
L 1553.925046 992.567991 
L 1554.740335 986.728511 
L 1557.186201 986.728511 
L 1558.00149 973.941613 
L 1560.447357 973.941613 
L 1561.262646 966.820497 
L 1566.969668 966.820497 
L 1567.784957 961.504493 
L 1570.230823 961.504493 
L 1571.046112 949.858408 
L 1576.753134 949.858408 
L 1577.568423 944.979827 
L 1580.014289 944.979827 
L 1580.829578 924.413399 
L 1583.275445 924.413399 
L 1584.090734 895.554715 
L 1586.5366 895.554715 
L 1587.351889 875.337388 
L 1589.797756 875.337388 
L 1590.613045 861.884404 
L 1593.058911 861.884404 
L 1593.8742 824.357534 
L 1596.320067 824.357534 
L 1597.135355 805.68708 
L 1599.581222 805.68708 
L 1600.396511 799.825887 
L 1602.842377 799.825887 
L 1603.657666 781.54585 
L 1606.103533 781.54585 
L 1606.918822 769.371261 
L 1609.364688 769.371261 
L 1610.179977 758.982409 
L 1612.625844 758.982409 
L 1613.441133 740.82136 
L 1615.886999 740.82136 
L 1616.702288 733.420964 
L 1619.148155 733.420964 
L 1619.963443 716.876012 
L 1622.40931 716.876012 
L 1623.224599 716.757504 
L 1625.670466 716.757504 
L 1626.485754 721.436759 
L 1628.931621 721.436759 
L 1629.74691 724.33544 
L 1632.192776 724.33544 
L 1633.008065 717.546892 
L 1635.453932 717.546892 
L 1636.269221 720.395457 
L 1638.715087 720.395457 
L 1639.530376 716.406975 
L 1641.976243 716.406975 
L 1642.791532 720.885713 
L 1645.237398 720.885713 
L 1646.052687 716.685615 
L 1651.759709 716.685615 
L 1652.574998 712.40539 
L 1655.020864 712.40539 
L 1655.836153 699.770462 
L 1658.28202 699.770462 
L 1659.097309 688.813124 
L 1661.543175 688.813124 
L 1662.358464 695.498081 
L 1664.804331 695.498081 
L 1665.61962 698.174816 
L 1674.587797 698.174816 
L 1675.403086 685.707106 
L 1677.848952 685.707106 
L 1678.664241 662.250599 
L 1681.110108 662.250599 
L 1681.925397 650.875746 
L 1684.371263 650.875746 
L 1685.186552 642.839781 
L 1687.632419 642.839781 
L 1688.447708 637.571747 
L 1690.893574 637.571747 
L 1691.708863 624.991036 
L 1694.15473 624.991036 
L 1694.970018 616.550424 
L 1697.415885 616.550424 
L 1698.231174 609.999688 
L 1700.67704 609.999688 
L 1701.492329 596.590236 
L 1703.938196 596.590236 
L 1704.753485 588.649239 
L 1707.199351 588.649239 
L 1708.01464 577.693562 
L 1710.460507 577.693562 
L 1711.275796 574.684821 
L 1713.721662 574.684821 
L 1714.536951 562.326947 
L 1716.982818 562.326947 
L 1717.798106 552.087397 
L 1720.243973 552.087397 
L 1721.059262 542.028462 
L 1723.505128 542.028462 
L 1724.320417 532.369891 
L 1730.027439 532.369891 
L 1730.842728 525.655195 
L 1733.288595 525.655195 
L 1734.103884 519.825133 
L 1736.54975 519.825133 
L 1737.365039 522.558616 
L 1739.810906 522.558616 
L 1740.626194 517.395235 
L 1743.072061 517.395235 
L 1743.88735 508.422955 
L 1746.333216 508.422955 
L 1747.148505 501.984979 
L 1749.594372 501.984979 
L 1750.409661 495.493308 
L 1752.855527 495.493308 
L 1753.670816 486.901567 
L 1756.116683 486.901567 
L 1756.931972 468.602596 
L 1759.377838 468.602596 
L 1760.193127 466.555439 
L 1762.638994 466.555439 
L 1763.454282 463.692046 
L 1765.900149 463.692046 
L 1766.715438 452.453743 
L 1769.161304 452.453743 
L 1769.976593 444.41531 
L 1772.42246 444.41531 
L 1773.237749 438.874997 
L 1775.683615 438.874997 
L 1776.498904 428.921811 
L 1778.944771 428.921811 
L 1779.76006 417.580462 
L 1782.205926 417.580462 
L 1783.021215 411.549027 
L 1785.467082 411.549027 
L 1786.28237 410.44173 
L 1788.728237 410.44173 
L 1789.543526 407.229008 
L 1791.989392 407.229008 
L 1792.804681 402.91245 
L 1795.250548 402.91245 
L 1796.065837 396.59287 
L 1798.511703 396.59287 
L 1799.326992 394.529062 
L 1801.772859 394.529062 
L 1802.588148 385.623453 
L 1805.034014 385.623453 
L 1805.849303 382.57672 
L 1808.29517 382.57672 
L 1809.110458 377.952055 
L 1811.556325 377.952055 
L 1812.371614 373.3512 
L 1814.81748 373.3512 
L 1815.632769 368.268395 
L 1821.339791 368.268395 
L 1822.15508 365.252772 
L 1824.600947 365.252772 
L 1825.416236 363.744054 
L 1827.862102 363.744054 
L 1828.677391 357.253641 
L 1834.384413 357.253641 
L 1835.199702 358.748785 
L 1837.645569 358.748785 
L 1838.460857 359.253355 
L 1840.906724 359.253355 
L 1841.722013 356.374684 
L 1844.167879 356.374684 
L 1844.983168 347.113036 
L 1847.429035 347.113036 
L 1848.244324 343.384986 
L 1850.69019 343.384986 
L 1851.505479 344.246444 
L 1853.951346 344.246444 
L 1854.766635 335.173891 
L 1857.212501 335.173891 
L 1858.02779 327.775602 
L 1860.473657 327.775602 
L 1861.288945 326.574819 
L 1863.734812 326.574819 
L 1864.550101 323.115072 
L 1866.995967 323.115072 
L 1867.811256 318.200089 
L 1870.257123 318.200089 
L 1871.072412 317.442959 
L 1873.518278 317.442959 
L 1874.333567 312.269678 
L 1876.779434 312.269678 
L 1877.594723 308.231688 
L 1880.040589 308.231688 
L 1880.855878 301.605408 
L 1883.301745 301.605408 
L 1884.117033 297.684042 
L 1886.5629 297.684042 
L 1887.378189 292.451023 
L 1889.824055 292.451023 
L 1890.639344 287.646938 
L 1893.085211 287.646938 
L 1893.9005 283.877615 
L 1896.346366 283.877615 
L 1897.161655 283.239446 
L 1899.607522 283.239446 
L 1900.422811 278.565786 
L 1902.868677 278.565786 
L 1903.683966 272.0886 
L 1906.129833 272.0886 
L 1906.945121 266.429183 
L 1909.390988 266.429183 
L 1910.206277 258.625344 
L 1912.652143 258.625344 
L 1913.467432 251.56924 
L 1915.913299 251.56924 
L 1916.728588 234.939102 
L 1919.174454 234.939102 
L 1919.989743 223.2 
L 1921.620321 223.2 
L 1921.620321 223.2 
" clip-path="url(#pc6375f38bc)" style="fill: none; stroke: #0000ff; stroke-width: 1.5; stroke-linecap: square"/>
   </g>
   <g id="patch_15">
    <path d="M 1451.647059 1281.6 
L 1451.647059 172.8 
" style="fill: none; stroke: #000000; stroke-width: 0.8; stroke-linejoin: miter; stroke-linecap: square"/>
   </g>
   <g id="patch_16">
    <path d="M 1944 1281.6 
L 1944 172.8 
" style="fill: none; stroke: #000000; stroke-width: 0.8; stroke-linejoin: miter; stroke-linecap: square"/>
   </g>
   <g id="patch_17">
    <path d="M 1451.647059 1281.6 
L 1944 1281.6 
" style="fill: none; stroke: #000000; stroke-width: 0.8; stroke-linejoin: miter; stroke-linecap: square"/>
   </g>
   <g id="patch_18">
    <path d="M 1451.647059 172.8 
L 1944 172.8 
" style="fill: none; stroke: #000000; stroke-width: 0.8; stroke-linejoin: miter; stroke-linecap: square"/>
   </g>
   <g id="legend_3">
    <g id="patch_19">
     <path d="M 1852.957813 195.478125 
L 1937 195.478125 
Q 1939 195.478125 1939 193.478125 
L 1939 179.8 
Q 1939 177.8 1937 177.8 
L 1852.957813 177.8 
Q 1850.957813 177.8 1850.957813 179.8 
L 1850.957813 193.478125 
Q 1850.957813 195.478125 1852.957813 195.478125 
z
" style="fill: #ffffff; opacity: 0.8; stroke: #cccccc; stroke-linejoin: miter"/>
    </g>
    <g id="line2d_46">
     <path d="M 1854.957813 185.898437 
L 1864.957813 185.898437 
L 1874.957813 185.898437 
" style="fill: none; stroke: #0000ff; stroke-width: 1.5; stroke-linecap: square"/>
    </g>
    <g id="text_43">
     <!-- O3 reward -->
     <g transform="translate(1882.957813 189.398437) scale(0.1 -0.1)">
      <use xlink:href="#DejaVuSans-4f"/>
      <use xlink:href="#DejaVuSans-33" x="78.710938"/>
      <use xlink:href="#DejaVuSans-20" x="142.333984"/>
      <use xlink:href="#DejaVuSans-72" x="174.121094"/>
      <use xlink:href="#DejaVuSans-65" x="212.984375"/>
      <use xlink:href="#DejaVuSans-77" x="274.507812"/>
      <use xlink:href="#DejaVuSans-61" x="356.294922"/>
      <use xlink:href="#DejaVuSans-72" x="417.574219"/>
      <use xlink:href="#DejaVuSans-64" x="456.9375"/>
     </g>
    </g>
   </g>
  </g>
 </g>
 <defs>
  <clipPath id="p804f7750f9">
   <rect x="270" y="172.8" width="492.352941" height="1108.8"/>
  </clipPath>
  <clipPath id="p1ff3c5b7f2">
   <rect x="860.823529" y="172.8" width="492.352941" height="1108.8"/>
  </clipPath>
  <clipPath id="pc6375f38bc">
   <rect x="1451.647059" y="172.8" width="492.352941" height="1108.8"/>
  </clipPath>
 </defs>
</svg>
