<?xml version="1.0" encoding="utf-8" standalone="no"?>
<!DOCTYPE svg PUBLIC "-//W3C//DTD SVG 1.1//EN"
  "http://www.w3.org/Graphics/SVG/1.1/DTD/svg11.dtd">
<svg xmlns:xlink="http://www.w3.org/1999/xlink" width="2160pt" height="1440pt" viewBox="0 0 2160 1440" xmlns="http://www.w3.org/2000/svg" version="1.1">
 <metadata>
  <rdf:RDF xmlns:dc="http://purl.org/dc/elements/1.1/" xmlns:cc="http://creativecommons.org/ns#" xmlns:rdf="http://www.w3.org/1999/02/22-rdf-syntax-ns#">
   <cc:Work>
    <dc:type rdf:resource="http://purl.org/dc/dcmitype/StillImage"/>
    <dc:date>2023-05-31T19:52:37.386950</dc:date>
    <dc:format>image/svg+xml</dc:format>
    <dc:creator>
     <cc:Agent>
      <dc:title>Matplotlib v3.7.1, https://matplotlib.org/</dc:title>
     </cc:Agent>
    </dc:creator>
   </cc:Work>
  </rdf:RDF>
 </metadata>
 <defs>
  <style type="text/css">*{stroke-linejoin: round; stroke-linecap: butt}</style>
 </defs>
 <g id="figure_1">
  <g id="patch_1">
   <path d="M 0 1440 
L 2160 1440 
L 2160 0 
L 0 0 
z
" style="fill: #ffffff"/>
  </g>
  <g id="axes_1">
   <g id="patch_2">
    <path d="M 270 1281.6 
L 762.352941 1281.6 
L 762.352941 172.8 
L 270 172.8 
z
" style="fill: #ffffff"/>
   </g>
   <g id="matplotlib.axis_1">
    <g id="xtick_1">
     <g id="line2d_1">
      <defs>
       <path id="m349aecd584" d="M 0 0 
L 0 3.5 
" style="stroke: #000000; stroke-width: 0.8"/>
      </defs>
      <g>
       <use xlink:href="#m349aecd584" x="292.109882" y="1281.6" style="stroke: #000000; stroke-width: 0.8"/>
      </g>
     </g>
     <g id="text_1">
      <!-- 0 -->
      <g transform="translate(288.928632 1296.198437) scale(0.1 -0.1)">
       <defs>
        <path id="DejaVuSans-30" d="M 2034 4250 
Q 1547 4250 1301 3770 
Q 1056 3291 1056 2328 
Q 1056 1369 1301 889 
Q 1547 409 2034 409 
Q 2525 409 2770 889 
Q 3016 1369 3016 2328 
Q 3016 3291 2770 3770 
Q 2525 4250 2034 4250 
z
M 2034 4750 
Q 2819 4750 3233 4129 
Q 3647 3509 3647 2328 
Q 3647 1150 3233 529 
Q 2819 -91 2034 -91 
Q 1250 -91 836 529 
Q 422 1150 422 2328 
Q 422 3509 836 4129 
Q 1250 4750 2034 4750 
z
" transform="scale(0.015625)"/>
       </defs>
       <use xlink:href="#DejaVuSans-30"/>
      </g>
     </g>
    </g>
    <g id="xtick_2">
     <g id="line2d_2">
      <g>
       <use xlink:href="#m349aecd584" x="359.559186" y="1281.6" style="stroke: #000000; stroke-width: 0.8"/>
      </g>
     </g>
     <g id="text_2">
      <!-- 250 -->
      <g transform="translate(350.015436 1296.198437) scale(0.1 -0.1)">
       <defs>
        <path id="DejaVuSans-32" d="M 1228 531 
L 3431 531 
L 3431 0 
L 469 0 
L 469 531 
Q 828 903 1448 1529 
Q 2069 2156 2228 2338 
Q 2531 2678 2651 2914 
Q 2772 3150 2772 3378 
Q 2772 3750 2511 3984 
Q 2250 4219 1831 4219 
Q 1534 4219 1204 4116 
Q 875 4013 500 3803 
L 500 4441 
Q 881 4594 1212 4672 
Q 1544 4750 1819 4750 
Q 2544 4750 2975 4387 
Q 3406 4025 3406 3419 
Q 3406 3131 3298 2873 
Q 3191 2616 2906 2266 
Q 2828 2175 2409 1742 
Q 1991 1309 1228 531 
z
" transform="scale(0.015625)"/>
        <path id="DejaVuSans-35" d="M 691 4666 
L 3169 4666 
L 3169 4134 
L 1269 4134 
L 1269 2991 
Q 1406 3038 1543 3061 
Q 1681 3084 1819 3084 
Q 2600 3084 3056 2656 
Q 3513 2228 3513 1497 
Q 3513 744 3044 326 
Q 2575 -91 1722 -91 
Q 1428 -91 1123 -41 
Q 819 9 494 109 
L 494 744 
Q 775 591 1075 516 
Q 1375 441 1709 441 
Q 2250 441 2565 725 
Q 2881 1009 2881 1497 
Q 2881 1984 2565 2268 
Q 2250 2553 1709 2553 
Q 1456 2553 1204 2497 
Q 953 2441 691 2322 
L 691 4666 
z
" transform="scale(0.015625)"/>
       </defs>
       <use xlink:href="#DejaVuSans-32"/>
       <use xlink:href="#DejaVuSans-35" x="63.623047"/>
       <use xlink:href="#DejaVuSans-30" x="127.246094"/>
      </g>
     </g>
    </g>
    <g id="xtick_3">
     <g id="line2d_3">
      <g>
       <use xlink:href="#m349aecd584" x="427.00849" y="1281.6" style="stroke: #000000; stroke-width: 0.8"/>
      </g>
     </g>
     <g id="text_3">
      <!-- 500 -->
      <g transform="translate(417.46474 1296.198437) scale(0.1 -0.1)">
       <use xlink:href="#DejaVuSans-35"/>
       <use xlink:href="#DejaVuSans-30" x="63.623047"/>
       <use xlink:href="#DejaVuSans-30" x="127.246094"/>
      </g>
     </g>
    </g>
    <g id="xtick_4">
     <g id="line2d_4">
      <g>
       <use xlink:href="#m349aecd584" x="494.457795" y="1281.6" style="stroke: #000000; stroke-width: 0.8"/>
      </g>
     </g>
     <g id="text_4">
      <!-- 750 -->
      <g transform="translate(484.914045 1296.198437) scale(0.1 -0.1)">
       <defs>
        <path id="DejaVuSans-37" d="M 525 4666 
L 3525 4666 
L 3525 4397 
L 1831 0 
L 1172 0 
L 2766 4134 
L 525 4134 
L 525 4666 
z
" transform="scale(0.015625)"/>
       </defs>
       <use xlink:href="#DejaVuSans-37"/>
       <use xlink:href="#DejaVuSans-35" x="63.623047"/>
       <use xlink:href="#DejaVuSans-30" x="127.246094"/>
      </g>
     </g>
    </g>
    <g id="xtick_5">
     <g id="line2d_5">
      <g>
       <use xlink:href="#m349aecd584" x="561.907099" y="1281.6" style="stroke: #000000; stroke-width: 0.8"/>
      </g>
     </g>
     <g id="text_5">
      <!-- 1000 -->
      <g transform="translate(549.182099 1296.198437) scale(0.1 -0.1)">
       <defs>
        <path id="DejaVuSans-31" d="M 794 531 
L 1825 531 
L 1825 4091 
L 703 3866 
L 703 4441 
L 1819 4666 
L 2450 4666 
L 2450 531 
L 3481 531 
L 3481 0 
L 794 0 
L 794 531 
z
" transform="scale(0.015625)"/>
       </defs>
       <use xlink:href="#DejaVuSans-31"/>
       <use xlink:href="#DejaVuSans-30" x="63.623047"/>
       <use xlink:href="#DejaVuSans-30" x="127.246094"/>
       <use xlink:href="#DejaVuSans-30" x="190.869141"/>
      </g>
     </g>
    </g>
    <g id="xtick_6">
     <g id="line2d_6">
      <g>
       <use xlink:href="#m349aecd584" x="629.356403" y="1281.6" style="stroke: #000000; stroke-width: 0.8"/>
      </g>
     </g>
     <g id="text_6">
      <!-- 1250 -->
      <g transform="translate(616.631403 1296.198437) scale(0.1 -0.1)">
       <use xlink:href="#DejaVuSans-31"/>
       <use xlink:href="#DejaVuSans-32" x="63.623047"/>
       <use xlink:href="#DejaVuSans-35" x="127.246094"/>
       <use xlink:href="#DejaVuSans-30" x="190.869141"/>
      </g>
     </g>
    </g>
    <g id="xtick_7">
     <g id="line2d_7">
      <g>
       <use xlink:href="#m349aecd584" x="696.805707" y="1281.6" style="stroke: #000000; stroke-width: 0.8"/>
      </g>
     </g>
     <g id="text_7">
      <!-- 1500 -->
      <g transform="translate(684.080707 1296.198437) scale(0.1 -0.1)">
       <use xlink:href="#DejaVuSans-31"/>
       <use xlink:href="#DejaVuSans-35" x="63.623047"/>
       <use xlink:href="#DejaVuSans-30" x="127.246094"/>
       <use xlink:href="#DejaVuSans-30" x="190.869141"/>
      </g>
     </g>
    </g>
   </g>
   <g id="matplotlib.axis_2">
    <g id="ytick_1">
     <g id="line2d_8">
      <defs>
       <path id="mfd1706532f" d="M 0 0 
L -3.5 0 
" style="stroke: #000000; stroke-width: 0.8"/>
      </defs>
      <g>
       <use xlink:href="#mfd1706532f" x="270" y="1121.523709" style="stroke: #000000; stroke-width: 0.8"/>
      </g>
     </g>
     <g id="text_8">
      <!-- −25 -->
      <g transform="translate(241.895312 1125.322928) scale(0.1 -0.1)">
       <defs>
        <path id="DejaVuSans-2212" d="M 678 2272 
L 4684 2272 
L 4684 1741 
L 678 1741 
L 678 2272 
z
" transform="scale(0.015625)"/>
       </defs>
       <use xlink:href="#DejaVuSans-2212"/>
       <use xlink:href="#DejaVuSans-32" x="83.789062"/>
       <use xlink:href="#DejaVuSans-35" x="147.412109"/>
      </g>
     </g>
    </g>
    <g id="ytick_2">
     <g id="line2d_9">
      <g>
       <use xlink:href="#mfd1706532f" x="270" y="943.284878" style="stroke: #000000; stroke-width: 0.8"/>
      </g>
     </g>
     <g id="text_9">
      <!-- −20 -->
      <g transform="translate(241.895312 947.084097) scale(0.1 -0.1)">
       <use xlink:href="#DejaVuSans-2212"/>
       <use xlink:href="#DejaVuSans-32" x="83.789062"/>
       <use xlink:href="#DejaVuSans-30" x="147.412109"/>
      </g>
     </g>
    </g>
    <g id="ytick_3">
     <g id="line2d_10">
      <g>
       <use xlink:href="#mfd1706532f" x="270" y="765.046047" style="stroke: #000000; stroke-width: 0.8"/>
      </g>
     </g>
     <g id="text_10">
      <!-- −15 -->
      <g transform="translate(241.895312 768.845265) scale(0.1 -0.1)">
       <use xlink:href="#DejaVuSans-2212"/>
       <use xlink:href="#DejaVuSans-31" x="83.789062"/>
       <use xlink:href="#DejaVuSans-35" x="147.412109"/>
      </g>
     </g>
    </g>
    <g id="ytick_4">
     <g id="line2d_11">
      <g>
       <use xlink:href="#mfd1706532f" x="270" y="586.807216" style="stroke: #000000; stroke-width: 0.8"/>
      </g>
     </g>
     <g id="text_11">
      <!-- −10 -->
      <g transform="translate(241.895312 590.606434) scale(0.1 -0.1)">
       <use xlink:href="#DejaVuSans-2212"/>
       <use xlink:href="#DejaVuSans-31" x="83.789062"/>
       <use xlink:href="#DejaVuSans-30" x="147.412109"/>
      </g>
     </g>
    </g>
    <g id="ytick_5">
     <g id="line2d_12">
      <g>
       <use xlink:href="#mfd1706532f" x="270" y="408.568384" style="stroke: #000000; stroke-width: 0.8"/>
      </g>
     </g>
     <g id="text_12">
      <!-- −5 -->
      <g transform="translate(248.257812 412.367603) scale(0.1 -0.1)">
       <use xlink:href="#DejaVuSans-2212"/>
       <use xlink:href="#DejaVuSans-35" x="83.789062"/>
      </g>
     </g>
    </g>
    <g id="ytick_6">
     <g id="line2d_13">
      <g>
       <use xlink:href="#mfd1706532f" x="270" y="230.329553" style="stroke: #000000; stroke-width: 0.8"/>
      </g>
     </g>
     <g id="text_13">
      <!-- 0 -->
      <g transform="translate(256.6375 234.128772) scale(0.1 -0.1)">
       <use xlink:href="#DejaVuSans-30"/>
      </g>
     </g>
    </g>
   </g>
   <g id="line2d_14">
    <path d="M 292.379679 230.329553 
L 305.86954 230.329553 
L 306.139337 223.2 
L 306.948729 223.2 
L 307.218526 227.953035 
L 308.027918 227.953035 
L 308.297715 236.033196 
L 309.107107 236.033196 
L 309.376904 236.947241 
L 310.186295 236.947241 
L 310.456093 246.009347 
L 311.265484 246.009347 
L 311.535282 249.948205 
L 312.344673 249.948205 
L 312.61447 254.163695 
L 313.423862 254.163695 
L 313.693659 257.865812 
L 314.503051 257.865812 
L 314.772848 262.667765 
L 315.58224 262.667765 
L 315.852037 266.321823 
L 317.740618 266.321823 
L 318.010415 263.296779 
L 319.898995 263.296779 
L 320.168792 267.597602 
L 320.978184 267.597602 
L 321.247981 263.963515 
L 322.057373 263.963515 
L 322.32717 261.031848 
L 324.215751 261.031848 
L 324.485548 261.768073 
L 325.29494 261.768073 
L 325.564737 258.150021 
L 327.453317 258.150021 
L 327.723115 254.546461 
L 328.532506 254.546461 
L 328.802303 250.956701 
L 329.611695 250.956701 
L 329.881492 254.282403 
L 330.690884 254.282403 
L 330.960681 248.881227 
L 332.849262 248.881227 
L 333.119059 243.875615 
L 333.928451 243.875615 
L 334.198248 247.024934 
L 335.007639 247.024934 
L 335.277437 243.875615 
L 336.086828 243.875615 
L 336.356626 248.686472 
L 338.245206 248.686472 
L 338.515003 252.082209 
L 339.324395 252.082209 
L 339.594192 257.997382 
L 340.403584 257.997382 
L 340.673381 257.108382 
L 341.482773 257.108382 
L 341.75257 259.346829 
L 342.561961 259.346829 
L 342.831759 258.492334 
L 343.64115 258.492334 
L 343.910948 257.6569 
L 344.720339 257.6569 
L 344.990136 259.122032 
L 345.799528 259.122032 
L 346.069325 267.510811 
L 346.878717 267.510811 
L 347.148514 264.520887 
L 347.957906 264.520887 
L 348.227703 266.841242 
L 349.037095 266.841242 
L 349.306892 275.121753 
L 350.116284 275.121753 
L 350.386081 277.949896 
L 351.195472 277.949896 
L 351.46527 280.444441 
L 354.433039 280.444441 
L 354.702836 283.210044 
L 355.512228 283.210044 
L 355.782025 288.470192 
L 356.591417 288.470192 
L 356.861214 285.708988 
L 357.670606 285.708988 
L 357.940403 290.978175 
L 358.749795 290.978175 
L 359.019592 296.198899 
L 359.828983 296.198899 
L 360.098781 298.719173 
L 360.908172 298.719173 
L 361.177969 306.688348 
L 361.987361 306.688348 
L 362.257158 312.043277 
L 363.06655 312.043277 
L 363.336347 320.107466 
L 364.145739 320.107466 
L 364.415536 328.036369 
L 365.224928 328.036369 
L 365.494725 333.362968 
L 366.304117 333.362968 
L 366.573914 336.087082 
L 367.383305 336.087082 
L 367.653103 341.413681 
L 368.462494 341.413681 
L 368.732292 338.847759 
L 369.541683 338.847759 
L 369.81148 333.778786 
L 370.620872 333.778786 
L 370.890669 328.768348 
L 371.700061 328.768348 
L 371.969858 326.263129 
L 372.77925 326.263129 
L 373.049047 331.618128 
L 374.937628 331.642085 
L 375.207425 332.101029 
L 376.016816 332.101029 
L 376.286614 340.442395 
L 378.175194 340.439493 
L 378.444991 335.633929 
L 379.254383 335.633929 
L 379.52418 333.233924 
L 380.333572 333.233924 
L 380.603369 328.441843 
L 381.412761 328.441843 
L 381.682558 333.917325 
L 382.49195 333.917325 
L 382.761747 336.312063 
L 384.650327 336.312063 
L 384.920125 338.7068 
L 385.729516 338.7068 
L 385.999313 336.314512 
L 386.808705 336.314512 
L 387.078502 334.665441 
L 387.887894 334.665441 
L 388.157691 329.932331 
L 388.967083 329.932331 
L 389.23688 330.727708 
L 390.046272 330.727708 
L 390.316069 334.76236 
L 391.125461 334.76236 
L 391.395258 335.650447 
L 392.204649 335.650447 
L 392.474447 333.302465 
L 394.363027 333.302465 
L 394.632824 338.873283 
L 395.442216 338.873283 
L 395.712013 336.558015 
L 396.521405 336.558015 
L 396.791202 334.244592 
L 397.600594 334.244592 
L 397.870391 335.210927 
L 398.679783 335.210927 
L 398.94958 336.196966 
L 399.758971 336.196966 
L 400.028769 339.501776 
L 400.83816 339.501776 
L 401.107958 345.128205 
L 401.917349 345.128205 
L 402.187146 354.088916 
L 402.996538 354.088916 
L 403.266335 359.715344 
L 404.075727 359.715344 
L 404.345524 367.630557 
L 405.154916 367.630557 
L 405.424713 376.59465 
L 406.234105 376.59465 
L 406.503902 384.49334 
L 407.313294 384.49334 
L 407.583091 395.776964 
L 408.392482 395.776964 
L 408.66228 404.808196 
L 409.471671 404.808196 
L 409.741469 407.084887 
L 410.55086 407.084887 
L 410.820657 416.13841 
L 411.630049 416.13841 
L 411.899846 417.254475 
L 412.709238 417.254475 
L 412.979035 424.054812 
L 414.867616 424.054812 
L 415.137413 427.454482 
L 417.025993 427.460766 
L 417.295791 430.864358 
L 418.105182 430.864358 
L 418.374979 428.610593 
L 420.26356 428.609318 
L 420.533357 432.037399 
L 421.342749 432.037399 
L 421.612546 437.713669 
L 422.421938 437.713669 
L 422.691735 433.240619 
L 423.501127 433.240619 
L 423.770924 434.473868 
L 424.580315 434.473868 
L 424.850113 430.028327 
L 425.659504 430.028327 
L 425.929302 423.386841 
L 426.738693 423.386841 
L 427.00849 426.873744 
L 427.817882 426.873744 
L 428.087679 420.25078 
L 428.897071 420.25078 
L 429.166868 425.95626 
L 429.97626 425.95626 
L 430.246057 425.047714 
L 433.213826 425.047714 
L 433.483624 422.856374 
L 434.293015 422.856374 
L 434.562812 418.478739 
L 435.372204 418.478739 
L 435.642001 414.104208 
L 436.451393 414.104208 
L 436.72119 405.370128 
L 437.530582 405.370128 
L 437.800379 396.675281 
L 438.609771 396.675281 
L 438.879568 390.173241 
L 439.68896 390.173241 
L 439.958757 383.687229 
L 440.768148 383.687229 
L 441.037946 381.528994 
L 441.847337 381.528994 
L 442.117135 375.064917 
L 442.926526 375.064917 
L 443.196323 370.760481 
L 445.084904 370.762232 
L 445.354701 368.613875 
L 446.164093 368.613875 
L 446.43389 362.176067 
L 447.243282 362.176067 
L 447.513079 367.949316 
L 448.322471 367.949316 
L 448.592268 361.523095 
L 449.401659 361.523095 
L 449.671457 368.803922 
L 450.480848 368.803922 
L 450.750645 382.503692 
L 451.560037 382.503692 
L 451.829834 380.367136 
L 452.639226 380.367136 
L 452.909023 379.744659 
L 453.718415 379.744659 
L 453.988212 371.215409 
L 454.797604 371.215409 
L 455.067401 374.877364 
L 455.876793 374.877364 
L 456.14659 384.332478 
L 456.955981 384.332478 
L 457.225779 393.221967 
L 458.03517 393.221967 
L 458.304968 399.015163 
L 459.114359 399.015163 
L 459.384156 409.044308 
L 460.193548 409.044308 
L 460.463345 418.523573 
L 461.272737 418.523573 
L 461.542534 424.321999 
L 462.351926 424.321999 
L 462.621723 428.011968 
L 463.431115 428.011968 
L 463.700912 429.066224 
L 464.510304 429.066224 
L 464.780101 438.567388 
L 465.589492 438.567388 
L 465.85929 446.480897 
L 466.668681 446.480897 
L 466.938478 448.07775 
L 467.74787 448.07775 
L 468.017667 451.781042 
L 468.827059 451.781042 
L 469.096856 462.903817 
L 469.906248 462.903817 
L 470.176045 472.427707 
L 470.985437 472.427707 
L 471.255234 489.397427 
L 472.064626 489.397427 
L 472.334423 510.116139 
L 473.143814 510.116139 
L 473.413612 517.572266 
L 474.223003 517.572266 
L 474.492801 532.953591 
L 475.302192 532.953591 
L 475.571989 545.804046 
L 476.381381 545.804046 
L 476.651178 543.712598 
L 477.46057 543.712598 
L 477.730367 539.533346 
L 478.539759 539.533346 
L 478.809556 535.355915 
L 480.698137 535.355358 
L 480.967934 533.268301 
L 481.777325 533.268301 
L 482.047123 531.180692 
L 482.856514 531.180692 
L 483.126312 527.008932 
L 483.935703 527.008932 
L 484.2055 524.502635 
L 485.014892 524.502635 
L 485.284689 524.083478 
L 486.094081 524.083478 
L 486.363878 533.254765 
L 487.17327 533.254765 
L 487.443067 531.172735 
L 488.252459 531.172735 
L 488.522256 534.926824 
L 489.331648 534.926824 
L 489.601445 542.438288 
L 490.410836 542.438288 
L 490.680634 542.033346 
L 491.490025 542.033346 
L 491.759822 545.792345 
L 492.569214 545.792345 
L 492.839011 550.840438 
L 493.648403 550.840438 
L 493.9182 552.526656 
L 494.727592 552.526656 
L 494.997389 555.902348 
L 495.806781 555.902348 
L 496.076578 557.976843 
L 496.88597 557.976843 
L 497.155767 555.521365 
L 497.965158 555.521365 
L 498.234956 555.142901 
L 499.044347 555.142901 
L 499.314145 560.985827 
L 500.123536 560.985827 
L 500.393333 554.766981 
L 501.202725 554.766981 
L 501.472522 556.465664 
L 502.281914 556.465664 
L 502.551711 565.712702 
L 503.361103 565.712702 
L 503.6309 563.64158 
L 504.440292 563.64158 
L 504.710089 569.120489 
L 505.519481 569.120489 
L 505.789278 574.605237 
L 506.598669 574.605237 
L 506.868467 580.092238 
L 507.677858 580.092238 
L 507.947655 597.638371 
L 508.757047 597.638371 
L 509.026844 599.706621 
L 509.836236 599.706621 
L 510.106033 607.625262 
L 510.915425 607.625262 
L 511.185222 607.278131 
L 511.994614 607.278131 
L 512.264411 609.344498 
L 514.152991 609.344498 
L 514.422789 613.476451 
L 515.23218 613.476451 
L 515.501978 613.13447 
L 516.311369 613.13447 
L 516.581166 610.729823 
L 517.390558 610.729823 
L 517.660355 610.393319 
L 518.469747 610.393319 
L 518.739544 612.124346 
L 519.548936 612.124346 
L 519.818733 615.587408 
L 520.628125 615.587408 
L 520.897922 613.525712 
L 521.707314 613.525712 
L 521.977111 613.198472 
L 522.786502 613.198472 
L 523.0563 620.791496 
L 523.865691 620.791496 
L 524.135488 624.266842 
L 524.94488 624.266842 
L 525.214677 626.005774 
L 526.024069 626.005774 
L 526.293866 621.889258 
L 527.103258 621.889258 
L 527.373055 625.377568 
L 528.182447 625.377568 
L 528.452244 621.264473 
L 529.261636 621.264473 
L 529.531433 620.650432 
L 530.340824 620.650432 
L 530.610622 632.068223 
L 532.499202 632.068223 
L 532.768999 635.877073 
L 533.578391 635.877073 
L 533.848188 637.633305 
L 535.736769 637.634306 
L 536.006566 637.342468 
L 536.815958 637.342468 
L 537.085755 647.020181 
L 537.895147 647.020181 
L 538.164944 642.917292 
L 538.974335 642.917292 
L 539.244133 640.865847 
L 540.053524 640.865847 
L 540.323322 642.629897 
L 541.132713 642.629897 
L 541.40251 638.528137 
L 543.291091 638.528137 
L 543.560888 636.477384 
L 544.37028 636.477384 
L 544.640077 634.42688 
L 545.449469 634.42688 
L 545.719266 628.276712 
L 546.528657 628.276712 
L 546.798455 624.177567 
L 547.607846 624.177567 
L 547.877644 618.029351 
L 548.687035 618.029351 
L 548.956832 613.931101 
L 549.766224 613.931101 
L 550.036021 609.833732 
L 550.845413 609.833732 
L 551.11521 603.68927 
L 551.924602 603.68927 
L 552.194399 625.123254 
L 553.003791 625.123254 
L 553.273588 636.865 
L 554.08298 636.865 
L 554.352777 650.654562 
L 555.162168 650.654562 
L 555.431966 656.526141 
L 556.241357 656.526141 
L 556.511155 662.39772 
L 557.320546 662.39772 
L 557.590343 677.965554 
L 558.399735 677.965554 
L 558.669532 689.70925 
L 559.478924 689.70925 
L 559.748721 703.498513 
L 560.558113 703.498513 
L 560.82791 721.112539 
L 561.637302 721.112539 
L 561.907099 726.983971 
L 562.716491 726.983971 
L 562.986288 724.939009 
L 563.795679 724.939009 
L 564.065477 720.849734 
L 564.874868 720.849734 
L 565.144665 722.894114 
L 565.954057 722.894114 
L 566.223854 720.849947 
L 567.033246 720.849947 
L 567.303043 718.80599 
L 568.112435 718.80599 
L 568.382232 716.762034 
L 569.191624 716.762034 
L 569.461421 720.590081 
L 570.270813 720.590081 
L 570.54061 718.546125 
L 572.42919 718.546332 
L 572.698988 718.288712 
L 573.508379 718.288712 
L 573.778176 726.204472 
L 574.587568 726.204472 
L 574.857365 727.991459 
L 575.666757 727.991459 
L 575.936554 739.483267 
L 576.745946 739.483267 
L 577.015743 741.525914 
L 577.825135 741.525914 
L 578.094932 743.314621 
L 578.904324 743.314621 
L 579.174121 756.852877 
L 579.983512 756.852877 
L 580.25331 766.560696 
L 581.062701 766.560696 
L 581.332498 766.30953 
L 582.14189 766.30953 
L 582.411687 770.143191 
L 583.221079 770.143191 
L 583.490876 772.185219 
L 584.300268 772.185219 
L 584.570065 768.101353 
L 585.379457 768.101353 
L 585.649254 771.936293 
L 586.458646 771.936293 
L 586.728443 777.565582 
L 587.537834 777.565582 
L 587.807632 775.523882 
L 588.617023 775.523882 
L 588.886821 775.276388 
L 590.775401 775.276252 
L 591.045198 777.317493 
L 591.85459 777.317493 
L 592.124387 781.154781 
L 592.933779 781.154781 
L 593.203576 780.910036 
L 594.012968 780.910036 
L 594.282765 778.868977 
L 595.092157 778.868977 
L 595.361954 782.707257 
L 596.171345 782.707257 
L 596.441143 792.425585 
L 597.250534 792.425585 
L 597.520331 794.224228 
L 598.329723 794.224228 
L 598.59952 800.104364 
L 599.408912 800.104364 
L 599.678709 802.144756 
L 600.488101 802.144756 
L 600.757898 804.185015 
L 601.56729 804.185015 
L 601.837087 808.02489 
L 603.725667 808.02489 
L 603.995465 810.064975 
L 604.804856 810.064975 
L 605.074654 811.86511 
L 605.884045 811.86511 
L 606.153842 811.625675 
L 606.963234 811.625675 
L 607.233031 815.466238 
L 608.042423 815.466238 
L 608.31222 815.228085 
L 609.121612 815.228085 
L 609.391409 819.068911 
L 610.200801 819.068911 
L 610.470598 828.910117 
L 611.27999 828.910117 
L 611.549787 832.988461 
L 613.438367 832.988623 
L 613.708165 840.674645 
L 614.517556 840.674645 
L 614.787353 836.597552 
L 615.596745 836.597552 
L 615.866542 840.441249 
L 616.675934 840.441249 
L 616.945731 848.361725 
L 617.755123 848.361725 
L 618.02492 846.323569 
L 619.9135 846.323569 
L 620.183298 850.167706 
L 620.992689 850.167706 
L 621.262487 852.205605 
L 622.071878 852.205605 
L 622.341675 860.125568 
L 623.151067 860.125568 
L 623.420864 863.970448 
L 624.230256 863.970448 
L 624.500053 869.853123 
L 625.309445 869.853123 
L 625.579242 873.698459 
L 626.388634 873.698459 
L 626.658431 883.427518 
L 627.467823 883.427518 
L 627.73762 879.353136 
L 628.547011 879.353136 
L 628.816809 877.316092 
L 629.6262 877.316092 
L 629.895998 875.279048 
L 630.705389 875.279048 
L 630.975186 877.089071 
L 631.784578 877.089071 
L 632.054375 879.125844 
L 633.942956 879.125844 
L 634.212753 877.089071 
L 636.101334 877.089071 
L 636.371131 873.015954 
L 637.180522 873.015954 
L 637.45032 872.791152 
L 638.259711 872.791152 
L 638.529508 874.603396 
L 639.3389 874.603396 
L 639.608697 876.415779 
L 640.418089 876.415779 
L 640.687886 884.112538 
L 641.497278 884.112538 
L 641.767075 886.148204 
L 642.576467 886.148204 
L 642.846264 888.183869 
L 643.655656 888.183869 
L 643.925453 890.219535 
L 644.734844 890.219535 
L 645.004642 895.882464 
L 646.893222 895.882464 
L 647.163019 901.767625 
L 647.972411 901.767625 
L 648.242208 905.837802 
L 649.0516 905.837802 
L 649.321397 917.608576 
L 650.130789 917.608576 
L 650.400586 927.56307 
L 651.209978 927.56307 
L 651.479775 929.37986 
L 652.289167 929.37986 
L 652.558964 935.265548 
L 653.368355 935.265548 
L 653.638153 935.048699 
L 654.447544 935.048699 
L 654.717341 938.900634 
L 655.526733 938.900634 
L 655.79653 940.934779 
L 656.605922 940.934779 
L 656.875719 950.673395 
L 657.685111 950.673395 
L 657.954908 956.559963 
L 658.7643 956.559963 
L 659.034097 962.446643 
L 660.922677 962.446643 
L 661.192475 964.480293 
L 663.081055 964.480293 
L 663.350852 968.333205 
L 665.239433 968.333205 
L 665.50923 970.366855 
L 667.397811 970.366855 
L 667.667608 976.2539 
L 668.477 976.2539 
L 668.746797 974.220374 
L 669.556188 974.220374 
L 669.825986 972.18697 
L 670.635377 972.18697 
L 670.905174 983.96189 
L 671.714566 983.96189 
L 671.984363 981.928728 
L 672.793755 981.928728 
L 673.063552 987.816361 
L 673.872944 987.816361 
L 674.142741 985.783319 
L 674.952133 985.783319 
L 675.22193 995.526136 
L 676.031322 995.526136 
L 676.301119 1003.446935 
L 678.189699 1003.446935 
L 678.459497 1011.367501 
L 679.268888 1011.367501 
L 679.538685 1017.255608 
L 680.348077 1017.255608 
L 680.617874 1023.143831 
L 681.427266 1023.143831 
L 681.697063 1026.999937 
L 682.506455 1026.999937 
L 682.776252 1031.063828 
L 683.585644 1031.063828 
L 683.855441 1036.95205 
L 684.664833 1036.95205 
L 684.93463 1042.840385 
L 685.744021 1042.840385 
L 686.013819 1046.69728 
L 688.981588 1046.697168 
L 689.251385 1044.665729 
L 695.456721 1044.665729 
L 695.726518 1048.522846 
L 696.53591 1048.522846 
L 696.805707 1048.317308 
L 697.615099 1048.317308 
L 697.884896 1054.206194 
L 698.694288 1054.206194 
L 698.964085 1060.095192 
L 699.773477 1060.095192 
L 700.043274 1063.953085 
L 700.852666 1063.953085 
L 701.122463 1067.811305 
L 701.931854 1067.811305 
L 702.201652 1071.669637 
L 703.011043 1071.669637 
L 703.280841 1073.497296 
L 704.090232 1073.497296 
L 704.360029 1079.387064 
L 705.169421 1079.387064 
L 705.439218 1087.105453 
L 707.327799 1087.105453 
L 707.597596 1088.934179 
L 708.406988 1088.934179 
L 708.676785 1090.96486 
L 709.486177 1090.96486 
L 709.755974 1094.824486 
L 710.565365 1094.824486 
L 710.835163 1096.854958 
L 711.644554 1096.854958 
L 711.914351 1098.684434 
L 712.723743 1098.684434 
L 712.99354 1108.43533 
L 713.802932 1108.43533 
L 714.072729 1114.326178 
L 714.882121 1114.326178 
L 715.151918 1126.108178 
L 715.96131 1126.108178 
L 716.231107 1129.969275 
L 717.040499 1129.969275 
L 717.310296 1135.860527 
L 718.119687 1135.860527 
L 718.389485 1143.78152 
L 719.198876 1143.78152 
L 719.468674 1149.672865 
L 721.357254 1149.672865 
L 721.627051 1155.564324 
L 723.515632 1155.564324 
L 723.785429 1159.426543 
L 724.594821 1159.426543 
L 724.864618 1157.397091 
L 725.67401 1157.397091 
L 725.943807 1161.259521 
L 726.753198 1161.259521 
L 727.022996 1163.288876 
L 727.832387 1163.288876 
L 728.102184 1167.151501 
L 728.911576 1167.151501 
L 729.181373 1165.122146 
L 729.990765 1165.122146 
L 730.260562 1176.906413 
L 731.069954 1176.906413 
L 731.339751 1176.711326 
L 732.149143 1176.711326 
L 732.41894 1192.360273 
L 733.228332 1192.360273 
L 733.498129 1200.088385 
L 734.30752 1200.088385 
L 734.577318 1201.923905 
L 735.386709 1201.923905 
L 735.656507 1213.710665 
L 736.465898 1213.710665 
L 736.735695 1219.412236 
L 737.545087 1219.412236 
L 737.814884 1221.440703 
L 738.624276 1221.440703 
L 738.894073 1227.334448 
L 739.703465 1227.334448 
L 739.973262 1231.2 
L 739.973262 1231.2 
" clip-path="url(#p8867f792dc)" style="fill: none; stroke: #0000ff; stroke-width: 1.5; stroke-linecap: square"/>
   </g>
   <g id="patch_3">
    <path d="M 270 1281.6 
L 270 172.8 
" style="fill: none; stroke: #000000; stroke-width: 0.8; stroke-linejoin: miter; stroke-linecap: square"/>
   </g>
   <g id="patch_4">
    <path d="M 762.352941 1281.6 
L 762.352941 172.8 
" style="fill: none; stroke: #000000; stroke-width: 0.8; stroke-linejoin: miter; stroke-linecap: square"/>
   </g>
   <g id="patch_5">
    <path d="M 270 1281.6 
L 762.352941 1281.6 
" style="fill: none; stroke: #000000; stroke-width: 0.8; stroke-linejoin: miter; stroke-linecap: square"/>
   </g>
   <g id="patch_6">
    <path d="M 270 172.8 
L 762.352941 172.8 
" style="fill: none; stroke: #000000; stroke-width: 0.8; stroke-linejoin: miter; stroke-linecap: square"/>
   </g>
   <g id="legend_1">
    <g id="patch_7">
     <path d="M 671.310754 195.478125 
L 755.352941 195.478125 
Q 757.352941 195.478125 757.352941 193.478125 
L 757.352941 179.8 
Q 757.352941 177.8 755.352941 177.8 
L 671.310754 177.8 
Q 669.310754 177.8 669.310754 179.8 
L 669.310754 193.478125 
Q 669.310754 195.478125 671.310754 195.478125 
z
" style="fill: #ffffff; opacity: 0.8; stroke: #cccccc; stroke-linejoin: miter"/>
    </g>
    <g id="line2d_15">
     <path d="M 673.310754 185.898437 
L 683.310754 185.898437 
L 693.310754 185.898437 
" style="fill: none; stroke: #0000ff; stroke-width: 1.5; stroke-linecap: square"/>
    </g>
    <g id="text_14">
     <!-- O1 reward -->
     <g transform="translate(701.310754 189.398437) scale(0.1 -0.1)">
      <defs>
       <path id="DejaVuSans-4f" d="M 2522 4238 
Q 1834 4238 1429 3725 
Q 1025 3213 1025 2328 
Q 1025 1447 1429 934 
Q 1834 422 2522 422 
Q 3209 422 3611 934 
Q 4013 1447 4013 2328 
Q 4013 3213 3611 3725 
Q 3209 4238 2522 4238 
z
M 2522 4750 
Q 3503 4750 4090 4092 
Q 4678 3434 4678 2328 
Q 4678 1225 4090 567 
Q 3503 -91 2522 -91 
Q 1538 -91 948 565 
Q 359 1222 359 2328 
Q 359 3434 948 4092 
Q 1538 4750 2522 4750 
z
" transform="scale(0.015625)"/>
       <path id="DejaVuSans-20" transform="scale(0.015625)"/>
       <path id="DejaVuSans-72" d="M 2631 2963 
Q 2534 3019 2420 3045 
Q 2306 3072 2169 3072 
Q 1681 3072 1420 2755 
Q 1159 2438 1159 1844 
L 1159 0 
L 581 0 
L 581 3500 
L 1159 3500 
L 1159 2956 
Q 1341 3275 1631 3429 
Q 1922 3584 2338 3584 
Q 2397 3584 2469 3576 
Q 2541 3569 2628 3553 
L 2631 2963 
z
" transform="scale(0.015625)"/>
       <path id="DejaVuSans-65" d="M 3597 1894 
L 3597 1613 
L 953 1613 
Q 991 1019 1311 708 
Q 1631 397 2203 397 
Q 2534 397 2845 478 
Q 3156 559 3463 722 
L 3463 178 
Q 3153 47 2828 -22 
Q 2503 -91 2169 -91 
Q 1331 -91 842 396 
Q 353 884 353 1716 
Q 353 2575 817 3079 
Q 1281 3584 2069 3584 
Q 2775 3584 3186 3129 
Q 3597 2675 3597 1894 
z
M 3022 2063 
Q 3016 2534 2758 2815 
Q 2500 3097 2075 3097 
Q 1594 3097 1305 2825 
Q 1016 2553 972 2059 
L 3022 2063 
z
" transform="scale(0.015625)"/>
       <path id="DejaVuSans-77" d="M 269 3500 
L 844 3500 
L 1563 769 
L 2278 3500 
L 2956 3500 
L 3675 769 
L 4391 3500 
L 4966 3500 
L 4050 0 
L 3372 0 
L 2619 2869 
L 1863 0 
L 1184 0 
L 269 3500 
z
" transform="scale(0.015625)"/>
       <path id="DejaVuSans-61" d="M 2194 1759 
Q 1497 1759 1228 1600 
Q 959 1441 959 1056 
Q 959 750 1161 570 
Q 1363 391 1709 391 
Q 2188 391 2477 730 
Q 2766 1069 2766 1631 
L 2766 1759 
L 2194 1759 
z
M 3341 1997 
L 3341 0 
L 2766 0 
L 2766 531 
Q 2569 213 2275 61 
Q 1981 -91 1556 -91 
Q 1019 -91 701 211 
Q 384 513 384 1019 
Q 384 1609 779 1909 
Q 1175 2209 1959 2209 
L 2766 2209 
L 2766 2266 
Q 2766 2663 2505 2880 
Q 2244 3097 1772 3097 
Q 1472 3097 1187 3025 
Q 903 2953 641 2809 
L 641 3341 
Q 956 3463 1253 3523 
Q 1550 3584 1831 3584 
Q 2591 3584 2966 3190 
Q 3341 2797 3341 1997 
z
" transform="scale(0.015625)"/>
       <path id="DejaVuSans-64" d="M 2906 2969 
L 2906 4863 
L 3481 4863 
L 3481 0 
L 2906 0 
L 2906 525 
Q 2725 213 2448 61 
Q 2172 -91 1784 -91 
Q 1150 -91 751 415 
Q 353 922 353 1747 
Q 353 2572 751 3078 
Q 1150 3584 1784 3584 
Q 2172 3584 2448 3432 
Q 2725 3281 2906 2969 
z
M 947 1747 
Q 947 1113 1208 752 
Q 1469 391 1925 391 
Q 2381 391 2643 752 
Q 2906 1113 2906 1747 
Q 2906 2381 2643 2742 
Q 2381 3103 1925 3103 
Q 1469 3103 1208 2742 
Q 947 2381 947 1747 
z
" transform="scale(0.015625)"/>
      </defs>
      <use xlink:href="#DejaVuSans-4f"/>
      <use xlink:href="#DejaVuSans-31" x="78.710938"/>
      <use xlink:href="#DejaVuSans-20" x="142.333984"/>
      <use xlink:href="#DejaVuSans-72" x="174.121094"/>
      <use xlink:href="#DejaVuSans-65" x="212.984375"/>
      <use xlink:href="#DejaVuSans-77" x="274.507812"/>
      <use xlink:href="#DejaVuSans-61" x="356.294922"/>
      <use xlink:href="#DejaVuSans-72" x="417.574219"/>
      <use xlink:href="#DejaVuSans-64" x="456.9375"/>
     </g>
    </g>
   </g>
  </g>
  <g id="axes_2">
   <g id="patch_8">
    <path d="M 860.823529 1281.6 
L 1353.176471 1281.6 
L 1353.176471 172.8 
L 860.823529 172.8 
z
" style="fill: #ffffff"/>
   </g>
   <g id="matplotlib.axis_3">
    <g id="xtick_8">
     <g id="line2d_16">
      <g>
       <use xlink:href="#m349aecd584" x="882.933411" y="1281.6" style="stroke: #000000; stroke-width: 0.8"/>
      </g>
     </g>
     <g id="text_15">
      <!-- 0 -->
      <g transform="translate(879.752161 1296.198437) scale(0.1 -0.1)">
       <use xlink:href="#DejaVuSans-30"/>
      </g>
     </g>
    </g>
    <g id="xtick_9">
     <g id="line2d_17">
      <g>
       <use xlink:href="#m349aecd584" x="950.382716" y="1281.6" style="stroke: #000000; stroke-width: 0.8"/>
      </g>
     </g>
     <g id="text_16">
      <!-- 250 -->
      <g transform="translate(940.838966 1296.198437) scale(0.1 -0.1)">
       <use xlink:href="#DejaVuSans-32"/>
       <use xlink:href="#DejaVuSans-35" x="63.623047"/>
       <use xlink:href="#DejaVuSans-30" x="127.246094"/>
      </g>
     </g>
    </g>
    <g id="xtick_10">
     <g id="line2d_18">
      <g>
       <use xlink:href="#m349aecd584" x="1017.83202" y="1281.6" style="stroke: #000000; stroke-width: 0.8"/>
      </g>
     </g>
     <g id="text_17">
      <!-- 500 -->
      <g transform="translate(1008.28827 1296.198437) scale(0.1 -0.1)">
       <use xlink:href="#DejaVuSans-35"/>
       <use xlink:href="#DejaVuSans-30" x="63.623047"/>
       <use xlink:href="#DejaVuSans-30" x="127.246094"/>
      </g>
     </g>
    </g>
    <g id="xtick_11">
     <g id="line2d_19">
      <g>
       <use xlink:href="#m349aecd584" x="1085.281324" y="1281.6" style="stroke: #000000; stroke-width: 0.8"/>
      </g>
     </g>
     <g id="text_18">
      <!-- 750 -->
      <g transform="translate(1075.737574 1296.198437) scale(0.1 -0.1)">
       <use xlink:href="#DejaVuSans-37"/>
       <use xlink:href="#DejaVuSans-35" x="63.623047"/>
       <use xlink:href="#DejaVuSans-30" x="127.246094"/>
      </g>
     </g>
    </g>
    <g id="xtick_12">
     <g id="line2d_20">
      <g>
       <use xlink:href="#m349aecd584" x="1152.730628" y="1281.6" style="stroke: #000000; stroke-width: 0.8"/>
      </g>
     </g>
     <g id="text_19">
      <!-- 1000 -->
      <g transform="translate(1140.005628 1296.198437) scale(0.1 -0.1)">
       <use xlink:href="#DejaVuSans-31"/>
       <use xlink:href="#DejaVuSans-30" x="63.623047"/>
       <use xlink:href="#DejaVuSans-30" x="127.246094"/>
       <use xlink:href="#DejaVuSans-30" x="190.869141"/>
      </g>
     </g>
    </g>
    <g id="xtick_13">
     <g id="line2d_21">
      <g>
       <use xlink:href="#m349aecd584" x="1220.179933" y="1281.6" style="stroke: #000000; stroke-width: 0.8"/>
      </g>
     </g>
     <g id="text_20">
      <!-- 1250 -->
      <g transform="translate(1207.454933 1296.198437) scale(0.1 -0.1)">
       <use xlink:href="#DejaVuSans-31"/>
       <use xlink:href="#DejaVuSans-32" x="63.623047"/>
       <use xlink:href="#DejaVuSans-35" x="127.246094"/>
       <use xlink:href="#DejaVuSans-30" x="190.869141"/>
      </g>
     </g>
    </g>
    <g id="xtick_14">
     <g id="line2d_22">
      <g>
       <use xlink:href="#m349aecd584" x="1287.629237" y="1281.6" style="stroke: #000000; stroke-width: 0.8"/>
      </g>
     </g>
     <g id="text_21">
      <!-- 1500 -->
      <g transform="translate(1274.904237 1296.198437) scale(0.1 -0.1)">
       <use xlink:href="#DejaVuSans-31"/>
       <use xlink:href="#DejaVuSans-35" x="63.623047"/>
       <use xlink:href="#DejaVuSans-30" x="127.246094"/>
       <use xlink:href="#DejaVuSans-30" x="190.869141"/>
      </g>
     </g>
    </g>
   </g>
   <g id="matplotlib.axis_4">
    <g id="ytick_7">
     <g id="line2d_23">
      <g>
       <use xlink:href="#mfd1706532f" x="860.823529" y="1231.2" style="stroke: #000000; stroke-width: 0.8"/>
      </g>
     </g>
     <g id="text_22">
      <!-- 0 -->
      <g transform="translate(847.461029 1234.999219) scale(0.1 -0.1)">
       <use xlink:href="#DejaVuSans-30"/>
      </g>
     </g>
    </g>
    <g id="ytick_8">
     <g id="line2d_24">
      <g>
       <use xlink:href="#mfd1706532f" x="860.823529" y="1041.708718" style="stroke: #000000; stroke-width: 0.8"/>
      </g>
     </g>
     <g id="text_23">
      <!-- 20 -->
      <g transform="translate(841.098529 1045.507936) scale(0.1 -0.1)">
       <use xlink:href="#DejaVuSans-32"/>
       <use xlink:href="#DejaVuSans-30" x="63.623047"/>
      </g>
     </g>
    </g>
    <g id="ytick_9">
     <g id="line2d_25">
      <g>
       <use xlink:href="#mfd1706532f" x="860.823529" y="852.217435" style="stroke: #000000; stroke-width: 0.8"/>
      </g>
     </g>
     <g id="text_24">
      <!-- 40 -->
      <g transform="translate(841.098529 856.016654) scale(0.1 -0.1)">
       <defs>
        <path id="DejaVuSans-34" d="M 2419 4116 
L 825 1625 
L 2419 1625 
L 2419 4116 
z
M 2253 4666 
L 3047 4666 
L 3047 1625 
L 3713 1625 
L 3713 1100 
L 3047 1100 
L 3047 0 
L 2419 0 
L 2419 1100 
L 313 1100 
L 313 1709 
L 2253 4666 
z
" transform="scale(0.015625)"/>
       </defs>
       <use xlink:href="#DejaVuSans-34"/>
       <use xlink:href="#DejaVuSans-30" x="63.623047"/>
      </g>
     </g>
    </g>
    <g id="ytick_10">
     <g id="line2d_26">
      <g>
       <use xlink:href="#mfd1706532f" x="860.823529" y="662.726153" style="stroke: #000000; stroke-width: 0.8"/>
      </g>
     </g>
     <g id="text_25">
      <!-- 60 -->
      <g transform="translate(841.098529 666.525372) scale(0.1 -0.1)">
       <defs>
        <path id="DejaVuSans-36" d="M 2113 2584 
Q 1688 2584 1439 2293 
Q 1191 2003 1191 1497 
Q 1191 994 1439 701 
Q 1688 409 2113 409 
Q 2538 409 2786 701 
Q 3034 994 3034 1497 
Q 3034 2003 2786 2293 
Q 2538 2584 2113 2584 
z
M 3366 4563 
L 3366 3988 
Q 3128 4100 2886 4159 
Q 2644 4219 2406 4219 
Q 1781 4219 1451 3797 
Q 1122 3375 1075 2522 
Q 1259 2794 1537 2939 
Q 1816 3084 2150 3084 
Q 2853 3084 3261 2657 
Q 3669 2231 3669 1497 
Q 3669 778 3244 343 
Q 2819 -91 2113 -91 
Q 1303 -91 875 529 
Q 447 1150 447 2328 
Q 447 3434 972 4092 
Q 1497 4750 2381 4750 
Q 2619 4750 2861 4703 
Q 3103 4656 3366 4563 
z
" transform="scale(0.015625)"/>
       </defs>
       <use xlink:href="#DejaVuSans-36"/>
       <use xlink:href="#DejaVuSans-30" x="63.623047"/>
      </g>
     </g>
    </g>
    <g id="ytick_11">
     <g id="line2d_27">
      <g>
       <use xlink:href="#mfd1706532f" x="860.823529" y="473.234871" style="stroke: #000000; stroke-width: 0.8"/>
      </g>
     </g>
     <g id="text_26">
      <!-- 80 -->
      <g transform="translate(841.098529 477.03409) scale(0.1 -0.1)">
       <defs>
        <path id="DejaVuSans-38" d="M 2034 2216 
Q 1584 2216 1326 1975 
Q 1069 1734 1069 1313 
Q 1069 891 1326 650 
Q 1584 409 2034 409 
Q 2484 409 2743 651 
Q 3003 894 3003 1313 
Q 3003 1734 2745 1975 
Q 2488 2216 2034 2216 
z
M 1403 2484 
Q 997 2584 770 2862 
Q 544 3141 544 3541 
Q 544 4100 942 4425 
Q 1341 4750 2034 4750 
Q 2731 4750 3128 4425 
Q 3525 4100 3525 3541 
Q 3525 3141 3298 2862 
Q 3072 2584 2669 2484 
Q 3125 2378 3379 2068 
Q 3634 1759 3634 1313 
Q 3634 634 3220 271 
Q 2806 -91 2034 -91 
Q 1263 -91 848 271 
Q 434 634 434 1313 
Q 434 1759 690 2068 
Q 947 2378 1403 2484 
z
M 1172 3481 
Q 1172 3119 1398 2916 
Q 1625 2713 2034 2713 
Q 2441 2713 2670 2916 
Q 2900 3119 2900 3481 
Q 2900 3844 2670 4047 
Q 2441 4250 2034 4250 
Q 1625 4250 1398 4047 
Q 1172 3844 1172 3481 
z
" transform="scale(0.015625)"/>
       </defs>
       <use xlink:href="#DejaVuSans-38"/>
       <use xlink:href="#DejaVuSans-30" x="63.623047"/>
      </g>
     </g>
    </g>
    <g id="ytick_12">
     <g id="line2d_28">
      <g>
       <use xlink:href="#mfd1706532f" x="860.823529" y="283.743589" style="stroke: #000000; stroke-width: 0.8"/>
      </g>
     </g>
     <g id="text_27">
      <!-- 100 -->
      <g transform="translate(834.736029 287.542807) scale(0.1 -0.1)">
       <use xlink:href="#DejaVuSans-31"/>
       <use xlink:href="#DejaVuSans-30" x="63.623047"/>
       <use xlink:href="#DejaVuSans-30" x="127.246094"/>
      </g>
     </g>
    </g>
   </g>
   <g id="line2d_29">
    <path d="M 883.203209 1231.2 
L 895.613881 1231.129953 
L 895.883678 1227.312845 
L 896.693069 1227.312845 
L 896.962867 1228.808866 
L 897.772258 1228.808866 
L 898.042055 1227.919183 
L 898.851447 1227.919183 
L 899.121244 1229.673079 
L 899.930636 1229.673079 
L 900.200433 1221.793203 
L 901.009825 1221.793203 
L 901.279622 1209.848471 
L 902.089014 1209.848471 
L 902.358811 1203.906219 
L 903.168203 1203.906219 
L 903.438 1188.253796 
L 904.247391 1188.253796 
L 904.517189 1173.828213 
L 909.643336 1173.828213 
L 909.913133 1167.567281 
L 912.880902 1167.567281 
L 913.1507 1160.889884 
L 916.118469 1160.889884 
L 916.388266 1151.792047 
L 917.197658 1151.792047 
L 917.467455 1149.237448 
L 918.276847 1149.237448 
L 918.546644 1146.426415 
L 920.435224 1146.426415 
L 920.705022 1129.17147 
L 921.514413 1129.17147 
L 921.784211 1102.036628 
L 922.593602 1102.036628 
L 922.863399 1094.808164 
L 923.672791 1094.808164 
L 923.942588 1080.888576 
L 924.75198 1080.888576 
L 925.021777 1047.192884 
L 925.831169 1047.192884 
L 926.100966 1023.740629 
L 937.702246 1023.740629 
L 937.972044 1016.825528 
L 940.939813 1016.825528 
L 941.20961 1010.012052 
L 942.019002 1010.012052 
L 942.288799 1003.127339 
L 943.098191 1003.127339 
L 943.367988 996.173214 
L 945.256568 996.173214 
L 945.526366 993.718737 
L 949.573324 993.718737 
L 949.843121 991.198297 
L 950.652513 991.198297 
L 950.92231 974.467056 
L 951.731702 974.467056 
L 952.001499 961.689696 
L 952.810891 961.689696 
L 953.080688 933.372469 
L 953.890079 933.372469 
L 954.159877 908.4611 
L 954.969268 908.4611 
L 955.239065 888.826152 
L 956.048457 888.826152 
L 956.318254 864.680824 
L 957.127646 864.680824 
L 957.397443 835.355161 
L 958.206835 835.355161 
L 958.476632 822.239944 
L 959.286024 822.239944 
L 959.555821 804.076168 
L 962.52359 804.076168 
L 962.793388 799.975527 
L 963.602779 799.975527 
L 963.872576 791.496292 
L 964.681968 791.496292 
L 964.951765 797.347946 
L 965.761157 797.347946 
L 966.030954 800.131198 
L 966.840346 800.131198 
L 967.110143 805.912903 
L 967.919535 805.912903 
L 968.189332 808.897282 
L 968.998724 808.897282 
L 969.268521 811.609141 
L 970.077912 811.609141 
L 970.34771 803.254537 
L 972.23629 803.254537 
L 972.506087 797.573226 
L 973.315479 797.573226 
L 973.585276 794.955793 
L 974.394668 794.955793 
L 974.664465 786.747974 
L 975.473857 786.747974 
L 975.743654 770.557222 
L 976.553046 770.557222 
L 976.822843 762.805189 
L 977.632234 762.805189 
L 977.902032 756.065822 
L 978.711423 756.065822 
L 978.981221 751.702821 
L 979.790612 751.702821 
L 980.060409 744.536636 
L 980.869801 744.536636 
L 981.139598 751.632048 
L 981.94899 751.632048 
L 982.218787 767.527439 
L 983.028179 767.527439 
L 983.297976 762.545135 
L 984.107368 762.545135 
L 984.377165 748.875487 
L 985.186557 748.875487 
L 985.456354 737.277225 
L 986.265745 737.277225 
L 986.535543 738.952096 
L 987.344934 738.952096 
L 987.614732 727.937006 
L 988.424123 727.937006 
L 988.69392 718.471426 
L 989.503312 718.471426 
L 989.773109 716.937172 
L 991.66169 716.881074 
L 991.931487 718.370528 
L 992.740879 718.370528 
L 993.010676 715.455949 
L 993.820067 715.455949 
L 994.089865 706.357819 
L 994.899256 706.357819 
L 995.169054 707.724038 
L 995.978445 707.724038 
L 996.248242 704.628726 
L 997.057634 704.628726 
L 997.327431 695.763921 
L 998.136823 695.763921 
L 998.40662 690.069498 
L 999.216012 690.069498 
L 999.485809 684.420926 
L 1000.295201 684.420926 
L 1000.564998 681.345236 
L 1001.37439 681.345236 
L 1001.644187 679.519164 
L 1003.532767 679.519164 
L 1003.802565 690.563423 
L 1004.611956 690.563423 
L 1004.881753 696.003227 
L 1005.691145 696.003227 
L 1005.960942 694.067875 
L 1006.770334 694.067875 
L 1007.040131 698.220913 
L 1007.849523 698.220913 
L 1008.11932 699.249777 
L 1008.928712 699.249777 
L 1009.198509 710.50859 
L 1010.007901 710.50859 
L 1010.277698 712.658195 
L 1011.087089 712.658195 
L 1011.356887 721.654165 
L 1012.166278 721.654165 
L 1012.436075 721.215371 
L 1013.245467 721.215371 
L 1013.515264 712.451781 
L 1014.324656 712.451781 
L 1014.594453 706.843155 
L 1015.403845 706.843155 
L 1015.673642 706.013971 
L 1016.483034 706.013971 
L 1016.752831 701.311539 
L 1017.562223 701.311539 
L 1017.83202 693.557076 
L 1018.641411 693.557076 
L 1018.911209 696.663068 
L 1019.7206 696.663068 
L 1019.990398 699.7639 
L 1020.799789 699.7639 
L 1021.069586 699.025466 
L 1021.878978 699.025466 
L 1022.148775 695.914261 
L 1022.958167 695.914261 
L 1023.227964 687.567538 
L 1024.037356 687.567538 
L 1024.307153 682.388579 
L 1026.195734 682.388579 
L 1026.465531 677.954615 
L 1027.274922 677.954615 
L 1027.54472 682.974607 
L 1028.354111 682.974607 
L 1028.623908 691.599805 
L 1029.4333 691.599805 
L 1029.703097 694.151784 
L 1030.512489 694.151784 
L 1030.782286 693.635404 
L 1031.591678 693.635404 
L 1031.861475 692.632052 
L 1032.670867 692.632052 
L 1032.940664 694.806816 
L 1033.750056 694.806816 
L 1034.019853 686.844915 
L 1034.829244 686.844915 
L 1035.099042 667.297681 
L 1035.908433 667.297681 
L 1036.178231 655.774973 
L 1036.987622 655.774973 
L 1037.257419 640.621511 
L 1038.066811 640.621511 
L 1038.336608 625.369904 
L 1039.146 625.369904 
L 1039.415797 610.92384 
L 1040.225189 610.92384 
L 1040.494986 603.379645 
L 1041.304378 603.379645 
L 1041.574175 592.817782 
L 1042.383567 592.817782 
L 1042.653364 578.584589 
L 1043.462755 578.584589 
L 1043.732553 571.554727 
L 1044.541944 571.554727 
L 1044.811741 561.122277 
L 1045.621133 561.122277 
L 1045.89093 564.736095 
L 1046.700322 564.736095 
L 1046.970119 558.512108 
L 1047.779511 558.512108 
L 1048.049308 568.568362 
L 1048.8587 568.568362 
L 1049.128497 568.851899 
L 1049.937889 568.851899 
L 1050.207686 569.086619 
L 1051.017077 569.086619 
L 1051.286875 566.08414 
L 1053.175455 566.188348 
L 1053.445252 566.378618 
L 1054.254644 566.378618 
L 1054.524441 576.159669 
L 1055.333833 576.159669 
L 1055.60363 582.521089 
L 1056.413022 582.521089 
L 1056.682819 585.633146 
L 1057.492211 585.633146 
L 1057.762008 582.515972 
L 1058.5714 582.515972 
L 1058.841197 579.273135 
L 1059.650588 579.273135 
L 1059.920386 572.926209 
L 1060.729777 572.926209 
L 1060.999575 566.651768 
L 1062.888155 566.639177 
L 1063.157952 569.79682 
L 1063.967344 569.79682 
L 1064.237141 566.745419 
L 1065.046533 566.745419 
L 1065.31633 563.71206 
L 1067.204911 563.822201 
L 1067.474708 576.168354 
L 1068.284099 576.168354 
L 1068.553897 579.341147 
L 1069.363288 579.341147 
L 1069.633085 570.830957 
L 1070.442477 570.830957 
L 1070.712274 574.05194 
L 1071.521666 574.05194 
L 1071.791463 577.525501 
L 1072.600855 577.525501 
L 1072.870652 574.54739 
L 1073.680044 574.54739 
L 1073.949841 574.82371 
L 1074.759233 574.82371 
L 1075.02903 578.720998 
L 1075.838421 578.720998 
L 1076.108219 579.784607 
L 1077.996799 579.786636 
L 1078.266596 571.047254 
L 1079.075988 571.047254 
L 1079.345785 565.243311 
L 1080.155177 565.243311 
L 1080.424974 562.344227 
L 1081.234366 562.344227 
L 1081.504163 556.555865 
L 1082.313555 556.555865 
L 1082.583352 553.666572 
L 1083.392744 553.666572 
L 1083.662541 550.779155 
L 1084.471932 550.779155 
L 1084.74173 545.009836 
L 1085.551121 545.009836 
L 1085.820918 539.247687 
L 1086.63031 539.247687 
L 1086.900107 533.492507 
L 1087.709499 533.492507 
L 1087.979296 530.617495 
L 1088.788688 530.617495 
L 1089.058485 522.018356 
L 1089.867877 522.018356 
L 1090.137674 516.304131 
L 1090.947066 516.304131 
L 1091.216863 513.449474 
L 1093.105443 513.449474 
L 1093.375241 510.596434 
L 1094.184632 510.596434 
L 1094.454429 502.056199 
L 1095.263821 502.056199 
L 1095.533618 493.547088 
L 1096.34301 493.547088 
L 1096.612807 485.072428 
L 1097.422199 485.072428 
L 1097.691996 479.440205 
L 1098.501388 479.440205 
L 1098.771185 471.019737 
L 1099.580577 471.019737 
L 1099.850374 480.740559 
L 1100.659765 480.740559 
L 1100.929563 488.363263 
L 1101.738954 488.363263 
L 1102.008751 490.49663 
L 1102.818143 490.49663 
L 1103.08794 492.697193 
L 1103.897332 492.697193 
L 1104.167129 499.68363 
L 1106.05571 499.699959 
L 1106.325507 497.529467 
L 1107.134899 497.529467 
L 1107.404696 501.05035 
L 1108.214087 501.05035 
L 1108.483885 498.241417 
L 1109.293276 498.241417 
L 1109.563074 500.018311 
L 1110.372465 500.018311 
L 1110.642262 489.364078 
L 1111.451654 489.364078 
L 1111.721451 478.751348 
L 1112.530843 478.751348 
L 1112.80064 468.176753 
L 1113.610032 468.176753 
L 1113.879829 460.281906 
L 1114.689221 460.281906 
L 1114.959018 452.417413 
L 1115.76841 452.417413 
L 1116.038207 447.187077 
L 1116.847598 447.187077 
L 1117.117396 439.36237 
L 1117.926787 439.36237 
L 1118.196585 436.759835 
L 1119.005976 436.759835 
L 1119.275773 431.564394 
L 1120.085165 431.564394 
L 1120.354962 426.381727 
L 1121.164354 426.381727 
L 1121.434151 427.440473 
L 1122.243543 427.440473 
L 1122.51334 436.262571 
L 1124.40192 436.259596 
L 1124.671718 434.776336 
L 1126.560298 434.776336 
L 1126.830095 430.727295 
L 1129.797865 430.727295 
L 1130.067662 433.297232 
L 1133.035431 433.297232 
L 1133.305229 430.730178 
L 1135.193809 430.730178 
L 1135.463606 431.848999 
L 1136.272998 431.848999 
L 1136.542795 435.5387 
L 1137.352187 435.5387 
L 1137.621984 434.135147 
L 1138.431376 434.135147 
L 1138.701173 440.387372 
L 1139.510565 440.387372 
L 1139.780362 446.438513 
L 1140.589754 446.438513 
L 1140.859551 450.158752 
L 1141.668942 450.158752 
L 1141.93874 453.879023 
L 1142.748131 453.879023 
L 1143.017928 451.34894 
L 1143.82732 451.34894 
L 1144.097117 446.293692 
L 1144.906509 446.293692 
L 1145.176306 441.249105 
L 1145.985698 441.249105 
L 1146.255495 433.695971 
L 1147.064887 433.695971 
L 1147.334684 431.182533 
L 1148.144076 431.182533 
L 1148.413873 428.671712 
L 1149.223264 428.671712 
L 1149.493062 426.163412 
L 1150.302453 426.163412 
L 1150.572251 423.657603 
L 1152.460831 423.657603 
L 1152.730628 418.652019 
L 1153.54002 418.652019 
L 1153.809817 416.15223 
L 1154.619209 416.15223 
L 1154.889006 418.650923 
L 1155.698398 418.650923 
L 1155.968195 419.926548 
L 1156.777587 419.926548 
L 1157.047384 418.714308 
L 1157.856775 418.714308 
L 1158.126573 416.224079 
L 1158.935964 416.224079 
L 1159.205761 418.713238 
L 1160.015153 418.713238 
L 1160.28495 416.226458 
L 1161.094342 416.226458 
L 1161.364139 413.742194 
L 1162.173531 413.742194 
L 1162.443328 406.303682 
L 1163.25272 406.303682 
L 1163.522517 407.624033 
L 1164.331909 407.624033 
L 1164.601706 400.21562 
L 1165.411097 400.21562 
L 1165.680895 390.365859 
L 1166.490286 390.365859 
L 1166.760084 387.909029 
L 1167.569475 387.909029 
L 1167.839272 383.002276 
L 1168.648664 383.002276 
L 1168.918461 375.652632 
L 1169.727853 375.652632 
L 1169.99765 370.763129 
L 1170.807042 370.763129 
L 1171.076839 365.879859 
L 1171.886231 365.879859 
L 1172.156028 356.138224 
L 1172.96542 356.138224 
L 1173.235217 348.852394 
L 1174.044608 348.852394 
L 1174.314406 344.002031 
L 1175.123797 344.002031 
L 1175.393594 340.579863 
L 1176.202986 340.579863 
L 1176.472783 339.588088 
L 1177.282175 339.588088 
L 1177.551972 343.438653 
L 1178.361364 343.438653 
L 1178.631161 341.493658 
L 1179.440553 341.493658 
L 1179.71035 338.120764 
L 1180.519742 338.120764 
L 1180.789539 341.979465 
L 1182.678119 341.979465 
L 1182.947917 341.033853 
L 1183.757308 341.033853 
L 1184.027105 340.093323 
L 1184.836497 340.093323 
L 1185.106294 337.690994 
L 1185.915686 337.690994 
L 1186.185483 335.290541 
L 1189.153253 335.290541 
L 1189.42305 337.688951 
L 1190.232441 337.688951 
L 1190.502239 336.771364 
L 1191.31163 336.771364 
L 1191.581428 335.859645 
L 1192.390819 335.859645 
L 1192.660616 333.466752 
L 1193.470008 333.466752 
L 1193.739805 331.07568 
L 1195.628386 331.07568 
L 1195.898183 333.464752 
L 1196.707575 333.464752 
L 1196.977372 328.690497 
L 1197.786763 328.690497 
L 1198.056561 326.305309 
L 1198.865952 326.305309 
L 1199.13575 321.53775 
L 1201.02433 321.53775 
L 1201.294127 319.156384 
L 1202.103519 319.156384 
L 1202.373316 314.398146 
L 1203.182708 314.398146 
L 1203.452505 312.021265 
L 1204.261897 312.021265 
L 1204.531694 309.646291 
L 1205.341086 309.646291 
L 1205.610883 307.273076 
L 1206.420274 307.273076 
L 1206.690072 302.532012 
L 1207.499463 302.532012 
L 1207.769261 304.061814 
L 1208.578652 304.061814 
L 1208.848449 304.776968 
L 1209.657841 304.776968 
L 1209.927638 303.956829 
L 1210.73703 303.956829 
L 1211.006827 301.595975 
L 1211.816219 301.595975 
L 1212.086016 307.861672 
L 1212.895408 307.861672 
L 1213.165205 310.217094 
L 1213.974597 310.217094 
L 1214.244394 311.781883 
L 1215.053785 311.781883 
L 1215.323583 310.213895 
L 1216.132974 310.213895 
L 1216.402771 316.483592 
L 1217.212163 316.483592 
L 1217.48196 315.709299 
L 1219.370541 315.709299 
L 1219.640338 312.597138 
L 1223.687296 312.597138 
L 1223.957094 314.93992 
L 1225.845674 314.93992 
L 1226.115471 312.598735 
L 1226.924863 312.598735 
L 1227.19466 310.259132 
L 1228.004052 310.259132 
L 1228.273849 309.514135 
L 1229.083241 309.514135 
L 1229.353038 306.441 
L 1230.16243 306.441 
L 1230.432227 305.71363 
L 1231.241618 305.71363 
L 1231.511416 308.04408 
L 1232.320807 308.04408 
L 1232.590604 305.715169 
L 1233.399996 305.715169 
L 1233.669793 307.328139 
L 1234.479185 307.328139 
L 1234.748982 301.96993 
L 1235.558374 301.96993 
L 1235.828171 299.646429 
L 1236.637563 299.646429 
L 1236.90736 297.324419 
L 1237.716752 297.324419 
L 1237.986549 295.00325 
L 1238.79594 295.00325 
L 1239.065738 292.683565 
L 1239.875129 292.683565 
L 1240.144927 290.365552 
L 1242.033507 290.365552 
L 1242.303304 294.318123 
L 1243.112696 294.318123 
L 1243.382493 289.688177 
L 1245.271074 289.688177 
L 1245.540871 292.001595 
L 1246.350263 292.001595 
L 1246.62006 287.379469 
L 1247.429451 287.379469 
L 1247.699249 285.07074 
L 1248.50864 285.07074 
L 1248.778437 282.76361 
L 1249.587829 282.76361 
L 1249.857626 280.457911 
L 1250.667018 280.457911 
L 1250.936815 282.122317 
L 1251.746207 282.122317 
L 1252.016004 283.787968 
L 1252.825396 283.787968 
L 1253.095193 281.48609 
L 1256.062962 281.48609 
L 1256.33276 283.786562 
L 1257.142151 283.786562 
L 1257.411948 283.160956 
L 1258.22134 283.160956 
L 1258.491137 287.136857 
L 1259.300529 287.136857 
L 1259.570326 289.430815 
L 1260.379718 289.430815 
L 1260.649515 293.412804 
L 1261.458907 293.412804 
L 1261.728704 288.832013 
L 1262.538096 288.832013 
L 1262.807893 283.665122 
L 1263.617284 283.665122 
L 1263.887082 279.098198 
L 1264.696473 279.098198 
L 1264.966271 276.816785 
L 1265.775662 276.816785 
L 1266.045459 274.536669 
L 1266.854851 274.536669 
L 1267.124648 273.972314 
L 1267.93404 273.972314 
L 1268.203837 268.86253 
L 1269.013229 268.86253 
L 1269.283026 271.136534 
L 1270.092418 271.136534 
L 1270.362215 266.592503 
L 1272.250795 266.592503 
L 1272.520593 266.050452 
L 1274.409173 266.050452 
L 1274.67897 263.781859 
L 1276.567551 263.781859 
L 1276.837348 263.246564 
L 1278.725929 263.246564 
L 1278.995726 260.980651 
L 1279.805117 260.980651 
L 1280.074915 258.715965 
L 1280.884306 258.715965 
L 1281.154104 260.979867 
L 1281.963495 260.979867 
L 1282.233292 258.717178 
L 1283.042684 258.717178 
L 1283.312481 256.455692 
L 1284.121873 256.455692 
L 1284.39167 254.19563 
L 1286.280251 254.19563 
L 1286.550048 253.687809 
L 1290.597006 253.687665 
L 1290.866803 249.186016 
L 1291.676195 249.186016 
L 1291.945992 251.435498 
L 1292.755384 251.435498 
L 1293.025181 246.939967 
L 1293.834573 246.939967 
L 1294.10437 242.44943 
L 1294.913762 242.44943 
L 1295.183559 240.205856 
L 1295.99295 240.205856 
L 1296.262748 239.299174 
L 1297.072139 239.299174 
L 1297.341937 237.058944 
L 1298.151328 237.058944 
L 1298.421125 239.298421 
L 1299.230517 239.298421 
L 1299.500314 243.330176 
L 1300.309706 243.330176 
L 1300.579503 241.092775 
L 1301.388895 241.092775 
L 1301.658692 243.329434 
L 1303.547273 243.329434 
L 1303.81707 245.565353 
L 1305.70565 245.564618 
L 1305.975447 247.371451 
L 1306.784839 247.371451 
L 1307.054636 242.906972 
L 1307.864028 242.906972 
L 1308.133825 240.676358 
L 1310.022406 240.676358 
L 1310.292203 238.447028 
L 1311.101595 238.447028 
L 1311.371392 240.675629 
L 1313.259972 240.675629 
L 1313.52977 238.448101 
L 1314.339161 238.448101 
L 1314.608958 238.044324 
L 1318.655917 238.044324 
L 1318.925714 235.81933 
L 1319.735106 235.81933 
L 1320.004903 237.643254 
L 1320.814294 237.643254 
L 1321.084092 235.419517 
L 1321.893483 235.419517 
L 1322.163281 235.024327 
L 1322.972672 235.024327 
L 1323.242469 232.8029 
L 1325.13105 232.8029 
L 1325.400847 228.363573 
L 1326.210239 228.363573 
L 1326.480036 230.581994 
L 1327.289428 230.581994 
L 1327.559225 227.986697 
L 1328.368616 227.986697 
L 1328.638414 225.774872 
L 1329.447805 225.774872 
L 1329.717603 223.562867 
L 1330.526994 223.562867 
L 1330.796791 223.2 
L 1330.796791 223.2 
" clip-path="url(#p6e32834c69)" style="fill: none; stroke: #0000ff; stroke-width: 1.5; stroke-linecap: square"/>
   </g>
   <g id="patch_9">
    <path d="M 860.823529 1281.6 
L 860.823529 172.8 
" style="fill: none; stroke: #000000; stroke-width: 0.8; stroke-linejoin: miter; stroke-linecap: square"/>
   </g>
   <g id="patch_10">
    <path d="M 1353.176471 1281.6 
L 1353.176471 172.8 
" style="fill: none; stroke: #000000; stroke-width: 0.8; stroke-linejoin: miter; stroke-linecap: square"/>
   </g>
   <g id="patch_11">
    <path d="M 860.823529 1281.6 
L 1353.176471 1281.6 
" style="fill: none; stroke: #000000; stroke-width: 0.8; stroke-linejoin: miter; stroke-linecap: square"/>
   </g>
   <g id="patch_12">
    <path d="M 860.823529 172.8 
L 1353.176471 172.8 
" style="fill: none; stroke: #000000; stroke-width: 0.8; stroke-linejoin: miter; stroke-linecap: square"/>
   </g>
   <g id="legend_2">
    <g id="patch_13">
     <path d="M 1262.134283 195.478125 
L 1346.176471 195.478125 
Q 1348.176471 195.478125 1348.176471 193.478125 
L 1348.176471 179.8 
Q 1348.176471 177.8 1346.176471 177.8 
L 1262.134283 177.8 
Q 1260.134283 177.8 1260.134283 179.8 
L 1260.134283 193.478125 
Q 1260.134283 195.478125 1262.134283 195.478125 
z
" style="fill: #ffffff; opacity: 0.8; stroke: #cccccc; stroke-linejoin: miter"/>
    </g>
    <g id="line2d_30">
     <path d="M 1264.134283 185.898437 
L 1274.134283 185.898437 
L 1284.134283 185.898437 
" style="fill: none; stroke: #0000ff; stroke-width: 1.5; stroke-linecap: square"/>
    </g>
    <g id="text_28">
     <!-- O2 reward -->
     <g transform="translate(1292.134283 189.398437) scale(0.1 -0.1)">
      <use xlink:href="#DejaVuSans-4f"/>
      <use xlink:href="#DejaVuSans-32" x="78.710938"/>
      <use xlink:href="#DejaVuSans-20" x="142.333984"/>
      <use xlink:href="#DejaVuSans-72" x="174.121094"/>
      <use xlink:href="#DejaVuSans-65" x="212.984375"/>
      <use xlink:href="#DejaVuSans-77" x="274.507812"/>
      <use xlink:href="#DejaVuSans-61" x="356.294922"/>
      <use xlink:href="#DejaVuSans-72" x="417.574219"/>
      <use xlink:href="#DejaVuSans-64" x="456.9375"/>
     </g>
    </g>
   </g>
  </g>
  <g id="axes_3">
   <g id="patch_14">
    <path d="M 1451.647059 1281.6 
L 1944 1281.6 
L 1944 172.8 
L 1451.647059 172.8 
z
" style="fill: #ffffff"/>
   </g>
   <g id="matplotlib.axis_5">
    <g id="xtick_15">
     <g id="line2d_31">
      <g>
       <use xlink:href="#m349aecd584" x="1473.756941" y="1281.6" style="stroke: #000000; stroke-width: 0.8"/>
      </g>
     </g>
     <g id="text_29">
      <!-- 0 -->
      <g transform="translate(1470.575691 1296.198437) scale(0.1 -0.1)">
       <use xlink:href="#DejaVuSans-30"/>
      </g>
     </g>
    </g>
    <g id="xtick_16">
     <g id="line2d_32">
      <g>
       <use xlink:href="#m349aecd584" x="1541.206245" y="1281.6" style="stroke: #000000; stroke-width: 0.8"/>
      </g>
     </g>
     <g id="text_30">
      <!-- 250 -->
      <g transform="translate(1531.662495 1296.198437) scale(0.1 -0.1)">
       <use xlink:href="#DejaVuSans-32"/>
       <use xlink:href="#DejaVuSans-35" x="63.623047"/>
       <use xlink:href="#DejaVuSans-30" x="127.246094"/>
      </g>
     </g>
    </g>
    <g id="xtick_17">
     <g id="line2d_33">
      <g>
       <use xlink:href="#m349aecd584" x="1608.655549" y="1281.6" style="stroke: #000000; stroke-width: 0.8"/>
      </g>
     </g>
     <g id="text_31">
      <!-- 500 -->
      <g transform="translate(1599.111799 1296.198437) scale(0.1 -0.1)">
       <use xlink:href="#DejaVuSans-35"/>
       <use xlink:href="#DejaVuSans-30" x="63.623047"/>
       <use xlink:href="#DejaVuSans-30" x="127.246094"/>
      </g>
     </g>
    </g>
    <g id="xtick_18">
     <g id="line2d_34">
      <g>
       <use xlink:href="#m349aecd584" x="1676.104853" y="1281.6" style="stroke: #000000; stroke-width: 0.8"/>
      </g>
     </g>
     <g id="text_32">
      <!-- 750 -->
      <g transform="translate(1666.561103 1296.198437) scale(0.1 -0.1)">
       <use xlink:href="#DejaVuSans-37"/>
       <use xlink:href="#DejaVuSans-35" x="63.623047"/>
       <use xlink:href="#DejaVuSans-30" x="127.246094"/>
      </g>
     </g>
    </g>
    <g id="xtick_19">
     <g id="line2d_35">
      <g>
       <use xlink:href="#m349aecd584" x="1743.554158" y="1281.6" style="stroke: #000000; stroke-width: 0.8"/>
      </g>
     </g>
     <g id="text_33">
      <!-- 1000 -->
      <g transform="translate(1730.829158 1296.198437) scale(0.1 -0.1)">
       <use xlink:href="#DejaVuSans-31"/>
       <use xlink:href="#DejaVuSans-30" x="63.623047"/>
       <use xlink:href="#DejaVuSans-30" x="127.246094"/>
       <use xlink:href="#DejaVuSans-30" x="190.869141"/>
      </g>
     </g>
    </g>
    <g id="xtick_20">
     <g id="line2d_36">
      <g>
       <use xlink:href="#m349aecd584" x="1811.003462" y="1281.6" style="stroke: #000000; stroke-width: 0.8"/>
      </g>
     </g>
     <g id="text_34">
      <!-- 1250 -->
      <g transform="translate(1798.278462 1296.198437) scale(0.1 -0.1)">
       <use xlink:href="#DejaVuSans-31"/>
       <use xlink:href="#DejaVuSans-32" x="63.623047"/>
       <use xlink:href="#DejaVuSans-35" x="127.246094"/>
       <use xlink:href="#DejaVuSans-30" x="190.869141"/>
      </g>
     </g>
    </g>
    <g id="xtick_21">
     <g id="line2d_37">
      <g>
       <use xlink:href="#m349aecd584" x="1878.452766" y="1281.6" style="stroke: #000000; stroke-width: 0.8"/>
      </g>
     </g>
     <g id="text_35">
      <!-- 1500 -->
      <g transform="translate(1865.727766 1296.198437) scale(0.1 -0.1)">
       <use xlink:href="#DejaVuSans-31"/>
       <use xlink:href="#DejaVuSans-35" x="63.623047"/>
       <use xlink:href="#DejaVuSans-30" x="127.246094"/>
       <use xlink:href="#DejaVuSans-30" x="190.869141"/>
      </g>
     </g>
    </g>
   </g>
   <g id="matplotlib.axis_6">
    <g id="ytick_13">
     <g id="line2d_38">
      <g>
       <use xlink:href="#mfd1706532f" x="1451.647059" y="1231.2" style="stroke: #000000; stroke-width: 0.8"/>
      </g>
     </g>
     <g id="text_36">
      <!-- 0 -->
      <g transform="translate(1438.284559 1234.999219) scale(0.1 -0.1)">
       <use xlink:href="#DejaVuSans-30"/>
      </g>
     </g>
    </g>
    <g id="ytick_14">
     <g id="line2d_39">
      <g>
       <use xlink:href="#mfd1706532f" x="1451.647059" y="992.810248" style="stroke: #000000; stroke-width: 0.8"/>
      </g>
     </g>
     <g id="text_37">
      <!-- 5 -->
      <g transform="translate(1438.284559 996.609467) scale(0.1 -0.1)">
       <use xlink:href="#DejaVuSans-35"/>
      </g>
     </g>
    </g>
    <g id="ytick_15">
     <g id="line2d_40">
      <g>
       <use xlink:href="#mfd1706532f" x="1451.647059" y="754.420496" style="stroke: #000000; stroke-width: 0.8"/>
      </g>
     </g>
     <g id="text_38">
      <!-- 10 -->
      <g transform="translate(1431.922059 758.219715) scale(0.1 -0.1)">
       <use xlink:href="#DejaVuSans-31"/>
       <use xlink:href="#DejaVuSans-30" x="63.623047"/>
      </g>
     </g>
    </g>
    <g id="ytick_16">
     <g id="line2d_41">
      <g>
       <use xlink:href="#mfd1706532f" x="1451.647059" y="516.030744" style="stroke: #000000; stroke-width: 0.8"/>
      </g>
     </g>
     <g id="text_39">
      <!-- 15 -->
      <g transform="translate(1431.922059 519.829963) scale(0.1 -0.1)">
       <use xlink:href="#DejaVuSans-31"/>
       <use xlink:href="#DejaVuSans-35" x="63.623047"/>
      </g>
     </g>
    </g>
    <g id="ytick_17">
     <g id="line2d_42">
      <g>
       <use xlink:href="#mfd1706532f" x="1451.647059" y="277.640993" style="stroke: #000000; stroke-width: 0.8"/>
      </g>
     </g>
     <g id="text_40">
      <!-- 20 -->
      <g transform="translate(1431.922059 281.440211) scale(0.1 -0.1)">
       <use xlink:href="#DejaVuSans-32"/>
       <use xlink:href="#DejaVuSans-30" x="63.623047"/>
      </g>
     </g>
    </g>
   </g>
   <g id="line2d_43">
    <path d="M 1474.026738 1231.2 
L 1485.358221 1231.2 
L 1485.628018 1212.605467 
L 1486.43741 1212.605467 
L 1486.707207 1197.7471 
L 1487.516599 1197.7471 
L 1487.786396 1185.108659 
L 1488.595788 1185.108659 
L 1488.865585 1166.378036 
L 1489.674977 1166.378036 
L 1489.944774 1160.079455 
L 1490.754165 1160.079455 
L 1491.023963 1135.55822 
L 1491.833354 1135.55822 
L 1492.103152 1142.682622 
L 1492.912543 1142.682622 
L 1493.18234 1128.727591 
L 1493.991732 1128.727591 
L 1494.261529 1114.968162 
L 1495.070921 1114.968162 
L 1495.340718 1105.634471 
L 1496.15011 1105.634471 
L 1496.419907 1089.826601 
L 1497.229299 1089.826601 
L 1497.499096 1074.987919 
L 1498.308487 1074.987919 
L 1498.578285 1065.792773 
L 1500.466865 1065.792773 
L 1500.736662 1061.745151 
L 1501.546054 1061.745151 
L 1501.815851 1052.881942 
L 1502.625243 1052.881942 
L 1502.89504 1047.945956 
L 1504.783621 1047.945956 
L 1505.053418 1044.261181 
L 1505.86281 1044.261181 
L 1506.132607 1036.188724 
L 1508.021187 1036.188724 
L 1508.290985 1032.807146 
L 1509.100376 1032.807146 
L 1509.370173 1018.551574 
L 1510.179565 1018.551574 
L 1510.449362 998.548244 
L 1511.258754 998.548244 
L 1511.528551 984.53465 
L 1512.337943 984.53465 
L 1512.60774 975.209745 
L 1513.417132 975.209745 
L 1513.686929 949.198082 
L 1514.496321 949.198082 
L 1514.766118 936.2567 
L 1515.575509 936.2567 
L 1515.845307 932.194027 
L 1516.654698 932.194027 
L 1516.924495 919.523262 
L 1517.733887 919.523262 
L 1518.003684 911.084473 
L 1518.813076 911.084473 
L 1519.082873 903.883464 
L 1519.892265 903.883464 
L 1520.162062 891.295175 
L 1520.971454 891.295175 
L 1521.241251 886.165608 
L 1522.050643 886.165608 
L 1522.32044 874.697512 
L 1524.20902 874.615369 
L 1524.478818 877.858783 
L 1525.288209 877.858783 
L 1525.558006 879.867997 
L 1526.367398 879.867997 
L 1526.637195 875.162531 
L 1527.446587 875.162531 
L 1527.716384 877.137007 
L 1528.525776 877.137007 
L 1528.795573 874.3724 
L 1529.604965 874.3724 
L 1529.874762 877.476827 
L 1530.684154 877.476827 
L 1530.953951 874.565539 
L 1532.842531 874.565539 
L 1533.112328 871.598711 
L 1533.92172 871.598711 
L 1534.191517 862.840839 
L 1535.000909 862.840839 
L 1535.270706 855.245786 
L 1536.080098 855.245786 
L 1536.349895 859.879449 
L 1537.159287 859.879449 
L 1537.429084 861.734821 
L 1540.396853 861.734821 
L 1540.666651 853.092857 
L 1541.476042 853.092857 
L 1541.745839 836.834033 
L 1542.555231 836.834033 
L 1542.825028 828.94958 
L 1543.63442 828.94958 
L 1543.904217 823.379469 
L 1544.713609 823.379469 
L 1544.983406 819.727943 
L 1545.792798 819.727943 
L 1546.062595 811.007653 
L 1546.871987 811.007653 
L 1547.141784 805.157062 
L 1547.951175 805.157062 
L 1548.220973 800.616434 
L 1549.030364 800.616434 
L 1549.300161 791.321703 
L 1550.109553 791.321703 
L 1550.37935 785.81742 
L 1551.188742 785.81742 
L 1551.458539 778.223518 
L 1552.267931 778.223518 
L 1552.537728 776.138016 
L 1553.34712 776.138016 
L 1553.616917 767.572184 
L 1554.426309 767.572184 
L 1554.696106 760.474663 
L 1555.505497 760.474663 
L 1555.775295 753.502336 
L 1556.584686 753.502336 
L 1556.854484 746.807519 
L 1558.743064 746.807519 
L 1559.012861 742.153243 
L 1559.822253 742.153243 
L 1560.09205 738.112149 
L 1560.901442 738.112149 
L 1561.171239 740.006857 
L 1561.980631 740.006857 
L 1562.250428 736.427871 
L 1563.05982 736.427871 
L 1563.329617 730.208756 
L 1564.139008 730.208756 
L 1564.408806 725.746288 
L 1565.218197 725.746288 
L 1565.487995 721.246601 
L 1566.297386 721.246601 
L 1566.567183 715.291255 
L 1567.376575 715.291255 
L 1567.646372 702.607366 
L 1568.455764 702.607366 
L 1568.725561 701.188384 
L 1569.534953 701.188384 
L 1569.80475 699.20363 
L 1570.614142 699.20363 
L 1570.883939 691.413825 
L 1571.69333 691.413825 
L 1571.963128 685.842004 
L 1572.772519 685.842004 
L 1573.042317 682.001749 
L 1573.851708 682.001749 
L 1574.121505 675.102721 
L 1574.930897 675.102721 
L 1575.200694 667.241491 
L 1576.010086 667.241491 
L 1576.279883 663.060816 
L 1577.089275 663.060816 
L 1577.359072 662.293295 
L 1578.168464 662.293295 
L 1578.438261 660.066404 
L 1579.247653 660.066404 
L 1579.51745 657.074392 
L 1580.326841 657.074392 
L 1580.596639 652.69399 
L 1581.40603 652.69399 
L 1581.675828 651.263466 
L 1582.485219 651.263466 
L 1582.755016 645.090564 
L 1583.564408 645.090564 
L 1583.834205 642.978728 
L 1584.643597 642.978728 
L 1584.913394 639.773152 
L 1585.722786 639.773152 
L 1585.992583 636.58408 
L 1586.801975 636.58408 
L 1587.071772 633.060945 
L 1588.960352 633.060945 
L 1589.23015 630.970673 
L 1590.039541 630.970673 
L 1590.309338 629.924909 
L 1591.11873 629.924909 
L 1591.388527 625.426094 
L 1593.277108 625.426094 
L 1593.546905 626.462449 
L 1594.356297 626.462449 
L 1594.626094 626.812191 
L 1595.435486 626.812191 
L 1595.705283 624.816847 
L 1596.514674 624.816847 
L 1596.784472 618.397157 
L 1597.593863 618.397157 
L 1597.863661 615.813068 
L 1598.673052 615.813068 
L 1598.942849 616.410185 
L 1599.752241 616.410185 
L 1600.022038 610.121566 
L 1600.83143 610.121566 
L 1601.101227 604.993459 
L 1601.910619 604.993459 
L 1602.180416 604.161139 
L 1602.989808 604.161139 
L 1603.259605 601.763023 
L 1604.068997 601.763023 
L 1604.338794 598.356214 
L 1605.148185 598.356214 
L 1605.417983 597.831412 
L 1606.227374 597.831412 
L 1606.497171 594.245563 
L 1607.306563 594.245563 
L 1607.57636 591.44664 
L 1608.385752 591.44664 
L 1608.655549 586.853649 
L 1609.464941 586.853649 
L 1609.734738 584.135564 
L 1610.54413 584.135564 
L 1610.813927 580.508309 
L 1611.623319 580.508309 
L 1611.893116 577.178368 
L 1612.702507 577.178368 
L 1612.972305 574.565671 
L 1613.781696 574.565671 
L 1614.051494 574.123325 
L 1614.860885 574.123325 
L 1615.130682 570.883788 
L 1615.940074 570.883788 
L 1616.209871 566.394142 
L 1617.019263 566.394142 
L 1617.28906 562.47133 
L 1618.098452 562.47133 
L 1618.368249 557.062117 
L 1619.177641 557.062117 
L 1619.447438 552.171194 
L 1620.25683 552.171194 
L 1620.526627 540.644053 
L 1621.336018 540.644053 
L 1621.605816 532.507121 
L 1622.415207 532.507121 
L 1622.685004 526.487868 
L 1623.494396 526.487868 
L 1623.764193 522.717499 
L 1624.573585 522.717499 
L 1624.843382 517.35704 
L 1625.652774 517.35704 
L 1625.922571 513.50975 
L 1626.731963 513.50975 
L 1627.00176 504.578118 
L 1627.811152 504.578118 
L 1628.080949 499.640159 
L 1628.89034 499.640159 
L 1629.160138 494.65075 
L 1629.969529 494.65075 
L 1630.239327 490.656095 
L 1631.048718 490.656095 
L 1631.318515 485.775313 
L 1632.127907 485.775313 
L 1632.397704 481.143715 
L 1633.207096 481.143715 
L 1633.476893 476.016579 
L 1634.286285 476.016579 
L 1634.556082 470.708606 
L 1635.365474 470.708606 
L 1635.635271 469.036399 
L 1636.444663 469.036399 
L 1636.71446 465.95363 
L 1637.523851 465.95363 
L 1637.793649 464.852363 
L 1638.60304 464.852363 
L 1638.872838 463.527546 
L 1639.682229 463.527546 
L 1639.952026 461.343007 
L 1640.761418 461.343007 
L 1641.031215 457.881032 
L 1641.840607 457.881032 
L 1642.110404 456.58391 
L 1642.919796 456.58391 
L 1643.189593 454.445049 
L 1643.998985 454.445049 
L 1644.268782 452.537677 
L 1646.157362 452.537677 
L 1646.42716 452.327981 
L 1647.236551 452.327981 
L 1647.506348 450.84382 
L 1648.31574 450.84382 
L 1648.585537 450.203619 
L 1649.394929 450.203619 
L 1649.664726 448.740349 
L 1650.474118 448.740349 
L 1650.743915 447.701821 
L 1651.553307 447.701821 
L 1651.823104 445.338152 
L 1652.632496 445.338152 
L 1652.902293 441.408931 
L 1653.711684 441.408931 
L 1653.981482 440.577349 
L 1654.790873 440.577349 
L 1655.060671 436.426158 
L 1655.870062 436.426158 
L 1656.139859 433.781666 
L 1656.949251 433.781666 
L 1657.219048 432.138402 
L 1658.02844 432.138402 
L 1658.298237 429.352564 
L 1659.107629 429.352564 
L 1659.377426 425.445608 
L 1660.186818 425.445608 
L 1660.456615 422.394132 
L 1661.266007 422.394132 
L 1661.535804 417.764358 
L 1662.345195 417.764358 
L 1662.614993 415.864954 
L 1663.424384 415.864954 
L 1663.694181 413.826449 
L 1664.503573 413.826449 
L 1664.77337 409.215423 
L 1665.582762 409.215423 
L 1665.852559 408.288351 
L 1666.661951 408.288351 
L 1666.931748 407.231067 
L 1667.74114 407.231067 
L 1668.010937 404.595273 
L 1668.820329 404.595273 
L 1669.090126 402.374901 
L 1669.899517 402.374901 
L 1670.169315 399.081081 
L 1670.978706 399.081081 
L 1671.248504 395.625933 
L 1672.057895 395.625933 
L 1672.327692 394.10332 
L 1673.137084 394.10332 
L 1673.406881 391.553883 
L 1674.216273 391.553883 
L 1674.48607 390.232963 
L 1675.295462 390.232963 
L 1675.565259 390.713849 
L 1676.374651 390.713849 
L 1676.644448 386.955398 
L 1677.45384 386.955398 
L 1677.723637 386.791952 
L 1678.533028 386.791952 
L 1678.802826 384.953281 
L 1680.691406 384.953281 
L 1680.961203 382.850876 
L 1681.770595 382.850876 
L 1682.040392 381.135916 
L 1682.849784 381.135916 
L 1683.119581 378.963229 
L 1683.928973 378.963229 
L 1684.19877 378.215879 
L 1685.008162 378.215879 
L 1685.277959 375.335423 
L 1686.08735 375.335423 
L 1686.357148 373.257862 
L 1687.166539 373.257862 
L 1687.436337 371.108697 
L 1688.245728 371.108697 
L 1688.515525 366.401694 
L 1689.324917 366.401694 
L 1689.594714 363.154553 
L 1691.483295 363.151938 
L 1691.753092 362.218237 
L 1692.562484 362.218237 
L 1692.832281 363.636747 
L 1693.641673 363.636747 
L 1693.91147 360.738114 
L 1694.720861 360.738114 
L 1694.990659 362.652439 
L 1695.80005 362.652439 
L 1696.069848 360.360169 
L 1696.879239 360.360169 
L 1697.149036 360.236179 
L 1697.958428 360.236179 
L 1698.228225 360.857159 
L 1700.116806 360.797651 
L 1700.386603 361.308981 
L 1701.195995 361.308981 
L 1701.465792 358.470935 
L 1702.275183 358.470935 
L 1702.544981 356.63916 
L 1703.354372 356.63916 
L 1703.62417 355.909792 
L 1704.433561 355.909792 
L 1704.703358 354.742378 
L 1705.51275 354.742378 
L 1705.782547 353.657695 
L 1706.591939 353.657695 
L 1706.861736 350.879118 
L 1708.750317 350.879118 
L 1709.020114 349.787213 
L 1709.829506 349.787213 
L 1710.099303 348.055706 
L 1710.908694 348.055706 
L 1711.178492 347.34706 
L 1711.987883 347.34706 
L 1712.257681 346.579338 
L 1713.067072 346.579338 
L 1713.336869 344.878233 
L 1714.146261 344.878233 
L 1714.416058 343.843378 
L 1715.22545 343.843378 
L 1715.495247 343.124992 
L 1716.304639 343.124992 
L 1716.574436 342.427456 
L 1718.463017 342.378648 
L 1718.732814 341.022445 
L 1720.621394 340.974527 
L 1720.891191 339.264659 
L 1721.700583 339.264659 
L 1721.97038 338.248245 
L 1722.779772 338.248245 
L 1723.049569 337.218959 
L 1723.858961 337.218959 
L 1724.128758 336.808694 
L 1724.93815 336.808694 
L 1725.207947 335.4613 
L 1726.017339 335.4613 
L 1726.287136 334.458187 
L 1727.096527 334.458187 
L 1727.366325 335.131377 
L 1728.175716 335.131377 
L 1728.445514 334.176254 
L 1729.254905 334.176254 
L 1729.524702 332.163026 
L 1730.334094 332.163026 
L 1730.603891 331.205522 
L 1731.413283 331.205522 
L 1731.68308 331.870904 
L 1732.492472 331.870904 
L 1732.762269 330.246748 
L 1733.571661 330.246748 
L 1733.841458 329.572886 
L 1735.730038 329.559741 
L 1735.999836 328.892205 
L 1737.888416 328.878536 
L 1738.158213 326.946566 
L 1740.046794 326.936854 
L 1740.316591 325.658698 
L 1741.125983 325.658698 
L 1741.39578 325.013243 
L 1742.205172 325.013243 
L 1742.474969 324.369987 
L 1743.28436 324.369987 
L 1743.554158 323.727264 
L 1744.363549 323.727264 
L 1744.633347 321.495099 
L 1746.521927 321.495099 
L 1746.791724 320.539185 
L 1747.601116 320.539185 
L 1747.870913 319.905129 
L 1749.759494 319.903097 
L 1750.029291 318.323365 
L 1750.838683 318.323365 
L 1751.10848 317.693142 
L 1751.917871 317.693142 
L 1752.187669 317.064264 
L 1752.99706 317.064264 
L 1753.266857 315.80908 
L 1754.076249 315.80908 
L 1754.346046 313.924898 
L 1755.155438 313.924898 
L 1755.425235 312.993344 
L 1756.234627 312.993344 
L 1756.504424 311.738598 
L 1757.313816 311.738598 
L 1757.583613 310.19109 
L 1758.393005 310.19109 
L 1758.662802 308.657939 
L 1759.472193 308.657939 
L 1759.741991 308.341643 
L 1760.551382 308.341643 
L 1760.82118 308.987967 
L 1761.630571 308.987967 
L 1761.900368 307.428476 
L 1763.788949 307.458772 
L 1764.058746 305.908075 
L 1764.868138 305.908075 
L 1765.137935 305.023051 
L 1767.026516 305.023051 
L 1767.296313 302.863875 
L 1768.105704 302.863875 
L 1768.375502 301.934328 
L 1769.184893 301.934328 
L 1769.454691 300.406099 
L 1770.264082 300.406099 
L 1770.533879 299.480376 
L 1771.343271 299.480376 
L 1771.613068 298.568631 
L 1772.42246 298.568631 
L 1772.692257 295.84138 
L 1773.501649 295.84138 
L 1773.771446 294.315026 
L 1774.580838 294.315026 
L 1774.850635 293.3961 
L 1775.660026 293.3961 
L 1775.929824 292.492936 
L 1776.739215 292.492936 
L 1777.009013 291.876787 
L 1777.818404 291.876787 
L 1778.088201 291.245512 
L 1778.897593 291.245512 
L 1779.16739 289.734472 
L 1781.055971 289.718094 
L 1781.325768 288.82308 
L 1784.293537 288.806478 
L 1784.563335 287.894251 
L 1785.372726 287.894251 
L 1785.642524 286.999906 
L 1786.451915 286.999906 
L 1786.721712 285.178612 
L 1787.531104 285.178612 
L 1787.800901 284.567369 
L 1788.610293 284.567369 
L 1788.88009 282.162791 
L 1789.689482 282.162791 
L 1789.959279 280.984365 
L 1790.768671 280.984365 
L 1791.038468 279.204006 
L 1791.84786 279.204006 
L 1792.117657 277.722254 
L 1794.006237 277.722254 
L 1794.276034 277.117536 
L 1795.085426 277.117536 
L 1795.355223 276.243072 
L 1796.164615 276.243072 
L 1796.434412 275.661193 
L 1797.243804 275.661193 
L 1797.513601 273.896626 
L 1799.402182 273.896626 
L 1799.671979 273.505278 
L 1800.48137 273.505278 
L 1800.751168 272.031327 
L 1801.560559 272.031327 
L 1801.830357 272.610212 
L 1802.639748 272.610212 
L 1802.909545 271.717669 
L 1804.798126 271.819153 
L 1805.067923 270.952086 
L 1805.877315 270.952086 
L 1806.147112 270.480699 
L 1808.035693 270.480699 
L 1808.30549 271.056686 
L 1811.273259 271.029771 
L 1811.543056 270.427882 
L 1813.431637 270.427882 
L 1813.701434 269.826999 
L 1814.510826 269.826999 
L 1814.780623 268.966045 
L 1815.590015 268.966045 
L 1815.859812 268.365954 
L 1816.669203 268.365954 
L 1816.939001 266.880899 
L 1817.748392 266.880899 
L 1818.01819 265.142312 
L 1818.827581 265.142312 
L 1819.097378 264.288522 
L 1819.90677 264.288522 
L 1820.176567 263.435344 
L 1820.985959 263.435344 
L 1821.255756 261.818739 
L 1822.065148 261.818739 
L 1822.334945 261.625525 
L 1823.144337 261.625525 
L 1823.414134 259.449558 
L 1824.223526 259.449558 
L 1824.493323 257.879237 
L 1825.302714 257.879237 
L 1825.572512 257.446495 
L 1826.381903 257.446495 
L 1826.6517 258.011194 
L 1827.461092 258.011194 
L 1827.730889 256.453536 
L 1828.540281 256.453536 
L 1828.810078 255.571936 
L 1829.61947 255.571936 
L 1829.889267 255.00812 
L 1830.698659 255.00812 
L 1830.968456 255.148088 
L 1831.777848 255.148088 
L 1832.047645 254.584273 
L 1832.857036 254.584273 
L 1833.126834 254.16391 
L 1833.936225 254.16391 
L 1834.206023 253.600095 
L 1835.015414 253.600095 
L 1835.285211 253.745277 
L 1836.094603 253.745277 
L 1836.3644 252.766662 
L 1838.252981 252.766662 
L 1838.522778 252.352704 
L 1840.411359 252.352704 
L 1840.681156 251.790151 
L 1842.569736 251.790151 
L 1842.839534 251.228445 
L 1843.648925 251.228445 
L 1843.918722 250.667581 
L 1844.728114 250.667581 
L 1844.997911 250.107551 
L 1846.886492 250.107551 
L 1847.156289 248.430312 
L 1847.965681 248.430312 
L 1848.235478 247.872324 
L 1849.04487 247.872324 
L 1849.314667 246.162358 
L 1850.124058 246.162358 
L 1850.393856 244.455989 
L 1851.203247 244.455989 
L 1851.473044 243.347977 
L 1853.361625 243.347977 
L 1853.631422 242.79397 
L 1855.520003 242.79397 
L 1855.7898 244.06118 
L 1856.599192 244.06118 
L 1856.868989 244.224271 
L 1857.67838 244.224271 
L 1857.948178 244.774434 
L 1858.757569 244.774434 
L 1859.027367 245.323842 
L 1859.836758 245.323842 
L 1860.106555 246.206268 
L 1860.915947 246.206268 
L 1861.185744 245.658347 
L 1861.995136 245.658347 
L 1862.264933 244.73307 
L 1863.074325 244.73307 
L 1863.344122 245.279529 
L 1864.153514 245.279529 
L 1864.423311 244.187334 
L 1865.232703 244.187334 
L 1865.5025 244.732355 
L 1866.311891 244.732355 
L 1866.581689 245.270512 
L 1867.39108 245.270512 
L 1867.660877 245.813768 
L 1869.549458 245.813768 
L 1869.819255 244.729872 
L 1870.628647 244.729872 
L 1870.898444 245.27052 
L 1872.787025 245.27052 
L 1873.056822 244.757268 
L 1873.866213 244.757268 
L 1874.136011 245.297059 
L 1874.945402 245.297059 
L 1875.2152 245.835999 
L 1876.024591 245.835999 
L 1876.294388 245.2979 
L 1878.182969 245.2979 
L 1878.452766 244.761028 
L 1879.262158 244.761028 
L 1879.531955 245.331198 
L 1880.341347 245.331198 
L 1880.611144 244.260699 
L 1881.420536 244.260699 
L 1881.690333 243.76484 
L 1883.578913 243.76564 
L 1883.84871 242.742939 
L 1884.658102 242.742939 
L 1884.927899 243.274565 
L 1885.737291 243.274565 
L 1886.007088 242.212858 
L 1886.81648 242.212858 
L 1887.086277 241.683172 
L 1887.895669 241.683172 
L 1888.165466 240.096406 
L 1888.974858 240.096406 
L 1889.244655 239.09381 
L 1890.054046 239.09381 
L 1890.323844 238.621619 
L 1891.133235 238.621619 
L 1891.403033 237.68683 
L 1892.212424 237.68683 
L 1892.482221 236.697934 
L 1893.291613 236.697934 
L 1893.56141 235.126883 
L 1894.370802 235.126883 
L 1894.640599 235.649479 
L 1896.52918 235.716286 
L 1896.798977 235.195465 
L 1897.608369 235.195465 
L 1897.878166 234.674645 
L 1898.687557 234.674645 
L 1898.957355 234.153824 
L 1899.766746 234.153824 
L 1900.036544 233.633695 
L 1900.845935 233.633695 
L 1901.115732 233.114254 
L 1901.925124 233.114254 
L 1902.194921 232.077423 
L 1903.004313 232.077423 
L 1903.27411 231.041638 
L 1904.083502 231.041638 
L 1904.353299 230.523929 
L 1907.321068 230.601829 
L 1907.590866 230.086118 
L 1908.400257 230.086118 
L 1908.670054 229.571062 
L 1910.558635 229.571062 
L 1910.828432 228.542326 
L 1911.637824 228.542326 
L 1911.907621 227.515604 
L 1912.717013 227.515604 
L 1912.98681 227.089025 
L 1913.796202 227.089025 
L 1914.065999 226.065495 
L 1914.87539 226.065495 
L 1915.145188 225.043844 
L 1915.954579 225.043844 
L 1916.224377 224.532718 
L 1917.033768 224.532718 
L 1917.303565 224.11859 
L 1919.192146 224.11859 
L 1919.461943 224.626662 
L 1920.271335 224.626662 
L 1920.541132 223.707474 
L 1921.350524 223.707474 
L 1921.620321 223.2 
L 1921.620321 223.2 
" clip-path="url(#pda6d190097)" style="fill: none; stroke: #0000ff; stroke-width: 1.5; stroke-linecap: square"/>
   </g>
   <g id="patch_15">
    <path d="M 1451.647059 1281.6 
L 1451.647059 172.8 
" style="fill: none; stroke: #000000; stroke-width: 0.8; stroke-linejoin: miter; stroke-linecap: square"/>
   </g>
   <g id="patch_16">
    <path d="M 1944 1281.6 
L 1944 172.8 
" style="fill: none; stroke: #000000; stroke-width: 0.8; stroke-linejoin: miter; stroke-linecap: square"/>
   </g>
   <g id="patch_17">
    <path d="M 1451.647059 1281.6 
L 1944 1281.6 
" style="fill: none; stroke: #000000; stroke-width: 0.8; stroke-linejoin: miter; stroke-linecap: square"/>
   </g>
   <g id="patch_18">
    <path d="M 1451.647059 172.8 
L 1944 172.8 
" style="fill: none; stroke: #000000; stroke-width: 0.8; stroke-linejoin: miter; stroke-linecap: square"/>
   </g>
   <g id="legend_3">
    <g id="patch_19">
     <path d="M 1852.957813 195.478125 
L 1937 195.478125 
Q 1939 195.478125 1939 193.478125 
L 1939 179.8 
Q 1939 177.8 1937 177.8 
L 1852.957813 177.8 
Q 1850.957813 177.8 1850.957813 179.8 
L 1850.957813 193.478125 
Q 1850.957813 195.478125 1852.957813 195.478125 
z
" style="fill: #ffffff; opacity: 0.8; stroke: #cccccc; stroke-linejoin: miter"/>
    </g>
    <g id="line2d_44">
     <path d="M 1854.957813 185.898437 
L 1864.957813 185.898437 
L 1874.957813 185.898437 
" style="fill: none; stroke: #0000ff; stroke-width: 1.5; stroke-linecap: square"/>
    </g>
    <g id="text_41">
     <!-- O3 reward -->
     <g transform="translate(1882.957813 189.398437) scale(0.1 -0.1)">
      <defs>
       <path id="DejaVuSans-33" d="M 2597 2516 
Q 3050 2419 3304 2112 
Q 3559 1806 3559 1356 
Q 3559 666 3084 287 
Q 2609 -91 1734 -91 
Q 1441 -91 1130 -33 
Q 819 25 488 141 
L 488 750 
Q 750 597 1062 519 
Q 1375 441 1716 441 
Q 2309 441 2620 675 
Q 2931 909 2931 1356 
Q 2931 1769 2642 2001 
Q 2353 2234 1838 2234 
L 1294 2234 
L 1294 2753 
L 1863 2753 
Q 2328 2753 2575 2939 
Q 2822 3125 2822 3475 
Q 2822 3834 2567 4026 
Q 2313 4219 1838 4219 
Q 1578 4219 1281 4162 
Q 984 4106 628 3988 
L 628 4550 
Q 988 4650 1302 4700 
Q 1616 4750 1894 4750 
Q 2613 4750 3031 4423 
Q 3450 4097 3450 3541 
Q 3450 3153 3228 2886 
Q 3006 2619 2597 2516 
z
" transform="scale(0.015625)"/>
      </defs>
      <use xlink:href="#DejaVuSans-4f"/>
      <use xlink:href="#DejaVuSans-33" x="78.710938"/>
      <use xlink:href="#DejaVuSans-20" x="142.333984"/>
      <use xlink:href="#DejaVuSans-72" x="174.121094"/>
      <use xlink:href="#DejaVuSans-65" x="212.984375"/>
      <use xlink:href="#DejaVuSans-77" x="274.507812"/>
      <use xlink:href="#DejaVuSans-61" x="356.294922"/>
      <use xlink:href="#DejaVuSans-72" x="417.574219"/>
      <use xlink:href="#DejaVuSans-64" x="456.9375"/>
     </g>
    </g>
   </g>
  </g>
 </g>
 <defs>
  <clipPath id="p8867f792dc">
   <rect x="270" y="172.8" width="492.352941" height="1108.8"/>
  </clipPath>
  <clipPath id="p6e32834c69">
   <rect x="860.823529" y="172.8" width="492.352941" height="1108.8"/>
  </clipPath>
  <clipPath id="pda6d190097">
   <rect x="1451.647059" y="172.8" width="492.352941" height="1108.8"/>
  </clipPath>
 </defs>
</svg>
