<?xml version="1.0" encoding="utf-8" standalone="no"?>
<!DOCTYPE svg PUBLIC "-//W3C//DTD SVG 1.1//EN"
  "http://www.w3.org/Graphics/SVG/1.1/DTD/svg11.dtd">
<svg xmlns:xlink="http://www.w3.org/1999/xlink" width="2160pt" height="1440pt" viewBox="0 0 2160 1440" xmlns="http://www.w3.org/2000/svg" version="1.1">
 <metadata>
  <rdf:RDF xmlns:dc="http://purl.org/dc/elements/1.1/" xmlns:cc="http://creativecommons.org/ns#" xmlns:rdf="http://www.w3.org/1999/02/22-rdf-syntax-ns#">
   <cc:Work>
    <dc:type rdf:resource="http://purl.org/dc/dcmitype/StillImage"/>
    <dc:date>2023-05-31T19:38:09.682637</dc:date>
    <dc:format>image/svg+xml</dc:format>
    <dc:creator>
     <cc:Agent>
      <dc:title>Matplotlib v3.7.1, https://matplotlib.org/</dc:title>
     </cc:Agent>
    </dc:creator>
   </cc:Work>
  </rdf:RDF>
 </metadata>
 <defs>
  <style type="text/css">*{stroke-linejoin: round; stroke-linecap: butt}</style>
 </defs>
 <g id="figure_1">
  <g id="patch_1">
   <path d="M 0 1440 
L 2160 1440 
L 2160 0 
L 0 0 
z
" style="fill: #ffffff"/>
  </g>
  <g id="axes_1">
   <g id="patch_2">
    <path d="M 270 1281.6 
L 762.352941 1281.6 
L 762.352941 172.8 
L 270 172.8 
z
" style="fill: #ffffff"/>
   </g>
   <g id="matplotlib.axis_1">
    <g id="xtick_1">
     <g id="line2d_1">
      <defs>
       <path id="m10c0a05d1a" d="M 0 0 
L 0 3.5 
" style="stroke: #000000; stroke-width: 0.8"/>
      </defs>
      <g>
       <use xlink:href="#m10c0a05d1a" x="291.968666" y="1281.6" style="stroke: #000000; stroke-width: 0.8"/>
      </g>
     </g>
     <g id="text_1">
      <!-- 0 -->
      <g transform="translate(288.787416 1296.198437) scale(0.1 -0.1)">
       <defs>
        <path id="DejaVuSans-30" d="M 2034 4250 
Q 1547 4250 1301 3770 
Q 1056 3291 1056 2328 
Q 1056 1369 1301 889 
Q 1547 409 2034 409 
Q 2525 409 2770 889 
Q 3016 1369 3016 2328 
Q 3016 3291 2770 3770 
Q 2525 4250 2034 4250 
z
M 2034 4750 
Q 2819 4750 3233 4129 
Q 3647 3509 3647 2328 
Q 3647 1150 3233 529 
Q 2819 -91 2034 -91 
Q 1250 -91 836 529 
Q 422 1150 422 2328 
Q 422 3509 836 4129 
Q 1250 4750 2034 4750 
z
" transform="scale(0.015625)"/>
       </defs>
       <use xlink:href="#DejaVuSans-30"/>
      </g>
     </g>
    </g>
    <g id="xtick_2">
     <g id="line2d_2">
      <g>
       <use xlink:href="#m10c0a05d1a" x="374.171344" y="1281.6" style="stroke: #000000; stroke-width: 0.8"/>
      </g>
     </g>
     <g id="text_2">
      <!-- 200 -->
      <g transform="translate(364.627594 1296.198437) scale(0.1 -0.1)">
       <defs>
        <path id="DejaVuSans-32" d="M 1228 531 
L 3431 531 
L 3431 0 
L 469 0 
L 469 531 
Q 828 903 1448 1529 
Q 2069 2156 2228 2338 
Q 2531 2678 2651 2914 
Q 2772 3150 2772 3378 
Q 2772 3750 2511 3984 
Q 2250 4219 1831 4219 
Q 1534 4219 1204 4116 
Q 875 4013 500 3803 
L 500 4441 
Q 881 4594 1212 4672 
Q 1544 4750 1819 4750 
Q 2544 4750 2975 4387 
Q 3406 4025 3406 3419 
Q 3406 3131 3298 2873 
Q 3191 2616 2906 2266 
Q 2828 2175 2409 1742 
Q 1991 1309 1228 531 
z
" transform="scale(0.015625)"/>
       </defs>
       <use xlink:href="#DejaVuSans-32"/>
       <use xlink:href="#DejaVuSans-30" x="63.623047"/>
       <use xlink:href="#DejaVuSans-30" x="127.246094"/>
      </g>
     </g>
    </g>
    <g id="xtick_3">
     <g id="line2d_3">
      <g>
       <use xlink:href="#m10c0a05d1a" x="456.374022" y="1281.6" style="stroke: #000000; stroke-width: 0.8"/>
      </g>
     </g>
     <g id="text_3">
      <!-- 400 -->
      <g transform="translate(446.830272 1296.198437) scale(0.1 -0.1)">
       <defs>
        <path id="DejaVuSans-34" d="M 2419 4116 
L 825 1625 
L 2419 1625 
L 2419 4116 
z
M 2253 4666 
L 3047 4666 
L 3047 1625 
L 3713 1625 
L 3713 1100 
L 3047 1100 
L 3047 0 
L 2419 0 
L 2419 1100 
L 313 1100 
L 313 1709 
L 2253 4666 
z
" transform="scale(0.015625)"/>
       </defs>
       <use xlink:href="#DejaVuSans-34"/>
       <use xlink:href="#DejaVuSans-30" x="63.623047"/>
       <use xlink:href="#DejaVuSans-30" x="127.246094"/>
      </g>
     </g>
    </g>
    <g id="xtick_4">
     <g id="line2d_4">
      <g>
       <use xlink:href="#m10c0a05d1a" x="538.5767" y="1281.6" style="stroke: #000000; stroke-width: 0.8"/>
      </g>
     </g>
     <g id="text_4">
      <!-- 600 -->
      <g transform="translate(529.03295 1296.198437) scale(0.1 -0.1)">
       <defs>
        <path id="DejaVuSans-36" d="M 2113 2584 
Q 1688 2584 1439 2293 
Q 1191 2003 1191 1497 
Q 1191 994 1439 701 
Q 1688 409 2113 409 
Q 2538 409 2786 701 
Q 3034 994 3034 1497 
Q 3034 2003 2786 2293 
Q 2538 2584 2113 2584 
z
M 3366 4563 
L 3366 3988 
Q 3128 4100 2886 4159 
Q 2644 4219 2406 4219 
Q 1781 4219 1451 3797 
Q 1122 3375 1075 2522 
Q 1259 2794 1537 2939 
Q 1816 3084 2150 3084 
Q 2853 3084 3261 2657 
Q 3669 2231 3669 1497 
Q 3669 778 3244 343 
Q 2819 -91 2113 -91 
Q 1303 -91 875 529 
Q 447 1150 447 2328 
Q 447 3434 972 4092 
Q 1497 4750 2381 4750 
Q 2619 4750 2861 4703 
Q 3103 4656 3366 4563 
z
" transform="scale(0.015625)"/>
       </defs>
       <use xlink:href="#DejaVuSans-36"/>
       <use xlink:href="#DejaVuSans-30" x="63.623047"/>
       <use xlink:href="#DejaVuSans-30" x="127.246094"/>
      </g>
     </g>
    </g>
    <g id="xtick_5">
     <g id="line2d_5">
      <g>
       <use xlink:href="#m10c0a05d1a" x="620.779379" y="1281.6" style="stroke: #000000; stroke-width: 0.8"/>
      </g>
     </g>
     <g id="text_5">
      <!-- 800 -->
      <g transform="translate(611.235629 1296.198437) scale(0.1 -0.1)">
       <defs>
        <path id="DejaVuSans-38" d="M 2034 2216 
Q 1584 2216 1326 1975 
Q 1069 1734 1069 1313 
Q 1069 891 1326 650 
Q 1584 409 2034 409 
Q 2484 409 2743 651 
Q 3003 894 3003 1313 
Q 3003 1734 2745 1975 
Q 2488 2216 2034 2216 
z
M 1403 2484 
Q 997 2584 770 2862 
Q 544 3141 544 3541 
Q 544 4100 942 4425 
Q 1341 4750 2034 4750 
Q 2731 4750 3128 4425 
Q 3525 4100 3525 3541 
Q 3525 3141 3298 2862 
Q 3072 2584 2669 2484 
Q 3125 2378 3379 2068 
Q 3634 1759 3634 1313 
Q 3634 634 3220 271 
Q 2806 -91 2034 -91 
Q 1263 -91 848 271 
Q 434 634 434 1313 
Q 434 1759 690 2068 
Q 947 2378 1403 2484 
z
M 1172 3481 
Q 1172 3119 1398 2916 
Q 1625 2713 2034 2713 
Q 2441 2713 2670 2916 
Q 2900 3119 2900 3481 
Q 2900 3844 2670 4047 
Q 2441 4250 2034 4250 
Q 1625 4250 1398 4047 
Q 1172 3844 1172 3481 
z
" transform="scale(0.015625)"/>
       </defs>
       <use xlink:href="#DejaVuSans-38"/>
       <use xlink:href="#DejaVuSans-30" x="63.623047"/>
       <use xlink:href="#DejaVuSans-30" x="127.246094"/>
      </g>
     </g>
    </g>
    <g id="xtick_6">
     <g id="line2d_6">
      <g>
       <use xlink:href="#m10c0a05d1a" x="702.982057" y="1281.6" style="stroke: #000000; stroke-width: 0.8"/>
      </g>
     </g>
     <g id="text_6">
      <!-- 1000 -->
      <g transform="translate(690.257057 1296.198437) scale(0.1 -0.1)">
       <defs>
        <path id="DejaVuSans-31" d="M 794 531 
L 1825 531 
L 1825 4091 
L 703 3866 
L 703 4441 
L 1819 4666 
L 2450 4666 
L 2450 531 
L 3481 531 
L 3481 0 
L 794 0 
L 794 531 
z
" transform="scale(0.015625)"/>
       </defs>
       <use xlink:href="#DejaVuSans-31"/>
       <use xlink:href="#DejaVuSans-30" x="63.623047"/>
       <use xlink:href="#DejaVuSans-30" x="127.246094"/>
       <use xlink:href="#DejaVuSans-30" x="190.869141"/>
      </g>
     </g>
    </g>
   </g>
   <g id="matplotlib.axis_2">
    <g id="ytick_1">
     <g id="line2d_7">
      <defs>
       <path id="mddcb99df41" d="M 0 0 
L -3.5 0 
" style="stroke: #000000; stroke-width: 0.8"/>
      </defs>
      <g>
       <use xlink:href="#mddcb99df41" x="270" y="1152.63826" style="stroke: #000000; stroke-width: 0.8"/>
      </g>
     </g>
     <g id="text_7">
      <!-- −14 -->
      <g transform="translate(241.895312 1156.437478) scale(0.1 -0.1)">
       <defs>
        <path id="DejaVuSans-2212" d="M 678 2272 
L 4684 2272 
L 4684 1741 
L 678 1741 
L 678 2272 
z
" transform="scale(0.015625)"/>
       </defs>
       <use xlink:href="#DejaVuSans-2212"/>
       <use xlink:href="#DejaVuSans-31" x="83.789062"/>
       <use xlink:href="#DejaVuSans-34" x="147.412109"/>
      </g>
     </g>
    </g>
    <g id="ytick_2">
     <g id="line2d_8">
      <g>
       <use xlink:href="#mddcb99df41" x="270" y="1021.731462" style="stroke: #000000; stroke-width: 0.8"/>
      </g>
     </g>
     <g id="text_8">
      <!-- −12 -->
      <g transform="translate(241.895312 1025.530681) scale(0.1 -0.1)">
       <use xlink:href="#DejaVuSans-2212"/>
       <use xlink:href="#DejaVuSans-31" x="83.789062"/>
       <use xlink:href="#DejaVuSans-32" x="147.412109"/>
      </g>
     </g>
    </g>
    <g id="ytick_3">
     <g id="line2d_9">
      <g>
       <use xlink:href="#mddcb99df41" x="270" y="890.824665" style="stroke: #000000; stroke-width: 0.8"/>
      </g>
     </g>
     <g id="text_9">
      <!-- −10 -->
      <g transform="translate(241.895312 894.623884) scale(0.1 -0.1)">
       <use xlink:href="#DejaVuSans-2212"/>
       <use xlink:href="#DejaVuSans-31" x="83.789062"/>
       <use xlink:href="#DejaVuSans-30" x="147.412109"/>
      </g>
     </g>
    </g>
    <g id="ytick_4">
     <g id="line2d_10">
      <g>
       <use xlink:href="#mddcb99df41" x="270" y="759.917868" style="stroke: #000000; stroke-width: 0.8"/>
      </g>
     </g>
     <g id="text_10">
      <!-- −8 -->
      <g transform="translate(248.257812 763.717087) scale(0.1 -0.1)">
       <use xlink:href="#DejaVuSans-2212"/>
       <use xlink:href="#DejaVuSans-38" x="83.789062"/>
      </g>
     </g>
    </g>
    <g id="ytick_5">
     <g id="line2d_11">
      <g>
       <use xlink:href="#mddcb99df41" x="270" y="629.011071" style="stroke: #000000; stroke-width: 0.8"/>
      </g>
     </g>
     <g id="text_11">
      <!-- −6 -->
      <g transform="translate(248.257812 632.81029) scale(0.1 -0.1)">
       <use xlink:href="#DejaVuSans-2212"/>
       <use xlink:href="#DejaVuSans-36" x="83.789062"/>
      </g>
     </g>
    </g>
    <g id="ytick_6">
     <g id="line2d_12">
      <g>
       <use xlink:href="#mddcb99df41" x="270" y="498.104274" style="stroke: #000000; stroke-width: 0.8"/>
      </g>
     </g>
     <g id="text_12">
      <!-- −4 -->
      <g transform="translate(248.257812 501.903493) scale(0.1 -0.1)">
       <use xlink:href="#DejaVuSans-2212"/>
       <use xlink:href="#DejaVuSans-34" x="83.789062"/>
      </g>
     </g>
    </g>
    <g id="ytick_7">
     <g id="line2d_13">
      <g>
       <use xlink:href="#mddcb99df41" x="270" y="367.197477" style="stroke: #000000; stroke-width: 0.8"/>
      </g>
     </g>
     <g id="text_13">
      <!-- −2 -->
      <g transform="translate(248.257812 370.996696) scale(0.1 -0.1)">
       <use xlink:href="#DejaVuSans-2212"/>
       <use xlink:href="#DejaVuSans-32" x="83.789062"/>
      </g>
     </g>
    </g>
    <g id="ytick_8">
     <g id="line2d_14">
      <g>
       <use xlink:href="#mddcb99df41" x="270" y="236.29068" style="stroke: #000000; stroke-width: 0.8"/>
      </g>
     </g>
     <g id="text_14">
      <!-- 0 -->
      <g transform="translate(256.6375 240.089898) scale(0.1 -0.1)">
       <use xlink:href="#DejaVuSans-30"/>
      </g>
     </g>
    </g>
   </g>
   <g id="line2d_15">
    <path d="M 292.379679 236.29068 
L 312.930349 236.29068 
L 313.341362 223.2 
L 314.574402 223.2 
L 314.985416 231.92712 
L 316.218456 231.92712 
L 316.629469 246.763223 
L 317.862509 246.763223 
L 318.273523 248.441516 
L 319.506563 248.441516 
L 319.917576 265.080585 
L 321.150617 265.080585 
L 321.56163 272.312781 
L 322.79467 272.312781 
L 323.205683 280.052905 
L 324.438724 280.052905 
L 324.849737 286.850418 
L 326.082777 286.850418 
L 326.493791 295.667355 
L 327.726831 295.667355 
L 328.137844 302.376626 
L 331.014938 302.376626 
L 331.425951 296.822297 
L 334.303045 296.822297 
L 334.714058 304.719104 
L 335.947099 304.719104 
L 336.358112 298.046502 
L 337.591152 298.046502 
L 338.002166 292.663623 
L 340.879259 292.663623 
L 341.290273 294.015417 
L 342.523313 294.015417 
L 342.934326 287.372259 
L 345.81142 287.372259 
L 346.222433 280.755708 
L 347.455474 280.755708 
L 347.866487 274.164496 
L 349.099527 274.164496 
L 349.510541 280.270868 
L 350.743581 280.270868 
L 351.154594 270.353686 
L 354.031688 270.353686 
L 354.442701 261.162806 
L 355.675741 261.162806 
L 356.086755 266.945319 
L 357.319795 266.945319 
L 357.730808 261.162806 
L 358.963848 261.162806 
L 359.374862 269.996094 
L 362.251956 269.996094 
L 362.662969 276.231057 
L 363.896009 276.231057 
L 364.307023 287.091996 
L 365.540063 287.091996 
L 365.951076 285.45969 
L 367.184116 285.45969 
L 367.59513 289.569735 
L 368.82817 289.569735 
L 369.239183 288.000784 
L 370.472223 288.000784 
L 370.883237 286.466831 
L 372.116277 286.466831 
L 372.52729 289.156982 
L 373.760331 289.156982 
L 374.171344 304.559745 
L 375.404384 304.559745 
L 375.815398 299.069901 
L 377.048438 299.069901 
L 377.459451 303.33034 
L 378.692491 303.33034 
L 379.103505 318.53431 
L 380.336545 318.53431 
L 380.747558 323.727106 
L 381.980598 323.727106 
L 382.391612 328.307377 
L 386.912759 328.307377 
L 387.323772 333.385343 
L 388.556813 333.385343 
L 388.967826 343.043579 
L 390.200866 343.043579 
L 390.61188 337.973692 
L 391.84492 337.973692 
L 392.255933 347.648524 
L 393.488973 347.648524 
L 393.899987 357.234375 
L 395.133027 357.234375 
L 395.54404 361.861887 
L 396.77708 361.861887 
L 397.188094 376.494208 
L 398.421134 376.494208 
L 398.832147 386.326474 
L 400.065188 386.326474 
L 400.476201 401.133252 
L 401.709241 401.133252 
L 402.120255 415.691631 
L 403.353295 415.691631 
L 403.764308 425.471878 
L 404.997348 425.471878 
L 405.408362 430.473666 
L 406.641402 430.473666 
L 407.052415 440.253913 
L 408.285455 440.253913 
L 408.696469 435.542585 
L 409.929509 435.542585 
L 410.340522 426.235368 
L 411.573563 426.235368 
L 411.984576 417.035628 
L 413.217616 417.035628 
L 413.62863 412.435758 
L 414.86167 412.435758 
L 415.272683 422.268151 
L 418.149777 422.312139 
L 418.56079 423.154814 
L 419.79383 423.154814 
L 420.204844 438.470521 
L 423.081938 438.465193 
L 423.492951 429.641624 
L 424.725991 429.641624 
L 425.137004 425.234939 
L 426.370045 425.234939 
L 426.781058 416.436127 
L 428.014098 416.436127 
L 428.425112 426.489742 
L 429.658152 426.489742 
L 430.069165 430.886756 
L 432.946259 430.886756 
L 433.357272 435.283769 
L 434.590312 435.283769 
L 435.001326 430.891253 
L 436.234366 430.891253 
L 436.645379 427.863368 
L 437.87842 427.863368 
L 438.289433 419.172834 
L 439.522473 419.172834 
L 439.933487 420.633238 
L 441.166527 420.633238 
L 441.57754 428.041323 
L 442.81058 428.041323 
L 443.221594 429.671954 
L 444.454634 429.671954 
L 444.865647 425.360787 
L 447.742741 425.360787 
L 448.153754 435.58945 
L 449.386795 435.58945 
L 449.797808 431.338352 
L 451.030848 431.338352 
L 451.441861 427.090642 
L 452.674902 427.090642 
L 453.085915 428.864944 
L 454.318955 428.864944 
L 454.729969 430.675425 
L 455.963009 430.675425 
L 456.374022 436.743436 
L 457.607062 436.743436 
L 458.018076 447.074206 
L 459.251116 447.074206 
L 459.662129 463.527103 
L 460.895169 463.527103 
L 461.306183 473.857871 
L 462.539223 473.857871 
L 462.950236 488.391114 
L 464.183277 488.391114 
L 464.59429 504.85022 
L 465.82733 504.85022 
L 466.238344 519.353123 
L 467.471384 519.353123 
L 467.882397 540.071154 
L 469.115437 540.071154 
L 469.526451 556.653534 
L 470.759491 556.653534 
L 471.170504 560.8338 
L 472.403544 560.8338 
L 472.814558 577.457109 
L 474.047598 577.457109 
L 474.458611 579.506334 
L 475.691652 579.506334 
L 476.102665 591.992535 
L 478.979759 591.992535 
L 479.390772 598.23472 
L 482.267866 598.246258 
L 482.678879 604.495645 
L 483.911919 604.495645 
L 484.322933 600.357473 
L 487.200027 600.355131 
L 487.61104 606.649482 
L 488.84408 606.649482 
L 489.255093 617.071766 
L 490.488134 617.071766 
L 490.899147 608.858733 
L 492.132187 608.858733 
L 492.543201 611.12312 
L 493.776241 611.12312 
L 494.187254 602.960595 
L 495.420294 602.960595 
L 495.831308 590.766063 
L 497.064348 590.766063 
L 497.475361 597.168417 
L 498.708401 597.168417 
L 499.119415 585.007894 
L 500.352455 585.007894 
L 500.763468 595.483811 
L 501.996509 595.483811 
L 502.407522 593.815617 
L 506.928669 593.815617 
L 507.339683 589.792065 
L 508.572723 589.792065 
L 508.983736 581.754223 
L 510.216776 581.754223 
L 510.62779 573.722081 
L 511.86083 573.722081 
L 512.271843 557.685305 
L 513.504884 557.685305 
L 513.915897 541.720568 
L 515.148937 541.720568 
L 515.559951 529.782073 
L 516.792991 529.782073 
L 517.204004 517.87301 
L 518.437044 517.87301 
L 518.848058 513.910242 
L 520.081098 513.910242 
L 520.492111 502.041453 
L 521.725151 502.041453 
L 522.136165 494.138013 
L 525.013258 494.141228 
L 525.424272 490.196599 
L 526.657312 490.196599 
L 527.068325 478.376041 
L 528.301366 478.376041 
L 528.712379 488.976392 
L 529.945419 488.976392 
L 530.356433 477.177112 
L 531.589473 477.177112 
L 532.000486 490.545547 
L 533.233526 490.545547 
L 533.64454 515.6999 
L 534.87758 515.6999 
L 535.288593 511.776937 
L 536.521633 511.776937 
L 536.932647 510.633997 
L 538.165687 510.633997 
L 538.5767 494.973314 
L 539.809741 494.973314 
L 540.220754 501.697084 
L 541.453794 501.697084 
L 541.864808 519.057761 
L 543.097848 519.057761 
L 543.508861 535.379885 
L 544.741901 535.379885 
L 545.152915 546.01686 
L 546.385955 546.01686 
L 546.796968 564.431524 
L 548.030008 564.431524 
L 548.441022 581.836544 
L 549.674062 581.836544 
L 550.085075 592.483121 
L 551.318116 592.483121 
L 551.729129 599.258327 
L 552.962169 599.258327 
L 553.373182 601.194062 
L 554.606223 601.194062 
L 555.017236 618.639293 
L 556.250276 618.639293 
L 556.66129 633.169406 
L 557.89433 633.169406 
L 558.305343 636.101412 
L 559.538383 636.101412 
L 559.949397 642.901082 
L 561.182437 642.901082 
L 561.59345 663.323776 
L 562.82649 663.323776 
L 563.237504 680.810733 
L 564.470544 680.810733 
L 564.881557 711.969091 
L 566.114598 711.969091 
L 566.525611 750.011028 
L 567.758651 750.011028 
L 568.169665 763.701336 
L 569.402705 763.701336 
L 569.813718 791.943216 
L 571.046758 791.943216 
L 571.457772 815.53813 
L 572.690812 815.53813 
L 573.101825 811.697991 
L 574.334865 811.697991 
L 574.745879 804.024404 
L 575.978919 804.024404 
L 576.389932 796.35416 
L 579.267026 796.353137 
L 579.67804 792.52106 
L 580.91108 792.52106 
L 581.322093 788.68797 
L 582.555133 788.68797 
L 582.966147 781.028139 
L 584.199187 781.028139 
L 584.6102 776.426289 
L 585.84324 776.426289 
L 586.254254 775.656669 
L 587.487294 775.656669 
L 587.898307 792.496208 
L 589.131348 792.496208 
L 589.542361 788.67336 
L 590.775401 788.67336 
L 591.186414 795.5663 
L 592.419455 795.5663 
L 592.830468 809.358212 
L 594.063508 809.358212 
L 594.474522 808.614692 
L 595.707562 808.614692 
L 596.118575 815.516646 
L 597.351615 815.516646 
L 597.762629 824.785525 
L 598.995669 824.785525 
L 599.406682 827.881616 
L 600.639722 827.881616 
L 601.050736 834.079774 
L 602.283776 834.079774 
L 602.694789 837.888785 
L 603.92783 837.888785 
L 604.338843 833.380245 
L 605.571883 833.380245 
L 605.982897 832.685341 
L 607.215937 832.685341 
L 607.62695 843.413626 
L 608.85999 843.413626 
L 609.271004 831.99511 
L 610.504044 831.99511 
L 610.915057 835.114088 
L 612.148097 835.114088 
L 612.559111 852.092712 
L 613.792151 852.092712 
L 614.203164 848.289893 
L 615.436205 848.289893 
L 615.847218 858.349802 
L 617.080258 858.349802 
L 617.491271 868.42043 
L 618.724312 868.42043 
L 619.135325 878.495195 
L 620.368365 878.495195 
L 620.779379 910.711913 
L 622.012419 910.711913 
L 622.423432 914.509456 
L 623.656472 914.509456 
L 624.067486 929.048992 
L 625.300526 929.048992 
L 625.711539 928.41162 
L 626.944579 928.41162 
L 627.355593 932.205708 
L 630.232687 932.205708 
L 630.6437 939.792448 
L 631.87674 939.792448 
L 632.287754 939.164532 
L 633.520794 939.164532 
L 633.931807 934.749324 
L 635.164847 934.749324 
L 635.575861 934.131464 
L 636.808901 934.131464 
L 637.219914 937.309829 
L 638.452954 937.309829 
L 638.863968 943.668409 
L 640.097008 943.668409 
L 640.508021 939.882897 
L 641.741062 939.882897 
L 642.152075 939.282047 
L 643.385115 939.282047 
L 643.796129 953.223713 
L 645.029169 953.223713 
L 645.440182 959.604847 
L 646.673222 959.604847 
L 647.084236 962.797726 
L 648.317276 962.797726 
L 648.728289 955.23933 
L 649.961329 955.23933 
L 650.372343 961.644268 
L 651.605383 961.644268 
L 652.016396 954.092152 
L 653.249437 954.092152 
L 653.66045 952.964704 
L 654.89349 952.964704 
L 655.304503 973.92908 
L 658.181597 973.92908 
L 658.592611 980.922567 
L 659.825651 980.922567 
L 660.236664 984.147211 
L 663.113758 984.149049 
L 663.524771 983.613201 
L 664.757811 983.613201 
L 665.168825 1001.382595 
L 666.401865 1001.382595 
L 666.812878 993.849218 
L 668.045919 993.849218 
L 668.456932 990.08253 
L 669.689972 990.08253 
L 670.100986 993.321528 
L 671.334026 993.321528 
L 671.745039 985.790226 
L 674.622133 985.790226 
L 675.033146 982.024807 
L 676.266186 982.024807 
L 676.6772 978.259846 
L 677.91024 978.259846 
L 678.321253 966.967429 
L 679.554294 966.967429 
L 679.965307 959.440928 
L 681.198347 959.440928 
L 681.60936 948.152096 
L 682.842401 948.152096 
L 683.253414 940.627239 
L 684.486454 940.627239 
L 684.897468 933.103998 
L 686.130508 933.103998 
L 686.541521 921.822059 
L 687.774561 921.822059 
L 688.185575 961.177318 
L 689.418615 961.177318 
L 689.829628 982.736514 
L 691.062668 982.736514 
L 691.473682 1008.055735 
L 692.706722 1008.055735 
L 693.117735 1018.83663 
L 694.350776 1018.83663 
L 694.761789 1029.617525 
L 695.994829 1029.617525 
L 696.405843 1058.201858 
L 697.638883 1058.201858 
L 698.049896 1079.764636 
L 699.282936 1079.764636 
L 699.69395 1105.083308 
L 700.92699 1105.083308 
L 701.338003 1137.424685 
L 702.571043 1137.424685 
L 702.982057 1148.205309 
L 704.215097 1148.205309 
L 704.62611 1144.450524 
L 705.859151 1144.450524 
L 706.270164 1136.942146 
L 707.503204 1136.942146 
L 707.914218 1140.695863 
L 709.147258 1140.695863 
L 709.558271 1136.942536 
L 710.791311 1136.942536 
L 711.202325 1133.189597 
L 712.435365 1133.189597 
L 712.846378 1129.436658 
L 714.079418 1129.436658 
L 714.490432 1136.465393 
L 715.723472 1136.465393 
L 716.134485 1132.712454 
L 719.011579 1132.712835 
L 719.422592 1132.239815 
L 720.655633 1132.239815 
L 721.066646 1146.77406 
L 722.299686 1146.77406 
L 722.7107 1150.055173 
L 723.94374 1150.055173 
L 724.354753 1171.155454 
L 725.587793 1171.155454 
L 725.998807 1174.90599 
L 727.231847 1174.90599 
L 727.64286 1178.190262 
L 728.8759 1178.190262 
L 729.286914 1203.048057 
L 730.519954 1203.048057 
L 730.930967 1220.872728 
L 732.164008 1220.872728 
L 732.575021 1220.411559 
L 733.808061 1220.411559 
L 734.219075 1227.450602 
L 735.452115 1227.450602 
L 735.863128 1231.2 
L 737.096168 1231.2 
L 737.507182 1223.701551 
L 738.740222 1223.701551 
L 739.151235 1230.742943 
L 739.973262 1230.742943 
L 739.973262 1230.742943 
" clip-path="url(#pf1f85deb32)" style="fill: none; stroke: #0000ff; stroke-width: 1.5; stroke-linecap: square"/>
   </g>
   <g id="patch_3">
    <path d="M 270 1281.6 
L 270 172.8 
" style="fill: none; stroke: #000000; stroke-width: 0.8; stroke-linejoin: miter; stroke-linecap: square"/>
   </g>
   <g id="patch_4">
    <path d="M 762.352941 1281.6 
L 762.352941 172.8 
" style="fill: none; stroke: #000000; stroke-width: 0.8; stroke-linejoin: miter; stroke-linecap: square"/>
   </g>
   <g id="patch_5">
    <path d="M 270 1281.6 
L 762.352941 1281.6 
" style="fill: none; stroke: #000000; stroke-width: 0.8; stroke-linejoin: miter; stroke-linecap: square"/>
   </g>
   <g id="patch_6">
    <path d="M 270 172.8 
L 762.352941 172.8 
" style="fill: none; stroke: #000000; stroke-width: 0.8; stroke-linejoin: miter; stroke-linecap: square"/>
   </g>
   <g id="legend_1">
    <g id="patch_7">
     <path d="M 671.310754 195.478125 
L 755.352941 195.478125 
Q 757.352941 195.478125 757.352941 193.478125 
L 757.352941 179.8 
Q 757.352941 177.8 755.352941 177.8 
L 671.310754 177.8 
Q 669.310754 177.8 669.310754 179.8 
L 669.310754 193.478125 
Q 669.310754 195.478125 671.310754 195.478125 
z
" style="fill: #ffffff; opacity: 0.8; stroke: #cccccc; stroke-linejoin: miter"/>
    </g>
    <g id="line2d_16">
     <path d="M 673.310754 185.898437 
L 683.310754 185.898437 
L 693.310754 185.898437 
" style="fill: none; stroke: #0000ff; stroke-width: 1.5; stroke-linecap: square"/>
    </g>
    <g id="text_15">
     <!-- O1 reward -->
     <g transform="translate(701.310754 189.398437) scale(0.1 -0.1)">
      <defs>
       <path id="DejaVuSans-4f" d="M 2522 4238 
Q 1834 4238 1429 3725 
Q 1025 3213 1025 2328 
Q 1025 1447 1429 934 
Q 1834 422 2522 422 
Q 3209 422 3611 934 
Q 4013 1447 4013 2328 
Q 4013 3213 3611 3725 
Q 3209 4238 2522 4238 
z
M 2522 4750 
Q 3503 4750 4090 4092 
Q 4678 3434 4678 2328 
Q 4678 1225 4090 567 
Q 3503 -91 2522 -91 
Q 1538 -91 948 565 
Q 359 1222 359 2328 
Q 359 3434 948 4092 
Q 1538 4750 2522 4750 
z
" transform="scale(0.015625)"/>
       <path id="DejaVuSans-20" transform="scale(0.015625)"/>
       <path id="DejaVuSans-72" d="M 2631 2963 
Q 2534 3019 2420 3045 
Q 2306 3072 2169 3072 
Q 1681 3072 1420 2755 
Q 1159 2438 1159 1844 
L 1159 0 
L 581 0 
L 581 3500 
L 1159 3500 
L 1159 2956 
Q 1341 3275 1631 3429 
Q 1922 3584 2338 3584 
Q 2397 3584 2469 3576 
Q 2541 3569 2628 3553 
L 2631 2963 
z
" transform="scale(0.015625)"/>
       <path id="DejaVuSans-65" d="M 3597 1894 
L 3597 1613 
L 953 1613 
Q 991 1019 1311 708 
Q 1631 397 2203 397 
Q 2534 397 2845 478 
Q 3156 559 3463 722 
L 3463 178 
Q 3153 47 2828 -22 
Q 2503 -91 2169 -91 
Q 1331 -91 842 396 
Q 353 884 353 1716 
Q 353 2575 817 3079 
Q 1281 3584 2069 3584 
Q 2775 3584 3186 3129 
Q 3597 2675 3597 1894 
z
M 3022 2063 
Q 3016 2534 2758 2815 
Q 2500 3097 2075 3097 
Q 1594 3097 1305 2825 
Q 1016 2553 972 2059 
L 3022 2063 
z
" transform="scale(0.015625)"/>
       <path id="DejaVuSans-77" d="M 269 3500 
L 844 3500 
L 1563 769 
L 2278 3500 
L 2956 3500 
L 3675 769 
L 4391 3500 
L 4966 3500 
L 4050 0 
L 3372 0 
L 2619 2869 
L 1863 0 
L 1184 0 
L 269 3500 
z
" transform="scale(0.015625)"/>
       <path id="DejaVuSans-61" d="M 2194 1759 
Q 1497 1759 1228 1600 
Q 959 1441 959 1056 
Q 959 750 1161 570 
Q 1363 391 1709 391 
Q 2188 391 2477 730 
Q 2766 1069 2766 1631 
L 2766 1759 
L 2194 1759 
z
M 3341 1997 
L 3341 0 
L 2766 0 
L 2766 531 
Q 2569 213 2275 61 
Q 1981 -91 1556 -91 
Q 1019 -91 701 211 
Q 384 513 384 1019 
Q 384 1609 779 1909 
Q 1175 2209 1959 2209 
L 2766 2209 
L 2766 2266 
Q 2766 2663 2505 2880 
Q 2244 3097 1772 3097 
Q 1472 3097 1187 3025 
Q 903 2953 641 2809 
L 641 3341 
Q 956 3463 1253 3523 
Q 1550 3584 1831 3584 
Q 2591 3584 2966 3190 
Q 3341 2797 3341 1997 
z
" transform="scale(0.015625)"/>
       <path id="DejaVuSans-64" d="M 2906 2969 
L 2906 4863 
L 3481 4863 
L 3481 0 
L 2906 0 
L 2906 525 
Q 2725 213 2448 61 
Q 2172 -91 1784 -91 
Q 1150 -91 751 415 
Q 353 922 353 1747 
Q 353 2572 751 3078 
Q 1150 3584 1784 3584 
Q 2172 3584 2448 3432 
Q 2725 3281 2906 2969 
z
M 947 1747 
Q 947 1113 1208 752 
Q 1469 391 1925 391 
Q 2381 391 2643 752 
Q 2906 1113 2906 1747 
Q 2906 2381 2643 2742 
Q 2381 3103 1925 3103 
Q 1469 3103 1208 2742 
Q 947 2381 947 1747 
z
" transform="scale(0.015625)"/>
      </defs>
      <use xlink:href="#DejaVuSans-4f"/>
      <use xlink:href="#DejaVuSans-31" x="78.710938"/>
      <use xlink:href="#DejaVuSans-20" x="142.333984"/>
      <use xlink:href="#DejaVuSans-72" x="174.121094"/>
      <use xlink:href="#DejaVuSans-65" x="212.984375"/>
      <use xlink:href="#DejaVuSans-77" x="274.507812"/>
      <use xlink:href="#DejaVuSans-61" x="356.294922"/>
      <use xlink:href="#DejaVuSans-72" x="417.574219"/>
      <use xlink:href="#DejaVuSans-64" x="456.9375"/>
     </g>
    </g>
   </g>
  </g>
  <g id="axes_2">
   <g id="patch_8">
    <path d="M 860.823529 1281.6 
L 1353.176471 1281.6 
L 1353.176471 172.8 
L 860.823529 172.8 
z
" style="fill: #ffffff"/>
   </g>
   <g id="matplotlib.axis_3">
    <g id="xtick_7">
     <g id="line2d_17">
      <g>
       <use xlink:href="#m10c0a05d1a" x="882.792195" y="1281.6" style="stroke: #000000; stroke-width: 0.8"/>
      </g>
     </g>
     <g id="text_16">
      <!-- 0 -->
      <g transform="translate(879.610945 1296.198437) scale(0.1 -0.1)">
       <use xlink:href="#DejaVuSans-30"/>
      </g>
     </g>
    </g>
    <g id="xtick_8">
     <g id="line2d_18">
      <g>
       <use xlink:href="#m10c0a05d1a" x="964.994873" y="1281.6" style="stroke: #000000; stroke-width: 0.8"/>
      </g>
     </g>
     <g id="text_17">
      <!-- 200 -->
      <g transform="translate(955.451123 1296.198437) scale(0.1 -0.1)">
       <use xlink:href="#DejaVuSans-32"/>
       <use xlink:href="#DejaVuSans-30" x="63.623047"/>
       <use xlink:href="#DejaVuSans-30" x="127.246094"/>
      </g>
     </g>
    </g>
    <g id="xtick_9">
     <g id="line2d_19">
      <g>
       <use xlink:href="#m10c0a05d1a" x="1047.197552" y="1281.6" style="stroke: #000000; stroke-width: 0.8"/>
      </g>
     </g>
     <g id="text_18">
      <!-- 400 -->
      <g transform="translate(1037.653802 1296.198437) scale(0.1 -0.1)">
       <use xlink:href="#DejaVuSans-34"/>
       <use xlink:href="#DejaVuSans-30" x="63.623047"/>
       <use xlink:href="#DejaVuSans-30" x="127.246094"/>
      </g>
     </g>
    </g>
    <g id="xtick_10">
     <g id="line2d_20">
      <g>
       <use xlink:href="#m10c0a05d1a" x="1129.40023" y="1281.6" style="stroke: #000000; stroke-width: 0.8"/>
      </g>
     </g>
     <g id="text_19">
      <!-- 600 -->
      <g transform="translate(1119.85648 1296.198437) scale(0.1 -0.1)">
       <use xlink:href="#DejaVuSans-36"/>
       <use xlink:href="#DejaVuSans-30" x="63.623047"/>
       <use xlink:href="#DejaVuSans-30" x="127.246094"/>
      </g>
     </g>
    </g>
    <g id="xtick_11">
     <g id="line2d_21">
      <g>
       <use xlink:href="#m10c0a05d1a" x="1211.602908" y="1281.6" style="stroke: #000000; stroke-width: 0.8"/>
      </g>
     </g>
     <g id="text_20">
      <!-- 800 -->
      <g transform="translate(1202.059158 1296.198437) scale(0.1 -0.1)">
       <use xlink:href="#DejaVuSans-38"/>
       <use xlink:href="#DejaVuSans-30" x="63.623047"/>
       <use xlink:href="#DejaVuSans-30" x="127.246094"/>
      </g>
     </g>
    </g>
    <g id="xtick_12">
     <g id="line2d_22">
      <g>
       <use xlink:href="#m10c0a05d1a" x="1293.805586" y="1281.6" style="stroke: #000000; stroke-width: 0.8"/>
      </g>
     </g>
     <g id="text_21">
      <!-- 1000 -->
      <g transform="translate(1281.080586 1296.198437) scale(0.1 -0.1)">
       <use xlink:href="#DejaVuSans-31"/>
       <use xlink:href="#DejaVuSans-30" x="63.623047"/>
       <use xlink:href="#DejaVuSans-30" x="127.246094"/>
       <use xlink:href="#DejaVuSans-30" x="190.869141"/>
      </g>
     </g>
    </g>
   </g>
   <g id="matplotlib.axis_4">
    <g id="ytick_9">
     <g id="line2d_23">
      <g>
       <use xlink:href="#mddcb99df41" x="860.823529" y="1231.2" style="stroke: #000000; stroke-width: 0.8"/>
      </g>
     </g>
     <g id="text_22">
      <!-- 0 -->
      <g transform="translate(847.461029 1234.999219) scale(0.1 -0.1)">
       <use xlink:href="#DejaVuSans-30"/>
      </g>
     </g>
    </g>
    <g id="ytick_10">
     <g id="line2d_24">
      <g>
       <use xlink:href="#mddcb99df41" x="860.823529" y="1016.973149" style="stroke: #000000; stroke-width: 0.8"/>
      </g>
     </g>
     <g id="text_23">
      <!-- 20 -->
      <g transform="translate(841.098529 1020.772367) scale(0.1 -0.1)">
       <use xlink:href="#DejaVuSans-32"/>
       <use xlink:href="#DejaVuSans-30" x="63.623047"/>
      </g>
     </g>
    </g>
    <g id="ytick_11">
     <g id="line2d_25">
      <g>
       <use xlink:href="#mddcb99df41" x="860.823529" y="802.746297" style="stroke: #000000; stroke-width: 0.8"/>
      </g>
     </g>
     <g id="text_24">
      <!-- 40 -->
      <g transform="translate(841.098529 806.545516) scale(0.1 -0.1)">
       <use xlink:href="#DejaVuSans-34"/>
       <use xlink:href="#DejaVuSans-30" x="63.623047"/>
      </g>
     </g>
    </g>
    <g id="ytick_12">
     <g id="line2d_26">
      <g>
       <use xlink:href="#mddcb99df41" x="860.823529" y="588.519446" style="stroke: #000000; stroke-width: 0.8"/>
      </g>
     </g>
     <g id="text_25">
      <!-- 60 -->
      <g transform="translate(841.098529 592.318664) scale(0.1 -0.1)">
       <use xlink:href="#DejaVuSans-36"/>
       <use xlink:href="#DejaVuSans-30" x="63.623047"/>
      </g>
     </g>
    </g>
    <g id="ytick_13">
     <g id="line2d_27">
      <g>
       <use xlink:href="#mddcb99df41" x="860.823529" y="374.292594" style="stroke: #000000; stroke-width: 0.8"/>
      </g>
     </g>
     <g id="text_26">
      <!-- 80 -->
      <g transform="translate(841.098529 378.091813) scale(0.1 -0.1)">
       <use xlink:href="#DejaVuSans-38"/>
       <use xlink:href="#DejaVuSans-30" x="63.623047"/>
      </g>
     </g>
    </g>
   </g>
   <g id="line2d_28">
    <path d="M 883.203209 1231.2 
L 902.109825 1231.120809 
L 902.520838 1226.805429 
L 903.753878 1226.805429 
L 904.164892 1228.496735 
L 905.397932 1228.496735 
L 905.808945 1227.490915 
L 907.041985 1227.490915 
L 907.452999 1229.47376 
L 908.686039 1229.47376 
L 909.097052 1220.565271 
L 910.330092 1220.565271 
L 910.741106 1207.061313 
L 911.974146 1207.061313 
L 912.385159 1200.343379 
L 913.618199 1200.343379 
L 914.029213 1182.64774 
L 915.262253 1182.64774 
L 915.673266 1166.339089 
L 923.482521 1166.339089 
L 923.893534 1159.260875 
L 928.414682 1159.260875 
L 928.825695 1151.711833 
L 933.346842 1151.711833 
L 933.757856 1141.426394 
L 934.990896 1141.426394 
L 935.401909 1138.538326 
L 936.634949 1138.538326 
L 937.045963 1135.360349 
L 939.923057 1135.360349 
L 940.33407 1115.853001 
L 941.56711 1115.853001 
L 941.978123 1085.176066 
L 943.211164 1085.176066 
L 943.622177 1077.004022 
L 944.855217 1077.004022 
L 945.266231 1061.267417 
L 946.499271 1061.267417 
L 946.910284 1023.1732 
L 948.143324 1023.1732 
L 948.554338 996.659564 
L 966.227914 996.659564 
L 966.638927 988.841789 
L 971.160074 988.841789 
L 971.571088 981.138904 
L 972.804128 981.138904 
L 973.215141 973.355483 
L 974.448181 973.355483 
L 974.859195 965.49359 
L 977.736289 965.49359 
L 978.147302 962.718713 
L 984.312503 962.718713 
L 984.723516 959.869263 
L 985.956556 959.869263 
L 986.36757 940.953981 
L 987.60061 940.953981 
L 988.011623 926.508707 
L 989.244663 926.508707 
L 989.655677 894.495042 
L 990.888717 894.495042 
L 991.29973 866.331825 
L 992.532771 866.331825 
L 992.943784 844.133795 
L 994.176824 844.133795 
L 994.587838 816.836616 
L 995.820878 816.836616 
L 996.231891 783.682877 
L 997.464931 783.682877 
L 997.875945 768.855642 
L 999.108985 768.855642 
L 999.519998 748.320827 
L 1004.041146 748.320827 
L 1004.452159 743.684902 
L 1005.685199 743.684902 
L 1006.096212 734.098815 
L 1007.329253 734.098815 
L 1007.740266 740.714325 
L 1008.973306 740.714325 
L 1009.38432 743.860894 
L 1010.61736 743.860894 
L 1011.028373 750.397323 
L 1012.261413 750.397323 
L 1012.672427 753.771273 
L 1013.905467 753.771273 
L 1014.31648 756.837129 
L 1015.54952 756.837129 
L 1015.960534 747.391943 
L 1018.837628 747.391943 
L 1019.248641 740.969012 
L 1020.481681 740.969012 
L 1020.892695 738.009908 
L 1022.125735 738.009908 
L 1022.536748 728.730668 
L 1023.769788 728.730668 
L 1024.180802 710.426428 
L 1025.413842 710.426428 
L 1025.824855 701.662469 
L 1027.057895 701.662469 
L 1027.468909 694.043367 
L 1028.701949 694.043367 
L 1029.112962 689.110836 
L 1030.346003 689.110836 
L 1030.757016 681.0092 
L 1031.990056 681.0092 
L 1032.40107 689.030823 
L 1033.63411 689.030823 
L 1034.045123 707.001147 
L 1035.278163 707.001147 
L 1035.689177 701.36847 
L 1036.922217 701.36847 
L 1037.33323 685.91443 
L 1038.56627 685.91443 
L 1038.977284 672.80217 
L 1040.210324 672.80217 
L 1040.621337 674.695673 
L 1041.854378 674.695673 
L 1042.265391 662.242708 
L 1043.498431 662.242708 
L 1043.909444 651.541523 
L 1045.142485 651.541523 
L 1045.553498 649.806993 
L 1048.430592 649.743571 
L 1048.841605 651.427454 
L 1050.074645 651.427454 
L 1050.485659 648.132416 
L 1051.718699 648.132416 
L 1052.129712 637.846645 
L 1053.362752 637.846645 
L 1053.773766 639.391206 
L 1055.006806 639.391206 
L 1055.417819 635.891843 
L 1056.65086 635.891843 
L 1057.061873 625.869855 
L 1058.294913 625.869855 
L 1058.705927 619.4321 
L 1059.938967 619.4321 
L 1060.34998 613.046182 
L 1061.58302 613.046182 
L 1061.994034 609.569002 
L 1063.227074 609.569002 
L 1063.638087 607.50456 
L 1066.515181 607.50456 
L 1066.926194 619.990501 
L 1068.159235 619.990501 
L 1068.570248 626.1404 
L 1069.803288 626.1404 
L 1070.214301 623.952412 
L 1071.447342 623.952412 
L 1071.858355 628.647575 
L 1073.091395 628.647575 
L 1073.502409 629.810743 
L 1074.735449 629.810743 
L 1075.146462 642.539245 
L 1076.379502 642.539245 
L 1076.790516 644.969452 
L 1078.023556 644.969452 
L 1078.434569 655.139726 
L 1079.667609 655.139726 
L 1080.078623 654.643654 
L 1081.311663 654.643654 
L 1081.722676 644.736094 
L 1082.955717 644.736094 
L 1083.36673 638.395336 
L 1084.59977 638.395336 
L 1085.010784 637.457913 
L 1086.243824 637.457913 
L 1086.654837 632.14164 
L 1087.887877 632.14164 
L 1088.298891 623.374936 
L 1089.531931 623.374936 
L 1089.942944 626.886374 
L 1091.175984 626.886374 
L 1091.586998 630.391978 
L 1092.820038 630.391978 
L 1093.231051 629.557152 
L 1094.464092 629.557152 
L 1094.875105 626.03982 
L 1096.108145 626.03982 
L 1096.519159 616.603543 
L 1097.752199 616.603543 
L 1098.163212 610.74854 
L 1101.040306 610.74854 
L 1101.451319 605.735781 
L 1102.684359 605.735781 
L 1103.095373 611.411066 
L 1104.328413 611.411066 
L 1104.739426 621.162169 
L 1105.972467 621.162169 
L 1106.38348 624.047275 
L 1107.61652 624.047275 
L 1108.027533 623.463488 
L 1109.260574 623.463488 
L 1109.671587 622.329162 
L 1110.904627 622.329162 
L 1111.315641 624.787813 
L 1112.548681 624.787813 
L 1112.959694 615.786591 
L 1114.192734 615.786591 
L 1114.603748 593.687726 
L 1115.836788 593.687726 
L 1116.247801 580.660882 
L 1117.480841 580.660882 
L 1117.891855 563.529336 
L 1119.124895 563.529336 
L 1119.535908 546.286835 
L 1120.768949 546.286835 
L 1121.179962 529.955028 
L 1122.413002 529.955028 
L 1122.824016 521.426039 
L 1124.057056 521.426039 
L 1124.468069 509.485465 
L 1125.701109 509.485465 
L 1126.112123 493.394318 
L 1127.345163 493.394318 
L 1127.756176 485.446802 
L 1128.989216 485.446802 
L 1129.40023 473.652534 
L 1130.63327 473.652534 
L 1131.044283 477.738087 
L 1132.277324 477.738087 
L 1132.688337 470.701642 
L 1133.921377 470.701642 
L 1134.332391 482.070606 
L 1135.565431 482.070606 
L 1135.976444 482.391154 
L 1137.209484 482.391154 
L 1137.620498 482.656515 
L 1138.853538 482.656515 
L 1139.264551 479.262102 
L 1140.497591 479.262102 
L 1140.908605 479.379912 
L 1142.141645 479.379912 
L 1142.552658 479.595019 
L 1143.785699 479.595019 
L 1144.196712 490.652857 
L 1145.429752 490.652857 
L 1145.840765 497.844676 
L 1147.073806 497.844676 
L 1147.484819 501.362971 
L 1148.717859 501.362971 
L 1149.128873 497.838891 
L 1150.361913 497.838891 
L 1150.772926 494.172744 
L 1152.005966 494.172744 
L 1152.41698 486.997312 
L 1153.65002 486.997312 
L 1154.061033 479.903826 
L 1156.938127 479.889591 
L 1157.34914 483.459423 
L 1158.582181 483.459423 
L 1158.993194 480.009702 
L 1160.226234 480.009702 
L 1160.637248 476.580378 
L 1161.870288 476.580378 
L 1162.281301 476.704897 
L 1163.514341 476.704897 
L 1163.925355 490.662675 
L 1165.158395 490.662675 
L 1165.569408 494.249635 
L 1166.802448 494.249635 
L 1167.213462 484.628553 
L 1168.446502 484.628553 
L 1168.857515 488.269992 
L 1170.090556 488.269992 
L 1170.501569 492.196981 
L 1171.734609 492.196981 
L 1172.145622 488.830116 
L 1173.378663 488.830116 
L 1173.789676 489.142506 
L 1175.022716 489.142506 
L 1175.43373 493.548533 
L 1176.66677 493.548533 
L 1177.077783 494.750982 
L 1179.954877 494.753276 
L 1180.36589 484.873085 
L 1181.59893 484.873085 
L 1182.009944 478.311513 
L 1183.242984 478.311513 
L 1183.653997 475.033992 
L 1184.887038 475.033992 
L 1185.298051 468.490037 
L 1186.531091 468.490037 
L 1186.942105 465.223585 
L 1188.175145 465.223585 
L 1188.586158 461.959255 
L 1189.819198 461.959255 
L 1190.230212 455.436828 
L 1191.463252 455.436828 
L 1191.874265 448.922506 
L 1193.107305 448.922506 
L 1193.518319 442.416064 
L 1194.751359 442.416064 
L 1195.162372 439.165757 
L 1196.395413 439.165757 
L 1196.806426 429.444115 
L 1198.039466 429.444115 
L 1198.45048 422.983974 
L 1199.68352 422.983974 
L 1200.094533 419.756679 
L 1202.971627 419.756679 
L 1203.38264 416.531212 
L 1204.61568 416.531212 
L 1205.026694 406.876164 
L 1206.259734 406.876164 
L 1206.670747 397.256301 
L 1207.903788 397.256301 
L 1208.314801 387.675387 
L 1209.547841 387.675387 
L 1209.958854 381.307952 
L 1211.191895 381.307952 
L 1211.602908 371.788305 
L 1212.835948 371.788305 
L 1213.246962 382.77805 
L 1214.480002 382.77805 
L 1214.891015 391.395797 
L 1216.124055 391.395797 
L 1216.535069 393.807646 
L 1217.768109 393.807646 
L 1218.179122 396.295464 
L 1219.412162 396.295464 
L 1219.823176 404.193888 
L 1222.70027 404.212348 
L 1223.111283 401.758527 
L 1224.344323 401.758527 
L 1224.755337 405.739015 
L 1225.988377 405.739015 
L 1226.39939 402.563413 
L 1227.63243 402.563413 
L 1228.043444 404.572257 
L 1229.276484 404.572257 
L 1229.687497 392.527255 
L 1230.920537 392.527255 
L 1231.331551 380.529174 
L 1232.564591 380.529174 
L 1232.975604 368.574206 
L 1234.208645 368.574206 
L 1234.619658 359.648792 
L 1235.852698 359.648792 
L 1236.263711 350.757693 
L 1237.496752 350.757693 
L 1237.907765 344.844607 
L 1239.140805 344.844607 
L 1239.551819 335.998489 
L 1240.784859 335.998489 
L 1241.195872 333.056227 
L 1242.428912 333.056227 
L 1242.839926 327.18259 
L 1244.072966 327.18259 
L 1244.483979 321.323395 
L 1245.717019 321.323395 
L 1246.128033 322.520346 
L 1247.361073 322.520346 
L 1247.772086 332.494052 
L 1250.64918 332.490689 
L 1251.060194 330.813809 
L 1253.937287 330.813809 
L 1254.348301 326.236219 
L 1258.869448 326.236219 
L 1259.280461 329.141627 
L 1263.801609 329.141627 
L 1264.212622 326.239478 
L 1267.089716 326.239478 
L 1267.500729 327.504346 
L 1268.733769 327.504346 
L 1269.144783 331.675689 
L 1270.377823 331.675689 
L 1270.788836 330.088921 
L 1272.021877 330.088921 
L 1272.43289 337.15729 
L 1273.66593 337.15729 
L 1274.076943 343.998328 
L 1275.309984 343.998328 
L 1275.720997 348.204194 
L 1276.954037 348.204194 
L 1277.365051 352.410097 
L 1278.598091 352.410097 
L 1279.009104 349.549746 
L 1280.242144 349.549746 
L 1280.653158 343.834602 
L 1281.886198 343.834602 
L 1282.297211 338.131511 
L 1283.530251 338.131511 
L 1283.941265 329.592417 
L 1285.174305 329.592417 
L 1285.585318 326.750882 
L 1286.818359 326.750882 
L 1287.229372 323.912307 
L 1288.462412 323.912307 
L 1288.873426 321.076581 
L 1290.106466 321.076581 
L 1290.517479 318.243672 
L 1293.394573 318.243672 
L 1293.805586 312.584676 
L 1295.038626 312.584676 
L 1295.44964 309.758573 
L 1296.68268 309.758573 
L 1297.093693 312.583437 
L 1298.326734 312.583437 
L 1298.737747 314.025578 
L 1299.970787 314.025578 
L 1300.381801 312.655097 
L 1301.614841 312.655097 
L 1302.025854 309.839801 
L 1303.258894 309.839801 
L 1303.669908 312.653886 
L 1304.902948 312.653886 
L 1305.313961 309.84249 
L 1306.547001 309.84249 
L 1306.958015 307.033938 
L 1308.191055 307.033938 
L 1308.602068 298.624427 
L 1309.835108 298.624427 
L 1310.246122 300.117133 
L 1311.479162 300.117133 
L 1311.890175 291.741651 
L 1313.123216 291.741651 
L 1313.534229 280.606134 
L 1314.767269 280.606134 
L 1315.178283 277.828598 
L 1316.411323 277.828598 
L 1316.822336 272.281333 
L 1318.055376 272.281333 
L 1318.46639 263.97229 
L 1319.69943 263.97229 
L 1320.110443 258.444528 
L 1321.343483 258.444528 
L 1321.754497 252.923812 
L 1322.987537 252.923812 
L 1323.39855 241.910536 
L 1324.631591 241.910536 
L 1325.042604 233.673638 
L 1326.275644 233.673638 
L 1326.686658 228.190124 
L 1327.919698 228.190124 
L 1328.330711 224.321238 
L 1329.563751 224.321238 
L 1329.974765 223.2 
L 1330.796791 223.2 
L 1330.796791 223.2 
" clip-path="url(#p3e547f85fc)" style="fill: none; stroke: #0000ff; stroke-width: 1.5; stroke-linecap: square"/>
   </g>
   <g id="patch_9">
    <path d="M 860.823529 1281.6 
L 860.823529 172.8 
" style="fill: none; stroke: #000000; stroke-width: 0.8; stroke-linejoin: miter; stroke-linecap: square"/>
   </g>
   <g id="patch_10">
    <path d="M 1353.176471 1281.6 
L 1353.176471 172.8 
" style="fill: none; stroke: #000000; stroke-width: 0.8; stroke-linejoin: miter; stroke-linecap: square"/>
   </g>
   <g id="patch_11">
    <path d="M 860.823529 1281.6 
L 1353.176471 1281.6 
" style="fill: none; stroke: #000000; stroke-width: 0.8; stroke-linejoin: miter; stroke-linecap: square"/>
   </g>
   <g id="patch_12">
    <path d="M 860.823529 172.8 
L 1353.176471 172.8 
" style="fill: none; stroke: #000000; stroke-width: 0.8; stroke-linejoin: miter; stroke-linecap: square"/>
   </g>
   <g id="legend_2">
    <g id="patch_13">
     <path d="M 1262.134283 195.478125 
L 1346.176471 195.478125 
Q 1348.176471 195.478125 1348.176471 193.478125 
L 1348.176471 179.8 
Q 1348.176471 177.8 1346.176471 177.8 
L 1262.134283 177.8 
Q 1260.134283 177.8 1260.134283 179.8 
L 1260.134283 193.478125 
Q 1260.134283 195.478125 1262.134283 195.478125 
z
" style="fill: #ffffff; opacity: 0.8; stroke: #cccccc; stroke-linejoin: miter"/>
    </g>
    <g id="line2d_29">
     <path d="M 1264.134283 185.898437 
L 1274.134283 185.898437 
L 1284.134283 185.898437 
" style="fill: none; stroke: #0000ff; stroke-width: 1.5; stroke-linecap: square"/>
    </g>
    <g id="text_27">
     <!-- O2 reward -->
     <g transform="translate(1292.134283 189.398437) scale(0.1 -0.1)">
      <use xlink:href="#DejaVuSans-4f"/>
      <use xlink:href="#DejaVuSans-32" x="78.710938"/>
      <use xlink:href="#DejaVuSans-20" x="142.333984"/>
      <use xlink:href="#DejaVuSans-72" x="174.121094"/>
      <use xlink:href="#DejaVuSans-65" x="212.984375"/>
      <use xlink:href="#DejaVuSans-77" x="274.507812"/>
      <use xlink:href="#DejaVuSans-61" x="356.294922"/>
      <use xlink:href="#DejaVuSans-72" x="417.574219"/>
      <use xlink:href="#DejaVuSans-64" x="456.9375"/>
     </g>
    </g>
   </g>
  </g>
  <g id="axes_3">
   <g id="patch_14">
    <path d="M 1451.647059 1281.6 
L 1944 1281.6 
L 1944 172.8 
L 1451.647059 172.8 
z
" style="fill: #ffffff"/>
   </g>
   <g id="matplotlib.axis_5">
    <g id="xtick_13">
     <g id="line2d_30">
      <g>
       <use xlink:href="#m10c0a05d1a" x="1473.615725" y="1281.6" style="stroke: #000000; stroke-width: 0.8"/>
      </g>
     </g>
     <g id="text_28">
      <!-- 0 -->
      <g transform="translate(1470.434475 1296.198437) scale(0.1 -0.1)">
       <use xlink:href="#DejaVuSans-30"/>
      </g>
     </g>
    </g>
    <g id="xtick_14">
     <g id="line2d_31">
      <g>
       <use xlink:href="#m10c0a05d1a" x="1555.818403" y="1281.6" style="stroke: #000000; stroke-width: 0.8"/>
      </g>
     </g>
     <g id="text_29">
      <!-- 200 -->
      <g transform="translate(1546.274653 1296.198437) scale(0.1 -0.1)">
       <use xlink:href="#DejaVuSans-32"/>
       <use xlink:href="#DejaVuSans-30" x="63.623047"/>
       <use xlink:href="#DejaVuSans-30" x="127.246094"/>
      </g>
     </g>
    </g>
    <g id="xtick_15">
     <g id="line2d_32">
      <g>
       <use xlink:href="#m10c0a05d1a" x="1638.021081" y="1281.6" style="stroke: #000000; stroke-width: 0.8"/>
      </g>
     </g>
     <g id="text_30">
      <!-- 400 -->
      <g transform="translate(1628.477331 1296.198437) scale(0.1 -0.1)">
       <use xlink:href="#DejaVuSans-34"/>
       <use xlink:href="#DejaVuSans-30" x="63.623047"/>
       <use xlink:href="#DejaVuSans-30" x="127.246094"/>
      </g>
     </g>
    </g>
    <g id="xtick_16">
     <g id="line2d_33">
      <g>
       <use xlink:href="#m10c0a05d1a" x="1720.223759" y="1281.6" style="stroke: #000000; stroke-width: 0.8"/>
      </g>
     </g>
     <g id="text_31">
      <!-- 600 -->
      <g transform="translate(1710.680009 1296.198437) scale(0.1 -0.1)">
       <use xlink:href="#DejaVuSans-36"/>
       <use xlink:href="#DejaVuSans-30" x="63.623047"/>
       <use xlink:href="#DejaVuSans-30" x="127.246094"/>
      </g>
     </g>
    </g>
    <g id="xtick_17">
     <g id="line2d_34">
      <g>
       <use xlink:href="#m10c0a05d1a" x="1802.426437" y="1281.6" style="stroke: #000000; stroke-width: 0.8"/>
      </g>
     </g>
     <g id="text_32">
      <!-- 800 -->
      <g transform="translate(1792.882687 1296.198437) scale(0.1 -0.1)">
       <use xlink:href="#DejaVuSans-38"/>
       <use xlink:href="#DejaVuSans-30" x="63.623047"/>
       <use xlink:href="#DejaVuSans-30" x="127.246094"/>
      </g>
     </g>
    </g>
    <g id="xtick_18">
     <g id="line2d_35">
      <g>
       <use xlink:href="#m10c0a05d1a" x="1884.629116" y="1281.6" style="stroke: #000000; stroke-width: 0.8"/>
      </g>
     </g>
     <g id="text_33">
      <!-- 1000 -->
      <g transform="translate(1871.904116 1296.198437) scale(0.1 -0.1)">
       <use xlink:href="#DejaVuSans-31"/>
       <use xlink:href="#DejaVuSans-30" x="63.623047"/>
       <use xlink:href="#DejaVuSans-30" x="127.246094"/>
       <use xlink:href="#DejaVuSans-30" x="190.869141"/>
      </g>
     </g>
    </g>
   </g>
   <g id="matplotlib.axis_6">
    <g id="ytick_14">
     <g id="line2d_36">
      <g>
       <use xlink:href="#mddcb99df41" x="1451.647059" y="1231.2" style="stroke: #000000; stroke-width: 0.8"/>
      </g>
     </g>
     <g id="text_34">
      <!-- 0.0 -->
      <g transform="translate(1428.743934 1234.999219) scale(0.1 -0.1)">
       <defs>
        <path id="DejaVuSans-2e" d="M 684 794 
L 1344 794 
L 1344 0 
L 684 0 
L 684 794 
z
" transform="scale(0.015625)"/>
       </defs>
       <use xlink:href="#DejaVuSans-30"/>
       <use xlink:href="#DejaVuSans-2e" x="63.623047"/>
       <use xlink:href="#DejaVuSans-30" x="95.410156"/>
      </g>
     </g>
    </g>
    <g id="ytick_15">
     <g id="line2d_37">
      <g>
       <use xlink:href="#mddcb99df41" x="1451.647059" y="1101.776581" style="stroke: #000000; stroke-width: 0.8"/>
      </g>
     </g>
     <g id="text_35">
      <!-- 2.5 -->
      <g transform="translate(1428.743934 1105.5758) scale(0.1 -0.1)">
       <defs>
        <path id="DejaVuSans-35" d="M 691 4666 
L 3169 4666 
L 3169 4134 
L 1269 4134 
L 1269 2991 
Q 1406 3038 1543 3061 
Q 1681 3084 1819 3084 
Q 2600 3084 3056 2656 
Q 3513 2228 3513 1497 
Q 3513 744 3044 326 
Q 2575 -91 1722 -91 
Q 1428 -91 1123 -41 
Q 819 9 494 109 
L 494 744 
Q 775 591 1075 516 
Q 1375 441 1709 441 
Q 2250 441 2565 725 
Q 2881 1009 2881 1497 
Q 2881 1984 2565 2268 
Q 2250 2553 1709 2553 
Q 1456 2553 1204 2497 
Q 953 2441 691 2322 
L 691 4666 
z
" transform="scale(0.015625)"/>
       </defs>
       <use xlink:href="#DejaVuSans-32"/>
       <use xlink:href="#DejaVuSans-2e" x="63.623047"/>
       <use xlink:href="#DejaVuSans-35" x="95.410156"/>
      </g>
     </g>
    </g>
    <g id="ytick_16">
     <g id="line2d_38">
      <g>
       <use xlink:href="#mddcb99df41" x="1451.647059" y="972.353163" style="stroke: #000000; stroke-width: 0.8"/>
      </g>
     </g>
     <g id="text_36">
      <!-- 5.0 -->
      <g transform="translate(1428.743934 976.152382) scale(0.1 -0.1)">
       <use xlink:href="#DejaVuSans-35"/>
       <use xlink:href="#DejaVuSans-2e" x="63.623047"/>
       <use xlink:href="#DejaVuSans-30" x="95.410156"/>
      </g>
     </g>
    </g>
    <g id="ytick_17">
     <g id="line2d_39">
      <g>
       <use xlink:href="#mddcb99df41" x="1451.647059" y="842.929744" style="stroke: #000000; stroke-width: 0.8"/>
      </g>
     </g>
     <g id="text_37">
      <!-- 7.5 -->
      <g transform="translate(1428.743934 846.728963) scale(0.1 -0.1)">
       <defs>
        <path id="DejaVuSans-37" d="M 525 4666 
L 3525 4666 
L 3525 4397 
L 1831 0 
L 1172 0 
L 2766 4134 
L 525 4134 
L 525 4666 
z
" transform="scale(0.015625)"/>
       </defs>
       <use xlink:href="#DejaVuSans-37"/>
       <use xlink:href="#DejaVuSans-2e" x="63.623047"/>
       <use xlink:href="#DejaVuSans-35" x="95.410156"/>
      </g>
     </g>
    </g>
    <g id="ytick_18">
     <g id="line2d_40">
      <g>
       <use xlink:href="#mddcb99df41" x="1451.647059" y="713.506326" style="stroke: #000000; stroke-width: 0.8"/>
      </g>
     </g>
     <g id="text_38">
      <!-- 10.0 -->
      <g transform="translate(1422.381434 717.305544) scale(0.1 -0.1)">
       <use xlink:href="#DejaVuSans-31"/>
       <use xlink:href="#DejaVuSans-30" x="63.623047"/>
       <use xlink:href="#DejaVuSans-2e" x="127.246094"/>
       <use xlink:href="#DejaVuSans-30" x="159.033203"/>
      </g>
     </g>
    </g>
    <g id="ytick_19">
     <g id="line2d_41">
      <g>
       <use xlink:href="#mddcb99df41" x="1451.647059" y="584.082907" style="stroke: #000000; stroke-width: 0.8"/>
      </g>
     </g>
     <g id="text_39">
      <!-- 12.5 -->
      <g transform="translate(1422.381434 587.882126) scale(0.1 -0.1)">
       <use xlink:href="#DejaVuSans-31"/>
       <use xlink:href="#DejaVuSans-32" x="63.623047"/>
       <use xlink:href="#DejaVuSans-2e" x="127.246094"/>
       <use xlink:href="#DejaVuSans-35" x="159.033203"/>
      </g>
     </g>
    </g>
    <g id="ytick_20">
     <g id="line2d_42">
      <g>
       <use xlink:href="#mddcb99df41" x="1451.647059" y="454.659489" style="stroke: #000000; stroke-width: 0.8"/>
      </g>
     </g>
     <g id="text_40">
      <!-- 15.0 -->
      <g transform="translate(1422.381434 458.458707) scale(0.1 -0.1)">
       <use xlink:href="#DejaVuSans-31"/>
       <use xlink:href="#DejaVuSans-35" x="63.623047"/>
       <use xlink:href="#DejaVuSans-2e" x="127.246094"/>
       <use xlink:href="#DejaVuSans-30" x="159.033203"/>
      </g>
     </g>
    </g>
    <g id="ytick_21">
     <g id="line2d_43">
      <g>
       <use xlink:href="#mddcb99df41" x="1451.647059" y="325.23607" style="stroke: #000000; stroke-width: 0.8"/>
      </g>
     </g>
     <g id="text_41">
      <!-- 17.5 -->
      <g transform="translate(1422.381434 329.035289) scale(0.1 -0.1)">
       <use xlink:href="#DejaVuSans-31"/>
       <use xlink:href="#DejaVuSans-37" x="63.623047"/>
       <use xlink:href="#DejaVuSans-2e" x="127.246094"/>
       <use xlink:href="#DejaVuSans-35" x="159.033203"/>
      </g>
     </g>
    </g>
    <g id="ytick_22">
     <g id="line2d_44">
      <g>
       <use xlink:href="#mddcb99df41" x="1451.647059" y="195.812651" style="stroke: #000000; stroke-width: 0.8"/>
      </g>
     </g>
     <g id="text_42">
      <!-- 20.0 -->
      <g transform="translate(1422.381434 199.61187) scale(0.1 -0.1)">
       <use xlink:href="#DejaVuSans-32"/>
       <use xlink:href="#DejaVuSans-30" x="63.623047"/>
       <use xlink:href="#DejaVuSans-2e" x="127.246094"/>
       <use xlink:href="#DejaVuSans-30" x="159.033203"/>
      </g>
     </g>
    </g>
   </g>
   <g id="line2d_45">
    <path d="M 1474.026738 1231.2 
L 1491.2893 1231.2 
L 1491.700314 1211.009803 
L 1492.933354 1211.009803 
L 1493.344367 1194.876386 
L 1494.577408 1194.876386 
L 1494.988421 1181.153395 
L 1496.221461 1181.153395 
L 1496.632474 1160.815429 
L 1497.865515 1160.815429 
L 1498.276528 1153.976345 
L 1499.509568 1153.976345 
L 1499.920582 1127.350853 
L 1501.153622 1127.350853 
L 1501.564635 1135.086626 
L 1502.797675 1135.086626 
L 1503.208689 1119.934064 
L 1504.441729 1119.934064 
L 1504.852742 1104.993888 
L 1506.085782 1104.993888 
L 1506.496796 1094.85924 
L 1507.729836 1094.85924 
L 1508.140849 1077.694839 
L 1509.37389 1077.694839 
L 1509.784903 1061.582796 
L 1511.017943 1061.582796 
L 1511.428957 1051.598581 
L 1514.30605 1051.598581 
L 1514.717064 1047.203618 
L 1515.950104 1047.203618 
L 1516.361117 1037.579825 
L 1517.594157 1037.579825 
L 1518.005171 1032.220265 
L 1520.882265 1032.220265 
L 1521.293278 1028.219286 
L 1522.526318 1028.219286 
L 1522.937332 1019.454102 
L 1525.814425 1019.454102 
L 1526.225439 1015.782339 
L 1527.458479 1015.782339 
L 1527.869492 1000.303445 
L 1529.102532 1000.303445 
L 1529.513546 978.583557 
L 1530.746586 978.583557 
L 1531.157599 963.367406 
L 1532.39064 963.367406 
L 1532.801653 953.242297 
L 1534.034693 953.242297 
L 1534.445706 924.998479 
L 1535.678747 924.998479 
L 1536.08976 910.94655 
L 1537.3228 910.94655 
L 1537.733814 906.535245 
L 1538.966854 906.535245 
L 1539.377867 892.777156 
L 1540.610907 892.777156 
L 1541.021921 883.614204 
L 1542.254961 883.614204 
L 1542.665974 875.79525 
L 1543.899014 875.79525 
L 1544.310028 862.126714 
L 1545.543068 862.126714 
L 1545.954081 856.556961 
L 1547.187122 856.556961 
L 1547.598135 844.104747 
L 1550.475229 844.015554 
L 1550.886242 847.537298 
L 1552.119282 847.537298 
L 1552.530296 849.71893 
L 1553.763336 849.71893 
L 1554.174349 844.609671 
L 1555.407389 844.609671 
L 1555.818403 846.753584 
L 1557.051443 846.753584 
L 1557.462456 843.751735 
L 1558.695497 843.751735 
L 1559.10651 847.122565 
L 1560.33955 847.122565 
L 1560.750563 843.961448 
L 1563.627657 843.961448 
L 1564.038671 840.740026 
L 1565.271711 840.740026 
L 1565.682724 831.23061 
L 1566.915764 831.23061 
L 1567.326778 822.983797 
L 1568.559818 822.983797 
L 1568.970831 828.015091 
L 1570.203871 828.015091 
L 1570.614885 830.02968 
L 1575.136032 830.02968 
L 1575.547046 820.646118 
L 1576.780086 820.646118 
L 1577.191099 802.992065 
L 1578.424139 802.992065 
L 1578.835153 794.431019 
L 1580.068193 794.431019 
L 1580.479206 788.382917 
L 1581.712246 788.382917 
L 1582.12326 784.41804 
L 1583.3563 784.41804 
L 1583.767313 774.94943 
L 1585.000354 774.94943 
L 1585.411367 768.596779 
L 1586.644407 768.596779 
L 1587.055421 763.666504 
L 1588.288461 763.666504 
L 1588.699474 753.574159 
L 1589.932514 753.574159 
L 1590.343528 747.597533 
L 1591.576568 747.597533 
L 1591.987581 739.35197 
L 1593.220621 739.35197 
L 1593.631635 737.087504 
L 1594.864675 737.087504 
L 1595.275688 727.786607 
L 1596.508729 727.786607 
L 1596.919742 720.080023 
L 1598.152782 720.080023 
L 1598.563795 712.509374 
L 1599.796836 712.509374 
L 1600.207849 705.240052 
L 1603.084943 705.240052 
L 1603.495956 700.186375 
L 1604.728996 700.186375 
L 1605.14001 695.7985 
L 1606.37305 695.7985 
L 1606.784063 697.8558 
L 1608.017103 697.8558 
L 1608.428117 693.969688 
L 1609.661157 693.969688 
L 1610.07217 687.216889 
L 1611.305211 687.216889 
L 1611.716224 682.37148 
L 1612.949264 682.37148 
L 1613.360278 677.485658 
L 1614.593318 677.485658 
L 1615.004331 671.019263 
L 1616.237371 671.019263 
L 1616.648385 657.246924 
L 1617.881425 657.246924 
L 1618.292438 655.706173 
L 1619.525478 655.706173 
L 1619.936492 653.5511 
L 1621.169532 653.5511 
L 1621.580545 645.092825 
L 1622.813586 645.092825 
L 1623.224599 639.042866 
L 1624.457639 639.042866 
L 1624.868652 634.873064 
L 1626.101693 634.873064 
L 1626.512706 627.382006 
L 1627.745746 627.382006 
L 1628.15676 618.846175 
L 1629.3898 618.846175 
L 1629.800813 614.306741 
L 1631.033853 614.306741 
L 1631.444867 613.473357 
L 1632.677907 613.473357 
L 1633.08892 611.055368 
L 1634.32196 611.055368 
L 1634.732974 607.806601 
L 1635.966014 607.806601 
L 1636.377027 603.0503 
L 1637.610068 603.0503 
L 1638.021081 601.497018 
L 1639.254121 601.497018 
L 1639.665135 594.794397 
L 1640.898175 594.794397 
L 1641.309188 592.501337 
L 1642.542228 592.501337 
L 1642.953242 589.020679 
L 1644.186282 589.020679 
L 1644.597295 585.557941 
L 1645.830335 585.557941 
L 1646.241349 581.732473 
L 1649.118443 581.732473 
L 1649.529456 579.462827 
L 1650.762496 579.462827 
L 1651.17351 578.327322 
L 1652.40655 578.327322 
L 1652.817563 573.442448 
L 1655.694657 573.442448 
L 1656.10567 574.567737 
L 1657.33871 574.567737 
L 1657.749724 574.947491 
L 1658.982764 574.947491 
L 1659.393777 572.780919 
L 1660.626818 572.780919 
L 1661.037831 565.810332 
L 1662.270871 565.810332 
L 1662.681884 563.004493 
L 1663.914925 563.004493 
L 1664.325938 563.652852 
L 1665.558978 563.652852 
L 1665.969992 556.824583 
L 1667.203032 556.824583 
L 1667.614045 551.256415 
L 1668.847085 551.256415 
L 1669.258099 550.352671 
L 1670.491139 550.352671 
L 1670.902152 547.748764 
L 1672.135192 547.748764 
L 1672.546206 544.049604 
L 1673.779246 544.049604 
L 1674.190259 543.479766 
L 1675.4233 543.479766 
L 1675.834313 539.586204 
L 1677.067353 539.586204 
L 1677.478367 536.547095 
L 1678.711407 536.547095 
L 1679.12242 531.559962 
L 1680.35546 531.559962 
L 1680.766474 528.608628 
L 1681.999514 528.608628 
L 1682.410527 524.670105 
L 1683.643567 524.670105 
L 1684.054581 521.054411 
L 1685.287621 521.054411 
L 1685.698634 518.217508 
L 1686.931675 518.217508 
L 1687.342688 517.737203 
L 1688.575728 517.737203 
L 1688.986742 514.21967 
L 1690.219782 514.21967 
L 1690.630795 509.344751 
L 1691.863835 509.344751 
L 1692.274849 505.085309 
L 1693.507889 505.085309 
L 1693.918902 499.211911 
L 1695.151942 499.211911 
L 1695.562956 493.901281 
L 1696.795996 493.901281 
L 1697.207009 481.384954 
L 1698.440049 481.384954 
L 1698.851063 472.549763 
L 1700.084103 472.549763 
L 1700.495116 466.013976 
L 1701.728157 466.013976 
L 1702.13917 461.920057 
L 1703.37221 461.920057 
L 1703.783224 456.099599 
L 1705.016264 456.099599 
L 1705.427277 451.922159 
L 1706.660317 451.922159 
L 1707.071331 442.224071 
L 1708.304371 442.224071 
L 1708.715384 436.862368 
L 1709.948424 436.862368 
L 1710.359438 431.4448 
L 1711.592478 431.4448 
L 1712.003491 427.107349 
L 1713.236532 427.107349 
L 1713.647545 421.807729 
L 1714.880585 421.807729 
L 1715.291599 416.778678 
L 1716.524639 416.778678 
L 1716.935652 411.211563 
L 1718.168692 411.211563 
L 1718.579706 405.448094 
L 1719.812746 405.448094 
L 1720.223759 403.632389 
L 1721.456799 403.632389 
L 1721.867813 400.285077 
L 1723.100853 400.285077 
L 1723.511866 399.089306 
L 1724.744907 399.089306 
L 1725.15592 397.650801 
L 1726.38896 397.650801 
L 1726.799973 395.278799 
L 1728.033014 395.278799 
L 1728.444027 391.51974 
L 1729.677067 391.51974 
L 1730.088081 390.111307 
L 1731.321121 390.111307 
L 1731.732134 387.788903 
L 1732.965174 387.788903 
L 1733.376188 385.717852 
L 1736.253281 385.717852 
L 1736.664295 385.490161 
L 1737.897335 385.490161 
L 1738.308348 383.878638 
L 1739.541389 383.878638 
L 1739.952402 383.1835 
L 1741.185442 383.1835 
L 1741.596456 381.594661 
L 1742.829496 381.594661 
L 1743.240509 380.467013 
L 1744.473549 380.467013 
L 1744.884563 377.90051 
L 1746.117603 377.90051 
L 1746.528616 373.634108 
L 1747.761656 373.634108 
L 1748.17267 372.731165 
L 1749.40571 372.731165 
L 1749.816723 368.223745 
L 1751.049764 368.223745 
L 1751.460777 365.352319 
L 1752.693817 365.352319 
L 1753.104831 363.568041 
L 1754.337871 363.568041 
L 1754.748884 360.543141 
L 1755.981924 360.543141 
L 1756.392938 356.300915 
L 1757.625978 356.300915 
L 1758.036991 352.987581 
L 1759.270031 352.987581 
L 1759.681045 347.960509 
L 1760.914085 347.960509 
L 1761.325098 345.89811 
L 1762.558139 345.89811 
L 1762.969152 343.684673 
L 1764.202192 343.684673 
L 1764.613205 338.677958 
L 1765.846246 338.677958 
L 1766.257259 337.671332 
L 1767.490299 337.671332 
L 1767.901313 336.523318 
L 1769.134353 336.523318 
L 1769.545366 333.661337 
L 1770.778406 333.661337 
L 1771.18942 331.250426 
L 1772.42246 331.250426 
L 1772.833473 327.673953 
L 1774.066513 327.673953 
L 1774.477527 323.922305 
L 1775.710567 323.922305 
L 1776.12158 322.269032 
L 1777.354621 322.269032 
L 1777.765634 319.500819 
L 1778.998674 319.500819 
L 1779.409688 318.066545 
L 1780.642728 318.066545 
L 1781.053741 318.588698 
L 1782.286781 318.588698 
L 1782.697795 314.50772 
L 1783.930835 314.50772 
L 1784.341848 314.330249 
L 1785.574888 314.330249 
L 1785.985902 312.333795 
L 1788.862996 312.333795 
L 1789.274009 310.050975 
L 1790.507049 310.050975 
L 1790.918062 308.188848 
L 1792.151103 308.188848 
L 1792.562116 305.829715 
L 1793.795156 305.829715 
L 1794.20617 305.018232 
L 1795.43921 305.018232 
L 1795.850223 301.890594 
L 1797.083263 301.890594 
L 1797.494277 299.634749 
L 1798.727317 299.634749 
L 1799.13833 297.301158 
L 1800.37137 297.301158 
L 1800.782384 292.190229 
L 1802.015424 292.190229 
L 1802.426437 288.664439 
L 1805.303531 288.6616 
L 1805.714545 287.647774 
L 1806.947585 287.647774 
L 1807.358598 289.188012 
L 1808.591638 289.188012 
L 1809.002652 286.040637 
L 1810.235692 286.040637 
L 1810.646705 288.119237 
L 1811.879745 288.119237 
L 1812.290759 285.630259 
L 1813.523799 285.630259 
L 1813.934812 285.495629 
L 1815.167853 285.495629 
L 1815.578866 286.169898 
L 1818.45596 286.105283 
L 1818.866973 286.660492 
L 1820.100013 286.660492 
L 1820.511027 283.578903 
L 1821.744067 283.578903 
L 1822.15508 281.589937 
L 1823.38812 281.589937 
L 1823.799134 280.797979 
L 1825.032174 280.797979 
L 1825.443187 279.530385 
L 1826.676228 279.530385 
L 1827.087241 278.352621 
L 1828.320281 278.352621 
L 1828.731294 275.335604 
L 1831.608388 275.335604 
L 1832.019402 274.15 
L 1833.252442 274.15 
L 1833.663455 272.269906 
L 1834.896495 272.269906 
L 1835.307509 271.500448 
L 1836.540549 271.500448 
L 1836.951562 270.666846 
L 1838.184602 270.666846 
L 1838.595616 268.819763 
L 1839.828656 268.819763 
L 1840.239669 267.696102 
L 1841.47271 267.696102 
L 1841.883723 266.916069 
L 1843.116763 266.916069 
L 1843.527777 266.158675 
L 1846.40487 266.105679 
L 1846.815884 264.633095 
L 1849.692977 264.581065 
L 1850.103991 262.724467 
L 1851.337031 262.724467 
L 1851.748044 261.620831 
L 1852.981085 261.620831 
L 1853.392098 260.503218 
L 1854.625138 260.503218 
L 1855.036152 260.057747 
L 1856.269192 260.057747 
L 1856.680205 258.594728 
L 1857.913245 258.594728 
L 1858.324259 257.505535 
L 1859.557299 257.505535 
L 1859.968312 258.236493 
L 1861.201352 258.236493 
L 1861.612366 257.199408 
L 1862.845406 257.199408 
L 1863.256419 255.013418 
L 1864.489459 255.013418 
L 1864.900473 253.973746 
L 1866.133513 253.973746 
L 1866.544526 254.696227 
L 1867.777567 254.696227 
L 1868.18858 252.932697 
L 1869.42162 252.932697 
L 1869.832634 252.201008 
L 1872.709727 252.186735 
L 1873.120741 251.461915 
L 1875.997834 251.447074 
L 1876.408848 249.349314 
L 1879.285942 249.338769 
L 1879.696955 247.95093 
L 1880.929995 247.95093 
L 1881.341009 247.250086 
L 1882.574049 247.250086 
L 1882.985062 246.55163 
L 1884.218102 246.55163 
L 1884.629116 245.853752 
L 1885.862156 245.853752 
L 1886.273169 243.430037 
L 1889.150263 243.430037 
L 1889.561276 242.392093 
L 1890.794317 242.392093 
L 1891.20533 241.703626 
L 1894.082424 241.70142 
L 1894.493437 239.986125 
L 1895.726477 239.986125 
L 1896.137491 239.30182 
L 1897.370531 239.30182 
L 1897.781544 238.618976 
L 1899.014584 238.618976 
L 1899.425598 237.256081 
L 1900.658638 237.256081 
L 1901.069651 235.21021 
L 1902.302691 235.21021 
L 1902.713705 234.198715 
L 1903.946745 234.198715 
L 1904.357758 232.836296 
L 1905.590799 232.836296 
L 1906.001812 231.155991 
L 1907.234852 231.155991 
L 1907.645866 229.491275 
L 1908.878906 229.491275 
L 1909.289919 229.147835 
L 1910.522959 229.147835 
L 1910.933973 229.849623 
L 1912.167013 229.849623 
L 1912.578026 228.156307 
L 1915.45512 228.189202 
L 1915.866133 226.505434 
L 1917.099174 226.505434 
L 1917.510187 225.544463 
L 1920.387281 225.544463 
L 1920.798294 223.2 
L 1921.620321 223.2 
L 1921.620321 223.2 
" clip-path="url(#p54765566e7)" style="fill: none; stroke: #0000ff; stroke-width: 1.5; stroke-linecap: square"/>
   </g>
   <g id="patch_15">
    <path d="M 1451.647059 1281.6 
L 1451.647059 172.8 
" style="fill: none; stroke: #000000; stroke-width: 0.8; stroke-linejoin: miter; stroke-linecap: square"/>
   </g>
   <g id="patch_16">
    <path d="M 1944 1281.6 
L 1944 172.8 
" style="fill: none; stroke: #000000; stroke-width: 0.8; stroke-linejoin: miter; stroke-linecap: square"/>
   </g>
   <g id="patch_17">
    <path d="M 1451.647059 1281.6 
L 1944 1281.6 
" style="fill: none; stroke: #000000; stroke-width: 0.8; stroke-linejoin: miter; stroke-linecap: square"/>
   </g>
   <g id="patch_18">
    <path d="M 1451.647059 172.8 
L 1944 172.8 
" style="fill: none; stroke: #000000; stroke-width: 0.8; stroke-linejoin: miter; stroke-linecap: square"/>
   </g>
   <g id="legend_3">
    <g id="patch_19">
     <path d="M 1852.957813 195.478125 
L 1937 195.478125 
Q 1939 195.478125 1939 193.478125 
L 1939 179.8 
Q 1939 177.8 1937 177.8 
L 1852.957813 177.8 
Q 1850.957813 177.8 1850.957813 179.8 
L 1850.957813 193.478125 
Q 1850.957813 195.478125 1852.957813 195.478125 
z
" style="fill: #ffffff; opacity: 0.8; stroke: #cccccc; stroke-linejoin: miter"/>
    </g>
    <g id="line2d_46">
     <path d="M 1854.957813 185.898437 
L 1864.957813 185.898437 
L 1874.957813 185.898437 
" style="fill: none; stroke: #0000ff; stroke-width: 1.5; stroke-linecap: square"/>
    </g>
    <g id="text_43">
     <!-- O3 reward -->
     <g transform="translate(1882.957813 189.398437) scale(0.1 -0.1)">
      <defs>
       <path id="DejaVuSans-33" d="M 2597 2516 
Q 3050 2419 3304 2112 
Q 3559 1806 3559 1356 
Q 3559 666 3084 287 
Q 2609 -91 1734 -91 
Q 1441 -91 1130 -33 
Q 819 25 488 141 
L 488 750 
Q 750 597 1062 519 
Q 1375 441 1716 441 
Q 2309 441 2620 675 
Q 2931 909 2931 1356 
Q 2931 1769 2642 2001 
Q 2353 2234 1838 2234 
L 1294 2234 
L 1294 2753 
L 1863 2753 
Q 2328 2753 2575 2939 
Q 2822 3125 2822 3475 
Q 2822 3834 2567 4026 
Q 2313 4219 1838 4219 
Q 1578 4219 1281 4162 
Q 984 4106 628 3988 
L 628 4550 
Q 988 4650 1302 4700 
Q 1616 4750 1894 4750 
Q 2613 4750 3031 4423 
Q 3450 4097 3450 3541 
Q 3450 3153 3228 2886 
Q 3006 2619 2597 2516 
z
" transform="scale(0.015625)"/>
      </defs>
      <use xlink:href="#DejaVuSans-4f"/>
      <use xlink:href="#DejaVuSans-33" x="78.710938"/>
      <use xlink:href="#DejaVuSans-20" x="142.333984"/>
      <use xlink:href="#DejaVuSans-72" x="174.121094"/>
      <use xlink:href="#DejaVuSans-65" x="212.984375"/>
      <use xlink:href="#DejaVuSans-77" x="274.507812"/>
      <use xlink:href="#DejaVuSans-61" x="356.294922"/>
      <use xlink:href="#DejaVuSans-72" x="417.574219"/>
      <use xlink:href="#DejaVuSans-64" x="456.9375"/>
     </g>
    </g>
   </g>
  </g>
 </g>
 <defs>
  <clipPath id="pf1f85deb32">
   <rect x="270" y="172.8" width="492.352941" height="1108.8"/>
  </clipPath>
  <clipPath id="p3e547f85fc">
   <rect x="860.823529" y="172.8" width="492.352941" height="1108.8"/>
  </clipPath>
  <clipPath id="p54765566e7">
   <rect x="1451.647059" y="172.8" width="492.352941" height="1108.8"/>
  </clipPath>
 </defs>
</svg>
