<?xml version="1.0" encoding="utf-8" standalone="no"?>
<!DOCTYPE svg PUBLIC "-//W3C//DTD SVG 1.1//EN"
  "http://www.w3.org/Graphics/SVG/1.1/DTD/svg11.dtd">
<svg xmlns:xlink="http://www.w3.org/1999/xlink" width="2160pt" height="1440pt" viewBox="0 0 2160 1440" xmlns="http://www.w3.org/2000/svg" version="1.1">
 <metadata>
  <rdf:RDF xmlns:dc="http://purl.org/dc/elements/1.1/" xmlns:cc="http://creativecommons.org/ns#" xmlns:rdf="http://www.w3.org/1999/02/22-rdf-syntax-ns#">
   <cc:Work>
    <dc:type rdf:resource="http://purl.org/dc/dcmitype/StillImage"/>
    <dc:date>2023-05-31T20:03:52.953736</dc:date>
    <dc:format>image/svg+xml</dc:format>
    <dc:creator>
     <cc:Agent>
      <dc:title>Matplotlib v3.7.1, https://matplotlib.org/</dc:title>
     </cc:Agent>
    </dc:creator>
   </cc:Work>
  </rdf:RDF>
 </metadata>
 <defs>
  <style type="text/css">*{stroke-linejoin: round; stroke-linecap: butt}</style>
 </defs>
 <g id="figure_1">
  <g id="patch_1">
   <path d="M 0 1440 
L 2160 1440 
L 2160 0 
L 0 0 
z
" style="fill: #ffffff"/>
  </g>
  <g id="axes_1">
   <g id="patch_2">
    <path d="M 270 1281.6 
L 762.352941 1281.6 
L 762.352941 172.8 
L 270 172.8 
z
" style="fill: #ffffff"/>
   </g>
   <g id="matplotlib.axis_1">
    <g id="xtick_1">
     <g id="line2d_1">
      <defs>
       <path id="mb37511e544" d="M 0 0 
L 0 3.5 
" style="stroke: #000000; stroke-width: 0.8"/>
      </defs>
      <g>
       <use xlink:href="#mb37511e544" x="292.163867" y="1281.6" style="stroke: #000000; stroke-width: 0.8"/>
      </g>
     </g>
     <g id="text_1">
      <!-- 0 -->
      <g transform="translate(288.982617 1296.198437) scale(0.1 -0.1)">
       <defs>
        <path id="DejaVuSans-30" d="M 2034 4250 
Q 1547 4250 1301 3770 
Q 1056 3291 1056 2328 
Q 1056 1369 1301 889 
Q 1547 409 2034 409 
Q 2525 409 2770 889 
Q 3016 1369 3016 2328 
Q 3016 3291 2770 3770 
Q 2525 4250 2034 4250 
z
M 2034 4750 
Q 2819 4750 3233 4129 
Q 3647 3509 3647 2328 
Q 3647 1150 3233 529 
Q 2819 -91 2034 -91 
Q 1250 -91 836 529 
Q 422 1150 422 2328 
Q 422 3509 836 4129 
Q 1250 4750 2034 4750 
z
" transform="scale(0.015625)"/>
       </defs>
       <use xlink:href="#DejaVuSans-30"/>
      </g>
     </g>
    </g>
    <g id="xtick_2">
     <g id="line2d_2">
      <g>
       <use xlink:href="#mb37511e544" x="400.069746" y="1281.6" style="stroke: #000000; stroke-width: 0.8"/>
      </g>
     </g>
     <g id="text_2">
      <!-- 500 -->
      <g transform="translate(390.525996 1296.198437) scale(0.1 -0.1)">
       <defs>
        <path id="DejaVuSans-35" d="M 691 4666 
L 3169 4666 
L 3169 4134 
L 1269 4134 
L 1269 2991 
Q 1406 3038 1543 3061 
Q 1681 3084 1819 3084 
Q 2600 3084 3056 2656 
Q 3513 2228 3513 1497 
Q 3513 744 3044 326 
Q 2575 -91 1722 -91 
Q 1428 -91 1123 -41 
Q 819 9 494 109 
L 494 744 
Q 775 591 1075 516 
Q 1375 441 1709 441 
Q 2250 441 2565 725 
Q 2881 1009 2881 1497 
Q 2881 1984 2565 2268 
Q 2250 2553 1709 2553 
Q 1456 2553 1204 2497 
Q 953 2441 691 2322 
L 691 4666 
z
" transform="scale(0.015625)"/>
       </defs>
       <use xlink:href="#DejaVuSans-35"/>
       <use xlink:href="#DejaVuSans-30" x="63.623047"/>
       <use xlink:href="#DejaVuSans-30" x="127.246094"/>
      </g>
     </g>
    </g>
    <g id="xtick_3">
     <g id="line2d_3">
      <g>
       <use xlink:href="#mb37511e544" x="507.975624" y="1281.6" style="stroke: #000000; stroke-width: 0.8"/>
      </g>
     </g>
     <g id="text_3">
      <!-- 1000 -->
      <g transform="translate(495.250624 1296.198437) scale(0.1 -0.1)">
       <defs>
        <path id="DejaVuSans-31" d="M 794 531 
L 1825 531 
L 1825 4091 
L 703 3866 
L 703 4441 
L 1819 4666 
L 2450 4666 
L 2450 531 
L 3481 531 
L 3481 0 
L 794 0 
L 794 531 
z
" transform="scale(0.015625)"/>
       </defs>
       <use xlink:href="#DejaVuSans-31"/>
       <use xlink:href="#DejaVuSans-30" x="63.623047"/>
       <use xlink:href="#DejaVuSans-30" x="127.246094"/>
       <use xlink:href="#DejaVuSans-30" x="190.869141"/>
      </g>
     </g>
    </g>
    <g id="xtick_4">
     <g id="line2d_4">
      <g>
       <use xlink:href="#mb37511e544" x="615.881502" y="1281.6" style="stroke: #000000; stroke-width: 0.8"/>
      </g>
     </g>
     <g id="text_4">
      <!-- 1500 -->
      <g transform="translate(603.156502 1296.198437) scale(0.1 -0.1)">
       <use xlink:href="#DejaVuSans-31"/>
       <use xlink:href="#DejaVuSans-35" x="63.623047"/>
       <use xlink:href="#DejaVuSans-30" x="127.246094"/>
       <use xlink:href="#DejaVuSans-30" x="190.869141"/>
      </g>
     </g>
    </g>
    <g id="xtick_5">
     <g id="line2d_5">
      <g>
       <use xlink:href="#mb37511e544" x="723.78738" y="1281.6" style="stroke: #000000; stroke-width: 0.8"/>
      </g>
     </g>
     <g id="text_5">
      <!-- 2000 -->
      <g transform="translate(711.06238 1296.198437) scale(0.1 -0.1)">
       <defs>
        <path id="DejaVuSans-32" d="M 1228 531 
L 3431 531 
L 3431 0 
L 469 0 
L 469 531 
Q 828 903 1448 1529 
Q 2069 2156 2228 2338 
Q 2531 2678 2651 2914 
Q 2772 3150 2772 3378 
Q 2772 3750 2511 3984 
Q 2250 4219 1831 4219 
Q 1534 4219 1204 4116 
Q 875 4013 500 3803 
L 500 4441 
Q 881 4594 1212 4672 
Q 1544 4750 1819 4750 
Q 2544 4750 2975 4387 
Q 3406 4025 3406 3419 
Q 3406 3131 3298 2873 
Q 3191 2616 2906 2266 
Q 2828 2175 2409 1742 
Q 1991 1309 1228 531 
z
" transform="scale(0.015625)"/>
       </defs>
       <use xlink:href="#DejaVuSans-32"/>
       <use xlink:href="#DejaVuSans-30" x="63.623047"/>
       <use xlink:href="#DejaVuSans-30" x="127.246094"/>
       <use xlink:href="#DejaVuSans-30" x="190.869141"/>
      </g>
     </g>
    </g>
   </g>
   <g id="matplotlib.axis_2">
    <g id="ytick_1">
     <g id="line2d_6">
      <defs>
       <path id="m1dcdbcd166" d="M 0 0 
L -3.5 0 
" style="stroke: #000000; stroke-width: 0.8"/>
      </defs>
      <g>
       <use xlink:href="#m1dcdbcd166" x="270" y="1228.535677" style="stroke: #000000; stroke-width: 0.8"/>
      </g>
     </g>
     <g id="text_6">
      <!-- −40 -->
      <g transform="translate(241.895312 1232.334896) scale(0.1 -0.1)">
       <defs>
        <path id="DejaVuSans-2212" d="M 678 2272 
L 4684 2272 
L 4684 1741 
L 678 1741 
L 678 2272 
z
" transform="scale(0.015625)"/>
        <path id="DejaVuSans-34" d="M 2419 4116 
L 825 1625 
L 2419 1625 
L 2419 4116 
z
M 2253 4666 
L 3047 4666 
L 3047 1625 
L 3713 1625 
L 3713 1100 
L 3047 1100 
L 3047 0 
L 2419 0 
L 2419 1100 
L 313 1100 
L 313 1709 
L 2253 4666 
z
" transform="scale(0.015625)"/>
       </defs>
       <use xlink:href="#DejaVuSans-2212"/>
       <use xlink:href="#DejaVuSans-34" x="83.789062"/>
       <use xlink:href="#DejaVuSans-30" x="147.412109"/>
      </g>
     </g>
    </g>
    <g id="ytick_2">
     <g id="line2d_7">
      <g>
       <use xlink:href="#m1dcdbcd166" x="270" y="1103.493926" style="stroke: #000000; stroke-width: 0.8"/>
      </g>
     </g>
     <g id="text_7">
      <!-- −35 -->
      <g transform="translate(241.895312 1107.293145) scale(0.1 -0.1)">
       <defs>
        <path id="DejaVuSans-33" d="M 2597 2516 
Q 3050 2419 3304 2112 
Q 3559 1806 3559 1356 
Q 3559 666 3084 287 
Q 2609 -91 1734 -91 
Q 1441 -91 1130 -33 
Q 819 25 488 141 
L 488 750 
Q 750 597 1062 519 
Q 1375 441 1716 441 
Q 2309 441 2620 675 
Q 2931 909 2931 1356 
Q 2931 1769 2642 2001 
Q 2353 2234 1838 2234 
L 1294 2234 
L 1294 2753 
L 1863 2753 
Q 2328 2753 2575 2939 
Q 2822 3125 2822 3475 
Q 2822 3834 2567 4026 
Q 2313 4219 1838 4219 
Q 1578 4219 1281 4162 
Q 984 4106 628 3988 
L 628 4550 
Q 988 4650 1302 4700 
Q 1616 4750 1894 4750 
Q 2613 4750 3031 4423 
Q 3450 4097 3450 3541 
Q 3450 3153 3228 2886 
Q 3006 2619 2597 2516 
z
" transform="scale(0.015625)"/>
       </defs>
       <use xlink:href="#DejaVuSans-2212"/>
       <use xlink:href="#DejaVuSans-33" x="83.789062"/>
       <use xlink:href="#DejaVuSans-35" x="147.412109"/>
      </g>
     </g>
    </g>
    <g id="ytick_3">
     <g id="line2d_8">
      <g>
       <use xlink:href="#m1dcdbcd166" x="270" y="978.452175" style="stroke: #000000; stroke-width: 0.8"/>
      </g>
     </g>
     <g id="text_8">
      <!-- −30 -->
      <g transform="translate(241.895312 982.251394) scale(0.1 -0.1)">
       <use xlink:href="#DejaVuSans-2212"/>
       <use xlink:href="#DejaVuSans-33" x="83.789062"/>
       <use xlink:href="#DejaVuSans-30" x="147.412109"/>
      </g>
     </g>
    </g>
    <g id="ytick_4">
     <g id="line2d_9">
      <g>
       <use xlink:href="#m1dcdbcd166" x="270" y="853.410424" style="stroke: #000000; stroke-width: 0.8"/>
      </g>
     </g>
     <g id="text_9">
      <!-- −25 -->
      <g transform="translate(241.895312 857.209643) scale(0.1 -0.1)">
       <use xlink:href="#DejaVuSans-2212"/>
       <use xlink:href="#DejaVuSans-32" x="83.789062"/>
       <use xlink:href="#DejaVuSans-35" x="147.412109"/>
      </g>
     </g>
    </g>
    <g id="ytick_5">
     <g id="line2d_10">
      <g>
       <use xlink:href="#m1dcdbcd166" x="270" y="728.368673" style="stroke: #000000; stroke-width: 0.8"/>
      </g>
     </g>
     <g id="text_10">
      <!-- −20 -->
      <g transform="translate(241.895312 732.167892) scale(0.1 -0.1)">
       <use xlink:href="#DejaVuSans-2212"/>
       <use xlink:href="#DejaVuSans-32" x="83.789062"/>
       <use xlink:href="#DejaVuSans-30" x="147.412109"/>
      </g>
     </g>
    </g>
    <g id="ytick_6">
     <g id="line2d_11">
      <g>
       <use xlink:href="#m1dcdbcd166" x="270" y="603.326923" style="stroke: #000000; stroke-width: 0.8"/>
      </g>
     </g>
     <g id="text_11">
      <!-- −15 -->
      <g transform="translate(241.895312 607.126141) scale(0.1 -0.1)">
       <use xlink:href="#DejaVuSans-2212"/>
       <use xlink:href="#DejaVuSans-31" x="83.789062"/>
       <use xlink:href="#DejaVuSans-35" x="147.412109"/>
      </g>
     </g>
    </g>
    <g id="ytick_7">
     <g id="line2d_12">
      <g>
       <use xlink:href="#m1dcdbcd166" x="270" y="478.285172" style="stroke: #000000; stroke-width: 0.8"/>
      </g>
     </g>
     <g id="text_12">
      <!-- −10 -->
      <g transform="translate(241.895312 482.08439) scale(0.1 -0.1)">
       <use xlink:href="#DejaVuSans-2212"/>
       <use xlink:href="#DejaVuSans-31" x="83.789062"/>
       <use xlink:href="#DejaVuSans-30" x="147.412109"/>
      </g>
     </g>
    </g>
    <g id="ytick_8">
     <g id="line2d_13">
      <g>
       <use xlink:href="#m1dcdbcd166" x="270" y="353.243421" style="stroke: #000000; stroke-width: 0.8"/>
      </g>
     </g>
     <g id="text_13">
      <!-- −5 -->
      <g transform="translate(248.257812 357.04264) scale(0.1 -0.1)">
       <use xlink:href="#DejaVuSans-2212"/>
       <use xlink:href="#DejaVuSans-35" x="83.789062"/>
      </g>
     </g>
    </g>
    <g id="ytick_9">
     <g id="line2d_14">
      <g>
       <use xlink:href="#m1dcdbcd166" x="270" y="228.20167" style="stroke: #000000; stroke-width: 0.8"/>
      </g>
     </g>
     <g id="text_14">
      <!-- 0 -->
      <g transform="translate(256.6375 232.000889) scale(0.1 -0.1)">
       <use xlink:href="#DejaVuSans-30"/>
      </g>
     </g>
    </g>
   </g>
   <g id="line2d_15">
    <path d="M 292.379679 228.20167 
L 303.170267 228.20167 
L 303.386079 223.2 
L 304.033514 223.2 
L 304.249326 226.534447 
L 304.896761 226.534447 
L 305.112573 232.203006 
L 305.760008 232.203006 
L 305.97582 232.844246 
L 306.623255 232.844246 
L 306.839067 239.20168 
L 307.486502 239.20168 
L 307.702314 241.964948 
L 308.349749 241.964948 
L 308.565561 244.922285 
L 309.212996 244.922285 
L 309.428808 247.51947 
L 310.076243 247.51947 
L 310.292055 250.888234 
L 310.93949 250.888234 
L 311.155302 253.451703 
L 312.665984 253.451703 
L 312.881796 251.329512 
L 314.392478 251.329512 
L 314.60829 254.346714 
L 315.255725 254.346714 
L 315.471537 251.797255 
L 316.118972 251.797255 
L 316.334784 249.740572 
L 317.845466 249.740572 
L 318.061278 250.257063 
L 318.708713 250.257063 
L 318.924525 247.718854 
L 320.435207 247.718854 
L 320.651019 245.190811 
L 321.298455 245.190811 
L 321.514266 242.672449 
L 322.161702 242.672449 
L 322.377513 245.005564 
L 323.024949 245.005564 
L 323.24076 241.21642 
L 324.751443 241.21642 
L 324.967254 237.70478 
L 325.61469 237.70478 
L 325.830501 239.914155 
L 326.477937 239.914155 
L 326.693748 237.70478 
L 327.341184 237.70478 
L 327.556995 241.079791 
L 329.067678 241.079791 
L 329.283489 243.462038 
L 329.930925 243.462038 
L 330.146737 247.611771 
L 330.794172 247.611771 
L 331.009984 246.988102 
L 331.657419 246.988102 
L 331.873231 248.558463 
L 332.520666 248.558463 
L 332.736478 247.959 
L 333.383913 247.959 
L 333.599725 247.372909 
L 334.24716 247.372909 
L 334.462972 248.400759 
L 335.110407 248.400759 
L 335.326219 254.285827 
L 335.973654 254.285827 
L 336.189466 252.188274 
L 336.836901 252.188274 
L 337.052713 253.816097 
L 337.700148 253.816097 
L 337.91596 259.62521 
L 338.563395 259.62521 
L 338.779207 261.609267 
L 339.426642 261.609267 
L 339.642454 263.359291 
L 342.016383 263.359291 
L 342.232195 265.299474 
L 342.87963 265.299474 
L 343.095442 268.98968 
L 343.742877 268.98968 
L 343.958689 267.052584 
L 344.606124 267.052584 
L 344.821936 270.749132 
L 345.469371 270.749132 
L 345.685183 274.411681 
L 346.332618 274.411681 
L 346.54843 276.179755 
L 347.195865 276.179755 
L 347.411677 281.770453 
L 348.059112 281.770453 
L 348.274924 285.527153 
L 348.922359 285.527153 
L 349.138171 291.184508 
L 349.785606 291.184508 
L 350.001418 296.746954 
L 350.648853 296.746954 
L 350.864665 300.483778 
L 351.5121 300.483778 
L 351.727912 302.394855 
L 352.375347 302.394855 
L 352.591159 306.131679 
L 353.238594 306.131679 
L 353.454406 304.331581 
L 354.101841 304.331581 
L 354.317653 300.775492 
L 354.965089 300.775492 
L 355.1809 297.260467 
L 355.828336 297.260467 
L 356.044147 295.502954 
L 356.691583 295.502954 
L 356.907394 299.259703 
L 358.418077 299.276509 
L 358.633888 299.598478 
L 359.281324 299.598478 
L 359.497135 305.450283 
L 361.007818 305.448248 
L 361.223629 302.07695 
L 361.871065 302.07695 
L 362.086876 300.393249 
L 362.734312 300.393249 
L 362.950124 297.031411 
L 363.597559 297.031411 
L 363.813371 300.872683 
L 364.460806 300.872683 
L 364.676618 302.552688 
L 366.1873 302.552688 
L 366.403112 304.232693 
L 367.050547 304.232693 
L 367.266359 302.554406 
L 367.913794 302.554406 
L 368.129606 301.397516 
L 368.777041 301.397516 
L 368.992853 298.077048 
L 369.640288 298.077048 
L 369.8561 298.635037 
L 370.503535 298.635037 
L 370.719347 301.465509 
L 371.366782 301.465509 
L 371.582594 302.088538 
L 372.230029 302.088538 
L 372.445841 300.441333 
L 373.956523 300.441333 
L 374.172335 304.349487 
L 374.81977 304.349487 
L 375.035582 302.725233 
L 375.683017 302.725233 
L 375.898829 301.102274 
L 376.546264 301.102274 
L 376.762076 301.780197 
L 377.409511 301.780197 
L 377.625323 302.471943 
L 378.272758 302.471943 
L 378.48857 304.790401 
L 379.136005 304.790401 
L 379.351817 308.737568 
L 379.999252 308.737568 
L 380.215064 315.02387 
L 380.862499 315.02387 
L 381.078311 318.971036 
L 381.725746 318.971036 
L 381.941558 324.523879 
L 382.588993 324.523879 
L 382.804805 330.812553 
L 383.45224 330.812553 
L 383.668052 336.353803 
L 384.315487 336.353803 
L 384.531299 344.269722 
L 385.178734 344.269722 
L 385.394546 350.605497 
L 386.041981 350.605497 
L 386.257793 352.202687 
L 386.905228 352.202687 
L 387.12104 358.5541 
L 387.768475 358.5541 
L 387.984287 359.337065 
L 388.631723 359.337065 
L 388.847534 364.107776 
L 390.358217 364.107776 
L 390.574028 366.492783 
L 392.084711 366.497191 
L 392.300522 368.884949 
L 392.947958 368.884949 
L 393.163769 367.303841 
L 394.674452 367.302946 
L 394.890263 369.707884 
L 395.537699 369.707884 
L 395.75351 373.690017 
L 396.400946 373.690017 
L 396.616758 370.551992 
L 397.264193 370.551992 
L 397.480005 371.417166 
L 398.12744 371.417166 
L 398.343252 368.298439 
L 398.990687 368.298439 
L 399.206499 363.639168 
L 399.853934 363.639168 
L 400.069746 366.085371 
L 400.717181 366.085371 
L 400.932993 361.439094 
L 401.580428 361.439094 
L 401.79624 365.441719 
L 402.443675 365.441719 
L 402.659487 364.804337 
L 405.033416 364.804337 
L 405.249228 363.267024 
L 405.896663 363.267024 
L 406.112475 360.195935 
L 406.75991 360.195935 
L 406.975722 357.127025 
L 407.623157 357.127025 
L 407.838969 350.999714 
L 408.486404 350.999714 
L 408.702216 344.899928 
L 409.349651 344.899928 
L 409.565463 340.338483 
L 410.212898 340.338483 
L 410.42871 335.788284 
L 411.076145 335.788284 
L 411.291957 334.274195 
L 411.939392 334.274195 
L 412.155204 329.739383 
L 412.802639 329.739383 
L 413.018451 326.719647 
L 414.529133 326.720875 
L 414.744945 325.213716 
L 415.39238 325.213716 
L 415.608192 320.697333 
L 416.255627 320.697333 
L 416.471439 324.747501 
L 417.118874 324.747501 
L 417.334686 320.239247 
L 417.982121 320.239247 
L 418.197933 325.347042 
L 418.845368 325.347042 
L 419.06118 334.957985 
L 419.708615 334.957985 
L 419.924427 333.459104 
L 420.571862 333.459104 
L 420.787674 333.022411 
L 421.43511 333.022411 
L 421.650921 327.038798 
L 422.298357 327.038798 
L 422.514168 329.607807 
L 423.161604 329.607807 
L 423.377415 336.240952 
L 424.024851 336.240952 
L 424.240662 342.477288 
L 424.888098 342.477288 
L 425.103909 346.54145 
L 425.751345 346.54145 
L 425.967156 353.577301 
L 426.614592 353.577301 
L 426.830403 360.227388 
L 427.477839 360.227388 
L 427.69365 364.295219 
L 428.341086 364.295219 
L 428.556897 366.883881 
L 429.204333 366.883881 
L 429.420144 367.623484 
L 430.06758 367.623484 
L 430.283392 374.288935 
L 430.930827 374.288935 
L 431.146639 379.840582 
L 431.794074 379.840582 
L 432.009886 380.960839 
L 432.657321 380.960839 
L 432.873133 383.558848 
L 433.520568 383.558848 
L 433.73638 391.361925 
L 434.383815 391.361925 
L 434.599627 398.043319 
L 435.247062 398.043319 
L 435.462874 409.948265 
L 436.110309 409.948265 
L 436.326121 424.483279 
L 436.973556 424.483279 
L 437.189368 429.714054 
L 437.836803 429.714054 
L 438.052615 440.504675 
L 438.70005 440.504675 
L 438.915862 449.51979 
L 439.563297 449.51979 
L 439.779109 448.052554 
L 440.426544 448.052554 
L 440.642356 445.12064 
L 441.289791 445.12064 
L 441.505603 442.190003 
L 443.016285 442.189612 
L 443.232097 440.725457 
L 443.879532 440.725457 
L 444.095344 439.260915 
L 444.742779 439.260915 
L 444.958591 436.334256 
L 445.606026 436.334256 
L 445.821838 434.575988 
L 446.469273 434.575988 
L 446.685085 434.281932 
L 447.33252 434.281932 
L 447.548332 440.715961 
L 448.195767 440.715961 
L 448.411579 439.255333 
L 449.059014 439.255333 
L 449.274826 441.888978 
L 449.922261 441.888978 
L 450.138073 447.158574 
L 450.785508 447.158574 
L 451.00132 446.874491 
L 451.648755 446.874491 
L 451.864567 449.511581 
L 452.512002 449.511581 
L 452.727814 453.053022 
L 453.375249 453.053022 
L 453.591061 454.235973 
L 454.238496 454.235973 
L 454.454308 456.604157 
L 455.101744 456.604157 
L 455.317555 458.059499 
L 455.964991 458.059499 
L 456.180802 456.336882 
L 456.828238 456.336882 
L 457.044049 456.071374 
L 457.691485 456.071374 
L 457.907296 460.170423 
L 458.554732 460.170423 
L 458.770543 455.807651 
L 459.417979 455.807651 
L 459.63379 456.999346 
L 460.281226 456.999346 
L 460.497037 463.486517 
L 461.144473 463.486517 
L 461.360284 462.033541 
L 462.00772 462.033541 
L 462.223531 465.877218 
L 462.870967 465.877218 
L 463.086779 469.72499 
L 463.734214 469.72499 
L 463.950026 473.574343 
L 464.597461 473.574343 
L 464.813273 485.883666 
L 465.460708 485.883666 
L 465.67652 487.334626 
L 466.323955 487.334626 
L 466.539767 492.889873 
L 467.187202 492.889873 
L 467.403014 492.646347 
L 468.050449 492.646347 
L 468.266261 494.095987 
L 469.776943 494.095987 
L 469.992755 496.994719 
L 470.64019 496.994719 
L 470.856002 496.754806 
L 471.503437 496.754806 
L 471.719249 495.067849 
L 472.366684 495.067849 
L 472.582496 494.831778 
L 473.229931 494.831778 
L 473.445743 496.046163 
L 474.093178 496.046163 
L 474.30899 498.475641 
L 474.956425 498.475641 
L 475.172237 497.029278 
L 475.819672 497.029278 
L 476.035484 496.799706 
L 476.682919 496.799706 
L 476.898731 502.12652 
L 477.546166 502.12652 
L 477.761978 504.564615 
L 478.409413 504.564615 
L 478.625225 505.784546 
L 479.27266 505.784546 
L 479.488472 502.896644 
L 480.135907 502.896644 
L 480.351719 505.343834 
L 480.999154 505.343834 
L 481.214966 502.458332 
L 481.862401 502.458332 
L 482.078213 502.027558 
L 482.725648 502.027558 
L 482.94146 510.0376 
L 484.452142 510.0376 
L 484.667954 512.709662 
L 485.315389 512.709662 
L 485.531201 513.94173 
L 487.041883 513.942432 
L 487.257695 513.737696 
L 487.90513 513.737696 
L 488.120942 520.527003 
L 488.768378 520.527003 
L 488.984189 517.64866 
L 489.631625 517.64866 
L 489.847436 516.209489 
L 490.494872 516.209489 
L 490.710683 517.447041 
L 491.358119 517.447041 
L 491.57393 514.569491 
L 493.084613 514.569491 
L 493.300424 513.130804 
L 493.94786 513.130804 
L 494.163671 511.692293 
L 494.811107 511.692293 
L 495.026918 507.377701 
L 495.674354 507.377701 
L 495.890165 504.501985 
L 496.537601 504.501985 
L 496.753413 500.188763 
L 497.400848 500.188763 
L 497.61666 497.313675 
L 498.264095 497.313675 
L 498.479907 494.439205 
L 499.127342 494.439205 
L 499.343154 490.128616 
L 499.990589 490.128616 
L 500.206401 505.165422 
L 500.853836 505.165422 
L 501.069648 513.402732 
L 501.717083 513.402732 
L 501.932895 523.076668 
L 502.58033 523.076668 
L 502.796142 527.195818 
L 503.443577 527.195818 
L 503.659389 531.314969 
L 504.306824 531.314969 
L 504.522636 542.236434 
L 505.170071 542.236434 
L 505.385883 550.475112 
L 506.033318 550.475112 
L 506.24913 560.148838 
L 506.896565 560.148838 
L 507.112377 572.505789 
L 507.759812 572.505789 
L 507.975624 576.624836 
L 508.623059 576.624836 
L 508.838871 575.190213 
L 509.486306 575.190213 
L 509.702118 572.321422 
L 510.349553 572.321422 
L 510.565365 573.755637 
L 511.2128 573.755637 
L 511.428612 572.321571 
L 512.076047 572.321571 
L 512.291859 570.887652 
L 512.939294 570.887652 
L 513.155106 569.453734 
L 513.802541 569.453734 
L 514.018353 572.139264 
L 514.665788 572.139264 
L 514.8816 570.705346 
L 516.392282 570.705492 
L 516.608094 570.524761 
L 517.255529 570.524761 
L 517.471341 576.077987 
L 518.118776 576.077987 
L 518.334588 577.33163 
L 518.982023 577.33163 
L 519.197835 585.393598 
L 519.84527 585.393598 
L 520.061082 586.826598 
L 520.708517 586.826598 
L 520.924329 588.081449 
L 521.571764 588.081449 
L 521.787576 597.579083 
L 522.435012 597.579083 
L 522.650823 604.38951 
L 523.298259 604.38951 
L 523.51407 604.213307 
L 524.161506 604.213307 
L 524.377317 606.902776 
L 525.024753 606.902776 
L 525.240564 608.335341 
L 525.888 608.335341 
L 526.103811 605.470343 
L 526.751247 605.470343 
L 526.967058 608.160709 
L 527.614494 608.160709 
L 527.830305 612.109883 
L 528.477741 612.109883 
L 528.693552 610.677548 
L 529.340988 610.677548 
L 529.556799 610.503921 
L 531.067482 610.503825 
L 531.283294 611.935839 
L 531.930729 611.935839 
L 532.146541 614.627851 
L 532.793976 614.627851 
L 533.009788 614.456153 
L 533.657223 614.456153 
L 533.873035 613.024267 
L 534.52047 613.024267 
L 534.736282 615.716976 
L 535.383717 615.716976 
L 535.599529 622.534777 
L 536.246964 622.534777 
L 536.462776 623.796597 
L 537.110211 623.796597 
L 537.326023 627.92175 
L 537.973458 627.92175 
L 538.18927 629.353168 
L 538.836705 629.353168 
L 539.052517 630.784493 
L 539.699952 630.784493 
L 539.915764 633.47832 
L 541.426446 633.47832 
L 541.642258 634.909522 
L 542.289693 634.909522 
L 542.505505 636.17239 
L 543.15294 636.17239 
L 543.368752 636.004416 
L 544.016187 636.004416 
L 544.231999 638.698727 
L 544.879434 638.698727 
L 545.095246 638.531653 
L 545.742681 638.531653 
L 545.958493 641.226147 
L 546.605928 641.226147 
L 546.82174 648.130152 
L 547.469175 648.130152 
L 547.684987 650.991275 
L 549.195669 650.991388 
L 549.411481 656.383444 
L 550.058916 656.383444 
L 550.274728 653.523198 
L 550.922163 653.523198 
L 551.137975 656.219707 
L 551.78541 656.219707 
L 552.001222 661.776242 
L 552.648657 661.776242 
L 552.864469 660.346393 
L 554.375151 660.346393 
L 554.590963 663.04321 
L 555.238399 663.04321 
L 555.45421 664.472879 
L 556.101646 664.472879 
L 556.317457 670.029053 
L 556.964893 670.029053 
L 557.180704 672.726392 
L 557.82814 672.726392 
L 558.043951 676.853326 
L 558.691387 676.853326 
L 558.907198 679.550985 
L 559.554634 679.550985 
L 559.770445 686.376314 
L 560.417881 686.376314 
L 560.633692 683.51797 
L 561.281128 683.51797 
L 561.496939 682.088902 
L 562.144375 682.088902 
L 562.360186 680.659833 
L 563.007622 680.659833 
L 563.223433 681.929637 
L 563.870869 681.929637 
L 564.086681 683.358516 
L 565.597363 683.358516 
L 565.813175 681.929637 
L 567.323857 681.929637 
L 567.539669 679.07218 
L 568.187104 679.07218 
L 568.402916 678.914473 
L 569.050351 678.914473 
L 569.266163 680.185835 
L 569.913598 680.185835 
L 570.12941 681.457295 
L 570.776845 681.457295 
L 570.992657 686.856883 
L 571.640092 686.856883 
L 571.855904 688.284985 
L 572.503339 688.284985 
L 572.719151 689.713087 
L 573.366586 689.713087 
L 573.582398 691.141189 
L 574.229833 691.141189 
L 574.445645 695.113962 
L 575.956327 695.113962 
L 576.172139 699.242641 
L 576.819574 699.242641 
L 577.035386 702.098035 
L 577.682821 702.098035 
L 577.898633 710.355709 
L 578.546068 710.355709 
L 578.76188 717.339189 
L 579.409315 717.339189 
L 579.625127 718.613741 
L 580.272562 718.613741 
L 580.488374 722.742789 
L 581.135809 722.742789 
L 581.351621 722.590661 
L 581.999056 722.590661 
L 582.214868 725.292949 
L 582.862303 725.292949 
L 583.078115 726.719984 
L 583.72555 726.719984 
L 583.941362 733.552017 
L 584.588797 733.552017 
L 584.804609 737.681683 
L 585.452044 737.681683 
L 585.667856 741.811427 
L 587.178538 741.811427 
L 587.39435 743.238115 
L 588.905033 743.238115 
L 589.120844 745.941088 
L 590.631527 745.941088 
L 590.847338 747.367776 
L 592.358021 747.367776 
L 592.573832 751.497776 
L 593.221268 751.497776 
L 593.437079 750.071175 
L 594.084515 750.071175 
L 594.300326 748.64466 
L 594.947762 748.64466 
L 595.163573 756.905243 
L 595.811009 756.905243 
L 596.02682 755.478898 
L 596.674256 755.478898 
L 596.890068 759.60931 
L 597.537503 759.60931 
L 597.753315 758.183049 
L 598.40075 758.183049 
L 598.616562 765.018029 
L 599.263997 765.018029 
L 599.479809 770.57479 
L 600.990491 770.57479 
L 601.206303 776.131388 
L 601.853738 776.131388 
L 602.06955 780.262133 
L 602.716985 780.262133 
L 602.932797 784.39296 
L 603.580232 784.39296 
L 603.796044 787.098174 
L 604.443479 787.098174 
L 604.659291 789.949158 
L 605.306726 789.949158 
L 605.522538 794.079984 
L 606.169973 794.079984 
L 606.385785 798.210889 
L 607.03322 798.210889 
L 607.249032 800.916657 
L 609.622961 800.916578 
L 609.838773 799.491442 
L 614.802443 799.491442 
L 615.018255 802.197366 
L 615.66569 802.197366 
L 615.881502 802.053172 
L 616.528937 802.053172 
L 616.744749 806.184464 
L 617.392184 806.184464 
L 617.607996 810.315834 
L 618.255431 810.315834 
L 618.471243 813.022303 
L 619.118678 813.022303 
L 619.33449 815.729 
L 619.981925 815.729 
L 620.197737 818.435776 
L 620.845172 818.435776 
L 621.060984 819.717953 
L 621.708419 819.717953 
L 621.924231 823.849863 
L 622.571667 823.849863 
L 622.787478 829.264626 
L 624.298161 829.264626 
L 624.513972 830.547551 
L 625.161408 830.547551 
L 625.377219 831.972156 
L 626.024655 831.972156 
L 626.240466 834.679839 
L 626.887902 834.679839 
L 627.103713 836.104298 
L 627.751149 836.104298 
L 627.96696 837.387749 
L 628.614396 837.387749 
L 628.830207 844.228397 
L 629.477643 844.228397 
L 629.693454 848.361065 
L 630.34089 848.361065 
L 630.556702 856.626615 
L 631.204137 856.626615 
L 631.419949 859.33533 
L 632.067384 859.33533 
L 632.283196 863.468282 
L 632.930631 863.468282 
L 633.146443 869.025179 
L 633.793878 869.025179 
L 634.00969 873.158196 
L 635.520372 873.158196 
L 635.736184 877.291293 
L 637.246866 877.291293 
L 637.462678 880.000796 
L 638.110113 880.000796 
L 638.325925 878.577053 
L 638.97336 878.577053 
L 639.189172 881.286704 
L 639.836607 881.286704 
L 640.052419 882.710379 
L 640.699854 882.710379 
L 640.915666 885.420166 
L 641.563101 885.420166 
L 641.778913 883.996492 
L 642.426348 883.996492 
L 642.64216 892.263632 
L 643.289595 892.263632 
L 643.505407 892.12677 
L 644.152842 892.12677 
L 644.368654 903.10514 
L 645.016089 903.10514 
L 645.231901 908.526723 
L 645.879336 908.526723 
L 646.095148 909.814414 
L 646.742583 909.814414 
L 646.958395 918.083303 
L 647.60583 918.083303 
L 647.821642 922.083186 
L 648.469077 922.083186 
L 648.684889 923.506238 
L 649.332324 923.506238 
L 649.548136 927.640938 
L 650.195571 927.640938 
L 650.411383 930.352779 
L 651.058818 930.352779 
L 651.27463 934.487686 
L 651.922065 934.487686 
L 652.137877 942.757709 
L 652.785312 942.757709 
L 653.001124 948.182602 
L 653.648559 948.182602 
L 653.864371 953.740507 
L 654.511806 953.740507 
L 654.727618 960.588737 
L 655.375054 960.588737 
L 655.590865 968.859827 
L 656.238301 968.859827 
L 656.454112 967.437426 
L 657.101548 967.437426 
L 657.317359 974.286491 
L 657.964795 974.286491 
L 658.180606 972.864151 
L 659.691289 972.864151 
L 659.9071 975.708648 
L 661.417783 975.708648 
L 661.633594 978.955286 
L 663.144277 978.955286 
L 663.360088 980.40896 
L 664.007524 980.40896 
L 664.223336 983.122982 
L 664.870771 983.122982 
L 665.086583 981.669308 
L 665.734018 981.669308 
L 665.94983 984.383566 
L 666.597265 984.383566 
L 666.813077 988.551518 
L 667.460512 988.551518 
L 667.676324 994.172909 
L 668.323759 994.172909 
L 668.539571 998.340976 
L 669.187006 998.340976 
L 669.402818 995.434564 
L 671.776747 995.434564 
L 671.992559 993.981358 
L 672.639994 993.981358 
L 672.855806 995.434449 
L 673.503241 995.434449 
L 673.719053 999.602516 
L 675.229735 999.602516 
L 675.445547 1003.770697 
L 676.092982 1003.770697 
L 676.308794 1009.912988 
L 676.956229 1009.912988 
L 677.172041 1016.828347 
L 677.819476 1016.828347 
L 678.035288 1021.027855 
L 678.682723 1021.027855 
L 678.898535 1022.510515 
L 679.54597 1022.510515 
L 679.761782 1021.027855 
L 680.409217 1021.027855 
L 680.625029 1022.510351 
L 681.272464 1022.510351 
L 681.488276 1023.99278 
L 682.135711 1023.99278 
L 682.351523 1025.227167 
L 682.998958 1025.227167 
L 683.21477 1030.661779 
L 683.862205 1030.661779 
L 684.078017 1033.379571 
L 685.588699 1033.37941 
L 685.804511 1037.579469 
L 686.451946 1037.579469 
L 686.667758 1040.297717 
L 688.17844 1040.297717 
L 688.394252 1038.815773 
L 690.768182 1038.815773 
L 690.983993 1043.015939 
L 691.631429 1043.015939 
L 691.84724 1041.534154 
L 692.494676 1041.534154 
L 692.710487 1046.971435 
L 693.357923 1046.971435 
L 693.573734 1053.891239 
L 694.22117 1053.891239 
L 694.436981 1059.57348 
L 695.084417 1059.57348 
L 695.300228 1062.293386 
L 695.947664 1062.293386 
L 696.163475 1065.013267 
L 696.810911 1065.013267 
L 697.026722 1069.21437 
L 697.674158 1069.21437 
L 697.88997 1071.934692 
L 698.537405 1071.934692 
L 698.753217 1071.693734 
L 699.400652 1071.693734 
L 699.616464 1077.13551 
L 700.263899 1077.13551 
L 700.479711 1087.019388 
L 701.127146 1087.019388 
L 701.342958 1088.499585 
L 701.990393 1088.499585 
L 702.206205 1091.977697 
L 702.85364 1091.977697 
L 703.069452 1093.161937 
L 703.716887 1093.161937 
L 703.932699 1096.121742 
L 704.580134 1096.121742 
L 704.795946 1100.26605 
L 705.443381 1100.26605 
L 705.659193 1101.45141 
L 706.306628 1101.45141 
L 706.52244 1109.741811 
L 707.169875 1109.741811 
L 707.385687 1115.366529 
L 708.033122 1115.366529 
L 708.248934 1116.553706 
L 708.896369 1116.553706 
L 709.112181 1122.178555 
L 709.759616 1122.178555 
L 709.975428 1123.366368 
L 711.48611 1123.366368 
L 711.701922 1130.179793 
L 712.349357 1130.179793 
L 712.565169 1131.658573 
L 714.075851 1131.658573 
L 714.291663 1134.32631 
L 714.939098 1134.32631 
L 715.15491 1135.805029 
L 716.665592 1135.805029 
L 716.881404 1136.994431 
L 717.528839 1136.994431 
L 717.744651 1141.141459 
L 718.392086 1141.141459 
L 718.607898 1143.810149 
L 719.255333 1143.810149 
L 719.471145 1147.670441 
L 720.11858 1147.670441 
L 720.334392 1153.296308 
L 720.981827 1153.296308 
L 721.197639 1161.592296 
L 721.845074 1161.592296 
L 722.060886 1169.889018 
L 722.708322 1169.889018 
L 722.924133 1172.843424 
L 723.571569 1172.843424 
L 723.78738 1174.320355 
L 725.298063 1174.320355 
L 725.513874 1186.764427 
L 726.16131 1186.764427 
L 726.377121 1189.716912 
L 727.024557 1189.716912 
L 727.240368 1193.864819 
L 727.887804 1193.864819 
L 728.103615 1198.01249 
L 728.751051 1198.01249 
L 728.966862 1204.833085 
L 729.614298 1204.833085 
L 729.830109 1213.129995 
L 730.477545 1213.129995 
L 730.693357 1221.427591 
L 731.340792 1221.427591 
L 731.556604 1222.902293 
L 733.067286 1222.902293 
L 733.283098 1228.525426 
L 735.657027 1228.525426 
L 735.872839 1229.999732 
L 736.520274 1229.999732 
L 736.736086 1231.2 
L 739.973262 1231.2 
L 739.973262 1231.2 
" clip-path="url(#pb1c878414a)" style="fill: none; stroke: #0000ff; stroke-width: 1.5; stroke-linecap: square"/>
   </g>
   <g id="patch_3">
    <path d="M 270 1281.6 
L 270 172.8 
" style="fill: none; stroke: #000000; stroke-width: 0.8; stroke-linejoin: miter; stroke-linecap: square"/>
   </g>
   <g id="patch_4">
    <path d="M 762.352941 1281.6 
L 762.352941 172.8 
" style="fill: none; stroke: #000000; stroke-width: 0.8; stroke-linejoin: miter; stroke-linecap: square"/>
   </g>
   <g id="patch_5">
    <path d="M 270 1281.6 
L 762.352941 1281.6 
" style="fill: none; stroke: #000000; stroke-width: 0.8; stroke-linejoin: miter; stroke-linecap: square"/>
   </g>
   <g id="patch_6">
    <path d="M 270 172.8 
L 762.352941 172.8 
" style="fill: none; stroke: #000000; stroke-width: 0.8; stroke-linejoin: miter; stroke-linecap: square"/>
   </g>
   <g id="legend_1">
    <g id="patch_7">
     <path d="M 671.310754 195.478125 
L 755.352941 195.478125 
Q 757.352941 195.478125 757.352941 193.478125 
L 757.352941 179.8 
Q 757.352941 177.8 755.352941 177.8 
L 671.310754 177.8 
Q 669.310754 177.8 669.310754 179.8 
L 669.310754 193.478125 
Q 669.310754 195.478125 671.310754 195.478125 
z
" style="fill: #ffffff; opacity: 0.8; stroke: #cccccc; stroke-linejoin: miter"/>
    </g>
    <g id="line2d_16">
     <path d="M 673.310754 185.898437 
L 683.310754 185.898437 
L 693.310754 185.898437 
" style="fill: none; stroke: #0000ff; stroke-width: 1.5; stroke-linecap: square"/>
    </g>
    <g id="text_15">
     <!-- O1 reward -->
     <g transform="translate(701.310754 189.398437) scale(0.1 -0.1)">
      <defs>
       <path id="DejaVuSans-4f" d="M 2522 4238 
Q 1834 4238 1429 3725 
Q 1025 3213 1025 2328 
Q 1025 1447 1429 934 
Q 1834 422 2522 422 
Q 3209 422 3611 934 
Q 4013 1447 4013 2328 
Q 4013 3213 3611 3725 
Q 3209 4238 2522 4238 
z
M 2522 4750 
Q 3503 4750 4090 4092 
Q 4678 3434 4678 2328 
Q 4678 1225 4090 567 
Q 3503 -91 2522 -91 
Q 1538 -91 948 565 
Q 359 1222 359 2328 
Q 359 3434 948 4092 
Q 1538 4750 2522 4750 
z
" transform="scale(0.015625)"/>
       <path id="DejaVuSans-20" transform="scale(0.015625)"/>
       <path id="DejaVuSans-72" d="M 2631 2963 
Q 2534 3019 2420 3045 
Q 2306 3072 2169 3072 
Q 1681 3072 1420 2755 
Q 1159 2438 1159 1844 
L 1159 0 
L 581 0 
L 581 3500 
L 1159 3500 
L 1159 2956 
Q 1341 3275 1631 3429 
Q 1922 3584 2338 3584 
Q 2397 3584 2469 3576 
Q 2541 3569 2628 3553 
L 2631 2963 
z
" transform="scale(0.015625)"/>
       <path id="DejaVuSans-65" d="M 3597 1894 
L 3597 1613 
L 953 1613 
Q 991 1019 1311 708 
Q 1631 397 2203 397 
Q 2534 397 2845 478 
Q 3156 559 3463 722 
L 3463 178 
Q 3153 47 2828 -22 
Q 2503 -91 2169 -91 
Q 1331 -91 842 396 
Q 353 884 353 1716 
Q 353 2575 817 3079 
Q 1281 3584 2069 3584 
Q 2775 3584 3186 3129 
Q 3597 2675 3597 1894 
z
M 3022 2063 
Q 3016 2534 2758 2815 
Q 2500 3097 2075 3097 
Q 1594 3097 1305 2825 
Q 1016 2553 972 2059 
L 3022 2063 
z
" transform="scale(0.015625)"/>
       <path id="DejaVuSans-77" d="M 269 3500 
L 844 3500 
L 1563 769 
L 2278 3500 
L 2956 3500 
L 3675 769 
L 4391 3500 
L 4966 3500 
L 4050 0 
L 3372 0 
L 2619 2869 
L 1863 0 
L 1184 0 
L 269 3500 
z
" transform="scale(0.015625)"/>
       <path id="DejaVuSans-61" d="M 2194 1759 
Q 1497 1759 1228 1600 
Q 959 1441 959 1056 
Q 959 750 1161 570 
Q 1363 391 1709 391 
Q 2188 391 2477 730 
Q 2766 1069 2766 1631 
L 2766 1759 
L 2194 1759 
z
M 3341 1997 
L 3341 0 
L 2766 0 
L 2766 531 
Q 2569 213 2275 61 
Q 1981 -91 1556 -91 
Q 1019 -91 701 211 
Q 384 513 384 1019 
Q 384 1609 779 1909 
Q 1175 2209 1959 2209 
L 2766 2209 
L 2766 2266 
Q 2766 2663 2505 2880 
Q 2244 3097 1772 3097 
Q 1472 3097 1187 3025 
Q 903 2953 641 2809 
L 641 3341 
Q 956 3463 1253 3523 
Q 1550 3584 1831 3584 
Q 2591 3584 2966 3190 
Q 3341 2797 3341 1997 
z
" transform="scale(0.015625)"/>
       <path id="DejaVuSans-64" d="M 2906 2969 
L 2906 4863 
L 3481 4863 
L 3481 0 
L 2906 0 
L 2906 525 
Q 2725 213 2448 61 
Q 2172 -91 1784 -91 
Q 1150 -91 751 415 
Q 353 922 353 1747 
Q 353 2572 751 3078 
Q 1150 3584 1784 3584 
Q 2172 3584 2448 3432 
Q 2725 3281 2906 2969 
z
M 947 1747 
Q 947 1113 1208 752 
Q 1469 391 1925 391 
Q 2381 391 2643 752 
Q 2906 1113 2906 1747 
Q 2906 2381 2643 2742 
Q 2381 3103 1925 3103 
Q 1469 3103 1208 2742 
Q 947 2381 947 1747 
z
" transform="scale(0.015625)"/>
      </defs>
      <use xlink:href="#DejaVuSans-4f"/>
      <use xlink:href="#DejaVuSans-31" x="78.710938"/>
      <use xlink:href="#DejaVuSans-20" x="142.333984"/>
      <use xlink:href="#DejaVuSans-72" x="174.121094"/>
      <use xlink:href="#DejaVuSans-65" x="212.984375"/>
      <use xlink:href="#DejaVuSans-77" x="274.507812"/>
      <use xlink:href="#DejaVuSans-61" x="356.294922"/>
      <use xlink:href="#DejaVuSans-72" x="417.574219"/>
      <use xlink:href="#DejaVuSans-64" x="456.9375"/>
     </g>
    </g>
   </g>
  </g>
  <g id="axes_2">
   <g id="patch_8">
    <path d="M 860.823529 1281.6 
L 1353.176471 1281.6 
L 1353.176471 172.8 
L 860.823529 172.8 
z
" style="fill: #ffffff"/>
   </g>
   <g id="matplotlib.axis_3">
    <g id="xtick_6">
     <g id="line2d_17">
      <g>
       <use xlink:href="#mb37511e544" x="882.987397" y="1281.6" style="stroke: #000000; stroke-width: 0.8"/>
      </g>
     </g>
     <g id="text_16">
      <!-- 0 -->
      <g transform="translate(879.806147 1296.198437) scale(0.1 -0.1)">
       <use xlink:href="#DejaVuSans-30"/>
      </g>
     </g>
    </g>
    <g id="xtick_7">
     <g id="line2d_18">
      <g>
       <use xlink:href="#mb37511e544" x="990.893275" y="1281.6" style="stroke: #000000; stroke-width: 0.8"/>
      </g>
     </g>
     <g id="text_17">
      <!-- 500 -->
      <g transform="translate(981.349525 1296.198437) scale(0.1 -0.1)">
       <use xlink:href="#DejaVuSans-35"/>
       <use xlink:href="#DejaVuSans-30" x="63.623047"/>
       <use xlink:href="#DejaVuSans-30" x="127.246094"/>
      </g>
     </g>
    </g>
    <g id="xtick_8">
     <g id="line2d_19">
      <g>
       <use xlink:href="#mb37511e544" x="1098.799153" y="1281.6" style="stroke: #000000; stroke-width: 0.8"/>
      </g>
     </g>
     <g id="text_18">
      <!-- 1000 -->
      <g transform="translate(1086.074153 1296.198437) scale(0.1 -0.1)">
       <use xlink:href="#DejaVuSans-31"/>
       <use xlink:href="#DejaVuSans-30" x="63.623047"/>
       <use xlink:href="#DejaVuSans-30" x="127.246094"/>
       <use xlink:href="#DejaVuSans-30" x="190.869141"/>
      </g>
     </g>
    </g>
    <g id="xtick_9">
     <g id="line2d_20">
      <g>
       <use xlink:href="#mb37511e544" x="1206.705031" y="1281.6" style="stroke: #000000; stroke-width: 0.8"/>
      </g>
     </g>
     <g id="text_19">
      <!-- 1500 -->
      <g transform="translate(1193.980031 1296.198437) scale(0.1 -0.1)">
       <use xlink:href="#DejaVuSans-31"/>
       <use xlink:href="#DejaVuSans-35" x="63.623047"/>
       <use xlink:href="#DejaVuSans-30" x="127.246094"/>
       <use xlink:href="#DejaVuSans-30" x="190.869141"/>
      </g>
     </g>
    </g>
    <g id="xtick_10">
     <g id="line2d_21">
      <g>
       <use xlink:href="#mb37511e544" x="1314.61091" y="1281.6" style="stroke: #000000; stroke-width: 0.8"/>
      </g>
     </g>
     <g id="text_20">
      <!-- 2000 -->
      <g transform="translate(1301.88591 1296.198437) scale(0.1 -0.1)">
       <use xlink:href="#DejaVuSans-32"/>
       <use xlink:href="#DejaVuSans-30" x="63.623047"/>
       <use xlink:href="#DejaVuSans-30" x="127.246094"/>
       <use xlink:href="#DejaVuSans-30" x="190.869141"/>
      </g>
     </g>
    </g>
   </g>
   <g id="matplotlib.axis_4">
    <g id="ytick_10">
     <g id="line2d_22">
      <g>
       <use xlink:href="#m1dcdbcd166" x="860.823529" y="1231.2" style="stroke: #000000; stroke-width: 0.8"/>
      </g>
     </g>
     <g id="text_21">
      <!-- 0 -->
      <g transform="translate(847.461029 1234.999219) scale(0.1 -0.1)">
       <use xlink:href="#DejaVuSans-30"/>
      </g>
     </g>
    </g>
    <g id="ytick_11">
     <g id="line2d_23">
      <g>
       <use xlink:href="#m1dcdbcd166" x="860.823529" y="1059.957317" style="stroke: #000000; stroke-width: 0.8"/>
      </g>
     </g>
     <g id="text_22">
      <!-- 20 -->
      <g transform="translate(841.098529 1063.756536) scale(0.1 -0.1)">
       <use xlink:href="#DejaVuSans-32"/>
       <use xlink:href="#DejaVuSans-30" x="63.623047"/>
      </g>
     </g>
    </g>
    <g id="ytick_12">
     <g id="line2d_24">
      <g>
       <use xlink:href="#m1dcdbcd166" x="860.823529" y="888.714635" style="stroke: #000000; stroke-width: 0.8"/>
      </g>
     </g>
     <g id="text_23">
      <!-- 40 -->
      <g transform="translate(841.098529 892.513854) scale(0.1 -0.1)">
       <use xlink:href="#DejaVuSans-34"/>
       <use xlink:href="#DejaVuSans-30" x="63.623047"/>
      </g>
     </g>
    </g>
    <g id="ytick_13">
     <g id="line2d_25">
      <g>
       <use xlink:href="#m1dcdbcd166" x="860.823529" y="717.471952" style="stroke: #000000; stroke-width: 0.8"/>
      </g>
     </g>
     <g id="text_24">
      <!-- 60 -->
      <g transform="translate(841.098529 721.271171) scale(0.1 -0.1)">
       <defs>
        <path id="DejaVuSans-36" d="M 2113 2584 
Q 1688 2584 1439 2293 
Q 1191 2003 1191 1497 
Q 1191 994 1439 701 
Q 1688 409 2113 409 
Q 2538 409 2786 701 
Q 3034 994 3034 1497 
Q 3034 2003 2786 2293 
Q 2538 2584 2113 2584 
z
M 3366 4563 
L 3366 3988 
Q 3128 4100 2886 4159 
Q 2644 4219 2406 4219 
Q 1781 4219 1451 3797 
Q 1122 3375 1075 2522 
Q 1259 2794 1537 2939 
Q 1816 3084 2150 3084 
Q 2853 3084 3261 2657 
Q 3669 2231 3669 1497 
Q 3669 778 3244 343 
Q 2819 -91 2113 -91 
Q 1303 -91 875 529 
Q 447 1150 447 2328 
Q 447 3434 972 4092 
Q 1497 4750 2381 4750 
Q 2619 4750 2861 4703 
Q 3103 4656 3366 4563 
z
" transform="scale(0.015625)"/>
       </defs>
       <use xlink:href="#DejaVuSans-36"/>
       <use xlink:href="#DejaVuSans-30" x="63.623047"/>
      </g>
     </g>
    </g>
    <g id="ytick_14">
     <g id="line2d_26">
      <g>
       <use xlink:href="#m1dcdbcd166" x="860.823529" y="546.22927" style="stroke: #000000; stroke-width: 0.8"/>
      </g>
     </g>
     <g id="text_25">
      <!-- 80 -->
      <g transform="translate(841.098529 550.028488) scale(0.1 -0.1)">
       <defs>
        <path id="DejaVuSans-38" d="M 2034 2216 
Q 1584 2216 1326 1975 
Q 1069 1734 1069 1313 
Q 1069 891 1326 650 
Q 1584 409 2034 409 
Q 2484 409 2743 651 
Q 3003 894 3003 1313 
Q 3003 1734 2745 1975 
Q 2488 2216 2034 2216 
z
M 1403 2484 
Q 997 2584 770 2862 
Q 544 3141 544 3541 
Q 544 4100 942 4425 
Q 1341 4750 2034 4750 
Q 2731 4750 3128 4425 
Q 3525 4100 3525 3541 
Q 3525 3141 3298 2862 
Q 3072 2584 2669 2484 
Q 3125 2378 3379 2068 
Q 3634 1759 3634 1313 
Q 3634 634 3220 271 
Q 2806 -91 2034 -91 
Q 1263 -91 848 271 
Q 434 634 434 1313 
Q 434 1759 690 2068 
Q 947 2378 1403 2484 
z
M 1172 3481 
Q 1172 3119 1398 2916 
Q 1625 2713 2034 2713 
Q 2441 2713 2670 2916 
Q 2900 3119 2900 3481 
Q 2900 3844 2670 4047 
Q 2441 4250 2034 4250 
Q 1625 4250 1398 4047 
Q 1172 3844 1172 3481 
z
" transform="scale(0.015625)"/>
       </defs>
       <use xlink:href="#DejaVuSans-38"/>
       <use xlink:href="#DejaVuSans-30" x="63.623047"/>
      </g>
     </g>
    </g>
    <g id="ytick_15">
     <g id="line2d_27">
      <g>
       <use xlink:href="#m1dcdbcd166" x="860.823529" y="374.986587" style="stroke: #000000; stroke-width: 0.8"/>
      </g>
     </g>
     <g id="text_26">
      <!-- 100 -->
      <g transform="translate(834.736029 378.785806) scale(0.1 -0.1)">
       <use xlink:href="#DejaVuSans-31"/>
       <use xlink:href="#DejaVuSans-30" x="63.623047"/>
       <use xlink:href="#DejaVuSans-30" x="127.246094"/>
      </g>
     </g>
    </g>
    <g id="ytick_16">
     <g id="line2d_28">
      <g>
       <use xlink:href="#m1dcdbcd166" x="860.823529" y="203.743905" style="stroke: #000000; stroke-width: 0.8"/>
      </g>
     </g>
     <g id="text_27">
      <!-- 120 -->
      <g transform="translate(834.736029 207.543123) scale(0.1 -0.1)">
       <use xlink:href="#DejaVuSans-31"/>
       <use xlink:href="#DejaVuSans-32" x="63.623047"/>
       <use xlink:href="#DejaVuSans-30" x="127.246094"/>
      </g>
     </g>
    </g>
   </g>
   <g id="line2d_29">
    <path d="M 883.203209 1231.2 
L 893.130549 1231.136699 
L 893.346361 1227.68719 
L 893.993796 1227.68719 
L 894.209608 1229.039139 
L 894.857043 1229.039139 
L 895.072855 1228.235135 
L 895.72029 1228.235135 
L 895.936102 1229.820127 
L 896.583537 1229.820127 
L 896.799349 1222.699107 
L 897.446784 1222.699107 
L 897.662596 1211.90469 
L 898.310032 1211.90469 
L 898.525843 1206.534695 
L 899.173279 1206.534695 
L 899.38909 1192.389649 
L 900.036526 1192.389649 
L 900.252337 1179.353295 
L 904.352761 1179.353295 
L 904.568572 1173.69531 
L 906.942502 1173.69531 
L 907.158314 1167.660967 
L 909.532243 1167.660967 
L 909.748055 1159.43928 
L 910.39549 1159.43928 
L 910.611302 1157.130696 
L 911.258737 1157.130696 
L 911.474549 1154.590374 
L 912.985231 1154.590374 
L 913.201043 1138.997135 
L 913.848478 1138.997135 
L 914.06429 1114.475462 
L 914.711725 1114.475462 
L 914.927537 1107.943122 
L 915.574972 1107.943122 
L 915.790784 1095.364034 
L 916.438219 1095.364034 
L 916.654031 1064.913342 
L 917.301466 1064.913342 
L 917.517278 1043.719611 
L 926.797183 1043.719611 
L 927.012995 1037.470456 
L 929.386924 1037.470456 
L 929.602736 1031.313139 
L 930.250171 1031.313139 
L 930.465983 1025.091445 
L 931.113418 1025.091445 
L 931.32923 1018.807025 
L 932.839913 1018.807025 
L 933.055724 1016.588921 
L 936.292901 1016.588921 
L 936.508712 1014.311207 
L 937.156148 1014.311207 
L 937.371959 999.191237 
L 938.019395 999.191237 
L 938.235206 987.644376 
L 938.882642 987.644376 
L 939.098453 962.054186 
L 939.745889 962.054186 
L 939.961701 939.54186 
L 940.609136 939.54186 
L 940.824948 921.797818 
L 941.472383 921.797818 
L 941.688195 899.977761 
L 942.33563 899.977761 
L 942.551442 873.47625 
L 943.198877 873.47625 
L 943.414689 861.624069 
L 944.062124 861.624069 
L 944.277936 845.209521 
L 946.651865 845.209521 
L 946.867677 841.503785 
L 947.515112 841.503785 
L 947.730924 833.841127 
L 948.378359 833.841127 
L 948.594171 839.129248 
L 949.241606 839.129248 
L 949.457418 841.644464 
L 950.104853 841.644464 
L 950.320665 846.869373 
L 950.9681 846.869373 
L 951.183912 849.566347 
L 951.831347 849.566347 
L 952.047159 852.017045 
L 952.694594 852.017045 
L 952.910406 844.467016 
L 954.421088 844.467016 
L 954.6369 839.332833 
L 955.284335 839.332833 
L 955.500147 836.967466 
L 956.147582 836.967466 
L 956.363394 829.550086 
L 957.010829 829.550086 
L 957.226641 814.918554 
L 957.874076 814.918554 
L 958.089888 807.913065 
L 958.737323 807.913065 
L 958.953135 801.82272 
L 959.60057 801.82272 
L 959.816382 797.879891 
L 960.463817 797.879891 
L 960.679629 791.403832 
L 961.327064 791.403832 
L 961.542876 797.815933 
L 962.190311 797.815933 
L 962.406123 812.180548 
L 963.053558 812.180548 
L 963.26937 807.678056 
L 963.916805 807.678056 
L 964.132617 795.324837 
L 964.780052 795.324837 
L 964.995864 784.843524 
L 965.6433 784.843524 
L 965.859111 786.3571 
L 966.506547 786.3571 
L 966.722358 776.402797 
L 967.369794 776.402797 
L 967.585605 767.848782 
L 968.233041 767.848782 
L 968.448852 766.462282 
L 969.959535 766.411586 
L 970.175346 767.757601 
L 970.822782 767.757601 
L 971.038593 765.123705 
L 971.686029 765.123705 
L 971.90184 756.901753 
L 972.549276 756.901753 
L 972.765087 758.136401 
L 973.412523 758.136401 
L 973.628335 755.339177 
L 974.27577 755.339177 
L 974.491582 747.32808 
L 975.139017 747.32808 
L 975.354829 742.182048 
L 976.002264 742.182048 
L 976.218076 737.077451 
L 976.865511 737.077451 
L 977.081323 734.297959 
L 977.728758 734.297959 
L 977.94457 732.647744 
L 979.455252 732.647744 
L 979.671064 742.628406 
L 980.318499 742.628406 
L 980.534311 747.544341 
L 981.181746 747.544341 
L 981.397558 745.795369 
L 982.044993 745.795369 
L 982.260805 749.548456 
L 982.90824 749.548456 
L 983.124052 750.478237 
L 983.771487 750.478237 
L 983.987299 760.652792 
L 984.634734 760.652792 
L 984.850546 762.595383 
L 985.497981 762.595383 
L 985.713793 770.725013 
L 986.361228 770.725013 
L 986.57704 770.328476 
L 987.224475 770.328476 
L 987.440287 762.408848 
L 988.087722 762.408848 
L 988.303534 757.34035 
L 988.950969 757.34035 
L 989.166781 756.591018 
L 989.814216 756.591018 
L 990.030028 752.341445 
L 990.677463 752.341445 
L 990.893275 745.333761 
L 991.54071 745.333761 
L 991.756522 748.140637 
L 992.403957 748.140637 
L 992.619769 750.942849 
L 993.267204 750.942849 
L 993.483016 750.275529 
L 994.130451 750.275529 
L 994.346263 747.463942 
L 994.993698 747.463942 
L 995.20951 739.921034 
L 995.856945 739.921034 
L 996.072757 735.240825 
L 997.583439 735.240825 
L 997.799251 731.233866 
L 998.446687 731.233866 
L 998.662498 735.770417 
L 999.309934 735.770417 
L 999.525745 743.564982 
L 1000.173181 743.564982 
L 1000.388992 745.871197 
L 1001.036428 745.871197 
L 1001.252239 745.404546 
L 1001.899675 745.404546 
L 1002.115486 744.49782 
L 1002.762922 744.49782 
L 1002.978733 746.463148 
L 1003.626169 746.463148 
L 1003.84198 739.268002 
L 1004.489416 739.268002 
L 1004.705227 721.603228 
L 1005.352663 721.603228 
L 1005.568474 711.190193 
L 1006.21591 711.190193 
L 1006.431721 697.496056 
L 1007.079157 697.496056 
L 1007.294969 683.713226 
L 1007.942404 683.713226 
L 1008.158216 670.658363 
L 1008.805651 670.658363 
L 1009.021463 663.840698 
L 1009.668898 663.840698 
L 1009.88471 654.295974 
L 1010.532145 654.295974 
L 1010.747957 641.433483 
L 1011.395392 641.433483 
L 1011.611204 635.080618 
L 1012.258639 635.080618 
L 1012.474451 625.652846 
L 1013.121886 625.652846 
L 1013.337698 628.918641 
L 1013.985133 628.918641 
L 1014.200945 623.294044 
L 1014.84838 623.294044 
L 1015.064192 632.381849 
L 1015.711627 632.381849 
L 1015.927439 632.63808 
L 1016.574874 632.63808 
L 1016.790686 632.850197 
L 1017.438121 632.850197 
L 1017.653933 630.136866 
L 1019.164615 630.231038 
L 1019.380427 630.402984 
L 1020.027862 630.402984 
L 1020.243674 639.242089 
L 1020.891109 639.242089 
L 1021.106921 644.990885 
L 1021.754356 644.990885 
L 1021.970168 647.803242 
L 1022.617603 647.803242 
L 1022.833415 644.986261 
L 1023.48085 644.986261 
L 1023.696662 642.055719 
L 1024.344097 642.055719 
L 1024.559909 636.320022 
L 1025.207344 636.320022 
L 1025.423156 630.649829 
L 1026.933838 630.638451 
L 1027.14965 633.492003 
L 1027.797085 633.492003 
L 1028.012897 630.734462 
L 1028.660332 630.734462 
L 1028.876144 627.993224 
L 1030.386826 628.092759 
L 1030.602638 639.249938 
L 1031.250073 639.249938 
L 1031.465885 642.117182 
L 1032.113321 642.117182 
L 1032.329132 634.426549 
L 1032.976568 634.426549 
L 1033.192379 637.337342 
L 1033.839815 637.337342 
L 1034.055626 640.476388 
L 1034.703062 640.476388 
L 1034.918873 637.785078 
L 1035.566309 637.785078 
L 1035.78212 638.034787 
L 1036.429556 638.034787 
L 1036.645367 641.556754 
L 1037.292803 641.556754 
L 1037.508614 642.517935 
L 1039.019297 642.519768 
L 1039.235108 634.622016 
L 1039.882544 634.622016 
L 1040.098355 629.377011 
L 1040.745791 629.377011 
L 1040.961603 626.757117 
L 1041.609038 626.757117 
L 1041.82485 621.526193 
L 1042.472285 621.526193 
L 1042.688097 618.915148 
L 1043.335532 618.915148 
L 1043.551344 616.305799 
L 1044.198779 616.305799 
L 1044.414591 611.092083 
L 1045.062026 611.092083 
L 1045.277838 605.884846 
L 1045.925273 605.884846 
L 1046.141085 600.683908 
L 1046.78852 600.683908 
L 1047.004332 598.085768 
L 1047.651767 598.085768 
L 1047.867579 590.314754 
L 1048.515014 590.314754 
L 1048.730826 585.150827 
L 1049.378261 585.150827 
L 1049.594073 582.571081 
L 1051.104755 582.571081 
L 1051.320567 579.992798 
L 1051.968002 579.992798 
L 1052.183814 572.275014 
L 1052.831249 572.275014 
L 1053.047061 564.585357 
L 1053.694496 564.585357 
L 1053.910308 556.926834 
L 1054.557743 556.926834 
L 1054.773555 551.837011 
L 1055.42099 551.837011 
L 1055.636802 544.227461 
L 1056.284237 544.227461 
L 1056.500049 553.012137 
L 1057.147484 553.012137 
L 1057.363296 559.900751 
L 1058.010731 559.900751 
L 1058.226543 561.828668 
L 1058.873978 561.828668 
L 1059.08979 563.81731 
L 1059.737225 563.81731 
L 1059.953037 570.130931 
L 1061.463719 570.145688 
L 1061.679531 568.18422 
L 1062.326966 568.18422 
L 1062.542778 571.366032 
L 1063.190213 571.366032 
L 1063.406025 568.827608 
L 1064.05346 568.827608 
L 1064.269272 570.433381 
L 1064.916707 570.433381 
L 1065.132519 560.805184 
L 1065.779955 560.805184 
L 1065.995766 551.214493 
L 1066.643202 551.214493 
L 1066.859013 541.658264 
L 1067.506449 541.658264 
L 1067.72226 534.523715 
L 1068.369696 534.523715 
L 1068.585507 527.416597 
L 1069.232943 527.416597 
L 1069.448754 522.68996 
L 1070.09619 522.68996 
L 1070.312001 515.618796 
L 1070.959437 515.618796 
L 1071.175248 513.266893 
L 1071.822684 513.266893 
L 1072.038495 508.57179 
L 1072.685931 508.57179 
L 1072.901742 503.888229 
L 1073.549178 503.888229 
L 1073.76499 504.845015 
L 1074.412425 504.845015 
L 1074.628237 512.817518 
L 1076.138919 512.814829 
L 1076.354731 511.474412 
L 1077.865413 511.474412 
L 1078.081225 507.815306 
L 1080.455154 507.815306 
L 1080.670966 510.13775 
L 1083.044895 510.13775 
L 1083.260707 507.817911 
L 1084.771389 507.817911 
L 1084.987201 508.828986 
L 1085.634636 508.828986 
L 1085.850448 512.163358 
L 1086.497883 512.163358 
L 1086.713695 510.894971 
L 1087.36113 510.894971 
L 1087.576942 516.545087 
L 1088.224377 516.545087 
L 1088.440189 522.013485 
L 1089.087624 522.013485 
L 1089.303436 525.375452 
L 1089.950871 525.375452 
L 1090.166683 528.73745 
L 1090.814118 528.73745 
L 1091.02993 526.451022 
L 1091.677365 526.451022 
L 1091.893177 521.88261 
L 1092.540612 521.88261 
L 1092.756424 517.323832 
L 1093.403859 517.323832 
L 1093.619671 510.498089 
L 1094.267106 510.498089 
L 1094.482918 508.226703 
L 1095.130353 508.226703 
L 1095.346165 505.957682 
L 1095.9936 505.957682 
L 1096.209412 503.690938 
L 1096.856847 503.690938 
L 1097.072659 501.426447 
L 1098.583341 501.426447 
L 1098.799153 496.902916 
L 1099.446589 496.902916 
L 1099.6624 494.643865 
L 1100.309836 494.643865 
L 1100.525647 496.901926 
L 1101.173083 496.901926 
L 1101.388894 498.054704 
L 1102.03633 498.054704 
L 1102.252141 496.959207 
L 1102.899577 496.959207 
L 1103.115388 494.708795 
L 1103.762824 494.708795 
L 1103.978635 496.958239 
L 1104.626071 496.958239 
L 1104.841882 494.710944 
L 1105.489318 494.710944 
L 1105.705129 492.465922 
L 1106.352565 492.465922 
L 1106.568376 485.743762 
L 1107.215812 485.743762 
L 1107.431624 486.93696 
L 1108.079059 486.93696 
L 1108.294871 480.242 
L 1108.942306 480.242 
L 1109.158118 471.340801 
L 1109.805553 471.340801 
L 1110.021365 469.120572 
L 1110.6688 469.120572 
L 1110.884612 464.686354 
L 1111.532047 464.686354 
L 1111.747859 458.044504 
L 1112.395294 458.044504 
L 1112.611106 453.625875 
L 1113.258541 453.625875 
L 1113.474353 449.212879 
L 1114.121788 449.212879 
L 1114.3376 440.409394 
L 1114.985035 440.409394 
L 1115.200847 433.825212 
L 1115.848282 433.825212 
L 1116.064094 429.441954 
L 1116.711529 429.441954 
L 1116.927341 426.349352 
L 1117.574776 426.349352 
L 1117.790588 425.453088 
L 1118.438023 425.453088 
L 1118.653835 428.932831 
L 1119.30127 428.932831 
L 1119.517082 427.175145 
L 1120.164517 427.175145 
L 1120.380329 424.127071 
L 1121.027764 424.127071 
L 1121.243576 427.614167 
L 1122.754258 427.614167 
L 1122.97007 426.759621 
L 1123.617505 426.759621 
L 1123.833317 425.909667 
L 1124.480752 425.909667 
L 1124.696564 423.73869 
L 1125.343999 423.73869 
L 1125.559811 421.569408 
L 1127.93374 421.569408 
L 1128.149552 423.736843 
L 1128.796987 423.736843 
L 1129.012799 422.907623 
L 1129.660234 422.907623 
L 1129.876046 422.083705 
L 1130.523481 422.083705 
L 1130.739293 419.921256 
L 1131.386728 419.921256 
L 1131.60254 417.760451 
L 1133.113223 417.760451 
L 1133.329034 419.919448 
L 1133.97647 419.919448 
L 1134.192281 415.604969 
L 1134.839717 415.604969 
L 1135.055528 413.449482 
L 1135.702964 413.449482 
L 1135.918775 409.141053 
L 1137.429458 409.141053 
L 1137.645269 406.98902 
L 1138.292705 406.98902 
L 1138.508516 402.689015 
L 1139.155952 402.689015 
L 1139.371763 400.541036 
L 1140.019199 400.541036 
L 1140.23501 398.394779 
L 1140.882446 398.394779 
L 1141.098258 396.250111 
L 1141.745693 396.250111 
L 1141.961505 391.965627 
L 1142.60894 391.965627 
L 1142.824752 393.348105 
L 1143.472187 393.348105 
L 1143.687999 393.994386 
L 1144.335434 393.994386 
L 1144.551246 393.25323 
L 1145.198681 393.25323 
L 1145.414493 391.119734 
L 1146.061928 391.119734 
L 1146.27774 396.782024 
L 1146.925175 396.782024 
L 1147.140987 398.910611 
L 1147.788422 398.910611 
L 1148.004234 400.324706 
L 1148.651669 400.324706 
L 1148.867481 398.907721 
L 1149.514916 398.907721 
L 1149.730728 404.573626 
L 1150.378163 404.573626 
L 1150.593975 403.8739 
L 1152.104657 403.8739 
L 1152.320469 401.06145 
L 1155.557645 401.06145 
L 1155.773457 403.178615 
L 1157.284139 403.178615 
L 1157.499951 401.062893 
L 1158.147386 401.062893 
L 1158.363198 398.948601 
L 1159.010633 398.948601 
L 1159.226445 398.27535 
L 1159.87388 398.27535 
L 1160.089692 395.498167 
L 1160.737127 395.498167 
L 1160.952939 394.840845 
L 1161.600374 394.840845 
L 1161.816186 396.946866 
L 1162.463621 396.946866 
L 1162.679433 394.842236 
L 1163.326868 394.842236 
L 1163.54268 396.299872 
L 1164.190115 396.299872 
L 1164.405927 391.457675 
L 1165.053362 391.457675 
L 1165.269174 389.357935 
L 1165.91661 389.357935 
L 1166.132421 387.259541 
L 1166.779857 387.259541 
L 1166.995668 385.161908 
L 1167.643104 385.161908 
L 1167.858915 383.065616 
L 1168.506351 383.065616 
L 1168.722162 380.970834 
L 1170.232845 380.970834 
L 1170.448656 384.542761 
L 1171.096092 384.542761 
L 1171.311903 380.358694 
L 1172.822586 380.358694 
L 1173.038397 382.449322 
L 1173.685833 382.449322 
L 1173.901645 378.272321 
L 1174.54908 378.272321 
L 1174.764892 376.18593 
L 1175.412327 376.18593 
L 1175.628139 374.100983 
L 1176.275574 374.100983 
L 1176.491386 372.017331 
L 1177.138821 372.017331 
L 1177.354633 373.521449 
L 1178.002068 373.521449 
L 1178.21788 375.026693 
L 1178.865315 375.026693 
L 1179.081127 372.946493 
L 1181.455056 372.946493 
L 1181.670868 375.025422 
L 1182.318303 375.025422 
L 1182.534115 374.460064 
L 1183.18155 374.460064 
L 1183.397362 378.053074 
L 1184.044797 378.053074 
L 1184.260609 380.126116 
L 1184.908044 380.126116 
L 1185.123856 383.724627 
L 1185.771291 383.724627 
L 1185.987103 379.584981 
L 1186.634538 379.584981 
L 1186.85035 374.915677 
L 1187.497785 374.915677 
L 1187.713597 370.788562 
L 1188.361032 370.788562 
L 1188.576844 368.726857 
L 1189.224279 368.726857 
L 1189.440091 366.666322 
L 1190.087526 366.666322 
L 1190.303338 366.156317 
L 1190.950773 366.156317 
L 1191.166585 361.538621 
L 1191.81402 361.538621 
L 1192.029832 363.593631 
L 1192.677267 363.593631 
L 1192.893079 359.487204 
L 1194.403761 359.487204 
L 1194.619573 358.997355 
L 1196.130255 358.997355 
L 1196.346067 356.947234 
L 1197.856749 356.947234 
L 1198.072561 356.46349 
L 1199.583244 356.46349 
L 1199.799055 354.415791 
L 1200.446491 354.415791 
L 1200.662302 352.369202 
L 1201.309738 352.369202 
L 1201.525549 354.415083 
L 1202.172985 354.415083 
L 1202.388796 352.370298 
L 1203.036232 352.370298 
L 1203.252043 350.326599 
L 1203.899479 350.326599 
L 1204.11529 348.284189 
L 1205.625973 348.284189 
L 1205.841784 347.825273 
L 1209.078961 347.825143 
L 1209.294773 343.757016 
L 1209.942208 343.757016 
L 1210.15802 345.789866 
L 1210.805455 345.789866 
L 1211.021267 341.727269 
L 1211.668702 341.727269 
L 1211.884514 337.669184 
L 1212.531949 337.669184 
L 1212.747761 335.641673 
L 1213.395196 335.641673 
L 1213.611008 334.822308 
L 1214.258443 334.822308 
L 1214.474255 332.797819 
L 1215.12169 332.797819 
L 1215.337502 334.821627 
L 1215.984937 334.821627 
L 1216.200749 338.465112 
L 1216.848184 338.465112 
L 1217.063996 336.44318 
L 1217.711431 336.44318 
L 1217.927243 338.464441 
L 1219.437925 338.464441 
L 1219.653737 340.485034 
L 1221.164419 340.48437 
L 1221.380231 342.1172 
L 1222.027666 342.1172 
L 1222.243478 338.082664 
L 1222.890913 338.082664 
L 1223.106725 336.066864 
L 1224.617407 336.066864 
L 1224.833219 334.052227 
L 1225.480654 334.052227 
L 1225.696466 336.066206 
L 1227.207148 336.066206 
L 1227.42296 334.053196 
L 1228.070395 334.053196 
L 1228.286207 333.688304 
L 1231.523383 333.688304 
L 1231.739195 331.677584 
L 1232.386631 331.677584 
L 1232.602442 333.325858 
L 1233.249878 333.325858 
L 1233.465689 331.316274 
L 1234.113125 331.316274 
L 1234.328936 330.959142 
L 1234.976372 330.959142 
L 1235.192183 328.951645 
L 1236.702866 328.951645 
L 1236.918677 324.939839 
L 1237.566113 324.939839 
L 1237.781924 326.944619 
L 1238.42936 326.944619 
L 1238.645171 324.599258 
L 1239.292607 324.599258 
L 1239.508418 322.600439 
L 1240.155854 322.600439 
L 1240.371665 320.601456 
L 1241.019101 320.601456 
L 1241.234913 320.273534 
L 1241.882348 320.273534 
L 1242.09816 319.949965 
L 1242.745595 319.949965 
L 1242.961407 323.621288 
L 1243.608842 323.621288 
L 1243.824654 321.307419 
L 1245.335336 321.307419 
L 1245.551148 319.313822 
L 1246.198583 319.313822 
L 1246.414395 322.985944 
L 1247.06183 322.985944 
L 1247.277642 320.994036 
L 1247.925077 320.994036 
L 1248.140889 319.003186 
L 1248.788324 319.003186 
L 1249.004136 320.99342 
L 1249.651571 320.99342 
L 1249.867383 320.690511 
L 1251.378065 320.690511 
L 1251.593877 320.391527 
L 1252.241312 320.391527 
L 1252.457124 318.403992 
L 1253.104559 318.403992 
L 1253.320371 316.417499 
L 1254.831053 316.417499 
L 1255.046865 314.431899 
L 1256.557547 314.431899 
L 1256.773359 316.416892 
L 1257.420794 316.416892 
L 1257.636606 314.432924 
L 1258.284041 314.432924 
L 1258.499853 316.416287 
L 1260.010535 316.416287 
L 1260.226347 318.39845 
L 1261.737029 318.399313 
L 1261.952841 314.174769 
L 1262.600276 314.174769 
L 1262.816088 313.914304 
L 1263.463523 313.914304 
L 1263.679335 313.655864 
L 1264.32677 313.655864 
L 1264.542582 311.681789 
L 1266.053265 311.681203 
L 1266.269076 313.404091 
L 1266.916512 313.404091 
L 1267.132323 311.433856 
L 1267.779759 311.433856 
L 1267.99557 309.225952 
L 1268.643006 309.225952 
L 1268.858817 303.325772 
L 1269.506253 303.325772 
L 1269.722064 299.39689 
L 1270.3695 299.39689 
L 1270.585311 297.433669 
L 1271.232747 297.433669 
L 1271.448558 295.471257 
L 1272.095994 295.471257 
L 1272.311805 295.253297 
L 1272.959241 295.253297 
L 1273.175052 295.037426 
L 1273.822488 295.037426 
L 1274.038299 296.99752 
L 1276.412229 296.99845 
L 1276.628041 295.040655 
L 1279.00197 295.04009 
L 1279.217782 293.084683 
L 1279.865217 293.084683 
L 1280.081029 294.84146 
L 1280.728464 294.84146 
L 1280.944276 290.933244 
L 1283.318205 290.934029 
L 1283.534017 287.031862 
L 1284.181452 287.031862 
L 1284.397264 281.185094 
L 1285.044699 281.185094 
L 1285.260511 277.291418 
L 1285.907946 277.291418 
L 1286.123758 273.4012 
L 1287.63444 273.4012 
L 1287.850252 270.241689 
L 1289.360934 270.241689 
L 1289.576746 268.144051 
L 1290.224181 268.144051 
L 1290.439993 266.20408 
L 1291.087428 266.20408 
L 1291.30324 264.264849 
L 1292.813922 264.264296 
L 1293.029734 269.930503 
L 1293.677169 269.930503 
L 1293.892981 267.994386 
L 1294.540416 267.994386 
L 1294.756228 266.058997 
L 1295.403663 266.058997 
L 1295.619475 264.124332 
L 1296.26691 264.124332 
L 1296.482722 265.921973 
L 1297.130157 265.921973 
L 1297.345969 263.988029 
L 1297.993404 263.988029 
L 1298.209216 262.054801 
L 1298.856651 262.054801 
L 1299.072463 263.987488 
L 1299.719899 263.987488 
L 1299.93571 262.05551 
L 1301.446393 262.05551 
L 1301.878016 261.927244 
L 1302.30964 261.927244 
L 1302.525451 259.9968 
L 1303.172887 259.9968 
L 1303.388698 258.067176 
L 1304.036134 258.067176 
L 1304.251945 256.138254 
L 1304.899381 256.138254 
L 1305.115192 254.210144 
L 1306.625875 254.210144 
L 1306.841686 252.282732 
L 1307.489122 252.282732 
L 1307.704934 254.209608 
L 1308.352369 254.209608 
L 1308.568181 250.24921 
L 1310.94211 250.248679 
L 1311.157922 248.325883 
L 1311.805357 248.325883 
L 1312.021169 244.482557 
L 1312.668604 244.482557 
L 1312.884416 242.561906 
L 1314.395098 242.46806 
L 1314.61091 244.387513 
L 1315.258345 244.387513 
L 1315.474157 242.468727 
L 1316.121592 242.468727 
L 1316.337404 240.550603 
L 1316.984839 240.550603 
L 1317.200651 242.468202 
L 1317.848086 242.468202 
L 1318.063898 244.301186 
L 1318.711333 244.301186 
L 1318.927145 246.134692 
L 1319.57458 246.134692 
L 1319.790392 244.219048 
L 1320.437827 244.219048 
L 1320.653639 242.304061 
L 1322.164321 242.304061 
L 1322.380133 240.389845 
L 1323.027568 240.389845 
L 1323.24338 236.563362 
L 1323.890815 236.563362 
L 1324.106627 234.651206 
L 1324.754062 234.651206 
L 1324.969874 232.739808 
L 1325.617309 232.739808 
L 1325.833121 234.65069 
L 1326.480556 234.65069 
L 1326.696368 232.740562 
L 1327.343803 232.740562 
L 1327.559615 230.831186 
L 1329.070297 230.831186 
L 1329.286109 227.014336 
L 1329.933544 227.014336 
L 1330.149356 223.2 
L 1330.796791 223.2 
L 1330.796791 223.2 
" clip-path="url(#p2b7e143d96)" style="fill: none; stroke: #0000ff; stroke-width: 1.5; stroke-linecap: square"/>
   </g>
   <g id="patch_9">
    <path d="M 860.823529 1281.6 
L 860.823529 172.8 
" style="fill: none; stroke: #000000; stroke-width: 0.8; stroke-linejoin: miter; stroke-linecap: square"/>
   </g>
   <g id="patch_10">
    <path d="M 1353.176471 1281.6 
L 1353.176471 172.8 
" style="fill: none; stroke: #000000; stroke-width: 0.8; stroke-linejoin: miter; stroke-linecap: square"/>
   </g>
   <g id="patch_11">
    <path d="M 860.823529 1281.6 
L 1353.176471 1281.6 
" style="fill: none; stroke: #000000; stroke-width: 0.8; stroke-linejoin: miter; stroke-linecap: square"/>
   </g>
   <g id="patch_12">
    <path d="M 860.823529 172.8 
L 1353.176471 172.8 
" style="fill: none; stroke: #000000; stroke-width: 0.8; stroke-linejoin: miter; stroke-linecap: square"/>
   </g>
   <g id="legend_2">
    <g id="patch_13">
     <path d="M 1262.134283 195.478125 
L 1346.176471 195.478125 
Q 1348.176471 195.478125 1348.176471 193.478125 
L 1348.176471 179.8 
Q 1348.176471 177.8 1346.176471 177.8 
L 1262.134283 177.8 
Q 1260.134283 177.8 1260.134283 179.8 
L 1260.134283 193.478125 
Q 1260.134283 195.478125 1262.134283 195.478125 
z
" style="fill: #ffffff; opacity: 0.8; stroke: #cccccc; stroke-linejoin: miter"/>
    </g>
    <g id="line2d_30">
     <path d="M 1264.134283 185.898437 
L 1274.134283 185.898437 
L 1284.134283 185.898437 
" style="fill: none; stroke: #0000ff; stroke-width: 1.5; stroke-linecap: square"/>
    </g>
    <g id="text_28">
     <!-- O2 reward -->
     <g transform="translate(1292.134283 189.398437) scale(0.1 -0.1)">
      <use xlink:href="#DejaVuSans-4f"/>
      <use xlink:href="#DejaVuSans-32" x="78.710938"/>
      <use xlink:href="#DejaVuSans-20" x="142.333984"/>
      <use xlink:href="#DejaVuSans-72" x="174.121094"/>
      <use xlink:href="#DejaVuSans-65" x="212.984375"/>
      <use xlink:href="#DejaVuSans-77" x="274.507812"/>
      <use xlink:href="#DejaVuSans-61" x="356.294922"/>
      <use xlink:href="#DejaVuSans-72" x="417.574219"/>
      <use xlink:href="#DejaVuSans-64" x="456.9375"/>
     </g>
    </g>
   </g>
  </g>
  <g id="axes_3">
   <g id="patch_14">
    <path d="M 1451.647059 1281.6 
L 1944 1281.6 
L 1944 172.8 
L 1451.647059 172.8 
z
" style="fill: #ffffff"/>
   </g>
   <g id="matplotlib.axis_5">
    <g id="xtick_11">
     <g id="line2d_31">
      <g>
       <use xlink:href="#mb37511e544" x="1473.810926" y="1281.6" style="stroke: #000000; stroke-width: 0.8"/>
      </g>
     </g>
     <g id="text_29">
      <!-- 0 -->
      <g transform="translate(1470.629676 1296.198437) scale(0.1 -0.1)">
       <use xlink:href="#DejaVuSans-30"/>
      </g>
     </g>
    </g>
    <g id="xtick_12">
     <g id="line2d_32">
      <g>
       <use xlink:href="#mb37511e544" x="1581.716804" y="1281.6" style="stroke: #000000; stroke-width: 0.8"/>
      </g>
     </g>
     <g id="text_30">
      <!-- 500 -->
      <g transform="translate(1572.173054 1296.198437) scale(0.1 -0.1)">
       <use xlink:href="#DejaVuSans-35"/>
       <use xlink:href="#DejaVuSans-30" x="63.623047"/>
       <use xlink:href="#DejaVuSans-30" x="127.246094"/>
      </g>
     </g>
    </g>
    <g id="xtick_13">
     <g id="line2d_33">
      <g>
       <use xlink:href="#mb37511e544" x="1689.622683" y="1281.6" style="stroke: #000000; stroke-width: 0.8"/>
      </g>
     </g>
     <g id="text_31">
      <!-- 1000 -->
      <g transform="translate(1676.897683 1296.198437) scale(0.1 -0.1)">
       <use xlink:href="#DejaVuSans-31"/>
       <use xlink:href="#DejaVuSans-30" x="63.623047"/>
       <use xlink:href="#DejaVuSans-30" x="127.246094"/>
       <use xlink:href="#DejaVuSans-30" x="190.869141"/>
      </g>
     </g>
    </g>
    <g id="xtick_14">
     <g id="line2d_34">
      <g>
       <use xlink:href="#mb37511e544" x="1797.528561" y="1281.6" style="stroke: #000000; stroke-width: 0.8"/>
      </g>
     </g>
     <g id="text_32">
      <!-- 1500 -->
      <g transform="translate(1784.803561 1296.198437) scale(0.1 -0.1)">
       <use xlink:href="#DejaVuSans-31"/>
       <use xlink:href="#DejaVuSans-35" x="63.623047"/>
       <use xlink:href="#DejaVuSans-30" x="127.246094"/>
       <use xlink:href="#DejaVuSans-30" x="190.869141"/>
      </g>
     </g>
    </g>
    <g id="xtick_15">
     <g id="line2d_35">
      <g>
       <use xlink:href="#mb37511e544" x="1905.434439" y="1281.6" style="stroke: #000000; stroke-width: 0.8"/>
      </g>
     </g>
     <g id="text_33">
      <!-- 2000 -->
      <g transform="translate(1892.709439 1296.198437) scale(0.1 -0.1)">
       <use xlink:href="#DejaVuSans-32"/>
       <use xlink:href="#DejaVuSans-30" x="63.623047"/>
       <use xlink:href="#DejaVuSans-30" x="127.246094"/>
       <use xlink:href="#DejaVuSans-30" x="190.869141"/>
      </g>
     </g>
    </g>
   </g>
   <g id="matplotlib.axis_6">
    <g id="ytick_17">
     <g id="line2d_36">
      <g>
       <use xlink:href="#m1dcdbcd166" x="1451.647059" y="1231.2" style="stroke: #000000; stroke-width: 0.8"/>
      </g>
     </g>
     <g id="text_34">
      <!-- 0 -->
      <g transform="translate(1438.284559 1234.999219) scale(0.1 -0.1)">
       <use xlink:href="#DejaVuSans-30"/>
      </g>
     </g>
    </g>
    <g id="ytick_18">
     <g id="line2d_37">
      <g>
       <use xlink:href="#m1dcdbcd166" x="1451.647059" y="1000.493066" style="stroke: #000000; stroke-width: 0.8"/>
      </g>
     </g>
     <g id="text_35">
      <!-- 5 -->
      <g transform="translate(1438.284559 1004.292285) scale(0.1 -0.1)">
       <use xlink:href="#DejaVuSans-35"/>
      </g>
     </g>
    </g>
    <g id="ytick_19">
     <g id="line2d_38">
      <g>
       <use xlink:href="#m1dcdbcd166" x="1451.647059" y="769.786133" style="stroke: #000000; stroke-width: 0.8"/>
      </g>
     </g>
     <g id="text_36">
      <!-- 10 -->
      <g transform="translate(1431.922059 773.585351) scale(0.1 -0.1)">
       <use xlink:href="#DejaVuSans-31"/>
       <use xlink:href="#DejaVuSans-30" x="63.623047"/>
      </g>
     </g>
    </g>
    <g id="ytick_20">
     <g id="line2d_39">
      <g>
       <use xlink:href="#m1dcdbcd166" x="1451.647059" y="539.079199" style="stroke: #000000; stroke-width: 0.8"/>
      </g>
     </g>
     <g id="text_37">
      <!-- 15 -->
      <g transform="translate(1431.922059 542.878418) scale(0.1 -0.1)">
       <use xlink:href="#DejaVuSans-31"/>
       <use xlink:href="#DejaVuSans-35" x="63.623047"/>
      </g>
     </g>
    </g>
    <g id="ytick_21">
     <g id="line2d_40">
      <g>
       <use xlink:href="#m1dcdbcd166" x="1451.647059" y="308.372265" style="stroke: #000000; stroke-width: 0.8"/>
      </g>
     </g>
     <g id="text_38">
      <!-- 20 -->
      <g transform="translate(1431.922059 312.171484) scale(0.1 -0.1)">
       <use xlink:href="#DejaVuSans-32"/>
       <use xlink:href="#DejaVuSans-30" x="63.623047"/>
      </g>
     </g>
    </g>
   </g>
   <g id="line2d_41">
    <path d="M 1474.026738 1231.2 
L 1483.090832 1231.2 
L 1483.306643 1213.204731 
L 1483.954079 1213.204731 
L 1484.169891 1198.825219 
L 1484.817326 1198.825219 
L 1485.033138 1186.59409 
L 1485.680573 1186.59409 
L 1485.896385 1168.467116 
L 1486.54382 1168.467116 
L 1486.759632 1162.371526 
L 1487.407067 1162.371526 
L 1487.622879 1138.64056 
L 1488.270314 1138.64056 
L 1488.486126 1145.535358 
L 1489.133561 1145.535358 
L 1489.349373 1132.030069 
L 1489.996808 1132.030069 
L 1490.21262 1118.714078 
L 1490.860055 1118.714078 
L 1491.075867 1109.681194 
L 1491.723302 1109.681194 
L 1491.939114 1094.382779 
L 1492.586549 1094.382779 
L 1492.802361 1080.022317 
L 1493.449796 1080.022317 
L 1493.665608 1071.123512 
L 1495.17629 1071.123512 
L 1495.392102 1067.206337 
L 1496.039537 1067.206337 
L 1496.255349 1058.628771 
L 1496.902784 1058.628771 
L 1497.118596 1053.851863 
L 1498.629278 1053.851863 
L 1498.84509 1050.28584 
L 1499.492525 1050.28584 
L 1499.708337 1042.473541 
L 1501.219019 1042.473541 
L 1501.434831 1039.200946 
L 1502.082266 1039.200946 
L 1502.298078 1025.404801 
L 1502.945513 1025.404801 
L 1503.161325 1006.046138 
L 1503.80876 1006.046138 
L 1504.024572 992.484174 
L 1504.672007 992.484174 
L 1504.887819 983.459792 
L 1505.535254 983.459792 
L 1505.751066 958.286432 
L 1506.398501 958.286432 
L 1506.614313 945.762124 
L 1507.261748 945.762124 
L 1507.47756 941.830383 
L 1508.124995 941.830383 
L 1508.340807 929.567971 
L 1508.988243 929.567971 
L 1509.204054 921.401147 
L 1509.85149 921.401147 
L 1510.067301 914.432212 
L 1510.714737 914.432212 
L 1510.930548 902.249618 
L 1511.577984 902.249618 
L 1511.793795 897.285366 
L 1512.441231 897.285366 
L 1512.657042 886.186864 
L 1514.167725 886.107368 
L 1514.383536 889.246254 
L 1515.030972 889.246254 
L 1515.246783 891.190715 
L 1515.894219 891.190715 
L 1516.11003 886.636897 
L 1516.757466 886.636897 
L 1516.973278 888.547739 
L 1517.620713 888.547739 
L 1517.836525 885.87223 
L 1518.48396 885.87223 
L 1518.699772 888.876607 
L 1519.347207 888.876607 
L 1519.563019 886.059144 
L 1521.073701 886.059144 
L 1521.289513 883.187931 
L 1521.936948 883.187931 
L 1522.15276 874.712308 
L 1522.800195 874.712308 
L 1523.016007 867.362028 
L 1523.663442 867.362028 
L 1523.879254 871.846357 
L 1524.526689 871.846357 
L 1524.742501 873.641934 
L 1527.11643 873.641934 
L 1527.332242 865.278483 
L 1527.979677 865.278483 
L 1528.195489 849.543648 
L 1528.842924 849.543648 
L 1529.058736 841.913295 
L 1529.706171 841.913295 
L 1529.921983 836.522698 
L 1530.569418 836.522698 
L 1530.78523 832.988853 
L 1531.432665 832.988853 
L 1531.648477 824.5496 
L 1532.295912 824.5496 
L 1532.511724 818.887561 
L 1533.159159 818.887561 
L 1533.374971 814.493269 
L 1534.022406 814.493269 
L 1534.238218 805.498089 
L 1534.885653 805.498089 
L 1535.101465 800.171197 
L 1535.7489 800.171197 
L 1535.964712 792.822031 
L 1536.612147 792.822031 
L 1536.827959 790.803741 
L 1537.475394 790.803741 
L 1537.691206 782.513968 
L 1538.338641 782.513968 
L 1538.554453 775.645186 
L 1539.201888 775.645186 
L 1539.4177 768.897562 
L 1540.065135 768.897562 
L 1540.280947 762.418507 
L 1541.791629 762.418507 
L 1542.007441 757.914228 
L 1542.654877 757.914228 
L 1542.870688 754.003371 
L 1543.518124 754.003371 
L 1543.733935 755.837016 
L 1544.381371 755.837016 
L 1544.597182 752.373373 
L 1545.244618 752.373373 
L 1545.460429 746.354688 
L 1546.107865 746.354688 
L 1546.323676 742.036036 
L 1546.971112 742.036036 
L 1547.186923 737.681365 
L 1547.834359 737.681365 
L 1548.05017 731.917948 
L 1548.697606 731.917948 
L 1548.913417 719.642834 
L 1549.560853 719.642834 
L 1549.776664 718.269583 
L 1550.4241 718.269583 
L 1550.639912 716.348794 
L 1551.287347 716.348794 
L 1551.503159 708.810039 
L 1552.150594 708.810039 
L 1552.366406 703.417786 
L 1553.013841 703.417786 
L 1553.229653 699.701295 
L 1553.877088 699.701295 
L 1554.0929 693.024608 
L 1554.740335 693.024608 
L 1554.956147 685.41673 
L 1555.603582 685.41673 
L 1555.819394 681.370789 
L 1556.466829 681.370789 
L 1556.682641 680.628005 
L 1557.330076 680.628005 
L 1557.545888 678.472882 
L 1558.193323 678.472882 
L 1558.409135 675.577296 
L 1559.05657 675.577296 
L 1559.272382 671.338065 
L 1559.919817 671.338065 
L 1560.135629 669.953644 
L 1560.783064 669.953644 
L 1560.998876 663.979682 
L 1561.646311 663.979682 
L 1561.862123 661.935906 
L 1562.509558 661.935906 
L 1562.72537 658.83364 
L 1563.372805 658.83364 
L 1563.588617 655.747345 
L 1564.236052 655.747345 
L 1564.451864 652.337754 
L 1565.962546 652.337754 
L 1566.178358 650.314847 
L 1566.825793 650.314847 
L 1567.041605 649.302785 
L 1567.68904 649.302785 
L 1567.904852 644.948958 
L 1569.415534 644.948958 
L 1569.631346 645.951914 
L 1570.278781 645.951914 
L 1570.494593 646.290384 
L 1571.142028 646.290384 
L 1571.35784 644.359346 
L 1572.005275 644.359346 
L 1572.221087 638.146549 
L 1572.868522 638.146549 
L 1573.084334 635.64574 
L 1573.731769 635.64574 
L 1573.947581 636.223614 
L 1574.595016 636.223614 
L 1574.810828 630.137664 
L 1575.458264 630.137664 
L 1575.674075 625.174826 
L 1576.321511 625.174826 
L 1576.537322 624.36933 
L 1577.184758 624.36933 
L 1577.400569 622.0485 
L 1578.048005 622.0485 
L 1578.263816 618.751486 
L 1578.911252 618.751486 
L 1579.127063 618.243597 
L 1579.774499 618.243597 
L 1579.99031 614.773313 
L 1580.637746 614.773313 
L 1580.853557 612.064593 
L 1581.500993 612.064593 
L 1581.716804 607.619625 
L 1582.36424 607.619625 
L 1582.580051 604.989138 
L 1583.227487 604.989138 
L 1583.443298 601.478782 
L 1584.090734 601.478782 
L 1584.306546 598.256159 
L 1584.953981 598.256159 
L 1585.169793 595.727663 
L 1585.817228 595.727663 
L 1586.03304 595.299573 
L 1586.680475 595.299573 
L 1586.896287 592.16444 
L 1587.543722 592.16444 
L 1587.759534 587.819486 
L 1588.406969 587.819486 
L 1588.622781 584.023099 
L 1589.270216 584.023099 
L 1589.486028 578.788213 
L 1590.133463 578.788213 
L 1590.349275 574.054916 
L 1590.99671 574.054916 
L 1591.212522 562.89927 
L 1591.859957 562.89927 
L 1592.075769 555.024576 
L 1592.723204 555.024576 
L 1592.939016 549.199311 
L 1593.586451 549.199311 
L 1593.802263 545.550453 
L 1594.449698 545.550453 
L 1594.66551 540.362751 
L 1595.312945 540.362751 
L 1595.528757 536.639451 
L 1596.176192 536.639451 
L 1596.392004 527.995667 
L 1597.039439 527.995667 
L 1597.255251 523.216849 
L 1597.902686 523.216849 
L 1598.118498 518.388239 
L 1598.765933 518.388239 
L 1598.981745 514.522323 
L 1599.62918 514.522323 
L 1599.844992 509.798838 
L 1600.492427 509.798838 
L 1600.708239 505.316508 
L 1601.355674 505.316508 
L 1601.571486 500.354609 
L 1602.218921 500.354609 
L 1602.434733 495.217701 
L 1603.082168 495.217701 
L 1603.29798 493.599386 
L 1603.945415 493.599386 
L 1604.161227 490.615969 
L 1604.808662 490.615969 
L 1605.024474 489.550193 
L 1605.671909 489.550193 
L 1605.887721 488.268072 
L 1606.535156 488.268072 
L 1606.750968 486.153936 
L 1607.398403 486.153936 
L 1607.614215 482.803534 
L 1608.26165 482.803534 
L 1608.477462 481.548216 
L 1609.124898 481.548216 
L 1609.340709 479.478286 
L 1609.988145 479.478286 
L 1610.203956 477.632385 
L 1611.714639 477.632385 
L 1611.93045 477.429446 
L 1612.577886 477.429446 
L 1612.793697 475.993117 
L 1613.441133 475.993117 
L 1613.656944 475.373549 
L 1614.30438 475.373549 
L 1614.520191 473.957436 
L 1615.167627 473.957436 
L 1615.383438 472.952378 
L 1616.030874 472.952378 
L 1616.246685 470.664885 
L 1616.894121 470.664885 
L 1617.109932 466.862295 
L 1617.757368 466.862295 
L 1617.97318 466.057513 
L 1618.620615 466.057513 
L 1618.836427 462.040107 
L 1619.483862 462.040107 
L 1619.699674 459.480841 
L 1620.347109 459.480841 
L 1620.562921 457.890536 
L 1621.210356 457.890536 
L 1621.426168 455.194481 
L 1622.073603 455.194481 
L 1622.289415 451.413438 
L 1622.93685 451.413438 
L 1623.152662 448.460305 
L 1623.800097 448.460305 
L 1624.015909 443.979739 
L 1624.663344 443.979739 
L 1624.879156 442.141549 
L 1625.526591 442.141549 
L 1625.742403 440.168741 
L 1626.389838 440.168741 
L 1626.60565 435.706318 
L 1627.253085 435.706318 
L 1627.468897 434.809125 
L 1628.116332 434.809125 
L 1628.332144 433.785914 
L 1628.979579 433.785914 
L 1629.195391 431.235067 
L 1629.842826 431.235067 
L 1630.058638 429.086252 
L 1630.706073 429.086252 
L 1630.921885 425.898586 
L 1631.56932 425.898586 
L 1631.785132 422.55479 
L 1632.432567 422.55479 
L 1632.648379 421.081249 
L 1633.295814 421.081249 
L 1633.511626 418.613975 
L 1634.159061 418.613975 
L 1634.374873 417.335625 
L 1635.022308 417.335625 
L 1635.23812 417.801013 
L 1635.885555 417.801013 
L 1636.101367 414.163689 
L 1636.748802 414.163689 
L 1636.964614 414.005511 
L 1637.612049 414.005511 
L 1637.827861 412.226096 
L 1639.338543 412.226096 
L 1639.554355 410.191448 
L 1640.20179 410.191448 
L 1640.417602 408.531757 
L 1641.065037 408.531757 
L 1641.280849 406.429092 
L 1641.928284 406.429092 
L 1642.144096 405.705827 
L 1642.791532 405.705827 
L 1643.007343 402.918203 
L 1643.654779 402.918203 
L 1643.87059 400.907597 
L 1644.518026 400.907597 
L 1644.733837 398.827696 
L 1645.381273 398.827696 
L 1645.597084 394.27239 
L 1646.24452 394.27239 
L 1646.460331 391.129897 
L 1647.971014 391.127367 
L 1648.186825 390.223757 
L 1648.834261 390.223757 
L 1649.050072 391.596551 
L 1649.697508 391.596551 
L 1649.913319 388.791335 
L 1650.560755 388.791335 
L 1650.776567 390.643966 
L 1651.424002 390.643966 
L 1651.639814 388.425571 
L 1652.287249 388.425571 
L 1652.718872 388.305576 
L 1653.150496 388.305576 
L 1653.366308 388.906544 
L 1654.87699 388.848954 
L 1655.092802 389.343804 
L 1655.740237 389.343804 
L 1655.956049 386.597223 
L 1656.603484 386.597223 
L 1656.819296 384.824482 
L 1657.466731 384.824482 
L 1657.682543 384.11862 
L 1658.329978 384.11862 
L 1658.54579 382.98883 
L 1659.193225 382.98883 
L 1659.409037 381.939103 
L 1660.056472 381.939103 
L 1660.272284 379.250074 
L 1661.782966 379.250074 
L 1661.998778 378.19336 
L 1662.646213 378.19336 
L 1662.862025 376.517655 
L 1663.50946 376.517655 
L 1663.725272 375.831847 
L 1664.372707 375.831847 
L 1664.588519 375.088868 
L 1665.235954 375.088868 
L 1665.451766 373.442586 
L 1666.099201 373.442586 
L 1666.315013 372.441082 
L 1666.962448 372.441082 
L 1667.17826 371.745848 
L 1667.825695 371.745848 
L 1668.041507 371.070792 
L 1669.552189 371.023557 
L 1669.768001 369.711062 
L 1671.278683 369.664688 
L 1671.494495 368.009926 
L 1672.14193 368.009926 
L 1672.357742 367.026269 
L 1673.005177 367.026269 
L 1673.220989 366.030155 
L 1673.868424 366.030155 
L 1674.084236 365.633112 
L 1674.731671 365.633112 
L 1674.947483 364.329142 
L 1675.594918 364.329142 
L 1675.81073 363.358357 
L 1676.458166 363.358357 
L 1676.673977 364.009851 
L 1677.321413 364.009851 
L 1677.537224 363.08551 
L 1678.18466 363.08551 
L 1678.400471 361.137164 
L 1679.047907 361.137164 
L 1679.263718 360.210518 
L 1679.911154 360.210518 
L 1680.126965 360.854457 
L 1680.774401 360.854457 
L 1680.990212 359.282644 
L 1681.637648 359.282644 
L 1681.853459 358.630499 
L 1683.364142 358.617778 
L 1683.579953 357.971755 
L 1685.090636 357.958527 
L 1685.306448 356.08882 
L 1686.81713 356.079421 
L 1687.032942 354.842458 
L 1687.680377 354.842458 
L 1687.896189 354.217805 
L 1688.543624 354.217805 
L 1688.759436 353.595279 
L 1689.406871 353.595279 
L 1689.622683 352.97327 
L 1690.270118 352.97327 
L 1690.48593 350.813043 
L 1691.996612 350.813043 
L 1692.212424 349.887936 
L 1692.859859 349.887936 
L 1693.075671 349.274314 
L 1694.586353 349.272348 
L 1694.802165 347.743528 
L 1695.4496 347.743528 
L 1695.665412 347.133615 
L 1696.312847 347.133615 
L 1696.528659 346.525005 
L 1697.176094 346.525005 
L 1697.391906 345.310273 
L 1698.039341 345.310273 
L 1698.255153 343.486814 
L 1698.902588 343.486814 
L 1699.1184 342.585282 
L 1699.765835 342.585282 
L 1699.981647 341.370974 
L 1700.629082 341.370974 
L 1700.844894 339.87334 
L 1701.492329 339.87334 
L 1701.708141 338.389599 
L 1702.355576 338.389599 
L 1702.571388 338.083496 
L 1703.218823 338.083496 
L 1703.434635 338.70899 
L 1704.08207 338.70899 
L 1704.297882 337.199759 
L 1705.808564 337.229078 
L 1706.024376 335.728357 
L 1706.671811 335.728357 
L 1706.887623 334.871855 
L 1708.398305 334.871855 
L 1708.614117 332.782265 
L 1709.261553 332.782265 
L 1709.477364 331.882676 
L 1710.1248 331.882676 
L 1710.340611 330.403699 
L 1710.988047 330.403699 
L 1711.203858 329.50781 
L 1711.851294 329.50781 
L 1712.067105 328.625448 
L 1712.714541 328.625448 
L 1712.930352 325.986091 
L 1713.577788 325.986091 
L 1713.793599 324.508929 
L 1714.441035 324.508929 
L 1714.656846 323.619617 
L 1715.304282 323.619617 
L 1715.520093 322.745561 
L 1716.167529 322.745561 
L 1716.38334 322.149269 
L 1717.030776 322.149269 
L 1717.246587 321.538339 
L 1717.894023 321.538339 
L 1718.109835 320.075997 
L 1719.620517 320.060146 
L 1719.836329 319.193977 
L 1722.210258 319.17791 
L 1722.42607 318.295082 
L 1723.073505 318.295082 
L 1723.289317 317.42956 
L 1723.936752 317.42956 
L 1724.152564 315.666962 
L 1724.799999 315.666962 
L 1725.015811 315.075419 
L 1725.663246 315.075419 
L 1725.879058 312.748335 
L 1726.526493 312.748335 
L 1726.742305 311.607888 
L 1727.38974 311.607888 
L 1727.605552 309.884906 
L 1728.252987 309.884906 
L 1728.468799 308.450907 
L 1729.979481 308.450907 
L 1730.195293 307.865679 
L 1730.842728 307.865679 
L 1731.05854 307.019397 
L 1731.705975 307.019397 
L 1731.921787 306.456271 
L 1732.569222 306.456271 
L 1732.785034 304.748572 
L 1734.295716 304.748572 
L 1734.511528 304.369837 
L 1735.158963 304.369837 
L 1735.374775 302.943388 
L 1736.02221 302.943388 
L 1736.238022 303.503617 
L 1736.885457 303.503617 
L 1737.101269 302.639839 
L 1738.611951 302.738052 
L 1738.827763 301.898929 
L 1739.475198 301.898929 
L 1739.69101 301.442734 
L 1741.201692 301.442734 
L 1741.417504 302.000157 
L 1743.791434 301.97411 
L 1744.007245 301.391619 
L 1745.517928 301.391619 
L 1745.733739 300.810101 
L 1746.381175 300.810101 
L 1746.596986 299.976894 
L 1747.244422 299.976894 
L 1747.460233 299.396143 
L 1748.107669 299.396143 
L 1748.32348 297.958948 
L 1748.970916 297.958948 
L 1749.186727 296.276392 
L 1749.834163 296.276392 
L 1750.049974 295.450118 
L 1750.69741 295.450118 
L 1750.913221 294.624436 
L 1751.560657 294.624436 
L 1751.776469 293.059931 
L 1752.423904 293.059931 
L 1752.639716 292.872944 
L 1753.287151 292.872944 
L 1753.502963 290.767104 
L 1754.150398 290.767104 
L 1754.36621 289.247391 
L 1755.013645 289.247391 
L 1755.229457 288.828596 
L 1755.876892 288.828596 
L 1756.092704 289.375095 
L 1756.740139 289.375095 
L 1756.955951 287.867637 
L 1757.603386 287.867637 
L 1757.819198 287.014449 
L 1758.466633 287.014449 
L 1758.682445 286.468805 
L 1759.32988 286.468805 
L 1759.545692 286.604262 
L 1760.193127 286.604262 
L 1760.408939 286.058617 
L 1761.056374 286.058617 
L 1761.272186 285.651802 
L 1761.919621 285.651802 
L 1762.135433 285.106157 
L 1762.782868 285.106157 
L 1762.99868 285.24666 
L 1763.646115 285.24666 
L 1763.861927 284.299584 
L 1765.372609 284.299584 
L 1765.588421 283.898967 
L 1767.099103 283.898967 
L 1767.314915 283.354544 
L 1768.825597 283.354544 
L 1769.041409 282.810941 
L 1769.688844 282.810941 
L 1769.904656 282.268152 
L 1770.552091 282.268152 
L 1770.767903 281.726171 
L 1772.278585 281.726171 
L 1772.494397 280.102986 
L 1773.141832 280.102986 
L 1773.357644 279.562981 
L 1774.005079 279.562981 
L 1774.220891 277.908124 
L 1774.868326 277.908124 
L 1775.084138 276.256747 
L 1775.731573 276.256747 
L 1775.947385 275.184444 
L 1777.458068 275.184444 
L 1777.673879 274.648292 
L 1779.184562 274.648292 
L 1779.400373 275.874663 
L 1780.047809 275.874663 
L 1780.26362 276.032497 
L 1780.911056 276.032497 
L 1781.126867 276.564929 
L 1781.774303 276.564929 
L 1781.990114 277.096631 
L 1782.63755 277.096631 
L 1782.853361 277.950618 
L 1783.500797 277.950618 
L 1783.716608 277.420356 
L 1784.364044 277.420356 
L 1784.579856 276.524899 
L 1785.227291 276.524899 
L 1785.443103 277.053746 
L 1786.090538 277.053746 
L 1786.30635 275.996751 
L 1786.953785 275.996751 
L 1787.169597 276.524206 
L 1787.817032 276.524206 
L 1788.032844 277.045019 
L 1788.680279 277.045019 
L 1788.896091 277.570768 
L 1790.406773 277.570768 
L 1790.622585 276.521804 
L 1791.27002 276.521804 
L 1791.485832 277.045027 
L 1792.996514 277.045027 
L 1793.212326 276.548317 
L 1793.859761 276.548317 
L 1794.075573 277.070711 
L 1794.723008 277.070711 
L 1794.93882 277.592282 
L 1795.586255 277.592282 
L 1795.802067 277.071525 
L 1797.312749 277.071525 
L 1797.528561 276.551956 
L 1798.175996 276.551956 
L 1798.391808 277.10375 
L 1799.039243 277.10375 
L 1799.255055 276.067751 
L 1799.90249 276.067751 
L 1800.118302 275.587872 
L 1801.628984 275.588647 
L 1801.844796 274.598905 
L 1802.492231 274.598905 
L 1802.708043 275.113398 
L 1803.355478 275.113398 
L 1803.57129 274.085908 
L 1804.218725 274.085908 
L 1804.434537 273.573293 
L 1805.081972 273.573293 
L 1805.297784 272.037665 
L 1805.945219 272.037665 
L 1806.161031 271.06738 
L 1806.808466 271.06738 
L 1807.024278 270.610408 
L 1807.671713 270.610408 
L 1807.887525 269.705745 
L 1808.53496 269.705745 
L 1808.750772 268.748718 
L 1809.398207 268.748718 
L 1809.614019 267.228299 
L 1810.261455 267.228299 
L 1810.477266 267.734053 
L 1811.987949 267.798707 
L 1812.20376 267.294671 
L 1812.851196 267.294671 
L 1813.067007 266.790636 
L 1813.714443 266.790636 
L 1813.930254 266.2866 
L 1814.57769 266.2866 
L 1814.793501 265.783234 
L 1815.440937 265.783234 
L 1815.656748 265.280533 
L 1816.304184 265.280533 
L 1816.519995 264.277117 
L 1817.167431 264.277117 
L 1817.383242 263.274714 
L 1818.030678 263.274714 
L 1818.24649 262.773689 
L 1820.620419 262.849079 
L 1820.836231 262.349988 
L 1821.483666 262.349988 
L 1821.699478 261.851531 
L 1823.21016 261.851531 
L 1823.425972 260.855949 
L 1824.073407 260.855949 
L 1824.289219 259.862316 
L 1824.936654 259.862316 
L 1825.152466 259.449485 
L 1825.799901 259.449485 
L 1826.015713 258.458942 
L 1826.663148 258.458942 
L 1826.87896 257.470216 
L 1827.526395 257.470216 
L 1827.742207 256.975563 
L 1828.389642 256.975563 
L 1828.605454 256.574782 
L 1830.116136 256.574782 
L 1830.331948 257.066479 
L 1830.979383 257.066479 
L 1831.195195 256.176914 
L 1831.84263 256.176914 
L 1832.058442 255.685796 
L 1832.705877 255.685796 
L 1832.921689 254.800383 
L 1833.569124 254.800383 
L 1833.784936 254.310412 
L 1835.295618 254.310412 
L 1835.51143 253.33218 
L 1836.158865 253.33218 
L 1836.374677 252.453939 
L 1837.022112 252.453939 
L 1837.237924 251.966011 
L 1838.748606 251.966348 
L 1838.964418 251.582531 
L 1840.4751 251.581978 
L 1840.690912 251.201361 
L 1842.201594 251.306555 
L 1842.417406 251.89821 
L 1843.064842 251.89821 
L 1843.280653 251.414573 
L 1843.928089 251.414573 
L 1844.1439 250.931265 
L 1844.791336 250.931265 
L 1845.007147 250.448493 
L 1845.654583 250.448493 
L 1845.870394 250.07427 
L 1846.51783 250.07427 
L 1846.733641 250.55651 
L 1848.244324 250.55651 
L 1848.460135 250.07427 
L 1849.107571 250.07427 
L 1849.323382 249.111373 
L 1849.970818 249.111373 
L 1850.186629 247.669838 
L 1851.697312 247.669838 
L 1851.913124 246.709161 
L 1852.560559 246.709161 
L 1852.776371 246.228823 
L 1853.423806 246.228823 
L 1853.639618 246.707124 
L 1854.287053 246.707124 
L 1854.502865 245.273166 
L 1855.1503 245.273166 
L 1855.366112 243.842969 
L 1856.013547 243.842969 
L 1856.229359 244.318834 
L 1856.876794 244.318834 
L 1857.092606 243.843283 
L 1858.603288 243.843283 
L 1858.8191 243.368222 
L 1860.329782 243.368222 
L 1860.545594 242.893161 
L 1861.193029 242.893161 
L 1861.408841 242.418586 
L 1862.056276 242.418586 
L 1862.272088 241.944496 
L 1862.919523 241.944496 
L 1863.135335 241.597501 
L 1863.78277 241.597501 
L 1863.998582 241.123891 
L 1865.509264 241.123891 
L 1865.725076 240.650592 
L 1868.099005 240.650592 
L 1868.314817 239.7043 
L 1869.825499 239.7043 
L 1870.041311 239.231613 
L 1870.688746 239.231613 
L 1870.904558 238.759231 
L 1872.41524 238.759231 
L 1872.631052 238.286849 
L 1875.868228 238.287324 
L 1876.08404 237.815893 
L 1876.731476 237.815893 
L 1876.947287 237.344463 
L 1877.594723 237.344463 
L 1877.810534 235.931659 
L 1879.321217 235.931659 
L 1879.537028 235.596288 
L 1881.047711 235.596288 
L 1881.263522 235.126217 
L 1882.774205 235.126217 
L 1882.990016 234.656612 
L 1884.500699 234.656612 
L 1884.716511 234.187006 
L 1885.363946 234.187006 
L 1885.579758 234.656149 
L 1886.227193 234.656149 
L 1886.443005 234.1873 
L 1887.09044 234.1873 
L 1887.306252 233.718744 
L 1887.953687 233.718744 
L 1888.169499 233.250645 
L 1890.543428 233.250645 
L 1890.75924 233.71829 
L 1891.406675 233.71829 
L 1891.622487 232.784032 
L 1892.269922 232.784032 
L 1892.485734 232.317129 
L 1895.72291 232.317129 
L 1895.938722 231.850226 
L 1896.586157 231.850226 
L 1896.801969 231.383771 
L 1897.449404 231.383771 
L 1897.665216 230.45175 
L 1898.312651 230.45175 
L 1898.528463 231.062215 
L 1899.175898 231.062215 
L 1899.39171 230.597084 
L 1900.039145 230.597084 
L 1900.254957 229.667395 
L 1900.902392 229.667395 
L 1901.118204 228.27415 
L 1902.628886 228.274433 
L 1902.844698 228.423381 
L 1903.492133 228.423381 
L 1903.707945 227.497418 
L 1904.35538 227.497418 
L 1904.571192 227.185084 
L 1905.218627 227.185084 
L 1905.434439 226.260535 
L 1906.081874 226.260535 
L 1906.297686 224.875532 
L 1907.808368 224.875532 
L 1908.02418 224.414377 
L 1908.671615 224.414377 
L 1908.887427 224.875114 
L 1909.534862 224.875114 
L 1909.750674 224.414651 
L 1911.261357 224.414651 
L 1911.477168 224.8747 
L 1912.124604 224.8747 
L 1912.340415 224.414925 
L 1914.714345 224.414513 
L 1914.930156 223.955563 
L 1915.577592 223.955563 
L 1915.793403 224.414105 
L 1916.440839 224.414105 
L 1916.65665 223.95597 
L 1917.304086 223.95597 
L 1917.519897 223.657865 
L 1919.03058 223.657865 
L 1919.246392 223.2 
L 1921.620321 223.2 
L 1921.620321 223.2 
" clip-path="url(#p5814d14c89)" style="fill: none; stroke: #0000ff; stroke-width: 1.5; stroke-linecap: square"/>
   </g>
   <g id="patch_15">
    <path d="M 1451.647059 1281.6 
L 1451.647059 172.8 
" style="fill: none; stroke: #000000; stroke-width: 0.8; stroke-linejoin: miter; stroke-linecap: square"/>
   </g>
   <g id="patch_16">
    <path d="M 1944 1281.6 
L 1944 172.8 
" style="fill: none; stroke: #000000; stroke-width: 0.8; stroke-linejoin: miter; stroke-linecap: square"/>
   </g>
   <g id="patch_17">
    <path d="M 1451.647059 1281.6 
L 1944 1281.6 
" style="fill: none; stroke: #000000; stroke-width: 0.8; stroke-linejoin: miter; stroke-linecap: square"/>
   </g>
   <g id="patch_18">
    <path d="M 1451.647059 172.8 
L 1944 172.8 
" style="fill: none; stroke: #000000; stroke-width: 0.8; stroke-linejoin: miter; stroke-linecap: square"/>
   </g>
   <g id="legend_3">
    <g id="patch_19">
     <path d="M 1852.957813 195.478125 
L 1937 195.478125 
Q 1939 195.478125 1939 193.478125 
L 1939 179.8 
Q 1939 177.8 1937 177.8 
L 1852.957813 177.8 
Q 1850.957813 177.8 1850.957813 179.8 
L 1850.957813 193.478125 
Q 1850.957813 195.478125 1852.957813 195.478125 
z
" style="fill: #ffffff; opacity: 0.8; stroke: #cccccc; stroke-linejoin: miter"/>
    </g>
    <g id="line2d_42">
     <path d="M 1854.957813 185.898437 
L 1864.957813 185.898437 
L 1874.957813 185.898437 
" style="fill: none; stroke: #0000ff; stroke-width: 1.5; stroke-linecap: square"/>
    </g>
    <g id="text_39">
     <!-- O3 reward -->
     <g transform="translate(1882.957813 189.398437) scale(0.1 -0.1)">
      <use xlink:href="#DejaVuSans-4f"/>
      <use xlink:href="#DejaVuSans-33" x="78.710938"/>
      <use xlink:href="#DejaVuSans-20" x="142.333984"/>
      <use xlink:href="#DejaVuSans-72" x="174.121094"/>
      <use xlink:href="#DejaVuSans-65" x="212.984375"/>
      <use xlink:href="#DejaVuSans-77" x="274.507812"/>
      <use xlink:href="#DejaVuSans-61" x="356.294922"/>
      <use xlink:href="#DejaVuSans-72" x="417.574219"/>
      <use xlink:href="#DejaVuSans-64" x="456.9375"/>
     </g>
    </g>
   </g>
  </g>
 </g>
 <defs>
  <clipPath id="pb1c878414a">
   <rect x="270" y="172.8" width="492.352941" height="1108.8"/>
  </clipPath>
  <clipPath id="p2b7e143d96">
   <rect x="860.823529" y="172.8" width="492.352941" height="1108.8"/>
  </clipPath>
  <clipPath id="p5814d14c89">
   <rect x="1451.647059" y="172.8" width="492.352941" height="1108.8"/>
  </clipPath>
 </defs>
</svg>
