<?xml version="1.0" encoding="utf-8" standalone="no"?>
<!DOCTYPE svg PUBLIC "-//W3C//DTD SVG 1.1//EN"
  "http://www.w3.org/Graphics/SVG/1.1/DTD/svg11.dtd">
<svg xmlns:xlink="http://www.w3.org/1999/xlink" width="2160pt" height="1440pt" viewBox="0 0 2160 1440" xmlns="http://www.w3.org/2000/svg" version="1.1">
 <metadata>
  <rdf:RDF xmlns:dc="http://purl.org/dc/elements/1.1/" xmlns:cc="http://creativecommons.org/ns#" xmlns:rdf="http://www.w3.org/1999/02/22-rdf-syntax-ns#">
   <cc:Work>
    <dc:type rdf:resource="http://purl.org/dc/dcmitype/StillImage"/>
    <dc:date>2023-05-31T19:29:21.315722</dc:date>
    <dc:format>image/svg+xml</dc:format>
    <dc:creator>
     <cc:Agent>
      <dc:title>Matplotlib v3.7.1, https://matplotlib.org/</dc:title>
     </cc:Agent>
    </dc:creator>
   </cc:Work>
  </rdf:RDF>
 </metadata>
 <defs>
  <style type="text/css">*{stroke-linejoin: round; stroke-linecap: butt}</style>
 </defs>
 <g id="figure_1">
  <g id="patch_1">
   <path d="M 0 1440 
L 2160 1440 
L 2160 0 
L 0 0 
z
" style="fill: #ffffff"/>
  </g>
  <g id="axes_1">
   <g id="patch_2">
    <path d="M 270 1281.6 
L 762.352941 1281.6 
L 762.352941 172.8 
L 270 172.8 
z
" style="fill: #ffffff"/>
   </g>
   <g id="matplotlib.axis_1">
    <g id="xtick_1">
     <g id="line2d_1">
      <defs>
       <path id="m573cc519e5" d="M 0 0 
L 0 3.5 
" style="stroke: #000000; stroke-width: 0.8"/>
      </defs>
      <g>
       <use xlink:href="#m573cc519e5" x="291.769879" y="1281.6" style="stroke: #000000; stroke-width: 0.8"/>
      </g>
     </g>
     <g id="text_1">
      <!-- 0 -->
      <g transform="translate(288.588629 1296.198437) scale(0.1 -0.1)">
       <defs>
        <path id="DejaVuSans-30" d="M 2034 4250 
Q 1547 4250 1301 3770 
Q 1056 3291 1056 2328 
Q 1056 1369 1301 889 
Q 1547 409 2034 409 
Q 2525 409 2770 889 
Q 3016 1369 3016 2328 
Q 3016 3291 2770 3770 
Q 2525 4250 2034 4250 
z
M 2034 4750 
Q 2819 4750 3233 4129 
Q 3647 3509 3647 2328 
Q 3647 1150 3233 529 
Q 2819 -91 2034 -91 
Q 1250 -91 836 529 
Q 422 1150 422 2328 
Q 422 3509 836 4129 
Q 1250 4750 2034 4750 
z
" transform="scale(0.015625)"/>
       </defs>
       <use xlink:href="#DejaVuSans-30"/>
      </g>
     </g>
    </g>
    <g id="xtick_2">
     <g id="line2d_2">
      <g>
       <use xlink:href="#m573cc519e5" x="352.749931" y="1281.6" style="stroke: #000000; stroke-width: 0.8"/>
      </g>
     </g>
     <g id="text_2">
      <!-- 100 -->
      <g transform="translate(343.206181 1296.198437) scale(0.1 -0.1)">
       <defs>
        <path id="DejaVuSans-31" d="M 794 531 
L 1825 531 
L 1825 4091 
L 703 3866 
L 703 4441 
L 1819 4666 
L 2450 4666 
L 2450 531 
L 3481 531 
L 3481 0 
L 794 0 
L 794 531 
z
" transform="scale(0.015625)"/>
       </defs>
       <use xlink:href="#DejaVuSans-31"/>
       <use xlink:href="#DejaVuSans-30" x="63.623047"/>
       <use xlink:href="#DejaVuSans-30" x="127.246094"/>
      </g>
     </g>
    </g>
    <g id="xtick_3">
     <g id="line2d_3">
      <g>
       <use xlink:href="#m573cc519e5" x="413.729983" y="1281.6" style="stroke: #000000; stroke-width: 0.8"/>
      </g>
     </g>
     <g id="text_3">
      <!-- 200 -->
      <g transform="translate(404.186233 1296.198437) scale(0.1 -0.1)">
       <defs>
        <path id="DejaVuSans-32" d="M 1228 531 
L 3431 531 
L 3431 0 
L 469 0 
L 469 531 
Q 828 903 1448 1529 
Q 2069 2156 2228 2338 
Q 2531 2678 2651 2914 
Q 2772 3150 2772 3378 
Q 2772 3750 2511 3984 
Q 2250 4219 1831 4219 
Q 1534 4219 1204 4116 
Q 875 4013 500 3803 
L 500 4441 
Q 881 4594 1212 4672 
Q 1544 4750 1819 4750 
Q 2544 4750 2975 4387 
Q 3406 4025 3406 3419 
Q 3406 3131 3298 2873 
Q 3191 2616 2906 2266 
Q 2828 2175 2409 1742 
Q 1991 1309 1228 531 
z
" transform="scale(0.015625)"/>
       </defs>
       <use xlink:href="#DejaVuSans-32"/>
       <use xlink:href="#DejaVuSans-30" x="63.623047"/>
       <use xlink:href="#DejaVuSans-30" x="127.246094"/>
      </g>
     </g>
    </g>
    <g id="xtick_4">
     <g id="line2d_4">
      <g>
       <use xlink:href="#m573cc519e5" x="474.710035" y="1281.6" style="stroke: #000000; stroke-width: 0.8"/>
      </g>
     </g>
     <g id="text_4">
      <!-- 300 -->
      <g transform="translate(465.166285 1296.198437) scale(0.1 -0.1)">
       <defs>
        <path id="DejaVuSans-33" d="M 2597 2516 
Q 3050 2419 3304 2112 
Q 3559 1806 3559 1356 
Q 3559 666 3084 287 
Q 2609 -91 1734 -91 
Q 1441 -91 1130 -33 
Q 819 25 488 141 
L 488 750 
Q 750 597 1062 519 
Q 1375 441 1716 441 
Q 2309 441 2620 675 
Q 2931 909 2931 1356 
Q 2931 1769 2642 2001 
Q 2353 2234 1838 2234 
L 1294 2234 
L 1294 2753 
L 1863 2753 
Q 2328 2753 2575 2939 
Q 2822 3125 2822 3475 
Q 2822 3834 2567 4026 
Q 2313 4219 1838 4219 
Q 1578 4219 1281 4162 
Q 984 4106 628 3988 
L 628 4550 
Q 988 4650 1302 4700 
Q 1616 4750 1894 4750 
Q 2613 4750 3031 4423 
Q 3450 4097 3450 3541 
Q 3450 3153 3228 2886 
Q 3006 2619 2597 2516 
z
" transform="scale(0.015625)"/>
       </defs>
       <use xlink:href="#DejaVuSans-33"/>
       <use xlink:href="#DejaVuSans-30" x="63.623047"/>
       <use xlink:href="#DejaVuSans-30" x="127.246094"/>
      </g>
     </g>
    </g>
    <g id="xtick_5">
     <g id="line2d_5">
      <g>
       <use xlink:href="#m573cc519e5" x="535.690087" y="1281.6" style="stroke: #000000; stroke-width: 0.8"/>
      </g>
     </g>
     <g id="text_5">
      <!-- 400 -->
      <g transform="translate(526.146337 1296.198437) scale(0.1 -0.1)">
       <defs>
        <path id="DejaVuSans-34" d="M 2419 4116 
L 825 1625 
L 2419 1625 
L 2419 4116 
z
M 2253 4666 
L 3047 4666 
L 3047 1625 
L 3713 1625 
L 3713 1100 
L 3047 1100 
L 3047 0 
L 2419 0 
L 2419 1100 
L 313 1100 
L 313 1709 
L 2253 4666 
z
" transform="scale(0.015625)"/>
       </defs>
       <use xlink:href="#DejaVuSans-34"/>
       <use xlink:href="#DejaVuSans-30" x="63.623047"/>
       <use xlink:href="#DejaVuSans-30" x="127.246094"/>
      </g>
     </g>
    </g>
    <g id="xtick_6">
     <g id="line2d_6">
      <g>
       <use xlink:href="#m573cc519e5" x="596.670139" y="1281.6" style="stroke: #000000; stroke-width: 0.8"/>
      </g>
     </g>
     <g id="text_6">
      <!-- 500 -->
      <g transform="translate(587.126389 1296.198437) scale(0.1 -0.1)">
       <defs>
        <path id="DejaVuSans-35" d="M 691 4666 
L 3169 4666 
L 3169 4134 
L 1269 4134 
L 1269 2991 
Q 1406 3038 1543 3061 
Q 1681 3084 1819 3084 
Q 2600 3084 3056 2656 
Q 3513 2228 3513 1497 
Q 3513 744 3044 326 
Q 2575 -91 1722 -91 
Q 1428 -91 1123 -41 
Q 819 9 494 109 
L 494 744 
Q 775 591 1075 516 
Q 1375 441 1709 441 
Q 2250 441 2565 725 
Q 2881 1009 2881 1497 
Q 2881 1984 2565 2268 
Q 2250 2553 1709 2553 
Q 1456 2553 1204 2497 
Q 953 2441 691 2322 
L 691 4666 
z
" transform="scale(0.015625)"/>
       </defs>
       <use xlink:href="#DejaVuSans-35"/>
       <use xlink:href="#DejaVuSans-30" x="63.623047"/>
       <use xlink:href="#DejaVuSans-30" x="127.246094"/>
      </g>
     </g>
    </g>
    <g id="xtick_7">
     <g id="line2d_7">
      <g>
       <use xlink:href="#m573cc519e5" x="657.650192" y="1281.6" style="stroke: #000000; stroke-width: 0.8"/>
      </g>
     </g>
     <g id="text_7">
      <!-- 600 -->
      <g transform="translate(648.106442 1296.198437) scale(0.1 -0.1)">
       <defs>
        <path id="DejaVuSans-36" d="M 2113 2584 
Q 1688 2584 1439 2293 
Q 1191 2003 1191 1497 
Q 1191 994 1439 701 
Q 1688 409 2113 409 
Q 2538 409 2786 701 
Q 3034 994 3034 1497 
Q 3034 2003 2786 2293 
Q 2538 2584 2113 2584 
z
M 3366 4563 
L 3366 3988 
Q 3128 4100 2886 4159 
Q 2644 4219 2406 4219 
Q 1781 4219 1451 3797 
Q 1122 3375 1075 2522 
Q 1259 2794 1537 2939 
Q 1816 3084 2150 3084 
Q 2853 3084 3261 2657 
Q 3669 2231 3669 1497 
Q 3669 778 3244 343 
Q 2819 -91 2113 -91 
Q 1303 -91 875 529 
Q 447 1150 447 2328 
Q 447 3434 972 4092 
Q 1497 4750 2381 4750 
Q 2619 4750 2861 4703 
Q 3103 4656 3366 4563 
z
" transform="scale(0.015625)"/>
       </defs>
       <use xlink:href="#DejaVuSans-36"/>
       <use xlink:href="#DejaVuSans-30" x="63.623047"/>
       <use xlink:href="#DejaVuSans-30" x="127.246094"/>
      </g>
     </g>
    </g>
    <g id="xtick_8">
     <g id="line2d_8">
      <g>
       <use xlink:href="#m573cc519e5" x="718.630244" y="1281.6" style="stroke: #000000; stroke-width: 0.8"/>
      </g>
     </g>
     <g id="text_8">
      <!-- 700 -->
      <g transform="translate(709.086494 1296.198437) scale(0.1 -0.1)">
       <defs>
        <path id="DejaVuSans-37" d="M 525 4666 
L 3525 4666 
L 3525 4397 
L 1831 0 
L 1172 0 
L 2766 4134 
L 525 4134 
L 525 4666 
z
" transform="scale(0.015625)"/>
       </defs>
       <use xlink:href="#DejaVuSans-37"/>
       <use xlink:href="#DejaVuSans-30" x="63.623047"/>
       <use xlink:href="#DejaVuSans-30" x="127.246094"/>
      </g>
     </g>
    </g>
   </g>
   <g id="matplotlib.axis_2">
    <g id="ytick_1">
     <g id="line2d_9">
      <defs>
       <path id="mfc0dade64c" d="M 0 0 
L -3.5 0 
" style="stroke: #000000; stroke-width: 0.8"/>
      </defs>
      <g>
       <use xlink:href="#mfc0dade64c" x="270" y="1136.54929" style="stroke: #000000; stroke-width: 0.8"/>
      </g>
     </g>
     <g id="text_9">
      <!-- −8 -->
      <g transform="translate(248.257812 1140.348509) scale(0.1 -0.1)">
       <defs>
        <path id="DejaVuSans-2212" d="M 678 2272 
L 4684 2272 
L 4684 1741 
L 678 1741 
L 678 2272 
z
" transform="scale(0.015625)"/>
        <path id="DejaVuSans-38" d="M 2034 2216 
Q 1584 2216 1326 1975 
Q 1069 1734 1069 1313 
Q 1069 891 1326 650 
Q 1584 409 2034 409 
Q 2484 409 2743 651 
Q 3003 894 3003 1313 
Q 3003 1734 2745 1975 
Q 2488 2216 2034 2216 
z
M 1403 2484 
Q 997 2584 770 2862 
Q 544 3141 544 3541 
Q 544 4100 942 4425 
Q 1341 4750 2034 4750 
Q 2731 4750 3128 4425 
Q 3525 4100 3525 3541 
Q 3525 3141 3298 2862 
Q 3072 2584 2669 2484 
Q 3125 2378 3379 2068 
Q 3634 1759 3634 1313 
Q 3634 634 3220 271 
Q 2806 -91 2034 -91 
Q 1263 -91 848 271 
Q 434 634 434 1313 
Q 434 1759 690 2068 
Q 947 2378 1403 2484 
z
M 1172 3481 
Q 1172 3119 1398 2916 
Q 1625 2713 2034 2713 
Q 2441 2713 2670 2916 
Q 2900 3119 2900 3481 
Q 2900 3844 2670 4047 
Q 2441 4250 2034 4250 
Q 1625 4250 1398 4047 
Q 1172 3844 1172 3481 
z
" transform="scale(0.015625)"/>
       </defs>
       <use xlink:href="#DejaVuSans-2212"/>
       <use xlink:href="#DejaVuSans-38" x="83.789062"/>
      </g>
     </g>
    </g>
    <g id="ytick_2">
     <g id="line2d_10">
      <g>
       <use xlink:href="#mfc0dade64c" x="270" y="913.781171" style="stroke: #000000; stroke-width: 0.8"/>
      </g>
     </g>
     <g id="text_10">
      <!-- −6 -->
      <g transform="translate(248.257812 917.58039) scale(0.1 -0.1)">
       <use xlink:href="#DejaVuSans-2212"/>
       <use xlink:href="#DejaVuSans-36" x="83.789062"/>
      </g>
     </g>
    </g>
    <g id="ytick_3">
     <g id="line2d_11">
      <g>
       <use xlink:href="#mfc0dade64c" x="270" y="691.013051" style="stroke: #000000; stroke-width: 0.8"/>
      </g>
     </g>
     <g id="text_11">
      <!-- −4 -->
      <g transform="translate(248.257812 694.81227) scale(0.1 -0.1)">
       <use xlink:href="#DejaVuSans-2212"/>
       <use xlink:href="#DejaVuSans-34" x="83.789062"/>
      </g>
     </g>
    </g>
    <g id="ytick_4">
     <g id="line2d_12">
      <g>
       <use xlink:href="#mfc0dade64c" x="270" y="468.244932" style="stroke: #000000; stroke-width: 0.8"/>
      </g>
     </g>
     <g id="text_12">
      <!-- −2 -->
      <g transform="translate(248.257812 472.04415) scale(0.1 -0.1)">
       <use xlink:href="#DejaVuSans-2212"/>
       <use xlink:href="#DejaVuSans-32" x="83.789062"/>
      </g>
     </g>
    </g>
    <g id="ytick_5">
     <g id="line2d_13">
      <g>
       <use xlink:href="#mfc0dade64c" x="270" y="245.476812" style="stroke: #000000; stroke-width: 0.8"/>
      </g>
     </g>
     <g id="text_13">
      <!-- 0 -->
      <g transform="translate(256.6375 249.276031) scale(0.1 -0.1)">
       <use xlink:href="#DejaVuSans-30"/>
      </g>
     </g>
    </g>
   </g>
   <g id="line2d_14">
    <path d="M 292.379679 245.476812 
L 322.869705 245.476812 
L 323.479506 223.2 
L 325.308907 223.2 
L 325.918708 238.051208 
L 327.748109 238.051208 
L 328.35791 263.298262 
L 330.187311 263.298262 
L 330.797112 266.154263 
L 332.626514 266.154263 
L 333.236314 294.469478 
L 335.065716 294.469478 
L 335.675516 306.776729 
L 337.504918 306.776729 
L 338.114718 319.948336 
L 339.94412 319.948336 
L 340.55392 331.515872 
L 342.383322 331.515872 
L 342.993122 346.519926 
L 344.822524 346.519926 
L 345.432325 357.937298 
L 349.700928 357.937298 
L 350.310729 348.485326 
L 354.579332 348.485326 
L 355.189133 361.923565 
L 357.018534 361.923565 
L 357.628335 350.568592 
L 359.457737 350.568592 
L 360.067537 341.408382 
L 364.336141 341.408382 
L 364.945941 343.708772 
L 366.775343 343.708772 
L 367.385143 332.403905 
L 371.653747 332.403905 
L 372.263547 321.144316 
L 374.092949 321.144316 
L 374.70275 309.927849 
L 376.532151 309.927849 
L 377.141952 320.319249 
L 378.971353 320.319249 
L 379.581154 303.442876 
L 383.849757 303.442876 
L 384.459558 287.802474 
L 386.288959 287.802474 
L 386.89876 297.642754 
L 388.728162 297.642754 
L 389.337962 287.802474 
L 391.167364 287.802474 
L 391.777164 302.834351 
L 396.045768 302.834351 
L 396.655568 313.444579 
L 398.48497 313.444579 
L 399.09477 331.926972 
L 400.924172 331.926972 
L 401.533973 329.149228 
L 403.363374 329.149228 
L 403.973175 336.143418 
L 405.802576 336.143418 
L 406.412377 333.473486 
L 408.241778 333.473486 
L 408.851579 330.863111 
L 410.68098 330.863111 
L 411.290781 335.441023 
L 413.120182 335.441023 
L 413.729983 361.652379 
L 415.559385 361.652379 
L 416.169185 352.310142 
L 417.998587 352.310142 
L 418.608387 359.560263 
L 420.437789 359.560263 
L 421.047589 385.433326 
L 422.876991 385.433326 
L 423.486791 394.270066 
L 425.316193 394.270066 
L 425.925993 402.064454 
L 432.633799 402.064454 
L 433.2436 410.705784 
L 435.073001 410.705784 
L 435.682802 427.141502 
L 437.512203 427.141502 
L 438.122004 418.513918 
L 439.951405 418.513918 
L 440.561206 434.977877 
L 442.390607 434.977877 
L 443.000408 451.290414 
L 444.82981 451.290414 
L 445.43961 459.165195 
L 447.269012 459.165195 
L 447.878812 484.065465 
L 449.708214 484.065465 
L 450.318014 500.797335 
L 452.147416 500.797335 
L 452.757216 525.994484 
L 454.586618 525.994484 
L 455.196418 550.768923 
L 457.02582 550.768923 
L 457.635621 567.412271 
L 459.465022 567.412271 
L 460.074823 575.923967 
L 461.904224 575.923967 
L 462.514025 592.567314 
L 464.343426 592.567314 
L 464.953227 584.549903 
L 466.782628 584.549903 
L 467.392429 568.711526 
L 469.22183 568.711526 
L 469.831631 553.056045 
L 471.661033 553.056045 
L 472.270833 545.228304 
L 474.100235 545.228304 
L 474.710035 561.960391 
L 478.978639 562.035246 
L 479.588439 563.469252 
L 481.417841 563.469252 
L 482.027641 589.532461 
L 486.296245 589.523394 
L 486.906046 574.508055 
L 488.735447 574.508055 
L 489.345248 567.009065 
L 491.174649 567.009065 
L 491.78445 552.035856 
L 493.613851 552.035856 
L 494.223652 569.144401 
L 496.053053 569.144401 
L 496.662854 576.626935 
L 500.931458 576.626935 
L 501.541258 584.109468 
L 503.37066 584.109468 
L 503.98046 576.634588 
L 505.809862 576.634588 
L 506.419662 571.481944 
L 508.249064 571.481944 
L 508.858864 556.692994 
L 510.688266 556.692994 
L 511.298066 559.178209 
L 513.127468 559.178209 
L 513.737269 571.784775 
L 515.56667 571.784775 
L 516.176471 574.559669 
L 518.005872 574.559669 
L 518.615673 567.223225 
L 522.884276 567.223225 
L 523.494077 584.629655 
L 525.323478 584.629655 
L 525.933279 577.39543 
L 527.76268 577.39543 
L 528.372481 570.166971 
L 530.201883 570.166971 
L 530.811683 573.186355 
L 532.641085 573.186355 
L 533.250885 576.267307 
L 535.080287 576.267307 
L 535.690087 586.593428 
L 537.519489 586.593428 
L 538.129289 604.173617 
L 539.958691 604.173617 
L 540.568491 632.172016 
L 542.397893 632.172016 
L 543.007694 649.752203 
L 544.837095 649.752203 
L 545.446896 674.483869 
L 547.276297 674.483869 
L 547.886098 702.492835 
L 549.715499 702.492835 
L 550.3253 727.17287 
L 552.154701 727.17287 
L 552.764502 762.429381 
L 554.593903 762.429381 
L 555.203704 790.648127 
L 557.033106 790.648127 
L 557.642906 797.761814 
L 559.472308 797.761814 
L 560.082108 826.05021 
L 561.91151 826.05021 
L 562.52131 829.537439 
L 564.350712 829.537439 
L 564.960512 850.78559 
L 569.229116 850.78559 
L 569.838916 861.408109 
L 574.10752 861.427743 
L 574.717321 872.062517 
L 576.546722 872.062517 
L 577.156523 865.020462 
L 581.425126 865.016477 
L 582.034927 875.727768 
L 583.864328 875.727768 
L 584.474129 893.463689 
L 586.303531 893.463689 
L 586.913331 879.487318 
L 588.742733 879.487318 
L 589.352533 883.340695 
L 591.181935 883.340695 
L 591.791735 869.450276 
L 593.621137 869.450276 
L 594.230937 848.698465 
L 596.060339 848.698465 
L 596.670139 859.593548 
L 598.499541 859.593548 
L 599.109342 838.899612 
L 600.938743 838.899612 
L 601.548544 856.726803 
L 603.377945 856.726803 
L 603.987746 853.887985 
L 610.695551 853.887985 
L 611.305352 847.040982 
L 613.134754 847.040982 
L 613.744554 833.36274 
L 615.573956 833.36274 
L 616.183756 819.694197 
L 618.013158 819.694197 
L 618.622958 792.403923 
L 620.45236 792.403923 
L 621.06216 765.236239 
L 622.891562 765.236239 
L 623.501362 744.920136 
L 625.330764 744.920136 
L 625.940564 724.654116 
L 627.769966 724.654116 
L 628.379767 717.910553 
L 630.209168 717.910553 
L 630.818969 697.71307 
L 632.64837 697.71307 
L 633.258171 684.263543 
L 637.526774 684.269014 
L 638.136575 677.556318 
L 639.965976 677.556318 
L 640.575777 657.440912 
L 642.405179 657.440912 
L 643.014979 675.479853 
L 644.844381 675.479853 
L 645.454181 655.400656 
L 647.283583 655.400656 
L 647.893383 678.150134 
L 649.722785 678.150134 
L 650.332585 720.956069 
L 652.161987 720.956069 
L 652.771787 714.280243 
L 654.601189 714.280243 
L 655.21099 712.335266 
L 657.040391 712.335266 
L 657.650192 685.685 
L 659.479593 685.685 
L 660.089394 697.127047 
L 661.918795 697.127047 
L 662.528596 726.670244 
L 664.357997 726.670244 
L 664.967798 754.446104 
L 666.797199 754.446104 
L 667.407 772.547371 
L 669.236402 772.547371 
L 669.846202 803.884171 
L 671.675604 803.884171 
L 672.285404 833.502828 
L 674.114806 833.502828 
L 674.724606 851.620436 
L 676.554008 851.620436 
L 677.163808 863.150013 
L 678.99321 863.150013 
L 679.60301 866.444113 
L 681.432412 866.444113 
L 682.042212 896.131197 
L 683.871614 896.131197 
L 684.481415 920.857538 
L 686.310816 920.857538 
L 686.920617 925.847022 
L 688.750018 925.847022 
L 689.359819 937.418229 
L 691.18922 937.418229 
L 691.799021 972.172155 
L 693.628422 972.172155 
L 694.238223 1001.930247 
L 696.067624 1001.930247 
L 696.677425 1054.953383 
L 698.506827 1054.953383 
L 699.116627 1119.690517 
L 700.946029 1119.690517 
L 701.555829 1142.987734 
L 703.385231 1142.987734 
L 703.995031 1191.04781 
L 705.824433 1191.04781 
L 706.434233 1231.2 
L 708.263635 1231.2 
L 708.873435 1224.665116 
L 710.702837 1224.665116 
L 711.312638 1211.606738 
L 713.142039 1211.606738 
L 713.75184 1198.554048 
L 718.020443 1198.552307 
L 718.630244 1192.031144 
L 720.459645 1192.031144 
L 721.069446 1185.508257 
L 722.898847 1185.508257 
L 723.508648 1172.473287 
L 725.33805 1172.473287 
L 725.94785 1164.642178 
L 727.777252 1164.642178 
L 728.387052 1163.332492 
L 730.216454 1163.332492 
L 730.826254 1191.988852 
L 732.655656 1191.988852 
L 733.265456 1185.483395 
L 735.094858 1185.483395 
L 735.704658 1197.213323 
L 737.53406 1197.213323 
L 738.14386 1220.683444 
L 739.973262 1220.683444 
L 739.973262 1220.683444 
" clip-path="url(#pce06b4e9a3)" style="fill: none; stroke: #0000ff; stroke-width: 1.5; stroke-linecap: square"/>
   </g>
   <g id="patch_3">
    <path d="M 270 1281.6 
L 270 172.8 
" style="fill: none; stroke: #000000; stroke-width: 0.8; stroke-linejoin: miter; stroke-linecap: square"/>
   </g>
   <g id="patch_4">
    <path d="M 762.352941 1281.6 
L 762.352941 172.8 
" style="fill: none; stroke: #000000; stroke-width: 0.8; stroke-linejoin: miter; stroke-linecap: square"/>
   </g>
   <g id="patch_5">
    <path d="M 270 1281.6 
L 762.352941 1281.6 
" style="fill: none; stroke: #000000; stroke-width: 0.8; stroke-linejoin: miter; stroke-linecap: square"/>
   </g>
   <g id="patch_6">
    <path d="M 270 172.8 
L 762.352941 172.8 
" style="fill: none; stroke: #000000; stroke-width: 0.8; stroke-linejoin: miter; stroke-linecap: square"/>
   </g>
   <g id="legend_1">
    <g id="patch_7">
     <path d="M 671.310754 195.478125 
L 755.352941 195.478125 
Q 757.352941 195.478125 757.352941 193.478125 
L 757.352941 179.8 
Q 757.352941 177.8 755.352941 177.8 
L 671.310754 177.8 
Q 669.310754 177.8 669.310754 179.8 
L 669.310754 193.478125 
Q 669.310754 195.478125 671.310754 195.478125 
z
" style="fill: #ffffff; opacity: 0.8; stroke: #cccccc; stroke-linejoin: miter"/>
    </g>
    <g id="line2d_15">
     <path d="M 673.310754 185.898437 
L 683.310754 185.898437 
L 693.310754 185.898437 
" style="fill: none; stroke: #0000ff; stroke-width: 1.5; stroke-linecap: square"/>
    </g>
    <g id="text_14">
     <!-- O1 reward -->
     <g transform="translate(701.310754 189.398437) scale(0.1 -0.1)">
      <defs>
       <path id="DejaVuSans-4f" d="M 2522 4238 
Q 1834 4238 1429 3725 
Q 1025 3213 1025 2328 
Q 1025 1447 1429 934 
Q 1834 422 2522 422 
Q 3209 422 3611 934 
Q 4013 1447 4013 2328 
Q 4013 3213 3611 3725 
Q 3209 4238 2522 4238 
z
M 2522 4750 
Q 3503 4750 4090 4092 
Q 4678 3434 4678 2328 
Q 4678 1225 4090 567 
Q 3503 -91 2522 -91 
Q 1538 -91 948 565 
Q 359 1222 359 2328 
Q 359 3434 948 4092 
Q 1538 4750 2522 4750 
z
" transform="scale(0.015625)"/>
       <path id="DejaVuSans-20" transform="scale(0.015625)"/>
       <path id="DejaVuSans-72" d="M 2631 2963 
Q 2534 3019 2420 3045 
Q 2306 3072 2169 3072 
Q 1681 3072 1420 2755 
Q 1159 2438 1159 1844 
L 1159 0 
L 581 0 
L 581 3500 
L 1159 3500 
L 1159 2956 
Q 1341 3275 1631 3429 
Q 1922 3584 2338 3584 
Q 2397 3584 2469 3576 
Q 2541 3569 2628 3553 
L 2631 2963 
z
" transform="scale(0.015625)"/>
       <path id="DejaVuSans-65" d="M 3597 1894 
L 3597 1613 
L 953 1613 
Q 991 1019 1311 708 
Q 1631 397 2203 397 
Q 2534 397 2845 478 
Q 3156 559 3463 722 
L 3463 178 
Q 3153 47 2828 -22 
Q 2503 -91 2169 -91 
Q 1331 -91 842 396 
Q 353 884 353 1716 
Q 353 2575 817 3079 
Q 1281 3584 2069 3584 
Q 2775 3584 3186 3129 
Q 3597 2675 3597 1894 
z
M 3022 2063 
Q 3016 2534 2758 2815 
Q 2500 3097 2075 3097 
Q 1594 3097 1305 2825 
Q 1016 2553 972 2059 
L 3022 2063 
z
" transform="scale(0.015625)"/>
       <path id="DejaVuSans-77" d="M 269 3500 
L 844 3500 
L 1563 769 
L 2278 3500 
L 2956 3500 
L 3675 769 
L 4391 3500 
L 4966 3500 
L 4050 0 
L 3372 0 
L 2619 2869 
L 1863 0 
L 1184 0 
L 269 3500 
z
" transform="scale(0.015625)"/>
       <path id="DejaVuSans-61" d="M 2194 1759 
Q 1497 1759 1228 1600 
Q 959 1441 959 1056 
Q 959 750 1161 570 
Q 1363 391 1709 391 
Q 2188 391 2477 730 
Q 2766 1069 2766 1631 
L 2766 1759 
L 2194 1759 
z
M 3341 1997 
L 3341 0 
L 2766 0 
L 2766 531 
Q 2569 213 2275 61 
Q 1981 -91 1556 -91 
Q 1019 -91 701 211 
Q 384 513 384 1019 
Q 384 1609 779 1909 
Q 1175 2209 1959 2209 
L 2766 2209 
L 2766 2266 
Q 2766 2663 2505 2880 
Q 2244 3097 1772 3097 
Q 1472 3097 1187 3025 
Q 903 2953 641 2809 
L 641 3341 
Q 956 3463 1253 3523 
Q 1550 3584 1831 3584 
Q 2591 3584 2966 3190 
Q 3341 2797 3341 1997 
z
" transform="scale(0.015625)"/>
       <path id="DejaVuSans-64" d="M 2906 2969 
L 2906 4863 
L 3481 4863 
L 3481 0 
L 2906 0 
L 2906 525 
Q 2725 213 2448 61 
Q 2172 -91 1784 -91 
Q 1150 -91 751 415 
Q 353 922 353 1747 
Q 353 2572 751 3078 
Q 1150 3584 1784 3584 
Q 2172 3584 2448 3432 
Q 2725 3281 2906 2969 
z
M 947 1747 
Q 947 1113 1208 752 
Q 1469 391 1925 391 
Q 2381 391 2643 752 
Q 2906 1113 2906 1747 
Q 2906 2381 2643 2742 
Q 2381 3103 1925 3103 
Q 1469 3103 1208 2742 
Q 947 2381 947 1747 
z
" transform="scale(0.015625)"/>
      </defs>
      <use xlink:href="#DejaVuSans-4f"/>
      <use xlink:href="#DejaVuSans-31" x="78.710938"/>
      <use xlink:href="#DejaVuSans-20" x="142.333984"/>
      <use xlink:href="#DejaVuSans-72" x="174.121094"/>
      <use xlink:href="#DejaVuSans-65" x="212.984375"/>
      <use xlink:href="#DejaVuSans-77" x="274.507812"/>
      <use xlink:href="#DejaVuSans-61" x="356.294922"/>
      <use xlink:href="#DejaVuSans-72" x="417.574219"/>
      <use xlink:href="#DejaVuSans-64" x="456.9375"/>
     </g>
    </g>
   </g>
  </g>
  <g id="axes_2">
   <g id="patch_8">
    <path d="M 860.823529 1281.6 
L 1353.176471 1281.6 
L 1353.176471 172.8 
L 860.823529 172.8 
z
" style="fill: #ffffff"/>
   </g>
   <g id="matplotlib.axis_3">
    <g id="xtick_9">
     <g id="line2d_16">
      <g>
       <use xlink:href="#m573cc519e5" x="882.593408" y="1281.6" style="stroke: #000000; stroke-width: 0.8"/>
      </g>
     </g>
     <g id="text_15">
      <!-- 0 -->
      <g transform="translate(879.412158 1296.198437) scale(0.1 -0.1)">
       <use xlink:href="#DejaVuSans-30"/>
      </g>
     </g>
    </g>
    <g id="xtick_10">
     <g id="line2d_17">
      <g>
       <use xlink:href="#m573cc519e5" x="943.57346" y="1281.6" style="stroke: #000000; stroke-width: 0.8"/>
      </g>
     </g>
     <g id="text_16">
      <!-- 100 -->
      <g transform="translate(934.02971 1296.198437) scale(0.1 -0.1)">
       <use xlink:href="#DejaVuSans-31"/>
       <use xlink:href="#DejaVuSans-30" x="63.623047"/>
       <use xlink:href="#DejaVuSans-30" x="127.246094"/>
      </g>
     </g>
    </g>
    <g id="xtick_11">
     <g id="line2d_18">
      <g>
       <use xlink:href="#m573cc519e5" x="1004.553512" y="1281.6" style="stroke: #000000; stroke-width: 0.8"/>
      </g>
     </g>
     <g id="text_17">
      <!-- 200 -->
      <g transform="translate(995.009762 1296.198437) scale(0.1 -0.1)">
       <use xlink:href="#DejaVuSans-32"/>
       <use xlink:href="#DejaVuSans-30" x="63.623047"/>
       <use xlink:href="#DejaVuSans-30" x="127.246094"/>
      </g>
     </g>
    </g>
    <g id="xtick_12">
     <g id="line2d_19">
      <g>
       <use xlink:href="#m573cc519e5" x="1065.533565" y="1281.6" style="stroke: #000000; stroke-width: 0.8"/>
      </g>
     </g>
     <g id="text_18">
      <!-- 300 -->
      <g transform="translate(1055.989815 1296.198437) scale(0.1 -0.1)">
       <use xlink:href="#DejaVuSans-33"/>
       <use xlink:href="#DejaVuSans-30" x="63.623047"/>
       <use xlink:href="#DejaVuSans-30" x="127.246094"/>
      </g>
     </g>
    </g>
    <g id="xtick_13">
     <g id="line2d_20">
      <g>
       <use xlink:href="#m573cc519e5" x="1126.513617" y="1281.6" style="stroke: #000000; stroke-width: 0.8"/>
      </g>
     </g>
     <g id="text_19">
      <!-- 400 -->
      <g transform="translate(1116.969867 1296.198437) scale(0.1 -0.1)">
       <use xlink:href="#DejaVuSans-34"/>
       <use xlink:href="#DejaVuSans-30" x="63.623047"/>
       <use xlink:href="#DejaVuSans-30" x="127.246094"/>
      </g>
     </g>
    </g>
    <g id="xtick_14">
     <g id="line2d_21">
      <g>
       <use xlink:href="#m573cc519e5" x="1187.493669" y="1281.6" style="stroke: #000000; stroke-width: 0.8"/>
      </g>
     </g>
     <g id="text_20">
      <!-- 500 -->
      <g transform="translate(1177.949919 1296.198437) scale(0.1 -0.1)">
       <use xlink:href="#DejaVuSans-35"/>
       <use xlink:href="#DejaVuSans-30" x="63.623047"/>
       <use xlink:href="#DejaVuSans-30" x="127.246094"/>
      </g>
     </g>
    </g>
    <g id="xtick_15">
     <g id="line2d_22">
      <g>
       <use xlink:href="#m573cc519e5" x="1248.473721" y="1281.6" style="stroke: #000000; stroke-width: 0.8"/>
      </g>
     </g>
     <g id="text_21">
      <!-- 600 -->
      <g transform="translate(1238.929971 1296.198437) scale(0.1 -0.1)">
       <use xlink:href="#DejaVuSans-36"/>
       <use xlink:href="#DejaVuSans-30" x="63.623047"/>
       <use xlink:href="#DejaVuSans-30" x="127.246094"/>
      </g>
     </g>
    </g>
    <g id="xtick_16">
     <g id="line2d_23">
      <g>
       <use xlink:href="#m573cc519e5" x="1309.453773" y="1281.6" style="stroke: #000000; stroke-width: 0.8"/>
      </g>
     </g>
     <g id="text_22">
      <!-- 700 -->
      <g transform="translate(1299.910023 1296.198437) scale(0.1 -0.1)">
       <use xlink:href="#DejaVuSans-37"/>
       <use xlink:href="#DejaVuSans-30" x="63.623047"/>
       <use xlink:href="#DejaVuSans-30" x="127.246094"/>
      </g>
     </g>
    </g>
   </g>
   <g id="matplotlib.axis_4">
    <g id="ytick_6">
     <g id="line2d_24">
      <g>
       <use xlink:href="#mfc0dade64c" x="860.823529" y="1231.2" style="stroke: #000000; stroke-width: 0.8"/>
      </g>
     </g>
     <g id="text_23">
      <!-- 0 -->
      <g transform="translate(847.461029 1234.999219) scale(0.1 -0.1)">
       <use xlink:href="#DejaVuSans-30"/>
      </g>
     </g>
    </g>
    <g id="ytick_7">
     <g id="line2d_25">
      <g>
       <use xlink:href="#mfc0dade64c" x="860.823529" y="1089.226869" style="stroke: #000000; stroke-width: 0.8"/>
      </g>
     </g>
     <g id="text_24">
      <!-- 10 -->
      <g transform="translate(841.098529 1093.026088) scale(0.1 -0.1)">
       <use xlink:href="#DejaVuSans-31"/>
       <use xlink:href="#DejaVuSans-30" x="63.623047"/>
      </g>
     </g>
    </g>
    <g id="ytick_8">
     <g id="line2d_26">
      <g>
       <use xlink:href="#mfc0dade64c" x="860.823529" y="947.253738" style="stroke: #000000; stroke-width: 0.8"/>
      </g>
     </g>
     <g id="text_25">
      <!-- 20 -->
      <g transform="translate(841.098529 951.052956) scale(0.1 -0.1)">
       <use xlink:href="#DejaVuSans-32"/>
       <use xlink:href="#DejaVuSans-30" x="63.623047"/>
      </g>
     </g>
    </g>
    <g id="ytick_9">
     <g id="line2d_27">
      <g>
       <use xlink:href="#mfc0dade64c" x="860.823529" y="805.280607" style="stroke: #000000; stroke-width: 0.8"/>
      </g>
     </g>
     <g id="text_26">
      <!-- 30 -->
      <g transform="translate(841.098529 809.079825) scale(0.1 -0.1)">
       <use xlink:href="#DejaVuSans-33"/>
       <use xlink:href="#DejaVuSans-30" x="63.623047"/>
      </g>
     </g>
    </g>
    <g id="ytick_10">
     <g id="line2d_28">
      <g>
       <use xlink:href="#mfc0dade64c" x="860.823529" y="663.307475" style="stroke: #000000; stroke-width: 0.8"/>
      </g>
     </g>
     <g id="text_27">
      <!-- 40 -->
      <g transform="translate(841.098529 667.106694) scale(0.1 -0.1)">
       <use xlink:href="#DejaVuSans-34"/>
       <use xlink:href="#DejaVuSans-30" x="63.623047"/>
      </g>
     </g>
    </g>
    <g id="ytick_11">
     <g id="line2d_29">
      <g>
       <use xlink:href="#mfc0dade64c" x="860.823529" y="521.334344" style="stroke: #000000; stroke-width: 0.8"/>
      </g>
     </g>
     <g id="text_28">
      <!-- 50 -->
      <g transform="translate(841.098529 525.133563) scale(0.1 -0.1)">
       <use xlink:href="#DejaVuSans-35"/>
       <use xlink:href="#DejaVuSans-30" x="63.623047"/>
      </g>
     </g>
    </g>
    <g id="ytick_12">
     <g id="line2d_30">
      <g>
       <use xlink:href="#mfc0dade64c" x="860.823529" y="379.361213" style="stroke: #000000; stroke-width: 0.8"/>
      </g>
     </g>
     <g id="text_29">
      <!-- 60 -->
      <g transform="translate(841.098529 383.160432) scale(0.1 -0.1)">
       <use xlink:href="#DejaVuSans-36"/>
       <use xlink:href="#DejaVuSans-30" x="63.623047"/>
      </g>
     </g>
    </g>
    <g id="ytick_13">
     <g id="line2d_31">
      <g>
       <use xlink:href="#mfc0dade64c" x="860.823529" y="237.388082" style="stroke: #000000; stroke-width: 0.8"/>
      </g>
     </g>
     <g id="text_30">
      <!-- 70 -->
      <g transform="translate(841.098529 241.187301) scale(0.1 -0.1)">
       <use xlink:href="#DejaVuSans-37"/>
       <use xlink:href="#DejaVuSans-30" x="63.623047"/>
      </g>
     </g>
    </g>
   </g>
   <g id="line2d_32">
    <path d="M 883.203209 1231.2 
L 911.254033 1231.095037 
L 911.863833 1225.37523 
L 913.693235 1225.37523 
L 914.303035 1227.616966 
L 916.132437 1227.616966 
L 916.742237 1226.283806 
L 918.571639 1226.283806 
L 919.181439 1228.911961 
L 921.010841 1228.911961 
L 921.620641 1217.104233 
L 923.450043 1217.104233 
L 924.059844 1199.205458 
L 925.889245 1199.205458 
L 926.499046 1190.301195 
L 928.328447 1190.301195 
L 928.938248 1166.846569 
L 930.767649 1166.846569 
L 931.37745 1145.230323 
L 942.96366 1145.230323 
L 943.57346 1135.848528 
L 950.281266 1135.848528 
L 950.891066 1125.842676 
L 957.598872 1125.842676 
L 958.208673 1112.209875 
L 960.038074 1112.209875 
L 960.647875 1108.381894 
L 962.477276 1108.381894 
L 963.087077 1104.169656 
L 967.355681 1104.169656 
L 967.965481 1078.313707 
L 969.794883 1078.313707 
L 970.404683 1037.653066 
L 972.234085 1037.653066 
L 972.843885 1026.821457 
L 974.673287 1026.821457 
L 975.283087 1005.963428 
L 977.112489 1005.963428 
L 977.722289 955.471575 
L 979.551691 955.471575 
L 980.161491 920.329166 
L 1006.382914 920.329166 
L 1006.992714 909.967122 
L 1013.70052 909.967122 
L 1014.310321 899.757359 
L 1016.139722 899.757359 
L 1016.749523 889.440849 
L 1018.578924 889.440849 
L 1019.188725 879.02033 
L 1023.457329 879.02033 
L 1024.067129 875.342378 
L 1033.214137 875.342378 
L 1033.823937 871.565584 
L 1035.653339 871.565584 
L 1036.263139 846.494387 
L 1038.092541 846.494387 
L 1038.702342 827.347947 
L 1040.531743 827.347947 
L 1041.141544 784.915541 
L 1042.970945 784.915541 
L 1043.580746 747.586701 
L 1045.410147 747.586701 
L 1046.019948 718.164396 
L 1047.849349 718.164396 
L 1048.45915 681.983441 
L 1050.288551 681.983441 
L 1050.898352 638.039929 
L 1052.727754 638.039929 
L 1053.337554 618.38722 
L 1055.166956 618.38722 
L 1055.776756 591.169418 
L 1062.484562 591.169418 
L 1063.094362 585.024747 
L 1064.923764 585.024747 
L 1065.533565 572.318901 
L 1067.362966 572.318901 
L 1067.972767 581.087406 
L 1069.802168 581.087406 
L 1070.411969 585.258015 
L 1072.24137 585.258015 
L 1072.851171 593.921704 
L 1074.680572 593.921704 
L 1075.290373 598.393694 
L 1077.119774 598.393694 
L 1077.729575 602.457322 
L 1079.558977 602.457322 
L 1080.168777 589.938232 
L 1084.437381 589.938232 
L 1085.047181 581.42498 
L 1086.876583 581.42498 
L 1087.486383 577.502845 
L 1089.315785 577.502845 
L 1089.925585 565.203708 
L 1091.754987 565.203708 
L 1092.364787 540.942414 
L 1094.194189 540.942414 
L 1094.80399 529.326255 
L 1096.633391 529.326255 
L 1097.243192 519.227542 
L 1099.072593 519.227542 
L 1099.682394 512.689734 
L 1101.511795 512.689734 
L 1102.121596 501.951449 
L 1103.950997 501.951449 
L 1104.560798 512.583682 
L 1106.390199 512.583682 
L 1107 536.402387 
L 1108.829402 536.402387 
L 1109.439202 528.936574 
L 1111.268604 528.936574 
L 1111.878404 508.453069 
L 1113.707806 508.453069 
L 1114.317606 491.073467 
L 1116.147008 491.073467 
L 1116.756808 493.583205 
L 1118.58621 493.583205 
L 1119.19601 477.077465 
L 1121.025412 477.077465 
L 1121.635213 462.893615 
L 1123.464614 462.893615 
L 1124.074415 460.594587 
L 1128.343018 460.510526 
L 1128.952819 462.742422 
L 1130.78222 462.742422 
L 1131.392021 458.375025 
L 1133.221422 458.375025 
L 1133.831223 444.741785 
L 1135.660625 444.741785 
L 1136.270425 446.789018 
L 1138.099827 446.789018 
L 1138.709627 442.150798 
L 1140.539029 442.150798 
L 1141.148829 428.867188 
L 1142.978231 428.867188 
L 1143.588031 420.334288 
L 1145.417433 420.334288 
L 1146.027233 411.870094 
L 1147.856635 411.870094 
L 1148.466435 407.261277 
L 1150.295837 407.261277 
L 1150.905638 404.52497 
L 1155.174241 404.52497 
L 1155.784042 421.074418 
L 1157.613443 421.074418 
L 1158.223244 429.225781 
L 1160.052645 429.225781 
L 1160.662446 426.32572 
L 1162.491847 426.32572 
L 1163.101648 432.548907 
L 1164.93105 432.548907 
L 1165.54085 434.090625 
L 1167.370252 434.090625 
L 1167.980052 450.961576 
L 1169.809454 450.961576 
L 1170.419254 454.182685 
L 1172.248656 454.182685 
L 1172.858456 467.662841 
L 1174.687858 467.662841 
L 1175.297658 467.005323 
L 1177.12706 467.005323 
L 1177.736861 453.873381 
L 1179.566262 453.873381 
L 1180.176063 445.469045 
L 1182.005464 445.469045 
L 1182.615265 444.22654 
L 1184.444666 444.22654 
L 1185.054467 437.180105 
L 1186.883868 437.180105 
L 1187.493669 425.560306 
L 1189.32307 425.560306 
L 1189.932871 430.21453 
L 1191.762273 430.21453 
L 1192.372073 434.861021 
L 1194.201475 434.861021 
L 1194.811275 433.754503 
L 1196.640677 433.754503 
L 1197.250477 429.092468 
L 1199.079879 429.092468 
L 1199.689679 416.585186 
L 1201.519081 416.585186 
L 1202.128881 408.824692 
L 1206.397485 408.824692 
L 1207.007286 402.180547 
L 1208.836687 402.180547 
L 1209.446488 409.702835 
L 1211.275889 409.702835 
L 1211.88569 422.627402 
L 1213.715091 422.627402 
L 1214.324892 426.451455 
L 1216.154293 426.451455 
L 1216.764094 425.677677 
L 1218.593495 425.677677 
L 1219.203296 424.174189 
L 1221.032698 424.174189 
L 1221.642498 427.432999 
L 1223.4719 427.432999 
L 1224.0817 415.50236 
L 1225.911102 415.50236 
L 1226.520902 386.211493 
L 1228.350304 386.211493 
L 1228.960104 368.945106 
L 1230.789506 368.945106 
L 1231.399306 346.238157 
L 1233.228708 346.238157 
L 1233.838509 323.38414 
L 1235.66791 323.38414 
L 1236.277711 301.737203 
L 1238.107112 301.737203 
L 1238.716913 290.432483 
L 1240.546314 290.432483 
L 1241.156115 274.605889 
L 1242.985516 274.605889 
L 1243.595317 253.277932 
L 1245.424718 253.277932 
L 1246.034519 242.743923 
L 1247.863921 242.743923 
L 1248.473721 227.11125 
L 1250.303123 227.11125 
L 1250.912923 232.526433 
L 1252.742325 232.526433 
L 1253.352125 223.2 
L 1255.181527 223.2 
L 1255.791327 238.268956 
L 1257.620729 238.268956 
L 1258.230529 238.693825 
L 1260.059931 238.693825 
L 1260.669731 239.045546 
L 1262.499133 239.045546 
L 1263.108934 234.546433 
L 1264.938335 234.546433 
L 1265.548136 234.702585 
L 1267.377537 234.702585 
L 1267.987338 234.987698 
L 1269.816739 234.987698 
L 1270.42654 249.644271 
L 1272.255941 249.644271 
L 1272.865742 259.176644 
L 1274.695143 259.176644 
L 1275.304944 263.839956 
L 1277.134346 263.839956 
L 1277.744146 259.168977 
L 1279.573548 259.168977 
L 1280.183348 254.309695 
L 1282.01275 254.309695 
L 1282.62255 244.799041 
L 1284.451952 244.799041 
L 1285.061752 235.397005 
L 1289.330356 235.378137 
L 1289.940156 240.109758 
L 1291.769558 240.109758 
L 1292.379359 235.537338 
L 1294.20876 235.537338 
L 1294.818561 230.991951 
L 1296.647962 230.991951 
L 1297.257763 231.156995 
L 1299.087164 231.156995 
L 1299.696965 249.657285 
L 1301.526366 249.657285 
L 1302.136167 254.411609 
L 1303.965568 254.411609 
L 1304.575369 241.659377 
L 1306.404771 241.659377 
L 1307.014571 246.485911 
L 1308.843973 246.485911 
L 1309.453773 251.690925 
L 1311.283175 251.690925 
L 1311.892975 247.228325 
L 1313.722377 247.228325 
L 1314.332177 247.642382 
L 1316.161579 247.642382 
L 1316.771379 253.482336 
L 1318.600781 253.482336 
L 1319.210582 255.076118 
L 1323.479185 255.079159 
L 1324.088986 241.983492 
L 1325.918387 241.983492 
L 1326.528188 233.286479 
L 1328.357589 233.286479 
L 1328.96739 228.942299 
L 1330.796791 228.942299 
L 1330.796791 228.942299 
" clip-path="url(#pa774ab9c80)" style="fill: none; stroke: #0000ff; stroke-width: 1.5; stroke-linecap: square"/>
   </g>
   <g id="patch_9">
    <path d="M 860.823529 1281.6 
L 860.823529 172.8 
" style="fill: none; stroke: #000000; stroke-width: 0.8; stroke-linejoin: miter; stroke-linecap: square"/>
   </g>
   <g id="patch_10">
    <path d="M 1353.176471 1281.6 
L 1353.176471 172.8 
" style="fill: none; stroke: #000000; stroke-width: 0.8; stroke-linejoin: miter; stroke-linecap: square"/>
   </g>
   <g id="patch_11">
    <path d="M 860.823529 1281.6 
L 1353.176471 1281.6 
" style="fill: none; stroke: #000000; stroke-width: 0.8; stroke-linejoin: miter; stroke-linecap: square"/>
   </g>
   <g id="patch_12">
    <path d="M 860.823529 172.8 
L 1353.176471 172.8 
" style="fill: none; stroke: #000000; stroke-width: 0.8; stroke-linejoin: miter; stroke-linecap: square"/>
   </g>
   <g id="legend_2">
    <g id="patch_13">
     <path d="M 1262.134283 195.478125 
L 1346.176471 195.478125 
Q 1348.176471 195.478125 1348.176471 193.478125 
L 1348.176471 179.8 
Q 1348.176471 177.8 1346.176471 177.8 
L 1262.134283 177.8 
Q 1260.134283 177.8 1260.134283 179.8 
L 1260.134283 193.478125 
Q 1260.134283 195.478125 1262.134283 195.478125 
z
" style="fill: #ffffff; opacity: 0.8; stroke: #cccccc; stroke-linejoin: miter"/>
    </g>
    <g id="line2d_33">
     <path d="M 1264.134283 185.898437 
L 1274.134283 185.898437 
L 1284.134283 185.898437 
" style="fill: none; stroke: #0000ff; stroke-width: 1.5; stroke-linecap: square"/>
    </g>
    <g id="text_31">
     <!-- O2 reward -->
     <g transform="translate(1292.134283 189.398437) scale(0.1 -0.1)">
      <use xlink:href="#DejaVuSans-4f"/>
      <use xlink:href="#DejaVuSans-32" x="78.710938"/>
      <use xlink:href="#DejaVuSans-20" x="142.333984"/>
      <use xlink:href="#DejaVuSans-72" x="174.121094"/>
      <use xlink:href="#DejaVuSans-65" x="212.984375"/>
      <use xlink:href="#DejaVuSans-77" x="274.507812"/>
      <use xlink:href="#DejaVuSans-61" x="356.294922"/>
      <use xlink:href="#DejaVuSans-72" x="417.574219"/>
      <use xlink:href="#DejaVuSans-64" x="456.9375"/>
     </g>
    </g>
   </g>
  </g>
  <g id="axes_3">
   <g id="patch_14">
    <path d="M 1451.647059 1281.6 
L 1944 1281.6 
L 1944 172.8 
L 1451.647059 172.8 
z
" style="fill: #ffffff"/>
   </g>
   <g id="matplotlib.axis_5">
    <g id="xtick_17">
     <g id="line2d_34">
      <g>
       <use xlink:href="#m573cc519e5" x="1473.416937" y="1281.6" style="stroke: #000000; stroke-width: 0.8"/>
      </g>
     </g>
     <g id="text_32">
      <!-- 0 -->
      <g transform="translate(1470.235687 1296.198437) scale(0.1 -0.1)">
       <use xlink:href="#DejaVuSans-30"/>
      </g>
     </g>
    </g>
    <g id="xtick_18">
     <g id="line2d_35">
      <g>
       <use xlink:href="#m573cc519e5" x="1534.39699" y="1281.6" style="stroke: #000000; stroke-width: 0.8"/>
      </g>
     </g>
     <g id="text_33">
      <!-- 100 -->
      <g transform="translate(1524.85324 1296.198437) scale(0.1 -0.1)">
       <use xlink:href="#DejaVuSans-31"/>
       <use xlink:href="#DejaVuSans-30" x="63.623047"/>
       <use xlink:href="#DejaVuSans-30" x="127.246094"/>
      </g>
     </g>
    </g>
    <g id="xtick_19">
     <g id="line2d_36">
      <g>
       <use xlink:href="#m573cc519e5" x="1595.377042" y="1281.6" style="stroke: #000000; stroke-width: 0.8"/>
      </g>
     </g>
     <g id="text_34">
      <!-- 200 -->
      <g transform="translate(1585.833292 1296.198437) scale(0.1 -0.1)">
       <use xlink:href="#DejaVuSans-32"/>
       <use xlink:href="#DejaVuSans-30" x="63.623047"/>
       <use xlink:href="#DejaVuSans-30" x="127.246094"/>
      </g>
     </g>
    </g>
    <g id="xtick_20">
     <g id="line2d_37">
      <g>
       <use xlink:href="#m573cc519e5" x="1656.357094" y="1281.6" style="stroke: #000000; stroke-width: 0.8"/>
      </g>
     </g>
     <g id="text_35">
      <!-- 300 -->
      <g transform="translate(1646.813344 1296.198437) scale(0.1 -0.1)">
       <use xlink:href="#DejaVuSans-33"/>
       <use xlink:href="#DejaVuSans-30" x="63.623047"/>
       <use xlink:href="#DejaVuSans-30" x="127.246094"/>
      </g>
     </g>
    </g>
    <g id="xtick_21">
     <g id="line2d_38">
      <g>
       <use xlink:href="#m573cc519e5" x="1717.337146" y="1281.6" style="stroke: #000000; stroke-width: 0.8"/>
      </g>
     </g>
     <g id="text_36">
      <!-- 400 -->
      <g transform="translate(1707.793396 1296.198437) scale(0.1 -0.1)">
       <use xlink:href="#DejaVuSans-34"/>
       <use xlink:href="#DejaVuSans-30" x="63.623047"/>
       <use xlink:href="#DejaVuSans-30" x="127.246094"/>
      </g>
     </g>
    </g>
    <g id="xtick_22">
     <g id="line2d_39">
      <g>
       <use xlink:href="#m573cc519e5" x="1778.317198" y="1281.6" style="stroke: #000000; stroke-width: 0.8"/>
      </g>
     </g>
     <g id="text_37">
      <!-- 500 -->
      <g transform="translate(1768.773448 1296.198437) scale(0.1 -0.1)">
       <use xlink:href="#DejaVuSans-35"/>
       <use xlink:href="#DejaVuSans-30" x="63.623047"/>
       <use xlink:href="#DejaVuSans-30" x="127.246094"/>
      </g>
     </g>
    </g>
    <g id="xtick_23">
     <g id="line2d_40">
      <g>
       <use xlink:href="#m573cc519e5" x="1839.29725" y="1281.6" style="stroke: #000000; stroke-width: 0.8"/>
      </g>
     </g>
     <g id="text_38">
      <!-- 600 -->
      <g transform="translate(1829.7535 1296.198437) scale(0.1 -0.1)">
       <use xlink:href="#DejaVuSans-36"/>
       <use xlink:href="#DejaVuSans-30" x="63.623047"/>
       <use xlink:href="#DejaVuSans-30" x="127.246094"/>
      </g>
     </g>
    </g>
    <g id="xtick_24">
     <g id="line2d_41">
      <g>
       <use xlink:href="#m573cc519e5" x="1900.277303" y="1281.6" style="stroke: #000000; stroke-width: 0.8"/>
      </g>
     </g>
     <g id="text_39">
      <!-- 700 -->
      <g transform="translate(1890.733553 1296.198437) scale(0.1 -0.1)">
       <use xlink:href="#DejaVuSans-37"/>
       <use xlink:href="#DejaVuSans-30" x="63.623047"/>
       <use xlink:href="#DejaVuSans-30" x="127.246094"/>
      </g>
     </g>
    </g>
   </g>
   <g id="matplotlib.axis_6">
    <g id="ytick_14">
     <g id="line2d_42">
      <g>
       <use xlink:href="#mfc0dade64c" x="1451.647059" y="1231.2" style="stroke: #000000; stroke-width: 0.8"/>
      </g>
     </g>
     <g id="text_40">
      <!-- 0.0 -->
      <g transform="translate(1428.743934 1234.999219) scale(0.1 -0.1)">
       <defs>
        <path id="DejaVuSans-2e" d="M 684 794 
L 1344 794 
L 1344 0 
L 684 0 
L 684 794 
z
" transform="scale(0.015625)"/>
       </defs>
       <use xlink:href="#DejaVuSans-30"/>
       <use xlink:href="#DejaVuSans-2e" x="63.623047"/>
       <use xlink:href="#DejaVuSans-30" x="95.410156"/>
      </g>
     </g>
    </g>
    <g id="ytick_15">
     <g id="line2d_43">
      <g>
       <use xlink:href="#mfc0dade64c" x="1451.647059" y="1087.408516" style="stroke: #000000; stroke-width: 0.8"/>
      </g>
     </g>
     <g id="text_41">
      <!-- 2.5 -->
      <g transform="translate(1428.743934 1091.207735) scale(0.1 -0.1)">
       <use xlink:href="#DejaVuSans-32"/>
       <use xlink:href="#DejaVuSans-2e" x="63.623047"/>
       <use xlink:href="#DejaVuSans-35" x="95.410156"/>
      </g>
     </g>
    </g>
    <g id="ytick_16">
     <g id="line2d_44">
      <g>
       <use xlink:href="#mfc0dade64c" x="1451.647059" y="943.617032" style="stroke: #000000; stroke-width: 0.8"/>
      </g>
     </g>
     <g id="text_42">
      <!-- 5.0 -->
      <g transform="translate(1428.743934 947.416251) scale(0.1 -0.1)">
       <use xlink:href="#DejaVuSans-35"/>
       <use xlink:href="#DejaVuSans-2e" x="63.623047"/>
       <use xlink:href="#DejaVuSans-30" x="95.410156"/>
      </g>
     </g>
    </g>
    <g id="ytick_17">
     <g id="line2d_45">
      <g>
       <use xlink:href="#mfc0dade64c" x="1451.647059" y="799.825549" style="stroke: #000000; stroke-width: 0.8"/>
      </g>
     </g>
     <g id="text_43">
      <!-- 7.5 -->
      <g transform="translate(1428.743934 803.624767) scale(0.1 -0.1)">
       <use xlink:href="#DejaVuSans-37"/>
       <use xlink:href="#DejaVuSans-2e" x="63.623047"/>
       <use xlink:href="#DejaVuSans-35" x="95.410156"/>
      </g>
     </g>
    </g>
    <g id="ytick_18">
     <g id="line2d_46">
      <g>
       <use xlink:href="#mfc0dade64c" x="1451.647059" y="656.034065" style="stroke: #000000; stroke-width: 0.8"/>
      </g>
     </g>
     <g id="text_44">
      <!-- 10.0 -->
      <g transform="translate(1422.381434 659.833284) scale(0.1 -0.1)">
       <use xlink:href="#DejaVuSans-31"/>
       <use xlink:href="#DejaVuSans-30" x="63.623047"/>
       <use xlink:href="#DejaVuSans-2e" x="127.246094"/>
       <use xlink:href="#DejaVuSans-30" x="159.033203"/>
      </g>
     </g>
    </g>
    <g id="ytick_19">
     <g id="line2d_47">
      <g>
       <use xlink:href="#mfc0dade64c" x="1451.647059" y="512.242581" style="stroke: #000000; stroke-width: 0.8"/>
      </g>
     </g>
     <g id="text_45">
      <!-- 12.5 -->
      <g transform="translate(1422.381434 516.0418) scale(0.1 -0.1)">
       <use xlink:href="#DejaVuSans-31"/>
       <use xlink:href="#DejaVuSans-32" x="63.623047"/>
       <use xlink:href="#DejaVuSans-2e" x="127.246094"/>
       <use xlink:href="#DejaVuSans-35" x="159.033203"/>
      </g>
     </g>
    </g>
    <g id="ytick_20">
     <g id="line2d_48">
      <g>
       <use xlink:href="#mfc0dade64c" x="1451.647059" y="368.451097" style="stroke: #000000; stroke-width: 0.8"/>
      </g>
     </g>
     <g id="text_46">
      <!-- 15.0 -->
      <g transform="translate(1422.381434 372.250316) scale(0.1 -0.1)">
       <use xlink:href="#DejaVuSans-31"/>
       <use xlink:href="#DejaVuSans-35" x="63.623047"/>
       <use xlink:href="#DejaVuSans-2e" x="127.246094"/>
       <use xlink:href="#DejaVuSans-30" x="159.033203"/>
      </g>
     </g>
    </g>
    <g id="ytick_21">
     <g id="line2d_49">
      <g>
       <use xlink:href="#mfc0dade64c" x="1451.647059" y="224.659613" style="stroke: #000000; stroke-width: 0.8"/>
      </g>
     </g>
     <g id="text_47">
      <!-- 17.5 -->
      <g transform="translate(1422.381434 228.458832) scale(0.1 -0.1)">
       <use xlink:href="#DejaVuSans-31"/>
       <use xlink:href="#DejaVuSans-37" x="63.623047"/>
       <use xlink:href="#DejaVuSans-2e" x="127.246094"/>
       <use xlink:href="#DejaVuSans-35" x="159.033203"/>
      </g>
     </g>
    </g>
   </g>
   <g id="line2d_50">
    <path d="M 1474.026738 1231.2 
L 1499.63836 1231.2 
L 1500.24816 1208.768368 
L 1502.077562 1208.768368 
L 1502.687362 1190.843885 
L 1504.516764 1190.843885 
L 1505.126565 1175.597423 
L 1506.955966 1175.597423 
L 1507.565767 1153.001618 
L 1509.395168 1153.001618 
L 1510.004969 1145.403286 
L 1511.83437 1145.403286 
L 1512.444171 1115.821941 
L 1514.273572 1115.821941 
L 1514.883373 1124.416508 
L 1516.712774 1124.416508 
L 1517.322575 1107.581769 
L 1519.151977 1107.581769 
L 1519.761777 1090.982995 
L 1521.591179 1090.982995 
L 1522.200979 1079.723239 
L 1524.030381 1079.723239 
L 1524.640181 1060.653316 
L 1526.469583 1060.653316 
L 1527.079383 1042.752579 
L 1528.908785 1042.752579 
L 1529.518585 1031.659957 
L 1533.787189 1031.659957 
L 1534.39699 1026.777083 
L 1536.226391 1026.777083 
L 1536.836192 1016.084896 
L 1538.665593 1016.084896 
L 1539.275394 1010.130339 
L 1543.543997 1010.130339 
L 1544.153798 1005.685187 
L 1545.9832 1005.685187 
L 1546.593 995.946927 
L 1550.861604 995.946927 
L 1551.471404 991.867541 
L 1553.300806 991.867541 
L 1553.910606 974.670242 
L 1555.740008 974.670242 
L 1556.349808 950.539099 
L 1558.17921 950.539099 
L 1558.78901 933.633713 
L 1560.618412 933.633713 
L 1561.228213 922.384556 
L 1563.057614 922.384556 
L 1563.667415 891.005223 
L 1565.496816 891.005223 
L 1566.106617 875.393305 
L 1567.936018 875.393305 
L 1568.545819 870.492275 
L 1570.37522 870.492275 
L 1570.985021 855.206818 
L 1572.814422 855.206818 
L 1573.424223 845.026633 
L 1575.253625 845.026633 
L 1575.863425 836.33965 
L 1577.692827 836.33965 
L 1578.302627 821.153689 
L 1580.132029 821.153689 
L 1580.741829 814.965604 
L 1582.571231 814.965604 
L 1583.181031 801.130995 
L 1587.449635 801.031901 
L 1588.059436 804.944614 
L 1589.888837 804.944614 
L 1590.498638 807.368442 
L 1592.328039 807.368442 
L 1592.93784 801.691974 
L 1594.767241 801.691974 
L 1595.377042 804.073895 
L 1597.206443 804.073895 
L 1597.816244 800.738794 
L 1599.645645 800.738794 
L 1600.255446 804.483839 
L 1602.084848 804.483839 
L 1602.694648 800.971788 
L 1606.963252 800.971788 
L 1607.573052 797.392736 
L 1609.402454 797.392736 
L 1610.012254 786.827624 
L 1611.841656 786.827624 
L 1612.451456 777.665283 
L 1614.280858 777.665283 
L 1614.890658 783.255131 
L 1616.72006 783.255131 
L 1617.329861 785.493372 
L 1624.037666 785.493372 
L 1624.647467 775.068084 
L 1626.476868 775.068084 
L 1627.086669 755.45415 
L 1628.91607 755.45415 
L 1629.525871 745.942691 
L 1631.355273 745.942691 
L 1631.965073 739.223153 
L 1633.794475 739.223153 
L 1634.404275 734.818112 
L 1636.233677 734.818112 
L 1636.843477 724.298335 
L 1638.672879 724.298335 
L 1639.282679 717.240438 
L 1641.112081 717.240438 
L 1641.721881 711.762823 
L 1643.551283 711.762823 
L 1644.161084 700.550067 
L 1645.990485 700.550067 
L 1646.600286 693.90994 
L 1648.429687 693.90994 
L 1649.039488 684.748989 
L 1650.868889 684.748989 
L 1651.47869 682.23313 
L 1653.308091 682.23313 
L 1653.917892 671.899685 
L 1655.747293 671.899685 
L 1656.357094 663.337547 
L 1658.186496 663.337547 
L 1658.796296 654.926436 
L 1660.625698 654.926436 
L 1661.235498 646.850102 
L 1665.504102 646.850102 
L 1666.113902 641.235387 
L 1667.943304 641.235387 
L 1668.553104 636.360388 
L 1670.382506 636.360388 
L 1670.992306 638.646081 
L 1672.821708 638.646081 
L 1673.431509 634.328549 
L 1675.26091 634.328549 
L 1675.870711 626.826081 
L 1677.700112 626.826081 
L 1678.309913 621.442754 
L 1680.139314 621.442754 
L 1680.749115 616.014529 
L 1682.578516 616.014529 
L 1683.188317 608.830261 
L 1685.017718 608.830261 
L 1685.627519 593.528971 
L 1687.456921 593.528971 
L 1688.066721 591.817173 
L 1689.896123 591.817173 
L 1690.505923 589.422852 
L 1692.335325 589.422852 
L 1692.945125 580.025574 
L 1694.774527 580.025574 
L 1695.384327 573.303972 
L 1697.213729 573.303972 
L 1697.823529 568.671256 
L 1699.652931 568.671256 
L 1700.262731 560.348571 
L 1702.092133 560.348571 
L 1702.701934 550.865127 
L 1704.531335 550.865127 
L 1705.141136 545.821743 
L 1706.970537 545.821743 
L 1707.580338 544.89584 
L 1709.409739 544.89584 
L 1710.01954 542.209416 
L 1711.848941 542.209416 
L 1712.458742 538.599984 
L 1714.288143 538.599984 
L 1714.897944 533.315657 
L 1716.727346 533.315657 
L 1717.337146 531.589936 
L 1719.166548 531.589936 
L 1719.776348 524.143217 
L 1721.60575 524.143217 
L 1722.21555 521.595591 
L 1724.044952 521.595591 
L 1724.654752 517.728524 
L 1726.484154 517.728524 
L 1727.093954 513.881367 
L 1728.923356 513.881367 
L 1729.533157 509.631211 
L 1733.80176 509.631211 
L 1734.411561 507.109599 
L 1736.240962 507.109599 
L 1736.850763 505.848034 
L 1738.680164 505.848034 
L 1739.289965 500.420861 
L 1743.558569 500.420861 
L 1744.168369 501.671075 
L 1745.997771 501.671075 
L 1746.607571 502.092988 
L 1748.436973 502.092988 
L 1749.046773 499.685892 
L 1750.876175 499.685892 
L 1751.485975 491.941459 
L 1753.315377 491.941459 
L 1753.925177 488.824127 
L 1755.754579 488.824127 
L 1756.364379 489.544464 
L 1758.193781 489.544464 
L 1758.803582 481.958148 
L 1760.632983 481.958148 
L 1761.242784 475.771825 
L 1763.072185 475.771825 
L 1763.681986 474.76775 
L 1765.511387 474.76775 
L 1766.121188 471.874768 
L 1767.950589 471.874768 
L 1768.56039 467.764942 
L 1770.389791 467.764942 
L 1770.999592 467.131843 
L 1772.828994 467.131843 
L 1773.438794 462.806033 
L 1775.268196 462.806033 
L 1775.877996 459.429535 
L 1777.707398 459.429535 
L 1778.317198 453.888751 
L 1780.1466 453.888751 
L 1780.7564 450.609772 
L 1782.585802 450.609772 
L 1783.195602 446.23401 
L 1785.025004 446.23401 
L 1785.634805 442.216915 
L 1787.464206 442.216915 
L 1788.074007 439.065071 
L 1789.903408 439.065071 
L 1790.513209 438.531445 
L 1792.34261 438.531445 
L 1792.952411 434.623409 
L 1794.781812 434.623409 
L 1795.391613 429.207296 
L 1797.221014 429.207296 
L 1797.830815 424.474988 
L 1799.660217 424.474988 
L 1800.270017 417.94955 
L 1802.099419 417.94955 
L 1802.709219 412.049355 
L 1804.538621 412.049355 
L 1805.148421 398.143515 
L 1806.977823 398.143515 
L 1807.587623 388.327478 
L 1809.417025 388.327478 
L 1810.026825 381.066114 
L 1811.856227 381.066114 
L 1812.466027 376.517705 
L 1814.295429 376.517705 
L 1814.90523 370.051082 
L 1816.734631 370.051082 
L 1817.344432 365.40988 
L 1819.173833 365.40988 
L 1819.783634 354.635149 
L 1821.613035 354.635149 
L 1822.222836 348.678212 
L 1824.052237 348.678212 
L 1824.662038 342.659208 
L 1826.491439 342.659208 
L 1827.10124 337.84023 
L 1828.930642 337.84023 
L 1829.540442 331.952268 
L 1831.369844 331.952268 
L 1831.979644 326.364912 
L 1833.809046 326.364912 
L 1834.418846 320.179758 
L 1836.248248 320.179758 
L 1836.858048 313.776452 
L 1838.68745 313.776452 
L 1839.29725 311.759175 
L 1841.126652 311.759175 
L 1841.736453 308.040258 
L 1843.565854 308.040258 
L 1844.175655 306.711737 
L 1846.005056 306.711737 
L 1846.614857 305.113535 
L 1848.444258 305.113535 
L 1849.054059 302.478203 
L 1850.88346 302.478203 
L 1851.493261 298.301828 
L 1853.322662 298.301828 
L 1853.932463 296.737037 
L 1855.761865 296.737037 
L 1856.371665 294.156809 
L 1858.201067 294.156809 
L 1858.810867 291.855839 
L 1863.079471 291.855839 
L 1863.689271 291.60287 
L 1865.518673 291.60287 
L 1866.128473 289.812443 
L 1867.957875 289.812443 
L 1868.567675 289.040133 
L 1870.397077 289.040133 
L 1871.006878 287.274908 
L 1872.836279 287.274908 
L 1873.44608 286.022073 
L 1875.275481 286.022073 
L 1875.885282 283.170646 
L 1877.714683 283.170646 
L 1878.324484 278.430606 
L 1880.153885 278.430606 
L 1880.763686 277.427422 
L 1882.593087 277.427422 
L 1883.202888 272.419606 
L 1885.03229 272.419606 
L 1885.64209 269.229407 
L 1887.471492 269.229407 
L 1888.081292 267.247045 
L 1889.910694 267.247045 
L 1890.520494 263.886333 
L 1892.349896 263.886333 
L 1892.959696 259.173152 
L 1894.789098 259.173152 
L 1895.398898 255.491985 
L 1897.2283 255.491985 
L 1897.838101 249.906828 
L 1899.667502 249.906828 
L 1900.277303 247.61547 
L 1902.106704 247.61547 
L 1902.716505 245.156306 
L 1904.545906 245.156306 
L 1905.155707 239.593766 
L 1906.985108 239.593766 
L 1907.594909 238.475388 
L 1909.42431 238.475388 
L 1910.034111 237.199926 
L 1911.863513 237.199926 
L 1912.473313 234.02022 
L 1914.302715 234.02022 
L 1914.912515 231.341659 
L 1916.741917 231.341659 
L 1917.351717 227.36814 
L 1919.181119 227.36814 
L 1919.790919 223.2 
L 1921.620321 223.2 
L 1921.620321 223.2 
" clip-path="url(#p8ac3858582)" style="fill: none; stroke: #0000ff; stroke-width: 1.5; stroke-linecap: square"/>
   </g>
   <g id="patch_15">
    <path d="M 1451.647059 1281.6 
L 1451.647059 172.8 
" style="fill: none; stroke: #000000; stroke-width: 0.8; stroke-linejoin: miter; stroke-linecap: square"/>
   </g>
   <g id="patch_16">
    <path d="M 1944 1281.6 
L 1944 172.8 
" style="fill: none; stroke: #000000; stroke-width: 0.8; stroke-linejoin: miter; stroke-linecap: square"/>
   </g>
   <g id="patch_17">
    <path d="M 1451.647059 1281.6 
L 1944 1281.6 
" style="fill: none; stroke: #000000; stroke-width: 0.8; stroke-linejoin: miter; stroke-linecap: square"/>
   </g>
   <g id="patch_18">
    <path d="M 1451.647059 172.8 
L 1944 172.8 
" style="fill: none; stroke: #000000; stroke-width: 0.8; stroke-linejoin: miter; stroke-linecap: square"/>
   </g>
   <g id="legend_3">
    <g id="patch_19">
     <path d="M 1852.957813 195.478125 
L 1937 195.478125 
Q 1939 195.478125 1939 193.478125 
L 1939 179.8 
Q 1939 177.8 1937 177.8 
L 1852.957813 177.8 
Q 1850.957813 177.8 1850.957813 179.8 
L 1850.957813 193.478125 
Q 1850.957813 195.478125 1852.957813 195.478125 
z
" style="fill: #ffffff; opacity: 0.8; stroke: #cccccc; stroke-linejoin: miter"/>
    </g>
    <g id="line2d_51">
     <path d="M 1854.957813 185.898437 
L 1864.957813 185.898437 
L 1874.957813 185.898437 
" style="fill: none; stroke: #0000ff; stroke-width: 1.5; stroke-linecap: square"/>
    </g>
    <g id="text_48">
     <!-- O3 reward -->
     <g transform="translate(1882.957813 189.398437) scale(0.1 -0.1)">
      <use xlink:href="#DejaVuSans-4f"/>
      <use xlink:href="#DejaVuSans-33" x="78.710938"/>
      <use xlink:href="#DejaVuSans-20" x="142.333984"/>
      <use xlink:href="#DejaVuSans-72" x="174.121094"/>
      <use xlink:href="#DejaVuSans-65" x="212.984375"/>
      <use xlink:href="#DejaVuSans-77" x="274.507812"/>
      <use xlink:href="#DejaVuSans-61" x="356.294922"/>
      <use xlink:href="#DejaVuSans-72" x="417.574219"/>
      <use xlink:href="#DejaVuSans-64" x="456.9375"/>
     </g>
    </g>
   </g>
  </g>
 </g>
 <defs>
  <clipPath id="pce06b4e9a3">
   <rect x="270" y="172.8" width="492.352941" height="1108.8"/>
  </clipPath>
  <clipPath id="pa774ab9c80">
   <rect x="860.823529" y="172.8" width="492.352941" height="1108.8"/>
  </clipPath>
  <clipPath id="p8ac3858582">
   <rect x="1451.647059" y="172.8" width="492.352941" height="1108.8"/>
  </clipPath>
 </defs>
</svg>
