<?xml version="1.0" encoding="utf-8" standalone="no"?>
<!DOCTYPE svg PUBLIC "-//W3C//DTD SVG 1.1//EN"
  "http://www.w3.org/Graphics/SVG/1.1/DTD/svg11.dtd">
<svg xmlns:xlink="http://www.w3.org/1999/xlink" width="2160pt" height="1440pt" viewBox="0 0 2160 1440" xmlns="http://www.w3.org/2000/svg" version="1.1">
 <metadata>
  <rdf:RDF xmlns:dc="http://purl.org/dc/elements/1.1/" xmlns:cc="http://creativecommons.org/ns#" xmlns:rdf="http://www.w3.org/1999/02/22-rdf-syntax-ns#">
   <cc:Work>
    <dc:type rdf:resource="http://purl.org/dc/dcmitype/StillImage"/>
    <dc:date>2023-05-31T19:31:50.536815</dc:date>
    <dc:format>image/svg+xml</dc:format>
    <dc:creator>
     <cc:Agent>
      <dc:title>Matplotlib v3.7.1, https://matplotlib.org/</dc:title>
     </cc:Agent>
    </dc:creator>
   </cc:Work>
  </rdf:RDF>
 </metadata>
 <defs>
  <style type="text/css">*{stroke-linejoin: round; stroke-linecap: butt}</style>
 </defs>
 <g id="figure_1">
  <g id="patch_1">
   <path d="M 0 1440 
L 2160 1440 
L 2160 0 
L 0 0 
z
" style="fill: #ffffff"/>
  </g>
  <g id="axes_1">
   <g id="patch_2">
    <path d="M 270 1281.6 
L 762.352941 1281.6 
L 762.352941 172.8 
L 270 172.8 
z
" style="fill: #ffffff"/>
   </g>
   <g id="matplotlib.axis_1">
    <g id="xtick_1">
     <g id="line2d_1">
      <defs>
       <path id="mf9e691014c" d="M 0 0 
L 0 3.5 
" style="stroke: #000000; stroke-width: 0.8"/>
      </defs>
      <g>
       <use xlink:href="#mf9e691014c" x="291.842996" y="1281.6" style="stroke: #000000; stroke-width: 0.8"/>
      </g>
     </g>
     <g id="text_1">
      <!-- 0 -->
      <g transform="translate(288.661746 1296.198437) scale(0.1 -0.1)">
       <defs>
        <path id="DejaVuSans-30" d="M 2034 4250 
Q 1547 4250 1301 3770 
Q 1056 3291 1056 2328 
Q 1056 1369 1301 889 
Q 1547 409 2034 409 
Q 2525 409 2770 889 
Q 3016 1369 3016 2328 
Q 3016 3291 2770 3770 
Q 2525 4250 2034 4250 
z
M 2034 4750 
Q 2819 4750 3233 4129 
Q 3647 3509 3647 2328 
Q 3647 1150 3233 529 
Q 2819 -91 2034 -91 
Q 1250 -91 836 529 
Q 422 1150 422 2328 
Q 422 3509 836 4129 
Q 1250 4750 2034 4750 
z
" transform="scale(0.015625)"/>
       </defs>
       <use xlink:href="#DejaVuSans-30"/>
      </g>
     </g>
    </g>
    <g id="xtick_2">
     <g id="line2d_2">
      <g>
       <use xlink:href="#mf9e691014c" x="399.179587" y="1281.6" style="stroke: #000000; stroke-width: 0.8"/>
      </g>
     </g>
     <g id="text_2">
      <!-- 200 -->
      <g transform="translate(389.635837 1296.198437) scale(0.1 -0.1)">
       <defs>
        <path id="DejaVuSans-32" d="M 1228 531 
L 3431 531 
L 3431 0 
L 469 0 
L 469 531 
Q 828 903 1448 1529 
Q 2069 2156 2228 2338 
Q 2531 2678 2651 2914 
Q 2772 3150 2772 3378 
Q 2772 3750 2511 3984 
Q 2250 4219 1831 4219 
Q 1534 4219 1204 4116 
Q 875 4013 500 3803 
L 500 4441 
Q 881 4594 1212 4672 
Q 1544 4750 1819 4750 
Q 2544 4750 2975 4387 
Q 3406 4025 3406 3419 
Q 3406 3131 3298 2873 
Q 3191 2616 2906 2266 
Q 2828 2175 2409 1742 
Q 1991 1309 1228 531 
z
" transform="scale(0.015625)"/>
       </defs>
       <use xlink:href="#DejaVuSans-32"/>
       <use xlink:href="#DejaVuSans-30" x="63.623047"/>
       <use xlink:href="#DejaVuSans-30" x="127.246094"/>
      </g>
     </g>
    </g>
    <g id="xtick_3">
     <g id="line2d_3">
      <g>
       <use xlink:href="#mf9e691014c" x="506.516177" y="1281.6" style="stroke: #000000; stroke-width: 0.8"/>
      </g>
     </g>
     <g id="text_3">
      <!-- 400 -->
      <g transform="translate(496.972427 1296.198437) scale(0.1 -0.1)">
       <defs>
        <path id="DejaVuSans-34" d="M 2419 4116 
L 825 1625 
L 2419 1625 
L 2419 4116 
z
M 2253 4666 
L 3047 4666 
L 3047 1625 
L 3713 1625 
L 3713 1100 
L 3047 1100 
L 3047 0 
L 2419 0 
L 2419 1100 
L 313 1100 
L 313 1709 
L 2253 4666 
z
" transform="scale(0.015625)"/>
       </defs>
       <use xlink:href="#DejaVuSans-34"/>
       <use xlink:href="#DejaVuSans-30" x="63.623047"/>
       <use xlink:href="#DejaVuSans-30" x="127.246094"/>
      </g>
     </g>
    </g>
    <g id="xtick_4">
     <g id="line2d_4">
      <g>
       <use xlink:href="#mf9e691014c" x="613.852768" y="1281.6" style="stroke: #000000; stroke-width: 0.8"/>
      </g>
     </g>
     <g id="text_4">
      <!-- 600 -->
      <g transform="translate(604.309018 1296.198437) scale(0.1 -0.1)">
       <defs>
        <path id="DejaVuSans-36" d="M 2113 2584 
Q 1688 2584 1439 2293 
Q 1191 2003 1191 1497 
Q 1191 994 1439 701 
Q 1688 409 2113 409 
Q 2538 409 2786 701 
Q 3034 994 3034 1497 
Q 3034 2003 2786 2293 
Q 2538 2584 2113 2584 
z
M 3366 4563 
L 3366 3988 
Q 3128 4100 2886 4159 
Q 2644 4219 2406 4219 
Q 1781 4219 1451 3797 
Q 1122 3375 1075 2522 
Q 1259 2794 1537 2939 
Q 1816 3084 2150 3084 
Q 2853 3084 3261 2657 
Q 3669 2231 3669 1497 
Q 3669 778 3244 343 
Q 2819 -91 2113 -91 
Q 1303 -91 875 529 
Q 447 1150 447 2328 
Q 447 3434 972 4092 
Q 1497 4750 2381 4750 
Q 2619 4750 2861 4703 
Q 3103 4656 3366 4563 
z
" transform="scale(0.015625)"/>
       </defs>
       <use xlink:href="#DejaVuSans-36"/>
       <use xlink:href="#DejaVuSans-30" x="63.623047"/>
       <use xlink:href="#DejaVuSans-30" x="127.246094"/>
      </g>
     </g>
    </g>
    <g id="xtick_5">
     <g id="line2d_5">
      <g>
       <use xlink:href="#mf9e691014c" x="721.189359" y="1281.6" style="stroke: #000000; stroke-width: 0.8"/>
      </g>
     </g>
     <g id="text_5">
      <!-- 800 -->
      <g transform="translate(711.645609 1296.198437) scale(0.1 -0.1)">
       <defs>
        <path id="DejaVuSans-38" d="M 2034 2216 
Q 1584 2216 1326 1975 
Q 1069 1734 1069 1313 
Q 1069 891 1326 650 
Q 1584 409 2034 409 
Q 2484 409 2743 651 
Q 3003 894 3003 1313 
Q 3003 1734 2745 1975 
Q 2488 2216 2034 2216 
z
M 1403 2484 
Q 997 2584 770 2862 
Q 544 3141 544 3541 
Q 544 4100 942 4425 
Q 1341 4750 2034 4750 
Q 2731 4750 3128 4425 
Q 3525 4100 3525 3541 
Q 3525 3141 3298 2862 
Q 3072 2584 2669 2484 
Q 3125 2378 3379 2068 
Q 3634 1759 3634 1313 
Q 3634 634 3220 271 
Q 2806 -91 2034 -91 
Q 1263 -91 848 271 
Q 434 634 434 1313 
Q 434 1759 690 2068 
Q 947 2378 1403 2484 
z
M 1172 3481 
Q 1172 3119 1398 2916 
Q 1625 2713 2034 2713 
Q 2441 2713 2670 2916 
Q 2900 3119 2900 3481 
Q 2900 3844 2670 4047 
Q 2441 4250 2034 4250 
Q 1625 4250 1398 4047 
Q 1172 3844 1172 3481 
z
" transform="scale(0.015625)"/>
       </defs>
       <use xlink:href="#DejaVuSans-38"/>
       <use xlink:href="#DejaVuSans-30" x="63.623047"/>
       <use xlink:href="#DejaVuSans-30" x="127.246094"/>
      </g>
     </g>
    </g>
   </g>
   <g id="matplotlib.axis_2">
    <g id="ytick_1">
     <g id="line2d_6">
      <defs>
       <path id="m9c46fa2399" d="M 0 0 
L -3.5 0 
" style="stroke: #000000; stroke-width: 0.8"/>
      </defs>
      <g>
       <use xlink:href="#m9c46fa2399" x="270" y="1162.319111" style="stroke: #000000; stroke-width: 0.8"/>
      </g>
     </g>
     <g id="text_6">
      <!-- −10 -->
      <g transform="translate(241.895312 1166.11833) scale(0.1 -0.1)">
       <defs>
        <path id="DejaVuSans-2212" d="M 678 2272 
L 4684 2272 
L 4684 1741 
L 678 1741 
L 678 2272 
z
" transform="scale(0.015625)"/>
        <path id="DejaVuSans-31" d="M 794 531 
L 1825 531 
L 1825 4091 
L 703 3866 
L 703 4441 
L 1819 4666 
L 2450 4666 
L 2450 531 
L 3481 531 
L 3481 0 
L 794 0 
L 794 531 
z
" transform="scale(0.015625)"/>
       </defs>
       <use xlink:href="#DejaVuSans-2212"/>
       <use xlink:href="#DejaVuSans-31" x="83.789062"/>
       <use xlink:href="#DejaVuSans-30" x="147.412109"/>
      </g>
     </g>
    </g>
    <g id="ytick_2">
     <g id="line2d_7">
      <g>
       <use xlink:href="#m9c46fa2399" x="270" y="978.178109" style="stroke: #000000; stroke-width: 0.8"/>
      </g>
     </g>
     <g id="text_7">
      <!-- −8 -->
      <g transform="translate(248.257812 981.977328) scale(0.1 -0.1)">
       <use xlink:href="#DejaVuSans-2212"/>
       <use xlink:href="#DejaVuSans-38" x="83.789062"/>
      </g>
     </g>
    </g>
    <g id="ytick_3">
     <g id="line2d_8">
      <g>
       <use xlink:href="#m9c46fa2399" x="270" y="794.037107" style="stroke: #000000; stroke-width: 0.8"/>
      </g>
     </g>
     <g id="text_8">
      <!-- −6 -->
      <g transform="translate(248.257812 797.836325) scale(0.1 -0.1)">
       <use xlink:href="#DejaVuSans-2212"/>
       <use xlink:href="#DejaVuSans-36" x="83.789062"/>
      </g>
     </g>
    </g>
    <g id="ytick_4">
     <g id="line2d_9">
      <g>
       <use xlink:href="#m9c46fa2399" x="270" y="609.896104" style="stroke: #000000; stroke-width: 0.8"/>
      </g>
     </g>
     <g id="text_9">
      <!-- −4 -->
      <g transform="translate(248.257812 613.695323) scale(0.1 -0.1)">
       <use xlink:href="#DejaVuSans-2212"/>
       <use xlink:href="#DejaVuSans-34" x="83.789062"/>
      </g>
     </g>
    </g>
    <g id="ytick_5">
     <g id="line2d_10">
      <g>
       <use xlink:href="#m9c46fa2399" x="270" y="425.755102" style="stroke: #000000; stroke-width: 0.8"/>
      </g>
     </g>
     <g id="text_10">
      <!-- −2 -->
      <g transform="translate(248.257812 429.554321) scale(0.1 -0.1)">
       <use xlink:href="#DejaVuSans-2212"/>
       <use xlink:href="#DejaVuSans-32" x="83.789062"/>
      </g>
     </g>
    </g>
    <g id="ytick_6">
     <g id="line2d_11">
      <g>
       <use xlink:href="#m9c46fa2399" x="270" y="241.6141" style="stroke: #000000; stroke-width: 0.8"/>
      </g>
     </g>
     <g id="text_11">
      <!-- 0 -->
      <g transform="translate(256.6375 245.413319) scale(0.1 -0.1)">
       <use xlink:href="#DejaVuSans-30"/>
      </g>
     </g>
    </g>
   </g>
   <g id="line2d_12">
    <path d="M 292.379679 241.6141 
L 319.213827 241.6141 
L 319.75051 223.2 
L 321.360559 223.2 
L 321.897242 235.476067 
L 323.50729 235.476067 
L 324.043973 256.34538 
L 325.654022 256.34538 
L 326.190705 258.706162 
L 327.800754 258.706162 
L 328.337437 282.111631 
L 329.947486 282.111631 
L 330.484169 292.284853 
L 332.094218 292.284853 
L 332.630901 303.172555 
L 334.240949 303.172555 
L 334.777632 312.734325 
L 336.387681 312.734325 
L 336.924364 325.136735 
L 338.534413 325.136735 
L 339.071096 334.574379 
L 342.827877 334.574379 
L 343.36456 326.761342 
L 347.12134 326.761342 
L 347.658023 337.869443 
L 349.268072 337.869443 
L 349.804755 328.483378 
L 351.414804 328.483378 
L 351.951487 320.911513 
L 355.708268 320.911513 
L 356.244951 322.813024 
L 357.854999 322.813024 
L 358.391682 313.468377 
L 362.148463 313.468377 
L 362.685146 304.161156 
L 364.295195 304.161156 
L 364.831878 294.889581 
L 366.441927 294.889581 
L 366.97861 303.479153 
L 368.588658 303.479153 
L 369.125341 289.529077 
L 372.882122 289.529077 
L 373.418805 276.600658 
L 375.028854 276.600658 
L 375.565537 284.734672 
L 377.175586 284.734672 
L 377.712269 276.600658 
L 379.322318 276.600658 
L 379.859001 289.026067 
L 383.615781 289.026067 
L 384.152464 297.796524 
L 385.762513 297.796524 
L 386.299196 313.074142 
L 387.909245 313.074142 
L 388.445928 310.778047 
L 390.055977 310.778047 
L 390.59266 316.559473 
L 392.202708 316.559473 
L 392.739391 314.352496 
L 394.34944 314.352496 
L 394.886123 312.19475 
L 396.496172 312.19475 
L 397.032855 315.97887 
L 398.642904 315.97887 
L 399.179587 337.64528 
L 400.789636 337.64528 
L 401.326319 329.92295 
L 402.936367 329.92295 
L 403.47305 335.915928 
L 405.083099 335.915928 
L 405.619782 357.302704 
L 407.229831 357.302704 
L 407.766514 364.607188 
L 409.376563 364.607188 
L 409.913246 371.05006 
L 415.816758 371.05006 
L 416.353441 378.193017 
L 417.96349 378.193017 
L 418.500173 391.778846 
L 420.110222 391.778846 
L 420.646905 384.647251 
L 422.256954 384.647251 
L 422.793637 398.256425 
L 424.403686 398.256425 
L 424.940369 411.740432 
L 426.550417 411.740432 
L 427.0871 418.249756 
L 428.697149 418.249756 
L 429.233832 438.832417 
L 430.843881 438.832417 
L 431.380564 452.663047 
L 432.990613 452.663047 
L 433.527296 473.491109 
L 435.137345 473.491109 
L 435.674028 493.969758 
L 437.284076 493.969758 
L 437.820759 507.727214 
L 439.430808 507.727214 
L 439.967491 514.763016 
L 441.57754 514.763016 
L 442.114223 528.520472 
L 443.724272 528.520472 
L 444.260955 521.893249 
L 445.871004 521.893249 
L 446.407687 508.801183 
L 448.017736 508.801183 
L 448.554418 495.860301 
L 450.164467 495.860301 
L 450.70115 489.38986 
L 452.311199 489.38986 
L 452.847882 503.220669 
L 456.604663 503.282544 
L 457.141346 504.4679 
L 458.751395 504.4679 
L 459.288078 526.01185 
L 463.044858 526.004356 
L 463.581541 513.592618 
L 465.19159 513.592618 
L 465.728273 507.393923 
L 467.338322 507.393923 
L 467.875005 495.01701 
L 469.485054 495.01701 
L 470.021737 509.159 
L 471.631785 509.159 
L 472.168468 515.344091 
L 475.925249 515.344091 
L 476.461932 521.529183 
L 478.071981 521.529183 
L 478.608664 515.350418 
L 480.218713 515.350418 
L 480.755396 511.091222 
L 482.365445 511.091222 
L 482.902127 498.866618 
L 484.512176 498.866618 
L 485.048859 500.920906 
L 486.658908 500.920906 
L 487.195591 511.341543 
L 488.80564 511.341543 
L 489.342323 513.635281 
L 490.952372 513.635281 
L 491.489055 507.570948 
L 495.245835 507.570948 
L 495.782518 521.959171 
L 497.392567 521.959171 
L 497.92925 515.979333 
L 499.539299 515.979333 
L 500.075982 510.00426 
L 501.686031 510.00426 
L 502.222714 512.500095 
L 503.832763 512.500095 
L 504.369446 515.046822 
L 505.979494 515.046822 
L 506.516177 523.582434 
L 508.126226 523.582434 
L 508.662909 538.114287 
L 510.272958 538.114287 
L 510.809641 561.257874 
L 512.41969 561.257874 
L 512.956373 575.789725 
L 514.566422 575.789725 
L 515.103105 596.233017 
L 516.713154 596.233017 
L 517.249836 619.385338 
L 518.859885 619.385338 
L 519.396568 639.785953 
L 521.006617 639.785953 
L 521.5433 668.929123 
L 523.153349 668.929123 
L 523.690032 692.254849 
L 525.300081 692.254849 
L 525.836764 698.135051 
L 527.446813 698.135051 
L 527.983496 721.51835 
L 529.593544 721.51835 
L 530.130227 724.400907 
L 531.740276 724.400907 
L 532.276959 741.964712 
L 536.03374 741.964712 
L 536.570423 750.745328 
L 540.327203 750.761557 
L 540.863886 759.552303 
L 542.473935 759.552303 
L 543.010618 753.731313 
L 546.767399 753.728019 
L 547.304082 762.582014 
L 548.914131 762.582014 
L 549.450814 777.242597 
L 551.060863 777.242597 
L 551.597545 765.689674 
L 553.207594 765.689674 
L 553.744277 768.87489 
L 555.354326 768.87489 
L 555.891009 757.393015 
L 557.501058 757.393015 
L 558.037741 740.239486 
L 559.64779 740.239486 
L 560.184473 749.245405 
L 561.794522 749.245405 
L 562.331205 732.139716 
L 563.941253 732.139716 
L 564.477936 746.875742 
L 566.087985 746.875742 
L 566.624668 744.529164 
L 572.528181 744.529164 
L 573.064864 738.869405 
L 574.674912 738.869405 
L 575.211595 727.562916 
L 576.821644 727.562916 
L 577.358327 716.264444 
L 578.968376 716.264444 
L 579.505059 693.706197 
L 581.115108 693.706197 
L 581.651791 671.249282 
L 583.26184 671.249282 
L 583.798523 654.455912 
L 585.408572 654.455912 
L 585.945254 637.703941 
L 587.555303 637.703941 
L 588.091986 632.129685 
L 589.702035 632.129685 
L 590.238718 615.434366 
L 591.848767 615.434366 
L 592.38545 604.316934 
L 596.142231 604.321457 
L 596.678914 598.772716 
L 598.288962 598.772716 
L 598.825645 582.145242 
L 600.435694 582.145242 
L 600.972377 597.056302 
L 602.582426 597.056302 
L 603.119109 580.458759 
L 604.729158 580.458759 
L 605.265841 599.263566 
L 606.87589 599.263566 
L 607.412573 634.647121 
L 609.022621 634.647121 
L 609.559304 629.128856 
L 611.169353 629.128856 
L 611.706036 627.521131 
L 613.316085 627.521131 
L 613.852768 605.491917 
L 615.462817 605.491917 
L 615.9995 614.949957 
L 617.609549 614.949957 
L 618.146232 639.37048 
L 619.756281 639.37048 
L 620.292963 662.330115 
L 621.903012 662.330115 
L 622.439695 677.292694 
L 624.049744 677.292694 
L 624.586427 703.195815 
L 626.196476 703.195815 
L 626.733159 727.678713 
L 628.343208 727.678713 
L 628.879891 742.654799 
L 630.48994 742.654799 
L 631.026623 752.185193 
L 632.636671 752.185193 
L 633.173354 754.908108 
L 634.783403 754.908108 
L 635.320086 779.447569 
L 636.930135 779.447569 
L 637.466818 799.886459 
L 639.076867 799.886459 
L 639.61355 804.010786 
L 641.223599 804.010786 
L 641.760282 813.575591 
L 643.37033 813.575591 
L 643.907013 842.303324 
L 645.517062 842.303324 
L 646.053745 866.901479 
L 647.663794 866.901479 
L 648.200477 910.730612 
L 649.810526 910.730612 
L 650.347209 964.24258 
L 651.957258 964.24258 
L 652.493941 983.500151 
L 654.10399 983.500151 
L 654.640672 1023.226799 
L 656.250721 1023.226799 
L 656.787404 1056.416757 
L 658.397453 1056.416757 
L 658.934136 1051.014996 
L 660.544185 1051.014996 
L 661.080868 1040.220889 
L 662.690917 1040.220889 
L 663.2276 1029.431485 
L 666.98438 1029.430045 
L 667.521063 1024.039627 
L 669.131112 1024.039627 
L 669.667795 1018.647782 
L 671.277844 1018.647782 
L 671.814527 1007.873025 
L 673.424576 1007.873025 
L 673.961259 1001.399799 
L 675.571308 1001.399799 
L 676.107991 1000.317208 
L 677.718039 1000.317208 
L 678.254722 1024.004668 
L 679.864771 1024.004668 
L 680.401454 1018.627232 
L 682.011503 1018.627232 
L 682.548186 1028.323236 
L 684.158235 1028.323236 
L 684.694918 1047.72373 
L 686.304967 1047.72373 
L 686.84165 1046.677852 
L 688.451699 1046.677852 
L 688.988381 1056.386535 
L 690.59843 1056.386535 
L 691.135113 1069.424672 
L 692.745162 1069.424672 
L 693.281845 1073.779811 
L 694.891894 1073.779811 
L 695.428577 1082.498495 
L 697.038626 1082.498495 
L 697.575309 1087.856468 
L 699.185358 1087.856468 
L 699.722041 1081.514498 
L 701.332089 1081.514498 
L 701.868772 1080.537006 
L 703.478821 1080.537006 
L 704.015504 1095.628026 
L 705.625553 1095.628026 
L 706.162236 1079.566087 
L 707.772285 1079.566087 
L 708.308968 1083.95342 
L 709.919017 1083.95342 
L 710.4557 1107.836526 
L 712.065748 1107.836526 
L 712.602431 1102.487263 
L 714.21248 1102.487263 
L 714.749163 1116.638107 
L 716.359212 1116.638107 
L 716.895895 1130.80403 
L 718.505944 1130.80403 
L 719.042627 1144.975771 
L 720.652676 1144.975771 
L 721.189359 1190.293653 
L 722.799408 1190.293653 
L 723.33609 1195.635495 
L 724.946139 1195.635495 
L 725.482822 1216.087639 
L 727.092871 1216.087639 
L 727.629554 1215.191075 
L 729.239603 1215.191075 
L 729.776286 1220.528057 
L 733.533067 1220.528057 
L 734.06975 1231.2 
L 735.679798 1231.2 
L 736.216481 1230.316738 
L 737.82653 1230.316738 
L 738.363213 1224.106053 
L 739.973262 1224.106053 
L 739.973262 1224.106053 
" clip-path="url(#p7879b3e8cf)" style="fill: none; stroke: #0000ff; stroke-width: 1.5; stroke-linecap: square"/>
   </g>
   <g id="patch_3">
    <path d="M 270 1281.6 
L 270 172.8 
" style="fill: none; stroke: #000000; stroke-width: 0.8; stroke-linejoin: miter; stroke-linecap: square"/>
   </g>
   <g id="patch_4">
    <path d="M 762.352941 1281.6 
L 762.352941 172.8 
" style="fill: none; stroke: #000000; stroke-width: 0.8; stroke-linejoin: miter; stroke-linecap: square"/>
   </g>
   <g id="patch_5">
    <path d="M 270 1281.6 
L 762.352941 1281.6 
" style="fill: none; stroke: #000000; stroke-width: 0.8; stroke-linejoin: miter; stroke-linecap: square"/>
   </g>
   <g id="patch_6">
    <path d="M 270 172.8 
L 762.352941 172.8 
" style="fill: none; stroke: #000000; stroke-width: 0.8; stroke-linejoin: miter; stroke-linecap: square"/>
   </g>
   <g id="legend_1">
    <g id="patch_7">
     <path d="M 671.310754 195.478125 
L 755.352941 195.478125 
Q 757.352941 195.478125 757.352941 193.478125 
L 757.352941 179.8 
Q 757.352941 177.8 755.352941 177.8 
L 671.310754 177.8 
Q 669.310754 177.8 669.310754 179.8 
L 669.310754 193.478125 
Q 669.310754 195.478125 671.310754 195.478125 
z
" style="fill: #ffffff; opacity: 0.8; stroke: #cccccc; stroke-linejoin: miter"/>
    </g>
    <g id="line2d_13">
     <path d="M 673.310754 185.898437 
L 683.310754 185.898437 
L 693.310754 185.898437 
" style="fill: none; stroke: #0000ff; stroke-width: 1.5; stroke-linecap: square"/>
    </g>
    <g id="text_12">
     <!-- O1 reward -->
     <g transform="translate(701.310754 189.398437) scale(0.1 -0.1)">
      <defs>
       <path id="DejaVuSans-4f" d="M 2522 4238 
Q 1834 4238 1429 3725 
Q 1025 3213 1025 2328 
Q 1025 1447 1429 934 
Q 1834 422 2522 422 
Q 3209 422 3611 934 
Q 4013 1447 4013 2328 
Q 4013 3213 3611 3725 
Q 3209 4238 2522 4238 
z
M 2522 4750 
Q 3503 4750 4090 4092 
Q 4678 3434 4678 2328 
Q 4678 1225 4090 567 
Q 3503 -91 2522 -91 
Q 1538 -91 948 565 
Q 359 1222 359 2328 
Q 359 3434 948 4092 
Q 1538 4750 2522 4750 
z
" transform="scale(0.015625)"/>
       <path id="DejaVuSans-20" transform="scale(0.015625)"/>
       <path id="DejaVuSans-72" d="M 2631 2963 
Q 2534 3019 2420 3045 
Q 2306 3072 2169 3072 
Q 1681 3072 1420 2755 
Q 1159 2438 1159 1844 
L 1159 0 
L 581 0 
L 581 3500 
L 1159 3500 
L 1159 2956 
Q 1341 3275 1631 3429 
Q 1922 3584 2338 3584 
Q 2397 3584 2469 3576 
Q 2541 3569 2628 3553 
L 2631 2963 
z
" transform="scale(0.015625)"/>
       <path id="DejaVuSans-65" d="M 3597 1894 
L 3597 1613 
L 953 1613 
Q 991 1019 1311 708 
Q 1631 397 2203 397 
Q 2534 397 2845 478 
Q 3156 559 3463 722 
L 3463 178 
Q 3153 47 2828 -22 
Q 2503 -91 2169 -91 
Q 1331 -91 842 396 
Q 353 884 353 1716 
Q 353 2575 817 3079 
Q 1281 3584 2069 3584 
Q 2775 3584 3186 3129 
Q 3597 2675 3597 1894 
z
M 3022 2063 
Q 3016 2534 2758 2815 
Q 2500 3097 2075 3097 
Q 1594 3097 1305 2825 
Q 1016 2553 972 2059 
L 3022 2063 
z
" transform="scale(0.015625)"/>
       <path id="DejaVuSans-77" d="M 269 3500 
L 844 3500 
L 1563 769 
L 2278 3500 
L 2956 3500 
L 3675 769 
L 4391 3500 
L 4966 3500 
L 4050 0 
L 3372 0 
L 2619 2869 
L 1863 0 
L 1184 0 
L 269 3500 
z
" transform="scale(0.015625)"/>
       <path id="DejaVuSans-61" d="M 2194 1759 
Q 1497 1759 1228 1600 
Q 959 1441 959 1056 
Q 959 750 1161 570 
Q 1363 391 1709 391 
Q 2188 391 2477 730 
Q 2766 1069 2766 1631 
L 2766 1759 
L 2194 1759 
z
M 3341 1997 
L 3341 0 
L 2766 0 
L 2766 531 
Q 2569 213 2275 61 
Q 1981 -91 1556 -91 
Q 1019 -91 701 211 
Q 384 513 384 1019 
Q 384 1609 779 1909 
Q 1175 2209 1959 2209 
L 2766 2209 
L 2766 2266 
Q 2766 2663 2505 2880 
Q 2244 3097 1772 3097 
Q 1472 3097 1187 3025 
Q 903 2953 641 2809 
L 641 3341 
Q 956 3463 1253 3523 
Q 1550 3584 1831 3584 
Q 2591 3584 2966 3190 
Q 3341 2797 3341 1997 
z
" transform="scale(0.015625)"/>
       <path id="DejaVuSans-64" d="M 2906 2969 
L 2906 4863 
L 3481 4863 
L 3481 0 
L 2906 0 
L 2906 525 
Q 2725 213 2448 61 
Q 2172 -91 1784 -91 
Q 1150 -91 751 415 
Q 353 922 353 1747 
Q 353 2572 751 3078 
Q 1150 3584 1784 3584 
Q 2172 3584 2448 3432 
Q 2725 3281 2906 2969 
z
M 947 1747 
Q 947 1113 1208 752 
Q 1469 391 1925 391 
Q 2381 391 2643 752 
Q 2906 1113 2906 1747 
Q 2906 2381 2643 2742 
Q 2381 3103 1925 3103 
Q 1469 3103 1208 2742 
Q 947 2381 947 1747 
z
" transform="scale(0.015625)"/>
      </defs>
      <use xlink:href="#DejaVuSans-4f"/>
      <use xlink:href="#DejaVuSans-31" x="78.710938"/>
      <use xlink:href="#DejaVuSans-20" x="142.333984"/>
      <use xlink:href="#DejaVuSans-72" x="174.121094"/>
      <use xlink:href="#DejaVuSans-65" x="212.984375"/>
      <use xlink:href="#DejaVuSans-77" x="274.507812"/>
      <use xlink:href="#DejaVuSans-61" x="356.294922"/>
      <use xlink:href="#DejaVuSans-72" x="417.574219"/>
      <use xlink:href="#DejaVuSans-64" x="456.9375"/>
     </g>
    </g>
   </g>
  </g>
  <g id="axes_2">
   <g id="patch_8">
    <path d="M 860.823529 1281.6 
L 1353.176471 1281.6 
L 1353.176471 172.8 
L 860.823529 172.8 
z
" style="fill: #ffffff"/>
   </g>
   <g id="matplotlib.axis_3">
    <g id="xtick_6">
     <g id="line2d_14">
      <g>
       <use xlink:href="#mf9e691014c" x="882.666526" y="1281.6" style="stroke: #000000; stroke-width: 0.8"/>
      </g>
     </g>
     <g id="text_13">
      <!-- 0 -->
      <g transform="translate(879.485276 1296.198437) scale(0.1 -0.1)">
       <use xlink:href="#DejaVuSans-30"/>
      </g>
     </g>
    </g>
    <g id="xtick_7">
     <g id="line2d_15">
      <g>
       <use xlink:href="#mf9e691014c" x="990.003116" y="1281.6" style="stroke: #000000; stroke-width: 0.8"/>
      </g>
     </g>
     <g id="text_14">
      <!-- 200 -->
      <g transform="translate(980.459366 1296.198437) scale(0.1 -0.1)">
       <use xlink:href="#DejaVuSans-32"/>
       <use xlink:href="#DejaVuSans-30" x="63.623047"/>
       <use xlink:href="#DejaVuSans-30" x="127.246094"/>
      </g>
     </g>
    </g>
    <g id="xtick_8">
     <g id="line2d_16">
      <g>
       <use xlink:href="#mf9e691014c" x="1097.339707" y="1281.6" style="stroke: #000000; stroke-width: 0.8"/>
      </g>
     </g>
     <g id="text_15">
      <!-- 400 -->
      <g transform="translate(1087.795957 1296.198437) scale(0.1 -0.1)">
       <use xlink:href="#DejaVuSans-34"/>
       <use xlink:href="#DejaVuSans-30" x="63.623047"/>
       <use xlink:href="#DejaVuSans-30" x="127.246094"/>
      </g>
     </g>
    </g>
    <g id="xtick_9">
     <g id="line2d_17">
      <g>
       <use xlink:href="#mf9e691014c" x="1204.676297" y="1281.6" style="stroke: #000000; stroke-width: 0.8"/>
      </g>
     </g>
     <g id="text_16">
      <!-- 600 -->
      <g transform="translate(1195.132547 1296.198437) scale(0.1 -0.1)">
       <use xlink:href="#DejaVuSans-36"/>
       <use xlink:href="#DejaVuSans-30" x="63.623047"/>
       <use xlink:href="#DejaVuSans-30" x="127.246094"/>
      </g>
     </g>
    </g>
    <g id="xtick_10">
     <g id="line2d_18">
      <g>
       <use xlink:href="#mf9e691014c" x="1312.012888" y="1281.6" style="stroke: #000000; stroke-width: 0.8"/>
      </g>
     </g>
     <g id="text_17">
      <!-- 800 -->
      <g transform="translate(1302.469138 1296.198437) scale(0.1 -0.1)">
       <use xlink:href="#DejaVuSans-38"/>
       <use xlink:href="#DejaVuSans-30" x="63.623047"/>
       <use xlink:href="#DejaVuSans-30" x="127.246094"/>
      </g>
     </g>
    </g>
   </g>
   <g id="matplotlib.axis_4">
    <g id="ytick_7">
     <g id="line2d_19">
      <g>
       <use xlink:href="#m9c46fa2399" x="860.823529" y="1231.2" style="stroke: #000000; stroke-width: 0.8"/>
      </g>
     </g>
     <g id="text_18">
      <!-- 0 -->
      <g transform="translate(847.461029 1234.999219) scale(0.1 -0.1)">
       <use xlink:href="#DejaVuSans-30"/>
      </g>
     </g>
    </g>
    <g id="ytick_8">
     <g id="line2d_20">
      <g>
       <use xlink:href="#m9c46fa2399" x="860.823529" y="1105.567159" style="stroke: #000000; stroke-width: 0.8"/>
      </g>
     </g>
     <g id="text_19">
      <!-- 10 -->
      <g transform="translate(841.098529 1109.366377) scale(0.1 -0.1)">
       <use xlink:href="#DejaVuSans-31"/>
       <use xlink:href="#DejaVuSans-30" x="63.623047"/>
      </g>
     </g>
    </g>
    <g id="ytick_9">
     <g id="line2d_21">
      <g>
       <use xlink:href="#m9c46fa2399" x="860.823529" y="979.934317" style="stroke: #000000; stroke-width: 0.8"/>
      </g>
     </g>
     <g id="text_20">
      <!-- 20 -->
      <g transform="translate(841.098529 983.733536) scale(0.1 -0.1)">
       <use xlink:href="#DejaVuSans-32"/>
       <use xlink:href="#DejaVuSans-30" x="63.623047"/>
      </g>
     </g>
    </g>
    <g id="ytick_10">
     <g id="line2d_22">
      <g>
       <use xlink:href="#m9c46fa2399" x="860.823529" y="854.301476" style="stroke: #000000; stroke-width: 0.8"/>
      </g>
     </g>
     <g id="text_21">
      <!-- 30 -->
      <g transform="translate(841.098529 858.100695) scale(0.1 -0.1)">
       <defs>
        <path id="DejaVuSans-33" d="M 2597 2516 
Q 3050 2419 3304 2112 
Q 3559 1806 3559 1356 
Q 3559 666 3084 287 
Q 2609 -91 1734 -91 
Q 1441 -91 1130 -33 
Q 819 25 488 141 
L 488 750 
Q 750 597 1062 519 
Q 1375 441 1716 441 
Q 2309 441 2620 675 
Q 2931 909 2931 1356 
Q 2931 1769 2642 2001 
Q 2353 2234 1838 2234 
L 1294 2234 
L 1294 2753 
L 1863 2753 
Q 2328 2753 2575 2939 
Q 2822 3125 2822 3475 
Q 2822 3834 2567 4026 
Q 2313 4219 1838 4219 
Q 1578 4219 1281 4162 
Q 984 4106 628 3988 
L 628 4550 
Q 988 4650 1302 4700 
Q 1616 4750 1894 4750 
Q 2613 4750 3031 4423 
Q 3450 4097 3450 3541 
Q 3450 3153 3228 2886 
Q 3006 2619 2597 2516 
z
" transform="scale(0.015625)"/>
       </defs>
       <use xlink:href="#DejaVuSans-33"/>
       <use xlink:href="#DejaVuSans-30" x="63.623047"/>
      </g>
     </g>
    </g>
    <g id="ytick_11">
     <g id="line2d_23">
      <g>
       <use xlink:href="#m9c46fa2399" x="860.823529" y="728.668635" style="stroke: #000000; stroke-width: 0.8"/>
      </g>
     </g>
     <g id="text_22">
      <!-- 40 -->
      <g transform="translate(841.098529 732.467854) scale(0.1 -0.1)">
       <use xlink:href="#DejaVuSans-34"/>
       <use xlink:href="#DejaVuSans-30" x="63.623047"/>
      </g>
     </g>
    </g>
    <g id="ytick_12">
     <g id="line2d_24">
      <g>
       <use xlink:href="#m9c46fa2399" x="860.823529" y="603.035794" style="stroke: #000000; stroke-width: 0.8"/>
      </g>
     </g>
     <g id="text_23">
      <!-- 50 -->
      <g transform="translate(841.098529 606.835012) scale(0.1 -0.1)">
       <defs>
        <path id="DejaVuSans-35" d="M 691 4666 
L 3169 4666 
L 3169 4134 
L 1269 4134 
L 1269 2991 
Q 1406 3038 1543 3061 
Q 1681 3084 1819 3084 
Q 2600 3084 3056 2656 
Q 3513 2228 3513 1497 
Q 3513 744 3044 326 
Q 2575 -91 1722 -91 
Q 1428 -91 1123 -41 
Q 819 9 494 109 
L 494 744 
Q 775 591 1075 516 
Q 1375 441 1709 441 
Q 2250 441 2565 725 
Q 2881 1009 2881 1497 
Q 2881 1984 2565 2268 
Q 2250 2553 1709 2553 
Q 1456 2553 1204 2497 
Q 953 2441 691 2322 
L 691 4666 
z
" transform="scale(0.015625)"/>
       </defs>
       <use xlink:href="#DejaVuSans-35"/>
       <use xlink:href="#DejaVuSans-30" x="63.623047"/>
      </g>
     </g>
    </g>
    <g id="ytick_13">
     <g id="line2d_25">
      <g>
       <use xlink:href="#m9c46fa2399" x="860.823529" y="477.402952" style="stroke: #000000; stroke-width: 0.8"/>
      </g>
     </g>
     <g id="text_24">
      <!-- 60 -->
      <g transform="translate(841.098529 481.202171) scale(0.1 -0.1)">
       <use xlink:href="#DejaVuSans-36"/>
       <use xlink:href="#DejaVuSans-30" x="63.623047"/>
      </g>
     </g>
    </g>
    <g id="ytick_14">
     <g id="line2d_26">
      <g>
       <use xlink:href="#m9c46fa2399" x="860.823529" y="351.770111" style="stroke: #000000; stroke-width: 0.8"/>
      </g>
     </g>
     <g id="text_25">
      <!-- 70 -->
      <g transform="translate(841.098529 355.56933) scale(0.1 -0.1)">
       <defs>
        <path id="DejaVuSans-37" d="M 525 4666 
L 3525 4666 
L 3525 4397 
L 1831 0 
L 1172 0 
L 2766 4134 
L 525 4134 
L 525 4666 
z
" transform="scale(0.015625)"/>
       </defs>
       <use xlink:href="#DejaVuSans-37"/>
       <use xlink:href="#DejaVuSans-30" x="63.623047"/>
      </g>
     </g>
    </g>
    <g id="ytick_15">
     <g id="line2d_27">
      <g>
       <use xlink:href="#m9c46fa2399" x="860.823529" y="226.13727" style="stroke: #000000; stroke-width: 0.8"/>
      </g>
     </g>
     <g id="text_26">
      <!-- 80 -->
      <g transform="translate(841.098529 229.936488) scale(0.1 -0.1)">
       <use xlink:href="#DejaVuSans-38"/>
       <use xlink:href="#DejaVuSans-30" x="63.623047"/>
      </g>
     </g>
    </g>
   </g>
   <g id="line2d_28">
    <path d="M 883.203209 1231.2 
L 907.890624 1231.107118 
L 908.427307 1226.045628 
L 910.037356 1226.045628 
L 910.574039 1228.029353 
L 912.184088 1228.029353 
L 912.720771 1226.849632 
L 914.33082 1226.849632 
L 914.867503 1229.175301 
L 916.477552 1229.175301 
L 917.014235 1218.726575 
L 918.624283 1218.726575 
L 919.160966 1202.887845 
L 920.771015 1202.887845 
L 921.307698 1195.008412 
L 922.917747 1195.008412 
L 923.45443 1174.253278 
L 925.064479 1174.253278 
L 925.601162 1155.124937 
L 935.798138 1155.124937 
L 936.334821 1146.822933 
L 942.238333 1146.822933 
L 942.775016 1137.968697 
L 948.678529 1137.968697 
L 949.215212 1125.904953 
L 950.825261 1125.904953 
L 951.361944 1122.517551 
L 952.971992 1122.517551 
L 953.508675 1118.790117 
L 957.265456 1118.790117 
L 957.802139 1095.910039 
L 959.412188 1095.910039 
L 959.948871 1059.929203 
L 961.55892 1059.929203 
L 962.095603 1050.344251 
L 963.705652 1050.344251 
L 964.242334 1031.88686 
L 965.852383 1031.88686 
L 966.389066 987.206329 
L 967.999115 987.206329 
L 968.535798 956.108609 
L 991.613165 956.108609 
L 992.149848 946.939176 
L 998.053361 946.939176 
L 998.590043 937.904498 
L 1000.200092 937.904498 
L 1000.736775 928.775359 
L 1002.346824 928.775359 
L 1002.883507 919.554182 
L 1006.640288 919.554182 
L 1007.176971 916.299541 
L 1015.227215 916.299541 
L 1015.763898 912.957435 
L 1017.373947 912.957435 
L 1017.91063 890.771788 
L 1019.520679 890.771788 
L 1020.057362 873.828993 
L 1021.66741 873.828993 
L 1022.204093 836.280313 
L 1023.814142 836.280313 
L 1024.350825 803.247807 
L 1025.960874 803.247807 
L 1026.497557 777.211839 
L 1028.107606 777.211839 
L 1028.644289 745.195104 
L 1030.254338 745.195104 
L 1030.791021 706.309238 
L 1032.40107 706.309238 
L 1032.937752 688.918442 
L 1034.547801 688.918442 
L 1035.084484 664.833253 
L 1040.987997 664.833253 
L 1041.52468 659.395798 
L 1043.134729 659.395798 
L 1043.671412 648.152321 
L 1045.28146 648.152321 
L 1045.818143 655.911622 
L 1047.428192 655.911622 
L 1047.964875 659.602218 
L 1049.574924 659.602218 
L 1050.111607 667.268766 
L 1051.721656 667.268766 
L 1052.258339 671.226056 
L 1053.868388 671.226056 
L 1054.405071 674.821984 
L 1056.015119 674.821984 
L 1056.551802 663.743769 
L 1060.308583 663.743769 
L 1060.845266 656.210343 
L 1062.455315 656.210343 
L 1062.991998 652.739623 
L 1064.602047 652.739623 
L 1065.13873 641.856046 
L 1066.748779 641.856046 
L 1067.285461 620.387087 
L 1068.89551 620.387087 
L 1069.432193 610.107881 
L 1071.042242 610.107881 
L 1071.578925 601.171472 
L 1073.188974 601.171472 
L 1073.725657 595.386128 
L 1075.335706 595.386128 
L 1075.872389 585.883758 
L 1077.482438 585.883758 
L 1078.019121 595.292282 
L 1079.629169 595.292282 
L 1080.165852 616.369591 
L 1081.775901 616.369591 
L 1082.312584 609.76305 
L 1083.922633 609.76305 
L 1084.459316 591.637079 
L 1086.069365 591.637079 
L 1086.606048 576.257769 
L 1088.216097 576.257769 
L 1088.75278 578.47865 
L 1090.362828 578.47865 
L 1090.899511 563.872626 
L 1092.50956 563.872626 
L 1093.046243 551.321255 
L 1094.656292 551.321255 
L 1095.192975 549.286833 
L 1098.949756 549.212446 
L 1099.486439 551.187464 
L 1101.096488 551.187464 
L 1101.63317 547.322729 
L 1103.243219 547.322729 
L 1103.779902 535.258596 
L 1105.389951 535.258596 
L 1105.926634 537.070205 
L 1107.536683 537.070205 
L 1108.073366 532.965818 
L 1109.683415 532.965818 
L 1110.220098 521.211074 
L 1111.830147 521.211074 
L 1112.36683 513.660262 
L 1113.976878 513.660262 
L 1114.513561 506.170248 
L 1116.12361 506.170248 
L 1116.660293 502.09188 
L 1118.270342 502.09188 
L 1118.807025 499.670506 
L 1122.563806 499.670506 
L 1123.100489 514.315207 
L 1124.710537 514.315207 
L 1125.24722 521.528395 
L 1126.857269 521.528395 
L 1127.393952 518.962115 
L 1129.004001 518.962115 
L 1129.540684 524.469049 
L 1131.150733 524.469049 
L 1131.687416 525.833324 
L 1133.297465 525.833324 
L 1133.834148 540.762525 
L 1135.444197 540.762525 
L 1135.980879 543.612904 
L 1137.590928 543.612904 
L 1138.127611 555.541571 
L 1139.73766 555.541571 
L 1140.274343 554.95973 
L 1141.884392 554.95973 
L 1142.421075 543.339199 
L 1144.031124 543.339199 
L 1144.567807 535.902154 
L 1146.177856 535.902154 
L 1146.714539 534.802654 
L 1148.324587 534.802654 
L 1148.86127 528.567223 
L 1150.471319 528.567223 
L 1151.008002 518.284795 
L 1152.618051 518.284795 
L 1153.154734 522.403345 
L 1154.764783 522.403345 
L 1155.301466 526.515052 
L 1156.911515 526.515052 
L 1157.448198 525.535888 
L 1159.058246 525.535888 
L 1159.594929 521.410426 
L 1161.204978 521.410426 
L 1161.741661 510.34266 
L 1163.35171 510.34266 
L 1163.888393 503.475354 
L 1167.645174 503.475354 
L 1168.181857 497.595912 
L 1169.791906 497.595912 
L 1170.328588 504.252428 
L 1171.938637 504.252428 
L 1172.47532 515.689452 
L 1174.085369 515.689452 
L 1174.622052 519.073379 
L 1176.232101 519.073379 
L 1176.768784 518.388658 
L 1178.378833 518.388658 
L 1178.915516 517.058213 
L 1180.525565 517.058213 
L 1181.062248 519.941953 
L 1182.672296 519.941953 
L 1183.208979 509.384461 
L 1184.819028 509.384461 
L 1185.355711 483.464804 
L 1186.96576 483.464804 
L 1187.502443 468.185679 
L 1189.112492 468.185679 
L 1189.649175 448.092169 
L 1191.259224 448.092169 
L 1191.795907 427.868518 
L 1193.405955 427.868518 
L 1193.942638 408.713018 
L 1195.552687 408.713018 
L 1196.08937 398.709407 
L 1197.699419 398.709407 
L 1198.236102 384.704362 
L 1199.846151 384.704362 
L 1200.382834 365.831131 
L 1201.992883 365.831131 
L 1202.529566 356.509525 
L 1204.139615 356.509525 
L 1204.676297 342.676083 
L 1206.286346 342.676083 
L 1206.823029 347.46801 
L 1208.433078 347.46801 
L 1208.969761 339.214995 
L 1210.57981 339.214995 
L 1211.116493 352.549601 
L 1212.726542 352.549601 
L 1213.263225 352.925571 
L 1214.873274 352.925571 
L 1215.409957 353.236811 
L 1217.020005 353.236811 
L 1217.556688 349.255519 
L 1219.166737 349.255519 
L 1219.70342 349.393699 
L 1221.313469 349.393699 
L 1221.850152 349.645997 
L 1223.460201 349.645997 
L 1223.996884 362.615683 
L 1225.606933 362.615683 
L 1226.143616 371.050935 
L 1227.753664 371.050935 
L 1228.290347 375.177527 
L 1229.900396 375.177527 
L 1230.437079 371.04415 
L 1232.047128 371.04415 
L 1232.583811 366.744143 
L 1234.19386 366.744143 
L 1234.730543 358.328112 
L 1236.340592 358.328112 
L 1236.877275 350.008195 
L 1240.634055 349.991499 
L 1241.170738 354.178538 
L 1242.780787 354.178538 
L 1243.31747 350.132377 
L 1244.927519 350.132377 
L 1245.464202 346.110138 
L 1247.074251 346.110138 
L 1247.610934 346.256186 
L 1249.220983 346.256186 
L 1249.757666 362.627199 
L 1251.367714 362.627199 
L 1251.904397 366.834328 
L 1253.514446 366.834328 
L 1254.051129 355.549805 
L 1255.661178 355.549805 
L 1256.197861 359.820832 
L 1257.80791 359.820832 
L 1258.344593 364.426779 
L 1259.954642 364.426779 
L 1260.491325 360.477799 
L 1262.101373 360.477799 
L 1262.638056 360.8442 
L 1264.248105 360.8442 
L 1264.784788 366.012009 
L 1266.394837 366.012009 
L 1266.93152 367.422355 
L 1270.688301 367.425046 
L 1271.224984 355.836615 
L 1272.835033 355.836615 
L 1273.371715 348.140579 
L 1274.981764 348.140579 
L 1275.518447 344.296389 
L 1277.128496 344.296389 
L 1277.665179 336.621014 
L 1279.275228 336.621014 
L 1279.811911 332.789808 
L 1281.42196 332.789808 
L 1281.958643 328.96109 
L 1283.568692 328.96109 
L 1284.105375 321.310966 
L 1285.715423 321.310966 
L 1286.252106 313.670348 
L 1287.862155 313.670348 
L 1288.398838 306.038973 
L 1290.008887 306.038973 
L 1290.54557 302.226702 
L 1292.155619 302.226702 
L 1292.692302 290.824234 
L 1294.302351 290.824234 
L 1294.839034 283.247164 
L 1296.449082 283.247164 
L 1296.985765 279.461885 
L 1300.742546 279.461885 
L 1301.279229 275.678749 
L 1302.889278 275.678749 
L 1303.425961 264.354388 
L 1305.03601 264.354388 
L 1305.572693 253.071295 
L 1307.182742 253.071295 
L 1307.719424 241.833886 
L 1309.329473 241.833886 
L 1309.866156 234.365551 
L 1311.476205 234.365551 
L 1312.012888 223.2 
L 1313.622937 223.2 
L 1314.15962 236.089822 
L 1315.769669 236.089822 
L 1316.306352 246.197537 
L 1317.916401 246.197537 
L 1318.453084 249.026384 
L 1320.063132 249.026384 
L 1320.599815 251.944334 
L 1322.209864 251.944334 
L 1322.746547 261.208359 
L 1326.503328 261.230011 
L 1327.040011 258.351935 
L 1328.65006 258.351935 
L 1329.186743 263.020631 
L 1330.796791 263.020631 
L 1330.796791 263.020631 
" clip-path="url(#p93f4323da1)" style="fill: none; stroke: #0000ff; stroke-width: 1.5; stroke-linecap: square"/>
   </g>
   <g id="patch_9">
    <path d="M 860.823529 1281.6 
L 860.823529 172.8 
" style="fill: none; stroke: #000000; stroke-width: 0.8; stroke-linejoin: miter; stroke-linecap: square"/>
   </g>
   <g id="patch_10">
    <path d="M 1353.176471 1281.6 
L 1353.176471 172.8 
" style="fill: none; stroke: #000000; stroke-width: 0.8; stroke-linejoin: miter; stroke-linecap: square"/>
   </g>
   <g id="patch_11">
    <path d="M 860.823529 1281.6 
L 1353.176471 1281.6 
" style="fill: none; stroke: #000000; stroke-width: 0.8; stroke-linejoin: miter; stroke-linecap: square"/>
   </g>
   <g id="patch_12">
    <path d="M 860.823529 172.8 
L 1353.176471 172.8 
" style="fill: none; stroke: #000000; stroke-width: 0.8; stroke-linejoin: miter; stroke-linecap: square"/>
   </g>
   <g id="legend_2">
    <g id="patch_13">
     <path d="M 1262.134283 195.478125 
L 1346.176471 195.478125 
Q 1348.176471 195.478125 1348.176471 193.478125 
L 1348.176471 179.8 
Q 1348.176471 177.8 1346.176471 177.8 
L 1262.134283 177.8 
Q 1260.134283 177.8 1260.134283 179.8 
L 1260.134283 193.478125 
Q 1260.134283 195.478125 1262.134283 195.478125 
z
" style="fill: #ffffff; opacity: 0.8; stroke: #cccccc; stroke-linejoin: miter"/>
    </g>
    <g id="line2d_29">
     <path d="M 1264.134283 185.898437 
L 1274.134283 185.898437 
L 1284.134283 185.898437 
" style="fill: none; stroke: #0000ff; stroke-width: 1.5; stroke-linecap: square"/>
    </g>
    <g id="text_27">
     <!-- O2 reward -->
     <g transform="translate(1292.134283 189.398437) scale(0.1 -0.1)">
      <use xlink:href="#DejaVuSans-4f"/>
      <use xlink:href="#DejaVuSans-32" x="78.710938"/>
      <use xlink:href="#DejaVuSans-20" x="142.333984"/>
      <use xlink:href="#DejaVuSans-72" x="174.121094"/>
      <use xlink:href="#DejaVuSans-65" x="212.984375"/>
      <use xlink:href="#DejaVuSans-77" x="274.507812"/>
      <use xlink:href="#DejaVuSans-61" x="356.294922"/>
      <use xlink:href="#DejaVuSans-72" x="417.574219"/>
      <use xlink:href="#DejaVuSans-64" x="456.9375"/>
     </g>
    </g>
   </g>
  </g>
  <g id="axes_3">
   <g id="patch_14">
    <path d="M 1451.647059 1281.6 
L 1944 1281.6 
L 1944 172.8 
L 1451.647059 172.8 
z
" style="fill: #ffffff"/>
   </g>
   <g id="matplotlib.axis_5">
    <g id="xtick_11">
     <g id="line2d_30">
      <g>
       <use xlink:href="#mf9e691014c" x="1473.490055" y="1281.6" style="stroke: #000000; stroke-width: 0.8"/>
      </g>
     </g>
     <g id="text_28">
      <!-- 0 -->
      <g transform="translate(1470.308805 1296.198437) scale(0.1 -0.1)">
       <use xlink:href="#DejaVuSans-30"/>
      </g>
     </g>
    </g>
    <g id="xtick_12">
     <g id="line2d_31">
      <g>
       <use xlink:href="#mf9e691014c" x="1580.826646" y="1281.6" style="stroke: #000000; stroke-width: 0.8"/>
      </g>
     </g>
     <g id="text_29">
      <!-- 200 -->
      <g transform="translate(1571.282896 1296.198437) scale(0.1 -0.1)">
       <use xlink:href="#DejaVuSans-32"/>
       <use xlink:href="#DejaVuSans-30" x="63.623047"/>
       <use xlink:href="#DejaVuSans-30" x="127.246094"/>
      </g>
     </g>
    </g>
    <g id="xtick_13">
     <g id="line2d_32">
      <g>
       <use xlink:href="#mf9e691014c" x="1688.163236" y="1281.6" style="stroke: #000000; stroke-width: 0.8"/>
      </g>
     </g>
     <g id="text_30">
      <!-- 400 -->
      <g transform="translate(1678.619486 1296.198437) scale(0.1 -0.1)">
       <use xlink:href="#DejaVuSans-34"/>
       <use xlink:href="#DejaVuSans-30" x="63.623047"/>
       <use xlink:href="#DejaVuSans-30" x="127.246094"/>
      </g>
     </g>
    </g>
    <g id="xtick_14">
     <g id="line2d_33">
      <g>
       <use xlink:href="#mf9e691014c" x="1795.499827" y="1281.6" style="stroke: #000000; stroke-width: 0.8"/>
      </g>
     </g>
     <g id="text_31">
      <!-- 600 -->
      <g transform="translate(1785.956077 1296.198437) scale(0.1 -0.1)">
       <use xlink:href="#DejaVuSans-36"/>
       <use xlink:href="#DejaVuSans-30" x="63.623047"/>
       <use xlink:href="#DejaVuSans-30" x="127.246094"/>
      </g>
     </g>
    </g>
    <g id="xtick_15">
     <g id="line2d_34">
      <g>
       <use xlink:href="#mf9e691014c" x="1902.836417" y="1281.6" style="stroke: #000000; stroke-width: 0.8"/>
      </g>
     </g>
     <g id="text_32">
      <!-- 800 -->
      <g transform="translate(1893.292667 1296.198437) scale(0.1 -0.1)">
       <use xlink:href="#DejaVuSans-38"/>
       <use xlink:href="#DejaVuSans-30" x="63.623047"/>
       <use xlink:href="#DejaVuSans-30" x="127.246094"/>
      </g>
     </g>
    </g>
   </g>
   <g id="matplotlib.axis_6">
    <g id="ytick_16">
     <g id="line2d_35">
      <g>
       <use xlink:href="#m9c46fa2399" x="1451.647059" y="1231.2" style="stroke: #000000; stroke-width: 0.8"/>
      </g>
     </g>
     <g id="text_33">
      <!-- 0.0 -->
      <g transform="translate(1428.743934 1234.999219) scale(0.1 -0.1)">
       <defs>
        <path id="DejaVuSans-2e" d="M 684 794 
L 1344 794 
L 1344 0 
L 684 0 
L 684 794 
z
" transform="scale(0.015625)"/>
       </defs>
       <use xlink:href="#DejaVuSans-30"/>
       <use xlink:href="#DejaVuSans-2e" x="63.623047"/>
       <use xlink:href="#DejaVuSans-30" x="95.410156"/>
      </g>
     </g>
    </g>
    <g id="ytick_17">
     <g id="line2d_36">
      <g>
       <use xlink:href="#m9c46fa2399" x="1451.647059" y="1093.251176" style="stroke: #000000; stroke-width: 0.8"/>
      </g>
     </g>
     <g id="text_34">
      <!-- 2.5 -->
      <g transform="translate(1428.743934 1097.050395) scale(0.1 -0.1)">
       <use xlink:href="#DejaVuSans-32"/>
       <use xlink:href="#DejaVuSans-2e" x="63.623047"/>
       <use xlink:href="#DejaVuSans-35" x="95.410156"/>
      </g>
     </g>
    </g>
    <g id="ytick_18">
     <g id="line2d_37">
      <g>
       <use xlink:href="#m9c46fa2399" x="1451.647059" y="955.302352" style="stroke: #000000; stroke-width: 0.8"/>
      </g>
     </g>
     <g id="text_35">
      <!-- 5.0 -->
      <g transform="translate(1428.743934 959.101571) scale(0.1 -0.1)">
       <use xlink:href="#DejaVuSans-35"/>
       <use xlink:href="#DejaVuSans-2e" x="63.623047"/>
       <use xlink:href="#DejaVuSans-30" x="95.410156"/>
      </g>
     </g>
    </g>
    <g id="ytick_19">
     <g id="line2d_38">
      <g>
       <use xlink:href="#m9c46fa2399" x="1451.647059" y="817.353528" style="stroke: #000000; stroke-width: 0.8"/>
      </g>
     </g>
     <g id="text_36">
      <!-- 7.5 -->
      <g transform="translate(1428.743934 821.152747) scale(0.1 -0.1)">
       <use xlink:href="#DejaVuSans-37"/>
       <use xlink:href="#DejaVuSans-2e" x="63.623047"/>
       <use xlink:href="#DejaVuSans-35" x="95.410156"/>
      </g>
     </g>
    </g>
    <g id="ytick_20">
     <g id="line2d_39">
      <g>
       <use xlink:href="#m9c46fa2399" x="1451.647059" y="679.404704" style="stroke: #000000; stroke-width: 0.8"/>
      </g>
     </g>
     <g id="text_37">
      <!-- 10.0 -->
      <g transform="translate(1422.381434 683.203922) scale(0.1 -0.1)">
       <use xlink:href="#DejaVuSans-31"/>
       <use xlink:href="#DejaVuSans-30" x="63.623047"/>
       <use xlink:href="#DejaVuSans-2e" x="127.246094"/>
       <use xlink:href="#DejaVuSans-30" x="159.033203"/>
      </g>
     </g>
    </g>
    <g id="ytick_21">
     <g id="line2d_40">
      <g>
       <use xlink:href="#m9c46fa2399" x="1451.647059" y="541.45588" style="stroke: #000000; stroke-width: 0.8"/>
      </g>
     </g>
     <g id="text_38">
      <!-- 12.5 -->
      <g transform="translate(1422.381434 545.255098) scale(0.1 -0.1)">
       <use xlink:href="#DejaVuSans-31"/>
       <use xlink:href="#DejaVuSans-32" x="63.623047"/>
       <use xlink:href="#DejaVuSans-2e" x="127.246094"/>
       <use xlink:href="#DejaVuSans-35" x="159.033203"/>
      </g>
     </g>
    </g>
    <g id="ytick_22">
     <g id="line2d_41">
      <g>
       <use xlink:href="#m9c46fa2399" x="1451.647059" y="403.507056" style="stroke: #000000; stroke-width: 0.8"/>
      </g>
     </g>
     <g id="text_39">
      <!-- 15.0 -->
      <g transform="translate(1422.381434 407.306274) scale(0.1 -0.1)">
       <use xlink:href="#DejaVuSans-31"/>
       <use xlink:href="#DejaVuSans-35" x="63.623047"/>
       <use xlink:href="#DejaVuSans-2e" x="127.246094"/>
       <use xlink:href="#DejaVuSans-30" x="159.033203"/>
      </g>
     </g>
    </g>
    <g id="ytick_23">
     <g id="line2d_42">
      <g>
       <use xlink:href="#m9c46fa2399" x="1451.647059" y="265.558232" style="stroke: #000000; stroke-width: 0.8"/>
      </g>
     </g>
     <g id="text_40">
      <!-- 17.5 -->
      <g transform="translate(1422.381434 269.35745) scale(0.1 -0.1)">
       <use xlink:href="#DejaVuSans-31"/>
       <use xlink:href="#DejaVuSans-37" x="63.623047"/>
       <use xlink:href="#DejaVuSans-2e" x="127.246094"/>
       <use xlink:href="#DejaVuSans-35" x="159.033203"/>
      </g>
     </g>
    </g>
   </g>
   <g id="line2d_43">
    <path d="M 1474.026738 1231.2 
L 1496.567422 1231.2 
L 1497.104105 1209.67983 
L 1498.714154 1209.67983 
L 1499.250837 1192.483669 
L 1500.860886 1192.483669 
L 1501.397569 1177.856715 
L 1503.007617 1177.856715 
L 1503.5443 1156.179042 
L 1505.154349 1156.179042 
L 1505.691032 1148.889452 
L 1507.301081 1148.889452 
L 1507.837764 1120.510081 
L 1509.447813 1120.510081 
L 1509.984496 1128.755427 
L 1511.594545 1128.755427 
L 1512.131228 1112.604731 
L 1513.741276 1112.604731 
L 1514.277959 1096.680414 
L 1515.888008 1096.680414 
L 1516.424691 1085.878174 
L 1518.03474 1085.878174 
L 1518.571423 1067.583116 
L 1520.181472 1067.583116 
L 1520.718155 1050.409738 
L 1522.328204 1050.409738 
L 1522.864887 1039.767841 
L 1526.621667 1039.767841 
L 1527.15835 1035.083371 
L 1528.768399 1035.083371 
L 1529.305082 1024.825638 
L 1530.915131 1024.825638 
L 1531.451814 1019.113032 
L 1535.208595 1019.113032 
L 1535.745278 1014.848499 
L 1537.355326 1014.848499 
L 1537.892009 1005.505933 
L 1541.64879 1005.505933 
L 1542.185473 1001.592304 
L 1543.795522 1001.592304 
L 1544.332205 985.09378 
L 1545.942254 985.09378 
L 1546.478937 961.943156 
L 1548.088985 961.943156 
L 1548.625668 945.724683 
L 1550.235717 945.724683 
L 1550.7724 934.932612 
L 1552.382449 934.932612 
L 1552.919132 904.828311 
L 1554.529181 904.828311 
L 1555.065864 889.85075 
L 1556.675913 889.85075 
L 1557.212596 885.148863 
L 1558.822645 885.148863 
L 1559.359328 870.484498 
L 1560.969376 870.484498 
L 1561.506059 860.717963 
L 1563.116108 860.717963 
L 1563.652791 852.383957 
L 1565.26284 852.383957 
L 1565.799523 837.815045 
L 1567.409572 837.815045 
L 1567.946255 831.878399 
L 1569.556304 831.878399 
L 1570.092987 818.60593 
L 1573.849767 818.510863 
L 1574.38645 822.264591 
L 1575.996499 822.264591 
L 1576.533182 824.589932 
L 1578.143231 824.589932 
L 1578.679914 819.144115 
L 1580.289963 819.144115 
L 1580.826646 821.429252 
L 1582.436694 821.429252 
L 1582.973377 818.229665 
L 1584.583426 818.229665 
L 1585.120109 821.822538 
L 1586.730158 821.822538 
L 1587.266841 818.453193 
L 1591.023622 818.453193 
L 1591.560305 815.019568 
L 1593.170354 815.019568 
L 1593.707037 804.883746 
L 1595.317085 804.883746 
L 1595.853768 796.093697 
L 1597.463817 796.093697 
L 1598.0005 801.456414 
L 1599.610549 801.456414 
L 1600.147232 803.603708 
L 1606.050744 803.603708 
L 1606.587427 793.60203 
L 1608.197476 793.60203 
L 1608.734159 774.785066 
L 1610.344208 774.785066 
L 1610.880891 765.660085 
L 1612.49094 765.660085 
L 1613.027623 759.213581 
L 1614.637672 759.213581 
L 1615.174355 754.987529 
L 1616.784403 754.987529 
L 1617.321086 744.895201 
L 1618.931135 744.895201 
L 1619.467818 738.124086 
L 1621.077867 738.124086 
L 1621.61455 732.869043 
L 1623.224599 732.869043 
L 1623.761282 722.111893 
L 1625.371331 722.111893 
L 1625.908014 715.741573 
L 1627.518063 715.741573 
L 1628.054746 706.952858 
L 1629.664794 706.952858 
L 1630.201477 704.539226 
L 1631.811526 704.539226 
L 1632.348209 694.625659 
L 1633.958258 694.625659 
L 1634.494941 686.411424 
L 1636.10499 686.411424 
L 1636.641673 678.342081 
L 1638.251722 678.342081 
L 1638.788405 670.593912 
L 1642.545185 670.593912 
L 1643.081868 665.207339 
L 1644.691917 665.207339 
L 1645.2286 660.530425 
L 1646.838649 660.530425 
L 1647.375332 662.723243 
L 1648.985381 662.723243 
L 1649.522064 658.581145 
L 1651.132112 658.581145 
L 1651.668795 651.383524 
L 1653.278844 651.383524 
L 1653.815527 646.218937 
L 1655.425576 646.218937 
L 1655.962259 641.011276 
L 1657.572308 641.011276 
L 1658.108991 634.118925 
L 1659.71904 634.118925 
L 1660.255723 619.439371 
L 1661.865772 619.439371 
L 1662.402455 617.797128 
L 1664.012503 617.797128 
L 1664.549186 615.500096 
L 1666.159235 615.500096 
L 1666.695918 606.484655 
L 1668.305967 606.484655 
L 1668.84265 600.036172 
L 1670.452699 600.036172 
L 1670.989382 595.591696 
L 1672.599431 595.591696 
L 1673.136114 587.607185 
L 1674.746162 587.607185 
L 1675.282845 578.509081 
L 1676.892894 578.509081 
L 1677.429577 573.670624 
L 1679.039626 573.670624 
L 1679.576309 572.782343 
L 1681.186358 572.782343 
L 1681.723041 570.205076 
L 1683.33309 570.205076 
L 1683.869773 566.742306 
L 1685.479821 566.742306 
L 1686.016504 561.672697 
L 1687.626553 561.672697 
L 1688.163236 560.017096 
L 1689.773285 560.017096 
L 1690.309968 552.872959 
L 1691.920017 552.872959 
L 1692.4567 550.42885 
L 1694.066749 550.42885 
L 1694.603432 546.718913 
L 1696.213481 546.718913 
L 1696.750164 543.028077 
L 1698.360212 543.028077 
L 1698.896895 538.950617 
L 1702.653676 538.950617 
L 1703.190359 536.531465 
L 1704.800408 536.531465 
L 1705.337091 535.321162 
L 1706.94714 535.321162 
L 1707.483823 530.11451 
L 1711.240603 530.11451 
L 1711.777286 531.313924 
L 1713.387335 531.313924 
L 1713.924018 531.718694 
L 1715.534067 531.718694 
L 1716.07075 529.409405 
L 1717.680799 529.409405 
L 1718.217482 521.97965 
L 1719.82753 521.97965 
L 1720.364213 518.988984 
L 1721.974262 518.988984 
L 1722.510945 519.680052 
L 1724.120994 519.680052 
L 1724.657677 512.40199 
L 1726.267726 512.40199 
L 1726.804409 506.467035 
L 1728.414458 506.467035 
L 1728.951141 505.503758 
L 1730.56119 505.503758 
L 1731.097873 502.728326 
L 1732.707921 502.728326 
L 1733.244604 498.785495 
L 1734.854653 498.785495 
L 1735.391336 498.178121 
L 1737.001385 498.178121 
L 1737.538068 494.02808 
L 1739.148117 494.02808 
L 1739.6848 490.788778 
L 1741.294849 490.788778 
L 1741.831532 485.473133 
L 1743.44158 485.473133 
L 1743.978263 482.327388 
L 1745.588312 482.327388 
L 1746.124995 478.129426 
L 1747.735044 478.129426 
L 1748.271727 474.275557 
L 1749.881776 474.275557 
L 1750.418459 471.251782 
L 1752.028508 471.251782 
L 1752.565191 470.739838 
L 1754.175239 470.739838 
L 1754.711922 466.990597 
L 1756.321971 466.990597 
L 1756.858654 461.794557 
L 1758.468703 461.794557 
L 1759.005386 457.254535 
L 1760.615435 457.254535 
L 1761.152118 450.994244 
L 1762.762167 450.994244 
L 1763.29885 445.333791 
L 1764.908899 445.333791 
L 1765.445582 431.992986 
L 1767.05563 431.992986 
L 1767.592313 422.575802 
L 1769.202362 422.575802 
L 1769.739045 415.609488 
L 1771.349094 415.609488 
L 1771.885777 411.245894 
L 1773.495826 411.245894 
L 1774.032509 405.042029 
L 1775.642558 405.042029 
L 1776.179241 400.589412 
L 1777.789289 400.589412 
L 1778.325972 390.252489 
L 1779.936021 390.252489 
L 1780.472704 384.537599 
L 1782.082753 384.537599 
L 1782.619436 378.763164 
L 1784.229485 378.763164 
L 1784.766168 374.139996 
L 1786.376217 374.139996 
L 1786.9129 368.491278 
L 1788.522948 368.491278 
L 1789.059631 363.130952 
L 1790.66968 363.130952 
L 1791.206363 357.197119 
L 1792.816412 357.197119 
L 1793.353095 351.053998 
L 1794.963144 351.053998 
L 1795.499827 349.118689 
L 1797.109876 349.118689 
L 1797.646559 345.550881 
L 1799.256608 345.550881 
L 1799.793291 344.276342 
L 1801.403339 344.276342 
L 1801.940022 342.74308 
L 1803.550071 342.74308 
L 1804.086754 340.214829 
L 1805.696803 340.214829 
L 1806.233486 336.208153 
L 1807.843535 336.208153 
L 1808.380218 334.706943 
L 1809.990267 334.706943 
L 1810.52695 332.231557 
L 1812.136998 332.231557 
L 1812.673681 330.024082 
L 1816.430462 330.024082 
L 1816.967145 329.781392 
L 1818.577194 329.781392 
L 1819.113877 328.063715 
L 1820.723926 328.063715 
L 1821.260609 327.322786 
L 1822.870657 327.322786 
L 1823.40734 325.629287 
L 1825.017389 325.629287 
L 1825.554072 324.427359 
L 1827.164121 324.427359 
L 1827.700804 321.691794 
L 1829.310853 321.691794 
L 1829.847536 317.144355 
L 1831.457585 317.144355 
L 1831.994268 316.181933 
L 1833.604317 316.181933 
L 1834.140999 311.377599 
L 1835.751048 311.377599 
L 1836.287731 308.317027 
L 1837.89778 308.317027 
L 1838.434463 306.415214 
L 1840.044512 306.415214 
L 1840.581195 303.191057 
L 1842.191244 303.191057 
L 1842.727927 298.669386 
L 1844.337976 298.669386 
L 1844.874659 295.137795 
L 1846.484707 295.137795 
L 1847.02139 289.77958 
L 1848.631439 289.77958 
L 1849.168122 287.581326 
L 1850.778171 287.581326 
L 1851.314854 285.222085 
L 1852.924903 285.222085 
L 1853.461586 279.885567 
L 1855.071635 279.885567 
L 1855.608318 278.812631 
L 1857.218366 278.812631 
L 1857.755049 277.588995 
L 1859.365098 277.588995 
L 1859.901781 274.53849 
L 1861.51183 274.53849 
L 1862.048513 271.968767 
L 1863.658562 271.968767 
L 1864.195245 268.156703 
L 1865.805294 268.156703 
L 1866.341977 264.157926 
L 1867.952026 264.157926 
L 1868.488708 262.395748 
L 1870.098757 262.395748 
L 1870.63544 259.445187 
L 1872.245489 259.445187 
L 1872.782172 257.916434 
L 1874.392221 257.916434 
L 1874.928904 258.472983 
L 1876.538953 258.472983 
L 1877.075636 254.123182 
L 1878.685685 254.123182 
L 1879.222368 253.93402 
L 1880.832416 253.93402 
L 1881.369099 251.806055 
L 1885.12588 251.806055 
L 1885.662563 249.372861 
L 1887.272612 249.372861 
L 1887.809295 247.388071 
L 1889.419344 247.388071 
L 1889.956027 244.873538 
L 1891.566075 244.873538 
L 1892.102758 244.0086 
L 1893.712807 244.0086 
L 1894.24949 240.674938 
L 1895.859539 240.674938 
L 1896.396222 238.270495 
L 1898.006271 238.270495 
L 1898.542954 235.783185 
L 1900.153003 235.783185 
L 1900.689686 230.335589 
L 1902.299735 230.335589 
L 1902.836417 226.577547 
L 1906.593198 226.574521 
L 1907.129881 225.493912 
L 1908.73993 225.493912 
L 1909.276613 227.135609 
L 1910.886662 227.135609 
L 1911.423345 223.780909 
L 1913.033394 223.780909 
L 1913.570077 225.996431 
L 1915.180125 225.996431 
L 1915.716808 223.343499 
L 1917.326857 223.343499 
L 1917.86354 223.2 
L 1919.473589 223.2 
L 1920.010272 223.918685 
L 1921.620321 223.918685 
L 1921.620321 223.918685 
" clip-path="url(#pfa3f2c28ab)" style="fill: none; stroke: #0000ff; stroke-width: 1.5; stroke-linecap: square"/>
   </g>
   <g id="patch_15">
    <path d="M 1451.647059 1281.6 
L 1451.647059 172.8 
" style="fill: none; stroke: #000000; stroke-width: 0.8; stroke-linejoin: miter; stroke-linecap: square"/>
   </g>
   <g id="patch_16">
    <path d="M 1944 1281.6 
L 1944 172.8 
" style="fill: none; stroke: #000000; stroke-width: 0.8; stroke-linejoin: miter; stroke-linecap: square"/>
   </g>
   <g id="patch_17">
    <path d="M 1451.647059 1281.6 
L 1944 1281.6 
" style="fill: none; stroke: #000000; stroke-width: 0.8; stroke-linejoin: miter; stroke-linecap: square"/>
   </g>
   <g id="patch_18">
    <path d="M 1451.647059 172.8 
L 1944 172.8 
" style="fill: none; stroke: #000000; stroke-width: 0.8; stroke-linejoin: miter; stroke-linecap: square"/>
   </g>
   <g id="legend_3">
    <g id="patch_19">
     <path d="M 1852.957813 195.478125 
L 1937 195.478125 
Q 1939 195.478125 1939 193.478125 
L 1939 179.8 
Q 1939 177.8 1937 177.8 
L 1852.957813 177.8 
Q 1850.957813 177.8 1850.957813 179.8 
L 1850.957813 193.478125 
Q 1850.957813 195.478125 1852.957813 195.478125 
z
" style="fill: #ffffff; opacity: 0.8; stroke: #cccccc; stroke-linejoin: miter"/>
    </g>
    <g id="line2d_44">
     <path d="M 1854.957813 185.898437 
L 1864.957813 185.898437 
L 1874.957813 185.898437 
" style="fill: none; stroke: #0000ff; stroke-width: 1.5; stroke-linecap: square"/>
    </g>
    <g id="text_41">
     <!-- O3 reward -->
     <g transform="translate(1882.957813 189.398437) scale(0.1 -0.1)">
      <use xlink:href="#DejaVuSans-4f"/>
      <use xlink:href="#DejaVuSans-33" x="78.710938"/>
      <use xlink:href="#DejaVuSans-20" x="142.333984"/>
      <use xlink:href="#DejaVuSans-72" x="174.121094"/>
      <use xlink:href="#DejaVuSans-65" x="212.984375"/>
      <use xlink:href="#DejaVuSans-77" x="274.507812"/>
      <use xlink:href="#DejaVuSans-61" x="356.294922"/>
      <use xlink:href="#DejaVuSans-72" x="417.574219"/>
      <use xlink:href="#DejaVuSans-64" x="456.9375"/>
     </g>
    </g>
   </g>
  </g>
 </g>
 <defs>
  <clipPath id="p7879b3e8cf">
   <rect x="270" y="172.8" width="492.352941" height="1108.8"/>
  </clipPath>
  <clipPath id="p93f4323da1">
   <rect x="860.823529" y="172.8" width="492.352941" height="1108.8"/>
  </clipPath>
  <clipPath id="pfa3f2c28ab">
   <rect x="1451.647059" y="172.8" width="492.352941" height="1108.8"/>
  </clipPath>
 </defs>
</svg>
