<?xml version="1.0" encoding="utf-8" standalone="no"?>
<!DOCTYPE svg PUBLIC "-//W3C//DTD SVG 1.1//EN"
  "http://www.w3.org/Graphics/SVG/1.1/DTD/svg11.dtd">
<svg xmlns:xlink="http://www.w3.org/1999/xlink" width="2160pt" height="1440pt" viewBox="0 0 2160 1440" xmlns="http://www.w3.org/2000/svg" version="1.1">
 <metadata>
  <rdf:RDF xmlns:dc="http://purl.org/dc/elements/1.1/" xmlns:cc="http://creativecommons.org/ns#" xmlns:rdf="http://www.w3.org/1999/02/22-rdf-syntax-ns#">
   <cc:Work>
    <dc:type rdf:resource="http://purl.org/dc/dcmitype/StillImage"/>
    <dc:date>2023-05-31T19:34:01.533117</dc:date>
    <dc:format>image/svg+xml</dc:format>
    <dc:creator>
     <cc:Agent>
      <dc:title>Matplotlib v3.7.1, https://matplotlib.org/</dc:title>
     </cc:Agent>
    </dc:creator>
   </cc:Work>
  </rdf:RDF>
 </metadata>
 <defs>
  <style type="text/css">*{stroke-linejoin: round; stroke-linecap: butt}</style>
 </defs>
 <g id="figure_1">
  <g id="patch_1">
   <path d="M 0 1440 
L 2160 1440 
L 2160 0 
L 0 0 
z
" style="fill: #ffffff"/>
  </g>
  <g id="axes_1">
   <g id="patch_2">
    <path d="M 270 1281.6 
L 762.352941 1281.6 
L 762.352941 172.8 
L 270 172.8 
z
" style="fill: #ffffff"/>
   </g>
   <g id="matplotlib.axis_1">
    <g id="xtick_1">
     <g id="line2d_1">
      <defs>
       <path id="m232e13dd7c" d="M 0 0 
L 0 3.5 
" style="stroke: #000000; stroke-width: 0.8"/>
      </defs>
      <g>
       <use xlink:href="#m232e13dd7c" x="291.895271" y="1281.6" style="stroke: #000000; stroke-width: 0.8"/>
      </g>
     </g>
     <g id="text_1">
      <!-- 0 -->
      <g transform="translate(288.714021 1296.198437) scale(0.1 -0.1)">
       <defs>
        <path id="DejaVuSans-30" d="M 2034 4250 
Q 1547 4250 1301 3770 
Q 1056 3291 1056 2328 
Q 1056 1369 1301 889 
Q 1547 409 2034 409 
Q 2525 409 2770 889 
Q 3016 1369 3016 2328 
Q 3016 3291 2770 3770 
Q 2525 4250 2034 4250 
z
M 2034 4750 
Q 2819 4750 3233 4129 
Q 3647 3509 3647 2328 
Q 3647 1150 3233 529 
Q 2819 -91 2034 -91 
Q 1250 -91 836 529 
Q 422 1150 422 2328 
Q 422 3509 836 4129 
Q 1250 4750 2034 4750 
z
" transform="scale(0.015625)"/>
       </defs>
       <use xlink:href="#DejaVuSans-30"/>
      </g>
     </g>
    </g>
    <g id="xtick_2">
     <g id="line2d_2">
      <g>
       <use xlink:href="#m232e13dd7c" x="388.776998" y="1281.6" style="stroke: #000000; stroke-width: 0.8"/>
      </g>
     </g>
     <g id="text_2">
      <!-- 200 -->
      <g transform="translate(379.233248 1296.198437) scale(0.1 -0.1)">
       <defs>
        <path id="DejaVuSans-32" d="M 1228 531 
L 3431 531 
L 3431 0 
L 469 0 
L 469 531 
Q 828 903 1448 1529 
Q 2069 2156 2228 2338 
Q 2531 2678 2651 2914 
Q 2772 3150 2772 3378 
Q 2772 3750 2511 3984 
Q 2250 4219 1831 4219 
Q 1534 4219 1204 4116 
Q 875 4013 500 3803 
L 500 4441 
Q 881 4594 1212 4672 
Q 1544 4750 1819 4750 
Q 2544 4750 2975 4387 
Q 3406 4025 3406 3419 
Q 3406 3131 3298 2873 
Q 3191 2616 2906 2266 
Q 2828 2175 2409 1742 
Q 1991 1309 1228 531 
z
" transform="scale(0.015625)"/>
       </defs>
       <use xlink:href="#DejaVuSans-32"/>
       <use xlink:href="#DejaVuSans-30" x="63.623047"/>
       <use xlink:href="#DejaVuSans-30" x="127.246094"/>
      </g>
     </g>
    </g>
    <g id="xtick_3">
     <g id="line2d_3">
      <g>
       <use xlink:href="#m232e13dd7c" x="485.658726" y="1281.6" style="stroke: #000000; stroke-width: 0.8"/>
      </g>
     </g>
     <g id="text_3">
      <!-- 400 -->
      <g transform="translate(476.114976 1296.198437) scale(0.1 -0.1)">
       <defs>
        <path id="DejaVuSans-34" d="M 2419 4116 
L 825 1625 
L 2419 1625 
L 2419 4116 
z
M 2253 4666 
L 3047 4666 
L 3047 1625 
L 3713 1625 
L 3713 1100 
L 3047 1100 
L 3047 0 
L 2419 0 
L 2419 1100 
L 313 1100 
L 313 1709 
L 2253 4666 
z
" transform="scale(0.015625)"/>
       </defs>
       <use xlink:href="#DejaVuSans-34"/>
       <use xlink:href="#DejaVuSans-30" x="63.623047"/>
       <use xlink:href="#DejaVuSans-30" x="127.246094"/>
      </g>
     </g>
    </g>
    <g id="xtick_4">
     <g id="line2d_4">
      <g>
       <use xlink:href="#m232e13dd7c" x="582.540454" y="1281.6" style="stroke: #000000; stroke-width: 0.8"/>
      </g>
     </g>
     <g id="text_4">
      <!-- 600 -->
      <g transform="translate(572.996704 1296.198437) scale(0.1 -0.1)">
       <defs>
        <path id="DejaVuSans-36" d="M 2113 2584 
Q 1688 2584 1439 2293 
Q 1191 2003 1191 1497 
Q 1191 994 1439 701 
Q 1688 409 2113 409 
Q 2538 409 2786 701 
Q 3034 994 3034 1497 
Q 3034 2003 2786 2293 
Q 2538 2584 2113 2584 
z
M 3366 4563 
L 3366 3988 
Q 3128 4100 2886 4159 
Q 2644 4219 2406 4219 
Q 1781 4219 1451 3797 
Q 1122 3375 1075 2522 
Q 1259 2794 1537 2939 
Q 1816 3084 2150 3084 
Q 2853 3084 3261 2657 
Q 3669 2231 3669 1497 
Q 3669 778 3244 343 
Q 2819 -91 2113 -91 
Q 1303 -91 875 529 
Q 447 1150 447 2328 
Q 447 3434 972 4092 
Q 1497 4750 2381 4750 
Q 2619 4750 2861 4703 
Q 3103 4656 3366 4563 
z
" transform="scale(0.015625)"/>
       </defs>
       <use xlink:href="#DejaVuSans-36"/>
       <use xlink:href="#DejaVuSans-30" x="63.623047"/>
       <use xlink:href="#DejaVuSans-30" x="127.246094"/>
      </g>
     </g>
    </g>
    <g id="xtick_5">
     <g id="line2d_5">
      <g>
       <use xlink:href="#m232e13dd7c" x="679.422182" y="1281.6" style="stroke: #000000; stroke-width: 0.8"/>
      </g>
     </g>
     <g id="text_5">
      <!-- 800 -->
      <g transform="translate(669.878432 1296.198437) scale(0.1 -0.1)">
       <defs>
        <path id="DejaVuSans-38" d="M 2034 2216 
Q 1584 2216 1326 1975 
Q 1069 1734 1069 1313 
Q 1069 891 1326 650 
Q 1584 409 2034 409 
Q 2484 409 2743 651 
Q 3003 894 3003 1313 
Q 3003 1734 2745 1975 
Q 2488 2216 2034 2216 
z
M 1403 2484 
Q 997 2584 770 2862 
Q 544 3141 544 3541 
Q 544 4100 942 4425 
Q 1341 4750 2034 4750 
Q 2731 4750 3128 4425 
Q 3525 4100 3525 3541 
Q 3525 3141 3298 2862 
Q 3072 2584 2669 2484 
Q 3125 2378 3379 2068 
Q 3634 1759 3634 1313 
Q 3634 634 3220 271 
Q 2806 -91 2034 -91 
Q 1263 -91 848 271 
Q 434 634 434 1313 
Q 434 1759 690 2068 
Q 947 2378 1403 2484 
z
M 1172 3481 
Q 1172 3119 1398 2916 
Q 1625 2713 2034 2713 
Q 2441 2713 2670 2916 
Q 2900 3119 2900 3481 
Q 2900 3844 2670 4047 
Q 2441 4250 2034 4250 
Q 1625 4250 1398 4047 
Q 1172 3844 1172 3481 
z
" transform="scale(0.015625)"/>
       </defs>
       <use xlink:href="#DejaVuSans-38"/>
       <use xlink:href="#DejaVuSans-30" x="63.623047"/>
       <use xlink:href="#DejaVuSans-30" x="127.246094"/>
      </g>
     </g>
    </g>
   </g>
   <g id="matplotlib.axis_2">
    <g id="ytick_1">
     <g id="line2d_6">
      <defs>
       <path id="m9be0131988" d="M 0 0 
L -3.5 0 
" style="stroke: #000000; stroke-width: 0.8"/>
      </defs>
      <g>
       <use xlink:href="#m9be0131988" x="270" y="1257.558414" style="stroke: #000000; stroke-width: 0.8"/>
      </g>
     </g>
     <g id="text_6">
      <!-- −12 -->
      <g transform="translate(241.895312 1261.357632) scale(0.1 -0.1)">
       <defs>
        <path id="DejaVuSans-2212" d="M 678 2272 
L 4684 2272 
L 4684 1741 
L 678 1741 
L 678 2272 
z
" transform="scale(0.015625)"/>
        <path id="DejaVuSans-31" d="M 794 531 
L 1825 531 
L 1825 4091 
L 703 3866 
L 703 4441 
L 1819 4666 
L 2450 4666 
L 2450 531 
L 3481 531 
L 3481 0 
L 794 0 
L 794 531 
z
" transform="scale(0.015625)"/>
       </defs>
       <use xlink:href="#DejaVuSans-2212"/>
       <use xlink:href="#DejaVuSans-31" x="83.789062"/>
       <use xlink:href="#DejaVuSans-32" x="147.412109"/>
      </g>
     </g>
    </g>
    <g id="ytick_2">
     <g id="line2d_7">
      <g>
       <use xlink:href="#m9be0131988" x="270" y="1087.99146" style="stroke: #000000; stroke-width: 0.8"/>
      </g>
     </g>
     <g id="text_7">
      <!-- −10 -->
      <g transform="translate(241.895312 1091.790679) scale(0.1 -0.1)">
       <use xlink:href="#DejaVuSans-2212"/>
       <use xlink:href="#DejaVuSans-31" x="83.789062"/>
       <use xlink:href="#DejaVuSans-30" x="147.412109"/>
      </g>
     </g>
    </g>
    <g id="ytick_3">
     <g id="line2d_8">
      <g>
       <use xlink:href="#m9be0131988" x="270" y="918.424507" style="stroke: #000000; stroke-width: 0.8"/>
      </g>
     </g>
     <g id="text_8">
      <!-- −8 -->
      <g transform="translate(248.257812 922.223726) scale(0.1 -0.1)">
       <use xlink:href="#DejaVuSans-2212"/>
       <use xlink:href="#DejaVuSans-38" x="83.789062"/>
      </g>
     </g>
    </g>
    <g id="ytick_4">
     <g id="line2d_9">
      <g>
       <use xlink:href="#m9be0131988" x="270" y="748.857554" style="stroke: #000000; stroke-width: 0.8"/>
      </g>
     </g>
     <g id="text_9">
      <!-- −6 -->
      <g transform="translate(248.257812 752.656773) scale(0.1 -0.1)">
       <use xlink:href="#DejaVuSans-2212"/>
       <use xlink:href="#DejaVuSans-36" x="83.789062"/>
      </g>
     </g>
    </g>
    <g id="ytick_5">
     <g id="line2d_10">
      <g>
       <use xlink:href="#m9be0131988" x="270" y="579.290601" style="stroke: #000000; stroke-width: 0.8"/>
      </g>
     </g>
     <g id="text_10">
      <!-- −4 -->
      <g transform="translate(248.257812 583.08982) scale(0.1 -0.1)">
       <use xlink:href="#DejaVuSans-2212"/>
       <use xlink:href="#DejaVuSans-34" x="83.789062"/>
      </g>
     </g>
    </g>
    <g id="ytick_6">
     <g id="line2d_11">
      <g>
       <use xlink:href="#m9be0131988" x="270" y="409.723648" style="stroke: #000000; stroke-width: 0.8"/>
      </g>
     </g>
     <g id="text_11">
      <!-- −2 -->
      <g transform="translate(248.257812 413.522867) scale(0.1 -0.1)">
       <use xlink:href="#DejaVuSans-2212"/>
       <use xlink:href="#DejaVuSans-32" x="83.789062"/>
      </g>
     </g>
    </g>
    <g id="ytick_7">
     <g id="line2d_12">
      <g>
       <use xlink:href="#m9be0131988" x="270" y="240.156695" style="stroke: #000000; stroke-width: 0.8"/>
      </g>
     </g>
     <g id="text_12">
      <!-- 0 -->
      <g transform="translate(256.6375 243.955914) scale(0.1 -0.1)">
       <use xlink:href="#DejaVuSans-30"/>
      </g>
     </g>
    </g>
   </g>
   <g id="line2d_13">
    <path d="M 292.379679 240.156695 
L 316.600111 240.156695 
L 317.08452 223.2 
L 318.537746 223.2 
L 319.022154 234.504464 
L 320.47538 234.504464 
L 320.959789 253.722052 
L 322.413015 253.722052 
L 322.897423 255.895987 
L 324.350649 255.895987 
L 324.835058 277.449002 
L 326.288284 277.449002 
L 326.772693 286.817053 
L 328.225918 286.817053 
L 328.710327 296.843036 
L 330.163553 296.843036 
L 330.647962 305.648029 
L 332.101188 305.648029 
L 332.585596 317.068836 
L 334.038822 317.068836 
L 334.523231 325.759527 
L 337.914091 325.759527 
L 338.3985 318.564862 
L 341.78936 318.564862 
L 342.273769 328.7938 
L 343.726995 328.7938 
L 344.211404 320.150606 
L 345.664629 320.150606 
L 346.149038 313.178024 
L 349.539899 313.178024 
L 350.024307 314.929038 
L 351.477533 314.929038 
L 351.961942 306.323983 
L 355.352802 306.323983 
L 355.837211 297.753393 
L 357.290437 297.753393 
L 357.774845 289.215627 
L 359.228071 289.215627 
L 359.71248 297.125368 
L 361.165706 297.125368 
L 361.650115 284.279386 
L 365.040975 284.279386 
L 365.525384 272.374203 
L 366.97861 272.374203 
L 367.463018 279.864441 
L 368.916244 279.864441 
L 369.400653 272.374203 
L 370.853879 272.374203 
L 371.338287 283.816188 
L 374.729148 283.816188 
L 375.213556 291.892497 
L 376.666782 291.892497 
L 377.151191 305.960951 
L 378.604417 305.960951 
L 379.088826 303.846583 
L 380.542052 303.846583 
L 381.02646 309.170431 
L 382.479686 309.170431 
L 382.964095 307.138128 
L 384.417321 307.138128 
L 384.901729 305.151159 
L 386.354955 305.151159 
L 386.839364 308.635781 
L 388.29259 308.635781 
L 388.776998 328.587378 
L 390.230224 328.587378 
L 390.714633 321.47624 
L 392.167859 321.47624 
L 392.652268 326.994898 
L 394.105493 326.994898 
L 394.589902 346.688993 
L 396.043128 346.688993 
L 396.527537 353.415355 
L 397.980763 353.415355 
L 398.465171 359.348299 
L 403.793666 359.348299 
L 404.278075 365.925918 
L 405.731301 365.925918 
L 406.215709 378.436481 
L 407.668935 378.436481 
L 408.153344 371.869325 
L 409.60657 371.869325 
L 410.090979 384.401385 
L 411.544204 384.401385 
L 412.028613 396.818185 
L 413.481839 396.818185 
L 413.966248 402.812321 
L 415.419474 402.812321 
L 415.903882 421.765944 
L 417.357108 421.765944 
L 417.841517 434.501933 
L 419.294743 434.501933 
L 419.779151 453.681534 
L 421.232377 453.681534 
L 421.716786 472.539377 
L 423.170012 472.539377 
L 423.65442 485.207984 
L 425.107646 485.207984 
L 425.592055 491.686929 
L 427.045281 491.686929 
L 427.52969 504.355536 
L 428.982915 504.355536 
L 429.467324 498.252832 
L 430.92055 498.252832 
L 431.404959 486.196953 
L 432.858185 486.196953 
L 433.342593 474.280292 
L 434.795819 474.280292 
L 435.280228 468.321961 
L 436.733454 468.321961 
L 437.217862 481.058114 
L 440.608723 481.115093 
L 441.093131 482.206632 
L 442.546357 482.206632 
L 443.030766 502.045462 
L 446.421627 502.03856 
L 446.906035 490.609164 
L 448.359261 490.609164 
L 448.84367 484.901071 
L 450.296896 484.901071 
L 450.781304 473.503743 
L 452.23453 473.503743 
L 452.718939 486.52645 
L 454.172165 486.52645 
L 454.656573 492.222015 
L 458.047434 492.222015 
L 458.531842 497.91758 
L 459.985068 497.91758 
L 460.469477 492.227841 
L 461.922703 492.227841 
L 462.407112 488.305743 
L 463.860338 488.305743 
L 464.344746 477.04867 
L 465.797972 477.04867 
L 466.282381 478.940369 
L 467.735607 478.940369 
L 468.220015 488.536253 
L 469.673241 488.536253 
L 470.15765 490.648451 
L 471.610876 490.648451 
L 472.095284 485.064086 
L 475.486145 485.064086 
L 475.970554 498.313537 
L 477.423779 498.313537 
L 477.908188 492.80698 
L 479.361414 492.80698 
L 479.845823 487.304811 
L 481.299049 487.304811 
L 481.783457 489.60311 
L 483.236683 489.60311 
L 483.721092 491.948273 
L 485.174318 491.948273 
L 485.658726 499.808325 
L 487.111952 499.808325 
L 487.596361 513.190037 
L 489.049587 513.190037 
L 489.533995 534.501899 
L 490.987221 534.501899 
L 491.47163 547.88361 
L 492.924856 547.88361 
L 493.409265 566.708895 
L 494.86249 566.708895 
L 495.346899 588.028799 
L 496.800125 588.028799 
L 497.284534 606.814784 
L 498.73776 606.814784 
L 499.222168 633.651384 
L 500.675394 633.651384 
L 501.159803 655.130969 
L 502.613029 655.130969 
L 503.097437 660.545776 
L 504.550663 660.545776 
L 505.035072 682.078377 
L 506.488298 682.078377 
L 506.972706 684.732791 
L 508.425932 684.732791 
L 508.910341 700.906489 
L 512.301201 700.906489 
L 512.78561 708.992153 
L 516.176471 709.007098 
L 516.660879 717.10209 
L 518.114105 717.10209 
L 518.598514 711.741809 
L 521.989374 711.738775 
L 522.473783 719.892011 
L 523.927009 719.892011 
L 524.411417 733.392265 
L 525.864643 733.392265 
L 526.349052 722.753711 
L 527.802278 722.753711 
L 528.286687 725.68683 
L 529.739912 725.68683 
L 530.224321 715.113701 
L 531.677547 715.113701 
L 532.161956 699.317808 
L 533.615182 699.317808 
L 534.09959 707.610943 
L 535.552816 707.610943 
L 536.037225 691.859103 
L 537.490451 691.859103 
L 537.974859 705.42883 
L 539.428085 705.42883 
L 539.912494 703.267974 
L 545.240989 703.267974 
L 545.725398 698.056163 
L 547.178624 698.056163 
L 547.663032 687.644539 
L 549.116258 687.644539 
L 549.600667 677.240298 
L 551.053893 677.240298 
L 551.538301 656.467449 
L 552.991527 656.467449 
L 553.475936 635.787912 
L 554.929162 635.787912 
L 555.41357 620.323672 
L 556.866796 620.323672 
L 557.351205 604.897555 
L 558.804431 604.897555 
L 559.28884 599.76448 
L 560.742065 599.76448 
L 561.226474 584.390531 
L 562.6797 584.390531 
L 563.164109 574.153001 
L 566.554969 574.157166 
L 567.039378 569.047586 
L 568.492604 569.047586 
L 568.977012 553.736113 
L 570.430238 553.736113 
L 570.914647 567.46702 
L 572.367873 567.46702 
L 572.852281 552.183108 
L 574.305507 552.183108 
L 574.789916 569.499587 
L 576.243142 569.499587 
L 576.727551 602.08267 
L 578.180776 602.08267 
L 578.665185 597.001155 
L 580.118411 597.001155 
L 580.60282 595.520675 
L 582.056046 595.520675 
L 582.540454 575.234988 
L 583.99368 575.234988 
L 584.478089 583.944461 
L 585.931315 583.944461 
L 586.415723 606.432194 
L 587.868949 606.432194 
L 588.353358 627.574662 
L 589.806584 627.574662 
L 590.290992 641.353011 
L 591.744218 641.353011 
L 592.228627 665.206 
L 593.681853 665.206 
L 594.166262 687.751172 
L 595.619487 687.751172 
L 596.103896 701.541958 
L 597.557122 701.541958 
L 598.041531 710.318058 
L 599.494757 710.318058 
L 599.979165 712.825465 
L 601.432391 712.825465 
L 601.9168 735.422722 
L 603.370026 735.422722 
L 603.854434 754.243953 
L 605.30766 754.243953 
L 605.792069 758.041856 
L 607.245295 758.041856 
L 607.729703 766.849644 
L 609.182929 766.849644 
L 609.667338 793.303687 
L 611.120564 793.303687 
L 611.604973 815.954993 
L 613.058198 815.954993 
L 613.542607 856.315219 
L 614.995833 856.315219 
L 615.480242 905.591922 
L 616.933468 905.591922 
L 617.417876 923.325331 
L 618.871102 923.325331 
L 619.355511 959.907768 
L 620.808737 959.907768 
L 621.293145 990.470869 
L 622.746371 990.470869 
L 623.23078 985.496637 
L 624.684006 985.496637 
L 625.168414 975.556841 
L 626.62164 975.556841 
L 627.106049 965.621377 
L 630.49691 965.620051 
L 630.981318 960.656263 
L 632.434544 960.656263 
L 632.918953 955.691163 
L 634.372179 955.691163 
L 634.856587 945.769186 
L 636.309813 945.769186 
L 636.794222 939.808291 
L 638.247448 939.808291 
L 638.731856 938.811382 
L 640.185082 938.811382 
L 640.669491 960.624071 
L 642.122717 960.624071 
L 642.607125 955.672238 
L 644.060351 955.672238 
L 644.54476 964.600842 
L 645.997986 964.600842 
L 646.482395 982.465861 
L 647.935621 982.465861 
L 648.420029 981.502761 
L 649.873255 981.502761 
L 650.357664 990.443039 
L 651.81089 990.443039 
L 652.295298 1002.449258 
L 653.748524 1002.449258 
L 654.232933 1006.459705 
L 655.686159 1006.459705 
L 656.170567 1014.488338 
L 657.623793 1014.488338 
L 658.108202 1019.422248 
L 659.561428 1019.422248 
L 660.045837 1013.58222 
L 661.499062 1013.58222 
L 661.983471 1012.682094 
L 663.436697 1012.682094 
L 663.921106 1026.578718 
L 665.374332 1026.578718 
L 665.85874 1011.788019 
L 667.311966 1011.788019 
L 667.796375 1015.828111 
L 669.249601 1015.828111 
L 669.734009 1037.820962 
L 671.187235 1037.820962 
L 671.671644 1032.895073 
L 673.12487 1032.895073 
L 673.609278 1045.925931 
L 675.062504 1045.925931 
L 675.546913 1058.970676 
L 677.000139 1058.970676 
L 677.484548 1072.020779 
L 678.937773 1072.020779 
L 679.422182 1113.751926 
L 680.875408 1113.751926 
L 681.359817 1118.670982 
L 682.813043 1118.670982 
L 683.297451 1137.504417 
L 684.750677 1137.504417 
L 685.235086 1136.678813 
L 686.688312 1136.678813 
L 687.17272 1141.593393 
L 690.563581 1141.593393 
L 691.047989 1151.420693 
L 692.501215 1151.420693 
L 692.985624 1150.607338 
L 694.43885 1150.607338 
L 694.923259 1144.888204 
L 696.376484 1144.888204 
L 696.860893 1144.087875 
L 698.314119 1144.087875 
L 698.798528 1148.204893 
L 700.251754 1148.204893 
L 700.736162 1156.441325 
L 702.189388 1156.441325 
L 702.673797 1151.537854 
L 704.127023 1151.537854 
L 704.611431 1150.759558 
L 706.064657 1150.759558 
L 706.549066 1168.818558 
L 708.002292 1168.818558 
L 708.4867 1177.084205 
L 709.939926 1177.084205 
L 710.424335 1181.220023 
L 711.877561 1181.220023 
L 712.36197 1171.429438 
L 713.815195 1171.429438 
L 714.299604 1179.725919 
L 715.75283 1179.725919 
L 716.237239 1169.943469 
L 717.690465 1169.943469 
L 718.174873 1168.483056 
L 719.628099 1168.483056 
L 720.112508 1195.638754 
L 723.503368 1195.638754 
L 723.987777 1204.697598 
L 725.441003 1204.697598 
L 725.925411 1208.874563 
L 729.316272 1208.876943 
L 729.800681 1208.182846 
L 731.253907 1208.182846 
L 731.738315 1231.2 
L 733.191541 1231.2 
L 733.67595 1221.441823 
L 735.129176 1221.441823 
L 735.613584 1216.562735 
L 737.06681 1216.562735 
L 737.551219 1220.758293 
L 739.004445 1220.758293 
L 739.488853 1211.002802 
L 739.973262 1211.002802 
L 739.973262 1211.002802 
" clip-path="url(#p307365a5e1)" style="fill: none; stroke: #0000ff; stroke-width: 1.5; stroke-linecap: square"/>
   </g>
   <g id="patch_3">
    <path d="M 270 1281.6 
L 270 172.8 
" style="fill: none; stroke: #000000; stroke-width: 0.8; stroke-linejoin: miter; stroke-linecap: square"/>
   </g>
   <g id="patch_4">
    <path d="M 762.352941 1281.6 
L 762.352941 172.8 
" style="fill: none; stroke: #000000; stroke-width: 0.8; stroke-linejoin: miter; stroke-linecap: square"/>
   </g>
   <g id="patch_5">
    <path d="M 270 1281.6 
L 762.352941 1281.6 
" style="fill: none; stroke: #000000; stroke-width: 0.8; stroke-linejoin: miter; stroke-linecap: square"/>
   </g>
   <g id="patch_6">
    <path d="M 270 172.8 
L 762.352941 172.8 
" style="fill: none; stroke: #000000; stroke-width: 0.8; stroke-linejoin: miter; stroke-linecap: square"/>
   </g>
   <g id="legend_1">
    <g id="patch_7">
     <path d="M 671.310754 195.478125 
L 755.352941 195.478125 
Q 757.352941 195.478125 757.352941 193.478125 
L 757.352941 179.8 
Q 757.352941 177.8 755.352941 177.8 
L 671.310754 177.8 
Q 669.310754 177.8 669.310754 179.8 
L 669.310754 193.478125 
Q 669.310754 195.478125 671.310754 195.478125 
z
" style="fill: #ffffff; opacity: 0.8; stroke: #cccccc; stroke-linejoin: miter"/>
    </g>
    <g id="line2d_14">
     <path d="M 673.310754 185.898437 
L 683.310754 185.898437 
L 693.310754 185.898437 
" style="fill: none; stroke: #0000ff; stroke-width: 1.5; stroke-linecap: square"/>
    </g>
    <g id="text_13">
     <!-- O1 reward -->
     <g transform="translate(701.310754 189.398437) scale(0.1 -0.1)">
      <defs>
       <path id="DejaVuSans-4f" d="M 2522 4238 
Q 1834 4238 1429 3725 
Q 1025 3213 1025 2328 
Q 1025 1447 1429 934 
Q 1834 422 2522 422 
Q 3209 422 3611 934 
Q 4013 1447 4013 2328 
Q 4013 3213 3611 3725 
Q 3209 4238 2522 4238 
z
M 2522 4750 
Q 3503 4750 4090 4092 
Q 4678 3434 4678 2328 
Q 4678 1225 4090 567 
Q 3503 -91 2522 -91 
Q 1538 -91 948 565 
Q 359 1222 359 2328 
Q 359 3434 948 4092 
Q 1538 4750 2522 4750 
z
" transform="scale(0.015625)"/>
       <path id="DejaVuSans-20" transform="scale(0.015625)"/>
       <path id="DejaVuSans-72" d="M 2631 2963 
Q 2534 3019 2420 3045 
Q 2306 3072 2169 3072 
Q 1681 3072 1420 2755 
Q 1159 2438 1159 1844 
L 1159 0 
L 581 0 
L 581 3500 
L 1159 3500 
L 1159 2956 
Q 1341 3275 1631 3429 
Q 1922 3584 2338 3584 
Q 2397 3584 2469 3576 
Q 2541 3569 2628 3553 
L 2631 2963 
z
" transform="scale(0.015625)"/>
       <path id="DejaVuSans-65" d="M 3597 1894 
L 3597 1613 
L 953 1613 
Q 991 1019 1311 708 
Q 1631 397 2203 397 
Q 2534 397 2845 478 
Q 3156 559 3463 722 
L 3463 178 
Q 3153 47 2828 -22 
Q 2503 -91 2169 -91 
Q 1331 -91 842 396 
Q 353 884 353 1716 
Q 353 2575 817 3079 
Q 1281 3584 2069 3584 
Q 2775 3584 3186 3129 
Q 3597 2675 3597 1894 
z
M 3022 2063 
Q 3016 2534 2758 2815 
Q 2500 3097 2075 3097 
Q 1594 3097 1305 2825 
Q 1016 2553 972 2059 
L 3022 2063 
z
" transform="scale(0.015625)"/>
       <path id="DejaVuSans-77" d="M 269 3500 
L 844 3500 
L 1563 769 
L 2278 3500 
L 2956 3500 
L 3675 769 
L 4391 3500 
L 4966 3500 
L 4050 0 
L 3372 0 
L 2619 2869 
L 1863 0 
L 1184 0 
L 269 3500 
z
" transform="scale(0.015625)"/>
       <path id="DejaVuSans-61" d="M 2194 1759 
Q 1497 1759 1228 1600 
Q 959 1441 959 1056 
Q 959 750 1161 570 
Q 1363 391 1709 391 
Q 2188 391 2477 730 
Q 2766 1069 2766 1631 
L 2766 1759 
L 2194 1759 
z
M 3341 1997 
L 3341 0 
L 2766 0 
L 2766 531 
Q 2569 213 2275 61 
Q 1981 -91 1556 -91 
Q 1019 -91 701 211 
Q 384 513 384 1019 
Q 384 1609 779 1909 
Q 1175 2209 1959 2209 
L 2766 2209 
L 2766 2266 
Q 2766 2663 2505 2880 
Q 2244 3097 1772 3097 
Q 1472 3097 1187 3025 
Q 903 2953 641 2809 
L 641 3341 
Q 956 3463 1253 3523 
Q 1550 3584 1831 3584 
Q 2591 3584 2966 3190 
Q 3341 2797 3341 1997 
z
" transform="scale(0.015625)"/>
       <path id="DejaVuSans-64" d="M 2906 2969 
L 2906 4863 
L 3481 4863 
L 3481 0 
L 2906 0 
L 2906 525 
Q 2725 213 2448 61 
Q 2172 -91 1784 -91 
Q 1150 -91 751 415 
Q 353 922 353 1747 
Q 353 2572 751 3078 
Q 1150 3584 1784 3584 
Q 2172 3584 2448 3432 
Q 2725 3281 2906 2969 
z
M 947 1747 
Q 947 1113 1208 752 
Q 1469 391 1925 391 
Q 2381 391 2643 752 
Q 2906 1113 2906 1747 
Q 2906 2381 2643 2742 
Q 2381 3103 1925 3103 
Q 1469 3103 1208 2742 
Q 947 2381 947 1747 
z
" transform="scale(0.015625)"/>
      </defs>
      <use xlink:href="#DejaVuSans-4f"/>
      <use xlink:href="#DejaVuSans-31" x="78.710938"/>
      <use xlink:href="#DejaVuSans-20" x="142.333984"/>
      <use xlink:href="#DejaVuSans-72" x="174.121094"/>
      <use xlink:href="#DejaVuSans-65" x="212.984375"/>
      <use xlink:href="#DejaVuSans-77" x="274.507812"/>
      <use xlink:href="#DejaVuSans-61" x="356.294922"/>
      <use xlink:href="#DejaVuSans-72" x="417.574219"/>
      <use xlink:href="#DejaVuSans-64" x="456.9375"/>
     </g>
    </g>
   </g>
  </g>
  <g id="axes_2">
   <g id="patch_8">
    <path d="M 860.823529 1281.6 
L 1353.176471 1281.6 
L 1353.176471 172.8 
L 860.823529 172.8 
z
" style="fill: #ffffff"/>
   </g>
   <g id="matplotlib.axis_3">
    <g id="xtick_6">
     <g id="line2d_15">
      <g>
       <use xlink:href="#m232e13dd7c" x="882.7188" y="1281.6" style="stroke: #000000; stroke-width: 0.8"/>
      </g>
     </g>
     <g id="text_14">
      <!-- 0 -->
      <g transform="translate(879.53755 1296.198437) scale(0.1 -0.1)">
       <use xlink:href="#DejaVuSans-30"/>
      </g>
     </g>
    </g>
    <g id="xtick_7">
     <g id="line2d_16">
      <g>
       <use xlink:href="#m232e13dd7c" x="979.600528" y="1281.6" style="stroke: #000000; stroke-width: 0.8"/>
      </g>
     </g>
     <g id="text_15">
      <!-- 200 -->
      <g transform="translate(970.056778 1296.198437) scale(0.1 -0.1)">
       <use xlink:href="#DejaVuSans-32"/>
       <use xlink:href="#DejaVuSans-30" x="63.623047"/>
       <use xlink:href="#DejaVuSans-30" x="127.246094"/>
      </g>
     </g>
    </g>
    <g id="xtick_8">
     <g id="line2d_17">
      <g>
       <use xlink:href="#m232e13dd7c" x="1076.482256" y="1281.6" style="stroke: #000000; stroke-width: 0.8"/>
      </g>
     </g>
     <g id="text_16">
      <!-- 400 -->
      <g transform="translate(1066.938506 1296.198437) scale(0.1 -0.1)">
       <use xlink:href="#DejaVuSans-34"/>
       <use xlink:href="#DejaVuSans-30" x="63.623047"/>
       <use xlink:href="#DejaVuSans-30" x="127.246094"/>
      </g>
     </g>
    </g>
    <g id="xtick_9">
     <g id="line2d_18">
      <g>
       <use xlink:href="#m232e13dd7c" x="1173.363984" y="1281.6" style="stroke: #000000; stroke-width: 0.8"/>
      </g>
     </g>
     <g id="text_17">
      <!-- 600 -->
      <g transform="translate(1163.820234 1296.198437) scale(0.1 -0.1)">
       <use xlink:href="#DejaVuSans-36"/>
       <use xlink:href="#DejaVuSans-30" x="63.623047"/>
       <use xlink:href="#DejaVuSans-30" x="127.246094"/>
      </g>
     </g>
    </g>
    <g id="xtick_10">
     <g id="line2d_19">
      <g>
       <use xlink:href="#m232e13dd7c" x="1270.245712" y="1281.6" style="stroke: #000000; stroke-width: 0.8"/>
      </g>
     </g>
     <g id="text_18">
      <!-- 800 -->
      <g transform="translate(1260.701962 1296.198437) scale(0.1 -0.1)">
       <use xlink:href="#DejaVuSans-38"/>
       <use xlink:href="#DejaVuSans-30" x="63.623047"/>
       <use xlink:href="#DejaVuSans-30" x="127.246094"/>
      </g>
     </g>
    </g>
   </g>
   <g id="matplotlib.axis_4">
    <g id="ytick_8">
     <g id="line2d_20">
      <g>
       <use xlink:href="#m9be0131988" x="860.823529" y="1231.2" style="stroke: #000000; stroke-width: 0.8"/>
      </g>
     </g>
     <g id="text_19">
      <!-- 0 -->
      <g transform="translate(847.461029 1234.999219) scale(0.1 -0.1)">
       <use xlink:href="#DejaVuSans-30"/>
      </g>
     </g>
    </g>
    <g id="ytick_9">
     <g id="line2d_21">
      <g>
       <use xlink:href="#m9be0131988" x="860.823529" y="993.870383" style="stroke: #000000; stroke-width: 0.8"/>
      </g>
     </g>
     <g id="text_20">
      <!-- 20 -->
      <g transform="translate(841.098529 997.669602) scale(0.1 -0.1)">
       <use xlink:href="#DejaVuSans-32"/>
       <use xlink:href="#DejaVuSans-30" x="63.623047"/>
      </g>
     </g>
    </g>
    <g id="ytick_10">
     <g id="line2d_22">
      <g>
       <use xlink:href="#m9be0131988" x="860.823529" y="756.540766" style="stroke: #000000; stroke-width: 0.8"/>
      </g>
     </g>
     <g id="text_21">
      <!-- 40 -->
      <g transform="translate(841.098529 760.339985) scale(0.1 -0.1)">
       <use xlink:href="#DejaVuSans-34"/>
       <use xlink:href="#DejaVuSans-30" x="63.623047"/>
      </g>
     </g>
    </g>
    <g id="ytick_11">
     <g id="line2d_23">
      <g>
       <use xlink:href="#m9be0131988" x="860.823529" y="519.211149" style="stroke: #000000; stroke-width: 0.8"/>
      </g>
     </g>
     <g id="text_22">
      <!-- 60 -->
      <g transform="translate(841.098529 523.010367) scale(0.1 -0.1)">
       <use xlink:href="#DejaVuSans-36"/>
       <use xlink:href="#DejaVuSans-30" x="63.623047"/>
      </g>
     </g>
    </g>
    <g id="ytick_12">
     <g id="line2d_24">
      <g>
       <use xlink:href="#m9be0131988" x="860.823529" y="281.881532" style="stroke: #000000; stroke-width: 0.8"/>
      </g>
     </g>
     <g id="text_23">
      <!-- 80 -->
      <g transform="translate(841.098529 285.68075) scale(0.1 -0.1)">
       <use xlink:href="#DejaVuSans-38"/>
       <use xlink:href="#DejaVuSans-30" x="63.623047"/>
      </g>
     </g>
    </g>
   </g>
   <g id="line2d_25">
    <path d="M 883.203209 1231.2 
L 905.486006 1231.112269 
L 905.970415 1226.331507 
L 907.423641 1226.331507 
L 907.908049 1228.205208 
L 909.361275 1228.205208 
L 909.845684 1227.090918 
L 911.29891 1227.090918 
L 911.783318 1229.287598 
L 913.236544 1229.287598 
L 913.720953 1219.418394 
L 915.174179 1219.418394 
L 915.658587 1204.458136 
L 917.111813 1204.458136 
L 917.596222 1197.015722 
L 919.049448 1197.015722 
L 919.533857 1177.411741 
L 920.987082 1177.411741 
L 921.471491 1159.344324 
L 930.675255 1159.344324 
L 931.159664 1151.502778 
L 936.488159 1151.502778 
L 936.972568 1143.139628 
L 942.301063 1143.139628 
L 942.785471 1131.744981 
L 944.238697 1131.744981 
L 944.723106 1128.545456 
L 946.176332 1128.545456 
L 946.66074 1125.024759 
L 950.051601 1125.024759 
L 950.536009 1103.413689 
L 951.989235 1103.413689 
L 952.473644 1069.428475 
L 953.92687 1069.428475 
L 954.411279 1060.375137 
L 955.864504 1060.375137 
L 956.348913 1042.941458 
L 957.802139 1042.941458 
L 958.286548 1000.739064 
L 959.739774 1000.739064 
L 960.224182 971.36613 
L 981.053754 971.36613 
L 981.538162 962.705267 
L 986.866657 962.705267 
L 987.351066 954.171683 
L 988.804292 954.171683 
L 989.288701 945.548878 
L 990.741927 945.548878 
L 991.226335 936.839139 
L 994.617196 936.839139 
L 995.101604 933.765012 
L 1002.367734 933.765012 
L 1002.852143 930.60827 
L 1004.305368 930.60827 
L 1004.789777 909.653116 
L 1006.243003 909.653116 
L 1006.727412 893.650027 
L 1008.180638 893.650027 
L 1008.665046 858.183927 
L 1010.118272 858.183927 
L 1010.602681 826.983518 
L 1012.055907 826.983518 
L 1012.540315 802.391596 
L 1013.993541 802.391596 
L 1014.47795 772.15062 
L 1015.931176 772.15062 
L 1016.415584 735.421498 
L 1017.86881 735.421498 
L 1018.353219 718.995257 
L 1019.806445 718.995257 
L 1020.290854 696.245915 
L 1025.619349 696.245915 
L 1026.103757 691.110041 
L 1027.556983 691.110041 
L 1028.041392 680.490166 
L 1029.494618 680.490166 
L 1029.979026 687.819109 
L 1031.432252 687.819109 
L 1031.916661 691.305011 
L 1033.369887 691.305011 
L 1033.854295 698.546346 
L 1035.307521 698.546346 
L 1035.79193 702.284151 
L 1037.245156 702.284151 
L 1037.729565 705.680637 
L 1039.18279 705.680637 
L 1039.667199 695.216858 
L 1043.05806 695.216858 
L 1043.542468 688.101262 
L 1044.995694 688.101262 
L 1045.480103 684.82304 
L 1046.933329 684.82304 
L 1047.417737 674.543104 
L 1048.870963 674.543104 
L 1049.355372 654.264888 
L 1050.808598 654.264888 
L 1051.293006 644.555802 
L 1052.746232 644.555802 
L 1053.230641 636.115037 
L 1054.683867 636.115037 
L 1055.168276 630.650569 
L 1056.621501 630.650569 
L 1057.10591 621.675233 
L 1058.559136 621.675233 
L 1059.043545 630.561928 
L 1060.496771 630.561928 
L 1060.981179 650.470216 
L 1062.434405 650.470216 
L 1062.918814 644.230097 
L 1064.37204 644.230097 
L 1064.856448 627.109455 
L 1066.309674 627.109455 
L 1066.794083 612.583135 
L 1068.247309 612.583135 
L 1068.731717 614.680838 
L 1070.184943 614.680838 
L 1070.669352 600.884915 
L 1072.122578 600.884915 
L 1072.606987 589.029687 
L 1074.060213 589.029687 
L 1074.544621 587.1081 
L 1077.935482 587.037839 
L 1078.41989 588.903316 
L 1079.873116 588.903316 
L 1080.357525 585.252932 
L 1081.810751 585.252932 
L 1082.295159 573.857918 
L 1083.748385 573.857918 
L 1084.232794 575.569049 
L 1085.68602 575.569049 
L 1086.170429 571.692305 
L 1087.623654 571.692305 
L 1088.108063 560.589521 
L 1089.561289 560.589521 
L 1090.045698 553.457502 
L 1091.498924 553.457502 
L 1091.983332 546.382911 
L 1093.436558 546.382911 
L 1093.920967 542.530743 
L 1095.374193 542.530743 
L 1095.858601 540.243666 
L 1099.249462 540.243666 
L 1099.73387 554.076122 
L 1101.187096 554.076122 
L 1101.671505 560.889242 
L 1103.124731 560.889242 
L 1103.60914 558.465296 
L 1105.062365 558.465296 
L 1105.546774 563.666797 
L 1107 563.666797 
L 1107.484409 564.955404 
L 1108.937635 564.955404 
L 1109.422043 579.05658 
L 1110.875269 579.05658 
L 1111.359678 581.748867 
L 1112.812904 581.748867 
L 1113.297312 593.015929 
L 1114.750538 593.015929 
L 1115.234947 592.466359 
L 1116.688173 592.466359 
L 1117.172581 581.490343 
L 1118.625807 581.490343 
L 1119.110216 574.465782 
L 1120.563442 574.465782 
L 1121.047851 573.427264 
L 1122.501076 573.427264 
L 1122.985485 567.537671 
L 1124.438711 567.537671 
L 1124.92312 557.825543 
L 1126.376346 557.825543 
L 1126.860754 561.715664 
L 1128.31398 561.715664 
L 1128.798389 565.599321 
L 1130.251615 565.599321 
L 1130.736023 564.674465 
L 1132.189249 564.674465 
L 1132.673658 560.777815 
L 1134.126884 560.777815 
L 1134.611292 550.323906 
L 1136.064518 550.323906 
L 1136.548927 543.837485 
L 1139.939787 543.837485 
L 1140.424196 538.284137 
L 1141.877422 538.284137 
L 1142.361831 544.57146 
L 1143.815057 544.57146 
L 1144.299465 555.374146 
L 1145.752691 555.374146 
L 1146.2371 558.570389 
L 1147.690326 558.570389 
L 1148.174734 557.923645 
L 1149.62796 557.923645 
L 1150.112369 556.666991 
L 1151.565595 556.666991 
L 1152.050003 559.390789 
L 1153.503229 559.390789 
L 1153.987638 549.418852 
L 1155.440864 549.418852 
L 1155.925273 524.93679 
L 1157.378499 524.93679 
L 1157.862907 510.505097 
L 1159.316133 510.505097 
L 1159.800542 491.526043 
L 1161.253768 491.526043 
L 1161.738176 472.424066 
L 1163.191402 472.424066 
L 1163.675811 454.330996 
L 1165.129037 454.330996 
L 1165.613445 444.88222 
L 1167.066671 444.88222 
L 1167.55108 431.653944 
L 1169.004306 431.653944 
L 1169.488714 413.827487 
L 1170.94194 413.827487 
L 1171.426349 405.02289 
L 1172.879575 405.02289 
L 1173.363984 391.956699 
L 1174.81721 391.956699 
L 1175.301618 396.482848 
L 1176.754844 396.482848 
L 1177.239253 388.687575 
L 1178.692479 388.687575 
L 1179.176887 401.282597 
L 1180.630113 401.282597 
L 1181.114522 401.637714 
L 1182.567748 401.637714 
L 1183.052156 401.931692 
L 1184.505382 401.931692 
L 1184.989791 398.171217 
L 1186.443017 398.171217 
L 1186.927426 398.301732 
L 1188.380651 398.301732 
L 1188.86506 398.540037 
L 1190.318286 398.540037 
L 1190.802695 410.790379 
L 1192.255921 410.790379 
L 1192.740329 418.757783 
L 1194.193555 418.757783 
L 1194.677964 422.655499 
L 1196.13119 422.655499 
L 1196.615598 418.751374 
L 1198.068824 418.751374 
L 1198.553233 414.689861 
L 1200.006459 414.689861 
L 1200.490867 406.740611 
L 1201.944093 406.740611 
L 1202.428502 398.882146 
L 1205.819362 398.866376 
L 1206.303771 402.821187 
L 1207.756997 402.821187 
L 1208.241406 398.99944 
L 1209.694632 398.99944 
L 1210.17904 395.200289 
L 1211.632266 395.200289 
L 1212.116675 395.338236 
L 1213.569901 395.338236 
L 1214.054309 410.801257 
L 1215.507535 410.801257 
L 1215.991944 414.775043 
L 1217.44517 414.775043 
L 1217.929578 404.116399 
L 1219.382804 404.116399 
L 1219.867213 408.150541 
L 1221.320439 408.150541 
L 1221.804848 412.501026 
L 1223.258073 412.501026 
L 1223.742482 408.77107 
L 1225.195708 408.77107 
L 1225.680117 409.117148 
L 1227.133343 409.117148 
L 1227.617751 413.998333 
L 1229.070977 413.998333 
L 1229.555386 415.330457 
L 1232.946246 415.332999 
L 1233.430655 404.387302 
L 1234.883881 404.387302 
L 1235.368289 397.118114 
L 1236.821515 397.118114 
L 1237.305924 393.487137 
L 1238.75915 393.487137 
L 1239.243559 386.237465 
L 1240.696784 386.237465 
L 1241.181193 382.618751 
L 1242.634419 382.618751 
L 1243.118828 379.002387 
L 1244.572054 379.002387 
L 1245.056462 371.776565 
L 1246.509688 371.776565 
L 1246.994097 364.559722 
L 1248.447323 364.559722 
L 1248.931731 357.351609 
L 1250.384957 357.351609 
L 1250.869366 353.750781 
L 1252.322592 353.750781 
L 1252.807 342.980733 
L 1254.260226 342.980733 
L 1254.744635 335.823914 
L 1256.197861 335.823914 
L 1256.68227 332.248579 
L 1260.07313 332.248579 
L 1260.557539 328.675269 
L 1262.010765 328.675269 
L 1262.495173 317.978996 
L 1263.948399 317.978996 
L 1264.432808 307.321703 
L 1265.886034 307.321703 
L 1266.370442 296.707559 
L 1267.823668 296.707559 
L 1268.308077 289.653444 
L 1269.761303 289.653444 
L 1270.245712 279.107173 
L 1271.698937 279.107173 
L 1272.183346 291.282081 
L 1273.636572 291.282081 
L 1274.120981 300.829187 
L 1275.574207 300.829187 
L 1276.058615 303.501136 
L 1277.511841 303.501136 
L 1277.99625 306.257247 
L 1279.449476 306.257247 
L 1279.933884 315.007456 
L 1283.324745 315.027908 
L 1283.809153 312.30946 
L 1285.262379 312.30946 
L 1285.746788 316.719214 
L 1287.200014 316.719214 
L 1287.684423 313.201147 
L 1289.137648 313.201147 
L 1289.622057 315.42663 
L 1291.075283 315.42663 
L 1291.559692 302.082665 
L 1293.012918 302.082665 
L 1293.497326 288.79068 
L 1294.950552 288.79068 
L 1295.434961 275.546458 
L 1296.888187 275.546458 
L 1297.372595 265.658504 
L 1298.825821 265.658504 
L 1299.31023 255.808567 
L 1300.763456 255.808567 
L 1301.247864 249.257799 
L 1302.70109 249.257799 
L 1303.185499 239.457693 
L 1304.638725 239.457693 
L 1305.123134 236.19813 
L 1306.576359 236.19813 
L 1307.060768 229.691066 
L 1308.513994 229.691066 
L 1308.998403 223.2 
L 1310.451629 223.2 
L 1310.936037 224.526033 
L 1312.389263 224.526033 
L 1312.873672 235.575329 
L 1316.264532 235.571603 
L 1316.748941 233.713884 
L 1320.139801 233.713884 
L 1320.62421 228.642636 
L 1325.952705 228.642636 
L 1326.437114 231.86137 
L 1330.796791 231.86137 
L 1330.796791 231.86137 
" clip-path="url(#p089a95787d)" style="fill: none; stroke: #0000ff; stroke-width: 1.5; stroke-linecap: square"/>
   </g>
   <g id="patch_9">
    <path d="M 860.823529 1281.6 
L 860.823529 172.8 
" style="fill: none; stroke: #000000; stroke-width: 0.8; stroke-linejoin: miter; stroke-linecap: square"/>
   </g>
   <g id="patch_10">
    <path d="M 1353.176471 1281.6 
L 1353.176471 172.8 
" style="fill: none; stroke: #000000; stroke-width: 0.8; stroke-linejoin: miter; stroke-linecap: square"/>
   </g>
   <g id="patch_11">
    <path d="M 860.823529 1281.6 
L 1353.176471 1281.6 
" style="fill: none; stroke: #000000; stroke-width: 0.8; stroke-linejoin: miter; stroke-linecap: square"/>
   </g>
   <g id="patch_12">
    <path d="M 860.823529 172.8 
L 1353.176471 172.8 
" style="fill: none; stroke: #000000; stroke-width: 0.8; stroke-linejoin: miter; stroke-linecap: square"/>
   </g>
   <g id="legend_2">
    <g id="patch_13">
     <path d="M 1262.134283 195.478125 
L 1346.176471 195.478125 
Q 1348.176471 195.478125 1348.176471 193.478125 
L 1348.176471 179.8 
Q 1348.176471 177.8 1346.176471 177.8 
L 1262.134283 177.8 
Q 1260.134283 177.8 1260.134283 179.8 
L 1260.134283 193.478125 
Q 1260.134283 195.478125 1262.134283 195.478125 
z
" style="fill: #ffffff; opacity: 0.8; stroke: #cccccc; stroke-linejoin: miter"/>
    </g>
    <g id="line2d_26">
     <path d="M 1264.134283 185.898437 
L 1274.134283 185.898437 
L 1284.134283 185.898437 
" style="fill: none; stroke: #0000ff; stroke-width: 1.5; stroke-linecap: square"/>
    </g>
    <g id="text_24">
     <!-- O2 reward -->
     <g transform="translate(1292.134283 189.398437) scale(0.1 -0.1)">
      <use xlink:href="#DejaVuSans-4f"/>
      <use xlink:href="#DejaVuSans-32" x="78.710938"/>
      <use xlink:href="#DejaVuSans-20" x="142.333984"/>
      <use xlink:href="#DejaVuSans-72" x="174.121094"/>
      <use xlink:href="#DejaVuSans-65" x="212.984375"/>
      <use xlink:href="#DejaVuSans-77" x="274.507812"/>
      <use xlink:href="#DejaVuSans-61" x="356.294922"/>
      <use xlink:href="#DejaVuSans-72" x="417.574219"/>
      <use xlink:href="#DejaVuSans-64" x="456.9375"/>
     </g>
    </g>
   </g>
  </g>
  <g id="axes_3">
   <g id="patch_14">
    <path d="M 1451.647059 1281.6 
L 1944 1281.6 
L 1944 172.8 
L 1451.647059 172.8 
z
" style="fill: #ffffff"/>
   </g>
   <g id="matplotlib.axis_5">
    <g id="xtick_11">
     <g id="line2d_27">
      <g>
       <use xlink:href="#m232e13dd7c" x="1473.542329" y="1281.6" style="stroke: #000000; stroke-width: 0.8"/>
      </g>
     </g>
     <g id="text_25">
      <!-- 0 -->
      <g transform="translate(1470.361079 1296.198437) scale(0.1 -0.1)">
       <use xlink:href="#DejaVuSans-30"/>
      </g>
     </g>
    </g>
    <g id="xtick_12">
     <g id="line2d_28">
      <g>
       <use xlink:href="#m232e13dd7c" x="1570.424057" y="1281.6" style="stroke: #000000; stroke-width: 0.8"/>
      </g>
     </g>
     <g id="text_26">
      <!-- 200 -->
      <g transform="translate(1560.880307 1296.198437) scale(0.1 -0.1)">
       <use xlink:href="#DejaVuSans-32"/>
       <use xlink:href="#DejaVuSans-30" x="63.623047"/>
       <use xlink:href="#DejaVuSans-30" x="127.246094"/>
      </g>
     </g>
    </g>
    <g id="xtick_13">
     <g id="line2d_29">
      <g>
       <use xlink:href="#m232e13dd7c" x="1667.305785" y="1281.6" style="stroke: #000000; stroke-width: 0.8"/>
      </g>
     </g>
     <g id="text_27">
      <!-- 400 -->
      <g transform="translate(1657.762035 1296.198437) scale(0.1 -0.1)">
       <use xlink:href="#DejaVuSans-34"/>
       <use xlink:href="#DejaVuSans-30" x="63.623047"/>
       <use xlink:href="#DejaVuSans-30" x="127.246094"/>
      </g>
     </g>
    </g>
    <g id="xtick_14">
     <g id="line2d_30">
      <g>
       <use xlink:href="#m232e13dd7c" x="1764.187513" y="1281.6" style="stroke: #000000; stroke-width: 0.8"/>
      </g>
     </g>
     <g id="text_28">
      <!-- 600 -->
      <g transform="translate(1754.643763 1296.198437) scale(0.1 -0.1)">
       <use xlink:href="#DejaVuSans-36"/>
       <use xlink:href="#DejaVuSans-30" x="63.623047"/>
       <use xlink:href="#DejaVuSans-30" x="127.246094"/>
      </g>
     </g>
    </g>
    <g id="xtick_15">
     <g id="line2d_31">
      <g>
       <use xlink:href="#m232e13dd7c" x="1861.069241" y="1281.6" style="stroke: #000000; stroke-width: 0.8"/>
      </g>
     </g>
     <g id="text_29">
      <!-- 800 -->
      <g transform="translate(1851.525491 1296.198437) scale(0.1 -0.1)">
       <use xlink:href="#DejaVuSans-38"/>
       <use xlink:href="#DejaVuSans-30" x="63.623047"/>
       <use xlink:href="#DejaVuSans-30" x="127.246094"/>
      </g>
     </g>
    </g>
   </g>
   <g id="matplotlib.axis_6">
    <g id="ytick_13">
     <g id="line2d_32">
      <g>
       <use xlink:href="#m9be0131988" x="1451.647059" y="1231.2" style="stroke: #000000; stroke-width: 0.8"/>
      </g>
     </g>
     <g id="text_30">
      <!-- 0.0 -->
      <g transform="translate(1428.743934 1234.999219) scale(0.1 -0.1)">
       <defs>
        <path id="DejaVuSans-2e" d="M 684 794 
L 1344 794 
L 1344 0 
L 684 0 
L 684 794 
z
" transform="scale(0.015625)"/>
       </defs>
       <use xlink:href="#DejaVuSans-30"/>
       <use xlink:href="#DejaVuSans-2e" x="63.623047"/>
       <use xlink:href="#DejaVuSans-30" x="95.410156"/>
      </g>
     </g>
    </g>
    <g id="ytick_14">
     <g id="line2d_33">
      <g>
       <use xlink:href="#m9be0131988" x="1451.647059" y="1096.802927" style="stroke: #000000; stroke-width: 0.8"/>
      </g>
     </g>
     <g id="text_31">
      <!-- 2.5 -->
      <g transform="translate(1428.743934 1100.602146) scale(0.1 -0.1)">
       <defs>
        <path id="DejaVuSans-35" d="M 691 4666 
L 3169 4666 
L 3169 4134 
L 1269 4134 
L 1269 2991 
Q 1406 3038 1543 3061 
Q 1681 3084 1819 3084 
Q 2600 3084 3056 2656 
Q 3513 2228 3513 1497 
Q 3513 744 3044 326 
Q 2575 -91 1722 -91 
Q 1428 -91 1123 -41 
Q 819 9 494 109 
L 494 744 
Q 775 591 1075 516 
Q 1375 441 1709 441 
Q 2250 441 2565 725 
Q 2881 1009 2881 1497 
Q 2881 1984 2565 2268 
Q 2250 2553 1709 2553 
Q 1456 2553 1204 2497 
Q 953 2441 691 2322 
L 691 4666 
z
" transform="scale(0.015625)"/>
       </defs>
       <use xlink:href="#DejaVuSans-32"/>
       <use xlink:href="#DejaVuSans-2e" x="63.623047"/>
       <use xlink:href="#DejaVuSans-35" x="95.410156"/>
      </g>
     </g>
    </g>
    <g id="ytick_15">
     <g id="line2d_34">
      <g>
       <use xlink:href="#m9be0131988" x="1451.647059" y="962.405855" style="stroke: #000000; stroke-width: 0.8"/>
      </g>
     </g>
     <g id="text_32">
      <!-- 5.0 -->
      <g transform="translate(1428.743934 966.205073) scale(0.1 -0.1)">
       <use xlink:href="#DejaVuSans-35"/>
       <use xlink:href="#DejaVuSans-2e" x="63.623047"/>
       <use xlink:href="#DejaVuSans-30" x="95.410156"/>
      </g>
     </g>
    </g>
    <g id="ytick_16">
     <g id="line2d_35">
      <g>
       <use xlink:href="#m9be0131988" x="1451.647059" y="828.008782" style="stroke: #000000; stroke-width: 0.8"/>
      </g>
     </g>
     <g id="text_33">
      <!-- 7.5 -->
      <g transform="translate(1428.743934 831.808001) scale(0.1 -0.1)">
       <defs>
        <path id="DejaVuSans-37" d="M 525 4666 
L 3525 4666 
L 3525 4397 
L 1831 0 
L 1172 0 
L 2766 4134 
L 525 4134 
L 525 4666 
z
" transform="scale(0.015625)"/>
       </defs>
       <use xlink:href="#DejaVuSans-37"/>
       <use xlink:href="#DejaVuSans-2e" x="63.623047"/>
       <use xlink:href="#DejaVuSans-35" x="95.410156"/>
      </g>
     </g>
    </g>
    <g id="ytick_17">
     <g id="line2d_36">
      <g>
       <use xlink:href="#m9be0131988" x="1451.647059" y="693.611709" style="stroke: #000000; stroke-width: 0.8"/>
      </g>
     </g>
     <g id="text_34">
      <!-- 10.0 -->
      <g transform="translate(1422.381434 697.410928) scale(0.1 -0.1)">
       <use xlink:href="#DejaVuSans-31"/>
       <use xlink:href="#DejaVuSans-30" x="63.623047"/>
       <use xlink:href="#DejaVuSans-2e" x="127.246094"/>
       <use xlink:href="#DejaVuSans-30" x="159.033203"/>
      </g>
     </g>
    </g>
    <g id="ytick_18">
     <g id="line2d_37">
      <g>
       <use xlink:href="#m9be0131988" x="1451.647059" y="559.214636" style="stroke: #000000; stroke-width: 0.8"/>
      </g>
     </g>
     <g id="text_35">
      <!-- 12.5 -->
      <g transform="translate(1422.381434 563.013855) scale(0.1 -0.1)">
       <use xlink:href="#DejaVuSans-31"/>
       <use xlink:href="#DejaVuSans-32" x="63.623047"/>
       <use xlink:href="#DejaVuSans-2e" x="127.246094"/>
       <use xlink:href="#DejaVuSans-35" x="159.033203"/>
      </g>
     </g>
    </g>
    <g id="ytick_19">
     <g id="line2d_38">
      <g>
       <use xlink:href="#m9be0131988" x="1451.647059" y="424.817564" style="stroke: #000000; stroke-width: 0.8"/>
      </g>
     </g>
     <g id="text_36">
      <!-- 15.0 -->
      <g transform="translate(1422.381434 428.616783) scale(0.1 -0.1)">
       <use xlink:href="#DejaVuSans-31"/>
       <use xlink:href="#DejaVuSans-35" x="63.623047"/>
       <use xlink:href="#DejaVuSans-2e" x="127.246094"/>
       <use xlink:href="#DejaVuSans-30" x="159.033203"/>
      </g>
     </g>
    </g>
    <g id="ytick_20">
     <g id="line2d_39">
      <g>
       <use xlink:href="#m9be0131988" x="1451.647059" y="290.420491" style="stroke: #000000; stroke-width: 0.8"/>
      </g>
     </g>
     <g id="text_37">
      <!-- 17.5 -->
      <g transform="translate(1422.381434 294.21971) scale(0.1 -0.1)">
       <use xlink:href="#DejaVuSans-31"/>
       <use xlink:href="#DejaVuSans-37" x="63.623047"/>
       <use xlink:href="#DejaVuSans-2e" x="127.246094"/>
       <use xlink:href="#DejaVuSans-35" x="159.033203"/>
      </g>
     </g>
    </g>
   </g>
   <g id="line2d_40">
    <path d="M 1474.026738 1231.2 
L 1494.371901 1231.2 
L 1494.856309 1210.233907 
L 1496.309535 1210.233907 
L 1496.793944 1193.480494 
L 1498.24717 1193.480494 
L 1498.731579 1179.230138 
L 1500.184805 1179.230138 
L 1500.669213 1158.110598 
L 1502.122439 1158.110598 
L 1502.606848 1151.008692 
L 1504.060074 1151.008692 
L 1504.544482 1123.360001 
L 1505.997708 1123.360001 
L 1506.482117 1131.393054 
L 1507.935343 1131.393054 
L 1508.419751 1115.658189 
L 1509.872977 1115.658189 
L 1510.357386 1100.143873 
L 1511.810612 1100.143873 
L 1512.29502 1089.619757 
L 1513.748246 1089.619757 
L 1514.232655 1071.79574 
L 1515.685881 1071.79574 
L 1516.17029 1055.064522 
L 1517.623516 1055.064522 
L 1518.107924 1044.696621 
L 1521.498785 1044.696621 
L 1521.983193 1040.132762 
L 1523.436419 1040.132762 
L 1523.920828 1030.139134 
L 1525.374054 1030.139134 
L 1525.858462 1024.573609 
L 1529.249323 1024.573609 
L 1529.733732 1020.418875 
L 1531.186957 1020.418875 
L 1531.671366 1011.316851 
L 1535.062227 1011.316851 
L 1535.546635 1007.503985 
L 1536.999861 1007.503985 
L 1537.48427 991.430247 
L 1538.937496 991.430247 
L 1539.421904 968.875678 
L 1540.87513 968.875678 
L 1541.359539 953.074781 
L 1542.812765 953.074781 
L 1543.297173 942.560571 
L 1544.750399 942.560571 
L 1545.234808 913.231362 
L 1546.688034 913.231362 
L 1547.172443 898.639427 
L 1548.625668 898.639427 
L 1549.110077 894.058599 
L 1550.563303 894.058599 
L 1551.047712 879.771795 
L 1552.500938 879.771795 
L 1552.985346 870.256718 
L 1554.438572 870.256718 
L 1554.922981 862.137287 
L 1556.376207 862.137287 
L 1556.860615 847.943479 
L 1558.313841 847.943479 
L 1558.79825 842.159683 
L 1560.251476 842.159683 
L 1560.735884 829.228939 
L 1564.126745 829.136319 
L 1564.611154 832.7934 
L 1566.064379 832.7934 
L 1566.548788 835.058871 
L 1568.002014 835.058871 
L 1568.486423 829.753267 
L 1569.939649 829.753267 
L 1570.424057 831.979569 
L 1571.877283 831.979569 
L 1572.361692 828.862361 
L 1573.814918 828.862361 
L 1574.299326 832.362729 
L 1575.752552 832.362729 
L 1576.236961 829.080134 
L 1579.627821 829.080134 
L 1580.11223 825.734914 
L 1581.565456 825.734914 
L 1582.049865 815.860058 
L 1583.50309 815.860058 
L 1583.987499 807.296326 
L 1585.440725 807.296326 
L 1585.925134 812.520969 
L 1587.37836 812.520969 
L 1587.862768 814.612977 
L 1593.191263 814.612977 
L 1593.675672 804.86881 
L 1595.128898 804.86881 
L 1595.613306 786.536325 
L 1597.066532 786.536325 
L 1597.550941 777.646283 
L 1599.004167 777.646283 
L 1599.488576 771.365757 
L 1600.941802 771.365757 
L 1601.42621 767.248513 
L 1602.879436 767.248513 
L 1603.363845 757.41603 
L 1604.817071 757.41603 
L 1605.301479 750.819251 
L 1606.754705 750.819251 
L 1607.239114 745.699509 
L 1608.69234 745.699509 
L 1609.176748 735.219322 
L 1610.629974 735.219322 
L 1611.114383 729.013018 
L 1612.567609 729.013018 
L 1613.052018 720.450584 
L 1614.505243 720.450584 
L 1614.989652 718.099096 
L 1616.442878 718.099096 
L 1616.927287 708.440772 
L 1618.380513 708.440772 
L 1618.864921 700.438029 
L 1620.318147 700.438029 
L 1620.802556 692.576446 
L 1622.255782 692.576446 
L 1622.74019 685.027768 
L 1626.131051 685.027768 
L 1626.615459 679.779882 
L 1628.068685 679.779882 
L 1628.553094 675.223384 
L 1630.00632 675.223384 
L 1630.490729 677.359744 
L 1631.943954 677.359744 
L 1632.428363 673.324292 
L 1633.881589 673.324292 
L 1634.365998 666.311987 
L 1635.819224 666.311987 
L 1636.303632 661.280372 
L 1637.756858 661.280372 
L 1638.241267 656.206792 
L 1639.694493 656.206792 
L 1640.178901 649.491898 
L 1641.632127 649.491898 
L 1642.116536 635.190296 
L 1643.569762 635.190296 
L 1644.05417 633.590336 
L 1645.507396 633.590336 
L 1645.991805 631.352445 
L 1647.445031 631.352445 
L 1647.92944 622.569124 
L 1649.382665 622.569124 
L 1649.867074 616.286669 
L 1651.3203 616.286669 
L 1651.804709 611.956625 
L 1653.257935 611.956625 
L 1653.742343 604.17769 
L 1655.195569 604.17769 
L 1655.679978 595.313834 
L 1657.133204 595.313834 
L 1657.617612 590.599952 
L 1659.070838 590.599952 
L 1659.555247 589.734541 
L 1661.008473 589.734541 
L 1661.492881 587.223631 
L 1662.946107 587.223631 
L 1663.430516 583.850016 
L 1664.883742 583.850016 
L 1665.368151 578.910934 
L 1666.821376 578.910934 
L 1667.305785 577.29796 
L 1668.759011 577.29796 
L 1669.24342 570.337761 
L 1670.696646 570.337761 
L 1671.181054 567.956581 
L 1672.63428 567.956581 
L 1673.118689 564.342163 
L 1674.571915 564.342163 
L 1675.056323 560.746355 
L 1676.509549 560.746355 
L 1676.993958 556.773877 
L 1680.384818 556.773877 
L 1680.869227 554.41701 
L 1682.322453 554.41701 
L 1682.806862 553.237868 
L 1684.260088 553.237868 
L 1684.744496 548.165271 
L 1688.135357 548.165271 
L 1688.619765 549.333804 
L 1690.072991 549.333804 
L 1690.5574 549.728152 
L 1692.010626 549.728152 
L 1692.495034 547.478321 
L 1693.94826 547.478321 
L 1694.432669 540.239859 
L 1695.885895 540.239859 
L 1696.370303 537.326193 
L 1697.823529 537.326193 
L 1698.307938 537.999468 
L 1699.761164 537.999468 
L 1700.245573 530.908793 
L 1701.698799 530.908793 
L 1702.183207 525.126645 
L 1703.636433 525.126645 
L 1704.120842 524.18817 
L 1705.574068 524.18817 
L 1706.058476 521.484196 
L 1707.511702 521.484196 
L 1707.996111 517.642881 
L 1709.449337 517.642881 
L 1709.933745 517.051144 
L 1711.386971 517.051144 
L 1711.87138 513.007955 
L 1713.324606 513.007955 
L 1713.809015 509.852055 
L 1715.26224 509.852055 
L 1715.746649 504.67327 
L 1717.199875 504.67327 
L 1717.684284 501.608519 
L 1719.13751 501.608519 
L 1719.621918 497.518641 
L 1721.075144 497.518641 
L 1721.559553 493.763998 
L 1723.012779 493.763998 
L 1723.497187 490.818075 
L 1724.950413 490.818075 
L 1725.434822 490.319312 
L 1726.888048 490.319312 
L 1727.372456 486.666603 
L 1728.825682 486.666603 
L 1729.310091 481.604344 
L 1730.763317 481.604344 
L 1731.247726 477.181214 
L 1732.700951 477.181214 
L 1733.18536 471.082106 
L 1734.638586 471.082106 
L 1735.122995 465.567392 
L 1736.576221 465.567392 
L 1737.060629 452.57007 
L 1738.513855 452.57007 
L 1738.998264 443.395349 
L 1740.45149 443.395349 
L 1740.935898 436.608396 
L 1742.389124 436.608396 
L 1742.873533 432.357151 
L 1744.326759 432.357151 
L 1744.811167 426.313016 
L 1746.264393 426.313016 
L 1746.748802 421.97504 
L 1748.202028 421.97504 
L 1748.686437 411.904261 
L 1750.139662 411.904261 
L 1750.624071 406.336511 
L 1752.077297 406.336511 
L 1752.561706 400.71075 
L 1754.014932 400.71075 
L 1754.49934 396.206614 
L 1755.952566 396.206614 
L 1756.436975 390.703333 
L 1757.890201 390.703333 
L 1758.374609 385.481019 
L 1759.827835 385.481019 
L 1760.312244 379.699964 
L 1761.76547 379.699964 
L 1762.249878 373.715008 
L 1763.703104 373.715008 
L 1764.187513 371.829528 
L 1765.640739 371.829528 
L 1766.125148 368.35358 
L 1767.578373 368.35358 
L 1768.062782 367.111856 
L 1769.516008 367.111856 
L 1770.000417 365.618071 
L 1771.453643 365.618071 
L 1771.938051 363.154914 
L 1773.391277 363.154914 
L 1773.875686 359.251397 
L 1775.328912 359.251397 
L 1775.81332 357.788839 
L 1777.266546 357.788839 
L 1777.750955 355.377187 
L 1779.204181 355.377187 
L 1779.688589 353.226547 
L 1783.07945 353.226547 
L 1783.563859 352.990105 
L 1785.017085 352.990105 
L 1785.501493 351.316654 
L 1786.954719 351.316654 
L 1787.439128 350.594802 
L 1788.892354 350.594802 
L 1789.376762 348.944904 
L 1790.829988 348.944904 
L 1791.314397 347.773922 
L 1792.767623 347.773922 
L 1793.252031 345.108789 
L 1794.705257 345.108789 
L 1795.189666 340.678433 
L 1796.642892 340.678433 
L 1797.127301 339.74079 
L 1798.580526 339.74079 
L 1799.064935 335.060153 
L 1800.518161 335.060153 
L 1801.00257 332.078381 
L 1802.455796 332.078381 
L 1802.940204 330.225534 
L 1804.39343 330.225534 
L 1804.877839 327.084389 
L 1806.331065 327.084389 
L 1806.815473 322.679137 
L 1808.268699 322.679137 
L 1808.753108 319.238473 
L 1810.206334 319.238473 
L 1810.690742 314.018215 
L 1812.143968 314.018215 
L 1812.628377 311.876559 
L 1814.081603 311.876559 
L 1814.566012 309.578062 
L 1816.019237 309.578062 
L 1816.503646 304.378942 
L 1817.956872 304.378942 
L 1818.441281 303.333631 
L 1819.894507 303.333631 
L 1820.378915 302.1415 
L 1821.832141 302.1415 
L 1822.31655 299.169536 
L 1823.769776 299.169536 
L 1824.254184 296.665975 
L 1825.70741 296.665975 
L 1826.191819 292.95206 
L 1827.645045 292.95206 
L 1828.129453 289.056239 
L 1829.582679 289.056239 
L 1830.067088 287.339432 
L 1831.520314 287.339432 
L 1832.004723 284.464838 
L 1833.457948 284.464838 
L 1833.942357 282.975446 
L 1835.395583 282.975446 
L 1835.879992 283.517666 
L 1837.333218 283.517666 
L 1837.817626 279.279858 
L 1839.270852 279.279858 
L 1839.755261 279.095567 
L 1841.208487 279.095567 
L 1841.692895 277.02239 
L 1845.083756 277.02239 
L 1845.568164 274.651843 
L 1847.02139 274.651843 
L 1847.505799 272.718156 
L 1848.959025 272.718156 
L 1849.443434 270.268363 
L 1850.896659 270.268363 
L 1851.381068 269.425695 
L 1852.834294 269.425695 
L 1853.318703 266.177864 
L 1854.771929 266.177864 
L 1855.256337 263.835329 
L 1856.709563 263.835329 
L 1857.193972 261.412059 
L 1858.647198 261.412059 
L 1859.131606 256.104721 
L 1860.584832 256.104721 
L 1861.069241 252.443438 
L 1864.460101 252.440489 
L 1864.94451 251.387703 
L 1866.397736 251.387703 
L 1866.882145 252.987131 
L 1868.335371 252.987131 
L 1868.819779 249.718804 
L 1870.273005 249.718804 
L 1870.757414 251.877284 
L 1872.21064 251.877284 
L 1872.695048 249.292656 
L 1874.148274 249.292656 
L 1874.632683 249.152852 
L 1876.085909 249.152852 
L 1876.570317 249.853033 
L 1879.961178 249.785935 
L 1880.445586 250.36248 
L 1881.898812 250.36248 
L 1882.383221 247.162468 
L 1883.836447 247.162468 
L 1884.320856 245.097067 
L 1885.774082 245.097067 
L 1886.25849 244.274674 
L 1887.711716 244.274674 
L 1888.196125 242.958368 
L 1889.649351 242.958368 
L 1890.133759 241.735343 
L 1891.586985 241.735343 
L 1892.071394 238.602384 
L 1895.462254 238.602384 
L 1895.946663 237.371218 
L 1897.399889 237.371218 
L 1897.884298 235.418873 
L 1899.337523 235.418873 
L 1899.821932 234.619845 
L 1901.275158 234.619845 
L 1901.759567 233.754208 
L 1903.212793 233.754208 
L 1903.697201 231.836143 
L 1905.150427 231.836143 
L 1905.634836 230.669301 
L 1907.088062 230.669301 
L 1907.57247 229.859292 
L 1909.025696 229.859292 
L 1909.510105 229.072792 
L 1912.900965 229.017759 
L 1913.385374 227.488585 
L 1916.776234 227.434555 
L 1917.260643 225.506609 
L 1918.713869 225.506609 
L 1919.198278 224.360562 
L 1920.651504 224.360562 
L 1921.135912 223.2 
L 1921.620321 223.2 
L 1921.620321 223.2 
" clip-path="url(#p4a1e70bccf)" style="fill: none; stroke: #0000ff; stroke-width: 1.5; stroke-linecap: square"/>
   </g>
   <g id="patch_15">
    <path d="M 1451.647059 1281.6 
L 1451.647059 172.8 
" style="fill: none; stroke: #000000; stroke-width: 0.8; stroke-linejoin: miter; stroke-linecap: square"/>
   </g>
   <g id="patch_16">
    <path d="M 1944 1281.6 
L 1944 172.8 
" style="fill: none; stroke: #000000; stroke-width: 0.8; stroke-linejoin: miter; stroke-linecap: square"/>
   </g>
   <g id="patch_17">
    <path d="M 1451.647059 1281.6 
L 1944 1281.6 
" style="fill: none; stroke: #000000; stroke-width: 0.8; stroke-linejoin: miter; stroke-linecap: square"/>
   </g>
   <g id="patch_18">
    <path d="M 1451.647059 172.8 
L 1944 172.8 
" style="fill: none; stroke: #000000; stroke-width: 0.8; stroke-linejoin: miter; stroke-linecap: square"/>
   </g>
   <g id="legend_3">
    <g id="patch_19">
     <path d="M 1852.957813 195.478125 
L 1937 195.478125 
Q 1939 195.478125 1939 193.478125 
L 1939 179.8 
Q 1939 177.8 1937 177.8 
L 1852.957813 177.8 
Q 1850.957813 177.8 1850.957813 179.8 
L 1850.957813 193.478125 
Q 1850.957813 195.478125 1852.957813 195.478125 
z
" style="fill: #ffffff; opacity: 0.8; stroke: #cccccc; stroke-linejoin: miter"/>
    </g>
    <g id="line2d_41">
     <path d="M 1854.957813 185.898437 
L 1864.957813 185.898437 
L 1874.957813 185.898437 
" style="fill: none; stroke: #0000ff; stroke-width: 1.5; stroke-linecap: square"/>
    </g>
    <g id="text_38">
     <!-- O3 reward -->
     <g transform="translate(1882.957813 189.398437) scale(0.1 -0.1)">
      <defs>
       <path id="DejaVuSans-33" d="M 2597 2516 
Q 3050 2419 3304 2112 
Q 3559 1806 3559 1356 
Q 3559 666 3084 287 
Q 2609 -91 1734 -91 
Q 1441 -91 1130 -33 
Q 819 25 488 141 
L 488 750 
Q 750 597 1062 519 
Q 1375 441 1716 441 
Q 2309 441 2620 675 
Q 2931 909 2931 1356 
Q 2931 1769 2642 2001 
Q 2353 2234 1838 2234 
L 1294 2234 
L 1294 2753 
L 1863 2753 
Q 2328 2753 2575 2939 
Q 2822 3125 2822 3475 
Q 2822 3834 2567 4026 
Q 2313 4219 1838 4219 
Q 1578 4219 1281 4162 
Q 984 4106 628 3988 
L 628 4550 
Q 988 4650 1302 4700 
Q 1616 4750 1894 4750 
Q 2613 4750 3031 4423 
Q 3450 4097 3450 3541 
Q 3450 3153 3228 2886 
Q 3006 2619 2597 2516 
z
" transform="scale(0.015625)"/>
      </defs>
      <use xlink:href="#DejaVuSans-4f"/>
      <use xlink:href="#DejaVuSans-33" x="78.710938"/>
      <use xlink:href="#DejaVuSans-20" x="142.333984"/>
      <use xlink:href="#DejaVuSans-72" x="174.121094"/>
      <use xlink:href="#DejaVuSans-65" x="212.984375"/>
      <use xlink:href="#DejaVuSans-77" x="274.507812"/>
      <use xlink:href="#DejaVuSans-61" x="356.294922"/>
      <use xlink:href="#DejaVuSans-72" x="417.574219"/>
      <use xlink:href="#DejaVuSans-64" x="456.9375"/>
     </g>
    </g>
   </g>
  </g>
 </g>
 <defs>
  <clipPath id="p307365a5e1">
   <rect x="270" y="172.8" width="492.352941" height="1108.8"/>
  </clipPath>
  <clipPath id="p089a95787d">
   <rect x="860.823529" y="172.8" width="492.352941" height="1108.8"/>
  </clipPath>
  <clipPath id="p4a1e70bccf">
   <rect x="1451.647059" y="172.8" width="492.352941" height="1108.8"/>
  </clipPath>
 </defs>
</svg>
