<?xml version="1.0" encoding="utf-8" standalone="no"?>
<!DOCTYPE svg PUBLIC "-//W3C//DTD SVG 1.1//EN"
  "http://www.w3.org/Graphics/SVG/1.1/DTD/svg11.dtd">
<svg xmlns:xlink="http://www.w3.org/1999/xlink" width="2160pt" height="1440pt" viewBox="0 0 2160 1440" xmlns="http://www.w3.org/2000/svg" version="1.1">
 <metadata>
  <rdf:RDF xmlns:dc="http://purl.org/dc/elements/1.1/" xmlns:cc="http://creativecommons.org/ns#" xmlns:rdf="http://www.w3.org/1999/02/22-rdf-syntax-ns#">
   <cc:Work>
    <dc:type rdf:resource="http://purl.org/dc/dcmitype/StillImage"/>
    <dc:date>2023-05-31T19:35:20.330936</dc:date>
    <dc:format>image/svg+xml</dc:format>
    <dc:creator>
     <cc:Agent>
      <dc:title>Matplotlib v3.7.1, https://matplotlib.org/</dc:title>
     </cc:Agent>
    </dc:creator>
   </cc:Work>
  </rdf:RDF>
 </metadata>
 <defs>
  <style type="text/css">*{stroke-linejoin: round; stroke-linecap: butt}</style>
 </defs>
 <g id="figure_1">
  <g id="patch_1">
   <path d="M 0 1440 
L 2160 1440 
L 2160 0 
L 0 0 
z
" style="fill: #ffffff"/>
  </g>
  <g id="axes_1">
   <g id="patch_2">
    <path d="M 270 1281.6 
L 762.352941 1281.6 
L 762.352941 172.8 
L 270 172.8 
z
" style="fill: #ffffff"/>
   </g>
   <g id="matplotlib.axis_1">
    <g id="xtick_1">
     <g id="line2d_1">
      <defs>
       <path id="m74cebb2040" d="M 0 0 
L 0 3.5 
" style="stroke: #000000; stroke-width: 0.8"/>
      </defs>
      <g>
       <use xlink:href="#m74cebb2040" x="291.917766" y="1281.6" style="stroke: #000000; stroke-width: 0.8"/>
      </g>
     </g>
     <g id="text_1">
      <!-- 0 -->
      <g transform="translate(288.736516 1296.198437) scale(0.1 -0.1)">
       <defs>
        <path id="DejaVuSans-30" d="M 2034 4250 
Q 1547 4250 1301 3770 
Q 1056 3291 1056 2328 
Q 1056 1369 1301 889 
Q 1547 409 2034 409 
Q 2525 409 2770 889 
Q 3016 1369 3016 2328 
Q 3016 3291 2770 3770 
Q 2525 4250 2034 4250 
z
M 2034 4750 
Q 2819 4750 3233 4129 
Q 3647 3509 3647 2328 
Q 3647 1150 3233 529 
Q 2819 -91 2034 -91 
Q 1250 -91 836 529 
Q 422 1150 422 2328 
Q 422 3509 836 4129 
Q 1250 4750 2034 4750 
z
" transform="scale(0.015625)"/>
       </defs>
       <use xlink:href="#DejaVuSans-30"/>
      </g>
     </g>
    </g>
    <g id="xtick_2">
     <g id="line2d_2">
      <g>
       <use xlink:href="#m74cebb2040" x="384.300343" y="1281.6" style="stroke: #000000; stroke-width: 0.8"/>
      </g>
     </g>
     <g id="text_2">
      <!-- 200 -->
      <g transform="translate(374.756593 1296.198437) scale(0.1 -0.1)">
       <defs>
        <path id="DejaVuSans-32" d="M 1228 531 
L 3431 531 
L 3431 0 
L 469 0 
L 469 531 
Q 828 903 1448 1529 
Q 2069 2156 2228 2338 
Q 2531 2678 2651 2914 
Q 2772 3150 2772 3378 
Q 2772 3750 2511 3984 
Q 2250 4219 1831 4219 
Q 1534 4219 1204 4116 
Q 875 4013 500 3803 
L 500 4441 
Q 881 4594 1212 4672 
Q 1544 4750 1819 4750 
Q 2544 4750 2975 4387 
Q 3406 4025 3406 3419 
Q 3406 3131 3298 2873 
Q 3191 2616 2906 2266 
Q 2828 2175 2409 1742 
Q 1991 1309 1228 531 
z
" transform="scale(0.015625)"/>
       </defs>
       <use xlink:href="#DejaVuSans-32"/>
       <use xlink:href="#DejaVuSans-30" x="63.623047"/>
       <use xlink:href="#DejaVuSans-30" x="127.246094"/>
      </g>
     </g>
    </g>
    <g id="xtick_3">
     <g id="line2d_3">
      <g>
       <use xlink:href="#m74cebb2040" x="476.682919" y="1281.6" style="stroke: #000000; stroke-width: 0.8"/>
      </g>
     </g>
     <g id="text_3">
      <!-- 400 -->
      <g transform="translate(467.139169 1296.198437) scale(0.1 -0.1)">
       <defs>
        <path id="DejaVuSans-34" d="M 2419 4116 
L 825 1625 
L 2419 1625 
L 2419 4116 
z
M 2253 4666 
L 3047 4666 
L 3047 1625 
L 3713 1625 
L 3713 1100 
L 3047 1100 
L 3047 0 
L 2419 0 
L 2419 1100 
L 313 1100 
L 313 1709 
L 2253 4666 
z
" transform="scale(0.015625)"/>
       </defs>
       <use xlink:href="#DejaVuSans-34"/>
       <use xlink:href="#DejaVuSans-30" x="63.623047"/>
       <use xlink:href="#DejaVuSans-30" x="127.246094"/>
      </g>
     </g>
    </g>
    <g id="xtick_4">
     <g id="line2d_4">
      <g>
       <use xlink:href="#m74cebb2040" x="569.065496" y="1281.6" style="stroke: #000000; stroke-width: 0.8"/>
      </g>
     </g>
     <g id="text_4">
      <!-- 600 -->
      <g transform="translate(559.521746 1296.198437) scale(0.1 -0.1)">
       <defs>
        <path id="DejaVuSans-36" d="M 2113 2584 
Q 1688 2584 1439 2293 
Q 1191 2003 1191 1497 
Q 1191 994 1439 701 
Q 1688 409 2113 409 
Q 2538 409 2786 701 
Q 3034 994 3034 1497 
Q 3034 2003 2786 2293 
Q 2538 2584 2113 2584 
z
M 3366 4563 
L 3366 3988 
Q 3128 4100 2886 4159 
Q 2644 4219 2406 4219 
Q 1781 4219 1451 3797 
Q 1122 3375 1075 2522 
Q 1259 2794 1537 2939 
Q 1816 3084 2150 3084 
Q 2853 3084 3261 2657 
Q 3669 2231 3669 1497 
Q 3669 778 3244 343 
Q 2819 -91 2113 -91 
Q 1303 -91 875 529 
Q 447 1150 447 2328 
Q 447 3434 972 4092 
Q 1497 4750 2381 4750 
Q 2619 4750 2861 4703 
Q 3103 4656 3366 4563 
z
" transform="scale(0.015625)"/>
       </defs>
       <use xlink:href="#DejaVuSans-36"/>
       <use xlink:href="#DejaVuSans-30" x="63.623047"/>
       <use xlink:href="#DejaVuSans-30" x="127.246094"/>
      </g>
     </g>
    </g>
    <g id="xtick_5">
     <g id="line2d_5">
      <g>
       <use xlink:href="#m74cebb2040" x="661.448072" y="1281.6" style="stroke: #000000; stroke-width: 0.8"/>
      </g>
     </g>
     <g id="text_5">
      <!-- 800 -->
      <g transform="translate(651.904322 1296.198437) scale(0.1 -0.1)">
       <defs>
        <path id="DejaVuSans-38" d="M 2034 2216 
Q 1584 2216 1326 1975 
Q 1069 1734 1069 1313 
Q 1069 891 1326 650 
Q 1584 409 2034 409 
Q 2484 409 2743 651 
Q 3003 894 3003 1313 
Q 3003 1734 2745 1975 
Q 2488 2216 2034 2216 
z
M 1403 2484 
Q 997 2584 770 2862 
Q 544 3141 544 3541 
Q 544 4100 942 4425 
Q 1341 4750 2034 4750 
Q 2731 4750 3128 4425 
Q 3525 4100 3525 3541 
Q 3525 3141 3298 2862 
Q 3072 2584 2669 2484 
Q 3125 2378 3379 2068 
Q 3634 1759 3634 1313 
Q 3634 634 3220 271 
Q 2806 -91 2034 -91 
Q 1263 -91 848 271 
Q 434 634 434 1313 
Q 434 1759 690 2068 
Q 947 2378 1403 2484 
z
M 1172 3481 
Q 1172 3119 1398 2916 
Q 1625 2713 2034 2713 
Q 2441 2713 2670 2916 
Q 2900 3119 2900 3481 
Q 2900 3844 2670 4047 
Q 2441 4250 2034 4250 
Q 1625 4250 1398 4047 
Q 1172 3844 1172 3481 
z
" transform="scale(0.015625)"/>
       </defs>
       <use xlink:href="#DejaVuSans-38"/>
       <use xlink:href="#DejaVuSans-30" x="63.623047"/>
       <use xlink:href="#DejaVuSans-30" x="127.246094"/>
      </g>
     </g>
    </g>
    <g id="xtick_6">
     <g id="line2d_6">
      <g>
       <use xlink:href="#m74cebb2040" x="753.830648" y="1281.6" style="stroke: #000000; stroke-width: 0.8"/>
      </g>
     </g>
     <g id="text_6">
      <!-- 1000 -->
      <g transform="translate(741.105648 1296.198437) scale(0.1 -0.1)">
       <defs>
        <path id="DejaVuSans-31" d="M 794 531 
L 1825 531 
L 1825 4091 
L 703 3866 
L 703 4441 
L 1819 4666 
L 2450 4666 
L 2450 531 
L 3481 531 
L 3481 0 
L 794 0 
L 794 531 
z
" transform="scale(0.015625)"/>
       </defs>
       <use xlink:href="#DejaVuSans-31"/>
       <use xlink:href="#DejaVuSans-30" x="63.623047"/>
       <use xlink:href="#DejaVuSans-30" x="127.246094"/>
       <use xlink:href="#DejaVuSans-30" x="190.869141"/>
      </g>
     </g>
    </g>
   </g>
   <g id="matplotlib.axis_2">
    <g id="ytick_1">
     <g id="line2d_7">
      <defs>
       <path id="m9382a2b14f" d="M 0 0 
L -3.5 0 
" style="stroke: #000000; stroke-width: 0.8"/>
      </defs>
      <g>
       <use xlink:href="#m9382a2b14f" x="270" y="1257.558414" style="stroke: #000000; stroke-width: 0.8"/>
      </g>
     </g>
     <g id="text_7">
      <!-- −12 -->
      <g transform="translate(241.895312 1261.357632) scale(0.1 -0.1)">
       <defs>
        <path id="DejaVuSans-2212" d="M 678 2272 
L 4684 2272 
L 4684 1741 
L 678 1741 
L 678 2272 
z
" transform="scale(0.015625)"/>
       </defs>
       <use xlink:href="#DejaVuSans-2212"/>
       <use xlink:href="#DejaVuSans-31" x="83.789062"/>
       <use xlink:href="#DejaVuSans-32" x="147.412109"/>
      </g>
     </g>
    </g>
    <g id="ytick_2">
     <g id="line2d_8">
      <g>
       <use xlink:href="#m9382a2b14f" x="270" y="1087.99146" style="stroke: #000000; stroke-width: 0.8"/>
      </g>
     </g>
     <g id="text_8">
      <!-- −10 -->
      <g transform="translate(241.895312 1091.790679) scale(0.1 -0.1)">
       <use xlink:href="#DejaVuSans-2212"/>
       <use xlink:href="#DejaVuSans-31" x="83.789062"/>
       <use xlink:href="#DejaVuSans-30" x="147.412109"/>
      </g>
     </g>
    </g>
    <g id="ytick_3">
     <g id="line2d_9">
      <g>
       <use xlink:href="#m9382a2b14f" x="270" y="918.424507" style="stroke: #000000; stroke-width: 0.8"/>
      </g>
     </g>
     <g id="text_9">
      <!-- −8 -->
      <g transform="translate(248.257812 922.223726) scale(0.1 -0.1)">
       <use xlink:href="#DejaVuSans-2212"/>
       <use xlink:href="#DejaVuSans-38" x="83.789062"/>
      </g>
     </g>
    </g>
    <g id="ytick_4">
     <g id="line2d_10">
      <g>
       <use xlink:href="#m9382a2b14f" x="270" y="748.857554" style="stroke: #000000; stroke-width: 0.8"/>
      </g>
     </g>
     <g id="text_10">
      <!-- −6 -->
      <g transform="translate(248.257812 752.656773) scale(0.1 -0.1)">
       <use xlink:href="#DejaVuSans-2212"/>
       <use xlink:href="#DejaVuSans-36" x="83.789062"/>
      </g>
     </g>
    </g>
    <g id="ytick_5">
     <g id="line2d_11">
      <g>
       <use xlink:href="#m9382a2b14f" x="270" y="579.290601" style="stroke: #000000; stroke-width: 0.8"/>
      </g>
     </g>
     <g id="text_11">
      <!-- −4 -->
      <g transform="translate(248.257812 583.08982) scale(0.1 -0.1)">
       <use xlink:href="#DejaVuSans-2212"/>
       <use xlink:href="#DejaVuSans-34" x="83.789062"/>
      </g>
     </g>
    </g>
    <g id="ytick_6">
     <g id="line2d_12">
      <g>
       <use xlink:href="#m9382a2b14f" x="270" y="409.723648" style="stroke: #000000; stroke-width: 0.8"/>
      </g>
     </g>
     <g id="text_12">
      <!-- −2 -->
      <g transform="translate(248.257812 413.522867) scale(0.1 -0.1)">
       <use xlink:href="#DejaVuSans-2212"/>
       <use xlink:href="#DejaVuSans-32" x="83.789062"/>
      </g>
     </g>
    </g>
    <g id="ytick_7">
     <g id="line2d_13">
      <g>
       <use xlink:href="#m9382a2b14f" x="270" y="240.156695" style="stroke: #000000; stroke-width: 0.8"/>
      </g>
     </g>
     <g id="text_13">
      <!-- 0 -->
      <g transform="translate(256.6375 243.955914) scale(0.1 -0.1)">
       <use xlink:href="#DejaVuSans-30"/>
      </g>
     </g>
    </g>
   </g>
   <g id="line2d_14">
    <path d="M 292.379679 240.156695 
L 315.475323 240.156695 
L 315.937236 223.2 
L 317.322975 223.2 
L 317.784888 234.504464 
L 319.170626 234.504464 
L 319.632539 253.722052 
L 321.018278 253.722052 
L 321.480191 255.895987 
L 322.865929 255.895987 
L 323.327842 277.449002 
L 324.713581 277.449002 
L 325.175494 286.817053 
L 326.561232 286.817053 
L 327.023145 296.843036 
L 328.408884 296.843036 
L 328.870797 305.648029 
L 330.256535 305.648029 
L 330.718448 317.068836 
L 332.104187 317.068836 
L 332.5661 325.759527 
L 335.79949 325.759527 
L 336.261403 318.564862 
L 339.494793 318.564862 
L 339.956706 328.7938 
L 341.342445 328.7938 
L 341.804358 320.150606 
L 343.190096 320.150606 
L 343.652009 313.178024 
L 346.885399 313.178024 
L 347.347312 314.929038 
L 348.733051 314.929038 
L 349.194964 306.323983 
L 352.428354 306.323983 
L 352.890267 297.753393 
L 354.276005 297.753393 
L 354.737918 289.215627 
L 356.123657 289.215627 
L 356.58557 297.125368 
L 357.971308 297.125368 
L 358.433221 284.279386 
L 361.666611 284.279386 
L 362.128524 272.374203 
L 363.514263 272.374203 
L 363.976176 279.864441 
L 365.361915 279.864441 
L 365.823827 272.374203 
L 367.209566 272.374203 
L 367.671479 283.816188 
L 370.904869 283.816188 
L 371.366782 291.892497 
L 372.752521 291.892497 
L 373.214434 305.960951 
L 374.600172 305.960951 
L 375.062085 303.846583 
L 376.447824 303.846583 
L 376.909737 309.170431 
L 378.295475 309.170431 
L 378.757388 307.138128 
L 380.143127 307.138128 
L 380.60504 305.151159 
L 381.990778 305.151159 
L 382.452691 308.635781 
L 383.83843 308.635781 
L 384.300343 328.587378 
L 385.686081 328.587378 
L 386.147994 321.47624 
L 387.533733 321.47624 
L 387.995646 326.994898 
L 389.381384 326.994898 
L 389.843297 346.688993 
L 391.229036 346.688993 
L 391.690949 353.415355 
L 393.076687 353.415355 
L 393.5386 359.348299 
L 398.619642 359.348299 
L 399.081555 365.925918 
L 400.467294 365.925918 
L 400.929206 378.436481 
L 402.314945 378.436481 
L 402.776858 371.869325 
L 404.162597 371.869325 
L 404.62451 384.401385 
L 406.010248 384.401385 
L 406.472161 396.818185 
L 407.8579 396.818185 
L 408.319813 402.812321 
L 409.705551 402.812321 
L 410.167464 421.765944 
L 411.553203 421.765944 
L 412.015116 434.501933 
L 413.400854 434.501933 
L 413.862767 453.681534 
L 415.248506 453.681534 
L 415.710419 472.539377 
L 417.096157 472.539377 
L 417.55807 485.207984 
L 418.943809 485.207984 
L 419.405722 491.686929 
L 420.79146 491.686929 
L 421.253373 504.355536 
L 422.639112 504.355536 
L 423.101025 498.252832 
L 424.486763 498.252832 
L 424.948676 486.196953 
L 426.334415 486.196953 
L 426.796328 474.280292 
L 428.182067 474.280292 
L 428.643979 468.321961 
L 430.029718 468.321961 
L 430.491631 481.058114 
L 433.725021 481.115093 
L 434.186934 482.206632 
L 435.572673 482.206632 
L 436.034586 502.045462 
L 439.267976 502.03856 
L 439.729889 490.609164 
L 441.115627 490.609164 
L 441.57754 484.901071 
L 442.963279 484.901071 
L 443.425192 473.503743 
L 444.81093 473.503743 
L 445.272843 486.52645 
L 446.658582 486.52645 
L 447.120495 492.222015 
L 450.353885 492.222015 
L 450.815798 497.91758 
L 452.201536 497.91758 
L 452.663449 492.227841 
L 454.049188 492.227841 
L 454.511101 488.305743 
L 455.896839 488.305743 
L 456.358752 477.04867 
L 457.744491 477.04867 
L 458.206404 478.940369 
L 459.592143 478.940369 
L 460.054055 488.536253 
L 461.439794 488.536253 
L 461.901707 490.648451 
L 463.287446 490.648451 
L 463.749358 485.064086 
L 466.982749 485.064086 
L 467.444662 498.313537 
L 468.8304 498.313537 
L 469.292313 492.80698 
L 470.678052 492.80698 
L 471.139965 487.304811 
L 472.525703 487.304811 
L 472.987616 489.60311 
L 474.373355 489.60311 
L 474.835268 491.948273 
L 476.221006 491.948273 
L 476.682919 499.808325 
L 478.068658 499.808325 
L 478.530571 513.190037 
L 479.916309 513.190037 
L 480.378222 534.501899 
L 481.763961 534.501899 
L 482.225874 547.88361 
L 483.611612 547.88361 
L 484.073525 566.708895 
L 485.459264 566.708895 
L 485.921177 588.028799 
L 487.306915 588.028799 
L 487.768828 606.814784 
L 489.154567 606.814784 
L 489.61648 633.651384 
L 491.002219 633.651384 
L 491.464131 655.130969 
L 492.84987 655.130969 
L 493.311783 660.545776 
L 494.697522 660.545776 
L 495.159434 682.078377 
L 496.545173 682.078377 
L 497.007086 684.732791 
L 498.392825 684.732791 
L 498.854738 700.906489 
L 502.088128 700.906489 
L 502.550041 708.992153 
L 505.783431 709.007098 
L 506.245344 717.10209 
L 507.631082 717.10209 
L 508.092995 711.741809 
L 511.326385 711.738775 
L 511.788298 719.892011 
L 513.174037 719.892011 
L 513.63595 733.392265 
L 515.021688 733.392265 
L 515.483601 722.753711 
L 516.86934 722.753711 
L 517.331253 725.68683 
L 518.716991 725.68683 
L 519.178904 715.113701 
L 520.564643 715.113701 
L 521.026556 699.317808 
L 522.412294 699.317808 
L 522.874207 707.610943 
L 524.259946 707.610943 
L 524.721859 691.859103 
L 526.107598 691.859103 
L 526.56951 705.42883 
L 527.955249 705.42883 
L 528.417162 703.267974 
L 533.498204 703.267974 
L 533.960117 698.056163 
L 535.345855 698.056163 
L 535.807768 687.644539 
L 537.193507 687.644539 
L 537.65542 677.240298 
L 539.041158 677.240298 
L 539.503071 656.467449 
L 540.88881 656.467449 
L 541.350723 635.787912 
L 542.736461 635.787912 
L 543.198374 620.323672 
L 544.584113 620.323672 
L 545.046026 604.897555 
L 546.431764 604.897555 
L 546.893677 599.76448 
L 548.279416 599.76448 
L 548.741329 584.390531 
L 550.127067 584.390531 
L 550.58898 574.153001 
L 553.82237 574.157166 
L 554.284283 569.047586 
L 555.670022 569.047586 
L 556.131935 553.736113 
L 557.517674 553.736113 
L 557.979586 567.46702 
L 559.365325 567.46702 
L 559.827238 552.183108 
L 561.212977 552.183108 
L 561.674889 569.499587 
L 563.060628 569.499587 
L 563.522541 602.08267 
L 564.90828 602.08267 
L 565.370193 597.001155 
L 566.755931 597.001155 
L 567.217844 595.520675 
L 568.603583 595.520675 
L 569.065496 575.234988 
L 570.451234 575.234988 
L 570.913147 583.944461 
L 572.298886 583.944461 
L 572.760799 606.432194 
L 574.146537 606.432194 
L 574.60845 627.574662 
L 575.994189 627.574662 
L 576.456102 641.353011 
L 577.84184 641.353011 
L 578.303753 665.206 
L 579.689492 665.206 
L 580.151405 687.751172 
L 581.537143 687.751172 
L 581.999056 701.541958 
L 583.384795 701.541958 
L 583.846708 710.318058 
L 585.232446 710.318058 
L 585.694359 712.825465 
L 587.080098 712.825465 
L 587.542011 735.422722 
L 588.92775 735.422722 
L 589.389662 754.243953 
L 590.775401 754.243953 
L 591.237314 758.041856 
L 592.623053 758.041856 
L 593.084965 766.849644 
L 594.470704 766.849644 
L 594.932617 793.303687 
L 596.318356 793.303687 
L 596.780269 815.954993 
L 598.166007 815.954993 
L 598.62792 856.315219 
L 600.013659 856.315219 
L 600.475572 905.591922 
L 601.86131 905.591922 
L 602.323223 923.325331 
L 603.708962 923.325331 
L 604.170875 959.907768 
L 605.556613 959.907768 
L 606.018526 990.470869 
L 607.404265 990.470869 
L 607.866178 985.496637 
L 609.251916 985.496637 
L 609.713829 975.556841 
L 611.099568 975.556841 
L 611.561481 965.621377 
L 614.794871 965.620051 
L 615.256784 960.656263 
L 616.642522 960.656263 
L 617.104435 955.691163 
L 618.490174 955.691163 
L 618.952087 945.769186 
L 620.337826 945.769186 
L 620.799738 939.808291 
L 622.185477 939.808291 
L 622.64739 938.811382 
L 624.033129 938.811382 
L 624.495041 960.624071 
L 625.88078 960.624071 
L 626.342693 955.672238 
L 627.728432 955.672238 
L 628.190345 964.600842 
L 629.576083 964.600842 
L 630.037996 982.465861 
L 631.423735 982.465861 
L 631.885648 981.502761 
L 633.271386 981.502761 
L 633.733299 990.443039 
L 635.119038 990.443039 
L 635.580951 1002.449258 
L 636.966689 1002.449258 
L 637.428602 1006.459705 
L 638.814341 1006.459705 
L 639.276254 1014.488338 
L 640.661992 1014.488338 
L 641.123905 1019.422248 
L 642.509644 1019.422248 
L 642.971557 1013.58222 
L 644.357295 1013.58222 
L 644.819208 1012.682094 
L 646.204947 1012.682094 
L 646.66686 1026.578718 
L 648.052598 1026.578718 
L 648.514511 1011.788019 
L 649.90025 1011.788019 
L 650.362163 1015.828111 
L 651.747902 1015.828111 
L 652.209814 1037.820962 
L 653.595553 1037.820962 
L 654.057466 1032.895073 
L 655.443205 1032.895073 
L 655.905117 1045.925931 
L 657.290856 1045.925931 
L 657.752769 1058.970676 
L 659.138508 1058.970676 
L 659.600421 1072.020779 
L 660.986159 1072.020779 
L 661.448072 1113.751926 
L 662.833811 1113.751926 
L 663.295724 1118.670982 
L 664.681462 1118.670982 
L 665.143375 1137.504417 
L 666.529114 1137.504417 
L 666.991027 1136.678813 
L 668.376765 1136.678813 
L 668.838678 1141.593393 
L 672.072068 1141.593393 
L 672.533981 1151.420693 
L 673.91972 1151.420693 
L 674.381633 1150.607338 
L 675.767371 1150.607338 
L 676.229284 1144.888204 
L 677.615023 1144.888204 
L 678.076936 1144.087875 
L 679.462674 1144.087875 
L 679.924587 1148.204893 
L 681.310326 1148.204893 
L 681.772239 1156.441325 
L 683.157978 1156.441325 
L 683.61989 1151.537854 
L 685.005629 1151.537854 
L 685.467542 1150.759558 
L 686.853281 1150.759558 
L 687.315193 1168.818558 
L 688.700932 1168.818558 
L 689.162845 1177.084205 
L 690.548584 1177.084205 
L 691.010497 1181.220023 
L 692.396235 1181.220023 
L 692.858148 1171.429438 
L 694.243887 1171.429438 
L 694.7058 1179.725919 
L 696.091538 1179.725919 
L 696.553451 1169.943469 
L 697.93919 1169.943469 
L 698.401103 1168.483056 
L 699.786841 1168.483056 
L 700.248754 1195.638754 
L 703.482144 1195.638754 
L 703.944057 1204.697598 
L 705.329796 1204.697598 
L 705.791709 1208.874563 
L 709.025099 1208.876943 
L 709.487012 1208.182846 
L 710.87275 1208.182846 
L 711.334663 1231.2 
L 712.720402 1231.2 
L 713.182315 1221.441823 
L 714.568054 1221.441823 
L 715.029966 1216.562735 
L 716.415705 1216.562735 
L 716.877618 1220.758293 
L 718.263357 1220.758293 
L 718.725269 1211.002802 
L 721.95866 1211.002802 
L 722.420573 1206.125357 
L 723.806311 1206.125357 
L 724.268224 1201.248507 
L 725.653963 1201.248507 
L 726.115876 1186.621148 
L 727.501614 1186.621148 
L 727.963527 1176.871876 
L 729.349266 1176.871876 
L 729.811179 1162.249161 
L 731.196917 1162.249161 
L 731.65883 1152.502019 
L 733.044569 1152.502019 
L 733.506482 1142.756971 
L 734.89222 1142.756971 
L 735.354133 1128.143185 
L 736.739872 1128.143185 
L 737.201785 1179.121067 
L 738.587523 1179.121067 
L 739.049436 1207.04725 
L 739.973262 1207.04725 
L 739.973262 1207.04725 
" clip-path="url(#pc4bd53206a)" style="fill: none; stroke: #0000ff; stroke-width: 1.5; stroke-linecap: square"/>
   </g>
   <g id="patch_3">
    <path d="M 270 1281.6 
L 270 172.8 
" style="fill: none; stroke: #000000; stroke-width: 0.8; stroke-linejoin: miter; stroke-linecap: square"/>
   </g>
   <g id="patch_4">
    <path d="M 762.352941 1281.6 
L 762.352941 172.8 
" style="fill: none; stroke: #000000; stroke-width: 0.8; stroke-linejoin: miter; stroke-linecap: square"/>
   </g>
   <g id="patch_5">
    <path d="M 270 1281.6 
L 762.352941 1281.6 
" style="fill: none; stroke: #000000; stroke-width: 0.8; stroke-linejoin: miter; stroke-linecap: square"/>
   </g>
   <g id="patch_6">
    <path d="M 270 172.8 
L 762.352941 172.8 
" style="fill: none; stroke: #000000; stroke-width: 0.8; stroke-linejoin: miter; stroke-linecap: square"/>
   </g>
   <g id="legend_1">
    <g id="patch_7">
     <path d="M 671.310754 195.478125 
L 755.352941 195.478125 
Q 757.352941 195.478125 757.352941 193.478125 
L 757.352941 179.8 
Q 757.352941 177.8 755.352941 177.8 
L 671.310754 177.8 
Q 669.310754 177.8 669.310754 179.8 
L 669.310754 193.478125 
Q 669.310754 195.478125 671.310754 195.478125 
z
" style="fill: #ffffff; opacity: 0.8; stroke: #cccccc; stroke-linejoin: miter"/>
    </g>
    <g id="line2d_15">
     <path d="M 673.310754 185.898437 
L 683.310754 185.898437 
L 693.310754 185.898437 
" style="fill: none; stroke: #0000ff; stroke-width: 1.5; stroke-linecap: square"/>
    </g>
    <g id="text_14">
     <!-- O1 reward -->
     <g transform="translate(701.310754 189.398437) scale(0.1 -0.1)">
      <defs>
       <path id="DejaVuSans-4f" d="M 2522 4238 
Q 1834 4238 1429 3725 
Q 1025 3213 1025 2328 
Q 1025 1447 1429 934 
Q 1834 422 2522 422 
Q 3209 422 3611 934 
Q 4013 1447 4013 2328 
Q 4013 3213 3611 3725 
Q 3209 4238 2522 4238 
z
M 2522 4750 
Q 3503 4750 4090 4092 
Q 4678 3434 4678 2328 
Q 4678 1225 4090 567 
Q 3503 -91 2522 -91 
Q 1538 -91 948 565 
Q 359 1222 359 2328 
Q 359 3434 948 4092 
Q 1538 4750 2522 4750 
z
" transform="scale(0.015625)"/>
       <path id="DejaVuSans-20" transform="scale(0.015625)"/>
       <path id="DejaVuSans-72" d="M 2631 2963 
Q 2534 3019 2420 3045 
Q 2306 3072 2169 3072 
Q 1681 3072 1420 2755 
Q 1159 2438 1159 1844 
L 1159 0 
L 581 0 
L 581 3500 
L 1159 3500 
L 1159 2956 
Q 1341 3275 1631 3429 
Q 1922 3584 2338 3584 
Q 2397 3584 2469 3576 
Q 2541 3569 2628 3553 
L 2631 2963 
z
" transform="scale(0.015625)"/>
       <path id="DejaVuSans-65" d="M 3597 1894 
L 3597 1613 
L 953 1613 
Q 991 1019 1311 708 
Q 1631 397 2203 397 
Q 2534 397 2845 478 
Q 3156 559 3463 722 
L 3463 178 
Q 3153 47 2828 -22 
Q 2503 -91 2169 -91 
Q 1331 -91 842 396 
Q 353 884 353 1716 
Q 353 2575 817 3079 
Q 1281 3584 2069 3584 
Q 2775 3584 3186 3129 
Q 3597 2675 3597 1894 
z
M 3022 2063 
Q 3016 2534 2758 2815 
Q 2500 3097 2075 3097 
Q 1594 3097 1305 2825 
Q 1016 2553 972 2059 
L 3022 2063 
z
" transform="scale(0.015625)"/>
       <path id="DejaVuSans-77" d="M 269 3500 
L 844 3500 
L 1563 769 
L 2278 3500 
L 2956 3500 
L 3675 769 
L 4391 3500 
L 4966 3500 
L 4050 0 
L 3372 0 
L 2619 2869 
L 1863 0 
L 1184 0 
L 269 3500 
z
" transform="scale(0.015625)"/>
       <path id="DejaVuSans-61" d="M 2194 1759 
Q 1497 1759 1228 1600 
Q 959 1441 959 1056 
Q 959 750 1161 570 
Q 1363 391 1709 391 
Q 2188 391 2477 730 
Q 2766 1069 2766 1631 
L 2766 1759 
L 2194 1759 
z
M 3341 1997 
L 3341 0 
L 2766 0 
L 2766 531 
Q 2569 213 2275 61 
Q 1981 -91 1556 -91 
Q 1019 -91 701 211 
Q 384 513 384 1019 
Q 384 1609 779 1909 
Q 1175 2209 1959 2209 
L 2766 2209 
L 2766 2266 
Q 2766 2663 2505 2880 
Q 2244 3097 1772 3097 
Q 1472 3097 1187 3025 
Q 903 2953 641 2809 
L 641 3341 
Q 956 3463 1253 3523 
Q 1550 3584 1831 3584 
Q 2591 3584 2966 3190 
Q 3341 2797 3341 1997 
z
" transform="scale(0.015625)"/>
       <path id="DejaVuSans-64" d="M 2906 2969 
L 2906 4863 
L 3481 4863 
L 3481 0 
L 2906 0 
L 2906 525 
Q 2725 213 2448 61 
Q 2172 -91 1784 -91 
Q 1150 -91 751 415 
Q 353 922 353 1747 
Q 353 2572 751 3078 
Q 1150 3584 1784 3584 
Q 2172 3584 2448 3432 
Q 2725 3281 2906 2969 
z
M 947 1747 
Q 947 1113 1208 752 
Q 1469 391 1925 391 
Q 2381 391 2643 752 
Q 2906 1113 2906 1747 
Q 2906 2381 2643 2742 
Q 2381 3103 1925 3103 
Q 1469 3103 1208 2742 
Q 947 2381 947 1747 
z
" transform="scale(0.015625)"/>
      </defs>
      <use xlink:href="#DejaVuSans-4f"/>
      <use xlink:href="#DejaVuSans-31" x="78.710938"/>
      <use xlink:href="#DejaVuSans-20" x="142.333984"/>
      <use xlink:href="#DejaVuSans-72" x="174.121094"/>
      <use xlink:href="#DejaVuSans-65" x="212.984375"/>
      <use xlink:href="#DejaVuSans-77" x="274.507812"/>
      <use xlink:href="#DejaVuSans-61" x="356.294922"/>
      <use xlink:href="#DejaVuSans-72" x="417.574219"/>
      <use xlink:href="#DejaVuSans-64" x="456.9375"/>
     </g>
    </g>
   </g>
  </g>
  <g id="axes_2">
   <g id="patch_8">
    <path d="M 860.823529 1281.6 
L 1353.176471 1281.6 
L 1353.176471 172.8 
L 860.823529 172.8 
z
" style="fill: #ffffff"/>
   </g>
   <g id="matplotlib.axis_3">
    <g id="xtick_7">
     <g id="line2d_16">
      <g>
       <use xlink:href="#m74cebb2040" x="882.741296" y="1281.6" style="stroke: #000000; stroke-width: 0.8"/>
      </g>
     </g>
     <g id="text_15">
      <!-- 0 -->
      <g transform="translate(879.560046 1296.198437) scale(0.1 -0.1)">
       <use xlink:href="#DejaVuSans-30"/>
      </g>
     </g>
    </g>
    <g id="xtick_8">
     <g id="line2d_17">
      <g>
       <use xlink:href="#m74cebb2040" x="975.123872" y="1281.6" style="stroke: #000000; stroke-width: 0.8"/>
      </g>
     </g>
     <g id="text_16">
      <!-- 200 -->
      <g transform="translate(965.580122 1296.198437) scale(0.1 -0.1)">
       <use xlink:href="#DejaVuSans-32"/>
       <use xlink:href="#DejaVuSans-30" x="63.623047"/>
       <use xlink:href="#DejaVuSans-30" x="127.246094"/>
      </g>
     </g>
    </g>
    <g id="xtick_9">
     <g id="line2d_18">
      <g>
       <use xlink:href="#m74cebb2040" x="1067.506449" y="1281.6" style="stroke: #000000; stroke-width: 0.8"/>
      </g>
     </g>
     <g id="text_17">
      <!-- 400 -->
      <g transform="translate(1057.962699 1296.198437) scale(0.1 -0.1)">
       <use xlink:href="#DejaVuSans-34"/>
       <use xlink:href="#DejaVuSans-30" x="63.623047"/>
       <use xlink:href="#DejaVuSans-30" x="127.246094"/>
      </g>
     </g>
    </g>
    <g id="xtick_10">
     <g id="line2d_19">
      <g>
       <use xlink:href="#m74cebb2040" x="1159.889025" y="1281.6" style="stroke: #000000; stroke-width: 0.8"/>
      </g>
     </g>
     <g id="text_18">
      <!-- 600 -->
      <g transform="translate(1150.345275 1296.198437) scale(0.1 -0.1)">
       <use xlink:href="#DejaVuSans-36"/>
       <use xlink:href="#DejaVuSans-30" x="63.623047"/>
       <use xlink:href="#DejaVuSans-30" x="127.246094"/>
      </g>
     </g>
    </g>
    <g id="xtick_11">
     <g id="line2d_20">
      <g>
       <use xlink:href="#m74cebb2040" x="1252.271601" y="1281.6" style="stroke: #000000; stroke-width: 0.8"/>
      </g>
     </g>
     <g id="text_19">
      <!-- 800 -->
      <g transform="translate(1242.727851 1296.198437) scale(0.1 -0.1)">
       <use xlink:href="#DejaVuSans-38"/>
       <use xlink:href="#DejaVuSans-30" x="63.623047"/>
       <use xlink:href="#DejaVuSans-30" x="127.246094"/>
      </g>
     </g>
    </g>
    <g id="xtick_12">
     <g id="line2d_21">
      <g>
       <use xlink:href="#m74cebb2040" x="1344.654178" y="1281.6" style="stroke: #000000; stroke-width: 0.8"/>
      </g>
     </g>
     <g id="text_20">
      <!-- 1000 -->
      <g transform="translate(1331.929178 1296.198437) scale(0.1 -0.1)">
       <use xlink:href="#DejaVuSans-31"/>
       <use xlink:href="#DejaVuSans-30" x="63.623047"/>
       <use xlink:href="#DejaVuSans-30" x="127.246094"/>
       <use xlink:href="#DejaVuSans-30" x="190.869141"/>
      </g>
     </g>
    </g>
   </g>
   <g id="matplotlib.axis_4">
    <g id="ytick_8">
     <g id="line2d_22">
      <g>
       <use xlink:href="#m9382a2b14f" x="860.823529" y="1231.2" style="stroke: #000000; stroke-width: 0.8"/>
      </g>
     </g>
     <g id="text_21">
      <!-- 0 -->
      <g transform="translate(847.461029 1234.999219) scale(0.1 -0.1)">
       <use xlink:href="#DejaVuSans-30"/>
      </g>
     </g>
    </g>
    <g id="ytick_9">
     <g id="line2d_23">
      <g>
       <use xlink:href="#m9382a2b14f" x="860.823529" y="993.870383" style="stroke: #000000; stroke-width: 0.8"/>
      </g>
     </g>
     <g id="text_22">
      <!-- 20 -->
      <g transform="translate(841.098529 997.669602) scale(0.1 -0.1)">
       <use xlink:href="#DejaVuSans-32"/>
       <use xlink:href="#DejaVuSans-30" x="63.623047"/>
      </g>
     </g>
    </g>
    <g id="ytick_10">
     <g id="line2d_24">
      <g>
       <use xlink:href="#m9382a2b14f" x="860.823529" y="756.540766" style="stroke: #000000; stroke-width: 0.8"/>
      </g>
     </g>
     <g id="text_23">
      <!-- 40 -->
      <g transform="translate(841.098529 760.339985) scale(0.1 -0.1)">
       <use xlink:href="#DejaVuSans-34"/>
       <use xlink:href="#DejaVuSans-30" x="63.623047"/>
      </g>
     </g>
    </g>
    <g id="ytick_11">
     <g id="line2d_25">
      <g>
       <use xlink:href="#m9382a2b14f" x="860.823529" y="519.211149" style="stroke: #000000; stroke-width: 0.8"/>
      </g>
     </g>
     <g id="text_24">
      <!-- 60 -->
      <g transform="translate(841.098529 523.010367) scale(0.1 -0.1)">
       <use xlink:href="#DejaVuSans-36"/>
       <use xlink:href="#DejaVuSans-30" x="63.623047"/>
      </g>
     </g>
    </g>
    <g id="ytick_12">
     <g id="line2d_26">
      <g>
       <use xlink:href="#m9382a2b14f" x="860.823529" y="281.881532" style="stroke: #000000; stroke-width: 0.8"/>
      </g>
     </g>
     <g id="text_25">
      <!-- 80 -->
      <g transform="translate(841.098529 285.68075) scale(0.1 -0.1)">
       <use xlink:href="#DejaVuSans-38"/>
       <use xlink:href="#DejaVuSans-30" x="63.623047"/>
      </g>
     </g>
    </g>
   </g>
   <g id="line2d_27">
    <path d="M 883.203209 1231.2 
L 904.451201 1231.112269 
L 904.913114 1226.331507 
L 906.298853 1226.331507 
L 906.760766 1228.205208 
L 908.146504 1228.205208 
L 908.608417 1227.090918 
L 909.994156 1227.090918 
L 910.456069 1229.287598 
L 911.841807 1229.287598 
L 912.30372 1219.418394 
L 913.689459 1219.418394 
L 914.151372 1204.458136 
L 915.53711 1204.458136 
L 915.999023 1197.015722 
L 917.384762 1197.015722 
L 917.846675 1177.411741 
L 919.232413 1177.411741 
L 919.694326 1159.344324 
L 928.470671 1159.344324 
L 928.932584 1151.502778 
L 934.013626 1151.502778 
L 934.475538 1143.139628 
L 939.55658 1143.139628 
L 940.018493 1131.744981 
L 941.404232 1131.744981 
L 941.866145 1128.545456 
L 943.251883 1128.545456 
L 943.713796 1125.024759 
L 946.947186 1125.024759 
L 947.409099 1103.413689 
L 948.794838 1103.413689 
L 949.256751 1069.428475 
L 950.642489 1069.428475 
L 951.104402 1060.375137 
L 952.490141 1060.375137 
L 952.952054 1042.941458 
L 954.337792 1042.941458 
L 954.799705 1000.739064 
L 956.185444 1000.739064 
L 956.647357 971.36613 
L 976.509611 971.36613 
L 976.971524 962.705267 
L 982.052565 962.705267 
L 982.514478 954.171683 
L 983.900217 954.171683 
L 984.36213 945.548878 
L 985.747868 945.548878 
L 986.209781 936.839139 
L 989.443171 936.839139 
L 989.905084 933.765012 
L 996.833778 933.765012 
L 997.29569 930.60827 
L 998.681429 930.60827 
L 999.143342 909.653116 
L 1000.529081 909.653116 
L 1000.990994 893.650027 
L 1002.376732 893.650027 
L 1002.838645 858.183927 
L 1004.224384 858.183927 
L 1004.686297 826.983518 
L 1006.072035 826.983518 
L 1006.533948 802.391596 
L 1007.919687 802.391596 
L 1008.3816 772.15062 
L 1009.767338 772.15062 
L 1010.229251 735.421498 
L 1011.61499 735.421498 
L 1012.076903 718.995257 
L 1013.462641 718.995257 
L 1013.924554 696.245915 
L 1019.005596 696.245915 
L 1019.467509 691.110041 
L 1020.853247 691.110041 
L 1021.31516 680.490166 
L 1022.700899 680.490166 
L 1023.162812 687.819109 
L 1024.548551 687.819109 
L 1025.010463 691.305011 
L 1026.396202 691.305011 
L 1026.858115 698.546346 
L 1028.243854 698.546346 
L 1028.705766 702.284151 
L 1030.091505 702.284151 
L 1030.553418 705.680637 
L 1031.939157 705.680637 
L 1032.40107 695.216858 
L 1035.63446 695.216858 
L 1036.096373 688.101262 
L 1037.482111 688.101262 
L 1037.944024 684.82304 
L 1039.329763 684.82304 
L 1039.791676 674.543104 
L 1041.177414 674.543104 
L 1041.639327 654.264888 
L 1043.025066 654.264888 
L 1043.486979 644.555802 
L 1044.872717 644.555802 
L 1045.33463 636.115037 
L 1046.720369 636.115037 
L 1047.182282 630.650569 
L 1048.56802 630.650569 
L 1049.029933 621.675233 
L 1050.415672 621.675233 
L 1050.877585 630.561928 
L 1052.263323 630.561928 
L 1052.725236 650.470216 
L 1054.110975 650.470216 
L 1054.572888 644.230097 
L 1055.958627 644.230097 
L 1056.420539 627.109455 
L 1057.806278 627.109455 
L 1058.268191 612.583135 
L 1059.65393 612.583135 
L 1060.115842 614.680838 
L 1061.501581 614.680838 
L 1061.963494 600.884915 
L 1063.349233 600.884915 
L 1063.811146 589.029687 
L 1065.196884 589.029687 
L 1065.658797 587.1081 
L 1068.892187 587.037839 
L 1069.3541 588.903316 
L 1070.739839 588.903316 
L 1071.201752 585.252932 
L 1072.58749 585.252932 
L 1073.049403 573.857918 
L 1074.435142 573.857918 
L 1074.897055 575.569049 
L 1076.282793 575.569049 
L 1076.744706 571.692305 
L 1078.130445 571.692305 
L 1078.592358 560.589521 
L 1079.978096 560.589521 
L 1080.440009 553.457502 
L 1081.825748 553.457502 
L 1082.287661 546.382911 
L 1083.673399 546.382911 
L 1084.135312 542.530743 
L 1085.521051 542.530743 
L 1085.982964 540.243666 
L 1089.216354 540.243666 
L 1089.678267 554.076122 
L 1091.064006 554.076122 
L 1091.525918 560.889242 
L 1092.911657 560.889242 
L 1093.37357 558.465296 
L 1094.759309 558.465296 
L 1095.221222 563.666797 
L 1096.60696 563.666797 
L 1097.068873 564.955404 
L 1098.454612 564.955404 
L 1098.916525 579.05658 
L 1100.302263 579.05658 
L 1100.764176 581.748867 
L 1102.149915 581.748867 
L 1102.611828 593.015929 
L 1103.997566 593.015929 
L 1104.459479 592.466359 
L 1105.845218 592.466359 
L 1106.307131 581.490343 
L 1107.692869 581.490343 
L 1108.154782 574.465782 
L 1109.540521 574.465782 
L 1110.002434 573.427264 
L 1111.388172 573.427264 
L 1111.850085 567.537671 
L 1113.235824 567.537671 
L 1113.697737 557.825543 
L 1115.083475 557.825543 
L 1115.545388 561.715664 
L 1116.931127 561.715664 
L 1117.39304 565.599321 
L 1118.778778 565.599321 
L 1119.240691 564.674465 
L 1120.62643 564.674465 
L 1121.088343 560.777815 
L 1122.474082 560.777815 
L 1122.935994 550.323906 
L 1124.321733 550.323906 
L 1124.783646 543.837485 
L 1128.017036 543.837485 
L 1128.478949 538.284137 
L 1129.864688 538.284137 
L 1130.326601 544.57146 
L 1131.712339 544.57146 
L 1132.174252 555.374146 
L 1133.559991 555.374146 
L 1134.021904 558.570389 
L 1135.407642 558.570389 
L 1135.869555 557.923645 
L 1137.255294 557.923645 
L 1137.717207 556.666991 
L 1139.102945 556.666991 
L 1139.564858 559.390789 
L 1140.950597 559.390789 
L 1141.41251 549.418852 
L 1142.798248 549.418852 
L 1143.260161 524.93679 
L 1144.6459 524.93679 
L 1145.107813 510.505097 
L 1146.493551 510.505097 
L 1146.955464 491.526043 
L 1148.341203 491.526043 
L 1148.803116 472.424066 
L 1150.188854 472.424066 
L 1150.650767 454.330996 
L 1152.036506 454.330996 
L 1152.498419 444.88222 
L 1153.884158 444.88222 
L 1154.34607 431.653944 
L 1155.731809 431.653944 
L 1156.193722 413.827487 
L 1157.579461 413.827487 
L 1158.041373 405.02289 
L 1159.427112 405.02289 
L 1159.889025 391.956699 
L 1161.274764 391.956699 
L 1161.736677 396.482848 
L 1163.122415 396.482848 
L 1163.584328 388.687575 
L 1164.970067 388.687575 
L 1165.43198 401.282597 
L 1166.817718 401.282597 
L 1167.279631 401.637714 
L 1168.66537 401.637714 
L 1169.127283 401.931692 
L 1170.513021 401.931692 
L 1170.974934 398.171217 
L 1172.360673 398.171217 
L 1172.822586 398.301732 
L 1174.208324 398.301732 
L 1174.670237 398.540037 
L 1176.055976 398.540037 
L 1176.517889 410.790379 
L 1177.903627 410.790379 
L 1178.36554 418.757783 
L 1179.751279 418.757783 
L 1180.213192 422.655499 
L 1181.59893 422.655499 
L 1182.060843 418.751374 
L 1183.446582 418.751374 
L 1183.908495 414.689861 
L 1185.294234 414.689861 
L 1185.756146 406.740611 
L 1187.141885 406.740611 
L 1187.603798 398.882146 
L 1190.837188 398.866376 
L 1191.299101 402.821187 
L 1192.68484 402.821187 
L 1193.146753 398.99944 
L 1194.532491 398.99944 
L 1194.994404 395.200289 
L 1196.380143 395.200289 
L 1196.842056 395.338236 
L 1198.227794 395.338236 
L 1198.689707 410.801257 
L 1200.075446 410.801257 
L 1200.537359 414.775043 
L 1201.923097 414.775043 
L 1202.38501 404.116399 
L 1203.770749 404.116399 
L 1204.232662 408.150541 
L 1205.6184 408.150541 
L 1206.080313 412.501026 
L 1207.466052 412.501026 
L 1207.927965 408.77107 
L 1209.313703 408.77107 
L 1209.775616 409.117148 
L 1211.161355 409.117148 
L 1211.623268 413.998333 
L 1213.009006 413.998333 
L 1213.470919 415.330457 
L 1216.70431 415.332999 
L 1217.166222 404.387302 
L 1218.551961 404.387302 
L 1219.013874 397.118114 
L 1220.399613 397.118114 
L 1220.861525 393.487137 
L 1222.247264 393.487137 
L 1222.709177 386.237465 
L 1224.094916 386.237465 
L 1224.556829 382.618751 
L 1225.942567 382.618751 
L 1226.40448 379.002387 
L 1227.790219 379.002387 
L 1228.252132 371.776565 
L 1229.63787 371.776565 
L 1230.099783 364.559722 
L 1231.485522 364.559722 
L 1231.947435 357.351609 
L 1233.333173 357.351609 
L 1233.795086 353.750781 
L 1235.180825 353.750781 
L 1235.642738 342.980733 
L 1237.028476 342.980733 
L 1237.490389 335.823914 
L 1238.876128 335.823914 
L 1239.338041 332.248579 
L 1242.571431 332.248579 
L 1243.033344 328.675269 
L 1244.419082 328.675269 
L 1244.880995 317.978996 
L 1246.266734 317.978996 
L 1246.728647 307.321703 
L 1248.114386 307.321703 
L 1248.576298 296.707559 
L 1249.962037 296.707559 
L 1250.42395 289.653444 
L 1251.809689 289.653444 
L 1252.271601 279.107173 
L 1253.65734 279.107173 
L 1254.119253 291.282081 
L 1255.504992 291.282081 
L 1255.966905 300.829187 
L 1257.352643 300.829187 
L 1257.814556 303.501136 
L 1259.200295 303.501136 
L 1259.662208 306.257247 
L 1261.047946 306.257247 
L 1261.509859 315.007456 
L 1264.743249 315.027908 
L 1265.205162 312.30946 
L 1266.590901 312.30946 
L 1267.052814 316.719214 
L 1268.438552 316.719214 
L 1268.900465 313.201147 
L 1270.286204 313.201147 
L 1270.748117 315.42663 
L 1272.133855 315.42663 
L 1272.595768 302.082665 
L 1273.981507 302.082665 
L 1274.44342 288.79068 
L 1275.829158 288.79068 
L 1276.291071 275.546458 
L 1277.67681 275.546458 
L 1278.138723 265.658504 
L 1279.524462 265.658504 
L 1279.986374 255.808567 
L 1281.372113 255.808567 
L 1281.834026 249.257799 
L 1283.219765 249.257799 
L 1283.681677 239.457693 
L 1285.067416 239.457693 
L 1285.529329 236.19813 
L 1286.915068 236.19813 
L 1287.376981 229.691066 
L 1288.762719 229.691066 
L 1289.224632 223.2 
L 1290.610371 223.2 
L 1291.072284 224.526033 
L 1292.458022 224.526033 
L 1292.919935 235.575329 
L 1296.153325 235.571603 
L 1296.615238 233.713884 
L 1299.848628 233.713884 
L 1300.310541 228.642636 
L 1305.391583 228.642636 
L 1305.853496 231.86137 
L 1310.934538 231.86137 
L 1311.39645 228.646246 
L 1314.629841 228.646246 
L 1315.091753 230.047521 
L 1316.477492 230.047521 
L 1316.939405 234.668712 
L 1318.325144 234.668712 
L 1318.787057 232.910823 
L 1320.172795 232.910823 
L 1320.634708 240.741463 
L 1322.020447 240.741463 
L 1322.48236 248.320255 
L 1323.868098 248.320255 
L 1324.330011 252.979692 
L 1325.71575 252.979692 
L 1326.177663 257.639171 
L 1327.563401 257.639171 
L 1328.025314 254.470352 
L 1329.411053 254.470352 
L 1329.872966 248.138872 
L 1330.796791 248.138872 
L 1330.796791 248.138872 
" clip-path="url(#p993a4f1b56)" style="fill: none; stroke: #0000ff; stroke-width: 1.5; stroke-linecap: square"/>
   </g>
   <g id="patch_9">
    <path d="M 860.823529 1281.6 
L 860.823529 172.8 
" style="fill: none; stroke: #000000; stroke-width: 0.8; stroke-linejoin: miter; stroke-linecap: square"/>
   </g>
   <g id="patch_10">
    <path d="M 1353.176471 1281.6 
L 1353.176471 172.8 
" style="fill: none; stroke: #000000; stroke-width: 0.8; stroke-linejoin: miter; stroke-linecap: square"/>
   </g>
   <g id="patch_11">
    <path d="M 860.823529 1281.6 
L 1353.176471 1281.6 
" style="fill: none; stroke: #000000; stroke-width: 0.8; stroke-linejoin: miter; stroke-linecap: square"/>
   </g>
   <g id="patch_12">
    <path d="M 860.823529 172.8 
L 1353.176471 172.8 
" style="fill: none; stroke: #000000; stroke-width: 0.8; stroke-linejoin: miter; stroke-linecap: square"/>
   </g>
   <g id="legend_2">
    <g id="patch_13">
     <path d="M 1262.134283 195.478125 
L 1346.176471 195.478125 
Q 1348.176471 195.478125 1348.176471 193.478125 
L 1348.176471 179.8 
Q 1348.176471 177.8 1346.176471 177.8 
L 1262.134283 177.8 
Q 1260.134283 177.8 1260.134283 179.8 
L 1260.134283 193.478125 
Q 1260.134283 195.478125 1262.134283 195.478125 
z
" style="fill: #ffffff; opacity: 0.8; stroke: #cccccc; stroke-linejoin: miter"/>
    </g>
    <g id="line2d_28">
     <path d="M 1264.134283 185.898437 
L 1274.134283 185.898437 
L 1284.134283 185.898437 
" style="fill: none; stroke: #0000ff; stroke-width: 1.5; stroke-linecap: square"/>
    </g>
    <g id="text_26">
     <!-- O2 reward -->
     <g transform="translate(1292.134283 189.398437) scale(0.1 -0.1)">
      <use xlink:href="#DejaVuSans-4f"/>
      <use xlink:href="#DejaVuSans-32" x="78.710938"/>
      <use xlink:href="#DejaVuSans-20" x="142.333984"/>
      <use xlink:href="#DejaVuSans-72" x="174.121094"/>
      <use xlink:href="#DejaVuSans-65" x="212.984375"/>
      <use xlink:href="#DejaVuSans-77" x="274.507812"/>
      <use xlink:href="#DejaVuSans-61" x="356.294922"/>
      <use xlink:href="#DejaVuSans-72" x="417.574219"/>
      <use xlink:href="#DejaVuSans-64" x="456.9375"/>
     </g>
    </g>
   </g>
  </g>
  <g id="axes_3">
   <g id="patch_14">
    <path d="M 1451.647059 1281.6 
L 1944 1281.6 
L 1944 172.8 
L 1451.647059 172.8 
z
" style="fill: #ffffff"/>
   </g>
   <g id="matplotlib.axis_5">
    <g id="xtick_13">
     <g id="line2d_29">
      <g>
       <use xlink:href="#m74cebb2040" x="1473.564825" y="1281.6" style="stroke: #000000; stroke-width: 0.8"/>
      </g>
     </g>
     <g id="text_27">
      <!-- 0 -->
      <g transform="translate(1470.383575 1296.198437) scale(0.1 -0.1)">
       <use xlink:href="#DejaVuSans-30"/>
      </g>
     </g>
    </g>
    <g id="xtick_14">
     <g id="line2d_30">
      <g>
       <use xlink:href="#m74cebb2040" x="1565.947402" y="1281.6" style="stroke: #000000; stroke-width: 0.8"/>
      </g>
     </g>
     <g id="text_28">
      <!-- 200 -->
      <g transform="translate(1556.403652 1296.198437) scale(0.1 -0.1)">
       <use xlink:href="#DejaVuSans-32"/>
       <use xlink:href="#DejaVuSans-30" x="63.623047"/>
       <use xlink:href="#DejaVuSans-30" x="127.246094"/>
      </g>
     </g>
    </g>
    <g id="xtick_15">
     <g id="line2d_31">
      <g>
       <use xlink:href="#m74cebb2040" x="1658.329978" y="1281.6" style="stroke: #000000; stroke-width: 0.8"/>
      </g>
     </g>
     <g id="text_29">
      <!-- 400 -->
      <g transform="translate(1648.786228 1296.198437) scale(0.1 -0.1)">
       <use xlink:href="#DejaVuSans-34"/>
       <use xlink:href="#DejaVuSans-30" x="63.623047"/>
       <use xlink:href="#DejaVuSans-30" x="127.246094"/>
      </g>
     </g>
    </g>
    <g id="xtick_16">
     <g id="line2d_32">
      <g>
       <use xlink:href="#m74cebb2040" x="1750.712554" y="1281.6" style="stroke: #000000; stroke-width: 0.8"/>
      </g>
     </g>
     <g id="text_30">
      <!-- 600 -->
      <g transform="translate(1741.168804 1296.198437) scale(0.1 -0.1)">
       <use xlink:href="#DejaVuSans-36"/>
       <use xlink:href="#DejaVuSans-30" x="63.623047"/>
       <use xlink:href="#DejaVuSans-30" x="127.246094"/>
      </g>
     </g>
    </g>
    <g id="xtick_17">
     <g id="line2d_33">
      <g>
       <use xlink:href="#m74cebb2040" x="1843.095131" y="1281.6" style="stroke: #000000; stroke-width: 0.8"/>
      </g>
     </g>
     <g id="text_31">
      <!-- 800 -->
      <g transform="translate(1833.551381 1296.198437) scale(0.1 -0.1)">
       <use xlink:href="#DejaVuSans-38"/>
       <use xlink:href="#DejaVuSans-30" x="63.623047"/>
       <use xlink:href="#DejaVuSans-30" x="127.246094"/>
      </g>
     </g>
    </g>
    <g id="xtick_18">
     <g id="line2d_34">
      <g>
       <use xlink:href="#m74cebb2040" x="1935.477707" y="1281.6" style="stroke: #000000; stroke-width: 0.8"/>
      </g>
     </g>
     <g id="text_32">
      <!-- 1000 -->
      <g transform="translate(1922.752707 1296.198437) scale(0.1 -0.1)">
       <use xlink:href="#DejaVuSans-31"/>
       <use xlink:href="#DejaVuSans-30" x="63.623047"/>
       <use xlink:href="#DejaVuSans-30" x="127.246094"/>
       <use xlink:href="#DejaVuSans-30" x="190.869141"/>
      </g>
     </g>
    </g>
   </g>
   <g id="matplotlib.axis_6">
    <g id="ytick_13">
     <g id="line2d_35">
      <g>
       <use xlink:href="#m9382a2b14f" x="1451.647059" y="1231.2" style="stroke: #000000; stroke-width: 0.8"/>
      </g>
     </g>
     <g id="text_33">
      <!-- 0.0 -->
      <g transform="translate(1428.743934 1234.999219) scale(0.1 -0.1)">
       <defs>
        <path id="DejaVuSans-2e" d="M 684 794 
L 1344 794 
L 1344 0 
L 684 0 
L 684 794 
z
" transform="scale(0.015625)"/>
       </defs>
       <use xlink:href="#DejaVuSans-30"/>
       <use xlink:href="#DejaVuSans-2e" x="63.623047"/>
       <use xlink:href="#DejaVuSans-30" x="95.410156"/>
      </g>
     </g>
    </g>
    <g id="ytick_14">
     <g id="line2d_36">
      <g>
       <use xlink:href="#m9382a2b14f" x="1451.647059" y="1097.944598" style="stroke: #000000; stroke-width: 0.8"/>
      </g>
     </g>
     <g id="text_34">
      <!-- 2.5 -->
      <g transform="translate(1428.743934 1101.743817) scale(0.1 -0.1)">
       <defs>
        <path id="DejaVuSans-35" d="M 691 4666 
L 3169 4666 
L 3169 4134 
L 1269 4134 
L 1269 2991 
Q 1406 3038 1543 3061 
Q 1681 3084 1819 3084 
Q 2600 3084 3056 2656 
Q 3513 2228 3513 1497 
Q 3513 744 3044 326 
Q 2575 -91 1722 -91 
Q 1428 -91 1123 -41 
Q 819 9 494 109 
L 494 744 
Q 775 591 1075 516 
Q 1375 441 1709 441 
Q 2250 441 2565 725 
Q 2881 1009 2881 1497 
Q 2881 1984 2565 2268 
Q 2250 2553 1709 2553 
Q 1456 2553 1204 2497 
Q 953 2441 691 2322 
L 691 4666 
z
" transform="scale(0.015625)"/>
       </defs>
       <use xlink:href="#DejaVuSans-32"/>
       <use xlink:href="#DejaVuSans-2e" x="63.623047"/>
       <use xlink:href="#DejaVuSans-35" x="95.410156"/>
      </g>
     </g>
    </g>
    <g id="ytick_15">
     <g id="line2d_37">
      <g>
       <use xlink:href="#m9382a2b14f" x="1451.647059" y="964.689197" style="stroke: #000000; stroke-width: 0.8"/>
      </g>
     </g>
     <g id="text_35">
      <!-- 5.0 -->
      <g transform="translate(1428.743934 968.488415) scale(0.1 -0.1)">
       <use xlink:href="#DejaVuSans-35"/>
       <use xlink:href="#DejaVuSans-2e" x="63.623047"/>
       <use xlink:href="#DejaVuSans-30" x="95.410156"/>
      </g>
     </g>
    </g>
    <g id="ytick_16">
     <g id="line2d_38">
      <g>
       <use xlink:href="#m9382a2b14f" x="1451.647059" y="831.433795" style="stroke: #000000; stroke-width: 0.8"/>
      </g>
     </g>
     <g id="text_36">
      <!-- 7.5 -->
      <g transform="translate(1428.743934 835.233014) scale(0.1 -0.1)">
       <defs>
        <path id="DejaVuSans-37" d="M 525 4666 
L 3525 4666 
L 3525 4397 
L 1831 0 
L 1172 0 
L 2766 4134 
L 525 4134 
L 525 4666 
z
" transform="scale(0.015625)"/>
       </defs>
       <use xlink:href="#DejaVuSans-37"/>
       <use xlink:href="#DejaVuSans-2e" x="63.623047"/>
       <use xlink:href="#DejaVuSans-35" x="95.410156"/>
      </g>
     </g>
    </g>
    <g id="ytick_17">
     <g id="line2d_39">
      <g>
       <use xlink:href="#m9382a2b14f" x="1451.647059" y="698.178393" style="stroke: #000000; stroke-width: 0.8"/>
      </g>
     </g>
     <g id="text_37">
      <!-- 10.0 -->
      <g transform="translate(1422.381434 701.977612) scale(0.1 -0.1)">
       <use xlink:href="#DejaVuSans-31"/>
       <use xlink:href="#DejaVuSans-30" x="63.623047"/>
       <use xlink:href="#DejaVuSans-2e" x="127.246094"/>
       <use xlink:href="#DejaVuSans-30" x="159.033203"/>
      </g>
     </g>
    </g>
    <g id="ytick_18">
     <g id="line2d_40">
      <g>
       <use xlink:href="#m9382a2b14f" x="1451.647059" y="564.922991" style="stroke: #000000; stroke-width: 0.8"/>
      </g>
     </g>
     <g id="text_38">
      <!-- 12.5 -->
      <g transform="translate(1422.381434 568.72221) scale(0.1 -0.1)">
       <use xlink:href="#DejaVuSans-31"/>
       <use xlink:href="#DejaVuSans-32" x="63.623047"/>
       <use xlink:href="#DejaVuSans-2e" x="127.246094"/>
       <use xlink:href="#DejaVuSans-35" x="159.033203"/>
      </g>
     </g>
    </g>
    <g id="ytick_19">
     <g id="line2d_41">
      <g>
       <use xlink:href="#m9382a2b14f" x="1451.647059" y="431.66759" style="stroke: #000000; stroke-width: 0.8"/>
      </g>
     </g>
     <g id="text_39">
      <!-- 15.0 -->
      <g transform="translate(1422.381434 435.466809) scale(0.1 -0.1)">
       <use xlink:href="#DejaVuSans-31"/>
       <use xlink:href="#DejaVuSans-35" x="63.623047"/>
       <use xlink:href="#DejaVuSans-2e" x="127.246094"/>
       <use xlink:href="#DejaVuSans-30" x="159.033203"/>
      </g>
     </g>
    </g>
    <g id="ytick_20">
     <g id="line2d_42">
      <g>
       <use xlink:href="#m9382a2b14f" x="1451.647059" y="298.412188" style="stroke: #000000; stroke-width: 0.8"/>
      </g>
     </g>
     <g id="text_40">
      <!-- 17.5 -->
      <g transform="translate(1422.381434 302.211407) scale(0.1 -0.1)">
       <use xlink:href="#DejaVuSans-31"/>
       <use xlink:href="#DejaVuSans-37" x="63.623047"/>
       <use xlink:href="#DejaVuSans-2e" x="127.246094"/>
       <use xlink:href="#DejaVuSans-35" x="159.033203"/>
      </g>
     </g>
    </g>
   </g>
   <g id="line2d_43">
    <path d="M 1474.026738 1231.2 
L 1493.427079 1231.2 
L 1493.888992 1210.412009 
L 1495.274731 1210.412009 
L 1495.736643 1193.800912 
L 1497.122382 1193.800912 
L 1497.584295 1179.671609 
L 1498.970034 1179.671609 
L 1499.431946 1158.731475 
L 1500.817685 1158.731475 
L 1501.279598 1151.689898 
L 1502.665337 1151.689898 
L 1503.12725 1124.276076 
L 1504.512988 1124.276076 
L 1504.974901 1132.240891 
L 1506.36064 1132.240891 
L 1506.822553 1116.639689 
L 1508.208291 1116.639689 
L 1508.670204 1101.257163 
L 1510.055943 1101.257163 
L 1510.517856 1090.822447 
L 1511.903594 1090.822447 
L 1512.365507 1073.149841 
L 1513.751246 1073.149841 
L 1514.213159 1056.560751 
L 1515.598897 1056.560751 
L 1516.06081 1046.280922 
L 1519.2942 1046.280922 
L 1519.756113 1041.755833 
L 1521.141852 1041.755833 
L 1521.603765 1031.847098 
L 1522.989503 1031.847098 
L 1523.451416 1026.328851 
L 1526.684807 1026.328851 
L 1527.146719 1022.20941 
L 1528.532458 1022.20941 
L 1528.994371 1013.184705 
L 1532.227761 1013.184705 
L 1532.689674 1009.404229 
L 1534.075413 1009.404229 
L 1534.537326 993.467034 
L 1535.923064 993.467034 
L 1536.384977 971.104061 
L 1537.770716 971.104061 
L 1538.232629 955.437388 
L 1539.618367 955.437388 
L 1540.08028 945.012494 
L 1541.466019 945.012494 
L 1541.927932 915.93243 
L 1543.31367 915.93243 
L 1543.775583 901.46445 
L 1545.161322 901.46445 
L 1545.623235 896.922535 
L 1547.008973 896.922535 
L 1547.470886 882.757094 
L 1548.856625 882.757094 
L 1549.318538 873.322845 
L 1550.704276 873.322845 
L 1551.166189 865.272387 
L 1552.551928 865.272387 
L 1553.013841 851.199151 
L 1554.399579 851.199151 
L 1554.861492 845.464487 
L 1556.247231 845.464487 
L 1556.709144 832.643587 
L 1559.942534 832.551754 
L 1560.404447 836.177769 
L 1561.790186 836.177769 
L 1562.252098 838.423995 
L 1563.637837 838.423995 
L 1564.09975 833.163461 
L 1565.485489 833.163461 
L 1565.947402 835.370851 
L 1567.33314 835.370851 
L 1567.795053 832.280123 
L 1569.180792 832.280123 
L 1569.642705 835.750757 
L 1571.028443 835.750757 
L 1571.490356 832.496046 
L 1574.723746 832.496046 
L 1575.185659 829.179243 
L 1576.571398 829.179243 
L 1577.033311 819.388271 
L 1578.419049 819.388271 
L 1578.880962 810.897286 
L 1580.266701 810.897286 
L 1580.728614 816.077547 
L 1582.114352 816.077547 
L 1582.576265 818.151784 
L 1587.657307 818.151784 
L 1588.11922 808.490392 
L 1589.504959 808.490392 
L 1589.966871 790.313637 
L 1591.35261 790.313637 
L 1591.814523 781.499114 
L 1593.200262 781.499114 
L 1593.662174 775.271939 
L 1595.047913 775.271939 
L 1595.509826 771.18967 
L 1596.895565 771.18967 
L 1597.357478 761.440712 
L 1598.743216 761.440712 
L 1599.205129 754.899971 
L 1600.590868 754.899971 
L 1601.052781 749.82372 
L 1602.438519 749.82372 
L 1602.900432 739.432559 
L 1604.286171 739.432559 
L 1604.748084 733.278976 
L 1606.133822 733.278976 
L 1606.595735 724.789279 
L 1607.981474 724.789279 
L 1608.443387 722.457766 
L 1609.829125 722.457766 
L 1610.291038 712.881487 
L 1611.676777 712.881487 
L 1612.13869 704.946725 
L 1613.524428 704.946725 
L 1613.986341 697.151924 
L 1615.37208 697.151924 
L 1615.833993 689.66737 
L 1619.067383 689.66737 
L 1619.529296 684.464064 
L 1620.915035 684.464064 
L 1621.376947 679.946273 
L 1622.762686 679.946273 
L 1623.224599 682.064485 
L 1624.610338 682.064485 
L 1625.07225 678.063313 
L 1626.457989 678.063313 
L 1626.919902 671.110575 
L 1628.305641 671.110575 
L 1628.767554 666.121703 
L 1630.153292 666.121703 
L 1630.615205 661.091222 
L 1632.000944 661.091222 
L 1632.462857 654.433369 
L 1633.848595 654.433369 
L 1634.310508 640.253256 
L 1635.696247 640.253256 
L 1636.15816 638.666887 
L 1637.543898 638.666887 
L 1638.005811 636.448007 
L 1639.39155 636.448007 
L 1639.853463 627.739298 
L 1641.239201 627.739298 
L 1641.701114 621.510211 
L 1643.086853 621.510211 
L 1643.548766 617.216949 
L 1644.934504 617.216949 
L 1645.396417 609.504095 
L 1646.782156 609.504095 
L 1647.244069 600.715534 
L 1648.629807 600.715534 
L 1649.09172 596.041696 
L 1650.477459 596.041696 
L 1650.939372 595.183637 
L 1652.325111 595.183637 
L 1652.787023 592.694056 
L 1654.172762 592.694056 
L 1654.634675 589.349099 
L 1656.020414 589.349099 
L 1656.482326 584.451973 
L 1657.868065 584.451973 
L 1658.329978 582.852701 
L 1659.715717 582.852701 
L 1660.17763 575.951628 
L 1661.563368 575.951628 
L 1662.025281 573.590675 
L 1663.41102 573.590675 
L 1663.872933 570.006961 
L 1665.258671 570.006961 
L 1665.720584 566.441698 
L 1667.106323 566.441698 
L 1667.568236 562.502966 
L 1670.801626 562.502966 
L 1671.263539 560.16612 
L 1672.649277 560.16612 
L 1673.11119 558.996995 
L 1674.496929 558.996995 
L 1674.958842 553.967488 
L 1678.192232 553.967488 
L 1678.654145 555.126095 
L 1680.039883 555.126095 
L 1680.501796 555.517093 
L 1681.887535 555.517093 
L 1682.349448 553.286373 
L 1683.735187 553.286373 
L 1684.197099 546.1094 
L 1685.582838 546.1094 
L 1686.044751 543.220485 
L 1687.43049 543.220485 
L 1687.892402 543.888041 
L 1689.278141 543.888041 
L 1689.740054 536.8576 
L 1691.125793 536.8576 
L 1691.587706 531.124569 
L 1692.973444 531.124569 
L 1693.435357 530.194066 
L 1694.821096 530.194066 
L 1695.283009 527.513062 
L 1696.668747 527.513062 
L 1697.13066 523.704378 
L 1698.516399 523.704378 
L 1698.978312 523.117668 
L 1700.36405 523.117668 
L 1700.825963 519.108825 
L 1702.211702 519.108825 
L 1702.673615 515.979733 
L 1704.059353 515.979733 
L 1704.521266 510.844941 
L 1705.907005 510.844941 
L 1706.368918 507.806224 
L 1707.754656 507.806224 
L 1708.216569 503.751089 
L 1709.602308 503.751089 
L 1710.064221 500.02834 
L 1711.449959 500.02834 
L 1711.911872 497.107442 
L 1713.297611 497.107442 
L 1713.759524 496.612916 
L 1715.145262 496.612916 
L 1715.607175 492.991236 
L 1716.992914 492.991236 
L 1717.454827 487.971979 
L 1718.840566 487.971979 
L 1719.302478 483.586423 
L 1720.688217 483.586423 
L 1721.15013 477.539125 
L 1722.535869 477.539125 
L 1722.997781 472.071258 
L 1724.38352 472.071258 
L 1724.845433 459.184345 
L 1726.231172 459.184345 
L 1726.693085 450.087561 
L 1728.078823 450.087561 
L 1728.540736 443.358262 
L 1729.926475 443.358262 
L 1730.388388 439.14313 
L 1731.774126 439.14313 
L 1732.236039 433.150339 
L 1733.621778 433.150339 
L 1734.083691 428.849213 
L 1735.469429 428.849213 
L 1735.931342 418.863983 
L 1737.317081 418.863983 
L 1737.778994 413.34353 
L 1739.164732 413.34353 
L 1739.626645 407.765558 
L 1741.012384 407.765558 
L 1741.474297 403.299683 
L 1742.860035 403.299683 
L 1743.321948 397.843152 
L 1744.707687 397.843152 
L 1745.1696 392.665199 
L 1746.555338 392.665199 
L 1747.017251 386.933253 
L 1748.40299 386.933253 
L 1748.864903 380.999138 
L 1750.250642 380.999138 
L 1750.712554 379.129674 
L 1752.098293 379.129674 
L 1752.560206 375.683254 
L 1753.945945 375.683254 
L 1754.407857 374.452079 
L 1755.793596 374.452079 
L 1756.255509 372.970983 
L 1757.641248 372.970983 
L 1758.103161 370.52875 
L 1759.488899 370.52875 
L 1759.950812 366.658392 
L 1761.336551 366.658392 
L 1761.798464 365.208258 
L 1763.184202 365.208258 
L 1763.646115 362.817092 
L 1765.031854 362.817092 
L 1765.493767 360.684722 
L 1768.727157 360.684722 
L 1769.18907 360.450288 
L 1770.574808 360.450288 
L 1771.036721 358.791052 
L 1772.42246 358.791052 
L 1772.884373 358.075332 
L 1774.270111 358.075332 
L 1774.732024 356.439451 
L 1776.117763 356.439451 
L 1776.579676 355.278415 
L 1777.965414 355.278415 
L 1778.427327 352.635922 
L 1779.813066 352.635922 
L 1780.274979 348.243201 
L 1781.660718 348.243201 
L 1782.12263 347.313523 
L 1783.508369 347.313523 
L 1783.970282 342.672647 
L 1785.356021 342.672647 
L 1785.817933 339.716204 
L 1787.203672 339.716204 
L 1787.665585 337.879096 
L 1789.051324 337.879096 
L 1789.513237 334.764635 
L 1790.898975 334.764635 
L 1791.360888 330.396804 
L 1792.746627 330.396804 
L 1793.20854 326.985368 
L 1794.594278 326.985368 
L 1795.056191 321.809455 
L 1796.44193 321.809455 
L 1796.903843 319.685992 
L 1798.289581 319.685992 
L 1798.751494 317.40702 
L 1800.137233 317.40702 
L 1800.599146 312.252065 
L 1801.984884 312.252065 
L 1802.446797 311.215634 
L 1803.832536 311.215634 
L 1804.294449 310.03363 
L 1805.680187 310.03363 
L 1806.1421 307.086912 
L 1807.527839 307.086912 
L 1807.989752 304.604618 
L 1809.37549 304.604618 
L 1809.837403 300.922252 
L 1811.223142 300.922252 
L 1811.685055 297.059525 
L 1813.070794 297.059525 
L 1813.532706 295.357302 
L 1814.918445 295.357302 
L 1815.380358 292.507127 
L 1816.766097 292.507127 
L 1817.228009 291.030387 
L 1818.613748 291.030387 
L 1819.075661 291.568 
L 1820.4614 291.568 
L 1820.923313 287.366192 
L 1822.309051 287.366192 
L 1822.770964 287.183466 
L 1824.156703 287.183466 
L 1824.618616 285.127901 
L 1827.852006 285.127901 
L 1828.313919 282.777491 
L 1829.699657 282.777491 
L 1830.16157 280.86023 
L 1831.547309 280.86023 
L 1832.009222 278.431248 
L 1833.39496 278.431248 
L 1833.856873 277.595738 
L 1835.242612 277.595738 
L 1835.704525 274.375497 
L 1837.090263 274.375497 
L 1837.552176 272.05286 
L 1838.937915 272.05286 
L 1839.399828 269.650176 
L 1840.785566 269.650176 
L 1841.247479 264.387923 
L 1842.633218 264.387923 
L 1843.095131 260.757741 
L 1846.328521 260.754817 
L 1846.790434 259.710974 
L 1848.176173 259.710974 
L 1848.638085 261.296815 
L 1850.023824 261.296815 
L 1850.485737 258.056252 
L 1851.871476 258.056252 
L 1852.333389 260.196396 
L 1853.719127 260.196396 
L 1854.18104 257.633724 
L 1855.566779 257.633724 
L 1856.028692 257.495107 
L 1857.41443 257.495107 
L 1857.876343 258.189341 
L 1861.109733 258.122813 
L 1861.571646 258.69446 
L 1862.957385 258.69446 
L 1863.419298 255.521631 
L 1864.805036 255.521631 
L 1865.266949 253.473775 
L 1866.652688 253.473775 
L 1867.114601 252.658369 
L 1868.500339 252.658369 
L 1868.962252 251.353244 
L 1870.347991 251.353244 
L 1870.809904 250.140609 
L 1872.195642 250.140609 
L 1872.657555 247.034264 
L 1875.890946 247.034264 
L 1876.352858 245.813556 
L 1877.738597 245.813556 
L 1878.20051 243.877796 
L 1879.586249 243.877796 
L 1880.048161 243.085555 
L 1881.4339 243.085555 
L 1881.895813 242.227272 
L 1883.281552 242.227272 
L 1883.743465 240.3255 
L 1885.129203 240.3255 
L 1885.591116 239.168571 
L 1886.976855 239.168571 
L 1887.438768 238.365442 
L 1888.824506 238.365442 
L 1889.286419 237.585623 
L 1892.519809 237.531057 
L 1892.981722 236.014874 
L 1896.215112 235.961303 
L 1896.677025 234.049734 
L 1898.062764 234.049734 
L 1898.524677 232.913422 
L 1899.910415 232.913422 
L 1900.372328 231.762719 
L 1901.758067 231.762719 
L 1902.21998 231.304058 
L 1903.605718 231.304058 
L 1904.067631 229.797722 
L 1905.45337 229.797722 
L 1905.915283 228.676279 
L 1907.301022 228.676279 
L 1907.762934 229.42888 
L 1909.148673 229.42888 
L 1909.610586 228.361089 
L 1910.996325 228.361089 
L 1911.458237 226.110375 
L 1912.843976 226.110375 
L 1913.305889 225.039921 
L 1914.691628 225.039921 
L 1915.153541 225.783794 
L 1916.539279 225.783794 
L 1917.001192 223.968048 
L 1918.386931 223.968048 
L 1918.848844 223.214696 
L 1921.620321 223.2 
L 1921.620321 223.2 
" clip-path="url(#p83ada15821)" style="fill: none; stroke: #0000ff; stroke-width: 1.5; stroke-linecap: square"/>
   </g>
   <g id="patch_15">
    <path d="M 1451.647059 1281.6 
L 1451.647059 172.8 
" style="fill: none; stroke: #000000; stroke-width: 0.8; stroke-linejoin: miter; stroke-linecap: square"/>
   </g>
   <g id="patch_16">
    <path d="M 1944 1281.6 
L 1944 172.8 
" style="fill: none; stroke: #000000; stroke-width: 0.8; stroke-linejoin: miter; stroke-linecap: square"/>
   </g>
   <g id="patch_17">
    <path d="M 1451.647059 1281.6 
L 1944 1281.6 
" style="fill: none; stroke: #000000; stroke-width: 0.8; stroke-linejoin: miter; stroke-linecap: square"/>
   </g>
   <g id="patch_18">
    <path d="M 1451.647059 172.8 
L 1944 172.8 
" style="fill: none; stroke: #000000; stroke-width: 0.8; stroke-linejoin: miter; stroke-linecap: square"/>
   </g>
   <g id="legend_3">
    <g id="patch_19">
     <path d="M 1852.957813 195.478125 
L 1937 195.478125 
Q 1939 195.478125 1939 193.478125 
L 1939 179.8 
Q 1939 177.8 1937 177.8 
L 1852.957813 177.8 
Q 1850.957813 177.8 1850.957813 179.8 
L 1850.957813 193.478125 
Q 1850.957813 195.478125 1852.957813 195.478125 
z
" style="fill: #ffffff; opacity: 0.8; stroke: #cccccc; stroke-linejoin: miter"/>
    </g>
    <g id="line2d_44">
     <path d="M 1854.957813 185.898437 
L 1864.957813 185.898437 
L 1874.957813 185.898437 
" style="fill: none; stroke: #0000ff; stroke-width: 1.5; stroke-linecap: square"/>
    </g>
    <g id="text_41">
     <!-- O3 reward -->
     <g transform="translate(1882.957813 189.398437) scale(0.1 -0.1)">
      <defs>
       <path id="DejaVuSans-33" d="M 2597 2516 
Q 3050 2419 3304 2112 
Q 3559 1806 3559 1356 
Q 3559 666 3084 287 
Q 2609 -91 1734 -91 
Q 1441 -91 1130 -33 
Q 819 25 488 141 
L 488 750 
Q 750 597 1062 519 
Q 1375 441 1716 441 
Q 2309 441 2620 675 
Q 2931 909 2931 1356 
Q 2931 1769 2642 2001 
Q 2353 2234 1838 2234 
L 1294 2234 
L 1294 2753 
L 1863 2753 
Q 2328 2753 2575 2939 
Q 2822 3125 2822 3475 
Q 2822 3834 2567 4026 
Q 2313 4219 1838 4219 
Q 1578 4219 1281 4162 
Q 984 4106 628 3988 
L 628 4550 
Q 988 4650 1302 4700 
Q 1616 4750 1894 4750 
Q 2613 4750 3031 4423 
Q 3450 4097 3450 3541 
Q 3450 3153 3228 2886 
Q 3006 2619 2597 2516 
z
" transform="scale(0.015625)"/>
      </defs>
      <use xlink:href="#DejaVuSans-4f"/>
      <use xlink:href="#DejaVuSans-33" x="78.710938"/>
      <use xlink:href="#DejaVuSans-20" x="142.333984"/>
      <use xlink:href="#DejaVuSans-72" x="174.121094"/>
      <use xlink:href="#DejaVuSans-65" x="212.984375"/>
      <use xlink:href="#DejaVuSans-77" x="274.507812"/>
      <use xlink:href="#DejaVuSans-61" x="356.294922"/>
      <use xlink:href="#DejaVuSans-72" x="417.574219"/>
      <use xlink:href="#DejaVuSans-64" x="456.9375"/>
     </g>
    </g>
   </g>
  </g>
 </g>
 <defs>
  <clipPath id="pc4bd53206a">
   <rect x="270" y="172.8" width="492.352941" height="1108.8"/>
  </clipPath>
  <clipPath id="p993a4f1b56">
   <rect x="860.823529" y="172.8" width="492.352941" height="1108.8"/>
  </clipPath>
  <clipPath id="p83ada15821">
   <rect x="1451.647059" y="172.8" width="492.352941" height="1108.8"/>
  </clipPath>
 </defs>
</svg>
