<?xml version="1.0" encoding="utf-8" standalone="no"?>
<!DOCTYPE svg PUBLIC "-//W3C//DTD SVG 1.1//EN"
  "http://www.w3.org/Graphics/SVG/1.1/DTD/svg11.dtd">
<svg xmlns:xlink="http://www.w3.org/1999/xlink" width="2160pt" height="1440pt" viewBox="0 0 2160 1440" xmlns="http://www.w3.org/2000/svg" version="1.1">
 <metadata>
  <rdf:RDF xmlns:dc="http://purl.org/dc/elements/1.1/" xmlns:cc="http://creativecommons.org/ns#" xmlns:rdf="http://www.w3.org/1999/02/22-rdf-syntax-ns#">
   <cc:Work>
    <dc:type rdf:resource="http://purl.org/dc/dcmitype/StillImage"/>
    <dc:date>2023-05-31T19:33:18.647262</dc:date>
    <dc:format>image/svg+xml</dc:format>
    <dc:creator>
     <cc:Agent>
      <dc:title>Matplotlib v3.7.1, https://matplotlib.org/</dc:title>
     </cc:Agent>
    </dc:creator>
   </cc:Work>
  </rdf:RDF>
 </metadata>
 <defs>
  <style type="text/css">*{stroke-linejoin: round; stroke-linecap: butt}</style>
 </defs>
 <g id="figure_1">
  <g id="patch_1">
   <path d="M 0 1440 
L 2160 1440 
L 2160 0 
L 0 0 
z
" style="fill: #ffffff"/>
  </g>
  <g id="axes_1">
   <g id="patch_2">
    <path d="M 270 1281.6 
L 762.352941 1281.6 
L 762.352941 172.8 
L 270 172.8 
z
" style="fill: #ffffff"/>
   </g>
   <g id="matplotlib.axis_1">
    <g id="xtick_1">
     <g id="line2d_1">
      <defs>
       <path id="m962e462bd2" d="M 0 0 
L 0 3.5 
" style="stroke: #000000; stroke-width: 0.8"/>
      </defs>
      <g>
       <use xlink:href="#m962e462bd2" x="291.876199" y="1281.6" style="stroke: #000000; stroke-width: 0.8"/>
      </g>
     </g>
     <g id="text_1">
      <!-- 0 -->
      <g transform="translate(288.694949 1296.198437) scale(0.1 -0.1)">
       <defs>
        <path id="DejaVuSans-30" d="M 2034 4250 
Q 1547 4250 1301 3770 
Q 1056 3291 1056 2328 
Q 1056 1369 1301 889 
Q 1547 409 2034 409 
Q 2525 409 2770 889 
Q 3016 1369 3016 2328 
Q 3016 3291 2770 3770 
Q 2525 4250 2034 4250 
z
M 2034 4750 
Q 2819 4750 3233 4129 
Q 3647 3509 3647 2328 
Q 3647 1150 3233 529 
Q 2819 -91 2034 -91 
Q 1250 -91 836 529 
Q 422 1150 422 2328 
Q 422 3509 836 4129 
Q 1250 4750 2034 4750 
z
" transform="scale(0.015625)"/>
       </defs>
       <use xlink:href="#DejaVuSans-30"/>
      </g>
     </g>
    </g>
    <g id="xtick_2">
     <g id="line2d_2">
      <g>
       <use xlink:href="#m962e462bd2" x="392.572168" y="1281.6" style="stroke: #000000; stroke-width: 0.8"/>
      </g>
     </g>
     <g id="text_2">
      <!-- 200 -->
      <g transform="translate(383.028418 1296.198437) scale(0.1 -0.1)">
       <defs>
        <path id="DejaVuSans-32" d="M 1228 531 
L 3431 531 
L 3431 0 
L 469 0 
L 469 531 
Q 828 903 1448 1529 
Q 2069 2156 2228 2338 
Q 2531 2678 2651 2914 
Q 2772 3150 2772 3378 
Q 2772 3750 2511 3984 
Q 2250 4219 1831 4219 
Q 1534 4219 1204 4116 
Q 875 4013 500 3803 
L 500 4441 
Q 881 4594 1212 4672 
Q 1544 4750 1819 4750 
Q 2544 4750 2975 4387 
Q 3406 4025 3406 3419 
Q 3406 3131 3298 2873 
Q 3191 2616 2906 2266 
Q 2828 2175 2409 1742 
Q 1991 1309 1228 531 
z
" transform="scale(0.015625)"/>
       </defs>
       <use xlink:href="#DejaVuSans-32"/>
       <use xlink:href="#DejaVuSans-30" x="63.623047"/>
       <use xlink:href="#DejaVuSans-30" x="127.246094"/>
      </g>
     </g>
    </g>
    <g id="xtick_3">
     <g id="line2d_3">
      <g>
       <use xlink:href="#m962e462bd2" x="493.268138" y="1281.6" style="stroke: #000000; stroke-width: 0.8"/>
      </g>
     </g>
     <g id="text_3">
      <!-- 400 -->
      <g transform="translate(483.724388 1296.198437) scale(0.1 -0.1)">
       <defs>
        <path id="DejaVuSans-34" d="M 2419 4116 
L 825 1625 
L 2419 1625 
L 2419 4116 
z
M 2253 4666 
L 3047 4666 
L 3047 1625 
L 3713 1625 
L 3713 1100 
L 3047 1100 
L 3047 0 
L 2419 0 
L 2419 1100 
L 313 1100 
L 313 1709 
L 2253 4666 
z
" transform="scale(0.015625)"/>
       </defs>
       <use xlink:href="#DejaVuSans-34"/>
       <use xlink:href="#DejaVuSans-30" x="63.623047"/>
       <use xlink:href="#DejaVuSans-30" x="127.246094"/>
      </g>
     </g>
    </g>
    <g id="xtick_4">
     <g id="line2d_4">
      <g>
       <use xlink:href="#m962e462bd2" x="593.964107" y="1281.6" style="stroke: #000000; stroke-width: 0.8"/>
      </g>
     </g>
     <g id="text_4">
      <!-- 600 -->
      <g transform="translate(584.420357 1296.198437) scale(0.1 -0.1)">
       <defs>
        <path id="DejaVuSans-36" d="M 2113 2584 
Q 1688 2584 1439 2293 
Q 1191 2003 1191 1497 
Q 1191 994 1439 701 
Q 1688 409 2113 409 
Q 2538 409 2786 701 
Q 3034 994 3034 1497 
Q 3034 2003 2786 2293 
Q 2538 2584 2113 2584 
z
M 3366 4563 
L 3366 3988 
Q 3128 4100 2886 4159 
Q 2644 4219 2406 4219 
Q 1781 4219 1451 3797 
Q 1122 3375 1075 2522 
Q 1259 2794 1537 2939 
Q 1816 3084 2150 3084 
Q 2853 3084 3261 2657 
Q 3669 2231 3669 1497 
Q 3669 778 3244 343 
Q 2819 -91 2113 -91 
Q 1303 -91 875 529 
Q 447 1150 447 2328 
Q 447 3434 972 4092 
Q 1497 4750 2381 4750 
Q 2619 4750 2861 4703 
Q 3103 4656 3366 4563 
z
" transform="scale(0.015625)"/>
       </defs>
       <use xlink:href="#DejaVuSans-36"/>
       <use xlink:href="#DejaVuSans-30" x="63.623047"/>
       <use xlink:href="#DejaVuSans-30" x="127.246094"/>
      </g>
     </g>
    </g>
    <g id="xtick_5">
     <g id="line2d_5">
      <g>
       <use xlink:href="#m962e462bd2" x="694.660076" y="1281.6" style="stroke: #000000; stroke-width: 0.8"/>
      </g>
     </g>
     <g id="text_5">
      <!-- 800 -->
      <g transform="translate(685.116326 1296.198437) scale(0.1 -0.1)">
       <defs>
        <path id="DejaVuSans-38" d="M 2034 2216 
Q 1584 2216 1326 1975 
Q 1069 1734 1069 1313 
Q 1069 891 1326 650 
Q 1584 409 2034 409 
Q 2484 409 2743 651 
Q 3003 894 3003 1313 
Q 3003 1734 2745 1975 
Q 2488 2216 2034 2216 
z
M 1403 2484 
Q 997 2584 770 2862 
Q 544 3141 544 3541 
Q 544 4100 942 4425 
Q 1341 4750 2034 4750 
Q 2731 4750 3128 4425 
Q 3525 4100 3525 3541 
Q 3525 3141 3298 2862 
Q 3072 2584 2669 2484 
Q 3125 2378 3379 2068 
Q 3634 1759 3634 1313 
Q 3634 634 3220 271 
Q 2806 -91 2034 -91 
Q 1263 -91 848 271 
Q 434 634 434 1313 
Q 434 1759 690 2068 
Q 947 2378 1403 2484 
z
M 1172 3481 
Q 1172 3119 1398 2916 
Q 1625 2713 2034 2713 
Q 2441 2713 2670 2916 
Q 2900 3119 2900 3481 
Q 2900 3844 2670 4047 
Q 2441 4250 2034 4250 
Q 1625 4250 1398 4047 
Q 1172 3844 1172 3481 
z
" transform="scale(0.015625)"/>
       </defs>
       <use xlink:href="#DejaVuSans-38"/>
       <use xlink:href="#DejaVuSans-30" x="63.623047"/>
       <use xlink:href="#DejaVuSans-30" x="127.246094"/>
      </g>
     </g>
    </g>
   </g>
   <g id="matplotlib.axis_2">
    <g id="ytick_1">
     <g id="line2d_6">
      <defs>
       <path id="m46cc7cc60c" d="M 0 0 
L -3.5 0 
" style="stroke: #000000; stroke-width: 0.8"/>
      </defs>
      <g>
       <use xlink:href="#m46cc7cc60c" x="270" y="1119.616138" style="stroke: #000000; stroke-width: 0.8"/>
      </g>
     </g>
     <g id="text_6">
      <!-- −10 -->
      <g transform="translate(241.895312 1123.415356) scale(0.1 -0.1)">
       <defs>
        <path id="DejaVuSans-2212" d="M 678 2272 
L 4684 2272 
L 4684 1741 
L 678 1741 
L 678 2272 
z
" transform="scale(0.015625)"/>
        <path id="DejaVuSans-31" d="M 794 531 
L 1825 531 
L 1825 4091 
L 703 3866 
L 703 4441 
L 1819 4666 
L 2450 4666 
L 2450 531 
L 3481 531 
L 3481 0 
L 794 0 
L 794 531 
z
" transform="scale(0.015625)"/>
       </defs>
       <use xlink:href="#DejaVuSans-2212"/>
       <use xlink:href="#DejaVuSans-31" x="83.789062"/>
       <use xlink:href="#DejaVuSans-30" x="147.412109"/>
      </g>
     </g>
    </g>
    <g id="ytick_2">
     <g id="line2d_7">
      <g>
       <use xlink:href="#m46cc7cc60c" x="270" y="943.848268" style="stroke: #000000; stroke-width: 0.8"/>
      </g>
     </g>
     <g id="text_7">
      <!-- −8 -->
      <g transform="translate(248.257812 947.647486) scale(0.1 -0.1)">
       <use xlink:href="#DejaVuSans-2212"/>
       <use xlink:href="#DejaVuSans-38" x="83.789062"/>
      </g>
     </g>
    </g>
    <g id="ytick_3">
     <g id="line2d_8">
      <g>
       <use xlink:href="#m46cc7cc60c" x="270" y="768.080397" style="stroke: #000000; stroke-width: 0.8"/>
      </g>
     </g>
     <g id="text_8">
      <!-- −6 -->
      <g transform="translate(248.257812 771.879616) scale(0.1 -0.1)">
       <use xlink:href="#DejaVuSans-2212"/>
       <use xlink:href="#DejaVuSans-36" x="83.789062"/>
      </g>
     </g>
    </g>
    <g id="ytick_4">
     <g id="line2d_9">
      <g>
       <use xlink:href="#m46cc7cc60c" x="270" y="592.312527" style="stroke: #000000; stroke-width: 0.8"/>
      </g>
     </g>
     <g id="text_9">
      <!-- −4 -->
      <g transform="translate(248.257812 596.111746) scale(0.1 -0.1)">
       <use xlink:href="#DejaVuSans-2212"/>
       <use xlink:href="#DejaVuSans-34" x="83.789062"/>
      </g>
     </g>
    </g>
    <g id="ytick_5">
     <g id="line2d_10">
      <g>
       <use xlink:href="#m46cc7cc60c" x="270" y="416.544657" style="stroke: #000000; stroke-width: 0.8"/>
      </g>
     </g>
     <g id="text_10">
      <!-- −2 -->
      <g transform="translate(248.257812 420.343876) scale(0.1 -0.1)">
       <use xlink:href="#DejaVuSans-2212"/>
       <use xlink:href="#DejaVuSans-32" x="83.789062"/>
      </g>
     </g>
    </g>
    <g id="ytick_6">
     <g id="line2d_11">
      <g>
       <use xlink:href="#m46cc7cc60c" x="270" y="240.776787" style="stroke: #000000; stroke-width: 0.8"/>
      </g>
     </g>
     <g id="text_11">
      <!-- 0 -->
      <g transform="translate(256.6375 244.576006) scale(0.1 -0.1)">
       <use xlink:href="#DejaVuSans-30"/>
      </g>
     </g>
    </g>
   </g>
   <g id="line2d_12">
    <path d="M 292.379679 240.776787 
L 317.553671 240.776787 
L 318.057151 223.2 
L 319.567591 223.2 
L 320.071071 234.917858 
L 321.58151 234.917858 
L 322.08499 254.838217 
L 323.59543 254.838217 
L 324.098909 257.091651 
L 325.609349 257.091651 
L 326.112829 279.432842 
L 327.623268 279.432842 
L 328.126748 289.143474 
L 329.637188 289.143474 
L 330.140668 299.536098 
L 331.651107 299.536098 
L 332.154587 308.663082 
L 333.665026 308.663082 
L 334.168506 320.501538 
L 335.678946 320.501538 
L 336.182426 329.510041 
L 339.706785 329.510041 
L 340.210264 322.052272 
L 343.734623 322.052272 
L 344.238103 332.655274 
L 345.748543 332.655274 
L 346.252023 323.696006 
L 347.762462 323.696006 
L 348.265942 316.468443 
L 351.790301 316.468443 
L 352.293781 318.28349 
L 353.80422 318.28349 
L 354.3077 309.363756 
L 357.832059 309.363756 
L 358.335539 300.479747 
L 359.845978 300.479747 
L 360.349458 291.629762 
L 361.859898 291.629762 
L 362.363378 299.828755 
L 363.873817 299.828755 
L 364.377297 286.513007 
L 367.901656 286.513007 
L 368.405136 274.172461 
L 369.915575 274.172461 
L 370.419055 281.93661 
L 371.929495 281.93661 
L 372.432975 274.172461 
L 373.943414 274.172461 
L 374.446894 286.03287 
L 377.971253 286.03287 
L 378.474733 294.404522 
L 379.985172 294.404522 
L 380.488652 308.987447 
L 381.999092 308.987447 
L 382.502572 306.795759 
L 384.013011 306.795759 
L 384.516491 312.314295 
L 386.02693 312.314295 
L 386.53041 310.207673 
L 388.04085 310.207673 
L 388.54433 308.148042 
L 390.054769 308.148042 
L 390.558249 311.760094 
L 392.068689 311.760094 
L 392.572168 332.441304 
L 394.082608 332.441304 
L 394.586088 325.070118 
L 396.096527 325.070118 
L 396.600007 330.790588 
L 398.110447 330.790588 
L 398.613927 351.204879 
L 400.124366 351.204879 
L 400.627846 358.177219 
L 402.138286 358.177219 
L 402.641765 364.327125 
L 408.180044 364.327125 
L 408.683524 371.145282 
L 410.193963 371.145282 
L 410.697443 384.113346 
L 412.207882 384.113346 
L 412.711362 377.306034 
L 414.221802 377.306034 
L 414.725282 390.29638 
L 416.235721 390.29638 
L 416.739201 403.167252 
L 418.249641 403.167252 
L 418.75312 409.380589 
L 420.26356 409.380589 
L 420.76704 429.027329 
L 422.277479 429.027329 
L 422.780959 442.229062 
L 424.291399 442.229062 
L 424.794879 462.110045 
L 426.305318 462.110045 
L 426.808798 481.657503 
L 428.319238 481.657503 
L 428.822717 494.78939 
L 430.333157 494.78939 
L 430.836637 501.505264 
L 432.347076 501.505264 
L 432.850556 514.637151 
L 434.360996 514.637151 
L 434.864475 508.311276 
L 436.374915 508.311276 
L 436.878395 495.814524 
L 438.388834 495.814524 
L 438.892314 483.462081 
L 440.402754 483.462081 
L 440.906234 477.285859 
L 442.416673 477.285859 
L 442.920153 490.487763 
L 446.444512 490.546825 
L 446.947992 491.678281 
L 448.458431 491.678281 
L 448.961911 512.2426 
L 452.48627 512.235446 
L 452.98975 500.388086 
L 454.500189 500.388086 
L 455.003669 494.471254 
L 456.514109 494.471254 
L 457.017589 482.657135 
L 458.528028 482.657135 
L 459.031508 496.156071 
L 460.541948 496.156071 
L 461.045427 502.059918 
L 464.569786 502.059918 
L 465.073266 507.963765 
L 466.583706 507.963765 
L 467.087186 502.065957 
L 468.597625 502.065957 
L 469.101105 498.000432 
L 470.611545 498.000432 
L 471.115024 486.331697 
L 472.625464 486.331697 
L 473.128944 488.292574 
L 474.639383 488.292574 
L 475.142863 498.239371 
L 476.653303 498.239371 
L 477.156783 500.42881 
L 478.667222 500.42881 
L 479.170702 494.640229 
L 482.695061 494.640229 
L 483.198541 508.374201 
L 484.70898 508.374201 
L 485.21246 502.666274 
L 486.7229 502.666274 
L 487.226379 496.962896 
L 488.736819 496.962896 
L 489.240299 499.345242 
L 490.750738 499.345242 
L 491.254218 501.776165 
L 492.764658 501.776165 
L 493.268138 509.923652 
L 494.778577 509.923652 
L 495.282057 523.794723 
L 496.792497 523.794723 
L 497.295976 545.885941 
L 498.806416 545.885941 
L 499.309896 559.757009 
L 500.820335 559.757009 
L 501.323815 579.270718 
L 502.834255 579.270718 
L 503.337735 601.370273 
L 504.848174 601.370273 
L 505.351654 620.843245 
L 506.862093 620.843245 
L 507.365573 648.661237 
L 508.876013 648.661237 
L 509.379493 670.926312 
L 510.889932 670.926312 
L 511.393412 676.539133 
L 512.903852 676.539133 
L 513.407331 698.859163 
L 514.917771 698.859163 
L 515.421251 701.610647 
L 516.93169 701.610647 
L 517.43517 718.375803 
L 520.959529 718.375803 
L 521.463009 726.757152 
L 524.987368 726.772644 
L 525.490848 735.163663 
L 527.001287 735.163663 
L 527.504767 729.607361 
L 531.029126 729.604217 
L 531.532606 738.055609 
L 533.043045 738.055609 
L 533.546525 752.049556 
L 535.056965 752.049556 
L 535.560445 741.021959 
L 537.070884 741.021959 
L 537.574364 744.06234 
L 539.084804 744.06234 
L 539.588283 733.10256 
L 541.098723 733.10256 
L 541.602203 716.729025 
L 543.112642 716.729025 
L 543.616122 725.325433 
L 545.126562 725.325433 
L 545.630042 708.997562 
L 547.140481 708.997562 
L 547.643961 723.063522 
L 549.1544 723.063522 
L 549.65788 720.823646 
L 555.196159 720.823646 
L 555.699638 715.421243 
L 557.210078 715.421243 
L 557.713558 704.628875 
L 559.223997 704.628875 
L 559.727477 693.84416 
L 561.237917 693.84416 
L 561.741397 672.311666 
L 563.251836 672.311666 
L 563.755316 650.875896 
L 565.265756 650.875896 
L 565.769235 634.846142 
L 567.279675 634.846142 
L 567.783155 618.855905 
L 569.293594 618.855905 
L 569.797074 613.535118 
L 571.307514 613.535118 
L 571.810994 597.598957 
L 573.321433 597.598957 
L 573.824913 586.987049 
L 577.349272 586.991366 
L 577.852752 581.694934 
L 579.363191 581.694934 
L 579.866671 565.823533 
L 581.377111 565.823533 
L 581.88059 580.056568 
L 583.39103 580.056568 
L 583.89451 564.213736 
L 585.404949 564.213736 
L 585.908429 582.163464 
L 587.418869 582.163464 
L 587.922349 615.938082 
L 589.432788 615.938082 
L 589.936268 610.670741 
L 591.446708 610.670741 
L 591.950187 609.136121 
L 593.460627 609.136121 
L 593.964107 588.108604 
L 595.474546 588.108604 
L 595.978026 597.136575 
L 597.488466 597.136575 
L 597.991946 620.446665 
L 599.502385 620.446665 
L 600.005865 642.362295 
L 601.516304 642.362295 
L 602.019784 656.644505 
L 603.530224 656.644505 
L 604.033704 681.369778 
L 605.544143 681.369778 
L 606.047623 704.739407 
L 607.558063 704.739407 
L 608.061542 719.034511 
L 609.571982 719.034511 
L 610.075462 728.131545 
L 611.585901 728.131545 
L 612.089381 730.730646 
L 613.599821 730.730646 
L 614.103301 754.154265 
L 615.61374 754.154265 
L 616.11722 773.663772 
L 617.62766 773.663772 
L 618.131139 777.600561 
L 619.641579 777.600561 
L 620.145059 786.730442 
L 621.655498 786.730442 
L 622.158978 814.151886 
L 623.669418 814.151886 
L 624.172898 837.631532 
L 625.683337 837.631532 
L 626.186817 879.467696 
L 627.697256 879.467696 
L 628.200736 930.546406 
L 629.711176 930.546406 
L 630.214656 948.92831 
L 631.725095 948.92831 
L 632.228575 986.848535 
L 633.739015 986.848535 
L 634.242494 1018.529302 
L 635.752934 1018.529302 
L 636.256414 1013.373167 
L 637.766853 1013.373167 
L 638.270333 1003.069882 
L 639.780773 1003.069882 
L 640.284253 992.771085 
L 643.808611 992.769711 
L 644.312091 987.624402 
L 645.822531 987.624402 
L 646.326011 982.477732 
L 647.83645 982.477732 
L 648.33993 972.192917 
L 649.85037 972.192917 
L 650.353849 966.014038 
L 651.864289 966.014038 
L 652.367769 964.980673 
L 653.878208 964.980673 
L 654.381688 987.591033 
L 655.892128 987.591033 
L 656.395608 982.458116 
L 657.906047 982.458116 
L 658.409527 991.71323 
L 659.919967 991.71323 
L 660.423446 1010.231558 
L 661.933886 1010.231558 
L 662.437366 1009.233238 
L 663.947805 1009.233238 
L 664.451285 1018.500455 
L 665.961725 1018.500455 
L 666.465205 1030.94573 
L 667.975644 1030.94573 
L 668.479124 1035.102836 
L 669.989563 1035.102836 
L 670.493043 1043.42507 
L 672.003483 1043.42507 
L 672.506963 1048.539408 
L 674.017402 1048.539408 
L 674.520882 1042.485816 
L 676.031322 1042.485816 
L 676.534801 1041.552772 
L 678.045241 1041.552772 
L 678.548721 1055.957584 
L 680.05916 1055.957584 
L 680.56264 1040.626002 
L 682.07308 1040.626002 
L 682.57656 1044.813837 
L 684.086999 1044.813837 
L 684.590479 1067.610947 
L 686.100919 1067.610947 
L 686.604398 1062.504923 
L 688.114838 1062.504923 
L 688.618318 1076.012308 
L 690.128757 1076.012308 
L 690.632237 1089.534088 
L 692.142677 1089.534088 
L 692.646157 1103.061422 
L 694.156596 1103.061422 
L 694.660076 1146.318641 
L 696.170515 1146.318641 
L 696.673995 1151.417582 
L 698.184435 1151.417582 
L 698.687915 1170.939741 
L 700.198354 1170.939741 
L 700.701834 1170.083945 
L 702.212274 1170.083945 
L 702.715753 1175.178247 
L 706.240112 1175.178247 
L 706.743592 1185.364923 
L 708.254032 1185.364923 
L 708.757512 1184.521823 
L 710.267951 1184.521823 
L 710.771431 1178.593546 
L 712.281871 1178.593546 
L 712.78535 1177.763949 
L 714.29579 1177.763949 
L 714.79927 1182.031524 
L 716.309709 1182.031524 
L 716.813189 1190.569155 
L 718.323629 1190.569155 
L 718.827109 1185.486368 
L 720.337548 1185.486368 
L 720.841028 1184.67961 
L 722.351467 1184.67961 
L 722.854947 1203.399013 
L 724.365387 1203.399013 
L 724.868867 1211.966927 
L 726.379306 1211.966927 
L 726.882786 1216.253989 
L 728.393226 1216.253989 
L 728.896705 1206.10537 
L 730.407145 1206.10537 
L 730.910625 1214.705246 
L 732.421064 1214.705246 
L 732.924544 1204.56506 
L 734.434984 1204.56506 
L 734.938464 1203.051241 
L 736.448903 1203.051241 
L 736.952383 1231.2 
L 739.973262 1231.2 
L 739.973262 1231.2 
" clip-path="url(#p6091d8b0e6)" style="fill: none; stroke: #0000ff; stroke-width: 1.5; stroke-linecap: square"/>
   </g>
   <g id="patch_3">
    <path d="M 270 1281.6 
L 270 172.8 
" style="fill: none; stroke: #000000; stroke-width: 0.8; stroke-linejoin: miter; stroke-linecap: square"/>
   </g>
   <g id="patch_4">
    <path d="M 762.352941 1281.6 
L 762.352941 172.8 
" style="fill: none; stroke: #000000; stroke-width: 0.8; stroke-linejoin: miter; stroke-linecap: square"/>
   </g>
   <g id="patch_5">
    <path d="M 270 1281.6 
L 762.352941 1281.6 
" style="fill: none; stroke: #000000; stroke-width: 0.8; stroke-linejoin: miter; stroke-linecap: square"/>
   </g>
   <g id="patch_6">
    <path d="M 270 172.8 
L 762.352941 172.8 
" style="fill: none; stroke: #000000; stroke-width: 0.8; stroke-linejoin: miter; stroke-linecap: square"/>
   </g>
   <g id="legend_1">
    <g id="patch_7">
     <path d="M 671.310754 195.478125 
L 755.352941 195.478125 
Q 757.352941 195.478125 757.352941 193.478125 
L 757.352941 179.8 
Q 757.352941 177.8 755.352941 177.8 
L 671.310754 177.8 
Q 669.310754 177.8 669.310754 179.8 
L 669.310754 193.478125 
Q 669.310754 195.478125 671.310754 195.478125 
z
" style="fill: #ffffff; opacity: 0.8; stroke: #cccccc; stroke-linejoin: miter"/>
    </g>
    <g id="line2d_13">
     <path d="M 673.310754 185.898437 
L 683.310754 185.898437 
L 693.310754 185.898437 
" style="fill: none; stroke: #0000ff; stroke-width: 1.5; stroke-linecap: square"/>
    </g>
    <g id="text_12">
     <!-- O1 reward -->
     <g transform="translate(701.310754 189.398437) scale(0.1 -0.1)">
      <defs>
       <path id="DejaVuSans-4f" d="M 2522 4238 
Q 1834 4238 1429 3725 
Q 1025 3213 1025 2328 
Q 1025 1447 1429 934 
Q 1834 422 2522 422 
Q 3209 422 3611 934 
Q 4013 1447 4013 2328 
Q 4013 3213 3611 3725 
Q 3209 4238 2522 4238 
z
M 2522 4750 
Q 3503 4750 4090 4092 
Q 4678 3434 4678 2328 
Q 4678 1225 4090 567 
Q 3503 -91 2522 -91 
Q 1538 -91 948 565 
Q 359 1222 359 2328 
Q 359 3434 948 4092 
Q 1538 4750 2522 4750 
z
" transform="scale(0.015625)"/>
       <path id="DejaVuSans-20" transform="scale(0.015625)"/>
       <path id="DejaVuSans-72" d="M 2631 2963 
Q 2534 3019 2420 3045 
Q 2306 3072 2169 3072 
Q 1681 3072 1420 2755 
Q 1159 2438 1159 1844 
L 1159 0 
L 581 0 
L 581 3500 
L 1159 3500 
L 1159 2956 
Q 1341 3275 1631 3429 
Q 1922 3584 2338 3584 
Q 2397 3584 2469 3576 
Q 2541 3569 2628 3553 
L 2631 2963 
z
" transform="scale(0.015625)"/>
       <path id="DejaVuSans-65" d="M 3597 1894 
L 3597 1613 
L 953 1613 
Q 991 1019 1311 708 
Q 1631 397 2203 397 
Q 2534 397 2845 478 
Q 3156 559 3463 722 
L 3463 178 
Q 3153 47 2828 -22 
Q 2503 -91 2169 -91 
Q 1331 -91 842 396 
Q 353 884 353 1716 
Q 353 2575 817 3079 
Q 1281 3584 2069 3584 
Q 2775 3584 3186 3129 
Q 3597 2675 3597 1894 
z
M 3022 2063 
Q 3016 2534 2758 2815 
Q 2500 3097 2075 3097 
Q 1594 3097 1305 2825 
Q 1016 2553 972 2059 
L 3022 2063 
z
" transform="scale(0.015625)"/>
       <path id="DejaVuSans-77" d="M 269 3500 
L 844 3500 
L 1563 769 
L 2278 3500 
L 2956 3500 
L 3675 769 
L 4391 3500 
L 4966 3500 
L 4050 0 
L 3372 0 
L 2619 2869 
L 1863 0 
L 1184 0 
L 269 3500 
z
" transform="scale(0.015625)"/>
       <path id="DejaVuSans-61" d="M 2194 1759 
Q 1497 1759 1228 1600 
Q 959 1441 959 1056 
Q 959 750 1161 570 
Q 1363 391 1709 391 
Q 2188 391 2477 730 
Q 2766 1069 2766 1631 
L 2766 1759 
L 2194 1759 
z
M 3341 1997 
L 3341 0 
L 2766 0 
L 2766 531 
Q 2569 213 2275 61 
Q 1981 -91 1556 -91 
Q 1019 -91 701 211 
Q 384 513 384 1019 
Q 384 1609 779 1909 
Q 1175 2209 1959 2209 
L 2766 2209 
L 2766 2266 
Q 2766 2663 2505 2880 
Q 2244 3097 1772 3097 
Q 1472 3097 1187 3025 
Q 903 2953 641 2809 
L 641 3341 
Q 956 3463 1253 3523 
Q 1550 3584 1831 3584 
Q 2591 3584 2966 3190 
Q 3341 2797 3341 1997 
z
" transform="scale(0.015625)"/>
       <path id="DejaVuSans-64" d="M 2906 2969 
L 2906 4863 
L 3481 4863 
L 3481 0 
L 2906 0 
L 2906 525 
Q 2725 213 2448 61 
Q 2172 -91 1784 -91 
Q 1150 -91 751 415 
Q 353 922 353 1747 
Q 353 2572 751 3078 
Q 1150 3584 1784 3584 
Q 2172 3584 2448 3432 
Q 2725 3281 2906 2969 
z
M 947 1747 
Q 947 1113 1208 752 
Q 1469 391 1925 391 
Q 2381 391 2643 752 
Q 2906 1113 2906 1747 
Q 2906 2381 2643 2742 
Q 2381 3103 1925 3103 
Q 1469 3103 1208 2742 
Q 947 2381 947 1747 
z
" transform="scale(0.015625)"/>
      </defs>
      <use xlink:href="#DejaVuSans-4f"/>
      <use xlink:href="#DejaVuSans-31" x="78.710938"/>
      <use xlink:href="#DejaVuSans-20" x="142.333984"/>
      <use xlink:href="#DejaVuSans-72" x="174.121094"/>
      <use xlink:href="#DejaVuSans-65" x="212.984375"/>
      <use xlink:href="#DejaVuSans-77" x="274.507812"/>
      <use xlink:href="#DejaVuSans-61" x="356.294922"/>
      <use xlink:href="#DejaVuSans-72" x="417.574219"/>
      <use xlink:href="#DejaVuSans-64" x="456.9375"/>
     </g>
    </g>
   </g>
  </g>
  <g id="axes_2">
   <g id="patch_8">
    <path d="M 860.823529 1281.6 
L 1353.176471 1281.6 
L 1353.176471 172.8 
L 860.823529 172.8 
z
" style="fill: #ffffff"/>
   </g>
   <g id="matplotlib.axis_3">
    <g id="xtick_6">
     <g id="line2d_14">
      <g>
       <use xlink:href="#m962e462bd2" x="882.699729" y="1281.6" style="stroke: #000000; stroke-width: 0.8"/>
      </g>
     </g>
     <g id="text_13">
      <!-- 0 -->
      <g transform="translate(879.518479 1296.198437) scale(0.1 -0.1)">
       <use xlink:href="#DejaVuSans-30"/>
      </g>
     </g>
    </g>
    <g id="xtick_7">
     <g id="line2d_15">
      <g>
       <use xlink:href="#m962e462bd2" x="983.395698" y="1281.6" style="stroke: #000000; stroke-width: 0.8"/>
      </g>
     </g>
     <g id="text_14">
      <!-- 200 -->
      <g transform="translate(973.851948 1296.198437) scale(0.1 -0.1)">
       <use xlink:href="#DejaVuSans-32"/>
       <use xlink:href="#DejaVuSans-30" x="63.623047"/>
       <use xlink:href="#DejaVuSans-30" x="127.246094"/>
      </g>
     </g>
    </g>
    <g id="xtick_8">
     <g id="line2d_16">
      <g>
       <use xlink:href="#m962e462bd2" x="1084.091667" y="1281.6" style="stroke: #000000; stroke-width: 0.8"/>
      </g>
     </g>
     <g id="text_15">
      <!-- 400 -->
      <g transform="translate(1074.547917 1296.198437) scale(0.1 -0.1)">
       <use xlink:href="#DejaVuSans-34"/>
       <use xlink:href="#DejaVuSans-30" x="63.623047"/>
       <use xlink:href="#DejaVuSans-30" x="127.246094"/>
      </g>
     </g>
    </g>
    <g id="xtick_9">
     <g id="line2d_17">
      <g>
       <use xlink:href="#m962e462bd2" x="1184.787636" y="1281.6" style="stroke: #000000; stroke-width: 0.8"/>
      </g>
     </g>
     <g id="text_16">
      <!-- 600 -->
      <g transform="translate(1175.243886 1296.198437) scale(0.1 -0.1)">
       <use xlink:href="#DejaVuSans-36"/>
       <use xlink:href="#DejaVuSans-30" x="63.623047"/>
       <use xlink:href="#DejaVuSans-30" x="127.246094"/>
      </g>
     </g>
    </g>
    <g id="xtick_10">
     <g id="line2d_18">
      <g>
       <use xlink:href="#m962e462bd2" x="1285.483605" y="1281.6" style="stroke: #000000; stroke-width: 0.8"/>
      </g>
     </g>
     <g id="text_17">
      <!-- 800 -->
      <g transform="translate(1275.939855 1296.198437) scale(0.1 -0.1)">
       <use xlink:href="#DejaVuSans-38"/>
       <use xlink:href="#DejaVuSans-30" x="63.623047"/>
       <use xlink:href="#DejaVuSans-30" x="127.246094"/>
      </g>
     </g>
    </g>
   </g>
   <g id="matplotlib.axis_4">
    <g id="ytick_7">
     <g id="line2d_19">
      <g>
       <use xlink:href="#m46cc7cc60c" x="860.823529" y="1231.2" style="stroke: #000000; stroke-width: 0.8"/>
      </g>
     </g>
     <g id="text_18">
      <!-- 0 -->
      <g transform="translate(847.461029 1234.999219) scale(0.1 -0.1)">
       <use xlink:href="#DejaVuSans-30"/>
      </g>
     </g>
    </g>
    <g id="ytick_8">
     <g id="line2d_20">
      <g>
       <use xlink:href="#m46cc7cc60c" x="860.823529" y="993.870383" style="stroke: #000000; stroke-width: 0.8"/>
      </g>
     </g>
     <g id="text_19">
      <!-- 20 -->
      <g transform="translate(841.098529 997.669602) scale(0.1 -0.1)">
       <use xlink:href="#DejaVuSans-32"/>
       <use xlink:href="#DejaVuSans-30" x="63.623047"/>
      </g>
     </g>
    </g>
    <g id="ytick_9">
     <g id="line2d_21">
      <g>
       <use xlink:href="#m46cc7cc60c" x="860.823529" y="756.540766" style="stroke: #000000; stroke-width: 0.8"/>
      </g>
     </g>
     <g id="text_20">
      <!-- 40 -->
      <g transform="translate(841.098529 760.339985) scale(0.1 -0.1)">
       <use xlink:href="#DejaVuSans-34"/>
       <use xlink:href="#DejaVuSans-30" x="63.623047"/>
      </g>
     </g>
    </g>
    <g id="ytick_10">
     <g id="line2d_22">
      <g>
       <use xlink:href="#m46cc7cc60c" x="860.823529" y="519.211149" style="stroke: #000000; stroke-width: 0.8"/>
      </g>
     </g>
     <g id="text_21">
      <!-- 60 -->
      <g transform="translate(841.098529 523.010367) scale(0.1 -0.1)">
       <use xlink:href="#DejaVuSans-36"/>
       <use xlink:href="#DejaVuSans-30" x="63.623047"/>
      </g>
     </g>
    </g>
    <g id="ytick_11">
     <g id="line2d_23">
      <g>
       <use xlink:href="#m46cc7cc60c" x="860.823529" y="281.881532" style="stroke: #000000; stroke-width: 0.8"/>
      </g>
     </g>
     <g id="text_22">
      <!-- 80 -->
      <g transform="translate(841.098529 285.68075) scale(0.1 -0.1)">
       <use xlink:href="#DejaVuSans-38"/>
       <use xlink:href="#DejaVuSans-30" x="63.623047"/>
      </g>
     </g>
    </g>
   </g>
   <g id="line2d_24">
    <path d="M 883.203209 1231.2 
L 906.363281 1231.112269 
L 906.866761 1226.331507 
L 908.377201 1226.331507 
L 908.880681 1228.205208 
L 910.39112 1228.205208 
L 910.8946 1227.090918 
L 912.40504 1227.090918 
L 912.908519 1229.287598 
L 914.418959 1229.287598 
L 914.922439 1219.418394 
L 916.432878 1219.418394 
L 916.936358 1204.458136 
L 918.446798 1204.458136 
L 918.950278 1197.015722 
L 920.460717 1197.015722 
L 920.964197 1177.411741 
L 922.474637 1177.411741 
L 922.978116 1159.344324 
L 932.544233 1159.344324 
L 933.047713 1151.502778 
L 938.585992 1151.502778 
L 939.089471 1143.139628 
L 944.62775 1143.139628 
L 945.13123 1131.744981 
L 946.641669 1131.744981 
L 947.145149 1128.545456 
L 948.655589 1128.545456 
L 949.159068 1125.024759 
L 952.683427 1125.024759 
L 953.186907 1103.413689 
L 954.697347 1103.413689 
L 955.200827 1069.428475 
L 956.711266 1069.428475 
L 957.214746 1060.375137 
L 958.725185 1060.375137 
L 959.228665 1042.941458 
L 960.739105 1042.941458 
L 961.242585 1000.739064 
L 962.753024 1000.739064 
L 963.256504 971.36613 
L 984.906137 971.36613 
L 985.409617 962.705267 
L 990.947896 962.705267 
L 991.451375 954.171683 
L 992.961815 954.171683 
L 993.465295 945.548878 
L 994.975734 945.548878 
L 995.479214 936.839139 
L 999.003573 936.839139 
L 999.507053 933.765012 
L 1007.059251 933.765012 
L 1007.56273 930.60827 
L 1009.07317 930.60827 
L 1009.57665 909.653116 
L 1011.087089 909.653116 
L 1011.590569 893.650027 
L 1013.101009 893.650027 
L 1013.604489 858.183927 
L 1015.114928 858.183927 
L 1015.618408 826.983518 
L 1017.128848 826.983518 
L 1017.632327 802.391596 
L 1019.142767 802.391596 
L 1019.646247 772.15062 
L 1021.156686 772.15062 
L 1021.660166 735.421498 
L 1023.170606 735.421498 
L 1023.674086 718.995257 
L 1025.184525 718.995257 
L 1025.688005 696.245915 
L 1031.226283 696.245915 
L 1031.729763 691.110041 
L 1033.240203 691.110041 
L 1033.743682 680.490166 
L 1035.254122 680.490166 
L 1035.757602 687.819109 
L 1037.268041 687.819109 
L 1037.771521 691.305011 
L 1039.281961 691.305011 
L 1039.785441 698.546346 
L 1041.29588 698.546346 
L 1041.79936 702.284151 
L 1043.3098 702.284151 
L 1043.813279 705.680637 
L 1045.323719 705.680637 
L 1045.827199 695.216858 
L 1049.351558 695.216858 
L 1049.855038 688.101262 
L 1051.365477 688.101262 
L 1051.868957 684.82304 
L 1053.379396 684.82304 
L 1053.882876 674.543104 
L 1055.393316 674.543104 
L 1055.896796 654.264888 
L 1057.407235 654.264888 
L 1057.910715 644.555802 
L 1059.421155 644.555802 
L 1059.924634 636.115037 
L 1061.435074 636.115037 
L 1061.938554 630.650569 
L 1063.448993 630.650569 
L 1063.952473 621.675233 
L 1065.462913 621.675233 
L 1065.966393 630.561928 
L 1067.476832 630.561928 
L 1067.980312 650.470216 
L 1069.490751 650.470216 
L 1069.994231 644.230097 
L 1071.504671 644.230097 
L 1072.008151 627.109455 
L 1073.51859 627.109455 
L 1074.02207 612.583135 
L 1075.53251 612.583135 
L 1076.035989 614.680838 
L 1077.546429 614.680838 
L 1078.049909 600.884915 
L 1079.560348 600.884915 
L 1080.063828 589.029687 
L 1081.574268 589.029687 
L 1082.077748 587.1081 
L 1085.602107 587.037839 
L 1086.105586 588.903316 
L 1087.616026 588.903316 
L 1088.119506 585.252932 
L 1089.629945 585.252932 
L 1090.133425 573.857918 
L 1091.643865 573.857918 
L 1092.147345 575.569049 
L 1093.657784 575.569049 
L 1094.161264 571.692305 
L 1095.671703 571.692305 
L 1096.175183 560.589521 
L 1097.685623 560.589521 
L 1098.189103 553.457502 
L 1099.699542 553.457502 
L 1100.203022 546.382911 
L 1101.713462 546.382911 
L 1102.216941 542.530743 
L 1103.727381 542.530743 
L 1104.230861 540.243666 
L 1107.75522 540.243666 
L 1108.2587 554.076122 
L 1109.769139 554.076122 
L 1110.272619 560.889242 
L 1111.783059 560.889242 
L 1112.286538 558.465296 
L 1113.796978 558.465296 
L 1114.300458 563.666797 
L 1115.810897 563.666797 
L 1116.314377 564.955404 
L 1117.824817 564.955404 
L 1118.328297 579.05658 
L 1119.838736 579.05658 
L 1120.342216 581.748867 
L 1121.852655 581.748867 
L 1122.356135 593.015929 
L 1123.866575 593.015929 
L 1124.370055 592.466359 
L 1125.880494 592.466359 
L 1126.383974 581.490343 
L 1127.894414 581.490343 
L 1128.397893 574.465782 
L 1129.908333 574.465782 
L 1130.411813 573.427264 
L 1131.922252 573.427264 
L 1132.425732 567.537671 
L 1133.936172 567.537671 
L 1134.439652 557.825543 
L 1135.950091 557.825543 
L 1136.453571 561.715664 
L 1137.964011 561.715664 
L 1138.46749 565.599321 
L 1139.97793 565.599321 
L 1140.48141 564.674465 
L 1141.991849 564.674465 
L 1142.495329 560.777815 
L 1144.005769 560.777815 
L 1144.509249 550.323906 
L 1146.019688 550.323906 
L 1146.523168 543.837485 
L 1150.047527 543.837485 
L 1150.551007 538.284137 
L 1152.061446 538.284137 
L 1152.564926 544.57146 
L 1154.075366 544.57146 
L 1154.578845 555.374146 
L 1156.089285 555.374146 
L 1156.592765 558.570389 
L 1158.103204 558.570389 
L 1158.606684 557.923645 
L 1160.117124 557.923645 
L 1160.620604 556.666991 
L 1162.131043 556.666991 
L 1162.634523 559.390789 
L 1164.144962 559.390789 
L 1164.648442 549.418852 
L 1166.158882 549.418852 
L 1166.662362 524.93679 
L 1168.172801 524.93679 
L 1168.676281 510.505097 
L 1170.186721 510.505097 
L 1170.6902 491.526043 
L 1172.20064 491.526043 
L 1172.70412 472.424066 
L 1174.214559 472.424066 
L 1174.718039 454.330996 
L 1176.228479 454.330996 
L 1176.731959 444.88222 
L 1178.242398 444.88222 
L 1178.745878 431.653944 
L 1180.256318 431.653944 
L 1180.759797 413.827487 
L 1182.270237 413.827487 
L 1182.773717 405.02289 
L 1184.284156 405.02289 
L 1184.787636 391.956699 
L 1186.298076 391.956699 
L 1186.801556 396.482848 
L 1188.311995 396.482848 
L 1188.815475 388.687575 
L 1190.325914 388.687575 
L 1190.829394 401.282597 
L 1192.339834 401.282597 
L 1192.843314 401.637714 
L 1194.353753 401.637714 
L 1194.857233 401.931692 
L 1196.367673 401.931692 
L 1196.871152 398.171217 
L 1198.381592 398.171217 
L 1198.885072 398.301732 
L 1200.395511 398.301732 
L 1200.898991 398.540037 
L 1202.409431 398.540037 
L 1202.912911 410.790379 
L 1204.42335 410.790379 
L 1204.92683 418.757783 
L 1206.43727 418.757783 
L 1206.940749 422.655499 
L 1208.451189 422.655499 
L 1208.954669 418.751374 
L 1210.465108 418.751374 
L 1210.968588 414.689861 
L 1212.479028 414.689861 
L 1212.982508 406.740611 
L 1214.492947 406.740611 
L 1214.996427 398.882146 
L 1218.520786 398.866376 
L 1219.024266 402.821187 
L 1220.534705 402.821187 
L 1221.038185 398.99944 
L 1222.548625 398.99944 
L 1223.052104 395.200289 
L 1224.562544 395.200289 
L 1225.066024 395.338236 
L 1226.576463 395.338236 
L 1227.079943 410.801257 
L 1228.590383 410.801257 
L 1229.093863 414.775043 
L 1230.604302 414.775043 
L 1231.107782 404.116399 
L 1232.618222 404.116399 
L 1233.121701 408.150541 
L 1234.632141 408.150541 
L 1235.135621 412.501026 
L 1236.64606 412.501026 
L 1237.14954 408.77107 
L 1238.65998 408.77107 
L 1239.16346 409.117148 
L 1240.673899 409.117148 
L 1241.177379 413.998333 
L 1242.687818 413.998333 
L 1243.191298 415.330457 
L 1246.715657 415.332999 
L 1247.219137 404.387302 
L 1248.729577 404.387302 
L 1249.233056 397.118114 
L 1250.743496 397.118114 
L 1251.246976 393.487137 
L 1252.757415 393.487137 
L 1253.260895 386.237465 
L 1254.771335 386.237465 
L 1255.274815 382.618751 
L 1256.785254 382.618751 
L 1257.288734 379.002387 
L 1258.799173 379.002387 
L 1259.302653 371.776565 
L 1260.813093 371.776565 
L 1261.316573 364.559722 
L 1262.827012 364.559722 
L 1263.330492 357.351609 
L 1264.840932 357.351609 
L 1265.344411 353.750781 
L 1266.854851 353.750781 
L 1267.358331 342.980733 
L 1268.86877 342.980733 
L 1269.37225 335.823914 
L 1270.88269 335.823914 
L 1271.38617 332.248579 
L 1274.910529 332.248579 
L 1275.414008 328.675269 
L 1276.924448 328.675269 
L 1277.427928 317.978996 
L 1278.938367 317.978996 
L 1279.441847 307.321703 
L 1280.952287 307.321703 
L 1281.455767 296.707559 
L 1282.966206 296.707559 
L 1283.469686 289.653444 
L 1284.980125 289.653444 
L 1285.483605 279.107173 
L 1286.994045 279.107173 
L 1287.497525 291.282081 
L 1289.007964 291.282081 
L 1289.511444 300.829187 
L 1291.021884 300.829187 
L 1291.525363 303.501136 
L 1293.035803 303.501136 
L 1293.539283 306.257247 
L 1295.049722 306.257247 
L 1295.553202 315.007456 
L 1299.077561 315.027908 
L 1299.581041 312.30946 
L 1301.091481 312.30946 
L 1301.59496 316.719214 
L 1303.1054 316.719214 
L 1303.60888 313.201147 
L 1305.119319 313.201147 
L 1305.622799 315.42663 
L 1307.133239 315.42663 
L 1307.636719 302.082665 
L 1309.147158 302.082665 
L 1309.650638 288.79068 
L 1311.161077 288.79068 
L 1311.664557 275.546458 
L 1313.174997 275.546458 
L 1313.678477 265.658504 
L 1315.188916 265.658504 
L 1315.692396 255.808567 
L 1317.202836 255.808567 
L 1317.706315 249.257799 
L 1319.216755 249.257799 
L 1319.720235 239.457693 
L 1321.230674 239.457693 
L 1321.734154 236.19813 
L 1323.244594 236.19813 
L 1323.748074 229.691066 
L 1325.258513 229.691066 
L 1325.761993 223.2 
L 1327.272433 223.2 
L 1327.775912 224.526033 
L 1329.286352 224.526033 
L 1329.789832 235.575329 
L 1330.796791 235.575329 
L 1330.796791 235.575329 
" clip-path="url(#pd0f82d8593)" style="fill: none; stroke: #0000ff; stroke-width: 1.5; stroke-linecap: square"/>
   </g>
   <g id="patch_9">
    <path d="M 860.823529 1281.6 
L 860.823529 172.8 
" style="fill: none; stroke: #000000; stroke-width: 0.8; stroke-linejoin: miter; stroke-linecap: square"/>
   </g>
   <g id="patch_10">
    <path d="M 1353.176471 1281.6 
L 1353.176471 172.8 
" style="fill: none; stroke: #000000; stroke-width: 0.8; stroke-linejoin: miter; stroke-linecap: square"/>
   </g>
   <g id="patch_11">
    <path d="M 860.823529 1281.6 
L 1353.176471 1281.6 
" style="fill: none; stroke: #000000; stroke-width: 0.8; stroke-linejoin: miter; stroke-linecap: square"/>
   </g>
   <g id="patch_12">
    <path d="M 860.823529 172.8 
L 1353.176471 172.8 
" style="fill: none; stroke: #000000; stroke-width: 0.8; stroke-linejoin: miter; stroke-linecap: square"/>
   </g>
   <g id="legend_2">
    <g id="patch_13">
     <path d="M 1262.134283 195.478125 
L 1346.176471 195.478125 
Q 1348.176471 195.478125 1348.176471 193.478125 
L 1348.176471 179.8 
Q 1348.176471 177.8 1346.176471 177.8 
L 1262.134283 177.8 
Q 1260.134283 177.8 1260.134283 179.8 
L 1260.134283 193.478125 
Q 1260.134283 195.478125 1262.134283 195.478125 
z
" style="fill: #ffffff; opacity: 0.8; stroke: #cccccc; stroke-linejoin: miter"/>
    </g>
    <g id="line2d_25">
     <path d="M 1264.134283 185.898437 
L 1274.134283 185.898437 
L 1284.134283 185.898437 
" style="fill: none; stroke: #0000ff; stroke-width: 1.5; stroke-linecap: square"/>
    </g>
    <g id="text_23">
     <!-- O2 reward -->
     <g transform="translate(1292.134283 189.398437) scale(0.1 -0.1)">
      <use xlink:href="#DejaVuSans-4f"/>
      <use xlink:href="#DejaVuSans-32" x="78.710938"/>
      <use xlink:href="#DejaVuSans-20" x="142.333984"/>
      <use xlink:href="#DejaVuSans-72" x="174.121094"/>
      <use xlink:href="#DejaVuSans-65" x="212.984375"/>
      <use xlink:href="#DejaVuSans-77" x="274.507812"/>
      <use xlink:href="#DejaVuSans-61" x="356.294922"/>
      <use xlink:href="#DejaVuSans-72" x="417.574219"/>
      <use xlink:href="#DejaVuSans-64" x="456.9375"/>
     </g>
    </g>
   </g>
  </g>
  <g id="axes_3">
   <g id="patch_14">
    <path d="M 1451.647059 1281.6 
L 1944 1281.6 
L 1944 172.8 
L 1451.647059 172.8 
z
" style="fill: #ffffff"/>
   </g>
   <g id="matplotlib.axis_5">
    <g id="xtick_11">
     <g id="line2d_26">
      <g>
       <use xlink:href="#m962e462bd2" x="1473.523258" y="1281.6" style="stroke: #000000; stroke-width: 0.8"/>
      </g>
     </g>
     <g id="text_24">
      <!-- 0 -->
      <g transform="translate(1470.342008 1296.198437) scale(0.1 -0.1)">
       <use xlink:href="#DejaVuSans-30"/>
      </g>
     </g>
    </g>
    <g id="xtick_12">
     <g id="line2d_27">
      <g>
       <use xlink:href="#m962e462bd2" x="1574.219227" y="1281.6" style="stroke: #000000; stroke-width: 0.8"/>
      </g>
     </g>
     <g id="text_25">
      <!-- 200 -->
      <g transform="translate(1564.675477 1296.198437) scale(0.1 -0.1)">
       <use xlink:href="#DejaVuSans-32"/>
       <use xlink:href="#DejaVuSans-30" x="63.623047"/>
       <use xlink:href="#DejaVuSans-30" x="127.246094"/>
      </g>
     </g>
    </g>
    <g id="xtick_13">
     <g id="line2d_28">
      <g>
       <use xlink:href="#m962e462bd2" x="1674.915196" y="1281.6" style="stroke: #000000; stroke-width: 0.8"/>
      </g>
     </g>
     <g id="text_26">
      <!-- 400 -->
      <g transform="translate(1665.371446 1296.198437) scale(0.1 -0.1)">
       <use xlink:href="#DejaVuSans-34"/>
       <use xlink:href="#DejaVuSans-30" x="63.623047"/>
       <use xlink:href="#DejaVuSans-30" x="127.246094"/>
      </g>
     </g>
    </g>
    <g id="xtick_14">
     <g id="line2d_29">
      <g>
       <use xlink:href="#m962e462bd2" x="1775.611166" y="1281.6" style="stroke: #000000; stroke-width: 0.8"/>
      </g>
     </g>
     <g id="text_27">
      <!-- 600 -->
      <g transform="translate(1766.067416 1296.198437) scale(0.1 -0.1)">
       <use xlink:href="#DejaVuSans-36"/>
       <use xlink:href="#DejaVuSans-30" x="63.623047"/>
       <use xlink:href="#DejaVuSans-30" x="127.246094"/>
      </g>
     </g>
    </g>
    <g id="xtick_15">
     <g id="line2d_30">
      <g>
       <use xlink:href="#m962e462bd2" x="1876.307135" y="1281.6" style="stroke: #000000; stroke-width: 0.8"/>
      </g>
     </g>
     <g id="text_28">
      <!-- 800 -->
      <g transform="translate(1866.763385 1296.198437) scale(0.1 -0.1)">
       <use xlink:href="#DejaVuSans-38"/>
       <use xlink:href="#DejaVuSans-30" x="63.623047"/>
       <use xlink:href="#DejaVuSans-30" x="127.246094"/>
      </g>
     </g>
    </g>
   </g>
   <g id="matplotlib.axis_6">
    <g id="ytick_12">
     <g id="line2d_31">
      <g>
       <use xlink:href="#m46cc7cc60c" x="1451.647059" y="1231.2" style="stroke: #000000; stroke-width: 0.8"/>
      </g>
     </g>
     <g id="text_29">
      <!-- 0.0 -->
      <g transform="translate(1428.743934 1234.999219) scale(0.1 -0.1)">
       <defs>
        <path id="DejaVuSans-2e" d="M 684 794 
L 1344 794 
L 1344 0 
L 684 0 
L 684 794 
z
" transform="scale(0.015625)"/>
       </defs>
       <use xlink:href="#DejaVuSans-30"/>
       <use xlink:href="#DejaVuSans-2e" x="63.623047"/>
       <use xlink:href="#DejaVuSans-30" x="95.410156"/>
      </g>
     </g>
    </g>
    <g id="ytick_13">
     <g id="line2d_32">
      <g>
       <use xlink:href="#m46cc7cc60c" x="1451.647059" y="1095.641516" style="stroke: #000000; stroke-width: 0.8"/>
      </g>
     </g>
     <g id="text_30">
      <!-- 2.5 -->
      <g transform="translate(1428.743934 1099.440735) scale(0.1 -0.1)">
       <defs>
        <path id="DejaVuSans-35" d="M 691 4666 
L 3169 4666 
L 3169 4134 
L 1269 4134 
L 1269 2991 
Q 1406 3038 1543 3061 
Q 1681 3084 1819 3084 
Q 2600 3084 3056 2656 
Q 3513 2228 3513 1497 
Q 3513 744 3044 326 
Q 2575 -91 1722 -91 
Q 1428 -91 1123 -41 
Q 819 9 494 109 
L 494 744 
Q 775 591 1075 516 
Q 1375 441 1709 441 
Q 2250 441 2565 725 
Q 2881 1009 2881 1497 
Q 2881 1984 2565 2268 
Q 2250 2553 1709 2553 
Q 1456 2553 1204 2497 
Q 953 2441 691 2322 
L 691 4666 
z
" transform="scale(0.015625)"/>
       </defs>
       <use xlink:href="#DejaVuSans-32"/>
       <use xlink:href="#DejaVuSans-2e" x="63.623047"/>
       <use xlink:href="#DejaVuSans-35" x="95.410156"/>
      </g>
     </g>
    </g>
    <g id="ytick_14">
     <g id="line2d_33">
      <g>
       <use xlink:href="#m46cc7cc60c" x="1451.647059" y="960.083032" style="stroke: #000000; stroke-width: 0.8"/>
      </g>
     </g>
     <g id="text_31">
      <!-- 5.0 -->
      <g transform="translate(1428.743934 963.882251) scale(0.1 -0.1)">
       <use xlink:href="#DejaVuSans-35"/>
       <use xlink:href="#DejaVuSans-2e" x="63.623047"/>
       <use xlink:href="#DejaVuSans-30" x="95.410156"/>
      </g>
     </g>
    </g>
    <g id="ytick_15">
     <g id="line2d_34">
      <g>
       <use xlink:href="#m46cc7cc60c" x="1451.647059" y="824.524548" style="stroke: #000000; stroke-width: 0.8"/>
      </g>
     </g>
     <g id="text_32">
      <!-- 7.5 -->
      <g transform="translate(1428.743934 828.323767) scale(0.1 -0.1)">
       <defs>
        <path id="DejaVuSans-37" d="M 525 4666 
L 3525 4666 
L 3525 4397 
L 1831 0 
L 1172 0 
L 2766 4134 
L 525 4134 
L 525 4666 
z
" transform="scale(0.015625)"/>
       </defs>
       <use xlink:href="#DejaVuSans-37"/>
       <use xlink:href="#DejaVuSans-2e" x="63.623047"/>
       <use xlink:href="#DejaVuSans-35" x="95.410156"/>
      </g>
     </g>
    </g>
    <g id="ytick_16">
     <g id="line2d_35">
      <g>
       <use xlink:href="#m46cc7cc60c" x="1451.647059" y="688.966064" style="stroke: #000000; stroke-width: 0.8"/>
      </g>
     </g>
     <g id="text_33">
      <!-- 10.0 -->
      <g transform="translate(1422.381434 692.765283) scale(0.1 -0.1)">
       <use xlink:href="#DejaVuSans-31"/>
       <use xlink:href="#DejaVuSans-30" x="63.623047"/>
       <use xlink:href="#DejaVuSans-2e" x="127.246094"/>
       <use xlink:href="#DejaVuSans-30" x="159.033203"/>
      </g>
     </g>
    </g>
    <g id="ytick_17">
     <g id="line2d_36">
      <g>
       <use xlink:href="#m46cc7cc60c" x="1451.647059" y="553.40758" style="stroke: #000000; stroke-width: 0.8"/>
      </g>
     </g>
     <g id="text_34">
      <!-- 12.5 -->
      <g transform="translate(1422.381434 557.206799) scale(0.1 -0.1)">
       <use xlink:href="#DejaVuSans-31"/>
       <use xlink:href="#DejaVuSans-32" x="63.623047"/>
       <use xlink:href="#DejaVuSans-2e" x="127.246094"/>
       <use xlink:href="#DejaVuSans-35" x="159.033203"/>
      </g>
     </g>
    </g>
    <g id="ytick_18">
     <g id="line2d_37">
      <g>
       <use xlink:href="#m46cc7cc60c" x="1451.647059" y="417.849096" style="stroke: #000000; stroke-width: 0.8"/>
      </g>
     </g>
     <g id="text_35">
      <!-- 15.0 -->
      <g transform="translate(1422.381434 421.648315) scale(0.1 -0.1)">
       <use xlink:href="#DejaVuSans-31"/>
       <use xlink:href="#DejaVuSans-35" x="63.623047"/>
       <use xlink:href="#DejaVuSans-2e" x="127.246094"/>
       <use xlink:href="#DejaVuSans-30" x="159.033203"/>
      </g>
     </g>
    </g>
    <g id="ytick_19">
     <g id="line2d_38">
      <g>
       <use xlink:href="#m46cc7cc60c" x="1451.647059" y="282.290613" style="stroke: #000000; stroke-width: 0.8"/>
      </g>
     </g>
     <g id="text_36">
      <!-- 17.5 -->
      <g transform="translate(1422.381434 286.089831) scale(0.1 -0.1)">
       <use xlink:href="#DejaVuSans-31"/>
       <use xlink:href="#DejaVuSans-37" x="63.623047"/>
       <use xlink:href="#DejaVuSans-2e" x="127.246094"/>
       <use xlink:href="#DejaVuSans-35" x="159.033203"/>
      </g>
     </g>
    </g>
   </g>
   <g id="line2d_39">
    <path d="M 1474.026738 1231.2 
L 1495.172891 1231.2 
L 1495.676371 1210.052726 
L 1497.186811 1210.052726 
L 1497.690291 1193.154536 
L 1499.20073 1193.154536 
L 1499.70421 1178.781033 
L 1501.21465 1178.781033 
L 1501.718129 1157.478985 
L 1503.228569 1157.478985 
L 1503.732049 1150.315707 
L 1505.242488 1150.315707 
L 1505.745968 1122.428087 
L 1507.256408 1122.428087 
L 1507.759888 1130.530559 
L 1509.270327 1130.530559 
L 1509.773807 1114.659718 
L 1511.284247 1114.659718 
L 1511.787726 1099.011333 
L 1513.298166 1099.011333 
L 1513.801646 1088.396271 
L 1515.312085 1088.396271 
L 1515.815565 1070.418225 
L 1517.326005 1070.418225 
L 1517.829485 1053.542423 
L 1519.339924 1053.542423 
L 1519.843404 1043.084926 
L 1523.367763 1043.084926 
L 1523.871243 1038.481628 
L 1525.381682 1038.481628 
L 1525.885162 1028.401638 
L 1527.395602 1028.401638 
L 1527.899081 1022.788018 
L 1531.42344 1022.788018 
L 1531.92692 1018.59738 
L 1533.43736 1018.59738 
L 1533.94084 1009.4167 
L 1537.465199 1009.4167 
L 1537.968678 1005.570884 
L 1539.479118 1005.570884 
L 1539.982598 989.358243 
L 1541.493037 989.358243 
L 1541.996517 966.608766 
L 1543.506957 966.608766 
L 1544.010437 950.671323 
L 1545.520876 950.671323 
L 1546.024356 940.066253 
L 1547.534795 940.066253 
L 1548.038275 910.483592 
L 1549.548715 910.483592 
L 1550.052195 895.765558 
L 1551.562634 895.765558 
L 1552.066114 891.145144 
L 1553.576554 891.145144 
L 1554.080033 876.734879 
L 1555.590473 876.734879 
L 1556.093953 867.137576 
L 1557.604392 867.137576 
L 1558.107872 858.94798 
L 1559.618312 858.94798 
L 1560.121792 844.631513 
L 1561.632231 844.631513 
L 1562.135711 838.797736 
L 1563.646151 838.797736 
L 1564.14963 825.755249 
L 1567.673989 825.661829 
L 1568.177469 829.350514 
L 1569.687909 829.350514 
L 1570.191389 831.635562 
L 1571.701828 831.635562 
L 1572.205308 826.284108 
L 1573.715747 826.284108 
L 1574.219227 828.529649 
L 1575.729667 828.529649 
L 1576.233147 825.385504 
L 1577.743586 825.385504 
L 1578.247066 828.916121 
L 1579.757506 828.916121 
L 1580.260985 825.605158 
L 1583.785344 825.605158 
L 1584.288824 822.23103 
L 1585.799264 822.23103 
L 1586.302744 812.270839 
L 1587.813183 812.270839 
L 1588.316663 803.633103 
L 1589.827102 803.633103 
L 1590.330582 808.902895 
L 1591.841022 808.902895 
L 1592.344502 811.012982 
L 1597.88278 811.012982 
L 1598.38626 801.18461 
L 1599.896699 801.18461 
L 1600.400179 782.693701 
L 1601.910619 782.693701 
L 1602.414099 773.726835 
L 1603.924538 773.726835 
L 1604.428018 767.392035 
L 1605.938458 767.392035 
L 1606.441937 763.239211 
L 1607.952377 763.239211 
L 1608.455857 753.32176 
L 1609.966296 753.32176 
L 1610.469776 746.667973 
L 1611.980216 746.667973 
L 1612.483696 741.503988 
L 1613.994135 741.503988 
L 1614.497615 730.933235 
L 1616.008054 730.933235 
L 1616.511534 724.673298 
L 1618.021974 724.673298 
L 1618.525454 716.036871 
L 1620.035893 716.036871 
L 1620.539373 713.665062 
L 1622.049813 713.665062 
L 1622.553292 703.923275 
L 1624.063732 703.923275 
L 1624.567212 695.851374 
L 1626.077651 695.851374 
L 1626.581131 687.921854 
L 1628.091571 687.921854 
L 1628.595051 680.307944 
L 1632.11941 680.307944 
L 1632.622889 675.014708 
L 1634.133329 675.014708 
L 1634.636809 670.418834 
L 1636.147248 670.418834 
L 1636.650728 672.573656 
L 1638.161168 672.573656 
L 1638.664648 668.50333 
L 1640.175087 668.50333 
L 1640.678567 661.430428 
L 1642.189006 661.430428 
L 1642.692486 656.355332 
L 1644.202926 656.355332 
L 1644.706406 651.237907 
L 1646.216845 651.237907 
L 1646.720325 644.464986 
L 1648.230765 644.464986 
L 1648.734244 630.039795 
L 1650.244684 630.039795 
L 1650.748164 628.426008 
L 1652.258603 628.426008 
L 1652.762083 626.168778 
L 1654.272523 626.168778 
L 1654.776003 617.309555 
L 1656.286442 617.309555 
L 1656.789922 610.972809 
L 1658.300362 610.972809 
L 1658.803841 606.605346 
L 1660.314281 606.605346 
L 1660.817761 598.759189 
L 1662.3282 598.759189 
L 1662.83168 589.818734 
L 1664.34212 589.818734 
L 1664.8456 585.064116 
L 1666.356039 585.064116 
L 1666.859519 584.191227 
L 1668.369958 584.191227 
L 1668.873438 581.658619 
L 1670.383878 581.658619 
L 1670.887358 578.25585 
L 1672.397797 578.25585 
L 1672.901277 573.274086 
L 1674.411717 573.274086 
L 1674.915196 571.647173 
L 1676.425636 571.647173 
L 1676.929116 564.626827 
L 1678.439555 564.626827 
L 1678.943035 562.225069 
L 1680.453475 562.225069 
L 1680.956955 558.579418 
L 1682.467394 558.579418 
L 1682.970874 554.952535 
L 1684.481313 554.952535 
L 1684.984793 550.945729 
L 1688.509152 550.945729 
L 1689.012632 548.568495 
L 1690.523072 548.568495 
L 1691.026551 547.379163 
L 1692.536991 547.379163 
L 1693.040471 542.262731 
L 1696.56483 542.262731 
L 1697.06831 543.441362 
L 1698.578749 543.441362 
L 1699.082229 543.839118 
L 1700.592669 543.839118 
L 1701.096148 541.569844 
L 1702.606588 541.569844 
L 1703.110068 534.26883 
L 1704.620507 534.26883 
L 1705.123987 531.329985 
L 1706.634427 531.329985 
L 1707.137907 532.009078 
L 1708.648346 532.009078 
L 1709.151826 524.857128 
L 1710.662265 524.857128 
L 1711.165745 519.025013 
L 1712.676185 519.025013 
L 1713.179665 518.078428 
L 1714.690104 518.078428 
L 1715.193584 515.351087 
L 1716.704024 515.351087 
L 1717.207503 511.476576 
L 1718.717943 511.476576 
L 1719.221423 510.879727 
L 1720.731862 510.879727 
L 1721.235342 506.801597 
L 1722.745782 506.801597 
L 1723.249262 503.618425 
L 1724.759701 503.618425 
L 1725.263181 498.394888 
L 1726.773621 498.394888 
L 1727.2771 495.303651 
L 1728.78754 495.303651 
L 1729.29102 491.17843 
L 1730.801459 491.17843 
L 1731.304939 487.391341 
L 1732.815379 487.391341 
L 1733.318859 484.41996 
L 1734.829298 484.41996 
L 1735.332778 483.916887 
L 1736.843217 483.916887 
L 1737.346697 480.232612 
L 1738.857137 480.232612 
L 1739.360617 475.126607 
L 1740.871056 475.126607 
L 1741.374536 470.665254 
L 1742.884976 470.665254 
L 1743.388455 464.51344 
L 1744.898895 464.51344 
L 1745.402375 458.95107 
L 1746.912814 458.95107 
L 1747.416294 445.84143 
L 1748.926734 445.84143 
L 1749.430214 436.587424 
L 1750.940653 436.587424 
L 1751.444133 429.741821 
L 1752.954573 429.741821 
L 1753.458052 425.453838 
L 1754.968492 425.453838 
L 1755.471972 419.357472 
L 1756.982411 419.357472 
L 1757.485891 414.982009 
L 1758.996331 414.982009 
L 1759.499811 404.824202 
L 1761.01025 404.824202 
L 1761.51373 399.208338 
L 1763.024169 399.208338 
L 1763.527649 393.533961 
L 1765.038089 393.533961 
L 1765.541569 388.990901 
L 1767.052008 388.990901 
L 1767.555488 383.440063 
L 1769.065928 383.440063 
L 1769.569407 378.172619 
L 1771.079847 378.172619 
L 1771.583327 372.341606 
L 1773.093766 372.341606 
L 1773.597246 366.304931 
L 1775.107686 366.304931 
L 1775.611166 364.403157 
L 1777.121605 364.403157 
L 1777.625085 360.897171 
L 1779.135525 360.897171 
L 1779.639004 359.644717 
L 1781.149444 359.644717 
L 1781.652924 358.138023 
L 1783.163363 358.138023 
L 1783.666843 355.653581 
L 1785.177283 355.653581 
L 1785.680762 351.716331 
L 1787.191202 351.716331 
L 1787.694682 350.241134 
L 1789.205121 350.241134 
L 1789.708601 347.808641 
L 1791.219041 347.808641 
L 1791.722521 345.639416 
L 1795.24688 345.639416 
L 1795.750359 345.400931 
L 1797.260799 345.400931 
L 1797.764279 343.713018 
L 1799.274718 343.713018 
L 1799.778198 342.984928 
L 1801.288638 342.984928 
L 1801.792118 341.320773 
L 1803.302557 341.320773 
L 1803.806037 340.139671 
L 1805.316476 340.139671 
L 1805.819956 337.451507 
L 1807.330396 337.451507 
L 1807.833876 332.982865 
L 1809.344315 332.982865 
L 1809.847795 332.03712 
L 1811.358235 332.03712 
L 1811.861714 327.316034 
L 1813.372154 327.316034 
L 1813.875634 324.308495 
L 1815.386073 324.308495 
L 1815.889553 322.439636 
L 1817.399993 322.439636 
L 1817.903473 319.271346 
L 1819.413912 319.271346 
L 1819.917392 314.828026 
L 1821.427832 314.828026 
L 1821.931311 311.357629 
L 1823.441751 311.357629 
L 1823.945231 306.09226 
L 1825.45567 306.09226 
L 1825.95915 303.932097 
L 1827.46959 303.932097 
L 1827.97307 301.613736 
L 1829.483509 301.613736 
L 1829.986989 296.369687 
L 1831.497428 296.369687 
L 1832.000908 295.315344 
L 1833.511348 295.315344 
L 1834.014828 294.11291 
L 1835.525267 294.11291 
L 1836.028747 291.115263 
L 1837.539187 291.115263 
L 1838.042666 288.590068 
L 1839.553106 288.590068 
L 1840.056586 284.844058 
L 1841.567025 284.844058 
L 1842.070505 280.914571 
L 1843.580945 280.914571 
L 1844.084425 279.182928 
L 1845.594864 279.182928 
L 1846.098344 276.283493 
L 1847.608784 276.283493 
L 1848.112263 274.78123 
L 1849.622703 274.78123 
L 1850.126183 275.328135 
L 1851.636622 275.328135 
L 1852.140102 271.053706 
L 1853.650542 271.053706 
L 1854.154022 270.867822 
L 1855.664461 270.867822 
L 1856.167941 268.77673 
L 1859.6923 268.77673 
L 1860.19578 266.385698 
L 1861.706219 266.385698 
L 1862.209699 264.4353 
L 1863.720139 264.4353 
L 1864.223618 261.964337 
L 1865.734058 261.964337 
L 1866.237538 261.114387 
L 1867.747977 261.114387 
L 1868.251457 257.83849 
L 1869.761897 257.83849 
L 1870.265377 255.475711 
L 1871.775816 255.475711 
L 1872.279296 253.0315 
L 1873.789736 253.0315 
L 1874.293215 247.678298 
L 1875.803655 247.678298 
L 1876.307135 243.985375 
L 1879.831494 243.982401 
L 1880.334974 242.920517 
L 1881.845413 242.920517 
L 1882.348893 244.533767 
L 1883.859332 244.533767 
L 1884.362812 241.237196 
L 1885.873252 241.237196 
L 1886.376732 243.414329 
L 1887.887171 243.414329 
L 1888.390651 240.807365 
L 1889.901091 240.807365 
L 1890.40457 240.666353 
L 1891.91501 240.666353 
L 1892.41849 241.372585 
L 1895.942849 241.304907 
L 1896.446329 241.886434 
L 1897.956768 241.886434 
L 1898.460248 238.658769 
L 1899.970687 238.658769 
L 1900.474167 236.575519 
L 1901.984607 236.575519 
L 1902.488087 235.74602 
L 1903.998526 235.74602 
L 1904.502006 234.418339 
L 1906.012446 234.418339 
L 1906.515925 233.184745 
L 1908.026365 233.184745 
L 1908.529845 230.024712 
L 1912.054204 230.024712 
L 1912.557684 228.782907 
L 1914.068123 228.782907 
L 1914.571603 226.81369 
L 1916.082043 226.81369 
L 1916.585522 226.007758 
L 1918.095962 226.007758 
L 1918.599442 225.13464 
L 1920.109881 225.13464 
L 1920.613361 223.2 
L 1921.620321 223.2 
L 1921.620321 223.2 
" clip-path="url(#pf41b1d714e)" style="fill: none; stroke: #0000ff; stroke-width: 1.5; stroke-linecap: square"/>
   </g>
   <g id="patch_15">
    <path d="M 1451.647059 1281.6 
L 1451.647059 172.8 
" style="fill: none; stroke: #000000; stroke-width: 0.8; stroke-linejoin: miter; stroke-linecap: square"/>
   </g>
   <g id="patch_16">
    <path d="M 1944 1281.6 
L 1944 172.8 
" style="fill: none; stroke: #000000; stroke-width: 0.8; stroke-linejoin: miter; stroke-linecap: square"/>
   </g>
   <g id="patch_17">
    <path d="M 1451.647059 1281.6 
L 1944 1281.6 
" style="fill: none; stroke: #000000; stroke-width: 0.8; stroke-linejoin: miter; stroke-linecap: square"/>
   </g>
   <g id="patch_18">
    <path d="M 1451.647059 172.8 
L 1944 172.8 
" style="fill: none; stroke: #000000; stroke-width: 0.8; stroke-linejoin: miter; stroke-linecap: square"/>
   </g>
   <g id="legend_3">
    <g id="patch_19">
     <path d="M 1852.957813 195.478125 
L 1937 195.478125 
Q 1939 195.478125 1939 193.478125 
L 1939 179.8 
Q 1939 177.8 1937 177.8 
L 1852.957813 177.8 
Q 1850.957813 177.8 1850.957813 179.8 
L 1850.957813 193.478125 
Q 1850.957813 195.478125 1852.957813 195.478125 
z
" style="fill: #ffffff; opacity: 0.8; stroke: #cccccc; stroke-linejoin: miter"/>
    </g>
    <g id="line2d_40">
     <path d="M 1854.957813 185.898437 
L 1864.957813 185.898437 
L 1874.957813 185.898437 
" style="fill: none; stroke: #0000ff; stroke-width: 1.5; stroke-linecap: square"/>
    </g>
    <g id="text_37">
     <!-- O3 reward -->
     <g transform="translate(1882.957813 189.398437) scale(0.1 -0.1)">
      <defs>
       <path id="DejaVuSans-33" d="M 2597 2516 
Q 3050 2419 3304 2112 
Q 3559 1806 3559 1356 
Q 3559 666 3084 287 
Q 2609 -91 1734 -91 
Q 1441 -91 1130 -33 
Q 819 25 488 141 
L 488 750 
Q 750 597 1062 519 
Q 1375 441 1716 441 
Q 2309 441 2620 675 
Q 2931 909 2931 1356 
Q 2931 1769 2642 2001 
Q 2353 2234 1838 2234 
L 1294 2234 
L 1294 2753 
L 1863 2753 
Q 2328 2753 2575 2939 
Q 2822 3125 2822 3475 
Q 2822 3834 2567 4026 
Q 2313 4219 1838 4219 
Q 1578 4219 1281 4162 
Q 984 4106 628 3988 
L 628 4550 
Q 988 4650 1302 4700 
Q 1616 4750 1894 4750 
Q 2613 4750 3031 4423 
Q 3450 4097 3450 3541 
Q 3450 3153 3228 2886 
Q 3006 2619 2597 2516 
z
" transform="scale(0.015625)"/>
      </defs>
      <use xlink:href="#DejaVuSans-4f"/>
      <use xlink:href="#DejaVuSans-33" x="78.710938"/>
      <use xlink:href="#DejaVuSans-20" x="142.333984"/>
      <use xlink:href="#DejaVuSans-72" x="174.121094"/>
      <use xlink:href="#DejaVuSans-65" x="212.984375"/>
      <use xlink:href="#DejaVuSans-77" x="274.507812"/>
      <use xlink:href="#DejaVuSans-61" x="356.294922"/>
      <use xlink:href="#DejaVuSans-72" x="417.574219"/>
      <use xlink:href="#DejaVuSans-64" x="456.9375"/>
     </g>
    </g>
   </g>
  </g>
 </g>
 <defs>
  <clipPath id="p6091d8b0e6">
   <rect x="270" y="172.8" width="492.352941" height="1108.8"/>
  </clipPath>
  <clipPath id="pd0f82d8593">
   <rect x="860.823529" y="172.8" width="492.352941" height="1108.8"/>
  </clipPath>
  <clipPath id="pf41b1d714e">
   <rect x="1451.647059" y="172.8" width="492.352941" height="1108.8"/>
  </clipPath>
 </defs>
</svg>
