<?xml version="1.0" encoding="utf-8" standalone="no"?>
<!DOCTYPE svg PUBLIC "-//W3C//DTD SVG 1.1//EN"
  "http://www.w3.org/Graphics/SVG/1.1/DTD/svg11.dtd">
<svg xmlns:xlink="http://www.w3.org/1999/xlink" width="2160pt" height="1440pt" viewBox="0 0 2160 1440" xmlns="http://www.w3.org/2000/svg" version="1.1">
 <metadata>
  <rdf:RDF xmlns:dc="http://purl.org/dc/elements/1.1/" xmlns:cc="http://creativecommons.org/ns#" xmlns:rdf="http://www.w3.org/1999/02/22-rdf-syntax-ns#">
   <cc:Work>
    <dc:type rdf:resource="http://purl.org/dc/dcmitype/StillImage"/>
    <dc:date>2023-05-31T19:44:44.806746</dc:date>
    <dc:format>image/svg+xml</dc:format>
    <dc:creator>
     <cc:Agent>
      <dc:title>Matplotlib v3.7.1, https://matplotlib.org/</dc:title>
     </cc:Agent>
    </dc:creator>
   </cc:Work>
  </rdf:RDF>
 </metadata>
 <defs>
  <style type="text/css">*{stroke-linejoin: round; stroke-linecap: butt}</style>
 </defs>
 <g id="figure_1">
  <g id="patch_1">
   <path d="M 0 1440 
L 2160 1440 
L 2160 0 
L 0 0 
z
" style="fill: #ffffff"/>
  </g>
  <g id="axes_1">
   <g id="patch_2">
    <path d="M 270 1281.6 
L 762.352941 1281.6 
L 762.352941 172.8 
L 270 172.8 
z
" style="fill: #ffffff"/>
   </g>
   <g id="matplotlib.axis_1">
    <g id="xtick_1">
     <g id="line2d_1">
      <defs>
       <path id="m30151a0b9c" d="M 0 0 
L 0 3.5 
" style="stroke: #000000; stroke-width: 0.8"/>
      </defs>
      <g>
       <use xlink:href="#m30151a0b9c" x="292.05392" y="1281.6" style="stroke: #000000; stroke-width: 0.8"/>
      </g>
     </g>
     <g id="text_1">
      <!-- 0 -->
      <g transform="translate(288.87267 1296.198437) scale(0.1 -0.1)">
       <defs>
        <path id="DejaVuSans-30" d="M 2034 4250 
Q 1547 4250 1301 3770 
Q 1056 3291 1056 2328 
Q 1056 1369 1301 889 
Q 1547 409 2034 409 
Q 2525 409 2770 889 
Q 3016 1369 3016 2328 
Q 3016 3291 2770 3770 
Q 2525 4250 2034 4250 
z
M 2034 4750 
Q 2819 4750 3233 4129 
Q 3647 3509 3647 2328 
Q 3647 1150 3233 529 
Q 2819 -91 2034 -91 
Q 1250 -91 836 529 
Q 422 1150 422 2328 
Q 422 3509 836 4129 
Q 1250 4750 2034 4750 
z
" transform="scale(0.015625)"/>
       </defs>
       <use xlink:href="#DejaVuSans-30"/>
      </g>
     </g>
    </g>
    <g id="xtick_2">
     <g id="line2d_2">
      <g>
       <use xlink:href="#m30151a0b9c" x="357.205824" y="1281.6" style="stroke: #000000; stroke-width: 0.8"/>
      </g>
     </g>
     <g id="text_2">
      <!-- 200 -->
      <g transform="translate(347.662074 1296.198437) scale(0.1 -0.1)">
       <defs>
        <path id="DejaVuSans-32" d="M 1228 531 
L 3431 531 
L 3431 0 
L 469 0 
L 469 531 
Q 828 903 1448 1529 
Q 2069 2156 2228 2338 
Q 2531 2678 2651 2914 
Q 2772 3150 2772 3378 
Q 2772 3750 2511 3984 
Q 2250 4219 1831 4219 
Q 1534 4219 1204 4116 
Q 875 4013 500 3803 
L 500 4441 
Q 881 4594 1212 4672 
Q 1544 4750 1819 4750 
Q 2544 4750 2975 4387 
Q 3406 4025 3406 3419 
Q 3406 3131 3298 2873 
Q 3191 2616 2906 2266 
Q 2828 2175 2409 1742 
Q 1991 1309 1228 531 
z
" transform="scale(0.015625)"/>
       </defs>
       <use xlink:href="#DejaVuSans-32"/>
       <use xlink:href="#DejaVuSans-30" x="63.623047"/>
       <use xlink:href="#DejaVuSans-30" x="127.246094"/>
      </g>
     </g>
    </g>
    <g id="xtick_3">
     <g id="line2d_3">
      <g>
       <use xlink:href="#m30151a0b9c" x="422.357728" y="1281.6" style="stroke: #000000; stroke-width: 0.8"/>
      </g>
     </g>
     <g id="text_3">
      <!-- 400 -->
      <g transform="translate(412.813978 1296.198437) scale(0.1 -0.1)">
       <defs>
        <path id="DejaVuSans-34" d="M 2419 4116 
L 825 1625 
L 2419 1625 
L 2419 4116 
z
M 2253 4666 
L 3047 4666 
L 3047 1625 
L 3713 1625 
L 3713 1100 
L 3047 1100 
L 3047 0 
L 2419 0 
L 2419 1100 
L 313 1100 
L 313 1709 
L 2253 4666 
z
" transform="scale(0.015625)"/>
       </defs>
       <use xlink:href="#DejaVuSans-34"/>
       <use xlink:href="#DejaVuSans-30" x="63.623047"/>
       <use xlink:href="#DejaVuSans-30" x="127.246094"/>
      </g>
     </g>
    </g>
    <g id="xtick_4">
     <g id="line2d_4">
      <g>
       <use xlink:href="#m30151a0b9c" x="487.509633" y="1281.6" style="stroke: #000000; stroke-width: 0.8"/>
      </g>
     </g>
     <g id="text_4">
      <!-- 600 -->
      <g transform="translate(477.965883 1296.198437) scale(0.1 -0.1)">
       <defs>
        <path id="DejaVuSans-36" d="M 2113 2584 
Q 1688 2584 1439 2293 
Q 1191 2003 1191 1497 
Q 1191 994 1439 701 
Q 1688 409 2113 409 
Q 2538 409 2786 701 
Q 3034 994 3034 1497 
Q 3034 2003 2786 2293 
Q 2538 2584 2113 2584 
z
M 3366 4563 
L 3366 3988 
Q 3128 4100 2886 4159 
Q 2644 4219 2406 4219 
Q 1781 4219 1451 3797 
Q 1122 3375 1075 2522 
Q 1259 2794 1537 2939 
Q 1816 3084 2150 3084 
Q 2853 3084 3261 2657 
Q 3669 2231 3669 1497 
Q 3669 778 3244 343 
Q 2819 -91 2113 -91 
Q 1303 -91 875 529 
Q 447 1150 447 2328 
Q 447 3434 972 4092 
Q 1497 4750 2381 4750 
Q 2619 4750 2861 4703 
Q 3103 4656 3366 4563 
z
" transform="scale(0.015625)"/>
       </defs>
       <use xlink:href="#DejaVuSans-36"/>
       <use xlink:href="#DejaVuSans-30" x="63.623047"/>
       <use xlink:href="#DejaVuSans-30" x="127.246094"/>
      </g>
     </g>
    </g>
    <g id="xtick_5">
     <g id="line2d_5">
      <g>
       <use xlink:href="#m30151a0b9c" x="552.661537" y="1281.6" style="stroke: #000000; stroke-width: 0.8"/>
      </g>
     </g>
     <g id="text_5">
      <!-- 800 -->
      <g transform="translate(543.117787 1296.198437) scale(0.1 -0.1)">
       <defs>
        <path id="DejaVuSans-38" d="M 2034 2216 
Q 1584 2216 1326 1975 
Q 1069 1734 1069 1313 
Q 1069 891 1326 650 
Q 1584 409 2034 409 
Q 2484 409 2743 651 
Q 3003 894 3003 1313 
Q 3003 1734 2745 1975 
Q 2488 2216 2034 2216 
z
M 1403 2484 
Q 997 2584 770 2862 
Q 544 3141 544 3541 
Q 544 4100 942 4425 
Q 1341 4750 2034 4750 
Q 2731 4750 3128 4425 
Q 3525 4100 3525 3541 
Q 3525 3141 3298 2862 
Q 3072 2584 2669 2484 
Q 3125 2378 3379 2068 
Q 3634 1759 3634 1313 
Q 3634 634 3220 271 
Q 2806 -91 2034 -91 
Q 1263 -91 848 271 
Q 434 634 434 1313 
Q 434 1759 690 2068 
Q 947 2378 1403 2484 
z
M 1172 3481 
Q 1172 3119 1398 2916 
Q 1625 2713 2034 2713 
Q 2441 2713 2670 2916 
Q 2900 3119 2900 3481 
Q 2900 3844 2670 4047 
Q 2441 4250 2034 4250 
Q 1625 4250 1398 4047 
Q 1172 3844 1172 3481 
z
" transform="scale(0.015625)"/>
       </defs>
       <use xlink:href="#DejaVuSans-38"/>
       <use xlink:href="#DejaVuSans-30" x="63.623047"/>
       <use xlink:href="#DejaVuSans-30" x="127.246094"/>
      </g>
     </g>
    </g>
    <g id="xtick_6">
     <g id="line2d_6">
      <g>
       <use xlink:href="#m30151a0b9c" x="617.813441" y="1281.6" style="stroke: #000000; stroke-width: 0.8"/>
      </g>
     </g>
     <g id="text_6">
      <!-- 1000 -->
      <g transform="translate(605.088441 1296.198437) scale(0.1 -0.1)">
       <defs>
        <path id="DejaVuSans-31" d="M 794 531 
L 1825 531 
L 1825 4091 
L 703 3866 
L 703 4441 
L 1819 4666 
L 2450 4666 
L 2450 531 
L 3481 531 
L 3481 0 
L 794 0 
L 794 531 
z
" transform="scale(0.015625)"/>
       </defs>
       <use xlink:href="#DejaVuSans-31"/>
       <use xlink:href="#DejaVuSans-30" x="63.623047"/>
       <use xlink:href="#DejaVuSans-30" x="127.246094"/>
       <use xlink:href="#DejaVuSans-30" x="190.869141"/>
      </g>
     </g>
    </g>
    <g id="xtick_7">
     <g id="line2d_7">
      <g>
       <use xlink:href="#m30151a0b9c" x="682.965346" y="1281.6" style="stroke: #000000; stroke-width: 0.8"/>
      </g>
     </g>
     <g id="text_7">
      <!-- 1200 -->
      <g transform="translate(670.240346 1296.198437) scale(0.1 -0.1)">
       <use xlink:href="#DejaVuSans-31"/>
       <use xlink:href="#DejaVuSans-32" x="63.623047"/>
       <use xlink:href="#DejaVuSans-30" x="127.246094"/>
       <use xlink:href="#DejaVuSans-30" x="190.869141"/>
      </g>
     </g>
    </g>
    <g id="xtick_8">
     <g id="line2d_8">
      <g>
       <use xlink:href="#m30151a0b9c" x="748.11725" y="1281.6" style="stroke: #000000; stroke-width: 0.8"/>
      </g>
     </g>
     <g id="text_8">
      <!-- 1400 -->
      <g transform="translate(735.39225 1296.198437) scale(0.1 -0.1)">
       <use xlink:href="#DejaVuSans-31"/>
       <use xlink:href="#DejaVuSans-34" x="63.623047"/>
       <use xlink:href="#DejaVuSans-30" x="127.246094"/>
       <use xlink:href="#DejaVuSans-30" x="190.869141"/>
      </g>
     </g>
    </g>
   </g>
   <g id="matplotlib.axis_2">
    <g id="ytick_1">
     <g id="line2d_9">
      <defs>
       <path id="mff44fa9039" d="M 0 0 
L -3.5 0 
" style="stroke: #000000; stroke-width: 0.8"/>
      </defs>
      <g>
       <use xlink:href="#mff44fa9039" x="270" y="1202.378273" style="stroke: #000000; stroke-width: 0.8"/>
      </g>
     </g>
     <g id="text_9">
      <!-- −20 -->
      <g transform="translate(241.895312 1206.177491) scale(0.1 -0.1)">
       <defs>
        <path id="DejaVuSans-2212" d="M 678 2272 
L 4684 2272 
L 4684 1741 
L 678 1741 
L 678 2272 
z
" transform="scale(0.015625)"/>
       </defs>
       <use xlink:href="#DejaVuSans-2212"/>
       <use xlink:href="#DejaVuSans-32" x="83.789062"/>
       <use xlink:href="#DejaVuSans-30" x="147.412109"/>
      </g>
     </g>
    </g>
    <g id="ytick_2">
     <g id="line2d_10">
      <g>
       <use xlink:href="#mff44fa9039" x="270" y="960.007413" style="stroke: #000000; stroke-width: 0.8"/>
      </g>
     </g>
     <g id="text_10">
      <!-- −15 -->
      <g transform="translate(241.895312 963.806632) scale(0.1 -0.1)">
       <defs>
        <path id="DejaVuSans-35" d="M 691 4666 
L 3169 4666 
L 3169 4134 
L 1269 4134 
L 1269 2991 
Q 1406 3038 1543 3061 
Q 1681 3084 1819 3084 
Q 2600 3084 3056 2656 
Q 3513 2228 3513 1497 
Q 3513 744 3044 326 
Q 2575 -91 1722 -91 
Q 1428 -91 1123 -41 
Q 819 9 494 109 
L 494 744 
Q 775 591 1075 516 
Q 1375 441 1709 441 
Q 2250 441 2565 725 
Q 2881 1009 2881 1497 
Q 2881 1984 2565 2268 
Q 2250 2553 1709 2553 
Q 1456 2553 1204 2497 
Q 953 2441 691 2322 
L 691 4666 
z
" transform="scale(0.015625)"/>
       </defs>
       <use xlink:href="#DejaVuSans-2212"/>
       <use xlink:href="#DejaVuSans-31" x="83.789062"/>
       <use xlink:href="#DejaVuSans-35" x="147.412109"/>
      </g>
     </g>
    </g>
    <g id="ytick_3">
     <g id="line2d_11">
      <g>
       <use xlink:href="#mff44fa9039" x="270" y="717.636553" style="stroke: #000000; stroke-width: 0.8"/>
      </g>
     </g>
     <g id="text_11">
      <!-- −10 -->
      <g transform="translate(241.895312 721.435772) scale(0.1 -0.1)">
       <use xlink:href="#DejaVuSans-2212"/>
       <use xlink:href="#DejaVuSans-31" x="83.789062"/>
       <use xlink:href="#DejaVuSans-30" x="147.412109"/>
      </g>
     </g>
    </g>
    <g id="ytick_4">
     <g id="line2d_12">
      <g>
       <use xlink:href="#mff44fa9039" x="270" y="475.265694" style="stroke: #000000; stroke-width: 0.8"/>
      </g>
     </g>
     <g id="text_12">
      <!-- −5 -->
      <g transform="translate(248.257812 479.064913) scale(0.1 -0.1)">
       <use xlink:href="#DejaVuSans-2212"/>
       <use xlink:href="#DejaVuSans-35" x="83.789062"/>
      </g>
     </g>
    </g>
    <g id="ytick_5">
     <g id="line2d_13">
      <g>
       <use xlink:href="#mff44fa9039" x="270" y="232.894834" style="stroke: #000000; stroke-width: 0.8"/>
      </g>
     </g>
     <g id="text_13">
      <!-- 0 -->
      <g transform="translate(256.6375 236.694053) scale(0.1 -0.1)">
       <use xlink:href="#DejaVuSans-30"/>
      </g>
     </g>
    </g>
   </g>
   <g id="line2d_14">
    <path d="M 292.379679 232.894834 
L 308.667655 232.894834 
L 308.993415 223.2 
L 309.970693 223.2 
L 310.296453 229.663223 
L 311.273731 229.663223 
L 311.599491 240.650702 
L 312.576769 240.650702 
L 312.902529 241.893629 
L 313.879808 241.893629 
L 314.205567 254.216368 
L 315.182846 254.216368 
L 315.508605 259.572464 
L 316.485884 259.572464 
L 316.811643 265.304728 
L 317.788922 265.304728 
L 318.114681 270.338901 
L 319.09196 270.338901 
L 319.417719 276.868642 
L 320.394998 276.868642 
L 320.720758 281.837465 
L 323.001074 281.837465 
L 323.326834 277.723981 
L 325.60715 277.723981 
L 325.93291 283.572282 
L 326.910188 283.572282 
L 327.235948 278.630616 
L 328.213227 278.630616 
L 328.538986 274.644107 
L 330.819303 274.644107 
L 331.145062 275.645233 
L 332.122341 275.645233 
L 332.4481 270.725372 
L 334.728417 270.725372 
L 335.054176 265.825216 
L 336.031455 265.825216 
L 336.357215 260.943827 
L 337.334493 260.943827 
L 337.660253 265.466148 
L 338.637531 265.466148 
L 338.963291 258.121577 
L 341.243607 258.121577 
L 341.569367 251.314897 
L 342.546645 251.314897 
L 342.872405 255.597372 
L 343.849684 255.597372 
L 344.175443 251.314897 
L 345.152722 251.314897 
L 345.478481 257.856747 
L 347.758798 257.856747 
L 348.084557 262.474302 
L 349.061836 262.474302 
L 349.387595 270.517812 
L 350.364874 270.517812 
L 350.690634 269.308941 
L 351.667912 269.308941 
L 351.993672 272.352802 
L 352.97095 272.352802 
L 353.29671 271.190852 
L 354.273988 271.190852 
L 354.599748 270.054821 
L 355.577026 270.054821 
L 355.902786 272.047121 
L 356.880064 272.047121 
L 357.205824 283.454263 
L 358.183103 283.454263 
L 358.508862 279.388535 
L 359.486141 279.388535 
L 359.8119 282.543777 
L 360.789179 282.543777 
L 361.114938 293.803694 
L 362.092217 293.803694 
L 362.417976 297.64943 
L 363.395255 297.64943 
L 363.721014 301.041536 
L 367.304369 301.041536 
L 367.630129 304.802229 
L 368.607407 304.802229 
L 368.933167 311.955029 
L 369.910445 311.955029 
L 370.236205 308.200317 
L 371.213483 308.200317 
L 371.539243 315.365407 
L 372.516521 315.365407 
L 372.842281 322.464598 
L 373.81956 322.464598 
L 374.145319 325.891691 
L 375.122598 325.891691 
L 375.448357 336.72825 
L 376.425636 336.72825 
L 376.751395 344.009934 
L 377.728674 344.009934 
L 378.054433 354.975695 
L 379.031712 354.975695 
L 379.357471 365.757493 
L 380.33475 365.757493 
L 380.66051 373.000652 
L 381.637788 373.000652 
L 381.963548 376.704929 
L 382.940826 376.704929 
L 383.266586 383.948088 
L 384.243864 383.948088 
L 384.569624 380.458923 
L 385.546902 380.458923 
L 385.872662 373.566086 
L 386.84994 373.566086 
L 387.1757 366.752844 
L 388.152979 366.752844 
L 388.478738 363.346224 
L 389.456017 363.346224 
L 389.781776 370.628002 
L 392.062093 370.660579 
L 392.387852 371.284656 
L 393.365131 371.284656 
L 393.69089 382.627325 
L 395.971207 382.623379 
L 396.296967 376.088727 
L 397.274245 376.088727 
L 397.600005 372.825177 
L 398.577283 372.825177 
L 398.903043 366.30886 
L 399.880321 366.30886 
L 400.206081 373.754473 
L 401.183359 373.754473 
L 401.509119 377.01086 
L 403.789436 377.01086 
L 404.115195 380.267247 
L 405.092474 380.267247 
L 405.418233 377.01419 
L 406.395512 377.01419 
L 406.721271 374.771767 
L 407.69855 374.771767 
L 408.024309 368.335639 
L 409.001588 368.335639 
L 409.327347 369.417201 
L 410.304626 369.417201 
L 410.630386 374.903559 
L 411.607664 374.903559 
L 411.933424 376.111189 
L 412.910702 376.111189 
L 413.236462 372.918379 
L 415.516778 372.918379 
L 415.842538 380.493631 
L 416.819816 380.493631 
L 417.145576 377.345308 
L 418.122855 377.345308 
L 418.448614 374.199493 
L 419.425893 374.199493 
L 419.751652 375.513525 
L 420.728931 375.513525 
L 421.05469 376.85435 
L 422.031969 376.85435 
L 422.357728 381.348262 
L 423.335007 381.348262 
L 423.660766 388.999133 
L 424.638045 388.999133 
L 424.963804 401.183994 
L 425.941083 401.183994 
L 426.266843 408.834864 
L 427.244121 408.834864 
L 427.569881 419.598047 
L 428.547159 419.598047 
L 428.872919 431.787506 
L 429.850197 431.787506 
L 430.175957 442.52822 
L 431.153235 442.52822 
L 431.478995 457.871799 
L 432.456273 457.871799 
L 432.782033 470.152554 
L 433.759312 470.152554 
L 434.085071 473.24842 
L 435.06235 473.24842 
L 435.388109 485.559486 
L 436.365388 485.559486 
L 436.691147 487.077123 
L 437.668426 487.077123 
L 437.994185 496.324286 
L 440.274502 496.324286 
L 440.600262 500.94719 
L 442.880578 500.955734 
L 443.206338 505.583972 
L 444.183616 505.583972 
L 444.509376 502.51928 
L 446.789692 502.517546 
L 447.115452 507.179083 
L 448.092731 507.179083 
L 448.41849 514.897729 
L 449.395769 514.897729 
L 449.721528 508.815234 
L 450.698807 508.815234 
L 451.024566 510.492218 
L 452.001845 510.492218 
L 452.327604 504.447128 
L 453.304883 504.447128 
L 453.630642 495.415972 
L 454.607921 495.415972 
L 454.93368 500.157496 
L 455.910959 500.157496 
L 456.236719 491.151526 
L 457.213997 491.151526 
L 457.539757 498.909892 
L 458.517035 498.909892 
L 458.842795 497.674443 
L 462.426149 497.674443 
L 462.751909 494.694638 
L 463.729188 494.694638 
L 464.054947 488.741888 
L 465.032226 488.741888 
L 465.357985 482.793359 
L 466.335264 482.793359 
L 466.661023 470.916674 
L 467.638302 470.916674 
L 467.964061 459.093339 
L 468.94134 459.093339 
L 469.267099 450.251802 
L 470.244378 450.251802 
L 470.570138 441.432062 
L 471.547416 441.432062 
L 471.873176 438.497274 
L 472.850454 438.497274 
L 473.176214 429.70736 
L 474.153492 429.70736 
L 474.479252 423.854146 
L 476.759568 423.856527 
L 477.085328 420.935172 
L 478.062607 420.935172 
L 478.388366 412.180978 
L 479.365645 412.180978 
L 479.691404 420.031498 
L 480.668683 420.031498 
L 480.994442 411.293062 
L 481.971721 411.293062 
L 482.29748 421.1936 
L 483.274759 421.1936 
L 483.600518 439.822677 
L 484.577797 439.822677 
L 484.903557 436.917368 
L 485.880835 436.917368 
L 486.206595 436.070917 
L 487.183873 436.070917 
L 487.509633 424.472762 
L 488.486911 424.472762 
L 488.812671 429.452324 
L 489.789949 429.452324 
L 490.115709 442.309478 
L 491.092987 442.309478 
L 491.418747 454.397489 
L 492.396026 454.397489 
L 492.721785 462.275133 
L 493.699064 462.275133 
L 494.024823 475.91286 
L 495.002102 475.91286 
L 495.327861 488.802854 
L 496.30514 488.802854 
L 496.630899 496.687609 
L 497.608178 496.687609 
L 497.933937 501.705263 
L 498.911216 501.705263 
L 499.236975 503.138851 
L 500.214254 503.138851 
L 500.540014 516.058624 
L 501.517292 516.058624 
L 501.843052 526.81949 
L 502.82033 526.81949 
L 503.14609 528.990906 
L 504.123368 528.990906 
L 504.449128 534.026677 
L 505.426406 534.026677 
L 505.752166 549.151533 
L 506.729444 549.151533 
L 507.055204 562.102208 
L 508.032483 562.102208 
L 508.358242 585.177796 
L 509.335521 585.177796 
L 509.66128 613.351297 
L 510.638559 613.351297 
L 510.964318 623.49021 
L 511.941597 623.49021 
L 512.267356 644.405882 
L 513.244635 644.405882 
L 513.570394 661.880053 
L 514.547673 661.880053 
L 514.873433 659.036082 
L 515.850711 659.036082 
L 516.176471 653.353095 
L 517.153749 653.353095 
L 517.479509 647.672585 
L 519.759825 647.671827 
L 520.085585 644.833827 
L 521.062863 644.833827 
L 521.388623 641.995077 
L 522.365902 641.995077 
L 522.691661 636.322278 
L 523.66894 636.322278 
L 523.994699 632.914191 
L 524.971978 632.914191 
L 525.297737 632.344218 
L 526.275016 632.344218 
L 526.600775 644.815422 
L 527.578054 644.815422 
L 527.903813 641.984257 
L 528.881092 641.984257 
L 529.206851 647.089104 
L 530.18413 647.089104 
L 530.50989 657.303264 
L 531.487168 657.303264 
L 531.812928 656.75262 
L 532.790206 656.75262 
L 533.115966 661.864142 
L 534.093244 661.864142 
L 534.419004 668.728587 
L 535.396282 668.728587 
L 535.722042 671.021523 
L 536.69932 671.021523 
L 537.02508 675.61182 
L 538.002359 675.61182 
L 538.328118 678.432738 
L 539.305397 678.432738 
L 539.631156 675.093756 
L 540.608435 675.093756 
L 540.934194 674.579117 
L 541.911473 674.579117 
L 542.237232 682.524383 
L 543.214511 682.524383 
L 543.54027 674.067937 
L 544.517549 674.067937 
L 544.843309 676.377823 
L 545.820587 676.377823 
L 546.146347 688.952033 
L 547.123625 688.952033 
L 547.449385 686.135701 
L 548.426663 686.135701 
L 548.752423 693.585975 
L 549.729701 693.585975 
L 550.055461 701.044187 
L 551.032739 701.044187 
L 551.358499 708.505463 
L 552.335778 708.505463 
L 552.661537 732.364862 
L 553.638816 732.364862 
L 553.964575 735.177287 
L 554.941854 735.177287 
L 555.267613 745.945131 
L 556.244892 745.945131 
L 556.570651 745.473099 
L 557.54793 745.473099 
L 557.873689 748.282965 
L 560.154006 748.282965 
L 560.479766 753.901633 
L 561.457044 753.901633 
L 561.782804 753.436605 
L 562.760082 753.436605 
L 563.085842 750.166743 
L 564.06312 750.166743 
L 564.38888 749.709162 
L 565.366158 749.709162 
L 565.691918 752.063029 
L 566.669196 752.063029 
L 566.994956 756.772133 
L 567.972235 756.772133 
L 568.297994 753.968619 
L 569.275273 753.968619 
L 569.601032 753.523635 
L 570.578311 753.523635 
L 570.90407 763.848702 
L 571.881349 763.848702 
L 572.207108 768.57451 
L 573.184387 768.57451 
L 573.510146 770.939126 
L 574.487425 770.939126 
L 574.813185 765.341449 
L 575.790463 765.341449 
L 576.116223 770.084885 
L 577.093501 770.084885 
L 577.419261 764.49186 
L 578.396539 764.49186 
L 578.722299 763.656882 
L 579.699577 763.656882 
L 580.025337 779.182902 
L 582.305654 779.182902 
L 582.631413 784.362213 
L 583.608692 784.362213 
L 583.934451 786.750354 
L 586.214768 786.751715 
L 586.540527 786.354871 
L 587.517806 786.354871 
L 587.843565 799.514717 
L 588.820844 799.514717 
L 589.146603 793.935569 
L 590.123882 793.935569 
L 590.449642 791.145996 
L 591.42692 791.145996 
L 591.75268 793.544767 
L 592.729958 793.544767 
L 593.055718 787.967155 
L 595.336034 787.967155 
L 595.661794 785.178521 
L 596.639072 785.178521 
L 596.964832 782.390227 
L 597.942111 782.390227 
L 598.26787 774.027169 
L 599.245149 774.027169 
L 599.570908 768.453113 
L 600.548187 768.453113 
L 600.873946 760.09271 
L 601.851225 760.09271 
L 602.176984 754.519871 
L 603.154263 754.519871 
L 603.480022 748.94823 
L 604.457301 748.94823 
L 604.783061 740.592932 
L 605.760339 740.592932 
L 606.086099 769.739067 
L 607.063377 769.739067 
L 607.389137 785.705605 
L 608.366415 785.705605 
L 608.692175 804.456782 
L 609.669453 804.456782 
L 609.995213 812.441012 
L 610.972491 812.441012 
L 611.298251 820.425241 
L 612.27553 820.425241 
L 612.601289 841.59453 
L 613.578568 841.59453 
L 613.904327 857.56372 
L 614.881606 857.56372 
L 615.207365 876.314491 
L 616.184644 876.314491 
L 616.510403 900.266211 
L 617.487682 900.266211 
L 617.813441 908.25024 
L 618.79072 908.25024 
L 619.116479 905.469481 
L 620.093758 905.469481 
L 620.419518 899.908847 
L 621.396796 899.908847 
L 621.722556 902.688814 
L 622.699834 902.688814 
L 623.025594 899.909136 
L 624.002872 899.909136 
L 624.328632 897.129744 
L 625.30591 897.129744 
L 625.63167 894.350353 
L 626.608948 894.350353 
L 626.934708 899.555768 
L 627.911987 899.555768 
L 628.237746 896.776377 
L 630.518063 896.776659 
L 630.843822 896.426345 
L 631.821101 896.426345 
L 632.14686 907.19027 
L 633.124139 907.19027 
L 633.449898 909.620232 
L 634.427177 909.620232 
L 634.752937 925.246901 
L 635.730215 925.246901 
L 636.055975 928.024513 
L 637.033253 928.024513 
L 637.359013 930.456814 
L 638.336291 930.456814 
L 638.662051 948.866263 
L 639.639329 948.866263 
L 639.965089 962.067048 
L 640.942367 962.067048 
L 641.268127 961.72551 
L 642.245406 961.72551 
L 642.571165 966.938559 
L 643.548444 966.938559 
L 643.874203 969.715328 
L 644.851482 969.715328 
L 645.177241 964.162047 
L 646.15452 964.162047 
L 646.480279 969.376836 
L 647.457558 969.376836 
L 647.783317 977.031596 
L 648.760596 977.031596 
L 649.086355 974.255273 
L 650.063634 974.255273 
L 650.389394 973.918728 
L 652.66971 973.918543 
L 652.99547 976.694243 
L 653.972748 976.694243 
L 654.298508 981.912223 
L 655.275786 981.912223 
L 655.601546 981.579417 
L 656.578824 981.579417 
L 656.904584 978.803965 
L 657.881863 978.803965 
L 658.207622 984.023294 
L 659.184901 984.023294 
L 659.51066 997.23837 
L 660.487939 997.23837 
L 660.813698 999.684182 
L 661.790977 999.684182 
L 662.116736 1007.680046 
L 663.094015 1007.680046 
L 663.419774 1010.454591 
L 664.397053 1010.454591 
L 664.722813 1013.228955 
L 665.700091 1013.228955 
L 666.025851 1018.450453 
L 668.306167 1018.450453 
L 668.631927 1021.224581 
L 669.609205 1021.224581 
L 669.934965 1023.672422 
L 670.912243 1023.672422 
L 671.238003 1023.346835 
L 672.215282 1023.346835 
L 672.541041 1028.569269 
L 673.51832 1028.569269 
L 673.844079 1028.245427 
L 674.821358 1028.245427 
L 675.147117 1033.468218 
L 676.124396 1033.468218 
L 676.450155 1046.850384 
L 677.427434 1046.850384 
L 677.753193 1052.396155 
L 680.03351 1052.396374 
L 680.35927 1062.847901 
L 681.336548 1062.847901 
L 681.662308 1057.303831 
L 682.639586 1057.303831 
L 682.965346 1062.530527 
L 683.942624 1062.530527 
L 684.268384 1073.300866 
L 685.245662 1073.300866 
L 685.571422 1070.529362 
L 687.851739 1070.529362 
L 688.177498 1075.756656 
L 689.154777 1075.756656 
L 689.480536 1078.52781 
L 690.457815 1078.52781 
L 690.783574 1089.297451 
L 691.760853 1089.297451 
L 692.086612 1094.525756 
L 693.063891 1094.525756 
L 693.38965 1102.525073 
L 694.366929 1102.525073 
L 694.692689 1107.753998 
L 695.669967 1107.753998 
L 695.995727 1120.983665 
L 696.973005 1120.983665 
L 697.298765 1115.443282 
L 698.276043 1115.443282 
L 698.601803 1112.67329 
L 699.579081 1112.67329 
L 699.904841 1109.903298 
L 700.882119 1109.903298 
L 701.207879 1112.364584 
L 702.185158 1112.364584 
L 702.510917 1115.134208 
L 704.791234 1115.134208 
L 705.116993 1112.364584 
L 707.39731 1112.364584 
L 707.723069 1106.82592 
L 708.700348 1106.82592 
L 709.026107 1106.520233 
L 710.003386 1106.520233 
L 710.329146 1108.98454 
L 711.306424 1108.98454 
L 711.632184 1111.449035 
L 712.609462 1111.449035 
L 712.935222 1121.915161 
L 713.9125 1121.915161 
L 714.23826 1124.683279 
L 715.215538 1124.683279 
L 715.541298 1127.451397 
L 716.518576 1127.451397 
L 716.844336 1130.219514 
L 717.821615 1130.219514 
L 718.147374 1137.920018 
L 720.427691 1137.920018 
L 720.75345 1145.922717 
L 721.730729 1145.922717 
L 722.056488 1151.457382 
L 723.033767 1151.457382 
L 723.359526 1167.463392 
L 724.336805 1167.463392 
L 724.662565 1180.999609 
L 725.639843 1180.999609 
L 725.965603 1183.470098 
L 726.942881 1183.470098 
L 727.268641 1191.473512 
L 728.245919 1191.473512 
L 728.571679 1191.178638 
L 729.548957 1191.178638 
L 729.874717 1196.416536 
L 730.851995 1196.416536 
L 731.177755 1199.182586 
L 732.155034 1199.182586 
L 732.480793 1212.425248 
L 733.458072 1212.425248 
L 733.783831 1220.42986 
L 734.76111 1220.42986 
L 735.086869 1228.434623 
L 737.367186 1228.434623 
L 737.692945 1231.2 
L 739.973262 1231.2 
L 739.973262 1231.2 
" clip-path="url(#pd1c76f102e)" style="fill: none; stroke: #0000ff; stroke-width: 1.5; stroke-linecap: square"/>
   </g>
   <g id="patch_3">
    <path d="M 270 1281.6 
L 270 172.8 
" style="fill: none; stroke: #000000; stroke-width: 0.8; stroke-linejoin: miter; stroke-linecap: square"/>
   </g>
   <g id="patch_4">
    <path d="M 762.352941 1281.6 
L 762.352941 172.8 
" style="fill: none; stroke: #000000; stroke-width: 0.8; stroke-linejoin: miter; stroke-linecap: square"/>
   </g>
   <g id="patch_5">
    <path d="M 270 1281.6 
L 762.352941 1281.6 
" style="fill: none; stroke: #000000; stroke-width: 0.8; stroke-linejoin: miter; stroke-linecap: square"/>
   </g>
   <g id="patch_6">
    <path d="M 270 172.8 
L 762.352941 172.8 
" style="fill: none; stroke: #000000; stroke-width: 0.8; stroke-linejoin: miter; stroke-linecap: square"/>
   </g>
   <g id="legend_1">
    <g id="patch_7">
     <path d="M 671.310754 195.478125 
L 755.352941 195.478125 
Q 757.352941 195.478125 757.352941 193.478125 
L 757.352941 179.8 
Q 757.352941 177.8 755.352941 177.8 
L 671.310754 177.8 
Q 669.310754 177.8 669.310754 179.8 
L 669.310754 193.478125 
Q 669.310754 195.478125 671.310754 195.478125 
z
" style="fill: #ffffff; opacity: 0.8; stroke: #cccccc; stroke-linejoin: miter"/>
    </g>
    <g id="line2d_15">
     <path d="M 673.310754 185.898437 
L 683.310754 185.898437 
L 693.310754 185.898437 
" style="fill: none; stroke: #0000ff; stroke-width: 1.5; stroke-linecap: square"/>
    </g>
    <g id="text_14">
     <!-- O1 reward -->
     <g transform="translate(701.310754 189.398437) scale(0.1 -0.1)">
      <defs>
       <path id="DejaVuSans-4f" d="M 2522 4238 
Q 1834 4238 1429 3725 
Q 1025 3213 1025 2328 
Q 1025 1447 1429 934 
Q 1834 422 2522 422 
Q 3209 422 3611 934 
Q 4013 1447 4013 2328 
Q 4013 3213 3611 3725 
Q 3209 4238 2522 4238 
z
M 2522 4750 
Q 3503 4750 4090 4092 
Q 4678 3434 4678 2328 
Q 4678 1225 4090 567 
Q 3503 -91 2522 -91 
Q 1538 -91 948 565 
Q 359 1222 359 2328 
Q 359 3434 948 4092 
Q 1538 4750 2522 4750 
z
" transform="scale(0.015625)"/>
       <path id="DejaVuSans-20" transform="scale(0.015625)"/>
       <path id="DejaVuSans-72" d="M 2631 2963 
Q 2534 3019 2420 3045 
Q 2306 3072 2169 3072 
Q 1681 3072 1420 2755 
Q 1159 2438 1159 1844 
L 1159 0 
L 581 0 
L 581 3500 
L 1159 3500 
L 1159 2956 
Q 1341 3275 1631 3429 
Q 1922 3584 2338 3584 
Q 2397 3584 2469 3576 
Q 2541 3569 2628 3553 
L 2631 2963 
z
" transform="scale(0.015625)"/>
       <path id="DejaVuSans-65" d="M 3597 1894 
L 3597 1613 
L 953 1613 
Q 991 1019 1311 708 
Q 1631 397 2203 397 
Q 2534 397 2845 478 
Q 3156 559 3463 722 
L 3463 178 
Q 3153 47 2828 -22 
Q 2503 -91 2169 -91 
Q 1331 -91 842 396 
Q 353 884 353 1716 
Q 353 2575 817 3079 
Q 1281 3584 2069 3584 
Q 2775 3584 3186 3129 
Q 3597 2675 3597 1894 
z
M 3022 2063 
Q 3016 2534 2758 2815 
Q 2500 3097 2075 3097 
Q 1594 3097 1305 2825 
Q 1016 2553 972 2059 
L 3022 2063 
z
" transform="scale(0.015625)"/>
       <path id="DejaVuSans-77" d="M 269 3500 
L 844 3500 
L 1563 769 
L 2278 3500 
L 2956 3500 
L 3675 769 
L 4391 3500 
L 4966 3500 
L 4050 0 
L 3372 0 
L 2619 2869 
L 1863 0 
L 1184 0 
L 269 3500 
z
" transform="scale(0.015625)"/>
       <path id="DejaVuSans-61" d="M 2194 1759 
Q 1497 1759 1228 1600 
Q 959 1441 959 1056 
Q 959 750 1161 570 
Q 1363 391 1709 391 
Q 2188 391 2477 730 
Q 2766 1069 2766 1631 
L 2766 1759 
L 2194 1759 
z
M 3341 1997 
L 3341 0 
L 2766 0 
L 2766 531 
Q 2569 213 2275 61 
Q 1981 -91 1556 -91 
Q 1019 -91 701 211 
Q 384 513 384 1019 
Q 384 1609 779 1909 
Q 1175 2209 1959 2209 
L 2766 2209 
L 2766 2266 
Q 2766 2663 2505 2880 
Q 2244 3097 1772 3097 
Q 1472 3097 1187 3025 
Q 903 2953 641 2809 
L 641 3341 
Q 956 3463 1253 3523 
Q 1550 3584 1831 3584 
Q 2591 3584 2966 3190 
Q 3341 2797 3341 1997 
z
" transform="scale(0.015625)"/>
       <path id="DejaVuSans-64" d="M 2906 2969 
L 2906 4863 
L 3481 4863 
L 3481 0 
L 2906 0 
L 2906 525 
Q 2725 213 2448 61 
Q 2172 -91 1784 -91 
Q 1150 -91 751 415 
Q 353 922 353 1747 
Q 353 2572 751 3078 
Q 1150 3584 1784 3584 
Q 2172 3584 2448 3432 
Q 2725 3281 2906 2969 
z
M 947 1747 
Q 947 1113 1208 752 
Q 1469 391 1925 391 
Q 2381 391 2643 752 
Q 2906 1113 2906 1747 
Q 2906 2381 2643 2742 
Q 2381 3103 1925 3103 
Q 1469 3103 1208 2742 
Q 947 2381 947 1747 
z
" transform="scale(0.015625)"/>
      </defs>
      <use xlink:href="#DejaVuSans-4f"/>
      <use xlink:href="#DejaVuSans-31" x="78.710938"/>
      <use xlink:href="#DejaVuSans-20" x="142.333984"/>
      <use xlink:href="#DejaVuSans-72" x="174.121094"/>
      <use xlink:href="#DejaVuSans-65" x="212.984375"/>
      <use xlink:href="#DejaVuSans-77" x="274.507812"/>
      <use xlink:href="#DejaVuSans-61" x="356.294922"/>
      <use xlink:href="#DejaVuSans-72" x="417.574219"/>
      <use xlink:href="#DejaVuSans-64" x="456.9375"/>
     </g>
    </g>
   </g>
  </g>
  <g id="axes_2">
   <g id="patch_8">
    <path d="M 860.823529 1281.6 
L 1353.176471 1281.6 
L 1353.176471 172.8 
L 860.823529 172.8 
z
" style="fill: #ffffff"/>
   </g>
   <g id="matplotlib.axis_3">
    <g id="xtick_9">
     <g id="line2d_16">
      <g>
       <use xlink:href="#m30151a0b9c" x="882.877449" y="1281.6" style="stroke: #000000; stroke-width: 0.8"/>
      </g>
     </g>
     <g id="text_15">
      <!-- 0 -->
      <g transform="translate(879.696199 1296.198437) scale(0.1 -0.1)">
       <use xlink:href="#DejaVuSans-30"/>
      </g>
     </g>
    </g>
    <g id="xtick_10">
     <g id="line2d_17">
      <g>
       <use xlink:href="#m30151a0b9c" x="948.029353" y="1281.6" style="stroke: #000000; stroke-width: 0.8"/>
      </g>
     </g>
     <g id="text_16">
      <!-- 200 -->
      <g transform="translate(938.485603 1296.198437) scale(0.1 -0.1)">
       <use xlink:href="#DejaVuSans-32"/>
       <use xlink:href="#DejaVuSans-30" x="63.623047"/>
       <use xlink:href="#DejaVuSans-30" x="127.246094"/>
      </g>
     </g>
    </g>
    <g id="xtick_11">
     <g id="line2d_18">
      <g>
       <use xlink:href="#m30151a0b9c" x="1013.181258" y="1281.6" style="stroke: #000000; stroke-width: 0.8"/>
      </g>
     </g>
     <g id="text_17">
      <!-- 400 -->
      <g transform="translate(1003.637508 1296.198437) scale(0.1 -0.1)">
       <use xlink:href="#DejaVuSans-34"/>
       <use xlink:href="#DejaVuSans-30" x="63.623047"/>
       <use xlink:href="#DejaVuSans-30" x="127.246094"/>
      </g>
     </g>
    </g>
    <g id="xtick_12">
     <g id="line2d_19">
      <g>
       <use xlink:href="#m30151a0b9c" x="1078.333162" y="1281.6" style="stroke: #000000; stroke-width: 0.8"/>
      </g>
     </g>
     <g id="text_18">
      <!-- 600 -->
      <g transform="translate(1068.789412 1296.198437) scale(0.1 -0.1)">
       <use xlink:href="#DejaVuSans-36"/>
       <use xlink:href="#DejaVuSans-30" x="63.623047"/>
       <use xlink:href="#DejaVuSans-30" x="127.246094"/>
      </g>
     </g>
    </g>
    <g id="xtick_13">
     <g id="line2d_20">
      <g>
       <use xlink:href="#m30151a0b9c" x="1143.485066" y="1281.6" style="stroke: #000000; stroke-width: 0.8"/>
      </g>
     </g>
     <g id="text_19">
      <!-- 800 -->
      <g transform="translate(1133.941316 1296.198437) scale(0.1 -0.1)">
       <use xlink:href="#DejaVuSans-38"/>
       <use xlink:href="#DejaVuSans-30" x="63.623047"/>
       <use xlink:href="#DejaVuSans-30" x="127.246094"/>
      </g>
     </g>
    </g>
    <g id="xtick_14">
     <g id="line2d_21">
      <g>
       <use xlink:href="#m30151a0b9c" x="1208.636971" y="1281.6" style="stroke: #000000; stroke-width: 0.8"/>
      </g>
     </g>
     <g id="text_20">
      <!-- 1000 -->
      <g transform="translate(1195.911971 1296.198437) scale(0.1 -0.1)">
       <use xlink:href="#DejaVuSans-31"/>
       <use xlink:href="#DejaVuSans-30" x="63.623047"/>
       <use xlink:href="#DejaVuSans-30" x="127.246094"/>
       <use xlink:href="#DejaVuSans-30" x="190.869141"/>
      </g>
     </g>
    </g>
    <g id="xtick_15">
     <g id="line2d_22">
      <g>
       <use xlink:href="#m30151a0b9c" x="1273.788875" y="1281.6" style="stroke: #000000; stroke-width: 0.8"/>
      </g>
     </g>
     <g id="text_21">
      <!-- 1200 -->
      <g transform="translate(1261.063875 1296.198437) scale(0.1 -0.1)">
       <use xlink:href="#DejaVuSans-31"/>
       <use xlink:href="#DejaVuSans-32" x="63.623047"/>
       <use xlink:href="#DejaVuSans-30" x="127.246094"/>
       <use xlink:href="#DejaVuSans-30" x="190.869141"/>
      </g>
     </g>
    </g>
    <g id="xtick_16">
     <g id="line2d_23">
      <g>
       <use xlink:href="#m30151a0b9c" x="1338.940779" y="1281.6" style="stroke: #000000; stroke-width: 0.8"/>
      </g>
     </g>
     <g id="text_22">
      <!-- 1400 -->
      <g transform="translate(1326.215779 1296.198437) scale(0.1 -0.1)">
       <use xlink:href="#DejaVuSans-31"/>
       <use xlink:href="#DejaVuSans-34" x="63.623047"/>
       <use xlink:href="#DejaVuSans-30" x="127.246094"/>
       <use xlink:href="#DejaVuSans-30" x="190.869141"/>
      </g>
     </g>
    </g>
   </g>
   <g id="matplotlib.axis_4">
    <g id="ytick_6">
     <g id="line2d_24">
      <g>
       <use xlink:href="#mff44fa9039" x="860.823529" y="1231.2" style="stroke: #000000; stroke-width: 0.8"/>
      </g>
     </g>
     <g id="text_23">
      <!-- 0 -->
      <g transform="translate(847.461029 1234.999219) scale(0.1 -0.1)">
       <use xlink:href="#DejaVuSans-30"/>
      </g>
     </g>
    </g>
    <g id="ytick_7">
     <g id="line2d_25">
      <g>
       <use xlink:href="#mff44fa9039" x="860.823529" y="1030.296711" style="stroke: #000000; stroke-width: 0.8"/>
      </g>
     </g>
     <g id="text_24">
      <!-- 20 -->
      <g transform="translate(841.098529 1034.09593) scale(0.1 -0.1)">
       <use xlink:href="#DejaVuSans-32"/>
       <use xlink:href="#DejaVuSans-30" x="63.623047"/>
      </g>
     </g>
    </g>
    <g id="ytick_8">
     <g id="line2d_26">
      <g>
       <use xlink:href="#mff44fa9039" x="860.823529" y="829.393422" style="stroke: #000000; stroke-width: 0.8"/>
      </g>
     </g>
     <g id="text_25">
      <!-- 40 -->
      <g transform="translate(841.098529 833.192641) scale(0.1 -0.1)">
       <use xlink:href="#DejaVuSans-34"/>
       <use xlink:href="#DejaVuSans-30" x="63.623047"/>
      </g>
     </g>
    </g>
    <g id="ytick_9">
     <g id="line2d_27">
      <g>
       <use xlink:href="#mff44fa9039" x="860.823529" y="628.490133" style="stroke: #000000; stroke-width: 0.8"/>
      </g>
     </g>
     <g id="text_26">
      <!-- 60 -->
      <g transform="translate(841.098529 632.289352) scale(0.1 -0.1)">
       <use xlink:href="#DejaVuSans-36"/>
       <use xlink:href="#DejaVuSans-30" x="63.623047"/>
      </g>
     </g>
    </g>
    <g id="ytick_10">
     <g id="line2d_28">
      <g>
       <use xlink:href="#mff44fa9039" x="860.823529" y="427.586844" style="stroke: #000000; stroke-width: 0.8"/>
      </g>
     </g>
     <g id="text_27">
      <!-- 80 -->
      <g transform="translate(841.098529 431.386063) scale(0.1 -0.1)">
       <use xlink:href="#DejaVuSans-38"/>
       <use xlink:href="#DejaVuSans-30" x="63.623047"/>
      </g>
     </g>
    </g>
    <g id="ytick_11">
     <g id="line2d_29">
      <g>
       <use xlink:href="#mff44fa9039" x="860.823529" y="226.683555" style="stroke: #000000; stroke-width: 0.8"/>
      </g>
     </g>
     <g id="text_28">
      <!-- 100 -->
      <g transform="translate(834.736029 230.482774) scale(0.1 -0.1)">
       <use xlink:href="#DejaVuSans-31"/>
       <use xlink:href="#DejaVuSans-30" x="63.623047"/>
       <use xlink:href="#DejaVuSans-30" x="127.246094"/>
      </g>
     </g>
    </g>
   </g>
   <g id="line2d_30">
    <path d="M 883.203209 1231.2 
L 898.188147 1231.125734 
L 898.513906 1227.078743 
L 899.491185 1227.078743 
L 899.816944 1228.664861 
L 900.794223 1228.664861 
L 901.119982 1227.721597 
L 902.097261 1227.721597 
L 902.42302 1229.581121 
L 903.400299 1229.581121 
L 903.726058 1221.226684 
L 904.703337 1221.226684 
L 905.029097 1208.562587 
L 906.006375 1208.562587 
L 906.332135 1202.262466 
L 907.309413 1202.262466 
L 907.635173 1185.667385 
L 908.612451 1185.667385 
L 908.938211 1170.373029 
L 915.127642 1170.373029 
L 915.453401 1163.735036 
L 919.036756 1163.735036 
L 919.362515 1156.655497 
L 922.94587 1156.655497 
L 923.27163 1147.009747 
L 924.248908 1147.009747 
L 924.574668 1144.301299 
L 925.551946 1144.301299 
L 925.877706 1141.320973 
L 928.158023 1141.320973 
L 928.483782 1123.026859 
L 929.461061 1123.026859 
L 929.78682 1094.257836 
L 930.764099 1094.257836 
L 931.089858 1086.594042 
L 932.067137 1086.594042 
L 932.392896 1071.836155 
L 933.370175 1071.836155 
L 933.695934 1036.111158 
L 934.673213 1036.111158 
L 934.998973 1011.246504 
L 949.006632 1011.246504 
L 949.332391 1003.914945 
L 952.915746 1003.914945 
L 953.241506 996.691131 
L 954.218784 996.691131 
L 954.544544 989.39179 
L 955.521822 989.39179 
L 955.847582 982.018857 
L 958.127899 982.018857 
L 958.453658 979.41656 
L 963.340051 979.41656 
L 963.66581 976.744328 
L 964.643089 976.744328 
L 964.968849 959.005457 
L 965.946127 959.005457 
L 966.271887 945.458589 
L 967.249165 945.458589 
L 967.574925 915.435972 
L 968.552203 915.435972 
L 968.877963 889.02433 
L 969.855241 889.02433 
L 970.181001 868.206878 
L 971.158279 868.206878 
L 971.484039 842.607412 
L 972.461318 842.607412 
L 972.787077 811.515627 
L 973.764356 811.515627 
L 974.090115 797.610553 
L 975.067394 797.610553 
L 975.393153 778.352874 
L 978.976508 778.352874 
L 979.302267 774.005274 
L 980.279546 774.005274 
L 980.605306 765.015382 
L 981.582584 765.015382 
L 981.908344 771.219448 
L 982.885622 771.219448 
L 983.211382 774.17032 
L 984.18866 774.17032 
L 984.51442 780.300225 
L 985.491698 780.300225 
L 985.817458 783.464337 
L 986.794736 783.464337 
L 987.120496 786.339515 
L 988.097775 786.339515 
L 988.423534 777.48176 
L 990.703851 777.48176 
L 991.02961 771.458296 
L 992.006889 771.458296 
L 992.332648 768.683229 
L 993.309927 768.683229 
L 993.635686 759.981099 
L 994.612965 759.981099 
L 994.938725 742.815268 
L 995.916003 742.815268 
L 996.241763 734.596373 
L 997.219041 734.596373 
L 997.544801 727.451131 
L 998.522079 727.451131 
L 998.847839 722.825372 
L 999.825117 722.825372 
L 1000.150877 715.227607 
L 1001.128155 715.227607 
L 1001.453915 722.750336 
L 1002.431194 722.750336 
L 1002.756953 739.603018 
L 1003.734232 739.603018 
L 1004.059991 734.320658 
L 1005.03727 734.320658 
L 1005.363029 719.827762 
L 1006.340308 719.827762 
L 1006.666067 707.531002 
L 1007.643346 707.531002 
L 1007.969105 709.306741 
L 1008.946384 709.306741 
L 1009.272143 697.628273 
L 1010.249422 697.628273 
L 1010.575182 687.592634 
L 1011.55246 687.592634 
L 1011.87822 685.96598 
L 1014.158536 685.906504 
L 1014.484296 687.485659 
L 1015.461574 687.485659 
L 1015.787334 684.395552 
L 1016.764612 684.395552 
L 1017.090372 674.749491 
L 1018.067651 674.749491 
L 1018.39341 676.19799 
L 1019.370689 676.19799 
L 1019.696448 672.916265 
L 1020.673727 672.916265 
L 1020.999486 663.517582 
L 1021.976765 663.517582 
L 1022.302524 657.480215 
L 1023.279803 657.480215 
L 1023.605562 651.491461 
L 1024.582841 651.491461 
L 1024.908601 648.23054 
L 1025.885879 648.23054 
L 1026.211639 646.294493 
L 1028.491955 646.294493 
L 1028.817715 658.003887 
L 1029.794993 658.003887 
L 1030.120753 663.771301 
L 1031.098031 663.771301 
L 1031.423791 661.719392 
L 1032.40107 661.719392 
L 1032.726829 666.122545 
L 1033.704108 666.122545 
L 1034.029867 667.213371 
L 1035.007146 667.213371 
L 1035.332905 679.150241 
L 1036.310184 679.150241 
L 1036.635943 681.429304 
L 1037.613222 681.429304 
L 1037.938981 690.967052 
L 1038.91626 690.967052 
L 1039.242019 690.501831 
L 1040.219298 690.501831 
L 1040.545058 681.21046 
L 1041.522336 681.21046 
L 1041.848096 675.264057 
L 1042.825374 675.264057 
L 1043.151134 674.384935 
L 1044.128412 674.384935 
L 1044.454172 669.399302 
L 1045.43145 669.399302 
L 1045.75721 661.177831 
L 1046.734488 661.177831 
L 1047.060248 664.47088 
L 1048.037527 664.47088 
L 1048.363286 667.758458 
L 1049.340565 667.758458 
L 1049.666324 666.975552 
L 1050.643603 666.975552 
L 1050.969362 663.676976 
L 1051.946641 663.676976 
L 1052.2724 654.827576 
L 1053.249679 654.827576 
L 1053.575438 649.336717 
L 1055.855755 649.336717 
L 1056.181515 644.635721 
L 1057.158793 644.635721 
L 1057.484553 649.958039 
L 1058.461831 649.958039 
L 1058.787591 659.102685 
L 1059.764869 659.102685 
L 1060.090629 661.808355 
L 1061.067907 661.808355 
L 1061.393667 661.260876 
L 1062.370946 661.260876 
L 1062.696705 660.197098 
L 1063.673984 660.197098 
L 1063.999743 662.502836 
L 1064.977022 662.502836 
L 1065.302781 654.061434 
L 1066.28006 654.061434 
L 1066.605819 633.336979 
L 1067.583098 633.336979 
L 1067.908857 621.120323 
L 1068.886136 621.120323 
L 1069.211895 605.054252 
L 1070.189174 605.054252 
L 1070.514934 588.884125 
L 1071.492212 588.884125 
L 1071.817972 573.568054 
L 1072.79525 573.568054 
L 1073.12101 565.569515 
L 1074.098288 565.569515 
L 1074.424048 554.371569 
L 1075.401326 554.371569 
L 1075.727086 539.281191 
L 1076.704364 539.281191 
L 1077.030124 531.827959 
L 1078.007403 531.827959 
L 1078.333162 520.767221 
L 1079.310441 520.767221 
L 1079.6362 524.598678 
L 1080.613479 524.598678 
L 1080.939238 517.999856 
L 1081.916517 517.999856 
L 1082.242276 528.661742 
L 1083.219555 528.661742 
L 1083.545314 528.962354 
L 1084.522593 528.962354 
L 1084.848353 529.211211 
L 1085.825631 529.211211 
L 1086.151391 526.027909 
L 1088.431707 526.138392 
L 1088.757467 526.340121 
L 1089.734745 526.340121 
L 1090.060505 536.71023 
L 1091.037783 536.71023 
L 1091.363543 543.454764 
L 1092.340822 543.454764 
L 1092.666581 546.754243 
L 1093.64386 546.754243 
L 1093.969619 543.449339 
L 1094.946898 543.449339 
L 1095.272657 540.011203 
L 1096.249936 540.011203 
L 1096.575695 533.282038 
L 1097.552974 533.282038 
L 1097.878733 526.629722 
L 1100.15905 526.616373 
L 1100.48481 529.964183 
L 1101.462088 529.964183 
L 1101.787848 526.729013 
L 1102.765126 526.729013 
L 1103.090886 523.512971 
L 1104.068164 523.512971 
L 1104.719683 523.629746 
L 1105.371202 523.629746 
L 1105.696962 536.719439 
L 1106.67424 536.719439 
L 1107 540.083312 
L 1107.977279 540.083312 
L 1108.303038 531.0606 
L 1109.280317 531.0606 
L 1109.606076 534.475565 
L 1110.583355 534.475565 
L 1110.909114 538.15832 
L 1111.886393 538.15832 
L 1112.212152 535.000853 
L 1113.189431 535.000853 
L 1113.51519 535.293814 
L 1114.492469 535.293814 
L 1114.818229 539.425814 
L 1115.795507 539.425814 
L 1116.121267 540.553478 
L 1118.401583 540.55563 
L 1118.727343 531.289924 
L 1119.704621 531.289924 
L 1120.030381 525.136441 
L 1121.007659 525.136441 
L 1121.333419 522.062761 
L 1122.310698 522.062761 
L 1122.636457 515.925798 
L 1123.613736 515.925798 
L 1123.939495 512.8625 
L 1124.916774 512.8625 
L 1125.242533 509.80119 
L 1126.219812 509.80119 
L 1126.545571 503.684417 
L 1127.52285 503.684417 
L 1127.848609 497.575245 
L 1128.825888 497.575245 
L 1129.151647 491.473463 
L 1130.128926 491.473463 
L 1130.454686 488.425305 
L 1131.431964 488.425305 
L 1131.757724 479.308288 
L 1132.735002 479.308288 
L 1133.060762 473.249927 
L 1134.03804 473.249927 
L 1134.3638 470.223349 
L 1136.644116 470.223349 
L 1136.969876 467.198486 
L 1137.947155 467.198486 
L 1138.272914 458.143921 
L 1139.250193 458.143921 
L 1139.575952 449.122353 
L 1140.553231 449.122353 
L 1140.87899 440.137312 
L 1141.856269 440.137312 
L 1142.182028 434.165891 
L 1143.159307 434.165891 
L 1143.485066 425.238306 
L 1144.462345 425.238306 
L 1144.788105 435.544559 
L 1145.765383 435.544559 
L 1146.091143 443.626335 
L 1147.068421 443.626335 
L 1147.394181 445.888183 
L 1148.371459 445.888183 
L 1148.697219 448.221274 
L 1149.674497 448.221274 
L 1150.000257 455.628465 
L 1152.280574 455.645778 
L 1152.606333 453.344568 
L 1153.583612 453.344568 
L 1153.909371 457.077496 
L 1154.88665 457.077496 
L 1155.212409 454.099396 
L 1156.189688 454.099396 
L 1156.515447 455.983302 
L 1157.492726 455.983302 
L 1157.818485 444.687424 
L 1158.795764 444.687424 
L 1159.121523 433.435548 
L 1160.098802 433.435548 
L 1160.424562 422.224104 
L 1161.40184 422.224104 
L 1161.7276 413.853794 
L 1162.704878 413.853794 
L 1163.030638 405.515666 
L 1164.007916 405.515666 
L 1164.333676 399.970337 
L 1165.310954 399.970337 
L 1165.636714 391.674391 
L 1166.613992 391.674391 
L 1166.939752 388.91512 
L 1167.917031 388.91512 
L 1168.24279 383.406786 
L 1169.220069 383.406786 
L 1169.545828 377.911996 
L 1170.523107 377.911996 
L 1170.848866 379.034504 
L 1171.826145 379.034504 
L 1172.151904 388.387909 
L 1174.432221 388.384754 
L 1174.757981 386.812166 
L 1177.038297 386.812166 
L 1177.364057 382.519274 
L 1180.947411 382.519274 
L 1181.273171 385.243984 
L 1184.856526 385.243984 
L 1185.182285 382.52233 
L 1187.462602 382.52233 
L 1187.788361 383.708531 
L 1188.76564 383.708531 
L 1189.091399 387.620443 
L 1190.068678 387.620443 
L 1190.394438 386.132362 
L 1191.371716 386.132362 
L 1191.697476 392.761123 
L 1192.674754 392.761123 
L 1193.000514 399.176691 
L 1193.977792 399.176691 
L 1194.303552 403.120978 
L 1195.28083 403.120978 
L 1195.60659 407.065301 
L 1196.583868 407.065301 
L 1196.909628 404.382846 
L 1197.886907 404.382846 
L 1198.212666 399.023147 
L 1199.189945 399.023147 
L 1199.515704 393.674753 
L 1200.492983 393.674753 
L 1200.818742 385.666737 
L 1201.796021 385.666737 
L 1202.12178 383.001928 
L 1203.099059 383.001928 
L 1203.424818 380.339894 
L 1204.402097 380.339894 
L 1204.727857 377.680533 
L 1205.705135 377.680533 
L 1206.030895 375.023813 
L 1208.311211 375.023813 
L 1208.636971 369.716771 
L 1209.614249 369.716771 
L 1209.940009 367.066433 
L 1210.917287 367.066433 
L 1211.243047 369.715609 
L 1212.220326 369.715609 
L 1212.546085 371.068057 
L 1213.523364 371.068057 
L 1213.849123 369.782811 
L 1214.826402 369.782811 
L 1215.152161 367.142609 
L 1216.12944 367.142609 
L 1216.455199 369.781676 
L 1217.432478 369.781676 
L 1217.758237 367.145131 
L 1218.735516 367.145131 
L 1219.061275 364.511254 
L 1220.038554 364.511254 
L 1220.364314 356.624761 
L 1221.341592 356.624761 
L 1221.667352 358.02463 
L 1222.64463 358.02463 
L 1222.97039 350.17005 
L 1223.947668 350.17005 
L 1224.273428 339.727093 
L 1225.250706 339.727093 
L 1225.576466 337.122302 
L 1226.553744 337.122302 
L 1226.879504 331.920042 
L 1227.856783 331.920042 
L 1228.182542 324.127769 
L 1229.159821 324.127769 
L 1229.48558 318.943799 
L 1230.462859 318.943799 
L 1230.788618 313.766437 
L 1231.765897 313.766437 
L 1232.091656 303.438117 
L 1233.068935 303.438117 
L 1233.394694 295.713502 
L 1234.371973 295.713502 
L 1234.697733 290.571029 
L 1235.675011 290.571029 
L 1236.000771 286.942763 
L 1236.978049 286.942763 
L 1237.303809 285.891259 
L 1238.281087 285.891259 
L 1238.606847 289.973722 
L 1239.584125 289.973722 
L 1239.909885 287.91159 
L 1240.887163 287.91159 
L 1241.212923 284.335566 
L 1242.190202 284.335566 
L 1242.515961 288.426655 
L 1244.796278 288.426655 
L 1245.122037 287.424094 
L 1246.099316 287.424094 
L 1246.425075 286.426921 
L 1247.402354 286.426921 
L 1247.728113 283.879913 
L 1248.705392 283.879913 
L 1249.031151 281.334895 
L 1252.614506 281.334895 
L 1252.940266 283.877747 
L 1253.917544 283.877747 
L 1254.243304 282.904898 
L 1255.220582 282.904898 
L 1255.546342 281.938272 
L 1256.52362 281.938272 
L 1256.84938 279.401269 
L 1257.826659 279.401269 
L 1258.152418 276.866196 
L 1260.432735 276.866196 
L 1260.758494 279.399148 
L 1261.735773 279.399148 
L 1262.061532 274.337367 
L 1263.038811 274.337367 
L 1263.36457 271.808532 
L 1264.341849 271.808532 
L 1264.667609 266.753849 
L 1266.947925 266.753849 
L 1267.273685 264.229066 
L 1268.250963 264.229066 
L 1268.576723 259.184266 
L 1269.554001 259.184266 
L 1269.879761 256.664239 
L 1270.857039 256.664239 
L 1271.182799 254.146234 
L 1272.160078 254.146234 
L 1272.485837 251.630093 
L 1273.463116 251.630093 
L 1273.788875 246.603501 
L 1274.766154 246.603501 
L 1275.091913 248.225435 
L 1276.069192 248.225435 
L 1276.394951 248.983658 
L 1277.37223 248.983658 
L 1277.697989 248.114127 
L 1278.675268 248.114127 
L 1279.001027 245.611092 
L 1279.978306 245.611092 
L 1280.304066 252.254137 
L 1281.281344 252.254137 
L 1281.607104 254.751412 
L 1282.584382 254.751412 
L 1282.910142 256.41044 
L 1283.88742 256.41044 
L 1284.21318 254.748021 
L 1285.190458 254.748021 
L 1285.516218 261.395307 
L 1286.493496 261.395307 
L 1286.819256 260.574383 
L 1289.099573 260.574383 
L 1289.425332 257.274793 
L 1294.311725 257.274793 
L 1294.637485 259.758669 
L 1296.917801 259.758669 
L 1297.243561 257.276487 
L 1298.220839 257.276487 
L 1298.546599 254.795982 
L 1299.523877 254.795982 
L 1299.849637 254.006119 
L 1300.826915 254.006119 
L 1301.152675 250.747906 
L 1302.129954 250.747906 
L 1302.455713 249.97673 
L 1303.432992 249.97673 
L 1303.758751 252.447531 
L 1304.73603 252.447531 
L 1305.061789 249.978362 
L 1306.039068 249.978362 
L 1306.364827 251.688472 
L 1307.342106 251.688472 
L 1307.667865 246.007568 
L 1308.645144 246.007568 
L 1308.970903 243.544136 
L 1309.948182 243.544136 
L 1310.273942 241.082284 
L 1311.25122 241.082284 
L 1311.57698 238.621324 
L 1312.554258 238.621324 
L 1312.880018 236.161937 
L 1313.857296 236.161937 
L 1314.183056 233.704322 
L 1316.463372 233.704322 
L 1316.789132 237.894936 
L 1317.766411 237.894936 
L 1318.09217 232.986154 
L 1320.372487 232.986154 
L 1320.698246 235.438896 
L 1321.675525 235.438896 
L 1322.001284 230.538404 
L 1322.978563 230.538404 
L 1323.304322 228.090634 
L 1324.281601 228.090634 
L 1324.607361 225.644558 
L 1325.584639 225.644558 
L 1325.910399 223.2 
L 1326.887677 223.2 
L 1327.213437 224.964643 
L 1328.190715 224.964643 
L 1328.516475 226.730608 
L 1329.493753 226.730608 
L 1329.819513 224.2901 
L 1330.796791 224.2901 
L 1330.796791 224.2901 
" clip-path="url(#pd802f54d7d)" style="fill: none; stroke: #0000ff; stroke-width: 1.5; stroke-linecap: square"/>
   </g>
   <g id="patch_9">
    <path d="M 860.823529 1281.6 
L 860.823529 172.8 
" style="fill: none; stroke: #000000; stroke-width: 0.8; stroke-linejoin: miter; stroke-linecap: square"/>
   </g>
   <g id="patch_10">
    <path d="M 1353.176471 1281.6 
L 1353.176471 172.8 
" style="fill: none; stroke: #000000; stroke-width: 0.8; stroke-linejoin: miter; stroke-linecap: square"/>
   </g>
   <g id="patch_11">
    <path d="M 860.823529 1281.6 
L 1353.176471 1281.6 
" style="fill: none; stroke: #000000; stroke-width: 0.8; stroke-linejoin: miter; stroke-linecap: square"/>
   </g>
   <g id="patch_12">
    <path d="M 860.823529 172.8 
L 1353.176471 172.8 
" style="fill: none; stroke: #000000; stroke-width: 0.8; stroke-linejoin: miter; stroke-linecap: square"/>
   </g>
   <g id="legend_2">
    <g id="patch_13">
     <path d="M 1262.134283 195.478125 
L 1346.176471 195.478125 
Q 1348.176471 195.478125 1348.176471 193.478125 
L 1348.176471 179.8 
Q 1348.176471 177.8 1346.176471 177.8 
L 1262.134283 177.8 
Q 1260.134283 177.8 1260.134283 179.8 
L 1260.134283 193.478125 
Q 1260.134283 195.478125 1262.134283 195.478125 
z
" style="fill: #ffffff; opacity: 0.8; stroke: #cccccc; stroke-linejoin: miter"/>
    </g>
    <g id="line2d_31">
     <path d="M 1264.134283 185.898437 
L 1274.134283 185.898437 
L 1284.134283 185.898437 
" style="fill: none; stroke: #0000ff; stroke-width: 1.5; stroke-linecap: square"/>
    </g>
    <g id="text_29">
     <!-- O2 reward -->
     <g transform="translate(1292.134283 189.398437) scale(0.1 -0.1)">
      <use xlink:href="#DejaVuSans-4f"/>
      <use xlink:href="#DejaVuSans-32" x="78.710938"/>
      <use xlink:href="#DejaVuSans-20" x="142.333984"/>
      <use xlink:href="#DejaVuSans-72" x="174.121094"/>
      <use xlink:href="#DejaVuSans-65" x="212.984375"/>
      <use xlink:href="#DejaVuSans-77" x="274.507812"/>
      <use xlink:href="#DejaVuSans-61" x="356.294922"/>
      <use xlink:href="#DejaVuSans-72" x="417.574219"/>
      <use xlink:href="#DejaVuSans-64" x="456.9375"/>
     </g>
    </g>
   </g>
  </g>
  <g id="axes_3">
   <g id="patch_14">
    <path d="M 1451.647059 1281.6 
L 1944 1281.6 
L 1944 172.8 
L 1451.647059 172.8 
z
" style="fill: #ffffff"/>
   </g>
   <g id="matplotlib.axis_5">
    <g id="xtick_17">
     <g id="line2d_32">
      <g>
       <use xlink:href="#m30151a0b9c" x="1473.700978" y="1281.6" style="stroke: #000000; stroke-width: 0.8"/>
      </g>
     </g>
     <g id="text_30">
      <!-- 0 -->
      <g transform="translate(1470.519728 1296.198437) scale(0.1 -0.1)">
       <use xlink:href="#DejaVuSans-30"/>
      </g>
     </g>
    </g>
    <g id="xtick_18">
     <g id="line2d_33">
      <g>
       <use xlink:href="#m30151a0b9c" x="1538.852883" y="1281.6" style="stroke: #000000; stroke-width: 0.8"/>
      </g>
     </g>
     <g id="text_31">
      <!-- 200 -->
      <g transform="translate(1529.309133 1296.198437) scale(0.1 -0.1)">
       <use xlink:href="#DejaVuSans-32"/>
       <use xlink:href="#DejaVuSans-30" x="63.623047"/>
       <use xlink:href="#DejaVuSans-30" x="127.246094"/>
      </g>
     </g>
    </g>
    <g id="xtick_19">
     <g id="line2d_34">
      <g>
       <use xlink:href="#m30151a0b9c" x="1604.004787" y="1281.6" style="stroke: #000000; stroke-width: 0.8"/>
      </g>
     </g>
     <g id="text_32">
      <!-- 400 -->
      <g transform="translate(1594.461037 1296.198437) scale(0.1 -0.1)">
       <use xlink:href="#DejaVuSans-34"/>
       <use xlink:href="#DejaVuSans-30" x="63.623047"/>
       <use xlink:href="#DejaVuSans-30" x="127.246094"/>
      </g>
     </g>
    </g>
    <g id="xtick_20">
     <g id="line2d_35">
      <g>
       <use xlink:href="#m30151a0b9c" x="1669.156691" y="1281.6" style="stroke: #000000; stroke-width: 0.8"/>
      </g>
     </g>
     <g id="text_33">
      <!-- 600 -->
      <g transform="translate(1659.612941 1296.198437) scale(0.1 -0.1)">
       <use xlink:href="#DejaVuSans-36"/>
       <use xlink:href="#DejaVuSans-30" x="63.623047"/>
       <use xlink:href="#DejaVuSans-30" x="127.246094"/>
      </g>
     </g>
    </g>
    <g id="xtick_21">
     <g id="line2d_36">
      <g>
       <use xlink:href="#m30151a0b9c" x="1734.308596" y="1281.6" style="stroke: #000000; stroke-width: 0.8"/>
      </g>
     </g>
     <g id="text_34">
      <!-- 800 -->
      <g transform="translate(1724.764846 1296.198437) scale(0.1 -0.1)">
       <use xlink:href="#DejaVuSans-38"/>
       <use xlink:href="#DejaVuSans-30" x="63.623047"/>
       <use xlink:href="#DejaVuSans-30" x="127.246094"/>
      </g>
     </g>
    </g>
    <g id="xtick_22">
     <g id="line2d_37">
      <g>
       <use xlink:href="#m30151a0b9c" x="1799.4605" y="1281.6" style="stroke: #000000; stroke-width: 0.8"/>
      </g>
     </g>
     <g id="text_35">
      <!-- 1000 -->
      <g transform="translate(1786.7355 1296.198437) scale(0.1 -0.1)">
       <use xlink:href="#DejaVuSans-31"/>
       <use xlink:href="#DejaVuSans-30" x="63.623047"/>
       <use xlink:href="#DejaVuSans-30" x="127.246094"/>
       <use xlink:href="#DejaVuSans-30" x="190.869141"/>
      </g>
     </g>
    </g>
    <g id="xtick_23">
     <g id="line2d_38">
      <g>
       <use xlink:href="#m30151a0b9c" x="1864.612405" y="1281.6" style="stroke: #000000; stroke-width: 0.8"/>
      </g>
     </g>
     <g id="text_36">
      <!-- 1200 -->
      <g transform="translate(1851.887405 1296.198437) scale(0.1 -0.1)">
       <use xlink:href="#DejaVuSans-31"/>
       <use xlink:href="#DejaVuSans-32" x="63.623047"/>
       <use xlink:href="#DejaVuSans-30" x="127.246094"/>
       <use xlink:href="#DejaVuSans-30" x="190.869141"/>
      </g>
     </g>
    </g>
    <g id="xtick_24">
     <g id="line2d_39">
      <g>
       <use xlink:href="#m30151a0b9c" x="1929.764309" y="1281.6" style="stroke: #000000; stroke-width: 0.8"/>
      </g>
     </g>
     <g id="text_37">
      <!-- 1400 -->
      <g transform="translate(1917.039309 1296.198437) scale(0.1 -0.1)">
       <use xlink:href="#DejaVuSans-31"/>
       <use xlink:href="#DejaVuSans-34" x="63.623047"/>
       <use xlink:href="#DejaVuSans-30" x="127.246094"/>
       <use xlink:href="#DejaVuSans-30" x="190.869141"/>
      </g>
     </g>
    </g>
   </g>
   <g id="matplotlib.axis_6">
    <g id="ytick_12">
     <g id="line2d_40">
      <g>
       <use xlink:href="#mff44fa9039" x="1451.647059" y="1231.2" style="stroke: #000000; stroke-width: 0.8"/>
      </g>
     </g>
     <g id="text_38">
      <!-- 0 -->
      <g transform="translate(1438.284559 1234.999219) scale(0.1 -0.1)">
       <use xlink:href="#DejaVuSans-30"/>
      </g>
     </g>
    </g>
    <g id="ytick_13">
     <g id="line2d_41">
      <g>
       <use xlink:href="#mff44fa9039" x="1451.647059" y="986.132254" style="stroke: #000000; stroke-width: 0.8"/>
      </g>
     </g>
     <g id="text_39">
      <!-- 5 -->
      <g transform="translate(1438.284559 989.931473) scale(0.1 -0.1)">
       <use xlink:href="#DejaVuSans-35"/>
      </g>
     </g>
    </g>
    <g id="ytick_14">
     <g id="line2d_42">
      <g>
       <use xlink:href="#mff44fa9039" x="1451.647059" y="741.064508" style="stroke: #000000; stroke-width: 0.8"/>
      </g>
     </g>
     <g id="text_40">
      <!-- 10 -->
      <g transform="translate(1431.922059 744.863727) scale(0.1 -0.1)">
       <use xlink:href="#DejaVuSans-31"/>
       <use xlink:href="#DejaVuSans-30" x="63.623047"/>
      </g>
     </g>
    </g>
    <g id="ytick_15">
     <g id="line2d_43">
      <g>
       <use xlink:href="#mff44fa9039" x="1451.647059" y="495.996762" style="stroke: #000000; stroke-width: 0.8"/>
      </g>
     </g>
     <g id="text_41">
      <!-- 15 -->
      <g transform="translate(1431.922059 499.795981) scale(0.1 -0.1)">
       <use xlink:href="#DejaVuSans-31"/>
       <use xlink:href="#DejaVuSans-35" x="63.623047"/>
      </g>
     </g>
    </g>
    <g id="ytick_16">
     <g id="line2d_44">
      <g>
       <use xlink:href="#mff44fa9039" x="1451.647059" y="250.929016" style="stroke: #000000; stroke-width: 0.8"/>
      </g>
     </g>
     <g id="text_42">
      <!-- 20 -->
      <g transform="translate(1431.922059 254.728234) scale(0.1 -0.1)">
       <use xlink:href="#DejaVuSans-32"/>
       <use xlink:href="#DejaVuSans-30" x="63.623047"/>
      </g>
     </g>
    </g>
   </g>
   <g id="line2d_45">
    <path d="M 1474.026738 1231.2 
L 1487.708638 1231.2 
L 1488.034397 1212.084579 
L 1489.011676 1212.084579 
L 1489.337435 1196.809986 
L 1490.314714 1196.809986 
L 1490.640474 1183.817506 
L 1491.617752 1183.817506 
L 1491.943512 1164.562183 
L 1492.92079 1164.562183 
L 1493.24655 1158.087161 
L 1494.223828 1158.087161 
L 1494.549588 1132.879014 
L 1495.526866 1132.879014 
L 1495.852626 1140.202991 
L 1496.829904 1140.202991 
L 1497.155664 1125.857039 
L 1498.132943 1125.857039 
L 1498.458702 1111.712168 
L 1499.435981 1111.712168 
L 1499.76174 1102.117014 
L 1500.739019 1102.117014 
L 1501.064778 1085.866318 
L 1502.042057 1085.866318 
L 1502.367816 1070.611962 
L 1503.345095 1070.611962 
L 1503.670854 1061.159232 
L 1505.951171 1061.159232 
L 1506.276931 1056.998225 
L 1507.254209 1056.998225 
L 1507.579969 1047.886731 
L 1508.557247 1047.886731 
L 1508.883007 1042.812475 
L 1511.163323 1042.812475 
L 1511.489083 1039.024478 
L 1512.466362 1039.024478 
L 1512.792121 1030.725887 
L 1515.072438 1030.725887 
L 1515.398197 1027.249582 
L 1516.375476 1027.249582 
L 1516.701235 1012.59467 
L 1517.678514 1012.59467 
L 1518.004273 992.030988 
L 1518.981552 992.030988 
L 1519.307311 977.624832 
L 1520.28459 977.624832 
L 1520.61035 968.03871 
L 1521.587628 968.03871 
L 1521.913388 941.298383 
L 1522.890666 941.298383 
L 1523.216426 927.994475 
L 1524.193704 927.994475 
L 1524.519464 923.817995 
L 1525.496742 923.817995 
L 1525.822502 910.792285 
L 1526.79978 910.792285 
L 1527.12554 902.117101 
L 1528.102819 902.117101 
L 1528.428578 894.71437 
L 1529.405857 894.71437 
L 1529.731616 881.773446 
L 1530.708895 881.773446 
L 1531.034654 876.500185 
L 1532.011933 876.500185 
L 1532.337692 864.710835 
L 1534.618009 864.62639 
L 1534.943769 867.960662 
L 1535.921047 867.960662 
L 1536.246807 870.02616 
L 1537.224085 870.02616 
L 1537.549845 865.18888 
L 1538.527123 865.18888 
L 1538.852883 867.218667 
L 1539.830161 867.218667 
L 1540.155921 864.376615 
L 1541.133199 864.376615 
L 1541.458959 867.568006 
L 1542.436238 867.568006 
L 1542.761997 864.575165 
L 1545.042314 864.575165 
L 1545.368073 861.525227 
L 1546.345352 861.525227 
L 1546.671111 852.522022 
L 1547.64839 852.522022 
L 1547.974149 844.714209 
L 1548.951428 844.714209 
L 1549.277187 849.477674 
L 1550.254466 849.477674 
L 1550.580226 851.385021 
L 1554.16358 851.385021 
L 1554.48934 842.50097 
L 1555.466618 842.50097 
L 1555.792378 825.786689 
L 1556.769656 825.786689 
L 1557.095416 817.681369 
L 1558.072695 817.681369 
L 1558.398454 811.955224 
L 1559.375733 811.955224 
L 1559.701492 808.201407 
L 1560.678771 808.201407 
L 1561.00453 799.236836 
L 1561.981809 799.236836 
L 1562.307568 793.222353 
L 1563.284847 793.222353 
L 1563.610606 788.554529 
L 1564.587885 788.554529 
L 1564.913645 778.999426 
L 1565.890923 778.999426 
L 1566.216683 773.340951 
L 1567.193961 773.340951 
L 1567.519721 765.534322 
L 1568.496999 765.534322 
L 1568.822759 763.390399 
L 1569.800037 763.390399 
L 1570.125797 754.584613 
L 1571.103075 754.584613 
L 1571.428835 747.28827 
L 1572.406114 747.28827 
L 1572.731873 740.120627 
L 1573.709152 740.120627 
L 1574.034911 733.238269 
L 1576.315228 733.238269 
L 1576.640987 728.453613 
L 1577.618266 728.453613 
L 1577.944025 724.299316 
L 1578.921304 724.299316 
L 1579.247063 726.2471 
L 1580.224342 726.2471 
L 1580.550102 722.567856 
L 1581.52738 722.567856 
L 1581.85314 716.174526 
L 1582.830418 716.174526 
L 1583.156178 711.587051 
L 1584.133456 711.587051 
L 1584.459216 706.961315 
L 1585.436494 706.961315 
L 1585.762254 700.839143 
L 1586.739532 700.839143 
L 1587.065292 687.79994 
L 1588.042571 687.79994 
L 1588.36833 686.341208 
L 1589.345609 686.341208 
L 1589.671368 684.300855 
L 1590.648647 684.300855 
L 1590.974406 676.292836 
L 1591.951685 676.292836 
L 1592.277444 670.564932 
L 1593.254723 670.564932 
L 1593.580482 666.617099 
L 1594.557761 666.617099 
L 1594.883521 659.52481 
L 1595.860799 659.52481 
L 1596.186559 651.443364 
L 1597.163837 651.443364 
L 1597.489597 647.145575 
L 1598.466875 647.145575 
L 1598.792635 646.356555 
L 1599.769913 646.356555 
L 1600.095673 644.067282 
L 1601.072951 644.067282 
L 1601.398711 640.991455 
L 1602.37599 640.991455 
L 1602.701749 636.488344 
L 1603.679028 636.488344 
L 1604.004787 635.017747 
L 1604.982066 635.017747 
L 1605.307825 628.671924 
L 1606.285104 628.671924 
L 1606.610863 626.500929 
L 1607.588142 626.500929 
L 1607.913901 623.205556 
L 1608.89118 623.205556 
L 1609.216939 619.927149 
L 1610.194218 619.927149 
L 1610.519978 616.305321 
L 1612.800294 616.305321 
L 1613.126054 614.156494 
L 1614.103332 614.156494 
L 1614.429092 613.081435 
L 1615.40637 613.081435 
L 1615.73213 608.456595 
L 1618.012447 608.456595 
L 1618.338206 609.521982 
L 1619.315485 609.521982 
L 1619.641244 609.881521 
L 1620.618523 609.881521 
L 1620.944282 607.830281 
L 1621.921561 607.830281 
L 1622.24732 601.230757 
L 1623.224599 601.230757 
L 1623.550358 598.57428 
L 1624.527637 598.57428 
L 1624.853397 599.188125 
L 1625.830675 599.188125 
L 1626.156435 592.723342 
L 1627.133713 592.723342 
L 1627.459473 587.451583 
L 1628.436751 587.451583 
L 1628.762511 586.595947 
L 1629.739789 586.595947 
L 1630.065549 584.130652 
L 1631.042827 584.130652 
L 1631.368587 580.628409 
L 1632.345866 580.628409 
L 1632.671625 580.088905 
L 1633.648904 580.088905 
L 1633.974663 576.402607 
L 1634.951942 576.402607 
L 1635.277701 573.525277 
L 1636.25498 573.525277 
L 1636.580739 568.803623 
L 1637.558018 568.803623 
L 1637.883777 566.009396 
L 1638.861056 566.009396 
L 1639.186815 562.280531 
L 1640.164094 562.280531 
L 1640.489854 558.857309 
L 1641.467132 558.857309 
L 1641.792892 556.171422 
L 1642.77017 556.171422 
L 1643.09593 555.716685 
L 1644.073208 555.716685 
L 1644.398968 552.3864 
L 1645.376246 552.3864 
L 1645.702006 547.770985 
L 1646.679284 547.770985 
L 1647.005044 543.738284 
L 1647.982323 543.738284 
L 1648.308082 538.177543 
L 1649.285361 538.177543 
L 1649.61112 533.149612 
L 1650.588399 533.149612 
L 1650.914158 521.299561 
L 1651.891437 521.299561 
L 1652.217196 512.93469 
L 1653.194475 512.93469 
L 1653.520234 506.74682 
L 1654.497513 506.74682 
L 1654.823273 502.870832 
L 1655.800551 502.870832 
L 1656.126311 497.360211 
L 1657.103589 497.360211 
L 1657.429349 493.405147 
L 1658.406627 493.405147 
L 1658.732387 484.223314 
L 1659.709665 484.223314 
L 1660.035425 479.147028 
L 1661.012703 479.147028 
L 1661.338463 474.017851 
L 1662.315742 474.017851 
L 1662.641501 469.911294 
L 1663.61878 469.911294 
L 1663.944539 464.893787 
L 1664.921818 464.893787 
L 1665.247577 460.132445 
L 1666.224856 460.132445 
L 1666.550615 454.861682 
L 1667.527894 454.861682 
L 1667.853653 449.405018 
L 1668.830932 449.405018 
L 1669.156691 447.685968 
L 1670.13397 447.685968 
L 1670.45973 444.516841 
L 1671.437008 444.516841 
L 1671.762768 443.384724 
L 1672.740046 443.384724 
L 1673.065806 442.022795 
L 1674.043084 442.022795 
L 1674.368844 439.777061 
L 1675.346122 439.777061 
L 1675.671882 436.218106 
L 1676.64916 436.218106 
L 1676.97492 434.884648 
L 1677.952199 434.884648 
L 1678.277958 432.685871 
L 1679.255237 432.685871 
L 1679.580996 430.725068 
L 1681.861313 430.725068 
L 1682.187072 430.509497 
L 1683.164351 430.509497 
L 1683.49011 428.983761 
L 1684.467389 428.983761 
L 1684.793149 428.325626 
L 1685.770427 428.325626 
L 1686.096187 426.821365 
L 1687.073465 426.821365 
L 1687.399225 425.753745 
L 1688.376503 425.753745 
L 1688.702263 423.323863 
L 1689.679541 423.323863 
L 1690.005301 419.284573 
L 1690.982579 419.284573 
L 1691.308339 418.429696 
L 1692.285618 418.429696 
L 1692.611377 414.162218 
L 1693.588656 414.162218 
L 1693.914415 411.443646 
L 1694.891694 411.443646 
L 1695.217453 409.754349 
L 1696.194732 409.754349 
L 1696.520491 406.890472 
L 1697.49777 406.890472 
L 1697.823529 402.874071 
L 1698.800808 402.874071 
L 1699.126567 399.737114 
L 1700.103846 399.737114 
L 1700.429606 394.977647 
L 1701.406884 394.977647 
L 1701.732644 393.025035 
L 1702.709922 393.025035 
L 1703.035682 390.929425 
L 1704.01296 390.929425 
L 1704.33872 386.18923 
L 1705.315998 386.18923 
L 1705.641758 385.236189 
L 1706.619036 385.236189 
L 1706.944796 384.149287 
L 1707.922075 384.149287 
L 1708.247834 381.439657 
L 1709.225113 381.439657 
L 1709.550872 379.157085 
L 1710.528151 379.157085 
L 1710.85391 375.770997 
L 1711.831189 375.770997 
L 1712.156948 372.219059 
L 1713.134227 372.219059 
L 1713.459986 370.653794 
L 1714.437265 370.653794 
L 1714.763025 368.03294 
L 1715.740303 368.03294 
L 1716.066063 366.675016 
L 1717.043341 366.675016 
L 1717.369101 367.169374 
L 1718.346379 367.169374 
L 1718.672139 363.305637 
L 1719.649417 363.305637 
L 1719.975177 363.137613 
L 1720.952455 363.137613 
L 1721.278215 361.247435 
L 1723.558532 361.247435 
L 1723.884291 359.086136 
L 1724.86157 359.086136 
L 1725.187329 357.323135 
L 1726.164608 357.323135 
L 1726.490367 355.089585 
L 1727.467646 355.089585 
L 1727.793405 354.321299 
L 1728.770684 354.321299 
L 1729.096443 351.360153 
L 1730.073722 351.360153 
L 1730.399482 349.224393 
L 1731.37676 349.224393 
L 1731.70252 347.015024 
L 1732.679798 347.015024 
L 1733.005558 342.176164 
L 1733.982836 342.176164 
L 1734.308596 338.838061 
L 1736.588913 338.835373 
L 1736.914672 337.875516 
L 1737.891951 337.875516 
L 1738.21771 339.333763 
L 1739.194989 339.333763 
L 1739.520748 336.353931 
L 1740.498027 336.353931 
L 1740.823786 338.321882 
L 1741.801065 338.321882 
L 1742.126824 335.965398 
L 1743.104103 335.965398 
L 1743.429862 335.837935 
L 1744.407141 335.837935 
L 1744.732901 336.476311 
L 1747.013217 336.415136 
L 1747.338977 336.940789 
L 1748.316255 336.940789 
L 1748.642015 334.023242 
L 1749.619293 334.023242 
L 1749.945053 332.140153 
L 1750.922331 332.140153 
L 1751.248091 331.390353 
L 1752.22537 331.390353 
L 1752.551129 330.190237 
L 1753.528408 330.190237 
L 1753.854167 329.075168 
L 1754.831446 329.075168 
L 1755.157205 326.218755 
L 1757.437522 326.218755 
L 1757.763281 325.096263 
L 1758.74056 325.096263 
L 1759.06632 323.316251 
L 1760.043598 323.316251 
L 1760.369358 322.587754 
L 1761.346636 322.587754 
L 1761.672396 321.798526 
L 1762.649674 321.798526 
L 1762.975434 320.049768 
L 1763.952712 320.049768 
L 1764.278472 318.985923 
L 1765.25575 318.985923 
L 1765.58151 318.247413 
L 1766.558789 318.247413 
L 1766.884548 317.530337 
L 1769.164865 317.480162 
L 1769.490624 316.085968 
L 1771.770941 316.036707 
L 1772.0967 314.278941 
L 1773.073979 314.278941 
L 1773.399738 313.234055 
L 1774.377017 313.234055 
L 1774.702777 312.175935 
L 1775.680055 312.175935 
L 1776.005815 311.754178 
L 1776.983093 311.754178 
L 1777.308853 310.369039 
L 1778.286131 310.369039 
L 1778.611891 309.337826 
L 1779.589169 309.337826 
L 1779.914929 310.029874 
L 1780.892207 310.029874 
L 1781.217967 309.047996 
L 1782.195246 309.047996 
L 1782.521005 306.978371 
L 1783.498284 306.978371 
L 1783.824043 305.994044 
L 1784.801322 305.994044 
L 1785.127081 306.678066 
L 1786.10436 306.678066 
L 1786.430119 305.008412 
L 1787.407398 305.008412 
L 1787.733157 304.315674 
L 1790.013474 304.30216 
L 1790.339234 303.615924 
L 1792.61955 303.601873 
L 1792.94531 301.615782 
L 1795.225626 301.605799 
L 1795.551386 300.291838 
L 1796.528665 300.291838 
L 1796.854424 299.628302 
L 1797.831703 299.628302 
L 1798.157462 298.967026 
L 1799.134741 298.967026 
L 1799.4605 298.306298 
L 1800.437779 298.306298 
L 1800.763538 296.011604 
L 1803.043855 296.011604 
L 1803.369614 295.028912 
L 1804.346893 295.028912 
L 1804.672653 294.377094 
L 1806.952969 294.375006 
L 1807.278729 292.75102 
L 1808.256007 292.75102 
L 1808.581767 292.103143 
L 1809.559045 292.103143 
L 1809.884805 291.456648 
L 1810.862083 291.456648 
L 1811.187843 290.166303 
L 1812.165122 290.166303 
L 1812.490881 288.22934 
L 1813.46816 288.22934 
L 1813.793919 287.271689 
L 1814.771198 287.271689 
L 1815.096957 285.981795 
L 1816.074236 285.981795 
L 1816.399995 284.390937 
L 1817.377274 284.390937 
L 1817.703033 282.814838 
L 1818.680312 282.814838 
L 1819.006072 282.489681 
L 1819.98335 282.489681 
L 1820.30911 283.15411 
L 1821.286388 283.15411 
L 1821.612148 281.550934 
L 1823.892464 281.582078 
L 1824.218224 279.987942 
L 1825.195502 279.987942 
L 1825.521262 279.078126 
L 1827.801579 279.078126 
L 1828.127338 276.858464 
L 1829.104617 276.858464 
L 1829.430376 275.902879 
L 1830.407655 275.902879 
L 1830.733414 274.331839 
L 1831.710693 274.331839 
L 1832.036452 273.380184 
L 1833.013731 273.380184 
L 1833.33949 272.442898 
L 1834.316769 272.442898 
L 1834.642529 269.639249 
L 1835.619807 269.639249 
L 1835.945567 268.070138 
L 1836.922845 268.070138 
L 1837.248605 267.125469 
L 1838.225883 267.125469 
L 1838.551643 266.197006 
L 1839.528921 266.197006 
L 1839.854681 265.563597 
L 1840.831959 265.563597 
L 1841.157719 264.914638 
L 1842.134998 264.914638 
L 1842.460757 263.361269 
L 1844.741074 263.344432 
L 1845.066833 262.424347 
L 1848.650188 262.407279 
L 1848.975948 261.469497 
L 1849.953226 261.469497 
L 1850.278986 260.5501 
L 1851.256264 260.5501 
L 1851.582024 258.677786 
L 1852.559302 258.677786 
L 1852.885062 258.04942 
L 1853.86234 258.04942 
L 1854.1881 255.577483 
L 1855.165378 255.577483 
L 1855.491138 254.366046 
L 1856.468417 254.366046 
L 1856.794176 252.535814 
L 1857.771455 252.535814 
L 1858.097214 251.012553 
L 1860.377531 251.012553 
L 1860.70329 250.390896 
L 1861.680569 250.390896 
L 1862.006328 249.491936 
L 1862.983607 249.491936 
L 1863.309366 248.893756 
L 1864.286645 248.893756 
L 1864.612405 247.079759 
L 1866.892721 247.079759 
L 1867.218481 246.677448 
L 1868.195759 246.677448 
L 1868.521519 245.162208 
L 1869.498797 245.162208 
L 1869.824557 245.757309 
L 1870.801835 245.757309 
L 1871.127595 244.839763 
L 1873.407912 244.944089 
L 1873.733671 244.052733 
L 1874.71095 244.052733 
L 1875.036709 243.568142 
L 1877.317026 243.568142 
L 1877.642785 244.160263 
L 1881.22614 244.132595 
L 1881.5519 243.513845 
L 1883.832216 243.513845 
L 1884.157976 242.896129 
L 1885.135254 242.896129 
L 1885.461014 242.011058 
L 1886.438293 242.011058 
L 1886.764052 241.394156 
L 1887.741331 241.394156 
L 1888.06709 239.8675 
L 1889.044369 239.8675 
L 1889.370128 238.080211 
L 1890.347407 238.080211 
L 1890.673166 237.202503 
L 1891.650445 237.202503 
L 1891.976204 236.325425 
L 1892.953483 236.325425 
L 1893.279242 234.663535 
L 1894.256521 234.663535 
L 1894.582281 234.464908 
L 1895.559559 234.464908 
L 1895.885319 232.227986 
L 1896.862597 232.227986 
L 1897.188357 230.613675 
L 1898.165635 230.613675 
L 1898.491395 230.168812 
L 1899.468673 230.168812 
L 1899.794433 230.749329 
L 1900.771711 230.749329 
L 1901.097471 229.148036 
L 1902.07475 229.148036 
L 1902.400509 228.24174 
L 1903.377788 228.24174 
L 1903.703547 227.66213 
L 1904.680826 227.66213 
L 1905.006585 227.806019 
L 1905.983864 227.806019 
L 1906.309623 227.22641 
L 1907.286902 227.22641 
L 1907.612661 226.794272 
L 1908.58994 226.794272 
L 1908.9157 226.214663 
L 1909.892978 226.214663 
L 1910.218738 226.363911 
L 1911.196016 226.363911 
L 1911.521776 225.357882 
L 1913.802092 225.357882 
L 1914.127852 224.932328 
L 1916.408169 224.932328 
L 1916.733928 224.354017 
L 1919.014245 224.354017 
L 1919.340004 223.776575 
L 1920.317283 223.776575 
L 1920.643042 223.2 
L 1921.620321 223.2 
L 1921.620321 223.2 
" clip-path="url(#pe5ac4fdd19)" style="fill: none; stroke: #0000ff; stroke-width: 1.5; stroke-linecap: square"/>
   </g>
   <g id="patch_15">
    <path d="M 1451.647059 1281.6 
L 1451.647059 172.8 
" style="fill: none; stroke: #000000; stroke-width: 0.8; stroke-linejoin: miter; stroke-linecap: square"/>
   </g>
   <g id="patch_16">
    <path d="M 1944 1281.6 
L 1944 172.8 
" style="fill: none; stroke: #000000; stroke-width: 0.8; stroke-linejoin: miter; stroke-linecap: square"/>
   </g>
   <g id="patch_17">
    <path d="M 1451.647059 1281.6 
L 1944 1281.6 
" style="fill: none; stroke: #000000; stroke-width: 0.8; stroke-linejoin: miter; stroke-linecap: square"/>
   </g>
   <g id="patch_18">
    <path d="M 1451.647059 172.8 
L 1944 172.8 
" style="fill: none; stroke: #000000; stroke-width: 0.8; stroke-linejoin: miter; stroke-linecap: square"/>
   </g>
   <g id="legend_3">
    <g id="patch_19">
     <path d="M 1852.957813 195.478125 
L 1937 195.478125 
Q 1939 195.478125 1939 193.478125 
L 1939 179.8 
Q 1939 177.8 1937 177.8 
L 1852.957813 177.8 
Q 1850.957813 177.8 1850.957813 179.8 
L 1850.957813 193.478125 
Q 1850.957813 195.478125 1852.957813 195.478125 
z
" style="fill: #ffffff; opacity: 0.8; stroke: #cccccc; stroke-linejoin: miter"/>
    </g>
    <g id="line2d_46">
     <path d="M 1854.957813 185.898437 
L 1864.957813 185.898437 
L 1874.957813 185.898437 
" style="fill: none; stroke: #0000ff; stroke-width: 1.5; stroke-linecap: square"/>
    </g>
    <g id="text_43">
     <!-- O3 reward -->
     <g transform="translate(1882.957813 189.398437) scale(0.1 -0.1)">
      <defs>
       <path id="DejaVuSans-33" d="M 2597 2516 
Q 3050 2419 3304 2112 
Q 3559 1806 3559 1356 
Q 3559 666 3084 287 
Q 2609 -91 1734 -91 
Q 1441 -91 1130 -33 
Q 819 25 488 141 
L 488 750 
Q 750 597 1062 519 
Q 1375 441 1716 441 
Q 2309 441 2620 675 
Q 2931 909 2931 1356 
Q 2931 1769 2642 2001 
Q 2353 2234 1838 2234 
L 1294 2234 
L 1294 2753 
L 1863 2753 
Q 2328 2753 2575 2939 
Q 2822 3125 2822 3475 
Q 2822 3834 2567 4026 
Q 2313 4219 1838 4219 
Q 1578 4219 1281 4162 
Q 984 4106 628 3988 
L 628 4550 
Q 988 4650 1302 4700 
Q 1616 4750 1894 4750 
Q 2613 4750 3031 4423 
Q 3450 4097 3450 3541 
Q 3450 3153 3228 2886 
Q 3006 2619 2597 2516 
z
" transform="scale(0.015625)"/>
      </defs>
      <use xlink:href="#DejaVuSans-4f"/>
      <use xlink:href="#DejaVuSans-33" x="78.710938"/>
      <use xlink:href="#DejaVuSans-20" x="142.333984"/>
      <use xlink:href="#DejaVuSans-72" x="174.121094"/>
      <use xlink:href="#DejaVuSans-65" x="212.984375"/>
      <use xlink:href="#DejaVuSans-77" x="274.507812"/>
      <use xlink:href="#DejaVuSans-61" x="356.294922"/>
      <use xlink:href="#DejaVuSans-72" x="417.574219"/>
      <use xlink:href="#DejaVuSans-64" x="456.9375"/>
     </g>
    </g>
   </g>
  </g>
 </g>
 <defs>
  <clipPath id="pd1c76f102e">
   <rect x="270" y="172.8" width="492.352941" height="1108.8"/>
  </clipPath>
  <clipPath id="pd802f54d7d">
   <rect x="860.823529" y="172.8" width="492.352941" height="1108.8"/>
  </clipPath>
  <clipPath id="pe5ac4fdd19">
   <rect x="1451.647059" y="172.8" width="492.352941" height="1108.8"/>
  </clipPath>
 </defs>
</svg>
