<?xml version="1.0" encoding="utf-8" standalone="no"?>
<!DOCTYPE svg PUBLIC "-//W3C//DTD SVG 1.1//EN"
  "http://www.w3.org/Graphics/SVG/1.1/DTD/svg11.dtd">
<svg xmlns:xlink="http://www.w3.org/1999/xlink" width="2160pt" height="1440pt" viewBox="0 0 2160 1440" xmlns="http://www.w3.org/2000/svg" version="1.1">
 <metadata>
  <rdf:RDF xmlns:dc="http://purl.org/dc/elements/1.1/" xmlns:cc="http://creativecommons.org/ns#" xmlns:rdf="http://www.w3.org/1999/02/22-rdf-syntax-ns#">
   <cc:Work>
    <dc:type rdf:resource="http://purl.org/dc/dcmitype/StillImage"/>
    <dc:date>2023-05-31T19:33:55.778046</dc:date>
    <dc:format>image/svg+xml</dc:format>
    <dc:creator>
     <cc:Agent>
      <dc:title>Matplotlib v3.7.1, https://matplotlib.org/</dc:title>
     </cc:Agent>
    </dc:creator>
   </cc:Work>
  </rdf:RDF>
 </metadata>
 <defs>
  <style type="text/css">*{stroke-linejoin: round; stroke-linecap: butt}</style>
 </defs>
 <g id="figure_1">
  <g id="patch_1">
   <path d="M 0 1440 
L 2160 1440 
L 2160 0 
L 0 0 
z
" style="fill: #ffffff"/>
  </g>
  <g id="axes_1">
   <g id="patch_2">
    <path d="M 270 1281.6 
L 762.352941 1281.6 
L 762.352941 172.8 
L 270 172.8 
z
" style="fill: #ffffff"/>
   </g>
   <g id="matplotlib.axis_1">
    <g id="xtick_1">
     <g id="line2d_1">
      <defs>
       <path id="mcc7622fc9c" d="M 0 0 
L 0 3.5 
" style="stroke: #000000; stroke-width: 0.8"/>
      </defs>
      <g>
       <use xlink:href="#mcc7622fc9c" x="291.887277" y="1281.6" style="stroke: #000000; stroke-width: 0.8"/>
      </g>
     </g>
     <g id="text_1">
      <!-- 0 -->
      <g transform="translate(288.706027 1296.198437) scale(0.1 -0.1)">
       <defs>
        <path id="DejaVuSans-30" d="M 2034 4250 
Q 1547 4250 1301 3770 
Q 1056 3291 1056 2328 
Q 1056 1369 1301 889 
Q 1547 409 2034 409 
Q 2525 409 2770 889 
Q 3016 1369 3016 2328 
Q 3016 3291 2770 3770 
Q 2525 4250 2034 4250 
z
M 2034 4750 
Q 2819 4750 3233 4129 
Q 3647 3509 3647 2328 
Q 3647 1150 3233 529 
Q 2819 -91 2034 -91 
Q 1250 -91 836 529 
Q 422 1150 422 2328 
Q 422 3509 836 4129 
Q 1250 4750 2034 4750 
z
" transform="scale(0.015625)"/>
       </defs>
       <use xlink:href="#DejaVuSans-30"/>
      </g>
     </g>
    </g>
    <g id="xtick_2">
     <g id="line2d_2">
      <g>
       <use xlink:href="#mcc7622fc9c" x="390.367713" y="1281.6" style="stroke: #000000; stroke-width: 0.8"/>
      </g>
     </g>
     <g id="text_2">
      <!-- 200 -->
      <g transform="translate(380.823963 1296.198437) scale(0.1 -0.1)">
       <defs>
        <path id="DejaVuSans-32" d="M 1228 531 
L 3431 531 
L 3431 0 
L 469 0 
L 469 531 
Q 828 903 1448 1529 
Q 2069 2156 2228 2338 
Q 2531 2678 2651 2914 
Q 2772 3150 2772 3378 
Q 2772 3750 2511 3984 
Q 2250 4219 1831 4219 
Q 1534 4219 1204 4116 
Q 875 4013 500 3803 
L 500 4441 
Q 881 4594 1212 4672 
Q 1544 4750 1819 4750 
Q 2544 4750 2975 4387 
Q 3406 4025 3406 3419 
Q 3406 3131 3298 2873 
Q 3191 2616 2906 2266 
Q 2828 2175 2409 1742 
Q 1991 1309 1228 531 
z
" transform="scale(0.015625)"/>
       </defs>
       <use xlink:href="#DejaVuSans-32"/>
       <use xlink:href="#DejaVuSans-30" x="63.623047"/>
       <use xlink:href="#DejaVuSans-30" x="127.246094"/>
      </g>
     </g>
    </g>
    <g id="xtick_3">
     <g id="line2d_3">
      <g>
       <use xlink:href="#mcc7622fc9c" x="488.84815" y="1281.6" style="stroke: #000000; stroke-width: 0.8"/>
      </g>
     </g>
     <g id="text_3">
      <!-- 400 -->
      <g transform="translate(479.3044 1296.198437) scale(0.1 -0.1)">
       <defs>
        <path id="DejaVuSans-34" d="M 2419 4116 
L 825 1625 
L 2419 1625 
L 2419 4116 
z
M 2253 4666 
L 3047 4666 
L 3047 1625 
L 3713 1625 
L 3713 1100 
L 3047 1100 
L 3047 0 
L 2419 0 
L 2419 1100 
L 313 1100 
L 313 1709 
L 2253 4666 
z
" transform="scale(0.015625)"/>
       </defs>
       <use xlink:href="#DejaVuSans-34"/>
       <use xlink:href="#DejaVuSans-30" x="63.623047"/>
       <use xlink:href="#DejaVuSans-30" x="127.246094"/>
      </g>
     </g>
    </g>
    <g id="xtick_4">
     <g id="line2d_4">
      <g>
       <use xlink:href="#mcc7622fc9c" x="587.328586" y="1281.6" style="stroke: #000000; stroke-width: 0.8"/>
      </g>
     </g>
     <g id="text_4">
      <!-- 600 -->
      <g transform="translate(577.784836 1296.198437) scale(0.1 -0.1)">
       <defs>
        <path id="DejaVuSans-36" d="M 2113 2584 
Q 1688 2584 1439 2293 
Q 1191 2003 1191 1497 
Q 1191 994 1439 701 
Q 1688 409 2113 409 
Q 2538 409 2786 701 
Q 3034 994 3034 1497 
Q 3034 2003 2786 2293 
Q 2538 2584 2113 2584 
z
M 3366 4563 
L 3366 3988 
Q 3128 4100 2886 4159 
Q 2644 4219 2406 4219 
Q 1781 4219 1451 3797 
Q 1122 3375 1075 2522 
Q 1259 2794 1537 2939 
Q 1816 3084 2150 3084 
Q 2853 3084 3261 2657 
Q 3669 2231 3669 1497 
Q 3669 778 3244 343 
Q 2819 -91 2113 -91 
Q 1303 -91 875 529 
Q 447 1150 447 2328 
Q 447 3434 972 4092 
Q 1497 4750 2381 4750 
Q 2619 4750 2861 4703 
Q 3103 4656 3366 4563 
z
" transform="scale(0.015625)"/>
       </defs>
       <use xlink:href="#DejaVuSans-36"/>
       <use xlink:href="#DejaVuSans-30" x="63.623047"/>
       <use xlink:href="#DejaVuSans-30" x="127.246094"/>
      </g>
     </g>
    </g>
    <g id="xtick_5">
     <g id="line2d_5">
      <g>
       <use xlink:href="#mcc7622fc9c" x="685.809022" y="1281.6" style="stroke: #000000; stroke-width: 0.8"/>
      </g>
     </g>
     <g id="text_5">
      <!-- 800 -->
      <g transform="translate(676.265272 1296.198437) scale(0.1 -0.1)">
       <defs>
        <path id="DejaVuSans-38" d="M 2034 2216 
Q 1584 2216 1326 1975 
Q 1069 1734 1069 1313 
Q 1069 891 1326 650 
Q 1584 409 2034 409 
Q 2484 409 2743 651 
Q 3003 894 3003 1313 
Q 3003 1734 2745 1975 
Q 2488 2216 2034 2216 
z
M 1403 2484 
Q 997 2584 770 2862 
Q 544 3141 544 3541 
Q 544 4100 942 4425 
Q 1341 4750 2034 4750 
Q 2731 4750 3128 4425 
Q 3525 4100 3525 3541 
Q 3525 3141 3298 2862 
Q 3072 2584 2669 2484 
Q 3125 2378 3379 2068 
Q 3634 1759 3634 1313 
Q 3634 634 3220 271 
Q 2806 -91 2034 -91 
Q 1263 -91 848 271 
Q 434 634 434 1313 
Q 434 1759 690 2068 
Q 947 2378 1403 2484 
z
M 1172 3481 
Q 1172 3119 1398 2916 
Q 1625 2713 2034 2713 
Q 2441 2713 2670 2916 
Q 2900 3119 2900 3481 
Q 2900 3844 2670 4047 
Q 2441 4250 2034 4250 
Q 1625 4250 1398 4047 
Q 1172 3844 1172 3481 
z
" transform="scale(0.015625)"/>
       </defs>
       <use xlink:href="#DejaVuSans-38"/>
       <use xlink:href="#DejaVuSans-30" x="63.623047"/>
       <use xlink:href="#DejaVuSans-30" x="127.246094"/>
      </g>
     </g>
    </g>
   </g>
   <g id="matplotlib.axis_2">
    <g id="ytick_1">
     <g id="line2d_6">
      <defs>
       <path id="mc5fadf1625" d="M 0 0 
L -3.5 0 
" style="stroke: #000000; stroke-width: 0.8"/>
      </defs>
      <g>
       <use xlink:href="#mc5fadf1625" x="270" y="1257.558414" style="stroke: #000000; stroke-width: 0.8"/>
      </g>
     </g>
     <g id="text_6">
      <!-- −12 -->
      <g transform="translate(241.895312 1261.357632) scale(0.1 -0.1)">
       <defs>
        <path id="DejaVuSans-2212" d="M 678 2272 
L 4684 2272 
L 4684 1741 
L 678 1741 
L 678 2272 
z
" transform="scale(0.015625)"/>
        <path id="DejaVuSans-31" d="M 794 531 
L 1825 531 
L 1825 4091 
L 703 3866 
L 703 4441 
L 1819 4666 
L 2450 4666 
L 2450 531 
L 3481 531 
L 3481 0 
L 794 0 
L 794 531 
z
" transform="scale(0.015625)"/>
       </defs>
       <use xlink:href="#DejaVuSans-2212"/>
       <use xlink:href="#DejaVuSans-31" x="83.789062"/>
       <use xlink:href="#DejaVuSans-32" x="147.412109"/>
      </g>
     </g>
    </g>
    <g id="ytick_2">
     <g id="line2d_7">
      <g>
       <use xlink:href="#mc5fadf1625" x="270" y="1087.99146" style="stroke: #000000; stroke-width: 0.8"/>
      </g>
     </g>
     <g id="text_7">
      <!-- −10 -->
      <g transform="translate(241.895312 1091.790679) scale(0.1 -0.1)">
       <use xlink:href="#DejaVuSans-2212"/>
       <use xlink:href="#DejaVuSans-31" x="83.789062"/>
       <use xlink:href="#DejaVuSans-30" x="147.412109"/>
      </g>
     </g>
    </g>
    <g id="ytick_3">
     <g id="line2d_8">
      <g>
       <use xlink:href="#mc5fadf1625" x="270" y="918.424507" style="stroke: #000000; stroke-width: 0.8"/>
      </g>
     </g>
     <g id="text_8">
      <!-- −8 -->
      <g transform="translate(248.257812 922.223726) scale(0.1 -0.1)">
       <use xlink:href="#DejaVuSans-2212"/>
       <use xlink:href="#DejaVuSans-38" x="83.789062"/>
      </g>
     </g>
    </g>
    <g id="ytick_4">
     <g id="line2d_9">
      <g>
       <use xlink:href="#mc5fadf1625" x="270" y="748.857554" style="stroke: #000000; stroke-width: 0.8"/>
      </g>
     </g>
     <g id="text_9">
      <!-- −6 -->
      <g transform="translate(248.257812 752.656773) scale(0.1 -0.1)">
       <use xlink:href="#DejaVuSans-2212"/>
       <use xlink:href="#DejaVuSans-36" x="83.789062"/>
      </g>
     </g>
    </g>
    <g id="ytick_5">
     <g id="line2d_10">
      <g>
       <use xlink:href="#mc5fadf1625" x="270" y="579.290601" style="stroke: #000000; stroke-width: 0.8"/>
      </g>
     </g>
     <g id="text_10">
      <!-- −4 -->
      <g transform="translate(248.257812 583.08982) scale(0.1 -0.1)">
       <use xlink:href="#DejaVuSans-2212"/>
       <use xlink:href="#DejaVuSans-34" x="83.789062"/>
      </g>
     </g>
    </g>
    <g id="ytick_6">
     <g id="line2d_11">
      <g>
       <use xlink:href="#mc5fadf1625" x="270" y="409.723648" style="stroke: #000000; stroke-width: 0.8"/>
      </g>
     </g>
     <g id="text_11">
      <!-- −2 -->
      <g transform="translate(248.257812 413.522867) scale(0.1 -0.1)">
       <use xlink:href="#DejaVuSans-2212"/>
       <use xlink:href="#DejaVuSans-32" x="83.789062"/>
      </g>
     </g>
    </g>
    <g id="ytick_7">
     <g id="line2d_12">
      <g>
       <use xlink:href="#mc5fadf1625" x="270" y="240.156695" style="stroke: #000000; stroke-width: 0.8"/>
      </g>
     </g>
     <g id="text_12">
      <!-- 0 -->
      <g transform="translate(256.6375 243.955914) scale(0.1 -0.1)">
       <use xlink:href="#DejaVuSans-30"/>
      </g>
     </g>
    </g>
   </g>
   <g id="line2d_13">
    <path d="M 292.379679 240.156695 
L 316.999788 240.156695 
L 317.49219 223.2 
L 318.969397 223.2 
L 319.461799 234.504464 
L 320.939006 234.504464 
L 321.431408 253.722052 
L 322.908614 253.722052 
L 323.401017 255.895987 
L 324.878223 255.895987 
L 325.370625 277.449002 
L 326.847832 277.449002 
L 327.340234 286.817053 
L 328.817441 286.817053 
L 329.309843 296.843036 
L 330.787049 296.843036 
L 331.279451 305.648029 
L 332.756658 305.648029 
L 333.24906 317.068836 
L 334.726267 317.068836 
L 335.218669 325.759527 
L 338.665484 325.759527 
L 339.157886 318.564862 
L 342.604702 318.564862 
L 343.097104 328.7938 
L 344.57431 328.7938 
L 345.066713 320.150606 
L 346.543919 320.150606 
L 347.036321 313.178024 
L 350.483137 313.178024 
L 350.975539 314.929038 
L 352.452745 314.929038 
L 352.945147 306.323983 
L 356.391963 306.323983 
L 356.884365 297.753393 
L 358.361571 297.753393 
L 358.853974 289.215627 
L 360.33118 289.215627 
L 360.823582 297.125368 
L 362.300789 297.125368 
L 362.793191 284.279386 
L 366.240006 284.279386 
L 366.732409 272.374203 
L 368.209615 272.374203 
L 368.702017 279.864441 
L 370.179224 279.864441 
L 370.671626 272.374203 
L 372.148833 272.374203 
L 372.641235 283.816188 
L 376.08805 283.816188 
L 376.580452 291.892497 
L 378.057659 291.892497 
L 378.550061 305.960951 
L 380.027267 305.960951 
L 380.51967 303.846583 
L 381.996876 303.846583 
L 382.489278 309.170431 
L 383.966485 309.170431 
L 384.458887 307.138128 
L 385.936094 307.138128 
L 386.428496 305.151159 
L 387.905702 305.151159 
L 388.398105 308.635781 
L 389.875311 308.635781 
L 390.367713 328.587378 
L 391.84492 328.587378 
L 392.337322 321.47624 
L 393.814529 321.47624 
L 394.306931 326.994898 
L 395.784137 326.994898 
L 396.276539 346.688993 
L 397.753746 346.688993 
L 398.246148 353.415355 
L 399.723355 353.415355 
L 400.215757 359.348299 
L 405.632181 359.348299 
L 406.124583 365.925918 
L 407.60179 365.925918 
L 408.094192 378.436481 
L 409.571398 378.436481 
L 410.0638 371.869325 
L 411.541007 371.869325 
L 412.033409 384.401385 
L 413.510616 384.401385 
L 414.003018 396.818185 
L 415.480224 396.818185 
L 415.972627 402.812321 
L 417.449833 402.812321 
L 417.942235 421.765944 
L 419.419442 421.765944 
L 419.911844 434.501933 
L 421.389051 434.501933 
L 421.881453 453.681534 
L 423.358659 453.681534 
L 423.851062 472.539377 
L 425.328268 472.539377 
L 425.82067 485.207984 
L 427.297877 485.207984 
L 427.790279 491.686929 
L 429.267486 491.686929 
L 429.759888 504.355536 
L 431.237094 504.355536 
L 431.729496 498.252832 
L 433.206703 498.252832 
L 433.699105 486.196953 
L 435.176312 486.196953 
L 435.668714 474.280292 
L 437.14592 474.280292 
L 437.638323 468.321961 
L 439.115529 468.321961 
L 439.607931 481.058114 
L 443.054747 481.115093 
L 443.547149 482.206632 
L 445.024355 482.206632 
L 445.516758 502.045462 
L 448.963573 502.03856 
L 449.455975 490.609164 
L 450.933182 490.609164 
L 451.425584 484.901071 
L 452.90279 484.901071 
L 453.395192 473.503743 
L 454.872399 473.503743 
L 455.364801 486.52645 
L 456.842008 486.52645 
L 457.33441 492.222015 
L 460.781225 492.222015 
L 461.273627 497.91758 
L 462.750834 497.91758 
L 463.243236 492.227841 
L 464.720443 492.227841 
L 465.212845 488.305743 
L 466.690051 488.305743 
L 467.182454 477.04867 
L 468.65966 477.04867 
L 469.152062 478.940369 
L 470.629269 478.940369 
L 471.121671 488.536253 
L 472.598878 488.536253 
L 473.09128 490.648451 
L 474.568486 490.648451 
L 475.060888 485.064086 
L 478.507704 485.064086 
L 479.000106 498.313537 
L 480.477312 498.313537 
L 480.969715 492.80698 
L 482.446921 492.80698 
L 482.939323 487.304811 
L 484.41653 487.304811 
L 484.908932 489.60311 
L 486.386139 489.60311 
L 486.878541 491.948273 
L 488.355747 491.948273 
L 488.84815 499.808325 
L 490.325356 499.808325 
L 490.817758 513.190037 
L 492.294965 513.190037 
L 492.787367 534.501899 
L 494.264574 534.501899 
L 494.756976 547.88361 
L 496.234182 547.88361 
L 496.726584 566.708895 
L 498.203791 566.708895 
L 498.696193 588.028799 
L 500.1734 588.028799 
L 500.665802 606.814784 
L 502.143008 606.814784 
L 502.635411 633.651384 
L 504.112617 633.651384 
L 504.605019 655.130969 
L 506.082226 655.130969 
L 506.574628 660.545776 
L 508.051835 660.545776 
L 508.544237 682.078377 
L 510.021443 682.078377 
L 510.513846 684.732791 
L 511.991052 684.732791 
L 512.483454 700.906489 
L 515.930269 700.906489 
L 516.422672 708.992153 
L 519.869487 709.007098 
L 520.361889 717.10209 
L 521.839096 717.10209 
L 522.331498 711.741809 
L 525.778313 711.738775 
L 526.270715 719.892011 
L 527.747922 719.892011 
L 528.240324 733.392265 
L 529.717531 733.392265 
L 530.209933 722.753711 
L 531.687139 722.753711 
L 532.179541 725.68683 
L 533.656748 725.68683 
L 534.14915 715.113701 
L 535.626357 715.113701 
L 536.118759 699.317808 
L 537.595965 699.317808 
L 538.088368 707.610943 
L 539.565574 707.610943 
L 540.057976 691.859103 
L 541.535183 691.859103 
L 542.027585 705.42883 
L 543.504792 705.42883 
L 543.997194 703.267974 
L 549.413618 703.267974 
L 549.90602 698.056163 
L 551.383227 698.056163 
L 551.875629 687.644539 
L 553.352835 687.644539 
L 553.845237 677.240298 
L 555.322444 677.240298 
L 555.814846 656.467449 
L 557.292053 656.467449 
L 557.784455 635.787912 
L 559.261661 635.787912 
L 559.754064 620.323672 
L 561.23127 620.323672 
L 561.723672 604.897555 
L 563.200879 604.897555 
L 563.693281 599.76448 
L 565.170488 599.76448 
L 565.66289 584.390531 
L 567.140096 584.390531 
L 567.632499 574.153001 
L 571.079314 574.157166 
L 571.571716 569.047586 
L 573.048923 569.047586 
L 573.541325 553.736113 
L 575.018531 553.736113 
L 575.510933 567.46702 
L 576.98814 567.46702 
L 577.480542 552.183108 
L 578.957749 552.183108 
L 579.450151 569.499587 
L 580.927357 569.499587 
L 581.41976 602.08267 
L 582.896966 602.08267 
L 583.389368 597.001155 
L 584.866575 597.001155 
L 585.358977 595.520675 
L 586.836184 595.520675 
L 587.328586 575.234988 
L 588.805792 575.234988 
L 589.298195 583.944461 
L 590.775401 583.944461 
L 591.267803 606.432194 
L 592.74501 606.432194 
L 593.237412 627.574662 
L 594.714619 627.574662 
L 595.207021 641.353011 
L 596.684227 641.353011 
L 597.176629 665.206 
L 598.653836 665.206 
L 599.146238 687.751172 
L 600.623445 687.751172 
L 601.115847 701.541958 
L 602.593053 701.541958 
L 603.085456 710.318058 
L 604.562662 710.318058 
L 605.055064 712.825465 
L 606.532271 712.825465 
L 607.024673 735.422722 
L 608.50188 735.422722 
L 608.994282 754.243953 
L 610.471488 754.243953 
L 610.963891 758.041856 
L 612.441097 758.041856 
L 612.933499 766.849644 
L 614.410706 766.849644 
L 614.903108 793.303687 
L 616.380315 793.303687 
L 616.872717 815.954993 
L 618.349923 815.954993 
L 618.842325 856.315219 
L 620.319532 856.315219 
L 620.811934 905.591922 
L 622.289141 905.591922 
L 622.781543 923.325331 
L 624.258749 923.325331 
L 624.751152 959.907768 
L 626.228358 959.907768 
L 626.72076 990.470869 
L 628.197967 990.470869 
L 628.690369 985.496637 
L 630.167576 985.496637 
L 630.659978 975.556841 
L 632.137184 975.556841 
L 632.629586 965.621377 
L 636.076402 965.620051 
L 636.568804 960.656263 
L 638.04601 960.656263 
L 638.538413 955.691163 
L 640.015619 955.691163 
L 640.508021 945.769186 
L 641.985228 945.769186 
L 642.47763 939.808291 
L 643.954837 939.808291 
L 644.447239 938.811382 
L 645.924445 938.811382 
L 646.416848 960.624071 
L 647.894054 960.624071 
L 648.386456 955.672238 
L 649.863663 955.672238 
L 650.356065 964.600842 
L 651.833272 964.600842 
L 652.325674 982.465861 
L 653.80288 982.465861 
L 654.295282 981.502761 
L 655.772489 981.502761 
L 656.264891 990.443039 
L 657.742098 990.443039 
L 658.2345 1002.449258 
L 659.711706 1002.449258 
L 660.204109 1006.459705 
L 661.681315 1006.459705 
L 662.173717 1014.488338 
L 663.650924 1014.488338 
L 664.143326 1019.422248 
L 665.620533 1019.422248 
L 666.112935 1013.58222 
L 667.590141 1013.58222 
L 668.082544 1012.682094 
L 669.55975 1012.682094 
L 670.052152 1026.578718 
L 671.529359 1026.578718 
L 672.021761 1011.788019 
L 673.498968 1011.788019 
L 673.99137 1015.828111 
L 675.468576 1015.828111 
L 675.960978 1037.820962 
L 677.438185 1037.820962 
L 677.930587 1032.895073 
L 679.407794 1032.895073 
L 679.900196 1045.925931 
L 681.377402 1045.925931 
L 681.869805 1058.970676 
L 683.347011 1058.970676 
L 683.839413 1072.020779 
L 685.31662 1072.020779 
L 685.809022 1113.751926 
L 687.286229 1113.751926 
L 687.778631 1118.670982 
L 689.255837 1118.670982 
L 689.74824 1137.504417 
L 691.225446 1137.504417 
L 691.717848 1136.678813 
L 693.195055 1136.678813 
L 693.687457 1141.593393 
L 697.134272 1141.593393 
L 697.626674 1151.420693 
L 699.103881 1151.420693 
L 699.596283 1150.607338 
L 701.07349 1150.607338 
L 701.565892 1144.888204 
L 703.043098 1144.888204 
L 703.535501 1144.087875 
L 705.012707 1144.087875 
L 705.505109 1148.204893 
L 706.982316 1148.204893 
L 707.474718 1156.441325 
L 708.951925 1156.441325 
L 709.444327 1151.537854 
L 710.921533 1151.537854 
L 711.413936 1150.759558 
L 712.891142 1150.759558 
L 713.383544 1168.818558 
L 714.860751 1168.818558 
L 715.353153 1177.084205 
L 716.83036 1177.084205 
L 717.322762 1181.220023 
L 718.799968 1181.220023 
L 719.29237 1171.429438 
L 720.769577 1171.429438 
L 721.261979 1179.725919 
L 722.739186 1179.725919 
L 723.231588 1169.943469 
L 724.708794 1169.943469 
L 725.201197 1168.483056 
L 726.678403 1168.483056 
L 727.170805 1195.638754 
L 730.617621 1195.638754 
L 731.110023 1204.697598 
L 732.587229 1204.697598 
L 733.079631 1208.874563 
L 736.526447 1208.876943 
L 737.018849 1208.182846 
L 738.496055 1208.182846 
L 738.988458 1231.2 
L 739.973262 1231.2 
L 739.973262 1231.2 
" clip-path="url(#pc370a31f99)" style="fill: none; stroke: #0000ff; stroke-width: 1.5; stroke-linecap: square"/>
   </g>
   <g id="patch_3">
    <path d="M 270 1281.6 
L 270 172.8 
" style="fill: none; stroke: #000000; stroke-width: 0.8; stroke-linejoin: miter; stroke-linecap: square"/>
   </g>
   <g id="patch_4">
    <path d="M 762.352941 1281.6 
L 762.352941 172.8 
" style="fill: none; stroke: #000000; stroke-width: 0.8; stroke-linejoin: miter; stroke-linecap: square"/>
   </g>
   <g id="patch_5">
    <path d="M 270 1281.6 
L 762.352941 1281.6 
" style="fill: none; stroke: #000000; stroke-width: 0.8; stroke-linejoin: miter; stroke-linecap: square"/>
   </g>
   <g id="patch_6">
    <path d="M 270 172.8 
L 762.352941 172.8 
" style="fill: none; stroke: #000000; stroke-width: 0.8; stroke-linejoin: miter; stroke-linecap: square"/>
   </g>
   <g id="legend_1">
    <g id="patch_7">
     <path d="M 671.310754 195.478125 
L 755.352941 195.478125 
Q 757.352941 195.478125 757.352941 193.478125 
L 757.352941 179.8 
Q 757.352941 177.8 755.352941 177.8 
L 671.310754 177.8 
Q 669.310754 177.8 669.310754 179.8 
L 669.310754 193.478125 
Q 669.310754 195.478125 671.310754 195.478125 
z
" style="fill: #ffffff; opacity: 0.8; stroke: #cccccc; stroke-linejoin: miter"/>
    </g>
    <g id="line2d_14">
     <path d="M 673.310754 185.898437 
L 683.310754 185.898437 
L 693.310754 185.898437 
" style="fill: none; stroke: #0000ff; stroke-width: 1.5; stroke-linecap: square"/>
    </g>
    <g id="text_13">
     <!-- O1 reward -->
     <g transform="translate(701.310754 189.398437) scale(0.1 -0.1)">
      <defs>
       <path id="DejaVuSans-4f" d="M 2522 4238 
Q 1834 4238 1429 3725 
Q 1025 3213 1025 2328 
Q 1025 1447 1429 934 
Q 1834 422 2522 422 
Q 3209 422 3611 934 
Q 4013 1447 4013 2328 
Q 4013 3213 3611 3725 
Q 3209 4238 2522 4238 
z
M 2522 4750 
Q 3503 4750 4090 4092 
Q 4678 3434 4678 2328 
Q 4678 1225 4090 567 
Q 3503 -91 2522 -91 
Q 1538 -91 948 565 
Q 359 1222 359 2328 
Q 359 3434 948 4092 
Q 1538 4750 2522 4750 
z
" transform="scale(0.015625)"/>
       <path id="DejaVuSans-20" transform="scale(0.015625)"/>
       <path id="DejaVuSans-72" d="M 2631 2963 
Q 2534 3019 2420 3045 
Q 2306 3072 2169 3072 
Q 1681 3072 1420 2755 
Q 1159 2438 1159 1844 
L 1159 0 
L 581 0 
L 581 3500 
L 1159 3500 
L 1159 2956 
Q 1341 3275 1631 3429 
Q 1922 3584 2338 3584 
Q 2397 3584 2469 3576 
Q 2541 3569 2628 3553 
L 2631 2963 
z
" transform="scale(0.015625)"/>
       <path id="DejaVuSans-65" d="M 3597 1894 
L 3597 1613 
L 953 1613 
Q 991 1019 1311 708 
Q 1631 397 2203 397 
Q 2534 397 2845 478 
Q 3156 559 3463 722 
L 3463 178 
Q 3153 47 2828 -22 
Q 2503 -91 2169 -91 
Q 1331 -91 842 396 
Q 353 884 353 1716 
Q 353 2575 817 3079 
Q 1281 3584 2069 3584 
Q 2775 3584 3186 3129 
Q 3597 2675 3597 1894 
z
M 3022 2063 
Q 3016 2534 2758 2815 
Q 2500 3097 2075 3097 
Q 1594 3097 1305 2825 
Q 1016 2553 972 2059 
L 3022 2063 
z
" transform="scale(0.015625)"/>
       <path id="DejaVuSans-77" d="M 269 3500 
L 844 3500 
L 1563 769 
L 2278 3500 
L 2956 3500 
L 3675 769 
L 4391 3500 
L 4966 3500 
L 4050 0 
L 3372 0 
L 2619 2869 
L 1863 0 
L 1184 0 
L 269 3500 
z
" transform="scale(0.015625)"/>
       <path id="DejaVuSans-61" d="M 2194 1759 
Q 1497 1759 1228 1600 
Q 959 1441 959 1056 
Q 959 750 1161 570 
Q 1363 391 1709 391 
Q 2188 391 2477 730 
Q 2766 1069 2766 1631 
L 2766 1759 
L 2194 1759 
z
M 3341 1997 
L 3341 0 
L 2766 0 
L 2766 531 
Q 2569 213 2275 61 
Q 1981 -91 1556 -91 
Q 1019 -91 701 211 
Q 384 513 384 1019 
Q 384 1609 779 1909 
Q 1175 2209 1959 2209 
L 2766 2209 
L 2766 2266 
Q 2766 2663 2505 2880 
Q 2244 3097 1772 3097 
Q 1472 3097 1187 3025 
Q 903 2953 641 2809 
L 641 3341 
Q 956 3463 1253 3523 
Q 1550 3584 1831 3584 
Q 2591 3584 2966 3190 
Q 3341 2797 3341 1997 
z
" transform="scale(0.015625)"/>
       <path id="DejaVuSans-64" d="M 2906 2969 
L 2906 4863 
L 3481 4863 
L 3481 0 
L 2906 0 
L 2906 525 
Q 2725 213 2448 61 
Q 2172 -91 1784 -91 
Q 1150 -91 751 415 
Q 353 922 353 1747 
Q 353 2572 751 3078 
Q 1150 3584 1784 3584 
Q 2172 3584 2448 3432 
Q 2725 3281 2906 2969 
z
M 947 1747 
Q 947 1113 1208 752 
Q 1469 391 1925 391 
Q 2381 391 2643 752 
Q 2906 1113 2906 1747 
Q 2906 2381 2643 2742 
Q 2381 3103 1925 3103 
Q 1469 3103 1208 2742 
Q 947 2381 947 1747 
z
" transform="scale(0.015625)"/>
      </defs>
      <use xlink:href="#DejaVuSans-4f"/>
      <use xlink:href="#DejaVuSans-31" x="78.710938"/>
      <use xlink:href="#DejaVuSans-20" x="142.333984"/>
      <use xlink:href="#DejaVuSans-72" x="174.121094"/>
      <use xlink:href="#DejaVuSans-65" x="212.984375"/>
      <use xlink:href="#DejaVuSans-77" x="274.507812"/>
      <use xlink:href="#DejaVuSans-61" x="356.294922"/>
      <use xlink:href="#DejaVuSans-72" x="417.574219"/>
      <use xlink:href="#DejaVuSans-64" x="456.9375"/>
     </g>
    </g>
   </g>
  </g>
  <g id="axes_2">
   <g id="patch_8">
    <path d="M 860.823529 1281.6 
L 1353.176471 1281.6 
L 1353.176471 172.8 
L 860.823529 172.8 
z
" style="fill: #ffffff"/>
   </g>
   <g id="matplotlib.axis_3">
    <g id="xtick_6">
     <g id="line2d_15">
      <g>
       <use xlink:href="#mcc7622fc9c" x="882.710806" y="1281.6" style="stroke: #000000; stroke-width: 0.8"/>
      </g>
     </g>
     <g id="text_14">
      <!-- 0 -->
      <g transform="translate(879.529556 1296.198437) scale(0.1 -0.1)">
       <use xlink:href="#DejaVuSans-30"/>
      </g>
     </g>
    </g>
    <g id="xtick_7">
     <g id="line2d_16">
      <g>
       <use xlink:href="#mcc7622fc9c" x="981.191243" y="1281.6" style="stroke: #000000; stroke-width: 0.8"/>
      </g>
     </g>
     <g id="text_15">
      <!-- 200 -->
      <g transform="translate(971.647493 1296.198437) scale(0.1 -0.1)">
       <use xlink:href="#DejaVuSans-32"/>
       <use xlink:href="#DejaVuSans-30" x="63.623047"/>
       <use xlink:href="#DejaVuSans-30" x="127.246094"/>
      </g>
     </g>
    </g>
    <g id="xtick_8">
     <g id="line2d_17">
      <g>
       <use xlink:href="#mcc7622fc9c" x="1079.671679" y="1281.6" style="stroke: #000000; stroke-width: 0.8"/>
      </g>
     </g>
     <g id="text_16">
      <!-- 400 -->
      <g transform="translate(1070.127929 1296.198437) scale(0.1 -0.1)">
       <use xlink:href="#DejaVuSans-34"/>
       <use xlink:href="#DejaVuSans-30" x="63.623047"/>
       <use xlink:href="#DejaVuSans-30" x="127.246094"/>
      </g>
     </g>
    </g>
    <g id="xtick_9">
     <g id="line2d_18">
      <g>
       <use xlink:href="#mcc7622fc9c" x="1178.152115" y="1281.6" style="stroke: #000000; stroke-width: 0.8"/>
      </g>
     </g>
     <g id="text_17">
      <!-- 600 -->
      <g transform="translate(1168.608365 1296.198437) scale(0.1 -0.1)">
       <use xlink:href="#DejaVuSans-36"/>
       <use xlink:href="#DejaVuSans-30" x="63.623047"/>
       <use xlink:href="#DejaVuSans-30" x="127.246094"/>
      </g>
     </g>
    </g>
    <g id="xtick_10">
     <g id="line2d_19">
      <g>
       <use xlink:href="#mcc7622fc9c" x="1276.632551" y="1281.6" style="stroke: #000000; stroke-width: 0.8"/>
      </g>
     </g>
     <g id="text_18">
      <!-- 800 -->
      <g transform="translate(1267.088801 1296.198437) scale(0.1 -0.1)">
       <use xlink:href="#DejaVuSans-38"/>
       <use xlink:href="#DejaVuSans-30" x="63.623047"/>
       <use xlink:href="#DejaVuSans-30" x="127.246094"/>
      </g>
     </g>
    </g>
   </g>
   <g id="matplotlib.axis_4">
    <g id="ytick_8">
     <g id="line2d_20">
      <g>
       <use xlink:href="#mc5fadf1625" x="860.823529" y="1231.2" style="stroke: #000000; stroke-width: 0.8"/>
      </g>
     </g>
     <g id="text_19">
      <!-- 0 -->
      <g transform="translate(847.461029 1234.999219) scale(0.1 -0.1)">
       <use xlink:href="#DejaVuSans-30"/>
      </g>
     </g>
    </g>
    <g id="ytick_9">
     <g id="line2d_21">
      <g>
       <use xlink:href="#mc5fadf1625" x="860.823529" y="993.870383" style="stroke: #000000; stroke-width: 0.8"/>
      </g>
     </g>
     <g id="text_20">
      <!-- 20 -->
      <g transform="translate(841.098529 997.669602) scale(0.1 -0.1)">
       <use xlink:href="#DejaVuSans-32"/>
       <use xlink:href="#DejaVuSans-30" x="63.623047"/>
      </g>
     </g>
    </g>
    <g id="ytick_10">
     <g id="line2d_22">
      <g>
       <use xlink:href="#mc5fadf1625" x="860.823529" y="756.540766" style="stroke: #000000; stroke-width: 0.8"/>
      </g>
     </g>
     <g id="text_21">
      <!-- 40 -->
      <g transform="translate(841.098529 760.339985) scale(0.1 -0.1)">
       <use xlink:href="#DejaVuSans-34"/>
       <use xlink:href="#DejaVuSans-30" x="63.623047"/>
      </g>
     </g>
    </g>
    <g id="ytick_11">
     <g id="line2d_23">
      <g>
       <use xlink:href="#mc5fadf1625" x="860.823529" y="519.211149" style="stroke: #000000; stroke-width: 0.8"/>
      </g>
     </g>
     <g id="text_22">
      <!-- 60 -->
      <g transform="translate(841.098529 523.010367) scale(0.1 -0.1)">
       <use xlink:href="#DejaVuSans-36"/>
       <use xlink:href="#DejaVuSans-30" x="63.623047"/>
      </g>
     </g>
    </g>
    <g id="ytick_12">
     <g id="line2d_24">
      <g>
       <use xlink:href="#mc5fadf1625" x="860.823529" y="281.881532" style="stroke: #000000; stroke-width: 0.8"/>
      </g>
     </g>
     <g id="text_23">
      <!-- 80 -->
      <g transform="translate(841.098529 285.68075) scale(0.1 -0.1)">
       <use xlink:href="#DejaVuSans-38"/>
       <use xlink:href="#DejaVuSans-30" x="63.623047"/>
      </g>
     </g>
    </g>
   </g>
   <g id="line2d_25">
    <path d="M 883.203209 1231.2 
L 905.853709 1231.112269 
L 906.346111 1226.331507 
L 907.823318 1226.331507 
L 908.31572 1228.205208 
L 909.792926 1228.205208 
L 910.285329 1227.090918 
L 911.762535 1227.090918 
L 912.254937 1229.287598 
L 913.732144 1229.287598 
L 914.224546 1219.418394 
L 915.701753 1219.418394 
L 916.194155 1204.458136 
L 917.671361 1204.458136 
L 918.163763 1197.015722 
L 919.64097 1197.015722 
L 920.133372 1177.411741 
L 921.610579 1177.411741 
L 922.102981 1159.344324 
L 931.458622 1159.344324 
L 931.951025 1151.502778 
L 937.367449 1151.502778 
L 937.859851 1143.139628 
L 943.276275 1143.139628 
L 943.768677 1131.744981 
L 945.245883 1131.744981 
L 945.738286 1128.545456 
L 947.215492 1128.545456 
L 947.707894 1125.024759 
L 951.15471 1125.024759 
L 951.647112 1103.413689 
L 953.124318 1103.413689 
L 953.61672 1069.428475 
L 955.093927 1069.428475 
L 955.586329 1060.375137 
L 957.063536 1060.375137 
L 957.555938 1042.941458 
L 959.033144 1042.941458 
L 959.525547 1000.739064 
L 961.002753 1000.739064 
L 961.495155 971.36613 
L 982.668449 971.36613 
L 983.160851 962.705267 
L 988.577275 962.705267 
L 989.069678 954.171683 
L 990.546884 954.171683 
L 991.039286 945.548878 
L 992.516493 945.548878 
L 993.008895 936.839139 
L 996.45571 936.839139 
L 996.948112 933.765012 
L 1004.334145 933.765012 
L 1004.826547 930.60827 
L 1006.303754 930.60827 
L 1006.796156 909.653116 
L 1008.273363 909.653116 
L 1008.765765 893.650027 
L 1010.242971 893.650027 
L 1010.735374 858.183927 
L 1012.21258 858.183927 
L 1012.704982 826.983518 
L 1014.182189 826.983518 
L 1014.674591 802.391596 
L 1016.151798 802.391596 
L 1016.6442 772.15062 
L 1018.121406 772.15062 
L 1018.613808 735.421498 
L 1020.091015 735.421498 
L 1020.583417 718.995257 
L 1022.060624 718.995257 
L 1022.553026 696.245915 
L 1027.96945 696.245915 
L 1028.461852 691.110041 
L 1029.939059 691.110041 
L 1030.431461 680.490166 
L 1031.908667 680.490166 
L 1032.40107 687.819109 
L 1033.878276 687.819109 
L 1034.370678 691.305011 
L 1035.847885 691.305011 
L 1036.340287 698.546346 
L 1037.817494 698.546346 
L 1038.309896 702.284151 
L 1039.787102 702.284151 
L 1040.279504 705.680637 
L 1041.756711 705.680637 
L 1042.249113 695.216858 
L 1045.695928 695.216858 
L 1046.188331 688.101262 
L 1047.665537 688.101262 
L 1048.157939 684.82304 
L 1049.635146 684.82304 
L 1050.127548 674.543104 
L 1051.604755 674.543104 
L 1052.097157 654.264888 
L 1053.574363 654.264888 
L 1054.066766 644.555802 
L 1055.543972 644.555802 
L 1056.036374 636.115037 
L 1057.513581 636.115037 
L 1058.005983 630.650569 
L 1059.483189 630.650569 
L 1059.975592 621.675233 
L 1061.452798 621.675233 
L 1061.9452 630.561928 
L 1063.422407 630.561928 
L 1063.914809 650.470216 
L 1065.392016 650.470216 
L 1065.884418 644.230097 
L 1067.361624 644.230097 
L 1067.854027 627.109455 
L 1069.331233 627.109455 
L 1069.823635 612.583135 
L 1071.300842 612.583135 
L 1071.793244 614.680838 
L 1073.270451 614.680838 
L 1073.762853 600.884915 
L 1075.240059 600.884915 
L 1075.732461 589.029687 
L 1077.209668 589.029687 
L 1077.70207 587.1081 
L 1081.148885 587.037839 
L 1081.641288 588.903316 
L 1083.118494 588.903316 
L 1083.610896 585.252932 
L 1085.088103 585.252932 
L 1085.580505 573.857918 
L 1087.057712 573.857918 
L 1087.550114 575.569049 
L 1089.02732 575.569049 
L 1089.519723 571.692305 
L 1090.996929 571.692305 
L 1091.489331 560.589521 
L 1092.966538 560.589521 
L 1093.45894 553.457502 
L 1094.936147 553.457502 
L 1095.428549 546.382911 
L 1096.905755 546.382911 
L 1097.398157 542.530743 
L 1098.875364 542.530743 
L 1099.367766 540.243666 
L 1102.814581 540.243666 
L 1103.306984 554.076122 
L 1104.78419 554.076122 
L 1105.276592 560.889242 
L 1106.753799 560.889242 
L 1107.246201 558.465296 
L 1108.723408 558.465296 
L 1109.21581 563.666797 
L 1110.693016 563.666797 
L 1111.185419 564.955404 
L 1112.662625 564.955404 
L 1113.155027 579.05658 
L 1114.632234 579.05658 
L 1115.124636 581.748867 
L 1116.601843 581.748867 
L 1117.094245 593.015929 
L 1118.571451 593.015929 
L 1119.063853 592.466359 
L 1120.54106 592.466359 
L 1121.033462 581.490343 
L 1122.510669 581.490343 
L 1123.003071 574.465782 
L 1124.480277 574.465782 
L 1124.97268 573.427264 
L 1126.449886 573.427264 
L 1126.942288 567.537671 
L 1128.419495 567.537671 
L 1128.911897 557.825543 
L 1130.389104 557.825543 
L 1130.881506 561.715664 
L 1132.358712 561.715664 
L 1132.851115 565.599321 
L 1134.328321 565.599321 
L 1134.820723 564.674465 
L 1136.29793 564.674465 
L 1136.790332 560.777815 
L 1138.267539 560.777815 
L 1138.759941 550.323906 
L 1140.237147 550.323906 
L 1140.729549 543.837485 
L 1144.176365 543.837485 
L 1144.668767 538.284137 
L 1146.145973 538.284137 
L 1146.638376 544.57146 
L 1148.115582 544.57146 
L 1148.607984 555.374146 
L 1150.085191 555.374146 
L 1150.577593 558.570389 
L 1152.0548 558.570389 
L 1152.547202 557.923645 
L 1154.024408 557.923645 
L 1154.516811 556.666991 
L 1155.994017 556.666991 
L 1156.486419 559.390789 
L 1157.963626 559.390789 
L 1158.456028 549.418852 
L 1159.933234 549.418852 
L 1160.425637 524.93679 
L 1161.902843 524.93679 
L 1162.395245 510.505097 
L 1163.872452 510.505097 
L 1164.364854 491.526043 
L 1165.842061 491.526043 
L 1166.334463 472.424066 
L 1167.811669 472.424066 
L 1168.304072 454.330996 
L 1169.781278 454.330996 
L 1170.27368 444.88222 
L 1171.750887 444.88222 
L 1172.243289 431.653944 
L 1173.720496 431.653944 
L 1174.212898 413.827487 
L 1175.690104 413.827487 
L 1176.182506 405.02289 
L 1177.659713 405.02289 
L 1178.152115 391.956699 
L 1179.629322 391.956699 
L 1180.121724 396.482848 
L 1181.59893 396.482848 
L 1182.091333 388.687575 
L 1183.568539 388.687575 
L 1184.060941 401.282597 
L 1185.538148 401.282597 
L 1186.03055 401.637714 
L 1187.507757 401.637714 
L 1188.000159 401.931692 
L 1189.477365 401.931692 
L 1189.969768 398.171217 
L 1191.446974 398.171217 
L 1191.939376 398.301732 
L 1193.416583 398.301732 
L 1193.908985 398.540037 
L 1195.386192 398.540037 
L 1195.878594 410.790379 
L 1197.3558 410.790379 
L 1197.848202 418.757783 
L 1199.325409 418.757783 
L 1199.817811 422.655499 
L 1201.295018 422.655499 
L 1201.78742 418.751374 
L 1203.264626 418.751374 
L 1203.757029 414.689861 
L 1205.234235 414.689861 
L 1205.726637 406.740611 
L 1207.203844 406.740611 
L 1207.696246 398.882146 
L 1211.143061 398.866376 
L 1211.635464 402.821187 
L 1213.11267 402.821187 
L 1213.605072 398.99944 
L 1215.082279 398.99944 
L 1215.574681 395.200289 
L 1217.051888 395.200289 
L 1217.54429 395.338236 
L 1219.021496 395.338236 
L 1219.513898 410.801257 
L 1220.991105 410.801257 
L 1221.483507 414.775043 
L 1222.960714 414.775043 
L 1223.453116 404.116399 
L 1224.930322 404.116399 
L 1225.422725 408.150541 
L 1226.899931 408.150541 
L 1227.392333 412.501026 
L 1228.86954 412.501026 
L 1229.361942 408.77107 
L 1230.839149 408.77107 
L 1231.331551 409.117148 
L 1232.808757 409.117148 
L 1233.30116 413.998333 
L 1234.778366 413.998333 
L 1235.270768 415.330457 
L 1238.717584 415.332999 
L 1239.209986 404.387302 
L 1240.687192 404.387302 
L 1241.179594 397.118114 
L 1242.656801 397.118114 
L 1243.149203 393.487137 
L 1244.62641 393.487137 
L 1245.118812 386.237465 
L 1246.596018 386.237465 
L 1247.088421 382.618751 
L 1248.565627 382.618751 
L 1249.058029 379.002387 
L 1250.535236 379.002387 
L 1251.027638 371.776565 
L 1252.504845 371.776565 
L 1252.997247 364.559722 
L 1254.474453 364.559722 
L 1254.966856 357.351609 
L 1256.444062 357.351609 
L 1256.936464 353.750781 
L 1258.413671 353.750781 
L 1258.906073 342.980733 
L 1260.38328 342.980733 
L 1260.875682 335.823914 
L 1262.352888 335.823914 
L 1262.84529 332.248579 
L 1266.292106 332.248579 
L 1266.784508 328.675269 
L 1268.261714 328.675269 
L 1268.754117 317.978996 
L 1270.231323 317.978996 
L 1270.723725 307.321703 
L 1272.200932 307.321703 
L 1272.693334 296.707559 
L 1274.170541 296.707559 
L 1274.662943 289.653444 
L 1276.140149 289.653444 
L 1276.632551 279.107173 
L 1278.109758 279.107173 
L 1278.60216 291.282081 
L 1280.079367 291.282081 
L 1280.571769 300.829187 
L 1282.048975 300.829187 
L 1282.541378 303.501136 
L 1284.018584 303.501136 
L 1284.510986 306.257247 
L 1285.988193 306.257247 
L 1286.480595 315.007456 
L 1289.92741 315.027908 
L 1290.419813 312.30946 
L 1291.897019 312.30946 
L 1292.389421 316.719214 
L 1293.866628 316.719214 
L 1294.35903 313.201147 
L 1295.836237 313.201147 
L 1296.328639 315.42663 
L 1297.805845 315.42663 
L 1298.298247 302.082665 
L 1299.775454 302.082665 
L 1300.267856 288.79068 
L 1301.745063 288.79068 
L 1302.237465 275.546458 
L 1303.714671 275.546458 
L 1304.207074 265.658504 
L 1305.68428 265.658504 
L 1306.176682 255.808567 
L 1307.653889 255.808567 
L 1308.146291 249.257799 
L 1309.623498 249.257799 
L 1310.1159 239.457693 
L 1311.593106 239.457693 
L 1312.085509 236.19813 
L 1313.562715 236.19813 
L 1314.055117 229.691066 
L 1315.532324 229.691066 
L 1316.024726 223.2 
L 1317.501933 223.2 
L 1317.994335 224.526033 
L 1319.471541 224.526033 
L 1319.963943 235.575329 
L 1323.410759 235.571603 
L 1323.903161 233.713884 
L 1327.349976 233.713884 
L 1327.842378 228.642636 
L 1330.796791 228.642636 
L 1330.796791 228.642636 
" clip-path="url(#pf4aca74f55)" style="fill: none; stroke: #0000ff; stroke-width: 1.5; stroke-linecap: square"/>
   </g>
   <g id="patch_9">
    <path d="M 860.823529 1281.6 
L 860.823529 172.8 
" style="fill: none; stroke: #000000; stroke-width: 0.8; stroke-linejoin: miter; stroke-linecap: square"/>
   </g>
   <g id="patch_10">
    <path d="M 1353.176471 1281.6 
L 1353.176471 172.8 
" style="fill: none; stroke: #000000; stroke-width: 0.8; stroke-linejoin: miter; stroke-linecap: square"/>
   </g>
   <g id="patch_11">
    <path d="M 860.823529 1281.6 
L 1353.176471 1281.6 
" style="fill: none; stroke: #000000; stroke-width: 0.8; stroke-linejoin: miter; stroke-linecap: square"/>
   </g>
   <g id="patch_12">
    <path d="M 860.823529 172.8 
L 1353.176471 172.8 
" style="fill: none; stroke: #000000; stroke-width: 0.8; stroke-linejoin: miter; stroke-linecap: square"/>
   </g>
   <g id="legend_2">
    <g id="patch_13">
     <path d="M 1262.134283 195.478125 
L 1346.176471 195.478125 
Q 1348.176471 195.478125 1348.176471 193.478125 
L 1348.176471 179.8 
Q 1348.176471 177.8 1346.176471 177.8 
L 1262.134283 177.8 
Q 1260.134283 177.8 1260.134283 179.8 
L 1260.134283 193.478125 
Q 1260.134283 195.478125 1262.134283 195.478125 
z
" style="fill: #ffffff; opacity: 0.8; stroke: #cccccc; stroke-linejoin: miter"/>
    </g>
    <g id="line2d_26">
     <path d="M 1264.134283 185.898437 
L 1274.134283 185.898437 
L 1284.134283 185.898437 
" style="fill: none; stroke: #0000ff; stroke-width: 1.5; stroke-linecap: square"/>
    </g>
    <g id="text_24">
     <!-- O2 reward -->
     <g transform="translate(1292.134283 189.398437) scale(0.1 -0.1)">
      <use xlink:href="#DejaVuSans-4f"/>
      <use xlink:href="#DejaVuSans-32" x="78.710938"/>
      <use xlink:href="#DejaVuSans-20" x="142.333984"/>
      <use xlink:href="#DejaVuSans-72" x="174.121094"/>
      <use xlink:href="#DejaVuSans-65" x="212.984375"/>
      <use xlink:href="#DejaVuSans-77" x="274.507812"/>
      <use xlink:href="#DejaVuSans-61" x="356.294922"/>
      <use xlink:href="#DejaVuSans-72" x="417.574219"/>
      <use xlink:href="#DejaVuSans-64" x="456.9375"/>
     </g>
    </g>
   </g>
  </g>
  <g id="axes_3">
   <g id="patch_14">
    <path d="M 1451.647059 1281.6 
L 1944 1281.6 
L 1944 172.8 
L 1451.647059 172.8 
z
" style="fill: #ffffff"/>
   </g>
   <g id="matplotlib.axis_5">
    <g id="xtick_11">
     <g id="line2d_27">
      <g>
       <use xlink:href="#mcc7622fc9c" x="1473.534336" y="1281.6" style="stroke: #000000; stroke-width: 0.8"/>
      </g>
     </g>
     <g id="text_25">
      <!-- 0 -->
      <g transform="translate(1470.353086 1296.198437) scale(0.1 -0.1)">
       <use xlink:href="#DejaVuSans-30"/>
      </g>
     </g>
    </g>
    <g id="xtick_12">
     <g id="line2d_28">
      <g>
       <use xlink:href="#mcc7622fc9c" x="1572.014772" y="1281.6" style="stroke: #000000; stroke-width: 0.8"/>
      </g>
     </g>
     <g id="text_26">
      <!-- 200 -->
      <g transform="translate(1562.471022 1296.198437) scale(0.1 -0.1)">
       <use xlink:href="#DejaVuSans-32"/>
       <use xlink:href="#DejaVuSans-30" x="63.623047"/>
       <use xlink:href="#DejaVuSans-30" x="127.246094"/>
      </g>
     </g>
    </g>
    <g id="xtick_13">
     <g id="line2d_29">
      <g>
       <use xlink:href="#mcc7622fc9c" x="1670.495208" y="1281.6" style="stroke: #000000; stroke-width: 0.8"/>
      </g>
     </g>
     <g id="text_27">
      <!-- 400 -->
      <g transform="translate(1660.951458 1296.198437) scale(0.1 -0.1)">
       <use xlink:href="#DejaVuSans-34"/>
       <use xlink:href="#DejaVuSans-30" x="63.623047"/>
       <use xlink:href="#DejaVuSans-30" x="127.246094"/>
      </g>
     </g>
    </g>
    <g id="xtick_14">
     <g id="line2d_30">
      <g>
       <use xlink:href="#mcc7622fc9c" x="1768.975645" y="1281.6" style="stroke: #000000; stroke-width: 0.8"/>
      </g>
     </g>
     <g id="text_28">
      <!-- 600 -->
      <g transform="translate(1759.431895 1296.198437) scale(0.1 -0.1)">
       <use xlink:href="#DejaVuSans-36"/>
       <use xlink:href="#DejaVuSans-30" x="63.623047"/>
       <use xlink:href="#DejaVuSans-30" x="127.246094"/>
      </g>
     </g>
    </g>
    <g id="xtick_15">
     <g id="line2d_31">
      <g>
       <use xlink:href="#mcc7622fc9c" x="1867.456081" y="1281.6" style="stroke: #000000; stroke-width: 0.8"/>
      </g>
     </g>
     <g id="text_29">
      <!-- 800 -->
      <g transform="translate(1857.912331 1296.198437) scale(0.1 -0.1)">
       <use xlink:href="#DejaVuSans-38"/>
       <use xlink:href="#DejaVuSans-30" x="63.623047"/>
       <use xlink:href="#DejaVuSans-30" x="127.246094"/>
      </g>
     </g>
    </g>
   </g>
   <g id="matplotlib.axis_6">
    <g id="ytick_13">
     <g id="line2d_32">
      <g>
       <use xlink:href="#mc5fadf1625" x="1451.647059" y="1231.2" style="stroke: #000000; stroke-width: 0.8"/>
      </g>
     </g>
     <g id="text_30">
      <!-- 0.0 -->
      <g transform="translate(1428.743934 1234.999219) scale(0.1 -0.1)">
       <defs>
        <path id="DejaVuSans-2e" d="M 684 794 
L 1344 794 
L 1344 0 
L 684 0 
L 684 794 
z
" transform="scale(0.015625)"/>
       </defs>
       <use xlink:href="#DejaVuSans-30"/>
       <use xlink:href="#DejaVuSans-2e" x="63.623047"/>
       <use xlink:href="#DejaVuSans-30" x="95.410156"/>
      </g>
     </g>
    </g>
    <g id="ytick_14">
     <g id="line2d_33">
      <g>
       <use xlink:href="#mc5fadf1625" x="1451.647059" y="1096.228685" style="stroke: #000000; stroke-width: 0.8"/>
      </g>
     </g>
     <g id="text_31">
      <!-- 2.5 -->
      <g transform="translate(1428.743934 1100.027904) scale(0.1 -0.1)">
       <defs>
        <path id="DejaVuSans-35" d="M 691 4666 
L 3169 4666 
L 3169 4134 
L 1269 4134 
L 1269 2991 
Q 1406 3038 1543 3061 
Q 1681 3084 1819 3084 
Q 2600 3084 3056 2656 
Q 3513 2228 3513 1497 
Q 3513 744 3044 326 
Q 2575 -91 1722 -91 
Q 1428 -91 1123 -41 
Q 819 9 494 109 
L 494 744 
Q 775 591 1075 516 
Q 1375 441 1709 441 
Q 2250 441 2565 725 
Q 2881 1009 2881 1497 
Q 2881 1984 2565 2268 
Q 2250 2553 1709 2553 
Q 1456 2553 1204 2497 
Q 953 2441 691 2322 
L 691 4666 
z
" transform="scale(0.015625)"/>
       </defs>
       <use xlink:href="#DejaVuSans-32"/>
       <use xlink:href="#DejaVuSans-2e" x="63.623047"/>
       <use xlink:href="#DejaVuSans-35" x="95.410156"/>
      </g>
     </g>
    </g>
    <g id="ytick_15">
     <g id="line2d_34">
      <g>
       <use xlink:href="#mc5fadf1625" x="1451.647059" y="961.25737" style="stroke: #000000; stroke-width: 0.8"/>
      </g>
     </g>
     <g id="text_32">
      <!-- 5.0 -->
      <g transform="translate(1428.743934 965.056589) scale(0.1 -0.1)">
       <use xlink:href="#DejaVuSans-35"/>
       <use xlink:href="#DejaVuSans-2e" x="63.623047"/>
       <use xlink:href="#DejaVuSans-30" x="95.410156"/>
      </g>
     </g>
    </g>
    <g id="ytick_16">
     <g id="line2d_35">
      <g>
       <use xlink:href="#mc5fadf1625" x="1451.647059" y="826.286056" style="stroke: #000000; stroke-width: 0.8"/>
      </g>
     </g>
     <g id="text_33">
      <!-- 7.5 -->
      <g transform="translate(1428.743934 830.085274) scale(0.1 -0.1)">
       <defs>
        <path id="DejaVuSans-37" d="M 525 4666 
L 3525 4666 
L 3525 4397 
L 1831 0 
L 1172 0 
L 2766 4134 
L 525 4134 
L 525 4666 
z
" transform="scale(0.015625)"/>
       </defs>
       <use xlink:href="#DejaVuSans-37"/>
       <use xlink:href="#DejaVuSans-2e" x="63.623047"/>
       <use xlink:href="#DejaVuSans-35" x="95.410156"/>
      </g>
     </g>
    </g>
    <g id="ytick_17">
     <g id="line2d_36">
      <g>
       <use xlink:href="#mc5fadf1625" x="1451.647059" y="691.314741" style="stroke: #000000; stroke-width: 0.8"/>
      </g>
     </g>
     <g id="text_34">
      <!-- 10.0 -->
      <g transform="translate(1422.381434 695.11396) scale(0.1 -0.1)">
       <use xlink:href="#DejaVuSans-31"/>
       <use xlink:href="#DejaVuSans-30" x="63.623047"/>
       <use xlink:href="#DejaVuSans-2e" x="127.246094"/>
       <use xlink:href="#DejaVuSans-30" x="159.033203"/>
      </g>
     </g>
    </g>
    <g id="ytick_18">
     <g id="line2d_37">
      <g>
       <use xlink:href="#mc5fadf1625" x="1451.647059" y="556.343426" style="stroke: #000000; stroke-width: 0.8"/>
      </g>
     </g>
     <g id="text_35">
      <!-- 12.5 -->
      <g transform="translate(1422.381434 560.142645) scale(0.1 -0.1)">
       <use xlink:href="#DejaVuSans-31"/>
       <use xlink:href="#DejaVuSans-32" x="63.623047"/>
       <use xlink:href="#DejaVuSans-2e" x="127.246094"/>
       <use xlink:href="#DejaVuSans-35" x="159.033203"/>
      </g>
     </g>
    </g>
    <g id="ytick_19">
     <g id="line2d_38">
      <g>
       <use xlink:href="#mc5fadf1625" x="1451.647059" y="421.372111" style="stroke: #000000; stroke-width: 0.8"/>
      </g>
     </g>
     <g id="text_36">
      <!-- 15.0 -->
      <g transform="translate(1422.381434 425.17133) scale(0.1 -0.1)">
       <use xlink:href="#DejaVuSans-31"/>
       <use xlink:href="#DejaVuSans-35" x="63.623047"/>
       <use xlink:href="#DejaVuSans-2e" x="127.246094"/>
       <use xlink:href="#DejaVuSans-30" x="159.033203"/>
      </g>
     </g>
    </g>
    <g id="ytick_20">
     <g id="line2d_39">
      <g>
       <use xlink:href="#mc5fadf1625" x="1451.647059" y="286.400797" style="stroke: #000000; stroke-width: 0.8"/>
      </g>
     </g>
     <g id="text_37">
      <!-- 17.5 -->
      <g transform="translate(1422.381434 290.200015) scale(0.1 -0.1)">
       <use xlink:href="#DejaVuSans-31"/>
       <use xlink:href="#DejaVuSans-37" x="63.623047"/>
       <use xlink:href="#DejaVuSans-2e" x="127.246094"/>
       <use xlink:href="#DejaVuSans-35" x="159.033203"/>
      </g>
     </g>
    </g>
   </g>
   <g id="line2d_40">
    <path d="M 1474.026738 1231.2 
L 1494.70763 1231.2 
L 1495.200032 1210.144325 
L 1496.677238 1210.144325 
L 1497.16964 1193.319329 
L 1498.646847 1193.319329 
L 1499.139249 1179.008085 
L 1500.616456 1179.008085 
L 1501.108858 1157.798307 
L 1502.586064 1157.798307 
L 1503.078467 1150.666056 
L 1504.555673 1150.666056 
L 1505.048075 1122.89923 
L 1506.525282 1122.89923 
L 1507.017684 1130.966607 
L 1508.494891 1130.966607 
L 1508.987293 1115.16451 
L 1510.464499 1115.16451 
L 1510.956902 1099.583906 
L 1512.434108 1099.583906 
L 1512.92651 1089.014823 
L 1514.403717 1089.014823 
L 1514.896119 1071.114649 
L 1516.373326 1071.114649 
L 1516.865728 1054.311943 
L 1518.342934 1054.311943 
L 1518.835336 1043.899743 
L 1522.282152 1043.899743 
L 1522.774554 1039.316384 
L 1524.25176 1039.316384 
L 1524.744163 1029.280055 
L 1526.221369 1029.280055 
L 1526.713771 1023.690751 
L 1530.160587 1023.690751 
L 1530.652989 1019.518264 
L 1532.130195 1019.518264 
L 1532.622598 1010.37735 
L 1536.069413 1010.37735 
L 1536.561815 1006.548193 
L 1538.039022 1006.548193 
L 1538.531424 990.405776 
L 1540.00863 990.405776 
L 1540.501032 967.754838 
L 1541.978239 967.754838 
L 1542.470641 951.886428 
L 1543.947848 951.886428 
L 1544.44025 941.327294 
L 1545.917456 941.327294 
L 1546.409859 911.872769 
L 1547.887065 911.872769 
L 1548.379467 897.218487 
L 1549.856674 897.218487 
L 1550.349076 892.618086 
L 1551.826283 892.618086 
L 1552.318685 878.270238 
L 1553.795891 878.270238 
L 1554.288294 868.714506 
L 1555.7655 868.714506 
L 1556.257902 860.560383 
L 1557.735109 860.560383 
L 1558.227511 846.305928 
L 1559.704718 846.305928 
L 1560.19712 840.49742 
L 1561.674326 840.49742 
L 1562.166728 827.511426 
L 1565.613544 827.41841 
L 1566.105946 831.091118 
L 1567.583152 831.091118 
L 1568.075555 833.366268 
L 1569.552761 833.366268 
L 1570.045163 828.037994 
L 1571.52237 828.037994 
L 1572.014772 830.273809 
L 1573.491979 830.273809 
L 1573.984381 827.143282 
L 1575.461587 827.143282 
L 1575.95399 830.658606 
L 1577.431196 830.658606 
L 1577.923598 827.361985 
L 1581.370414 827.361985 
L 1581.862816 824.002472 
L 1583.340022 824.002472 
L 1583.832424 814.085423 
L 1585.309631 814.085423 
L 1585.802033 805.485101 
L 1587.27924 805.485101 
L 1587.771642 810.732068 
L 1589.248848 810.732068 
L 1589.741251 812.833014 
L 1595.157675 812.833014 
L 1595.650077 803.047214 
L 1597.127283 803.047214 
L 1597.619685 784.636398 
L 1599.096892 784.636398 
L 1599.589294 775.708372 
L 1601.066501 775.708372 
L 1601.558903 769.401011 
L 1603.036109 769.401011 
L 1603.528512 765.266175 
L 1605.005718 765.266175 
L 1605.49812 755.391681 
L 1606.975327 755.391681 
L 1607.467729 748.766715 
L 1608.944936 748.766715 
L 1609.437338 743.625098 
L 1610.914544 743.625098 
L 1611.406947 733.100132 
L 1612.884153 733.100132 
L 1613.376555 726.86731 
L 1614.853762 726.86731 
L 1615.346164 718.268291 
L 1616.823371 718.268291 
L 1617.315773 715.906756 
L 1618.792979 715.906756 
L 1619.285381 706.207164 
L 1620.762588 706.207164 
L 1621.25499 698.170227 
L 1622.732197 698.170227 
L 1623.224599 690.275054 
L 1624.701805 690.275054 
L 1625.194208 682.694123 
L 1628.641023 682.694123 
L 1629.133425 677.423814 
L 1630.610632 677.423814 
L 1631.103034 672.847848 
L 1632.58024 672.847848 
L 1633.072643 674.993336 
L 1634.549849 674.993336 
L 1635.042251 670.940641 
L 1636.519458 670.940641 
L 1637.01186 663.898374 
L 1638.489067 663.898374 
L 1638.981469 658.845261 
L 1640.458675 658.845261 
L 1640.951077 653.750003 
L 1642.428284 653.750003 
L 1642.920686 647.006418 
L 1644.397893 647.006418 
L 1644.890295 632.643709 
L 1646.367501 632.643709 
L 1646.859904 631.036913 
L 1648.33711 631.036913 
L 1648.829512 628.78946 
L 1650.306719 628.78946 
L 1650.799121 619.96861 
L 1652.276328 619.96861 
L 1652.76873 613.659312 
L 1654.245936 613.659312 
L 1654.738339 609.310766 
L 1656.215545 609.310766 
L 1656.707947 601.498595 
L 1658.185154 601.498595 
L 1658.677556 592.596865 
L 1660.154763 592.596865 
L 1660.647165 587.862842 
L 1662.124371 587.862842 
L 1662.616773 586.993734 
L 1664.09398 586.993734 
L 1664.586382 584.472095 
L 1666.063589 584.472095 
L 1666.555991 581.084066 
L 1668.033197 581.084066 
L 1668.5256 576.12388 
L 1670.002806 576.12388 
L 1670.495208 574.504015 
L 1671.972415 574.504015 
L 1672.464817 567.514077 
L 1673.942024 567.514077 
L 1674.434426 565.122722 
L 1675.911632 565.122722 
L 1676.404035 561.492862 
L 1677.881241 561.492862 
L 1678.373643 557.881689 
L 1679.85085 557.881689 
L 1680.343252 553.892238 
L 1683.790067 553.892238 
L 1684.282469 551.525301 
L 1685.759676 551.525301 
L 1686.252078 550.341121 
L 1687.729285 550.341121 
L 1688.221687 545.24685 
L 1691.668502 545.24685 
L 1692.160904 546.420376 
L 1693.638111 546.420376 
L 1694.130513 546.816409 
L 1695.60772 546.816409 
L 1696.100122 544.556964 
L 1697.577328 544.556964 
L 1698.069731 537.287575 
L 1699.546937 537.287575 
L 1700.039339 534.36146 
L 1701.516546 534.36146 
L 1702.008948 535.037611 
L 1703.486154 535.037611 
L 1703.978557 527.91664 
L 1705.455763 527.91664 
L 1705.948165 522.109786 
L 1707.425372 522.109786 
L 1707.917774 521.167301 
L 1709.394981 521.167301 
L 1709.887383 518.451774 
L 1711.364589 518.451774 
L 1711.856992 514.594046 
L 1713.334198 514.594046 
L 1713.8266 513.999781 
L 1715.303807 513.999781 
L 1715.796209 509.939316 
L 1717.273416 509.939316 
L 1717.765818 506.769932 
L 1719.243024 506.769932 
L 1719.735426 501.56902 
L 1721.212633 501.56902 
L 1721.705035 498.491173 
L 1723.182242 498.491173 
L 1723.674644 494.38382 
L 1725.15185 494.38382 
L 1725.644253 490.613135 
L 1727.121459 490.613135 
L 1727.613861 487.654625 
L 1729.091068 487.654625 
L 1729.58347 487.153731 
L 1731.060677 487.153731 
L 1731.553079 483.485414 
L 1733.030285 483.485414 
L 1733.522688 478.401526 
L 1734.999894 478.401526 
L 1735.492296 473.959497 
L 1736.969503 473.959497 
L 1737.461905 467.834329 
L 1738.939112 467.834329 
L 1739.431514 462.296052 
L 1740.90872 462.296052 
L 1741.401122 449.243197 
L 1742.878329 449.243197 
L 1743.370731 440.029275 
L 1744.847938 440.029275 
L 1745.34034 433.213323 
L 1746.817546 433.213323 
L 1747.309949 428.943913 
L 1748.787155 428.943913 
L 1749.279557 422.873954 
L 1750.756764 422.873954 
L 1751.249166 418.517442 
L 1752.726373 418.517442 
L 1753.218775 408.403634 
L 1754.695981 408.403634 
L 1755.188384 402.812095 
L 1756.66559 402.812095 
L 1757.157992 397.162296 
L 1758.635199 397.162296 
L 1759.127601 392.638915 
L 1760.604808 392.638915 
L 1761.09721 387.11212 
L 1762.574416 387.11212 
L 1763.066818 381.867492 
L 1764.544025 381.867492 
L 1765.036427 376.061736 
L 1766.513634 376.061736 
L 1767.006036 370.051209 
L 1768.483242 370.051209 
L 1768.975645 368.157672 
L 1770.452851 368.157672 
L 1770.945253 364.666872 
L 1772.42246 364.666872 
L 1772.914862 363.419843 
L 1774.392069 363.419843 
L 1774.884471 361.919675 
L 1776.361677 361.919675 
L 1776.85408 359.445994 
L 1778.331286 359.445994 
L 1778.823688 355.525798 
L 1780.300895 355.525798 
L 1780.793297 354.056992 
L 1782.270504 354.056992 
L 1782.762906 351.635034 
L 1784.240112 351.635034 
L 1784.732514 349.475206 
L 1788.17933 349.475206 
L 1788.671732 349.237754 
L 1790.148938 349.237754 
L 1790.641341 347.557152 
L 1792.118547 347.557152 
L 1792.610949 346.832216 
L 1794.088156 346.832216 
L 1794.580558 345.175269 
L 1796.057765 345.175269 
L 1796.550167 343.999283 
L 1798.027373 343.999283 
L 1798.519776 341.322763 
L 1799.996982 341.322763 
L 1800.489384 336.873477 
L 1801.966591 336.873477 
L 1802.458993 335.931828 
L 1803.9362 335.931828 
L 1804.428602 331.231192 
L 1805.905808 331.231192 
L 1806.39821 328.236679 
L 1807.875417 328.236679 
L 1808.367819 326.375915 
L 1809.845026 326.375915 
L 1810.337428 323.221349 
L 1811.814634 323.221349 
L 1812.307037 318.797275 
L 1813.784243 318.797275 
L 1814.276645 315.34191 
L 1815.753852 315.34191 
L 1816.246254 310.099347 
L 1817.723461 310.099347 
L 1818.215863 307.948541 
L 1819.693069 307.948541 
L 1820.185471 305.640222 
L 1821.662678 305.640222 
L 1822.15508 300.418888 
L 1823.632287 300.418888 
L 1824.124689 299.369111 
L 1825.601895 299.369111 
L 1826.094298 298.171886 
L 1827.571504 298.171886 
L 1828.063906 295.187224 
L 1829.541113 295.187224 
L 1830.033515 292.672966 
L 1831.510722 292.672966 
L 1832.003124 288.943182 
L 1833.48033 288.943182 
L 1833.972733 285.030716 
L 1835.449939 285.030716 
L 1835.942341 283.306573 
L 1837.419548 283.306573 
L 1837.91195 280.419697 
L 1839.389157 280.419697 
L 1839.881559 278.923941 
L 1841.358765 278.923941 
L 1841.851167 279.468477 
L 1843.328374 279.468477 
L 1843.820776 275.212563 
L 1845.297983 275.212563 
L 1845.790385 275.027484 
L 1847.267591 275.027484 
L 1847.759994 272.945449 
L 1851.206809 272.945449 
L 1851.699211 270.564774 
L 1853.176418 270.564774 
L 1853.66882 268.622824 
L 1855.146026 268.622824 
L 1855.638429 266.162564 
L 1857.115635 266.162564 
L 1857.608037 265.316296 
L 1859.085244 265.316296 
L 1859.577646 262.054588 
L 1861.054853 262.054588 
L 1861.547255 259.702043 
L 1863.024461 259.702043 
L 1863.516863 257.268419 
L 1864.99407 257.268419 
L 1865.486472 251.938405 
L 1866.963679 251.938405 
L 1867.456081 248.261477 
L 1870.902896 248.258516 
L 1871.395298 247.201232 
L 1872.872505 247.201232 
L 1873.364907 248.807494 
L 1874.842114 248.807494 
L 1875.334516 245.525203 
L 1876.811722 245.525203 
L 1877.304125 247.692905 
L 1878.781331 247.692905 
L 1879.273733 245.097233 
L 1880.75094 245.097233 
L 1881.243342 244.956832 
L 1882.720549 244.956832 
L 1883.212951 245.660005 
L 1886.659766 245.59262 
L 1887.152168 246.171629 
L 1888.629375 246.171629 
L 1889.121777 242.957944 
L 1890.598983 242.957944 
L 1891.091386 240.883717 
L 1892.568592 240.883717 
L 1893.060994 240.057811 
L 1894.538201 240.057811 
L 1895.030603 238.735881 
L 1896.50781 238.735881 
L 1897.000212 237.50763 
L 1898.477418 237.50763 
L 1898.969821 234.361285 
L 1902.416636 234.361285 
L 1902.909038 233.124858 
L 1904.386245 233.124858 
L 1904.878647 231.164172 
L 1906.355853 231.164172 
L 1906.848255 230.36173 
L 1908.325462 230.36173 
L 1908.817864 229.492394 
L 1910.295071 229.492394 
L 1910.787473 227.566134 
L 1912.264679 227.566134 
L 1912.757082 226.394307 
L 1914.234288 226.394307 
L 1914.72669 225.580836 
L 1916.203897 225.580836 
L 1916.696299 224.790975 
L 1920.143114 224.735707 
L 1920.635516 223.2 
L 1921.620321 223.2 
L 1921.620321 223.2 
" clip-path="url(#p8ce184be51)" style="fill: none; stroke: #0000ff; stroke-width: 1.5; stroke-linecap: square"/>
   </g>
   <g id="patch_15">
    <path d="M 1451.647059 1281.6 
L 1451.647059 172.8 
" style="fill: none; stroke: #000000; stroke-width: 0.8; stroke-linejoin: miter; stroke-linecap: square"/>
   </g>
   <g id="patch_16">
    <path d="M 1944 1281.6 
L 1944 172.8 
" style="fill: none; stroke: #000000; stroke-width: 0.8; stroke-linejoin: miter; stroke-linecap: square"/>
   </g>
   <g id="patch_17">
    <path d="M 1451.647059 1281.6 
L 1944 1281.6 
" style="fill: none; stroke: #000000; stroke-width: 0.8; stroke-linejoin: miter; stroke-linecap: square"/>
   </g>
   <g id="patch_18">
    <path d="M 1451.647059 172.8 
L 1944 172.8 
" style="fill: none; stroke: #000000; stroke-width: 0.8; stroke-linejoin: miter; stroke-linecap: square"/>
   </g>
   <g id="legend_3">
    <g id="patch_19">
     <path d="M 1852.957813 195.478125 
L 1937 195.478125 
Q 1939 195.478125 1939 193.478125 
L 1939 179.8 
Q 1939 177.8 1937 177.8 
L 1852.957813 177.8 
Q 1850.957813 177.8 1850.957813 179.8 
L 1850.957813 193.478125 
Q 1850.957813 195.478125 1852.957813 195.478125 
z
" style="fill: #ffffff; opacity: 0.8; stroke: #cccccc; stroke-linejoin: miter"/>
    </g>
    <g id="line2d_41">
     <path d="M 1854.957813 185.898437 
L 1864.957813 185.898437 
L 1874.957813 185.898437 
" style="fill: none; stroke: #0000ff; stroke-width: 1.5; stroke-linecap: square"/>
    </g>
    <g id="text_38">
     <!-- O3 reward -->
     <g transform="translate(1882.957813 189.398437) scale(0.1 -0.1)">
      <defs>
       <path id="DejaVuSans-33" d="M 2597 2516 
Q 3050 2419 3304 2112 
Q 3559 1806 3559 1356 
Q 3559 666 3084 287 
Q 2609 -91 1734 -91 
Q 1441 -91 1130 -33 
Q 819 25 488 141 
L 488 750 
Q 750 597 1062 519 
Q 1375 441 1716 441 
Q 2309 441 2620 675 
Q 2931 909 2931 1356 
Q 2931 1769 2642 2001 
Q 2353 2234 1838 2234 
L 1294 2234 
L 1294 2753 
L 1863 2753 
Q 2328 2753 2575 2939 
Q 2822 3125 2822 3475 
Q 2822 3834 2567 4026 
Q 2313 4219 1838 4219 
Q 1578 4219 1281 4162 
Q 984 4106 628 3988 
L 628 4550 
Q 988 4650 1302 4700 
Q 1616 4750 1894 4750 
Q 2613 4750 3031 4423 
Q 3450 4097 3450 3541 
Q 3450 3153 3228 2886 
Q 3006 2619 2597 2516 
z
" transform="scale(0.015625)"/>
      </defs>
      <use xlink:href="#DejaVuSans-4f"/>
      <use xlink:href="#DejaVuSans-33" x="78.710938"/>
      <use xlink:href="#DejaVuSans-20" x="142.333984"/>
      <use xlink:href="#DejaVuSans-72" x="174.121094"/>
      <use xlink:href="#DejaVuSans-65" x="212.984375"/>
      <use xlink:href="#DejaVuSans-77" x="274.507812"/>
      <use xlink:href="#DejaVuSans-61" x="356.294922"/>
      <use xlink:href="#DejaVuSans-72" x="417.574219"/>
      <use xlink:href="#DejaVuSans-64" x="456.9375"/>
     </g>
    </g>
   </g>
  </g>
 </g>
 <defs>
  <clipPath id="pc370a31f99">
   <rect x="270" y="172.8" width="492.352941" height="1108.8"/>
  </clipPath>
  <clipPath id="pf4aca74f55">
   <rect x="860.823529" y="172.8" width="492.352941" height="1108.8"/>
  </clipPath>
  <clipPath id="p8ce184be51">
   <rect x="1451.647059" y="172.8" width="492.352941" height="1108.8"/>
  </clipPath>
 </defs>
</svg>
